                                                                        S      1
,,15HCam Halter 2 v4,15HCam Halter 2 v4,7Hunknown,7Hunknown,32,38,7,99, G      1
15,,1.,2,2HMM,1,0.08,15H20220922.114656,0.01,10000.,7Hunknown,7Hunknown,G      2
11,0,15H20220517.220215;                                                G      3
     186       1                                                00000000D      1
     186            -209       1       0                               0D      2
     514       2                                                00010000D      3
     514                       2       1                               0D      4
     510       4                                                00010000D      5
     510            -209       1       1                               0D      6
     510       5                                                00010000D      7
     510            -209       1       1                               0D      8
     510       6                                                00010000D      9
     510            -209       1       1                               0D     10
     510       7                                                00010000D     11
     510            -209       1       1                               0D     12
     510       8                                                00010000D     13
     510            -209       1       1                               0D     14
     510       9                                                00010000D     15
     510            -209       1       1                               0D     16
     510      10                                                00010000D     17
     510            -209       1       1                               0D     18
     510      11                                                00010000D     19
     510            -209       1       1                               0D     20
     510      12                                                00010000D     21
     510            -209       1       1                               0D     22
     510      13                                                00010000D     23
     510            -209       1       1                               0D     24
     510      14                                                00010000D     25
     510            -209       1       1                               0D     26
     510      15                                                00010000D     27
     510            -209       1       1                               0D     28
     510      16                                                00010000D     29
     510            -209       1       1                               0D     30
     510      17                                                00010000D     31
     510            -209       1       1                               0D     32
     510      18                                                00010000D     33
     510            -209       1       1                               0D     34
     510      19                                                00010000D     35
     510            -209       1       1                               0D     36
     510      20                                                00010000D     37
     510            -209       1       1                               0D     38
     508      21                                                00010000D     39
     508                       2       1                               0D     40
     508      23                                                00010000D     41
     508                       2       1                               0D     42
     508      25                                                00010000D     43
     508                       2       1                               0D     44
     508      27                                                00010000D     45
     508                       1       1                               0D     46
     508      28                                                00010000D     47
     508                       1       1                               0D     48
     508      29                                                00010000D     49
     508                       2       1                               0D     50
     508      31                                                00010000D     51
     508                       1       1                               0D     52
     508      32                                                00010000D     53
     508                       1       1                               0D     54
     508      33                                                00010000D     55
     508                       2       1                               0D     56
     508      35                                                00010000D     57
     508                       1       1                               0D     58
     508      36                                                00010000D     59
     508                       1       1                               0D     60
     508      37                                                00010000D     61
     508                       3       1                               0D     62
     508      40                                                00010000D     63
     508                       1       1                               0D     64
     508      41                                                00010000D     65
     508                       1       1                               0D     66
     508      42                                                00010000D     67
     508                       1       1                               0D     68
     508      43                                                00010000D     69
     508                       1       1                               0D     70
     508      44                                                00010000D     71
     508                       1       1                               0D     72
     508      45                                                00010000D     73
     508                       2       1                               0D     74
     508      47                                                00010000D     75
     508                       1       1                               0D     76
     508      48                                                00010000D     77
     508                       1       1                               0D     78
     508      49                                                00010000D     79
     508                       1       1                               0D     80
     508      50                                                00010000D     81
     508                       1       1                               0D     82
     126      51                                                00010000D     83
     126       0               4       0                               0D     84
     126      55                                                00010000D     85
     126       0               4       0                               0D     86
     126      59                                                00010000D     87
     126       0               3       0                               0D     88
     126      62                                                00010000D     89
     126       0               4       0                               0D     90
     126      66                                                00010000D     91
     126       0               3       0                               0D     92
     126      69                                                00010000D     93
     126       0               6       0                               0D     94
     126      75                                                00010000D     95
     126       0               4       0                               0D     96
     126      79                                                00010000D     97
     126       0               6       0                               0D     98
     126      85                                                00010000D     99
     126       0               3       0                               0D    100
     126      88                                                00010000D    101
     126       0               3       0                               0D    102
     126      91                                                00010000D    103
     126       0               5       0                               0D    104
     126      96                                                00010000D    105
     126       0               3       0                               0D    106
     126      99                                                00010000D    107
     126       0               3       0                               0D    108
     126     102                                                00010000D    109
     126       0               3       0                               0D    110
     126     105                                                00010000D    111
     126       0               4       0                               0D    112
     126     109                                                00010000D    113
     126       0               9       0                               0D    114
     126     118                                                00010000D    115
     126       0              12       0                               0D    116
     126     130                                                00010000D    117
     126       0               2       0                               0D    118
     126     132                                                00010000D    119
     126       0               2       0                               0D    120
     126     134                                                00010000D    121
     126       0               2       0                               0D    122
     126     136                                                00010000D    123
     126       0               2       0                               0D    124
     126     138                                                00010000D    125
     126       0               2       0                               0D    126
     126     140                                                00010000D    127
     126       0               8       0                               0D    128
     126     148                                                00010000D    129
     126       0               8       0                               0D    130
     126     156                                                00010000D    131
     126       0              12       0                               0D    132
     126     168                                                00010000D    133
     126       0               4       0                               0D    134
     126     172                                                00010000D    135
     126       0               6       0                               0D    136
     126     178                                                00010000D    137
     126       0              12       0                               0D    138
     126     190                                                00010000D    139
     126       0              13       0                               0D    140
     126     203                                                00010000D    141
     126       0               3       0                               0D    142
     126     206                                                00010000D    143
     126       0               8       0                               0D    144
     126     214                                                00010000D    145
     126       0               2       0                               0D    146
     126     216                                                00010000D    147
     126       0               8       0                               0D    148
     126     224                                                00010000D    149
     126       0               2       0                               0D    150
     126     226                                                00010000D    151
     126       0               8       0                               0D    152
     126     234                                                00010000D    153
     126       0               2       0                               0D    154
     126     236                                                00010000D    155
     126       0               2       0                               0D    156
     126     238                                                00010000D    157
     126       0               2       0                               0D    158
     126     240                                                00010000D    159
     126       0               2       0                               0D    160
     126     242                                                00010000D    161
     126       0               2       0                               0D    162
     126     244                                                00010000D    163
     126       0               2       0                               0D    164
     126     246                                                00010000D    165
     126       0               2       0                               0D    166
     126     248                                                00010000D    167
     126       0               2       0                               0D    168
     128     250                                                00010000D    169
     128       0    -209       6       0                               0D    170
     128     256                                                00010000D    171
     128       0    -209       7       0                               0D    172
     128     263                                                00010000D    173
     128       0    -209       6       0                               0D    174
     128     269                                                00010000D    175
     128       0    -209       6       0                               0D    176
     128     275                                                00010000D    177
     128       0    -209       9       0                               0D    178
     128     284                                                00010000D    179
     128       0    -209       4       0                               0D    180
     128     288                                                00010000D    181
     128       0    -209      21       0                               0D    182
     128     309                                                00010000D    183
     128       0    -209       8       0                               0D    184
     128     317                                                00010000D    185
     128       0    -209      20       0                               0D    186
     128     337                                                00010000D    187
     128       0    -209       5       0                               0D    188
     128     342                                                00010000D    189
     128       0    -209      12       0                               0D    190
     128     354                                                00010000D    191
     128       0    -209      12       0                               0D    192
     128     366                                                00010000D    193
     128       0    -209       4       0                               0D    194
     128     370                                                00010000D    195
     128       0    -209       3       0                               0D    196
     128     373                                                00010000D    197
     128       0    -209       4       0                               0D    198
     128     377                                                00010000D    199
     128       0    -209       4       0                               0D    200
     128     381                                                00010000D    201
     128       0    -209       4       0                               0D    202
     502     385                                                00010000D    203
     502                      13       1                               0D    204
     504     398                                                00010001D    205
     504                      12       1                               0D    206
     406     410                                                00000000D    207
     406                       1      15                               0D    208
     314     411                                                00000200D    209
     314                       2       0                               0D    210
186,3,1,0,0,1,207;                                                     1P      1
514,17,5,1,7,1,9,1,11,1,13,1,15,1,17,1,19,1,21,1,23,1,25,1,27,1,       3P      2
29,1,31,1,33,1,35,1,37,1;                                              3P      3
510,169,1,1,39;                                                        5P      4
510,171,1,1,41;                                                        7P      5
510,173,1,1,43;                                                        9P      6
510,175,1,1,45;                                                       11P      7
510,177,1,1,47;                                                       13P      8
510,179,3,1,49,51,53;                                                 15P      9
510,181,1,1,55;                                                       17P     10
510,183,2,1,57,59;                                                    19P     11
510,185,1,1,61;                                                       21P     12
510,187,1,1,63;                                                       23P     13
510,189,1,1,65;                                                       25P     14
510,191,1,1,67;                                                       27P     15
510,193,1,1,69;                                                       29P     16
510,195,1,1,71;                                                       31P     17
510,197,1,1,73;                                                       33P     18
510,199,1,1,75;                                                       35P     19
510,201,3,1,77,79,81;                                                 37P     20
508,5,0,205,1,0,0,0,205,2,0,0,0,205,3,0,0,0,205,4,0,0,0,205,5,1,      39P     21
0;                                                                    39P     22
508,6,0,205,6,0,0,0,205,7,0,0,0,205,8,0,0,0,205,9,1,0,0,205,10,       41P     23
1,0,0,205,2,1,0;                                                      41P     24
508,5,0,205,11,0,0,0,205,12,0,0,0,205,13,0,0,0,205,14,1,0,0,205,      43P     25
9,0,0;                                                                43P     26
508,4,0,205,15,0,0,0,205,3,1,0,0,205,10,0,0,0,205,14,0,0;             45P     27
508,2,0,205,16,1,0,0,205,17,1,0;                                      47P     28
508,8,0,205,4,1,0,0,205,15,1,0,0,205,13,1,0,0,205,18,1,0,0,205,       49P     29
19,1,0,0,205,20,1,0,0,205,21,1,0,0,205,22,1,0;                        49P     30
508,1,0,205,23,1,0;                                                   51P     31
508,1,0,205,24,1,0;                                                   53P     32
508,5,0,205,25,0,0,0,205,26,1,0,0,205,16,0,0,0,205,17,0,0,0,205,      55P     33
26,0,0;                                                               55P     34
508,3,0,205,7,1,0,0,205,27,1,0,0,205,28,1,0;                          57P     35
508,1,0,205,25,1,0;                                                   59P     36
508,10,0,205,29,0,0,0,205,30,1,0,0,205,27,0,0,0,205,6,1,0,0,205,      61P     37
1,1,0,0,205,31,0,0,0,205,11,1,0,0,205,8,1,0,0,205,28,0,0,0,205,       61P     38
30,0,0;                                                               61P     39
508,1,0,205,29,1,0;                                                   63P     40
508,4,0,205,24,0,0,0,205,32,1,0,0,205,33,1,0,0,205,32,0,0;            65P     41
508,4,0,205,23,0,0,0,205,34,1,0,0,205,35,1,0,0,205,34,0,0;            67P     42
508,4,0,205,36,1,0,0,205,37,1,0,0,205,20,0,0,0,205,38,0,0;            69P     43
508,4,0,205,39,1,0,0,205,38,1,0,0,205,19,0,0,0,205,40,0,0;            71P     44
508,8,0,205,31,1,0,0,205,5,0,0,0,205,22,0,0,0,205,41,0,0,0,205,       73P     45
42,1,0,0,205,40,1,0,0,205,18,0,0,0,205,12,1,0;                        73P     46
508,4,0,205,43,1,0,0,205,41,1,0,0,205,21,0,0,0,205,37,0,0;            75P     47
508,4,0,205,43,0,0,0,205,36,0,0,0,205,39,0,0,0,205,42,0,0;            77P     48
508,1,0,205,35,0,0;                                                   79P     49
508,1,0,205,33,0,0;                                                   81P     50
126,1,1,0,0,1,0,-0.31826444923627,-0.31826444923627,                  83P     51
0.0808947734459772,0.0808947734459772,1.,1.,15.5211383139466,         83P     52
3.75086976073147,5.5,15.5211383139466,-2.77555756156289D-16,          83P     53
4.13479505448456,-0.31826444923627,0.0808947734459772,0.,0.,0.;       83P     54
126,1,1,0,0,1,0,-1.12767008642202,-1.12767008642202,                  85P     55
-0.375086976073147,-0.375086976073147,1.,1.,15.5211383139466,         85P     56
11.2767008642202,5.5,15.5211383139466,3.75086976073147,5.5,           85P     57
-1.12767008642202,-0.375086976073147,0.,0.,0.;                        85P     58
126,1,1,0,0,1,0,0.,0.,0.4,0.4,1.,1.,15.5211383139466,                 87P     59
11.2767008642202,1.5,15.5211383139466,11.2767008642202,5.5,0.,        87P     60
0.4,0.,0.,0.;                                                         87P     61
126,1,1,0,0,1,0,-0.938835043211012,-0.938835043211012,                89P     62
0.188835043211012,0.188835043211012,1.,1.,15.5211383139466,0.,        89P     63
1.5,15.5211383139466,11.2767008642202,1.5,-0.938835043211012,         89P     64
0.188835043211012,0.,0.,0.;                                           89P     65
126,1,1,0,0,1,0,0.,0.,0.263479505448456,0.263479505448456,1.,1.,      91P     66
15.5211383139466,0.,1.5,15.5211383139466,0.,4.13479505448456,0.,      91P     67
0.263479505448456,0.,0.,0.;                                           91P     68
126,2,2,0,0,0,0,-2.79570837027837,-2.79570837027837,                  93P     69
-2.79570837027837,-2.0314269909025,-2.0314269909025,                  93P     70
-2.0314269909025,1.,0.927868482732708,1.,18.3048563888538,            93P     71
11.0057479590253,5.5,16.4143808732641,9.01383835812815,5.5,           93P     72
15.5211383139466,3.75086976073147,5.5,-2.79570837027837,              93P     73
-2.0314269909025,0.,0.,0.;                                            93P     74
126,1,1,0,0,1,0,-0.168908241538248,-0.168908241538248,                95P     75
0.170120480691,0.170120480691,1.,1.,21.6951436111462,                 95P     76
11.0057479590253,5.5,18.3048563888538,11.0057479590253,5.5,           95P     77
-0.168908241538248,0.170120480691,0.,0.,0.;                           95P     78
126,2,2,0,0,0,0,2.02039568875404,2.02039568875404,                    97P     79
2.02039568875404,2.79570837027837,2.79570837027837,                   97P     80
2.79570837027837,1.,0.925797550992136,1.,24.5031064691084,            97P     81
3.60601892177883,5.5,23.6158220080672,8.98201493126947,5.5,           97P     82
21.6951436111462,11.0057479590253,5.5,2.02039568875404,               97P     83
2.79570837027837,0.,0.,0.;                                            97P     84
126,1,1,0,0,1,0,-0.76706819424414,-0.76706819424414,0.,0.,1.,1.,      99P     85
24.5031064691084,3.60601892177883,5.5,24.5031064691084,               99P     86
11.2767008642202,5.5,-0.76706819424414,0.,0.,0.,0.;                   99P     87
126,1,1,0,0,1,0,-0.898196815516179,-0.898196815516179,0.,0.,1.,      101P     88
1.,24.5031064691084,11.2767008642202,5.5,15.5211383139466,           101P     89
11.2767008642202,5.5,-0.898196815516179,0.,0.,0.,0.;                 101P     90
126,1,1,0,0,1,0,-0.079091595580033,-0.079091595580033,               103P     91
0.304652922788426,0.304652922788426,1.,1.,24.5031064691084,          103P     92
-1.38777878078145D-16,4.1875164482718,24.5031064691084,              103P     93
3.60601892177883,5.5,-0.079091595580033,0.304652922788426,0.,0.,     103P     94
0.;                                                                  103P     95
126,1,1,0,0,1,0,0.,0.,0.26875164482718,0.26875164482718,1.,1.,       105P     96
24.5031064691084,0.,1.5,24.5031064691084,0.,4.1875164482718,0.,      105P     97
0.26875164482718,0.,0.,0.;                                           105P     98
126,1,1,0,0,1,0,-0.752670086422023,-0.752670086422023,0.375,         107P     99
0.375,1.,1.,24.5031064691084,11.2767008642202,1.5,                   107P    100
24.5031064691084,0.,1.5,-0.752670086422023,0.375,0.,0.,0.;           107P    101
126,1,1,0,0,1,0,0.,0.,0.4,0.4,1.,1.,24.5031064691084,                109P    102
11.2767008642202,1.5,24.5031064691084,11.2767008642202,5.5,0.,       109P    103
0.4,0.,0.,0.;                                                        109P    104
126,1,1,0,0,1,0,-0.673041492060758,-0.673041492060758,               111P    105
0.225155323455421,0.225155323455421,1.,1.,15.5211383139466,          111P    106
11.2767008642202,1.5,24.5031064691084,11.2767008642202,1.5,          111P    107
-0.673041492060758,0.225155323455421,0.,0.,0.;                       111P    108
126,4,2,0,0,0,0,-5.97424341723265,-5.97424341723265,                 113P    109
-5.97424341723265,-4.55791803541122,-4.55791803541122,               113P    110
-3.14159265358979,-3.14159265358979,-3.14159265358979,1.,            113P    111
0.759558215426397,1.,0.759558215426398,1.,23.3342953781224,          113P    112
0.363970234266202,5.5,22.4229984432957,1.34053596702275,             113P    113
2.81690770063822,19.4614992216479,1.18281706465677,                  113P    114
3.25023682350992,16.5,1.02509816229079,3.68356594638162,16.5,        113P    115
-1.04858985042193D-16,6.5,-5.97424341723265,-3.14159265358979,       113P    116
0.,0.,0.;                                                            113P    117
126,6,2,0,0,0,0,-3.14159265358979,-3.14159265358979,                 115P    118
-3.14159265358979,-1.99141447241088,-1.99141447241088,               115P    119
-0.841236291231974,-0.841236291231974,0.308941889946936,             115P    120
0.308941889946936,0.308941889946936,1.,0.839143848528257,1.,         115P    121
0.839143848528261,1.,0.839143848528267,1.,16.5,                      115P    122
-1.04858985042193D-16,6.5,16.5,-0.775907589853588,                   115P    123
8.63178858270619,18.5708632103403,-1.09272989900672,                 115P    124
9.50225072308391,20.6417264206805,-1.40955220815986,                 115P    125
10.3727128634616,22.3328960208235,-0.892377428475242,                115P    126
8.95178683436671,24.0240656209664,-0.375202648790623,                115P    127
7.5308608052718,23.3342953781224,0.363970234266202,5.5,              115P    128
-3.14159265358979,0.308941889946936,0.,0.,0.;                        115P    129
126,1,1,0,0,1,0,2.45031064691084,2.45031064691084,4.,4.,1.,1.,       117P    130
24.5031064691084,0.,1.5,40.,0.,1.5,2.45031064691084,4.,0.,0.,0.;     117P    131
126,1,1,0,0,1,0,0.,0.,1.5,1.5,1.,1.,40.,0.,1.5,40.,15.,1.5,0.,       119P    132
1.5,0.,0.,0.;                                                        119P    133
126,1,1,0,0,1,0,0.,0.,4.,4.,1.,1.,40.,15.,1.5,0.,15.,1.5,0.,4.,      121P    134
0.,0.,0.;                                                            121P    135
126,1,1,0,0,1,0,0.,0.,1.5,1.5,1.,1.,0.,15.,1.5,0.,0.,1.5,0.,1.5,     123P    136
0.,0.,0.;                                                            123P    137
126,1,1,0,0,1,0,0.,0.,1.55211383139466,1.55211383139466,1.,1.,       125P    138
0.,0.,1.5,15.5211383139466,0.,1.5,0.,1.55211383139466,0.,0.,0.;      125P    139
126,8,2,0,1,0,0,-3.14159265358979,-3.14159265358979,                 127P    140
-3.14159265358979,-1.5707963267949,-1.5707963267949,0.,0.,           127P    141
1.5707963267949,1.5707963267949,3.14159265358979,                    127P    142
3.14159265358979,3.14159265358979,1.,0.707106781186545,1.,           127P    143
0.707106781186545,1.,0.707106781186545,1.,0.707106781186545,1.,      127P    144
32.75,7.5,1.5,32.75,8.75,1.5,34.,8.75,1.5,35.25,8.75,1.5,35.25,      127P    145
7.5,1.5,35.25,6.25,1.5,34.,6.25,1.5,32.75,6.25,1.5,32.75,7.5,        127P    146
1.5,-3.14159265358979,3.14159265358979,0.,0.,0.;                     127P    147
126,8,2,0,1,0,0,-3.14159265358979,-3.14159265358979,                 129P    148
-3.14159265358979,-1.5707963267949,-1.5707963267949,0.,0.,           129P    149
1.5707963267949,1.5707963267949,3.14159265358979,                    129P    150
3.14159265358979,3.14159265358979,1.,0.70710678118655,1.,            129P    151
0.70710678118655,1.,0.70710678118655,1.,0.70710678118655,1.,         129P    152
4.75,7.5,1.5,4.75,8.75,1.5,6.,8.75,1.5,7.25,8.75,1.5,7.25,7.5,       129P    153
1.5,7.25,6.25,1.5,6.,6.25,1.5,4.75,6.25,1.5,4.75,7.5,1.5,            129P    154
-3.14159265358979,3.14159265358979,0.,0.,0.;                         129P    155
126,8,2,0,1,0,0,-3.14159265358979,-3.14159265358979,                 131P    156
-3.14159265358979,-1.5707963267949,-1.5707963267949,0.,0.,           131P    157
1.5707963267949,1.5707963267949,3.14159265358979,                    131P    158
3.14159265358979,3.14159265358979,1.,0.707106781186546,1.,           131P    159
0.707106781186546,1.,0.707106781186546,1.,0.707106781186546,1.,      131P    160
16.5,9.39692620785909,9.92020143325669,16.5,10.5939967094989,        131P    161
6.63127726050601,20.,10.5939967094989,6.63127726050601,23.5,         131P    162
10.5939967094989,6.63127726050601,23.5,9.39692620785909,             131P    163
9.92020143325669,23.5,8.19985570621925,13.2091256060074,20.,         131P    164
8.19985570621925,13.2091256060074,16.5,8.19985570621925,             131P    165
13.2091256060074,16.5,9.39692620785909,9.92020143325669,             131P    166
-3.14159265358979,3.14159265358979,0.,0.,0.;                         131P    167
126,1,1,0,0,1,0,-2.85714285714286,-2.85714285714286,                 133P    168
4.72168288721652D-17,4.72168288721652D-17,1.,1.,16.5,                133P    169
9.3969262078591,9.92020143325669,16.5,-1.18961010182293D-16,6.5,     133P    170
-2.85714285714286,4.72168288721652D-17,0.,0.,0.;                     133P    171
126,2,2,0,0,0,0,-4.36650469707327,-4.36650469707327,                 135P    172
-4.36650469707327,-3.14159265358979,-3.14159265358979,               135P    173
-3.14159265358979,1.,0.818238572248109,1.,18.3048563888538,          135P    174
11.0057479590253,5.5,15.,10.5984103317305,6.61915093308681,15.,      135P    175
9.39692620785909,9.92020143325669,-4.36650469707327,                 135P    176
-3.14159265358979,0.,0.,0.;                                          135P    177
126,6,2,0,0,0,0,-3.14159265358979,-3.14159265358979,                 137P    178
-3.14159265358979,-1.6860910878987,-1.6860910878987,                 137P    179
-0.230589522207614,-0.230589522207614,1.22491204348348,              137P    180
1.22491204348348,1.22491204348348,1.,0.74667245079343,1.,            137P    181
0.746672450793428,1.,0.746672450793429,1.,15.,9.39692620785909,      137P    182
9.92020143325669,15.,7.87344006948478,14.1059451972922,              137P    183
19.4248025122613,7.69817898960526,14.5874710567704,                  137P    184
23.8496050245227,7.52291790972575,15.0689969162486,                  137P    185
24.8676591400396,9.00608015496203,10.9940421380743,                  137P    186
25.8857132555566,10.4892424001983,6.91908735990001,                  137P    187
21.6951436111462,11.0057479590253,5.5,-3.14159265358979,             137P    188
1.22491204348348,0.,0.,0.;                                           137P    189
126,8,2,0,1,0,0,-3.14159265358979,-3.14159265358979,                 139P    190
-3.14159265358979,-1.5707963267949,-1.5707963267949,                 139P    191
4.44089209850063D-16,4.44089209850063D-16,1.5707963267949,           139P    192
1.5707963267949,3.14159265358979,3.14159265358979,                   139P    193
3.14159265358979,1.,0.707106781186548,1.,0.707106781186548,1.,       139P    194
0.707106781186547,1.,0.707106781186547,1.,15.,-1.87938524157182,     139P    195
5.81595971334866,15.,-0.169284524943474,1.11749660941912,20.,        139P    196
-0.169284524943474,1.11749660941912,25.,-0.169284524943475,          139P    197
1.11749660941912,25.,-1.87938524157182,5.81595971334866,25.,         139P    198
-3.58948595820016,10.5144228172782,20.,-3.58948595820016,            139P    199
10.5144228172782,15.,-3.58948595820016,10.5144228172782,15.,         139P    200
-1.87938524157182,5.81595971334866,-3.14159265358979,                139P    201
3.14159265358979,0.,0.,0.;                                           139P    202
126,1,1,0,0,1,0,-0.4,-0.4,2.,2.,1.,1.,15.,-1.87938524157182,         141P    203
5.81595971334866,15.,9.3969262078591,9.92020143325669,-0.4,2.,       141P    204
0.,0.,0.;                                                            141P    205
126,4,2,0,0,0,0,2.02039568875404,2.02039568875404,                   143P    206
2.02039568875404,3.13607700251556,3.13607700251556,                  143P    207
4.25175831627708,4.25175831627708,4.25175831627708,1.,               143P    208
0.84840014810956,1.,0.848400148109557,1.,24.5031064691084,0.,        143P    209
4.1875164482718,23.1472581127539,0.,1.19750363774792,                143P    210
20.0275781155386,0.,1.17919207453793,16.9078981183232,0.,            143P    211
1.16088051132794,15.5211383139466,0.,4.13479505448455,               143P    212
2.02039568875404,4.25175831627708,0.,0.,0.;                          143P    213
126,1,1,0,0,1,0,-1.2,-1.2,0.,0.,1.,1.,4.75,7.5,1.5,4.75,7.5,0.,      145P    214
-1.2,0.,0.,0.,0.;                                                    145P    215
126,8,2,0,1,0,0,-3.14159265358979,-3.14159265358979,                 147P    216
-3.14159265358979,-1.5707963267949,-1.5707963267949,0.,0.,           147P    217
1.5707963267949,1.5707963267949,3.14159265358979,                    147P    218
3.14159265358979,3.14159265358979,1.,0.70710678118655,1.,            147P    219
0.70710678118655,1.,0.70710678118655,1.,0.70710678118655,1.,         147P    220
4.75,7.5,0.,4.75,8.75,0.,6.,8.75,0.,7.25,8.75,0.,7.25,7.5,0.,        147P    221
7.25,6.25,0.,6.,6.25,0.,4.75,6.25,0.,4.75,7.5,0.,                    147P    222
-3.14159265358979,3.14159265358979,0.,0.,0.;                         147P    223
126,1,1,0,0,1,0,-1.2,-1.2,0.,0.,1.,1.,32.75,7.5,1.5,32.75,7.5,       149P    224
0.,-1.2,0.,0.,0.,0.;                                                 149P    225
126,8,2,0,1,0,0,-3.14159265358979,-3.14159265358979,                 151P    226
-3.14159265358979,-1.5707963267949,-1.5707963267949,0.,0.,           151P    227
1.5707963267949,1.5707963267949,3.14159265358979,                    151P    228
3.14159265358979,3.14159265358979,1.,0.707106781186545,1.,           151P    229
0.707106781186545,1.,0.707106781186545,1.,0.707106781186545,1.,      151P    230
32.75,7.5,0.,32.75,8.75,0.,34.,8.75,0.,35.25,8.75,0.,35.25,7.5,      151P    231
0.,35.25,6.25,0.,34.,6.25,0.,32.75,6.25,0.,32.75,7.5,0.,             151P    232
-3.14159265358979,3.14159265358979,0.,0.,0.;                         151P    233
126,1,1,0,0,1,0,0.,0.,4.,4.,1.,1.,40.,15.,0.,0.,15.,0.,0.,4.,0.,     153P    234
0.,0.;                                                               153P    235
126,1,1,0,0,1,0,0.,0.,0.15,0.15,1.,1.,0.,15.,0.,0.,15.,1.5,0.,       155P    236
0.15,0.,0.,0.;                                                       155P    237
126,1,1,0,0,1,0,0.,0.,0.15,0.15,1.,1.,40.,15.,0.,40.,15.,1.5,0.,     157P    238
0.15,0.,0.,0.;                                                       157P    239
126,1,1,0,0,1,0,0.,0.,1.5,1.5,1.,1.,40.,0.,0.,40.,15.,0.,0.,1.5,     159P    240
0.,0.,0.;                                                            159P    241
126,1,1,0,0,1,0,0.,0.,0.15,0.15,1.,1.,40.,0.,0.,40.,0.,1.5,0.,       161P    242
0.15,0.,0.,0.;                                                       161P    243
126,1,1,0,0,1,0,0.,0.,0.15,0.15,1.,1.,0.,0.,0.,0.,0.,1.5,0.,         163P    244
0.15,0.,0.,0.;                                                       163P    245
126,1,1,0,0,1,0,0.,0.,4.,4.,1.,1.,0.,0.,0.,40.,0.,0.,0.,4.,0.,       165P    246
0.,0.;                                                               165P    247
126,1,1,0,0,1,0,0.,0.,1.5,1.5,1.,1.,0.,15.,0.,0.,0.,0.,0.,1.5,       167P    248
0.,0.,0.;                                                            167P    249
128,1,1,1,1,0,0,1,0,0,-0.001,-0.001,1.12867008642202,                169P    250
1.12867008642202,-0.001,-0.001,0.401,0.401,1.,1.,1.,1.,              169P    251
15.5211383139466,11.2867008642202,1.49,15.5211383139466,             169P    252
-0.0099999999999989,1.49,15.5211383139466,11.2867008642202,5.51,     169P    253
15.5211383139466,-0.0099999999999989,5.51,-0.001,                    169P    254
1.12867008642202,-0.001,0.401;                                       169P    255
128,1,1,1,1,0,0,1,0,0,-0.45009840775809,-0.45009840775809,           171P    256
0.45009840775809,0.45009840775809,-0.564835043211012,                171P    257
-0.564835043211012,0.204233151033129,0.204233151033129,1.,1.,1.,     171P    258
1.,24.5131064691084,11.2867008642202,5.5,15.5111383139466,           171P    259
11.2867008642202,5.5,24.5131064691084,3.59601892177883,5.5,          171P    260
15.5111383139466,3.59601892177883,5.5,-0.45009840775809,             171P    261
0.45009840775809,-0.564835043211012,0.204233151033129;               171P    262
128,1,1,1,1,0,0,1,0,0,-0.00100000000000001,-0.00100000000000001,     173P    263
1.12867008642202,1.12867008642202,-0.001,-0.001,0.401,0.401,1.,      173P    264
1.,1.,1.,24.5031064691084,-0.0100000000000001,1.49,                  173P    265
24.5031064691084,11.2867008642202,1.49,24.5031064691084,             173P    266
-0.0100000000000001,5.51,24.5031064691084,11.2867008642202,5.51,     173P    267
-0.00100000000000001,1.12867008642202,-0.001,0.401;                  173P    268
128,1,1,1,1,0,0,1,0,0,-0.001,-0.001,0.899196815516179,               175P    269
0.899196815516179,-0.001,-0.001,0.401,0.401,1.,1.,1.,1.,             175P    270
24.5131064691084,11.2767008642202,1.49,15.5111383139466,             175P    271
11.2767008642202,1.49,24.5131064691084,11.2767008642202,5.51,        175P    272
15.5111383139466,11.2767008642202,5.51,-0.001,0.899196815516179,     175P    273
-0.001,0.401;                                                        175P    274
128,1,1,1,1,0,0,1,0,0,-0.440847315059828,-0.440847315059828,         177P    275
0.440847315059828,0.440847315059828,-0.440847315059828,              177P    276
-0.440847315059828,0.440847315059828,0.440847315059828,1.,1.,1.,     177P    277
1.,24.4084731505983,1.50778661881499,2.35739031144999,               177P    278
15.5915268494017,1.50778661881499,2.35739031144999,                  177P    279
24.4084731505983,-1.50778661881499,10.64260968855,                   177P    280
15.5915268494017,-1.50778661881499,10.64260968855,                   177P    281
-0.440847315059828,0.440847315059828,-0.440847315059828,             177P    282
0.440847315059828;                                                   177P    283
128,1,1,1,1,0,0,1,0,0,-2.001,-2.001,2.001,2.001,-0.751,-0.751,       179P    284
0.751,0.751,1.,1.,1.,1.,-0.0099999999999989,-0.01,1.5,40.01,         179P    285
-0.01,1.5,-0.0099999999999989,15.01,1.5,40.01,15.01,1.5,-2.001,      179P    286
2.001,-0.751,0.751;                                                  179P    287
128,1,8,1,2,0,1,0,0,1,-4.72168288721652D-17,                         181P    288
-4.72168288721652D-17,2.85714285714286,2.85714285714286,             181P    289
-3.14159265358979,-3.14159265358979,-3.14159265358979,               181P    290
-1.5707963267949,-1.5707963267949,0.,0.,1.5707963267949,             181P    291
1.5707963267949,3.14159265358979,3.14159265358979,                   181P    292
3.14159265358979,1.,1.,0.707106781186548,0.707106781186548,1.,       181P    293
1.,0.707106781186548,0.707106781186548,1.,1.,0.707106781186548,      181P    294
0.707106781186548,1.,1.,0.707106781186548,0.707106781186548,1.,      181P    295
1.,16.5,-1.18961010182293D-16,6.5,16.5,9.3969262078591,              181P    296
9.92020143325669,16.5,-1.19707050163984,9.78892417275068,16.5,       181P    297
8.19985570621926,13.2091256060074,20.,-1.19707050163984,             181P    298
9.78892417275068,20.,8.19985570621926,13.2091256060074,23.5,         181P    299
-1.19707050163984,9.78892417275068,23.5,8.19985570621925,            181P    300
13.2091256060074,23.5,-1.55292569838297D-16,6.5,23.5,                181P    301
9.39692620785909,9.92020143325669,23.5,1.19707050163984,             181P    302
3.21107582724932,23.5,10.5939967094989,6.63127726050601,20.,         181P    303
1.19707050163984,3.21107582724932,20.,10.5939967094989,              181P    304
6.63127726050601,16.5,1.19707050163984,3.21107582724932,16.5,        181P    305
10.5939967094989,6.63127726050601,16.5,-1.18961010182293D-16,        181P    306
6.5,16.5,9.3969262078591,9.92020143325669,-4.72168288721652D-17,     181P    307
2.85714285714286,-3.14159265358979,3.14159265358979;                 181P    308
128,1,1,1,1,0,0,1,0,0,-0.565854766277609,-0.565854766277609,         183P    309
0.565854766277609,0.565854766277609,-0.471388011513794,              183P    310
-0.471388011513794,0.501,0.501,1.,1.,1.,1.,25.6585476627761,         183P    311
11.0091681604586,5.49060307379214,14.3414523372239,                  183P    312
11.0091681604586,5.49060307379214,25.6585476627761,                  183P    313
7.68340528979749,14.6280614633941,14.3414523372239,                  183P    314
7.68340528979749,14.6280614633941,-0.565854766277609,                183P    315
0.565854766277609,-0.471388011513794,0.501;                          183P    316
128,1,8,1,2,0,1,0,0,1,-2.,-2.,0.4,0.4,-3.14159265358979,             185P    317
-3.14159265358979,-3.14159265358979,-1.5707963267949,                185P    318
-1.5707963267949,0.,0.,1.5707963267949,1.5707963267949,              185P    319
3.14159265358979,3.14159265358979,3.14159265358979,1.,1.,            185P    320
0.707106781186548,0.707106781186548,1.,1.,0.707106781186548,         185P    321
0.707106781186548,1.,1.,0.707106781186548,0.707106781186548,1.,      185P    322
1.,0.707106781186548,0.707106781186548,1.,1.,15.,                    185P    323
-1.87938524157182,5.81595971334866,15.,9.3969262078591,              185P    324
9.92020143325669,15.,-0.169284524943477,1.11749660941912,15.,        185P    325
11.1070269244874,5.22173832932715,20.,-0.169284524943477,            185P    326
1.11749660941912,20.,11.1070269244874,5.22173832932715,25.,          185P    327
-0.169284524943476,1.11749660941912,25.,11.1070269244874,            185P    328
5.22173832932715,25.,-1.87938524157182,5.81595971334866,25.,         185P    329
9.3969262078591,9.92020143325669,25.,-3.58948595820016,              185P    330
10.5144228172782,25.,7.68682549123075,14.6186645371862,20.,          185P    331
-3.58948595820016,10.5144228172782,20.,7.68682549123076,             185P    332
14.6186645371862,15.,-3.58948595820016,10.5144228172782,15.,         185P    333
7.68682549123076,14.6186645371862,15.,-1.87938524157182,             185P    334
5.81595971334866,15.,9.3969262078591,9.92020143325669,-2.,0.4,       185P    335
-3.14159265358979,3.14159265358979;                                  185P    336
128,1,1,1,1,0,0,1,0,0,-0.501,-0.501,0.501,0.501,-0.501,-0.501,       187P    337
0.501,0.501,1.,1.,1.,1.,14.99,-0.165864323510217,                    187P    338
1.10809968321126,25.01,-0.165864323510217,1.10809968321126,          187P    339
14.99,-3.59290615963342,10.5238197434861,25.01,                      187P    340
-3.59290615963342,10.5238197434861,-0.501,0.501,-0.501,0.501;        187P    341
128,1,8,1,2,0,1,0,0,1,0.,0.,1.2,1.2,-3.14159265358979,               189P    342
-3.14159265358979,-3.14159265358979,-1.5707963267949,                189P    343
-1.5707963267949,0.,0.,1.5707963267949,1.5707963267949,              189P    344
3.14159265358979,3.14159265358979,3.14159265358979,1.,1.,            189P    345
0.707106781186548,0.707106781186548,1.,1.,0.707106781186548,         189P    346
0.707106781186548,1.,1.,0.707106781186548,0.707106781186548,1.,      189P    347
1.,0.707106781186548,0.707106781186548,1.,1.,4.75,7.5,0.,4.75,       189P    348
7.5,1.5,4.75,6.25,0.,4.75,6.25,1.5,6.,6.25,0.,6.,6.25,1.5,7.25,      189P    349
6.25,0.,7.25,6.25,1.5,7.25,7.5,0.,7.25,7.5,1.5,7.25,8.75,0.,         189P    350
7.25,8.75,1.5,6.,8.75,0.,6.,8.75,1.5,4.75,8.75,0.,4.75,8.75,1.5,     189P    351
4.75,7.5,0.,4.75,7.5,1.5,0.,1.2,-3.14159265358979,                   189P    352
3.14159265358979;                                                    189P    353
128,1,8,1,2,0,1,0,0,1,0.,0.,1.2,1.2,-3.14159265358979,               191P    354
-3.14159265358979,-3.14159265358979,-1.5707963267949,                191P    355
-1.5707963267949,0.,0.,1.5707963267949,1.5707963267949,              191P    356
3.14159265358979,3.14159265358979,3.14159265358979,1.,1.,            191P    357
0.707106781186548,0.707106781186548,1.,1.,0.707106781186548,         191P    358
0.707106781186548,1.,1.,0.707106781186548,0.707106781186548,1.,      191P    359
1.,0.707106781186548,0.707106781186548,1.,1.,32.75,7.5,0.,32.75,     191P    360
7.5,1.5,32.75,6.25,0.,32.75,6.25,1.5,34.,6.25,0.,34.,6.25,1.5,       191P    361
35.25,6.25,0.,35.25,6.25,1.5,35.25,7.5,0.,35.25,7.5,1.5,35.25,       191P    362
8.75,0.,35.25,8.75,1.5,34.,8.75,0.,34.,8.75,1.5,32.75,8.75,0.,       191P    363
32.75,8.75,1.5,32.75,7.5,0.,32.75,7.5,1.5,0.,1.2,                    191P    364
-3.14159265358979,3.14159265358979;                                  191P    365
128,1,1,1,1,0,0,1,0,0,-0.001,-0.001,4.001,4.001,-0.001,-0.001,       193P    366
0.151,0.151,1.,1.,1.,1.,40.01,15.,-0.01,-0.0100000000000033,15.,     193P    367
-0.01,40.01,15.,1.51,-0.0100000000000033,15.,1.51,-0.001,4.001,      193P    368
-0.001,0.151;                                                        193P    369
128,1,1,1,1,0,0,1,0,0,-0.001,-0.001,1.501,1.501,-0.001,-0.001,       195P    370
0.151,0.151,1.,1.,1.,1.,40.,-0.01,-0.01,40.,15.01,-0.01,40.,         195P    371
-0.01,1.51,40.,15.01,1.51,-0.001,1.501,-0.001,0.151;                 195P    372
128,1,1,1,1,0,0,1,0,0,-0.001,-0.001,4.001,4.001,-0.001,-0.001,       197P    373
0.41975164482718,0.41975164482718,1.,1.,1.,1.,-0.01,0.,-0.01,        197P    374
40.01,0.,-0.01,-0.01,0.,4.1975164482718,40.01,0.,                    197P    375
4.1975164482718,-0.001,4.001,-0.001,0.41975164482718;                197P    376
128,1,1,1,1,0,0,1,0,0,-0.001,-0.001,1.501,1.501,-0.001,-0.001,       199P    377
0.151,0.151,1.,1.,1.,1.,0.,15.01,-0.01,0.,-0.0099999999999989,       199P    378
-0.01,0.,15.01,1.51,0.,-0.0099999999999989,1.51,-0.001,1.501,        199P    379
-0.001,0.151;                                                        199P    380
128,1,1,1,1,0,0,1,0,0,-2.001,-2.001,2.001,2.001,-0.751,-0.751,       201P    381
0.751,0.751,1.,1.,1.,1.,40.01,-0.01,0.,-0.0099999999999989,          201P    382
-0.01,0.,40.01,15.01,0.,-0.0099999999999989,15.01,0.,-2.001,         201P    383
2.001,-0.751,0.751;                                                  201P    384
502,29,15.5211383139466,3.75086976073147,5.5,15.5211383139466,       203P    385
0.,4.13479505448456,15.5211383139466,11.2767008642202,5.5,           203P    386
15.5211383139466,11.2767008642202,1.5,15.5211383139466,0.,1.5,       203P    387
18.3048563888538,11.0057479590253,5.5,21.6951436111462,              203P    388
11.0057479590253,5.5,24.5031064691084,3.60601892177883,5.5,          203P    389
24.5031064691084,11.2767008642202,5.5,24.5031064691084,0.,           203P    390
4.1875164482718,24.5031064691084,0.,1.5,24.5031064691084,            203P    391
11.2767008642202,1.5,23.3342953781224,0.363970234266202,5.5,         203P    392
16.5,-1.18961010182293D-16,6.5,40.,0.,1.5,40.,15.,1.5,0.,15.,        203P    393
1.5,0.,0.,1.5,32.75,7.5,1.5,4.75,7.5,1.5,16.5,9.39692620785909,      203P    394
9.92020143325669,15.,9.3969262078591,9.92020143325669,15.,           203P    395
-1.87938524157182,5.81595971334866,4.75,7.5,0.,32.75,7.5,0.,40.,     203P    396
15.,0.,0.,15.,0.,40.,0.,0.,0.,0.,0.;                                 203P    397
504,43,83,203,1,203,2,85,203,3,203,1,87,203,4,203,3,89,203,5,        205P    398
203,4,91,203,5,203,2,93,203,6,203,1,95,203,7,203,6,97,203,8,203,     205P    399
7,99,203,8,203,9,101,203,9,203,3,103,203,10,203,8,105,203,11,        205P    400
203,10,107,203,12,203,11,109,203,12,203,9,111,203,4,203,12,113,      205P    401
203,13,203,14,115,203,14,203,13,117,203,11,203,15,119,203,15,        205P    402
203,16,121,203,16,203,17,123,203,17,203,18,125,203,18,203,5,127,     205P    403
203,19,203,19,129,203,20,203,20,131,203,21,203,21,133,203,21,        205P    404
203,14,135,203,6,203,22,137,203,22,203,7,139,203,23,203,23,141,      205P    405
203,23,203,22,143,203,10,203,2,145,203,20,203,24,147,203,24,203,     205P    406
24,149,203,19,203,25,151,203,25,203,25,153,203,26,203,27,155,        205P    407
203,27,203,17,157,203,26,203,16,159,203,28,203,26,161,203,28,        205P    408
203,15,163,203,29,203,18,165,203,29,203,28,167,203,27,203,29;        205P    409
406,1,5HBody1;                                                       207P    410
314,62.7450980392157,62.7450980392157,62.7450980392157,13HSteel      209P    411
- Satin;                                                             209P    412
S      1G      3D    210P    412                                        T      1
