                                                                        S      1
,,23HPicture Frame Holder v1,23HPicture Frame Holder v1,7Hunknown,7HunknG      1
own,32,38,7,99,15,,1.,2,2HMM,1,0.08,15H20220922.115144,0.01,10000.,7HunkG      2
nown,7Hunknown,11,0,15H20200616.142302;                                 G      3
     186       1                                                00000000D      1
     186            -103       1       0                               0D      2
     514       2                                                00010000D      3
     514                       1       1                               0D      4
     510       3                                                00010000D      5
     510            -103       1       1                               0D      6
     510       4                                                00010000D      7
     510            -103       1       1                               0D      8
     510       5                                                00010000D      9
     510            -103       1       1                               0D     10
     510       6                                                00010000D     11
     510            -103       1       1                               0D     12
     510       7                                                00010000D     13
     510            -103       1       1                               0D     14
     510       8                                                00010000D     15
     510            -103       1       1                               0D     16
     510       9                                                00010000D     17
     510            -103       1       1                               0D     18
     510      10                                                00010000D     19
     510            -103       1       1                               0D     20
     508      11                                                00010000D     21
     508                       1       1                               0D     22
     508      12                                                00010000D     23
     508                       1       1                               0D     24
     508      13                                                00010000D     25
     508                       1       1                               0D     26
     508      14                                                00010000D     27
     508                       1       1                               0D     28
     508      15                                                00010000D     29
     508                       1       1                               0D     30
     508      16                                                00010000D     31
     508                       1       1                               0D     32
     508      17                                                00010000D     33
     508                       1       1                               0D     34
     508      18                                                00010000D     35
     508                       1       1                               0D     36
     508      19                                                00010000D     37
     508                       1       1                               0D     38
     508      20                                                00010000D     39
     508                       1       1                               0D     40
     508      21                                                00010000D     41
     508                       1       1                               0D     42
     508      22                                                00010000D     43
     508                       1       1                               0D     44
     126      23                                                00010000D     45
     126       0              11       0                               0D     46
     126      34                                                00010000D     47
     126       0               3       0                               0D     48
     126      37                                                00010000D     49
     126       0              11       0                               0D     50
     126      48                                                00010000D     51
     126       0               8       0                               0D     52
     126      56                                                00010000D     53
     126       0               2       0                               0D     54
     126      58                                                00010000D     55
     126       0               8       0                               0D     56
     126      66                                                00010000D     57
     126       0               2       0                               0D     58
     126      68                                                00010000D     59
     126       0               2       0                               0D     60
     126      70                                                00010000D     61
     126       0               2       0                               0D     62
     126      72                                                00010000D     63
     126       0               2       0                               0D     64
     126      74                                                00010000D     65
     126       0               2       0                               0D     66
     126      76                                                00010000D     67
     126       0               2       0                               0D     68
     126      78                                                00010000D     69
     126       0               2       0                               0D     70
     126      80                                                00010000D     71
     126       0               2       0                               0D     72
     126      82                                                00010000D     73
     126       0               2       0                               0D     74
     126      84                                                00010000D     75
     126       0               2       0                               0D     76
     126      86                                                00010000D     77
     126       0               2       0                               0D     78
     126      88                                                00010000D     79
     126       0               2       0                               0D     80
     128      90                                                00010000D     81
     128       0    -103      17       0                               0D     82
     128     107                                                00010000D     83
     128       0    -103      12       0                               0D     84
     128     119                                                00010000D     85
     128       0    -103       4       0                               0D     86
     128     123                                                00010000D     87
     128       0    -103       4       0                               0D     88
     128     127                                                00010000D     89
     128       0    -103       4       0                               0D     90
     128     131                                                00010000D     91
     128       0    -103       4       0                               0D     92
     128     135                                                00010000D     93
     128       0    -103       6       0                               0D     94
     128     141                                                00010000D     95
     128       0    -103       6       0                               0D     96
     502     147                                                00010000D     97
     502                       3       1                               0D     98
     504     150                                                00010001D     99
     504                       4       1                               0D    100
     406     154                                                00000000D    101
     406                       1      15                               0D    102
     314     155                                                00000200D    103
     314                       2       0                               0D    104
186,3,1,0,0,1,101;                                                     1P      1
514,8,5,1,7,1,9,1,11,1,13,1,15,1,17,1,19,1;                            3P      2
510,81,1,1,21;                                                         5P      3
510,83,1,1,23;                                                         7P      4
510,85,1,1,25;                                                         9P      5
510,87,1,1,27;                                                        11P      6
510,89,1,1,29;                                                        13P      7
510,91,1,1,31;                                                        15P      8
510,93,3,1,33,35,37;                                                  17P      9
510,95,3,1,39,41,43;                                                  19P     10
508,4,0,99,1,0,0,0,99,2,1,0,0,99,3,1,0,0,99,2,0,0;                    21P     11
508,4,0,99,4,0,0,0,99,5,1,0,0,99,6,1,0,0,99,5,0,0;                    23P     12
508,4,0,99,7,1,0,0,99,8,1,0,0,99,9,0,0,0,99,10,0,0;                   25P     13
508,4,0,99,11,1,0,0,99,10,1,0,0,99,12,0,0,0,99,13,0,0;                27P     14
508,4,0,99,14,1,0,0,99,13,1,0,0,99,15,0,0,0,99,16,0,0;                29P     15
508,4,0,99,17,1,0,0,99,16,1,0,0,99,18,0,0,0,99,8,0,0;                 31P     16
508,4,0,99,18,1,0,0,99,15,1,0,0,99,12,1,0,0,99,9,1,0;                 33P     17
508,1,0,99,4,1,0;                                                     35P     18
508,1,0,99,1,1,0;                                                     37P     19
508,4,0,99,17,0,0,0,99,7,0,0,0,99,11,0,0,0,99,14,0,0;                 39P     20
508,1,0,99,6,0,0;                                                     41P     21
508,1,0,99,3,0,0;                                                     43P     22
126,8,2,0,1,0,0,-3.14159265358979,-3.14159265358979,                  45P     23
-3.14159265358979,-1.5707963267949,-1.5707963267949,0.,0.,            45P     24
1.5707963267949,1.5707963267949,3.14159265358979,                     45P     25
3.14159265358979,3.14159265358979,1.,0.707106781186546,1.,            45P     26
0.707106781186546,1.,0.707106781186544,1.,0.707106781186544,1.,       45P     27
13.2500002980232,5.,1.,13.2500002980232,5.75,1.,                      45P     28
14.0000002980232,5.75,1.,14.7500002980232,5.75,1.,                    45P     29
14.7500002980232,5.,1.,14.7500002980232,4.25,1.,                      45P     30
14.0000002980232,4.25,1.,13.2500002980232,4.25,1.,                    45P     31
13.2500002980232,5.,1.,-3.14159265358979,3.14159265358979,0.,0.,      45P     32
0.;                                                                   45P     33
126,1,1,0,0,1,0,-1.33333333333333,-1.33333333333333,0.,0.,1.,1.,      47P     34
13.2500002980232,5.,1.,13.2500002980232,5.,0.,-1.33333333333333,      47P     35
0.,0.,0.,0.;                                                          47P     36
126,8,2,0,1,0,0,-3.14159265358979,-3.14159265358979,                  49P     37
-3.14159265358979,-1.5707963267949,-1.5707963267949,0.,0.,            49P     38
1.5707963267949,1.5707963267949,3.14159265358979,                     49P     39
3.14159265358979,3.14159265358979,1.,0.707106781186546,1.,            49P     40
0.707106781186546,1.,0.707106781186544,1.,0.707106781186544,1.,       49P     41
13.2500002980232,5.,0.,13.2500002980232,5.75,0.,                      49P     42
14.0000002980232,5.75,0.,14.7500002980232,5.75,0.,                    49P     43
14.7500002980232,5.,0.,14.7500002980232,4.25,0.,                      49P     44
14.0000002980232,4.25,0.,13.2500002980232,4.25,0.,                    49P     45
13.2500002980232,5.,0.,-3.14159265358979,3.14159265358979,0.,0.,      49P     46
0.;                                                                   49P     47
126,8,2,0,1,0,0,-3.14159265358979,-3.14159265358979,                  51P     48
-3.14159265358979,-1.5707963267949,-1.5707963267949,0.,0.,            51P     49
1.5707963267949,1.5707963267949,3.14159265358979,                     51P     50
3.14159265358979,3.14159265358979,1.,0.70710678118655,1.,             51P     51
0.70710678118655,1.,0.707106781186548,1.,0.707106781186548,1.,        51P     52
5.25,5.,1.,5.25,5.75,1.,6.,5.75,1.,6.75,5.75,1.,6.75,5.,1.,6.75,      51P     53
4.25,1.,6.,4.25,1.,5.25,4.25,1.,5.25,5.,1.,-3.14159265358979,         51P     54
3.14159265358979,0.,0.,0.;                                            51P     55
126,1,1,0,0,1,0,-1.33333333333333,-1.33333333333333,0.,0.,1.,1.,      53P     56
5.25,5.,1.,5.25,5.,0.,-1.33333333333333,0.,0.,0.,0.;                  53P     57
126,8,2,0,1,0,0,-3.14159265358979,-3.14159265358979,                  55P     58
-3.14159265358979,-1.5707963267949,-1.5707963267949,0.,0.,            55P     59
1.5707963267949,1.5707963267949,3.14159265358979,                     55P     60
3.14159265358979,3.14159265358979,1.,0.70710678118655,1.,             55P     61
0.70710678118655,1.,0.707106781186548,1.,0.707106781186548,1.,        55P     62
5.25,5.,0.,5.25,5.75,0.,6.,5.75,0.,6.75,5.75,0.,6.75,5.,0.,6.75,      55P     63
4.25,0.,6.,4.25,0.,5.25,4.25,0.,5.25,5.,0.,-3.14159265358979,         55P     64
3.14159265358979,0.,0.,0.;                                            55P     65
126,1,1,0,0,1,0,0.,0.,2.,2.,1.,1.,20.,30.,0.,0.,30.,0.,0.,2.,0.,      57P     66
0.,0.;                                                                57P     67
126,1,1,0,0,1,0,0.,0.,0.1,0.1,1.,1.,0.,30.,0.,0.,30.,1.,0.,0.1,       59P     68
0.,0.,0.;                                                             59P     69
126,1,1,0,0,1,0,0.,0.,2.,2.,1.,1.,20.,30.,1.,0.,30.,1.,0.,2.,0.,      61P     70
0.,0.;                                                                61P     71
126,1,1,0,0,1,0,0.,0.,0.1,0.1,1.,1.,20.,30.,0.,20.,30.,1.,0.,         63P     72
0.1,0.,0.,0.;                                                         63P     73
126,1,1,0,0,1,0,0.,0.,3.,3.,1.,1.,20.0000002980232,0.,0.,             65P     74
20.0000002980232,30.,0.,0.,3.,0.,0.,0.;                               65P     75
126,1,1,0,0,1,0,0.,0.,3.,3.,1.,1.,20.0000002980232,0.,1.,             67P     76
20.0000002980232,30.,1.,0.,3.,0.,0.,0.;                               67P     77
126,1,1,0,0,1,0,0.,0.,0.1,0.1,1.,1.,20.0000002980232,0.,0.,           69P     78
20.0000002980232,0.,1.,0.,0.1,0.,0.,0.;                               69P     79
126,1,1,0,0,1,0,0.,0.,2.00000002980232,2.00000002980232,1.,1.,        71P     80
0.,0.,0.,20.0000002980232,0.,0.,0.,2.00000002980232,0.,0.,0.;         71P     81
126,1,1,0,0,1,0,0.,0.,2.00000002980232,2.00000002980232,1.,1.,        73P     82
0.,0.,1.,20.0000002980232,0.,1.,0.,2.00000002980232,0.,0.,0.;         73P     83
126,1,1,0,0,1,0,0.,0.,0.1,0.1,1.,1.,0.,0.,0.,0.,0.,1.,0.,0.1,0.,      75P     84
0.,0.;                                                                75P     85
126,1,1,0,0,1,0,-2.,-2.,1.,1.,1.,1.,0.,30.,0.,0.,0.,0.,-2.,1.,        77P     86
0.,0.,0.;                                                             77P     87
126,1,1,0,0,1,0,-2.,-2.,1.,1.,1.,1.,0.,30.,1.,0.,0.,1.,-2.,1.,        79P     88
0.,0.,0.;                                                             79P     89
128,1,8,1,2,0,1,0,0,1,0.,0.,1.33333333333333,1.33333333333333,        81P     90
-3.14159265358979,-3.14159265358979,-3.14159265358979,                81P     91
-1.5707963267949,-1.5707963267949,0.,0.,1.5707963267949,              81P     92
1.5707963267949,3.14159265358979,3.14159265358979,                    81P     93
3.14159265358979,1.,1.,0.707106781186548,0.707106781186548,1.,        81P     94
1.,0.707106781186548,0.707106781186548,1.,1.,0.707106781186548,       81P     95
0.707106781186548,1.,1.,0.707106781186548,0.707106781186548,1.,       81P     96
1.,13.2500002980232,5.,0.,13.2500002980232,5.,1.,                     81P     97
13.2500002980232,4.25,0.,13.2500002980232,4.25,1.,                    81P     98
14.0000002980232,4.25,0.,14.0000002980232,4.25,1.,                    81P     99
14.7500002980232,4.25,0.,14.7500002980232,4.25,1.,                    81P    100
14.7500002980232,5.,0.,14.7500002980232,5.,1.,14.7500002980232,       81P    101
5.75,0.,14.7500002980232,5.75,1.,14.0000002980232,5.75,0.,            81P    102
14.0000002980232,5.75,1.,13.2500002980232,5.75,0.,                    81P    103
13.2500002980232,5.75,1.,13.2500002980232,5.,0.,                      81P    104
13.2500002980232,5.,1.,0.,1.33333333333333,-3.14159265358979,         81P    105
3.14159265358979;                                                     81P    106
128,1,8,1,2,0,1,0,0,1,0.,0.,1.33333333333333,1.33333333333333,        83P    107
-3.14159265358979,-3.14159265358979,-3.14159265358979,                83P    108
-1.5707963267949,-1.5707963267949,0.,0.,1.5707963267949,              83P    109
1.5707963267949,3.14159265358979,3.14159265358979,                    83P    110
3.14159265358979,1.,1.,0.707106781186548,0.707106781186548,1.,        83P    111
1.,0.707106781186548,0.707106781186548,1.,1.,0.707106781186548,       83P    112
0.707106781186548,1.,1.,0.707106781186548,0.707106781186548,1.,       83P    113
1.,5.25,5.,0.,5.25,5.,1.,5.25,4.25,0.,5.25,4.25,1.,6.,4.25,0.,        83P    114
6.,4.25,1.,6.75,4.25,0.,6.75,4.25,1.,6.75,5.,0.,6.75,5.,1.,6.75,      83P    115
5.75,0.,6.75,5.75,1.,6.,5.75,0.,6.,5.75,1.,5.25,5.75,0.,5.25,         83P    116
5.75,1.,5.25,5.,0.,5.25,5.,1.,0.,1.33333333333333,                    83P    117
-3.14159265358979,3.14159265358979;                                   83P    118
128,1,1,1,1,0,0,1,0,0,-0.001,-0.001,2.001,2.001,-0.001,-0.001,        85P    119
0.101,0.101,1.,1.,1.,1.,20.01,30.,-0.01,-0.0099999999999989,30.,      85P    120
-0.01,20.01,30.,1.01,-0.0099999999999989,30.,1.01,-0.001,2.001,       85P    121
-0.001,0.101;                                                         85P    122
128,1,1,1,1,0,0,1,0,0,-0.001,-0.001,3.001,3.001,-0.001,-0.001,        87P    123
0.101,0.101,1.,1.,1.,1.,20.0000002980232,-0.01,-0.01,                 87P    124
20.0000002980232,30.01,-0.01,20.0000002980232,-0.01,1.01,             87P    125
20.0000002980232,30.01,1.01,-0.001,3.001,-0.001,0.101;                87P    126
128,1,1,1,1,0,0,1,0,0,-0.001,-0.001,2.00100002980232,                 89P    127
2.00100002980232,-0.001,-0.001,0.101,0.101,1.,1.,1.,1.,-0.01,0.,      89P    128
-0.01,20.0100002980232,0.,-0.01,-0.01,0.,1.01,20.0100002980232,       89P    129
0.,1.01,-0.001,2.00100002980232,-0.001,0.101;                         89P    130
128,1,1,1,1,0,0,1,0,0,-0.001,-0.001,3.001,3.001,-0.001,-0.001,        91P    131
0.101,0.101,1.,1.,1.,1.,0.,30.01,-0.01,0.,-0.0099999999999989,        91P    132
-0.01,0.,30.01,1.01,0.,-0.0099999999999989,1.01,-0.001,3.001,         91P    133
-0.001,0.101;                                                         91P    134
128,1,1,1,1,0,0,1,0,0,-1.00100001490116,-1.00100001490116,            93P    135
1.00100001490116,1.00100001490116,-1.501,-1.501,1.501,1.501,1.,       93P    136
1.,1.,1.,-0.0099999999999989,-0.0099999999999989,1.,                  93P    137
20.0100002980232,-0.0099999999999989,1.,-0.0099999999999989,          93P    138
30.01,1.,20.0100002980232,30.01,1.,-1.00100001490116,                 93P    139
1.00100001490116,-1.501,1.501;                                        93P    140
128,1,1,1,1,0,0,1,0,0,-1.00100001490116,-1.00100001490116,            95P    141
1.00100001490116,1.00100001490116,-1.501,-1.501,1.501,1.501,1.,       95P    142
1.,1.,1.,20.0100002980232,-0.0099999999999989,0.,                     95P    143
-0.0099999999999989,-0.0099999999999989,0.,20.0100002980232,          95P    144
30.01,0.,-0.0099999999999989,30.01,0.,-1.00100001490116,              95P    145
1.00100001490116,-1.501,1.501;                                        95P    146
502,12,13.2500002980232,5.,1.,13.2500002980232,5.,0.,5.25,5.,1.,      97P    147
5.25,5.,0.,20.,30.,0.,0.,30.,0.,0.,30.,1.,20.,30.,1.,                 97P    148
20.0000002980232,0.,0.,20.0000002980232,0.,1.,0.,0.,0.,0.,0.,1.;      97P    149
504,18,45,97,1,97,1,47,97,1,97,2,49,97,2,97,2,51,97,3,97,3,53,        99P    150
97,3,97,4,55,97,4,97,4,57,97,5,97,6,59,97,6,97,7,61,97,8,97,7,        99P    151
63,97,5,97,8,65,97,9,97,5,67,97,10,97,8,69,97,9,97,10,71,97,11,       99P    152
97,9,73,97,12,97,10,75,97,11,97,12,77,97,6,97,11,79,97,7,97,12;       99P    153
406,1,5HBody1;                                                       101P    154
314,62.7450980392157,62.7450980392157,62.7450980392157,13HSteel      103P    155
- Satin;                                                             103P    156
S      1G      3D    104P    156                                        T      1
