0
SECTION
2
HEADER
9
$INSUNITS
70
4
9
$ACADVER
1
AC1014
9
$HANDSEED
5
FFFF
0
ENDSEC
0
SECTION
2
TABLES
0
TABLE
2
VPORT
5
8
100
AcDbSymbolTable
0
ENDTAB
0
TABLE
2
LTYPE
5
5
100
AcDbSymbolTable
0
LTYPE
5
14
100
AcDbSymbolTableRecord
100
AcDbLinetypeTableRecord
2
BYBLOCK
70
0
0
LTYPE
5
15
100
AcDbSymbolTableRecord
100
AcDbLinetypeTableRecord
2
BYLAYER
70
0
0
ENDTAB
0
TABLE
2
LAYER
5
2
100
AcDbSymbolTable
70
2
0
LAYER
5
50
100
AcDbSymbolTableRecord
100
AcDbLayerTableRecord
2
0
70
0
6
CONTINUOUS
0
ENDTAB
0
TABLE
2
STYLE
5
3
100
AcDbSymbolTable
70
1
0
STYLE
5
11
100
AcDbSymbolTableRecord
100
AcDbTextStyleTableRecord
2
STANDARD
70
0
0
ENDTAB
0
TABLE
2
VIEW
5
6
100
AcDbSymbolTable
70
0
0
ENDTAB
0
TABLE
2
UCS
5
7
100
AcDbSymbolTable
70
0
0
ENDTAB
0
TABLE
2
APPID
5
9
100
AcDbSymbolTable
70
2
0
APPID
5
12
100
AcDbSymbolTableRecord
100
AcDbRegAppTableRecord
2
ACAD
70
0
0
ENDTAB
0
TABLE
2
DIMSTYLE
5
A
100
AcDbSymbolTable
70
1
0
ENDTAB
0
TABLE
2
BLOCK_RECORD
5
1
100
AcDbSymbolTable
70
1
0
BLOCK_RECORD
5
1F
100
AcDbSymbolTableRecord
100
AcDbBlockTableRecord
2
*MODEL_SPACE
0
BLOCK_RECORD
5
1B
100
AcDbSymbolTableRecord
100
AcDbBlockTableRecord
2
*PAPER_SPACE
0
ENDTAB
0
ENDSEC
0
SECTION
2
BLOCKS
0
BLOCK
5
20
100
AcDbEntity
100
AcDbBlockBegin
2
*MODEL_SPACE
0
ENDBLK
5
21
100
AcDbEntity
100
AcDbBlockEnd
0
BLOCK
5
1C
100
AcDbEntity
100
AcDbBlockBegin
2
*PAPER_SPACE
0
ENDBLK
5
1D
100
AcDbEntity
100
AcDbBlockEnd
0
ENDSEC
0
SECTION
2
ENTITIES
0
LWPOLYLINE
5
100
100
AcDbEntity
8
0
100
AcDbPolyline
90
4
70
1
43
0.0
10
0.20699788821007634
20
14.424639223978435
10
-14.793002111789924
20
14.424639223978435
10
-14.793002111789924
20
64.424639223978431
10
0.20699788821007634
20
64.424639223978431
0
LWPOLYLINE
5
101
100
AcDbEntity
8
0
100
AcDbPolyline
90
4
70
1
43
0.0
10
-92.925046595261435
20
5.6401584396585385
10
-78.152930300078296
20
8.2448811046624932
10
-89.787358203762594
20
74.227000556480434
10
-104.55947449894579
20
71.622277891476443
0
CIRCLE
5
102
100
AcDbEntity
8
0
100
AcDbCircle
10
-94.793002111789917
20
59.424639223978431
30
0
40
4.0000000001008313
210
0
220
0
230
1
0
CIRCLE
5
103
100
AcDbEntity
8
0
100
AcDbCircle
10
-87.739922883451328
20
19.424639223978435
30
0
40
3.9999999999999987
210
0
220
0
230
1
0
LWPOLYLINE
5
104
100
AcDbEntity
8
0
100
AcDbPolyline
90
4
70
1
43
0.0
10
0.20699788821007647
20
4.4246392239784349
10
-114.79300211178992
20
4.4246392239784349
10
-114.79300211178992
20
74.424639223978431
10
0.20699788821007647
20
74.424639223978431
0
LWPOLYLINE
5
105
100
AcDbEntity
8
0
100
AcDbPolyline
90
4
70
1
43
0.0
10
0.20699788821007647
20
74.424639223978431
10
10
20
74.424639223978431
10
10
20
44.424639223978424
10
0.20699788821007647
20
44.424639223978424
0
LWPOLYLINE
5
106
100
AcDbEntity
8
0
100
AcDbPolyline
90
4
70
1
43
0.0
10
-24.793002111789917
20
67.424639223978431
10
-104.79300211178992
20
67.424639223978431
10
-104.79300211178992
20
51.424639223978438
10
-24.793002111789917
20
51.424639223978438
0
LWPOLYLINE
5
107
100
AcDbEntity
8
0
100
AcDbPolyline
90
4
70
1
43
0.0
10
-24.793002111789914
20
27.424639223978431
10
-104.79300211178992
20
27.424639223978431
10
-104.79300211178992
20
11.424639223978431
10
-24.793002111789914
20
11.42463922397843
0
LWPOLYLINE
5
108
100
AcDbEntity
8
0
100
AcDbPolyline
90
4
70
1
43
0.0
10
-24.793002111789917
20
51.424639223978438
10
-104.79300211178992
20
51.424639223978438
10
-104.79300211178992
20
59.424639223978431
10
-24.793002111789917
20
59.424639223978431
0
LWPOLYLINE
5
109
100
AcDbEntity
8
0
100
AcDbPolyline
90
4
70
1
43
0.0
10
-24.793002111789914
20
11.42463922397843
10
-104.79300211178992
20
11.42463922397843
10
-104.79300211178992
20
19.424639223978431
10
-24.793002111789914
20
19.424639223978431
0
CIRCLE
5
110
100
AcDbEntity
8
0
100
AcDbCircle
10
-30.793002111789921
20
59.424639223978431
30
0
40
4.0000000000000018
210
0
220
0
230
1
0
CIRCLE
5
111
100
AcDbEntity
8
0
100
AcDbCircle
10
-40.364430683218501
20
59.424639223978431
30
0
40
4.0000000000000018
210
0
220
0
230
1
0
CIRCLE
5
112
100
AcDbEntity
8
0
100
AcDbCircle
10
-49.935859254647056
20
59.424639223978431
30
0
40
4.0000000000000018
210
0
220
0
230
1
0
CIRCLE
5
113
100
AcDbEntity
8
0
100
AcDbCircle
10
-59.507287826075626
20
59.424639223978431
30
0
40
4.0000000000000018
210
0
220
0
230
1
0
CIRCLE
5
114
100
AcDbEntity
8
0
100
AcDbCircle
10
-69.078716397504195
20
59.424639223978431
30
0
40
4.0000000000000018
210
0
220
0
230
1
0
CIRCLE
5
115
100
AcDbEntity
8
0
100
AcDbCircle
10
-78.650144968932779
20
59.424639223978431
30
0
40
4.0000000000000018
210
0
220
0
230
1
0
CIRCLE
5
116
100
AcDbEntity
8
0
100
AcDbCircle
10
-88.221573540361334
20
59.424639223978431
30
0
40
4.0000000000000018
210
0
220
0
230
1
0
CIRCLE
5
117
100
AcDbEntity
8
0
100
AcDbCircle
10
-97.793002111789917
20
59.424639223978431
30
0
40
4.0000000000000018
210
0
220
0
230
1
0
CIRCLE
5
118
100
AcDbEntity
8
0
100
AcDbCircle
10
-30.793002111789917
20
19.424639223978431
30
0
40
3.9999999999999987
210
0
220
0
230
1
0
CIRCLE
5
119
100
AcDbEntity
8
0
100
AcDbCircle
10
-40.364430683218487
20
19.424639223978431
30
0
40
3.9999999999999987
210
0
220
0
230
1
0
CIRCLE
5
120
100
AcDbEntity
8
0
100
AcDbCircle
10
-49.935859254647063
20
19.424639223978431
30
0
40
3.9999999999999987
210
0
220
0
230
1
0
CIRCLE
5
121
100
AcDbEntity
8
0
100
AcDbCircle
10
-59.507287826075626
20
19.424639223978431
30
0
40
3.9999999999999987
210
0
220
0
230
1
0
CIRCLE
5
122
100
AcDbEntity
8
0
100
AcDbCircle
10
-69.078716397504195
20
19.424639223978431
30
0
40
3.9999999999999987
210
0
220
0
230
1
0
CIRCLE
5
123
100
AcDbEntity
8
0
100
AcDbCircle
10
-78.650144968932779
20
19.424639223978431
30
0
40
3.9999999999999987
210
0
220
0
230
1
0
CIRCLE
5
124
100
AcDbEntity
8
0
100
AcDbCircle
10
-88.221573540361348
20
19.424639223978431
30
0
40
3.9999999999999987
210
0
220
0
230
1
0
CIRCLE
5
125
100
AcDbEntity
8
0
100
AcDbCircle
10
-97.793002111789917
20
19.424639223978431
30
0
40
3.9999999999999987
210
0
220
0
230
1
0
ENDSEC
0
SECTION
2
OBJECTS
0
DICTIONARY
5
C
100
AcDbDictionary
3
ACAD_GROUP
350
D
3
ACAD_MLINESTYLE
350
17
0
DICTIONARY
5
D
100
AcDbDictionary
0
DICTIONARY
5
1A
330
C
100
AcDbDictionary
0
DICTIONARY
5
17
100
AcDbDictionary
0
ENDSEC
0
EOF
