                                                                        S      1
,,23HOpensprinkler Shield v5,23HOpensprinkler Shield v5,7Hunknown,7HunknG      1
own,32,38,7,99,15,,1.,2,2HMM,1,0.08,15H20220922.115137,0.01,10000.,7HunkG      2
nown,7Hunknown,11,0,15H20220702.124001;                                 G      3
     186       1                                                00000000D      1
     186            -135       1       0                               0D      2
     514       2                                                00010000D      3
     514                       1       1                               0D      4
     510       3                                                00010000D      5
     510            -135       1       1                               0D      6
     510       4                                                00010000D      7
     510            -135       1       1                               0D      8
     510       5                                                00010000D      9
     510            -135       1       1                               0D     10
     510       6                                                00010000D     11
     510            -135       1       1                               0D     12
     510       7                                                00010000D     13
     510            -135       1       1                               0D     14
     510       8                                                00010000D     15
     510            -135       1       1                               0D     16
     510       9                                                00010000D     17
     510            -135       1       1                               0D     18
     510      10                                                00010000D     19
     510            -135       1       1                               0D     20
     510      11                                                00010000D     21
     510            -135       1       1                               0D     22
     510      12                                                00010000D     23
     510            -135       1       1                               0D     24
     508      13                                                00010000D     25
     508                       1       1                               0D     26
     508      14                                                00010000D     27
     508                       1       1                               0D     28
     508      15                                                00010000D     29
     508                       1       1                               0D     30
     508      16                                                00010000D     31
     508                       1       1                               0D     32
     508      17                                                00010000D     33
     508                       1       1                               0D     34
     508      18                                                00010000D     35
     508                       1       1                               0D     36
     508      19                                                00010000D     37
     508                       1       1                               0D     38
     508      20                                                00010000D     39
     508                       1       1                               0D     40
     508      21                                                00010000D     41
     508                       1       1                               0D     42
     508      22                                                00010000D     43
     508                       1       1                               0D     44
     508      23                                                00010000D     45
     508                       1       1                               0D     46
     508      24                                                00010000D     47
     508                       1       1                               0D     48
     508      25                                                00010000D     49
     508                       1       1                               0D     50
     508      26                                                00010000D     51
     508                       1       1                               0D     52
     508      27                                                00010000D     53
     508                       1       1                               0D     54
     508      28                                                00010000D     55
     508                       1       1                               0D     56
     508      29                                                00010000D     57
     508                       1       1                               0D     58
     508      30                                                00010000D     59
     508                       1       1                               0D     60
     126      31                                                00010000D     61
     126       0               8       0                               0D     62
     126      39                                                00010000D     63
     126       0               2       0                               0D     64
     126      41                                                00010000D     65
     126       0               8       0                               0D     66
     126      49                                                00010000D     67
     126       0               8       0                               0D     68
     126      57                                                00010000D     69
     126       0               2       0                               0D     70
     126      59                                                00010000D     71
     126       0               8       0                               0D     72
     126      67                                                00010000D     73
     126       0               8       0                               0D     74
     126      75                                                00010000D     75
     126       0               2       0                               0D     76
     126      77                                                00010000D     77
     126       0               8       0                               0D     78
     126      85                                                00010000D     79
     126       0               8       0                               0D     80
     126      93                                                00010000D     81
     126       0               2       0                               0D     82
     126      95                                                00010000D     83
     126       0               8       0                               0D     84
     126     103                                                00010000D     85
     126       0               2       0                               0D     86
     126     105                                                00010000D     87
     126       0               2       0                               0D     88
     126     107                                                00010000D     89
     126       0               2       0                               0D     90
     126     109                                                00010000D     91
     126       0               2       0                               0D     92
     126     111                                                00010000D     93
     126       0               2       0                               0D     94
     126     113                                                00010000D     95
     126       0               2       0                               0D     96
     126     115                                                00010000D     97
     126       0               2       0                               0D     98
     126     117                                                00010000D     99
     126       0               2       0                               0D    100
     126     119                                                00010000D    101
     126       0               2       0                               0D    102
     126     121                                                00010000D    103
     126       0               2       0                               0D    104
     126     123                                                00010000D    105
     126       0               2       0                               0D    106
     126     125                                                00010000D    107
     126       0               2       0                               0D    108
     128     127                                                00010000D    109
     128       0    -135      11       0                               0D    110
     128     138                                                00010000D    111
     128       0    -135      11       0                               0D    112
     128     149                                                00010000D    113
     128       0    -135      11       0                               0D    114
     128     160                                                00010000D    115
     128       0    -135      11       0                               0D    116
     128     171                                                00010000D    117
     128       0    -135       4       0                               0D    118
     128     175                                                00010000D    119
     128       0    -135       3       0                               0D    120
     128     178                                                00010000D    121
     128       0    -135       4       0                               0D    122
     128     182                                                00010000D    123
     128       0    -135       4       0                               0D    124
     128     186                                                00010000D    125
     128       0    -135       4       0                               0D    126
     128     190                                                00010000D    127
     128       0    -135       4       0                               0D    128
     502     194                                                00010000D    129
     502                       4       1                               0D    130
     504     198                                                00010001D    131
     504                       7       1                               0D    132
     406     205                                                00000000D    133
     406                       1      15                               0D    134
     314     206                                                00000200D    135
     314                       2       0                               0D    136
186,3,1,0,0,1,133;                                                     1P      1
514,10,5,1,7,1,9,1,11,1,13,1,15,1,17,1,19,1,21,1,23,1;                 3P      2
510,109,1,1,25;                                                        5P      3
510,111,1,1,27;                                                        7P      4
510,113,1,1,29;                                                        9P      5
510,115,1,1,31;                                                       11P      6
510,117,1,1,33;                                                       13P      7
510,119,1,1,35;                                                       15P      8
510,121,1,1,37;                                                       17P      9
510,123,1,1,39;                                                       19P     10
510,125,5,1,41,43,45,47,49;                                           21P     11
510,127,5,1,51,53,55,57,59;                                           23P     12
508,4,0,131,1,0,0,0,131,2,1,0,0,131,3,1,0,0,131,2,0,0;                25P     13
508,4,0,131,4,0,0,0,131,5,1,0,0,131,6,1,0,0,131,5,0,0;                27P     14
508,4,0,131,7,0,0,0,131,8,1,0,0,131,9,1,0,0,131,8,0,0;                29P     15
508,4,0,131,10,0,0,0,131,11,1,0,0,131,12,1,0,0,131,11,0,0;            31P     16
508,4,0,131,13,1,0,0,131,14,1,0,0,131,15,0,0,0,131,16,0,0;            33P     17
508,4,0,131,17,1,0,0,131,16,1,0,0,131,18,0,0,0,131,19,0,0;            35P     18
508,4,0,131,20,1,0,0,131,19,1,0,0,131,21,0,0,0,131,22,0,0;            37P     19
508,4,0,131,23,1,0,0,131,22,1,0,0,131,24,0,0,0,131,14,0,0;            39P     20
508,4,0,131,24,1,0,0,131,21,1,0,0,131,18,1,0,0,131,15,1,0;            41P     21
508,1,0,131,10,1,0;                                                   43P     22
508,1,0,131,7,1,0;                                                    45P     23
508,1,0,131,4,1,0;                                                    47P     24
508,1,0,131,1,1,0;                                                    49P     25
508,4,0,131,23,0,0,0,131,13,0,0,0,131,17,0,0,0,131,20,0,0;            51P     26
508,1,0,131,12,0,0;                                                   53P     27
508,1,0,131,9,0,0;                                                    55P     28
508,1,0,131,6,0,0;                                                    57P     29
508,1,0,131,3,0,0;                                                    59P     30
126,8,2,0,1,0,0,-3.14159265358979,-3.14159265358979,                  61P     31
-3.14159265358979,-1.5707963267949,-1.5707963267949,0.,0.,            61P     32
1.5707963267949,1.5707963267949,3.14159265358979,                     61P     33
3.14159265358979,3.14159265358979,1.,0.707106781186551,1.,            61P     34
0.707106781186551,1.,0.707106781186551,1.,0.707106781186551,1.,       61P     35
5.,128.,2.6,5.,130.,2.6,7.,130.,2.6,9.,130.,2.6,9.,128.,2.6,9.,       61P     36
126.,2.6,7.,126.,2.6,5.,126.,2.6,5.,128.,2.6,-3.14159265358979,       61P     37
3.14159265358979,0.,0.,0.;                                            61P     38
126,1,1,0,0,1,0,-1.3,-1.3,0.,0.,1.,1.,5.,128.,2.6,5.,128.,0.,         63P     39
-1.3,0.,0.,0.,0.;                                                     63P     40
126,8,2,0,1,0,0,-3.14159265358979,-3.14159265358979,                  65P     41
-3.14159265358979,-1.5707963267949,-1.5707963267949,0.,0.,            65P     42
1.5707963267949,1.5707963267949,3.14159265358979,                     65P     43
3.14159265358979,3.14159265358979,1.,0.707106781186551,1.,            65P     44
0.707106781186551,1.,0.707106781186551,1.,0.707106781186551,1.,       65P     45
5.,128.,0.,5.,130.,0.,7.,130.,0.,9.,130.,0.,9.,128.,0.,9.,126.,       65P     46
0.,7.,126.,0.,5.,126.,0.,5.,128.,0.,-3.14159265358979,                65P     47
3.14159265358979,0.,0.,0.;                                            65P     48
126,8,2,0,1,0,0,-3.14159265358979,-3.14159265358979,                  67P     49
-3.14159265358979,-1.5707963267949,-1.5707963267949,0.,0.,            67P     50
1.5707963267949,1.5707963267949,3.14159265358979,                     67P     51
3.14159265358979,3.14159265358979,1.,0.707106781186547,1.,            67P     52
0.707106781186547,1.,0.707106781186547,1.,0.707106781186547,1.,       67P     53
8.,10.,2.6,8.,12.,2.6,10.,12.,2.6,12.,12.,2.6,12.,10.,2.6,12.,        67P     54
8.,2.6,10.,8.,2.6,8.,8.,2.6,8.,10.,2.6,-3.14159265358979,             67P     55
3.14159265358979,0.,0.,0.;                                            67P     56
126,1,1,0,0,1,0,-1.3,-1.3,0.,0.,1.,1.,8.,10.,2.6,8.,10.,0.,-1.3,      69P     57
0.,0.,0.,0.;                                                          69P     58
126,8,2,0,1,0,0,-3.14159265358979,-3.14159265358979,                  71P     59
-3.14159265358979,-1.5707963267949,-1.5707963267949,0.,0.,            71P     60
1.5707963267949,1.5707963267949,3.14159265358979,                     71P     61
3.14159265358979,3.14159265358979,1.,0.707106781186547,1.,            71P     62
0.707106781186547,1.,0.707106781186547,1.,0.707106781186547,1.,       71P     63
8.,10.,0.,8.,12.,0.,10.,12.,0.,12.,12.,0.,12.,10.,0.,12.,8.,0.,       71P     64
10.,8.,0.,8.,8.,0.,8.,10.,0.,-3.14159265358979,3.14159265358979,      71P     65
0.,0.,0.;                                                             71P     66
126,8,2,0,1,0,0,-3.14159265358979,-3.14159265358979,                  73P     67
-3.14159265358979,-1.5707963267949,-1.5707963267949,0.,0.,            73P     68
1.5707963267949,1.5707963267949,3.14159265358979,                     73P     69
3.14159265358979,3.14159265358979,1.,0.707106781186551,1.,            73P     70
0.707106781186551,1.,0.707106781186551,1.,0.707106781186551,1.,       73P     71
5.,92.,2.6,5.,94.,2.6,7.,94.,2.6,9.,94.,2.6,9.,92.,2.6,9.,90.,        73P     72
2.6,7.,90.,2.6,5.,90.,2.6,5.,92.,2.6,-3.14159265358979,               73P     73
3.14159265358979,0.,0.,0.;                                            73P     74
126,1,1,0,0,1,0,-1.3,-1.3,0.,0.,1.,1.,5.,92.,2.6,5.,92.,0.,-1.3,      75P     75
0.,0.,0.,0.;                                                          75P     76
126,8,2,0,1,0,0,-3.14159265358979,-3.14159265358979,                  77P     77
-3.14159265358979,-1.5707963267949,-1.5707963267949,0.,0.,            77P     78
1.5707963267949,1.5707963267949,3.14159265358979,                     77P     79
3.14159265358979,3.14159265358979,1.,0.707106781186551,1.,            77P     80
0.707106781186551,1.,0.707106781186551,1.,0.707106781186551,1.,       77P     81
5.,92.,0.,5.,94.,0.,7.,94.,0.,9.,94.,0.,9.,92.,0.,9.,90.,0.,7.,       77P     82
90.,0.,5.,90.,0.,5.,92.,0.,-3.14159265358979,3.14159265358979,        77P     83
0.,0.,0.;                                                             77P     84
126,8,2,0,1,0,0,-3.14159265358979,-3.14159265358979,                  79P     85
-3.14159265358979,-1.5707963267949,-1.5707963267949,0.,0.,            79P     86
1.5707963267949,1.5707963267949,3.14159265358979,                     79P     87
3.14159265358979,3.14159265358979,1.,0.707106781186541,1.,            79P     88
0.707106781186541,1.,0.707106781186541,1.,0.707106781186541,1.,       79P     89
8.,57.,2.6,8.,59.,2.6,10.,59.,2.6,12.,59.,2.6,12.,57.,2.6,12.,        79P     90
55.,2.6,10.,55.,2.6,8.,55.,2.6,8.,57.,2.6,-3.14159265358979,          79P     91
3.14159265358979,0.,0.,0.;                                            79P     92
126,1,1,0,0,1,0,-1.3,-1.3,0.,0.,1.,1.,8.,57.,2.6,8.,57.,0.,-1.3,      81P     93
0.,0.,0.,0.;                                                          81P     94
126,8,2,0,1,0,0,-3.14159265358979,-3.14159265358979,                  83P     95
-3.14159265358979,-1.5707963267949,-1.5707963267949,0.,0.,            83P     96
1.5707963267949,1.5707963267949,3.14159265358979,                     83P     97
3.14159265358979,3.14159265358979,1.,0.707106781186541,1.,            83P     98
0.707106781186541,1.,0.707106781186541,1.,0.707106781186541,1.,       83P     99
8.,57.,0.,8.,59.,0.,10.,59.,0.,12.,59.,0.,12.,57.,0.,12.,55.,0.,      83P    100
10.,55.,0.,8.,55.,0.,8.,57.,0.,-3.14159265358979,                     83P    101
3.14159265358979,0.,0.,0.;                                            83P    102
126,1,1,0,0,1,0,0.,0.,1.6,1.6,1.,1.,16.,140.,0.,0.,140.,0.,0.,        85P    103
1.6,0.,0.,0.;                                                         85P    104
126,1,1,0,0,1,0,0.,0.,0.26,0.26,1.,1.,0.,140.,0.,0.,140.,2.6,0.,      87P    105
0.26,0.,0.,0.;                                                        87P    106
126,1,1,0,0,1,0,0.,0.,1.6,1.6,1.,1.,16.,140.,2.6,0.,140.,2.6,0.,      89P    107
1.6,0.,0.,0.;                                                         89P    108
126,1,1,0,0,1,0,0.,0.,0.26,0.26,1.,1.,16.,140.,0.,16.,140.,2.6,       91P    109
0.,0.26,0.,0.,0.;                                                     91P    110
126,1,1,0,0,1,0,0.,0.,14.,14.,1.,1.,16.,-1.92592994438724D-31,        93P    111
0.,16.,140.,0.,0.,14.,0.,0.,0.;                                       93P    112
126,1,1,0,0,1,0,0.,0.,14.,14.,1.,1.,16.,-1.92592994438724D-31,        95P    113
2.6,16.,140.,2.6,0.,14.,0.,0.,0.;                                     95P    114
126,1,1,0,0,1,0,0.,0.,0.26,0.26,1.,1.,16.,-1.92592994438724D-31,      97P    115
0.,16.,-1.92592994438724D-31,2.6,0.,0.26,0.,0.,0.;                    97P    116
126,1,1,0,0,1,0,0.,0.,1.6,1.6,1.,1.,0.,0.,0.,16.,                     99P    117
-1.92592994438724D-31,0.,0.,1.6,0.,0.,0.;                             99P    118
126,1,1,0,0,1,0,0.,0.,1.6,1.6,1.,1.,0.,0.,2.6,16.,                   101P    119
-1.92592994438724D-31,2.6,0.,1.6,0.,0.,0.;                           101P    120
126,1,1,0,0,1,0,0.,0.,0.26,0.26,1.,1.,0.,0.,0.,0.,0.,2.6,0.,         103P    121
0.26,0.,0.,0.;                                                       103P    122
126,1,1,0,0,1,0,0.,0.,14.,14.,1.,1.,0.,140.,0.,0.,0.,0.,0.,14.,      105P    123
0.,0.,0.;                                                            105P    124
126,1,1,0,0,1,0,0.,0.,14.,14.,1.,1.,0.,140.,2.6,0.,0.,2.6,0.,        107P    125
14.,0.,0.,0.;                                                        107P    126
128,1,8,1,2,0,1,0,0,1,0.,0.,1.3,1.3,-3.14159265358979,               109P    127
-3.14159265358979,-3.14159265358979,-1.5707963267949,                109P    128
-1.5707963267949,0.,0.,1.5707963267949,1.5707963267949,              109P    129
3.14159265358979,3.14159265358979,3.14159265358979,1.,1.,            109P    130
0.707106781186548,0.707106781186548,1.,1.,0.707106781186548,         109P    131
0.707106781186548,1.,1.,0.707106781186548,0.707106781186548,1.,      109P    132
1.,0.707106781186548,0.707106781186548,1.,1.,5.,128.,0.,5.,128.,     109P    133
2.6,5.,126.,0.,5.,126.,2.6,7.,126.,0.,7.,126.,2.6,9.,126.,0.,9.,     109P    134
126.,2.6,9.,128.,0.,9.,128.,2.6,9.,130.,0.,9.,130.,2.6,7.,130.,      109P    135
0.,7.,130.,2.6,5.,130.,0.,5.,130.,2.6,5.,128.,0.,5.,128.,2.6,0.,     109P    136
1.3,-3.14159265358979,3.14159265358979;                              109P    137
128,1,8,1,2,0,1,0,0,1,0.,0.,1.3,1.3,-3.14159265358979,               111P    138
-3.14159265358979,-3.14159265358979,-1.5707963267949,                111P    139
-1.5707963267949,0.,0.,1.5707963267949,1.5707963267949,              111P    140
3.14159265358979,3.14159265358979,3.14159265358979,1.,1.,            111P    141
0.707106781186548,0.707106781186548,1.,1.,0.707106781186548,         111P    142
0.707106781186548,1.,1.,0.707106781186548,0.707106781186548,1.,      111P    143
1.,0.707106781186548,0.707106781186548,1.,1.,8.,10.,0.,8.,10.,       111P    144
2.6,8.,8.,0.,8.,8.,2.6,10.,8.,0.,10.,8.,2.6,12.,8.,0.,12.,8.,        111P    145
2.6,12.,10.,0.,12.,10.,2.6,12.,12.,0.,12.,12.,2.6,10.,12.,0.,        111P    146
10.,12.,2.6,8.,12.,0.,8.,12.,2.6,8.,10.,0.,8.,10.,2.6,0.,1.3,        111P    147
-3.14159265358979,3.14159265358979;                                  111P    148
128,1,8,1,2,0,1,0,0,1,0.,0.,1.3,1.3,-3.14159265358979,               113P    149
-3.14159265358979,-3.14159265358979,-1.5707963267949,                113P    150
-1.5707963267949,0.,0.,1.5707963267949,1.5707963267949,              113P    151
3.14159265358979,3.14159265358979,3.14159265358979,1.,1.,            113P    152
0.707106781186548,0.707106781186548,1.,1.,0.707106781186548,         113P    153
0.707106781186548,1.,1.,0.707106781186548,0.707106781186548,1.,      113P    154
1.,0.707106781186548,0.707106781186548,1.,1.,5.,92.,0.,5.,92.,       113P    155
2.6,5.,90.,0.,5.,90.,2.6,7.,90.,0.,7.,90.,2.6,9.,90.,0.,9.,90.,      113P    156
2.6,9.,92.,0.,9.,92.,2.6,9.,94.,0.,9.,94.,2.6,7.,94.,0.,7.,94.,      113P    157
2.6,5.,94.,0.,5.,94.,2.6,5.,92.,0.,5.,92.,2.6,0.,1.3,                113P    158
-3.14159265358979,3.14159265358979;                                  113P    159
128,1,8,1,2,0,1,0,0,1,0.,0.,1.3,1.3,-3.14159265358979,               115P    160
-3.14159265358979,-3.14159265358979,-1.5707963267949,                115P    161
-1.5707963267949,0.,0.,1.5707963267949,1.5707963267949,              115P    162
3.14159265358979,3.14159265358979,3.14159265358979,1.,1.,            115P    163
0.707106781186548,0.707106781186548,1.,1.,0.707106781186548,         115P    164
0.707106781186548,1.,1.,0.707106781186548,0.707106781186548,1.,      115P    165
1.,0.707106781186548,0.707106781186548,1.,1.,8.,57.,0.,8.,57.,       115P    166
2.6,8.,55.,0.,8.,55.,2.6,10.,55.,0.,10.,55.,2.6,12.,55.,0.,12.,      115P    167
55.,2.6,12.,57.,0.,12.,57.,2.6,12.,59.,0.,12.,59.,2.6,10.,59.,       115P    168
0.,10.,59.,2.6,8.,59.,0.,8.,59.,2.6,8.,57.,0.,8.,57.,2.6,0.,1.3,     115P    169
-3.14159265358979,3.14159265358979;                                  115P    170
128,1,1,1,1,0,0,1,0,0,-0.001,-0.001,1.601,1.601,-0.001,-0.001,       117P    171
0.261,0.261,1.,1.,1.,1.,16.01,140.,-0.01,-0.0099999999999989,        117P    172
140.,-0.01,16.01,140.,2.61,-0.0099999999999989,140.,2.61,-0.001,     117P    173
1.601,-0.001,0.261;                                                  117P    174
128,1,1,1,1,0,0,1,0,0,-0.001,-0.001,14.001,14.001,-0.001,-0.001,     119P    175
0.261,0.261,1.,1.,1.,1.,16.,-0.01,-0.01,16.,140.01,-0.01,16.,        119P    176
-0.01,2.61,16.,140.01,2.61,-0.001,14.001,-0.001,0.261;               119P    177
128,1,1,1,1,0,0,1,0,0,-0.001,-0.001,1.601,1.601,-0.001,-0.001,       121P    178
0.261,0.261,1.,1.,1.,1.,-0.01,1.20370621524202D-34,-0.01,16.01,      121P    179
-1.92713365060248D-31,-0.01,-0.01,1.20370621524202D-34,2.61,         121P    180
16.01,-1.92713365060248D-31,2.61,-0.001,1.601,-0.001,0.261;          121P    181
128,1,1,1,1,0,0,1,0,0,-0.001,-0.001,14.001,14.001,-0.001,-0.001,     123P    182
0.261,0.261,1.,1.,1.,1.,0.,140.01,-0.01,0.,-0.00999999999999446,     123P    183
-0.01,0.,140.01,2.61,0.,-0.00999999999999446,2.61,-0.001,14.001,     123P    184
-0.001,0.261;                                                        123P    185
128,1,1,1,1,0,0,1,0,0,-0.801,-0.801,0.801,0.801,-7.001,-7.001,       125P    186
7.001,7.001,1.,1.,1.,1.,-0.01,-0.0100000000000033,2.6,16.01,         125P    187
-0.0100000000000033,2.6,-0.01,140.01,2.6,16.01,140.01,2.6,           125P    188
-0.801,0.801,-7.001,7.001;                                           125P    189
128,1,1,1,1,0,0,1,0,0,-0.801,-0.801,0.801,0.801,-7.001,-7.001,       127P    190
7.001,7.001,1.,1.,1.,1.,16.01,-0.0100000000000033,0.,-0.01,          127P    191
-0.0100000000000033,0.,16.01,140.01,0.,-0.01,140.01,0.,-0.801,       127P    192
0.801,-7.001,7.001;                                                  127P    193
502,16,5.,128.,2.6,5.,128.,0.,8.,10.,2.6,8.,10.,0.,5.,92.,2.6,       129P    194
5.,92.,0.,8.,57.,2.6,8.,57.,0.,16.,140.,0.,0.,140.,0.,0.,140.,       129P    195
2.6,16.,140.,2.6,16.,-1.92592994438724D-31,0.,16.,0.,2.6,0.,0.,      129P    196
0.,0.,0.,2.6;                                                        129P    197
504,24,61,129,1,129,1,63,129,1,129,2,65,129,2,129,2,67,129,3,        131P    198
129,3,69,129,3,129,4,71,129,4,129,4,73,129,5,129,5,75,129,5,129,     131P    199
6,77,129,6,129,6,79,129,7,129,7,81,129,7,129,8,83,129,8,129,8,       131P    200
85,129,9,129,10,87,129,10,129,11,89,129,12,129,11,91,129,9,129,      131P    201
12,93,129,13,129,9,95,129,14,129,12,97,129,13,129,14,99,129,15,      131P    202
129,13,101,129,16,129,14,103,129,15,129,16,105,129,10,129,15,        131P    203
107,129,11,129,16;                                                   131P    204
406,1,5HBody1;                                                       133P    205
314,62.7450980392157,62.7450980392157,62.7450980392157,13HSteel      135P    206
- Satin;                                                             135P    207
S      1G      3D    136P    207                                        T      1
