                                                                        S      1
,,40HCyclone - Saw to Cyclone Hose Adapter v4,39HCyclone  Saw to CycloneG      1
 Hose Adapter v4,7Hunknown,7Hunknown,32,38,7,99,15,,1.,2,2HMM,1,0.08,15HG      2
20220922.114942,0.01,10000.,7Hunknown,7Hunknown,11,0,15H20190921.141543;G      3
     186       1                                                00000000D      1
     186            -117       1       0                               0D      2
     514       2                                                00010000D      3
     514                       1       1                               0D      4
     510       3                                                00010000D      5
     510            -117       1       1                               0D      6
     510       4                                                00010000D      7
     510            -117       1       1                               0D      8
     510       5                                                00010000D      9
     510            -117       1       1                               0D     10
     510       6                                                00010000D     11
     510            -117       1       1                               0D     12
     510       7                                                00010000D     13
     510            -117       1       1                               0D     14
     510       8                                                00010000D     15
     510            -117       1       1                               0D     16
     510       9                                                00010000D     17
     510            -117       1       1                               0D     18
     510      10                                                00010000D     19
     510            -117       1       1                               0D     20
     510      11                                                00010000D     21
     510            -117       1       1                               0D     22
     510      12                                                00010000D     23
     510            -117       1       1                               0D     24
     508      13                                                00010000D     25
     508                       1       1                               0D     26
     508      14                                                00010000D     27
     508                       1       1                               0D     28
     508      15                                                00010000D     29
     508                       1       1                               0D     30
     508      16                                                00010000D     31
     508                       1       1                               0D     32
     508      17                                                00010000D     33
     508                       1       1                               0D     34
     508      18                                                00010000D     35
     508                       1       1                               0D     36
     508      19                                                00010000D     37
     508                       1       1                               0D     38
     508      20                                                00010000D     39
     508                       1       1                               0D     40
     508      21                                                00010000D     41
     508                       1       1                               0D     42
     508      22                                                00010000D     43
     508                       1       1                               0D     44
     508      23                                                00010000D     45
     508                       1       1                               0D     46
     508      24                                                00010000D     47
     508                       2       1                               0D     48
     508      26                                                00010000D     49
     508                       1       1                               0D     50
     508      27                                                00010000D     51
     508                       1       1                               0D     52
     508      28                                                00010000D     53
     508                       2       1                               0D     54
     126      30                                                00010000D     55
     126       0              10       0                               0D     56
     126      40                                                00010000D     57
     126       0               3       0                               0D     58
     126      43                                                00010000D     59
     126       0              10       0                               0D     60
     126      53                                                00010000D     61
     126       0              10       0                               0D     62
     126      63                                                00010000D     63
     126       0               2       0                               0D     64
     126      65                                                00010000D     65
     126       0              10       0                               0D     66
     126      75                                                00010000D     67
     126       0              10       0                               0D     68
     126      85                                                00010000D     69
     126       0              10       0                               0D     70
     126      95                                                00010000D     71
     126       0               5       0                               0D     72
     126     100                                                00010000D     73
     126       0               7       0                               0D     74
     126     107                                                00010000D     75
     126       0              10       0                               0D     76
     126     117                                                00010000D     77
     126       0               2       0                               0D     78
     126     119                                                00010000D     79
     126       0               2       0                               0D     80
     126     121                                                00010000D     81
     126       0               5       0                               0D     82
     126     126                                                00010000D     83
     126       0               7       0                               0D     84
     126     133                                                00010000D     85
     126       0               5       0                               0D     86
     126     138                                                00010000D     87
     126       0               7       0                               0D     88
     126     145                                                00010000D     89
     126       0               4       0                               0D     90
     128     149                                                00010000D     91
     128       0    -117      13       0                               0D     92
     128     162                                                00010000D     93
     128       0    -117      12       0                               0D     94
     128     174                                                00010000D     95
     128       0    -117       3       0                               0D     96
     128     177                                                00010000D     97
     128       0    -117       3       0                               0D     98
     128     180                                                00010000D     99
     128       0    -117       3       0                               0D    100
     128     183                                                00010000D    101
     128       0    -117      11       0                               0D    102
     128     194                                                00010000D    103
     128       0    -117       3       0                               0D    104
     128     197                                                00010000D    105
     128       0    -117      12       0                               0D    106
     128     209                                                00010000D    107
     128       0    -117       3       0                               0D    108
     128     212                                                00010000D    109
     128       0    -117      18       0                               0D    110
     502     230                                                00010000D    111
     502                       6       1                               0D    112
     504     236                                                00010001D    113
     504                       5       1                               0D    114
     406     241                                                00000000D    115
     406                       1      15                               0D    116
     314     242                                                00000200D    117
     314                       2       0                               0D    118
186,3,1,0,0,1,115;                                                     1P      1
514,10,5,1,7,1,9,1,11,1,13,1,15,1,17,1,19,1,21,1,23,1;                 3P      2
510,91,1,1,25;                                                         5P      3
510,93,1,1,27;                                                         7P      4
510,95,2,1,29,31;                                                      9P      5
510,97,2,1,33,35;                                                     11P      6
510,99,2,1,37,39;                                                     13P      7
510,101,1,1,41;                                                       15P      8
510,103,2,1,43,45;                                                    17P      9
510,105,1,1,47;                                                       19P     10
510,107,2,1,49,51;                                                    21P     11
510,109,1,1,53;                                                       23P     12
508,4,0,113,1,0,0,0,113,2,1,0,0,113,3,0,0,0,113,2,0,0;                25P     13
508,4,0,113,4,0,0,0,113,5,1,0,0,113,6,1,0,0,113,5,0,0;                27P     14
508,1,0,113,1,1,0;                                                    29P     15
508,1,0,113,4,1,0;                                                    31P     16
508,1,0,113,7,1,0;                                                    33P     17
508,1,0,113,6,0,0;                                                    35P     18
508,1,0,113,8,0,0;                                                    37P     19
508,2,0,113,9,0,0,0,113,10,0,0;                                       39P     20
508,4,0,113,11,0,0,0,113,12,1,0,0,113,8,1,0,0,113,12,0,0;             41P     21
508,1,0,113,11,1,0;                                                   43P     22
508,1,0,113,3,1,0;                                                    45P     23
508,5,0,113,7,0,0,0,113,13,1,0,0,113,14,0,0,0,113,15,0,0,0,113,       47P     24
13,0,0;                                                               47P     25
508,2,0,113,16,0,0,0,113,17,0,0;                                      49P     26
508,2,0,113,14,1,0,0,113,15,1,0;                                      51P     27
508,6,0,113,16,1,0,0,113,18,1,0,0,113,10,1,0,0,113,9,1,0,0,113,       53P     28
18,0,0,0,113,17,1,0;                                                  53P     29
126,8,2,0,1,0,0,-3.14159265358979,-3.14159265358979,                  55P     30
-3.14159265358979,-1.5707963267949,-1.5707963267949,0.,0.,            55P     31
1.5707963267949,1.5707963267949,3.14159265358979,                     55P     32
3.14159265358979,3.14159265358979,1.,0.707106781186548,1.,            55P     33
0.707106781186547,1.,0.707106781186547,1.,0.707106781186548,1.,       55P     34
-26.6,-3.25756048573196D-15,85.,-26.6,-26.6,85.,                      55P     35
1.62878024286598D-15,-26.6,85.,26.6,-26.6,85.,26.6,0.,85.,26.6,       55P     36
26.6,85.,1.62878024286598D-15,26.6,85.,-26.6,26.6,85.,-26.6,          55P     37
3.25756048573196D-15,85.,-3.14159265358979,3.14159265358979,0.,       55P     38
0.,0.;                                                                55P     39
126,1,1,0,0,1,0,-1.69172932330827,-1.69172932330827,                  57P     40
-0.18796992481203,-0.18796992481203,1.,1.,-26.6,0.,85.,-26.6,0.,      57P     41
45.,-1.69172932330827,-0.18796992481203,0.,0.,0.;                     57P     42
126,8,2,0,1,0,0,-3.14159265358979,-3.14159265358979,                  59P     43
-3.14159265358979,-1.5707963267949,-1.5707963267949,0.,0.,            59P     44
1.5707963267949,1.5707963267949,3.14159265358979,                     59P     45
3.14159265358979,3.14159265358979,1.,0.707106781186548,1.,            59P     46
0.707106781186547,1.,0.707106781186547,1.,0.707106781186548,1.,       59P     47
-26.6,3.25756048573196D-15,45.,-26.6,26.6,45.,                        59P     48
1.62878024286598D-15,26.6,45.,26.6,26.6,45.,26.6,0.,45.,26.6,         59P     49
-26.6,45.,1.62878024286598D-15,-26.6,45.,-26.6,-26.6,45.,-26.6,       59P     50
-3.25756048573196D-15,45.,-3.14159265358979,3.14159265358979,0.,      59P     51
0.,0.;                                                                59P     52
126,8,2,0,1,0,0,-3.14159265358979,-3.14159265358979,                  61P     53
-3.14159265358979,-1.5707963267949,-1.5707963267949,0.,0.,            61P     54
1.5707963267949,1.5707963267949,3.14159265358979,                     61P     55
3.14159265358979,3.14159265358979,1.,0.707106781186548,1.,            61P     56
0.707106781186548,1.,0.707106781186548,1.,0.707106781186548,1.,       61P     57
-24.1,2.95139878594512D-15,85.,-24.1,24.1,85.,                        61P     58
1.47569939297256D-15,24.1,85.,24.1,24.1,85.,24.1,0.,85.,24.1,         61P     59
-24.1,85.,1.47569939297256D-15,-24.1,85.,-24.1,-24.1,85.,-24.1,       61P     60
-2.95139878594512D-15,85.,-3.14159265358979,3.14159265358979,0.,      61P     61
0.,0.;                                                                61P     62
126,1,1,0,0,1,0,-1.86721991701245,-1.86721991701245,0.,0.,1.,1.,      63P     63
-24.1,0.,85.,-24.1,0.,40.,-1.86721991701245,0.,0.,0.,0.;              63P     64
126,8,2,0,1,0,0,-3.14159265358979,-3.14159265358979,                  65P     65
-3.14159265358979,-1.5707963267949,-1.5707963267949,0.,0.,            65P     66
1.5707963267949,1.5707963267949,3.14159265358979,                     65P     67
3.14159265358979,3.14159265358979,1.,0.707106781186548,1.,            65P     68
0.707106781186548,1.,0.707106781186548,1.,0.707106781186548,1.,       65P     69
-24.1,2.95139878594512D-15,40.,-24.1,24.1,40.,                        65P     70
1.47569939297256D-15,24.1,40.,24.1,24.1,40.,24.1,0.,40.,24.1,         65P     71
-24.1,40.,1.47569939297256D-15,-24.1,40.,-24.1,-24.1,40.,-24.1,       65P     72
-2.95139878594512D-15,40.,-3.14159265358979,3.14159265358979,0.,      65P     73
0.,0.;                                                                65P     74
126,8,2,0,1,0,0,-3.14159265358979,-3.14159265358979,                  67P     75
-3.14159265358979,-1.5707963267949,-1.5707963267949,0.,0.,            67P     76
1.5707963267949,1.5707963267949,3.14159265358979,                     67P     77
3.14159265358979,3.14159265358979,1.,0.707106781186548,1.,            67P     78
0.707106781186547,1.,0.707106781186547,1.,0.707106781186548,1.,       67P     79
-26.6,3.25756048573196D-15,40.,-26.6,26.6,40.,                        67P     80
1.62878024286598D-15,26.6,40.,26.6,26.6,40.,26.6,0.,40.,26.6,         67P     81
-26.6,40.,1.62878024286598D-15,-26.6,40.,-26.6,-26.6,40.,-26.6,       67P     82
-3.25756048573196D-15,40.,-3.14159265358979,3.14159265358979,0.,      67P     83
0.,0.;                                                                67P     84
126,8,2,0,1,0,0,-3.14159265358979,-3.14159265358979,                  69P     85
-3.14159265358979,-1.5707963267949,-1.5707963267949,0.,0.,            69P     86
1.5707963267949,1.5707963267949,3.14159265358979,                     69P     87
3.14159265358979,3.14159265358979,1.,0.707106781186548,1.,            69P     88
0.707106781186548,1.,0.707106781186548,1.,0.707106781186548,1.,       69P     89
-32.,-3.91886975727153D-15,40.,-32.,-32.,40.,                         69P     90
1.95943487863577D-15,-32.,40.,32.,-32.,40.,32.,0.,40.,32.,32.,        69P     91
40.,1.95943487863577D-15,32.,40.,-32.,32.,40.,-32.,                   69P     92
3.91886975727153D-15,40.,-3.14159265358979,3.14159265358979,0.,       69P     93
0.,0.;                                                                69P     94
126,4,2,0,0,0,0,0.,0.,0.,1.5707963267949,1.5707963267949,             71P     95
3.14159265358979,3.14159265358979,3.14159265358979,1.,                71P     96
0.707106781186548,1.,0.707106781186548,1.,29.,0.,40.,29.,-29.,        71P     97
40.,1.77573785876366D-15,-29.,40.,-29.,-29.,40.,-29.,                 71P     98
-3.55147571752732D-15,40.,0.,3.14159265358979,0.,0.,0.;               71P     99
126,4,2,0,0,0,0,3.14159265358979,3.14159265358979,                    73P    100
3.14159265358979,4.71238898038469,4.71238898038469,                   73P    101
6.28318530717959,6.28318530717959,6.28318530717959,1.,                73P    102
0.707106781186548,1.,0.707106781186548,1.,-29.,                       73P    103
-3.55147571752732D-15,40.,-29.,29.,40.,-5.32721357629099D-15,         73P    104
29.,40.,29.,29.,40.,29.,7.10295143505465D-15,40.,                     73P    105
3.14159265358979,6.28318530717959,0.,0.,0.;                           73P    106
126,8,2,0,1,0,0,-3.14159265358979,-3.14159265358979,                  75P    107
-3.14159265358979,-1.5707963267949,-1.5707963267949,0.,0.,            75P    108
1.5707963267949,1.5707963267949,3.14159265358979,                     75P    109
3.14159265358979,3.14159265358979,1.,0.707106781186548,1.,            75P    110
0.707106781186548,1.,0.707106781186548,1.,0.707106781186548,1.,       75P    111
-32.,-3.91886975727153D-15,45.,-32.,-32.,45.,                         75P    112
1.95943487863577D-15,-32.,45.,32.,-32.,45.,32.,0.,45.,32.,32.,        75P    113
45.,1.95943487863577D-15,32.,45.,-32.,32.,45.,-32.,                   75P    114
3.91886975727153D-15,45.,-3.14159265358979,3.14159265358979,0.,       75P    115
0.,0.;                                                                75P    116
126,1,1,0,0,1,0,-0.15625,-0.15625,0.,0.,1.,1.,-32.,0.,45.,-32.,       77P    117
0.,40.,-0.15625,0.,0.,0.,0.;                                          77P    118
126,1,1,0,0,1,0,0.,0.,1.50409888085288,1.50409888085288,1.,1.,        79P    119
-26.6,0.,40.,-25.75,0.,0.,0.,1.50409888085288,0.,0.,0.;               79P    120
126,4,2,0,0,0,0,0.,0.,0.,1.5707963267949,1.5707963267949,             81P    121
3.14159265358979,3.14159265358979,3.14159265358979,1.,                81P    122
0.707106781186547,1.,0.707106781186548,1.,25.75,0.,0.,25.75,          81P    123
25.75,0.,1.57673275390222D-15,25.75,0.,-25.75,25.75,0.,-25.75,        81P    124
3.15346550780443D-15,0.,0.,3.14159265358979,0.,0.,0.;                 81P    125
126,4,2,0,0,0,0,3.14159265358979,3.14159265358979,                    83P    126
3.14159265358979,4.71238898038469,4.71238898038469,                   83P    127
6.28318530717959,6.28318530717959,6.28318530717959,1.,                83P    128
0.707106781186548,1.,0.707106781186548,1.,-25.75,                     83P    129
3.15346550780443D-15,0.,-25.75,-25.75,0.,-4.73019826170665D-15,       83P    130
-25.75,0.,25.75,-25.75,0.,25.75,-6.30693101560887D-15,0.,             83P    131
3.14159265358979,6.28318530717959,0.,0.,0.;                           83P    132
126,4,2,0,0,0,0,0.,0.,0.,1.5707963267949,1.5707963267949,             85P    133
3.14159265358979,3.14159265358979,3.14159265358979,1.,                85P    134
0.707106781186547,1.,0.707106781186548,1.,28.25,0.,0.,28.25,          85P    135
28.25,0.,1.72981360379564D-15,28.25,0.,-28.25,28.25,0.,-28.25,        85P    136
3.45962720759127D-15,0.,0.,3.14159265358979,0.,0.,0.;                 85P    137
126,4,2,0,0,0,0,3.14159265358979,3.14159265358979,                    87P    138
3.14159265358979,4.71238898038469,4.71238898038469,                   87P    139
6.28318530717959,6.28318530717959,6.28318530717959,1.,                87P    140
0.707106781186548,1.,0.707106781186548,1.,-28.25,                     87P    141
3.45962720759127D-15,0.,-28.25,-28.25,0.,-5.18944081138691D-15,       87P    142
-28.25,0.,28.25,-28.25,0.,28.25,-6.91925441518255D-15,0.,             87P    143
3.14159265358979,6.28318530717959,0.,0.,0.;                           87P    144
126,1,1,0,0,1,0,-1.37955278041819,-1.37955278041819,                  89P    145
1.06249814625347D-18,1.06249814625347D-18,1.,1.,-28.25,0.,            89P    146
-8.88178419700125D-15,-29.,0.,40.,-1.37955278041819,                  89P    147
1.06249814625347D-18,0.,0.,0.;                                        89P    148
128,1,8,1,2,0,1,0,0,1,0.18796992481203,0.18796992481203,              91P    149
1.69172932330827,1.69172932330827,-3.14159265358979,                  91P    150
-3.14159265358979,-3.14159265358979,-1.5707963267949,                 91P    151
-1.5707963267949,0.,0.,1.5707963267949,1.5707963267949,               91P    152
3.14159265358979,3.14159265358979,3.14159265358979,1.,1.,             91P    153
0.707106781186548,0.707106781186548,1.,1.,0.707106781186548,          91P    154
0.707106781186548,1.,1.,0.707106781186548,0.707106781186548,1.,       91P    155
1.,0.707106781186548,0.707106781186548,1.,1.,-26.6,0.,85.,-26.6,      91P    156
0.,45.,-26.6,-26.6,85.,-26.6,-26.6,45.,0.,-26.6,85.,0.,-26.6,         91P    157
45.,26.6,-26.6,85.,26.6,-26.6,45.,26.6,0.,85.,26.6,0.,45.,26.6,       91P    158
26.6,85.,26.6,26.6,45.,0.,26.6,85.,0.,26.6,45.,-26.6,26.6,85.,        91P    159
-26.6,26.6,45.,-26.6,0.,85.,-26.6,0.,45.,0.18796992481203,            91P    160
1.69172932330827,-3.14159265358979,3.14159265358979;                  91P    161
128,1,8,1,2,0,1,0,0,1,0.,0.,1.86721991701245,1.86721991701245,        93P    162
-3.14159265358979,-3.14159265358979,-3.14159265358979,                93P    163
-1.5707963267949,-1.5707963267949,0.,0.,1.5707963267949,              93P    164
1.5707963267949,3.14159265358979,3.14159265358979,                    93P    165
3.14159265358979,1.,1.,0.707106781186548,0.707106781186548,1.,        93P    166
1.,0.707106781186548,0.707106781186548,1.,1.,0.707106781186548,       93P    167
0.707106781186548,1.,1.,0.707106781186548,0.707106781186548,1.,       93P    168
1.,-24.1,0.,40.,-24.1,0.,85.,-24.1,-24.1,40.,-24.1,-24.1,85.,0.,      93P    169
-24.1,40.,0.,-24.1,85.,24.1,-24.1,40.,24.1,-24.1,85.,24.1,0.,         93P    170
40.,24.1,0.,85.,24.1,24.1,40.,24.1,24.1,85.,0.,24.1,40.,0.,24.1,      93P    171
85.,-24.1,24.1,40.,-24.1,24.1,85.,-24.1,0.,40.,-24.1,0.,85.,0.,       93P    172
1.86721991701245,-3.14159265358979,3.14159265358979;                  93P    173
128,1,1,1,1,0,0,1,0,0,-2.661,-2.661,2.661,2.661,-2.661,-2.661,        95P    174
2.661,2.661,1.,1.,1.,1.,-26.61,-26.61,85.,26.61,-26.61,85.,           95P    175
-26.61,26.61,85.,26.61,26.61,85.,-2.661,2.661,-2.661,2.661;           95P    176
128,1,1,1,1,0,0,1,0,0,-2.661,-2.661,2.661,2.661,-2.661,-2.661,        97P    177
2.661,2.661,1.,1.,1.,1.,26.61,-26.61,40.,-26.61,-26.61,40.,           97P    178
26.61,26.61,40.,-26.61,26.61,40.,-2.661,2.661,-2.661,2.661;           97P    179
128,1,1,1,1,0,0,1,0,0,-3.201,-3.201,3.201,3.201,-3.201,-3.201,        99P    180
3.201,3.201,1.,1.,1.,1.,32.01,-32.01,40.,-32.01,-32.01,40.,           99P    181
32.01,32.01,40.,-32.01,32.01,40.,-3.201,3.201,-3.201,3.201;           99P    182
128,1,8,1,2,0,1,0,0,1,0.,0.,0.15625,0.15625,-3.14159265358979,       101P    183
-3.14159265358979,-3.14159265358979,-1.5707963267949,                101P    184
-1.5707963267949,0.,0.,1.5707963267949,1.5707963267949,              101P    185
3.14159265358979,3.14159265358979,3.14159265358979,1.,1.,            101P    186
0.707106781186548,0.707106781186548,1.,1.,0.707106781186548,         101P    187
0.707106781186548,1.,1.,0.707106781186548,0.707106781186548,1.,      101P    188
1.,0.707106781186548,0.707106781186548,1.,1.,-32.,0.,45.,-32.,       101P    189
0.,40.,-32.,-32.,45.,-32.,-32.,40.,0.,-32.,45.,0.,-32.,40.,32.,      101P    190
-32.,45.,32.,-32.,40.,32.,0.,45.,32.,0.,40.,32.,32.,45.,32.,32.,     101P    191
40.,0.,32.,45.,0.,32.,40.,-32.,32.,45.,-32.,32.,40.,-32.,0.,45.,     101P    192
-32.,0.,40.,0.,0.15625,-3.14159265358979,3.14159265358979;           101P    193
128,1,1,1,1,0,0,1,0,0,-3.201,-3.201,3.201,3.201,-3.201,-3.201,       103P    194
3.201,3.201,1.,1.,1.,1.,-32.01,-32.01,45.,32.01,-32.01,45.,          103P    195
-32.01,32.01,45.,32.01,32.01,45.,-3.201,3.201,-3.201,3.201;          103P    196
128,1,8,1,2,0,1,0,0,1,0.,0.,1.50409888085288,1.50409888085288,       105P    197
-3.14159265358979,-3.14159265358979,-3.14159265358979,               105P    198
-1.5707963267949,-1.5707963267949,0.,0.,1.5707963267949,             105P    199
1.5707963267949,3.14159265358979,3.14159265358979,                   105P    200
3.14159265358979,1.,1.,0.707106781186548,0.707106781186548,1.,       105P    201
1.,0.707106781186548,0.707106781186548,1.,1.,0.707106781186548,      105P    202
0.707106781186548,1.,1.,0.707106781186548,0.707106781186548,1.,      105P    203
1.,-26.6,0.,40.,-25.75,0.,0.,-26.6,26.6,40.,-25.75,25.75,0.,0.,      105P    204
26.6,40.,0.,25.75,0.,26.6,26.6,40.,25.75,25.75,0.,26.6,0.,40.,       105P    205
25.75,0.,0.,26.6,-26.6,40.,25.75,-25.75,0.,0.,-26.6,40.,0.,          105P    206
-25.75,0.,-26.6,-26.6,40.,-25.75,-25.75,0.,-26.6,0.,40.,-25.75,      105P    207
0.,0.,0.,1.50409888085288,-3.14159265358979,3.14159265358979;        105P    208
128,1,1,1,1,0,0,1,0,0,-2.826,-2.826,2.826,2.826,-2.826,-2.826,       107P    209
2.826,2.826,1.,1.,1.,1.,28.26,-28.26,0.,-28.26,-28.26,0.,28.26,      107P    210
28.26,0.,-28.26,28.26,0.,-2.826,2.826,-2.826,2.826;                  107P    211
128,1,8,1,2,0,1,0,0,1,-1.06249814625347D-18,                         109P    212
-1.06249814625347D-18,1.37955278041819,1.37955278041819,             109P    213
-3.14159265358979,-3.14159265358979,-3.14159265358979,               109P    214
-1.5707963267949,-1.5707963267949,0.,0.,1.5707963267949,             109P    215
1.5707963267949,3.14159265358979,3.14159265358979,                   109P    216
3.14159265358979,1.,1.,0.707106781186548,0.707106781186548,1.,       109P    217
1.,0.707106781186548,0.707106781186548,1.,1.,0.707106781186548,      109P    218
0.707106781186548,1.,1.,0.707106781186548,0.707106781186548,1.,      109P    219
1.,-28.25,0.,-8.88178419700125D-15,-29.,0.,40.,-28.25,28.25,         109P    220
-8.88178419700125D-15,-29.,29.,40.,0.,28.25,                         109P    221
-8.88178419700125D-15,0.,29.,40.,28.25,28.25,                        109P    222
-8.88178419700125D-15,29.,29.,40.,28.25,0.,                          109P    223
-8.88178419700125D-15,29.,0.,40.,28.25,-28.25,                       109P    224
-8.88178419700125D-15,29.,-29.,40.,0.,-28.25,                        109P    225
-8.88178419700125D-15,0.,-29.,40.,-28.25,-28.25,                     109P    226
-8.88178419700125D-15,-29.,-29.,40.,-28.25,0.,                       109P    227
-8.88178419700125D-15,-29.,0.,40.,-1.06249814625347D-18,             109P    228
1.37955278041819,-3.14159265358979,3.14159265358979;                 109P    229
502,13,-26.6,-3.25756048573196D-15,85.,-26.6,                        111P    230
-3.25756048573196D-15,45.,-24.1,-2.95139878594512D-15,85.,-24.1,     111P    231
-2.95139878594512D-15,40.,-26.6,-3.25756048573196D-15,40.,-32.,      111P    232
-3.91886975727153D-15,40.,29.,0.,40.,-29.,0.,40.,-32.,               111P    233
-3.91886975727153D-15,45.,-25.75,0.,0.,25.75,0.,0.,28.25,0.,0.,      111P    234
-28.25,0.,-8.88178419700125D-15;                                     111P    235
504,18,55,111,1,111,1,57,111,1,111,2,59,111,2,111,2,61,111,3,        113P    236
111,3,63,111,3,111,4,65,111,4,111,4,67,111,5,111,5,69,111,6,111,     113P    237
6,71,111,7,111,8,73,111,8,111,7,75,111,9,111,9,77,111,9,111,6,       113P    238
79,111,5,111,10,81,111,11,111,10,83,111,10,111,11,85,111,12,111,     113P    239
13,87,111,13,111,12,89,111,13,111,8;                                 113P    240
406,1,5HBody1;                                                       115P    241
314,62.7450980392157,62.7450980392157,62.7450980392157,13HSteel      117P    242
- Satin;                                                             117P    243
S      1G      3D    118P    243                                        T      1
