                                                                        S      1
,,16HSpike Norbert v3,16HSpike Norbert v3,7Hunknown,7Hunknown,32,38,7,  G      1
99,15,,1.,2,2HMM,1,0.08,15H20220922.115657,0.01,10000.,7Hunknown,7HunknoG      2
wn,11,0,15H20220914.092831;                                             G      3
     186       1                                                00000000D      1
     186             -57       1       0                               0D      2
     514       2                                                00010000D      3
     514                       1       1                               0D      4
     510       3                                                00010000D      5
     510             -57       1       1                               0D      6
     510       4                                                00010000D      7
     510             -57       1       1                               0D      8
     510       5                                                00010000D      9
     510             -57       1       1                               0D     10
     510       6                                                00010000D     11
     510             -57       1       1                               0D     12
     510       7                                                00010000D     13
     510             -57       1       1                               0D     14
     508       8                                                00010000D     15
     508                       1       1                               0D     16
     508       9                                                00010000D     17
     508                       1       1                               0D     18
     508      10                                                00010000D     19
     508                       1       1                               0D     20
     508      11                                                00010000D     21
     508                       1       1                               0D     22
     508      12                                                00010000D     23
     508                       1       1                               0D     24
     508      13                                                00010000D     25
     508                       1       1                               0D     26
     126      14                                                00010000D     27
     126       0               5       0                               0D     28
     126      19                                                00010000D     29
     126       0               7       0                               0D     30
     126      26                                                00010000D     31
     126       0               9       0                               0D     32
     126      35                                                00010000D     33
     126       0               9       0                               0D     34
     126      44                                                00010000D     35
     126       0               3       0                               0D     36
     126      47                                                00010000D     37
     126       0               2       0                               0D     38
     126      49                                                00010000D     39
     126       0               9       0                               0D     40
     128      58                                                00010000D     41
     128       0     -57       3       0                               0D     42
     128      61                                                00010000D     43
     128       0     -57       3       0                               0D     44
     128      64                                                00010000D     45
     128       0     -57      13       0                               0D     46
     128      77                                                00010000D     47
     128       0     -57      11       0                               0D     48
     128      88                                                00010000D     49
     128       0     -57       3       0                               0D     50
     502      91                                                00010000D     51
     502                       2       1                               0D     52
     504      93                                                00010001D     53
     504                       2       1                               0D     54
     406      95                                                00000000D     55
     406                       1      15                               0D     56
     314      96                                                00000200D     57
     314                       2       0                               0D     58
     314      98                                                00000200D     59
     314                       2       0                               0D     60
186,3,1,0,0,1,55;                                                      1P      1
514,5,5,1,7,1,9,1,11,1,13,1;                                           3P      2
510,41,2,1,15,17;                                                      5P      3
510,43,1,1,19;                                                         7P      4
510,45,1,1,21;                                                         9P      5
510,47,1,1,23;                                                        11P      6
510,49,1,1,25;                                                        13P      7
508,2,0,53,1,0,0,0,53,2,0,0;                                          15P      8
508,1,0,53,3,1,0;                                                     17P      9
508,1,0,53,4,0,0;                                                     19P     10
508,5,0,53,4,1,0,0,53,5,1,0,0,53,2,1,0,0,53,1,1,0,0,53,5,0,0;         21P     11
508,4,0,53,3,0,0,0,53,6,1,0,0,53,7,1,0,0,53,6,0,0;                    23P     12
508,1,0,53,7,0,0;                                                     25P     13
126,4,2,0,0,0,0,0.,0.,0.,1.5707963267949,1.5707963267949,             27P     14
3.14159265358979,3.14159265358979,3.14159265358979,1.,                27P     15
0.707106781186548,1.,0.707106781186548,1.,-4.,0.,5.,-4.,-4.,5.,       27P     16
-2.44929359829471D-16,-4.,5.,4.,-4.,5.,4.,-4.89858719658941D-16,      27P     17
5.,0.,3.14159265358979,0.,0.,0.;                                      27P     18
126,4,2,0,0,0,0,3.14159265358979,3.14159265358979,                    29P     19
3.14159265358979,4.71238898038469,4.71238898038469,                   29P     20
6.28318530717959,6.28318530717959,6.28318530717959,1.,                29P     21
0.707106781186548,1.,0.707106781186548,1.,4.,                         29P     22
-4.89858719658941D-16,5.,4.,4.,5.,7.34788079488412D-16,4.,5.,         29P     23
-4.,4.,5.,-4.,9.79717439317883D-16,5.,3.14159265358979,               29P     24
6.28318530717959,0.,0.,0.;                                            29P     25
126,8,2,0,1,0,0,-3.14159265358979,-3.14159265358979,                  31P     26
-3.14159265358979,-1.5707963267949,-1.5707963267949,0.,0.,            31P     27
1.5707963267949,1.5707963267949,3.14159265358979,                     31P     28
3.14159265358979,3.14159265358979,1.,0.707106781186548,1.,            31P     29
0.707106781186548,1.,0.707106781186548,1.,0.707106781186548,1.,       31P     30
-2.,-2.44929359829471D-16,5.,-2.,-2.,5.,1.22464679914735D-16,         31P     31
-2.,5.,2.,-2.,5.,2.,0.,5.,2.,2.,5.,1.22464679914735D-16,2.,5.,        31P     32
-2.,2.,5.,-2.,2.44929359829471D-16,5.,-3.14159265358979,              31P     33
3.14159265358979,0.,0.,0.;                                            31P     34
126,8,2,0,1,0,0,0.,0.,0.,1.5707963267949,1.5707963267949,             33P     35
3.14159265358979,3.14159265358979,4.71238898038469,                   33P     36
4.71238898038469,6.28318530717959,6.28318530717959,                   33P     37
6.28318530717959,1.,0.707106781186548,1.,0.707106781186548,1.,        33P     38
0.707106781186548,1.,0.707106781186548,1.,1.,0.,15.,1.,-1.,15.,       33P     39
6.12323399573677D-17,-1.,15.,-1.,-1.,15.,-1.,                         33P     40
-1.22464679914735D-16,15.,-1.,1.,15.,-1.83697019872103D-16,1.,        33P     41
15.,1.,1.,15.,1.,2.44929359829471D-16,15.,0.,6.28318530717959,        33P     42
0.,0.,0.;                                                             33P     43
126,1,1,0,0,1,0,-2.61007662722764,-2.61007662722764,                  35P     44
1.96955968900245D-33,1.96955968900245D-33,1.,1.,1.,0.,15.,4.,0.,      35P     45
5.,-2.61007662722764,1.96955968900245D-33,0.,0.,0.;                   35P     46
126,1,1,0,0,1,0,-2.5,-2.5,0.,0.,1.,1.,-2.,0.,5.,-2.,0.,0.,-2.5,       37P     47
0.,0.,0.,0.;                                                          37P     48
126,8,2,0,1,0,0,-3.14159265358979,-3.14159265358979,                  39P     49
-3.14159265358979,-1.5707963267949,-1.5707963267949,0.,0.,            39P     50
1.5707963267949,1.5707963267949,3.14159265358979,                     39P     51
3.14159265358979,3.14159265358979,1.,0.707106781186548,1.,            39P     52
0.707106781186548,1.,0.707106781186548,1.,0.707106781186548,1.,       39P     53
-2.,-2.44929359829471D-16,0.,-2.,-2.,0.,1.22464679914735D-16,         39P     54
-2.,0.,2.,-2.,0.,2.,0.,0.,2.,2.,0.,1.22464679914735D-16,2.,0.,        39P     55
-2.,2.,0.,-2.,2.44929359829471D-16,0.,-3.14159265358979,              39P     56
3.14159265358979,0.,0.,0.;                                            39P     57
128,1,1,1,1,0,0,1,0,0,-0.401,-0.401,0.401,0.401,-0.401,-0.401,        41P     58
0.401,0.401,1.,1.,1.,1.,4.01,-4.01,5.,-4.01,-4.01,5.,4.01,4.01,       41P     59
5.,-4.01,4.01,5.,-0.401,0.401,-0.401,0.401;                           41P     60
128,1,1,1,1,0,0,1,0,0,-0.101,-0.101,0.101,0.101,-0.101,-0.101,        43P     61
0.101,0.101,1.,1.,1.,1.,-1.01,-1.01,15.,1.01,-1.01,15.,-1.01,         43P     62
1.01,15.,1.01,1.01,15.,-0.101,0.101,-0.101,0.101;                     43P     63
128,1,8,1,2,0,1,0,0,1,-1.96955968900245D-33,                          45P     64
-1.96955968900245D-33,2.61007662722764,2.61007662722764,              45P     65
-3.14159265358979,-3.14159265358979,-3.14159265358979,                45P     66
-1.5707963267949,-1.5707963267949,0.,0.,1.5707963267949,              45P     67
1.5707963267949,3.14159265358979,3.14159265358979,                    45P     68
3.14159265358979,1.,1.,0.707106781186548,0.707106781186548,1.,        45P     69
1.,0.707106781186548,0.707106781186548,1.,1.,0.707106781186548,       45P     70
0.707106781186548,1.,1.,0.707106781186548,0.707106781186548,1.,       45P     71
1.,1.,0.,15.,4.,0.,5.,1.,1.,15.,4.,4.,5.,0.,1.,15.,0.,4.,5.,-1.,      45P     72
1.,15.,-4.,4.,5.,-1.,0.,15.,-4.,0.,5.,-1.,-1.,15.,-4.,-4.,5.,0.,      45P     73
-1.,15.,0.,-4.,5.,1.,-1.,15.,4.,-4.,5.,1.,0.,15.,4.,0.,5.,            45P     74
-1.96955968900245D-33,2.61007662722764,-3.14159265358979,             45P     75
3.14159265358979;                                                     45P     76
128,1,8,1,2,0,1,0,0,1,0.,0.,2.5,2.5,-3.14159265358979,                47P     77
-3.14159265358979,-3.14159265358979,-1.5707963267949,                 47P     78
-1.5707963267949,0.,0.,1.5707963267949,1.5707963267949,               47P     79
3.14159265358979,3.14159265358979,3.14159265358979,1.,1.,             47P     80
0.707106781186548,0.707106781186548,1.,1.,0.707106781186548,          47P     81
0.707106781186548,1.,1.,0.707106781186548,0.707106781186548,1.,       47P     82
1.,0.707106781186548,0.707106781186548,1.,1.,-2.,0.,5.,-2.,0.,        47P     83
0.,-2.,-2.,5.,-2.,-2.,0.,0.,-2.,5.,0.,-2.,0.,2.,-2.,5.,2.,-2.,        47P     84
0.,2.,0.,5.,2.,0.,0.,2.,2.,5.,2.,2.,0.,0.,2.,5.,0.,2.,0.,-2.,2.,      47P     85
5.,-2.,2.,0.,-2.,0.,5.,-2.,0.,0.,0.,2.5,-3.14159265358979,            47P     86
3.14159265358979;                                                     47P     87
128,1,1,1,1,0,0,1,0,0,-0.201,-0.201,0.201,0.201,-0.201,-0.201,        49P     88
0.201,0.201,1.,1.,1.,1.,2.01,-2.01,0.,-2.01,-2.01,0.,2.01,2.01,       49P     89
0.,-2.01,2.01,0.,-0.201,0.201,-0.201,0.201;                           49P     90
502,5,-4.,0.,5.,4.,0.,5.,-2.,-2.44929359829471D-16,5.,1.,0.,15.,      51P     91
-2.,-2.44929359829471D-16,0.;                                         51P     92
504,7,27,51,1,51,2,29,51,2,51,1,31,51,3,51,3,33,51,4,51,4,35,51,      53P     93
4,51,2,37,51,3,51,5,39,51,5,51,5;                                     53P     94
406,1,5HBody4;                                                        55P     95
314,18.8235294117647,23.1372549019608,58.8235294117647,22HPlasti      57P     96
c - Matte (Blue);                                                     57P     97
314,9.80392156862745,9.80392156862745,9.80392156862745,24HPlasti      59P     98
c - Glossy (Black);                                                   59P     99
S      1G      3D     60P     99                                        T      1
