                                                                        S      1
,,22HOutside Cover Plate v5,22HOutside Cover Plate v5,7Hunknown,7HunknowG      1
n,32,38,7,99,15,,1.,2,2HMM,1,0.08,15H20220922.115141,0.01,10000.,7HunknoG      2
wn,7Hunknown,11,0,15H20200519.135704;                                   G      3
     186       1                                                00000000D      1
     186            -103       1       0                               0D      2
     514       2                                                00010000D      3
     514                       1       1                               0D      4
     510       3                                                00010000D      5
     510            -103       1       1                               0D      6
     510       4                                                00010000D      7
     510            -103       1       1                               0D      8
     510       5                                                00010000D      9
     510            -103       1       1                               0D     10
     510       6                                                00010000D     11
     510            -103       1       1                               0D     12
     510       7                                                00010000D     13
     510            -103       1       1                               0D     14
     510       8                                                00010000D     15
     510            -103       1       1                               0D     16
     510       9                                                00010000D     17
     510            -103       1       1                               0D     18
     510      10                                                00010000D     19
     510            -103       1       1                               0D     20
     508      11                                                00010000D     21
     508                       1       1                               0D     22
     508      12                                                00010000D     23
     508                       1       1                               0D     24
     508      13                                                00010000D     25
     508                       1       1                               0D     26
     508      14                                                00010000D     27
     508                       1       1                               0D     28
     508      15                                                00010000D     29
     508                       1       1                               0D     30
     508      16                                                00010000D     31
     508                       1       1                               0D     32
     508      17                                                00010000D     33
     508                       1       1                               0D     34
     508      18                                                00010000D     35
     508                       1       1                               0D     36
     508      19                                                00010000D     37
     508                       1       1                               0D     38
     508      20                                                00010000D     39
     508                       1       1                               0D     40
     508      21                                                00010000D     41
     508                       1       1                               0D     42
     508      22                                                00010000D     43
     508                       1       1                               0D     44
     126      23                                                00010000D     45
     126       0               8       0                               0D     46
     126      31                                                00010000D     47
     126       0               2       0                               0D     48
     126      33                                                00010000D     49
     126       0               8       0                               0D     50
     126      41                                                00010000D     51
     126       0               9       0                               0D     52
     126      50                                                00010000D     53
     126       0               2       0                               0D     54
     126      52                                                00010000D     55
     126       0               9       0                               0D     56
     126      61                                                00010000D     57
     126       0               2       0                               0D     58
     126      63                                                00010000D     59
     126       0               2       0                               0D     60
     126      65                                                00010000D     61
     126       0               2       0                               0D     62
     126      67                                                00010000D     63
     126       0               2       0                               0D     64
     126      69                                                00010000D     65
     126       0               2       0                               0D     66
     126      71                                                00010000D     67
     126       0               2       0                               0D     68
     126      73                                                00010000D     69
     126       0               2       0                               0D     70
     126      75                                                00010000D     71
     126       0               2       0                               0D     72
     126      77                                                00010000D     73
     126       0               2       0                               0D     74
     126      79                                                00010000D     75
     126       0               2       0                               0D     76
     126      81                                                00010000D     77
     126       0               2       0                               0D     78
     126      83                                                00010000D     79
     126       0               2       0                               0D     80
     128      85                                                00010000D     81
     128       0    -103      12       0                               0D     82
     128      97                                                00010000D     83
     128       0    -103      14       0                               0D     84
     128     111                                                00010000D     85
     128       0    -103       4       0                               0D     86
     128     115                                                00010000D     87
     128       0    -103       3       0                               0D     88
     128     118                                                00010000D     89
     128       0    -103       3       0                               0D     90
     128     121                                                00010000D     91
     128       0    -103       4       0                               0D     92
     128     125                                                00010000D     93
     128       0    -103       4       0                               0D     94
     128     129                                                00010000D     95
     128       0    -103       4       0                               0D     96
     502     133                                                00010000D     97
     502                       3       1                               0D     98
     504     136                                                00010001D     99
     504                       4       1                               0D    100
     406     140                                                00000000D    101
     406                       1      15                               0D    102
     314     141                                                00000200D    103
     314                       2       0                               0D    104
186,3,1,0,0,1,101;                                                     1P      1
514,8,5,1,7,1,9,1,11,1,13,1,15,1,17,1,19,1;                            3P      2
510,81,1,1,21;                                                         5P      3
510,83,1,1,23;                                                         7P      4
510,85,1,1,25;                                                         9P      5
510,87,1,1,27;                                                        11P      6
510,89,1,1,29;                                                        13P      7
510,91,1,1,31;                                                        15P      8
510,93,3,1,33,35,37;                                                  17P      9
510,95,3,1,39,41,43;                                                  19P     10
508,4,0,99,1,0,0,0,99,2,1,0,0,99,3,1,0,0,99,2,0,0;                    21P     11
508,4,0,99,4,0,0,0,99,5,1,0,0,99,6,1,0,0,99,5,0,0;                    23P     12
508,4,0,99,7,1,0,0,99,8,1,0,0,99,9,0,0,0,99,10,0,0;                   25P     13
508,4,0,99,11,1,0,0,99,10,1,0,0,99,12,0,0,0,99,13,0,0;                27P     14
508,4,0,99,14,1,0,0,99,13,1,0,0,99,15,0,0,0,99,16,0,0;                29P     15
508,4,0,99,17,1,0,0,99,16,1,0,0,99,18,0,0,0,99,8,0,0;                 31P     16
508,4,0,99,18,1,0,0,99,15,1,0,0,99,12,1,0,0,99,9,1,0;                 33P     17
508,1,0,99,4,1,0;                                                     35P     18
508,1,0,99,1,1,0;                                                     37P     19
508,4,0,99,17,0,0,0,99,7,0,0,0,99,11,0,0,0,99,14,0,0;                 39P     20
508,1,0,99,6,0,0;                                                     41P     21
508,1,0,99,3,0,0;                                                     43P     22
126,8,2,0,1,0,0,-3.14159265358979,-3.14159265358979,                  45P     23
-3.14159265358979,-1.5707963267949,-1.5707963267949,0.,0.,            45P     24
1.5707963267949,1.5707963267949,3.14159265358979,                     45P     25
3.14159265358979,3.14159265358979,1.,0.707106781186555,1.,            45P     26
0.707106781186564,1.,0.707106781186564,1.,0.707106781186555,1.,       45P     27
38.5,68.5,2.5,38.5,70.,2.5,40.,70.,2.5,41.5,70.,2.5,41.5,68.5,        45P     28
2.5,41.5,67.,2.5,40.,67.,2.5,38.5,67.,2.5,38.5,68.5,2.5,              45P     29
-3.14159265358979,3.14159265358979,0.,0.,0.;                          45P     30
126,1,1,0,0,1,0,-1.66666666666666,-1.66666666666666,0.,0.,1.,1.,      47P     31
38.5,68.5,2.5,38.5,68.5,0.,-1.66666666666666,0.,0.,0.,0.;             47P     32
126,8,2,0,1,0,0,-3.14159265358979,-3.14159265358979,                  49P     33
-3.14159265358979,-1.5707963267949,-1.5707963267949,0.,0.,            49P     34
1.5707963267949,1.5707963267949,3.14159265358979,                     49P     35
3.14159265358979,3.14159265358979,1.,0.707106781186555,1.,            49P     36
0.707106781186564,1.,0.707106781186564,1.,0.707106781186555,1.,       49P     37
38.5,68.5,0.,38.5,70.,0.,40.,70.,0.,41.5,70.,0.,41.5,68.5,0.,         49P     38
41.5,67.,0.,40.,67.,0.,38.5,67.,0.,38.5,68.5,0.,                      49P     39
-3.14159265358979,3.14159265358979,0.,0.,0.;                          49P     40
126,8,2,0,1,0,0,-3.14159265358979,-3.14159265358979,                  51P     41
-3.14159265358979,-1.5707963267949,-1.5707963267949,0.,0.,            51P     42
1.5707963267949,1.5707963267949,3.14159265358979,                     51P     43
3.14159265358979,3.14159265358979,1.,0.707106781186547,1.,            51P     44
0.707106781186555,1.,0.707106781186555,1.,0.707106781186547,1.,       51P     45
38.5,11.5,2.5,38.5,13.,2.5,40.,13.,2.5,41.5,13.,2.5,41.5,11.5,        51P     46
2.5,41.5,9.99999999999999,2.5,40.,9.99999999999999,2.5,38.5,          51P     47
9.99999999999999,2.5,38.5,11.5,2.5,-3.14159265358979,                 51P     48
3.14159265358979,0.,0.,0.;                                            51P     49
126,1,1,0,0,1,0,-1.66666666666666,-1.66666666666666,0.,0.,1.,1.,      53P     50
38.5,11.5,2.5,38.5,11.5,0.,-1.66666666666666,0.,0.,0.,0.;             53P     51
126,8,2,0,1,0,0,-3.14159265358979,-3.14159265358979,                  55P     52
-3.14159265358979,-1.5707963267949,-1.5707963267949,0.,0.,            55P     53
1.5707963267949,1.5707963267949,3.14159265358979,                     55P     54
3.14159265358979,3.14159265358979,1.,0.707106781186547,1.,            55P     55
0.707106781186555,1.,0.707106781186555,1.,0.707106781186547,1.,       55P     56
38.5,11.5,0.,38.5,13.,0.,40.,13.,0.,41.5,13.,0.,41.5,11.5,0.,         55P     57
41.5,9.99999999999999,0.,40.,9.99999999999999,0.,38.5,                55P     58
9.99999999999999,0.,38.5,11.5,0.,-3.14159265358979,                   55P     59
3.14159265358979,0.,0.,0.;                                            55P     60
126,1,1,0,0,1,0,0.,0.,8.,8.,1.,1.,80.,80.,0.,0.,80.,0.,0.,8.,0.,      57P     61
0.,0.;                                                                57P     62
126,1,1,0,0,1,0,0.,0.,0.25,0.25,1.,1.,0.,80.,0.,0.,80.,2.5,0.,        59P     63
0.25,0.,0.,0.;                                                        59P     64
126,1,1,0,0,1,0,0.,0.,8.,8.,1.,1.,80.,80.,2.5,0.,80.,2.5,0.,8.,       61P     65
0.,0.,0.;                                                             61P     66
126,1,1,0,0,1,0,0.,0.,0.25,0.25,1.,1.,80.,80.,0.,80.,80.,2.5,0.,      63P     67
0.25,0.,0.,0.;                                                        63P     68
126,1,1,0,0,1,0,0.,0.,8.,8.,1.,1.,80.,0.,0.,80.,80.,0.,0.,8.,0.,      65P     69
0.,0.;                                                                65P     70
126,1,1,0,0,1,0,0.,0.,8.,8.,1.,1.,80.,0.,2.5,80.,80.,2.5,0.,8.,       67P     71
0.,0.,0.;                                                             67P     72
126,1,1,0,0,1,0,0.,0.,0.25,0.25,1.,1.,80.,0.,0.,80.,0.,2.5,0.,        69P     73
0.25,0.,0.,0.;                                                        69P     74
126,1,1,0,0,1,0,0.,0.,8.,8.,1.,1.,0.,0.,0.,80.,0.,0.,0.,8.,0.,        71P     75
0.,0.;                                                                71P     76
126,1,1,0,0,1,0,0.,0.,8.,8.,1.,1.,0.,0.,2.5,80.,0.,2.5,0.,8.,0.,      73P     77
0.,0.;                                                                73P     78
126,1,1,0,0,1,0,0.,0.,0.25,0.25,1.,1.,0.,0.,0.,0.,0.,2.5,0.,          75P     79
0.25,0.,0.,0.;                                                        75P     80
126,1,1,0,0,1,0,0.,0.,8.,8.,1.,1.,0.,80.,0.,0.,0.,0.,0.,8.,0.,        77P     81
0.,0.;                                                                77P     82
126,1,1,0,0,1,0,0.,0.,8.,8.,1.,1.,0.,80.,2.5,0.,0.,2.5,0.,8.,0.,      79P     83
0.,0.;                                                                79P     84
128,1,8,1,2,0,1,0,0,1,0.,0.,1.66666666666666,1.66666666666666,        81P     85
-3.14159265358979,-3.14159265358979,-3.14159265358979,                81P     86
-1.5707963267949,-1.5707963267949,0.,0.,1.5707963267949,              81P     87
1.5707963267949,3.14159265358979,3.14159265358979,                    81P     88
3.14159265358979,1.,1.,0.707106781186548,0.707106781186548,1.,        81P     89
1.,0.707106781186548,0.707106781186548,1.,1.,0.707106781186548,       81P     90
0.707106781186548,1.,1.,0.707106781186548,0.707106781186548,1.,       81P     91
1.,38.5,68.5,0.,38.5,68.5,2.5,38.5,67.,0.,38.5,67.,2.5,40.,67.,       81P     92
0.,40.,67.,2.5,41.5,67.,0.,41.5,67.,2.5,41.5,68.5,0.,41.5,68.5,       81P     93
2.5,41.5,70.,0.,41.5,70.,2.5,40.,70.,0.,40.,70.,2.5,38.5,70.,0.,      81P     94
38.5,70.,2.5,38.5,68.5,0.,38.5,68.5,2.5,0.,1.66666666666666,          81P     95
-3.14159265358979,3.14159265358979;                                   81P     96
128,1,8,1,2,0,1,0,0,1,0.,0.,1.66666666666666,1.66666666666666,        83P     97
-3.14159265358979,-3.14159265358979,-3.14159265358979,                83P     98
-1.5707963267949,-1.5707963267949,0.,0.,1.5707963267949,              83P     99
1.5707963267949,3.14159265358979,3.14159265358979,                    83P    100
3.14159265358979,1.,1.,0.707106781186548,0.707106781186548,1.,        83P    101
1.,0.707106781186548,0.707106781186548,1.,1.,0.707106781186548,       83P    102
0.707106781186548,1.,1.,0.707106781186548,0.707106781186548,1.,       83P    103
1.,38.5,11.5,0.,38.5,11.5,2.5,38.5,9.99999999999999,0.,38.5,          83P    104
9.99999999999999,2.5,40.,9.99999999999999,0.,40.,                     83P    105
9.99999999999999,2.5,41.5,9.99999999999999,0.,41.5,                   83P    106
9.99999999999999,2.5,41.5,11.5,0.,41.5,11.5,2.5,41.5,13.,0.,          83P    107
41.5,13.,2.5,40.,13.,0.,40.,13.,2.5,38.5,13.,0.,38.5,13.,2.5,         83P    108
38.5,11.5,0.,38.5,11.5,2.5,0.,1.66666666666666,                       83P    109
-3.14159265358979,3.14159265358979;                                   83P    110
128,1,1,1,1,0,0,1,0,0,-0.001,-0.001,8.001,8.001,-0.001,-0.001,        85P    111
0.251,0.251,1.,1.,1.,1.,80.01,80.,-0.01,-0.0100000000000033,80.,      85P    112
-0.01,80.01,80.,2.51,-0.0100000000000033,80.,2.51,-0.001,8.001,       85P    113
-0.001,0.251;                                                         85P    114
128,1,1,1,1,0,0,1,0,0,-0.001,-0.001,8.001,8.001,-0.001,-0.001,        87P    115
0.251,0.251,1.,1.,1.,1.,80.,-0.01,-0.01,80.,80.01,-0.01,80.,          87P    116
-0.01,2.51,80.,80.01,2.51,-0.001,8.001,-0.001,0.251;                  87P    117
128,1,1,1,1,0,0,1,0,0,-0.001,-0.001,8.001,8.001,-0.001,-0.001,        89P    118
0.251,0.251,1.,1.,1.,1.,-0.01,0.,-0.01,80.01,0.,-0.01,-0.01,0.,       89P    119
2.51,80.01,0.,2.51,-0.001,8.001,-0.001,0.251;                         89P    120
128,1,1,1,1,0,0,1,0,0,-0.001,-0.001,8.001,8.001,-0.001,-0.001,        91P    121
0.251,0.251,1.,1.,1.,1.,0.,80.01,-0.01,0.,-0.00999999999999446,       91P    122
-0.01,0.,80.01,2.51,0.,-0.00999999999999446,2.51,-0.001,8.001,        91P    123
-0.001,0.251;                                                         91P    124
128,1,1,1,1,0,0,1,0,0,-4.001,-4.001,4.001,4.001,-4.001,-4.001,        93P    125
4.001,4.001,1.,1.,1.,1.,-0.0099999999999989,-0.0100000000000033,      93P    126
2.5,80.01,-0.0100000000000033,2.5,-0.0099999999999989,80.01,2.5,      93P    127
80.01,80.01,2.5,-4.001,4.001,-4.001,4.001;                            93P    128
128,1,1,1,1,0,0,1,0,0,-4.001,-4.001,4.001,4.001,-4.001,-4.001,        95P    129
4.001,4.001,1.,1.,1.,1.,80.01,-0.0100000000000033,0.,                 95P    130
-0.0099999999999989,-0.0100000000000033,0.,80.01,80.01,0.,            95P    131
-0.0099999999999989,80.01,0.,-4.001,4.001,-4.001,4.001;               95P    132
502,12,38.5,68.5,2.5,38.5,68.5,0.,38.5,11.5,2.5,38.5,11.5,0.,         97P    133
80.,80.,0.,0.,80.,0.,0.,80.,2.5,80.,80.,2.5,80.,0.,0.,80.,0.,         97P    134
2.5,0.,0.,0.,0.,0.,2.5;                                               97P    135
504,18,45,97,1,97,1,47,97,1,97,2,49,97,2,97,2,51,97,3,97,3,53,        99P    136
97,3,97,4,55,97,4,97,4,57,97,5,97,6,59,97,6,97,7,61,97,8,97,7,        99P    137
63,97,5,97,8,65,97,9,97,5,67,97,10,97,8,69,97,9,97,10,71,97,11,       99P    138
97,9,73,97,12,97,10,75,97,11,97,12,77,97,6,97,11,79,97,7,97,12;       99P    139
406,1,5HBody1;                                                       101P    140
314,62.7450980392157,62.7450980392157,62.7450980392157,13HSteel      103P    141
- Satin;                                                             103P    142
S      1G      3D    104P    142                                        T      1
