                                                                        S      1
,,8Hbalbu v3,8Hbalbu v3,7Hunknown,7Hunknown,32,38,7,99,15,,1.,2,2HMM,1, G      1
0.08,15H20220922.114844,0.01,10000.,7Hunknown,7Hunknown,11,0,15H20210914G      2
.070549;                                                                G      3
     186       1                                                00000000D      1
     186             -73       1       0                               0D      2
     514       2                                                00010000D      3
     514                       1       1                               0D      4
     510       3                                                00010000D      5
     510             -73       1       1                               0D      6
     510       4                                                00010000D      7
     510             -73       1       1                               0D      8
     510       5                                                00010000D      9
     510             -73       1       1                               0D     10
     510       6                                                00010000D     11
     510             -73       1       1                               0D     12
     510       7                                                00010000D     13
     510             -73       1       1                               0D     14
     510       8                                                00010000D     15
     510             -73       1       1                               0D     16
     508       9                                                00010000D     17
     508                       1       1                               0D     18
     508      10                                                00010000D     19
     508                       1       1                               0D     20
     508      11                                                00010000D     21
     508                       1       1                               0D     22
     508      12                                                00010000D     23
     508                       2       1                               0D     24
     508      14                                                00010000D     25
     508                       1       1                               0D     26
     508      15                                                00010000D     27
     508                       1       1                               0D     28
     508      16                                                00010000D     29
     508                       2       1                               0D     30
     126      18                                                00010000D     31
     126       0               5       0                               0D     32
     126      23                                                00010000D     33
     126       0               6       0                               0D     34
     126      29                                                00010000D     35
     126       0               8       0                               0D     36
     126      37                                                00010000D     37
     126       0               2       0                               0D     38
     126      39                                                00010000D     39
     126       0               5       0                               0D     40
     126      44                                                00010000D     41
     126       0               6       0                               0D     42
     126      50                                                00010000D     43
     126       0               5       0                               0D     44
     126      55                                                00010000D     45
     126       0               6       0                               0D     46
     126      61                                                00010000D     47
     126       0               4       0                               0D     48
     126      65                                                00010000D     49
     126       0               5       0                               0D     50
     126      70                                                00010000D     51
     126       0               6       0                               0D     52
     126      76                                                00010000D     53
     126       0               4       0                               0D     54
     128      80                                                00010000D     55
     128       0     -73       3       0                               0D     56
     128      83                                                00010000D     57
     128       0     -73      12       0                               0D     58
     128      95                                                00010000D     59
     128       0     -73       3       0                               0D     60
     128      98                                                00010000D     61
     128       0     -73      18       0                               0D     62
     128     116                                                00010000D     63
     128       0     -73       3       0                               0D     64
     128     119                                                00010000D     65
     128       0     -73      18       0                               0D     66
     502     137                                                00010000D     67
     502                       3       1                               0D     68
     504     140                                                00010001D     69
     504                       3       1                               0D     70
     406     143                                                00000000D     71
     406                       1      15                               0D     72
     314     144                                                00000200D     73
     314                       2       0                               0D     74
186,3,1,0,0,1,71;                                                      1P      1
514,6,5,1,7,1,9,1,11,1,13,1,15,1;                                      3P      2
510,55,1,1,17;                                                         5P      3
510,57,1,1,19;                                                         7P      4
510,59,1,1,21;                                                         9P      5
510,61,1,1,23;                                                        11P      6
510,63,2,1,25,27;                                                     13P      7
510,65,1,1,29;                                                        15P      8
508,2,0,69,1,1,0,0,69,2,1,0;                                          17P      9
508,5,0,69,3,0,0,0,69,4,1,0,0,69,5,0,0,0,69,6,0,0,0,69,4,0,0;         19P     10
508,1,0,69,3,1,0;                                                     21P     11
508,6,0,69,7,0,0,0,69,8,0,0,0,69,9,1,0,0,69,1,0,0,0,69,2,0,0,0,       23P     12
69,9,0,0;                                                             23P     13
508,2,0,69,10,0,0,0,69,11,0,0;                                        25P     14
508,2,0,69,7,1,0,0,69,8,1,0;                                          27P     15
508,6,0,69,5,1,0,0,69,12,1,0,0,69,11,1,0,0,69,10,1,0,0,69,12,0,       29P     16
0,0,69,6,1,0;                                                         29P     17
126,4,2,0,0,0,0,0.,0.,0.,1.5707963267949,1.5707963267949,             31P     18
3.14159265358979,3.14159265358979,3.14159265358979,1.,                31P     19
0.707106781186548,1.,0.707106781186548,1.,33.5,150.,0.,33.5,          31P     20
175.,0.,8.5,175.,0.,-16.5,175.,0.,-16.5,150.,0.,0.,                   31P     21
3.14159265358979,0.,0.,0.;                                            31P     22
126,4,2,0,0,0,0,3.14159265358979,3.14159265358979,                    33P     23
3.14159265358979,4.71238898038469,4.71238898038469,                   33P     24
6.28318530717959,6.28318530717959,6.28318530717959,1.,                33P     25
0.707106781186548,1.,0.707106781186548,1.,-16.5,150.,0.,-16.5,        33P     26
125.,0.,8.5,125.,0.,33.5,125.,0.,33.5,150.,0.,3.14159265358979,       33P     27
6.28318530717959,0.,0.,0.;                                            33P     28
126,8,2,0,1,0,0,-3.14159265358979,-3.14159265358979,                  35P     29
-3.14159265358979,-1.5707963267949,-1.5707963267949,0.,0.,            35P     30
1.5707963267949,1.5707963267949,3.14159265358979,                     35P     31
3.14159265358979,3.14159265358979,1.,0.707106781186551,1.,            35P     32
0.707106781186551,1.,0.707106781186547,1.,0.707106781186547,1.,       35P     33
-18.,150.,-3.,-18.,176.5,-3.,8.5,176.5,-3.,35.,176.5,-3.,35.,         35P     34
150.,-3.,35.,123.5,-3.,8.5,123.5,-3.,-18.,123.5,-3.,-18.,150.,        35P     35
-3.,-3.14159265358979,3.14159265358979,0.,0.,0.;                      35P     36
126,1,1,0,0,1,0,-0.113207547169811,-0.113207547169811,0.,0.,1.,       37P     37
1.,-18.,150.,-3.,-18.,150.,0.,-0.113207547169811,0.,0.,0.,0.;         37P     38
126,4,2,0,0,0,0,0.,0.,0.,1.5707963267949,1.5707963267949,             39P     39
3.14159265358979,3.14159265358979,3.14159265358979,1.,                39P     40
0.707106781186551,1.,0.707106781186551,1.,35.,150.,0.,35.,176.5,      39P     41
0.,8.5,176.5,0.,-18.,176.5,0.,-18.,150.,0.,0.,3.14159265358979,       39P     42
0.,0.,0.;                                                             39P     43
126,4,2,0,0,0,0,3.14159265358979,3.14159265358979,                    41P     44
3.14159265358979,4.71238898038469,4.71238898038469,                   41P     45
6.28318530717959,6.28318530717959,6.28318530717959,1.,                41P     46
0.707106781186547,1.,0.707106781186549,1.,-18.,150.,0.,-18.,          41P     47
123.5,0.,8.5,123.5,0.,35.,123.5,0.,35.,150.,0.,3.14159265358979,      41P     48
6.28318530717959,0.,0.,0.;                                            41P     49
126,4,2,0,0,0,0,0.,0.,0.,1.5707963267949,1.5707963267949,             43P     50
3.14159265358979,3.14159265358979,3.14159265358979,1.,                43P     51
0.707106781186549,1.,0.707106781186548,1.,41.,150.,60.,41.,           43P     52
117.5,60.,8.5,117.5,60.,-24.,117.5,60.,-24.,150.,60.,0.,              43P     53
3.14159265358979,0.,0.,0.;                                            43P     54
126,4,2,0,0,0,0,3.14159265358979,3.14159265358979,                    45P     55
3.14159265358979,4.71238898038469,4.71238898038469,                   45P     56
6.28318530717959,6.28318530717959,6.28318530717959,1.,                45P     57
0.707106781186548,1.,0.707106781186549,1.,-24.,150.,60.,-24.,         45P     58
182.5,60.,8.49999999999999,182.5,60.,41.,182.5,60.,41.,150.,60.,      45P     59
3.14159265358979,6.28318530717959,0.,0.,0.;                           45P     60
126,1,1,0,0,1,0,-6.2727964483705D-18,-6.2727964483705D-18,            47P     61
1.86052101883813,1.86052101883813,1.,1.,-24.,150.,60.,-16.5,          47P     62
150.,-1.77635683940025D-14,-6.2727964483705D-18,                      47P     63
1.86052101883813,0.,0.,0.;                                            47P     64
126,4,2,0,0,0,0,0.,0.,0.,1.5707963267949,1.5707963267949,             49P     65
3.14159265358979,3.14159265358979,3.14159265358979,1.,                49P     66
0.707106781186546,1.,0.707106781186548,1.,42.5,150.,60.,42.5,         49P     67
116.,60.,8.5,116.,60.,-25.5,116.,60.,-25.5,150.,60.,0.,               49P     68
3.14159265358979,0.,0.,0.;                                            49P     69
126,4,2,0,0,0,0,3.14159265358979,3.14159265358979,                    51P     70
3.14159265358979,4.71238898038469,4.71238898038469,                   51P     71
6.28318530717959,6.28318530717959,6.28318530717959,1.,                51P     72
0.707106781186548,1.,0.707106781186551,1.,-25.5,150.,60.,-25.5,       51P     73
184.,60.,8.49999999999999,184.,60.,42.5,184.,60.,42.5,150.,60.,       51P     74
3.14159265358979,6.28318530717959,0.,0.,0.;                           51P     75
126,1,1,0,0,1,0,-1.7784392091835,-1.7784392091835,                    53P     76
5.99605542858944D-18,5.99605542858944D-18,1.,1.,-18.,150.,            53P     77
-1.77635683940025D-14,-25.5,150.,60.,-1.7784392091835,                53P     78
5.99605542858944D-18,0.,0.,0.;                                        53P     79
128,1,1,1,1,0,0,1,0,0,-2.501,-2.501,2.501,2.501,-2.501,-2.501,        55P     80
2.501,2.501,1.,1.,1.,1.,-16.51,124.99,0.,33.51,124.99,0.,-16.51,      55P     81
175.01,0.,33.51,175.01,0.,-2.501,2.501,-2.501,2.501;                  55P     82
128,1,8,1,2,0,1,0,0,1,0.,0.,0.113207547169811,0.113207547169811,      57P     83
-3.14159265358979,-3.14159265358979,-3.14159265358979,                57P     84
-1.5707963267949,-1.5707963267949,0.,0.,1.5707963267949,              57P     85
1.5707963267949,3.14159265358979,3.14159265358979,                    57P     86
3.14159265358979,1.,1.,0.707106781186548,0.707106781186548,1.,        57P     87
1.,0.707106781186548,0.707106781186548,1.,1.,0.707106781186548,       57P     88
0.707106781186548,1.,1.,0.707106781186548,0.707106781186548,1.,       57P     89
1.,-18.,150.,-3.,-18.,150.,0.,-18.,176.5,-3.,-18.,176.5,0.,8.5,       57P     90
176.5,-3.,8.5,176.5,0.,35.,176.5,-3.,35.,176.5,0.,35.,150.,-3.,       57P     91
35.,150.,0.,35.,123.5,-3.,35.,123.5,0.,8.5,123.5,-3.,8.5,123.5,       57P     92
0.,-18.,123.5,-3.,-18.,123.5,0.,-18.,150.,-3.,-18.,150.,0.,0.,        57P     93
0.113207547169811,-3.14159265358979,3.14159265358979;                 57P     94
128,1,1,1,1,0,0,1,0,0,-2.651,-2.651,2.651,2.651,-2.651,-2.651,        59P     95
2.651,2.651,1.,1.,1.,1.,35.01,123.49,-3.,-18.01,123.49,-3.,           59P     96
35.01,176.51,-3.,-18.01,176.51,-3.,-2.651,2.651,-2.651,2.651;         59P     97
128,1,8,1,2,0,1,0,0,1,-6.2727964483705D-18,-6.2727964483705D-18,      61P     98
1.86052101883813,1.86052101883813,-3.14159265358979,                  61P     99
-3.14159265358979,-3.14159265358979,-1.5707963267949,                 61P    100
-1.5707963267949,0.,0.,1.5707963267949,1.5707963267949,               61P    101
3.14159265358979,3.14159265358979,3.14159265358979,1.,1.,             61P    102
0.707106781186548,0.707106781186548,1.,1.,0.707106781186548,          61P    103
0.707106781186548,1.,1.,0.707106781186548,0.707106781186548,1.,       61P    104
1.,0.707106781186548,0.707106781186548,1.,1.,-24.,150.,60.,           61P    105
-16.5,150.,-1.77635683940025D-14,-24.,182.5,60.,-16.5,175.,           61P    106
-1.77635683940025D-14,8.5,182.5,60.,8.5,175.,                         61P    107
-1.77635683940025D-14,41.,182.5,60.,33.5,175.,                        61P    108
-1.77635683940025D-14,41.,150.,60.,33.5,150.,                         61P    109
-1.77635683940025D-14,41.,117.5,60.,33.5,125.,                        61P    110
-1.77635683940025D-14,8.5,117.5,60.,8.5,125.,                         61P    111
-1.77635683940025D-14,-24.,117.5,60.,-16.5,125.,                      61P    112
-1.77635683940025D-14,-24.,150.,60.,-16.5,150.,                       61P    113
-1.77635683940025D-14,-6.2727964483705D-18,1.86052101883813,          61P    114
-3.14159265358979,3.14159265358979;                                   61P    115
128,1,1,1,1,0,0,1,0,0,-3.401,-3.401,3.401,3.401,-3.401,-3.401,        63P    116
3.401,3.401,1.,1.,1.,1.,-25.51,115.99,60.,42.51,115.99,60.,           63P    117
-25.51,184.01,60.,42.51,184.01,60.,-3.401,3.401,-3.401,3.401;         63P    118
128,1,8,1,2,0,1,0,0,1,-5.99605542858944D-18,                          65P    119
-5.99605542858944D-18,1.7784392091835,1.7784392091835,                65P    120
-3.14159265358979,-3.14159265358979,-3.14159265358979,                65P    121
-1.5707963267949,-1.5707963267949,0.,0.,1.5707963267949,              65P    122
1.5707963267949,3.14159265358979,3.14159265358979,                    65P    123
3.14159265358979,1.,1.,0.707106781186548,0.707106781186548,1.,        65P    124
1.,0.707106781186548,0.707106781186548,1.,1.,0.707106781186548,       65P    125
0.707106781186548,1.,1.,0.707106781186548,0.707106781186548,1.,       65P    126
1.,-18.,150.,-1.77635683940025D-14,-25.5,150.,60.,-18.,176.5,         65P    127
-1.77635683940025D-14,-25.5,184.,60.,8.5,176.5,                       65P    128
-1.77635683940025D-14,8.5,184.,60.,35.,176.5,                         65P    129
-1.77635683940025D-14,42.5,184.,60.,35.,150.,                         65P    130
-1.77635683940025D-14,42.5,150.,60.,35.,123.5,                        65P    131
-1.77635683940025D-14,42.5,116.,60.,8.5,123.5,                        65P    132
-1.77635683940025D-14,8.5,116.,60.,-18.,123.5,                        65P    133
-1.77635683940025D-14,-25.5,116.,60.,-18.,150.,                       65P    134
-1.77635683940025D-14,-25.5,150.,60.,-5.99605542858944D-18,           65P    135
1.7784392091835,-3.14159265358979,3.14159265358979;                   65P    136
502,9,33.5,150.,0.,-16.5,150.,-1.77635683940025D-14,-18.,150.,        67P    137
-3.,-18.,150.,0.,35.,150.,0.,41.,150.,60.,-24.,150.,60.,42.5,         67P    138
150.,60.,-25.5,150.,60.;                                              67P    139
504,12,31,67,1,67,2,33,67,2,67,1,35,67,3,67,3,37,67,3,67,4,39,        69P    140
67,5,67,4,41,67,4,67,5,43,67,6,67,7,45,67,7,67,6,47,67,7,67,2,        69P    141
49,67,8,67,9,51,67,9,67,8,53,67,4,67,9;                               69P    142
406,1,5HBody3;                                                        71P    143
314,62.7450980392157,62.7450980392157,62.7450980392157,13HSteel       73P    144
- Satin;                                                              73P    145
S      1G      3D     74P    145                                        T      1
