                                                                        S      1
,,19HRespeaker Spacer v2,19HRespeaker Spacer v2,7Hunknown,7Hunknown,32, G      1
38,7,99,15,,1.,2,2HMM,1,0.08,15H20220922.115410,0.01,10000.,7Hunknown,7HG      2
unknown,11,0,15H20190710.094729;                                        G      3
     186       1                                                00000000D      1
     186            -295       1       0                               0D      2
     514       2                                                00010000D      3
     514                       3       1                               0D      4
     510       5                                                00010000D      5
     510            -295       1       1                               0D      6
     510       6                                                00010000D      7
     510            -295       1       1                               0D      8
     510       7                                                00010000D      9
     510            -295       1       1                               0D     10
     510       8                                                00010000D     11
     510            -295       1       1                               0D     12
     510       9                                                00010000D     13
     510            -295       1       1                               0D     14
     510      10                                                00010000D     15
     510            -295       1       1                               0D     16
     510      11                                                00010000D     17
     510            -295       1       1                               0D     18
     510      12                                                00010000D     19
     510            -295       1       1                               0D     20
     510      13                                                00010000D     21
     510            -295       1       1                               0D     22
     510      14                                                00010000D     23
     510            -295       1       1                               0D     24
     510      15                                                00010000D     25
     510            -295       1       1                               0D     26
     510      16                                                00010000D     27
     510            -295       1       1                               0D     28
     510      17                                                00010000D     29
     510            -295       1       1                               0D     30
     510      18                                                00010000D     31
     510            -295       1       1                               0D     32
     510      19                                                00010000D     33
     510            -295       1       1                               0D     34
     510      20                                                00010000D     35
     510            -295       1       1                               0D     36
     510      21                                                00010000D     37
     510            -295       1       1                               0D     38
     510      22                                                00010000D     39
     510            -295       1       1                               0D     40
     510      23                                                00010000D     41
     510            -295       1       1                               0D     42
     510      24                                                00010000D     43
     510            -295       1       1                               0D     44
     510      25                                                00010000D     45
     510            -295       1       1                               0D     46
     510      26                                                00010000D     47
     510            -295       1       1                               0D     48
     510      27                                                00010000D     49
     510            -295       1       1                               0D     50
     510      28                                                00010000D     51
     510            -295       1       1                               0D     52
     510      29                                                00010000D     53
     510            -295       1       1                               0D     54
     510      30                                                00010000D     55
     510            -295       1       1                               0D     56
     508      31                                                00010000D     57
     508                       1       1                               0D     58
     508      32                                                00010000D     59
     508                       1       1                               0D     60
     508      33                                                00010000D     61
     508                       1       1                               0D     62
     508      34                                                00010000D     63
     508                       1       1                               0D     64
     508      35                                                00010000D     65
     508                       1       1                               0D     66
     508      36                                                00010000D     67
     508                       1       1                               0D     68
     508      37                                                00010000D     69
     508                       1       1                               0D     70
     508      38                                                00010000D     71
     508                       1       1                               0D     72
     508      39                                                00010000D     73
     508                       1       1                               0D     74
     508      40                                                00010000D     75
     508                       1       1                               0D     76
     508      41                                                00010000D     77
     508                       1       1                               0D     78
     508      42                                                00010000D     79
     508                       1       1                               0D     80
     508      43                                                00010000D     81
     508                       1       1                               0D     82
     508      44                                                00010000D     83
     508                       4       1                               0D     84
     508      48                                                00010000D     85
     508                       1       1                               0D     86
     508      49                                                00010000D     87
     508                       1       1                               0D     88
     508      50                                                00010000D     89
     508                       4       1                               0D     90
     508      54                                                00010000D     91
     508                       1       1                               0D     92
     508      55                                                00010000D     93
     508                       1       1                               0D     94
     508      56                                                00010000D     95
     508                       1       1                               0D     96
     508      57                                                00010000D     97
     508                       1       1                               0D     98
     508      58                                                00010000D     99
     508                       1       1                               0D    100
     508      59                                                00010000D    101
     508                       1       1                               0D    102
     508      60                                                00010000D    103
     508                       1       1                               0D    104
     508      61                                                00010000D    105
     508                       1       1                               0D    106
     508      62                                                00010000D    107
     508                       1       1                               0D    108
     508      63                                                00010000D    109
     508                       1       1                               0D    110
     508      64                                                00010000D    111
     508                       1       1                               0D    112
     508      65                                                00010000D    113
     508                       1       1                               0D    114
     508      66                                                00010000D    115
     508                       1       1                               0D    116
     126      67                                                00010000D    117
     126       0               8       0                               0D    118
     126      75                                                00010000D    119
     126       0               2       0                               0D    120
     126      77                                                00010000D    121
     126       0               8       0                               0D    122
     126      85                                                00010000D    123
     126       0               9       0                               0D    124
     126      94                                                00010000D    125
     126       0               3       0                               0D    126
     126      97                                                00010000D    127
     126       0               9       0                               0D    128
     126     106                                                00010000D    129
     126       0               8       0                               0D    130
     126     114                                                00010000D    131
     126       0               2       0                               0D    132
     126     116                                                00010000D    133
     126       0               8       0                               0D    134
     126     124                                                00010000D    135
     126       0               8       0                               0D    136
     126     132                                                00010000D    137
     126       0               2       0                               0D    138
     126     134                                                00010000D    139
     126       0               8       0                               0D    140
     126     142                                                00010000D    141
     126       0               2       0                               0D    142
     126     144                                                00010000D    143
     126       0               2       0                               0D    144
     126     146                                                00010000D    145
     126       0               2       0                               0D    146
     126     148                                                00010000D    147
     126       0               2       0                               0D    148
     126     150                                                00010000D    149
     126       0               2       0                               0D    150
     126     152                                                00010000D    151
     126       0               2       0                               0D    152
     126     154                                                00010000D    153
     126       0               3       0                               0D    154
     126     157                                                00010000D    155
     126       0               2       0                               0D    156
     126     159                                                00010000D    157
     126       0               2       0                               0D    158
     126     161                                                00010000D    159
     126       0               2       0                               0D    160
     126     163                                                00010000D    161
     126       0               2       0                               0D    162
     126     165                                                00010000D    163
     126       0               2       0                               0D    164
     126     167                                                00010000D    165
     126       0               2       0                               0D    166
     126     169                                                00010000D    167
     126       0               2       0                               0D    168
     126     171                                                00010000D    169
     126       0               2       0                               0D    170
     126     173                                                00010000D    171
     126       0               2       0                               0D    172
     126     175                                                00010000D    173
     126       0               2       0                               0D    174
     126     177                                                00010000D    175
     126       0               2       0                               0D    176
     126     179                                                00010000D    177
     126       0               2       0                               0D    178
     126     181                                                00010000D    179
     126       0               2       0                               0D    180
     126     183                                                00010000D    181
     126       0               2       0                               0D    182
     126     185                                                00010000D    183
     126       0               2       0                               0D    184
     126     187                                                00010000D    185
     126       0               2       0                               0D    186
     126     189                                                00010000D    187
     126       0               2       0                               0D    188
     126     191                                                00010000D    189
     126       0               2       0                               0D    190
     126     193                                                00010000D    191
     126       0               2       0                               0D    192
     126     195                                                00010000D    193
     126       0               2       0                               0D    194
     126     197                                                00010000D    195
     126       0               2       0                               0D    196
     126     199                                                00010000D    197
     126       0               2       0                               0D    198
     126     201                                                00010000D    199
     126       0               2       0                               0D    200
     126     203                                                00010000D    201
     126       0               2       0                               0D    202
     126     205                                                00010000D    203
     126       0               2       0                               0D    204
     126     207                                                00010000D    205
     126       0               2       0                               0D    206
     126     209                                                00010000D    207
     126       0               2       0                               0D    208
     126     211                                                00010000D    209
     126       0               2       0                               0D    210
     126     213                                                00010000D    211
     126       0               2       0                               0D    212
     126     215                                                00010000D    213
     126       0               2       0                               0D    214
     126     217                                                00010000D    215
     126       0               2       0                               0D    216
     126     219                                                00010000D    217
     126       0               2       0                               0D    218
     126     221                                                00010000D    219
     126       0               2       0                               0D    220
     126     223                                                00010000D    221
     126       0               2       0                               0D    222
     126     225                                                00010000D    223
     126       0               2       0                               0D    224
     126     227                                                00010000D    225
     126       0               2       0                               0D    226
     126     229                                                00010000D    227
     126       0               2       0                               0D    228
     126     231                                                00010000D    229
     126       0               3       0                               0D    230
     126     234                                                00010000D    231
     126       0               2       0                               0D    232
     126     236                                                00010000D    233
     126       0               2       0                               0D    234
     126     238                                                00010000D    235
     126       0               2       0                               0D    236
     128     240                                                00010000D    237
     128       0    -295      12       0                               0D    238
     128     252                                                00010000D    239
     128       0    -295       3       0                               0D    240
     128     255                                                00010000D    241
     128       0    -295      15       0                               0D    242
     128     270                                                00010000D    243
     128       0    -295       4       0                               0D    244
     128     274                                                00010000D    245
     128       0    -295      12       0                               0D    246
     128     286                                                00010000D    247
     128       0    -295       3       0                               0D    248
     128     289                                                00010000D    249
     128       0    -295      12       0                               0D    250
     128     301                                                00010000D    251
     128       0    -295       3       0                               0D    252
     128     304                                                00010000D    253
     128       0    -295       3       0                               0D    254
     128     307                                                00010000D    255
     128       0    -295       3       0                               0D    256
     128     310                                                00010000D    257
     128       0    -295       3       0                               0D    258
     128     313                                                00010000D    259
     128       0    -295       4       0                               0D    260
     128     317                                                00010000D    261
     128       0    -295       4       0                               0D    262
     128     321                                                00010000D    263
     128       0    -295       3       0                               0D    264
     128     324                                                00010000D    265
     128       0    -295       3       0                               0D    266
     128     327                                                00010000D    267
     128       0    -295       3       0                               0D    268
     128     330                                                00010000D    269
     128       0    -295       3       0                               0D    270
     128     333                                                00010000D    271
     128       0    -295       3       0                               0D    272
     128     336                                                00010000D    273
     128       0    -295       3       0                               0D    274
     128     339                                                00010000D    275
     128       0    -295       3       0                               0D    276
     128     342                                                00010000D    277
     128       0    -295       3       0                               0D    278
     128     345                                                00010000D    279
     128       0    -295       3       0                               0D    280
     128     348                                                00010000D    281
     128       0    -295       3       0                               0D    282
     128     351                                                00010000D    283
     128       0    -295       3       0                               0D    284
     128     354                                                00010000D    285
     128       0    -295       3       0                               0D    286
     128     357                                                00010000D    287
     128       0    -295       3       0                               0D    288
     502     360                                                00010000D    289
     502                       8       1                               0D    290
     504     368                                                00010001D    291
     504                      17       1                               0D    292
     406     385                                                00000000D    293
     406                       1      15                               0D    294
     314     386                                                00000200D    295
     314                       2       0                               0D    296
186,3,1,0,0,1,293;                                                     1P      1
514,26,5,1,7,1,9,1,11,1,13,1,15,1,17,1,19,1,21,1,23,1,25,1,27,1,       3P      2
29,1,31,1,33,1,35,1,37,1,39,1,41,1,43,1,45,1,47,1,49,1,51,1,53,        3P      3
1,55,1;                                                                3P      4
510,237,1,1,57;                                                        5P      5
510,239,1,1,59;                                                        7P      6
510,241,1,1,61;                                                        9P      7
510,243,1,1,63;                                                       11P      8
510,245,1,1,65;                                                       13P      9
510,247,1,1,67;                                                       15P     10
510,249,1,1,69;                                                       17P     11
510,251,1,1,71;                                                       19P     12
510,253,1,1,73;                                                       21P     13
510,255,1,1,75;                                                       23P     14
510,257,2,1,77,79;                                                    25P     15
510,259,1,1,81;                                                       27P     16
510,261,1,1,83;                                                       29P     17
510,263,1,1,85;                                                       31P     18
510,265,1,1,87;                                                       33P     19
510,267,1,1,89;                                                       35P     20
510,269,1,1,91;                                                       37P     21
510,271,2,1,93,95;                                                    39P     22
510,273,1,1,97;                                                       41P     23
510,275,1,1,99;                                                       43P     24
510,277,2,1,101,103;                                                  45P     25
510,279,1,1,105;                                                      47P     26
510,281,1,1,107;                                                      49P     27
510,283,2,1,109,111;                                                  51P     28
510,285,1,1,113;                                                      53P     29
510,287,1,1,115;                                                      55P     30
508,4,0,291,1,0,0,0,291,2,1,0,0,291,3,0,0,0,291,2,0,0;                57P     31
508,1,0,291,1,1,0;                                                    59P     32
508,4,0,291,4,0,0,0,291,5,1,0,0,291,6,0,0,0,291,5,0,0;                61P     33
508,1,0,291,4,1,0;                                                    63P     34
508,4,0,291,7,0,0,0,291,8,1,0,0,291,9,0,0,0,291,8,0,0;                65P     35
508,1,0,291,7,1,0;                                                    67P     36
508,4,0,291,10,0,0,0,291,11,1,0,0,291,12,0,0,0,291,11,0,0;            69P     37
508,1,0,291,10,1,0;                                                   71P     38
508,4,0,291,13,0,0,0,291,14,1,0,0,291,15,0,0,0,291,16,0,0;            73P     39
508,4,0,291,17,0,0,0,291,18,1,0,0,291,19,0,0,0,291,20,0,0;            75P     40
508,4,0,291,19,1,0,0,291,21,1,0,0,291,15,1,0,0,291,22,1,0;            77P     41
508,1,0,291,9,1,0;                                                    79P     42
508,4,0,291,23,0,0,0,291,24,0,0,0,291,25,0,0,0,291,26,0,0;            81P     43
508,16,0,291,27,0,0,0,291,28,1,0,0,291,29,0,0,0,291,30,0,0,0,         83P     44
291,31,0,0,0,291,32,1,0,0,291,33,0,0,0,291,34,0,0,0,291,25,1,0,       83P     45
0,291,35,1,0,0,291,36,0,0,0,291,37,0,0,0,291,38,0,0,0,291,16,1,       83P     46
0,0,291,21,0,0,0,291,18,0,0;                                          83P     47
508,4,0,291,13,1,0,0,291,38,1,0,0,291,39,1,0,0,291,40,1,0;            85P     48
508,4,0,291,17,1,0,0,291,41,1,0,0,291,42,1,0,0,291,27,1,0;            87P     49
508,16,0,291,40,0,0,0,291,43,1,0,0,291,44,0,0,0,291,45,0,0,0,         89P     50
291,23,1,0,0,291,46,1,0,0,291,47,0,0,0,291,48,0,0,0,291,49,0,0,       89P     51
0,291,50,1,0,0,291,51,0,0,0,291,52,0,0,0,291,41,0,0,0,291,20,1,       89P     52
0,0,291,22,0,0,0,291,14,0,0;                                          89P     53
508,4,0,291,39,0,0,0,291,37,1,0,0,291,53,0,0,0,291,43,0,0;            91P     54
508,4,0,291,54,1,0,0,291,44,1,0,0,291,53,1,0,0,291,36,1,0;            93P     55
508,1,0,291,3,1,0;                                                    95P     56
508,4,0,291,42,0,0,0,291,52,1,0,0,291,55,0,0,0,291,28,0,0;            97P     57
508,4,0,291,56,0,0,0,291,30,1,0,0,291,57,0,0,0,291,50,0,0;            99P     58
508,4,0,291,57,1,0,0,291,29,1,0,0,291,55,1,0,0,291,51,1,0;           101P     59
508,1,0,291,12,1,0;                                                  103P     60
508,4,0,291,56,1,0,0,291,49,1,0,0,291,58,1,0,0,291,31,1,0;           105P     61
508,4,0,291,58,0,0,0,291,48,1,0,0,291,59,0,0,0,291,32,0,0;           107P     62
508,4,0,291,33,1,0,0,291,59,1,0,0,291,47,1,0,0,291,60,1,0;           109P     63
508,1,0,291,6,1,0;                                                   111P     64
508,4,0,291,26,1,0,0,291,34,1,0,0,291,60,0,0,0,291,46,0,0;           113P     65
508,4,0,291,24,1,0,0,291,45,1,0,0,291,54,0,0,0,291,35,0,0;           115P     66
126,8,2,0,1,0,0,-3.14159265358979,-3.14159265358979,                 117P     67
-3.14159265358979,-1.5707963267949,-1.5707963267949,0.,0.,           117P     68
1.5707963267949,1.5707963267949,3.14159265358979,                    117P     69
3.14159265358979,3.14159265358979,1.,0.707106781186547,1.,           117P     70
0.707106781186547,1.,0.707106781186547,1.,0.707106781186547,1.,      117P     71
1.75,3.,5.7,1.75,1.75,5.7,3.,1.75,5.7,4.25,1.75,5.7,4.25,3.,5.7,     117P     72
4.25,4.25,5.7,3.,4.25,5.7,1.75,4.25,5.7,1.75,3.,5.7,                 117P     73
-3.14159265358979,3.14159265358979,0.,0.,0.;                         117P     74
126,1,1,0,0,1,0,-4.56,-4.56,-2.96,-2.96,1.,1.,1.75,3.,5.7,1.75,      119P     75
3.,3.7,-4.56,-2.96,0.,0.,0.;                                         119P     76
126,8,2,0,1,0,0,-3.14159265358979,-3.14159265358979,                 121P     77
-3.14159265358979,-1.5707963267949,-1.5707963267949,0.,0.,           121P     78
1.5707963267949,1.5707963267949,3.14159265358979,                    121P     79
3.14159265358979,3.14159265358979,1.,0.707106781186547,1.,           121P     80
0.707106781186547,1.,0.707106781186547,1.,0.707106781186547,1.,      121P     81
1.75,3.,3.7,1.75,4.25,3.7,3.,4.25,3.7,4.25,4.25,3.7,4.25,3.,3.7,     121P     82
4.25,1.75,3.7,3.,1.75,3.7,1.75,1.75,3.7,1.75,3.,3.7,                 121P     83
-3.14159265358979,3.14159265358979,0.,0.,0.;                         121P     84
126,8,2,0,1,0,0,-3.14159265358979,-3.14159265358979,                 123P     85
-3.14159265358979,-1.5707963267949,-1.5707963267949,0.,0.,           123P     86
1.5707963267949,1.5707963267949,3.14159265358979,                    123P     87
3.14159265358979,3.14159265358979,1.,0.707106781186547,1.,           123P     88
0.707106781186547,1.,0.707106781186547,1.,0.707106781186547,1.,      123P     89
37.75,3.,5.7,37.75,1.75,5.7,39.,1.75,5.7,40.25,1.75,5.7,40.25,       123P     90
3.,5.7,40.25,4.25000000000001,5.7,39.,4.25000000000001,5.7,          123P     91
37.75,4.25000000000001,5.7,37.75,3.,5.7,-3.14159265358979,           123P     92
3.14159265358979,0.,0.,0.;                                           123P     93
126,1,1,0,0,1,0,-4.55999999999998,-4.55999999999998,                 125P     94
-2.95999999999999,-2.95999999999999,1.,1.,37.75,3.,5.7,37.75,3.,     125P     95
3.7,-4.55999999999998,-2.95999999999999,0.,0.,0.;                    125P     96
126,8,2,0,1,0,0,-3.14159265358979,-3.14159265358979,                 127P     97
-3.14159265358979,-1.5707963267949,-1.5707963267949,0.,0.,           127P     98
1.5707963267949,1.5707963267949,3.14159265358979,                    127P     99
3.14159265358979,3.14159265358979,1.,0.707106781186547,1.,           127P    100
0.707106781186547,1.,0.707106781186547,1.,0.707106781186547,1.,      127P    101
37.75,3.,3.7,37.75,4.25000000000001,3.7,39.,4.25000000000001,        127P    102
3.7,40.25,4.25000000000001,3.7,40.25,3.,3.7,40.25,1.75,3.7,39.,      127P    103
1.75,3.7,37.75,1.75,3.7,37.75,3.,3.7,-3.14159265358979,              127P    104
3.14159265358979,0.,0.,0.;                                           127P    105
126,8,2,0,1,0,0,-3.14159265358979,-3.14159265358979,                 129P    106
-3.14159265358979,-1.5707963267949,-1.5707963267949,0.,0.,           129P    107
1.5707963267949,1.5707963267949,3.14159265358979,                    129P    108
3.14159265358979,3.14159265358979,1.,0.707106781186548,1.,           129P    109
0.707106781186548,1.,0.707106781186548,1.,0.707106781186548,1.,      129P    110
13.75,3.,5.7,13.75,1.75,5.7,15.,1.75,5.7,16.25,1.75,5.7,16.25,       129P    111
3.,5.7,16.25,4.25,5.7,15.,4.25,5.7,13.75,4.25,5.7,13.75,3.,5.7,      129P    112
-3.14159265358979,3.14159265358979,0.,0.,0.;                         129P    113
126,1,1,0,0,1,0,-4.56,-4.56,-2.96,-2.96,1.,1.,13.75,3.,5.7,          131P    114
13.75,3.,3.7,-4.56,-2.96,0.,0.,0.;                                   131P    115
126,8,2,0,1,0,0,-3.14159265358979,-3.14159265358979,                 133P    116
-3.14159265358979,-1.5707963267949,-1.5707963267949,0.,0.,           133P    117
1.5707963267949,1.5707963267949,3.14159265358979,                    133P    118
3.14159265358979,3.14159265358979,1.,0.707106781186548,1.,           133P    119
0.707106781186548,1.,0.707106781186548,1.,0.707106781186548,1.,      133P    120
13.75,3.,3.7,13.75,4.25,3.7,15.,4.25,3.7,16.25,4.25,3.7,16.25,       133P    121
3.,3.7,16.25,1.75,3.7,15.,1.75,3.7,13.75,1.75,3.7,13.75,3.,3.7,      133P    122
-3.14159265358979,3.14159265358979,0.,0.,0.;                         133P    123
126,8,2,0,1,0,0,-3.14159265358979,-3.14159265358979,                 135P    124
-3.14159265358979,-1.5707963267949,-1.5707963267949,0.,0.,           135P    125
1.5707963267949,1.5707963267949,3.14159265358979,                    135P    126
3.14159265358979,3.14159265358979,1.,0.707106781186543,1.,           135P    127
0.707106781186543,1.,0.707106781186543,1.,0.707106781186543,1.,      135P    128
25.75,3.,5.7,25.75,1.75,5.7,27.,1.75,5.7,28.25,1.75,5.7,28.25,       135P    129
3.,5.7,28.25,4.25,5.7,27.,4.25,5.7,25.75,4.25,5.7,25.75,3.,5.7,      135P    130
-3.14159265358979,3.14159265358979,0.,0.,0.;                         135P    131
126,1,1,0,0,1,0,-4.56,-4.56,-2.96,-2.96,1.,1.,25.75,3.,5.7,          137P    132
25.75,3.,3.7,-4.56,-2.96,0.,0.,0.;                                   137P    133
126,8,2,0,1,0,0,-3.14159265358979,-3.14159265358979,                 139P    134
-3.14159265358979,-1.5707963267949,-1.5707963267949,0.,0.,           139P    135
1.5707963267949,1.5707963267949,3.14159265358979,                    139P    136
3.14159265358979,3.14159265358979,1.,0.707106781186543,1.,           139P    137
0.707106781186543,1.,0.707106781186543,1.,0.707106781186543,1.,      139P    138
25.75,3.,3.7,25.75,4.25,3.7,27.,4.25,3.7,28.25,4.25,3.7,28.25,       139P    139
3.,3.7,28.25,1.75,3.7,27.,1.75,3.7,25.75,1.75,3.7,25.75,3.,3.7,      139P    140
-3.14159265358979,3.14159265358979,0.,0.,0.;                         139P    141
126,1,1,0,0,1,0,-0.45,-0.45,0.15,0.15,1.,1.,12.,0.,0.2,12.,6.,       141P    142
0.2,-0.45,0.15,0.,0.,0.;                                             141P    143
126,1,1,0,0,1,0,0.02,0.02,0.37,0.37,1.,1.,12.,0.,0.2,12.,0.,3.7,     143P    144
0.02,0.37,0.,0.,0.;                                                  143P    145
126,1,1,0,0,1,0,0.,0.,0.6,0.6,1.,1.,12.,6.,3.7,12.,0.,3.7,0.,        145P    146
0.6,0.,0.,0.;                                                        145P    147
126,1,1,0,0,1,0,0.02,0.02,0.37,0.37,1.,1.,12.,6.,0.2,12.,6.,3.7,     147P    148
0.02,0.37,0.,0.,0.;                                                  147P    149
126,1,1,0,0,1,0,-0.45,-0.45,0.15,0.15,1.,1.,18.,6.,0.2,18.,0.,       149P    150
0.2,-0.45,0.15,0.,0.,0.;                                             149P    151
126,1,1,0,0,1,0,0.02,0.02,0.37,0.37,1.,1.,18.,6.,0.2,18.,6.,3.7,     151P    152
0.02,0.37,0.,0.,0.;                                                  151P    153
126,1,1,0,0,1,0,7.70371977754894D-33,7.70371977754894D-33,0.6,       153P    154
0.6,1.,1.,18.,0.,3.7,18.,6.,3.7,7.70371977754894D-33,0.6,0.,0.,      153P    155
0.;                                                                  153P    156
126,1,1,0,0,1,0,0.02,0.02,0.37,0.37,1.,1.,18.,0.,0.2,18.,0.,3.7,     155P    157
0.02,0.37,0.,0.,0.;                                                  155P    158
126,1,1,0,0,1,0,2.4,2.4,3.,3.,1.,1.,18.,6.,3.7,12.,6.,3.7,2.4,       157P    159
3.,0.,0.,0.;                                                         157P    160
126,1,1,0,0,1,0,1.2,1.2,1.8,1.8,1.,1.,12.,0.,3.7,18.,0.,3.7,1.2,     159P    161
1.8,0.,0.,0.;                                                        159P    162
126,1,1,0,0,1,0,0.,0.,4.2,4.2,1.,1.,0.,0.,0.,42.,0.,0.,0.,4.2,       161P    163
0.,0.,0.;                                                            161P    164
126,1,1,0,0,1,0,0.,0.,0.6,0.6,1.,1.,0.,6.,0.,0.,0.,0.,0.,0.6,0.,     163P    165
0.,0.;                                                               163P    166
126,1,1,0,0,1,0,0.,0.,4.2,4.2,1.,1.,42.,6.,0.,0.,6.,0.,0.,4.2,       165P    167
0.,0.,0.;                                                            165P    168
126,1,1,0,0,1,0,0.,0.,0.6,0.6,1.,1.,42.,0.,0.,42.,6.,0.,0.,0.6,      167P    169
0.,0.,0.;                                                            167P    170
126,1,1,0,0,1,0,1.8,1.8,2.4,2.4,1.,1.,24.,6.,0.2,18.,6.,0.2,1.8,     169P    171
2.4,0.,0.,0.;                                                        169P    172
126,1,1,0,0,1,0,0.02,0.02,0.37,0.37,1.,1.,24.,6.,0.2,24.,6.,3.7,     171P    173
0.02,0.37,0.,0.,0.;                                                  171P    174
126,1,1,0,0,1,0,1.2,1.2,1.8,1.8,1.,1.,30.,6.,3.7,24.,6.,3.7,1.2,     173P    175
1.8,0.,0.,0.;                                                        173P    176
126,1,1,0,0,1,0,0.02,0.02,0.37,0.37,1.,1.,30.,6.,0.2,30.,6.,3.7,     175P    177
0.02,0.37,0.,0.,0.;                                                  175P    178
126,1,1,0,0,1,0,0.600000000000001,0.600000000000001,1.2,1.2,1.,      177P    179
1.,36.,6.,0.2,30.,6.,0.2,0.600000000000001,1.2,0.,0.,0.;             177P    180
126,1,1,0,0,1,0,0.02,0.02,0.37,0.37,1.,1.,36.,6.,0.2,36.,6.,3.7,     179P    181
0.02,0.37,0.,0.,0.;                                                  179P    182
126,1,1,0,0,1,0,0.,0.,0.600000000000001,0.600000000000001,1.,1.,     181P    183
42.,6.,3.7,36.,6.,3.7,0.,0.600000000000001,0.,0.,0.;                 181P    184
126,1,1,0,0,1,0,0.,0.,0.37,0.37,1.,1.,42.,6.,0.,42.,6.,3.7,0.,       183P    185
0.37,0.,0.,0.;                                                       183P    186
126,1,1,0,0,1,0,0.,0.,0.37,0.37,1.,1.,0.,6.,0.,0.,6.,3.7,0.,         185P    187
0.37,0.,0.,0.;                                                       185P    188
126,1,1,0,0,1,0,3.6,3.6,4.2,4.2,1.,1.,6.,6.,3.7,0.,6.,3.7,3.6,       187P    189
4.2,0.,0.,0.;                                                        187P    190
126,1,1,0,0,1,0,0.02,0.02,0.37,0.37,1.,1.,6.,6.,0.2,6.,6.,3.7,       189P    191
0.02,0.37,0.,0.,0.;                                                  189P    192
126,1,1,0,0,1,0,3.,3.,3.6,3.6,1.,1.,12.,6.,0.2,6.,6.,0.2,3.,3.6,     191P    193
0.,0.,0.;                                                            191P    194
126,1,1,0,0,1,0,-0.45,-0.45,0.15,0.15,1.,1.,6.,6.,0.2,6.,0.,0.2,     193P    195
-0.45,0.15,0.,0.,0.;                                                 193P    196
126,1,1,0,0,1,0,0.6,0.6,1.2,1.2,1.,1.,6.,0.,0.2,12.,0.,0.2,0.6,      195P    197
1.2,0.,0.,0.;                                                        195P    198
126,1,1,0,0,1,0,1.8,1.8,2.4,2.4,1.,1.,18.,0.,0.2,24.,0.,0.2,1.8,     197P    199
2.4,0.,0.,0.;                                                        197P    200
126,1,1,0,0,1,0,-0.45,-0.45,0.15,0.15,1.,1.,24.,0.,0.2,24.,6.,       199P    201
0.2,-0.45,0.15,0.,0.,0.;                                             199P    202
126,1,1,0,0,1,0,0.02,0.02,0.37,0.37,1.,1.,6.,0.,0.2,6.,0.,3.7,       201P    203
0.02,0.37,0.,0.,0.;                                                  201P    204
126,1,1,0,0,1,0,0.,0.,0.6,0.6,1.,1.,0.,0.,3.7,6.,0.,3.7,0.,0.6,      203P    205
0.,0.,0.;                                                            203P    206
126,1,1,0,0,1,0,0.,0.,0.37,0.37,1.,1.,0.,0.,0.,0.,0.,3.7,0.,         205P    207
0.37,0.,0.,0.;                                                       205P    208
126,1,1,0,0,1,0,0.,0.,0.37,0.37,1.,1.,42.,0.,0.,42.,0.,3.7,0.,       207P    209
0.37,0.,0.,0.;                                                       207P    210
126,1,1,0,0,1,0,3.6,3.6,4.2,4.2,1.,1.,36.,0.,3.7,42.,0.,3.7,3.6,     209P    211
4.2,0.,0.,0.;                                                        209P    212
126,1,1,0,0,1,0,0.02,0.02,0.37,0.37,1.,1.,36.,0.,0.2,36.,0.,3.7,     211P    213
0.02,0.37,0.,0.,0.;                                                  211P    214
126,1,1,0,0,1,0,3.,3.,3.6,3.6,1.,1.,30.,0.,0.2,36.,0.,0.2,3.,        213P    215
3.6,0.,0.,0.;                                                        213P    216
126,1,1,0,0,1,0,0.02,0.02,0.37,0.37,1.,1.,30.,0.,0.2,30.,0.,3.7,     215P    217
0.02,0.37,0.,0.,0.;                                                  215P    218
126,1,1,0,0,1,0,2.4,2.4,3.,3.,1.,1.,24.,0.,3.7,30.,0.,3.7,2.4,       217P    219
3.,0.,0.,0.;                                                         217P    220
126,1,1,0,0,1,0,0.02,0.02,0.37,0.37,1.,1.,24.,0.,0.2,24.,0.,3.7,     219P    221
0.02,0.37,0.,0.,0.;                                                  219P    222
126,1,1,0,0,1,0,1.54074395550979D-33,1.54074395550979D-33,0.6,       221P    223
0.6,1.,1.,6.,0.,3.7,6.,6.,3.7,1.54074395550979D-33,0.6,0.,0.,0.;     221P    224
126,1,1,0,0,1,0,0.,0.,0.6,0.6,1.,1.,0.,6.,3.7,0.,0.,3.7,0.,0.6,      223P    225
0.,0.,0.;                                                            223P    226
126,1,1,0,0,1,0,0.,0.,0.6,0.6,1.,1.,24.,6.,3.7,24.,0.,3.7,0.,        225P    227
0.6,0.,0.,0.;                                                        225P    228
126,1,1,0,0,1,0,-0.45,-0.45,0.15,0.15,1.,1.,30.,6.,0.2,30.,0.,       227P    229
0.2,-0.45,0.15,0.,0.,0.;                                             227P    230
126,1,1,0,0,1,0,1.54074395550979D-33,1.54074395550979D-33,0.6,       229P    231
0.6,1.,1.,30.,0.,3.7,30.,6.,3.7,1.54074395550979D-33,0.6,0.,0.,      229P    232
0.;                                                                  229P    233
126,1,1,0,0,1,0,-0.45,-0.45,0.15,0.15,1.,1.,36.,0.,0.2,36.,6.,       231P    234
0.2,-0.45,0.15,0.,0.,0.;                                             231P    235
126,1,1,0,0,1,0,0.,0.,0.6,0.6,1.,1.,36.,6.,3.7,36.,0.,3.7,0.,        233P    236
0.6,0.,0.,0.;                                                        233P    237
126,1,1,0,0,1,0,0.,0.,0.6,0.6,1.,1.,42.,0.,3.7,42.,6.,3.7,0.,        235P    238
0.6,0.,0.,0.;                                                        235P    239
128,1,8,1,2,0,1,0,0,1,2.96,2.96,4.56,4.56,-3.14159265358979,         237P    240
-3.14159265358979,-3.14159265358979,-1.5707963267949,                237P    241
-1.5707963267949,0.,0.,1.5707963267949,1.5707963267949,              237P    242
3.14159265358979,3.14159265358979,3.14159265358979,1.,1.,            237P    243
0.707106781186548,0.707106781186548,1.,1.,0.707106781186548,         237P    244
0.707106781186548,1.,1.,0.707106781186548,0.707106781186548,1.,      237P    245
1.,0.707106781186548,0.707106781186548,1.,1.,1.75,3.,5.7,1.75,       237P    246
3.,3.7,1.75,1.75,5.7,1.75,1.75,3.7,3.,1.75,5.7,3.,1.75,3.7,4.25,     237P    247
1.75,5.7,4.25,1.75,3.7,4.25,3.,5.7,4.25,3.,3.7,4.25,4.25,5.7,        237P    248
4.25,4.25,3.7,3.,4.25,5.7,3.,4.25,3.7,1.75,4.25,5.7,1.75,4.25,       237P    249
3.7,1.75,3.,5.7,1.75,3.,3.7,2.96,4.56,-3.14159265358979,             237P    250
3.14159265358979;                                                    237P    251
128,1,1,1,1,0,0,1,0,0,-0.126,-0.126,0.126,0.126,-0.126,-0.126,       239P    252
0.126,0.126,1.,1.,1.,1.,1.74,1.74,5.7,4.26,1.74,5.7,1.74,4.26,       239P    253
5.7,4.26,4.26,5.7,-0.126,0.126,-0.126,0.126;                         239P    254
128,1,8,1,2,0,1,0,0,1,2.95999999999999,2.95999999999999,             241P    255
4.55999999999998,4.55999999999998,-3.14159265358979,                 241P    256
-3.14159265358979,-3.14159265358979,-1.5707963267949,                241P    257
-1.5707963267949,0.,0.,1.5707963267949,1.5707963267949,              241P    258
3.14159265358979,3.14159265358979,3.14159265358979,1.,1.,            241P    259
0.707106781186548,0.707106781186548,1.,1.,0.707106781186548,         241P    260
0.707106781186548,1.,1.,0.707106781186548,0.707106781186548,1.,      241P    261
1.,0.707106781186548,0.707106781186548,1.,1.,37.75,3.,5.7,37.75,     241P    262
3.,3.7,37.75,1.75,5.7,37.75,1.75,3.7,39.,1.75,5.7,39.,1.75,3.7,      241P    263
40.25,1.75,5.7,40.25,1.75,3.7,40.25,3.,5.7,40.25,3.,3.7,40.25,       241P    264
4.25000000000001,5.7,40.25,4.25000000000001,3.7,39.,                 241P    265
4.25000000000001,5.7,39.,4.25000000000001,3.7,37.75,                 241P    266
4.25000000000001,5.7,37.75,4.25000000000001,3.7,37.75,3.,5.7,        241P    267
37.75,3.,3.7,2.95999999999999,4.55999999999998,                      241P    268
-3.14159265358979,3.14159265358979;                                  241P    269
128,1,1,1,1,0,0,1,0,0,-0.126,-0.126,0.126,0.126,-0.126,-0.126,       243P    270
0.126,0.126,1.,1.,1.,1.,37.74,1.74,5.7,40.26,1.74,5.7,37.74,         243P    271
4.26000000000001,5.7,40.26,4.26000000000001,5.7,-0.126,0.126,        243P    272
-0.126,0.126;                                                        243P    273
128,1,8,1,2,0,1,0,0,1,2.96,2.96,4.56,4.56,-3.14159265358979,         245P    274
-3.14159265358979,-3.14159265358979,-1.5707963267949,                245P    275
-1.5707963267949,0.,0.,1.5707963267949,1.5707963267949,              245P    276
3.14159265358979,3.14159265358979,3.14159265358979,1.,1.,            245P    277
0.707106781186548,0.707106781186548,1.,1.,0.707106781186548,         245P    278
0.707106781186548,1.,1.,0.707106781186548,0.707106781186548,1.,      245P    279
1.,0.707106781186548,0.707106781186548,1.,1.,13.75,3.,5.7,13.75,     245P    280
3.,3.7,13.75,1.75,5.7,13.75,1.75,3.7,15.,1.75,5.7,15.,1.75,3.7,      245P    281
16.25,1.75,5.7,16.25,1.75,3.7,16.25,3.,5.7,16.25,3.,3.7,16.25,       245P    282
4.25,5.7,16.25,4.25,3.7,15.,4.25,5.7,15.,4.25,3.7,13.75,4.25,        245P    283
5.7,13.75,4.25,3.7,13.75,3.,5.7,13.75,3.,3.7,2.96,4.56,              245P    284
-3.14159265358979,3.14159265358979;                                  245P    285
128,1,1,1,1,0,0,1,0,0,-0.126,-0.126,0.126,0.126,-0.126,-0.126,       247P    286
0.126,0.126,1.,1.,1.,1.,13.74,1.74,5.7,16.26,1.74,5.7,13.74,         247P    287
4.26,5.7,16.26,4.26,5.7,-0.126,0.126,-0.126,0.126;                   247P    288
128,1,8,1,2,0,1,0,0,1,2.96,2.96,4.56,4.56,-3.14159265358979,         249P    289
-3.14159265358979,-3.14159265358979,-1.5707963267949,                249P    290
-1.5707963267949,0.,0.,1.5707963267949,1.5707963267949,              249P    291
3.14159265358979,3.14159265358979,3.14159265358979,1.,1.,            249P    292
0.707106781186548,0.707106781186548,1.,1.,0.707106781186548,         249P    293
0.707106781186548,1.,1.,0.707106781186548,0.707106781186548,1.,      249P    294
1.,0.707106781186548,0.707106781186548,1.,1.,25.75,3.,5.7,25.75,     249P    295
3.,3.7,25.75,1.75,5.7,25.75,1.75,3.7,27.,1.75,5.7,27.,1.75,3.7,      249P    296
28.25,1.75,5.7,28.25,1.75,3.7,28.25,3.,5.7,28.25,3.,3.7,28.25,       249P    297
4.25,5.7,28.25,4.25,3.7,27.,4.25,5.7,27.,4.25,3.7,25.75,4.25,        249P    298
5.7,25.75,4.25,3.7,25.75,3.,5.7,25.75,3.,3.7,2.96,4.56,              249P    299
-3.14159265358979,3.14159265358979;                                  249P    300
128,1,1,1,1,0,0,1,0,0,-0.126,-0.126,0.126,0.126,-0.126,-0.126,       251P    301
0.126,0.126,1.,1.,1.,1.,25.74,1.74,5.7,28.26,1.74,5.7,25.74,         251P    302
4.26,5.7,28.26,4.26,5.7,-0.126,0.126,-0.126,0.126;                   251P    303
128,1,1,1,1,0,0,1,0,0,-0.001,-0.001,0.601,0.601,0.019,0.019,         253P    304
0.371,0.371,1.,1.,1.,1.,12.,6.01,0.19,12.,-0.01,0.19,12.,6.01,       253P    305
3.71,12.,-0.01,3.71,-0.001,0.601,0.019,0.371;                        253P    306
128,1,1,1,1,0,0,1,0,0,-0.001,-0.001,0.601,0.601,0.019,0.019,         255P    307
0.371,0.371,1.,1.,1.,1.,18.,-0.01,0.19,18.,6.01,0.19,18.,-0.01,      255P    308
3.71,18.,6.01,3.71,-0.001,0.601,0.019,0.371;                         255P    309
128,1,1,1,1,0,0,1,0,0,-0.301,-0.301,0.301,0.301,-0.301,-0.301,       257P    310
0.301,0.301,1.,1.,1.,1.,11.99,-0.01,3.7,18.01,-0.01,3.7,11.99,       257P    311
6.01,3.7,18.01,6.01,3.7,-0.301,0.301,-0.301,0.301;                   257P    312
128,1,1,1,1,0,0,1,0,0,-2.101,-2.101,2.101,2.101,-0.301,-0.301,       259P    313
0.301,0.301,1.,1.,1.,1.,42.01,-0.01,0.,-0.0099999999999989,          259P    314
-0.01,0.,42.01,6.01,0.,-0.0099999999999989,6.01,0.,-2.101,2.101,     259P    315
-0.301,0.301;                                                        259P    316
128,1,1,1,1,0,0,1,0,0,-0.001,-0.001,4.201,4.201,-0.001,-0.001,       261P    317
0.371,0.371,1.,1.,1.,1.,42.01,6.,-0.01,-0.0100000000000033,6.,       261P    318
-0.01,42.01,6.,3.71,-0.0100000000000033,6.,3.71,-0.001,4.201,        261P    319
-0.001,0.371;                                                        261P    320
128,1,1,1,1,0,0,1,0,0,-1.501,-1.501,-0.899,-0.899,-0.301,-0.301,     263P    321
0.301,0.301,1.,1.,1.,1.,5.99,-0.01,0.2,12.01,-0.01,0.2,5.99,         263P    322
6.01,0.2,12.01,6.01,0.2,-1.501,-0.899,-0.301,0.301;                  263P    323
128,1,1,1,1,0,0,1,0,0,-0.301,-0.301,0.301,0.301,-0.301,-0.301,       265P    324
0.301,0.301,1.,1.,1.,1.,17.99,-0.01,0.2,24.01,-0.01,0.2,17.99,       265P    325
6.01,0.2,24.01,6.01,0.2,-0.301,0.301,-0.301,0.301;                   265P    326
128,1,1,1,1,0,0,1,0,0,-0.001,-0.001,4.201,4.201,-0.001,-0.001,       267P    327
0.371,0.371,1.,1.,1.,1.,-0.01,0.,-0.01,42.01,0.,-0.01,-0.01,0.,      267P    328
3.71,42.01,0.,3.71,-0.001,4.201,-0.001,0.371;                        267P    329
128,1,1,1,1,0,0,1,0,0,-0.001,-0.001,0.601,0.601,0.019,0.019,         269P    330
0.371,0.371,1.,1.,1.,1.,6.,-0.01,0.19,6.,6.01,0.19,6.,-0.01,         269P    331
3.71,6.,6.01,3.71,-0.001,0.601,0.019,0.371;                          269P    332
128,1,1,1,1,0,0,1,0,0,-0.301,-0.301,0.301,0.301,-0.301,-0.301,       271P    333
0.301,0.301,1.,1.,1.,1.,-0.01,-0.01,3.7,6.01,-0.01,3.7,-0.01,        271P    334
6.01,3.7,6.01,6.01,3.7,-0.301,0.301,-0.301,0.301;                    271P    335
128,1,1,1,1,0,0,1,0,0,-0.001,-0.001,0.601,0.601,0.019,0.019,         273P    336
0.371,0.371,1.,1.,1.,1.,24.,6.01,0.19,24.,-0.01,0.19,24.,6.01,       273P    337
3.71,24.,-0.01,3.71,-0.001,0.601,0.019,0.371;                        273P    338
128,1,1,1,1,0,0,1,0,0,-0.001,-0.001,0.601,0.601,0.019,0.019,         275P    339
0.371,0.371,1.,1.,1.,1.,30.,-0.01,0.19,30.,6.01,0.19,30.,-0.01,      275P    340
3.71,30.,6.01,3.71,-0.001,0.601,0.019,0.371;                         275P    341
128,1,1,1,1,0,0,1,0,0,-0.301,-0.301,0.301,0.301,-0.301,-0.301,       277P    342
0.301,0.301,1.,1.,1.,1.,23.99,-0.01,3.7,30.01,-0.01,3.7,23.99,       277P    343
6.01,3.7,30.01,6.01,3.7,-0.301,0.301,-0.301,0.301;                   277P    344
128,1,1,1,1,0,0,1,0,0,0.899,0.899,1.501,1.501,-0.301,-0.301,         279P    345
0.301,0.301,1.,1.,1.,1.,29.99,-0.01,0.2,36.01,-0.01,0.2,29.99,       279P    346
6.01,0.2,36.01,6.01,0.2,0.899,1.501,-0.301,0.301;                    279P    347
128,1,1,1,1,0,0,1,0,0,-0.001,-0.001,0.601,0.601,0.019,0.019,         281P    348
0.371,0.371,1.,1.,1.,1.,36.,6.01,0.19,36.,-0.01,0.19,36.,6.01,       281P    349
3.71,36.,-0.01,3.71,-0.001,0.601,0.019,0.371;                        281P    350
128,1,1,1,1,0,0,1,0,0,-0.301,-0.301,0.301,0.301,-0.301,-0.301,       283P    351
0.301,0.301,1.,1.,1.,1.,35.99,-0.01,3.7,42.01,-0.01,3.7,35.99,       283P    352
6.01,3.7,42.01,6.01,3.7,-0.301,0.301,-0.301,0.301;                   283P    353
128,1,1,1,1,0,0,1,0,0,-0.001,-0.001,0.601,0.601,-0.001,-0.001,       285P    354
0.371,0.371,1.,1.,1.,1.,42.,-0.01,-0.01,42.,6.01,-0.01,42.,          285P    355
-0.01,3.71,42.,6.01,3.71,-0.001,0.601,-0.001,0.371;                  285P    356
128,1,1,1,1,0,0,1,0,0,-0.001,-0.001,0.601,0.601,-0.001,-0.001,       287P    357
0.371,0.371,1.,1.,1.,1.,0.,6.01,-0.01,0.,-0.01,-0.01,0.,6.01,        287P    358
3.71,0.,-0.01,3.71,-0.001,0.601,-0.001,0.371;                        287P    359
502,40,1.75,3.,5.7,1.75,3.,3.7,37.75,3.,5.7,37.75,3.,3.7,13.75,      289P    360
3.,5.7,13.75,3.,3.7,25.75,3.,5.7,25.75,3.,3.7,12.,0.,0.2,12.,6.,     289P    361
0.2,12.,0.,3.7,12.,6.,3.7,18.,6.,0.2,18.,0.,0.2,18.,6.,3.7,18.,      289P    362
0.,3.7,0.,0.,0.,42.,0.,0.,0.,6.,0.,42.,6.,0.,24.,6.,0.2,24.,6.,      289P    363
3.7,30.,6.,3.7,30.,6.,0.2,36.,6.,0.2,36.,6.,3.7,42.,6.,3.7,0.,       289P    364
6.,3.7,6.,6.,3.7,6.,6.,0.2,6.,0.,0.2,24.,0.,0.2,6.,0.,3.7,0.,0.,     289P    365
3.7,42.,0.,3.7,36.,0.,3.7,36.,0.,0.2,30.,0.,0.2,30.,0.,3.7,24.,      289P    366
0.,3.7;                                                              289P    367
504,60,117,289,1,289,1,119,289,1,289,2,121,289,2,289,2,123,289,      291P    368
3,289,3,125,289,3,289,4,127,289,4,289,4,129,289,5,289,5,131,289,     291P    369
5,289,6,133,289,6,289,6,135,289,7,289,7,137,289,7,289,8,139,289,     291P    370
8,289,8,141,289,9,289,10,143,289,9,289,11,145,289,12,289,11,147,     291P    371
289,10,289,12,149,289,13,289,14,151,289,13,289,15,153,289,16,        291P    372
289,15,155,289,14,289,16,157,289,15,289,12,159,289,11,289,16,        291P    373
161,289,17,289,18,163,289,19,289,17,165,289,20,289,19,167,289,       291P    374
18,289,20,169,289,21,289,13,171,289,21,289,22,173,289,23,289,22,     291P    375
175,289,24,289,23,177,289,25,289,24,179,289,25,289,26,181,289,       291P    376
27,289,26,183,289,20,289,27,185,289,19,289,28,187,289,29,289,28,     291P    377
189,289,30,289,29,191,289,10,289,30,193,289,30,289,31,195,289,       291P    378
31,289,9,197,289,14,289,32,199,289,32,289,21,201,289,31,289,33,      291P    379
203,289,34,289,33,205,289,17,289,34,207,289,18,289,35,209,289,       291P    380
36,289,35,211,289,37,289,36,213,289,38,289,37,215,289,38,289,39,     291P    381
217,289,40,289,39,219,289,32,289,40,221,289,33,289,29,223,289,       291P    382
28,289,34,225,289,22,289,40,227,289,24,289,38,229,289,39,289,23,     291P    383
231,289,37,289,25,233,289,26,289,36,235,289,35,289,27;               291P    384
406,1,5HBody2;                                                       293P    385
314,62.7450980392157,62.7450980392157,62.7450980392157,13HSteel      295P    386
- Satin;                                                             295P    387
S      1G      3D    296P    387                                        T      1
