0
SECTION
2
HEADER
9
$INSUNITS
70
4
9
$ACADVER
1
AC1014
9
$HANDSEED
5
FFFF
0
ENDSEC
0
SECTION
2
TABLES
0
TABLE
2
VPORT
5
8
100
AcDbSymbolTable
0
ENDTAB
0
TABLE
2
LTYPE
5
5
100
AcDbSymbolTable
0
LTYPE
5
14
100
AcDbSymbolTableRecord
100
AcDbLinetypeTableRecord
2
BYBLOCK
70
0
0
LTYPE
5
15
100
AcDbSymbolTableRecord
100
AcDbLinetypeTableRecord
2
BYLAYER
70
0
0
ENDTAB
0
TABLE
2
LAYER
5
2
100
AcDbSymbolTable
70
2
0
LAYER
5
50
100
AcDbSymbolTableRecord
100
AcDbLayerTableRecord
2
0
70
0
6
CONTINUOUS
0
ENDTAB
0
TABLE
2
STYLE
5
3
100
AcDbSymbolTable
70
1
0
STYLE
5
11
100
AcDbSymbolTableRecord
100
AcDbTextStyleTableRecord
2
STANDARD
70
0
0
ENDTAB
0
TABLE
2
VIEW
5
6
100
AcDbSymbolTable
70
0
0
ENDTAB
0
TABLE
2
UCS
5
7
100
AcDbSymbolTable
70
0
0
ENDTAB
0
TABLE
2
APPID
5
9
100
AcDbSymbolTable
70
2
0
APPID
5
12
100
AcDbSymbolTableRecord
100
AcDbRegAppTableRecord
2
ACAD
70
0
0
ENDTAB
0
TABLE
2
DIMSTYLE
5
A
100
AcDbSymbolTable
70
1
0
ENDTAB
0
TABLE
2
BLOCK_RECORD
5
1
100
AcDbSymbolTable
70
1
0
BLOCK_RECORD
5
1F
100
AcDbSymbolTableRecord
100
AcDbBlockTableRecord
2
*MODEL_SPACE
0
BLOCK_RECORD
5
1B
100
AcDbSymbolTableRecord
100
AcDbBlockTableRecord
2
*PAPER_SPACE
0
ENDTAB
0
ENDSEC
0
SECTION
2
BLOCKS
0
BLOCK
5
20
100
AcDbEntity
100
AcDbBlockBegin
2
*MODEL_SPACE
0
ENDBLK
5
21
100
AcDbEntity
100
AcDbBlockEnd
0
BLOCK
5
1C
100
AcDbEntity
100
AcDbBlockBegin
2
*PAPER_SPACE
0
ENDBLK
5
1D
100
AcDbEntity
100
AcDbBlockEnd
0
ENDSEC
0
SECTION
2
ENTITIES
0
SPLINE
5
100
100
AcDbEntity
8
0
100
AcDbSpline
70
4
71
3
72
8
73
4
74
0
42
0.000000001
43
0.0000000001
44
0.0000000001
40
0
40
0
40
0
40
0
40
1
40
1
40
1
40
1
41
1
41
1
41
1
41
1
10
-0.10224954908493955
20
93.077526394141927
30
0
10
-2.0224895010789403
20
92.396786567410416
30
0
10
-1.0830655636270392
20
90.553873986530107
30
0
10
-0.6724696129544383
20
90.214936543831669
30
0
0
SPLINE
5
101
100
AcDbEntity
8
0
100
AcDbSpline
70
4
71
3
72
8
73
4
74
0
42
0.000000001
43
0.0000000001
44
0.0000000001
40
0
40
0
40
0
40
0
40
1
40
1
40
1
40
1
41
1
41
1
41
1
41
1
10
-0.6724696129544383
20
90.214936543831669
30
0
10
-0.45533012814855001
20
90.035683489719247
30
0
10
-0.27622962286043773
20
88.575387172711032
30
0
10
-0.23812962381293823
20
88.454716587837169
30
0
0
SPLINE
5
102
100
AcDbEntity
8
0
100
AcDbSpline
70
4
71
3
72
8
73
4
74
0
42
0.000000001
43
0.0000000001
44
0.0000000001
40
0
40
0
40
0
40
0
40
1
40
1
40
1
40
1
41
1
41
1
41
1
41
1
10
-0.23812962381293823
20
88.454716587837169
30
0
10
-0.2228896241939371
20
88.293447179759539
30
0
10
-0.42716663861826265
20
87.465153200466887
30
0
10
-0.53025020440054749
20
87.354876027442558
30
0
0
SPLINE
5
103
100
AcDbEntity
8
0
100
AcDbSpline
70
4
71
3
72
8
73
4
74
0
42
0.000000001
43
0.0000000001
44
0.0000000001
40
0
40
0
40
0
40
0
40
1
40
1
40
1
40
1
41
1
41
1
41
1
41
1
10
-0.53025020440054749
20
87.354876027442558
30
0
10
-0.87095572517978503
20
87.612371001473946
30
0
10
-1.4090802605547958
20
88.721416581169663
30
0
10
-1.4036547313935599
20
89.0582815922793
30
0
0
SPLINE
5
104
100
AcDbEntity
8
0
100
AcDbSpline
70
4
71
3
72
8
73
4
74
0
42
0.000000001
43
0.0000000001
44
0.0000000001
40
0
40
0
40
0
40
0
40
1
40
1
40
1
40
1
41
1
41
1
41
1
41
1
10
-1.4036547313935599
20
89.0582815922793
30
0
10
-0.90107035138004443
20
88.599496584217675
30
0
10
-0.58800965412843742
20
88.911855556877441
30
0
10
-0.92615533122166971
20
89.733931497263058
30
0
0
SPLINE
5
105
100
AcDbEntity
8
0
100
AcDbSpline
70
4
71
3
72
8
73
4
74
0
42
0.000000001
43
0.0000000001
44
0.0000000001
40
0
40
0
40
0
40
0
40
1
40
1
40
1
40
1
41
1
41
1
41
1
41
1
10
-0.92615533122166971
20
89.733931497263058
30
0
10
-1.2744503420455444
20
90.580696534687661
30
0
10
-1.6249703332825449
20
90.222556543641176
30
0
10
-1.7592348787540557
20
89.942201570181311
30
0
0
SPLINE
5
106
100
AcDbEntity
8
0
100
AcDbSpline
70
4
71
3
72
8
73
4
74
0
42
0.000000001
43
0.0000000001
44
0.0000000001
40
0
40
0
40
0
40
0
40
1
40
1
40
1
40
1
41
1
41
1
41
1
41
1
10
-1.7592348787540557
20
89.942201570181311
30
0
10
-2.1202703209000449
20
90.100636546689174
30
0
10
-2.5060253698499189
20
90.932801545416297
30
0
10
-2.5415952908356712
20
91.303620948255173
30
0
0
SPLINE
5
107
100
AcDbEntity
8
0
100
AcDbSpline
70
4
71
3
72
8
73
4
74
0
42
0.000000001
43
0.0000000001
44
0.0000000001
40
0
40
0
40
0
40
0
40
1
40
1
40
1
40
1
41
1
41
1
41
1
41
1
10
-2.5415952908356712
20
91.303620948255173
30
0
10
-2.3079050027326153
20
91.146161540082304
30
0
10
-2.0945450080666159
20
90.826121548083293
30
0
10
-1.5967153144576696
20
90.876900958923187
30
0
0
SPLINE
5
108
100
AcDbEntity
8
0
100
AcDbSpline
70
4
71
3
72
8
73
4
74
0
42
0.000000001
43
0.0000000001
44
0.0000000001
40
0
40
0
40
0
40
0
40
1
40
1
40
1
40
1
41
1
41
1
41
1
41
1
10
-1.5967153144576696
20
90.876900958923187
30
0
10
-1.6018052362054225
20
91.806540935682193
30
0
10
-2.470455076793864
20
91.831961522937306
30
0
10
-2.470455076793864
20
91.903071599284544
30
0
0
SPLINE
5
109
100
AcDbEntity
8
0
100
AcDbSpline
70
0
71
2
72
6
73
3
74
0
42
0.000000001
43
0.0000000001
44
0.0000000001
40
0
40
0
40
0
40
1
40
1
40
1
10
-2.470455076793864
20
91.903071599284544
30
0
10
-2.470455076793864
20
92.11231649639717
30
0
10
-1.7313150952723633
20
92.992731572043041
30
0
0
SPLINE
5
110
100
AcDbEntity
8
0
100
AcDbSpline
70
4
71
3
72
8
73
4
74
0
42
0.000000001
43
0.0000000001
44
0.0000000001
40
0
40
0
40
0
40
0
40
1
40
1
40
1
40
1
41
1
41
1
41
1
41
1
10
-1.7313150952723633
20
92.992731572043041
30
0
10
-1.7291206246240998
20
94.598966512355929
30
0
10
-1.6580105482768515
20
93.471206540549915
30
0
10
-1.0683747397755605
20
93.559141636007794
30
0
0
SPLINE
5
111
100
AcDbEntity
8
0
100
AcDbSpline
70
0
71
2
72
6
73
3
74
0
42
0.000000001
43
0.0000000001
44
0.0000000001
40
0
40
0
40
0
40
1
40
1
40
1
10
-1.0683747397755605
20
93.559141636007794
30
0
10
-0.87025474472855913
20
93.804261551754792
30
0
10
-0.10096962724193803
20
94.390696439437676
30
0
0
SPLINE
5
112
100
AcDbEntity
8
0
100
AcDbSpline
70
0
71
2
72
6
73
3
74
0
42
0.000000001
43
0.0000000001
44
0.0000000001
40
0
40
0
40
0
40
1
40
1
40
1
10
-0.10096962724193803
20
94.390696439437676
30
0
10
0.74485035161256263
20
93.807766454010917
30
0
10
0.94297034665956181
20
93.56264653826392
30
0
0
SPLINE
5
113
100
AcDbEntity
8
0
100
AcDbSpline
70
4
71
3
72
8
73
4
74
0
42
0.000000001
43
0.0000000001
44
0.0000000001
40
0
40
0
40
0
40
0
40
1
40
1
40
1
40
1
41
1
41
1
41
1
41
1
10
0.94297034665956181
20
93.56264653826392
30
0
10
1.4763703333245626
20
93.582976459630657
30
0
10
1.6084709179126733
20
94.400846517308921
30
0
10
1.6059103300860633
20
92.996236474299181
30
0
0
SPLINE
5
114
100
AcDbEntity
8
0
100
AcDbSpline
70
0
71
2
72
6
73
3
74
0
42
0.000000001
43
0.0000000001
44
0.0000000001
40
0
40
0
40
0
40
1
40
1
40
1
10
1.6059103300860633
20
92.996236474299181
30
0
10
2.3450503116075638
20
92.089456496968666
30
0
10
2.3450503116075638
20
91.967536500016678
30
0
0
SPLINE
5
115
100
AcDbEntity
8
0
100
AcDbSpline
70
4
71
3
72
8
73
4
74
0
42
0.000000001
43
0.0000000001
44
0.0000000001
40
0
40
0
40
0
40
0
40
1
40
1
40
1
40
1
41
1
41
1
41
1
41
1
10
2.3450503116075638
20
91.967536500016678
30
0
10
2.3450503116075638
20
91.896426423669425
30
0
10
1.506880842327426
20
91.738936505731658
30
0
10
1.5017909205796731
20
90.809296528972681
30
0
0
SPLINE
5
116
100
AcDbEntity
8
0
100
AcDbSpline
70
4
71
3
72
8
73
4
74
0
42
0.000000001
43
0.0000000001
44
0.0000000001
40
0
40
0
40
0
40
0
40
1
40
1
40
1
40
1
41
1
41
1
41
1
41
1
10
1.5017909205796731
20
90.809296528972681
30
0
10
1.999620986258922
20
90.758486608367917
30
0
10
2.3044209786389214
20
91.180146441576426
30
0
10
2.5381108946716746
20
91.337606593889916
30
0
0
SPLINE
5
117
100
AcDbEntity
8
0
100
AcDbSpline
70
4
71
3
72
8
73
4
74
0
42
0.000000001
43
0.0000000001
44
0.0000000001
40
0
40
0
40
0
40
0
40
1
40
1
40
1
40
1
41
1
41
1
41
1
41
1
10
2.5381108946716746
20
91.337606593889916
30
0
10
2.5025409736859228
20
90.966787191051026
30
0
10
1.9285109099116737
20
89.884716708337166
30
0
10
1.750690326466563
20
89.74249655564266
30
0
0
SPLINE
5
118
100
AcDbEntity
8
0
100
AcDbSpline
70
4
71
3
72
8
73
4
74
0
42
0.000000001
43
0.0000000001
44
0.0000000001
40
0
40
0
40
0
40
0
40
1
40
1
40
1
40
1
41
1
41
1
41
1
41
1
10
1.750690326466563
20
89.74249655564266
30
0
10
1.506880842327426
20
90.270806620559924
30
0
10
1.1868103405635622
20
90.651806611034914
30
0
10
0.74994027336031444
20
89.447846641133921
30
0
0
SPLINE
5
119
100
AcDbEntity
8
0
100
AcDbSpline
70
4
71
3
72
8
73
4
74
0
42
0.000000001
43
0.0000000001
44
0.0000000001
40
0
40
0
40
0
40
0
40
1
40
1
40
1
40
1
41
1
41
1
41
1
41
1
10
0.74994027336031444
20
89.447846641133921
30
0
10
0.23437138390578705
20
88.026991264545927
30
0
10
0.90736917176834186
20
87.918756757486165
30
0
10
1.1258503420875632
20
87.928936600981672
30
0
0
SPLINE
5
120
100
AcDbEntity
8
0
100
AcDbSpline
70
4
71
3
72
8
73
4
74
0
42
0.000000001
43
0.0000000001
44
0.0000000001
40
0
40
0
40
0
40
0
40
1
40
1
40
1
40
1
41
1
41
1
41
1
41
1
10
1.1258503420875632
20
87.928936600981672
30
0
10
0.37909036075656211
20
87.174556619841169
30
0
10
0.54167094458267284
20
86.018846726858911
30
0
10
0.27750028517131375
20
85.759766733335923
30
0
0
SPLINE
5
121
100
AcDbEntity
8
0
100
AcDbSpline
70
4
71
3
72
8
73
4
74
0
42
0.000000001
43
0.0000000001
44
0.0000000001
40
0
40
0
40
0
40
0
40
1
40
1
40
1
40
1
41
1
41
1
41
1
41
1
10
0.27750028517131375
20
85.759766733335923
30
0
10
0.18097036570956182
20
86.209316212331558
30
0
10
0.17078977807345241
20
89.874597140230776
30
0
10
0.54673035656556346
20
90.230176543450668
30
0
0
SPLINE
5
122
100
AcDbEntity
8
0
100
AcDbSpline
70
4
71
3
72
8
73
4
74
0
42
0.000000001
43
0.0000000001
44
0.0000000001
40
0
40
0
40
0
40
0
40
1
40
1
40
1
40
1
41
1
41
1
41
1
41
1
10
0.54673035656556346
20
90.230176543450668
30
0
10
0.9334907394746772
20
90.596028063601253
30
0
10
1.8180209126739233
20
92.396786567410416
30
0
10
-0.10224954908493955
20
93.077526394141927
30
0
0
SPLINE
5
123
100
AcDbEntity
8
0
100
AcDbSpline
70
0
71
2
72
6
73
3
74
0
42
0.000000001
43
0.0000000001
44
0.0000000001
40
0
40
0
40
0
40
1
40
1
40
1
10
-0.084906608112262916
20
90.397816539259679
30
0
10
-0.13906962628943753
20
90.743246608748919
30
0
10
-0.38290962019343788
20
91.149666442338429
30
0
0
SPLINE
5
124
100
AcDbEntity
8
0
100
AcDbSpline
70
4
71
3
72
8
73
4
74
0
42
0.000000001
43
0.0000000001
44
0.0000000001
40
0
40
0
40
0
40
0
40
1
40
1
40
1
40
1
41
1
41
1
41
1
41
1
10
-0.38290962019343788
20
91.149666442338429
30
0
10
-0.57365369354983597
20
91.467572983218886
30
0
10
-0.70593659258651353
20
91.509970394268322
30
0
10
-0.64890863307471291
20
91.594156509351166
30
0
0
SPLINE
5
125
100
AcDbEntity
8
0
100
AcDbSpline
70
4
71
3
72
8
73
4
74
0
42
0.000000001
43
0.0000000001
44
0.0000000001
40
0
40
0
40
0
40
0
40
1
40
1
40
1
40
1
41
1
41
1
41
1
41
1
10
-0.64890863307471291
20
91.594156509351166
30
0
10
-0.42683103120477739
20
91.921816501159682
30
0
10
-0.38647554197928979
20
91.857839012524749
30
0
10
-0.11980605841165226
20
92.224086415477927
30
0
0
LINE
5
126
100
AcDbEntity
8
0
100
AcDbLine
10
-0.11980605841165237
20
92.224086415477927
30
0
11
-0.050007157812874688
21
92.257096492777677
31
0
0
SPLINE
5
127
100
AcDbEntity
8
0
100
AcDbSpline
70
0
71
2
72
6
73
3
74
0
42
0.000000001
43
0.0000000001
44
0.0000000001
40
0
40
0
40
0
40
1
40
1
40
1
10
-0.050007157812874681
20
92.257096492777677
30
0
10
0.41517820360436719
20
91.827846425383925
30
0
10
0.49890741635488678
20
91.599246431098919
30
0
0
SPLINE
5
128
100
AcDbEntity
8
0
100
AcDbSpline
70
4
71
3
72
8
73
4
74
0
42
0.000000001
43
0.0000000001
44
0.0000000001
40
0
40
0
40
0
40
0
40
1
40
1
40
1
40
1
41
1
41
1
41
1
41
1
10
0.49890741635488678
20
91.599246431098919
30
0
10
0.53453835687036322
20
91.502046040950802
30
0
10
0.36866643914216013
20
91.289356516971182
30
0
10
0.24769150076028423
20
91.070905856416829
30
0
0
SPLINE
5
129
100
AcDbEntity
8
0
100
AcDbSpline
70
4
71
3
72
8
73
4
74
0
42
0.000000001
43
0.0000000001
44
0.0000000001
40
0
40
0
40
0
40
0
40
1
40
1
40
1
40
1
41
1
41
1
41
1
41
1
10
0.24769150076028423
20
91.070905856416829
30
0
10
0.11303107248616939
20
90.827705823434314
30
0
10
0.067890015020946048
20
90.591485829339831
30
0
10
-0.036503982369203714
20
90.445913323213489
30
0
0
LINE
5
130
100
AcDbEntity
8
0
100
AcDbLine
10
-0.03650398236920372
20
90.445913323213489
30
0
11
-0.084906608112262916
21
90.397816539259679
31
0
0
ENDSEC
0
SECTION
2
OBJECTS
0
DICTIONARY
5
C
100
AcDbDictionary
3
ACAD_GROUP
350
D
3
ACAD_MLINESTYLE
350
17
0
DICTIONARY
5
D
100
AcDbDictionary
0
DICTIONARY
5
1A
330
C
100
AcDbDictionary
0
DICTIONARY
5
17
100
AcDbDictionary
0
ENDSEC
0
EOF
