                                                                        S      1
,,18HHager Rail Safe v1,18HHager Rail Safe v1,7Hunknown,7Hunknown,32,38,G      1
7,99,15,,1.,2,2HMM,1,0.08,15H20220922.115030,0.01,10000.,7Hunknown,7HunkG      2
nown,11,0,15H20220625.152052;                                           G      3
     186       1                                                00000000D      1
     186            -119       1       0                               0D      2
     514       2                                                00010000D      3
     514                       1       1                               0D      4
     510       3                                                00010000D      5
     510            -119       1       1                               0D      6
     510       4                                                00010000D      7
     510            -119       1       1                               0D      8
     510       5                                                00010000D      9
     510            -119       1       1                               0D     10
     510       6                                                00010000D     11
     510            -119       1       1                               0D     12
     510       7                                                00010000D     13
     510            -119       1       1                               0D     14
     510       8                                                00010000D     15
     510            -119       1       1                               0D     16
     510       9                                                00010000D     17
     510            -119       1       1                               0D     18
     510      10                                                00010000D     19
     510            -119       1       1                               0D     20
     510      11                                                00010000D     21
     510            -119       1       1                               0D     22
     510      12                                                00010000D     23
     510            -119       1       1                               0D     24
     508      13                                                00010000D     25
     508                       1       1                               0D     26
     508      14                                                00010000D     27
     508                       1       1                               0D     28
     508      15                                                00010000D     29
     508                       2       1                               0D     30
     508      17                                                00010000D     31
     508                       1       1                               0D     32
     508      18                                                00010000D     33
     508                       1       1                               0D     34
     508      19                                                00010000D     35
     508                       1       1                               0D     36
     508      20                                                00010000D     37
     508                       2       1                               0D     38
     508      22                                                00010000D     39
     508                       1       1                               0D     40
     508      23                                                00010000D     41
     508                       1       1                               0D     42
     508      24                                                00010000D     43
     508                       1       1                               0D     44
     126      25                                                00010000D     45
     126       0               3       0                               0D     46
     126      28                                                00010000D     47
     126       0               2       0                               0D     48
     126      30                                                00010000D     49
     126       0               2       0                               0D     50
     126      32                                                00010000D     51
     126       0               2       0                               0D     52
     126      34                                                00010000D     53
     126       0               2       0                               0D     54
     126      36                                                00010000D     55
     126       0               2       0                               0D     56
     126      38                                                00010000D     57
     126       0               2       0                               0D     58
     126      40                                                00010000D     59
     126       0               2       0                               0D     60
     126      42                                                00010000D     61
     126       0               2       0                               0D     62
     126      44                                                00010000D     63
     126       0               2       0                               0D     64
     126      46                                                00010000D     65
     126       0               2       0                               0D     66
     126      48                                                00010000D     67
     126       0               2       0                               0D     68
     126      50                                                00010000D     69
     126       0               2       0                               0D     70
     126      52                                                00010000D     71
     126       0               2       0                               0D     72
     126      54                                                00010000D     73
     126       0               3       0                               0D     74
     126      57                                                00010000D     75
     126       0               2       0                               0D     76
     126      59                                                00010000D     77
     126       0               2       0                               0D     78
     126      61                                                00010000D     79
     126       0               3       0                               0D     80
     126      64                                                00010000D     81
     126       0               2       0                               0D     82
     126      66                                                00010000D     83
     126       0               2       0                               0D     84
     126      68                                                00010000D     85
     126       0               2       0                               0D     86
     126      70                                                00010000D     87
     126       0               2       0                               0D     88
     126      72                                                00010000D     89
     126       0               2       0                               0D     90
     126      74                                                00010000D     91
     126       0               2       0                               0D     92
     128      76                                                00010000D     93
     128       0    -119       4       0                               0D     94
     128      80                                                00010000D     95
     128       0    -119       5       0                               0D     96
     128      85                                                00010000D     97
     128       0    -119       3       0                               0D     98
     128      88                                                00010000D     99
     128       0    -119       5       0                               0D    100
     128      93                                                00010000D    101
     128       0    -119       5       0                               0D    102
     128      98                                                00010000D    103
     128       0    -119       5       0                               0D    104
     128     103                                                00010000D    105
     128       0    -119       3       0                               0D    106
     128     106                                                00010000D    107
     128       0    -119       4       0                               0D    108
     128     110                                                00010000D    109
     128       0    -119       5       0                               0D    110
     128     115                                                00010000D    111
     128       0    -119       5       0                               0D    112
     502     120                                                00010000D    113
     502                       5       1                               0D    114
     504     125                                                00010001D    115
     504                       7       1                               0D    116
     406     132                                                00000000D    117
     406                       1      15                               0D    118
     314     133                                                00000200D    119
     314                       2       0                               0D    120
186,3,1,0,0,1,117;                                                     1P      1
514,10,5,1,7,1,9,1,11,1,13,1,15,1,17,1,19,1,21,1,23,1;                 3P      2
510,93,1,1,25;                                                         5P      3
510,95,1,1,27;                                                         7P      4
510,97,1,1,29;                                                         9P      5
510,99,1,1,31;                                                        11P      6
510,101,1,1,33;                                                       13P      7
510,103,1,1,35;                                                       15P      8
510,105,1,1,37;                                                       17P      9
510,107,1,1,39;                                                       19P     10
510,109,1,1,41;                                                       21P     11
510,111,1,1,43;                                                       23P     12
508,4,0,115,1,0,0,0,115,2,1,0,0,115,3,0,0,0,115,4,0,0;                25P     13
508,4,0,115,5,1,0,0,115,3,1,0,0,115,6,1,0,0,115,7,1,0;                27P     14
508,8,0,115,8,0,0,0,115,9,1,0,0,115,10,0,0,0,115,11,0,0,0,115,        29P     15
12,1,0,0,115,13,1,0,0,115,6,0,0,0,115,2,0,0;                          29P     16
508,4,0,115,1,1,0,0,115,14,1,0,0,115,15,1,0,0,115,8,1,0;              31P     17
508,4,0,115,15,0,0,0,115,16,1,0,0,115,17,0,0,0,115,9,0,0;             33P     18
508,4,0,115,18,1,0,0,115,10,1,0,0,115,17,1,0,0,115,19,1,0;            35P     19
508,8,0,115,20,1,0,0,115,21,1,0,0,115,19,0,0,0,115,16,0,0,0,115,      37P     20
14,0,0,0,115,4,1,0,0,115,5,0,0,0,115,22,0,0;                          37P     21
508,4,0,115,23,0,0,0,115,11,1,0,0,115,18,0,0,0,115,21,0,0;            39P     22
508,4,0,115,24,1,0,0,115,22,1,0,0,115,7,0,0,0,115,13,0,0;             41P     23
508,4,0,115,12,0,0,0,115,23,1,0,0,115,20,0,0,0,115,24,0,0;            43P     24
126,1,1,0,0,1,0,-6.52500009723008,-6.52500009723008,                  45P     25
2.17500003241003,2.17500003241003,1.,1.,87.000001296401,1.4,1.4,      45P     26
0.,1.4,1.4,-6.52500009723008,2.17500003241003,0.,0.,0.;               45P     27
126,1,1,0,0,1,0,0.14,0.14,1.1,1.1,1.,1.,87.000001296401,1.4,1.4,      47P     28
87.000001296401,1.4,11.,0.14,1.1,0.,0.,0.;                            47P     29
126,1,1,0,0,1,0,0.,0.,8.7000001296401,8.7000001296401,1.,1.,0.,       49P     30
1.4,11.,87.000001296401,1.4,11.,0.,8.7000001296401,0.,0.,0.;          49P     31
126,1,1,0,0,1,0,0.14,0.14,1.1,1.1,1.,1.,0.,1.4,1.4,0.,1.4,11.,        51P     32
0.14,1.1,0.,0.,0.;                                                    51P     33
126,1,1,0,0,1,0,0.,0.,0.14,0.14,1.,1.,0.,2.8,11.,0.,1.4,11.,0.,       53P     34
0.14,0.,0.,0.;                                                        53P     35
126,1,1,0,0,1,0,0.,0.,0.14,0.14,1.,1.,87.000001296401,1.4,11.,        55P     36
87.000001296401,2.8,11.,0.,0.14,0.,0.,0.;                             55P     37
126,1,1,0,0,1,0,0.,0.,8.7000001296401,8.7000001296401,1.,1.,          57P     38
87.000001296401,2.8,11.,0.,2.8,11.,0.,8.7000001296401,0.,0.,0.;       57P     39
126,1,1,0,0,1,0,0.,0.,0.14,0.14,1.,1.,87.,0.,1.4,87.,1.4,1.4,0.,      59P     40
0.14,0.,0.,0.;                                                        59P     41
126,1,1,0,0,1,0,0.14,0.14,1.1,1.1,1.,1.,87.000001296401,0.,1.4,       61P     42
87.000001296401,0.,11.,0.14,1.1,0.,0.,0.;                             61P     43
126,1,1,0,0,1,0,-0.14,-0.14,0.,0.,1.,1.,87.000001296401,-1.4,         63P     44
11.,87.000001296401,0.,11.,-0.14,0.,0.,0.,0.;                         63P     45
126,1,1,0,0,1,0,0.,0.,1.1,1.1,1.,1.,87.000001296401,-1.4,0.,          65P     46
87.000001296401,-1.4,11.,0.,1.1,0.,0.,0.;                             65P     47
126,1,1,0,0,1,0,-0.14,-0.14,0.28,0.28,1.,1.,87.,-1.4,0.,87.,2.8,      67P     48
0.,-0.14,0.28,0.,0.,0.;                                               67P     49
126,1,1,0,0,1,0,0.,0.,1.1,1.1,1.,1.,87.000001296401,2.8,0.,           69P     50
87.000001296401,2.8,11.,0.,1.1,0.,0.,0.;                              69P     51
126,1,1,0,0,1,0,0.14,0.14,0.28,0.28,1.,1.,0.,1.4,1.4,0.,0.,1.4,       71P     52
0.14,0.28,0.,0.,0.;                                                   71P     53
126,1,1,0,0,1,0,-6.52500009723008,-6.52500009723008,                  73P     54
2.17499990276992,2.17499990276992,1.,1.,0.,0.,1.4,87.,0.,1.4,         73P     55
-6.52500009723008,2.17499990276992,0.,0.,0.;                          73P     56
126,1,1,0,0,1,0,0.14,0.14,1.1,1.1,1.,1.,0.,0.,1.4,0.,0.,11.,          75P     57
0.14,1.1,0.,0.,0.;                                                    75P     58
126,1,1,0,0,1,0,-8.7000001296401,-8.7000001296401,0.,0.,1.,1.,        77P     59
87.000001296401,0.,11.,0.,0.,11.,-8.7000001296401,0.,0.,0.,0.;        77P     60
126,1,1,0,0,1,0,-8.7000001296401,-8.7000001296401,0.,0.,1.,1.,        79P     61
0.,-1.4,11.,87.000001296401,-1.4,11.,-8.7000001296401,0.,0.,0.,       79P     62
0.;                                                                   79P     63
126,1,1,0,0,1,0,-0.14,-0.14,0.,0.,1.,1.,0.,0.,11.,0.,-1.4,11.,        81P     64
-0.14,0.,0.,0.,0.;                                                    81P     65
126,1,1,0,0,1,0,0.,0.,0.42,0.42,1.,1.,0.,2.8,0.,0.,-1.4,0.,0.,        83P     66
0.42,0.,0.,0.;                                                        83P     67
126,1,1,0,0,1,0,0.,0.,1.1,1.1,1.,1.,0.,-1.4,0.,0.,-1.4,11.,0.,        85P     68
1.1,0.,0.,0.;                                                         85P     69
126,1,1,0,0,1,0,0.,0.,1.1,1.1,1.,1.,0.,2.8,0.,0.,2.8,11.,0.,1.1,      87P     70
0.,0.,0.;                                                             87P     71
126,1,1,0,0,1,0,0.,0.,8.7000001296401,8.7000001296401,1.,1.,          89P     72
87.000001296401,-1.4,0.,0.,-1.4,0.,0.,8.7000001296401,0.,0.,0.;       89P     73
126,1,1,0,0,1,0,0.,0.,8.7000001296401,8.7000001296401,1.,1.,          91P     74
87.000001296401,2.8,0.,0.,2.8,0.,0.,8.7000001296401,0.,0.,0.;         91P     75
128,1,1,1,1,0,0,1,0,0,-0.001,-0.001,8.7010001296401,                  93P     76
8.7010001296401,0.139,0.139,1.101,1.101,1.,1.,1.,1.,-0.01,1.4,        93P     77
1.39,87.010001296401,1.4,1.39,-0.01,1.4,11.01,87.010001296401,        93P     78
1.4,11.01,-0.001,8.7010001296401,0.139,1.101;                         93P     79
128,1,1,1,1,0,0,1,0,0,-4.35100006482005,-4.35100006482005,            95P     80
4.35100006482005,4.35100006482005,-0.071,-0.071,0.071,0.071,1.,       95P     81
1.,1.,1.,-0.0100000000000033,1.39,11.,87.010001296401,1.39,11.,       95P     82
-0.0100000000000033,2.81,11.,87.010001296401,2.81,11.,                95P     83
-4.35100006482005,4.35100006482005,-0.071,0.071;                      95P     84
128,1,1,1,1,0,0,1,0,0,-0.001,-0.001,0.421,0.421,-0.001,-0.001,        97P     85
1.101,1.101,1.,1.,1.,1.,87.,-1.41,-0.01,87.,2.81,-0.01,87.,           97P     86
-1.41,11.01,87.,2.81,11.01,-0.001,0.421,-0.001,1.101;                 97P     87
128,1,1,1,1,0,0,1,0,0,-4.35100006482005,-4.35100006482005,            99P     88
4.35100006482005,4.35100006482005,-0.071,-0.071,0.071,0.071,1.,       99P     89
1.,1.,1.,-0.0100000000000033,-0.01,1.4,87.010001296401,-0.01,         99P     90
1.4,-0.0100000000000033,1.41,1.4,87.010001296401,1.41,1.4,            99P     91
-4.35100006482005,4.35100006482005,-0.071,0.071;                      99P     92
128,1,1,1,1,0,0,1,0,0,-0.001,-0.001,8.7010001296401,                 101P     93
8.7010001296401,0.139,0.139,1.101,1.101,1.,1.,1.,1.,                 101P     94
87.010001296401,0.,1.39,-0.00999999999999446,0.,1.39,                101P     95
87.010001296401,0.,11.01,-0.00999999999999446,0.,11.01,-0.001,       101P     96
8.7010001296401,0.139,1.101;                                         101P     97
128,1,1,1,1,0,0,1,0,0,-4.35100006482005,-4.35100006482005,           103P     98
4.35100006482005,4.35100006482005,-0.071,-0.071,0.071,0.071,1.,      103P     99
1.,1.,1.,-0.0100000000000033,-1.41,11.,87.010001296401,-1.41,        103P    100
11.,-0.0100000000000033,0.01,11.,87.010001296401,0.01,11.,           103P    101
-4.35100006482005,4.35100006482005,-0.071,0.071;                     103P    102
128,1,1,1,1,0,0,1,0,0,-0.001,-0.001,0.421,0.421,-0.001,-0.001,       105P    103
1.101,1.101,1.,1.,1.,1.,0.,2.81,-0.01,0.,-1.41,-0.01,0.,2.81,        105P    104
11.01,0.,-1.41,11.01,-0.001,0.421,-0.001,1.101;                      105P    105
128,1,1,1,1,0,0,1,0,0,-0.001,-0.001,8.7010001296401,                 107P    106
8.7010001296401,-0.001,-0.001,1.101,1.101,1.,1.,1.,1.,-0.01,         107P    107
-1.4,-0.01,87.010001296401,-1.4,-0.01,-0.01,-1.4,11.01,              107P    108
87.010001296401,-1.4,11.01,-0.001,8.7010001296401,-0.001,1.101;      107P    109
128,1,1,1,1,0,0,1,0,0,-0.001,-0.001,8.7010001296401,                 109P    110
8.7010001296401,-0.001,-0.001,1.101,1.101,1.,1.,1.,1.,               109P    111
87.010001296401,2.8,-0.01,-0.00999999999999446,2.8,-0.01,            109P    112
87.010001296401,2.8,11.01,-0.00999999999999446,2.8,11.01,-0.001,     109P    113
8.7010001296401,-0.001,1.101;                                        109P    114
128,1,1,1,1,0,0,1,0,0,-4.35100006482005,-4.35100006482005,           111P    115
4.35100006482005,4.35100006482005,-0.211,-0.211,0.211,0.211,1.,      111P    116
1.,1.,1.,87.010001296401,-1.41,0.,-0.0100000000000033,-1.41,0.,      111P    117
87.010001296401,2.81,0.,-0.0100000000000033,2.81,0.,                 111P    118
-4.35100006482005,4.35100006482005,-0.211,0.211;                     111P    119
502,16,87.000001296401,1.4,1.4,0.,1.4,1.4,87.000001296401,1.4,       113P    120
11.,0.,1.4,11.,0.,2.8,11.,87.000001296401,2.8,11.,87.,0.,1.4,        113P    121
87.000001296401,0.,11.,87.000001296401,-1.4,11.,87.000001296401,     113P    122
-1.4,0.,87.000001296401,2.8,0.,0.,0.,1.4,0.,0.,11.,0.,-1.4,11.,      113P    123
0.,2.8,0.,0.,-1.4,0.;                                                113P    124
504,24,45,113,1,113,2,47,113,1,113,3,49,113,4,113,3,51,113,2,        115P    125
113,4,53,113,5,113,4,55,113,3,113,6,57,113,6,113,5,59,113,7,113,     115P    126
1,61,113,7,113,8,63,113,9,113,8,65,113,10,113,9,67,113,10,113,       115P    127
11,69,113,11,113,6,71,113,2,113,12,73,113,12,113,7,75,113,12,        115P    128
113,13,77,113,8,113,13,79,113,14,113,9,81,113,13,113,14,83,113,      115P    129
15,113,16,85,113,16,113,14,87,113,15,113,5,89,113,10,113,16,91,      115P    130
113,11,113,15;                                                       115P    131
406,1,5HBody1;                                                       117P    132
314,62.7450980392157,62.7450980392157,62.7450980392157,13HSteel      119P    133
- Satin;                                                             119P    134
S      1G      3D    120P    134                                        T      1
