                                                                        S      1
,,38HCyclone - Cyclone to Vacuum Adapter v8,37HCyclone  Cyclone to VacuuG      1
m Adapter v8,7Hunknown,7Hunknown,32,38,7,99,15,,1.,2,2HMM,1,0.08,15H2022G      2
0922.114929,0.01,10000.,7Hunknown,7Hunknown,11,0,15H20191003.180429;    G      3
     186       1                                                00000000D      1
     186            -155       1       0                               0D      2
     514       2                                                00010000D      3
     514                       1       1                               0D      4
     510       3                                                00010000D      5
     510            -155       1       1                               0D      6
     510       4                                                00010000D      7
     510            -155       1       1                               0D      8
     510       5                                                00010000D      9
     510            -155       1       1                               0D     10
     510       6                                                00010000D     11
     510            -155       1       1                               0D     12
     510       7                                                00010000D     13
     510            -155       1       1                               0D     14
     510       8                                                00010000D     15
     510            -155       1       1                               0D     16
     510       9                                                00010000D     17
     510            -155       1       1                               0D     18
     510      10                                                00010000D     19
     510            -155       1       1                               0D     20
     510      11                                                00010000D     21
     510            -155       1       1                               0D     22
     510      12                                                00010000D     23
     510            -155       1       1                               0D     24
     510      13                                                00010000D     25
     510            -155       1       1                               0D     26
     510      14                                                00010000D     27
     510            -155       1       1                               0D     28
     508      15                                                00010000D     29
     508                       1       1                               0D     30
     508      16                                                00010000D     31
     508                       2       1                               0D     32
     508      18                                                00010000D     33
     508                       1       1                               0D     34
     508      19                                                00010000D     35
     508                       1       1                               0D     36
     508      20                                                00010000D     37
     508                       1       1                               0D     38
     508      21                                                00010000D     39
     508                       2       1                               0D     40
     508      23                                                00010000D     41
     508                       1       1                               0D     42
     508      24                                                00010000D     43
     508                       1       1                               0D     44
     508      25                                                00010000D     45
     508                       2       1                               0D     46
     508      27                                                00010000D     47
     508                       1       1                               0D     48
     508      28                                                00010000D     49
     508                       2       1                               0D     50
     508      30                                                00010000D     51
     508                       1       1                               0D     52
     508      31                                                00010000D     53
     508                       2       1                               0D     54
     508      33                                                00010000D     55
     508                       1       1                               0D     56
     508      34                                                00010000D     57
     508                       1       1                               0D     58
     508      35                                                00010000D     59
     508                       1       1                               0D     60
     126      36                                                00010000D     61
     126       0              10       0                               0D     62
     126      46                                                00010000D     63
     126       0               3       0                               0D     64
     126      49                                                00010000D     65
     126       0              10       0                               0D     66
     126      59                                                00010000D     67
     126       0               4       0                               0D     68
     126      63                                                00010000D     69
     126       0              18       0                               0D     70
     126      81                                                00010000D     71
     126       0              16       0                               0D     72
     126      97                                                00010000D     73
     126       0               3       0                               0D     74
     126     100                                                00010000D     75
     126       0              10       0                               0D     76
     126     110                                                00010000D     77
     126       0              31       0                               0D     78
     126     141                                                00010000D     79
     126       0              54       0                               0D     80
     126     195                                                00010000D     81
     126       0              10       0                               0D     82
     126     205                                                00010000D     83
     126       0               3       0                               0D     84
     126     208                                                00010000D     85
     126       0              10       0                               0D     86
     126     218                                                00010000D     87
     126       0              10       0                               0D     88
     126     228                                                00010000D     89
     126       0               2       0                               0D     90
     126     230                                                00010000D     91
     126       0              10       0                               0D     92
     126     240                                                00010000D     93
     126       0               2       0                               0D     94
     126     242                                                00010000D     95
     126       0               5       0                               0D     96
     126     247                                                00010000D     97
     126       0               7       0                               0D     98
     126     254                                                00010000D     99
     126       0               5       0                               0D    100
     126     259                                                00010000D    101
     126       0               7       0                               0D    102
     126     266                                                00010000D    103
     126       0               2       0                               0D    104
     126     268                                                00010000D    105
     126       0               2       0                               0D    106
     126     270                                                00010000D    107
     126       0              16       0                               0D    108
     126     286                                                00010000D    109
     126       0               4       0                               0D    110
     126     290                                                00010000D    111
     126       0              17       0                               0D    112
     126     307                                                00010000D    113
     126       0              30       0                               0D    114
     126     337                                                00010000D    115
     126       0               4       0                               0D    116
     126     341                                                00010000D    117
     126       0              54       0                               0D    118
     126     395                                                00010000D    119
     126       0               4       0                               0D    120
     126     399                                                00010000D    121
     126       0               3       0                               0D    122
     126     402                                                00010000D    123
     126       0               9       0                               0D    124
     128     411                                                00010000D    125
     128       0    -155      14       0                               0D    126
     128     425                                                00010000D    127
     128       0    -155      13       0                               0D    128
     128     438                                                00010000D    129
     128       0    -155      13       0                               0D    130
     128     451                                                00010000D    131
     128       0    -155      12       0                               0D    132
     128     463                                                00010000D    133
     128       0    -155      12       0                               0D    134
     128     475                                                00010000D    135
     128       0    -155       3       0                               0D    136
     128     478                                                00010000D    137
     128       0    -155      12       0                               0D    138
     128     490                                                00010000D    139
     128       0    -155      13       0                               0D    140
     128     503                                                00010000D    141
     128       0    -155      15       0                               0D    142
     128     518                                                00010000D    143
     128       0    -155      14       0                               0D    144
     128     532                                                00010000D    145
     128       0    -155      12       0                               0D    146
     128     544                                                00010000D    147
     128       0    -155       3       0                               0D    148
     502     547                                                00010000D    149
     502                      10       1                               0D    150
     504     557                                                00010001D    151
     504                       9       1                               0D    152
     406     566                                                00000000D    153
     406                       1      15                               0D    154
     314     567                                                00000200D    155
     314                       2       0                               0D    156
186,3,1,0,0,1,153;                                                     1P      1
514,12,5,1,7,1,9,1,11,1,13,1,15,1,17,1,19,1,21,1,23,1,25,1,27,1;       3P      2
510,125,1,1,29;                                                        5P      3
510,127,2,1,31,33;                                                     7P      4
510,129,1,1,35;                                                        9P      5
510,131,1,1,37;                                                       11P      6
510,133,1,1,39;                                                       13P      7
510,135,2,1,41,43;                                                    15P      8
510,137,1,1,45;                                                       17P      9
510,139,1,1,47;                                                       19P     10
510,141,1,1,49;                                                       21P     11
510,143,1,1,51;                                                       23P     12
510,145,2,1,53,55;                                                    25P     13
510,147,2,1,57,59;                                                    27P     14
508,4,0,151,1,1,0,0,151,2,1,0,0,151,3,1,0,0,151,2,0,0;                29P     15
508,9,0,151,1,0,0,0,151,4,1,0,0,151,5,1,0,0,151,6,1,0,0,151,7,1,      31P     16
0,0,151,8,1,0,0,151,7,0,0,0,151,9,1,0,0,151,4,0,0;                    31P     17
508,1,0,151,10,1,0;                                                   33P     18
508,4,0,151,11,1,0,0,151,12,1,0,0,151,13,1,0,0,151,12,0,0;            35P     19
508,4,0,151,14,0,0,0,151,15,1,0,0,151,13,0,0,0,151,15,0,0;            37P     20
508,5,0,151,16,1,0,0,151,17,1,0,0,151,18,0,0,0,151,19,0,0,0,151,      39P     21
17,0,0;                                                               39P     22
508,2,0,151,20,0,0,0,151,21,0,0;                                      41P     23
508,2,0,151,18,1,0,0,151,19,1,0;                                      43P     24
508,5,0,151,20,1,0,0,151,22,1,0,0,151,14,1,0,0,151,22,0,0,0,151,      45P     25
21,1,0;                                                               45P     26
508,4,0,151,16,0,0,0,151,23,1,0,0,151,3,0,0,0,151,23,0,0;             47P     27
508,8,0,151,24,0,0,0,151,25,1,0,0,151,5,0,0,0,151,9,0,0,0,151,6,      49P     28
0,0,0,151,25,0,0,0,151,26,0,0,0,151,27,0,0;                           49P     29
508,4,0,151,10,0,0,0,151,28,1,0,0,151,29,0,0,0,151,28,0,0;            51P     30
508,9,0,151,11,0,0,0,151,30,1,0,0,151,27,1,0,0,151,31,1,0,0,151,      53P     31
32,1,0,0,151,31,0,0,0,151,26,1,0,0,151,24,1,0,0,151,30,0,0;           53P     32
508,1,0,151,29,1,0;                                                   55P     33
508,1,0,151,32,0,0;                                                   57P     34
508,1,0,151,8,0,0;                                                    59P     35
126,8,2,0,1,0,0,-3.14159265358979,-3.14159265358979,                  61P     36
-3.14159265358979,-1.5707963267949,-1.5707963267949,0.,0.,            61P     37
1.5707963267949,1.5707963267949,3.14159265358979,                     61P     38
3.14159265358979,3.14159265358979,1.,0.707106781186548,1.,            61P     39
0.707106781186547,1.,0.707106781186547,1.,0.707106781186548,1.,       61P     40
-25.25,25.75,-3.09223316784707D-15,-25.25,25.75,-25.25,               61P     41
1.54611658392353D-15,25.75,-25.25,25.25,25.75,-25.25,25.25,           61P     42
25.75,0.,25.25,25.75,25.25,1.54611658392353D-15,25.75,25.25,          61P     43
-25.25,25.75,25.25,-25.25,25.75,3.09223316784707D-15,                 61P     44
-3.14159265358979,3.14159265358979,0.,0.,0.;                          61P     45
126,1,1,0,0,1,0,-0.0507666407005726,-0.0507666407005726,              63P     46
0.0507666407005727,0.0507666407005727,1.,1.,-25.25,25.75,0.,          63P     47
-23.5,27.5,0.,-0.0507666407005726,0.0507666407005727,0.,0.,0.;        63P     48
126,8,2,0,1,0,0,-3.14159265358979,-3.14159265358979,                  65P     49
-3.14159265358979,-1.5707963267949,-1.5707963267949,0.,0.,            65P     50
1.5707963267949,1.5707963267949,3.14159265358979,                     65P     51
3.14159265358979,3.14159265358979,1.,0.707106781186548,1.,            65P     52
0.707106781186547,1.,0.707106781186547,1.,0.707106781186548,1.,       65P     53
-23.5,27.5,2.87791997799628D-15,-23.5,27.5,23.5,                      65P     54
1.43895998899814D-15,27.5,23.5,23.5,27.5,23.5,23.5,27.5,0.,23.5,      65P     55
27.5,-23.5,1.43895998899814D-15,27.5,-23.5,-23.5,27.5,-23.5,          65P     56
-23.5,27.5,-2.87791997799628D-15,-3.14159265358979,                   65P     57
3.14159265358979,0.,0.,0.;                                            65P     58
126,1,1,0,0,1,0,-1.01980198019802,-1.01980198019802,                  67P     59
-0.752475247524752,-0.752475247524752,1.,1.,-25.25,25.75,0.,          67P     60
-25.25,19.,1.38777878078145D-16,-1.01980198019802,                    67P     61
-0.752475247524752,0.,0.,0.;                                          67P     62
126,11,3,0,0,1,0,2.58914333255171,2.58914333255171,                   69P     63
2.58914333255171,2.58914333255171,2.85149735378623,                   69P     64
2.85149735378623,3.11385137502075,3.11385137502075,                   69P     65
3.28302124254485,3.28302124254485,3.3676061763069,                    69P     66
3.3676061763069,3.45219111006895,3.45219111006895,                    69P     67
3.45219111006895,3.45219111006895,1.,1.,1.,1.,1.,1.,1.,1.,1.,1.,      69P     68
1.,1.,-25.25,19.,2.77555756156289D-16,-25.25,19.,                     69P     69
-0.874513404115076,-25.2002825837397,18.8817297148232,                69P     70
-1.82104479519922,-25.0070053759736,18.358328652542,                  69P     71
-3.60834151730713,-24.8645382550193,17.9550408579725,                 69P     72
-4.44976401494448,-24.6322375838863,17.0821857994357,                 69P     73
-5.56922473142751,-24.5309725816698,16.6431738159376,                 69P     74
-5.99058681104086,-24.4169359601063,15.8869675179167,                 69P     75
-6.43420938114124,-24.3853339524289,15.618680293563,                  69P     76
-6.55169337410245,-24.3423506794993,15.0661869400659,                 69P     77
-6.70963198995331,-24.3310501211929,14.7819497792068,-6.75,           69P     78
-24.3310501211929,14.5,-6.75,2.58914333255171,3.45219111006895,       69P     79
0.,0.,0.;                                                             69P     80
126,11,3,0,0,1,0,0.,0.,0.,0.,0.0845849337620477,                      71P     81
0.0845849337620477,0.169169867524095,0.169169867524095,               71P     82
0.338339735048191,0.338339735048191,0.600693756282713,                71P     83
0.600693756282713,0.863047777517236,0.863047777517236,                71P     84
0.863047777517236,0.863047777517236,1.,1.,1.,1.,1.,1.,1.,1.,1.,       71P     85
1.,1.,1.,-24.3310501211929,14.5,-6.75,-24.3310501211929,              71P     86
14.2180502207932,-6.75,-24.3423506794993,13.9338130599341,            71P     87
-6.70963198995331,-24.3853339524289,13.381319706437,                  71P     88
-6.55169337410245,-24.4169359601063,13.1130324820833,                 71P     89
-6.43420938114124,-24.5309725816698,12.3568261840624,                 71P     90
-5.99058681104086,-24.6322375838863,11.9178142005643,                 71P     91
-5.56922473142751,-24.8645382550193,11.0449591420275,                 71P     92
-4.44976401494448,-25.0070053759736,10.641671347458,                  71P     93
-3.60834151730713,-25.2002825837397,10.1182702851768,                 71P     94
-1.82104479519922,-25.25,10.,-0.874513404115076,-25.25,10.,0.,        71P     95
0.,0.863047777517236,0.,0.,0.;                                        71P     96
126,1,1,0,0,1,0,-0.396039603960396,-0.396039603960396,0.,0.,1.,       73P     97
1.,-25.25,10.,1.38777878078145D-16,-25.25,0.,0.,                      73P     98
-0.396039603960396,0.,0.,0.,0.;                                       73P     99
126,8,2,0,1,0,0,-3.14159265358979,-3.14159265358979,                  75P    100
-3.14159265358979,-1.5707963267949,-1.5707963267949,0.,0.,            75P    101
1.5707963267949,1.5707963267949,3.14159265358979,                     75P    102
3.14159265358979,3.14159265358979,1.,0.707106781186548,1.,            75P    103
0.707106781186547,1.,0.707106781186547,1.,0.707106781186548,1.,       75P    104
-25.25,0.,-3.09223316784707D-15,-25.25,0.,-25.25,                     75P    105
1.54611658392353D-15,0.,-25.25,25.25,0.,-25.25,25.25,0.,0.,           75P    106
25.25,0.,25.25,1.54611658392353D-15,0.,25.25,-25.25,0.,25.25,         75P    107
-25.25,0.,3.09223316784707D-15,-3.14159265358979,                     75P    108
3.14159265358979,0.,0.,0.;                                            75P    109
126,21,3,0,0,1,0,0.863047777517236,0.863047777517236,                 77P    110
0.863047777517236,0.863047777517236,1.12540179875176,                 77P    111
1.12540179875176,1.38775581998628,1.38775581998628,                   77P    112
1.55692568751038,1.55692568751038,1.64151062127242,                   77P    113
1.64151062127242,1.72609555503447,1.72609555503447,                   77P    114
1.81068048879652,1.81068048879652,1.89526542255857,                   77P    115
1.89526542255857,2.06443529008266,2.06443529008266,                   77P    116
2.32678931131719,2.32678931131719,2.58914333255171,                   77P    117
2.58914333255171,2.58914333255171,2.58914333255171,1.,1.,1.,1.,       77P    118
1.,1.,1.,1.,1.,1.,1.,1.,1.,1.,1.,1.,1.,1.,1.,1.,1.,1.,-25.25,         77P    119
10.,2.77555756156289D-16,-25.25,10.,0.874513404115077,                77P    120
-25.2002825837397,10.1182702851768,1.82104479519922,                  77P    121
-25.0070053759736,10.641671347458,3.60834151730713,                   77P    122
-24.8645382550193,11.0449591420275,4.44976401494448,                  77P    123
-24.6322375838863,11.9178142005643,5.56922473142751,                  77P    124
-24.5309725816698,12.3568261840624,5.99058681104086,                  77P    125
-24.4169359601063,13.1130324820833,6.43420938114124,                  77P    126
-24.3853339524289,13.381319706437,6.55169337410245,                   77P    127
-24.3423506794993,13.9338130599341,6.70963198995331,                  77P    128
-24.3310501211929,14.2180502207932,6.75,-24.3310501211929,            77P    129
14.7819497792068,6.75,-24.3423506794993,15.0661869400659,             77P    130
6.70963198995331,-24.3853339524289,15.618680293563,                   77P    131
6.55169337410245,-24.4169359601063,15.8869675179167,                  77P    132
6.43420938114124,-24.5309725816698,16.6431738159376,                  77P    133
5.99058681104086,-24.6322375838863,17.0821857994357,                  77P    134
5.56922473142751,-24.8645382550193,17.9550408579725,                  77P    135
4.44976401494448,-25.0070053759736,18.358328652542,                   77P    136
3.60834151730713,-25.2002825837397,18.8817297148232,                  77P    137
1.82104479519922,-25.25,19.,0.874513404115076,-25.25,19.,             77P    138
2.77555756156289D-16,0.863047777517236,2.58914333255171,0.,0.,        77P    139
0.;                                                                   77P    140
126,41,3,0,1,1,1,0.,0.,0.,0.,0.0845849337620477,                      79P    141
0.0845849337620477,0.169169867524095,0.169169867524095,               79P    142
0.338339735048191,0.338339735048191,0.600693756282713,                79P    143
0.600693756282713,0.863047777517236,0.863047777517236,                79P    144
1.12540179875176,1.12540179875176,1.38775581998628,                   79P    145
1.38775581998628,1.55692568751038,1.55692568751038,                   79P    146
1.64151062127242,1.64151062127242,1.72609555503447,                   79P    147
1.72609555503447,1.81068048879652,1.81068048879652,                   79P    148
1.89526542255857,1.89526542255857,2.06443529008266,                   79P    149
2.06443529008266,2.32678931131719,2.32678931131719,                   79P    150
2.58914333255171,2.58914333255171,2.85149735378623,                   79P    151
2.85149735378623,3.11385137502075,3.11385137502075,                   79P    152
3.28302124254485,3.28302124254485,3.3676061763069,                    79P    153
3.3676061763069,3.45219111006895,3.45219111006895,                    79P    154
3.45219111006895,3.45219111006895,1.,1.,1.,1.,1.,1.,1.,1.,1.,1.,      79P    155
1.,1.,1.,1.,1.,1.,1.,1.,1.,1.,1.,1.,1.,1.,1.,1.,1.,1.,1.,1.,1.,       79P    156
1.,1.,1.,1.,1.,1.,1.,1.,1.,1.,1.,24.3310501211929,14.5,-6.75,         79P    157
24.3310501211929,14.7819497792068,-6.75,24.3423506794993,             79P    158
15.0661869400659,-6.70963198995331,24.3853339524289,                  79P    159
15.618680293563,-6.55169337410245,24.4169359601063,                   79P    160
15.8869675179167,-6.43420938114124,24.5309725816698,                  79P    161
16.6431738159376,-5.99058681104086,24.6322375838863,                  79P    162
17.0821857994357,-5.56922473142751,24.8645382550193,                  79P    163
17.9550408579725,-4.44976401494448,25.0070053759736,                  79P    164
18.358328652542,-3.60834151730713,25.2002825837397,                   79P    165
18.8817297148232,-1.82104479519922,25.25,19.,-0.874513404115075,      79P    166
25.25,19.,0.874513404115076,25.2002825837397,18.8817297148232,        79P    167
1.82104479519922,25.0070053759736,18.358328652542,                    79P    168
3.60834151730713,24.8645382550193,17.9550408579725,                   79P    169
4.44976401494448,24.6322375838863,17.0821857994357,                   79P    170
5.56922473142751,24.5309725816698,16.6431738159376,                   79P    171
5.99058681104086,24.4169359601063,15.8869675179167,                   79P    172
6.43420938114124,24.3853339524289,15.618680293563,                    79P    173
6.55169337410245,24.3423506794993,15.0661869400659,                   79P    174
6.70963198995331,24.3310501211929,14.7819497792068,6.75,              79P    175
24.3310501211929,14.2180502207932,6.75,24.3423506794993,              79P    176
13.9338130599341,6.70963198995331,24.3853339524289,                   79P    177
13.381319706437,6.55169337410245,24.4169359601063,                    79P    178
13.1130324820833,6.43420938114124,24.5309725816698,                   79P    179
12.3568261840624,5.99058681104086,24.6322375838863,                   79P    180
11.9178142005643,5.56922473142751,24.8645382550193,                   79P    181
11.0449591420275,4.44976401494448,25.0070053759736,                   79P    182
10.641671347458,3.60834151730713,25.2002825837397,                    79P    183
10.1182702851768,1.82104479519922,25.25,10.,0.874513404115076,        79P    184
25.25,10.,-0.874513404115076,25.2002825837397,10.1182702851768,       79P    185
-1.82104479519922,25.0070053759736,10.641671347458,                   79P    186
-3.60834151730713,24.8645382550193,11.0449591420275,                  79P    187
-4.44976401494448,24.6322375838863,11.9178142005643,                  79P    188
-5.56922473142751,24.5309725816698,12.3568261840624,                  79P    189
-5.99058681104086,24.4169359601063,13.1130324820833,                  79P    190
-6.43420938114124,24.3853339524289,13.381319706437,                   79P    191
-6.55169337410245,24.3423506794993,13.9338130599341,                  79P    192
-6.70963198995331,24.3310501211929,14.2180502207932,-6.75,            79P    193
24.3310501211929,14.5,-6.75,0.,3.45219111006895,0.,0.,0.;             79P    194
126,8,2,0,1,0,0,-3.14159265358979,-3.14159265358979,                  81P    195
-3.14159265358979,-1.5707963267949,-1.5707963267949,0.,0.,            81P    196
1.5707963267949,1.5707963267949,3.14159265358979,                     81P    197
3.14159265358979,3.14159265358979,1.,0.707106781186548,1.,            81P    198
0.707106781186547,1.,0.707106781186547,1.,0.707106781186548,1.,       81P    199
-27.,31.,3.30654635769785D-15,-27.,31.,27.,1.65327317884893D-15,      81P    200
31.,27.,27.,31.,27.,27.,31.,0.,27.,31.,-27.,                          81P    201
1.65327317884893D-15,31.,-27.,-27.,31.,-27.,-27.,31.,                 81P    202
-3.30654635769785D-15,-3.14159265358979,3.14159265358979,0.,0.,       81P    203
0.;                                                                   81P    204
126,1,1,0,0,1,0,-0.0543928293220422,-0.0543928293220422,              83P    205
0.0543928293220422,0.0543928293220422,1.,1.,-27.,31.,0.,-25.,         83P    206
33.,0.,-0.0543928293220422,0.0543928293220422,0.,0.,0.;               83P    207
126,8,2,0,1,0,0,-3.14159265358979,-3.14159265358979,                  85P    208
-3.14159265358979,-1.5707963267949,-1.5707963267949,0.,0.,            85P    209
1.5707963267949,1.5707963267949,3.14159265358979,                     85P    210
3.14159265358979,3.14159265358979,1.,0.707106781186548,1.,            85P    211
0.707106781186547,1.,0.707106781186547,1.,0.707106781186548,1.,       85P    212
-25.,33.,-3.06161699786838D-15,-25.,33.,-25.,                         85P    213
1.53080849893419D-15,33.,-25.,25.,33.,-25.,25.,33.,0.,25.,33.,        85P    214
25.,1.53080849893419D-15,33.,25.,-25.,33.,25.,-25.,33.,               85P    215
3.06161699786838D-15,-3.14159265358979,3.14159265358979,0.,0.,        85P    216
0.;                                                                   85P    217
126,8,2,0,1,0,0,-3.14159265358979,-3.14159265358979,                  87P    218
-3.14159265358979,-1.5707963267949,-1.5707963267949,0.,0.,            87P    219
1.5707963267949,1.5707963267949,3.14159265358979,                     87P    220
3.14159265358979,3.14159265358979,1.,0.707106781186548,1.,            87P    221
0.707106781186547,1.,0.707106781186547,1.,0.707106781186548,1.,       87P    222
-25.,42.5,3.06161699786838D-15,-25.,42.5,25.,                         87P    223
1.53080849893419D-15,42.5,25.,25.,42.5,25.,25.,42.5,0.,25.,42.5,      87P    224
-25.,1.53080849893419D-15,42.5,-25.,-25.,42.5,-25.,-25.,42.5,         87P    225
-3.06161699786838D-15,-3.14159265358979,3.14159265358979,0.,0.,       87P    226
0.;                                                                   87P    227
126,1,1,0,0,1,0,-0.6,-0.6,-0.22,-0.22,1.,1.,-25.,42.5,0.,-25.,        89P    228
33.,0.,-0.6,-0.22,0.,0.,0.;                                           89P    229
126,8,2,0,1,0,0,-3.14159265358979,-3.14159265358979,                  91P    230
-3.14159265358979,-1.5707963267949,-1.5707963267949,0.,0.,            91P    231
1.5707963267949,1.5707963267949,3.14159265358979,                     91P    232
3.14159265358979,3.14159265358979,1.,0.707106781186548,1.,            91P    233
0.707106781186547,1.,0.707106781186547,1.,0.707106781186548,1.,       91P    234
-23.5,42.5,-2.87791997799628D-15,-23.5,42.5,-23.5,                    91P    235
1.43895998899814D-15,42.5,-23.5,23.5,42.5,-23.5,23.5,42.5,0.,         91P    236
23.5,42.5,23.5,1.43895998899814D-15,42.5,23.5,-23.5,42.5,23.5,        91P    237
-23.5,42.5,2.87791997799628D-15,-3.14159265358979,                    91P    238
3.14159265358979,0.,0.,0.;                                            91P    239
126,1,1,0,0,1,0,0.,0.,0.426063497755336,0.426063497755336,1.,1.,      93P    240
-23.5,42.5,0.,-23.,52.5,0.,0.,0.426063497755336,0.,0.,0.;             93P    241
126,4,2,0,0,0,0,0.,0.,0.,1.5707963267949,1.5707963267949,             95P    242
3.14159265358979,3.14159265358979,3.14159265358979,1.,                95P    243
0.707106781186548,1.,0.707106781186548,1.,23.,52.5,0.,23.,52.5,       95P    244
23.,1.40834381901946D-15,52.5,23.,-23.,52.5,23.,-23.,52.5,            95P    245
2.81668763803891D-15,0.,3.14159265358979,0.,0.,0.;                    95P    246
126,4,2,0,0,0,0,3.14159265358979,3.14159265358979,                    97P    247
3.14159265358979,4.71238898038469,4.71238898038469,                   97P    248
6.28318530717959,6.28318530717959,6.28318530717959,1.,                97P    249
0.707106781186548,1.,0.707106781186548,1.,-23.,52.5,                  97P    250
2.81668763803891D-15,-23.,52.5,-23.,-4.22503145705837D-15,52.5,       97P    251
-23.,23.,52.5,-23.,23.,52.5,-5.63337527607782D-15,                    97P    252
3.14159265358979,6.28318530717959,0.,0.,0.;                           97P    253
126,4,2,0,0,0,0,0.,0.,0.,1.5707963267949,1.5707963267949,             99P    254
3.14159265358979,3.14159265358979,3.14159265358979,1.,                99P    255
0.707106781186547,1.,0.707106781186548,1.,24.5,52.5,0.,24.5,          99P    256
52.5,24.5,1.50019232895551D-15,52.5,24.5,-24.5,52.5,24.5,-24.5,       99P    257
52.5,3.00038465791102D-15,0.,3.14159265358979,0.,0.,0.;               99P    258
126,4,2,0,0,0,0,3.14159265358979,3.14159265358979,                   101P    259
3.14159265358979,4.71238898038469,4.71238898038469,                  101P    260
6.28318530717959,6.28318530717959,6.28318530717959,1.,               101P    261
0.707106781186548,1.,0.707106781186548,1.,-24.5,52.5,                101P    262
3.00038465791102D-15,-24.5,52.5,-24.5,-4.50057698686652D-15,         101P    263
52.5,-24.5,24.5,52.5,-24.5,24.5,52.5,-6.00076931582203D-15,          101P    264
3.14159265358979,6.28318530717959,0.,0.,0.;                          101P    265
126,1,1,0,0,1,0,-0.400499687890016,-0.400499687890016,0.,0.,1.,      103P    266
1.,-24.5,52.5,0.,-25.,42.5,0.,-0.400499687890016,0.,0.,0.,0.;        103P    267
126,1,1,0,0,1,0,-0.638297872340425,-0.638297872340425,0.,0.,1.,      105P    268
1.,-23.5,42.5,0.,-23.5,27.5,0.,-0.638297872340425,0.,0.,0.,0.;       105P    269
126,11,3,0,0,1,0,0.,0.,0.,0.,0.0844740436031713,                     107P    270
0.0844740436031713,0.168948087206343,0.168948087206343,              107P    271
0.337896174412685,0.337896174412685,0.600050879070105,               107P    272
0.600050879070105,0.862205583727524,0.862205583727524,               107P    273
0.862205583727524,0.862205583727524,1.,1.,1.,1.,1.,1.,1.,1.,1.,      107P    274
1.,1.,1.,-26.1426375869001,14.5,-6.75,-26.1426375869001,             107P    275
14.7815801453439,-6.75,-26.1531282296666,15.0656003144543,           107P    276
-6.70973200721861,-26.1930912921355,15.617874692746,                 107P    277
-6.55199117550908,-26.2224897805301,15.8861588336824,                107P    278
-6.43460442375918,-26.3286667161823,16.6425056169962,                107P    279
-5.99113717761836,-26.423070221866,17.0817843671305,                 107P    280
-5.5696775409688,-26.6398886699817,17.9553477565425,                 107P    281
-4.44946661825065,-26.7729895720692,18.3586882945438,                107P    282
-3.60748678085178,-26.9535626995227,18.8819270814012,                107P    283
-1.81999707521916,-27.,19.,-0.873849015524733,-27.,19.,              107P    284
-1.94289029309402D-15,0.,0.862205583727524,0.,0.,0.;                 107P    285
126,1,1,0,0,1,0,-3.87298334620742,-3.87298334620742,                 109P    286
-3.6046000179545,-3.6046000179545,1.,1.,-26.1426375869001,14.5,      109P    287
-6.75,-24.3310501211929,14.5,-6.75,-3.87298334620742,                109P    288
-3.6046000179545,0.,0.,0.;                                           109P    289
126,11,3,0,0,1,0,2.58661675118257,2.58661675118257,                  111P    290
2.58661675118257,2.58661675118257,2.84877145583999,                  111P    291
2.84877145583999,3.11092616049741,3.11092616049741,                  111P    292
3.27987424770375,3.27987424770375,3.36434829130693,                  111P    293
3.36434829130693,3.4488223349101,3.4488223349101,                    111P    294
3.4488223349101,3.4488223349101,1.,1.,1.,1.,1.,1.,1.,1.,1.,1.,       111P    295
1.,1.,-27.,10.,1.94289029309402D-15,-27.,10.,-0.87384901552473,      111P    296
-26.9535626995227,10.1180729185988,-1.81999707521915,                111P    297
-26.7729895720692,10.6413117054562,-3.60748678085178,                111P    298
-26.6398886699817,11.0446522434575,-4.44946661825065,                111P    299
-26.423070221866,11.9182156328695,-5.56967754096881,                 111P    300
-26.3286667161823,12.3574943830038,-5.99113717761836,                111P    301
-26.2224897805301,13.1138411663176,-6.43460442375918,                111P    302
-26.1930912921355,13.382125307254,-6.55199117550909,                 111P    303
-26.1531282296666,13.9343996855457,-6.70973200721861,                111P    304
-26.1426375869001,14.2184198546561,-6.75,-26.1426375869001,14.5,     111P    305
-6.75,2.58661675118257,3.4488223349101,0.,0.,0.;                     111P    306
126,21,3,0,0,1,0,0.862205583727524,0.862205583727524,                113P    307
0.862205583727524,0.862205583727524,1.12436028838494,                113P    308
1.12436028838494,1.38651499304236,1.38651499304236,                  113P    309
1.55546308024871,1.55546308024871,1.63993712385188,                  113P    310
1.63993712385188,1.72441116745505,1.72441116745505,                  113P    311
1.80888521105822,1.80888521105822,1.89335925466139,                  113P    312
1.89335925466139,2.06230734186773,2.06230734186773,                  113P    313
2.32446204652515,2.32446204652515,2.58661675118257,                  113P    314
2.58661675118257,2.58661675118257,2.58661675118257,1.,1.,1.,1.,      113P    315
1.,1.,1.,1.,1.,1.,1.,1.,1.,1.,1.,1.,1.,1.,1.,1.,1.,1.,-27.,19.,      113P    316
-1.11022302462516D-15,-27.,19.,0.87384901552473,                     113P    317
-26.9535626995227,18.8819270814012,1.81999707521915,                 113P    318
-26.7729895720692,18.3586882945438,3.60748678085178,                 113P    319
-26.6398886699817,17.9553477565425,4.44946661825064,                 113P    320
-26.423070221866,17.0817843671305,5.5696775409688,                   113P    321
-26.3286667161823,16.6425056169962,5.99113717761836,                 113P    322
-26.2224897805301,15.8861588336824,6.43460442375918,                 113P    323
-26.1930912921355,15.617874692746,6.55199117550908,                  113P    324
-26.1531282296666,15.0656003144543,6.70973200721861,                 113P    325
-26.1426375869001,14.7815801453439,6.75,-26.1426375869001,           113P    326
14.2184198546561,6.75,-26.1531282296666,13.9343996855457,            113P    327
6.70973200721861,-26.1930912921355,13.382125307254,                  113P    328
6.55199117550908,-26.2224897805301,13.1138411663176,                 113P    329
6.43460442375918,-26.3286667161823,12.3574943830038,                 113P    330
5.99113717761836,-26.423070221866,11.9182156328695,                  113P    331
5.5696775409688,-26.6398886699817,11.0446522434575,                  113P    332
4.44946661825064,-26.7729895720692,10.6413117054562,                 113P    333
3.60748678085178,-26.9535626995227,10.1180729185988,                 113P    334
1.81999707521915,-27.,10.,0.873849015524733,-27.,10.,                113P    335
2.4980018054066D-15,0.862205583727524,2.58661675118257,0.,0.,0.;     113P    336
126,1,1,0,0,1,0,3.6046000179545,3.6046000179545,                     115P    337
3.87298334620742,3.87298334620742,1.,1.,24.3310501211929,14.5,       115P    338
-6.75,26.1426375869001,14.5,-6.75,3.6046000179545,                   115P    339
3.87298334620742,0.,0.,0.;                                           115P    340
126,41,3,0,1,1,1,0.,0.,0.,0.,0.0844740436031712,                     117P    341
0.0844740436031712,0.168948087206342,0.168948087206342,              117P    342
0.337896174412685,0.337896174412685,0.600050879070105,               117P    343
0.600050879070105,0.862205583727524,0.862205583727524,               117P    344
1.12436028838494,1.12436028838494,1.38651499304236,                  117P    345
1.38651499304236,1.55546308024871,1.55546308024871,                  117P    346
1.63993712385188,1.63993712385188,1.72441116745505,                  117P    347
1.72441116745505,1.80888521105822,1.80888521105822,                  117P    348
1.89335925466139,1.89335925466139,2.06230734186773,                  117P    349
2.06230734186773,2.32446204652515,2.32446204652515,                  117P    350
2.58661675118257,2.58661675118257,2.84877145583999,                  117P    351
2.84877145583999,3.11092616049741,3.11092616049741,                  117P    352
3.27987424770375,3.27987424770375,3.36434829130693,                  117P    353
3.36434829130693,3.4488223349101,3.4488223349101,                    117P    354
3.4488223349101,3.4488223349101,1.,1.,1.,1.,1.,1.,1.,1.,1.,1.,       117P    355
1.,1.,1.,1.,1.,1.,1.,1.,1.,1.,1.,1.,1.,1.,1.,1.,1.,1.,1.,1.,1.,      117P    356
1.,1.,1.,1.,1.,1.,1.,1.,1.,1.,1.,26.1426375869001,14.5,-6.75,        117P    357
26.1426375869001,14.2184198546561,-6.75,26.1531282296666,            117P    358
13.9343996855457,-6.70973200721861,26.1930912921355,                 117P    359
13.382125307254,-6.55199117550908,26.2224897805301,                  117P    360
13.1138411663176,-6.43460442375918,26.3286667161823,                 117P    361
12.3574943830038,-5.99113717761836,26.423070221866,                  117P    362
11.9182156328695,-5.56967754096881,26.6398886699817,                 117P    363
11.0446522434575,-4.44946661825065,26.7729895720692,                 117P    364
10.6413117054562,-3.60748678085178,26.9535626995227,                 117P    365
10.1180729185988,-1.81999707521915,27.,10.,-0.87384901552473,        117P    366
27.,10.,0.873849015524731,26.9535626995227,10.1180729185988,         117P    367
1.81999707521915,26.7729895720692,10.6413117054562,                  117P    368
3.60748678085178,26.6398886699817,11.0446522434575,                  117P    369
4.44946661825064,26.423070221866,11.9182156328695,                   117P    370
5.5696775409688,26.3286667161823,12.3574943830038,                   117P    371
5.99113717761836,26.2224897805301,13.1138411663176,                  117P    372
6.43460442375918,26.1930912921355,13.382125307254,                   117P    373
6.55199117550908,26.1531282296666,13.9343996855457,                  117P    374
6.70973200721861,26.1426375869001,14.2184198546561,6.75,             117P    375
26.1426375869001,14.7815801453439,6.75,26.1531282296666,             117P    376
15.0656003144543,6.70973200721861,26.1930912921355,                  117P    377
15.617874692746,6.55199117550909,26.2224897805301,                   117P    378
15.8861588336824,6.43460442375918,26.3286667161823,                  117P    379
16.6425056169962,5.99113717761836,26.423070221866,                   117P    380
17.0817843671305,5.5696775409688,26.6398886699817,                   117P    381
17.9553477565425,4.44946661825065,26.7729895720692,                  117P    382
18.3586882945438,3.60748678085178,26.9535626995227,                  117P    383
18.8819270814012,1.81999707521915,27.,19.,0.873849015524731,27.,     117P    384
19.,-0.873849015524733,26.9535626995227,18.8819270814012,            117P    385
-1.81999707521916,26.7729895720692,18.3586882945438,                 117P    386
-3.60748678085178,26.6398886699817,17.9553477565425,                 117P    387
-4.44946661825065,26.423070221866,17.0817843671305,                  117P    388
-5.5696775409688,26.3286667161823,16.6425056169962,                  117P    389
-5.99113717761836,26.2224897805301,15.8861588336824,                 117P    390
-6.43460442375918,26.1930912921355,15.617874692746,                  117P    391
-6.55199117550909,26.1531282296666,15.0656003144543,                 117P    392
-6.70973200721861,26.1426375869001,14.7815801453439,-6.75,           117P    393
26.1426375869001,14.5,-6.75,0.,3.4488223349101,0.,0.,0.;             117P    394
126,1,1,0,0,1,0,-1.14814814814815,-1.14814814814815,                 119P    395
-0.703703703703703,-0.703703703703703,1.,1.,-27.,31.,0.,-27.,        119P    396
19.,-5.55111512312578D-16,-1.14814814814815,-0.703703703703703,      119P    397
0.,0.,0.;                                                            119P    398
126,1,1,0,0,1,0,-0.37037037037037,-0.37037037037037,0.,0.,1.,1.,     121P    399
-27.,10.,9.71445146547012D-16,-27.,0.,0.,-0.37037037037037,0.,       121P    400
0.,0.,0.;                                                            121P    401
126,8,2,0,1,0,0,-3.14159265358979,-3.14159265358979,                 123P    402
-3.14159265358979,-1.5707963267949,-1.5707963267949,0.,0.,           123P    403
1.5707963267949,1.5707963267949,3.14159265358979,                    123P    404
3.14159265358979,3.14159265358979,1.,0.707106781186548,1.,           123P    405
0.707106781186547,1.,0.707106781186547,1.,0.707106781186548,1.,      123P    406
-27.,0.,3.30654635769785D-15,-27.,0.,27.,1.65327317884893D-15,       123P    407
0.,27.,27.,0.,27.,27.,0.,0.,27.,0.,-27.,1.65327317884893D-15,0.,     123P    408
-27.,-27.,0.,-27.,-27.,0.,-3.30654635769785D-15,                     123P    409
-3.14159265358979,3.14159265358979,0.,0.,0.;                         123P    410
128,1,8,1,2,0,1,0,0,1,-0.0507666407005727,-0.0507666407005727,       125P    411
0.0507666407005726,0.0507666407005726,-3.14159265358979,             125P    412
-3.14159265358979,-3.14159265358979,-1.5707963267949,                125P    413
-1.5707963267949,0.,0.,1.5707963267949,1.5707963267949,              125P    414
3.14159265358979,3.14159265358979,3.14159265358979,1.,1.,            125P    415
0.707106781186548,0.707106781186548,1.,1.,0.707106781186548,         125P    416
0.707106781186548,1.,1.,0.707106781186548,0.707106781186548,1.,      125P    417
1.,0.707106781186548,0.707106781186548,1.,1.,-23.5,27.5,0.,          125P    418
-25.25,25.75,0.,-23.5,27.5,-23.5,-25.25,25.75,-25.25,0.,27.5,        125P    419
-23.5,0.,25.75,-25.25,23.5,27.5,-23.5,25.25,25.75,-25.25,23.5,       125P    420
27.5,0.,25.25,25.75,0.,23.5,27.5,23.5,25.25,25.75,25.25,0.,27.5,     125P    421
23.5,0.,25.75,25.25,-23.5,27.5,23.5,-25.25,25.75,25.25,-23.5,        125P    422
27.5,0.,-25.25,25.75,0.,-0.0507666407005727,0.0507666407005726,      125P    423
-3.14159265358979,3.14159265358979;                                  125P    424
128,1,8,1,2,0,1,0,0,1,0.,0.,1.01980198019802,1.01980198019802,       127P    425
-3.14159265358979,-3.14159265358979,-3.14159265358979,               127P    426
-1.5707963267949,-1.5707963267949,0.,0.,1.5707963267949,             127P    427
1.5707963267949,3.14159265358979,3.14159265358979,                   127P    428
3.14159265358979,1.,1.,0.707106781186548,0.707106781186548,1.,       127P    429
1.,0.707106781186548,0.707106781186548,1.,1.,0.707106781186548,      127P    430
0.707106781186548,1.,1.,0.707106781186548,0.707106781186548,1.,      127P    431
1.,-25.25,0.,0.,-25.25,25.75,0.,-25.25,0.,25.25,-25.25,25.75,        127P    432
25.25,0.,0.,25.25,0.,25.75,25.25,25.25,0.,25.25,25.25,25.75,         127P    433
25.25,25.25,0.,0.,25.25,25.75,0.,25.25,0.,-25.25,25.25,25.75,        127P    434
-25.25,0.,0.,-25.25,0.,25.75,-25.25,-25.25,0.,-25.25,-25.25,         127P    435
25.75,-25.25,-25.25,0.,0.,-25.25,25.75,0.,0.,1.01980198019802,       127P    436
-3.14159265358979,3.14159265358979;                                  127P    437
128,1,8,1,2,0,1,0,0,1,-0.0543928293220422,-0.0543928293220422,       129P    438
0.0543928293220422,0.0543928293220422,-3.14159265358979,             129P    439
-3.14159265358979,-3.14159265358979,-1.5707963267949,                129P    440
-1.5707963267949,0.,0.,1.5707963267949,1.5707963267949,              129P    441
3.14159265358979,3.14159265358979,3.14159265358979,1.,1.,            129P    442
0.707106781186548,0.707106781186548,1.,1.,0.707106781186548,         129P    443
0.707106781186548,1.,1.,0.707106781186548,0.707106781186548,1.,      129P    444
1.,0.707106781186548,0.707106781186548,1.,1.,-27.,31.,0.,-25.,       129P    445
33.,0.,-27.,31.,-27.,-25.,33.,-25.,0.,31.,-27.,0.,33.,-25.,27.,      129P    446
31.,-27.,25.,33.,-25.,27.,31.,0.,25.,33.,0.,27.,31.,27.,25.,33.,     129P    447
25.,0.,31.,27.,0.,33.,25.,-27.,31.,27.,-25.,33.,25.,-27.,31.,0.,     129P    448
-25.,33.,0.,-0.0543928293220422,0.0543928293220422,                  129P    449
-3.14159265358979,3.14159265358979;                                  129P    450
128,1,8,1,2,0,1,0,0,1,0.22,0.22,0.6,0.6,-3.14159265358979,           131P    451
-3.14159265358979,-3.14159265358979,-1.5707963267949,                131P    452
-1.5707963267949,0.,0.,1.5707963267949,1.5707963267949,              131P    453
3.14159265358979,3.14159265358979,3.14159265358979,1.,1.,            131P    454
0.707106781186548,0.707106781186548,1.,1.,0.707106781186548,         131P    455
0.707106781186548,1.,1.,0.707106781186548,0.707106781186548,1.,      131P    456
1.,0.707106781186548,0.707106781186548,1.,1.,-25.,42.5,0.,-25.,      131P    457
33.,0.,-25.,42.5,25.,-25.,33.,25.,0.,42.5,25.,0.,33.,25.,25.,        131P    458
42.5,25.,25.,33.,25.,25.,42.5,0.,25.,33.,0.,25.,42.5,-25.,25.,       131P    459
33.,-25.,0.,42.5,-25.,0.,33.,-25.,-25.,42.5,-25.,-25.,33.,-25.,      131P    460
-25.,42.5,0.,-25.,33.,0.,0.22,0.6,-3.14159265358979,                 131P    461
3.14159265358979;                                                    131P    462
128,1,8,1,2,0,1,0,0,1,0.,0.,0.426063497755336,0.426063497755336,     133P    463
-3.14159265358979,-3.14159265358979,-3.14159265358979,               133P    464
-1.5707963267949,-1.5707963267949,0.,0.,1.5707963267949,             133P    465
1.5707963267949,3.14159265358979,3.14159265358979,                   133P    466
3.14159265358979,1.,1.,0.707106781186548,0.707106781186548,1.,       133P    467
1.,0.707106781186548,0.707106781186548,1.,1.,0.707106781186548,      133P    468
0.707106781186548,1.,1.,0.707106781186548,0.707106781186548,1.,      133P    469
1.,-23.5,42.5,0.,-23.,52.5,0.,-23.5,42.5,23.5,-23.,52.5,23.,0.,      133P    470
42.5,23.5,0.,52.5,23.,23.5,42.5,23.5,23.,52.5,23.,23.5,42.5,0.,      133P    471
23.,52.5,0.,23.5,42.5,-23.5,23.,52.5,-23.,0.,42.5,-23.5,0.,52.5,     133P    472
-23.,-23.5,42.5,-23.5,-23.,52.5,-23.,-23.5,42.5,0.,-23.,52.5,0.,     133P    473
0.,0.426063497755336,-3.14159265358979,3.14159265358979;             133P    474
128,1,1,1,1,0,0,1,0,0,-2.451,-2.451,2.451,2.451,-2.451,-2.451,       135P    475
2.451,2.451,1.,1.,1.,1.,-24.51,52.5,-24.51,-24.51,52.5,24.51,        135P    476
24.51,52.5,-24.51,24.51,52.5,24.51,-2.451,2.451,-2.451,2.451;        135P    477
128,1,8,1,2,0,1,0,0,1,0.,0.,0.400499687890016,0.400499687890016,     137P    478
-3.14159265358979,-3.14159265358979,-3.14159265358979,               137P    479
-1.5707963267949,-1.5707963267949,0.,0.,1.5707963267949,             137P    480
1.5707963267949,3.14159265358979,3.14159265358979,                   137P    481
3.14159265358979,1.,1.,0.707106781186548,0.707106781186548,1.,       137P    482
1.,0.707106781186548,0.707106781186548,1.,1.,0.707106781186548,      137P    483
0.707106781186548,1.,1.,0.707106781186548,0.707106781186548,1.,      137P    484
1.,-24.5,52.5,0.,-25.,42.5,0.,-24.5,52.5,24.5,-25.,42.5,25.,0.,      137P    485
52.5,24.5,0.,42.5,25.,24.5,52.5,24.5,25.,42.5,25.,24.5,52.5,0.,      137P    486
25.,42.5,0.,24.5,52.5,-24.5,25.,42.5,-25.,0.,52.5,-24.5,0.,42.5,     137P    487
-25.,-24.5,52.5,-24.5,-25.,42.5,-25.,-24.5,52.5,0.,-25.,42.5,0.,     137P    488
0.,0.400499687890016,-3.14159265358979,3.14159265358979;             137P    489
128,1,8,1,2,0,1,0,0,1,0.,0.,0.638297872340425,0.638297872340425,     139P    490
-3.14159265358979,-3.14159265358979,-3.14159265358979,               139P    491
-1.5707963267949,-1.5707963267949,0.,0.,1.5707963267949,             139P    492
1.5707963267949,3.14159265358979,3.14159265358979,                   139P    493
3.14159265358979,1.,1.,0.707106781186548,0.707106781186548,1.,       139P    494
1.,0.707106781186548,0.707106781186548,1.,1.,0.707106781186548,      139P    495
0.707106781186548,1.,1.,0.707106781186548,0.707106781186548,1.,      139P    496
1.,-23.5,27.5,0.,-23.5,42.5,0.,-23.5,27.5,23.5,-23.5,42.5,23.5,      139P    497
0.,27.5,23.5,0.,42.5,23.5,23.5,27.5,23.5,23.5,42.5,23.5,23.5,        139P    498
27.5,0.,23.5,42.5,0.,23.5,27.5,-23.5,23.5,42.5,-23.5,0.,27.5,        139P    499
-23.5,0.,42.5,-23.5,-23.5,27.5,-23.5,-23.5,42.5,-23.5,-23.5,         139P    500
27.5,0.,-23.5,42.5,0.,0.,0.638297872340425,-3.14159265358979,        139P    501
3.14159265358979;                                                    139P    502
128,1,8,1,2,0,1,0,0,1,-4.,-4.,-3.6046000179545,-3.6046000179545,     141P    503
-3.14159265358979,-3.14159265358979,-3.14159265358979,               141P    504
-1.5707963267949,-1.5707963267949,0.,0.,1.5707963267949,             141P    505
1.5707963267949,3.14159265358979,3.14159265358979,                   141P    506
3.14159265358979,1.,1.,0.707106781186548,0.707106781186548,1.,       141P    507
1.,0.707106781186548,0.707106781186548,1.,1.,0.707106781186548,      141P    508
0.707106781186548,1.,1.,0.707106781186548,0.707106781186548,1.,      141P    509
1.,-27.,14.5,-6.75,-24.3310501211929,14.5,-6.75,-27.,19.,-6.75,      141P    510
-24.3310501211929,19.,-6.75,-27.,19.,0.,-24.3310501211929,19.,       141P    511
0.,-27.,19.,6.75,-24.3310501211929,19.,6.75,-27.,14.5,6.75,          141P    512
-24.3310501211929,14.5,6.75,-27.,10.,6.75,-24.3310501211929,10.,     141P    513
6.75,-27.,10.,0.,-24.3310501211929,10.,0.,-27.,10.,-6.75,            141P    514
-24.3310501211929,10.,-6.75,-27.,14.5,-6.75,-24.3310501211929,       141P    515
14.5,-6.75,-4.,-3.6046000179545,-3.14159265358979,                   141P    516
3.14159265358979;                                                    141P    517
128,1,8,1,2,0,1,0,0,1,3.6046000179545,3.6046000179545,4.,4.,         143P    518
-3.14159265358979,-3.14159265358979,-3.14159265358979,               143P    519
-1.5707963267949,-1.5707963267949,0.,0.,1.5707963267949,             143P    520
1.5707963267949,3.14159265358979,3.14159265358979,                   143P    521
3.14159265358979,1.,1.,0.707106781186548,0.707106781186548,1.,       143P    522
1.,0.707106781186548,0.707106781186548,1.,1.,0.707106781186548,      143P    523
0.707106781186548,1.,1.,0.707106781186548,0.707106781186548,1.,      143P    524
1.,24.3310501211929,14.5,-6.75,27.,14.5,-6.75,24.3310501211929,      143P    525
19.,-6.75,27.,19.,-6.75,24.3310501211929,19.,0.,27.,19.,0.,          143P    526
24.3310501211929,19.,6.75,27.,19.,6.75,24.3310501211929,14.5,        143P    527
6.75,27.,14.5,6.75,24.3310501211929,10.,6.75,27.,10.,6.75,           143P    528
24.3310501211929,10.,0.,27.,10.,0.,24.3310501211929,10.,-6.75,       143P    529
27.,10.,-6.75,24.3310501211929,14.5,-6.75,27.,14.5,-6.75,            143P    530
3.6046000179545,4.,-3.14159265358979,3.14159265358979;               143P    531
128,1,8,1,2,0,1,0,0,1,0.,0.,1.14814814814815,1.14814814814815,       145P    532
-3.14159265358979,-3.14159265358979,-3.14159265358979,               145P    533
-1.5707963267949,-1.5707963267949,0.,0.,1.5707963267949,             145P    534
1.5707963267949,3.14159265358979,3.14159265358979,                   145P    535
3.14159265358979,1.,1.,0.707106781186548,0.707106781186548,1.,       145P    536
1.,0.707106781186548,0.707106781186548,1.,1.,0.707106781186548,      145P    537
0.707106781186548,1.,1.,0.707106781186548,0.707106781186548,1.,      145P    538
1.,-27.,31.,0.,-27.,0.,0.,-27.,31.,27.,-27.,0.,27.,0.,31.,27.,       145P    539
0.,0.,27.,27.,31.,27.,27.,0.,27.,27.,31.,0.,27.,0.,0.,27.,31.,       145P    540
-27.,27.,0.,-27.,0.,31.,-27.,0.,0.,-27.,-27.,31.,-27.,-27.,0.,       145P    541
-27.,-27.,31.,0.,-27.,0.,0.,0.,1.14814814814815,                     145P    542
-3.14159265358979,3.14159265358979;                                  145P    543
128,1,1,1,1,0,0,1,0,0,-2.701,-2.701,2.701,2.701,-2.701,-2.701,       147P    544
2.701,2.701,1.,1.,1.,1.,27.01,0.,27.01,-27.01,0.,27.01,27.01,0.,     147P    545
-27.01,-27.01,0.,-27.01,-2.701,2.701,-2.701,2.701;                   147P    546
502,20,-25.25,25.75,-3.09223316784707D-15,-23.5,27.5,                149P    547
-2.87791997799628D-15,-25.25,19.,1.38777878078145D-16,               149P    548
-24.3310501211929,14.5,-6.75,-25.25,10.,1.38777878078145D-16,        149P    549
-25.25,0.,3.09223316784707D-15,24.3310501211929,14.5,-6.75,-27.,     149P    550
31.,3.30654635769785D-15,-25.,33.,-3.06161699786838D-15,-25.,        149P    551
42.5,-3.06161699786838D-15,-23.5,42.5,-2.87791997799628D-15,         149P    552
-23.,52.5,0.,23.,52.5,0.,24.5,52.5,0.,-24.5,52.5,0.,                 149P    553
-26.1426375869001,14.5,-6.75,-27.,19.,-5.55111512312578D-16,         149P    554
-27.,10.,9.71445146547012D-16,26.1426375869001,14.5,-6.75,-27.,      149P    555
0.,3.30654635769785D-15;                                             149P    556
504,32,61,149,1,149,1,63,149,1,149,2,65,149,2,149,2,67,149,1,        151P    557
149,3,69,149,3,149,4,71,149,4,149,5,73,149,5,149,6,75,149,6,149,     151P    558
6,77,149,5,149,3,79,149,7,149,7,81,149,8,149,8,83,149,8,149,9,       151P    559
85,149,9,149,9,87,149,10,149,10,89,149,10,149,9,91,149,11,149,       151P    560
11,93,149,11,149,12,95,149,13,149,12,97,149,12,149,13,99,149,14,     151P    561
149,15,101,149,15,149,14,103,149,15,149,10,105,149,11,149,2,107,     151P    562
149,16,149,17,109,149,16,149,4,111,149,18,149,16,113,149,17,149,     151P    563
18,115,149,7,149,19,117,149,19,149,19,119,149,8,149,17,121,149,      151P    564
18,149,20,123,149,20,149,20;                                         151P    565
406,1,5HBody1;                                                       153P    566
314,62.7450980392157,62.7450980392157,62.7450980392157,13HSteel      155P    567
- Satin;                                                             155P    568
S      1G      3D    156P    568                                        T      1
