                                                                        S      1
,,21HVacuum Attachement v9,21HVacuum Attachement v9,7Hunknown,7Hunknown,G      1
32,38,7,99,15,,1.,2,2HMM,1,0.08,15H20220922.115302,0.01,10000.,7HunknownG      2
,7Hunknown,11,0,15H20211005.175235;                                     G      3
     186       1                                                00000000D      1
     186            -239       1       0                               0D      2
     514       2                                                00010000D      3
     514                       2       1                               0D      4
     510       4                                                00010000D      5
     510            -239       1       1                               0D      6
     510       5                                                00010000D      7
     510            -239       1       1                               0D      8
     510       6                                                00010000D      9
     510            -239       1       1                               0D     10
     510       7                                                00010000D     11
     510            -239       1       1                               0D     12
     510       8                                                00010000D     13
     510            -239       1       1                               0D     14
     510       9                                                00010000D     15
     510            -239       1       1                               0D     16
     510      10                                                00010000D     17
     510            -239       1       1                               0D     18
     510      11                                                00010000D     19
     510            -239       1       1                               0D     20
     510      12                                                00010000D     21
     510            -239       1       1                               0D     22
     510      13                                                00010000D     23
     510            -239       1       1                               0D     24
     510      14                                                00010000D     25
     510            -239       1       1                               0D     26
     510      15                                                00010000D     27
     510            -239       1       1                               0D     28
     510      16                                                00010000D     29
     510            -239       1       1                               0D     30
     510      17                                                00010000D     31
     510            -239       1       1                               0D     32
     510      18                                                00010000D     33
     510            -239       1       1                               0D     34
     510      19                                                00010000D     35
     510            -239       1       1                               0D     36
     510      20                                                00010000D     37
     510            -239       1       1                               0D     38
     510      21                                                00010000D     39
     510            -239       1       1                               0D     40
     510      22                                                00010000D     41
     510            -239       1       1                               0D     42
     510      23                                                00010000D     43
     510            -239       1       1                               0D     44
     508      24                                                00010000D     45
     508                       1       1                               0D     46
     508      25                                                00010000D     47
     508                       1       1                               0D     48
     508      26                                                00010000D     49
     508                       1       1                               0D     50
     508      27                                                00010000D     51
     508                       1       1                               0D     52
     508      28                                                00010000D     53
     508                       1       1                               0D     54
     508      29                                                00010000D     55
     508                       2       1                               0D     56
     508      31                                                00010000D     57
     508                       1       1                               0D     58
     508      32                                                00010000D     59
     508                       1       1                               0D     60
     508      33                                                00010000D     61
     508                       1       1                               0D     62
     508      34                                                00010000D     63
     508                       3       1                               0D     64
     508      37                                                00010000D     65
     508                       3       1                               0D     66
     508      40                                                00010000D     67
     508                       2       1                               0D     68
     508      42                                                00010000D     69
     508                       2       1                               0D     70
     508      44                                                00010000D     71
     508                       1       1                               0D     72
     508      45                                                00010000D     73
     508                       2       1                               0D     74
     508      47                                                00010000D     75
     508                       2       1                               0D     76
     508      49                                                00010000D     77
     508                       1       1                               0D     78
     508      50                                                00010000D     79
     508                       1       1                               0D     80
     508      51                                                00010000D     81
     508                       1       1                               0D     82
     508      52                                                00010000D     83
     508                       1       1                               0D     84
     126      53                                                00010000D     85
     126       0               2       0                               0D     86
     126      55                                                00010000D     87
     126       0               2       0                               0D     88
     126      57                                                00010000D     89
     126       0               2       0                               0D     90
     126      59                                                00010000D     91
     126       0               2       0                               0D     92
     126      61                                                00010000D     93
     126       0               2       0                               0D     94
     126      63                                                00010000D     95
     126       0               2       0                               0D     96
     126      65                                                00010000D     97
     126       0               2       0                               0D     98
     126      67                                                00010000D     99
     126       0               2       0                               0D    100
     126      69                                                00010000D    101
     126       0               2       0                               0D    102
     126      71                                                00010000D    103
     126       0               2       0                               0D    104
     126      73                                                00010000D    105
     126       0               2       0                               0D    106
     126      75                                                00010000D    107
     126       0               2       0                               0D    108
     126      77                                                00010000D    109
     126       0               2       0                               0D    110
     126      79                                                00010000D    111
     126       0               2       0                               0D    112
     126      81                                                00010000D    113
     126       0               2       0                               0D    114
     126      83                                                00010000D    115
     126       0               2       0                               0D    116
     126      85                                                00010000D    117
     126       0               2       0                               0D    118
     126      87                                                00010000D    119
     126       0               3       0                               0D    120
     126      90                                                00010000D    121
     126       0               4       0                               0D    122
     126      94                                                00010000D    123
     126       0               2       0                               0D    124
     126      96                                                00010000D    125
     126       0               3       0                               0D    126
     126      99                                                00010000D    127
     126       0               3       0                               0D    128
     126     102                                                00010000D    129
     126       0               2       0                               0D    130
     126     104                                                00010000D    131
     126       0               2       0                               0D    132
     126     106                                                00010000D    133
     126       0               2       0                               0D    134
     126     108                                                00010000D    135
     126       0               2       0                               0D    136
     126     110                                                00010000D    137
     126       0               2       0                               0D    138
     126     112                                                00010000D    139
     126       0               2       0                               0D    140
     126     114                                                00010000D    141
     126       0               2       0                               0D    142
     126     116                                                00010000D    143
     126       0               2       0                               0D    144
     126     118                                                00010000D    145
     126       0               3       0                               0D    146
     126     121                                                00010000D    147
     126       0               2       0                               0D    148
     126     123                                                00010000D    149
     126       0               2       0                               0D    150
     126     125                                                00010000D    151
     126       0               4       0                               0D    152
     126     129                                                00010000D    153
     126       0               2       0                               0D    154
     126     131                                                00010000D    155
     126       0               2       0                               0D    156
     126     133                                                00010000D    157
     126       0               4       0                               0D    158
     126     137                                                00010000D    159
     126       0               2       0                               0D    160
     126     139                                                00010000D    161
     126       0               3       0                               0D    162
     126     142                                                00010000D    163
     126       0               2       0                               0D    164
     126     144                                                00010000D    165
     126       0               2       0                               0D    166
     126     146                                                00010000D    167
     126       0               2       0                               0D    168
     126     148                                                00010000D    169
     126       0               2       0                               0D    170
     126     150                                                00010000D    171
     126       0               2       0                               0D    172
     126     152                                                00010000D    173
     126       0               2       0                               0D    174
     126     154                                                00010000D    175
     126       0               4       0                               0D    176
     126     158                                                00010000D    177
     126       0               2       0                               0D    178
     126     160                                                00010000D    179
     126       0               3       0                               0D    180
     126     163                                                00010000D    181
     126       0               2       0                               0D    182
     126     165                                                00010000D    183
     126       0               3       0                               0D    184
     126     168                                                00010000D    185
     126       0               2       0                               0D    186
     126     170                                                00010000D    187
     126       0               2       0                               0D    188
     126     172                                                00010000D    189
     126       0               2       0                               0D    190
     126     174                                                00010000D    191
     126       0               3       0                               0D    192
     128     177                                                00010000D    193
     128       0    -239       3       0                               0D    194
     128     180                                                00010000D    195
     128       0    -239       3       0                               0D    196
     128     183                                                00010000D    197
     128       0    -239       3       0                               0D    198
     128     186                                                00010000D    199
     128       0    -239       3       0                               0D    200
     128     189                                                00010000D    201
     128       0    -239       3       0                               0D    202
     128     192                                                00010000D    203
     128       0    -239       4       0                               0D    204
     128     196                                                00010000D    205
     128       0    -239       3       0                               0D    206
     128     199                                                00010000D    207
     128       0    -239       3       0                               0D    208
     128     202                                                00010000D    209
     128       0    -239       3       0                               0D    210
     128     205                                                00010000D    211
     128       0    -239       3       0                               0D    212
     128     208                                                00010000D    213
     128       0    -239       4       0                               0D    214
     128     212                                                00010000D    215
     128       0    -239       6       0                               0D    216
     128     218                                                00010000D    217
     128       0    -239       3       0                               0D    218
     128     221                                                00010000D    219
     128       0    -239       4       0                               0D    220
     128     225                                                00010000D    221
     128       0    -239       4       0                               0D    222
     128     229                                                00010000D    223
     128       0    -239       6       0                               0D    224
     128     235                                                00010000D    225
     128       0    -239       6       0                               0D    226
     128     241                                                00010000D    227
     128       0    -239       4       0                               0D    228
     128     245                                                00010000D    229
     128       0    -239       3       0                               0D    230
     128     248                                                00010000D    231
     128       0    -239       4       0                               0D    232
     502     252                                                00010000D    233
     502                      11       1                               0D    234
     504     263                                                00010001D    235
     504                      16       1                               0D    236
     406     279                                                00000000D    237
     406                       1      15                               0D    238
     314     280                                                00000200D    239
     314                       2       0                               0D    240
186,3,1,0,0,1,237;                                                     1P      1
514,20,5,1,7,1,9,1,11,1,13,1,15,1,17,1,19,1,21,1,23,1,25,1,27,1,       3P      2
29,1,31,1,33,1,35,1,37,1,39,1,41,1,43,1;                               3P      3
510,193,1,1,45;                                                        5P      4
510,195,1,1,47;                                                        7P      5
510,197,1,1,49;                                                        9P      6
510,199,1,1,51;                                                       11P      7
510,201,1,1,53;                                                       13P      8
510,203,1,1,55;                                                       15P      9
510,205,1,1,57;                                                       17P     10
510,207,1,1,59;                                                       19P     11
510,209,1,1,61;                                                       21P     12
510,211,1,1,63;                                                       23P     13
510,213,1,1,65;                                                       25P     14
510,215,1,1,67;                                                       27P     15
510,217,1,1,69;                                                       29P     16
510,219,1,1,71;                                                       31P     17
510,221,1,1,73;                                                       33P     18
510,223,1,1,75;                                                       35P     19
510,225,1,1,77;                                                       37P     20
510,227,1,1,79;                                                       39P     21
510,229,1,1,81;                                                       41P     22
510,231,1,1,83;                                                       43P     23
508,4,0,235,1,0,0,0,235,2,1,0,0,235,3,0,0,0,235,4,0,0;                45P     24
508,4,0,235,5,1,0,0,235,3,1,0,0,235,6,1,0,0,235,7,1,0;                47P     25
508,4,0,235,1,1,0,0,235,8,0,0,0,235,9,1,0,0,235,10,0,0;               49P     26
508,4,0,235,11,0,0,0,235,12,1,0,0,235,13,0,0,0,235,14,0,0;            51P     27
508,4,0,235,15,1,0,0,235,13,1,0,0,235,16,1,0,0,235,17,1,0;            53P     28
508,6,0,235,11,1,0,0,235,18,0,0,0,235,19,1,0,0,235,20,1,0,0,235,      55P     29
21,1,0,0,235,22,0,0;                                                  55P     30
508,4,0,235,23,1,0,0,235,24,0,0,0,235,25,0,0,0,235,7,0,0;             57P     31
508,4,0,235,26,1,0,0,235,27,0,0,0,235,28,0,0,0,235,17,0,0;            59P     32
508,4,0,235,29,1,0,0,235,27,1,0,0,235,30,1,0,0,235,24,1,0;            61P     33
508,12,0,235,31,0,0,0,235,32,1,0,0,235,18,1,0,0,235,14,1,0,0,         63P     34
235,15,0,0,0,235,28,1,0,0,235,29,0,0,0,235,23,0,0,0,235,6,0,0,0,      63P     35
235,2,0,0,0,235,10,1,0,0,235,33,0,0;                                  63P     36
508,12,0,235,34,0,0,0,235,35,1,0,0,235,8,1,0,0,235,4,1,0,0,235,       65P     37
5,0,0,0,235,25,1,0,0,235,30,0,0,0,235,26,0,0,0,235,16,0,0,0,235,      65P     38
12,0,0,0,235,22,1,0,0,235,36,0,0;                                     65P     39
508,6,0,235,37,0,0,0,235,38,0,0,0,235,39,0,0,0,235,40,1,0,0,235,      67P     40
19,0,0,0,235,32,0,0;                                                  67P     41
508,8,0,235,41,1,0,0,235,42,1,0,0,235,43,0,0,0,235,33,1,0,0,235,      69P     42
9,0,0,0,235,35,0,0,0,235,44,0,0,0,235,45,0,0;                         69P     43
508,4,0,235,34,1,0,0,235,46,1,0,0,235,47,1,0,0,235,44,1,0;            71P     44
508,6,0,235,39,1,0,0,235,48,0,0,0,235,41,0,0,0,235,49,0,0,0,235,      73P     45
50,0,0,0,235,51,1,0;                                                  73P     46
508,6,0,235,50,1,0,0,235,52,1,0,0,235,46,0,0,0,235,36,1,0,0,235,      75P     47
21,0,0,0,235,53,0,0;                                                  75P     48
508,4,0,235,48,1,0,0,235,38,1,0,0,235,54,0,0,0,235,42,0,0;            77P     49
508,4,0,235,49,1,0,0,235,45,1,0,0,235,47,0,0,0,235,52,0,0;            79P     50
508,4,0,235,51,0,0,0,235,53,1,0,0,235,20,0,0,0,235,40,0,0;            81P     51
508,4,0,235,31,1,0,0,235,43,1,0,0,235,54,1,0,0,235,37,1,0;            83P     52
126,1,1,0,0,1,0,-0.525,-0.525,0.175,0.175,1.,1.,1.25,32.,12.,         85P     53
8.25,32.,12.,-0.525,0.175,0.,0.,0.;                                   85P     54
126,1,1,0,0,1,0,0.,0.,0.2,0.2,1.,1.,1.25,32.,12.,1.25,32.,10.,        87P     55
0.,0.2,0.,0.,0.;                                                      87P     56
126,1,1,0,0,1,0,-0.7,-0.7,0.,0.,1.,1.,8.25,32.,10.,1.25,32.,10.,      89P     57
-0.7,0.,0.,0.,0.;                                                     89P     58
126,1,1,0,0,1,0,0.,0.,0.2,0.2,1.,1.,8.25,32.,12.,8.25,32.,10.,        91P     59
0.,0.2,0.,0.,0.;                                                      91P     60
126,1,1,0,0,1,0,-0.3,-0.3,0.,0.,1.,1.,8.25,35.,10.,8.25,32.,10.,      93P     61
-0.3,0.,0.,0.,0.;                                                     93P     62
126,1,1,0,0,1,0,-0.3,-0.3,0.,0.,1.,1.,1.25,32.,10.,1.25,35.,10.,      95P     63
-0.3,0.,0.,0.,0.;                                                     95P     64
126,1,1,0,0,1,0,-0.7,-0.7,0.,0.,1.,1.,1.25,35.,10.,8.25,35.,10.,      97P     65
-0.7,0.,0.,0.,0.;                                                     97P     66
126,1,1,0,0,1,0,3.5,3.5,4.2,4.2,1.,1.,8.25,25.,12.,8.25,32.,12.,      99P     67
3.5,4.2,0.,0.,0.;                                                     99P     68
126,1,1,0,0,1,0,-0.7,-0.7,0.,0.,1.,1.,8.25,25.,12.,1.25,25.,12.,     101P     69
-0.7,0.,0.,0.,0.;                                                    101P     70
126,1,1,0,0,1,0,0.3,0.3,1.,1.,1.,1.,1.25,32.,12.,1.25,25.,12.,       103P     71
0.3,1.,0.,0.,0.;                                                     103P     72
126,1,1,0,0,1,0,-0.525,-0.525,0.175,0.175,1.,1.,8.25,-7.,12.,        105P     73
1.25,-7.,12.,-0.525,0.175,0.,0.,0.;                                  105P     74
126,1,1,0,0,1,0,0.,0.,0.2,0.2,1.,1.,8.25,-7.,12.,8.25,-7.,10.,       107P     75
0.,0.2,0.,0.,0.;                                                     107P     76
126,1,1,0,0,1,0,-0.7,-0.7,0.,0.,1.,1.,1.25,-7.,10.,8.25,-7.,10.,     109P     77
-0.7,0.,0.,0.,0.;                                                    109P     78
126,1,1,0,0,1,0,0.,0.,0.2,0.2,1.,1.,1.25,-7.,12.,1.25,-7.,10.,       111P     79
0.,0.2,0.,0.,0.;                                                     111P     80
126,1,1,0,0,1,0,-0.3,-0.3,0.,0.,1.,1.,1.25,-10.,10.,1.25,-7.,        113P     81
10.,-0.3,0.,0.,0.,0.;                                                113P     82
126,1,1,0,0,1,0,-0.3,-0.3,0.,0.,1.,1.,8.25,-7.,10.,8.25,-10.,        115P     83
10.,-0.3,0.,0.,0.,0.;                                                115P     84
126,1,1,0,0,1,0,-0.7,-0.7,0.,0.,1.,1.,8.25,-10.,10.,1.25,-10.,       117P     85
10.,-0.7,0.,0.,0.,0.;                                                117P     86
126,1,1,0,0,1,0,3.12471128891083,3.12471128891083,4.2,4.2,1.,1.,     119P     87
1.25,3.75288711089174,12.,1.25,-7.,12.,3.12471128891083,4.2,0.,      119P     88
0.,0.;                                                               119P     89
126,1,1,0,0,1,0,-0.414085277051689,-0.414085277051689,               121P     90
5.55111512312578D-17,5.55111512312578D-17,1.,1.,1.25,                121P     91
3.75288711089174,12.,3.,-8.51463764886989D-33,12.,                   121P     92
-0.414085277051689,5.55111512312578D-17,0.,0.,0.;                    121P     93
126,1,1,0,0,1,0,-0.525,-0.525,-0.175,-0.175,1.,1.,3.,0.,12.,6.5,     123P     94
0.,12.,-0.525,-0.175,0.,0.,0.;                                       123P     95
126,1,1,0,0,1,0,0.,0.,0.414085277051689,0.414085277051689,1.,1.,     125P     96
6.5,-8.51463764886989D-33,12.,8.25,3.75288711089174,12.,0.,          125P     97
0.414085277051689,0.,0.,0.;                                          125P     98
126,1,1,0,0,1,0,0.3,0.3,1.37528871108917,1.37528871108917,1.,1.,     127P     99
8.25,-7.,12.,8.25,3.75288711089174,12.,0.3,1.37528871108917,0.,      127P    100
0.,0.;                                                               127P    101
126,1,1,0,0,1,0,-0.2,-0.2,0.25,0.25,1.,1.,1.25,35.,10.,1.25,35.,     129P    102
14.5,-0.2,0.25,0.,0.,0.;                                             129P    103
126,1,1,0,0,1,0,0.,0.,0.7,0.7,1.,1.,8.25,35.,14.5,1.25,35.,14.5,     131P    104
0.,0.7,0.,0.,0.;                                                     131P    105
126,1,1,0,0,1,0,-0.2,-0.2,0.25,0.25,1.,1.,8.25,35.,10.,8.25,35.,     133P    106
14.5,-0.2,0.25,0.,0.,0.;                                             133P    107
126,1,1,0,0,1,0,-0.2,-0.2,0.25,0.25,1.,1.,8.25,-10.,10.,8.25,        135P    108
-10.,14.5,-0.2,0.25,0.,0.,0.;                                        135P    109
126,1,1,0,0,1,0,0.,0.,0.7,0.7,1.,1.,1.25,-10.,14.5,8.25,-10.,        137P    110
14.5,0.,0.7,0.,0.,0.;                                                137P    111
126,1,1,0,0,1,0,-0.2,-0.2,0.25,0.25,1.,1.,1.25,-10.,10.,1.25,        139P    112
-10.,14.5,-0.2,0.25,0.,0.,0.;                                        139P    113
126,1,1,0,0,1,0,0.,0.,4.5,4.5,1.,1.,1.25,35.,14.5,1.25,-10.,         141P    114
14.5,0.,4.5,0.,0.,0.;                                                141P    115
126,1,1,0,0,1,0,0.,0.,4.5,4.5,1.,1.,8.25,-10.,14.5,8.25,35.,         143P    116
14.5,0.,4.5,0.,0.,0.;                                                143P    117
126,1,1,0,0,1,0,-1.49971128891083,-1.49971128891083,0.625,0.625,     145P    118
1.,1.,1.25,3.75288711089174,2.,1.25,25.,2.,-1.49971128891083,        145P    119
0.625,0.,0.,0.;                                                      145P    120
126,1,1,0,0,1,0,0.2,0.2,1.2,1.2,1.,1.,1.25,3.75288711089174,2.,      147P    121
1.25,3.75288711089174,12.,0.2,1.2,0.,0.,0.;                          147P    122
126,1,1,0,0,1,0,0.2,0.2,1.2,1.2,1.,1.,1.25,25.,2.,1.25,25.,12.,      149P    123
0.2,1.2,0.,0.,0.;                                                    149P    124
126,1,1,0,0,1,0,-1.68735564445541,-1.68735564445541,                 151P    125
0.437355644455413,0.437355644455413,1.,1.,8.25,25.,2.,8.25,          151P    126
3.75288711089174,2.,-1.68735564445541,0.437355644455413,0.,0.,       151P    127
0.;                                                                  151P    128
126,1,1,0,0,1,0,0.2,0.2,1.2,1.2,1.,1.,8.25,25.,2.,8.25,25.,12.,      153P    129
0.2,1.2,0.,0.,0.;                                                    153P    130
126,1,1,0,0,1,0,0.2,0.2,1.2,1.2,1.,1.,8.25,3.75288711089174,2.,      155P    131
8.25,3.75288711089174,12.,0.2,1.2,0.,0.,0.;                          155P    132
126,1,1,0,0,1,0,-0.709860474945752,-0.709860474945752,               157P    133
-0.414085277051689,-0.414085277051689,1.,1.,0.,6.4335207615287,      157P    134
2.,1.25,3.75288711089174,2.,-0.709860474945752,                      157P    135
-0.414085277051689,0.,0.,0.;                                         157P    136
126,1,1,0,0,1,0,0.,0.,0.2,0.2,1.,1.,0.,6.4335207615287,0.,0.,        159P    137
6.4335207615287,2.,0.,0.2,0.,0.,0.;                                  159P    138
126,1,1,0,0,1,0,0.,0.,0.709860474945752,0.709860474945752,1.,1.,     161P    139
3.,-8.51463764886989D-33,0.,0.,6.4335207615287,0.,0.,                161P    140
0.709860474945752,0.,0.,0.;                                          161P    141
126,1,1,0,0,1,0,0.,0.,1.2,1.2,1.,1.,3.,-8.51463764886989D-33,0.,     163P    142
3.,-8.51463764886989D-33,12.,0.,1.2,0.,0.,0.;                        163P    143
126,1,1,0,0,1,0,0.,0.,0.95,0.95,1.,1.,9.5,25.,0.,0.,25.,0.,0.,       165P    144
0.95,0.,0.,0.;                                                       165P    145
126,1,1,0,0,1,0,0.,0.,0.2,0.2,1.,1.,5.39260384428426D-32,25.,0.,     167P    146
5.39260384428426D-32,25.,2.,0.,0.2,0.,0.,0.;                         167P    147
126,1,1,0,0,1,0,0.825,0.825,0.95,0.95,1.,1.,1.25,25.,2.,0.,25.,      169P    148
2.,0.825,0.95,0.,0.,0.;                                              169P    149
126,1,1,0,0,1,0,0.,0.,0.125,0.125,1.,1.,9.5,25.,2.,8.25,25.,2.,      171P    150
0.,0.125,0.,0.,0.;                                                   171P    151
126,1,1,0,0,1,0,0.,0.,0.2,0.2,1.,1.,9.5,25.,0.,9.5,25.,2.,0.,        173P    152
0.2,0.,0.,0.;                                                        173P    153
126,1,1,0,0,1,0,0.414085277051689,0.414085277051689,                 175P    154
0.709860474945752,0.709860474945752,1.,1.,8.25,3.75288711089174,     175P    155
2.,9.5,6.4335207615287,2.,0.414085277051689,0.709860474945752,       175P    156
0.,0.,0.;                                                            175P    157
126,1,1,0,0,1,0,0.64335207615287,0.64335207615287,2.5,2.5,1.,1.,     177P    158
9.5,6.4335207615287,2.,9.5,25.,2.,0.64335207615287,2.5,0.,0.,0.;     177P    159
126,1,1,0,0,1,0,0.,0.,1.85664792384713,1.85664792384713,1.,1.,       179P    160
5.39260384428426D-32,25.,0.,1.38773715163609D-32,                    179P    161
6.4335207615287,0.,0.,1.85664792384713,0.,0.,0.;                     179P    162
126,1,1,0,0,1,0,0.64335207615287,0.64335207615287,2.5,2.5,1.,1.,     181P    163
9.5,6.4335207615287,0.,9.5,25.,0.,0.64335207615287,2.5,0.,0.,0.;     181P    164
126,1,1,0,0,1,0,0.,0.,0.709860474945752,0.709860474945752,1.,1.,     183P    165
6.5,-8.51463764886989D-33,0.,9.5,6.4335207615287,0.,0.,              183P    166
0.709860474945752,0.,0.,0.;                                          183P    167
126,1,1,0,0,1,0,0.175,0.175,0.525,0.525,1.,1.,6.5,0.,0.,3.,0.,       185P    168
0.,0.175,0.525,0.,0.,0.;                                             185P    169
126,1,1,0,0,1,0,0.,0.,0.2,0.2,1.,1.,9.5,6.4335207615287,0.,9.5,      187P    170
6.4335207615287,2.,0.,0.2,0.,0.,0.;                                  187P    171
126,1,1,0,0,1,0,0.,0.,1.2,1.2,1.,1.,6.5,-8.51463764886989D-33,       189P    172
0.,6.5,-8.51463764886989D-33,12.,0.,1.2,0.,0.,0.;                    189P    173
126,1,1,0,0,1,0,0.,0.,1.85664792384713,1.85664792384713,1.,1.,       191P    174
5.39260384428426D-32,25.,2.,1.38773715163609D-32,                    191P    175
6.4335207615287,2.,0.,1.85664792384713,0.,0.,0.;                     191P    176
128,1,1,1,1,0,0,1,0,0,-0.001,-0.001,0.701,0.701,-0.001,-0.001,       193P    177
0.201,0.201,1.,1.,1.,1.,8.26,32.,12.01,1.24,32.,12.01,8.26,32.,      193P    178
9.99,1.24,32.,9.99,-0.001,0.701,-0.001,0.201;                        193P    179
128,1,1,1,1,0,0,1,0,0,-0.351,-0.351,0.351,0.351,-0.151,-0.151,       195P    180
0.151,0.151,1.,1.,1.,1.,8.26,31.99,10.,1.24,31.99,10.,8.26,          195P    181
35.01,10.,1.24,35.01,10.,-0.351,0.351,-0.151,0.151;                  195P    182
128,1,1,1,1,0,0,1,0,0,-0.351,-0.351,0.351,0.351,-1.951,-1.951,       197P    183
-1.249,-1.249,1.,1.,1.,1.,1.24,32.01,12.,8.26,32.01,12.,1.24,        197P    184
24.99,12.,8.26,24.99,12.,-0.351,0.351,-1.951,-1.249;                 197P    185
128,1,1,1,1,0,0,1,0,0,-0.001,-0.001,0.701,0.701,-0.001,-0.001,       199P    186
0.201,0.201,1.,1.,1.,1.,1.24,-7.,12.01,8.26,-7.,12.01,1.24,-7.,      199P    187
9.99,8.26,-7.,9.99,-0.001,0.701,-0.001,0.201;                        199P    188
128,1,1,1,1,0,0,1,0,0,-0.351,-0.351,0.351,0.351,-0.151,-0.151,       201P    189
0.151,0.151,1.,1.,1.,1.,8.26,-10.01,10.,1.24,-10.01,10.,8.26,        201P    190
-6.99,10.,1.24,-6.99,10.,-0.351,0.351,-0.151,0.151;                  201P    191
128,1,1,1,1,0,0,1,0,0,-0.351,-0.351,0.351,0.351,                     203P    192
0.873711288910826,0.873711288910826,1.951,1.951,1.,1.,1.,1.,         203P    193
1.24,3.76288711089174,12.,8.26,3.76288711089174,12.,1.24,-7.01,      203P    194
12.,8.26,-7.01,12.,-0.351,0.351,0.873711288910826,1.951;             203P    195
128,1,1,1,1,0,0,1,0,0,-0.001,-0.001,0.701,0.701,-0.201,-0.201,       205P    196
0.251,0.251,1.,1.,1.,1.,8.26,35.,9.99,1.24,35.,9.99,8.26,35.,        205P    197
14.51,1.24,35.,14.51,-0.001,0.701,-0.201,0.251;                      205P    198
128,1,1,1,1,0,0,1,0,0,-0.001,-0.001,0.701,0.701,-0.201,-0.201,       207P    199
0.251,0.251,1.,1.,1.,1.,1.24,-10.,9.99,8.26,-10.,9.99,1.24,-10.,     207P    200
14.51,8.26,-10.,14.51,-0.001,0.701,-0.201,0.251;                     207P    201
128,1,1,1,1,0,0,1,0,0,-0.351,-0.351,0.351,0.351,-2.251,-2.251,       209P    202
2.251,2.251,1.,1.,1.,1.,1.24,-10.01,14.5,8.26,-10.01,14.5,1.24,      209P    203
35.01,14.5,8.26,35.01,14.5,-0.351,0.351,-2.251,2.251;                209P    204
128,1,1,1,1,0,0,1,0,0,-1.001,-1.001,3.501,3.501,0.199,0.199,         211P    205
1.451,1.451,1.,1.,1.,1.,1.25,35.01,1.99,1.25,-10.01,1.99,1.25,       211P    206
35.01,14.51,1.25,-10.01,14.51,-1.001,3.501,0.199,1.451;              211P    207
128,1,1,1,1,0,0,1,0,0,-1.37628871108917,-1.37628871108917,           213P    208
3.12571128891083,3.12571128891083,0.199,0.199,1.451,1.451,1.,1.,     213P    209
1.,1.,8.25,-10.01,1.99,8.25,35.01,1.99,8.25,-10.01,14.51,8.25,       213P    210
35.01,14.51,-1.37628871108917,3.12571128891083,0.199,1.451;          213P    211
128,1,1,1,1,0,0,1,0,0,-0.001,-0.001,0.710860474945752,               215P    212
0.710860474945752,-0.001,-0.001,1.201,1.201,1.,1.,1.,1.,             215P    213
-0.00422618261740698,6.44258383939906,-0.01,3.00422618261741,        215P    214
-0.00906307787036598,-0.01,-0.00422618261740698,                     215P    215
6.44258383939906,12.01,3.00422618261741,-0.00906307787036598,        215P    216
12.01,-0.001,0.710860474945752,-0.001,1.201;                         215P    217
128,1,1,1,1,0,0,1,0,0,-0.001,-0.001,0.951,0.951,-0.001,-0.001,       217P    218
1.201,1.201,1.,1.,1.,1.,9.51,25.,-0.01,-0.01,25.,-0.01,9.51,25.,     217P    219
12.01,-0.01,25.,12.01,-0.001,0.951,-0.001,1.201;                     217P    220
128,1,1,1,1,0,0,1,0,0,0.349,0.349,0.476,0.476,                       219P    221
-0.875711288910826,-0.875711288910826,1.251,1.251,1.,1.,1.,1.,       219P    222
8.24,3.74288711089174,2.,9.51,3.74288711089174,2.,8.24,25.01,2.,     219P    223
9.51,25.01,2.,0.349,0.476,-0.875711288910826,1.251;                  219P    224
128,1,1,1,1,0,0,1,0,0,-0.476,-0.476,0.476,0.476,-1.251,-1.251,       221P    225
1.251,1.251,1.,1.,1.,1.,9.51,-0.0099999999999989,0.,-0.01,           221P    226
-0.0099999999999989,0.,9.51,25.01,0.,-0.01,25.01,0.,-0.476,          221P    227
0.476,-1.251,1.251;                                                  221P    228
128,1,1,1,1,0,0,1,0,0,-0.00100000000000004,-0.00100000000000004,     223P    229
0.710860474945752,0.710860474945752,-0.001,-0.001,1.201,1.201,       223P    230
1.,1.,1.,1.,6.49577381738259,-0.00906307787036685,-0.01,             223P    231
9.50422618261741,6.44258383939906,-0.01,6.49577381738259,            223P    232
-0.00906307787036685,12.01,9.50422618261741,6.44258383939906,        223P    233
12.01,-0.00100000000000004,0.710860474945752,-0.001,1.201;           223P    234
128,1,1,1,1,0,0,1,0,0,-0.001,-0.001,1.85764792384713,                225P    235
1.85764792384713,-0.001,-0.001,0.201,0.201,1.,1.,1.,1.,              225P    236
5.39476088582197D-32,25.01,-0.01,1.38558011009838D-32,               225P    237
6.4235207615287,-0.01,5.39476088582197D-32,25.01,2.01,               225P    238
1.38558011009838D-32,6.4235207615287,2.01,-0.001,                    225P    239
1.85764792384713,-0.001,0.201;                                       225P    240
128,1,1,1,1,0,0,1,0,0,-0.001,-0.001,1.85764792384713,                227P    241
1.85764792384713,-0.001,-0.001,0.201,0.201,1.,1.,1.,1.,9.5,          227P    242
6.4235207615287,-0.01,9.5,25.01,-0.01,9.5,6.4235207615287,2.01,      227P    243
9.5,25.01,2.01,-0.001,1.85764792384713,-0.001,0.201;                 227P    244
128,1,1,1,1,0,0,1,0,0,-0.001,-0.001,0.351,0.351,-0.001,-0.001,       229P    245
1.201,1.201,1.,1.,1.,1.,2.99,0.,-0.01,6.51,0.,-0.01,2.99,0.,         229P    246
12.01,6.51,0.,12.01,-0.001,0.351,-0.001,1.201;                       229P    247
128,1,1,1,1,0,0,1,0,0,-0.476,-0.476,-0.349,-0.349,                   231P    248
-0.875711288910826,-0.875711288910826,1.251,1.251,1.,1.,1.,1.,       231P    249
-0.01,3.74288711089174,2.,1.26,3.74288711089174,2.,-0.01,25.01,      231P    250
2.,1.26,25.01,2.,-0.476,-0.349,-0.875711288910826,1.251;             231P    251
502,36,1.25,32.,12.,8.25,32.,12.,1.25,32.,10.,8.25,32.,10.,8.25,     233P    252
35.,10.,1.25,35.,10.,8.25,25.,12.,1.25,25.,12.,8.25,-7.,12.,         233P    253
1.25,-7.,12.,8.25,-7.,10.,1.25,-7.,10.,1.25,-10.,10.,8.25,-10.,      233P    254
10.,1.25,3.75288711089174,12.,3.,-8.51463764886989D-33,12.,6.5,      233P    255
-8.51463764886989D-33,12.,8.25,3.75288711089174,12.,1.25,35.,        233P    256
14.5,8.25,35.,14.5,8.25,-10.,14.5,1.25,-10.,14.5,1.25,               233P    257
3.75288711089174,2.,1.25,25.,2.,8.25,25.,2.,8.25,                    233P    258
3.75288711089174,2.,0.,6.4335207615287,2.,0.,6.4335207615287,0.,     233P    259
3.,-8.51463764886989D-33,0.,9.5,25.,0.,5.39260384428426D-32,25.,     233P    260
0.,0.,25.,2.,9.5,25.,2.,9.5,6.4335207615287,2.,9.5,                  233P    261
6.4335207615287,0.,6.5,-8.51463764886989D-33,0.;                     233P    262
504,54,85,233,1,233,2,87,233,1,233,3,89,233,4,233,3,91,233,2,        235P    263
233,4,93,233,5,233,4,95,233,3,233,6,97,233,6,233,5,99,233,7,233,     235P    264
2,101,233,7,233,8,103,233,1,233,8,105,233,9,233,10,107,233,9,        235P    265
233,11,109,233,12,233,11,111,233,10,233,12,113,233,13,233,12,        235P    266
115,233,11,233,14,117,233,14,233,13,119,233,15,233,10,121,233,       235P    267
15,233,16,123,233,16,233,17,125,233,17,233,18,127,233,9,233,18,      235P    268
129,233,6,233,19,131,233,20,233,19,133,233,5,233,20,135,233,14,      235P    269
233,21,137,233,22,233,21,139,233,13,233,22,141,233,19,233,22,        235P    270
143,233,21,233,20,145,233,23,233,24,147,233,23,233,15,149,233,       235P    271
24,233,8,151,233,25,233,26,153,233,25,233,7,155,233,26,233,18,       235P    272
157,233,27,233,23,159,233,28,233,27,161,233,29,233,28,163,233,       235P    273
29,233,16,165,233,30,233,31,167,233,31,233,32,169,233,24,233,32,     235P    274
171,233,33,233,25,173,233,30,233,33,175,233,26,233,34,177,233,       235P    275
34,233,33,179,233,31,233,28,181,233,35,233,30,183,233,36,233,35,     235P    276
185,233,36,233,29,187,233,35,233,34,189,233,36,233,17,191,233,       235P    277
32,233,27;                                                           235P    278
406,1,5HBody1;                                                       237P    279
314,62.7450980392157,62.7450980392157,62.7450980392157,13HSteel      239P    280
- Satin;                                                             239P    281
S      1G      3D    240P    281                                        T      1
