0
SECTION
2
HEADER
9
$INSUNITS
70
4
9
$ACADVER
1
AC1014
9
$HANDSEED
5
FFFF
0
ENDSEC
0
SECTION
2
TABLES
0
TABLE
2
VPORT
5
8
100
AcDbSymbolTable
0
ENDTAB
0
TABLE
2
LTYPE
5
5
100
AcDbSymbolTable
0
LTYPE
5
14
100
AcDbSymbolTableRecord
100
AcDbLinetypeTableRecord
2
BYBLOCK
70
0
0
LTYPE
5
15
100
AcDbSymbolTableRecord
100
AcDbLinetypeTableRecord
2
BYLAYER
70
0
0
ENDTAB
0
TABLE
2
LAYER
5
2
100
AcDbSymbolTable
70
2
0
LAYER
5
50
100
AcDbSymbolTableRecord
100
AcDbLayerTableRecord
2
0
70
0
6
CONTINUOUS
0
ENDTAB
0
TABLE
2
STYLE
5
3
100
AcDbSymbolTable
70
1
0
STYLE
5
11
100
AcDbSymbolTableRecord
100
AcDbTextStyleTableRecord
2
STANDARD
70
0
0
ENDTAB
0
TABLE
2
VIEW
5
6
100
AcDbSymbolTable
70
0
0
ENDTAB
0
TABLE
2
UCS
5
7
100
AcDbSymbolTable
70
0
0
ENDTAB
0
TABLE
2
APPID
5
9
100
AcDbSymbolTable
70
2
0
APPID
5
12
100
AcDbSymbolTableRecord
100
AcDbRegAppTableRecord
2
ACAD
70
0
0
ENDTAB
0
TABLE
2
DIMSTYLE
5
A
100
AcDbSymbolTable
70
1
0
ENDTAB
0
TABLE
2
BLOCK_RECORD
5
1
100
AcDbSymbolTable
70
1
0
BLOCK_RECORD
5
1F
100
AcDbSymbolTableRecord
100
AcDbBlockTableRecord
2
*MODEL_SPACE
0
BLOCK_RECORD
5
1B
100
AcDbSymbolTableRecord
100
AcDbBlockTableRecord
2
*PAPER_SPACE
0
ENDTAB
0
ENDSEC
0
SECTION
2
BLOCKS
0
BLOCK
5
20
100
AcDbEntity
100
AcDbBlockBegin
2
*MODEL_SPACE
0
ENDBLK
5
21
100
AcDbEntity
100
AcDbBlockEnd
0
BLOCK
5
1C
100
AcDbEntity
100
AcDbBlockBegin
2
*PAPER_SPACE
0
ENDBLK
5
1D
100
AcDbEntity
100
AcDbBlockEnd
0
ENDSEC
0
SECTION
2
ENTITIES
0
LWPOLYLINE
5
100
100
AcDbEntity
8
0
100
AcDbPolyline
90
4
70
1
43
0.0
10
-8.4999999999999964
20
-6.7000000000000002
10
-8.4999999999999964
20
29.199999999999999
10
-20.5
20
29.199999999999999
10
-20.5
20
-6.6999999999999993
0
LWPOLYLINE
5
101
100
AcDbEntity
8
0
100
AcDbPolyline
90
6
70
1
43
0.0
10
-30.081793068761652
20
24.35000000000003
10
-28.436344801571245
20
21.500000000000078
10
-25.145448267190417
20
21.50000000000006
10
-23.499999999999996
20
24.35000000000003
10
-25.14544826719041
20
27.199999999999996
10
-28.436344801571241
20
27.199999999999996
0
LWPOLYLINE
5
102
100
AcDbEntity
8
0
100
AcDbPolyline
90
8
70
1
43
0.0
10
-20.5
20
29.199999999999999
10
-32.081793068761655
20
29.199999999999999
10
-32.081793068761655
20
19.500000000000078
10
-33.581793068761655
20
19.500000000000078
10
-33.581793068761655
20
29.199999999999999
10
-32.081793068761655
20
29.199999999999999
10
-32.081793068761655
20
19.500000000000078
10
-20.5
20
19.5
0
CIRCLE
5
103
100
AcDbEntity
8
0
100
AcDbCircle
10
-26.790896534380828
20
24.35000000000003
30
0
40
1.5000000000000013
210
0
220
0
230
1
0
LWPOLYLINE
5
104
100
AcDbEntity
8
0
100
AcDbPolyline
90
6
70
1
43
0.0
10
-23.499999999999996
20
-1.8500000000000152
10
-25.145448267190421
20
0.99999999999996758
10
-28.436344801571266
20
0.9999999999999698
10
-30.081793068761691
20
-1.850000000000015
10
-28.436344801571281
20
-4.6999999999999993
10
-25.145448267190417
20
-4.6999999999999993
0
LWPOLYLINE
5
105
100
AcDbEntity
8
0
100
AcDbPolyline
90
8
70
1
43
0.0
10
-32.081793068761691
20
-6.6999999999999993
10
-20.5
20
-6.6999999999999993
10
-32.081793068761691
20
-6.6999999999999993
10
-32.081793068761691
20
-8.1999999999999993
10
-20.5
20
-8.1999999999999993
10
-20.5
20
-6.6999999999999993
10
-20.5
20
2.9999999999999982
10
-32.081793068761691
20
2.9999999999999676
0
CIRCLE
5
106
100
AcDbEntity
8
0
100
AcDbCircle
10
-26.790896534380842
20
-1.850000000000015
30
0
40
1.5000000000000013
210
0
220
0
230
1
0
LWPOLYLINE
5
107
100
AcDbEntity
8
0
100
AcDbPolyline
90
4
70
1
43
0.0
10
-20.5
20
29.199999999999999
10
-33.581793068761655
20
29.199999999999999
10
-33.581793068761655
20
30.699999999999999
10
-20.5
20
30.699999999999999
0
LWPOLYLINE
5
108
100
AcDbEntity
8
0
100
AcDbPolyline
90
4
70
1
43
0.0
10
-32.081793068761691
20
2.9999999999999676
10
-33.581793068761691
20
2.9999999999999676
10
-33.581793068761691
20
-8.1999999999999993
10
-32.081793068761691
20
-8.1999999999999993
0
ENDSEC
0
SECTION
2
OBJECTS
0
DICTIONARY
5
C
100
AcDbDictionary
3
ACAD_GROUP
350
D
3
ACAD_MLINESTYLE
350
17
0
DICTIONARY
5
D
100
AcDbDictionary
0
DICTIONARY
5
1A
330
C
100
AcDbDictionary
0
DICTIONARY
5
17
100
AcDbDictionary
0
ENDSEC
0
EOF
