                                                                        S      1
,,17HPicture Hanger v2,17HPicture Hanger v2,7Hunknown,7Hunknown,32,38,7,G      1
99,15,,1.,2,2HMM,1,0.08,15H20220922.115148,0.01,10000.,7Hunknown,7HunknoG      2
wn,11,0,15H20200813.145655;                                             G      3
     186       1                                                00000000D      1
     186            -117       1       0                               0D      2
     514       2                                                00010000D      3
     514                       1       1                               0D      4
     510       3                                                00010000D      5
     510            -117       1       1                               0D      6
     510       4                                                00010000D      7
     510            -117       1       1                               0D      8
     510       5                                                00010000D      9
     510            -117       1       1                               0D     10
     510       6                                                00010000D     11
     510            -117       1       1                               0D     12
     510       7                                                00010000D     13
     510            -117       1       1                               0D     14
     510       8                                                00010000D     15
     510            -117       1       1                               0D     16
     510       9                                                00010000D     17
     510            -117       1       1                               0D     18
     510      10                                                00010000D     19
     510            -117       1       1                               0D     20
     510      11                                                00010000D     21
     510            -117       1       1                               0D     22
     510      12                                                00010000D     23
     510            -117       1       1                               0D     24
     508      13                                                00010000D     25
     508                       1       1                               0D     26
     508      14                                                00010000D     27
     508                       1       1                               0D     28
     508      15                                                00010000D     29
     508                       1       1                               0D     30
     508      16                                                00010000D     31
     508                       1       1                               0D     32
     508      17                                                00010000D     33
     508                       2       1                               0D     34
     508      19                                                00010000D     35
     508                       1       1                               0D     36
     508      20                                                00010000D     37
     508                       1       1                               0D     38
     508      21                                                00010000D     39
     508                       1       1                               0D     40
     508      22                                                00010000D     41
     508                       1       1                               0D     42
     508      23                                                00010000D     43
     508                       1       1                               0D     44
     508      24                                                00010000D     45
     508                       1       1                               0D     46
     508      25                                                00010000D     47
     508                       1       1                               0D     48
     508      26                                                00010000D     49
     508                       1       1                               0D     50
     126      27                                                00010000D     51
     126       0               3       0                               0D     52
     126      30                                                00010000D     53
     126       0               5       0                               0D     54
     126      35                                                00010000D     55
     126       0               3       0                               0D     56
     126      38                                                00010000D     57
     126       0               5       0                               0D     58
     126      43                                                00010000D     59
     126       0               2       0                               0D     60
     126      45                                                00010000D     61
     126       0               5       0                               0D     62
     126      50                                                00010000D     63
     126       0               2       0                               0D     64
     126      52                                                00010000D     65
     126       0               3       0                               0D     66
     126      55                                                00010000D     67
     126       0               2       0                               0D     68
     126      57                                                00010000D     69
     126       0               2       0                               0D     70
     126      59                                                00010000D     71
     126       0               3       0                               0D     72
     126      62                                                00010000D     73
     126       0               5       0                               0D     74
     126      67                                                00010000D     75
     126       0               4       0                               0D     76
     126      71                                                00010000D     77
     126       0               9       0                               0D     78
     126      80                                                00010000D     79
     126       0              10       0                               0D     80
     126      90                                                00010000D     81
     126       0               9       0                               0D     82
     126      99                                                00010000D     83
     126       0               2       0                               0D     84
     126     101                                                00010000D     85
     126       0               9       0                               0D     86
     126     110                                                00010000D     87
     126       0               2       0                               0D     88
     126     112                                                00010000D     89
     126       0               9       0                               0D     90
     128     121                                                00010000D     91
     128       0    -117       9       0                               0D     92
     128     130                                                00010000D     93
     128       0    -117       6       0                               0D     94
     128     136                                                00010000D     95
     128       0    -117       3       0                               0D     96
     128     139                                                00010000D     97
     128       0    -117       3       0                               0D     98
     128     142                                                00010000D     99
     128       0    -117      11       0                               0D    100
     128     153                                                00010000D    101
     128       0    -117       3       0                               0D    102
     128     156                                                00010000D    103
     128       0    -117      11       0                               0D    104
     128     167                                                00010000D    105
     128       0    -117      11       0                               0D    106
     128     178                                                00010000D    107
     128       0    -117       3       0                               0D    108
     128     181                                                00010000D    109
     128       0    -117       3       0                               0D    110
     502     184                                                00010000D    111
     502                       5       1                               0D    112
     504     189                                                00010001D    113
     504                       6       1                               0D    114
     406     195                                                00000000D    115
     406                       1      15                               0D    116
     314     196                                                00000200D    117
     314                       2       0                               0D    118
186,3,1,0,0,1,115;                                                     1P      1
514,10,5,1,7,1,9,1,11,1,13,1,15,1,17,1,19,1,21,1,23,1;                 3P      2
510,91,1,1,25;                                                         5P      3
510,93,1,1,27;                                                         7P      4
510,95,1,1,29;                                                         9P      5
510,97,1,1,31;                                                        11P      6
510,99,1,1,33;                                                        13P      7
510,101,2,1,35,37;                                                    15P      8
510,103,1,1,39;                                                       17P      9
510,105,1,1,41;                                                       19P     10
510,107,2,1,43,45;                                                    21P     11
510,109,2,1,47,49;                                                    23P     12
508,4,0,113,1,1,0,0,113,2,1,0,0,113,3,1,0,0,113,4,1,0;                25P     13
508,4,0,113,2,0,0,0,113,5,1,0,0,113,6,0,0,0,113,7,0,0;                27P     14
508,4,0,113,7,1,0,0,113,8,0,0,0,113,9,0,0,0,113,3,0,0;                29P     15
508,4,0,113,10,0,0,0,113,11,0,0,0,113,5,0,0,0,113,1,0,0;              31P     16
508,7,0,113,9,1,0,0,113,12,0,0,0,113,10,1,0,0,113,4,0,0,0,113,        33P     17
13,1,0,0,113,14,0,0,0,113,13,0,0;                                     33P     18
508,1,0,113,15,1,0;                                                   35P     19
508,4,0,113,12,1,0,0,113,8,1,0,0,113,6,1,0,0,113,11,1,0;              37P     20
508,4,0,113,16,0,0,0,113,17,1,0,0,113,18,1,0,0,113,17,0,0;            39P     21
508,4,0,113,15,0,0,0,113,19,1,0,0,113,20,1,0,0,113,19,0,0;            41P     22
508,1,0,113,14,1,0;                                                   43P     23
508,1,0,113,16,1,0;                                                   45P     24
508,1,0,113,20,0,0;                                                   47P     25
508,1,0,113,18,0,0;                                                   49P     26
126,2,2,0,0,0,0,0.,0.,0.,1.5707963267949,1.5707963267949,             51P     27
1.5707963267949,1.,0.707106781186548,1.,6.,0.,7.,6.,0.,9.,4.,0.,      51P     28
9.,0.,1.5707963267949,0.,0.,0.;                                       51P     29
126,4,2,0,0,0,0,0.,0.,0.,1.5707963267949,1.5707963267949,             53P     30
3.14159265358979,3.14159265358979,3.14159265358979,1.,                53P     31
0.707106781186548,1.,0.707106781186548,1.,4.,0.,9.,4.,4.,9.,          53P     32
2.44929359829471D-16,4.,9.,-4.,4.,9.,-4.,4.89858719658941D-16,        53P     33
9.,0.,3.14159265358979,0.,0.,0.;                                      53P     34
126,2,2,0,0,0,0,-1.5707963267949,-1.5707963267949,                    55P     35
-1.5707963267949,0.,0.,0.,1.,0.707106781186549,1.,-4.,0.,9.,-6.,      55P     36
0.,9.,-6.,0.,7.,-1.5707963267949,0.,0.,0.,0.;                         55P     37
126,4,2,0,0,0,0,-1.5707963267949,-1.5707963267949,                    57P     38
-1.5707963267949,0.,0.,1.5707963267949,1.5707963267949,               57P     39
1.5707963267949,1.,0.707106781186548,1.,0.707106781186548,1.,         57P     40
-6.,7.34788079488412D-16,7.,-6.,6.,7.,3.67394039744206D-16,6.,        57P     41
7.,6.,6.,7.,6.,0.,7.,-1.5707963267949,1.5707963267949,0.,0.,0.;       57P     42
126,1,1,0,0,1,0,0.,0.,0.3,0.3,1.,1.,4.,0.,9.,4.,0.,12.,0.,0.3,        59P     43
0.,0.,0.;                                                             59P     44
126,4,2,0,0,0,0,-3.14159265358979,-3.14159265358979,                  61P     45
-3.14159265358979,-1.5707963267949,-1.5707963267949,0.,0.,0.,1.,      61P     46
0.707106781186548,1.,0.707106781186548,1.,-4.,                        61P     47
4.89858719658941D-16,12.,-4.,4.,12.,2.44929359829471D-16,4.,12.,      61P     48
4.,4.,12.,4.,0.,12.,-3.14159265358979,0.,0.,0.,0.;                    61P     49
126,1,1,0,0,1,0,0.,0.,0.3,0.3,1.,1.,-4.,0.,9.,-4.,0.,12.,0.,0.3,      63P     50
0.,0.,0.;                                                             63P     51
126,1,1,0,0,1,0,0.600000017881393,0.600000017881393,                  65P     52
0.800000017881393,0.800000017881393,1.,1.,-6.,0.,12.,-4.,0.,12.,      65P     53
0.600000017881393,0.800000017881393,0.,0.,0.;                         65P     54
126,1,1,0,0,1,0,0.7,0.7,1.2,1.2,1.,1.,-6.,0.,7.,-6.,0.,12.,0.7,       67P     55
1.2,0.,0.,0.;                                                         67P     56
126,1,1,0,0,1,0,-1.2,-1.2,-0.7,-0.7,1.,1.,6.,0.,12.,6.,0.,7.,         69P     57
-1.2,-0.7,0.,0.,0.;                                                   69P     58
126,1,1,0,0,1,0,1.60000001788139,1.60000001788139,                    71P     59
1.80000001788139,1.80000001788139,1.,1.,4.,0.,12.,6.,0.,12.,          71P     60
1.60000001788139,1.80000001788139,0.,0.,0.;                           71P     61
126,4,2,0,0,0,0,0.,0.,0.,1.5707963267949,1.5707963267949,             73P     62
3.14159265358979,3.14159265358979,3.14159265358979,1.,                73P     63
0.707106781186548,1.,0.707106781186548,1.,6.,0.,12.,6.,-6.,12.,       73P     64
3.67394039744206D-16,-6.,12.,-6.,-6.,12.,-6.,                         73P     65
-7.34788079488412D-16,12.,0.,3.14159265358979,0.,0.,0.;               73P     66
126,1,1,0,0,1,0,-1.16666666666667,-1.16666666666667,                  75P     67
-0.333333333333333,-0.333333333333333,1.,1.,-6.,                      75P     68
7.34788079488412D-16,7.,-6.,0.,2.,-1.16666666666667,                  75P     69
-0.333333333333333,0.,0.,0.;                                          75P     70
126,8,2,0,1,0,0,-3.14159265358979,-3.14159265358979,                  77P     71
-3.14159265358979,-1.5707963267949,-1.5707963267949,0.,0.,            77P     72
1.5707963267949,1.5707963267949,3.14159265358979,                     77P     73
3.14159265358979,3.14159265358979,1.,0.707106781186548,1.,            77P     74
0.707106781186548,1.,0.707106781186548,1.,0.707106781186548,1.,       77P     75
-6.,-7.34788079488412D-16,2.,-6.,-6.,2.,3.67394039744206D-16,         77P     76
-6.,2.,6.,-6.,2.,6.,0.,2.,6.,6.,2.,3.67394039744206D-16,6.,2.,        77P     77
-6.,6.,2.,-6.,7.34788079488412D-16,2.,-3.14159265358979,              77P     78
3.14159265358979,0.,0.,0.;                                            77P     79
126,8,2,0,1,0,0,-3.14159265358979,-3.14159265358979,                  79P     80
-3.14159265358979,-1.5707963267949,-1.5707963267949,0.,0.,            79P     81
1.5707963267949,1.5707963267949,3.14159265358979,                     79P     82
3.14159265358979,3.14159265358979,1.,0.707106781186548,1.,            79P     83
0.707106781186548,1.,0.707106781186548,1.,0.707106781186548,1.,       79P     84
-7.5,-9.18485099360515D-16,12.,-7.5,-7.5,12.,                         79P     85
4.59242549680257D-16,-7.5,12.,7.5,-7.5,12.,7.5,0.,12.,7.5,7.5,        79P     86
12.,4.59242549680257D-16,7.5,12.,-7.5,7.5,12.,-7.5,                   79P     87
9.18485099360515D-16,12.,-3.14159265358979,3.14159265358979,0.,       79P     88
0.,0.;                                                                79P     89
126,8,2,0,1,0,0,-3.14159265358979,-3.14159265358979,                  81P     90
-3.14159265358979,-1.5707963267949,-1.5707963267949,0.,0.,            81P     91
1.5707963267949,1.5707963267949,3.14159265358979,                     81P     92
3.14159265358979,3.14159265358979,1.,0.707106781186548,1.,            81P     93
0.707106781186547,1.,0.707106781186547,1.,0.707106781186548,1.,       81P     94
-2.5,3.06161699786838D-16,2.,-2.5,2.5,2.,1.53080849893419D-16,        81P     95
2.5,2.,2.5,2.5,2.,2.5,0.,2.,2.5,-2.5,2.,1.53080849893419D-16,         81P     96
-2.5,2.,-2.5,-2.5,2.,-2.5,-3.06161699786838D-16,2.,                   81P     97
-3.14159265358979,3.14159265358979,0.,0.,0.;                          81P     98
126,1,1,0,0,1,0,-0.8,-0.8,0.,0.,1.,1.,-2.5,0.,2.,-2.5,0.,0.,          83P     99
-0.8,0.,0.,0.,0.;                                                     83P    100
126,8,2,0,1,0,0,-3.14159265358979,-3.14159265358979,                  85P    101
-3.14159265358979,-1.5707963267949,-1.5707963267949,0.,0.,            85P    102
1.5707963267949,1.5707963267949,3.14159265358979,                     85P    103
3.14159265358979,3.14159265358979,1.,0.707106781186548,1.,            85P    104
0.707106781186547,1.,0.707106781186547,1.,0.707106781186548,1.,       85P    105
-2.5,3.06161699786838D-16,0.,-2.5,2.5,0.,1.53080849893419D-16,        85P    106
2.5,0.,2.5,2.5,0.,2.5,0.,0.,2.5,-2.5,0.,1.53080849893419D-16,         85P    107
-2.5,0.,-2.5,-2.5,0.,-2.5,-3.06161699786838D-16,0.,                   85P    108
-3.14159265358979,3.14159265358979,0.,0.,0.;                          85P    109
126,1,1,0,0,1,0,-1.6,-1.6,0.,0.,1.,1.,-7.5,0.,12.,-7.5,0.,0.,         87P    110
-1.6,0.,0.,0.,0.;                                                     87P    111
126,8,2,0,1,0,0,-3.14159265358979,-3.14159265358979,                  89P    112
-3.14159265358979,-1.5707963267949,-1.5707963267949,0.,0.,            89P    113
1.5707963267949,1.5707963267949,3.14159265358979,                     89P    114
3.14159265358979,3.14159265358979,1.,0.707106781186548,1.,            89P    115
0.707106781186548,1.,0.707106781186548,1.,0.707106781186548,1.,       89P    116
-7.5,-9.18485099360515D-16,0.,-7.5,-7.5,0.,4.59242549680257D-16,      89P    117
-7.5,0.,7.5,-7.5,0.,7.5,0.,0.,7.5,7.5,0.,4.59242549680257D-16,        89P    118
7.5,0.,-7.5,7.5,0.,-7.5,9.18485099360515D-16,0.,                      89P    119
-3.14159265358979,3.14159265358979,0.,0.,0.;                          89P    120
128,2,4,2,2,0,0,0,0,0,0.,0.,0.,1.5707963267949,1.5707963267949,       91P    121
1.5707963267949,0.,0.,0.,1.5707963267949,1.5707963267949,             91P    122
3.14159265358979,3.14159265358979,3.14159265358979,1.,                91P    123
0.707106781186548,1.,0.707106781186548,0.5,0.707106781186548,1.,      91P    124
0.707106781186548,1.,0.707106781186548,0.5,0.707106781186548,1.,      91P    125
0.707106781186548,1.,6.,0.,7.,6.,0.,9.,4.,0.,9.,6.,6.,7.,6.,6.,       91P    126
9.,4.,4.,9.,0.,6.,7.,0.,6.,9.,0.,4.,9.,-6.,6.,7.,-6.,6.,9.,-4.,       91P    127
4.,9.,-6.,0.,7.,-6.,0.,9.,-4.,0.,9.,0.,1.5707963267949,0.,            91P    128
3.14159265358979;                                                     91P    129
128,1,4,1,2,0,0,0,0,0,0.,0.,0.75,0.75,0.,0.,0.,1.5707963267949,       93P    130
1.5707963267949,3.14159265358979,3.14159265358979,                    93P    131
3.14159265358979,1.,1.,0.707106781186548,0.707106781186548,1.,        93P    132
1.,0.707106781186548,0.707106781186548,1.,1.,4.,0.,9.,4.,0.,12.,      93P    133
4.,4.,9.,4.,4.,12.,0.,4.,9.,0.,4.,12.,-4.,4.,9.,-4.,4.,12.,-4.,       93P    134
0.,9.,-4.,0.,12.,0.,0.75,0.,3.14159265358979;                         93P    135
128,1,1,1,1,0,0,1,0,0,-0.001,-0.001,0.201,0.201,-0.201,-0.201,        95P    136
0.301,0.301,1.,1.,1.,1.,-6.01,0.,6.99,-3.99,0.,6.99,-6.01,0.,         95P    137
12.01,-3.99,0.,12.01,-0.001,0.201,-0.201,0.301;                       95P    138
128,1,1,1,1,0,0,1,0,0,-0.001,-0.001,0.201,0.201,-0.201,-0.201,        97P    139
0.301,0.301,1.,1.,1.,1.,3.99,0.,6.99,6.01,0.,6.99,3.99,0.,12.01,      97P    140
6.01,0.,12.01,-0.001,0.201,-0.201,0.301;                              97P    141
128,1,8,1,2,0,1,0,0,1,0.333333333333333,0.333333333333333,2.,2.,      99P    142
-3.14159265358979,-3.14159265358979,-3.14159265358979,                99P    143
-1.5707963267949,-1.5707963267949,0.,0.,1.5707963267949,              99P    144
1.5707963267949,3.14159265358979,3.14159265358979,                    99P    145
3.14159265358979,1.,1.,0.707106781186548,0.707106781186548,1.,        99P    146
1.,0.707106781186548,0.707106781186548,1.,1.,0.707106781186548,       99P    147
0.707106781186548,1.,1.,0.707106781186548,0.707106781186548,1.,       99P    148
1.,-6.,0.,2.,-6.,0.,12.,-6.,-6.,2.,-6.,-6.,12.,0.,-6.,2.,0.,-6.,      99P    149
12.,6.,-6.,2.,6.,-6.,12.,6.,0.,2.,6.,0.,12.,6.,6.,2.,6.,6.,12.,       99P    150
0.,6.,2.,0.,6.,12.,-6.,6.,2.,-6.,6.,12.,-6.,0.,2.,-6.,0.,12.,         99P    151
0.333333333333333,2.,-3.14159265358979,3.14159265358979;              99P    152
128,1,1,1,1,0,0,1,0,0,-0.751,-0.751,0.751,0.751,-0.751,-0.751,       101P    153
0.751,0.751,1.,1.,1.,1.,-7.51,-7.51,12.,7.51,-7.51,12.,-7.51,        101P    154
7.51,12.,7.51,7.51,12.,-0.751,0.751,-0.751,0.751;                    101P    155
128,1,8,1,2,0,1,0,0,1,0.,0.,0.8,0.8,-3.14159265358979,               103P    156
-3.14159265358979,-3.14159265358979,-1.5707963267949,                103P    157
-1.5707963267949,0.,0.,1.5707963267949,1.5707963267949,              103P    158
3.14159265358979,3.14159265358979,3.14159265358979,1.,1.,            103P    159
0.707106781186548,0.707106781186548,1.,1.,0.707106781186548,         103P    160
0.707106781186548,1.,1.,0.707106781186548,0.707106781186548,1.,      103P    161
1.,0.707106781186548,0.707106781186548,1.,1.,-2.5,0.,0.,-2.5,0.,     103P    162
2.,-2.5,-2.5,0.,-2.5,-2.5,2.,0.,-2.5,0.,0.,-2.5,2.,2.5,-2.5,0.,      103P    163
2.5,-2.5,2.,2.5,0.,0.,2.5,0.,2.,2.5,2.5,0.,2.5,2.5,2.,0.,2.5,0.,     103P    164
0.,2.5,2.,-2.5,2.5,0.,-2.5,2.5,2.,-2.5,0.,0.,-2.5,0.,2.,0.,0.8,      103P    165
-3.14159265358979,3.14159265358979;                                  103P    166
128,1,8,1,2,0,1,0,0,1,0.,0.,1.6,1.6,-3.14159265358979,               105P    167
-3.14159265358979,-3.14159265358979,-1.5707963267949,                105P    168
-1.5707963267949,0.,0.,1.5707963267949,1.5707963267949,              105P    169
3.14159265358979,3.14159265358979,3.14159265358979,1.,1.,            105P    170
0.707106781186548,0.707106781186548,1.,1.,0.707106781186548,         105P    171
0.707106781186548,1.,1.,0.707106781186548,0.707106781186548,1.,      105P    172
1.,0.707106781186548,0.707106781186548,1.,1.,-7.5,0.,12.,-7.5,       105P    173
0.,0.,-7.5,-7.5,12.,-7.5,-7.5,0.,0.,-7.5,12.,0.,-7.5,0.,7.5,         105P    174
-7.5,12.,7.5,-7.5,0.,7.5,0.,12.,7.5,0.,0.,7.5,7.5,12.,7.5,7.5,       105P    175
0.,0.,7.5,12.,0.,7.5,0.,-7.5,7.5,12.,-7.5,7.5,0.,-7.5,0.,12.,        105P    176
-7.5,0.,0.,0.,1.6,-3.14159265358979,3.14159265358979;                105P    177
128,1,1,1,1,0,0,1,0,0,-0.601,-0.601,0.601,0.601,-0.601,-0.601,       107P    178
0.601,0.601,1.,1.,1.,1.,-6.01,-6.01,2.,6.01,-6.01,2.,-6.01,6.01,     107P    179
2.,6.01,6.01,2.,-0.601,0.601,-0.601,0.601;                           107P    180
128,1,1,1,1,0,0,1,0,0,-0.751,-0.751,0.751,0.751,-0.751,-0.751,       109P    181
0.751,0.751,1.,1.,1.,1.,7.51,-7.51,0.,-7.51,-7.51,0.,7.51,7.51,      109P    182
0.,-7.51,7.51,0.,-0.751,0.751,-0.751,0.751;                          109P    183
502,13,6.,0.,7.,4.,0.,9.,-4.,0.,9.,-6.,7.34788079488412D-16,7.,      111P    184
4.,0.,12.,-4.,0.,12.,-6.,-7.34788079488412D-16,12.,6.,0.,12.,        111P    185
-6.,-7.34788079488412D-16,2.,-7.5,-9.18485099360515D-16,12.,         111P    186
-2.5,-3.06161699786838D-16,2.,-2.5,-3.06161699786838D-16,0.,         111P    187
-7.5,-9.18485099360515D-16,0.;                                       111P    188
504,20,51,111,1,111,2,53,111,2,111,3,55,111,3,111,4,57,111,4,        113P    189
111,1,59,111,2,111,5,61,111,6,111,5,63,111,3,111,6,65,111,7,111,     113P    190
6,67,111,4,111,7,69,111,8,111,1,71,111,5,111,8,73,111,8,111,7,       113P    191
75,111,4,111,9,77,111,9,111,9,79,111,10,111,10,81,111,11,111,11,     113P    192
83,111,11,111,12,85,111,12,111,12,87,111,10,111,13,89,111,13,        113P    193
111,13;                                                              113P    194
406,1,5HBody1;                                                       115P    195
314,62.7450980392157,62.7450980392157,62.7450980392157,13HSteel      117P    196
- Satin;                                                             117P    197
S      1G      3D    118P    197                                        T      1
