                                                                        S      1
,,12HBloon Cap v1,12HBloon Cap v1,7Hunknown,7Hunknown,32,38,7,99,15,,1.,G      1
2,2HMM,1,0.08,15H20220922.115444,0.01,10000.,7Hunknown,7Hunknown,11,0,  G      2
15H20190702.145829;                                                     G      3
     186       1                                                00000000D      1
     186             -39       1       0                               0D      2
     514       2                                                00010000D      3
     514                       1       1                               0D      4
     510       3                                                00010000D      5
     510             -39       1       1                               0D      6
     510       4                                                00010000D      7
     510             -39       1       1                               0D      8
     510       5                                                00010000D      9
     510             -39       1       1                               0D     10
     508       6                                                00010000D     11
     508                       1       1                               0D     12
     508       7                                                00010000D     13
     508                       1       1                               0D     14
     508       8                                                00010000D     15
     508                       1       1                               0D     16
     508       9                                                00010000D     17
     508                       1       1                               0D     18
     126      10                                                00010000D     19
     126       0              10       0                               0D     20
     126      20                                                00010000D     21
     126       0               4       0                               0D     22
     126      24                                                00010000D     23
     126       0              12       0                               0D     24
     126      36                                                00010000D     25
     126       0               6       0                               0D     26
     128      42                                                00010000D     27
     128       0     -39      16       0                               0D     28
     128      58                                                00010000D     29
     128       0     -39       4       0                               0D     30
     128      62                                                00010000D     31
     128       0     -39      32       0                               0D     32
     502      94                                                00010000D     33
     502                       3       1                               0D     34
     504      97                                                00010001D     35
     504                       1       1                               0D     36
     406      98                                                00000000D     37
     406                       1      15                               0D     38
     314      99                                                00000200D     39
     314                       2       0                               0D     40
186,3,1,0,0,1,37;                                                      1P      1
514,3,5,1,7,1,9,1;                                                     3P      2
510,27,1,1,11;                                                         5P      3
510,29,1,1,13;                                                         7P      4
510,31,2,1,15,17;                                                      9P      5
508,4,0,35,1,0,0,0,35,2,1,0,0,35,3,0,0,0,35,2,0,0;                    11P      6
508,1,0,35,1,1,0;                                                     13P      7
508,2,0,35,4,1,0,0,35,4,0,0;                                          15P      8
508,1,0,35,3,1,0;                                                     17P      9
126,8,2,0,1,0,0,-3.14159265358979,-3.14159265358979,                  19P     10
-3.14159265358979,-1.5707963267949,-1.5707963267949,0.,0.,            19P     11
1.5707963267949,1.5707963267949,3.14159265358979,                     19P     12
3.14159265358979,3.14159265358979,1.,0.707106781186547,1.,            19P     13
0.707106781186547,1.,0.707106781186547,1.,0.707106781186547,1.,       19P     14
-4.875,16.,5.97015314584335D-16,-4.875,16.,4.875,                     19P     15
2.98507657292167D-16,16.,4.875,4.875,16.,4.875,4.875,16.,0.,          19P     16
4.875,16.,-4.875,2.98507657292167D-16,16.,-4.875,-4.875,16.,          19P     17
-4.875,-4.875,16.,-5.97015314584335D-16,-3.14159265358979,            19P     18
3.14159265358979,0.,0.,0.;                                            19P     19
126,1,1,0,0,1,0,-3.28205128205128,-3.28205128205128,                  21P     20
-1.30113994424259,-1.30113994424259,1.,1.,-4.875,16.,0.,-4.875,       21P     21
6.34305722818264,0.,-3.28205128205128,-1.30113994424259,0.,0.,        21P     22
0.;                                                                   21P     23
126,8,2,0,1,0,0,-3.14159265358979,-3.14159265358979,                  23P     24
-3.14159265358979,-1.5707963267949,-1.5707963267949,0.,0.,            23P     25
1.5707963267949,1.5707963267949,3.14159265358979,                     23P     26
3.14159265358979,3.14159265358979,1.,0.707106781186547,1.,            23P     27
0.707106781186547,1.,0.707106781186547,1.,0.707106781186547,1.,       23P     28
-4.875,6.34305722818264,-5.97015314584335D-16,-4.875,                 23P     29
6.34305722818264,-4.875,2.98507657292167D-16,6.34305722818264,        23P     30
-4.875,4.875,6.34305722818264,-4.875,4.875,6.34305722818264,0.,       23P     31
4.875,6.34305722818264,4.875,2.98507657292167D-16,                    23P     32
6.34305722818264,4.875,-4.875,6.34305722818264,4.875,-4.875,          23P     33
6.34305722818264,5.97015314584335D-16,-3.14159265358979,              23P     34
3.14159265358979,0.,0.,0.;                                            23P     35
126,4,2,0,0,0,0,-1.5707963267949,-1.5707963267949,                    25P     36
-1.5707963267949,0.,0.,1.5707963267949,1.5707963267949,               25P     37
1.5707963267949,1.,0.707106781186548,1.,0.707106781186548,1.,         25P     38
-4.89858719658941D-16,0.,8.,-8.,0.,8.,-8.,0.,0.,-8.,0.,-8.,           25P     39
-4.89858719658941D-16,0.,-8.,-1.5707963267949,1.5707963267949,        25P     40
0.,0.,0.;                                                             25P     41
128,1,8,1,2,0,1,0,0,1,1.30113994424259,1.30113994424259,              27P     42
3.28205128205128,3.28205128205128,-3.14159265358979,                  27P     43
-3.14159265358979,-3.14159265358979,-1.5707963267949,                 27P     44
-1.5707963267949,0.,0.,1.5707963267949,1.5707963267949,               27P     45
3.14159265358979,3.14159265358979,3.14159265358979,1.,1.,             27P     46
0.707106781186548,0.707106781186548,1.,1.,0.707106781186548,          27P     47
0.707106781186548,1.,1.,0.707106781186548,0.707106781186548,1.,       27P     48
1.,0.707106781186548,0.707106781186548,1.,1.,-4.875,16.,0.,           27P     49
-4.875,6.34305722818264,0.,-4.875,16.,4.875,-4.875,                   27P     50
6.34305722818264,4.875,0.,16.,4.875,0.,6.34305722818264,4.875,        27P     51
4.875,16.,4.875,4.875,6.34305722818264,4.875,4.875,16.,0.,4.875,      27P     52
6.34305722818264,0.,4.875,16.,-4.875,4.875,6.34305722818264,          27P     53
-4.875,0.,16.,-4.875,0.,6.34305722818264,-4.875,-4.875,16.,           27P     54
-4.875,-4.875,6.34305722818264,-4.875,-4.875,16.,0.,-4.875,           27P     55
6.34305722818264,0.,1.30113994424259,3.28205128205128,                27P     56
-3.14159265358979,3.14159265358979;                                   27P     57
128,1,1,1,1,0,0,1,0,0,-0.4885,-0.4885,0.4885,0.4885,-0.4885,          29P     58
-0.4885,0.4885,0.4885,1.,1.,1.,1.,-4.885,16.,4.885,4.885,16.,         29P     59
4.885,-4.885,16.,-4.885,4.885,16.,-4.885,-0.4885,0.4885,-0.4885,      29P     60
0.4885;                                                               29P     61
128,4,8,2,2,0,1,0,0,1,-1.5707963267949,-1.5707963267949,              31P     62
-1.5707963267949,0.,0.,1.5707963267949,1.5707963267949,               31P     63
1.5707963267949,-3.14159265358979,-3.14159265358979,                  31P     64
-3.14159265358979,-1.5707963267949,-1.5707963267949,0.,0.,            31P     65
1.5707963267949,1.5707963267949,3.14159265358979,                     31P     66
3.14159265358979,3.14159265358979,1.,0.707106781186548,1.,            31P     67
0.707106781186548,1.,0.707106781186548,0.5,0.707106781186548,         31P     68
0.5,0.707106781186548,1.,0.707106781186548,1.,0.707106781186548,      31P     69
1.,0.707106781186548,0.5,0.707106781186548,0.5,                       31P     70
0.707106781186548,1.,0.707106781186548,1.,0.707106781186548,1.,       31P     71
0.707106781186548,0.5,0.707106781186548,0.5,0.707106781186548,        31P     72
1.,0.707106781186548,1.,0.707106781186548,1.,0.707106781186548,       31P     73
0.5,0.707106781186548,0.5,0.707106781186548,1.,                       31P     74
0.707106781186548,1.,0.707106781186548,1.,-4.89858719658941D-16,      31P     75
0.,8.,-8.,0.,8.,-8.,0.,0.,-8.,0.,-8.,-4.89858719658941D-16,0.,        31P     76
-8.,-4.89858719658941D-16,-4.89858719658941D-16,8.,-8.,-8.,8.,        31P     77
-8.,-8.,0.,-8.,-8.,-8.,-4.89858719658941D-16,                         31P     78
-4.89858719658941D-16,-8.,0.,-4.89858719658941D-16,8.,0.,-8.,8.,      31P     79
0.,-8.,0.,0.,-8.,-8.,0.,-4.89858719658941D-16,-8.,                    31P     80
4.89858719658941D-16,-4.89858719658941D-16,8.,8.,-8.,8.,8.,-8.,       31P     81
0.,8.,-8.,-8.,4.89858719658941D-16,-4.89858719658941D-16,-8.,         31P     82
4.89858719658941D-16,0.,8.,8.,0.,8.,8.,0.,0.,8.,0.,-8.,               31P     83
4.89858719658941D-16,0.,-8.,4.89858719658941D-16,                     31P     84
4.89858719658941D-16,8.,8.,8.,8.,8.,8.,0.,8.,8.,-8.,                  31P     85
4.89858719658941D-16,4.89858719658941D-16,-8.,0.,                     31P     86
4.89858719658941D-16,8.,0.,8.,8.,0.,8.,0.,0.,8.,-8.,0.,               31P     87
4.89858719658941D-16,-8.,-4.89858719658941D-16,                       31P     88
4.89858719658941D-16,8.,-8.,8.,8.,-8.,8.,0.,-8.,8.,-8.,               31P     89
-4.89858719658941D-16,4.89858719658941D-16,-8.,                       31P     90
-4.89858719658941D-16,0.,8.,-8.,0.,8.,-8.,0.,0.,-8.,0.,-8.,           31P     91
-4.89858719658941D-16,0.,-8.,-1.5707963267949,1.5707963267949,        31P     92
-3.14159265358979,3.14159265358979;                                   31P     93
502,4,-4.875,16.,5.97015314584335D-16,-4.875,6.34305722818264,        33P     94
-5.97015314584335D-16,-4.89858719658941D-16,0.,8.,                    33P     95
-4.89858719658941D-16,0.,-8.;                                         33P     96
504,4,19,33,1,33,1,21,33,1,33,2,23,33,2,33,2,25,33,3,33,4;            35P     97
406,1,5HBody1;                                                        37P     98
314,62.7450980392157,62.7450980392157,62.7450980392157,13HSteel       39P     99
- Satin;                                                              39P    100
S      1G      3D     40P    100                                        T      1
