                                                                        S      1
,,34HWohnmobil Spacer Decker Norbert v3,34HWohnmobil Spacer Decker NorbeG      1
rt v3,7Hunknown,7Hunknown,32,38,7,99,15,,1.,2,2HMM,1,0.08,15H20220922.11G      2
5655,0.01,10000.,7Hunknown,7Hunknown,11,0,15H20220606.191829;           G      3
     186       1                                                00000000D      1
     186            -107       1       0                               0D      2
     514       2                                                00010000D      3
     514                       1       1                               0D      4
     510       3                                                00010000D      5
     510            -107       1       1                               0D      6
     510       4                                                00010000D      7
     510            -107       1       1                               0D      8
     510       5                                                00010000D      9
     510            -107       1       1                               0D     10
     510       6                                                00010000D     11
     510            -107       1       1                               0D     12
     510       7                                                00010000D     13
     510            -107       1       1                               0D     14
     510       8                                                00010000D     15
     510            -107       1       1                               0D     16
     510       9                                                00010000D     17
     510            -107       1       1                               0D     18
     510      10                                                00010000D     19
     510            -107       1       1                               0D     20
     510      11                                                00010000D     21
     510            -107       1       1                               0D     22
     508      12                                                00010000D     23
     508                       1       1                               0D     24
     508      13                                                00010000D     25
     508                       2       1                               0D     26
     508      15                                                00010000D     27
     508                       1       1                               0D     28
     508      16                                                00010000D     29
     508                       1       1                               0D     30
     508      17                                                00010000D     31
     508                       1       1                               0D     32
     508      18                                                00010000D     33
     508                       1       1                               0D     34
     508      19                                                00010000D     35
     508                       1       1                               0D     36
     508      20                                                00010000D     37
     508                       1       1                               0D     38
     508      21                                                00010000D     39
     508                       2       1                               0D     40
     126      23                                                00010000D     41
     126       0               6       0                               0D     42
     126      29                                                00010000D     43
     126       0               3       0                               0D     44
     126      32                                                00010000D     45
     126       0               6       0                               0D     46
     126      38                                                00010000D     47
     126       0               3       0                               0D     48
     126      41                                                00010000D     49
     126       0               3       0                               0D     50
     126      44                                                00010000D     51
     126       0               3       0                               0D     52
     126      47                                                00010000D     53
     126       0               3       0                               0D     54
     126      50                                                00010000D     55
     126       0               3       0                               0D     56
     126      53                                                00010000D     57
     126       0               3       0                               0D     58
     126      56                                                00010000D     59
     126       0               3       0                               0D     60
     126      59                                                00010000D     61
     126       0               3       0                               0D     62
     126      62                                                00010000D     63
     126       0               3       0                               0D     64
     126      65                                                00010000D     65
     126       0               3       0                               0D     66
     126      68                                                00010000D     67
     126       0               3       0                               0D     68
     126      71                                                00010000D     69
     126       0               3       0                               0D     70
     126      74                                                00010000D     71
     126       0               3       0                               0D     72
     126      77                                                00010000D     73
     126       0               3       0                               0D     74
     126      80                                                00010000D     75
     126       0               3       0                               0D     76
     126      83                                                00010000D     77
     126       0               3       0                               0D     78
     126      86                                                00010000D     79
     126       0               3       0                               0D     80
     126      89                                                00010000D     81
     126       0               3       0                               0D     82
     128      92                                                00010000D     83
     128       0    -107       9       0                               0D     84
     128     101                                                00010000D     85
     128       0    -107       5       0                               0D     86
     128     106                                                00010000D     87
     128       0    -107       5       0                               0D     88
     128     111                                                00010000D     89
     128       0    -107       5       0                               0D     90
     128     116                                                00010000D     91
     128       0    -107       5       0                               0D     92
     128     121                                                00010000D     93
     128       0    -107       5       0                               0D     94
     128     126                                                00010000D     95
     128       0    -107       5       0                               0D     96
     128     131                                                00010000D     97
     128       0    -107       5       0                               0D     98
     128     136                                                00010000D     99
     128       0    -107       5       0                               0D    100
     502     141                                                00010000D    101
     502                      10       1                               0D    102
     504     151                                                00010001D    103
     504                       6       1                               0D    104
     406     157                                                00000000D    105
     406                       1      15                               0D    106
     314     158                                                00000200D    107
     314                       2       0                               0D    108
186,3,1,0,0,1,105;                                                     1P      1
514,9,5,1,7,1,9,1,11,1,13,1,15,1,17,1,19,1,21,1;                       3P      2
510,83,1,1,23;                                                         5P      3
510,85,1,1,25;                                                         7P      4
510,87,1,1,27;                                                         9P      5
510,89,1,1,29;                                                        11P      6
510,91,1,1,31;                                                        13P      7
510,93,1,1,33;                                                        15P      8
510,95,1,1,35;                                                        17P      9
510,97,1,1,37;                                                        19P     10
510,99,1,1,39;                                                        21P     11
508,4,0,103,1,1,0,0,103,2,1,0,0,103,3,1,0,0,103,4,1,0;                23P     12
508,7,0,103,1,0,0,0,103,5,1,0,0,103,6,1,0,0,103,7,1,0,0,103,8,1,      25P     13
0,0,103,9,1,0,0,103,10,1,0;                                           25P     14
508,4,0,103,4,0,0,0,103,11,0,0,0,103,12,1,0,0,103,5,0,0;              27P     15
508,4,0,103,2,0,0,0,103,10,0,0,0,103,13,0,0,0,103,14,0,0;             29P     16
508,4,0,103,15,0,0,0,103,13,1,0,0,103,9,0,0,0,103,16,0,0;             31P     17
508,4,0,103,17,0,0,0,103,16,1,0,0,103,8,0,0,0,103,18,0,0;             33P     18
508,4,0,103,19,0,0,0,103,18,1,0,0,103,7,0,0,0,103,20,0,0;             35P     19
508,4,0,103,21,0,0,0,103,20,1,0,0,103,6,0,0,0,103,12,0,0;             37P     20
508,7,0,103,3,0,0,0,103,14,1,0,0,103,15,1,0,0,103,17,1,0,0,103,       39P     21
19,1,0,0,103,21,1,0,0,103,11,1,0;                                     39P     22
126,2,2,0,0,0,0,-0.785398163397448,-0.785398163397448,                41P     23
-0.785398163397448,0.785398163397449,0.785398163397449,               41P     24
0.785398163397449,1.,0.707106781186547,1.,66.7563596554107,           41P     25
89.50000115484,4.,83.7563596554107,89.50000115484,4.,                 41P     26
83.7563596554107,72.50000115484,4.,-0.785398163397448,                41P     27
0.785398163397449,0.,0.,0.;                                           41P     28
126,1,1,0,0,1,0,-0.4,-0.4,0.,0.,1.,1.,83.7563596554107,               43P     29
72.50000115484,4.,83.7563596554107,72.50000115484,0.,-0.4,0.,0.,      43P     30
0.,0.;                                                                43P     31
126,2,2,0,0,0,0,-0.785398163397449,-0.785398163397449,                45P     32
-0.785398163397449,0.785398163397448,0.785398163397448,               45P     33
0.785398163397448,1.,0.707106781186547,1.,83.7563596554107,           45P     34
72.50000115484,0.,83.7563596554107,89.50000115484,0.,                 45P     35
66.7563596554107,89.50000115484,0.,-0.785398163397449,                45P     36
0.785398163397448,0.,0.,0.;                                           45P     37
126,1,1,0,0,1,0,0.,0.,0.4,0.4,1.,1.,66.7563596554107,                 47P     38
89.50000115484,0.,66.7563596554107,89.50000115484,4.,0.,0.4,0.,       47P     39
0.,0.;                                                                47P     40
126,1,1,0,0,1,0,-2.8,-2.8,0.,0.,1.,1.,66.7563596554107,               49P     41
89.50000115484,4.,38.7563596554107,89.50000115484,4.,-2.8,0.,0.,      49P     42
0.,0.;                                                                49P     43
126,1,1,0,0,1,0,-1.2,-1.2,0.,0.,1.,1.,38.7563596554107,               51P     44
89.50000115484,4.,38.7563596554107,77.50000115484,4.,-1.2,0.,0.,      51P     45
0.,0.;                                                                51P     46
126,1,1,0,0,1,0,-4.5,-4.5,-2.95,-2.95,1.,1.,38.7563596554107,         53P     47
77.50000115484,4.,54.2563596554107,77.50000115484,4.,-4.5,-2.95,      53P     48
0.,0.,0.;                                                             53P     49
126,1,1,0,0,1,0,-3.,-3.,0.,0.,1.,1.,54.2563596554107,                 55P     50
77.50000115484,4.,54.2563596554107,47.50000115484,4.,-3.,0.,0.,       55P     51
0.,0.;                                                                55P     52
126,1,1,0,0,1,0,-2.95,-2.95,0.,0.,1.,1.,54.2563596554107,             57P     53
47.50000115484,4.,83.7563596554107,47.50000115484,4.,-2.95,0.,        57P     54
0.,0.,0.;                                                             57P     55
126,1,1,0,0,1,0,-3.,-3.,-0.500000000000001,-0.500000000000001,        59P     56
1.,1.,83.7563596554107,47.50000115484,4.,83.7563596554107,            59P     57
72.50000115484,4.,-3.,-0.500000000000001,0.,0.,0.;                    59P     58
126,1,1,0,0,1,0,0.,0.,2.8,2.8,1.,1.,38.7563596554107,                 61P     59
89.50000115484,0.,66.7563596554107,89.50000115484,0.,0.,2.8,0.,       61P     60
0.,0.;                                                                61P     61
126,1,1,0,0,1,0,0.,0.,0.4,0.4,1.,1.,38.7563596554107,                 63P     62
89.50000115484,0.,38.7563596554107,89.50000115484,4.,0.,0.4,0.,       63P     63
0.,0.;                                                                63P     64
126,1,1,0,0,1,0,0.,0.,0.4,0.4,1.,1.,83.7563596554107,                 65P     65
47.50000115484,0.,83.7563596554107,47.50000115484,4.,0.,0.4,0.,       65P     66
0.,0.;                                                                65P     67
126,1,1,0,0,1,0,0.500000000000001,0.500000000000001,3.,3.,1.,1.,      67P     68
83.7563596554107,72.50000115484,0.,83.7563596554107,                  67P     69
47.50000115484,0.,0.500000000000001,3.,0.,0.,0.;                      67P     70
126,1,1,0,0,1,0,0.,0.,2.95,2.95,1.,1.,83.7563596554107,               69P     71
47.50000115484,0.,54.2563596554107,47.50000115484,0.,0.,2.95,0.,      69P     72
0.,0.;                                                                69P     73
126,1,1,0,0,1,0,0.,0.,0.4,0.4,1.,1.,54.2563596554107,                 71P     74
47.50000115484,0.,54.2563596554107,47.50000115484,4.,0.,0.4,0.,       71P     75
0.,0.;                                                                71P     76
126,1,1,0,0,1,0,0.,0.,3.,3.,1.,1.,54.2563596554107,                   73P     77
47.50000115484,0.,54.2563596554107,77.50000115484,0.,0.,3.,0.,        73P     78
0.,0.;                                                                73P     79
126,1,1,0,0,1,0,0.,0.,0.4,0.4,1.,1.,54.2563596554107,                 75P     80
77.50000115484,0.,54.2563596554107,77.50000115484,4.,0.,0.4,0.,       75P     81
0.,0.;                                                                75P     82
126,1,1,0,0,1,0,2.95,2.95,4.5,4.5,1.,1.,54.2563596554107,             77P     83
77.50000115484,0.,38.7563596554107,77.50000115484,0.,2.95,4.5,        77P     84
0.,0.,0.;                                                             77P     85
126,1,1,0,0,1,0,0.,0.,0.4,0.4,1.,1.,38.7563596554107,                 79P     86
77.50000115484,0.,38.7563596554107,77.50000115484,4.,0.,0.4,0.,       79P     87
0.,0.;                                                                79P     88
126,1,1,0,0,1,0,0.,0.,1.2,1.2,1.,1.,38.7563596554107,                 81P     89
77.50000115484,0.,38.7563596554107,89.50000115484,0.,0.,1.2,0.,       81P     90
0.,0.;                                                                81P     91
128,1,2,1,2,0,0,0,0,0,0.,0.,0.235294117647059,0.235294117647059,      83P     92
-0.785398163397449,-0.785398163397449,-0.785398163397449,             83P     93
0.785398163397448,0.785398163397448,0.785398163397448,1.,1.,          83P     94
0.707106781186548,0.707106781186548,1.,1.,83.7563596554107,           83P     95
72.50000115484,4.,83.7563596554107,72.50000115484,0.,                 83P     96
83.7563596554107,89.50000115484,4.,83.7563596554107,                  83P     97
89.50000115484,0.,66.7563596554107,89.50000115484,4.,                 83P     98
66.7563596554107,89.50000115484,0.,0.,0.235294117647059,              83P     99
-0.785398163397449,0.785398163397448;                                 83P    100
128,1,1,1,1,0,0,1,0,0,-2.251,-2.251,2.251,2.251,-2.101,-2.101,        85P    101
2.101,2.101,1.,1.,1.,1.,38.7463596554107,47.49000115484,4.,           85P    102
83.7663596554107,47.49000115484,4.,38.7463596554107,                  85P    103
89.51000115484,4.,83.7663596554107,89.51000115484,4.,-2.251,          85P    104
2.251,-2.101,2.101;                                                   85P    105
128,1,1,1,1,0,0,1,0,0,1.699,1.699,4.501,4.501,-0.001,-0.001,          87P    106
0.401,0.401,1.,1.,1.,1.,66.7663596554107,89.50000115484,-0.01,        87P    107
38.7463596554107,89.50000115484,-0.01,66.7663596554107,               87P    108
89.50000115484,4.01,38.7463596554107,89.50000115484,4.01,1.699,       87P    109
4.501,-0.001,0.401;                                                   87P    110
128,1,1,1,1,0,0,1,0,0,-0.001,-0.001,2.501,2.501,-0.001,-0.001,        89P    111
0.401,0.401,1.,1.,1.,1.,83.7563596554107,47.49000115484,-0.01,        89P    112
83.7563596554107,72.51000115484,-0.01,83.7563596554107,               89P    113
47.49000115484,4.01,83.7563596554107,72.51000115484,4.01,-0.001,      89P    114
2.501,-0.001,0.401;                                                   89P    115
128,1,1,1,1,0,0,1,0,0,-0.001,-0.001,2.951,2.951,-0.001,-0.001,        91P    116
0.401,0.401,1.,1.,1.,1.,54.2463596554107,47.50000115484,-0.01,        91P    117
83.7663596554107,47.50000115484,-0.01,54.2463596554107,               91P    118
47.50000115484,4.01,83.7663596554107,47.50000115484,4.01,-0.001,      91P    119
2.951,-0.001,0.401;                                                   91P    120
128,1,1,1,1,0,0,1,0,0,-0.001,-0.001,3.001,3.001,-0.001,-0.001,        93P    121
0.401,0.401,1.,1.,1.,1.,54.2563596554107,77.51000115484,-0.01,        93P    122
54.2563596554107,47.49000115484,-0.01,54.2563596554107,               93P    123
77.51000115484,4.01,54.2563596554107,47.49000115484,4.01,-0.001,      93P    124
3.001,-0.001,0.401;                                                   93P    125
128,1,1,1,1,0,0,1,0,0,-0.001,-0.001,1.551,1.551,-0.001,-0.001,        95P    126
0.401,0.401,1.,1.,1.,1.,38.7463596554107,77.50000115484,-0.01,        95P    127
54.2663596554107,77.50000115484,-0.01,38.7463596554107,               95P    128
77.50000115484,4.01,54.2663596554107,77.50000115484,4.01,-0.001,      95P    129
1.551,-0.001,0.401;                                                   95P    130
128,1,1,1,1,0,0,1,0,0,-0.001,-0.001,1.201,1.201,-0.001,-0.001,        97P    131
0.401,0.401,1.,1.,1.,1.,38.7563596554107,89.51000115484,-0.01,        97P    132
38.7563596554107,77.49000115484,-0.01,38.7563596554107,               97P    133
89.51000115484,4.01,38.7563596554107,77.49000115484,4.01,-0.001,      97P    134
1.201,-0.001,0.401;                                                   97P    135
128,1,1,1,1,0,0,1,0,0,-2.251,-2.251,2.251,2.251,-2.101,-2.101,        99P    136
2.101,2.101,1.,1.,1.,1.,83.7663596554107,47.49000115484,0.,           99P    137
38.7463596554107,47.49000115484,0.,83.7663596554107,                  99P    138
89.51000115484,0.,38.7463596554107,89.51000115484,0.,-2.251,          99P    139
2.251,-2.101,2.101;                                                   99P    140
502,14,66.7563596554107,89.50000115484,4.,83.7563596554107,          101P    141
72.50000115484,4.,83.7563596554107,72.50000115484,0.,                101P    142
66.7563596554107,89.50000115484,0.,38.7563596554107,                 101P    143
89.50000115484,4.,38.7563596554107,77.50000115484,4.,                101P    144
54.2563596554107,77.50000115484,4.,54.2563596554107,                 101P    145
47.50000115484,4.,83.7563596554107,47.50000115484,4.,                101P    146
38.7563596554107,89.50000115484,0.,83.7563596554107,                 101P    147
47.50000115484,0.,54.2563596554107,47.50000115484,0.,                101P    148
54.2563596554107,77.50000115484,0.,38.7563596554107,                 101P    149
77.50000115484,0.;                                                   101P    150
504,21,41,101,1,101,2,43,101,2,101,3,45,101,3,101,4,47,101,4,        103P    151
101,1,49,101,1,101,5,51,101,5,101,6,53,101,6,101,7,55,101,7,101,     103P    152
8,57,101,8,101,9,59,101,9,101,2,61,101,10,101,4,63,101,10,101,5,     103P    153
65,101,11,101,9,67,101,3,101,11,69,101,11,101,12,71,101,12,101,      103P    154
8,73,101,12,101,13,75,101,13,101,7,77,101,13,101,14,79,101,14,       103P    155
101,6,81,101,14,101,10;                                              103P    156
406,1,5HBody1;                                                       105P    157
314,62.7450980392157,62.7450980392157,62.7450980392157,13HSteel      107P    158
- Satin;                                                             107P    159
S      1G      3D    108P    159                                        T      1
