                                                                        S      1
,,21HBaseboard end stop v2,21HBaseboard end stop v2,7Hunknown,7Hunknown,G      1
32,38,7,99,15,,1.,2,2HMM,1,0.08,15H20220922.114850,0.01,10000.,7HunknownG      2
,7Hunknown,11,0,15H20200622.165111;                                     G      3
     186       1                                                00000000D      1
     186            -239       1       0                               0D      2
     514       2                                                00010000D      3
     514                       2       1                               0D      4
     510       4                                                00010000D      5
     510            -239       1       1                               0D      6
     510       5                                                00010000D      7
     510            -239       1       1                               0D      8
     510       6                                                00010000D      9
     510            -239       1       1                               0D     10
     510       7                                                00010000D     11
     510            -239       1       1                               0D     12
     510       8                                                00010000D     13
     510            -239       1       1                               0D     14
     510       9                                                00010000D     15
     510            -239       1       1                               0D     16
     510      10                                                00010000D     17
     510            -239       1       1                               0D     18
     510      11                                                00010000D     19
     510            -239       1       1                               0D     20
     510      12                                                00010000D     21
     510            -239       1       1                               0D     22
     510      13                                                00010000D     23
     510            -239       1       1                               0D     24
     510      14                                                00010000D     25
     510            -239       1       1                               0D     26
     510      15                                                00010000D     27
     510            -239       1       1                               0D     28
     510      16                                                00010000D     29
     510            -239       1       1                               0D     30
     510      17                                                00010000D     31
     510            -239       1       1                               0D     32
     510      18                                                00010000D     33
     510            -239       1       1                               0D     34
     510      19                                                00010000D     35
     510            -239       1       1                               0D     36
     510      20                                                00010000D     37
     510            -239       1       1                               0D     38
     510      21                                                00010000D     39
     510            -239       1       1                               0D     40
     510      22                                                00010000D     41
     510            -239       1       1                               0D     42
     510      23                                                00010000D     43
     510            -239       1       1                               0D     44
     508      24                                                00010000D     45
     508                       1       1                               0D     46
     508      25                                                00010000D     47
     508                       1       1                               0D     48
     508      26                                                00010000D     49
     508                       1       1                               0D     50
     508      27                                                00010000D     51
     508                       1       1                               0D     52
     508      28                                                00010000D     53
     508                       1       1                               0D     54
     508      29                                                00010000D     55
     508                       1       1                               0D     56
     508      30                                                00010000D     57
     508                       1       1                               0D     58
     508      31                                                00010000D     59
     508                       1       1                               0D     60
     508      32                                                00010000D     61
     508                       1       1                               0D     62
     508      33                                                00010000D     63
     508                       1       1                               0D     64
     508      34                                                00010000D     65
     508                       1       1                               0D     66
     508      35                                                00010000D     67
     508                       1       1                               0D     68
     508      36                                                00010000D     69
     508                       1       1                               0D     70
     508      37                                                00010000D     71
     508                       1       1                               0D     72
     508      38                                                00010000D     73
     508                       1       1                               0D     74
     508      39                                                00010000D     75
     508                       1       1                               0D     76
     508      40                                                00010000D     77
     508                       1       1                               0D     78
     508      41                                                00010000D     79
     508                       1       1                               0D     80
     508      42                                                00010000D     81
     508                       4       1                               0D     82
     508      46                                                00010000D     83
     508                       4       1                               0D     84
     126      50                                                00010000D     85
     126       0               3       0                               0D     86
     126      53                                                00010000D     87
     126       0               3       0                               0D     88
     126      56                                                00010000D     89
     126       0               3       0                               0D     90
     126      59                                                00010000D     91
     126       0               3       0                               0D     92
     126      62                                                00010000D     93
     126       0               3       0                               0D     94
     126      65                                                00010000D     95
     126       0               3       0                               0D     96
     126      68                                                00010000D     97
     126       0               3       0                               0D     98
     126      71                                                00010000D     99
     126       0               3       0                               0D    100
     126      74                                                00010000D    101
     126       0               3       0                               0D    102
     126      77                                                00010000D    103
     126       0               3       0                               0D    104
     126      80                                                00010000D    105
     126       0               3       0                               0D    106
     126      83                                                00010000D    107
     126       0               3       0                               0D    108
     126      86                                                00010000D    109
     126       0               3       0                               0D    110
     126      89                                                00010000D    111
     126       0               3       0                               0D    112
     126      92                                                00010000D    113
     126       0               3       0                               0D    114
     126      95                                                00010000D    115
     126       0               3       0                               0D    116
     126      98                                                00010000D    117
     126       0               3       0                               0D    118
     126     101                                                00010000D    119
     126       0               3       0                               0D    120
     126     104                                                00010000D    121
     126       0               3       0                               0D    122
     126     107                                                00010000D    123
     126       0               3       0                               0D    124
     126     110                                                00010000D    125
     126       0               3       0                               0D    126
     126     113                                                00010000D    127
     126       0               3       0                               0D    128
     126     116                                                00010000D    129
     126       0               3       0                               0D    130
     126     119                                                00010000D    131
     126       0               3       0                               0D    132
     126     122                                                00010000D    133
     126       0               3       0                               0D    134
     126     125                                                00010000D    135
     126       0               3       0                               0D    136
     126     128                                                00010000D    137
     126       0               3       0                               0D    138
     126     131                                                00010000D    139
     126       0               3       0                               0D    140
     126     134                                                00010000D    141
     126       0               3       0                               0D    142
     126     137                                                00010000D    143
     126       0               3       0                               0D    144
     126     140                                                00010000D    145
     126       0               3       0                               0D    146
     126     143                                                00010000D    147
     126       0               3       0                               0D    148
     126     146                                                00010000D    149
     126       0               3       0                               0D    150
     126     149                                                00010000D    151
     126       0               3       0                               0D    152
     126     152                                                00010000D    153
     126       0               3       0                               0D    154
     126     155                                                00010000D    155
     126       0               3       0                               0D    156
     126     158                                                00010000D    157
     126       0               3       0                               0D    158
     126     161                                                00010000D    159
     126       0               3       0                               0D    160
     126     164                                                00010000D    161
     126       0               3       0                               0D    162
     126     167                                                00010000D    163
     126       0               3       0                               0D    164
     126     170                                                00010000D    165
     126       0               3       0                               0D    166
     126     173                                                00010000D    167
     126       0               3       0                               0D    168
     126     176                                                00010000D    169
     126       0               3       0                               0D    170
     126     179                                                00010000D    171
     126       0               3       0                               0D    172
     126     182                                                00010000D    173
     126       0               3       0                               0D    174
     126     185                                                00010000D    175
     126       0               3       0                               0D    176
     126     188                                                00010000D    177
     126       0               3       0                               0D    178
     126     191                                                00010000D    179
     126       0               3       0                               0D    180
     126     194                                                00010000D    181
     126       0               3       0                               0D    182
     126     197                                                00010000D    183
     126       0               3       0                               0D    184
     126     200                                                00010000D    185
     126       0               3       0                               0D    186
     126     203                                                00010000D    187
     126       0               3       0                               0D    188
     126     206                                                00010000D    189
     126       0               3       0                               0D    190
     126     209                                                00010000D    191
     126       0               3       0                               0D    192
     128     212                                                00010000D    193
     128       0    -239       6       0                               0D    194
     128     218                                                00010000D    195
     128       0    -239       6       0                               0D    196
     128     224                                                00010000D    197
     128       0    -239       6       0                               0D    198
     128     230                                                00010000D    199
     128       0    -239       6       0                               0D    200
     128     236                                                00010000D    201
     128       0    -239       6       0                               0D    202
     128     242                                                00010000D    203
     128       0    -239       6       0                               0D    204
     128     248                                                00010000D    205
     128       0    -239       6       0                               0D    206
     128     254                                                00010000D    207
     128       0    -239       6       0                               0D    208
     128     260                                                00010000D    209
     128       0    -239       6       0                               0D    210
     128     266                                                00010000D    211
     128       0    -239       6       0                               0D    212
     128     272                                                00010000D    213
     128       0    -239       6       0                               0D    214
     128     278                                                00010000D    215
     128       0    -239       6       0                               0D    216
     128     284                                                00010000D    217
     128       0    -239       6       0                               0D    218
     128     290                                                00010000D    219
     128       0    -239       6       0                               0D    220
     128     296                                                00010000D    221
     128       0    -239       6       0                               0D    222
     128     302                                                00010000D    223
     128       0    -239       6       0                               0D    224
     128     308                                                00010000D    225
     128       0    -239       6       0                               0D    226
     128     314                                                00010000D    227
     128       0    -239       6       0                               0D    228
     128     320                                                00010000D    229
     128       0    -239       7       0                               0D    230
     128     327                                                00010000D    231
     128       0    -239       7       0                               0D    232
     502     334                                                00010000D    233
     502                      24       1                               0D    234
     504     358                                                00010001D    235
     504                      16       1                               0D    236
     406     374                                                00000000D    237
     406                       1      15                               0D    238
     314     375                                                00000200D    239
     314                       2       0                               0D    240
186,3,1,0,0,1,237;                                                     1P      1
514,20,5,1,7,1,9,1,11,1,13,1,15,1,17,1,19,1,21,1,23,1,25,1,27,1,       3P      2
29,1,31,1,33,1,35,1,37,1,39,1,41,1,43,1;                               3P      3
510,193,1,1,45;                                                        5P      4
510,195,1,1,47;                                                        7P      5
510,197,1,1,49;                                                        9P      6
510,199,1,1,51;                                                       11P      7
510,201,1,1,53;                                                       13P      8
510,203,1,1,55;                                                       15P      9
510,205,1,1,57;                                                       17P     10
510,207,1,1,59;                                                       19P     11
510,209,1,1,61;                                                       21P     12
510,211,1,1,63;                                                       23P     13
510,213,1,1,65;                                                       25P     14
510,215,1,1,67;                                                       27P     15
510,217,1,1,69;                                                       29P     16
510,219,1,1,71;                                                       31P     17
510,221,1,1,73;                                                       33P     18
510,223,1,1,75;                                                       35P     19
510,225,1,1,77;                                                       37P     20
510,227,1,1,79;                                                       39P     21
510,229,1,1,81;                                                       41P     22
510,231,1,1,83;                                                       43P     23
508,4,0,235,1,1,0,0,235,2,1,0,0,235,3,0,0,0,235,4,0,0;                45P     24
508,4,0,235,5,1,0,0,235,4,1,0,0,235,6,0,0,0,235,7,0,0;                47P     25
508,4,0,235,8,1,0,0,235,7,1,0,0,235,9,0,0,0,235,10,0,0;               49P     26
508,4,0,235,11,1,0,0,235,10,1,0,0,235,12,0,0,0,235,13,0,0;            51P     27
508,4,0,235,14,1,0,0,235,13,1,0,0,235,15,0,0,0,235,16,0,0;            53P     28
508,4,0,235,17,1,0,0,235,16,1,0,0,235,18,0,0,0,235,19,0,0;            55P     29
508,4,0,235,20,1,0,0,235,19,1,0,0,235,21,0,0,0,235,22,0,0;            57P     30
508,4,0,235,23,1,0,0,235,22,1,0,0,235,24,0,0,0,235,25,0,0;            59P     31
508,4,0,235,26,1,0,0,235,25,1,0,0,235,27,0,0,0,235,28,0,0;            61P     32
508,4,0,235,29,1,0,0,235,28,1,0,0,235,30,0,0,0,235,31,0,0;            63P     33
508,4,0,235,32,1,0,0,235,31,1,0,0,235,33,0,0,0,235,34,0,0;            65P     34
508,4,0,235,35,1,0,0,235,34,1,0,0,235,36,0,0,0,235,37,0,0;            67P     35
508,4,0,235,38,1,0,0,235,37,1,0,0,235,39,0,0,0,235,40,0,0;            69P     36
508,4,0,235,41,1,0,0,235,40,1,0,0,235,42,0,0,0,235,43,0,0;            71P     37
508,4,0,235,44,1,0,0,235,43,1,0,0,235,45,0,0,0,235,46,0,0;            73P     38
508,4,0,235,47,1,0,0,235,46,1,0,0,235,48,0,0,0,235,49,0,0;            75P     39
508,4,0,235,50,1,0,0,235,49,1,0,0,235,51,0,0,0,235,52,0,0;            77P     40
508,4,0,235,53,1,0,0,235,52,1,0,0,235,54,0,0,0,235,2,0,0;             79P     41
508,18,0,235,54,1,0,0,235,51,1,0,0,235,48,1,0,0,235,45,1,0,0,         81P     42
235,42,1,0,0,235,39,1,0,0,235,36,1,0,0,235,33,1,0,0,235,30,1,0,       81P     43
0,235,27,1,0,0,235,24,1,0,0,235,21,1,0,0,235,18,1,0,0,235,15,1,       81P     44
0,0,235,12,1,0,0,235,9,1,0,0,235,6,1,0,0,235,3,1,0;                   81P     45
508,18,0,235,53,0,0,0,235,1,0,0,0,235,5,0,0,0,235,8,0,0,0,235,        83P     46
11,0,0,0,235,14,0,0,0,235,17,0,0,0,235,20,0,0,0,235,23,0,0,0,         83P     47
235,26,0,0,0,235,29,0,0,0,235,32,0,0,0,235,35,0,0,0,235,38,0,0,       83P     48
0,235,41,0,0,0,235,44,0,0,0,235,47,0,0,0,235,50,0,0;                  83P     49
126,1,1,0,0,1,0,0.,0.,2.71673573720872,2.71673573720872,1.,1.,        85P     50
128.416716957068,45.7460110099964,0.,101.251413959748,                85P     51
45.4119157444018,0.,0.,2.71673573720872,0.,0.,0.;                     85P     52
126,1,1,0,0,1,0,0.,0.,0.1,0.1,1.,1.,101.251413959748,                 87P     53
45.4119157444018,0.,101.251413959748,45.4119157444018,1.,0.,0.1,      87P     54
0.,0.,0.;                                                             87P     55
126,1,1,0,0,1,0,0.,0.,2.71673573720872,2.71673573720872,1.,1.,        89P     56
128.416716957068,45.7460110099964,1.,101.251413959748,                89P     57
45.4119157444018,1.,0.,2.71673573720872,0.,0.,0.;                     89P     58
126,1,1,0,0,1,0,0.,0.,0.1,0.1,1.,1.,128.416716957068,                 91P     59
45.7460110099964,0.,128.416716957068,45.7460110099964,1.,0.,0.1,      91P     60
0.,0.,0.;                                                             91P     61
126,1,1,0,0,1,0,0.,0.,3.60330783589951,3.60330783589951,1.,1.,        93P     62
164.443353153445,46.427348224151,0.,128.416716957068,                 93P     63
45.7460110099964,0.,0.,3.60330783589951,0.,0.,0.;                     93P     64
126,1,1,0,0,1,0,0.,0.,3.60330783589951,3.60330783589951,1.,1.,        95P     65
164.443353153445,46.427348224151,1.,128.416716957068,                 95P     66
45.7460110099964,1.,0.,3.60330783589951,0.,0.,0.;                     95P     67
126,1,1,0,0,1,0,0.,0.,0.1,0.1,1.,1.,164.443353153445,                 97P     68
46.427348224151,0.,164.443353153445,46.427348224151,1.,0.,0.1,        97P     69
0.,0.,0.;                                                             97P     70
126,2,2,0,0,1,0,0.,0.,0.,1.,1.,1.,1.,1.,1.,169.575464719537,          99P     71
46.5060119156399,0.,167.966772391345,46.4651787511617,0.,             99P     72
164.443353153445,46.427348224151,0.,0.,1.,0.,0.,0.;                   99P     73
126,2,2,0,0,1,0,0.,0.,0.,1.,1.,1.,1.,1.,1.,169.575464719537,         101P     74
46.5060119156399,1.,167.966772391345,46.4651787511617,1.,            101P     75
164.443353153445,46.427348224151,1.,0.,1.,0.,0.,0.;                  101P     76
126,1,1,0,0,1,0,0.,0.,0.1,0.1,1.,1.,169.575464719537,                103P     77
46.5060119156399,0.,169.575464719537,46.5060119156399,1.,0.,0.1,     103P     78
0.,0.,0.;                                                            103P     79
126,2,2,0,0,1,0,0.,0.,0.,1.,1.,1.,1.,1.,1.,171.116674348612,         105P     80
45.0927299714571,0.,171.18415704773,46.5468405716534,0.,             105P     81
169.575464719537,46.5060119156399,0.,0.,1.,0.,0.,0.;                 105P     82
126,2,2,0,0,1,0,0.,0.,0.,1.,1.,1.,1.,1.,1.,171.116674348612,         107P     83
45.0927299714571,1.,171.18415704773,46.5468405716534,1.,             107P     84
169.575464719537,46.5060119156399,1.,0.,1.,0.,0.,0.;                 107P     85
126,1,1,0,0,1,0,0.,0.,0.1,0.1,1.,1.,171.116674348612,                109P     86
45.0927299714571,0.,171.116674348612,45.0927299714571,1.,0.,0.1,     109P     87
0.,0.,0.;                                                            109P     88
126,2,2,0,0,1,0,0.,0.,0.,1.,1.,1.,1.,1.,1.,170.150690709318,         111P     89
38.2343137594353,0.,170.291408908467,38.9721826120344,0.,            111P     90
171.116674348612,45.0927299714571,0.,0.,1.,0.,0.,0.;                 111P     91
126,2,2,0,0,1,0,0.,0.,0.,1.,1.,1.,1.,1.,1.,170.150690709318,         113P     92
38.2343137594353,1.,170.291408908467,38.9721826120344,1.,            113P     93
171.116674348612,45.0927299714571,1.,0.,1.,0.,0.,0.;                 113P     94
126,1,1,0,0,1,0,0.,0.,0.1,0.1,1.,1.,170.150690709318,                115P     95
38.2343137594353,0.,170.150690709318,38.2343137594353,1.,0.,0.1,     115P     96
0.,0.,0.;                                                            115P     97
126,2,2,0,0,1,0,0.,0.,0.,1.,1.,1.,1.,1.,1.,169.64787066207,          117P     98
37.2490925014117,0.,170.009990544027,37.4964449068362,0.,            117P     99
170.150690709318,38.2343137594353,0.,0.,1.,0.,0.,0.;                 117P    100
126,2,2,0,0,1,0,0.,0.,0.,1.,1.,1.,1.,1.,1.,169.64787066207,          119P    101
37.2490925014117,1.,170.009990544027,37.4964449068362,1.,            119P    102
170.150690709318,38.2343137594353,1.,0.,1.,0.,0.,0.;                 119P    103
126,1,1,0,0,1,0,0.,0.,0.1,0.1,1.,1.,169.64787066207,                 121P    104
37.2490925014117,0.,169.64787066207,37.2490925014117,1.,0.,0.1,      121P    105
0.,0.,0.;                                                            121P    106
126,1,1,0,0,1,0,0.,0.,0.152625878462724,0.152625878462724,1.,1.,     123P    107
168.554225337299,36.1844771806234,0.,169.64787066207,                123P    108
37.2490925014117,0.,0.,0.152625878462724,0.,0.,0.;                   123P    109
126,1,1,0,0,1,0,0.,0.,0.152625878462724,0.152625878462724,1.,1.,     125P    110
168.554225337299,36.1844771806234,1.,169.64787066207,                125P    111
37.2490925014117,1.,0.,0.152625878462724,0.,0.,0.;                   125P    112
126,1,1,0,0,1,0,0.,0.,0.1,0.1,1.,1.,168.554225337299,                127P    113
36.1844771806234,0.,168.554225337299,36.1844771806234,1.,0.,0.1,     127P    114
0.,0.,0.;                                                            127P    115
126,2,2,0,0,1,0,0.,0.,0.,1.,1.,1.,1.,1.,1.,167.130506297415,         129P    116
34.8437229075193,0.,167.443303575928,35.1396540197179,0.,            129P    117
168.554225337299,36.1844771806234,0.,0.,1.,0.,0.,0.;                 129P    118
126,2,2,0,0,1,0,0.,0.,0.,1.,1.,1.,1.,1.,1.,167.130506297415,         131P    119
34.8437229075193,1.,167.443303575928,35.1396540197179,1.,            131P    120
168.554225337299,36.1844771806234,1.,0.,1.,0.,0.,0.;                 131P    121
126,1,1,0,0,1,0,0.,0.,0.1,0.1,1.,1.,167.130506297415,                133P    122
34.8437229075193,0.,167.130506297415,34.8437229075193,1.,0.,0.1,     133P    123
0.,0.,0.;                                                            133P    124
126,2,2,0,0,1,0,0.,0.,0.,1.,1.,1.,1.,1.,1.,166.341903691931,         135P    125
34.277644592546,0.,166.817709018901,34.5477917953208,0.,             135P    126
167.130506297415,34.8437229075193,0.,0.,1.,0.,0.,0.;                 135P    127
126,2,2,0,0,1,0,0.,0.,0.,1.,1.,1.,1.,1.,1.,166.341903691931,         137P    128
34.277644592546,1.,166.817709018901,34.5477917953208,1.,             137P    129
167.130506297415,34.8437229075193,1.,0.,1.,0.,0.,0.;                 137P    130
126,1,1,0,0,1,0,0.,0.,0.1,0.1,1.,1.,166.341903691931,                139P    131
34.277644592546,0.,166.341903691931,34.277644592546,1.,0.,0.1,       139P    132
0.,0.,0.;                                                            139P    133
126,2,2,0,0,1,0,0.,0.,0.,1.,1.,1.,1.,1.,1.,164.546398621847,         141P    134
34.275755545851,0.,165.529514426871,33.8381369146003,0.,             141P    135
166.341903691931,34.277644592546,0.,0.,1.,0.,0.,0.;                  141P    136
126,2,2,0,0,1,0,0.,0.,0.,1.,1.,1.,1.,1.,1.,164.546398621847,         143P    137
34.275755545851,1.,165.529514426871,33.8381369146003,1.,             143P    138
166.341903691931,34.277644592546,1.,0.,1.,0.,0.,0.;                  143P    139
126,1,1,0,0,1,0,0.,0.,0.1,0.1,1.,1.,164.546398621847,                145P    140
34.275755545851,0.,164.546398621847,34.275755545851,1.,0.,0.1,       145P    141
0.,0.,0.;                                                            145P    142
126,2,2,0,0,1,0,0.,0.,0.,1.,1.,1.,1.,1.,1.,157.6245708543,           147P    143
33.3529675065194,0.,160.181158861548,36.1271565608624,0.,            147P    144
164.546398621847,34.275755545851,0.,0.,1.,0.,0.,0.;                  147P    145
126,2,2,0,0,1,0,0.,0.,0.,1.,1.,1.,1.,1.,1.,157.6245708543,           149P    146
33.3529675065194,1.,160.181158861548,36.1271565608624,1.,            149P    147
164.546398621847,34.275755545851,1.,0.,1.,0.,0.,0.;                  149P    148
126,1,1,0,0,1,0,0.,0.,0.1,0.1,1.,1.,157.6245708543,                  151P    149
33.3529675065194,0.,157.6245708543,33.3529675065194,1.,0.,0.1,       151P    150
0.,0.,0.;                                                            151P    151
126,1,1,0,0,1,0,0.,0.,0.0917320479230949,0.0917320479230949,1.,      153P    152
1.,156.982529418173,32.6977884043558,0.,157.6245708543,              153P    153
33.3529675065194,0.,0.,0.0917320479230949,0.,0.,0.;                  153P    154
126,1,1,0,0,1,0,0.,0.,0.0917320479230949,0.0917320479230949,1.,      155P    155
1.,156.982529418173,32.6977884043558,1.,157.6245708543,              155P    156
33.3529675065194,1.,0.,0.0917320479230949,0.,0.,0.;                  155P    157
126,1,1,0,0,1,0,0.,0.,0.1,0.1,1.,1.,156.982529418173,                157P    158
32.6977884043558,0.,156.982529418173,32.6977884043558,1.,0.,0.1,     157P    159
0.,0.,0.;                                                            157P    160
126,2,2,0,0,1,0,0.,0.,0.,1.,1.,1.,1.,1.,1.,149.55827834827,          159P    161
30.5784854019732,0.,153.642911267768,28.6420051502535,0.,            159P    162
156.982529418173,32.6977884043558,0.,0.,1.,0.,0.,0.;                 159P    163
126,2,2,0,0,1,0,0.,0.,0.,1.,1.,1.,1.,1.,1.,149.55827834827,          161P    164
30.5784854019732,1.,153.642911267768,28.6420051502535,1.,            161P    165
156.982529418173,32.6977884043558,1.,0.,1.,0.,0.,0.;                 161P    166
126,1,1,0,0,1,0,0.,0.,0.1,0.1,1.,1.,149.55827834827,                 163P    167
30.5784854019732,0.,149.55827834827,30.5784854019732,1.,0.,0.1,      163P    168
0.,0.,0.;                                                            163P    169
126,2,2,0,0,1,0,0.,0.,0.,1.,1.,1.,1.,1.,1.,147.648222207956,         165P    170
30.1300013708779,0.,148.184855740197,30.9014673021666,0.,            165P    171
149.55827834827,30.5784854019732,0.,0.,1.,0.,0.,0.;                  165P    172
126,2,2,0,0,1,0,0.,0.,0.,1.,1.,1.,1.,1.,1.,147.648222207956,         167P    173
30.1300013708779,1.,148.184855740197,30.9014673021666,1.,            167P    174
149.55827834827,30.5784854019732,1.,0.,1.,0.,0.,0.;                  167P    175
126,1,1,0,0,1,0,0.,0.,0.1,0.1,1.,1.,147.648222207956,                169P    176
30.1300013708779,0.,147.648222207956,30.1300013708779,1.,0.,0.1,     169P    177
0.,0.,0.;                                                            169P    178
126,2,2,0,0,1,0,0.,0.,0.,1.,1.,1.,1.,1.,1.,146.694916371302,         171P    179
28.9321473938211,0.,146.969157259993,29.2360449630842,0.,            171P    180
147.648222207956,30.1300013708779,0.,0.,1.,0.,0.,0.;                 171P    181
126,2,2,0,0,1,0,0.,0.,0.,1.,1.,1.,1.,1.,1.,146.694916371302,         173P    182
28.9321473938211,1.,146.969157259993,29.2360449630842,1.,            173P    183
147.648222207956,30.1300013708779,1.,0.,1.,0.,0.,0.;                 173P    184
126,1,1,0,0,1,0,0.,0.,0.1,0.1,1.,1.,146.694916371302,                175P    185
28.9321473938211,0.,146.694916371302,28.9321473938211,1.,0.,0.1,     175P    186
0.,0.,0.;                                                            175P    187
126,2,2,0,0,1,0,0.,0.,0.,1.,1.,1.,1.,1.,1.,146.093162575428,         177P    188
28.5966184364629,0.,146.42067548261,28.6282453160935,0.,             177P    189
146.694916371302,28.9321473938211,0.,0.,1.,0.,0.,0.;                 177P    190
126,2,2,0,0,1,0,0.,0.,0.,1.,1.,1.,1.,1.,1.,146.093162575428,         179P    191
28.5966184364629,1.,146.42067548261,28.6282453160935,1.,             179P    192
146.694916371302,28.9321473938211,1.,0.,1.,0.,0.,0.;                 179P    193
126,1,1,0,0,1,0,0.,0.,0.1,0.1,1.,1.,146.093162575428,                181P    194
28.5966184364629,0.,146.093162575428,28.5966184364629,1.,0.,0.1,     181P    195
0.,0.,0.;                                                            181P    196
126,1,1,0,0,1,0,0.,0.,4.49577776361743,4.49577776361743,1.,1.,       183P    197
101.13564560406,28.4435245018063,0.,146.093162575428,                183P    198
28.5966184364629,0.,0.,4.49577776361743,0.,0.,0.;                    183P    199
126,1,1,0,0,1,0,0.,0.,4.49577776361743,4.49577776361743,1.,1.,       185P    200
101.13564560406,28.4435245018063,1.,146.093162575428,                185P    201
28.5966184364629,1.,0.,4.49577776361743,0.,0.,0.;                    185P    202
126,1,1,0,0,1,0,0.,0.,0.1,0.1,1.,1.,101.13564560406,                 187P    203
28.4435245018063,0.,101.13564560406,28.4435245018063,1.,0.,0.1,      187P    204
0.,0.,0.;                                                            187P    205
126,1,1,0,0,1,0,0.,0.,1.69687861579423,1.69687861579423,1.,1.,       189P    206
101.251413959748,45.4119157444018,0.,101.13564560406,                189P    207
28.4435245018063,0.,0.,1.69687861579423,0.,0.,0.;                    189P    208
126,1,1,0,0,1,0,0.,0.,1.69687861579423,1.69687861579423,1.,1.,       191P    209
101.251413959748,45.4119157444018,1.,101.13564560406,                191P    210
28.4435245018063,1.,0.,1.69687861579423,0.,0.,0.;                    191P    211
128,1,1,1,1,0,0,1,0,0,-0.001,-0.001,2.71773573720872,                193P    212
2.71773573720872,-0.001,-0.001,0.101,0.101,1.,1.,1.,1.,              193P    213
128.426716200876,45.7461339867221,-0.01,101.241414715941,            193P    214
45.4117927676761,-0.01,128.426716200876,45.7461339867221,1.01,       193P    215
101.241414715941,45.4117927676761,1.01,-0.001,2.71773573720872,      193P    216
-0.001,0.101;                                                        193P    217
128,1,1,1,1,0,0,1,0,0,-0.001,-0.001,3.60430783589951,                195P    218
3.60430783589951,-0.001,-0.001,0.101,0.101,1.,1.,1.,1.,              195P    219
164.453351365598,46.4275373107473,-0.01,128.406718744915,            195P    220
45.7458219234001,-0.01,164.453351365598,46.4275373107473,1.01,       195P    221
128.406718744915,45.7458219234001,1.01,-0.001,3.60430783589951,      195P    222
-0.001,0.101;                                                        195P    223
128,2,1,2,1,0,0,1,0,0,0.,0.,0.,1.,1.,1.,0.,0.,0.1,0.1,1.,1.,1.,      197P    224
1.,1.,1.,169.575464719537,46.5060119156399,0.,167.966772391345,      197P    225
46.4651787511617,0.,164.443353153445,46.427348224151,0.,             197P    226
169.575464719537,46.5060119156399,1.,167.966772391345,               197P    227
46.4651787511617,1.,164.443353153445,46.427348224151,1.,0.,1.,       197P    228
0.,0.1;                                                              197P    229
128,2,1,2,1,0,0,1,0,0,0.,0.,0.,1.,1.,1.,0.,0.,0.1,0.1,1.,1.,1.,      199P    230
1.,1.,1.,171.116674348612,45.0927299714571,0.,171.18415704773,       199P    231
46.5468405716534,0.,169.575464719537,46.5060119156399,0.,            199P    232
171.116674348612,45.0927299714571,1.,171.18415704773,                199P    233
46.5468405716534,1.,169.575464719537,46.5060119156399,1.,0.,1.,      199P    234
0.,0.1;                                                              199P    235
128,2,1,2,1,0,0,1,0,0,0.,0.,0.,1.,1.,1.,0.,0.,0.1,0.1,1.,1.,1.,      201P    236
1.,1.,1.,170.150690709318,38.2343137594353,0.,170.291408908467,      201P    237
38.9721826120344,0.,171.116674348612,45.0927299714571,0.,            201P    238
170.150690709318,38.2343137594353,1.,170.291408908467,               201P    239
38.9721826120344,1.,171.116674348612,45.0927299714571,1.,0.,1.,      201P    240
0.,0.1;                                                              201P    241
128,2,1,2,1,0,0,1,0,0,0.,0.,0.,1.,1.,1.,0.,0.,0.1,0.1,1.,1.,1.,      203P    242
1.,1.,1.,169.64787066207,37.2490925014117,0.,170.009990544027,       203P    243
37.4964449068362,0.,170.150690709318,38.2343137594353,0.,            203P    244
169.64787066207,37.2490925014117,1.,170.009990544027,                203P    245
37.4964449068362,1.,170.150690709318,38.2343137594353,1.,0.,1.,      203P    246
0.,0.1;                                                              203P    247
128,1,1,1,1,0,0,1,0,0,-0.001,-0.001,0.153625878462724,               205P    248
0.153625878462724,-0.001,-0.001,0.101,0.101,1.,1.,1.,1.,             205P    249
168.547059807208,36.177501854214,-0.01,169.655036192161,             205P    250
37.256067827821,-0.01,168.547059807208,36.177501854214,1.01,         205P    251
169.655036192161,37.256067827821,1.01,-0.001,0.153625878462724,      205P    252
-0.001,0.101;                                                        205P    253
128,2,1,2,1,0,0,1,0,0,0.,0.,0.,1.,1.,1.,0.,0.,0.1,0.1,1.,1.,1.,      207P    254
1.,1.,1.,167.130506297415,34.8437229075193,0.,167.443303575928,      207P    255
35.1396540197179,0.,168.554225337299,36.1844771806234,0.,            207P    256
167.130506297415,34.8437229075193,1.,167.443303575928,               207P    257
35.1396540197179,1.,168.554225337299,36.1844771806234,1.,0.,1.,      207P    258
0.,0.1;                                                              207P    259
128,2,1,2,1,0,0,1,0,0,0.,0.,0.,1.,1.,1.,0.,0.,0.1,0.1,1.,1.,1.,      209P    260
1.,1.,1.,166.341903691931,34.277644592546,0.,166.817709018901,       209P    261
34.5477917953208,0.,167.130506297415,34.8437229075193,0.,            209P    262
166.341903691931,34.277644592546,1.,166.817709018901,                209P    263
34.5477917953208,1.,167.130506297415,34.8437229075193,1.,0.,1.,      209P    264
0.,0.1;                                                              209P    265
128,2,1,2,1,0,0,1,0,0,0.,0.,0.,1.,1.,1.,0.,0.,0.1,0.1,1.,1.,1.,      211P    266
1.,1.,1.,164.546398621847,34.275755545851,0.,165.529514426871,       211P    267
33.8381369146003,0.,166.341903691931,34.277644592546,0.,             211P    268
164.546398621847,34.275755545851,1.,165.529514426871,                211P    269
33.8381369146003,1.,166.341903691931,34.277644592546,1.,0.,1.,       211P    270
0.,0.1;                                                              211P    271
128,2,1,2,1,0,0,1,0,0,0.,0.,0.,1.,1.,1.,0.,0.,0.1,0.1,1.,1.,1.,      213P    272
1.,1.,1.,157.6245708543,33.3529675065194,0.,160.181158861548,        213P    273
36.1271565608624,0.,164.546398621847,34.275755545851,0.,             213P    274
157.6245708543,33.3529675065194,1.,160.181158861548,                 213P    275
36.1271565608624,1.,164.546398621847,34.275755545851,1.,0.,1.,       213P    276
0.,0.1;                                                              213P    277
128,1,1,1,1,0,0,1,0,0,-0.001,-0.001,0.0927320479230949,              215P    278
0.0927320479230949,-0.001,-0.001,0.101,0.101,1.,1.,1.,1.,            215P    279
156.975530321885,32.6906460902246,-0.01,157.631569950589,            215P    280
33.3601098206506,-0.01,156.975530321885,32.6906460902246,1.01,       215P    281
157.631569950589,33.3601098206506,1.01,-0.001,                       215P    282
0.0927320479230949,-0.001,0.101;                                     215P    283
128,2,1,2,1,0,0,1,0,0,0.,0.,0.,1.,1.,1.,0.,0.,0.1,0.1,1.,1.,1.,      217P    284
1.,1.,1.,149.55827834827,30.5784854019732,0.,153.642911267768,       217P    285
28.6420051502535,0.,156.982529418173,32.6977884043558,0.,            217P    286
149.55827834827,30.5784854019732,1.,153.642911267768,                217P    287
28.6420051502535,1.,156.982529418173,32.6977884043558,1.,0.,1.,      217P    288
0.,0.1;                                                              217P    289
128,2,1,2,1,0,0,1,0,0,0.,0.,0.,1.,1.,1.,0.,0.,0.1,0.1,1.,1.,1.,      219P    290
1.,1.,1.,147.648222207956,30.1300013708779,0.,148.184855740197,      219P    291
30.9014673021666,0.,149.55827834827,30.5784854019732,0.,             219P    292
147.648222207956,30.1300013708779,1.,148.184855740197,               219P    293
30.9014673021666,1.,149.55827834827,30.5784854019732,1.,0.,1.,       219P    294
0.,0.1;                                                              219P    295
128,2,1,2,1,0,0,1,0,0,0.,0.,0.,1.,1.,1.,0.,0.,0.1,0.1,1.,1.,1.,      221P    296
1.,1.,1.,146.694916371302,28.9321473938211,0.,146.969157259993,      221P    297
29.2360449630842,0.,147.648222207956,30.1300013708779,0.,            221P    298
146.694916371302,28.9321473938211,1.,146.969157259993,               221P    299
29.2360449630842,1.,147.648222207956,30.1300013708779,1.,0.,1.,      221P    300
0.,0.1;                                                              221P    301
128,2,1,2,1,0,0,1,0,0,0.,0.,0.,1.,1.,1.,0.,0.,0.1,0.1,1.,1.,1.,      223P    302
1.,1.,1.,146.093162575428,28.5966184364629,0.,146.42067548261,       223P    303
28.6282453160935,0.,146.694916371302,28.9321473938211,0.,            223P    304
146.093162575428,28.5966184364629,1.,146.42067548261,                223P    305
28.6282453160935,1.,146.694916371302,28.9321473938211,1.,0.,1.,      223P    306
0.,0.1;                                                              223P    307
128,1,1,1,1,0,0,1,0,0,-0.001,-0.001,4.49677776361743,                225P    308
4.49677776361743,-0.001,-0.001,0.101,0.101,1.,1.,1.,1.,              225P    309
101.12564566204,28.443490448981,-0.01,146.103162517448,              225P    310
28.5966524892881,-0.01,101.12564566204,28.443490448981,1.01,         225P    311
146.103162517448,28.5966524892881,1.01,-0.001,4.49677776361743,      225P    312
-0.001,0.101;                                                        225P    313
128,1,1,1,1,0,0,1,0,0,-0.001,-0.001,1.69787861579423,                227P    314
1.69787861579423,-0.001,-0.001,0.101,0.101,1.,1.,1.,1.,              227P    315
101.251482184048,45.4219155116714,-0.01,101.13557737976,             227P    316
28.4335247345367,-0.01,101.251482184048,45.4219155116714,1.01,       227P    317
101.13557737976,28.4335247345367,1.01,-0.001,1.69787861579423,       227P    318
-0.001,0.101;                                                        227P    319
128,1,1,1,1,0,0,1,0,0,-3.50342557218352,-3.50342557218352,           229P    320
3.50342557218352,3.50342557218352,-0.906165803492357,                229P    321
-0.906165803492357,0.906165803492357,0.906165803492357,1.,1.,1.,     229P    322
1.,101.12564560406,28.4335245018063,1.,171.19415704773,              229P    323
28.4335245018063,1.,101.12564560406,46.5568405716534,1.,             229P    324
171.19415704773,46.5568405716534,1.,-3.50342557218352,               229P    325
3.50342557218352,-0.906165803492357,0.906165803492357;               229P    326
128,1,1,1,1,0,0,1,0,0,-3.50342557218352,-3.50342557218352,           231P    327
3.50342557218352,3.50342557218352,-0.906165803492357,                231P    328
-0.906165803492357,0.906165803492357,0.906165803492357,1.,1.,1.,     231P    329
1.,171.19415704773,28.4335245018063,0.,101.12564560406,              231P    330
28.4335245018063,0.,171.19415704773,46.5568405716534,0.,             231P    331
101.12564560406,46.5568405716534,0.,-3.50342557218352,               231P    332
3.50342557218352,-0.906165803492357,0.906165803492357;               231P    333
502,36,128.416716957068,45.7460110099964,0.,101.251413959748,        233P    334
45.4119157444018,0.,101.251413959748,45.4119157444018,1.,            233P    335
128.416716957068,45.7460110099964,1.,164.443353153445,               233P    336
46.427348224151,0.,164.443353153445,46.427348224151,1.,              233P    337
169.575464719537,46.5060119156399,0.,169.575464719537,               233P    338
46.5060119156399,1.,171.116674348612,45.0927299714571,0.,            233P    339
171.116674348612,45.0927299714571,1.,170.150690709318,               233P    340
38.2343137594353,0.,170.150690709318,38.2343137594353,1.,            233P    341
169.64787066207,37.2490925014117,0.,169.64787066207,                 233P    342
37.2490925014117,1.,168.554225337299,36.1844771806234,0.,            233P    343
168.554225337299,36.1844771806234,1.,167.130506297415,               233P    344
34.8437229075193,0.,167.130506297415,34.8437229075193,1.,            233P    345
166.341903691931,34.277644592546,0.,166.341903691931,                233P    346
34.277644592546,1.,164.546398621847,34.275755545851,0.,              233P    347
164.546398621847,34.275755545851,1.,157.6245708543,                  233P    348
33.3529675065194,0.,157.6245708543,33.3529675065194,1.,              233P    349
156.982529418173,32.6977884043558,0.,156.982529418173,               233P    350
32.6977884043558,1.,149.55827834827,30.5784854019732,0.,             233P    351
149.55827834827,30.5784854019732,1.,147.648222207956,                233P    352
30.1300013708779,0.,147.648222207956,30.1300013708779,1.,            233P    353
146.694916371302,28.9321473938211,0.,146.694916371302,               233P    354
28.9321473938211,1.,146.093162575428,28.5966184364629,0.,            233P    355
146.093162575428,28.5966184364629,1.,101.13564560406,                233P    356
28.4435245018063,0.,101.13564560406,28.4435245018063,1.;             233P    357
504,54,85,233,1,233,2,87,233,2,233,3,89,233,4,233,3,91,233,1,        235P    358
233,4,93,233,5,233,1,95,233,6,233,4,97,233,5,233,6,99,233,7,233,     235P    359
5,101,233,8,233,6,103,233,7,233,8,105,233,9,233,7,107,233,10,        235P    360
233,8,109,233,9,233,10,111,233,11,233,9,113,233,12,233,10,115,       235P    361
233,11,233,12,117,233,13,233,11,119,233,14,233,12,121,233,13,        235P    362
233,14,123,233,15,233,13,125,233,16,233,14,127,233,15,233,16,        235P    363
129,233,17,233,15,131,233,18,233,16,133,233,17,233,18,135,233,       235P    364
19,233,17,137,233,20,233,18,139,233,19,233,20,141,233,21,233,19,     235P    365
143,233,22,233,20,145,233,21,233,22,147,233,23,233,21,149,233,       235P    366
24,233,22,151,233,23,233,24,153,233,25,233,23,155,233,26,233,24,     235P    367
157,233,25,233,26,159,233,27,233,25,161,233,28,233,26,163,233,       235P    368
27,233,28,165,233,29,233,27,167,233,30,233,28,169,233,29,233,30,     235P    369
171,233,31,233,29,173,233,32,233,30,175,233,31,233,32,177,233,       235P    370
33,233,31,179,233,34,233,32,181,233,33,233,34,183,233,35,233,33,     235P    371
185,233,36,233,34,187,233,35,233,36,189,233,2,233,35,191,233,3,      235P    372
233,36;                                                              235P    373
406,1,5HBody1;                                                       237P    374
314,62.7450980392157,62.7450980392157,62.7450980392157,13HSteel      239P    375
- Satin;                                                             239P    376
S      1G      3D    240P    376                                        T      1
