                                                                        S      1
,,14HFaucet Hole v1,14HFaucet Hole v1,7Hunknown,7Hunknown,32,38,7,99,15,G      1
,1.,2,2HMM,1,0.08,15H20220922.114953,0.01,10000.,7Hunknown,7Hunknown,11,G      2
0,15H20190822.153237;                                                   G      3
     186       1                                                00000000D      1
     186             -71       1       0                               0D      2
     514       2                                                00010000D      3
     514                       1       1                               0D      4
     510       3                                                00010000D      5
     510             -71       1       1                               0D      6
     510       4                                                00010000D      7
     510             -71       1       1                               0D      8
     510       5                                                00010000D      9
     510             -71       1       1                               0D     10
     510       6                                                00010000D     11
     510             -71       1       1                               0D     12
     510       7                                                00010000D     13
     510             -71       1       1                               0D     14
     510       8                                                00010000D     15
     510             -71       1       1                               0D     16
     508       9                                                00010000D     17
     508                       1       1                               0D     18
     508      10                                                00010000D     19
     508                       1       1                               0D     20
     508      11                                                00010000D     21
     508                       1       1                               0D     22
     508      12                                                00010000D     23
     508                       1       1                               0D     24
     508      13                                                00010000D     25
     508                       1       1                               0D     26
     508      14                                                00010000D     27
     508                       1       1                               0D     28
     508      15                                                00010000D     29
     508                       1       1                               0D     30
     508      16                                                00010000D     31
     508                       1       1                               0D     32
     508      17                                                00010000D     33
     508                       1       1                               0D     34
     126      18                                                00010000D     35
     126       0              10       0                               0D     36
     126      28                                                00010000D     37
     126       0               2       0                               0D     38
     126      30                                                00010000D     39
     126       0               9       0                               0D     40
     126      39                                                00010000D     41
     126       0              10       0                               0D     42
     126      49                                                00010000D     43
     126       0               9       0                               0D     44
     126      58                                                00010000D     45
     126       0               3       0                               0D     46
     126      61                                                00010000D     47
     126       0               9       0                               0D     48
     126      70                                                00010000D     49
     126       0               2       0                               0D     50
     126      72                                                00010000D     51
     126       0               9       0                               0D     52
     128      81                                                00010000D     53
     128       0     -71      12       0                               0D     54
     128      93                                                00010000D     55
     128       0     -71       3       0                               0D     56
     128      96                                                00010000D     57
     128       0     -71      13       0                               0D     58
     128     109                                                00010000D     59
     128       0     -71      12       0                               0D     60
     128     121                                                00010000D     61
     128       0     -71       3       0                               0D     62
     128     124                                                00010000D     63
     128       0     -71       3       0                               0D     64
     502     127                                                00010000D     65
     502                       3       1                               0D     66
     504     130                                                00010001D     67
     504                       2       1                               0D     68
     406     132                                                00000000D     69
     406                       1      15                               0D     70
     314     133                                                00000200D     71
     314                       2       0                               0D     72
186,3,1,0,0,1,69;                                                      1P      1
514,6,5,1,7,1,9,1,11,1,13,1,15,1;                                      3P      2
510,53,1,1,17;                                                         5P      3
510,55,2,1,19,21;                                                      7P      4
510,57,1,1,23;                                                         9P      5
510,59,1,1,25;                                                        11P      6
510,61,2,1,27,29;                                                     13P      7
510,63,2,1,31,33;                                                     15P      8
508,4,0,67,1,0,0,0,67,2,1,0,0,67,3,0,0,0,67,2,0,0;                    17P      9
508,1,0,67,1,1,0;                                                     19P     10
508,1,0,67,4,1,0;                                                     21P     11
508,4,0,67,5,0,0,0,67,6,1,0,0,67,4,0,0,0,67,6,0,0;                    23P     12
508,4,0,67,7,0,0,0,67,8,1,0,0,67,9,1,0,0,67,8,0,0;                    25P     13
508,1,0,67,7,1,0;                                                     27P     14
508,1,0,67,5,1,0;                                                     29P     15
508,1,0,67,9,0,0;                                                     31P     16
508,1,0,67,3,1,0;                                                     33P     17
126,8,2,0,1,0,0,-3.14159265358979,-3.14159265358979,                  35P     18
-3.14159265358979,-1.5707963267949,-1.5707963267949,0.,0.,            35P     19
1.5707963267949,1.5707963267949,3.14159265358979,                     35P     20
3.14159265358979,3.14159265358979,1.,0.707106781186547,1.,            35P     21
0.707106781186547,1.,0.707106781186547,1.,0.707106781186547,1.,       35P     22
-17.,2.0818995585505D-15,-8.,-17.,17.,-8.,1.04094977927525D-15,       35P     23
17.,-8.,17.,17.,-8.,17.,0.,-8.,17.,-17.,-8.,                          35P     24
1.04094977927525D-15,-17.,-8.,-17.,-17.,-8.,-17.,                     35P     25
-2.0818995585505D-15,-8.,-3.14159265358979,3.14159265358979,0.,       35P     26
0.,0.;                                                                35P     27
126,1,1,0,0,1,0,-0.470588235294118,-0.470588235294118,0.,0.,1.,       37P     28
1.,-17.,0.,-8.,-17.,0.,0.,-0.470588235294118,0.,0.,0.,0.;             37P     29
126,8,2,0,1,0,0,-3.14159265358979,-3.14159265358979,                  39P     30
-3.14159265358979,-1.5707963267949,-1.5707963267949,0.,0.,            39P     31
1.5707963267949,1.5707963267949,3.14159265358979,                     39P     32
3.14159265358979,3.14159265358979,1.,0.707106781186547,1.,            39P     33
0.707106781186547,1.,0.707106781186547,1.,0.707106781186547,1.,       39P     34
-17.,-2.0818995585505D-15,0.,-17.,-17.,0.,1.04094977927525D-15,       39P     35
-17.,0.,17.,-17.,0.,17.,0.,0.,17.,17.,0.,1.04094977927525D-15,        39P     36
17.,0.,-17.,17.,0.,-17.,2.0818995585505D-15,0.,                       39P     37
-3.14159265358979,3.14159265358979,0.,0.,0.;                          39P     38
126,8,2,0,1,0,0,-3.14159265358979,-3.14159265358979,                  41P     39
-3.14159265358979,-1.5707963267949,-1.5707963267949,0.,0.,            41P     40
1.5707963267949,1.5707963267949,3.14159265358979,                     41P     41
3.14159265358979,3.14159265358979,1.,0.707106781186548,1.,            41P     42
0.707106781186547,1.,0.707106781186547,1.,0.707106781186548,1.,       41P     43
-14.,-1.71450551880629D-15,-8.,-14.,-14.,-8.,                         41P     44
8.57252759403147D-16,-14.,-8.,14.,-14.,-8.,14.,0.,-8.,14.,14.,        41P     45
-8.,8.57252759403147D-16,14.,-8.,-14.,14.,-8.,-14.,                   41P     46
1.71450551880629D-15,-8.,-3.14159265358979,3.14159265358979,0.,       41P     47
0.,0.;                                                                41P     48
126,8,2,0,1,0,0,-3.14159265358979,-3.14159265358979,                  43P     49
-3.14159265358979,-1.5707963267949,-1.5707963267949,0.,0.,            43P     50
1.5707963267949,1.5707963267949,3.14159265358979,                     43P     51
3.14159265358979,3.14159265358979,1.,0.707106781186548,1.,            43P     52
0.707106781186547,1.,0.707106781186547,1.,0.707106781186548,1.,       43P     53
-14.,1.71450551880629D-15,3.,-14.,14.,3.,8.57252759403147D-16,        43P     54
14.,3.,14.,14.,3.,14.,0.,3.,14.,-14.,3.,8.57252759403147D-16,         43P     55
-14.,3.,-14.,-14.,3.,-14.,-1.71450551880629D-15,3.,                   43P     56
-3.14159265358979,3.14159265358979,0.,0.,0.;                          43P     57
126,1,1,0,0,1,0,-0.214285714285714,-0.214285714285714,                45P     58
0.571428571428571,0.571428571428571,1.,1.,-14.,0.,3.,-14.,0.,         45P     59
-8.,-0.214285714285714,0.571428571428571,0.,0.,0.;                    45P     60
126,8,2,0,1,0,0,-3.14159265358979,-3.14159265358979,                  47P     61
-3.14159265358979,-1.5707963267949,-1.5707963267949,0.,0.,            47P     62
1.5707963267949,1.5707963267949,3.14159265358979,                     47P     63
3.14159265358979,3.14159265358979,1.,0.707106781186548,1.,            47P     64
0.707106781186547,1.,0.707106781186547,1.,0.707106781186548,1.,       47P     65
-23.,-2.81668763803891D-15,3.,-23.,-23.,3.,1.40834381901946D-15,      47P     66
-23.,3.,23.,-23.,3.,23.,0.,3.,23.,23.,3.,1.40834381901946D-15,        47P     67
23.,3.,-23.,23.,3.,-23.,2.81668763803891D-15,3.,                      47P     68
-3.14159265358979,3.14159265358979,0.,0.,0.;                          47P     69
126,1,1,0,0,1,0,-0.130434782608696,-0.130434782608696,0.,0.,1.,       49P     70
1.,-23.,0.,3.,-23.,0.,0.,-0.130434782608696,0.,0.,0.,0.;              49P     71
126,8,2,0,1,0,0,-3.14159265358979,-3.14159265358979,                  51P     72
-3.14159265358979,-1.5707963267949,-1.5707963267949,0.,0.,            51P     73
1.5707963267949,1.5707963267949,3.14159265358979,                     51P     74
3.14159265358979,3.14159265358979,1.,0.707106781186548,1.,            51P     75
0.707106781186547,1.,0.707106781186547,1.,0.707106781186548,1.,       51P     76
-23.,-2.81668763803891D-15,0.,-23.,-23.,0.,1.40834381901946D-15,      51P     77
-23.,0.,23.,-23.,0.,23.,0.,0.,23.,23.,0.,1.40834381901946D-15,        51P     78
23.,0.,-23.,23.,0.,-23.,2.81668763803891D-15,0.,                      51P     79
-3.14159265358979,3.14159265358979,0.,0.,0.;                          51P     80
128,1,8,1,2,0,1,0,0,1,0.,0.,0.470588235294118,0.470588235294118,      53P     81
-3.14159265358979,-3.14159265358979,-3.14159265358979,                53P     82
-1.5707963267949,-1.5707963267949,0.,0.,1.5707963267949,              53P     83
1.5707963267949,3.14159265358979,3.14159265358979,                    53P     84
3.14159265358979,1.,1.,0.707106781186548,0.707106781186548,1.,        53P     85
1.,0.707106781186548,0.707106781186548,1.,1.,0.707106781186548,       53P     86
0.707106781186548,1.,1.,0.707106781186548,0.707106781186548,1.,       53P     87
1.,-17.,0.,-8.,-17.,0.,0.,-17.,17.,-8.,-17.,17.,0.,0.,17.,-8.,        53P     88
0.,17.,0.,17.,17.,-8.,17.,17.,0.,17.,0.,-8.,17.,0.,0.,17.,-17.,       53P     89
-8.,17.,-17.,0.,0.,-17.,-8.,0.,-17.,0.,-17.,-17.,-8.,-17.,-17.,       53P     90
0.,-17.,0.,-8.,-17.,0.,0.,0.,0.470588235294118,                       53P     91
-3.14159265358979,3.14159265358979;                                   53P     92
128,1,1,1,1,0,0,1,0,0,-1.701,-1.701,1.701,1.701,-1.701,-1.701,        55P     93
1.701,1.701,1.,1.,1.,1.,17.01,-17.01,-8.,-17.01,-17.01,-8.,           55P     94
17.01,17.01,-8.,-17.01,17.01,-8.,-1.701,1.701,-1.701,1.701;           55P     95
128,1,8,1,2,0,1,0,0,1,-0.571428571428571,-0.571428571428571,          57P     96
0.214285714285714,0.214285714285714,-3.14159265358979,                57P     97
-3.14159265358979,-3.14159265358979,-1.5707963267949,                 57P     98
-1.5707963267949,0.,0.,1.5707963267949,1.5707963267949,               57P     99
3.14159265358979,3.14159265358979,3.14159265358979,1.,1.,             57P    100
0.707106781186548,0.707106781186548,1.,1.,0.707106781186548,          57P    101
0.707106781186548,1.,1.,0.707106781186548,0.707106781186548,1.,       57P    102
1.,0.707106781186548,0.707106781186548,1.,1.,-14.,0.,-8.,-14.,        57P    103
0.,3.,-14.,-14.,-8.,-14.,-14.,3.,0.,-14.,-8.,0.,-14.,3.,14.,          57P    104
-14.,-8.,14.,-14.,3.,14.,0.,-8.,14.,0.,3.,14.,14.,-8.,14.,14.,        57P    105
3.,0.,14.,-8.,0.,14.,3.,-14.,14.,-8.,-14.,14.,3.,-14.,0.,-8.,         57P    106
-14.,0.,3.,-0.571428571428571,0.214285714285714,                      57P    107
-3.14159265358979,3.14159265358979;                                   57P    108
128,1,8,1,2,0,1,0,0,1,0.,0.,0.130434782608696,0.130434782608696,      59P    109
-3.14159265358979,-3.14159265358979,-3.14159265358979,                59P    110
-1.5707963267949,-1.5707963267949,0.,0.,1.5707963267949,              59P    111
1.5707963267949,3.14159265358979,3.14159265358979,                    59P    112
3.14159265358979,1.,1.,0.707106781186548,0.707106781186548,1.,        59P    113
1.,0.707106781186548,0.707106781186548,1.,1.,0.707106781186548,       59P    114
0.707106781186548,1.,1.,0.707106781186548,0.707106781186548,1.,       59P    115
1.,-23.,0.,3.,-23.,0.,0.,-23.,-23.,3.,-23.,-23.,0.,0.,-23.,3.,        59P    116
0.,-23.,0.,23.,-23.,3.,23.,-23.,0.,23.,0.,3.,23.,0.,0.,23.,23.,       59P    117
3.,23.,23.,0.,0.,23.,3.,0.,23.,0.,-23.,23.,3.,-23.,23.,0.,-23.,       59P    118
0.,3.,-23.,0.,0.,0.,0.130434782608696,-3.14159265358979,              59P    119
3.14159265358979;                                                     59P    120
128,1,1,1,1,0,0,1,0,0,-2.301,-2.301,2.301,2.301,-2.301,-2.301,        61P    121
2.301,2.301,1.,1.,1.,1.,-23.01,-23.01,3.,23.01,-23.01,3.,-23.01,      61P    122
23.01,3.,23.01,23.01,3.,-2.301,2.301,-2.301,2.301;                    61P    123
128,1,1,1,1,0,0,1,0,0,-2.301,-2.301,2.301,2.301,-2.301,-2.301,        63P    124
2.301,2.301,1.,1.,1.,1.,23.01,-23.01,0.,-23.01,-23.01,0.,23.01,       63P    125
23.01,0.,-23.01,23.01,0.,-2.301,2.301,-2.301,2.301;                   63P    126
502,6,-17.,-2.0818995585505D-15,-8.,-17.,-2.0818995585505D-15,        65P    127
0.,-14.,-1.71450551880629D-15,-8.,-14.,-1.71450551880629D-15,3.,      65P    128
-23.,-2.81668763803891D-15,3.,-23.,-2.81668763803891D-15,0.;          65P    129
504,9,35,65,1,65,1,37,65,1,65,2,39,65,2,65,2,41,65,3,65,3,43,65,      67P    130
4,65,4,45,65,4,65,3,47,65,5,65,5,49,65,5,65,6,51,65,6,65,6;           67P    131
406,1,5HBody1;                                                        69P    132
314,62.7450980392157,62.7450980392157,62.7450980392157,13HSteel       71P    133
- Satin;                                                              71P    134
S      1G      3D     72P    134                                        T      1
