                                                                        S      1
,,10HBuzzer v13,10HBuzzer v13,7Hunknown,7Hunknown,32,38,7,99,15,,1.,2,2HG      1
MM,1,0.08,15H20220922.115449,0.01,10000.,7Hunknown,7Hunknown,11,0,15H202G      2
10105.000918;                                                           G      3
     186       1                                                00000000D      1
     186             -51       1       0                               0D      2
     514       2                                                00010000D      3
     514                       1       1                               0D      4
     510       3                                                00010000D      5
     510             -51       1       1                               0D      6
     510       4                                                00010000D      7
     510             -51       1       1                               0D      8
     510       5                                                00010000D      9
     510             -51       1       1                               0D     10
     510       6                                                00010000D     11
     510             -51       1       1                               0D     12
     508       7                                                00010000D     13
     508                       1       1                               0D     14
     508       8                                                00010000D     15
     508                       1       1                               0D     16
     508       9                                                00010000D     17
     508                       1       1                               0D     18
     508      10                                                00010000D     19
     508                       1       1                               0D     20
     508      11                                                00010000D     21
     508                       1       1                               0D     22
     508      12                                                00010000D     23
     508                       1       1                               0D     24
     126      13                                                00010000D     25
     126       0              10       0                               0D     26
     126      23                                                00010000D     27
     126       0               4       0                               0D     28
     126      27                                                00010000D     29
     126       0              10       0                               0D     30
     126      37                                                00010000D     31
     126       0              10       0                               0D     32
     126      47                                                00010000D     33
     126       0               2       0                               0D     34
     126      49                                                00010000D     35
     126       0              10       0                               0D     36
     128      59                                                00010000D     37
     128       0     -51      16       0                               0D     38
     128      75                                                00010000D     39
     128       0     -51       3       0                               0D     40
     128      78                                                00010000D     41
     128       0     -51      12       0                               0D     42
     128      90                                                00010000D     43
     128       0     -51       3       0                               0D     44
     502      93                                                00010000D     45
     502                       2       1                               0D     46
     504      95                                                00010001D     47
     504                       2       1                               0D     48
     406      97                                                00000000D     49
     406                       1      15                               0D     50
     314      98                                                00000200D     51
     314                       2       0                               0D     52
186,3,1,0,0,1,49;                                                      1P      1
514,4,5,1,7,1,9,1,11,1;                                                3P      2
510,37,1,1,13;                                                         5P      3
510,39,2,1,15,17;                                                      7P      4
510,41,1,1,19;                                                         9P      5
510,43,2,1,21,23;                                                     11P      6
508,4,0,47,1,1,0,0,47,2,1,0,0,47,3,1,0,0,47,2,0,0;                    13P      7
508,1,0,47,1,0,0;                                                     15P      8
508,1,0,47,4,1,0;                                                     17P      9
508,4,0,47,4,0,0,0,47,5,1,0,0,47,6,1,0,0,47,5,0,0;                    19P     10
508,1,0,47,3,0,0;                                                     21P     11
508,1,0,47,6,0,0;                                                     23P     12
126,8,2,0,1,0,0,-3.14159265358979,-3.14159265358979,                  25P     13
-3.14159265358979,-1.5707963267949,-1.5707963267949,0.,0.,            25P     14
1.5707963267949,1.5707963267949,3.14159265358979,                     25P     15
3.14159265358979,3.14159265358979,1.,0.707106781186548,1.,            25P     16
0.707106781186547,1.,0.707106781186547,1.,0.707106781186548,1.,       25P     17
6.5,-7.9602041944578D-16,3.5,6.5,-6.5,3.5,-3.9801020972289D-16,       25P     18
-6.5,3.5,-6.5,-6.5,3.5,-6.5,0.,3.5,-6.5,6.5,3.5,                      25P     19
-3.9801020972289D-16,6.5,3.5,6.5,6.5,3.5,6.5,                         25P     20
7.9602041944578D-16,3.5,-3.14159265358979,3.14159265358979,0.,        25P     21
0.,0.;                                                                25P     22
126,1,1,0,0,1,0,-0.260324019332297,-0.260324019332297,                27P     23
0.260324019332297,0.260324019332297,1.,1.,6.5,0.,3.5,7.25,0.,         27P     24
2.77555756156289D-16,-0.260324019332297,0.260324019332297,0.,0.,      27P     25
0.;                                                                   27P     26
126,8,2,0,1,0,0,-3.14159265358979,-3.14159265358979,                  29P     27
-3.14159265358979,-1.5707963267949,-1.5707963267949,0.,0.,            29P     28
1.5707963267949,1.5707963267949,3.14159265358979,                     29P     29
3.14159265358979,3.14159265358979,1.,0.707106781186548,1.,            29P     30
0.707106781186548,1.,0.707106781186548,1.,0.707106781186548,1.,       29P     31
7.25,8.87868929381831D-16,0.,7.25,7.25,0.,-4.43934464690916D-16,      29P     32
7.25,0.,-7.25,7.25,0.,-7.25,0.,0.,-7.25,-7.25,0.,                     29P     33
-4.43934464690916D-16,-7.25,0.,7.25,-7.25,0.,7.25,                    29P     34
-8.87868929381831D-16,0.,-3.14159265358979,3.14159265358979,0.,       29P     35
0.,0.;                                                                29P     36
126,8,2,0,1,0,0,-3.14159265358979,-3.14159265358979,                  31P     37
-3.14159265358979,-1.5707963267949,-1.5707963267949,0.,0.,            31P     38
1.5707963267949,1.5707963267949,3.14159265358979,                     31P     39
3.14159265358979,3.14159265358979,1.,0.707106781186548,1.,            31P     40
0.707106781186547,1.,0.707106781186547,1.,0.707106781186548,1.,       31P     41
5.25,-6.4293956955236D-16,3.5,5.25,-5.25,3.5,                         31P     42
-3.2146978477618D-16,-5.25,3.5,-5.25,-5.25,3.5,-5.25,0.,3.5,          31P     43
-5.25,5.25,3.5,-3.2146978477618D-16,5.25,3.5,5.25,5.25,3.5,5.25,      31P     44
6.4293956955236D-16,3.5,-3.14159265358979,3.14159265358979,0.,        31P     45
0.,0.;                                                                31P     46
126,1,1,0,0,1,0,-0.666666666666667,-0.666666666666667,0.,0.,1.,       33P     47
1.,5.25,0.,3.5,5.25,0.,0.,-0.666666666666667,0.,0.,0.,0.;             33P     48
126,8,2,0,1,0,0,-3.14159265358979,-3.14159265358979,                  35P     49
-3.14159265358979,-1.5707963267949,-1.5707963267949,0.,0.,            35P     50
1.5707963267949,1.5707963267949,3.14159265358979,                     35P     51
3.14159265358979,3.14159265358979,1.,0.707106781186548,1.,            35P     52
0.707106781186547,1.,0.707106781186547,1.,0.707106781186548,1.,       35P     53
5.25,-6.4293956955236D-16,0.,5.25,-5.25,0.,-3.2146978477618D-16,      35P     54
-5.25,0.,-5.25,-5.25,0.,-5.25,0.,0.,-5.25,5.25,0.,                    35P     55
-3.2146978477618D-16,5.25,0.,5.25,5.25,0.,5.25,                       35P     56
6.4293956955236D-16,0.,-3.14159265358979,3.14159265358979,0.,0.,      35P     57
0.;                                                                   35P     58
128,1,8,1,2,0,1,0,0,1,-0.260324019332297,-0.260324019332297,          37P     59
0.260324019332297,0.260324019332297,-3.14159265358979,                37P     60
-3.14159265358979,-3.14159265358979,-1.5707963267949,                 37P     61
-1.5707963267949,0.,0.,1.5707963267949,1.5707963267949,               37P     62
3.14159265358979,3.14159265358979,3.14159265358979,1.,1.,             37P     63
0.707106781186548,0.707106781186548,1.,1.,0.707106781186548,          37P     64
0.707106781186548,1.,1.,0.707106781186548,0.707106781186548,1.,       37P     65
1.,0.707106781186548,0.707106781186548,1.,1.,6.5,0.,3.5,7.25,0.,      37P     66
2.77555756156289D-16,6.5,6.5,3.5,7.25,7.25,2.77555756156289D-16,      37P     67
0.,6.5,3.5,0.,7.25,2.77555756156289D-16,-6.5,6.5,3.5,-7.25,7.25,      37P     68
2.77555756156289D-16,-6.5,0.,3.5,-7.25,0.,2.77555756156289D-16,       37P     69
-6.5,-6.5,3.5,-7.25,-7.25,2.77555756156289D-16,0.,-6.5,3.5,0.,        37P     70
-7.25,2.77555756156289D-16,6.5,-6.5,3.5,7.25,-7.25,                   37P     71
2.77555756156289D-16,6.5,0.,3.5,7.25,0.,2.77555756156289D-16,         37P     72
-0.260324019332297,0.260324019332297,-3.14159265358979,               37P     73
3.14159265358979;                                                     37P     74
128,1,1,1,1,0,0,1,0,0,-0.651,-0.651,0.651,0.651,-0.651,-0.651,        39P     75
0.651,0.651,1.,1.,1.,1.,6.51,6.51,3.5,-6.51,6.51,3.5,6.51,-6.51,      39P     76
3.5,-6.51,-6.51,3.5,-0.651,0.651,-0.651,0.651;                        39P     77
128,1,8,1,2,0,1,0,0,1,0.,0.,0.666666666666667,0.666666666666667,      41P     78
-3.14159265358979,-3.14159265358979,-3.14159265358979,                41P     79
-1.5707963267949,-1.5707963267949,0.,0.,1.5707963267949,              41P     80
1.5707963267949,3.14159265358979,3.14159265358979,                    41P     81
3.14159265358979,1.,1.,0.707106781186548,0.707106781186548,1.,        41P     82
1.,0.707106781186548,0.707106781186548,1.,1.,0.707106781186548,       41P     83
0.707106781186548,1.,1.,0.707106781186548,0.707106781186548,1.,       41P     84
1.,5.25,0.,0.,5.25,0.,3.5,5.25,5.25,0.,5.25,5.25,3.5,0.,5.25,0.,      41P     85
0.,5.25,3.5,-5.25,5.25,0.,-5.25,5.25,3.5,-5.25,0.,0.,-5.25,0.,        41P     86
3.5,-5.25,-5.25,0.,-5.25,-5.25,3.5,0.,-5.25,0.,0.,-5.25,3.5,          41P     87
5.25,-5.25,0.,5.25,-5.25,3.5,5.25,0.,0.,5.25,0.,3.5,0.,               41P     88
0.666666666666667,-3.14159265358979,3.14159265358979;                 41P     89
128,1,1,1,1,0,0,1,0,0,-0.726,-0.726,0.726,0.726,-0.726,-0.726,        43P     90
0.726,0.726,1.,1.,1.,1.,-7.26,7.26,0.,7.26,7.26,0.,-7.26,-7.26,       43P     91
0.,7.26,-7.26,0.,-0.726,0.726,-0.726,0.726;                           43P     92
502,4,6.5,-7.9602041944578D-16,3.5,7.25,8.87868929381831D-16,0.,      45P     93
5.25,6.4293956955236D-16,3.5,5.25,6.4293956955236D-16,0.;             45P     94
504,6,25,45,1,45,1,27,45,1,45,2,29,45,2,45,2,31,45,3,45,3,33,45,      47P     95
3,45,4,35,45,4,45,4;                                                  47P     96
406,1,5HBody5;                                                        49P     97
314,62.7450980392157,62.7450980392157,62.7450980392157,13HSteel       51P     98
- Satin;                                                              51P     99
S      1G      3D     52P     99                                        T      1
