0
SECTION
2
HEADER
9
$INSUNITS
70
4
9
$ACADVER
1
AC1014
9
$HANDSEED
5
FFFF
0
ENDSEC
0
SECTION
2
TABLES
0
TABLE
2
VPORT
5
8
100
AcDbSymbolTable
0
ENDTAB
0
TABLE
2
LTYPE
5
5
100
AcDbSymbolTable
0
LTYPE
5
14
100
AcDbSymbolTableRecord
100
AcDbLinetypeTableRecord
2
BYBLOCK
70
0
0
LTYPE
5
15
100
AcDbSymbolTableRecord
100
AcDbLinetypeTableRecord
2
BYLAYER
70
0
0
ENDTAB
0
TABLE
2
LAYER
5
2
100
AcDbSymbolTable
70
2
0
LAYER
5
50
100
AcDbSymbolTableRecord
100
AcDbLayerTableRecord
2
0
70
0
6
CONTINUOUS
0
ENDTAB
0
TABLE
2
STYLE
5
3
100
AcDbSymbolTable
70
1
0
STYLE
5
11
100
AcDbSymbolTableRecord
100
AcDbTextStyleTableRecord
2
STANDARD
70
0
0
ENDTAB
0
TABLE
2
VIEW
5
6
100
AcDbSymbolTable
70
0
0
ENDTAB
0
TABLE
2
UCS
5
7
100
AcDbSymbolTable
70
0
0
ENDTAB
0
TABLE
2
APPID
5
9
100
AcDbSymbolTable
70
2
0
APPID
5
12
100
AcDbSymbolTableRecord
100
AcDbRegAppTableRecord
2
ACAD
70
0
0
ENDTAB
0
TABLE
2
DIMSTYLE
5
A
100
AcDbSymbolTable
70
1
0
ENDTAB
0
TABLE
2
BLOCK_RECORD
5
1
100
AcDbSymbolTable
70
1
0
BLOCK_RECORD
5
1F
100
AcDbSymbolTableRecord
100
AcDbBlockTableRecord
2
*MODEL_SPACE
0
BLOCK_RECORD
5
1B
100
AcDbSymbolTableRecord
100
AcDbBlockTableRecord
2
*PAPER_SPACE
0
ENDTAB
0
ENDSEC
0
SECTION
2
BLOCKS
0
BLOCK
5
20
100
AcDbEntity
100
AcDbBlockBegin
2
*MODEL_SPACE
0
ENDBLK
5
21
100
AcDbEntity
100
AcDbBlockEnd
0
BLOCK
5
1C
100
AcDbEntity
100
AcDbBlockBegin
2
*PAPER_SPACE
0
ENDBLK
5
1D
100
AcDbEntity
100
AcDbBlockEnd
0
ENDSEC
0
SECTION
2
ENTITIES
0
SPLINE
5
100
100
AcDbEntity
8
0
100
AcDbSpline
70
0
71
3
72
18
73
14
74
0
42
0.000000001
43
0.0000000001
44
0.0000000001
40
0
40
0
40
0
40
0
40
0.82044209685782588
40
0.82044209685782588
40
1.6285777023483794
40
1.6285777023483794
40
2.4244030511108035
40
2.4244030511108035
40
3.2079143280514781
40
3.2079143280514781
40
3.6727755275545597
40
3.6727755275545597
40
4.1331334116245966
40
4.1331334116245966
40
4.1331334116245966
40
4.1331334116245966
10
-5.4799126316629785
20
-20.453117312511079
30
0
10
-8.0919151445074853
20
-19.642801236615558
30
0
10
-10.521832995413764
20
-18.333817566339874
30
0
10
-14.70641279921187
20
-14.878436685405116
30
0
10
-16.430638048389646
20
-12.777655172483637
30
0
10
-18.95051348138059
20
-8.0661735874104004
30
0
10
-19.735703408249346
20
-5.5085196603623965
30
0
10
-20.269639301010407
20
-0.27647626221059929
30
0
10
-20.028928962337254
20
2.3456680931976632
30
0
10
-18.849647048971324
20
6.3305084428232981
30
0
10
-18.238692695560552
20
7.7579580753840709
30
0
10
-16.702522068577188
20
10.427181460997925
30
0
10
-15.78566701667347
20
11.66144488547399
30
0
10
-14.733727777354083
20
12.7755261035632
30
0
0
ARC
5
101
100
AcDbEntity
8
0
100
AcDbCircle
10
0
20
0
30
0
40
19.501200000000001
210
0
220
-0
230
1
100
AcDbArc
50
40.928360582852633
51
139.07163941714757
0
SPLINE
5
102
100
AcDbEntity
8
0
100
AcDbSpline
70
0
71
3
72
18
73
14
74
0
42
0.000000001
43
0.0000000001
44
0.0000000001
40
0
40
0
40
0
40
0
40
0.76728168221522675
40
0.76728168221522675
40
1.5468612261257944
40
1.5468612261257944
40
2.3387347272897649
40
2.3387347272897649
40
3.1428983342886259
40
3.1428983342886259
40
3.6322021711917167
40
3.6322021711917167
40
4.1260004096274718
40
4.1260004096274718
40
4.1260004096274718
40
4.1260004096274718
10
14.733727777354035
20
12.775526103563255
30
0
10
16.489620655359847
20
10.915906076812899
30
0
10
17.862304832599122
20
8.7289263004707998
30
0
10
19.714573701491933
20
3.9149767857665259
30
0
10
20.161489837988022
20
1.3289323605448533
30
0
10
20.045665491383229
20
-3.9115938463208737
30
0
10
19.468256459125246
20
-6.5150070553624539
30
0
10
17.338064786510742
20
-11.396031768480157
30
0
10
15.79142107468034
20
-13.620091299844027
30
0
10
12.691528554817362
20
-16.625246989538642
30
0
10
11.388902267129721
20
-17.619791491448694
30
0
10
8.5663202146483428
20
-19.293917300671211
30
0
10
7.05436782947376
20
-19.964677369865694
30
0
10
5.4799126316632405
20
-20.453117312511008
30
0
0
ARC
5
103
100
AcDbEntity
8
0
100
AcDbCircle
10
0
20
0
30
0
40
21.174499999999998
210
0
220
0
230
1
100
AcDbArc
50
255.00126406934791
51
284.9987359306528
0
CIRCLE
5
104
100
AcDbEntity
8
0
100
AcDbCircle
10
0
20
0
30
0
40
29.000000000000004
210
0
220
0
230
1
0
CIRCLE
5
105
100
AcDbEntity
8
0
100
AcDbCircle
10
0
20
0
30
0
40
26
210
0
220
0
230
1
0
ENDSEC
0
SECTION
2
OBJECTS
0
DICTIONARY
5
C
100
AcDbDictionary
3
ACAD_GROUP
350
D
3
ACAD_MLINESTYLE
350
17
0
DICTIONARY
5
D
100
AcDbDictionary
0
DICTIONARY
5
1A
330
C
100
AcDbDictionary
0
DICTIONARY
5
17
100
AcDbDictionary
0
ENDSEC
0
EOF
