                                                                        S      1
,,17Hcable holder 2 v2,17Hcable holder 2 v2,7Hunknown,7Hunknown,32,38,7,G      1
99,15,,1.,2,2HMM,1,0.08,15H20220922.114913,0.01,10000.,7Hunknown,7HunknoG      2
wn,11,0,15H20220127.144523;                                             G      3
     186       1                                                00000000D      1
     186            -199       1       0                               0D      2
     514       2                                                00010000D      3
     514                       2       1                               0D      4
     510       4                                                00010000D      5
     510            -199       1       1                               0D      6
     510       5                                                00010000D      7
     510            -199       1       1                               0D      8
     510       6                                                00010000D      9
     510            -199       1       1                               0D     10
     510       7                                                00010000D     11
     510            -199       1       1                               0D     12
     510       8                                                00010000D     13
     510            -199       1       1                               0D     14
     510       9                                                00010000D     15
     510            -199       1       1                               0D     16
     510      10                                                00010000D     17
     510            -199       1       1                               0D     18
     510      11                                                00010000D     19
     510            -199       1       1                               0D     20
     510      12                                                00010000D     21
     510            -199       1       1                               0D     22
     510      13                                                00010000D     23
     510            -199       1       1                               0D     24
     510      14                                                00010000D     25
     510            -199       1       1                               0D     26
     510      15                                                00010000D     27
     510            -199       1       1                               0D     28
     510      16                                                00010000D     29
     510            -199       1       1                               0D     30
     510      17                                                00010000D     31
     510            -199       1       1                               0D     32
     510      18                                                00010000D     33
     510            -199       1       1                               0D     34
     510      19                                                00010000D     35
     510            -199       1       1                               0D     36
     508      20                                                00010000D     37
     508                       1       1                               0D     38
     508      21                                                00010000D     39
     508                       1       1                               0D     40
     508      22                                                00010000D     41
     508                       1       1                               0D     42
     508      23                                                00010000D     43
     508                       1       1                               0D     44
     508      24                                                00010000D     45
     508                       1       1                               0D     46
     508      25                                                00010000D     47
     508                       1       1                               0D     48
     508      26                                                00010000D     49
     508                       1       1                               0D     50
     508      27                                                00010000D     51
     508                       1       1                               0D     52
     508      28                                                00010000D     53
     508                       1       1                               0D     54
     508      29                                                00010000D     55
     508                       1       1                               0D     56
     508      30                                                00010000D     57
     508                       1       1                               0D     58
     508      31                                                00010000D     59
     508                       1       1                               0D     60
     508      32                                                00010000D     61
     508                       1       1                               0D     62
     508      33                                                00010000D     63
     508                       1       1                               0D     64
     508      34                                                00010000D     65
     508                       1       1                               0D     66
     508      35                                                00010000D     67
     508                       1       1                               0D     68
     508      36                                                00010000D     69
     508                       1       1                               0D     70
     508      37                                                00010000D     71
     508                       1       1                               0D     72
     508      38                                                00010000D     73
     508                       3       1                               0D     74
     508      41                                                00010000D     75
     508                       3       1                               0D     76
     126      44                                                00010000D     77
     126       0               8       0                               0D     78
     126      52                                                00010000D     79
     126       0               2       0                               0D     80
     126      54                                                00010000D     81
     126       0               7       0                               0D     82
     126      61                                                00010000D     83
     126       0               8       0                               0D     84
     126      69                                                00010000D     85
     126       0               2       0                               0D     86
     126      71                                                00010000D     87
     126       0               8       0                               0D     88
     126      79                                                00010000D     89
     126       0               2       0                               0D     90
     126      81                                                00010000D     91
     126       0               2       0                               0D     92
     126      83                                                00010000D     93
     126       0               2       0                               0D     94
     126      85                                                00010000D     95
     126       0               2       0                               0D     96
     126      87                                                00010000D     97
     126       0               2       0                               0D     98
     126      89                                                00010000D     99
     126       0               2       0                               0D    100
     126      91                                                00010000D    101
     126       0               2       0                               0D    102
     126      93                                                00010000D    103
     126       0               2       0                               0D    104
     126      95                                                00010000D    105
     126       0               2       0                               0D    106
     126      97                                                00010000D    107
     126       0               2       0                               0D    108
     126      99                                                00010000D    109
     126       0               2       0                               0D    110
     126     101                                                00010000D    111
     126       0               2       0                               0D    112
     126     103                                                00010000D    113
     126       0               2       0                               0D    114
     126     105                                                00010000D    115
     126       0               2       0                               0D    116
     126     107                                                00010000D    117
     126       0               2       0                               0D    118
     126     109                                                00010000D    119
     126       0               2       0                               0D    120
     126     111                                                00010000D    121
     126       0               2       0                               0D    122
     126     113                                                00010000D    123
     126       0               2       0                               0D    124
     126     115                                                00010000D    125
     126       0               2       0                               0D    126
     126     117                                                00010000D    127
     126       0               2       0                               0D    128
     126     119                                                00010000D    129
     126       0               2       0                               0D    130
     126     121                                                00010000D    131
     126       0               2       0                               0D    132
     126     123                                                00010000D    133
     126       0               2       0                               0D    134
     126     125                                                00010000D    135
     126       0               2       0                               0D    136
     126     127                                                00010000D    137
     126       0               2       0                               0D    138
     126     129                                                00010000D    139
     126       0               2       0                               0D    140
     126     131                                                00010000D    141
     126       0               2       0                               0D    142
     126     133                                                00010000D    143
     126       0               2       0                               0D    144
     126     135                                                00010000D    145
     126       0               2       0                               0D    146
     126     137                                                00010000D    147
     126       0               2       0                               0D    148
     126     139                                                00010000D    149
     126       0               2       0                               0D    150
     126     141                                                00010000D    151
     126       0               3       0                               0D    152
     126     144                                                00010000D    153
     126       0               3       0                               0D    154
     126     147                                                00010000D    155
     126       0               2       0                               0D    156
     126     149                                                00010000D    157
     126       0               2       0                               0D    158
     126     151                                                00010000D    159
     126       0               2       0                               0D    160
     128     153                                                00010000D    161
     128       0    -199      11       0                               0D    162
     128     164                                                00010000D    163
     128       0    -199      11       0                               0D    164
     128     175                                                00010000D    165
     128       0    -199       3       0                               0D    166
     128     178                                                00010000D    167
     128       0    -199       3       0                               0D    168
     128     181                                                00010000D    169
     128       0    -199       3       0                               0D    170
     128     184                                                00010000D    171
     128       0    -199       3       0                               0D    172
     128     187                                                00010000D    173
     128       0    -199       3       0                               0D    174
     128     190                                                00010000D    175
     128       0    -199       4       0                               0D    176
     128     194                                                00010000D    177
     128       0    -199       4       0                               0D    178
     128     198                                                00010000D    179
     128       0    -199       3       0                               0D    180
     128     201                                                00010000D    181
     128       0    -199       3       0                               0D    182
     128     204                                                00010000D    183
     128       0    -199       3       0                               0D    184
     128     207                                                00010000D    185
     128       0    -199       4       0                               0D    186
     128     211                                                00010000D    187
     128       0    -199       3       0                               0D    188
     128     214                                                00010000D    189
     128       0    -199       4       0                               0D    190
     128     218                                                00010000D    191
     128       0    -199       4       0                               0D    192
     502     222                                                00010000D    193
     502                       7       1                               0D    194
     504     229                                                00010001D    195
     504                      12       1                               0D    196
     406     241                                                00000000D    197
     406                       1      15                               0D    198
     314     242                                                00000200D    199
     314                       2       0                               0D    200
186,3,1,0,0,1,197;                                                     1P      1
514,16,5,1,7,1,9,1,11,1,13,1,15,1,17,1,19,1,21,1,23,1,25,1,27,1,       3P      2
29,1,31,1,33,1,35,1;                                                   3P      3
510,161,1,1,37;                                                        5P      4
510,163,1,1,39;                                                        7P      5
510,165,2,1,41,43;                                                     9P      6
510,167,1,1,45;                                                       11P      7
510,169,1,1,47;                                                       13P      8
510,171,1,1,49;                                                       15P      9
510,173,2,1,51,53;                                                    17P     10
510,175,1,1,55;                                                       19P     11
510,177,2,1,57,59;                                                    21P     12
510,179,1,1,61;                                                       23P     13
510,181,1,1,63;                                                       25P     14
510,183,1,1,65;                                                       27P     15
510,185,2,1,67,69;                                                    29P     16
510,187,1,1,71;                                                       31P     17
510,189,1,1,73;                                                       33P     18
510,191,1,1,75;                                                       35P     19
508,4,0,195,1,0,0,0,195,2,1,0,0,195,3,0,0,0,195,2,0,0;                37P     20
508,4,0,195,4,0,0,0,195,5,1,0,0,195,6,0,0,0,195,5,0,0;                39P     21
508,4,0,195,7,0,0,0,195,8,1,0,0,195,9,0,0,0,195,10,0,0;               41P     22
508,1,0,195,4,1,0;                                                    43P     23
508,4,0,195,11,0,0,0,195,10,1,0,0,195,12,0,0,0,195,13,0,0;            45P     24
508,4,0,195,14,0,0,0,195,13,1,0,0,195,15,0,0,0,195,16,0,0;            47P     25
508,4,0,195,17,0,0,0,195,16,1,0,0,195,18,0,0,0,195,19,0,0;            49P     26
508,4,0,195,20,0,0,0,195,19,1,0,0,195,21,0,0,0,195,22,0,0;            51P     27
508,1,0,195,1,1,0;                                                    53P     28
508,4,0,195,23,0,0,0,195,22,1,0,0,195,24,0,0,0,195,25,0,0;            55P     29
508,4,0,195,26,0,0,0,195,25,1,0,0,195,27,0,0,0,195,28,0,0;            57P     30
508,1,0,195,3,1,0;                                                    59P     31
508,4,0,195,29,0,0,0,195,28,1,0,0,195,30,0,0,0,195,31,0,0;            61P     32
508,4,0,195,32,0,0,0,195,31,1,0,0,195,33,0,0,0,195,34,0,0;            63P     33
508,4,0,195,35,0,0,0,195,34,1,0,0,195,36,0,0,0,195,37,0,0;            65P     34
508,4,0,195,38,0,0,0,195,37,1,0,0,195,39,0,0,0,195,40,0,0;            67P     35
508,1,0,195,6,1,0;                                                    69P     36
508,4,0,195,41,0,0,0,195,40,1,0,0,195,42,0,0,0,195,8,0,0;             71P     37
508,12,0,195,42,1,0,0,195,39,1,0,0,195,36,1,0,0,195,33,1,0,0,         73P     38
195,30,1,0,0,195,27,1,0,0,195,24,1,0,0,195,21,1,0,0,195,18,1,0,       73P     39
0,195,15,1,0,0,195,12,1,0,0,195,9,1,0;                                73P     40
508,12,0,195,41,1,0,0,195,7,1,0,0,195,11,1,0,0,195,14,1,0,0,195,      75P     41
17,1,0,0,195,20,1,0,0,195,23,1,0,0,195,26,1,0,0,195,29,1,0,0,         75P     42
195,32,1,0,0,195,35,1,0,0,195,38,1,0;                                 75P     43
126,8,2,0,1,0,0,-3.14159265358979,-3.14159265358979,                  77P     44
-3.14159265358979,-1.5707963267949,-1.5707963267949,0.,0.,            77P     45
1.5707963267949,1.5707963267949,3.14159265358979,                     77P     46
3.14159265358979,3.14159265358979,1.,0.707106781186548,1.,            77P     47
0.707106781186548,1.,0.707106781186548,1.,0.707106781186548,1.,       77P     48
4.,4.,1.5,4.,3.,1.5,3.,3.,1.5,2.,3.,1.5,2.,4.,1.5,2.,5.,1.5,3.,       77P     49
5.,1.5,4.,5.,1.5,4.,4.,1.5,-3.14159265358979,3.14159265358979,        77P     50
0.,0.,0.;                                                             77P     51
126,1,1,0,0,1,0,0.,0.,1.5,1.5,1.,1.,4.,4.,1.5,4.,4.,0.,0.,1.5,        79P     52
0.,0.,0.;                                                             79P     53
126,8,2,0,1,0,0,-3.14159265358979,-3.14159265358979,                  81P     54
-3.14159265358979,-1.5707963267949,-1.5707963267949,0.,0.,            81P     55
1.5707963267949,1.5707963267949,3.14159265358979,                     81P     56
3.14159265358979,3.14159265358979,1.,0.707106781186548,1.,            81P     57
0.707106781186548,1.,0.707106781186548,1.,0.707106781186548,1.,       81P     58
4.,4.,0.,4.,5.,0.,3.,5.,0.,2.,5.,0.,2.,4.,0.,2.,3.,0.,3.,3.,0.,       81P     59
4.,3.,0.,4.,4.,0.,-3.14159265358979,3.14159265358979,0.,0.,0.;        81P     60
126,8,2,0,1,0,0,-3.14159265358979,-3.14159265358979,                  83P     61
-3.14159265358979,-1.5707963267949,-1.5707963267949,0.,0.,            83P     62
1.5707963267949,1.5707963267949,3.14159265358979,                     83P     63
3.14159265358979,3.14159265358979,1.,0.707106781186542,1.,            83P     64
0.707106781186541,1.,0.707106781186541,1.,0.707106781186542,1.,       83P     65
24.,4.,1.5,24.,3.,1.5,23.,3.,1.5,22.,3.,1.5,22.,4.,1.5,22.,5.,        83P     66
1.5,23.,5.,1.5,24.,5.,1.5,24.,4.,1.5,-3.14159265358979,               83P     67
3.14159265358979,0.,0.,0.;                                            83P     68
126,1,1,0,0,1,0,0.,0.,1.5,1.5,1.,1.,24.,4.,1.5,24.,4.,0.,0.,1.5,      85P     69
0.,0.,0.;                                                             85P     70
126,8,2,0,1,0,0,-3.14159265358979,-3.14159265358979,                  87P     71
-3.14159265358979,-1.5707963267949,-1.5707963267949,0.,0.,            87P     72
1.5707963267949,1.5707963267949,3.14159265358979,                     87P     73
3.14159265358979,3.14159265358979,1.,0.707106781186542,1.,            87P     74
0.707106781186541,1.,0.707106781186541,1.,0.707106781186542,1.,       87P     75
24.,4.,0.,24.,5.,0.,23.,5.,0.,22.,5.,0.,22.,4.,0.,22.,3.,0.,23.,      87P     76
3.,0.,24.,3.,0.,24.,4.,0.,-3.14159265358979,3.14159265358979,0.,      87P     77
0.,0.;                                                                87P     78
126,1,1,0,0,1,0,0.,0.,0.6,0.6,1.,1.,26.,0.,1.5,20.,0.,1.5,0.,         89P     79
0.6,0.,0.,0.;                                                         89P     80
126,1,1,0,0,1,0,0.,0.,0.8,0.8,1.,1.,26.,0.,1.5,26.,8.,1.5,0.,         91P     81
0.8,0.,0.,0.;                                                         91P     82
126,1,1,0,0,1,0,-0.6,-0.6,0.,0.,1.,1.,20.,8.,1.5,26.,8.,1.5,          93P     83
-0.6,0.,0.,0.,0.;                                                     93P     84
126,1,1,0,0,1,0,0.,0.,0.8,0.8,1.,1.,20.,0.,1.5,20.,8.,1.5,0.,         95P     85
0.8,0.,0.,0.;                                                         95P     86
126,1,1,0,0,1,0,-0.25,-0.25,0.15,0.15,1.,1.,20.,0.,1.5,20.,0.,        97P     87
5.5,-0.25,0.15,0.,0.,0.;                                              97P     88
126,1,1,0,0,1,0,-0.15,-0.15,0.25,0.25,1.,1.,20.,8.,5.5,20.,8.,        99P     89
1.5,-0.15,0.25,0.,0.,0.;                                              99P     90
126,1,1,0,0,1,0,0.,0.,0.8,0.8,1.,1.,20.,0.,5.5,20.,8.,5.5,0.,        101P     91
0.8,0.,0.,0.;                                                        101P     92
126,1,1,0,0,1,0,0.,0.,1.4,1.4,1.,1.,20.,0.,5.5,6.,0.,5.5,0.,1.4,     103P     93
0.,0.,0.;                                                            103P     94
126,1,1,0,0,1,0,-1.4,-1.4,0.,0.,1.,1.,6.,8.,5.5,20.,8.,5.5,-1.4,     105P     95
0.,0.,0.,0.;                                                         105P     96
126,1,1,0,0,1,0,0.,0.,0.8,0.8,1.,1.,6.,0.,5.5,6.,8.,5.5,0.,0.8,      107P     97
0.,0.,0.;                                                            107P     98
126,1,1,0,0,1,0,-0.15,-0.15,0.25,0.25,1.,1.,6.,0.,5.5,6.,0.,1.5,     109P     99
-0.15,0.25,0.,0.,0.;                                                 109P    100
126,1,1,0,0,1,0,-0.25,-0.25,0.15,0.15,1.,1.,6.,8.,1.5,6.,8.,5.5,     111P    101
-0.25,0.15,0.,0.,0.;                                                 111P    102
126,1,1,0,0,1,0,0.,0.,0.8,0.8,1.,1.,6.,0.,1.5,6.,8.,1.5,0.,0.8,      113P    103
0.,0.,0.;                                                            113P    104
126,1,1,0,0,1,0,0.,0.,0.6,0.6,1.,1.,6.,0.,1.5,0.,0.,1.5,0.,0.6,      115P    105
0.,0.,0.;                                                            115P    106
126,1,1,0,0,1,0,-0.6,-0.6,0.,0.,1.,1.,0.,8.,1.5,6.,8.,1.5,-0.6,      117P    107
0.,0.,0.,0.;                                                         117P    108
126,1,1,0,0,1,0,0.,0.,0.8,0.8,1.,1.,-2.88889491658085D-33,0.,        119P    109
1.5,-2.88889491658085D-33,8.,1.5,0.,0.8,0.,0.,0.;                    119P    110
126,1,1,0,0,1,0,0.,0.,0.15,0.15,1.,1.,-2.88889491658085D-33,0.,      121P    111
1.5,0.,0.,0.,0.,0.15,0.,0.,0.;                                       121P    112
126,1,1,0,0,1,0,-0.15,-0.15,0.,0.,1.,1.,0.,8.,0.,                    123P    113
-2.88889491658085D-33,8.,1.5,-0.15,0.,0.,0.,0.;                      123P    114
126,1,1,0,0,1,0,0.,0.,0.8,0.8,1.,1.,0.,0.,0.,0.,8.,0.,0.,0.8,0.,     125P    115
0.,0.;                                                               125P    116
126,1,1,0,0,1,0,-0.6,-0.6,0.15,0.15,1.,1.,0.,0.,                     127P    117
-3.85185988877447D-32,7.5,0.,0.,-0.6,0.15,0.,0.,0.;                  127P    118
126,1,1,0,0,1,0,-0.15,-0.15,0.6,0.6,1.,1.,7.5,8.,0.,0.,8.,           129P    119
-3.85185988877447D-32,-0.15,0.6,0.,0.,0.;                            129P    120
126,1,1,0,0,1,0,0.,0.,0.8,0.8,1.,1.,7.5,0.,0.,7.5,8.,0.,0.,0.8,      131P    121
0.,0.,0.;                                                            131P    122
126,1,1,0,0,1,0,0.,0.,0.4,0.4,1.,1.,7.5,0.,0.,7.5,0.,4.,0.,0.4,      133P    123
0.,0.,0.;                                                            133P    124
126,1,1,0,0,1,0,-0.4,-0.4,0.,0.,1.,1.,7.5,8.,4.,7.5,8.,0.,-0.4,      135P    125
0.,0.,0.,0.;                                                         135P    126
126,1,1,0,0,1,0,0.,0.,0.8,0.8,1.,1.,7.5,0.,4.,7.5,8.,4.,0.,0.8,      137P    127
0.,0.,0.;                                                            137P    128
126,1,1,0,0,1,0,0.15,0.15,1.25,1.25,1.,1.,7.5,0.,4.,18.5,0.,4.,      139P    129
0.15,1.25,0.,0.,0.;                                                  139P    130
126,1,1,0,0,1,0,-1.25,-1.25,-0.15,-0.15,1.,1.,18.5,8.,4.,7.5,8.,     141P    131
4.,-1.25,-0.15,0.,0.,0.;                                             141P    132
126,1,1,0,0,1,0,0.,0.,0.8,0.8,1.,1.,18.5,0.,4.,18.5,8.,4.,0.,        143P    133
0.8,0.,0.,0.;                                                        143P    134
126,1,1,0,0,1,0,0.,0.,0.4,0.4,1.,1.,18.5,0.,4.,18.5,0.,0.,0.,        145P    135
0.4,0.,0.,0.;                                                        145P    136
126,1,1,0,0,1,0,-0.4,-0.4,0.,0.,1.,1.,18.5,8.,0.,18.5,8.,4.,         147P    137
-0.4,0.,0.,0.,0.;                                                    147P    138
126,1,1,0,0,1,0,0.,0.,0.8,0.8,1.,1.,18.5,0.,6.5252792653637D-17,     149P    139
18.5,8.,6.5252792653637D-17,0.,0.8,0.,0.,0.;                         149P    140
126,1,1,0,0,1,0,-0.15,-0.15,0.6,0.6,1.,1.,18.5,0.,                   151P    141
6.52527926536369D-17,26.,0.,6.52527926536373D-17,-0.15,0.6,0.,       151P    142
0.,0.;                                                               151P    143
126,1,1,0,0,1,0,-0.6,-0.6,0.15,0.15,1.,1.,26.,8.,                    153P    144
6.52527926536373D-17,18.5,8.,6.52527926536369D-17,-0.6,0.15,0.,      153P    145
0.,0.;                                                               153P    146
126,1,1,0,0,1,0,0.,0.,0.8,0.8,1.,1.,26.,0.,6.52527926536373D-17,     155P    147
26.,8.,6.52527926536373D-17,0.,0.8,0.,0.,0.;                         155P    148
126,1,1,0,0,1,0,0.,0.,0.15,0.15,1.,1.,26.,0.,                        157P    149
6.52527926536373D-17,26.,0.,1.5,0.,0.15,0.,0.,0.;                    157P    150
126,1,1,0,0,1,0,-0.15,-0.15,0.,0.,1.,1.,26.,8.,1.5,26.,8.,           159P    151
6.52527926536373D-17,-0.15,0.,0.,0.,0.;                              159P    152
128,1,8,1,2,0,1,0,0,1,0.,0.,1.5,1.5,-3.14159265358979,               161P    153
-3.14159265358979,-3.14159265358979,-1.5707963267949,                161P    154
-1.5707963267949,0.,0.,1.5707963267949,1.5707963267949,              161P    155
3.14159265358979,3.14159265358979,3.14159265358979,1.,1.,            161P    156
0.707106781186548,0.707106781186548,1.,1.,0.707106781186548,         161P    157
0.707106781186548,1.,1.,0.707106781186548,0.707106781186548,1.,      161P    158
1.,0.707106781186548,0.707106781186548,1.,1.,4.,4.,1.5,4.,4.,0.,     161P    159
4.,3.,1.5,4.,3.,0.,3.,3.,1.5,3.,3.,0.,2.,3.,1.5,2.,3.,0.,2.,4.,      161P    160
1.5,2.,4.,0.,2.,5.,1.5,2.,5.,0.,3.,5.,1.5,3.,5.,0.,4.,5.,1.5,4.,     161P    161
5.,0.,4.,4.,1.5,4.,4.,0.,0.,1.5,-3.14159265358979,                   161P    162
3.14159265358979;                                                    161P    163
128,1,8,1,2,0,1,0,0,1,0.,0.,1.5,1.5,-3.14159265358979,               163P    164
-3.14159265358979,-3.14159265358979,-1.5707963267949,                163P    165
-1.5707963267949,0.,0.,1.5707963267949,1.5707963267949,              163P    166
3.14159265358979,3.14159265358979,3.14159265358979,1.,1.,            163P    167
0.707106781186548,0.707106781186548,1.,1.,0.707106781186548,         163P    168
0.707106781186548,1.,1.,0.707106781186548,0.707106781186548,1.,      163P    169
1.,0.707106781186548,0.707106781186548,1.,1.,24.,4.,1.5,24.,4.,      163P    170
0.,24.,3.,1.5,24.,3.,0.,23.,3.,1.5,23.,3.,0.,22.,3.,1.5,22.,3.,      163P    171
0.,22.,4.,1.5,22.,4.,0.,22.,5.,1.5,22.,5.,0.,23.,5.,1.5,23.,5.,      163P    172
0.,24.,5.,1.5,24.,5.,0.,24.,4.,1.5,24.,4.,0.,0.,1.5,                 163P    173
-3.14159265358979,3.14159265358979;                                  163P    174
128,1,1,1,1,0,0,1,0,0,-0.001,-0.001,0.601,0.601,-0.001,-0.001,       165P    175
0.801,0.801,1.,1.,1.,1.,19.99,-0.01,1.5,26.01,-0.01,1.5,19.99,       165P    176
8.01,1.5,26.01,8.01,1.5,-0.001,0.601,-0.001,0.801;                   165P    177
128,1,1,1,1,0,0,1,0,0,-0.001,-0.001,0.401,0.401,-0.001,-0.001,       167P    178
0.801,0.801,1.,1.,1.,1.,20.,-0.01,5.51,20.,-0.01,1.49,20.,8.01,      167P    179
5.51,20.,8.01,1.49,-0.001,0.401,-0.001,0.801;                        167P    180
128,1,1,1,1,0,0,1,0,0,-0.001,-0.001,1.401,1.401,-0.001,-0.001,       169P    181
0.801,0.801,1.,1.,1.,1.,5.99,-0.01,5.5,20.01,-0.01,5.5,5.99,         169P    182
8.01,5.5,20.01,8.01,5.5,-0.001,1.401,-0.001,0.801;                   169P    183
128,1,1,1,1,0,0,1,0,0,-0.001,-0.001,0.401,0.401,-0.001,-0.001,       171P    184
0.801,0.801,1.,1.,1.,1.,6.,-0.01,1.49,6.,-0.01,5.51,6.,8.01,         171P    185
1.49,6.,8.01,5.51,-0.001,0.401,-0.001,0.801;                         171P    186
128,1,1,1,1,0,0,1,0,0,-0.001,-0.001,0.601,0.601,-0.001,-0.001,       173P    187
0.801,0.801,1.,1.,1.,1.,-0.01,-0.01,1.5,6.01,-0.01,1.5,-0.01,        173P    188
8.01,1.5,6.01,8.01,1.5,-0.001,0.601,-0.001,0.801;                    173P    189
128,1,1,1,1,0,0,1,0,0,-0.001,-0.001,0.151,0.151,-0.001,-0.001,       175P    190
0.801,0.801,1.,1.,1.,1.,1.92592994438724D-35,-0.01,-0.01,            175P    191
-2.90815421602473D-33,-0.01,1.51,1.92592994438724D-35,8.01,          175P    192
-0.01,-2.90815421602473D-33,8.01,1.51,-0.001,0.151,-0.001,0.801;     175P    193
128,1,1,1,1,0,0,1,0,0,-0.001,-0.001,0.751,0.751,-0.001,-0.001,       177P    194
0.801,0.801,1.,1.,1.,1.,7.51,-0.01,5.13581318503263D-35,-0.01,       177P    195
-0.01,-3.8569957019595D-32,7.51,8.01,5.13581318503263D-35,-0.01,     177P    196
8.01,-3.8569957019595D-32,-0.001,0.751,-0.001,0.801;                 177P    197
128,1,1,1,1,0,0,1,0,0,-0.001,-0.001,0.401,0.401,-0.001,-0.001,       179P    198
0.801,0.801,1.,1.,1.,1.,7.5,-0.01,4.01,7.5,-0.01,-0.01,7.5,8.01,     179P    199
4.01,7.5,8.01,-0.01,-0.001,0.401,-0.001,0.801;                       179P    200
128,1,1,1,1,0,0,1,0,0,-0.001,-0.001,1.101,1.101,-0.001,-0.001,       181P    201
0.801,0.801,1.,1.,1.,1.,18.51,-0.01,4.,7.49,-0.01,4.,18.51,8.01,     181P    202
4.,7.49,8.01,4.,-0.001,1.101,-0.001,0.801;                           181P    203
128,1,1,1,1,0,0,1,0,0,-0.001,-0.001,0.401,0.401,-0.001,-0.001,       183P    204
0.801,0.801,1.,1.,1.,1.,18.5,-0.01,-0.01,18.5,-0.01,4.01,18.5,       183P    205
8.01,-0.01,18.5,8.01,4.01,-0.001,0.401,-0.001,0.801;                 183P    206
128,1,1,1,1,0,0,1,0,0,-0.001,-0.001,0.751,0.751,-0.001,-0.001,       185P    207
0.801,0.801,1.,1.,1.,1.,26.01,-0.01,6.52527926536373D-17,18.49,      185P    208
-0.01,6.52527926536369D-17,26.01,8.01,6.52527926536373D-17,          185P    209
18.49,8.01,6.52527926536369D-17,-0.001,0.751,-0.001,0.801;           185P    210
128,1,1,1,1,0,0,1,0,0,-0.001,-0.001,0.151,0.151,-0.001,-0.001,       187P    211
0.801,0.801,1.,1.,1.,1.,26.,-0.01,1.51,26.,-0.01,-0.01,26.,8.01,     187P    212
1.51,26.,8.01,-0.01,-0.001,0.151,-0.001,0.801;                       187P    213
128,1,1,1,1,0,0,1,0,0,-0.276,-0.276,0.276,0.276,-1.301,-1.301,       189P    214
1.301,1.301,1.,1.,1.,1.,-0.0099999999999989,8.,-0.01,                189P    215
-0.0099999999999989,8.,5.51,26.01,8.,-0.01,26.01,8.,5.51,-0.276,     189P    216
0.276,-1.301,1.301;                                                  189P    217
128,1,1,1,1,0,0,1,0,0,-1.301,-1.301,1.301,1.301,-0.276,-0.276,       191P    218
0.276,0.276,1.,1.,1.,1.,26.01,0.,5.51,-0.0099999999999989,0.,        191P    219
5.51,26.01,0.,-0.01,-0.0099999999999989,0.,-0.01,-1.301,1.301,       191P    220
-0.276,0.276;                                                        191P    221
502,28,4.,4.,1.5,4.,4.,0.,24.,4.,1.5,24.,4.,0.,26.,0.,1.5,20.,       193P    222
0.,1.5,26.,8.,1.5,20.,8.,1.5,20.,0.,5.5,20.,8.,5.5,6.,0.,5.5,6.,     193P    223
8.,5.5,6.,0.,1.5,6.,8.,1.5,-2.88889491658085D-33,0.,1.5,0.,8.,       193P    224
1.5,0.,0.,0.,0.,8.,0.,7.5,0.,0.,7.5,8.,0.,7.5,0.,4.,7.5,8.,4.,       193P    225
18.5,0.,4.,18.5,8.,4.,18.5,0.,6.5252792653637D-17,18.5,8.,           193P    226
6.5252792653637D-17,26.,0.,6.52527926536373D-17,26.,8.,              193P    227
6.52527926536373D-17;                                                193P    228
504,42,77,193,1,193,1,79,193,1,193,2,81,193,2,193,2,83,193,3,        195P    229
193,3,85,193,3,193,4,87,193,4,193,4,89,193,5,193,6,91,193,5,193,     195P    230
7,93,193,8,193,7,95,193,6,193,8,97,193,6,193,9,99,193,10,193,8,      195P    231
101,193,9,193,10,103,193,9,193,11,105,193,12,193,10,107,193,11,      195P    232
193,12,109,193,11,193,13,111,193,14,193,12,113,193,13,193,14,        195P    233
115,193,13,193,15,117,193,16,193,14,119,193,15,193,16,121,193,       195P    234
15,193,17,123,193,18,193,16,125,193,17,193,18,127,193,17,193,19,     195P    235
129,193,20,193,18,131,193,19,193,20,133,193,19,193,21,135,193,       195P    236
22,193,20,137,193,21,193,22,139,193,21,193,23,141,193,24,193,22,     195P    237
143,193,23,193,24,145,193,23,193,25,147,193,26,193,24,149,193,       195P    238
25,193,26,151,193,25,193,27,153,193,28,193,26,155,193,27,193,28,     195P    239
157,193,27,193,5,159,193,7,193,28;                                   195P    240
406,1,5HBody1;                                                       197P    241
314,62.7450980392157,62.7450980392157,62.7450980392157,13HSteel      199P    242
- Satin;                                                             199P    243
S      1G      3D    200P    243                                        T      1
