                                                                        S      1
,,21HWindow Sill Helper v1,21HWindow Sill Helper v1,7Hunknown,7Hunknown,G      1
32,38,7,99,15,,1.,2,2HMM,1,0.08,15H20220922.115325,0.01,10000.,7HunknownG      2
,7Hunknown,11,0,15H20200426.123413;                                     G      3
     186       1                                                00000000D      1
     186             -55       1       0                               0D      2
     514       2                                                00010000D      3
     514                       1       1                               0D      4
     510       3                                                00010000D      5
     510             -55       1       1                               0D      6
     510       4                                                00010000D      7
     510             -55       1       1                               0D      8
     510       5                                                00010000D      9
     510             -55       1       1                               0D     10
     510       6                                                00010000D     11
     510             -55       1       1                               0D     12
     510       7                                                00010000D     13
     510             -55       1       1                               0D     14
     508       8                                                00010000D     15
     508                       1       1                               0D     16
     508       9                                                00010000D     17
     508                       1       1                               0D     18
     508      10                                                00010000D     19
     508                       1       1                               0D     20
     508      11                                                00010000D     21
     508                       1       1                               0D     22
     508      12                                                00010000D     23
     508                       1       1                               0D     24
     508      13                                                00010000D     25
     508                       1       1                               0D     26
     126      14                                                00010000D     27
     126       0              10       0                               0D     28
     126      24                                                00010000D     29
     126       0              10       0                               0D     30
     126      34                                                00010000D     31
     126       0              10       0                               0D     32
     126      44                                                00010000D     33
     126       0               4       0                               0D     34
     126      48                                                00010000D     35
     126       0              10       0                               0D     36
     126      58                                                00010000D     37
     126       0               2       0                               0D     38
     128      60                                                00010000D     39
     128       0     -55       3       0                               0D     40
     128      63                                                00010000D     41
     128       0     -55       3       0                               0D     42
     128      66                                                00010000D     43
     128       0     -55      18       0                               0D     44
     128      84                                                00010000D     45
     128       0     -55       3       0                               0D     46
     128      87                                                00010000D     47
     128       0     -55      11       0                               0D     48
     502      98                                                00010000D     49
     502                       3       1                               0D     50
     504     101                                                00010001D     51
     504                       2       1                               0D     52
     406     103                                                00000000D     53
     406                       1      15                               0D     54
     314     104                                                00000200D     55
     314                       2       0                               0D     56
186,3,1,0,0,1,53;                                                      1P      1
514,5,5,1,7,1,9,1,11,1,13,1;                                           3P      2
510,39,1,1,15;                                                         5P      3
510,41,1,1,17;                                                         7P      4
510,43,1,1,19;                                                         9P      5
510,45,2,1,21,23;                                                     11P      6
510,47,1,1,25;                                                        13P      7
508,1,0,51,1,0,0;                                                     15P      8
508,1,0,51,2,1,0;                                                     17P      9
508,4,0,51,3,1,0,0,51,4,1,0,0,51,1,1,0,0,51,4,0,0;                    19P     10
508,1,0,51,5,1,0;                                                     21P     11
508,1,0,51,3,0,0;                                                     23P     12
508,4,0,51,5,0,0,0,51,6,1,0,0,51,2,0,0,0,51,6,0,0;                    25P     13
126,8,2,0,1,0,0,-3.14159265358979,-3.14159265358979,                  27P     14
-3.14159265358979,-1.5707963267949,-1.5707963267949,0.,0.,            27P     15
1.5707963267949,1.5707963267949,3.14159265358979,                     27P     16
3.14159265358979,3.14159265358979,1.,0.707106781186548,1.,            27P     17
0.707106781186547,1.,0.707106781186547,1.,0.707106781186548,1.,       27P     18
-5.15,6.30693101560887D-16,0.,-5.15,5.15,0.,                          27P     19
3.15346550780443D-16,5.15,0.,5.15,5.15,0.,5.15,0.,0.,5.15,-5.15,      27P     20
0.,3.15346550780443D-16,-5.15,0.,-5.15,-5.15,0.,-5.15,                27P     21
-6.30693101560887D-16,0.,-3.14159265358979,3.14159265358979,0.,       27P     22
0.,0.;                                                                27P     23
126,8,2,0,1,0,0,-3.14159265358979,-3.14159265358979,                  29P     24
-3.14159265358979,-1.5707963267949,-1.5707963267949,0.,0.,            29P     25
1.5707963267949,1.5707963267949,3.14159265358979,                     29P     26
3.14159265358979,3.14159265358979,1.,0.707106781186548,1.,            29P     27
0.707106781186548,1.,0.707106781186548,1.,0.707106781186548,1.,       29P     28
-7.5,9.18485099360515D-16,-3.,-7.5,7.5,-3.,4.59242549680257D-16,      29P     29
7.5,-3.,7.5,7.5,-3.,7.5,0.,-3.,7.5,-7.5,-3.,                          29P     30
4.59242549680257D-16,-7.5,-3.,-7.5,-7.5,-3.,-7.5,                     29P     31
-9.18485099360515D-16,-3.,-3.14159265358979,3.14159265358979,0.,      29P     32
0.,0.;                                                                29P     33
126,8,2,0,1,0,0,-3.14159265358979,-3.14159265358979,                  31P     34
-3.14159265358979,-1.5707963267949,-1.5707963267949,0.,0.,            31P     35
1.5707963267949,1.5707963267949,3.14159265358979,                     31P     36
3.14159265358979,3.14159265358979,1.,0.707106781186548,1.,            31P     37
0.707106781186547,1.,0.707106781186547,1.,0.707106781186548,1.,       31P     38
-5.95,-7.28664845492675D-16,4.2,-5.95,-5.95,4.2,                      31P     39
3.64332422746338D-16,-5.95,4.2,5.95,-5.95,4.2,5.95,0.,4.2,5.95,       31P     40
5.95,4.2,3.64332422746338D-16,5.95,4.2,-5.95,5.95,4.2,-5.95,          31P     41
7.28664845492675D-16,4.2,-3.14159265358979,3.14159265358979,0.,       31P     42
0.,0.;                                                                31P     43
126,1,1,0,0,1,0,-0.385181231106882,-0.385181231106882,                33P     44
0.385181231106882,0.385181231106882,1.,1.,-5.95,0.,4.2,-5.15,0.,      33P     45
-2.77555756156289D-16,-0.385181231106882,0.385181231106882,0.,        33P     46
0.,0.;                                                                33P     47
126,8,2,0,1,0,0,-3.14159265358979,-3.14159265358979,                  35P     48
-3.14159265358979,-1.5707963267949,-1.5707963267949,0.,0.,            35P     49
1.5707963267949,1.5707963267949,3.14159265358979,                     35P     50
3.14159265358979,3.14159265358979,1.,0.707106781186548,1.,            35P     51
0.707106781186548,1.,0.707106781186548,1.,0.707106781186548,1.,       35P     52
-7.5,-9.18485099360515D-16,4.2,-7.5,-7.5,4.2,                         35P     53
4.59242549680257D-16,-7.5,4.2,7.5,-7.5,4.2,7.5,0.,4.2,7.5,7.5,        35P     54
4.2,4.59242549680257D-16,7.5,4.2,-7.5,7.5,4.2,-7.5,                   35P     55
9.18485099360515D-16,4.2,-3.14159265358979,3.14159265358979,0.,       35P     56
0.,0.;                                                                35P     57
126,1,1,0,0,1,0,-0.56,-0.56,0.4,0.4,1.,1.,-7.5,0.,4.2,-7.5,0.,        37P     58
-3.,-0.56,0.4,0.,0.,0.;                                               37P     59
128,1,1,1,1,0,0,1,0,0,-0.516,-0.516,0.516,0.516,-0.516,-0.516,        39P     60
0.516,0.516,1.,1.,1.,1.,-5.16,-5.16,0.,5.16,-5.16,0.,-5.16,5.16,      39P     61
0.,5.16,5.16,0.,-0.516,0.516,-0.516,0.516;                            39P     62
128,1,1,1,1,0,0,1,0,0,-0.751,-0.751,0.751,0.751,-0.751,-0.751,        41P     63
0.751,0.751,1.,1.,1.,1.,7.51,-7.51,-3.,-7.51,-7.51,-3.,7.51,          41P     64
7.51,-3.,-7.51,7.51,-3.,-0.751,0.751,-0.751,0.751;                    41P     65
128,1,8,1,2,0,1,0,0,1,-0.385181231106882,-0.385181231106882,          43P     66
0.385181231106882,0.385181231106882,-3.14159265358979,                43P     67
-3.14159265358979,-3.14159265358979,-1.5707963267949,                 43P     68
-1.5707963267949,0.,0.,1.5707963267949,1.5707963267949,               43P     69
3.14159265358979,3.14159265358979,3.14159265358979,1.,1.,             43P     70
0.707106781186548,0.707106781186548,1.,1.,0.707106781186548,          43P     71
0.707106781186548,1.,1.,0.707106781186548,0.707106781186548,1.,       43P     72
1.,0.707106781186548,0.707106781186548,1.,1.,-5.15,0.,                43P     73
-2.77555756156289D-16,-5.95,0.,4.2,-5.15,-5.15,                       43P     74
-2.77555756156289D-16,-5.95,-5.95,4.2,0.,-5.15,                       43P     75
-2.77555756156289D-16,0.,-5.95,4.2,5.15,-5.15,                        43P     76
-2.77555756156289D-16,5.95,-5.95,4.2,5.15,0.,                         43P     77
-2.77555756156289D-16,5.95,0.,4.2,5.15,5.15,                          43P     78
-2.77555756156289D-16,5.95,5.95,4.2,0.,5.15,                          43P     79
-2.77555756156289D-16,0.,5.95,4.2,-5.15,5.15,                         43P     80
-2.77555756156289D-16,-5.95,5.95,4.2,-5.15,0.,                        43P     81
-2.77555756156289D-16,-5.95,0.,4.2,-0.385181231106882,                43P     82
0.385181231106882,-3.14159265358979,3.14159265358979;                 43P     83
128,1,1,1,1,0,0,1,0,0,-0.751,-0.751,0.751,0.751,-0.751,-0.751,        45P     84
0.751,0.751,1.,1.,1.,1.,-7.51,-7.51,4.2,7.51,-7.51,4.2,-7.51,         45P     85
7.51,4.2,7.51,7.51,4.2,-0.751,0.751,-0.751,0.751;                     45P     86
128,1,8,1,2,0,1,0,0,1,-0.4,-0.4,0.56,0.56,-3.14159265358979,          47P     87
-3.14159265358979,-3.14159265358979,-1.5707963267949,                 47P     88
-1.5707963267949,0.,0.,1.5707963267949,1.5707963267949,               47P     89
3.14159265358979,3.14159265358979,3.14159265358979,1.,1.,             47P     90
0.707106781186548,0.707106781186548,1.,1.,0.707106781186548,          47P     91
0.707106781186548,1.,1.,0.707106781186548,0.707106781186548,1.,       47P     92
1.,0.707106781186548,0.707106781186548,1.,1.,-7.5,0.,4.2,-7.5,        47P     93
0.,-3.,-7.5,-7.5,4.2,-7.5,-7.5,-3.,0.,-7.5,4.2,0.,-7.5,-3.,7.5,       47P     94
-7.5,4.2,7.5,-7.5,-3.,7.5,0.,4.2,7.5,0.,-3.,7.5,7.5,4.2,7.5,7.5,      47P     95
-3.,0.,7.5,4.2,0.,7.5,-3.,-7.5,7.5,4.2,-7.5,7.5,-3.,-7.5,0.,4.2,      47P     96
-7.5,0.,-3.,-0.4,0.56,-3.14159265358979,3.14159265358979;             47P     97
502,4,-5.15,-6.30693101560887D-16,0.,-7.5,-9.18485099360515D-16,      49P     98
-3.,-5.95,-7.28664845492675D-16,4.2,-7.5,-9.18485099360515D-16,       49P     99
4.2;                                                                  49P    100
504,6,27,49,1,49,1,29,49,2,49,2,31,49,3,49,3,33,49,3,49,1,35,49,      51P    101
4,49,4,37,49,4,49,2;                                                  51P    102
406,1,5HBody1;                                                        53P    103
314,62.7450980392157,62.7450980392157,62.7450980392157,13HSteel       55P    104
- Satin;                                                              55P    105
S      1G      3D     56P    105                                        T      1
