0
SECTION
2
HEADER
9
$INSUNITS
70
4
9
$ACADVER
1
AC1014
9
$HANDSEED
5
FFFF
0
ENDSEC
0
SECTION
2
TABLES
0
TABLE
2
VPORT
5
8
100
AcDbSymbolTable
0
ENDTAB
0
TABLE
2
LTYPE
5
5
100
AcDbSymbolTable
0
LTYPE
5
14
100
AcDbSymbolTableRecord
100
AcDbLinetypeTableRecord
2
BYBLOCK
70
0
0
LTYPE
5
15
100
AcDbSymbolTableRecord
100
AcDbLinetypeTableRecord
2
BYLAYER
70
0
0
ENDTAB
0
TABLE
2
LAYER
5
2
100
AcDbSymbolTable
70
2
0
LAYER
5
50
100
AcDbSymbolTableRecord
100
AcDbLayerTableRecord
2
0
70
0
6
CONTINUOUS
0
ENDTAB
0
TABLE
2
STYLE
5
3
100
AcDbSymbolTable
70
1
0
STYLE
5
11
100
AcDbSymbolTableRecord
100
AcDbTextStyleTableRecord
2
STANDARD
70
0
0
ENDTAB
0
TABLE
2
VIEW
5
6
100
AcDbSymbolTable
70
0
0
ENDTAB
0
TABLE
2
UCS
5
7
100
AcDbSymbolTable
70
0
0
ENDTAB
0
TABLE
2
APPID
5
9
100
AcDbSymbolTable
70
2
0
APPID
5
12
100
AcDbSymbolTableRecord
100
AcDbRegAppTableRecord
2
ACAD
70
0
0
ENDTAB
0
TABLE
2
DIMSTYLE
5
A
100
AcDbSymbolTable
70
1
0
ENDTAB
0
TABLE
2
BLOCK_RECORD
5
1
100
AcDbSymbolTable
70
1
0
BLOCK_RECORD
5
1F
100
AcDbSymbolTableRecord
100
AcDbBlockTableRecord
2
*MODEL_SPACE
0
BLOCK_RECORD
5
1B
100
AcDbSymbolTableRecord
100
AcDbBlockTableRecord
2
*PAPER_SPACE
0
ENDTAB
0
ENDSEC
0
SECTION
2
BLOCKS
0
BLOCK
5
20
100
AcDbEntity
100
AcDbBlockBegin
2
*MODEL_SPACE
0
ENDBLK
5
21
100
AcDbEntity
100
AcDbBlockEnd
0
BLOCK
5
1C
100
AcDbEntity
100
AcDbBlockBegin
2
*PAPER_SPACE
0
ENDBLK
5
1D
100
AcDbEntity
100
AcDbBlockEnd
0
ENDSEC
0
SECTION
2
ENTITIES
0
LINE
5
100
100
AcDbEntity
8
0
100
AcDbLine
10
4.0000000000000036
20
112.30016224205593
30
0
11
4.0000000000000018
21
0.26176948307874426
31
-2.2204460492503131e-15
0
LINE
5
101
100
AcDbEntity
8
0
100
AcDbLine
10
4.0000000000000018
20
0.26176948307874426
30
-2.2204460492503131e-15
11
152
21
0.26176948307873116
31
0
0
LINE
5
102
100
AcDbEntity
8
0
100
AcDbLine
10
152
20
0.26176948307873116
30
0
11
152
21
112.30016224205593
31
0
0
LWPOLYLINE
5
103
100
AcDbEntity
8
0
100
AcDbPolyline
90
4
70
1
43
0.0
10
22
20
20.261769483078744
10
22.000000000000011
20
96.26176948307878
42
0.99999999999999989
10
14.000000000000004
20
96.26176948307878
10
14.000000000000004
20
20.261769483078744
42
0.99999999999999989
0
LINE
5
104
100
AcDbEntity
8
0
100
AcDbLine
10
18.000000000000004
20
20.261769483078744
30
0
11
18.000000000000007
21
96.26176948307878
31
0
0
LWPOLYLINE
5
105
100
AcDbEntity
8
0
100
AcDbPolyline
90
4
70
1
43
0.0
10
34
20
97.261769483078723
10
34
20
20.261769483078716
42
0.99999999999999989
10
42
20
20.261769483078716
10
42
20
97.261769483078723
42
0.99999999999999989
0
LWPOLYLINE
5
106
100
AcDbEntity
8
0
100
AcDbPolyline
90
4
70
1
43
0.0
10
54
20
97.261769483078695
10
54
20
20.261769483078709
42
0.99999999999999989
10
62
20
20.261769483078709
10
62
20
97.261769483078695
42
0.99999999999999989
0
LWPOLYLINE
5
107
100
AcDbEntity
8
0
100
AcDbPolyline
90
4
70
1
43
0.0
10
74.000000000000014
20
97.26176948307868
10
74.000000000000014
20
20.261769483078702
42
0.99999999999999989
10
82.000000000000014
20
20.261769483078702
10
82.000000000000014
20
97.26176948307868
42
0.99999999999999989
0
ELLIPSE
5
108
100
AcDbEntity
8
0
100
AcDbEllipse
10
148
20
112.30016224205593
30
0
11
2.7755575615628918e-16
21
4.0013711699634724
31
0.0
40
0.99965732497555715
41
4.7123889803846932
42
6.1420890371997192
0
LINE
5
109
100
AcDbEntity
8
0
100
AcDbLine
10
148.56251429858014
20
116.26176948307875
30
-2.166726263562875e-34
11
7.4374857014198703
21
116.26176948307878
31
0
0
ELLIPSE
5
110
100
AcDbEntity
8
0
100
AcDbEllipse
10
8
20
112.30016224205593
30
0
11
-6.6613381477509424e-15
21
4.0013711699634733
31
0.0
40
0.99965732497555682
41
0.14109626997986238
42
1.5707963267948895
0
LWPOLYLINE
5
111
100
AcDbEntity
8
0
100
AcDbPolyline
90
4
70
1
43
0.0
10
94
20
97.261769483078666
10
94
20
20.261769483078691
42
0.99999999999999989
10
102.00000000000001
20
20.261769483078691
10
102.00000000000001
20
97.261769483078666
42
0.99999999999999989
0
LWPOLYLINE
5
112
100
AcDbEntity
8
0
100
AcDbPolyline
90
4
70
1
43
0.0
10
114
20
97.261769483078652
10
114
20
20.26176948307868
42
0.99999999999999989
10
122.00000000000001
20
20.26176948307868
10
122.00000000000001
20
97.261769483078652
42
0.99999999999999989
0
LWPOLYLINE
5
113
100
AcDbEntity
8
0
100
AcDbPolyline
90
4
70
1
43
0.0
10
134
20
97.261769483078638
10
134
20
20.261769483078673
42
0.99999999999999989
10
142
20
20.261769483078673
10
142
20
97.261769483078638
42
0.99999999999999989
0
ENDSEC
0
SECTION
2
OBJECTS
0
DICTIONARY
5
C
100
AcDbDictionary
3
ACAD_GROUP
350
D
3
ACAD_MLINESTYLE
350
17
0
DICTIONARY
5
D
100
AcDbDictionary
0
DICTIONARY
5
1A
330
C
100
AcDbDictionary
0
DICTIONARY
5
17
100
AcDbDictionary
0
ENDSEC
0
EOF
