                                                                        S      1
,,15Hdiaper guide v2,15Hdiaper guide v2,7Hunknown,7Hunknown,32,38,7,99, G      1
15,,1.,2,2HMM,1,0.08,15H20220922.114708,0.01,10000.,7Hunknown,7Hunknown,G      2
11,0,15H20210906.073756;                                                G      3
     186       1                                                00000000D      1
     186            -135       1       0                               0D      2
     514       2                                                00010000D      3
     514                       1       1                               0D      4
     510       3                                                00010000D      5
     510            -135       1       1                               0D      6
     510       4                                                00010000D      7
     510            -135       1       1                               0D      8
     510       5                                                00010000D      9
     510            -135       1       1                               0D     10
     510       6                                                00010000D     11
     510            -135       1       1                               0D     12
     510       7                                                00010000D     13
     510            -135       1       1                               0D     14
     510       8                                                00010000D     15
     510            -135       1       1                               0D     16
     510       9                                                00010000D     17
     510            -135       1       1                               0D     18
     510      10                                                00010000D     19
     510            -135       1       1                               0D     20
     510      11                                                00010000D     21
     510            -135       1       1                               0D     22
     510      12                                                00010000D     23
     510            -135       1       1                               0D     24
     510      13                                                00010000D     25
     510            -135       1       1                               0D     26
     508      14                                                00010000D     27
     508                       1       1                               0D     28
     508      15                                                00010000D     29
     508                       1       1                               0D     30
     508      16                                                00010000D     31
     508                       2       1                               0D     32
     508      18                                                00010000D     33
     508                       1       1                               0D     34
     508      19                                                00010000D     35
     508                       1       1                               0D     36
     508      20                                                00010000D     37
     508                       1       1                               0D     38
     508      21                                                00010000D     39
     508                       1       1                               0D     40
     508      22                                                00010000D     41
     508                       1       1                               0D     42
     508      23                                                00010000D     43
     508                       1       1                               0D     44
     508      24                                                00010000D     45
     508                       1       1                               0D     46
     508      25                                                00010000D     47
     508                       2       1                               0D     48
     508      27                                                00010000D     49
     508                       1       1                               0D     50
     508      28                                                00010000D     51
     508                       1       1                               0D     52
     126      29                                                00010000D     53
     126       0               5       0                               0D     54
     126      34                                                00010000D     55
     126       0               3       0                               0D     56
     126      37                                                00010000D     57
     126       0               5       0                               0D     58
     126      42                                                00010000D     59
     126       0               3       0                               0D     60
     126      45                                                00010000D     61
     126       0               2       0                               0D     62
     126      47                                                00010000D     63
     126       0               3       0                               0D     64
     126      50                                                00010000D     65
     126       0               2       0                               0D     66
     126      52                                                00010000D     67
     126       0               2       0                               0D     68
     126      54                                                00010000D     69
     126       0               2       0                               0D     70
     126      56                                                00010000D     71
     126       0               2       0                               0D     72
     126      58                                                00010000D     73
     126       0               2       0                               0D     74
     126      60                                                00010000D     75
     126       0               2       0                               0D     76
     126      62                                                00010000D     77
     126       0               4       0                               0D     78
     126      66                                                00010000D     79
     126       0               3       0                               0D     80
     126      69                                                00010000D     81
     126       0               4       0                               0D     82
     126      73                                                00010000D     83
     126       0               3       0                               0D     84
     126      76                                                00010000D     85
     126       0               2       0                               0D     86
     126      78                                                00010000D     87
     126       0              11       0                               0D     88
     126      89                                                00010000D     89
     126       0               3       0                               0D     90
     126      92                                                00010000D     91
     126       0               2       0                               0D     92
     126      94                                                00010000D     93
     126       0               3       0                               0D     94
     126      97                                                00010000D     95
     126       0               3       0                               0D     96
     126     100                                                00010000D     97
     126       0               2       0                               0D     98
     126     102                                                00010000D     99
     126       0               3       0                               0D    100
     126     105                                                00010000D    101
     126       0              11       0                               0D    102
     126     116                                                00010000D    103
     126       0               2       0                               0D    104
     126     118                                                00010000D    105
     126       0               3       0                               0D    106
     128     121                                                00010000D    107
     128       0    -135       9       0                               0D    108
     128     130                                                00010000D    109
     128       0    -135       4       0                               0D    110
     128     134                                                00010000D    111
     128       0    -135       3       0                               0D    112
     128     137                                                00010000D    113
     128       0    -135       7       0                               0D    114
     128     144                                                00010000D    115
     128       0    -135       5       0                               0D    116
     128     149                                                00010000D    117
     128       0    -135       4       0                               0D    118
     128     153                                                00010000D    119
     128       0    -135       5       0                               0D    120
     128     158                                                00010000D    121
     128       0    -135      17       0                               0D    122
     128     175                                                00010000D    123
     128       0    -135       4       0                               0D    124
     128     179                                                00010000D    125
     128       0    -135       3       0                               0D    126
     128     182                                                00010000D    127
     128       0    -135       5       0                               0D    128
     502     187                                                00010000D    129
     502                       5       1                               0D    130
     504     192                                                00010001D    131
     504                       8       1                               0D    132
     406     200                                                00000000D    133
     406                       1      15                               0D    134
     314     201                                                00000200D    135
     314                       2       0                               0D    136
186,3,1,0,0,1,133;                                                     1P      1
514,11,5,1,7,1,9,1,11,1,13,1,15,1,17,1,19,1,21,1,23,1,25,1;            3P      2
510,107,1,1,27;                                                        5P      3
510,109,1,1,29;                                                        7P      4
510,111,1,1,31;                                                        9P      5
510,113,1,1,33;                                                       11P      6
510,115,2,1,35,37;                                                    13P      7
510,117,1,1,39;                                                       15P      8
510,119,1,1,41;                                                       17P      9
510,121,1,1,43;                                                       19P     10
510,123,1,1,45;                                                       21P     11
510,125,1,1,47;                                                       23P     12
510,127,2,1,49,51;                                                    25P     13
508,4,0,131,1,1,0,0,131,2,1,0,0,131,3,1,0,0,131,4,1,0;                27P     14
508,4,0,131,2,0,0,0,131,5,1,0,0,131,6,0,0,0,131,7,0,0;                29P     15
508,8,0,131,1,0,0,0,131,8,1,0,0,131,9,1,0,0,131,10,0,0,0,131,11,      31P     16
1,0,0,131,12,0,0,0,131,13,0,0,0,131,5,0,0;                            31P     17
508,4,0,131,13,1,0,0,131,14,1,0,0,131,15,1,0,0,131,6,1,0;             33P     18
508,4,0,131,14,0,0,0,131,12,1,0,0,131,16,1,0,0,131,17,1,0;            35P     19
508,1,0,131,18,1,0;                                                   37P     20
508,4,0,131,19,0,0,0,131,20,1,0,0,131,21,0,0,0,131,9,0,0;             39P     21
508,4,0,131,22,1,0,0,131,10,1,0,0,131,21,1,0,0,131,23,1,0;            41P     22
508,4,0,131,18,0,0,0,131,24,1,0,0,131,25,1,0,0,131,24,0,0;            43P     23
508,4,0,131,26,1,0,0,131,16,0,0,0,131,11,0,0,0,131,22,0,0;            45P     24
508,8,0,131,3,0,0,0,131,7,1,0,0,131,15,0,0,0,131,17,0,0,0,131,        47P     25
26,0,0,0,131,23,0,0,0,131,20,0,0,0,131,27,1,0;                        47P     26
508,4,0,131,4,0,0,0,131,27,0,0,0,131,19,1,0,0,131,8,0,0;              49P     27
508,1,0,131,25,0,0;                                                   51P     28
126,2,2,0,0,0,0,-0.785398163397448,-0.785398163397448,                53P     29
-0.785398163397448,0.785398163397448,0.785398163397448,               53P     30
0.785398163397448,1.,0.707106781186546,1.,0.,11.5,                    53P     31
5.55111512312578D-16,0.,15.,5.55111512312578D-16,0.,15.,3.5,          53P     32
-0.785398163397448,0.785398163397448,0.,0.,0.;                        53P     33
126,1,1,0,0,1,0,-2.25000001117587,-2.25000001117587,                  55P     34
0.749999988824129,0.749999988824129,1.,1.,0.,15.,3.5,30.,15.,         55P     35
3.5,-2.25000001117587,0.749999988824129,0.,0.,0.;                     55P     36
126,2,2,0,0,0,0,-0.785398163397448,-0.785398163397448,                57P     37
-0.785398163397448,0.785398163397448,0.785398163397448,               57P     38
0.785398163397448,1.,0.707106781186546,1.,30.,15.,3.5,30.,15.,        57P     39
5.55111512312578D-16,30.,11.5,5.55111512312578D-16,                   57P     40
-0.785398163397448,0.785398163397448,0.,0.,0.;                        57P     41
126,1,1,0,0,1,0,-0.749999988824129,-0.749999988824129,                59P     42
2.25000001117587,2.25000001117587,1.,1.,30.,11.5,0.,0.,11.5,0.,       59P     43
-0.749999988824129,2.25000001117587,0.,0.,0.;                         59P     44
126,1,1,0,0,1,0,0.35,0.35,0.65,0.65,1.,1.,0.,15.,3.5,0.,15.,6.5,      61P     45
0.35,0.65,0.,0.,0.;                                                   61P     46
126,1,1,0,0,1,0,-0.749999988824129,-0.749999988824129,                63P     47
2.25000001117587,2.25000001117587,1.,1.,30.,15.,6.5,0.,15.,6.5,       63P     48
-0.749999988824129,2.25000001117587,0.,0.,0.;                         63P     49
126,1,1,0,0,1,0,0.35,0.35,0.65,0.65,1.,1.,30.,15.,3.5,30.,15.,        65P     50
6.5,0.35,0.65,0.,0.,0.;                                               65P     51
126,1,1,0,0,1,0,0.35,0.35,1.5,1.5,1.,1.,0.,11.5,0.,0.,0.,0.,          67P     52
0.35,1.5,0.,0.,0.;                                                    67P     53
126,1,1,0,0,1,0,0.,0.,1.5,1.5,1.,1.,0.,0.,0.,0.,0.,-15.,0.,1.5,       69P     54
0.,0.,0.;                                                             69P     55
126,1,1,0,0,1,0,0.,0.,0.5,0.5,1.,1.,0.,-5.,-15.,0.,0.,-15.,0.,        71P     56
0.5,0.,0.,0.;                                                         71P     57
126,1,1,0,0,1,0,-1.5,-1.5,1.,1.,1.,1.,0.,-5.,-15.,0.,-5.,10.,         73P     58
-1.5,1.,0.,0.,0.;                                                     73P     59
126,1,1,0,0,1,0,0.35,0.35,2.,2.,1.,1.,0.,11.5,10.,0.,-5.,10.,         75P     60
0.35,2.,0.,0.,0.;                                                     75P     61
126,2,2,0,0,0,0,-0.785398163397448,-0.785398163397448,                77P     62
-0.785398163397448,0.785398163397448,0.785398163397448,               77P     63
0.785398163397448,1.,0.707106781186547,1.,0.,15.,6.5,0.,15.,10.,      77P     64
0.,11.5,10.,-0.785398163397448,0.785398163397448,0.,0.,0.;            77P     65
126,1,1,0,0,1,0,-2.25000001117587,-2.25000001117587,                  79P     66
0.749999988824129,0.749999988824129,1.,1.,0.,11.5,10.,30.,11.5,       79P     67
10.,-2.25000001117587,0.749999988824129,0.,0.,0.;                     79P     68
126,2,2,0,0,0,0,-0.785398163397448,-0.785398163397448,                81P     69
-0.785398163397448,0.785398163397448,0.785398163397448,               81P     70
0.785398163397448,1.,0.707106781186547,1.,30.,11.5,10.,30.,15.,       81P     71
10.,30.,15.,6.5,-0.785398163397448,0.785398163397448,0.,0.,0.;        81P     72
126,1,1,0,0,1,0,-3.00000004470348,-3.00000004470348,0.,0.,1.,1.,      83P     73
0.,-5.,10.,30.0000004470348,-5.,10.,-3.00000004470348,0.,0.,0.,       83P     74
0.;                                                                   83P     75
126,1,1,0,0,1,0,-0.5,-0.5,1.15,1.15,1.,1.,30.,-5.,10.,30.,11.5,       85P     76
10.,-0.5,1.15,0.,0.,0.;                                               85P     77
126,8,2,0,1,0,0,-3.14159265358979,-3.14159265358979,                  87P     78
-3.14159265358979,-1.5707963267949,-1.5707963267949,0.,0.,            87P     79
1.5707963267949,1.5707963267949,3.14159265358979,                     87P     80
3.14159265358979,3.14159265358979,1.,0.707106781186549,1.,            87P     81
0.707106781186549,1.,0.707106781186549,1.,0.707106781186549,1.,       87P     82
14.0000002235174,7.5,10.,14.0000002235174,8.5,10.,                    87P     83
15.0000002235174,8.5,10.,16.0000002235174,8.5,10.,                    87P     84
16.0000002235174,7.5,10.,16.0000002235174,6.5,10.,                    87P     85
15.0000002235174,6.5,10.,14.0000002235174,6.5,10.,                    87P     86
14.0000002235174,7.5,10.,-3.14159265358979,3.14159265358979,0.,       87P     87
0.,0.;                                                                87P     88
126,1,1,0,0,1,0,-2.25000003352761,-2.25000003352761,                  89P     89
0.750000011175871,0.750000011175871,1.,1.,30.0000004470348,0.,        89P     90
0.,0.,0.,0.,-2.25000003352761,0.750000011175871,0.,0.,0.;             89P     91
126,1,1,0,0,1,0,0.,0.,1.5,1.5,1.,1.,30.0000004470348,0.,0.,           91P     92
30.0000004470348,0.,-15.,0.,1.5,0.,0.,0.;                             91P     93
126,1,1,0,0,1,0,0.,0.,3.00000004470348,3.00000004470348,1.,1.,        93P     94
0.,0.,-15.,30.0000004470348,0.,-15.,0.,3.00000004470348,0.,0.,        93P     95
0.;                                                                   93P     96
126,1,1,0,0,1,0,0.,0.,3.00000004470348,3.00000004470348,1.,1.,        95P     97
30.0000004470348,-5.,-15.,0.,-5.,-15.,0.,3.00000004470348,0.,0.,      95P     98
0.;                                                                   95P     99
126,1,1,0,0,1,0,0.,0.,0.5,0.5,1.,1.,30.0000004470348,0.,-15.,         97P    100
30.0000004470348,-5.,-15.,0.,0.5,0.,0.,0.;                            97P    101
126,1,1,0,0,1,0,-9.99999999999999,-9.99999999999999,0.,0.,1.,1.,      99P    102
14.0000002235174,7.5,10.,14.0000002235174,7.5,0.,                     99P    103
-9.99999999999999,0.,0.,0.,0.;                                        99P    104
126,8,2,0,1,0,0,-3.14159265358979,-3.14159265358979,                 101P    105
-3.14159265358979,-1.5707963267949,-1.5707963267949,0.,0.,           101P    106
1.5707963267949,1.5707963267949,3.14159265358979,                    101P    107
3.14159265358979,3.14159265358979,1.,0.707106781186549,1.,           101P    108
0.707106781186549,1.,0.707106781186549,1.,0.707106781186549,1.,      101P    109
14.0000002235174,7.5,0.,14.0000002235174,8.5,0.,                     101P    110
15.0000002235174,8.5,0.,16.0000002235174,8.5,0.,                     101P    111
16.0000002235174,7.5,0.,16.0000002235174,6.5,0.,                     101P    112
15.0000002235174,6.5,0.,14.0000002235174,6.5,0.,                     101P    113
14.0000002235174,7.5,0.,-3.14159265358979,3.14159265358979,0.,       101P    114
0.,0.;                                                               101P    115
126,1,1,0,0,1,0,-1.5,-1.5,1.,1.,1.,1.,30.0000004470348,-5.,-15.,     103P    116
30.0000004470348,-5.,10.,-1.5,1.,0.,0.,0.;                           103P    117
126,1,1,0,0,1,0,6.16297582203915D-33,6.16297582203915D-33,1.15,      105P    118
1.15,1.,1.,30.,0.,0.,30.,11.5,0.,6.16297582203915D-33,1.15,0.,       105P    119
0.,0.;                                                               105P    120
128,1,2,1,2,0,0,0,0,0,-2.14285711092608,-2.14285711092608,           107P    121
6.42857146050249,6.42857146050249,-0.785398163397448,                107P    122
-0.785398163397448,-0.785398163397448,0.785398163397448,             107P    123
0.785398163397448,0.785398163397448,1.,1.,0.707106781186548,         107P    124
0.707106781186548,1.,1.,0.,15.,3.5,30.,15.,3.5,0.,15.,               107P    125
1.11022302462516D-15,30.,15.,1.11022302462516D-15,0.,11.5,           107P    126
8.32667268468867D-16,30.,11.5,8.32667268468867D-16,                  107P    127
-2.14285711092608,6.42857146050249,-0.785398163397448,               107P    128
0.785398163397448;                                                   107P    129
128,1,1,1,1,0,0,1,0,0,-0.001,-0.001,3.001,3.001,0.349,0.349,         109P    130
0.651,0.651,1.,1.,1.,1.,30.01,15.,3.49,-0.0099999999999989,15.,      109P    131
3.49,30.01,15.,6.51,-0.0099999999999989,15.,6.51,-0.001,3.001,       109P    132
0.349,0.651;                                                         109P    133
128,1,1,1,1,0,0,1,0,0,-0.001,-0.001,2.001,2.001,-1.501,-1.501,       111P    134
1.001,1.001,1.,1.,1.,1.,0.,15.01,-15.01,0.,-5.01,-15.01,0.,          111P    135
15.01,10.01,0.,-5.01,10.01,-0.001,2.001,-1.501,1.001;                111P    136
128,1,2,1,2,0,0,0,0,0,-2.14285711092608,-2.14285711092608,           113P    137
6.42857146050249,6.42857146050249,-0.785398163397448,                113P    138
-0.785398163397448,-0.785398163397448,0.785398163397448,             113P    139
0.785398163397448,0.785398163397448,1.,1.,0.707106781186548,         113P    140
0.707106781186548,1.,1.,0.,11.5,10.,30.,11.5,10.,0.,15.,10.,30.,     113P    141
15.,10.,0.,15.,6.5,30.,15.,6.5,-2.14285711092608,                    113P    142
6.42857146050249,-0.785398163397448,0.785398163397448;               113P    143
128,1,1,1,1,0,0,1,0,0,-1.50100002235174,-1.50100002235174,           115P    144
1.50100002235174,1.50100002235174,-1.001,-1.001,0.651,0.651,1.,      115P    145
1.,1.,1.,-0.0099999999999989,-5.01,10.,30.0100004470348,-5.01,       115P    146
10.,-0.0099999999999989,11.51,10.,30.0100004470348,11.51,10.,        115P    147
-1.50100002235174,1.50100002235174,-1.001,0.651;                     115P    148
128,1,1,1,1,0,0,1,0,0,-0.001,-0.001,3.00100004470348,                117P    149
3.00100004470348,-0.001,-0.001,1.501,1.501,1.,1.,1.,1.,-0.01,0.,     117P    150
0.01,30.0100004470348,0.,0.01,-0.01,0.,-15.01,30.0100004470348,      117P    151
0.,-15.01,-0.001,3.00100004470348,-0.001,1.501;                      117P    152
128,1,1,1,1,0,0,1,0,0,-1.50100002235174,-1.50100002235174,           119P    153
1.50100002235174,1.50100002235174,-0.251,-0.251,0.251,0.251,1.,      119P    154
1.,1.,1.,30.0100004470348,-5.01,-15.,-0.0099999999999989,-5.01,      119P    155
-15.,30.0100004470348,0.01,-15.,-0.0099999999999989,0.01,-15.,       119P    156
-1.50100002235174,1.50100002235174,-0.251,0.251;                     119P    157
128,1,8,1,2,0,1,0,0,1,0.,0.,9.99999999999999,9.99999999999999,       121P    158
-3.14159265358979,-3.14159265358979,-3.14159265358979,               121P    159
-1.5707963267949,-1.5707963267949,0.,0.,1.5707963267949,             121P    160
1.5707963267949,3.14159265358979,3.14159265358979,                   121P    161
3.14159265358979,1.,1.,0.707106781186548,0.707106781186548,1.,       121P    162
1.,0.707106781186548,0.707106781186548,1.,1.,0.707106781186548,      121P    163
0.707106781186548,1.,1.,0.707106781186548,0.707106781186548,1.,      121P    164
1.,14.0000002235174,7.5,0.,14.0000002235174,7.5,10.,                 121P    165
14.0000002235174,6.5,0.,14.0000002235174,6.5,10.,                    121P    166
15.0000002235174,6.5,0.,15.0000002235174,6.5,10.,                    121P    167
16.0000002235174,6.5,0.,16.0000002235174,6.5,10.,                    121P    168
16.0000002235174,7.5,0.,16.0000002235174,7.5,10.,                    121P    169
16.0000002235174,8.5,0.,16.0000002235174,8.5,10.,                    121P    170
15.0000002235174,8.5,0.,15.0000002235174,8.5,10.,                    121P    171
14.0000002235174,8.5,0.,14.0000002235174,8.5,10.,                    121P    172
14.0000002235174,7.5,0.,14.0000002235174,7.5,10.,0.,                 121P    173
9.99999999999999,-3.14159265358979,3.14159265358979;                 121P    174
128,1,1,1,1,0,0,1,0,0,-0.001,-0.001,3.00100004470348,                123P    175
3.00100004470348,-1.501,-1.501,1.001,1.001,1.,1.,1.,1.,-0.01,        123P    176
-5.,-15.01,30.0100004470348,-5.,-15.01,-0.01,-5.,10.01,              123P    177
30.0100004470348,-5.,10.01,-0.001,3.00100004470348,-1.501,1.001;     123P    178
128,1,1,1,1,0,0,1,0,0,-0.001,-0.001,2.001,2.001,-1.501,-1.501,       125P    179
1.001,1.001,1.,1.,1.,1.,30.,-5.01,-15.01,30.,15.01,-15.01,30.,       125P    180
-5.01,10.01,30.,15.01,10.01,-0.001,2.001,-1.501,1.001;               125P    181
128,1,1,1,1,0,0,1,0,0,-1.50100002235174,-1.50100002235174,           127P    182
1.50100002235174,1.50100002235174,-0.501,-0.501,0.651,0.651,1.,      127P    183
1.,1.,1.,30.0100004470348,-0.01,0.,-0.0099999999999989,-0.01,0.,     127P    184
30.0100004470348,11.51,0.,-0.0099999999999989,11.51,0.,              127P    185
-1.50100002235174,1.50100002235174,-0.501,0.651;                     127P    186
502,18,0.,11.5,0.,0.,15.,3.5,30.,15.,3.5,30.,11.5,0.,0.,15.,6.5,     129P    187
30.,15.,6.5,0.,0.,0.,0.,0.,-15.,0.,-5.,-15.,0.,-5.,10.,0.,11.5,      129P    188
10.,30.,11.5,10.,30.0000004470348,-5.,10.,14.0000002235174,7.5,      129P    189
10.,30.0000004470348,0.,0.,30.0000004470348,0.,-15.,                 129P    190
30.0000004470348,-5.,-15.,14.0000002235174,7.5,0.;                   129P    191
504,27,53,129,1,129,2,55,129,2,129,3,57,129,3,129,4,59,129,4,        131P    192
129,1,61,129,2,129,5,63,129,6,129,5,65,129,3,129,6,67,129,1,129,     131P    193
7,69,129,7,129,8,71,129,9,129,8,73,129,9,129,10,75,129,11,129,       131P    194
10,77,129,5,129,11,79,129,11,129,12,81,129,12,129,6,83,129,10,       131P    195
129,13,85,129,13,129,12,87,129,14,129,14,89,129,15,129,7,91,129,     131P    196
15,129,16,93,129,8,129,16,95,129,17,129,9,97,129,16,129,17,99,       131P    197
129,14,129,18,101,129,18,129,18,103,129,17,129,13,105,129,15,        131P    198
129,4;                                                               131P    199
406,1,5HBody1;                                                       133P    200
314,62.7450980392157,62.7450980392157,62.7450980392157,13HSteel      135P    201
- Satin;                                                             135P    202
S      1G      3D    136P    202                                        T      1
