0
SECTION
2
HEADER
9
$INSUNITS
70
4
9
$ACADVER
1
AC1014
9
$HANDSEED
5
FFFF
0
ENDSEC
0
SECTION
2
TABLES
0
TABLE
2
VPORT
5
8
100
AcDbSymbolTable
0
ENDTAB
0
TABLE
2
LTYPE
5
5
100
AcDbSymbolTable
0
LTYPE
5
14
100
AcDbSymbolTableRecord
100
AcDbLinetypeTableRecord
2
BYBLOCK
70
0
0
LTYPE
5
15
100
AcDbSymbolTableRecord
100
AcDbLinetypeTableRecord
2
BYLAYER
70
0
0
ENDTAB
0
TABLE
2
LAYER
5
2
100
AcDbSymbolTable
70
2
0
LAYER
5
50
100
AcDbSymbolTableRecord
100
AcDbLayerTableRecord
2
0
70
0
6
CONTINUOUS
0
ENDTAB
0
TABLE
2
STYLE
5
3
100
AcDbSymbolTable
70
1
0
STYLE
5
11
100
AcDbSymbolTableRecord
100
AcDbTextStyleTableRecord
2
STANDARD
70
0
0
ENDTAB
0
TABLE
2
VIEW
5
6
100
AcDbSymbolTable
70
0
0
ENDTAB
0
TABLE
2
UCS
5
7
100
AcDbSymbolTable
70
0
0
ENDTAB
0
TABLE
2
APPID
5
9
100
AcDbSymbolTable
70
2
0
APPID
5
12
100
AcDbSymbolTableRecord
100
AcDbRegAppTableRecord
2
ACAD
70
0
0
ENDTAB
0
TABLE
2
DIMSTYLE
5
A
100
AcDbSymbolTable
70
1
0
ENDTAB
0
TABLE
2
BLOCK_RECORD
5
1
100
AcDbSymbolTable
70
1
0
BLOCK_RECORD
5
1F
100
AcDbSymbolTableRecord
100
AcDbBlockTableRecord
2
*MODEL_SPACE
0
BLOCK_RECORD
5
1B
100
AcDbSymbolTableRecord
100
AcDbBlockTableRecord
2
*PAPER_SPACE
0
ENDTAB
0
ENDSEC
0
SECTION
2
BLOCKS
0
BLOCK
5
20
100
AcDbEntity
100
AcDbBlockBegin
2
*MODEL_SPACE
0
ENDBLK
5
21
100
AcDbEntity
100
AcDbBlockEnd
0
BLOCK
5
1C
100
AcDbEntity
100
AcDbBlockBegin
2
*PAPER_SPACE
0
ENDBLK
5
1D
100
AcDbEntity
100
AcDbBlockEnd
0
ENDSEC
0
SECTION
2
ENTITIES
0
LWPOLYLINE
5
100
100
AcDbEntity
8
0
100
AcDbPolyline
90
4
70
1
43
0.0
10
0
20
0
10
45
20
-6.1629758220391547e-32
10
45
20
40
10
-6.1629758220391547e-32
20
40
0
CIRCLE
5
101
100
AcDbEntity
8
0
100
AcDbCircle
10
5
20
5
30
0
40
1.5000000000000009
210
0
220
0
230
1
0
CIRCLE
5
102
100
AcDbEntity
8
0
100
AcDbCircle
10
40
20
5
30
0
40
1.5000000000000009
210
0
220
0
230
1
0
CIRCLE
5
103
100
AcDbEntity
8
0
100
AcDbCircle
10
22.5
20
35
30
0
40
1.5000000000000009
210
0
220
0
230
1
0
LWPOLYLINE
5
104
100
AcDbEntity
8
0
100
AcDbPolyline
90
4
70
1
43
0.0
10
9
20
0.99999999999999922
10
1.0000000000000007
20
0.99999999999999933
10
0.99999999999999989
20
9
10
9
20
9
0
LINE
5
105
100
AcDbEntity
8
0
100
AcDbLine
10
9
20
0.99999999999999922
30
0
11
0.99999999999999989
21
9
31
0
0
LINE
5
106
100
AcDbEntity
8
0
100
AcDbLine
10
1.0000000000000007
20
0.99999999999999933
30
0
11
9
21
9
31
0
0
LWPOLYLINE
5
107
100
AcDbEntity
8
0
100
AcDbPolyline
90
4
70
1
43
0.0
10
44
20
0.99999999999999978
10
36
20
0.99999999999999978
10
36
20
9
10
44
20
9
0
LINE
5
108
100
AcDbEntity
8
0
100
AcDbLine
10
44
20
0.99999999999999978
30
0
11
36
21
9
31
0
0
LINE
5
109
100
AcDbEntity
8
0
100
AcDbLine
10
36
20
0.99999999999999978
30
0
11
44
21
9
31
0
0
LWPOLYLINE
5
110
100
AcDbEntity
8
0
100
AcDbPolyline
90
4
70
1
43
0.0
10
26.5
20
31
10
18.5
20
31
10
18.5
20
39
10
26.5
20
39
0
LINE
5
111
100
AcDbEntity
8
0
100
AcDbLine
10
26.5
20
31
30
0
11
18.5
21
39
31
0
0
LINE
5
112
100
AcDbEntity
8
0
100
AcDbLine
10
18.5
20
31
30
0
11
26.5
21
39
31
0
0
LWPOLYLINE
5
113
100
AcDbEntity
8
0
100
AcDbPolyline
90
6
70
1
43
0.0
10
5.0000000000000018
20
1.9977786002139459
10
7.6000000000000014
20
3.4988893001069741
10
7.6000000000000014
20
6.5011106998930268
10
5
20
8.0022213997860554
10
2.399999999999999
20
6.5011106998930268
10
2.3999999999999986
20
3.4988893001069732
0
LWPOLYLINE
5
114
100
AcDbEntity
8
0
100
AcDbPolyline
90
6
70
1
43
0.0
10
37.400000000000006
20
3.4988893001069732
10
40
20
1.9977786002139508
10
42.599999999999994
20
3.4988893001069776
10
42.599999999999994
20
6.5011106998930357
10
40
20
8.002221399786059
10
37.399999999999999
20
6.5011106998930268
0
LWPOLYLINE
5
115
100
AcDbEntity
8
0
100
AcDbPolyline
90
6
70
1
43
0.0
10
24.001110699893033
20
32.400000000000006
10
25.502221399786059
20
35
10
24.001110699893033
20
37.600000000000009
10
20.998889300106981
20
37.600000000000009
10
19.497778600213952
20
35.000000000000007
10
20.998889300106978
20
32.400000000000006
0
ENDSEC
0
SECTION
2
OBJECTS
0
DICTIONARY
5
C
100
AcDbDictionary
3
ACAD_GROUP
350
D
3
ACAD_MLINESTYLE
350
17
0
DICTIONARY
5
D
100
AcDbDictionary
0
DICTIONARY
5
1A
330
C
100
AcDbDictionary
0
DICTIONARY
5
17
100
AcDbDictionary
0
ENDSEC
0
EOF
