0
SECTION
2
HEADER
9
$INSUNITS
70
4
9
$ACADVER
1
AC1014
9
$HANDSEED
5
FFFF
0
ENDSEC
0
SECTION
2
TABLES
0
TABLE
2
VPORT
5
8
100
AcDbSymbolTable
0
ENDTAB
0
TABLE
2
LTYPE
5
5
100
AcDbSymbolTable
0
LTYPE
5
14
100
AcDbSymbolTableRecord
100
AcDbLinetypeTableRecord
2
BYBLOCK
70
0
0
LTYPE
5
15
100
AcDbSymbolTableRecord
100
AcDbLinetypeTableRecord
2
BYLAYER
70
0
0
ENDTAB
0
TABLE
2
LAYER
5
2
100
AcDbSymbolTable
70
2
0
LAYER
5
50
100
AcDbSymbolTableRecord
100
AcDbLayerTableRecord
2
0
70
0
6
CONTINUOUS
0
ENDTAB
0
TABLE
2
STYLE
5
3
100
AcDbSymbolTable
70
1
0
STYLE
5
11
100
AcDbSymbolTableRecord
100
AcDbTextStyleTableRecord
2
STANDARD
70
0
0
ENDTAB
0
TABLE
2
VIEW
5
6
100
AcDbSymbolTable
70
0
0
ENDTAB
0
TABLE
2
UCS
5
7
100
AcDbSymbolTable
70
0
0
ENDTAB
0
TABLE
2
APPID
5
9
100
AcDbSymbolTable
70
2
0
APPID
5
12
100
AcDbSymbolTableRecord
100
AcDbRegAppTableRecord
2
ACAD
70
0
0
ENDTAB
0
TABLE
2
DIMSTYLE
5
A
100
AcDbSymbolTable
70
1
0
ENDTAB
0
TABLE
2
BLOCK_RECORD
5
1
100
AcDbSymbolTable
70
1
0
BLOCK_RECORD
5
1F
100
AcDbSymbolTableRecord
100
AcDbBlockTableRecord
2
*MODEL_SPACE
0
BLOCK_RECORD
5
1B
100
AcDbSymbolTableRecord
100
AcDbBlockTableRecord
2
*PAPER_SPACE
0
ENDTAB
0
ENDSEC
0
SECTION
2
BLOCKS
0
BLOCK
5
20
100
AcDbEntity
100
AcDbBlockBegin
2
*MODEL_SPACE
0
ENDBLK
5
21
100
AcDbEntity
100
AcDbBlockEnd
0
BLOCK
5
1C
100
AcDbEntity
100
AcDbBlockBegin
2
*PAPER_SPACE
0
ENDBLK
5
1D
100
AcDbEntity
100
AcDbBlockEnd
0
ENDSEC
0
SECTION
2
ENTITIES
0
LWPOLYLINE
5
100
100
AcDbEntity
8
0
100
AcDbPolyline
90
4
70
1
43
0.0
10
-0.16138328085659959
20
75.566149302312169
10
84.788947080282895
20
75.566149302312169
10
84.788947080282895
20
51.928810075275074
10
-0.16138328085659737
20
51.928810075275074
0
LINE
5
101
100
AcDbEntity
8
0
100
AcDbLine
10
101.13564560405975
20
28.443524501806252
30
0
11
146.09316257542798
21
28.596618436462869
31
0
0
SPLINE
5
102
100
AcDbEntity
8
0
100
AcDbSpline
70
0
71
2
72
6
73
3
74
0
42
0.000000001
43
0.0000000001
44
0.0000000001
40
0
40
0
40
0
40
1
40
1
40
1
10
146.09316257542798
20
28.596618436462869
30
0
10
146.42067548261045
20
28.628245316093466
30
0
10
146.69491637130182
20
28.93214739382114
30
0
0
SPLINE
5
103
100
AcDbEntity
8
0
100
AcDbSpline
70
0
71
2
72
6
73
3
74
0
42
0.000000001
43
0.0000000001
44
0.0000000001
40
0
40
0
40
0
40
1
40
1
40
1
10
146.69491637130182
20
28.93214739382114
30
0
10
146.96915725999318
20
29.236044963084158
30
0
10
147.6482222079562
20
30.130001370877935
30
0
0
SPLINE
5
104
100
AcDbEntity
8
0
100
AcDbSpline
70
0
71
2
72
6
73
3
74
0
42
0.000000001
43
0.0000000001
44
0.0000000001
40
0
40
0
40
0
40
1
40
1
40
1
10
147.6482222079562
20
30.130001370877935
30
0
10
148.18485574019721
20
30.901467302166552
30
0
10
149.55827834826965
20
30.578485401973197
30
0
0
SPLINE
5
105
100
AcDbEntity
8
0
100
AcDbSpline
70
0
71
2
72
6
73
3
74
0
42
0.000000001
43
0.0000000001
44
0.0000000001
40
0
40
0
40
0
40
1
40
1
40
1
10
149.55827834826965
20
30.578485401973197
30
0
10
153.64291126776845
20
28.642005150253489
30
0
10
156.98252941817287
20
32.697788404355812
30
0
0
LINE
5
106
100
AcDbEntity
8
0
100
AcDbLine
10
156.98252941817287
20
32.697788404355812
30
0
11
157.62457085430032
21
33.352967506519413
31
0
0
SPLINE
5
107
100
AcDbEntity
8
0
100
AcDbSpline
70
0
71
2
72
6
73
3
74
0
42
0.000000001
43
0.0000000001
44
0.0000000001
40
0
40
0
40
0
40
1
40
1
40
1
10
157.62457085430032
20
33.352967506519413
30
0
10
160.18115886154834
20
36.12715656086236
30
0
10
164.54639862184661
20
34.275755545850984
30
0
0
SPLINE
5
108
100
AcDbEntity
8
0
100
AcDbSpline
70
0
71
2
72
6
73
3
74
0
42
0.000000001
43
0.0000000001
44
0.0000000001
40
0
40
0
40
0
40
1
40
1
40
1
10
164.54639862184661
20
34.275755545850984
30
0
10
165.52951442687129
20
33.838136914600305
30
0
10
166.34190369193138
20
34.277644592545961
30
0
0
SPLINE
5
109
100
AcDbEntity
8
0
100
AcDbSpline
70
0
71
2
72
6
73
3
74
0
42
0.000000001
43
0.0000000001
44
0.0000000001
40
0
40
0
40
0
40
1
40
1
40
1
10
166.34190369193138
20
34.277644592545961
30
0
10
166.81770901890138
20
34.547791795320784
30
0
10
167.13050629741471
20
34.843722907519322
30
0
0
SPLINE
5
110
100
AcDbEntity
8
0
100
AcDbSpline
70
0
71
2
72
6
73
3
74
0
42
0.000000001
43
0.0000000001
44
0.0000000001
40
0
40
0
40
0
40
1
40
1
40
1
10
167.13050629741471
20
34.843722907519322
30
0
10
167.44330357592801
20
35.139654019717867
30
0
10
168.55422533729882
20
36.184477180623354
30
0
0
LINE
5
111
100
AcDbEntity
8
0
100
AcDbLine
10
168.55422533729879
20
36.184477180623354
30
0
11
169.64787066207026
21
37.24909250141171
31
0
0
SPLINE
5
112
100
AcDbEntity
8
0
100
AcDbSpline
70
0
71
2
72
6
73
3
74
0
42
0.000000001
43
0.0000000001
44
0.0000000001
40
0
40
0
40
0
40
1
40
1
40
1
10
169.64787066207026
20
37.24909250141171
30
0
10
170.00999054402743
20
37.496444906836246
30
0
10
170.15069070931776
20
38.234313759435295
30
0
0
SPLINE
5
113
100
AcDbEntity
8
0
100
AcDbSpline
70
0
71
2
72
6
73
3
74
0
42
0.000000001
43
0.0000000001
44
0.0000000001
40
0
40
0
40
0
40
1
40
1
40
1
10
170.15069070931776
20
38.234313759435295
30
0
10
170.29140890846676
20
38.972182612034359
30
0
10
171.11667434861238
20
45.092729971457111
30
0
0
SPLINE
5
114
100
AcDbEntity
8
0
100
AcDbSpline
70
0
71
2
72
6
73
3
74
0
42
0.000000001
43
0.0000000001
44
0.0000000001
40
0
40
0
40
0
40
1
40
1
40
1
10
171.11667434861238
20
45.092729971457111
30
0
10
171.18415704773011
20
46.546840571653391
30
0
10
169.57546471953748
20
46.506011915639888
30
0
0
SPLINE
5
115
100
AcDbEntity
8
0
100
AcDbSpline
70
0
71
2
72
6
73
3
74
0
42
0.000000001
43
0.0000000001
44
0.0000000001
40
0
40
0
40
0
40
1
40
1
40
1
10
169.57546471953748
20
46.506011915639888
30
0
10
167.96677239134488
20
46.46517875116173
30
0
10
164.44335315344506
20
46.42734822415099
30
0
0
LINE
5
116
100
AcDbEntity
8
0
100
AcDbLine
10
164.44335315344506
20
46.42734822415099
30
0
11
128.41671695706825
21
45.746011009996408
31
0
0
LINE
5
117
100
AcDbEntity
8
0
100
AcDbLine
10
128.41671695706825
20
45.746011009996408
30
0
11
101.25141395974821
21
45.411915744401846
31
0
0
LINE
5
118
100
AcDbEntity
8
0
100
AcDbLine
10
101.25141395974821
20
45.411915744401846
30
0
11
101.13564560405975
21
28.443524501806252
31
0
0
ENDSEC
0
SECTION
2
OBJECTS
0
DICTIONARY
5
C
100
AcDbDictionary
3
ACAD_GROUP
350
D
3
ACAD_MLINESTYLE
350
17
0
DICTIONARY
5
D
100
AcDbDictionary
0
DICTIONARY
5
1A
330
C
100
AcDbDictionary
0
DICTIONARY
5
17
100
AcDbDictionary
0
ENDSEC
0
EOF
