                                                                        S      1
,,5HPlate,5HPlate,7Hunknown,7Hunknown,32,38,7,99,15,,1.,2,2HMM,1,0.08,  G      1
15H20220922.115625,0.01,10000.,7Hunknown,7Hunknown,11,0,;               G      2
     186       1                                                00000000D      1
     186            -119       1       0                               0D      2
     514       2                                                00010000D      3
     514                       1       1                               0D      4
     510       3                                                00010000D      5
     510            -119       1       1                               0D      6
     510       4                                                00010000D      7
     510            -119       1       1                               0D      8
     510       5                                                00010000D      9
     510            -119       1       1                               0D     10
     510       6                                                00010000D     11
     510            -119       1       1                               0D     12
     510       7                                                00010000D     13
     510            -119       1       1                               0D     14
     510       8                                                00010000D     15
     510            -119       1       1                               0D     16
     510       9                                                00010000D     17
     510            -119       1       1                               0D     18
     510      10                                                00010000D     19
     510            -119       1       1                               0D     20
     510      11                                                00010000D     21
     510            -119       1       1                               0D     22
     510      12                                                00010000D     23
     510            -119       1       1                               0D     24
     508      13                                                00010000D     25
     508                       1       1                               0D     26
     508      14                                                00010000D     27
     508                       1       1                               0D     28
     508      15                                                00010000D     29
     508                       2       1                               0D     30
     508      17                                                00010000D     31
     508                       1       1                               0D     32
     508      18                                                00010000D     33
     508                       1       1                               0D     34
     508      19                                                00010000D     35
     508                       1       1                               0D     36
     508      20                                                00010000D     37
     508                       1       1                               0D     38
     508      21                                                00010000D     39
     508                       1       1                               0D     40
     508      22                                                00010000D     41
     508                       1       1                               0D     42
     508      23                                                00010000D     43
     508                       2       1                               0D     44
     126      25                                                00010000D     45
     126       0               5       0                               0D     46
     126      30                                                00010000D     47
     126       0               2       0                               0D     48
     126      32                                                00010000D     49
     126       0               5       0                               0D     50
     126      37                                                00010000D     51
     126       0               2       0                               0D     52
     126      39                                                00010000D     53
     126       0               2       0                               0D     54
     126      41                                                00010000D     55
     126       0               2       0                               0D     56
     126      43                                                00010000D     57
     126       0               2       0                               0D     58
     126      45                                                00010000D     59
     126       0               2       0                               0D     60
     126      47                                                00010000D     61
     126       0               5       0                               0D     62
     126      52                                                00010000D     63
     126       0               2       0                               0D     64
     126      54                                                00010000D     65
     126       0               5       0                               0D     66
     126      59                                                00010000D     67
     126       0               2       0                               0D     68
     126      61                                                00010000D     69
     126       0               5       0                               0D     70
     126      66                                                00010000D     71
     126       0               5       0                               0D     72
     126      71                                                00010000D     73
     126       0               2       0                               0D     74
     126      73                                                00010000D     75
     126       0               2       0                               0D     76
     126      75                                                00010000D     77
     126       0               2       0                               0D     78
     126      77                                                00010000D     79
     126       0               5       0                               0D     80
     126      82                                                00010000D     81
     126       0               2       0                               0D     82
     126      84                                                00010000D     83
     126       0               2       0                               0D     84
     126      86                                                00010000D     85
     126       0               2       0                               0D     86
     126      88                                                00010000D     87
     126       0               5       0                               0D     88
     126      93                                                00010000D     89
     126       0               2       0                               0D     90
     126      95                                                00010000D     91
     126       0               2       0                               0D     92
     128      97                                                00010000D     93
     128       0    -119       7       0                               0D     94
     128     104                                                00010000D     95
     128       0    -119       4       0                               0D     96
     128     108                                                00010000D     97
     128       0    -119       4       0                               0D     98
     128     112                                                00010000D     99
     128       0    -119       6       0                               0D    100
     128     118                                                00010000D    101
     128       0    -119       4       0                               0D    102
     128     122                                                00010000D    103
     128       0    -119       7       0                               0D    104
     128     129                                                00010000D    105
     128       0    -119       5       0                               0D    106
     128     134                                                00010000D    107
     128       0    -119       6       0                               0D    108
     128     140                                                00010000D    109
     128       0    -119       4       0                               0D    110
     128     144                                                00010000D    111
     128       0    -119       4       0                               0D    112
     502     148                                                00010000D    113
     502                       7       1                               0D    114
     504     155                                                00010001D    115
     504                       7       1                               0D    116
     406     162                                                00000000D    117
     406                       1      15                               0D    118
     314     163                                                00000200D    119
     314                       2       0                               0D    120
     314     165                                                00000200D    121
     314                       2       0                               0D    122
186,3,1,0,0,1,117;                                                     1P      1
514,10,5,1,7,1,9,1,11,1,13,1,15,1,17,1,19,1,21,1,23,1;                 3P      2
510,93,1,1,25;                                                         5P      3
510,95,1,1,27;                                                         7P      4
510,97,1,1,29;                                                         9P      5
510,99,1,1,31;                                                        11P      6
510,101,1,1,33;                                                       13P      7
510,103,1,1,35;                                                       15P      8
510,105,1,1,37;                                                       17P      9
510,107,1,1,39;                                                       19P     10
510,109,1,1,41;                                                       21P     11
510,111,1,1,43;                                                       23P     12
508,4,0,115,1,1,0,0,115,2,1,0,0,115,3,1,0,0,115,4,1,0;                25P     13
508,4,0,115,4,0,0,0,115,5,0,0,0,115,6,0,0,0,115,7,0,0;                27P     14
508,8,0,115,3,0,0,0,115,8,1,0,0,115,9,0,0,0,115,10,1,0,0,115,11,      29P     15
0,0,0,115,12,1,0,0,115,13,0,0,0,115,5,1,0;                            29P     16
508,4,0,115,14,1,0,0,115,6,1,0,0,115,13,1,0,0,115,15,1,0;             31P     17
508,4,0,115,15,0,0,0,115,12,0,0,0,115,16,0,0,0,115,17,0,0;            33P     18
508,4,0,115,18,1,0,0,115,19,1,0,0,115,9,1,0,0,115,20,1,0;             35P     19
508,4,0,115,2,0,0,0,115,21,0,0,0,115,20,0,0,0,115,8,0,0;              37P     20
508,4,0,115,22,1,0,0,115,16,1,0,0,115,11,1,0,0,115,23,1,0;            39P     21
508,4,0,115,19,0,0,0,115,24,0,0,0,115,23,0,0,0,115,10,0,0;            41P     22
508,8,0,115,1,0,0,0,115,7,1,0,0,115,14,0,0,0,115,17,1,0,0,115,        43P     23
22,0,0,0,115,24,1,0,0,115,18,0,0,0,115,21,1,0;                        43P     24
126,2,2,0,0,0,0,-0.785398163397447,-0.785398163397447,                45P     25
-0.785398163397447,0.785398163397448,0.785398163397448,               45P     26
0.785398163397448,1.,0.707106781186547,1.,-4.75000000000001,          45P     27
-12.,-13.,-9.75000000000001,-12.,-13.,-9.75000000000001,-12.,         45P     28
-8.,-0.785398163397447,0.785398163397448,0.,0.,0.;                    45P     29
126,1,1,0,0,1,0,-0.2,-0.2,0.,0.,1.,1.,-9.75000000000001,-12.,         47P     30
-8.,-9.75000000000001,-10.,-8.,-0.2,0.,0.,0.,0.;                      47P     31
126,2,2,0,0,0,0,-0.785398163397448,-0.785398163397448,                49P     32
-0.785398163397448,0.785398163397447,0.785398163397447,               49P     33
0.785398163397447,1.,0.707106781186547,1.,-9.75000000000001,          49P     34
-10.,-8.,-9.75000000000001,-10.,-13.,-4.75000000000001,-10.,          49P     35
-13.,-0.785398163397448,0.785398163397447,0.,0.,0.;                   49P     36
126,1,1,0,0,1,0,0.,0.,0.2,0.2,1.,1.,-4.75000000000001,-10.,-13.,      51P     37
-4.75000000000001,-12.,-13.,0.,0.2,0.,0.,0.;                          51P     38
126,1,1,0,0,1,0,0.5,0.5,4.35,4.35,1.,1.,33.75,-10.,-13.,              53P     39
-4.75000000000001,-10.,-13.,0.5,4.35,0.,0.,0.;                        53P     40
126,1,1,0,0,1,0,-0.2,-0.2,0.,0.,1.,1.,33.75,-12.,-13.,33.75,          55P     41
-10.,-13.,-0.2,0.,0.,0.,0.;                                           55P     42
126,1,1,0,0,1,0,-4.35,-4.35,-0.5,-0.5,1.,1.,-4.75000000000001,        57P     43
-12.,-13.,33.75,-12.,-13.,-4.35,-0.5,0.,0.,0.;                        57P     44
126,1,1,0,0,1,0,0.5,0.5,4.35,4.35,1.,1.,-9.75000000000001,-10.,       59P     45
-8.,-9.75000000000001,-10.,30.5,0.5,4.35,0.,0.,0.;                    59P     46
126,2,2,0,0,0,0,-0.785398163397448,-0.785398163397448,                61P     47
-0.785398163397448,0.785398163397447,0.785398163397447,               61P     48
0.785398163397447,1.,0.707106781186548,1.,-4.75000000000001,          61P     49
-10.,35.5,-9.75,-10.,35.5,-9.75,-10.,30.5,-0.785398163397448,         61P     50
0.785398163397447,0.,0.,0.;                                           61P     51
126,1,1,0,0,1,0,0.5,0.5,4.35,4.35,1.,1.,-4.75000000000001,-10.,       63P     52
35.5,33.75,-10.,35.5,0.5,4.35,0.,0.,0.;                               63P     53
126,2,2,0,0,0,0,-0.785398163397448,-0.785398163397448,                65P     54
-0.785398163397448,0.78539816339745,0.78539816339745,                 65P     55
0.78539816339745,1.,0.707106781186547,1.,38.75,-10.,30.5,38.75,       65P     56
-10.,35.5,33.75,-10.,35.5,-0.785398163397448,0.78539816339745,        65P     57
0.,0.,0.;                                                             65P     58
126,1,1,0,0,1,0,0.5,0.5,4.35,4.35,1.,1.,38.75,-10.,30.5,38.75,        67P     59
-10.,-8.00000000000001,0.5,4.35,0.,0.,0.;                             67P     60
126,2,2,0,0,0,0,-0.785398163397448,-0.785398163397448,                69P     61
-0.785398163397448,0.785398163397447,0.785398163397447,               69P     62
0.785398163397447,1.,0.707106781186547,1.,33.75,-10.,-13.,38.75,      69P     63
-10.,-13.,38.75,-10.,-8.00000000000001,-0.785398163397448,            69P     64
0.785398163397447,0.,0.,0.;                                           69P     65
126,2,2,0,0,0,0,-0.785398163397447,-0.785398163397447,                71P     66
-0.785398163397447,0.785398163397448,0.785398163397448,               71P     67
0.785398163397448,1.,0.707106781186547,1.,38.75,-12.,                 71P     68
-8.00000000000001,38.75,-12.,-13.,33.75,-12.,-13.,                    71P     69
-0.785398163397447,0.785398163397448,0.,0.,0.;                        71P     70
126,1,1,0,0,1,0,0.,0.,0.2,0.2,1.,1.,38.75,-10.,-8.,38.75,-12.,        73P     71
-8.,0.,0.2,0.,0.,0.;                                                  73P     72
126,1,1,0,0,1,0,-0.2,-0.2,0.,0.,1.,1.,38.75,-12.,30.5,38.75,          75P     73
-10.,30.5,-0.2,0.,0.,0.,0.;                                           75P     74
126,1,1,0,0,1,0,-4.35,-4.35,-0.5,-0.5,1.,1.,38.75,-12.,               77P     75
-8.00000000000001,38.75,-12.,30.5,-4.35,-0.5,0.,0.,0.;                77P     76
126,2,2,0,0,0,0,-0.785398163397447,-0.785398163397447,                79P     77
-0.785398163397447,0.785398163397448,0.785398163397448,               79P     78
0.785398163397448,1.,0.707106781186548,1.,-9.75,-12.,30.5,-9.75,      79P     79
-12.,35.5,-4.75000000000001,-12.,35.5,-0.785398163397447,             79P     80
0.785398163397448,0.,0.,0.;                                           79P     81
126,1,1,0,0,1,0,-0.2,-0.2,0.,0.,1.,1.,-4.75000000000001,-12.,         81P     82
35.5,-4.75000000000001,-10.,35.5,-0.2,0.,0.,0.,0.;                    81P     83
126,1,1,0,0,1,0,0.,0.,0.2,0.2,1.,1.,-9.75000000000001,-10.,30.5,      83P     84
-9.75000000000001,-12.,30.5,0.,0.2,0.,0.,0.;                          83P     85
126,1,1,0,0,1,0,-4.35,-4.35,-0.5,-0.5,1.,1.,-9.75000000000001,        85P     86
-12.,30.5,-9.75000000000001,-12.,-8.,-4.35,-0.5,0.,0.,0.;             85P     87
126,2,2,0,0,0,0,-0.78539816339745,-0.78539816339745,                  87P     88
-0.78539816339745,0.785398163397448,0.785398163397448,                87P     89
0.785398163397448,1.,0.707106781186547,1.,33.75,-12.,35.5,38.75,      87P     90
-12.,35.5,38.75,-12.,30.5,-0.78539816339745,0.785398163397448,        87P     91
0.,0.,0.;                                                             87P     92
126,1,1,0,0,1,0,0.,0.,0.2,0.2,1.,1.,33.75,-10.,35.5,33.75,-12.,       89P     93
35.5,0.,0.2,0.,0.,0.;                                                 89P     94
126,1,1,0,0,1,0,-4.35,-4.35,-0.5,-0.5,1.,1.,33.75,-12.,35.5,          91P     95
-4.75000000000001,-12.,35.5,-4.35,-0.5,0.,0.,0.;                      91P     96
128,1,2,1,2,0,0,0,0,0,0.,0.,0.4,0.4,-0.785398163397448,               93P     97
-0.785398163397448,-0.785398163397448,0.785398163397448,              93P     98
0.785398163397448,0.785398163397448,1.,1.,0.707106781186548,          93P     99
0.707106781186548,1.,1.,-9.75000000000001,-12.,-8.,                   93P    100
-9.75000000000001,-10.,-8.,-9.75,-12.,-13.,-9.75,-10.,-13.,           93P    101
-4.75000000000001,-12.,-13.,-4.75000000000001,-10.,-13.,0.,0.4,       93P    102
-0.785398163397448,0.785398163397448;                                 93P    103
128,1,1,1,1,0,0,1,0,0,0.499,0.499,4.351,4.351,-0.001,-0.001,          95P    104
0.201,0.201,1.,1.,1.,1.,-4.76000000000001,-9.99,-13.,33.76,           95P    105
-9.99,-13.,-4.76000000000001,-12.01,-13.,33.76,-12.01,-13.,           95P    106
0.499,4.351,-0.001,0.201;                                             95P    107
128,1,1,1,1,0,0,1,0,0,-2.426,-2.426,2.426,2.426,-2.426,-2.426,        97P    108
2.426,2.426,1.,1.,1.,1.,38.76,-10.,-13.01,-9.76000000000001,          97P    109
-10.,-13.01,38.76,-10.,35.51,-9.76000000000001,-10.,35.51,            97P    110
-2.426,2.426,-2.426,2.426;                                            97P    111
128,1,2,1,2,0,0,0,0,0,0.,0.,0.4,0.4,-0.785398163397448,               99P    112
-0.785398163397448,-0.785398163397448,0.785398163397448,              99P    113
0.785398163397448,0.785398163397448,1.,1.,0.707106781186548,          99P    114
0.707106781186548,1.,1.,33.75,-12.,-13.,33.75,-10.,-13.,38.75,        99P    115
-12.,-13.,38.75,-10.,-13.,38.75,-12.,-8.,38.75,-10.,-8.,0.,0.4,       99P    116
-0.785398163397448,0.785398163397448;                                 99P    117
128,1,1,1,1,0,0,1,0,0,0.499,0.499,4.351,4.351,-0.001,-0.001,         101P    118
0.201,0.201,1.,1.,1.,1.,38.75,-9.99,-8.01000000000001,38.75,         101P    119
-9.99,30.51,38.75,-12.01,-8.01000000000001,38.75,-12.01,30.51,       101P    120
0.499,4.351,-0.001,0.201;                                            101P    121
128,1,2,1,2,0,0,0,0,0,0.,0.,0.4,0.4,-0.785398163397448,              103P    122
-0.785398163397448,-0.785398163397448,0.785398163397448,             103P    123
0.785398163397448,0.785398163397448,1.,1.,0.707106781186548,         103P    124
0.707106781186548,1.,1.,-4.75,-12.,35.5,-4.75,-10.,35.5,-9.75,       103P    125
-12.,35.5,-9.75,-10.,35.5,-9.75000000000001,-12.,30.5,               103P    126
-9.75000000000001,-10.,30.5,0.,0.4,-0.785398163397448,               103P    127
0.785398163397448;                                                   103P    128
128,1,1,1,1,0,0,1,0,0,0.498999999999999,0.498999999999999,4.351,     105P    129
4.351,-0.001,-0.001,0.201,0.201,1.,1.,1.,1.,-9.75000000000001,       105P    130
-9.99,30.51,-9.75000000000001,-9.99,-8.01000000000001,               105P    131
-9.75000000000001,-12.01,30.51,-9.75000000000001,-12.01,             105P    132
-8.01000000000001,0.498999999999999,4.351,-0.001,0.201;              105P    133
128,1,2,1,2,0,0,0,0,0,0.,0.,0.4,0.4,-0.785398163397448,              107P    134
-0.785398163397448,-0.785398163397448,0.78539816339745,              107P    135
0.78539816339745,0.78539816339745,1.,1.,0.707106781186547,           107P    136
0.707106781186547,1.,1.,38.75,-12.,30.5,38.75,-10.,30.5,38.75,       107P    137
-12.,35.5,38.75,-10.,35.5,33.75,-12.,35.5,33.75,-10.,35.5,0.,        107P    138
0.4,-0.785398163397448,0.78539816339745;                             107P    139
128,1,1,1,1,0,0,1,0,0,0.499,0.499,4.351,4.351,-0.001,-0.001,         109P    140
0.201,0.201,1.,1.,1.,1.,33.76,-9.99,35.5,-4.76000000000001,          109P    141
-9.99,35.5,33.76,-12.01,35.5,-4.76000000000001,-12.01,35.5,          109P    142
0.499,4.351,-0.001,0.201;                                            109P    143
128,1,1,1,1,0,0,1,0,0,-2.426,-2.426,2.426,2.426,-2.426,-2.426,       111P    144
2.426,2.426,1.,1.,1.,1.,-9.76000000000001,-12.,35.51,                111P    145
-9.76000000000001,-12.,-13.01,38.76,-12.,35.51,38.76,-12.,           111P    146
-13.01,-2.426,2.426,-2.426,2.426;                                    111P    147
502,16,-4.75000000000001,-12.,-13.,-9.75000000000001,-12.,-8.,       113P    148
-9.75000000000001,-10.,-8.,-4.75000000000001,-10.,-13.,33.75,        113P    149
-10.,-13.,33.75,-12.,-13.,-9.75000000000001,-10.,30.5,               113P    150
-4.75000000000001,-10.,35.5,33.75,-10.,35.5,38.75,-10.,30.5,         113P    151
38.75,-10.,-8.00000000000001,38.75,-12.,-8.00000000000001,38.75,     113P    152
-12.,30.5,-9.75000000000001,-12.,30.5,-4.75000000000001,-12.,        113P    153
35.5,33.75,-12.,35.5;                                                113P    154
504,24,45,113,1,113,2,47,113,2,113,3,49,113,3,113,4,51,113,4,        115P    155
113,1,53,113,5,113,4,55,113,6,113,5,57,113,1,113,6,59,113,3,113,     115P    156
7,61,113,8,113,7,63,113,8,113,9,65,113,10,113,9,67,113,10,113,       115P    157
11,69,113,5,113,11,71,113,12,113,6,73,113,11,113,12,75,113,13,       115P    158
113,10,77,113,12,113,13,79,113,14,113,15,81,113,15,113,8,83,113,     115P    159
7,113,14,85,113,14,113,2,87,113,16,113,13,89,113,9,113,16,91,        115P    160
113,16,113,15;                                                       115P    161
406,1,5HBody1;                                                       117P    162
314,95.2941176470588,79.6078431372549,48.6274509803922,16HBrass      119P    163
- Polished;                                                          119P    164
314,62.7450980392157,62.7450980392157,62.7450980392157,13HSteel      121P    165
- Satin;                                                             121P    166
S      1G      2D    122P    166                                        T      1
