                                                                        S      1
,,5HStamp,5HStamp,7Hunknown,7Hunknown,32,38,7,99,15,,1.,2,2HMM,1,0.08,  G      1
15H20220922.115628,0.01,10000.,7Hunknown,7Hunknown,11,0,;               G      2
     186       1                                                00000000D      1
     186            -171       1       0                               0D      2
     514       2                                                00010000D      3
     514                       2       1                               0D      4
     510       4                                                00010000D      5
     510            -171       1       1                               0D      6
     510       5                                                00010000D      7
     510            -171       1       1                               0D      8
     510       6                                                00010000D      9
     510            -171       1       1                               0D     10
     510       7                                                00010000D     11
     510            -171       1       1                               0D     12
     510       8                                                00010000D     13
     510            -171       1       1                               0D     14
     510       9                                                00010000D     15
     510            -171       1       1                               0D     16
     510      10                                                00010000D     17
     510            -171       1       1                               0D     18
     510      11                                                00010000D     19
     510            -171       1       1                               0D     20
     510      12                                                00010000D     21
     510            -171       1       1                               0D     22
     510      13                                                00010000D     23
     510            -171       1       1                               0D     24
     510      14                                                00010000D     25
     510            -171       1       1                               0D     26
     510      15                                                00010000D     27
     510            -171       1       1                               0D     28
     510      16                                                00010000D     29
     510            -171       1       1                               0D     30
     510      17                                                00010000D     31
     510            -171       1       1                               0D     32
     508      18                                                00010000D     33
     508                       1       1                               0D     34
     508      19                                                00010000D     35
     508                       2       1                               0D     36
     508      21                                                00010000D     37
     508                       1       1                               0D     38
     508      22                                                00010000D     39
     508                       1       1                               0D     40
     508      23                                                00010000D     41
     508                       1       1                               0D     42
     508      24                                                00010000D     43
     508                       1       1                               0D     44
     508      25                                                00010000D     45
     508                       1       1                               0D     46
     508      26                                                00010000D     47
     508                       1       1                               0D     48
     508      27                                                00010000D     49
     508                       1       1                               0D     50
     508      28                                                00010000D     51
     508                       1       1                               0D     52
     508      29                                                00010000D     53
     508                       1       1                               0D     54
     508      30                                                00010000D     55
     508                       1       1                               0D     56
     508      31                                                00010000D     57
     508                       1       1                               0D     58
     508      32                                                00010000D     59
     508                       1       1                               0D     60
     508      33                                                00010000D     61
     508                       2       1                               0D     62
     508      35                                                00010000D     63
     508                       1       1                               0D     64
     126      36                                                00010000D     65
     126       0               3       0                               0D     66
     126      39                                                00010000D     67
     126       0               2       0                               0D     68
     126      41                                                00010000D     69
     126       0               3       0                               0D     70
     126      44                                                00010000D     71
     126       0               2       0                               0D     72
     126      46                                                00010000D     73
     126       0               6       0                               0D     74
     126      52                                                00010000D     75
     126       0               2       0                               0D     76
     126      54                                                00010000D     77
     126       0               6       0                               0D     78
     126      60                                                00010000D     79
     126       0               2       0                               0D     80
     126      62                                                00010000D     81
     126       0               6       0                               0D     82
     126      68                                                00010000D     83
     126       0               2       0                               0D     84
     126      70                                                00010000D     85
     126       0               6       0                               0D     86
     126      76                                                00010000D     87
     126       0               2       0                               0D     88
     126      78                                                00010000D     89
     126       0               3       0                               0D     90
     126      81                                                00010000D     91
     126       0               2       0                               0D     92
     126      83                                                00010000D     93
     126       0               3       0                               0D     94
     126      86                                                00010000D     95
     126       0               3       0                               0D     96
     126      89                                                00010000D     97
     126       0               3       0                               0D     98
     126      92                                                00010000D     99
     126       0               3       0                               0D    100
     126      95                                                00010000D    101
     126       0               3       0                               0D    102
     126      98                                                00010000D    103
     126       0               3       0                               0D    104
     126     101                                                00010000D    105
     126       0               6       0                               0D    106
     126     107                                                00010000D    107
     126       0               3       0                               0D    108
     126     110                                                00010000D    109
     126       0               3       0                               0D    110
     126     113                                                00010000D    111
     126       0               3       0                               0D    112
     126     116                                                00010000D    113
     126       0               3       0                               0D    114
     126     119                                                00010000D    115
     126       0               6       0                               0D    116
     126     125                                                00010000D    117
     126       0               4       0                               0D    118
     126     129                                                00010000D    119
     126       0               4       0                               0D    120
     126     133                                                00010000D    121
     126       0               2       0                               0D    122
     126     135                                                00010000D    123
     126       0               6       0                               0D    124
     126     141                                                00010000D    125
     126       0               4       0                               0D    126
     126     145                                                00010000D    127
     126       0               4       0                               0D    128
     126     149                                                00010000D    129
     126       0               2       0                               0D    130
     126     151                                                00010000D    131
     126       0               6       0                               0D    132
     126     157                                                00010000D    133
     126       0               3       0                               0D    134
     126     160                                                00010000D    135
     126       0               3       0                               0D    136
     128     163                                                00010000D    137
     128       0    -171       6       0                               0D    138
     128     169                                                00010000D    139
     128       0    -171       4       0                               0D    140
     128     173                                                00010000D    141
     128       0    -171       6       0                               0D    142
     128     179                                                00010000D    143
     128       0    -171       5       0                               0D    144
     128     184                                                00010000D    145
     128       0    -171       6       0                               0D    146
     128     190                                                00010000D    147
     128       0    -171       9       0                               0D    148
     128     199                                                00010000D    149
     128       0    -171       5       0                               0D    150
     128     204                                                00010000D    151
     128       0    -171       9       0                               0D    152
     128     213                                                00010000D    153
     128       0    -171       5       0                               0D    154
     128     218                                                00010000D    155
     128       0    -171       8       0                               0D    156
     128     226                                                00010000D    157
     128       0    -171       4       0                               0D    158
     128     230                                                00010000D    159
     128       0    -171      10       0                               0D    160
     128     240                                                00010000D    161
     128       0    -171       5       0                               0D    162
     128     245                                                00010000D    163
     128       0    -171       5       0                               0D    164
     502     250                                                00010000D    165
     502                      12       1                               0D    166
     504     262                                                00010001D    167
     504                      10       1                               0D    168
     406     272                                                00000000D    169
     406                       1      15                               0D    170
     314     273                                                00000200D    171
     314                       2       0                               0D    172
186,3,1,0,0,1,169;                                                     1P      1
514,14,5,1,7,1,9,1,11,1,13,1,15,1,17,1,19,1,21,1,23,1,25,1,27,1,       3P      2
29,1,31,1;                                                             3P      3
510,137,1,1,33;                                                        5P      4
510,139,2,1,35,37;                                                     7P      5
510,141,1,1,39;                                                        9P      6
510,143,1,1,41;                                                       11P      7
510,145,1,1,43;                                                       13P      8
510,147,1,1,45;                                                       15P      9
510,149,1,1,47;                                                       17P     10
510,151,1,1,49;                                                       19P     11
510,153,1,1,51;                                                       21P     12
510,155,1,1,53;                                                       23P     13
510,157,1,1,55;                                                       25P     14
510,159,1,1,57;                                                       27P     15
510,161,1,1,59;                                                       29P     16
510,163,2,1,61,63;                                                    31P     17
508,4,0,167,1,0,0,0,167,2,0,0,0,167,3,0,0,0,167,4,0,0;                33P     18
508,8,0,167,5,0,0,0,167,6,1,0,0,167,7,0,0,0,167,8,1,0,0,167,9,0,      35P     19
0,0,167,10,1,0,0,167,11,0,0,0,167,12,1,0;                             35P     20
508,4,0,167,13,1,0,0,167,1,1,0,0,167,14,1,0,0,167,15,1,0;             37P     21
508,4,0,167,15,0,0,0,167,16,0,0,0,167,17,0,0,0,167,18,0,0;            39P     22
508,4,0,167,14,0,0,0,167,4,1,0,0,167,19,0,0,0,167,16,1,0;             41P     23
508,4,0,167,13,0,0,0,167,18,1,0,0,167,20,0,0,0,167,2,1,0;             43P     24
508,4,0,167,21,1,0,0,167,22,1,0,0,167,5,1,0,0,167,23,1,0;             45P     25
508,4,0,167,23,0,0,0,167,12,0,0,0,167,24,0,0,0,167,25,0,0;            47P     26
508,4,0,167,26,1,0,0,167,24,1,0,0,167,11,1,0,0,167,27,1,0;            49P     27
508,4,0,167,27,0,0,0,167,10,0,0,0,167,28,0,0,0,167,29,0,0;            51P     28
508,4,0,167,30,1,0,0,167,28,1,0,0,167,9,1,0,0,167,31,1,0;             53P     29
508,4,0,167,31,0,0,0,167,8,0,0,0,167,32,0,0,0,167,33,0,0;             55P     30
508,4,0,167,34,1,0,0,167,32,1,0,0,167,7,1,0,0,167,35,1,0;             57P     31
508,4,0,167,22,0,0,0,167,36,0,0,0,167,35,0,0,0,167,6,0,0;             59P     32
508,8,0,167,21,0,0,0,167,25,1,0,0,167,26,0,0,0,167,29,1,0,0,167,      61P     33
30,0,0,0,167,33,1,0,0,167,34,0,0,0,167,36,1,0;                        61P     34
508,4,0,167,20,1,0,0,167,17,1,0,0,167,19,1,0,0,167,3,1,0;             63P     35
126,1,1,0,0,1,0,-1.885,-1.885,0.635,0.635,1.,1.,27.,                  65P     36
-8.50000000000001,-1.35,27.,-8.50000000000001,23.85,-1.885,           65P     37
0.635,0.,0.,0.;                                                       65P     38
126,1,1,0,0,1,0,-0.1,-0.1,0.,0.,1.,1.,27.,-9.50000000000001,          67P     39
-1.35,27.,-8.50000000000001,-1.35,-0.1,0.,0.,0.,0.;                   67P     40
126,1,1,0,0,1,0,-0.635,-0.635,1.885,1.885,1.,1.,27.,                  69P     41
-9.50000000000001,23.85,27.,-9.50000000000001,-1.35,-0.635,           69P     42
1.885,0.,0.,0.;                                                       69P     43
126,1,1,0,0,1,0,0.,0.,0.1,0.1,1.,1.,27.,-8.50000000000001,23.85,      71P     44
27.,-9.50000000000001,23.85,0.,0.1,0.,0.,0.;                          71P     45
126,2,2,0,0,0,0,-0.785398163397448,-0.785398163397448,                73P     46
-0.785398163397448,0.785398163397449,0.785398163397449,               73P     47
0.785398163397449,1.,0.707106781186548,1.,-9.85,                      73P     48
-8.50000000000001,-8.,-9.85,-8.50000000000001,-13.,-4.85,             73P     49
-8.50000000000001,-13.,-0.785398163397448,0.785398163397449,0.,       73P     50
0.,0.;                                                                73P     51
126,1,1,0,0,1,0,0.5,0.5,4.35,4.35,1.,1.,-9.85,-8.50000000000001,      75P     52
-8.,-9.85,-8.50000000000001,30.5,0.5,4.35,0.,0.,0.;                   75P     53
126,2,2,0,0,0,0,-0.785398163397448,-0.785398163397448,                77P     54
-0.785398163397448,0.785398163397449,0.785398163397449,               77P     55
0.785398163397449,1.,0.707106781186548,1.,-4.85000000000001,          77P     56
-8.50000000000001,35.5,-9.85000000000001,-8.50000000000001,35.5,      77P     57
-9.85000000000001,-8.50000000000001,30.5,-0.785398163397448,          77P     58
0.785398163397449,0.,0.,0.;                                           77P     59
126,1,1,0,0,1,0,0.5,0.5,4.35,4.35,1.,1.,-4.85000000000001,-8.5,       79P     60
35.5,33.65,-8.5,35.5,0.5,4.35,0.,0.,0.;                               79P     61
126,2,2,0,0,0,0,-0.785398163397448,-0.785398163397448,                81P     62
-0.785398163397448,0.785398163397448,0.785398163397448,               81P     63
0.785398163397448,1.,0.707106781186547,1.,38.65,                      81P     64
-8.50000000000001,30.5,38.65,-8.50000000000001,35.5,33.65,            81P     65
-8.50000000000001,35.5,-0.785398163397448,0.785398163397448,0.,       81P     66
0.,0.;                                                                81P     67
126,1,1,0,0,1,0,0.5,0.5,4.35,4.35,1.,1.,38.65,-8.5,30.5,38.65,        83P     68
-8.50000000000001,-8.,0.5,4.35,0.,0.,0.;                              83P     69
126,2,2,0,0,0,0,-0.785398163397448,-0.785398163397448,                85P     70
-0.785398163397448,0.785398163397448,0.785398163397448,               85P     71
0.785398163397448,1.,0.707106781186547,1.,33.65,                      85P     72
-8.50000000000001,-13.,38.65,-8.50000000000001,-13.,38.65,            85P     73
-8.50000000000001,-8.,-0.785398163397448,0.785398163397448,0.,        85P     74
0.,0.;                                                                85P     75
126,1,1,0,0,1,0,0.5,0.5,4.35,4.35,1.,1.,33.65,-8.50000000000001,      87P     76
-13.,-4.85,-8.50000000000001,-13.,0.5,4.35,0.,0.,0.;                  87P     77
126,1,1,0,0,1,0,-1.885,-1.885,0.635,0.635,1.,1.,1.8,                  89P     78
-8.50000000000001,-1.35,27.,-8.50000000000001,-1.35,-1.885,           89P     79
0.635,0.,0.,0.;                                                       89P     80
126,1,1,0,0,1,0,-0.635,-0.635,1.885,1.885,1.,1.,27.,-8.5,23.85,       91P     81
1.8,-8.5,23.85,-0.635,1.885,0.,0.,0.;                                 91P     82
126,1,1,0,0,1,0,-1.885,-1.885,0.635,0.635,1.,1.,                      93P     83
1.79999999999999,-8.5,23.85,1.79999999999999,-8.50000000000001,       93P     84
-1.35,-1.885,0.635,0.,0.,0.;                                          93P     85
126,1,1,0,0,1,0,-0.1,-0.1,0.,0.,1.,1.,1.79999999999999,               95P     86
-9.50000000000001,23.85,1.79999999999999,-8.50000000000001,           95P     87
23.85,-0.1,0.,0.,0.,0.;                                               95P     88
126,1,1,0,0,1,0,-0.635,-0.635,1.885,1.885,1.,1.,                      97P     89
1.79999999999999,-9.50000000000001,-1.35,1.79999999999999,            97P     90
-9.50000000000001,23.85,-0.635,1.885,0.,0.,0.;                        97P     91
126,1,1,0,0,1,0,0.,0.,0.1,0.1,1.,1.,1.79999999999999,                 99P     92
-8.50000000000001,-1.35,1.79999999999999,-9.50000000000001,           99P     93
-1.35,0.,0.1,0.,0.,0.;                                                99P     94
126,1,1,0,0,1,0,-1.885,-1.885,0.635,0.635,1.,1.,1.8,                 101P     95
-9.50000000000001,23.85,27.,-9.50000000000001,23.85,-1.885,          101P     96
0.635,0.,0.,0.;                                                      101P     97
126,1,1,0,0,1,0,-0.635,-0.635,1.885,1.885,1.,1.,27.,                 103P     98
-9.50000000000001,-1.35,1.8,-9.50000000000001,-1.35,-0.635,          103P     99
1.885,0.,0.,0.;                                                      103P    100
126,2,2,0,0,0,0,-0.785398163397449,-0.785398163397449,               105P    101
-0.785398163397449,0.785398163397448,0.785398163397448,              105P    102
0.785398163397448,1.,0.707106781186548,1.,-4.85,                     105P    103
-9.50000000000001,-13.,-9.85,-9.50000000000001,-13.,-9.85,           105P    104
-9.50000000000001,-8.,-0.785398163397449,0.785398163397448,0.,       105P    105
0.,0.;                                                               105P    106
126,1,1,0,0,1,0,-0.1,-0.1,-1.11022302462516D-16,                     107P    107
-1.11022302462516D-16,1.,1.,-9.85,-9.50000000000001,-8.,-9.85,       107P    108
-8.50000000000001,-8.,-0.1,-1.11022302462516D-16,0.,0.,0.;           107P    109
126,1,1,0,0,1,0,1.11022302462516D-16,1.11022302462516D-16,0.1,       109P    110
0.1,1.,1.,-4.85,-8.50000000000001,-13.,-4.85,-9.50000000000001,      109P    111
-13.,1.11022302462516D-16,0.1,0.,0.,0.;                              109P    112
126,1,1,0,0,1,0,-0.1,-0.1,-1.11022302462516D-16,                     111P    113
-1.11022302462516D-16,1.,1.,33.65,-9.50000000000001,-13.,33.65,      111P    114
-8.50000000000001,-13.,-0.1,-1.11022302462516D-16,0.,0.,0.;          111P    115
126,1,1,0,0,1,0,-4.35,-4.35,-0.5,-0.5,1.,1.,-4.85,                   113P    116
-9.50000000000001,-13.,33.65,-9.50000000000001,-13.,-4.35,-0.5,      113P    117
0.,0.,0.;                                                            113P    118
126,2,2,0,0,0,0,-0.785398163397448,-0.785398163397448,               115P    119
-0.785398163397448,0.785398163397448,0.785398163397448,              115P    120
0.785398163397448,1.,0.707106781186547,1.,38.65,                     115P    121
-9.50000000000001,-8.,38.65,-9.50000000000001,-13.,33.65,            115P    122
-9.50000000000001,-13.,-0.785398163397448,0.785398163397448,0.,      115P    123
0.,0.;                                                               115P    124
126,1,1,0,0,1,0,-1.11022302462516D-16,-1.11022302462516D-16,         117P    125
0.0999999999999999,0.0999999999999999,1.,1.,38.65,                   117P    126
-8.50000000000001,-8.,38.65,-9.50000000000001,-8.,                   117P    127
-1.11022302462516D-16,0.0999999999999999,0.,0.,0.;                   117P    128
126,1,1,0,0,1,0,-0.0999999999999999,-0.0999999999999999,             119P    129
1.11022302462516D-16,1.11022302462516D-16,1.,1.,38.65,-9.5,30.5,     119P    130
38.65,-8.5,30.5,-0.0999999999999999,1.11022302462516D-16,0.,0.,      119P    131
0.;                                                                  119P    132
126,1,1,0,0,1,0,-4.35,-4.35,-0.5,-0.5,1.,1.,38.65,                   121P    133
-9.50000000000001,-8.,38.65,-9.5,30.5,-4.35,-0.5,0.,0.,0.;           121P    134
126,2,2,0,0,0,0,-0.785398163397448,-0.785398163397448,               123P    135
-0.785398163397448,0.785398163397448,0.785398163397448,              123P    136
0.785398163397448,1.,0.707106781186547,1.,33.65,                     123P    137
-9.50000000000001,35.5,38.65,-9.50000000000001,35.5,38.65,           123P    138
-9.50000000000001,30.5,-0.785398163397448,0.785398163397448,0.,      123P    139
0.,0.;                                                               123P    140
126,1,1,0,0,1,0,-1.11022302462516D-16,-1.11022302462516D-16,         125P    141
0.0999999999999999,0.0999999999999999,1.,1.,33.65,-8.5,35.5,         125P    142
33.65,-9.5,35.5,-1.11022302462516D-16,0.0999999999999999,0.,0.,      125P    143
0.;                                                                  125P    144
126,1,1,0,0,1,0,-0.0999999999999999,-0.0999999999999999,             127P    145
1.11022302462516D-16,1.11022302462516D-16,1.,1.,                     127P    146
-4.85000000000001,-9.5,35.5,-4.85000000000001,-8.5,35.5,             127P    147
-0.0999999999999999,1.11022302462516D-16,0.,0.,0.;                   127P    148
126,1,1,0,0,1,0,-4.35,-4.35,-0.5,-0.5,1.,1.,33.65,-9.5,35.5,         129P    149
-4.85000000000001,-9.5,35.5,-4.35,-0.5,0.,0.,0.;                     129P    150
126,2,2,0,0,0,0,-0.785398163397449,-0.785398163397449,               131P    151
-0.785398163397449,0.785398163397448,0.785398163397448,              131P    152
0.785398163397448,1.,0.707106781186548,1.,-9.85000000000001,         131P    153
-9.50000000000001,30.5,-9.85000000000001,-9.50000000000001,35.5,     131P    154
-4.85000000000001,-9.50000000000001,35.5,-0.785398163397449,         131P    155
0.785398163397448,0.,0.,0.;                                          131P    156
126,1,1,0,0,1,0,1.11022302462516D-16,1.11022302462516D-16,0.1,       133P    157
0.1,1.,1.,-9.85,-8.50000000000001,30.5,-9.85,-9.50000000000001,      133P    158
30.5,1.11022302462516D-16,0.1,0.,0.,0.;                              133P    159
126,1,1,0,0,1,0,-4.35,-4.35,-0.5,-0.5,1.,1.,-9.85,                   135P    160
-9.50000000000001,30.5,-9.85,-9.50000000000001,-8.,-4.35,-0.5,       135P    161
0.,0.,0.;                                                            135P    162
128,1,1,1,1,0,0,1,0,0,-0.0109999999999998,-0.0109999999999998,       137P    163
2.511,2.511,-0.101,-0.101,0.00100000000000001,                       137P    164
0.00100000000000001,1.,1.,1.,1.,27.,-9.51000000000001,-1.36,27.,     137P    165
-9.51000000000001,23.86,27.,-8.49000000000001,-1.36,27.,             137P    166
-8.49000000000001,23.86,-0.0109999999999998,2.511,-0.101,            137P    167
0.00100000000000001;                                                 137P    168
128,1,1,1,1,0,0,1,0,0,-2.426,-2.426,2.426,2.426,-2.426,-2.426,       139P    169
2.426,2.426,1.,1.,1.,1.,38.66,-8.50000000000001,-13.01,              139P    170
-9.86000000000001,-8.50000000000001,-13.01,38.66,-8.5,35.51,         139P    171
-9.86000000000001,-8.5,35.51,-2.426,2.426,-2.426,2.426;              139P    172
128,1,1,1,1,0,0,1,0,0,-0.0110000000000002,-0.0110000000000002,       141P    173
2.511,2.511,-0.101,-0.101,0.00100000000000013,                       141P    174
0.00100000000000013,1.,1.,1.,1.,1.79999999999999,                    141P    175
-9.51000000000001,23.86,1.79999999999999,-9.51000000000001,          141P    176
-1.36,1.79999999999999,-8.49,23.86,1.79999999999999,-8.49,-1.36,     141P    177
-0.0110000000000002,2.511,-0.101,0.00100000000000013;                141P    178
128,1,1,1,1,0,0,1,0,0,-0.011,-0.011,2.511,2.511,-0.101,-0.101,       143P    179
0.00100000000000011,0.00100000000000011,1.,1.,1.,1.,27.01,           143P    180
-9.51000000000001,23.85,1.78999999999999,-9.51000000000001,          143P    181
23.85,27.01,-8.49,23.85,1.78999999999999,-8.49,23.85,-0.011,         143P    182
2.511,-0.101,0.00100000000000011;                                    143P    183
128,1,1,1,1,0,0,1,0,0,-0.0109999999999998,-0.0109999999999998,       145P    184
2.511,2.511,-0.101,-0.101,0.001,0.001,1.,1.,1.,1.,                   145P    185
1.78999999999999,-9.51000000000001,-1.35,27.01,                      145P    186
-9.51000000000001,-1.35,1.78999999999999,-8.49000000000001,          145P    187
-1.35,27.01,-8.49000000000001,-1.35,-0.0109999999999998,2.511,       145P    188
-0.101,0.001;                                                        145P    189
128,1,2,1,2,0,0,0,0,0,-2.28210343592103D-16,                         147P    190
-2.28210343592103D-16,0.2,0.2,-0.785398163397448,                    147P    191
-0.785398163397448,-0.785398163397448,0.785398163397449,             147P    192
0.785398163397449,0.785398163397449,1.,1.,0.707106781186547,         147P    193
0.707106781186547,1.,1.,-9.85,-9.50000000000001,-8.,-9.85,           147P    194
-8.50000000000001,-8.,-9.85,-9.50000000000001,-13.,-9.85,            147P    195
-8.50000000000001,-13.,-4.85,-9.50000000000001,-13.,-4.85,           147P    196
-8.50000000000001,-13.,-2.28210343592103D-16,0.2,                    147P    197
-0.785398163397448,0.785398163397449;                                147P    198
128,1,1,1,1,0,0,1,0,0,0.499000000000001,0.499000000000001,4.351,     149P    199
4.351,-0.001,-0.001,0.101,0.101,1.,1.,1.,1.,-4.86000000000001,       149P    200
-8.49000000000001,-13.,33.66,-8.49000000000001,-13.,                 149P    201
-4.86000000000001,-9.51000000000001,-13.,33.66,                      149P    202
-9.51000000000001,-13.,0.499000000000001,4.351,-0.001,0.101;         149P    203
128,1,2,1,2,0,0,0,0,0,-2.28210343592103D-16,                         151P    204
-2.28210343592103D-16,0.2,0.2,-0.785398163397448,                    151P    205
-0.785398163397448,-0.785398163397448,0.785398163397448,             151P    206
0.785398163397448,0.785398163397448,1.,1.,0.707106781186548,         151P    207
0.707106781186548,1.,1.,33.65,-9.50000000000001,-13.,33.65,          151P    208
-8.50000000000001,-13.,38.65,-9.50000000000001,-13.,38.65,           151P    209
-8.50000000000001,-13.,38.65,-9.50000000000001,-8.,38.65,            151P    210
-8.50000000000001,-8.,-2.28210343592103D-16,0.2,                     151P    211
-0.785398163397448,0.785398163397448;                                151P    212
128,1,1,1,1,0,0,1,0,0,0.499,0.499,4.351,4.351,                       153P    213
-0.000999999999999981,-0.000999999999999981,0.101,0.101,1.,1.,       153P    214
1.,1.,38.65,-8.49000000000001,-8.01,38.65,-8.49,30.51,38.65,         153P    215
-9.51000000000001,-8.01,38.65,-9.51,30.51,0.499,4.351,               153P    216
-0.000999999999999981,0.101;                                         153P    217
128,1,2,1,2,0,0,0,0,0,-2.22044604925031D-16,                         155P    218
-2.22044604925031D-16,0.2,0.2,-0.785398163397448,                    155P    219
-0.785398163397448,-0.785398163397448,0.785398163397449,             155P    220
0.785398163397449,0.785398163397449,1.,1.,0.707106781186548,         155P    221
0.707106781186548,1.,1.,38.65,-9.50000000000001,30.5,38.65,-8.5,     155P    222
30.5,38.65,-9.50000000000001,35.5,38.65,-8.5,35.5,33.65,             155P    223
-9.50000000000001,35.5,33.65,-8.5,35.5,-2.22044604925031D-16,        155P    224
0.2,-0.785398163397448,0.785398163397449;                            155P    225
128,1,1,1,1,0,0,1,0,0,0.499,0.499,4.351,4.351,-0.001,-0.001,         157P    226
0.101,0.101,1.,1.,1.,1.,33.66,-8.49,35.5,-4.86000000000002,          157P    227
-8.49,35.5,33.66,-9.51,35.5,-4.86000000000002,-9.51,35.5,0.499,      157P    228
4.351,-0.001,0.101;                                                  157P    229
128,1,2,1,2,0,0,0,0,0,-2.22044604925031D-16,                         159P    230
-2.22044604925031D-16,0.2,0.2,-0.785398163397448,                    159P    231
-0.785398163397448,-0.785398163397448,0.785398163397449,             159P    232
0.785398163397449,0.785398163397449,1.,1.,0.707106781186548,         159P    233
0.707106781186548,1.,1.,-4.85000000000001,-9.50000000000001,         159P    234
35.5,-4.85000000000001,-8.5,35.5,-9.85000000000001,                  159P    235
-9.50000000000001,35.5,-9.85000000000001,-8.5,35.5,                  159P    236
-9.85000000000001,-9.50000000000001,30.5,-9.85000000000001,-8.5,     159P    237
30.5,-2.22044604925031D-16,0.2,-0.785398163397448,                   159P    238
0.785398163397449;                                                   159P    239
128,1,1,1,1,0,0,1,0,0,0.499,0.499,4.351,4.351,                       161P    240
-0.00100000000000008,-0.00100000000000008,0.101,0.101,1.,1.,1.,      161P    241
1.,-9.85,-8.49,30.51,-9.85,-8.49000000000001,-8.01,-9.85,            161P    242
-9.51000000000001,30.51,-9.85,-9.51000000000001,-8.01,0.499,         161P    243
4.351,-0.00100000000000008,0.101;                                    161P    244
128,1,1,1,1,0,0,1,0,0,-2.426,-2.426,2.426,2.426,-2.426,-2.426,       163P    245
2.426,2.426,1.,1.,1.,1.,-9.86000000000001,-9.50000000000001,         163P    246
35.51,-9.86000000000001,-9.50000000000001,-13.01,38.66,              163P    247
-9.50000000000001,35.51,38.66,-9.50000000000001,-13.01,-2.426,       163P    248
2.426,-2.426,2.426;                                                  163P    249
502,24,27.,-8.50000000000001,-1.35,27.,-8.50000000000001,23.85,      165P    250
27.,-9.50000000000001,-1.35,27.,-9.50000000000001,23.85,-9.85,       165P    251
-8.50000000000001,-8.,-4.85,-8.50000000000001,-13.,-9.85,            165P    252
-8.50000000000001,30.5,-4.85000000000001,-8.5,35.5,33.65,-8.5,       165P    253
35.5,38.65,-8.5,30.5,38.65,-8.50000000000001,-8.,33.65,              165P    254
-8.50000000000001,-13.,1.79999999999999,-8.50000000000001,-1.35,     165P    255
1.79999999999999,-8.50000000000001,23.85,1.79999999999999,           165P    256
-9.50000000000001,23.85,1.79999999999999,-9.50000000000001,          165P    257
-1.35,-4.85,-9.50000000000001,-13.,-9.85,-9.50000000000001,-8.,      165P    258
33.65,-9.50000000000001,-13.,38.65,-9.50000000000001,-8.,38.65,      165P    259
-9.5,30.5,33.65,-9.5,35.5,-4.85000000000001,-9.5,35.5,-9.85,         165P    260
-9.50000000000001,30.5;                                              165P    261
504,36,65,165,1,165,2,67,165,3,165,1,69,165,4,165,3,71,165,2,        167P    262
165,4,73,165,5,165,6,75,165,5,165,7,77,165,8,165,7,79,165,8,165,     167P    263
9,81,165,10,165,9,83,165,10,165,11,85,165,12,165,11,87,165,12,       167P    264
165,6,89,165,13,165,1,91,165,2,165,14,93,165,14,165,13,95,165,       167P    265
15,165,14,97,165,16,165,15,99,165,13,165,16,101,165,15,165,4,        167P    266
103,165,3,165,16,105,165,17,165,18,107,165,18,165,5,109,165,6,       167P    267
165,17,111,165,19,165,12,113,165,17,165,19,115,165,20,165,19,        167P    268
117,165,11,165,20,119,165,21,165,10,121,165,20,165,21,123,165,       167P    269
22,165,21,125,165,9,165,22,127,165,23,165,8,129,165,22,165,23,       167P    270
131,165,24,165,23,133,165,7,165,24,135,165,24,165,18;                167P    271
406,1,5HBody1;                                                       169P    272
314,62.7450980392157,62.7450980392157,62.7450980392157,13HSteel      171P    273
- Satin;                                                             171P    274
S      1G      2D    172P    274                                        T      1
