                                                                        S      1
,,29HDoor Hinge Eschollbruecken v2,29HDoor Hinge Eschollbruecken v2,7HunG      1
known,7Hunknown,32,38,7,99,15,,1.,2,2HMM,1,0.08,15H20220922.115534,0.01,G      2
10000.,7Hunknown,7Hunknown,11,0,15H20210203.161109;                     G      3
     186       1                                                00000000D      1
     186             -65       1       0                               0D      2
     514       2                                                00010000D      3
     514                       1       1                               0D      4
     510       3                                                00010000D      5
     510             -65       1       1                               0D      6
     510       4                                                00010000D      7
     510             -65       1       1                               0D      8
     510       5                                                00010000D      9
     510             -65       1       1                               0D     10
     510       6                                                00010000D     11
     510             -65       1       1                               0D     12
     510       7                                                00010000D     13
     510             -65       1       1                               0D     14
     510       8                                                00010000D     15
     510             -65       1       1                               0D     16
     508       9                                                00010000D     17
     508                       1       1                               0D     18
     508      10                                                00010000D     19
     508                       1       1                               0D     20
     508      11                                                00010000D     21
     508                       1       1                               0D     22
     508      12                                                00010000D     23
     508                       1       1                               0D     24
     508      13                                                00010000D     25
     508                       1       1                               0D     26
     508      14                                                00010000D     27
     508                       1       1                               0D     28
     508      15                                                00010000D     29
     508                       1       1                               0D     30
     126      16                                                00010000D     31
     126       0               9       0                               0D     32
     126      25                                                00010000D     33
     126       0               3       0                               0D     34
     126      28                                                00010000D     35
     126       0               9       0                               0D     36
     126      37                                                00010000D     37
     126       0               9       0                               0D     38
     126      46                                                00010000D     39
     126       0               2       0                               0D     40
     126      48                                                00010000D     41
     126       0              10       0                               0D     42
     126      58                                                00010000D     43
     126       0               3       0                               0D     44
     126      61                                                00010000D     45
     126       0              10       0                               0D     46
     128      71                                                00010000D     47
     128       0     -65      19       0                               0D     48
     128      90                                                00010000D     49
     128       0     -65      11       0                               0D     50
     128     101                                                00010000D     51
     128       0     -65       3       0                               0D     52
     128     104                                                00010000D     53
     128       0     -65      13       0                               0D     54
     128     117                                                00010000D     55
     128       0     -65       3       0                               0D     56
     128     120                                                00010000D     57
     128       0     -65       3       0                               0D     58
     502     123                                                00010000D     59
     502                       3       1                               0D     60
     504     126                                                00010001D     61
     504                       2       1                               0D     62
     406     128                                                00000000D     63
     406                       1      15                               0D     64
     314     129                                                00000200D     65
     314                       2       0                               0D     66
186,3,1,0,0,1,63;                                                      1P      1
514,6,5,1,7,1,9,1,11,1,13,1,15,1;                                      3P      2
510,47,1,1,17;                                                         5P      3
510,49,1,1,19;                                                         7P      4
510,51,1,1,21;                                                         9P      5
510,53,1,1,23;                                                        11P      6
510,55,2,1,25,27;                                                     13P      7
510,57,1,1,29;                                                        15P      8
508,4,0,61,1,1,0,0,61,2,1,0,0,61,3,1,0,0,61,2,0,0;                    17P      9
508,4,0,61,4,0,0,0,61,5,1,0,0,61,1,0,0,0,61,5,0,0;                    19P     10
508,1,0,61,3,0,0;                                                     21P     11
508,4,0,61,6,0,0,0,61,7,1,0,0,61,8,0,0,0,61,7,0,0;                    23P     12
508,1,0,61,4,1,0;                                                     25P     13
508,1,0,61,6,1,0;                                                     27P     14
508,1,0,61,8,1,0;                                                     29P     15
126,8,2,0,1,0,0,-3.14159265358979,-3.14159265358979,                  31P     16
-3.14159265358979,-1.5707963267949,-1.5707963267949,0.,0.,            31P     17
1.5707963267949,1.5707963267949,3.14159265358979,                     31P     18
3.14159265358979,3.14159265358979,1.,0.707106781186547,1.,            31P     19
0.707106781186547,1.,0.707106781186547,1.,0.707106781186547,1.,       31P     20
-5.,6.12323399573677D-16,2.,-5.,5.,2.,3.06161699786838D-16,5.,        31P     21
2.,5.,5.,2.,5.,0.,2.,5.,-5.,2.,3.06161699786838D-16,-5.,2.,-5.,       31P     22
-5.,2.,-5.,-6.12323399573677D-16,2.,-3.14159265358979,                31P     23
3.14159265358979,0.,0.,0.;                                            31P     24
126,2,2,0,0,0,0,0.,0.,0.,1.5707963267949,1.5707963267949,             33P     25
1.5707963267949,1.,0.707106781186548,1.,-5.,0.,2.,-5.,0.,             33P     26
-6.12323399573677D-17,-3.,0.,0.,0.,1.5707963267949,0.,0.,0.;          33P     27
126,8,2,0,1,0,0,-3.14159265358979,-3.14159265358979,                  35P     28
-3.14159265358979,-1.5707963267949,-1.5707963267949,0.,0.,            35P     29
1.5707963267949,1.5707963267949,3.14159265358979,                     35P     30
3.14159265358979,3.14159265358979,1.,0.707106781186548,1.,            35P     31
0.707106781186548,1.,0.707106781186548,1.,0.707106781186548,1.,       35P     32
-3.,-3.67394039744206D-16,0.,-3.,-3.,0.,1.83697019872103D-16,         35P     33
-3.,0.,3.,-3.,0.,3.,0.,0.,3.,3.,0.,1.83697019872103D-16,3.,0.,        35P     34
-3.,3.,0.,-3.,3.67394039744206D-16,0.,-3.14159265358979,              35P     35
3.14159265358979,0.,0.,0.;                                            35P     36
126,8,2,0,1,0,0,-3.14159265358979,-3.14159265358979,                  37P     37
-3.14159265358979,-1.5707963267949,-1.5707963267949,0.,0.,            37P     38
1.5707963267949,1.5707963267949,3.14159265358979,                     37P     39
3.14159265358979,3.14159265358979,1.,0.707106781186547,1.,            37P     40
0.707106781186547,1.,0.707106781186547,1.,0.707106781186547,1.,       37P     41
-5.,-6.12323399573677D-16,21.,-5.,-5.,21.,3.06161699786838D-16,       37P     42
-5.,21.,5.,-5.,21.,5.,0.,21.,5.,5.,21.,3.06161699786838D-16,5.,       37P     43
21.,-5.,5.,21.,-5.,6.12323399573677D-16,21.,-3.14159265358979,        37P     44
3.14159265358979,0.,0.,0.;                                            37P     45
126,1,1,0,0,1,0,-4.2,-4.2,-0.4,-0.4,1.,1.,-5.,0.,21.,-5.,0.,2.,       39P     46
-4.2,-0.4,0.,0.,0.;                                                   39P     47
126,8,2,0,1,0,0,-3.14159265358979,-3.14159265358979,                  41P     48
-3.14159265358979,-1.5707963267949,-1.5707963267949,0.,0.,            41P     49
1.5707963267949,1.5707963267949,3.14159265358979,                     41P     50
3.14159265358979,3.14159265358979,1.,0.707106781186547,1.,            41P     51
0.707106781186547,1.,0.707106781186547,1.,0.707106781186547,1.,       41P     52
-3.95,4.83735485663205D-16,21.,-3.95,3.95,21.,                        41P     53
2.41867742831602D-16,3.95,21.,3.95,3.95,21.,3.95,0.,21.,3.95,         41P     54
-3.95,21.,2.41867742831602D-16,-3.95,21.,-3.95,-3.95,21.,-3.95,       41P     55
-4.83735485663205D-16,21.,-3.14159265358979,3.14159265358979,0.,      41P     56
0.,0.;                                                                41P     57
126,1,1,0,0,1,0,-5.31645569620253,-5.31645569620253,                  43P     58
-0.506329113924051,-0.506329113924051,1.,1.,-3.95,0.,21.,-3.95,       43P     59
0.,2.,-5.31645569620253,-0.506329113924051,0.,0.,0.;                  43P     60
126,8,2,0,1,0,0,-3.14159265358979,-3.14159265358979,                  45P     61
-3.14159265358979,-1.5707963267949,-1.5707963267949,0.,0.,            45P     62
1.5707963267949,1.5707963267949,3.14159265358979,                     45P     63
3.14159265358979,3.14159265358979,1.,0.707106781186547,1.,            45P     64
0.707106781186547,1.,0.707106781186547,1.,0.707106781186547,1.,       45P     65
-3.95,-4.83735485663205D-16,2.,-3.95,-3.95,2.,                        45P     66
2.41867742831602D-16,-3.95,2.,3.95,-3.95,2.,3.95,0.,2.,3.95,          45P     67
3.95,2.,2.41867742831602D-16,3.95,2.,-3.95,3.95,2.,-3.95,             45P     68
4.83735485663205D-16,2.,-3.14159265358979,3.14159265358979,0.,        45P     69
0.,0.;                                                                45P     70
128,2,8,2,2,0,1,0,0,1,-1.5707963267949,-1.5707963267949,              47P     71
-1.5707963267949,0.,0.,0.,-3.14159265358979,-3.14159265358979,        47P     72
-3.14159265358979,-1.5707963267949,-1.5707963267949,0.,0.,            47P     73
1.5707963267949,1.5707963267949,3.14159265358979,                     47P     74
3.14159265358979,3.14159265358979,1.,0.707106781186548,1.,            47P     75
0.707106781186548,0.500000000000001,0.707106781186548,1.,             47P     76
0.707106781186548,1.,0.707106781186548,0.500000000000001,             47P     77
0.707106781186548,1.,0.707106781186548,1.,0.707106781186548,          47P     78
0.500000000000001,0.707106781186548,1.,0.707106781186548,1.,          47P     79
0.707106781186548,0.500000000000001,0.707106781186548,1.,             47P     80
0.707106781186548,1.,-5.,0.,2.,-5.,0.,-6.12323399573677D-17,-3.,      47P     81
0.,0.,-5.,-5.,2.,-5.,-5.,-6.12323399573676D-17,-3.,-3.,0.,0.,         47P     82
-5.,2.,0.,-5.,0.,0.,-3.,0.,5.,-5.,2.,5.,-5.,                          47P     83
6.12323399573676D-17,3.,-3.,0.,5.,0.,2.,5.,0.,                        47P     84
6.12323399573677D-17,3.,0.,0.,5.,5.,2.,5.,5.,                         47P     85
6.12323399573676D-17,3.,3.,0.,0.,5.,2.,0.,5.,0.,0.,3.,0.,-5.,5.,      47P     86
2.,-5.,5.,-6.12323399573676D-17,-3.,3.,0.,-5.,0.,2.,-5.,0.,           47P     87
-6.12323399573677D-17,-3.,0.,0.,-1.5707963267949,0.,                  47P     88
-3.14159265358979,3.14159265358979;                                   47P     89
128,1,8,1,2,0,1,0,0,1,0.4,0.4,4.2,4.2,-3.14159265358979,              49P     90
-3.14159265358979,-3.14159265358979,-1.5707963267949,                 49P     91
-1.5707963267949,0.,0.,1.5707963267949,1.5707963267949,               49P     92
3.14159265358979,3.14159265358979,3.14159265358979,1.,1.,             49P     93
0.707106781186548,0.707106781186548,1.,1.,0.707106781186548,          49P     94
0.707106781186548,1.,1.,0.707106781186548,0.707106781186548,1.,       49P     95
1.,0.707106781186548,0.707106781186548,1.,1.,-5.,0.,21.,-5.,0.,       49P     96
2.,-5.,-5.,21.,-5.,-5.,2.,0.,-5.,21.,0.,-5.,2.,5.,-5.,21.,5.,         49P     97
-5.,2.,5.,0.,21.,5.,0.,2.,5.,5.,21.,5.,5.,2.,0.,5.,21.,0.,5.,2.,      49P     98
-5.,5.,21.,-5.,5.,2.,-5.,0.,21.,-5.,0.,2.,0.4,4.2,                    49P     99
-3.14159265358979,3.14159265358979;                                   49P    100
128,1,1,1,1,0,0,1,0,0,-0.301,-0.301,0.301,0.301,-0.301,-0.301,        51P    101
0.301,0.301,1.,1.,1.,1.,3.01,-3.01,0.,-3.01,-3.01,0.,3.01,3.01,       51P    102
0.,-3.01,3.01,0.,-0.301,0.301,-0.301,0.301;                           51P    103
128,1,8,1,2,0,1,0,0,1,0.506329113924051,0.506329113924051,            53P    104
5.31645569620253,5.31645569620253,-3.14159265358979,                  53P    105
-3.14159265358979,-3.14159265358979,-1.5707963267949,                 53P    106
-1.5707963267949,0.,0.,1.5707963267949,1.5707963267949,               53P    107
3.14159265358979,3.14159265358979,3.14159265358979,1.,1.,             53P    108
0.707106781186548,0.707106781186548,1.,1.,0.707106781186548,          53P    109
0.707106781186548,1.,1.,0.707106781186548,0.707106781186548,1.,       53P    110
1.,0.707106781186548,0.707106781186548,1.,1.,-3.95,0.,2.,-3.95,       53P    111
0.,21.,-3.95,-3.95,2.,-3.95,-3.95,21.,0.,-3.95,2.,0.,-3.95,21.,       53P    112
3.95,-3.95,2.,3.95,-3.95,21.,3.95,0.,2.,3.95,0.,21.,3.95,3.95,        53P    113
2.,3.95,3.95,21.,0.,3.95,2.,0.,3.95,21.,-3.95,3.95,2.,-3.95,          53P    114
3.95,21.,-3.95,0.,2.,-3.95,0.,21.,0.506329113924051,                  53P    115
5.31645569620253,-3.14159265358979,3.14159265358979;                  53P    116
128,1,1,1,1,0,0,1,0,0,-0.501,-0.501,0.501,0.501,-0.501,-0.501,        55P    117
0.501,0.501,1.,1.,1.,1.,-5.01,-5.01,21.,5.01,-5.01,21.,-5.01,         55P    118
5.01,21.,5.01,5.01,21.,-0.501,0.501,-0.501,0.501;                     55P    119
128,1,1,1,1,0,0,1,0,0,-0.396,-0.396,0.396,0.396,-0.396,-0.396,        57P    120
0.396,0.396,1.,1.,1.,1.,-3.96,-3.96,2.,3.96,-3.96,2.,-3.96,3.96,      57P    121
2.,3.96,3.96,2.,-0.396,0.396,-0.396,0.396;                            57P    122
502,5,-5.,6.12323399573677D-16,2.,-3.,-3.67394039744206D-16,0.,       59P    123
-5.,-6.12323399573677D-16,21.,-3.95,-4.83735485663205D-16,21.,        59P    124
-3.95,-4.83735485663205D-16,2.;                                       59P    125
504,8,31,59,1,59,1,33,59,1,59,2,35,59,2,59,2,37,59,3,59,3,39,59,      61P    126
3,59,1,41,59,4,59,4,43,59,4,59,5,45,59,5,59,5;                        61P    127
406,1,5HBody1;                                                        63P    128
314,62.7450980392157,62.7450980392157,62.7450980392157,13HSteel       65P    129
- Satin;                                                              65P    130
S      1G      3D     66P    130                                        T      1
