                                                                        S      1
,,17HFlystop Anchor v7,17HFlystop Anchor v7,7Hunknown,7Hunknown,32,38,7,G      1
99,15,,1.,2,2HMM,1,0.08,15H20220922.115004,0.01,10000.,7Hunknown,7HunknoG      2
wn,11,0,15H20220419.155502;                                             G      3
     186       1                                                00000000D      1
     186            -223       1       0                               0D      2
     514       2                                                00010000D      3
     514                       2       1                               0D      4
     510       4                                                00010000D      5
     510            -223       1       1                               0D      6
     510       5                                                00010000D      7
     510            -223       1       1                               0D      8
     510       6                                                00010000D      9
     510            -223       1       1                               0D     10
     510       7                                                00010000D     11
     510            -223       1       1                               0D     12
     510       8                                                00010000D     13
     510            -223       1       1                               0D     14
     510       9                                                00010000D     15
     510            -223       1       1                               0D     16
     510      10                                                00010000D     17
     510            -223       1       1                               0D     18
     510      11                                                00010000D     19
     510            -223       1       1                               0D     20
     510      12                                                00010000D     21
     510            -223       1       1                               0D     22
     510      13                                                00010000D     23
     510            -223       1       1                               0D     24
     510      14                                                00010000D     25
     510            -223       1       1                               0D     26
     510      15                                                00010000D     27
     510            -223       1       1                               0D     28
     510      16                                                00010000D     29
     510            -223       1       1                               0D     30
     510      17                                                00010000D     31
     510            -223       1       1                               0D     32
     510      18                                                00010000D     33
     510            -223       1       1                               0D     34
     510      19                                                00010000D     35
     510            -223       1       1                               0D     36
     510      20                                                00010000D     37
     510            -223       1       1                               0D     38
     510      21                                                00010000D     39
     510            -223       1       1                               0D     40
     508      22                                                00010000D     41
     508                       1       1                               0D     42
     508      23                                                00010000D     43
     508                       3       1                               0D     44
     508      26                                                00010000D     45
     508                       1       1                               0D     46
     508      27                                                00010000D     47
     508                       1       1                               0D     48
     508      28                                                00010000D     49
     508                       1       1                               0D     50
     508      29                                                00010000D     51
     508                       1       1                               0D     52
     508      30                                                00010000D     53
     508                       1       1                               0D     54
     508      31                                                00010000D     55
     508                       1       1                               0D     56
     508      32                                                00010000D     57
     508                       1       1                               0D     58
     508      33                                                00010000D     59
     508                       1       1                               0D     60
     508      34                                                00010000D     61
     508                       1       1                               0D     62
     508      35                                                00010000D     63
     508                       1       1                               0D     64
     508      36                                                00010000D     65
     508                       1       1                               0D     66
     508      37                                                00010000D     67
     508                       1       1                               0D     68
     508      38                                                00010000D     69
     508                       1       1                               0D     70
     508      39                                                00010000D     71
     508                       1       1                               0D     72
     508      40                                                00010000D     73
     508                       1       1                               0D     74
     508      41                                                00010000D     75
     508                       1       1                               0D     76
     508      42                                                00010000D     77
     508                       1       1                               0D     78
     508      43                                                00010000D     79
     508                       1       1                               0D     80
     508      44                                                00010000D     81
     508                       1       1                               0D     82
     508      45                                                00010000D     83
     508                       3       1                               0D     84
     126      48                                                00010000D     85
     126       0               5       0                               0D     86
     126      53                                                00010000D     87
     126       0               2       0                               0D     88
     126      55                                                00010000D     89
     126       0               5       0                               0D     90
     126      60                                                00010000D     91
     126       0               2       0                               0D     92
     126      62                                                00010000D     93
     126       0               2       0                               0D     94
     126      64                                                00010000D     95
     126       0               2       0                               0D     96
     126      66                                                00010000D     97
     126       0               2       0                               0D     98
     126      68                                                00010000D     99
     126       0               4       0                               0D    100
     126      72                                                00010000D    101
     126       0               2       0                               0D    102
     126      74                                                00010000D    103
     126       0               2       0                               0D    104
     126      76                                                00010000D    105
     126       0               2       0                               0D    106
     126      78                                                00010000D    107
     126       0               2       0                               0D    108
     126      80                                                00010000D    109
     126       0               5       0                               0D    110
     126      85                                                00010000D    111
     126       0               3       0                               0D    112
     126      88                                                00010000D    113
     126       0               3       0                               0D    114
     126      91                                                00010000D    115
     126       0               2       0                               0D    116
     126      93                                                00010000D    117
     126       0               2       0                               0D    118
     126      95                                                00010000D    119
     126       0               4       0                               0D    120
     126      99                                                00010000D    121
     126       0               2       0                               0D    122
     126     101                                                00010000D    123
     126       0               2       0                               0D    124
     126     103                                                00010000D    125
     126       0               2       0                               0D    126
     126     105                                                00010000D    127
     126       0               2       0                               0D    128
     126     107                                                00010000D    129
     126       0               5       0                               0D    130
     126     112                                                00010000D    131
     126       0               2       0                               0D    132
     126     114                                                00010000D    133
     126       0               2       0                               0D    134
     126     116                                                00010000D    135
     126       0               2       0                               0D    136
     126     118                                                00010000D    137
     126       0               8       0                               0D    138
     126     126                                                00010000D    139
     126       0               2       0                               0D    140
     126     128                                                00010000D    141
     126       0               5       0                               0D    142
     126     133                                                00010000D    143
     126       0               2       0                               0D    144
     126     135                                                00010000D    145
     126       0               5       0                               0D    146
     126     140                                                00010000D    147
     126       0               2       0                               0D    148
     126     142                                                00010000D    149
     126       0               2       0                               0D    150
     126     144                                                00010000D    151
     126       0               2       0                               0D    152
     126     146                                                00010000D    153
     126       0               2       0                               0D    154
     126     148                                                00010000D    155
     126       0               5       0                               0D    156
     126     153                                                00010000D    157
     126       0               2       0                               0D    158
     126     155                                                00010000D    159
     126       0               2       0                               0D    160
     126     157                                                00010000D    161
     126       0               5       0                               0D    162
     126     162                                                00010000D    163
     126       0               2       0                               0D    164
     126     164                                                00010000D    165
     126       0               8       0                               0D    166
     126     172                                                00010000D    167
     126       0               2       0                               0D    168
     126     174                                                00010000D    169
     126       0               2       0                               0D    170
     126     176                                                00010000D    171
     126       0               2       0                               0D    172
     126     178                                                00010000D    173
     126       0               2       0                               0D    174
     126     180                                                00010000D    175
     126       0               2       0                               0D    176
     126     182                                                00010000D    177
     126       0               3       0                               0D    178
     126     185                                                00010000D    179
     126       0               2       0                               0D    180
     128     187                                                00010000D    181
     128       0    -223       7       0                               0D    182
     128     194                                                00010000D    183
     128       0    -223       3       0                               0D    184
     128     197                                                00010000D    185
     128       0    -223       4       0                               0D    186
     128     201                                                00010000D    187
     128       0    -223       6       0                               0D    188
     128     207                                                00010000D    189
     128       0    -223       3       0                               0D    190
     128     210                                                00010000D    191
     128       0    -223       8       0                               0D    192
     128     218                                                00010000D    193
     128       0    -223       3       0                               0D    194
     128     221                                                00010000D    195
     128       0    -223       3       0                               0D    196
     128     224                                                00010000D    197
     128       0    -223       7       0                               0D    198
     128     231                                                00010000D    199
     128       0    -223       3       0                               0D    200
     128     234                                                00010000D    201
     128       0    -223       7       0                               0D    202
     128     241                                                00010000D    203
     128       0    -223      11       0                               0D    204
     128     252                                                00010000D    205
     128       0    -223       4       0                               0D    206
     128     256                                                00010000D    207
     128       0    -223       3       0                               0D    208
     128     259                                                00010000D    209
     128       0    -223       3       0                               0D    210
     128     262                                                00010000D    211
     128       0    -223       5       0                               0D    212
     128     267                                                00010000D    213
     128       0    -223       3       0                               0D    214
     128     270                                                00010000D    215
     128       0    -223       3       0                               0D    216
     502     273                                                00010000D    217
     502                       7       1                               0D    218
     504     280                                                00010001D    219
     504                      14       1                               0D    220
     406     294                                                00000000D    221
     406                       1      15                               0D    222
     314     295                                                00000200D    223
     314                       2       0                               0D    224
186,3,1,0,0,1,221;                                                     1P      1
514,18,5,1,7,1,9,1,11,1,13,1,15,1,17,1,19,1,21,1,23,1,25,1,27,1,       3P      2
29,1,31,1,33,1,35,1,37,1,39,1;                                         3P      3
510,181,1,1,41;                                                        5P      4
510,183,1,1,43;                                                        7P      5
510,185,1,1,45;                                                        9P      6
510,187,1,1,47;                                                       11P      7
510,189,1,1,49;                                                       13P      8
510,191,1,1,51;                                                       15P      9
510,193,3,1,53,55,57;                                                 17P     10
510,195,1,1,59;                                                       19P     11
510,197,1,1,61;                                                       21P     12
510,199,1,1,63;                                                       23P     13
510,201,1,1,65;                                                       25P     14
510,203,1,1,67;                                                       27P     15
510,205,1,1,69;                                                       29P     16
510,207,3,1,71,73,75;                                                 31P     17
510,209,1,1,77;                                                       33P     18
510,211,1,1,79;                                                       35P     19
510,213,1,1,81;                                                       37P     20
510,215,1,1,83;                                                       39P     21
508,4,0,219,1,1,0,0,219,2,1,0,0,219,3,1,0,0,219,4,1,0;                41P     22
508,11,0,219,3,0,0,0,219,5,1,0,0,219,6,1,0,0,219,7,1,0,0,219,8,       43P     23
0,0,0,219,9,1,0,0,219,10,1,0,0,219,11,1,0,0,219,12,1,0,0,219,13,      43P     24
0,0,0,219,14,1,0;                                                     43P     25
508,4,0,219,2,0,0,0,219,15,0,0,0,219,16,0,0,0,219,5,0,0;              45P     26
508,4,0,219,8,1,0,0,219,17,1,0,0,219,18,1,0,0,219,19,1,0;             47P     27
508,4,0,219,17,0,0,0,219,7,0,0,0,219,20,1,0,0,219,21,0,0;             49P     28
508,4,0,219,13,1,0,0,219,22,1,0,0,219,23,1,0,0,219,24,1,0;            51P     29
508,4,0,219,22,0,0,0,219,12,0,0,0,219,25,1,0,0,219,26,0,0;            53P     30
508,1,0,219,27,1,0;                                                   55P     31
508,4,0,219,28,1,0,0,219,29,1,0,0,219,30,1,0,0,219,31,1,0;            57P     32
508,4,0,219,28,0,0,0,219,32,1,0,0,219,33,0,0,0,219,34,0,0;            59P     33
508,4,0,219,31,0,0,0,219,35,1,0,0,219,36,0,0,0,219,32,0,0;            61P     34
508,4,0,219,30,0,0,0,219,37,1,0,0,219,38,0,0,0,219,35,0,0;            63P     35
508,4,0,219,29,0,0,0,219,34,1,0,0,219,39,0,0,0,219,37,0,0;            65P     36
508,4,0,219,27,0,0,0,219,40,1,0,0,219,41,0,0,0,219,40,0,0;            67P     37
508,4,0,219,19,0,0,0,219,42,0,0,0,219,43,0,0,0,219,9,0,0;             69P     38
508,4,0,219,10,0,0,0,219,43,1,0,0,219,44,0,0,0,219,45,0,0;            71P     39
508,4,0,219,33,1,0,0,219,36,1,0,0,219,38,1,0,0,219,39,1,0;            73P     40
508,1,0,219,41,1,0;                                                   75P     41
508,4,0,219,11,0,0,0,219,45,1,0,0,219,46,0,0,0,219,25,0,0;            77P     42
508,4,0,219,4,0,0,0,219,14,0,0,0,219,24,0,0,0,219,47,0,0;             79P     43
508,4,0,219,6,0,0,0,219,16,1,0,0,219,48,0,0,0,219,20,0,0;             81P     44
508,11,0,219,1,0,0,0,219,47,1,0,0,219,23,0,0,0,219,26,1,0,0,219,      83P     45
46,1,0,0,219,44,1,0,0,219,42,1,0,0,219,18,0,0,0,219,21,1,0,0,         83P     46
219,48,1,0,0,219,15,1,0;                                              83P     47
126,2,2,0,0,0,0,-0.785398163397449,-0.785398163397449,                85P     48
-0.785398163397449,0.785398163397448,0.785398163397448,               85P     49
0.785398163397448,1.,0.707106781186548,1.,19.,                        85P     50
5.55111512312578D-16,10.,20.,4.5102810375397D-16,10.,20.,-1.,         85P     51
10.,-0.785398163397449,0.785398163397448,0.,0.,0.;                    85P     52
126,1,1,0,0,1,0,-1.,-1.,0.,0.,1.,1.,20.,-1.,10.,20.,-1.,0.,-1.,       87P     53
0.,0.,0.,0.;                                                          87P     54
126,2,2,0,0,0,0,-0.785398163397448,-0.785398163397448,                89P     55
-0.785398163397448,0.785398163397449,0.785398163397449,               89P     56
0.785398163397449,1.,0.707106781186548,1.,20.,-1.,0.,20.,             89P     57
4.5102810375397D-16,0.,19.,5.55111512312578D-16,0.,                   89P     58
-0.785398163397448,0.785398163397449,0.,0.,0.;                        89P     59
126,1,1,0,0,1,0,0.,0.,1.,1.,1.,1.,19.,0.,0.,19.,0.,10.,0.,1.,0.,      91P     60
0.,0.;                                                                91P     61
126,1,1,0,0,1,0,0.1,0.1,1.4,1.4,1.,1.,20.,-1.,0.,20.,-14.,0.,         93P     62
0.1,1.4,0.,0.,0.;                                                     93P     63
126,1,1,0,0,1,0,0.,0.,0.2,0.2,1.,1.,20.,-14.,0.,18.,-14.,0.,0.,       95P     64
0.2,0.,0.,0.;                                                         95P     65
126,1,1,0,0,1,0,0.,0.,1.,1.,1.,1.,18.,-14.,0.,18.,-4.,0.,0.,1.,       97P     66
0.,0.,0.;                                                             97P     67
126,2,2,0,0,0,0,-0.785398163397449,-0.785398163397449,                99P     68
-0.785398163397449,0.785398163397448,0.785398163397448,               99P     69
0.785398163397448,1.,0.707106781186548,1.,16.,-2.,0.,18.,-2.,0.,      99P     70
18.,-4.,0.,-0.785398163397449,0.785398163397448,0.,0.,0.;             99P     71
126,1,1,0,0,1,0,0.2,0.2,2.,2.,1.,1.,16.,-2.,0.,-2.,-2.,0.,0.2,       101P     72
2.,0.,0.,0.;                                                         101P     73
126,1,1,0,0,1,0,-0.2,-0.2,3.2,3.2,1.,1.,-2.,-2.,0.,-2.,32.,0.,       103P     74
-0.2,3.2,0.,0.,0.;                                                   103P     75
126,1,1,0,0,1,0,0.,0.,0.2,0.2,1.,1.,-2.,32.,0.,0.,32.,0.,0.,0.2,     105P     76
0.,0.,0.;                                                            105P     77
126,1,1,0,0,1,0,0.,0.,3.,3.,1.,1.,0.,32.,0.,0.,2.,0.,0.,3.,0.,       107P     78
0.,0.;                                                               107P     79
126,2,2,0,0,0,0,-0.785398163397448,-0.785398163397448,               109P     80
-0.785398163397448,0.785398163397449,0.785398163397449,              109P     81
0.785398163397449,1.,0.707106781186547,1.,2.,0.,0.,                  109P     82
-2.15105711021124D-15,0.,0.,-5.55111512312578D-16,2.,0.,             109P     83
-0.785398163397448,0.785398163397449,0.,0.,0.;                       109P     84
126,1,1,0,0,1,0,-1.6,-1.6,0.0999999999999999,0.0999999999999999,     111P     85
1.,1.,2.,2.95822839457879D-30,0.,19.,-1.84889274661174D-31,0.,       111P     86
-1.6,0.0999999999999999,0.,0.,0.;                                    111P     87
126,1,1,0,0,1,0,-1.4,-1.4,-0.0999999999999999,                       113P     88
-0.0999999999999999,1.,1.,20.,-14.,10.,20.,-1.,10.,-1.4,             113P     89
-0.0999999999999999,0.,0.,0.;                                        113P     90
126,1,1,0,0,1,0,0.,0.,1.,1.,1.,1.,20.,-14.,0.,20.,-14.,10.,0.,       115P     91
1.,0.,0.,0.;                                                         115P     92
126,1,1,0,0,1,0,0.,0.,1.,1.,1.,1.,18.,-4.,0.,18.,-4.,10.,0.,1.,      117P     93
0.,0.,0.;                                                            117P     94
126,2,2,0,0,0,0,-0.785398163397448,-0.785398163397448,               119P     95
-0.785398163397448,0.785398163397449,0.785398163397449,              119P     96
0.785398163397449,1.,0.707106781186548,1.,18.,-4.,10.,18.,-2.,       119P     97
10.,16.,-2.,10.,-0.785398163397448,0.785398163397449,0.,0.,0.;       119P     98
126,1,1,0,0,1,0,-1.,-1.,0.,0.,1.,1.,16.,-2.,10.,16.,-2.,0.,-1.,      121P     99
0.,0.,0.,0.;                                                         121P    100
126,1,1,0,0,1,0,0.,0.,1.,1.,1.,1.,18.,-14.,0.,18.,-14.,10.,0.,       123P    101
1.,0.,0.,0.;                                                         123P    102
126,1,1,0,0,1,0,-1.,-1.,0.,0.,1.,1.,18.,-4.,10.,18.,-14.,10.,        125P    103
-1.,0.,0.,0.,0.;                                                     125P    104
126,1,1,0,0,1,0,0.,0.,1.,1.,1.,1.,0.,2.,0.,0.,2.,10.,0.,1.,0.,       127P    105
0.,0.;                                                               127P    106
126,2,2,0,0,0,0,-0.785398163397449,-0.785398163397449,               129P    107
-0.785398163397449,0.785398163397448,0.785398163397448,              129P    108
0.785398163397448,1.,0.707106781186547,1.,-5.55111512312578D-16,     129P    109
2.,10.,-2.15105711021124D-15,0.,10.,2.,0.,10.,                       129P    110
-0.785398163397449,0.785398163397448,0.,0.,0.;                       129P    111
126,1,1,0,0,1,0,-1.,-1.,0.,0.,1.,1.,2.,0.,10.,2.,0.,0.,-1.,0.,       131P    112
0.,0.,0.;                                                            131P    113
126,1,1,0,0,1,0,0.,0.,1.,1.,1.,1.,0.,32.,0.,0.,32.,10.,0.,1.,0.,     133P    114
0.,0.;                                                               133P    115
126,1,1,0,0,1,0,-3.,-3.,0.,0.,1.,1.,0.,2.,10.,0.,32.,10.,-3.,0.,     135P    116
0.,0.,0.;                                                            135P    117
126,8,2,0,1,0,0,-3.14159265358979,-3.14159265358979,                 137P    118
-3.14159265358979,-1.5707963267949,-1.5707963267949,0.,0.,           137P    119
1.5707963267949,1.5707963267949,3.14159265358979,                    137P    120
3.14159265358979,3.14159265358979,1.,0.707106781186542,1.,           137P    121
0.707106781186542,1.,0.707106781186542,1.,0.707106781186542,1.,      137P    122
0.,26.,5.,0.,26.,6.,0.,27.,6.,0.,28.,6.,0.,28.,5.,0.,28.,4.,0.,      137P    123
27.,4.,0.,26.,4.,0.,26.,5.,-3.14159265358979,3.14159265358979,       137P    124
0.,0.,0.;                                                            137P    125
126,1,1,0,0,1,0,-0.75,-0.75,0.25,0.25,1.,1.,0.,15.,4.,0.,5.,4.,      139P    126
-0.75,0.25,0.,0.,0.;                                                 139P    127
126,4,2,0,0,0,0,1.5707963267949,1.5707963267949,1.5707963267949,     141P    128
3.14159265358979,3.14159265358979,4.71238898038469,                  141P    129
4.71238898038469,4.71238898038469,1.,0.707106781186547,1.,           141P    130
0.707106781186547,1.,0.,5.,4.,0.,4.,4.,0.,4.,5.,0.,4.,6.,0.,5.,      141P    131
6.,1.5707963267949,4.71238898038469,0.,0.,0.;                        141P    132
126,1,1,0,0,1,0,0.25,0.25,1.25,1.25,1.,1.,0.,5.,6.,0.,15.,6.,        143P    133
0.25,1.25,0.,0.,0.;                                                  143P    134
126,4,2,0,0,0,0,-1.5707963267949,-1.5707963267949,                   145P    135
-1.5707963267949,0.,0.,1.5707963267949,1.5707963267949,              145P    136
1.5707963267949,1.,0.707106781186549,1.,0.707106781186549,1.,0.,     145P    137
15.,6.,0.,16.,6.,0.,16.,5.,0.,16.,4.,0.,15.,4.,-1.5707963267949,     145P    138
1.5707963267949,0.,0.,0.;                                            145P    139
126,1,1,0,0,1,0,0.,0.,0.2,0.2,1.,1.,0.,15.,4.,-2.,15.,4.,0.,0.2,     147P    140
0.,0.,0.;                                                            147P    141
126,1,1,0,0,1,0,-1.85,-1.85,-0.85,-0.85,1.,1.,-2.,5.,4.,-2.,15.,     149P    142
4.,-1.85,-0.85,0.,0.,0.;                                             149P    143
126,1,1,0,0,1,0,0.,0.,0.2,0.2,1.,1.,0.,5.,4.,-2.,5.,4.,0.,0.2,       151P    144
0.,0.,0.;                                                            151P    145
126,1,1,0,0,1,0,0.,0.,0.2,0.2,1.,1.,0.,15.,6.,-2.,15.,6.,0.,0.2,     153P    146
0.,0.,0.;                                                            153P    147
126,4,2,0,0,0,0,-1.5707963267949,-1.5707963267949,                   155P    148
-1.5707963267949,0.,0.,1.5707963267949,1.5707963267949,              155P    149
1.5707963267949,1.,0.707106781186549,1.,0.707106781186549,1.,        155P    150
-2.,15.,4.,-2.,16.,4.,-2.,16.,5.,-2.,16.,6.,-2.,15.,6.,              155P    151
-1.5707963267949,1.5707963267949,0.,0.,0.;                           155P    152
126,1,1,0,0,1,0,0.,0.,0.2,0.2,1.,1.,0.,5.,6.,-2.,5.,6.,0.,0.2,       157P    153
0.,0.,0.;                                                            157P    154
126,1,1,0,0,1,0,0.35,0.35,1.35,1.35,1.,1.,-2.,15.,6.,-2.,5.,6.,      159P    155
0.35,1.35,0.,0.,0.;                                                  159P    156
126,4,2,0,0,0,0,1.5707963267949,1.5707963267949,1.5707963267949,     161P    157
3.14159265358979,3.14159265358979,4.71238898038469,                  161P    158
4.71238898038469,4.71238898038469,1.,0.707106781186547,1.,           161P    159
0.707106781186547,1.,-2.,5.,6.,-2.,4.,6.,-2.,4.,5.,-2.,4.,4.,        161P    160
-2.,5.,4.,1.5707963267949,4.71238898038469,0.,0.,0.;                 161P    161
126,1,1,0,0,1,0,0.,0.,2.,2.,1.,1.,0.,26.,5.,-2.,26.,5.,0.,2.,0.,     163P    162
0.,0.;                                                               163P    163
126,8,2,0,1,0,0,-3.14159265358979,-3.14159265358979,                 165P    164
-3.14159265358979,-1.5707963267949,-1.5707963267949,0.,0.,           165P    165
1.5707963267949,1.5707963267949,3.14159265358979,                    165P    166
3.14159265358979,3.14159265358979,1.,0.707106781186542,1.,           165P    167
0.707106781186542,1.,0.707106781186542,1.,0.707106781186542,1.,      165P    168
-2.,26.,5.,-2.,26.,4.,-2.,27.,4.,-2.,28.,4.,-2.,28.,5.,-2.,28.,      165P    169
6.,-2.,27.,6.,-2.,26.,6.,-2.,26.,5.,-3.14159265358979,               165P    170
3.14159265358979,0.,0.,0.;                                           165P    171
126,1,1,0,0,1,0,-2.,-2.,-0.2,-0.2,1.,1.,-2.,-2.,10.,16.,-2.,10.,     167P    172
-2.,-0.2,0.,0.,0.;                                                   167P    173
126,1,1,0,0,1,0,0.,0.,1.,1.,1.,1.,-2.,-2.,0.,-2.,-2.,10.,0.,1.,      169P    174
0.,0.,0.;                                                            169P    175
126,1,1,0,0,1,0,-3.2,-3.2,0.2,0.2,1.,1.,-2.,32.,10.,-2.,-2.,10.,     171P    176
-3.2,0.2,0.,0.,0.;                                                   171P    177
126,1,1,0,0,1,0,0.,0.,1.,1.,1.,1.,-2.,32.,0.,-2.,32.,10.,0.,1.,      173P    178
0.,0.,0.;                                                            173P    179
126,1,1,0,0,1,0,-0.2,-0.2,0.,0.,1.,1.,0.,32.,10.,-2.,32.,10.,        175P    180
-0.2,0.,0.,0.,0.;                                                    175P    181
126,1,1,0,0,1,0,-0.0999999999999999,-0.0999999999999999,1.6,1.6,     177P    182
1.,1.,19.,-1.84889274661174D-31,10.,2.,2.95822839457879D-30,10.,     177P    183
-0.0999999999999999,1.6,0.,0.,0.;                                    177P    184
126,1,1,0,0,1,0,-0.2,-0.2,0.,0.,1.,1.,18.,-14.,10.,20.,-14.,10.,     179P    185
-0.2,0.,0.,0.,0.;                                                    179P    186
128,1,2,1,2,0,0,0,0,0,0.,0.,10.,10.,-0.785398163397448,              181P    187
-0.785398163397448,-0.785398163397448,0.785398163397449,             181P    188
0.785398163397449,0.785398163397449,1.,1.,0.707106781186547,         181P    189
0.707106781186547,1.,1.,20.,-1.,10.,20.,-1.,0.,20.,                  181P    190
-1.38777878078145D-16,10.,20.,-1.38777878078145D-16,0.,19.,          181P    191
6.24500451351651D-16,10.,19.,6.24500451351651D-16,0.,0.,10.,         181P    192
-0.785398163397448,0.785398163397449;                                181P    193
128,1,1,1,1,0,0,1,0,0,-1.101,-1.101,1.101,1.101,-2.301,-2.301,       183P    194
2.301,2.301,1.,1.,1.,1.,20.01,-14.01,0.,-2.01,-14.01,0.,20.01,       183P    195
32.01,0.,-2.01,32.01,0.,-1.101,1.101,-2.301,2.301;                   183P    196
128,1,1,1,1,0,0,1,0,0,-0.00100000000000022,-0.00100000000000022,     185P    197
1.301,1.301,-0.001,-0.001,1.001,1.001,1.,1.,1.,1.,20.,-14.01,        185P    198
-0.01,20.,-0.99,-0.01,20.,-14.01,10.01,20.,-0.99,10.01,              185P    199
-0.00100000000000022,1.301,-0.001,1.001;                             185P    200
128,1,2,1,2,0,0,0,0,0,0.,0.,5.,5.,-0.785398163397448,                187P    201
-0.785398163397448,-0.785398163397448,0.785398163397449,             187P    202
0.785398163397449,0.785398163397449,1.,1.,0.707106781186547,         187P    203
0.707106781186547,1.,1.,18.,-4.,0.,18.,-4.,10.,18.,-2.,0.,18.,       187P    204
-2.,10.,16.,-2.,0.,16.,-2.,10.,0.,5.,-0.785398163397448,             187P    205
0.785398163397449;                                                   187P    206
128,1,1,1,1,0,0,1,0,0,0.199,0.199,1.201,1.201,-0.001,-0.001,         189P    207
1.001,1.001,1.,1.,1.,1.,18.,-3.99,-0.01,18.,-14.01,-0.01,18.,        189P    208
-3.99,10.01,18.,-14.01,10.01,0.199,1.201,-0.001,1.001;               189P    209
128,1,2,1,2,0,0,0,0,0,0.,0.,5.,5.,-0.785398163397449,                191P    210
-0.785398163397449,-0.785398163397449,0.785398163397448,             191P    211
0.785398163397448,0.785398163397448,1.,1.,0.707106781186547,         191P    212
0.707106781186547,1.,1.,-4.16333634234434D-16,2.,0.,                 191P    213
-4.16333634234434D-16,2.,10.,-8.32667268468867D-16,                  191P    214
-1.11022302462516D-15,0.,-8.32667268468867D-16,                      191P    215
-1.11022302462516D-15,10.,2.,0.,0.,2.,0.,10.,0.,5.,                  191P    216
-0.785398163397449,0.785398163397448;                                191P    217
128,1,1,1,1,0,0,1,0,0,0.199,0.199,3.201,3.201,-0.001,-0.001,         193P    218
1.001,1.001,1.,1.,1.,1.,0.,1.99,-0.01,0.,32.01,-0.01,0.,1.99,        193P    219
10.01,0.,32.01,10.01,0.199,3.201,-0.001,1.001;                       193P    220
128,1,1,1,1,0,0,1,0,0,-0.001,-0.001,1.001,1.001,-0.001,-0.001,       195P    221
0.201,0.201,1.,1.,1.,1.,0.01,4.99,4.,0.01,15.01,4.,-2.01,4.99,       195P    222
4.,-2.01,15.01,4.,-0.001,1.001,-0.001,0.201;                         195P    223
128,1,4,1,2,0,0,0,0,0,0.,0.,2.,2.,-1.5707963267949,                  197P    224
-1.5707963267949,-1.5707963267949,0.,0.,1.5707963267949,             197P    225
1.5707963267949,1.5707963267949,1.,1.,0.707106781186548,             197P    226
0.707106781186548,1.,1.,0.707106781186548,0.707106781186548,1.,      197P    227
1.,0.,15.,6.,-2.,15.,6.,0.,16.,6.,-2.,16.,6.,0.,16.,5.,-2.,16.,      197P    228
5.,0.,16.,4.,-2.,16.,4.,0.,15.,4.,-2.,15.,4.,0.,2.,                  197P    229
-1.5707963267949,1.5707963267949;                                    197P    230
128,1,1,1,1,0,0,1,0,0,-0.001,-0.001,1.001,1.001,-0.001,-0.001,       199P    231
0.201,0.201,1.,1.,1.,1.,0.01,15.01,6.,0.01,4.99,6.,-2.01,15.01,      199P    232
6.,-2.01,4.99,6.,-0.001,1.001,-0.001,0.201;                          199P    233
128,1,4,1,2,0,0,0,0,0,0.,0.,2.,2.,1.5707963267949,                   201P    234
1.5707963267949,1.5707963267949,3.14159265358979,                    201P    235
3.14159265358979,4.71238898038469,4.71238898038469,                  201P    236
4.71238898038469,1.,1.,0.707106781186548,0.707106781186548,1.,       201P    237
1.,0.707106781186548,0.707106781186548,1.,1.,0.,5.,4.,-2.,5.,4.,     201P    238
0.,4.,4.,-2.,4.,4.,0.,4.,5.,-2.,4.,5.,0.,4.,6.,-2.,4.,6.,0.,5.,      201P    239
6.,-2.,5.,6.,0.,2.,1.5707963267949,4.71238898038469;                 201P    240
128,1,8,1,2,0,1,0,0,1,0.,0.,2.,2.,-3.14159265358979,                 203P    241
-3.14159265358979,-3.14159265358979,-1.5707963267949,                203P    242
-1.5707963267949,0.,0.,1.5707963267949,1.5707963267949,              203P    243
3.14159265358979,3.14159265358979,3.14159265358979,1.,1.,            203P    244
0.707106781186548,0.707106781186548,1.,1.,0.707106781186548,         203P    245
0.707106781186548,1.,1.,0.707106781186548,0.707106781186548,1.,      203P    246
1.,0.707106781186548,0.707106781186548,1.,1.,0.,26.,5.,-2.,26.,      203P    247
5.,0.,26.,6.,-2.,26.,6.,0.,27.,6.,-2.,27.,6.,0.,28.,6.,-2.,28.,      203P    248
6.,0.,28.,5.,-2.,28.,5.,0.,28.,4.,-2.,28.,4.,0.,27.,4.,-2.,27.,      203P    249
4.,0.,26.,4.,-2.,26.,4.,0.,26.,5.,-2.,26.,5.,0.,2.,                  203P    250
-3.14159265358979,3.14159265358979;                                  203P    251
128,1,1,1,1,0,0,1,0,0,-0.00100000000000006,-0.00100000000000006,     205P    252
1.801,1.801,-0.001,-0.001,1.001,1.001,1.,1.,1.,1.,-2.01,-2.,         205P    253
-0.01,16.01,-2.,-0.01,-2.01,-2.,10.01,16.01,-2.,10.01,               205P    254
-0.00100000000000006,1.801,-0.001,1.001;                             205P    255
128,1,1,1,1,0,0,1,0,0,-0.001,-0.001,3.401,3.401,-0.001,-0.001,       207P    256
1.001,1.001,1.,1.,1.,1.,-2.,32.01,-0.01,-2.,-2.01,-0.01,-2.,         207P    257
32.01,10.01,-2.,-2.01,10.01,-0.001,3.401,-0.001,1.001;               207P    258
128,1,1,1,1,0,0,1,0,0,-0.001,-0.001,0.201,0.201,-0.001,-0.001,       209P    259
1.001,1.001,1.,1.,1.,1.,0.01,32.,-0.01,-2.01,32.,-0.01,0.01,32.,     209P    260
10.01,-2.01,32.,10.01,-0.001,0.201,-0.001,1.001;                     209P    261
128,1,1,1,1,0,0,1,0,0,0.0990000000000001,0.0990000000000001,         211P    262
1.801,1.801,-0.001,-0.001,1.001,1.001,1.,1.,1.,1.,19.01,             211P    263
-1.86738167407786D-31,-0.01,1.99,2.96007728732541D-30,-0.01,         211P    264
19.01,-1.86738167407786D-31,10.01,1.99,2.96007728732541D-30,         211P    265
10.01,0.0990000000000001,1.801,-0.001,1.001;                         211P    266
128,1,1,1,1,0,0,1,0,0,-0.001,-0.001,0.201,0.201,-0.001,-0.001,       213P    267
1.001,1.001,1.,1.,1.,1.,17.99,-14.,-0.01,20.01,-14.,-0.01,17.99,     213P    268
-14.,10.01,20.01,-14.,10.01,-0.001,0.201,-0.001,1.001;               213P    269
128,1,1,1,1,0,0,1,0,0,-1.101,-1.101,1.101,1.101,-2.301,-2.301,       215P    270
2.301,2.301,1.,1.,1.,1.,-2.01,-14.01,10.,20.01,-14.01,10.,-2.01,     215P    271
32.01,10.,20.01,32.01,10.,-1.101,1.101,-2.301,2.301;                 215P    272
502,32,19.,-1.84889274661174D-31,10.,20.,-1.,10.,20.,-1.,0.,19.,     217P    273
-1.84889274661174D-31,0.,20.,-14.,0.,18.,-14.,0.,18.,-4.,0.,16.,     217P    274
-2.,0.,-2.,-2.,0.,-2.,32.,0.,0.,32.,0.,0.,2.,0.,2.,                  217P    275
2.95822839457879D-30,0.,20.,-14.,10.,18.,-4.,10.,16.,-2.,10.,        217P    276
18.,-14.,10.,0.,2.,10.,2.,2.95822839457879D-30,10.,0.,32.,10.,       217P    277
0.,26.,5.,0.,15.,4.,0.,5.,4.,0.,5.,6.,0.,15.,6.,-2.,15.,4.,-2.,      217P    278
5.,4.,-2.,15.,6.,-2.,5.,6.,-2.,26.,5.,-2.,-2.,10.,-2.,32.,10.;       217P    279
504,48,85,217,1,217,2,87,217,2,217,3,89,217,3,217,4,91,217,4,        219P    280
217,1,93,217,3,217,5,95,217,5,217,6,97,217,6,217,7,99,217,8,217,     219P    281
7,101,217,8,217,9,103,217,9,217,10,105,217,10,217,11,107,217,11,     219P    282
217,12,109,217,13,217,12,111,217,13,217,4,113,217,14,217,2,115,      219P    283
217,5,217,14,117,217,7,217,15,119,217,15,217,16,121,217,16,217,      219P    284
8,123,217,6,217,17,125,217,15,217,17,127,217,12,217,18,129,217,      219P    285
18,217,19,131,217,19,217,13,133,217,11,217,20,135,217,18,217,20,     219P    286
137,217,21,217,21,139,217,22,217,23,141,217,23,217,24,143,217,       219P    287
24,217,25,145,217,25,217,22,147,217,22,217,26,149,217,27,217,26,     219P    288
151,217,23,217,27,153,217,25,217,28,155,217,26,217,28,157,217,       219P    289
24,217,29,159,217,28,217,29,161,217,29,217,27,163,217,21,217,30,     219P    290
165,217,30,217,30,167,217,31,217,16,169,217,9,217,31,171,217,32,     219P    291
217,31,173,217,10,217,32,175,217,20,217,32,177,217,1,217,19,179,     219P    292
217,17,217,14;                                                       219P    293
406,1,5HBody1;                                                       221P    294
314,62.7450980392157,62.7450980392157,62.7450980392157,13HSteel      223P    295
- Satin;                                                             223P    296
S      1G      3D    224P    296                                        T      1
