                                                                        S      1
,,15HViesmann Cap v1,15HViesmann Cap v1,7Hunknown,7Hunknown,32,38,7,99, G      1
15,,1.,2,2HMM,1,0.08,15H20220922.115310,0.01,10000.,7Hunknown,7Hunknown,G      2
11,0,15H20190702.145651;                                                G      3
     186       1                                                00000000D      1
     186             -55       1       0                               0D      2
     514       2                                                00010000D      3
     514                       1       1                               0D      4
     510       3                                                00010000D      5
     510             -55       1       1                               0D      6
     510       4                                                00010000D      7
     510             -55       1       1                               0D      8
     510       5                                                00010000D      9
     510             -55       1       1                               0D     10
     510       6                                                00010000D     11
     510             -55       1       1                               0D     12
     510       7                                                00010000D     13
     510             -55       1       1                               0D     14
     508       8                                                00010000D     15
     508                       1       1                               0D     16
     508       9                                                00010000D     17
     508                       1       1                               0D     18
     508      10                                                00010000D     19
     508                       1       1                               0D     20
     508      11                                                00010000D     21
     508                       1       1                               0D     22
     508      12                                                00010000D     23
     508                       1       1                               0D     24
     508      13                                                00010000D     25
     508                       1       1                               0D     26
     126      14                                                00010000D     27
     126       0              10       0                               0D     28
     126      24                                                00010000D     29
     126       0              10       0                               0D     30
     126      34                                                00010000D     31
     126       0               3       0                               0D     32
     126      37                                                00010000D     33
     126       0              10       0                               0D     34
     126      47                                                00010000D     35
     126       0               2       0                               0D     36
     126      49                                                00010000D     37
     126       0               9       0                               0D     38
     128      58                                                00010000D     39
     128       0     -55       3       0                               0D     40
     128      61                                                00010000D     41
     128       0     -55      13       0                               0D     42
     128      74                                                00010000D     43
     128       0     -55      12       0                               0D     44
     128      86                                                00010000D     45
     128       0     -55       3       0                               0D     46
     128      89                                                00010000D     47
     128       0     -55       3       0                               0D     48
     502      92                                                00010000D     49
     502                       3       1                               0D     50
     504      95                                                00010001D     51
     504                       2       1                               0D     52
     406      97                                                00000000D     53
     406                       1      15                               0D     54
     314      98                                                00000200D     55
     314                       2       0                               0D     56
186,3,1,0,0,1,53;                                                      1P      1
514,5,5,1,7,1,9,1,11,1,13,1;                                           3P      2
510,39,1,1,15;                                                         5P      3
510,41,1,1,17;                                                         7P      4
510,43,1,1,19;                                                         9P      5
510,45,2,1,21,23;                                                     11P      6
510,47,1,1,25;                                                        13P      7
508,1,0,51,1,0,0;                                                     15P      8
508,4,0,51,2,0,0,0,51,3,1,0,0,51,1,1,0,0,51,3,0,0;                    17P      9
508,4,0,51,4,0,0,0,51,5,1,0,0,51,6,1,0,0,51,5,0,0;                    19P     10
508,1,0,51,4,1,0;                                                     21P     11
508,1,0,51,2,1,0;                                                     23P     12
508,1,0,51,6,0,0;                                                     25P     13
126,8,2,0,1,0,0,-3.14159265358979,-3.14159265358979,                  27P     14
-3.14159265358979,-1.5707963267949,-1.5707963267949,0.,0.,            27P     15
1.5707963267949,1.5707963267949,3.14159265358979,                     27P     16
3.14159265358979,3.14159265358979,1.,0.707106781186548,1.,            27P     17
0.707106781186548,1.,0.707106781186548,1.,0.707106781186548,1.,       27P     18
-5.25,6.42939569552361D-16,4.,-5.25,5.25,4.,3.2146978477618D-16,      27P     19
5.25,4.,5.25,5.25,4.,5.25,0.,4.,5.25,-5.25,4.,                        27P     20
3.2146978477618D-16,-5.25,4.,-5.25,-5.25,4.,-5.25,                    27P     21
-6.42939569552361D-16,4.,-3.14159265358979,3.14159265358979,0.,       27P     22
0.,0.;                                                                27P     23
126,8,2,0,1,0,0,-3.14159265358979,-3.14159265358979,                  29P     24
-3.14159265358979,-1.5707963267949,-1.5707963267949,0.,0.,            29P     25
1.5707963267949,1.5707963267949,3.14159265358979,                     29P     26
3.14159265358979,3.14159265358979,1.,0.707106781186548,1.,            29P     27
0.707106781186548,1.,0.707106781186548,1.,0.707106781186548,1.,       29P     28
-5.25,6.42939569552361D-16,20.,-5.25,5.25,20.,                        29P     29
3.2146978477618D-16,5.25,20.,5.25,5.25,20.,5.25,0.,20.,5.25,          29P     30
-5.25,20.,3.2146978477618D-16,-5.25,20.,-5.25,-5.25,20.,-5.25,        29P     31
-6.42939569552361D-16,20.,-3.14159265358979,3.14159265358979,0.,      29P     32
0.,0.;                                                                29P     33
126,1,1,0,0,1,0,-3.80952380952381,-3.80952380952381,                  31P     34
-0.761904761904762,-0.761904761904762,1.,1.,-5.25,0.,20.,-5.25,       31P     35
0.,4.,-3.80952380952381,-0.761904761904762,0.,0.,0.;                  31P     36
126,8,2,0,1,0,0,-3.14159265358979,-3.14159265358979,                  33P     37
-3.14159265358979,-1.5707963267949,-1.5707963267949,0.,0.,            33P     38
1.5707963267949,1.5707963267949,3.14159265358979,                     33P     39
3.14159265358979,3.14159265358979,1.,0.707106781186547,1.,            33P     40
0.707106781186547,1.,0.707106781186547,1.,0.707106781186547,1.,       33P     41
-8.5,-1.04094977927525D-15,20.,-8.5,-8.5,20.,                         33P     42
5.20474889637625D-16,-8.5,20.,8.5,-8.5,20.,8.5,0.,20.,8.5,8.5,        33P     43
20.,5.20474889637625D-16,8.5,20.,-8.5,8.5,20.,-8.5,                   33P     44
1.04094977927525D-15,20.,-3.14159265358979,3.14159265358979,0.,       33P     45
0.,0.;                                                                33P     46
126,1,1,0,0,1,0,-2.35294117647059,-2.35294117647059,0.,0.,1.,1.,      35P     47
-8.5,0.,20.,-8.5,0.,0.,-2.35294117647059,0.,0.,0.,0.;                 35P     48
126,8,2,0,1,0,0,-3.14159265358979,-3.14159265358979,                  37P     49
-3.14159265358979,-1.5707963267949,-1.5707963267949,0.,0.,            37P     50
1.5707963267949,1.5707963267949,3.14159265358979,                     37P     51
3.14159265358979,3.14159265358979,1.,0.707106781186547,1.,            37P     52
0.707106781186547,1.,0.707106781186547,1.,0.707106781186547,1.,       37P     53
-8.5,-1.04094977927525D-15,0.,-8.5,-8.5,0.,5.20474889637625D-16,      37P     54
-8.5,0.,8.5,-8.5,0.,8.5,0.,0.,8.5,8.5,0.,5.20474889637625D-16,        37P     55
8.5,0.,-8.5,8.5,0.,-8.5,1.04094977927525D-15,0.,                      37P     56
-3.14159265358979,3.14159265358979,0.,0.,0.;                          37P     57
128,1,1,1,1,0,0,1,0,0,-0.526,-0.526,0.526,0.526,-0.526,-0.526,        39P     58
0.526,0.526,1.,1.,1.,1.,-5.26,-5.26,4.,5.26,-5.26,4.,-5.26,5.26,      39P     59
4.,5.26,5.26,4.,-0.526,0.526,-0.526,0.526;                            39P     60
128,1,8,1,2,0,1,0,0,1,0.761904761904762,0.761904761904762,            41P     61
3.80952380952381,3.80952380952381,-3.14159265358979,                  41P     62
-3.14159265358979,-3.14159265358979,-1.5707963267949,                 41P     63
-1.5707963267949,0.,0.,1.5707963267949,1.5707963267949,               41P     64
3.14159265358979,3.14159265358979,3.14159265358979,1.,1.,             41P     65
0.707106781186548,0.707106781186548,1.,1.,0.707106781186548,          41P     66
0.707106781186548,1.,1.,0.707106781186548,0.707106781186548,1.,       41P     67
1.,0.707106781186548,0.707106781186548,1.,1.,-5.25,0.,4.,-5.25,       41P     68
0.,20.,-5.25,-5.25,4.,-5.25,-5.25,20.,0.,-5.25,4.,0.,-5.25,20.,       41P     69
5.25,-5.25,4.,5.25,-5.25,20.,5.25,0.,4.,5.25,0.,20.,5.25,5.25,        41P     70
4.,5.25,5.25,20.,0.,5.25,4.,0.,5.25,20.,-5.25,5.25,4.,-5.25,          41P     71
5.25,20.,-5.25,0.,4.,-5.25,0.,20.,0.761904761904762,                  41P     72
3.80952380952381,-3.14159265358979,3.14159265358979;                  41P     73
128,1,8,1,2,0,1,0,0,1,0.,0.,2.35294117647059,2.35294117647059,        43P     74
-3.14159265358979,-3.14159265358979,-3.14159265358979,                43P     75
-1.5707963267949,-1.5707963267949,0.,0.,1.5707963267949,              43P     76
1.5707963267949,3.14159265358979,3.14159265358979,                    43P     77
3.14159265358979,1.,1.,0.707106781186548,0.707106781186548,1.,        43P     78
1.,0.707106781186548,0.707106781186548,1.,1.,0.707106781186548,       43P     79
0.707106781186548,1.,1.,0.707106781186548,0.707106781186548,1.,       43P     80
1.,-8.5,0.,20.,-8.5,0.,0.,-8.5,-8.5,20.,-8.5,-8.5,0.,0.,-8.5,         43P     81
20.,0.,-8.5,0.,8.5,-8.5,20.,8.5,-8.5,0.,8.5,0.,20.,8.5,0.,0.,         43P     82
8.5,8.5,20.,8.5,8.5,0.,0.,8.5,20.,0.,8.5,0.,-8.5,8.5,20.,-8.5,        43P     83
8.5,0.,-8.5,0.,20.,-8.5,0.,0.,0.,2.35294117647059,                    43P     84
-3.14159265358979,3.14159265358979;                                   43P     85
128,1,1,1,1,0,0,1,0,0,-0.851,-0.851,0.851,0.851,-0.851,-0.851,        45P     86
0.851,0.851,1.,1.,1.,1.,-8.51,-8.51,20.,8.51,-8.51,20.,-8.51,         45P     87
8.51,20.,8.51,8.51,20.,-0.851,0.851,-0.851,0.851;                     45P     88
128,1,1,1,1,0,0,1,0,0,-0.851,-0.851,0.851,0.851,-0.851,-0.851,        47P     89
0.851,0.851,1.,1.,1.,1.,8.51,-8.51,0.,-8.51,-8.51,0.,8.51,8.51,       47P     90
0.,-8.51,8.51,0.,-0.851,0.851,-0.851,0.851;                           47P     91
502,4,-5.25,-6.42939569552361D-16,4.,-5.25,                           49P     92
-6.42939569552361D-16,20.,-8.5,-1.04094977927525D-15,20.,-8.5,        49P     93
-1.04094977927525D-15,0.;                                             49P     94
504,6,27,49,1,49,1,29,49,2,49,2,31,49,2,49,1,33,49,3,49,3,35,49,      51P     95
3,49,4,37,49,4,49,4;                                                  51P     96
406,1,5HBody1;                                                        53P     97
314,62.7450980392157,62.7450980392157,62.7450980392157,13HSteel       55P     98
- Satin;                                                              55P     99
S      1G      3D     56P     99                                        T      1
