                                                                        S      1
,,15Hcable holder v2,15Hcable holder v2,7Hunknown,7Hunknown,32,38,7,99, G      1
15,,1.,2,2HMM,1,0.08,15H20220922.114909,0.01,10000.,7Hunknown,7Hunknown,G      2
11,0,15H20220126.214528;                                                G      3
     186       1                                                00000000D      1
     186            -199       1       0                               0D      2
     514       2                                                00010000D      3
     514                       2       1                               0D      4
     510       4                                                00010000D      5
     510            -199       1       1                               0D      6
     510       5                                                00010000D      7
     510            -199       1       1                               0D      8
     510       6                                                00010000D      9
     510            -199       1       1                               0D     10
     510       7                                                00010000D     11
     510            -199       1       1                               0D     12
     510       8                                                00010000D     13
     510            -199       1       1                               0D     14
     510       9                                                00010000D     15
     510            -199       1       1                               0D     16
     510      10                                                00010000D     17
     510            -199       1       1                               0D     18
     510      11                                                00010000D     19
     510            -199       1       1                               0D     20
     510      12                                                00010000D     21
     510            -199       1       1                               0D     22
     510      13                                                00010000D     23
     510            -199       1       1                               0D     24
     510      14                                                00010000D     25
     510            -199       1       1                               0D     26
     510      15                                                00010000D     27
     510            -199       1       1                               0D     28
     510      16                                                00010000D     29
     510            -199       1       1                               0D     30
     510      17                                                00010000D     31
     510            -199       1       1                               0D     32
     510      18                                                00010000D     33
     510            -199       1       1                               0D     34
     510      19                                                00010000D     35
     510            -199       1       1                               0D     36
     508      20                                                00010000D     37
     508                       1       1                               0D     38
     508      21                                                00010000D     39
     508                       1       1                               0D     40
     508      22                                                00010000D     41
     508                       1       1                               0D     42
     508      23                                                00010000D     43
     508                       1       1                               0D     44
     508      24                                                00010000D     45
     508                       1       1                               0D     46
     508      25                                                00010000D     47
     508                       1       1                               0D     48
     508      26                                                00010000D     49
     508                       1       1                               0D     50
     508      27                                                00010000D     51
     508                       1       1                               0D     52
     508      28                                                00010000D     53
     508                       1       1                               0D     54
     508      29                                                00010000D     55
     508                       1       1                               0D     56
     508      30                                                00010000D     57
     508                       1       1                               0D     58
     508      31                                                00010000D     59
     508                       1       1                               0D     60
     508      32                                                00010000D     61
     508                       1       1                               0D     62
     508      33                                                00010000D     63
     508                       1       1                               0D     64
     508      34                                                00010000D     65
     508                       1       1                               0D     66
     508      35                                                00010000D     67
     508                       1       1                               0D     68
     508      36                                                00010000D     69
     508                       1       1                               0D     70
     508      37                                                00010000D     71
     508                       1       1                               0D     72
     508      38                                                00010000D     73
     508                       3       1                               0D     74
     508      41                                                00010000D     75
     508                       3       1                               0D     76
     126      44                                                00010000D     77
     126       0               8       0                               0D     78
     126      52                                                00010000D     79
     126       0               2       0                               0D     80
     126      54                                                00010000D     81
     126       0               8       0                               0D     82
     126      62                                                00010000D     83
     126       0              12       0                               0D     84
     126      74                                                00010000D     85
     126       0               3       0                               0D     86
     126      77                                                00010000D     87
     126       0              12       0                               0D     88
     126      89                                                00010000D     89
     126       0               2       0                               0D     90
     126      91                                                00010000D     91
     126       0               2       0                               0D     92
     126      93                                                00010000D     93
     126       0               2       0                               0D     94
     126      95                                                00010000D     95
     126       0               2       0                               0D     96
     126      97                                                00010000D     97
     126       0               2       0                               0D     98
     126      99                                                00010000D     99
     126       0               2       0                               0D    100
     126     101                                                00010000D    101
     126       0               2       0                               0D    102
     126     103                                                00010000D    103
     126       0               2       0                               0D    104
     126     105                                                00010000D    105
     126       0               2       0                               0D    106
     126     107                                                00010000D    107
     126       0               2       0                               0D    108
     126     109                                                00010000D    109
     126       0               2       0                               0D    110
     126     111                                                00010000D    111
     126       0               2       0                               0D    112
     126     113                                                00010000D    113
     126       0               2       0                               0D    114
     126     115                                                00010000D    115
     126       0               2       0                               0D    116
     126     117                                                00010000D    117
     126       0               2       0                               0D    118
     126     119                                                00010000D    119
     126       0               2       0                               0D    120
     126     121                                                00010000D    121
     126       0               2       0                               0D    122
     126     123                                                00010000D    123
     126       0               2       0                               0D    124
     126     125                                                00010000D    125
     126       0               2       0                               0D    126
     126     127                                                00010000D    127
     126       0               2       0                               0D    128
     126     129                                                00010000D    129
     126       0               2       0                               0D    130
     126     131                                                00010000D    131
     126       0               2       0                               0D    132
     126     133                                                00010000D    133
     126       0               2       0                               0D    134
     126     135                                                00010000D    135
     126       0               2       0                               0D    136
     126     137                                                00010000D    137
     126       0               2       0                               0D    138
     126     139                                                00010000D    139
     126       0               2       0                               0D    140
     126     141                                                00010000D    141
     126       0               2       0                               0D    142
     126     143                                                00010000D    143
     126       0               2       0                               0D    144
     126     145                                                00010000D    145
     126       0               2       0                               0D    146
     126     147                                                00010000D    147
     126       0               2       0                               0D    148
     126     149                                                00010000D    149
     126       0               2       0                               0D    150
     126     151                                                00010000D    151
     126       0               2       0                               0D    152
     126     153                                                00010000D    153
     126       0               2       0                               0D    154
     126     155                                                00010000D    155
     126       0               2       0                               0D    156
     126     157                                                00010000D    157
     126       0               2       0                               0D    158
     126     159                                                00010000D    159
     126       0               2       0                               0D    160
     128     161                                                00010000D    161
     128       0    -199      11       0                               0D    162
     128     172                                                00010000D    163
     128       0    -199      20       0                               0D    164
     128     192                                                00010000D    165
     128       0    -199       3       0                               0D    166
     128     195                                                00010000D    167
     128       0    -199       3       0                               0D    168
     128     198                                                00010000D    169
     128       0    -199       3       0                               0D    170
     128     201                                                00010000D    171
     128       0    -199       3       0                               0D    172
     128     204                                                00010000D    173
     128       0    -199       3       0                               0D    174
     128     207                                                00010000D    175
     128       0    -199       4       0                               0D    176
     128     211                                                00010000D    177
     128       0    -199       3       0                               0D    178
     128     214                                                00010000D    179
     128       0    -199       3       0                               0D    180
     128     217                                                00010000D    181
     128       0    -199       3       0                               0D    182
     128     220                                                00010000D    183
     128       0    -199       3       0                               0D    184
     128     223                                                00010000D    185
     128       0    -199       3       0                               0D    186
     128     226                                                00010000D    187
     128       0    -199       3       0                               0D    188
     128     229                                                00010000D    189
     128       0    -199       3       0                               0D    190
     128     232                                                00010000D    191
     128       0    -199       3       0                               0D    192
     502     235                                                00010000D    193
     502                       6       1                               0D    194
     504     241                                                00010001D    195
     504                      12       1                               0D    196
     406     253                                                00000000D    197
     406                       1      15                               0D    198
     314     254                                                00000200D    199
     314                       2       0                               0D    200
186,3,1,0,0,1,197;                                                     1P      1
514,16,5,1,7,1,9,1,11,1,13,1,15,1,17,1,19,1,21,1,23,1,25,1,27,1,       3P      2
29,1,31,1,33,1,35,1;                                                   3P      3
510,161,1,1,37;                                                        5P      4
510,163,1,1,39;                                                        7P      5
510,165,2,1,41,43;                                                     9P      6
510,167,1,1,45;                                                       11P      7
510,169,1,1,47;                                                       13P      8
510,171,1,1,49;                                                       15P      9
510,173,2,1,51,53;                                                    17P     10
510,175,1,1,55;                                                       19P     11
510,177,2,1,57,59;                                                    21P     12
510,179,1,1,61;                                                       23P     13
510,181,1,1,63;                                                       25P     14
510,183,1,1,65;                                                       27P     15
510,185,2,1,67,69;                                                    29P     16
510,187,1,1,71;                                                       31P     17
510,189,1,1,73;                                                       33P     18
510,191,1,1,75;                                                       35P     19
508,4,0,195,1,0,0,0,195,2,1,0,0,195,3,0,0,0,195,2,0,0;                37P     20
508,4,0,195,4,0,0,0,195,5,1,0,0,195,6,0,0,0,195,5,0,0;                39P     21
508,4,0,195,7,0,0,0,195,8,1,0,0,195,9,0,0,0,195,10,0,0;               41P     22
508,1,0,195,4,1,0;                                                    43P     23
508,4,0,195,11,0,0,0,195,10,1,0,0,195,12,0,0,0,195,13,0,0;            45P     24
508,4,0,195,14,0,0,0,195,13,1,0,0,195,15,0,0,0,195,16,0,0;            47P     25
508,4,0,195,17,0,0,0,195,16,1,0,0,195,18,0,0,0,195,19,0,0;            49P     26
508,4,0,195,20,0,0,0,195,19,1,0,0,195,21,0,0,0,195,22,0,0;            51P     27
508,1,0,195,1,1,0;                                                    53P     28
508,4,0,195,23,0,0,0,195,22,1,0,0,195,24,0,0,0,195,25,0,0;            55P     29
508,4,0,195,26,0,0,0,195,25,1,0,0,195,27,0,0,0,195,28,0,0;            57P     30
508,1,0,195,3,1,0;                                                    59P     31
508,4,0,195,29,0,0,0,195,28,1,0,0,195,30,0,0,0,195,31,0,0;            61P     32
508,4,0,195,32,0,0,0,195,31,1,0,0,195,33,0,0,0,195,34,0,0;            63P     33
508,4,0,195,35,0,0,0,195,34,1,0,0,195,36,0,0,0,195,37,0,0;            65P     34
508,4,0,195,38,0,0,0,195,37,1,0,0,195,39,0,0,0,195,40,0,0;            67P     35
508,1,0,195,6,1,0;                                                    69P     36
508,4,0,195,41,0,0,0,195,40,1,0,0,195,42,0,0,0,195,8,0,0;             71P     37
508,12,0,195,42,1,0,0,195,39,1,0,0,195,36,1,0,0,195,33,1,0,0,         73P     38
195,30,1,0,0,195,27,1,0,0,195,24,1,0,0,195,21,1,0,0,195,18,1,0,       73P     39
0,195,15,1,0,0,195,12,1,0,0,195,9,1,0;                                73P     40
508,12,0,195,41,1,0,0,195,7,1,0,0,195,11,1,0,0,195,14,1,0,0,195,      75P     41
17,1,0,0,195,20,1,0,0,195,23,1,0,0,195,26,1,0,0,195,29,1,0,0,         75P     42
195,32,1,0,0,195,35,1,0,0,195,38,1,0;                                 75P     43
126,8,2,0,1,0,0,-3.14159265358979,-3.14159265358979,                  77P     44
-3.14159265358979,-1.5707963267949,-1.5707963267949,0.,0.,            77P     45
1.5707963267949,1.5707963267949,3.14159265358979,                     77P     46
3.14159265358979,3.14159265358979,1.,0.707106781186548,1.,            77P     47
0.707106781186548,1.,0.707106781186548,1.,0.707106781186549,1.,       77P     48
3.5,3.,1.5,3.5,2.,1.5,2.5,2.,1.5,1.5,2.,1.5,1.5,3.,1.5,1.5,4.,        77P     49
1.5,2.5,4.,1.5,3.5,4.,1.5,3.5,3.,1.5,-3.14159265358979,               77P     50
3.14159265358979,0.,0.,0.;                                            77P     51
126,1,1,0,0,1,0,0.,0.,1.5,1.5,1.,1.,3.5,3.,1.5,3.5,3.,0.,0.,1.5,      79P     52
0.,0.,0.;                                                             79P     53
126,8,2,0,1,0,0,-3.14159265358979,-3.14159265358979,                  81P     54
-3.14159265358979,-1.5707963267949,-1.5707963267949,0.,0.,            81P     55
1.5707963267949,1.5707963267949,3.14159265358979,                     81P     56
3.14159265358979,3.14159265358979,1.,0.707106781186549,1.,            81P     57
0.707106781186548,1.,0.707106781186548,1.,0.707106781186548,1.,       81P     58
3.5,3.,0.,3.5,4.,0.,2.5,4.,0.,1.5,4.,0.,1.5,3.,0.,1.5,2.,0.,2.5,      81P     59
2.,0.,3.5,2.,0.,3.5,3.,0.,-3.14159265358979,3.14159265358979,0.,      81P     60
0.,0.;                                                                81P     61
126,8,2,0,1,0,0,-3.14159265358979,-3.14159265358979,                  83P     62
-3.14159265358979,-1.5707963267949,-1.5707963267949,0.,0.,            83P     63
1.5707963267949,1.5707963267949,3.14159265358979,                     83P     64
3.14159265358979,3.14159265358979,1.,0.707106781186549,1.,            83P     65
0.707106781186548,1.,0.707106781186549,1.,0.707106781186549,1.,       83P     66
15.5000002160668,3.00000004470348,1.5,15.5000002160668,               83P     67
2.00000004470348,1.5,14.5000002160668,2.00000004470348,1.5,           83P     68
13.5000002160668,2.00000004470348,1.5,13.5000002160668,               83P     69
3.00000004470348,1.5,13.5000002160668,4.00000004470348,1.5,           83P     70
14.5000002160668,4.00000004470348,1.5,15.5000002160668,               83P     71
4.00000004470348,1.5,15.5000002160668,3.00000004470348,1.5,           83P     72
-3.14159265358979,3.14159265358979,0.,0.,0.;                          83P     73
126,1,1,0,0,1,0,0.,0.,1.5,1.5,1.,1.,15.5000002160668,                 85P     74
3.00000004470348,1.5,15.5000002160668,3.00000004470348,0.,0.,         85P     75
1.5,0.,0.,0.;                                                         85P     76
126,8,2,0,1,0,0,-3.14159265358979,-3.14159265358979,                  87P     77
-3.14159265358979,-1.5707963267949,-1.5707963267949,0.,0.,            87P     78
1.5707963267949,1.5707963267949,3.14159265358979,                     87P     79
3.14159265358979,3.14159265358979,1.,0.707106781186549,1.,            87P     80
0.707106781186549,1.,0.707106781186548,1.,0.707106781186549,1.,       87P     81
15.5000002160668,3.00000004470348,0.,15.5000002160668,                87P     82
4.00000004470348,0.,14.5000002160668,4.00000004470348,0.,             87P     83
13.5000002160668,4.00000004470348,0.,13.5000002160668,                87P     84
3.00000004470348,0.,13.5000002160668,2.00000004470348,0.,             87P     85
14.5000002160668,2.00000004470348,0.,15.5000002160668,                87P     86
2.00000004470348,0.,15.5000002160668,3.00000004470348,0.,             87P     87
-3.14159265358979,3.14159265358979,0.,0.,0.;                          87P     88
126,1,1,0,0,1,0,0.,0.,0.5,0.5,1.,1.,17.,0.,1.5,12.,0.,1.5,0.,         89P     89
0.5,0.,0.,0.;                                                         89P     90
126,1,1,0,0,1,0,0.,0.,0.6,0.6,1.,1.,17.,0.,1.5,17.,6.,1.5,0.,         91P     91
0.6,0.,0.,0.;                                                         91P     92
126,1,1,0,0,1,0,-0.5,-0.5,0.,0.,1.,1.,12.,6.,1.5,17.,6.,1.5,          93P     93
-0.5,0.,0.,0.,0.;                                                     93P     94
126,1,1,0,0,1,0,0.,0.,0.6,0.6,1.,1.,12.,0.,1.5,12.,6.,1.5,0.,         95P     95
0.6,0.,0.,0.;                                                         95P     96
126,1,1,0,0,1,0,-0.25,-0.25,0.15,0.15,1.,1.,12.,0.,1.5,12.,0.,        97P     97
5.5,-0.25,0.15,0.,0.,0.;                                              97P     98
126,1,1,0,0,1,0,-0.15,-0.15,0.25,0.25,1.,1.,12.,6.,5.5,12.,6.,        99P     99
1.5,-0.15,0.25,0.,0.,0.;                                              99P    100
126,1,1,0,0,1,0,0.,0.,0.6,0.6,1.,1.,12.,0.,5.5,12.,6.,5.5,0.,        101P    101
0.6,0.,0.,0.;                                                        101P    102
126,1,1,0,0,1,0,0.,0.,0.7,0.7,1.,1.,12.,0.,5.5,5.,0.,5.5,0.,0.7,     103P    103
0.,0.,0.;                                                            103P    104
126,1,1,0,0,1,0,-0.7,-0.7,0.,0.,1.,1.,5.,6.,5.5,12.,6.,5.5,-0.7,     105P    105
0.,0.,0.,0.;                                                         105P    106
126,1,1,0,0,1,0,0.,0.,0.6,0.6,1.,1.,5.,0.,5.5,5.,6.,5.5,0.,0.6,      107P    107
0.,0.,0.;                                                            107P    108
126,1,1,0,0,1,0,-0.15,-0.15,0.25,0.25,1.,1.,5.,0.,5.5,5.,0.,1.5,     109P    109
-0.15,0.25,0.,0.,0.;                                                 109P    110
126,1,1,0,0,1,0,-0.25,-0.25,0.15,0.15,1.,1.,5.,6.,1.5,5.,6.,5.5,     111P    111
-0.25,0.15,0.,0.,0.;                                                 111P    112
126,1,1,0,0,1,0,0.,0.,0.6,0.6,1.,1.,5.,0.,1.5,5.,6.,1.5,0.,0.6,      113P    113
0.,0.,0.;                                                            113P    114
126,1,1,0,0,1,0,0.,0.,0.5,0.5,1.,1.,5.,0.,1.5,0.,0.,1.5,0.,0.5,      115P    115
0.,0.,0.;                                                            115P    116
126,1,1,0,0,1,0,-0.5,-0.5,0.,0.,1.,1.,0.,6.,1.5,5.,6.,1.5,-0.5,      117P    117
0.,0.,0.,0.;                                                         117P    118
126,1,1,0,0,1,0,0.,0.,0.6,0.6,1.,1.,-2.88889491658085D-33,0.,        119P    119
1.5,-2.88889491658085D-33,6.,1.5,0.,0.6,0.,0.,0.;                    119P    120
126,1,1,0,0,1,0,0.,0.,0.15,0.15,1.,1.,-2.88889491658085D-33,0.,      121P    121
1.5,0.,0.,0.,0.,0.15,0.,0.,0.;                                       121P    122
126,1,1,0,0,1,0,-0.15,-0.15,0.,0.,1.,1.,0.,6.,0.,                    123P    123
-2.88889491658085D-33,6.,1.5,-0.15,0.,0.,0.,0.;                      123P    124
126,1,1,0,0,1,0,0.,0.,0.6,0.6,1.,1.,0.,0.,0.,0.,6.,0.,0.,0.6,0.,     125P    125
0.,0.;                                                               125P    126
126,1,1,0,0,1,0,-0.5,-0.5,0.15,0.15,1.,1.,0.,0.,0.,6.5,0.,0.,        127P    127
-0.5,0.15,0.,0.,0.;                                                  127P    128
126,1,1,0,0,1,0,-0.15,-0.15,0.5,0.5,1.,1.,6.5,6.,0.,0.,6.,0.,        129P    129
-0.15,0.5,0.,0.,0.;                                                  129P    130
126,1,1,0,0,1,0,0.,0.,0.6,0.6,1.,1.,6.5,0.,0.,6.5,6.,0.,0.,0.6,      131P    131
0.,0.,0.;                                                            131P    132
126,1,1,0,0,1,0,0.,0.,0.4,0.4,1.,1.,6.5,0.,0.,6.5,0.,4.,0.,0.4,      133P    133
0.,0.,0.;                                                            133P    134
126,1,1,0,0,1,0,-0.4,-0.4,0.,0.,1.,1.,6.5,6.,4.,6.5,6.,0.,-0.4,      135P    135
0.,0.,0.,0.;                                                         135P    136
126,1,1,0,0,1,0,0.,0.,0.6,0.6,1.,1.,6.5,0.,4.,6.5,6.,4.,0.,0.6,      137P    137
0.,0.,0.;                                                            137P    138
126,1,1,0,0,1,0,0.15,0.15,0.55,0.55,1.,1.,6.5,0.,4.,10.5,0.,4.,      139P    139
0.15,0.55,0.,0.,0.;                                                  139P    140
126,1,1,0,0,1,0,-0.55,-0.55,-0.15,-0.15,1.,1.,10.5,6.,4.,6.5,6.,     141P    141
4.,-0.55,-0.15,0.,0.,0.;                                             141P    142
126,1,1,0,0,1,0,0.,0.,0.6,0.6,1.,1.,10.5,0.,4.,10.5,6.,4.,0.,        143P    143
0.6,0.,0.,0.;                                                        143P    144
126,1,1,0,0,1,0,0.,0.,0.4,0.4,1.,1.,10.5,0.,4.,10.5,0.,0.,0.,        145P    145
0.4,0.,0.,0.;                                                        145P    146
126,1,1,0,0,1,0,-0.4,-0.4,0.,0.,1.,1.,10.5,6.,0.,10.5,6.,4.,         147P    147
-0.4,0.,0.,0.,0.;                                                    147P    148
126,1,1,0,0,1,0,0.,0.,0.6,0.6,1.,1.,10.5,0.,0.,10.5,6.,0.,0.,        149P    149
0.6,0.,0.,0.;                                                        149P    150
126,1,1,0,0,1,0,-0.15,-0.15,0.5,0.5,1.,1.,10.5,0.,0.,17.,0.,0.,      151P    151
-0.15,0.5,0.,0.,0.;                                                  151P    152
126,1,1,0,0,1,0,-0.5,-0.5,0.15,0.15,1.,1.,17.,6.,0.,10.5,6.,0.,      153P    153
-0.5,0.15,0.,0.,0.;                                                  153P    154
126,1,1,0,0,1,0,0.,0.,0.6,0.6,1.,1.,17.,0.,0.,17.,6.,0.,0.,0.6,      155P    155
0.,0.,0.;                                                            155P    156
126,1,1,0,0,1,0,0.,0.,0.15,0.15,1.,1.,17.,0.,0.,17.,0.,1.5,0.,       157P    157
0.15,0.,0.,0.;                                                       157P    158
126,1,1,0,0,1,0,-0.15,-0.15,0.,0.,1.,1.,17.,6.,1.5,17.,6.,0.,        159P    159
-0.15,0.,0.,0.,0.;                                                   159P    160
128,1,8,1,2,0,1,0,0,1,0.,0.,1.5,1.5,-3.14159265358979,               161P    161
-3.14159265358979,-3.14159265358979,-1.5707963267949,                161P    162
-1.5707963267949,0.,0.,1.5707963267949,1.5707963267949,              161P    163
3.14159265358979,3.14159265358979,3.14159265358979,1.,1.,            161P    164
0.707106781186548,0.707106781186548,1.,1.,0.707106781186548,         161P    165
0.707106781186548,1.,1.,0.707106781186548,0.707106781186548,1.,      161P    166
1.,0.707106781186548,0.707106781186548,1.,1.,3.5,3.,1.5,3.5,3.,      161P    167
0.,3.5,2.,1.5,3.5,2.,0.,2.5,2.,1.5,2.5,2.,0.,1.5,2.,1.5,1.5,2.,      161P    168
0.,1.5,3.,1.5,1.5,3.,0.,1.5,4.,1.5,1.5,4.,0.,2.5,4.,1.5,2.5,4.,      161P    169
0.,3.5,4.,1.5,3.5,4.,0.,3.5,3.,1.5,3.5,3.,0.,0.,1.5,                 161P    170
-3.14159265358979,3.14159265358979;                                  161P    171
128,1,8,1,2,0,1,0,0,1,0.,0.,1.5,1.5,-3.14159265358979,               163P    172
-3.14159265358979,-3.14159265358979,-1.5707963267949,                163P    173
-1.5707963267949,0.,0.,1.5707963267949,1.5707963267949,              163P    174
3.14159265358979,3.14159265358979,3.14159265358979,1.,1.,            163P    175
0.707106781186548,0.707106781186548,1.,1.,0.707106781186548,         163P    176
0.707106781186548,1.,1.,0.707106781186548,0.707106781186548,1.,      163P    177
1.,0.707106781186548,0.707106781186548,1.,1.,15.5000002160668,       163P    178
3.00000004470348,1.5,15.5000002160668,3.00000004470348,0.,           163P    179
15.5000002160668,2.00000004470348,1.5,15.5000002160668,              163P    180
2.00000004470348,0.,14.5000002160668,2.00000004470348,1.5,           163P    181
14.5000002160668,2.00000004470348,0.,13.5000002160668,               163P    182
2.00000004470348,1.5,13.5000002160668,2.00000004470348,0.,           163P    183
13.5000002160668,3.00000004470348,1.5,13.5000002160668,              163P    184
3.00000004470348,0.,13.5000002160668,4.00000004470348,1.5,           163P    185
13.5000002160668,4.00000004470348,0.,14.5000002160668,               163P    186
4.00000004470348,1.5,14.5000002160668,4.00000004470348,0.,           163P    187
15.5000002160668,4.00000004470348,1.5,15.5000002160668,              163P    188
4.00000004470348,0.,15.5000002160668,3.00000004470348,1.5,           163P    189
15.5000002160668,3.00000004470348,0.,0.,1.5,-3.14159265358979,       163P    190
3.14159265358979;                                                    163P    191
128,1,1,1,1,0,0,1,0,0,-0.001,-0.001,0.501,0.501,-0.001,-0.001,       165P    192
0.601,0.601,1.,1.,1.,1.,11.99,-0.01,1.5,17.01,-0.01,1.5,11.99,       165P    193
6.01,1.5,17.01,6.01,1.5,-0.001,0.501,-0.001,0.601;                   165P    194
128,1,1,1,1,0,0,1,0,0,-0.001,-0.001,0.401,0.401,-0.001,-0.001,       167P    195
0.601,0.601,1.,1.,1.,1.,12.,-0.01,5.51,12.,-0.01,1.49,12.,6.01,      167P    196
5.51,12.,6.01,1.49,-0.001,0.401,-0.001,0.601;                        167P    197
128,1,1,1,1,0,0,1,0,0,-0.001,-0.001,0.701,0.701,-0.001,-0.001,       169P    198
0.601,0.601,1.,1.,1.,1.,4.99,-0.01,5.5,12.01,-0.01,5.5,4.99,         169P    199
6.01,5.5,12.01,6.01,5.5,-0.001,0.701,-0.001,0.601;                   169P    200
128,1,1,1,1,0,0,1,0,0,-0.001,-0.001,0.401,0.401,-0.001,-0.001,       171P    201
0.601,0.601,1.,1.,1.,1.,5.,-0.01,1.49,5.,-0.01,5.51,5.,6.01,         171P    202
1.49,5.,6.01,5.51,-0.001,0.401,-0.001,0.601;                         171P    203
128,1,1,1,1,0,0,1,0,0,-0.001,-0.001,0.501,0.501,-0.001,-0.001,       173P    204
0.601,0.601,1.,1.,1.,1.,-0.01,-0.01,1.5,5.01,-0.01,1.5,-0.01,        173P    205
6.01,1.5,5.01,6.01,1.5,-0.001,0.501,-0.001,0.601;                    173P    206
128,1,1,1,1,0,0,1,0,0,-0.001,-0.001,0.151,0.151,-0.001,-0.001,       175P    207
0.601,0.601,1.,1.,1.,1.,1.92592994438724D-35,-0.01,-0.01,            175P    208
-2.90815421602473D-33,-0.01,1.51,1.92592994438724D-35,6.01,          175P    209
-0.01,-2.90815421602473D-33,6.01,1.51,-0.001,0.151,-0.001,0.601;     175P    210
128,1,1,1,1,0,0,1,0,0,-0.001,-0.001,0.651,0.651,-0.001,-0.001,       177P    211
0.601,0.601,1.,1.,1.,1.,6.51,-0.01,0.,-0.01,-0.01,0.,6.51,6.01,      177P    212
0.,-0.01,6.01,0.,-0.001,0.651,-0.001,0.601;                          177P    213
128,1,1,1,1,0,0,1,0,0,-0.001,-0.001,0.401,0.401,-0.001,-0.001,       179P    214
0.601,0.601,1.,1.,1.,1.,6.5,-0.01,4.01,6.5,-0.01,-0.01,6.5,6.01,     179P    215
4.01,6.5,6.01,-0.01,-0.001,0.401,-0.001,0.601;                       179P    216
128,1,1,1,1,0,0,1,0,0,-0.001,-0.001,0.401,0.401,-0.001,-0.001,       181P    217
0.601,0.601,1.,1.,1.,1.,10.51,-0.01,4.,6.49,-0.01,4.,10.51,6.01,     181P    218
4.,6.49,6.01,4.,-0.001,0.401,-0.001,0.601;                           181P    219
128,1,1,1,1,0,0,1,0,0,-0.001,-0.001,0.401,0.401,-0.001,-0.001,       183P    220
0.601,0.601,1.,1.,1.,1.,10.5,-0.01,-0.01,10.5,-0.01,4.01,10.5,       183P    221
6.01,-0.01,10.5,6.01,4.01,-0.001,0.401,-0.001,0.601;                 183P    222
128,1,1,1,1,0,0,1,0,0,-0.001,-0.001,0.651,0.651,-0.001,-0.001,       185P    223
0.601,0.601,1.,1.,1.,1.,17.01,-0.01,0.,10.49,-0.01,0.,17.01,         185P    224
6.01,0.,10.49,6.01,0.,-0.001,0.651,-0.001,0.601;                     185P    225
128,1,1,1,1,0,0,1,0,0,-0.001,-0.001,0.151,0.151,-0.001,-0.001,       187P    226
0.601,0.601,1.,1.,1.,1.,17.,-0.01,1.51,17.,-0.01,-0.01,17.,6.01,     187P    227
1.51,17.,6.01,-0.01,-0.001,0.151,-0.001,0.601;                       187P    228
128,1,1,1,1,0,0,1,0,0,-0.276,-0.276,0.276,0.276,-0.851,-0.851,       189P    229
0.851,0.851,1.,1.,1.,1.,-0.01,6.,-0.01,-0.01,6.,5.51,17.01,6.,       189P    230
-0.01,17.01,6.,5.51,-0.276,0.276,-0.851,0.851;                       189P    231
128,1,1,1,1,0,0,1,0,0,-0.851,-0.851,0.851,0.851,-0.276,-0.276,       191P    232
0.276,0.276,1.,1.,1.,1.,17.01,0.,5.51,-0.01,0.,5.51,17.01,0.,        191P    233
-0.01,-0.01,0.,-0.01,-0.851,0.851,-0.276,0.276;                      191P    234
502,28,3.5,3.,1.5,3.5,3.,0.,15.5000002160668,3.00000004470348,       193P    235
1.5,15.5000002160668,3.00000004470348,0.,17.,0.,1.5,12.,0.,1.5,      193P    236
17.,6.,1.5,12.,6.,1.5,12.,0.,5.5,12.,6.,5.5,5.,0.,5.5,5.,6.,5.5,     193P    237
5.,0.,1.5,5.,6.,1.5,-2.88889491658085D-33,0.,1.5,0.,6.,1.5,0.,       193P    238
0.,0.,0.,6.,0.,6.5,0.,0.,6.5,6.,0.,6.5,0.,4.,6.5,6.,4.,10.5,0.,      193P    239
4.,10.5,6.,4.,10.5,0.,0.,10.5,6.,0.,17.,0.,0.,17.,6.,0.;             193P    240
504,42,77,193,1,193,1,79,193,1,193,2,81,193,2,193,2,83,193,3,        195P    241
193,3,85,193,3,193,4,87,193,4,193,4,89,193,5,193,6,91,193,5,193,     195P    242
7,93,193,8,193,7,95,193,6,193,8,97,193,6,193,9,99,193,10,193,8,      195P    243
101,193,9,193,10,103,193,9,193,11,105,193,12,193,10,107,193,11,      195P    244
193,12,109,193,11,193,13,111,193,14,193,12,113,193,13,193,14,        195P    245
115,193,13,193,15,117,193,16,193,14,119,193,15,193,16,121,193,       195P    246
15,193,17,123,193,18,193,16,125,193,17,193,18,127,193,17,193,19,     195P    247
129,193,20,193,18,131,193,19,193,20,133,193,19,193,21,135,193,       195P    248
22,193,20,137,193,21,193,22,139,193,21,193,23,141,193,24,193,22,     195P    249
143,193,23,193,24,145,193,23,193,25,147,193,26,193,24,149,193,       195P    250
25,193,26,151,193,25,193,27,153,193,28,193,26,155,193,27,193,28,     195P    251
157,193,27,193,5,159,193,7,193,28;                                   195P    252
406,1,5HBody1;                                                       197P    253
314,62.7450980392157,62.7450980392157,62.7450980392157,13HSteel      199P    254
- Satin;                                                             199P    255
S      1G      3D    200P    255                                        T      1
