0
SECTION
2
HEADER
9
$INSUNITS
70
4
9
$ACADVER
1
AC1014
9
$HANDSEED
5
FFFF
0
ENDSEC
0
SECTION
2
TABLES
0
TABLE
2
VPORT
5
8
100
AcDbSymbolTable
0
ENDTAB
0
TABLE
2
LTYPE
5
5
100
AcDbSymbolTable
0
LTYPE
5
14
100
AcDbSymbolTableRecord
100
AcDbLinetypeTableRecord
2
BYBLOCK
70
0
0
LTYPE
5
15
100
AcDbSymbolTableRecord
100
AcDbLinetypeTableRecord
2
BYLAYER
70
0
0
ENDTAB
0
TABLE
2
LAYER
5
2
100
AcDbSymbolTable
70
2
0
LAYER
5
50
100
AcDbSymbolTableRecord
100
AcDbLayerTableRecord
2
0
70
0
6
CONTINUOUS
0
ENDTAB
0
TABLE
2
STYLE
5
3
100
AcDbSymbolTable
70
1
0
STYLE
5
11
100
AcDbSymbolTableRecord
100
AcDbTextStyleTableRecord
2
STANDARD
70
0
0
ENDTAB
0
TABLE
2
VIEW
5
6
100
AcDbSymbolTable
70
0
0
ENDTAB
0
TABLE
2
UCS
5
7
100
AcDbSymbolTable
70
0
0
ENDTAB
0
TABLE
2
APPID
5
9
100
AcDbSymbolTable
70
2
0
APPID
5
12
100
AcDbSymbolTableRecord
100
AcDbRegAppTableRecord
2
ACAD
70
0
0
ENDTAB
0
TABLE
2
DIMSTYLE
5
A
100
AcDbSymbolTable
70
1
0
ENDTAB
0
TABLE
2
BLOCK_RECORD
5
1
100
AcDbSymbolTable
70
1
0
BLOCK_RECORD
5
1F
100
AcDbSymbolTableRecord
100
AcDbBlockTableRecord
2
*MODEL_SPACE
0
BLOCK_RECORD
5
1B
100
AcDbSymbolTableRecord
100
AcDbBlockTableRecord
2
*PAPER_SPACE
0
ENDTAB
0
ENDSEC
0
SECTION
2
BLOCKS
0
BLOCK
5
20
100
AcDbEntity
100
AcDbBlockBegin
2
*MODEL_SPACE
0
ENDBLK
5
21
100
AcDbEntity
100
AcDbBlockEnd
0
BLOCK
5
1C
100
AcDbEntity
100
AcDbBlockBegin
2
*PAPER_SPACE
0
ENDBLK
5
1D
100
AcDbEntity
100
AcDbBlockEnd
0
ENDSEC
0
SECTION
2
ENTITIES
0
SPLINE
5
100
100
AcDbEntity
8
0
100
AcDbSpline
70
4
71
3
72
8
73
4
74
0
42
0.000000001
43
0.0000000001
44
0.0000000001
40
0
40
0
40
0
40
0
40
1
40
1
40
1
40
1
41
1
41
1
41
1
41
1
10
63.18009320497513
20
32.281874999999992
30
0
10
63.260459847450257
20
32.46046874999999
30
0
10
63.314038517475126
20
32.656922965049738
30
0
10
63.314038517475126
20
32.862304687499993
30
0
0
SPLINE
5
101
100
AcDbEntity
8
0
100
AcDbSpline
70
4
71
3
72
8
73
4
74
0
42
0.000000001
43
0.0000000001
44
0.0000000001
40
0
40
0
40
0
40
0
40
1
40
1
40
1
40
1
41
1
41
1
41
1
41
1
10
63.314038517475126
20
32.862304687499993
30
0
10
63.314038517475126
20
33.603467659950248
30
0
10
62.715749727487562
20
34.201757812499991
30
0
10
61.974585392475127
20
34.201757812499991
30
0
0
SPLINE
5
102
100
AcDbEntity
8
0
100
AcDbSpline
70
4
71
3
72
8
73
4
74
0
42
0.000000001
43
0.0000000001
44
0.0000000001
40
0
40
0
40
0
40
0
40
1
40
1
40
1
40
1
41
1
41
1
41
1
41
1
10
61.974585392475127
20
34.201757812499991
30
0
10
61.233421057462692
20
34.201757812499991
30
0
10
60.635132267475129
20
33.603467659950248
30
0
10
60.635132267475129
20
32.862304687499993
30
0
0
SPLINE
5
103
100
AcDbEntity
8
0
100
AcDbSpline
70
4
71
3
72
8
73
4
74
0
42
0.000000001
43
0.0000000001
44
0.0000000001
40
0
40
0
40
0
40
0
40
1
40
1
40
1
40
1
41
1
41
1
41
1
41
1
10
60.635132267475129
20
32.862304687499993
30
0
10
60.635132267475129
20
32.121141715049731
30
0
10
61.233421057462692
20
31.522851562499991
30
0
10
61.974585392475127
20
31.522851562499991
30
0
0
SPLINE
5
104
100
AcDbEntity
8
0
100
AcDbSpline
70
4
71
3
72
8
73
4
74
0
42
0.000000001
43
0.0000000001
44
0.0000000001
40
0
40
0
40
0
40
0
40
1
40
1
40
1
40
1
41
1
41
1
41
1
41
1
10
61.974585392475127
20
31.522851562499991
30
0
10
62.179968477487563
20
31.522851562499991
30
0
10
62.37642132997513
20
31.567499999999992
30
0
10
62.555015079975135
20
31.656796874999991
30
0
0
LINE
5
105
100
AcDbEntity
8
0
100
AcDbLine
10
62.555015079975121
20
31.656796874999991
30
0
11
64.474897892475141
21
29.72798382997512
31
0
0
LINE
5
106
100
AcDbEntity
8
0
100
AcDbLine
10
64.474897892475141
20
29.72798382997512
30
0
11
64.474897892475127
21
27.861679687499993
31
0
0
LINE
5
107
100
AcDbEntity
8
0
100
AcDbLine
10
64.474897892475127
20
27.861679687499993
30
0
11
62.06388226747513
21
25.441733829975117
31
0
0
LINE
5
108
100
AcDbEntity
8
0
100
AcDbLine
10
62.06388226747513
20
25.441733829975117
30
0
11
62.06388226747513
21
27.209810864925373
31
0
0
SPLINE
5
109
100
AcDbEntity
8
0
100
AcDbSpline
70
4
71
3
72
8
73
4
74
0
42
0.000000001
43
0.0000000001
44
0.0000000001
40
0
40
0
40
0
40
0
40
1
40
1
40
1
40
1
41
1
41
1
41
1
41
1
10
62.06388226747513
20
27.209810864925377
30
0
10
62.581804414987559
20
27.397334847450246
30
0
10
62.956851017475124
20
27.888467659950248
30
0
10
62.956851017475124
20
28.47782757997512
30
0
0
SPLINE
5
110
100
AcDbEntity
8
0
100
AcDbSpline
70
4
71
3
72
8
73
4
74
0
42
0.000000001
43
0.0000000001
44
0.0000000001
40
0
40
0
40
0
40
0
40
1
40
1
40
1
40
1
41
1
41
1
41
1
41
1
10
62.956851017475124
20
28.47782757997512
30
0
10
62.956851017475124
20
29.218990552425375
30
0
10
62.358562227487567
20
29.817280704975119
30
0
10
61.617397892475125
20
29.817280704975119
30
0
0
SPLINE
5
111
100
AcDbEntity
8
0
100
AcDbSpline
70
4
71
3
72
8
73
4
74
0
42
0.000000001
43
0.0000000001
44
0.0000000001
40
0
40
0
40
0
40
0
40
1
40
1
40
1
40
1
41
1
41
1
41
1
41
1
10
61.617397892475125
20
29.817280704975119
30
0
10
60.876233557462683
20
29.817280704975119
30
0
10
60.277944767475127
20
29.218990552425375
30
0
10
60.277944767475127
20
28.47782757997512
30
0
0
SPLINE
5
112
100
AcDbEntity
8
0
100
AcDbSpline
70
4
71
3
72
8
73
4
74
0
42
0.000000001
43
0.0000000001
44
0.0000000001
40
0
40
0
40
0
40
0
40
1
40
1
40
1
40
1
41
1
41
1
41
1
41
1
10
60.277944767475127
20
28.47782757997512
30
0
10
60.277944767475127
20
27.897397892475119
30
0
10
60.652991369962692
20
27.397334847450246
30
0
10
61.170913517475128
20
27.209810864925377
30
0
0
LINE
5
113
100
AcDbEntity
8
0
100
AcDbLine
10
61.170913517475121
20
27.209810864925377
30
0
11
61.170913517475128
21
24.539834847450244
31
0
0
LINE
5
114
100
AcDbEntity
8
0
100
AcDbLine
10
61.170913517475128
20
24.539834847450244
30
0
11
58.938491642475128
21
22.298482739925372
31
0
0
LINE
5
115
100
AcDbEntity
8
0
100
AcDbLine
10
58.938491642475128
20
22.298482739925372
30
0
11
58.938491642475128
21
35.451914062499995
31
0
0
LINE
5
116
100
AcDbEntity
8
0
100
AcDbLine
10
58.938491642475128
20
35.451914062499995
30
0
11
60.769077579975132
21
37.291430232524867
31
0
0
SPLINE
5
117
100
AcDbEntity
8
0
100
AcDbSpline
70
4
71
3
72
8
73
4
74
0
42
0.000000001
43
0.0000000001
44
0.0000000001
40
0
40
0
40
0
40
0
40
1
40
1
40
1
40
1
41
1
41
1
41
1
41
1
10
60.769077579975132
20
37.29143023252486
30
0
10
60.947671329975122
20
37.211063590049733
30
0
10
61.135194631218909
20
37.157484920024864
30
0
10
61.349507267475126
20
37.157484920024864
30
0
0
SPLINE
5
118
100
AcDbEntity
8
0
100
AcDbSpline
70
4
71
3
72
8
73
4
74
0
42
0.000000001
43
0.0000000001
44
0.0000000001
40
0
40
0
40
0
40
0
40
1
40
1
40
1
40
1
41
1
41
1
41
1
41
1
10
61.349507267475126
20
37.157484920024864
30
0
10
62.090671602487568
20
37.157484920024864
30
0
10
62.688960392475124
20
37.755775072574608
30
0
10
62.688960392475124
20
38.496938045024869
30
0
0
SPLINE
5
119
100
AcDbEntity
8
0
100
AcDbSpline
70
4
71
3
72
8
73
4
74
0
42
0.000000001
43
0.0000000001
44
0.0000000001
40
0
40
0
40
0
40
0
40
1
40
1
40
1
40
1
41
1
41
1
41
1
41
1
10
62.688960392475124
20
38.496938045024869
30
0
10
62.688960392475124
20
39.238101017475124
30
0
10
62.090671602487568
20
39.836391170024868
30
0
10
61.349507267475126
20
39.836391170024868
30
0
0
SPLINE
5
120
100
AcDbEntity
8
0
100
AcDbSpline
70
4
71
3
72
8
73
4
74
0
42
0.000000001
43
0.0000000001
44
0.0000000001
40
0
40
0
40
0
40
0
40
1
40
1
40
1
40
1
41
1
41
1
41
1
41
1
10
61.349507267475126
20
39.836391170024868
30
0
10
60.608342932462691
20
39.836391170024868
30
0
10
60.010054142475127
20
39.238101017475124
30
0
10
60.010054142475127
20
38.496938045024869
30
0
0
SPLINE
5
121
100
AcDbEntity
8
0
100
AcDbSpline
70
4
71
3
72
8
73
4
74
0
42
0.000000001
43
0.0000000001
44
0.0000000001
40
0
40
0
40
0
40
0
40
1
40
1
40
1
40
1
41
1
41
1
41
1
41
1
10
60.010054142475127
20
38.496938045024869
30
0
10
60.010054142475127
20
38.291556322574607
30
0
10
60.054702579975128
20
38.095102107524866
30
0
10
60.143999454975123
20
37.916508357524862
30
0
0
LINE
5
122
100
AcDbEntity
8
0
100
AcDbLine
10
60.143999454975123
20
37.916508357524869
30
0
11
58.500937499999992
21
36.264516170024862
31
0
0
LINE
5
123
100
AcDbEntity
8
0
100
AcDbLine
10
58.500937499999992
20
36.264516170024862
30
0
11
56.857874863743788
21
37.916508357524862
31
0
0
SPLINE
5
124
100
AcDbEntity
8
0
100
AcDbSpline
70
4
71
3
72
8
73
4
74
0
42
0.000000001
43
0.0000000001
44
0.0000000001
40
0
40
0
40
0
40
0
40
1
40
1
40
1
40
1
41
1
41
1
41
1
41
1
10
56.857874863743774
20
37.916508357524862
30
0
10
56.938242187499995
20
38.095102107524866
30
0
10
56.991820176243777
20
38.291556322574607
30
0
10
56.991820176243777
20
38.496938045024869
30
0
0
SPLINE
5
125
100
AcDbEntity
8
0
100
AcDbSpline
70
4
71
3
72
8
73
4
74
0
42
0.000000001
43
0.0000000001
44
0.0000000001
40
0
40
0
40
0
40
0
40
1
40
1
40
1
40
1
41
1
41
1
41
1
41
1
10
56.991820176243777
20
38.496938045024869
30
0
10
56.991820176243777
20
39.238101017475124
30
0
10
56.393531045615674
20
39.836391170024868
30
0
10
55.652367051243779
20
39.836391170024868
30
0
0
SPLINE
5
126
100
AcDbEntity
8
0
100
AcDbSpline
70
4
71
3
72
8
73
4
74
0
42
0.000000001
43
0.0000000001
44
0.0000000001
40
0
40
0
40
0
40
0
40
1
40
1
40
1
40
1
41
1
41
1
41
1
41
1
10
55.652367051243779
20
39.836391170024868
30
0
10
54.911203056871891
20
39.836391170024868
30
0
10
54.31291392624378
20
39.238101017475124
30
0
10
54.31291392624378
20
38.496938045024869
30
0
0
SPLINE
5
127
100
AcDbEntity
8
0
100
AcDbSpline
70
4
71
3
72
8
73
4
74
0
42
0.000000001
43
0.0000000001
44
0.0000000001
40
0
40
0
40
0
40
0
40
1
40
1
40
1
40
1
41
1
41
1
41
1
41
1
10
54.31291392624378
20
38.496938045024869
30
0
10
54.31291392624378
20
37.755775072574608
30
0
10
54.911203056871891
20
37.157484920024864
30
0
10
55.652367051243779
20
37.157484920024864
30
0
0
SPLINE
5
128
100
AcDbEntity
8
0
100
AcDbSpline
70
4
71
3
72
8
73
4
74
0
42
0.000000001
43
0.0000000001
44
0.0000000001
40
0
40
0
40
0
40
0
40
1
40
1
40
1
40
1
41
1
41
1
41
1
41
1
10
55.652367051243779
20
37.157484920024864
30
0
10
55.857749795615668
20
37.157484920024864
30
0
10
56.054202988743782
20
37.202133357524865
30
0
10
56.232796738743779
20
37.29143023252486
30
0
0
LINE
5
129
100
AcDbEntity
8
0
100
AcDbLine
10
56.232796738743779
20
37.29143023252486
30
0
11
58.063382676243776
21
35.451914062499988
31
0
0
LINE
5
130
100
AcDbEntity
8
0
100
AcDbLine
10
58.063382676243776
20
35.451914062499988
30
0
11
58.063382676243776
21
26.057881722450247
31
0
0
LINE
5
131
100
AcDbEntity
8
0
100
AcDbLine
10
58.063382676243776
20
26.057881722450247
30
0
11
54.84869517624378
21
29.281499454975123
31
0
0
LINE
5
132
100
AcDbEntity
8
0
100
AcDbLine
10
54.84869517624378
20
29.281499454975123
30
0
11
54.84869517624378
21
31.862178597450246
31
0
0
SPLINE
5
133
100
AcDbEntity
8
0
100
AcDbSpline
70
4
71
3
72
8
73
4
74
0
42
0.000000001
43
0.0000000001
44
0.0000000001
40
0
40
0
40
0
40
0
40
1
40
1
40
1
40
1
41
1
41
1
41
1
41
1
10
54.84869517624378
20
31.862178597450249
30
0
10
55.366616983115676
20
32.049702579975119
30
0
10
55.741663926243781
20
32.540835392475117
30
0
10
55.741663926243781
20
33.130195312499993
30
0
0
SPLINE
5
134
100
AcDbEntity
8
0
100
AcDbSpline
70
4
71
3
72
8
73
4
74
0
42
0.000000001
43
0.0000000001
44
0.0000000001
40
0
40
0
40
0
40
0
40
1
40
1
40
1
40
1
41
1
41
1
41
1
41
1
10
55.741663926243781
20
33.130195312499993
30
0
10
55.741663926243781
20
33.871358284950247
30
0
10
55.143374795615671
20
34.469648437499991
30
0
10
54.402210801243776
20
34.469648437499991
30
0
0
SPLINE
5
135
100
AcDbEntity
8
0
100
AcDbSpline
70
4
71
3
72
8
73
4
74
0
42
0.000000001
43
0.0000000001
44
0.0000000001
40
0
40
0
40
0
40
0
40
1
40
1
40
1
40
1
41
1
41
1
41
1
41
1
10
54.402210801243776
20
34.469648437499991
30
0
10
53.66104680687188
20
34.469648437499991
30
0
10
53.062757676243777
20
33.871358284950247
30
0
10
53.062757676243777
20
33.130195312499993
30
0
0
SPLINE
5
136
100
AcDbEntity
8
0
100
AcDbSpline
70
4
71
3
72
8
73
4
74
0
42
0.000000001
43
0.0000000001
44
0.0000000001
40
0
40
0
40
0
40
0
40
1
40
1
40
1
40
1
41
1
41
1
41
1
41
1
10
53.062757676243777
20
33.130195312499993
30
0
10
53.062757676243777
20
32.549765624999992
30
0
10
53.437804619371889
20
32.049702579975119
30
0
10
53.955726426243785
20
31.862178597450249
30
0
0
LINE
5
137
100
AcDbEntity
8
0
100
AcDbLine
10
53.955726426243771
20
31.862178597450249
30
0
11
53.955726426243785
21
30.183398437499992
31
0
0
LINE
5
138
100
AcDbEntity
8
0
100
AcDbLine
10
53.955726426243785
20
30.183398437499992
30
0
11
51.455413926243779
21
32.692641170024864
31
0
0
LINE
5
139
100
AcDbEntity
8
0
100
AcDbLine
10
51.455413926243779
20
32.692641170024864
30
0
11
51.455413926243779
21
35.184023437499995
31
0
0
SPLINE
5
140
100
AcDbEntity
8
0
100
AcDbSpline
70
4
71
3
72
8
73
4
74
0
42
0.000000001
43
0.0000000001
44
0.0000000001
40
0
40
0
40
0
40
0
40
1
40
1
40
1
40
1
41
1
41
1
41
1
41
1
10
51.455413926243779
20
35.184023437499988
30
0
10
51.9733358182758
20
35.371547420024861
30
0
10
52.348382676243773
20
35.862680232524866
30
0
10
52.348382676243773
20
36.452040152549742
30
0
0
SPLINE
5
141
100
AcDbEntity
8
0
100
AcDbSpline
70
4
71
3
72
8
73
4
74
0
42
0.000000001
43
0.0000000001
44
0.0000000001
40
0
40
0
40
0
40
0
40
1
40
1
40
1
40
1
41
1
41
1
41
1
41
1
10
52.348382676243773
20
36.452040152549742
30
0
10
52.348382676243773
20
37.193203124999997
30
0
10
51.750093630775808
20
37.791493277549733
30
0
10
51.008929551243781
20
37.791493277549733
30
0
0
SPLINE
5
142
100
AcDbEntity
8
0
100
AcDbSpline
70
4
71
3
72
8
73
4
74
0
42
0.000000001
43
0.0000000001
44
0.0000000001
40
0
40
0
40
0
40
0
40
1
40
1
40
1
40
1
41
1
41
1
41
1
41
1
10
51.008929551243781
20
37.791493277549733
30
0
10
50.267765471711748
20
37.791493277549733
30
0
10
49.669476426243776
20
37.193203124999997
30
0
10
49.669476426243776
20
36.452040152549742
30
0
0
SPLINE
5
143
100
AcDbEntity
8
0
100
AcDbSpline
70
4
71
3
72
8
73
4
74
0
42
0.000000001
43
0.0000000001
44
0.0000000001
40
0
40
0
40
0
40
0
40
1
40
1
40
1
40
1
41
1
41
1
41
1
41
1
10
49.669476426243776
20
36.452040152549742
30
0
10
49.669476426243776
20
35.871610465049734
30
0
10
50.044523284211749
20
35.371547420024861
30
0
10
50.562445176243777
20
35.184023437499988
30
0
0
LINE
5
144
100
AcDbEntity
8
0
100
AcDbLine
10
50.562445176243784
20
35.184023437499988
30
0
11
50.562445176243777
21
32.326523437499986
31
0
0
LINE
5
145
100
AcDbEntity
8
0
100
AcDbLine
10
50.562445176243777
20
32.326523437499986
30
0
11
53.321718579679718
21
29.55832031249999
31
0
0
LINE
5
146
100
AcDbEntity
8
0
100
AcDbLine
10
53.321718579679718
20
29.55832031249999
30
0
11
51.723304721564048
21
29.55832031249999
31
0
0
SPLINE
5
147
100
AcDbEntity
8
0
100
AcDbSpline
70
4
71
3
72
8
73
4
74
0
42
0.000000001
43
0.0000000001
44
0.0000000001
40
0
40
0
40
0
40
0
40
1
40
1
40
1
40
1
41
1
41
1
41
1
41
1
10
51.723304721564048
20
29.55832031249999
30
0
10
51.535781292580069
20
30.07624109745025
30
0
10
51.044648480080063
20
30.451289062499992
30
0
10
50.464218750000001
20
30.451289062499992
30
0
0
SPLINE
5
148
100
AcDbEntity
8
0
100
AcDbSpline
70
4
71
3
72
8
73
4
74
0
42
0.000000001
43
0.0000000001
44
0.0000000001
40
0
40
0
40
0
40
0
40
1
40
1
40
1
40
1
41
1
41
1
41
1
41
1
10
50.464218750000001
20
30.451289062499992
30
0
10
49.723054670467974
20
30.451289062499992
30
0
10
49.124765624999995
20
29.852998909950248
30
0
10
49.124765624999995
20
29.111835937499993
30
0
0
SPLINE
5
149
100
AcDbEntity
8
0
100
AcDbSpline
70
4
71
3
72
8
73
4
74
0
42
0.000000001
43
0.0000000001
44
0.0000000001
40
0
40
0
40
0
40
0
40
1
40
1
40
1
40
1
41
1
41
1
41
1
41
1
10
49.124765624999995
20
29.111835937499993
30
0
10
49.124765624999995
20
28.370672965049732
30
0
10
49.723054670467974
20
27.772382812499991
30
0
10
50.464218750000001
20
27.772382812499991
30
0
0
SPLINE
5
150
100
AcDbEntity
8
0
100
AcDbSpline
70
4
71
3
72
8
73
4
74
0
42
0.000000001
43
0.0000000001
44
0.0000000001
40
0
40
0
40
0
40
0
40
1
40
1
40
1
40
1
41
1
41
1
41
1
41
1
10
50.464218750000001
20
27.772382812499991
30
0
10
51.044648437500001
20
27.772382812499991
30
0
10
51.544710971564044
20
28.147430777549737
30
0
10
51.723304721564048
20
28.665351562499989
30
0
0
LINE
5
151
100
AcDbEntity
8
0
100
AcDbLine
10
51.723304721564048
20
28.665351562499989
30
0
11
54.205757948756215
21
28.665351562499989
31
0
0
LINE
5
152
100
AcDbEntity
8
0
100
AcDbLine
10
54.205757948756215
20
28.665351562499989
30
0
11
58.045523573756213
21
24.807725472450244
31
0
0
LINE
5
153
100
AcDbEntity
8
0
100
AcDbLine
10
58.045523573756213
20
24.807725472450244
30
0
11
58.045523573756213
21
18.101529614925376
31
0
0
LINE
5
154
100
AcDbEntity
8
0
100
AcDbLine
10
58.045523573756213
20
18.101529614925376
30
0
11
55.991695448756218
21
20.16428797245025
31
0
0
LINE
5
155
100
AcDbEntity
8
0
100
AcDbLine
10
55.991695448756218
20
20.16428797245025
30
0
11
55.991695448756218
21
22.74496711492538
31
0
0
SPLINE
5
156
100
AcDbEntity
8
0
100
AcDbSpline
70
4
71
3
72
8
73
4
74
0
42
0.000000001
43
0.0000000001
44
0.0000000001
40
0
40
0
40
0
40
0
40
1
40
1
40
1
40
1
41
1
41
1
41
1
41
1
10
55.991695448756218
20
22.74496711492538
30
0
10
56.5096172556281
20
22.932491097450249
30
0
10
56.884664198756212
20
23.423623909950244
30
0
10
56.884664198756212
20
24.012983829975116
30
0
0
SPLINE
5
157
100
AcDbEntity
8
0
100
AcDbSpline
70
4
71
3
72
8
73
4
74
0
42
0.000000001
43
0.0000000001
44
0.0000000001
40
0
40
0
40
0
40
0
40
1
40
1
40
1
40
1
41
1
41
1
41
1
41
1
10
56.884664198756212
20
24.012983829975116
30
0
10
56.884664198756212
20
24.754146802425375
30
0
10
56.286375068128109
20
25.352436954975119
30
0
10
55.545211073756214
20
25.352436954975119
30
0
0
SPLINE
5
158
100
AcDbEntity
8
0
100
AcDbSpline
70
4
71
3
72
8
73
4
74
0
42
0.000000001
43
0.0000000001
44
0.0000000001
40
0
40
0
40
0
40
0
40
1
40
1
40
1
40
1
41
1
41
1
41
1
41
1
10
55.545211073756214
20
25.352436954975119
30
0
10
54.804047079384326
20
25.352436954975119
30
0
10
54.205757948756215
20
24.754146802425375
30
0
10
54.205757948756215
20
24.012983829975116
30
0
0
SPLINE
5
159
100
AcDbEntity
8
0
100
AcDbSpline
70
4
71
3
72
8
73
4
74
0
42
0.000000001
43
0.0000000001
44
0.0000000001
40
0
40
0
40
0
40
0
40
1
40
1
40
1
40
1
41
1
41
1
41
1
41
1
10
54.205757948756215
20
24.012983829975116
30
0
10
54.205757948756215
20
23.432554142475119
30
0
10
54.580804891884327
20
22.932491097450249
30
0
10
55.098726698756209
20
22.74496711492538
30
0
0
LINE
5
160
100
AcDbEntity
8
0
100
AcDbLine
10
55.098726698756202
20
22.74496711492538
30
0
11
55.098726698756209
21
21.066186954975123
31
0
0
LINE
5
161
100
AcDbEntity
8
0
100
AcDbLine
10
55.098726698756209
20
21.066186954975123
30
0
11
52.1162109375
21
24.066562499999993
31
0
0
SPLINE
5
162
100
AcDbEntity
8
0
100
AcDbSpline
70
4
71
3
72
8
73
4
74
0
42
0.000000001
43
0.0000000001
44
0.0000000001
40
0
40
0
40
0
40
0
40
1
40
1
40
1
40
1
41
1
41
1
41
1
41
1
10
52.1162109375
20
24.066562499999989
30
0
10
52.196578090935944
20
24.245156249999987
30
0
10
52.250156249999989
20
24.441610465049735
30
0
10
52.250156249999989
20
24.64699218749999
30
0
0
SPLINE
5
163
100
AcDbEntity
8
0
100
AcDbSpline
70
4
71
3
72
8
73
4
74
0
42
0.000000001
43
0.0000000001
44
0.0000000001
40
0
40
0
40
0
40
0
40
1
40
1
40
1
40
1
41
1
41
1
41
1
41
1
10
52.250156249999989
20
24.64699218749999
30
0
10
52.250156249999989
20
25.388155159950244
30
0
10
51.651867204532024
20
25.986445312499988
30
0
10
50.910703124999998
20
25.986445312499988
30
0
0
SPLINE
5
164
100
AcDbEntity
8
0
100
AcDbSpline
70
4
71
3
72
8
73
4
74
0
42
0.000000001
43
0.0000000001
44
0.0000000001
40
0
40
0
40
0
40
0
40
1
40
1
40
1
40
1
41
1
41
1
41
1
41
1
10
50.910703124999998
20
25.986445312499988
30
0
10
50.169539045467964
20
25.986445312499988
30
0
10
49.571249999999992
20
25.388155159950244
30
0
10
49.571249999999992
20
24.64699218749999
30
0
0
SPLINE
5
165
100
AcDbEntity
8
0
100
AcDbSpline
70
4
71
3
72
8
73
4
74
0
42
0.000000001
43
0.0000000001
44
0.0000000001
40
0
40
0
40
0
40
0
40
1
40
1
40
1
40
1
41
1
41
1
41
1
41
1
10
49.571249999999992
20
24.64699218749999
30
0
10
49.571249999999992
20
23.905829215049735
30
0
10
50.169539045467964
20
23.307539062499991
30
0
10
50.910703124999998
20
23.307539062499991
30
0
0
SPLINE
5
166
100
AcDbEntity
8
0
100
AcDbSpline
70
4
71
3
72
8
73
4
74
0
42
0.000000001
43
0.0000000001
44
0.0000000001
40
0
40
0
40
0
40
0
40
1
40
1
40
1
40
1
41
1
41
1
41
1
41
1
10
50.910703124999998
20
23.307539062499991
30
0
10
51.11608593324199
20
23.307539062499991
30
0
10
51.312539062499994
20
23.352187499999989
30
0
10
51.491132812499998
20
23.441484374999991
30
0
0
LINE
5
167
100
AcDbEntity
8
0
100
AcDbLine
10
51.491132812499998
20
23.441484374999991
30
0
11
54.473648573756215
21
20.441108829975118
31
0
0
LINE
5
168
100
AcDbEntity
8
0
100
AcDbLine
10
54.473648573756215
20
20.441108829975118
30
0
11
52.884164096564056
21
20.441108829975114
31
0
0
SPLINE
5
169
100
AcDbEntity
8
0
100
AcDbSpline
70
4
71
3
72
8
73
4
74
0
42
0.000000001
43
0.0000000001
44
0.0000000001
40
0
40
0
40
0
40
0
40
1
40
1
40
1
40
1
41
1
41
1
41
1
41
1
10
52.884164096564056
20
20.441108829975114
30
0
10
52.696640624999993
20
20.959029614925377
30
0
10
52.205507812500002
20
21.334077579975119
30
0
10
51.625078124999995
20
21.334077579975119
30
0
0
SPLINE
5
170
100
AcDbEntity
8
0
100
AcDbSpline
70
4
71
3
72
8
73
4
74
0
42
0.000000001
43
0.0000000001
44
0.0000000001
40
0
40
0
40
0
40
0
40
1
40
1
40
1
40
1
41
1
41
1
41
1
41
1
10
51.625078124999995
20
21.334077579975119
30
0
10
50.883914045467968
20
21.334077579975119
30
0
10
50.285624999999996
20
20.735787427425372
30
0
10
50.285624999999996
20
19.994624454975121
30
0
0
SPLINE
5
171
100
AcDbEntity
8
0
100
AcDbSpline
70
4
71
3
72
8
73
4
74
0
42
0.000000001
43
0.0000000001
44
0.0000000001
40
0
40
0
40
0
40
0
40
1
40
1
40
1
40
1
41
1
41
1
41
1
41
1
10
50.285624999999996
20
19.994624454975121
30
0
10
50.285624999999996
20
19.253461482524862
30
0
10
50.883914045467968
20
18.655171329975111
30
0
10
51.625078124999995
20
18.655171329975111
30
0
0
SPLINE
5
172
100
AcDbEntity
8
0
100
AcDbSpline
70
4
71
3
72
8
73
4
74
0
42
0.000000001
43
0.0000000001
44
0.0000000001
40
0
40
0
40
0
40
0
40
1
40
1
40
1
40
1
41
1
41
1
41
1
41
1
10
51.625078124999995
20
18.655171329975111
30
0
10
52.205507812500002
20
18.655171329975111
30
0
10
52.705570346564052
20
19.030219295024864
30
0
10
52.884164096564056
20
19.54814007997512
30
0
0
LINE
5
173
100
AcDbEntity
8
0
100
AcDbLine
10
52.884164096564056
20
19.54814007997512
30
0
11
55.366617323756216
21
19.54814007997512
31
0
0
LINE
5
174
100
AcDbEntity
8
0
100
AcDbLine
10
55.366617323756216
20
19.54814007997512
30
0
11
57.866929823756223
21
17.038897347450245
31
0
0
LINE
5
175
100
AcDbEntity
8
0
100
AcDbLine
10
57.866929823756223
20
17.038897347450245
30
0
11
59.126015624999994
21
17.038897347450241
31
0
0
LINE
5
176
100
AcDbEntity
8
0
100
AcDbLine
10
59.126015624999994
20
17.038897347450241
30
0
11
61.715625000000003
21
19.637436954975115
31
0
0
LINE
5
177
100
AcDbEntity
8
0
100
AcDbLine
10
61.715625000000003
20
19.637436954975115
30
0
11
64.108781522512444
21
19.637436954975122
31
0
0
SPLINE
5
178
100
AcDbEntity
8
0
100
AcDbSpline
70
4
71
3
72
8
73
4
74
0
42
0.000000001
43
0.0000000001
44
0.0000000001
40
0
40
0
40
0
40
0
40
1
40
1
40
1
40
1
41
1
41
1
41
1
41
1
10
64.10878152251243
20
19.637436954975122
30
0
10
64.29630550503731
20
19.119516170024859
30
0
10
64.787438317537308
20
18.744468204975114
30
0
10
65.367868005037309
20
18.744468204975114
30
0
0
SPLINE
5
179
100
AcDbEntity
8
0
100
AcDbSpline
70
4
71
3
72
8
73
4
74
0
42
0.000000001
43
0.0000000001
44
0.0000000001
40
0
40
0
40
0
40
0
40
1
40
1
40
1
40
1
41
1
41
1
41
1
41
1
10
65.367868005037309
20
18.744468204975114
30
0
10
66.109032340049737
20
18.744468204975114
30
0
10
66.707321130037315
20
19.342758357524865
30
0
10
66.707321130037315
20
20.083921329975112
30
0
0
SPLINE
5
180
100
AcDbEntity
8
0
100
AcDbSpline
70
4
71
3
72
8
73
4
74
0
42
0.000000001
43
0.0000000001
44
0.0000000001
40
0
40
0
40
0
40
0
40
1
40
1
40
1
40
1
41
1
41
1
41
1
41
1
10
66.707321130037315
20
20.083921329975112
30
0
10
66.707321130037315
20
20.825084302425374
30
0
10
66.109032340049737
20
21.423374454975121
30
0
10
65.367868005037309
20
21.423374454975121
30
0
0
SPLINE
5
181
100
AcDbEntity
8
0
100
AcDbSpline
70
4
71
3
72
8
73
4
74
0
42
0.000000001
43
0.0000000001
44
0.0000000001
40
0
40
0
40
0
40
0
40
1
40
1
40
1
40
1
41
1
41
1
41
1
41
1
10
65.367868005037309
20
21.423374454975121
30
0
10
64.787438317537308
20
21.423374454975121
30
0
10
64.287375272512435
20
21.048326489925373
30
0
10
64.10878152251243
20
20.530405704975117
30
0
0
LINE
5
182
100
AcDbEntity
8
0
100
AcDbLine
10
64.10878152251243
20
20.530405704975117
30
0
11
61.349507948756212
21
20.530405704975117
31
0
0
LINE
5
183
100
AcDbEntity
8
0
100
AcDbLine
10
61.349507948756212
20
20.530405704975117
30
0
11
58.947421874999996
21
18.119390079975116
31
0
0
LINE
5
184
100
AcDbEntity
8
0
100
AcDbLine
10
58.947421874999996
20
18.119390079975116
30
0
11
58.947421874999996
21
21.066186954975116
31
0
0
LINE
5
185
100
AcDbEntity
8
0
100
AcDbLine
10
58.947421874999996
20
21.066186954975116
30
0
11
61.804921874999998
21
23.941547420024865
31
0
0
LINE
5
186
100
AcDbEntity
8
0
100
AcDbLine
10
61.804921874999998
20
23.941547420024865
30
0
11
66.421570039987557
21
23.941547420024861
31
0
0
SPLINE
5
187
100
AcDbEntity
8
0
100
AcDbSpline
70
4
71
3
72
8
73
4
74
0
42
0.000000001
43
0.0000000001
44
0.0000000001
40
0
40
0
40
0
40
0
40
1
40
1
40
1
40
1
41
1
41
1
41
1
41
1
10
66.421570039987557
20
23.941547420024861
30
0
10
66.609094022512437
20
23.423626635074605
30
0
10
67.100226835012435
20
23.04857867002486
30
0
10
67.680656522512436
20
23.04857867002486
30
0
0
SPLINE
5
188
100
AcDbEntity
8
0
100
AcDbSpline
70
4
71
3
72
8
73
4
74
0
42
0.000000001
43
0.0000000001
44
0.0000000001
40
0
40
0
40
0
40
0
40
1
40
1
40
1
40
1
41
1
41
1
41
1
41
1
10
67.680656522512436
20
23.04857867002486
30
0
10
68.421820857524864
20
23.04857867002486
30
0
10
69.020109647512427
20
23.646868822574607
30
0
10
69.020109647512427
20
24.388031795024862
30
0
0
SPLINE
5
189
100
AcDbEntity
8
0
100
AcDbSpline
70
4
71
3
72
8
73
4
74
0
42
0.000000001
43
0.0000000001
44
0.0000000001
40
0
40
0
40
0
40
0
40
1
40
1
40
1
40
1
41
1
41
1
41
1
41
1
10
69.020109647512427
20
24.388031795024862
30
0
10
69.020109647512427
20
25.12919476747512
30
0
10
68.421820857524864
20
25.72748492002486
30
0
10
67.680656522512436
20
25.72748492002486
30
0
0
SPLINE
5
190
100
AcDbEntity
8
0
100
AcDbSpline
70
4
71
3
72
8
73
4
74
0
42
0.000000001
43
0.0000000001
44
0.0000000001
40
0
40
0
40
0
40
0
40
1
40
1
40
1
40
1
41
1
41
1
41
1
41
1
10
67.680656522512436
20
25.72748492002486
30
0
10
67.100226835012435
20
25.72748492002486
30
0
10
66.600163789987562
20
25.352436954975119
30
0
10
66.421570039987557
20
24.834516170024862
30
0
0
LINE
5
191
100
AcDbEntity
8
0
100
AcDbLine
10
66.421570039987557
20
24.834516170024862
30
0
11
62.697890624999992
21
24.834516170024862
31
0
0
LINE
5
192
100
AcDbEntity
8
0
100
AcDbLine
10
62.697890624999992
20
24.834516170024862
30
0
11
65.367866642475136
21
27.513422420024863
31
0
0
LINE
5
193
100
AcDbEntity
8
0
100
AcDbLine
10
65.367866642475136
20
27.513422420024863
30
0
11
65.367866642475136
21
29.754774527549735
31
0
0
LINE
5
194
100
AcDbEntity
8
0
100
AcDbLine
10
65.367866642475136
20
29.754774527549735
30
0
11
67.287749454975142
21
31.683587572574609
31
0
0
SPLINE
5
195
100
AcDbEntity
8
0
100
AcDbSpline
70
4
71
3
72
8
73
4
74
0
42
0.000000001
43
0.0000000001
44
0.0000000001
40
0
40
0
40
0
40
0
40
1
40
1
40
1
40
1
41
1
41
1
41
1
41
1
10
67.287749454975128
20
31.683587572574609
30
0
10
67.466343204975132
20
31.603220930099482
30
0
10
67.653867187499998
20
31.549642260074609
30
0
10
67.868179142475128
20
31.549642260074609
30
0
0
SPLINE
5
196
100
AcDbEntity
8
0
100
AcDbSpline
70
4
71
3
72
8
73
4
74
0
42
0.000000001
43
0.0000000001
44
0.0000000001
40
0
40
0
40
0
40
0
40
1
40
1
40
1
40
1
41
1
41
1
41
1
41
1
10
67.868179142475128
20
31.549642260074609
30
0
10
68.609343477487556
20
31.549642260074609
30
0
10
69.20763226747512
20
32.14793241262435
30
0
10
69.20763226747512
20
32.889095385074604
30
0
0
SPLINE
5
197
100
AcDbEntity
8
0
100
AcDbSpline
70
4
71
3
72
8
73
4
74
0
42
0.000000001
43
0.0000000001
44
0.0000000001
40
0
40
0
40
0
40
0
40
1
40
1
40
1
40
1
41
1
41
1
41
1
41
1
10
69.20763226747512
20
32.889095385074604
30
0
10
69.20763226747512
20
33.630258357524866
30
0
10
68.609343477487556
20
34.228548510074603
30
0
10
67.868179142475128
20
34.228548510074603
30
0
0
SPLINE
5
198
100
AcDbEntity
8
0
100
AcDbSpline
70
4
71
3
72
8
73
4
74
0
42
0.000000001
43
0.0000000001
44
0.0000000001
40
0
40
0
40
0
40
0
40
1
40
1
40
1
40
1
41
1
41
1
41
1
41
1
10
67.868179142475128
20
34.228548510074603
30
0
10
67.1270148074627
20
34.228548510074603
30
0
10
66.528726017475122
20
33.630258357524866
30
0
10
66.528726017475122
20
32.889095385074604
30
0
0
SPLINE
5
199
100
AcDbEntity
8
0
100
AcDbSpline
70
4
71
3
72
8
73
4
74
0
42
0.000000001
43
0.0000000001
44
0.0000000001
40
0
40
0
40
0
40
0
40
1
40
1
40
1
40
1
41
1
41
1
41
1
41
1
10
66.528726017475122
20
32.889095385074604
30
0
10
66.528726017475122
20
32.683713662624349
30
0
10
66.573374454975124
20
32.487259447574608
30
0
10
66.662671329975126
20
32.308665697574604
30
0
0
LINE
5
200
100
AcDbEntity
8
0
100
AcDbLine
10
66.662671329975126
20
32.308665697574611
30
0
11
65.367866642475136
21
31.013861010074603
31
0
0
LINE
5
201
100
AcDbEntity
8
0
100
AcDbLine
10
65.367866642475136
20
31.013861010074603
30
0
11
65.367866642475136
21
35.112587027549736
31
0
0
SPLINE
5
202
100
AcDbEntity
8
0
100
AcDbSpline
70
4
71
3
72
8
73
4
74
0
42
0.000000001
43
0.0000000001
44
0.0000000001
40
0
40
0
40
0
40
0
40
1
40
1
40
1
40
1
41
1
41
1
41
1
41
1
10
65.367866642475136
20
35.112587027549736
30
0
10
65.885788789987572
20
35.300111010074609
30
0
10
66.26083539247513
20
35.791243822574607
30
0
10
66.26083539247513
20
36.380603742599483
30
0
0
SPLINE
5
203
100
AcDbEntity
8
0
100
AcDbSpline
70
4
71
3
72
8
73
4
74
0
42
0.000000001
43
0.0000000001
44
0.0000000001
40
0
40
0
40
0
40
0
40
1
40
1
40
1
40
1
41
1
41
1
41
1
41
1
10
66.26083539247513
20
36.380603742599483
30
0
10
66.26083539247513
20
37.121766715049738
30
0
10
65.662546602487566
20
37.720056867599482
30
0
10
64.921382267475124
20
37.720056867599482
30
0
0
SPLINE
5
204
100
AcDbEntity
8
0
100
AcDbSpline
70
4
71
3
72
8
73
4
74
0
42
0.000000001
43
0.0000000001
44
0.0000000001
40
0
40
0
40
0
40
0
40
1
40
1
40
1
40
1
41
1
41
1
41
1
41
1
10
64.921382267475124
20
37.720056867599482
30
0
10
64.180217932462696
20
37.720056867599482
30
0
10
63.581929142475119
20
37.121766715049738
30
0
10
63.581929142475119
20
36.380603742599483
30
0
0
SPLINE
5
205
100
AcDbEntity
8
0
100
AcDbSpline
70
4
71
3
72
8
73
4
74
0
42
0.000000001
43
0.0000000001
44
0.0000000001
40
0
40
0
40
0
40
0
40
1
40
1
40
1
40
1
41
1
41
1
41
1
41
1
10
63.581929142475119
20
36.380603742599483
30
0
10
63.581929142475119
20
35.800174055099482
30
0
10
63.956975744962691
20
35.300111010074609
30
0
10
64.474897892475127
20
35.112587027549736
30
0
0
LINE
5
206
100
AcDbEntity
8
0
100
AcDbLine
10
64.474897892475113
20
35.112587027549736
30
0
11
64.474897892475127
21
31.013861010074606
31
0
0
LINE
5
207
100
AcDbEntity
8
0
100
AcDbLine
10
64.474897892475127
20
31.013861010074606
30
0
11
63.18009320497513
21
32.281874999999992
31
0
0
ENDSEC
0
SECTION
2
OBJECTS
0
DICTIONARY
5
C
100
AcDbDictionary
3
ACAD_GROUP
350
D
3
ACAD_MLINESTYLE
350
17
0
DICTIONARY
5
D
100
AcDbDictionary
0
DICTIONARY
5
1A
330
C
100
AcDbDictionary
0
DICTIONARY
5
17
100
AcDbDictionary
0
ENDSEC
0
EOF
