0
SECTION
2
HEADER
9
$INSUNITS
70
4
9
$ACADVER
1
AC1014
9
$HANDSEED
5
FFFF
0
ENDSEC
0
SECTION
2
TABLES
0
TABLE
2
VPORT
5
8
100
AcDbSymbolTable
0
ENDTAB
0
TABLE
2
LTYPE
5
5
100
AcDbSymbolTable
0
LTYPE
5
14
100
AcDbSymbolTableRecord
100
AcDbLinetypeTableRecord
2
BYBLOCK
70
0
0
LTYPE
5
15
100
AcDbSymbolTableRecord
100
AcDbLinetypeTableRecord
2
BYLAYER
70
0
0
ENDTAB
0
TABLE
2
LAYER
5
2
100
AcDbSymbolTable
70
2
0
LAYER
5
50
100
AcDbSymbolTableRecord
100
AcDbLayerTableRecord
2
0
70
0
6
CONTINUOUS
0
ENDTAB
0
TABLE
2
STYLE
5
3
100
AcDbSymbolTable
70
1
0
STYLE
5
11
100
AcDbSymbolTableRecord
100
AcDbTextStyleTableRecord
2
STANDARD
70
0
0
ENDTAB
0
TABLE
2
VIEW
5
6
100
AcDbSymbolTable
70
0
0
ENDTAB
0
TABLE
2
UCS
5
7
100
AcDbSymbolTable
70
0
0
ENDTAB
0
TABLE
2
APPID
5
9
100
AcDbSymbolTable
70
2
0
APPID
5
12
100
AcDbSymbolTableRecord
100
AcDbRegAppTableRecord
2
ACAD
70
0
0
ENDTAB
0
TABLE
2
DIMSTYLE
5
A
100
AcDbSymbolTable
70
1
0
ENDTAB
0
TABLE
2
BLOCK_RECORD
5
1
100
AcDbSymbolTable
70
1
0
BLOCK_RECORD
5
1F
100
AcDbSymbolTableRecord
100
AcDbBlockTableRecord
2
*MODEL_SPACE
0
BLOCK_RECORD
5
1B
100
AcDbSymbolTableRecord
100
AcDbBlockTableRecord
2
*PAPER_SPACE
0
ENDTAB
0
ENDSEC
0
SECTION
2
BLOCKS
0
BLOCK
5
20
100
AcDbEntity
100
AcDbBlockBegin
2
*MODEL_SPACE
0
ENDBLK
5
21
100
AcDbEntity
100
AcDbBlockEnd
0
BLOCK
5
1C
100
AcDbEntity
100
AcDbBlockBegin
2
*PAPER_SPACE
0
ENDBLK
5
1D
100
AcDbEntity
100
AcDbBlockEnd
0
ENDSEC
0
SECTION
2
ENTITIES
0
LWPOLYLINE
5
100
100
AcDbEntity
8
0
100
AcDbPolyline
90
4
70
1
43
0.0
10
36.945096899999996
20
52.370139399999999
10
79.514760300000006
20
52.370139399999999
10
79.514760300000006
20
14.637937749999995
10
36.945096900000003
20
14.637937750000001
0
SPLINE
5
101
100
AcDbEntity
8
0
100
AcDbSpline
70
4
71
3
72
8
73
4
74
0
42
0.000000001
43
0.0000000001
44
0.0000000001
40
0
40
0
40
0
40
0
40
1
40
1
40
1
40
1
41
1
41
1
41
1
41
1
10
63.862883403877255
20
33.020292400000002
30
0
10
63.959631982754516
20
33.2352907
30
0
10
64.024132128877255
20
33.471790142245482
30
0
10
64.024132128877255
20
33.719036875
30
0
0
SPLINE
5
102
100
AcDbEntity
8
0
100
AcDbSpline
70
4
71
3
72
8
73
4
74
0
42
0.000000001
43
0.0000000001
44
0.0000000001
40
0
40
0
40
0
40
0
40
1
40
1
40
1
40
1
41
1
41
1
41
1
41
1
10
64.024132128877255
20
33.719036875
30
0
10
64.024132128877255
20
34.61127850775452
30
0
10
63.303888151938629
20
35.331524125000001
30
0
10
62.411644878877262
20
35.331524125000001
30
0
0
SPLINE
5
103
100
AcDbEntity
8
0
100
AcDbSpline
70
4
71
3
72
8
73
4
74
0
42
0.000000001
43
0.0000000001
44
0.0000000001
40
0
40
0
40
0
40
0
40
1
40
1
40
1
40
1
41
1
41
1
41
1
41
1
10
62.411644878877262
20
35.331524125000001
30
0
10
61.519401605815887
20
35.331524125000001
30
0
10
60.799157628877261
20
34.61127850775452
30
0
10
60.799157628877261
20
33.719036875
30
0
0
SPLINE
5
104
100
AcDbEntity
8
0
100
AcDbSpline
70
4
71
3
72
8
73
4
74
0
42
0.000000001
43
0.0000000001
44
0.0000000001
40
0
40
0
40
0
40
0
40
1
40
1
40
1
40
1
41
1
41
1
41
1
41
1
10
60.799157628877261
20
33.719036875
30
0
10
60.799157628877261
20
32.826795242245481
30
0
10
61.519401605815887
20
32.106549625
30
0
10
62.411644878877262
20
32.106549625
30
0
0
SPLINE
5
105
100
AcDbEntity
8
0
100
AcDbSpline
70
4
71
3
72
8
73
4
74
0
42
0.000000001
43
0.0000000001
44
0.0000000001
40
0
40
0
40
0
40
0
40
1
40
1
40
1
40
1
41
1
41
1
41
1
41
1
10
62.411644878877262
20
32.106549625
30
0
10
62.658893251938622
20
32.106549625
30
0
10
62.895391053877255
20
32.160299199999997
30
0
10
63.110389353877267
20
32.26779835
30
0
0
LINE
5
106
100
AcDbEntity
8
0
100
AcDbLine
10
63.110389353877267
20
32.26779835
30
0
11
65.421621078877266
21
29.945816053877259
31
0
0
LINE
5
107
100
AcDbEntity
8
0
100
AcDbLine
10
65.421621078877266
20
29.945816053877259
30
0
11
65.421621078877251
21
27.699084475000003
31
0
0
LINE
5
108
100
AcDbEntity
8
0
100
AcDbLine
10
65.421621078877251
20
27.699084475000003
30
0
11
62.519144028877264
21
24.785856853877256
31
0
0
LINE
5
109
100
AcDbEntity
8
0
100
AcDbLine
10
62.519144028877264
20
24.785856853877256
30
0
11
62.519144028877264
21
26.914338711631775
31
0
0
SPLINE
5
110
100
AcDbEntity
8
0
100
AcDbSpline
70
4
71
3
72
8
73
4
74
0
42
0.000000001
43
0.0000000001
44
0.0000000001
40
0
40
0
40
0
40
0
40
1
40
1
40
1
40
1
41
1
41
1
41
1
41
1
10
62.519144028877264
20
26.914338711631771
30
0
10
63.142639426938629
20
27.140087582754511
30
0
10
63.59413552887726
20
27.731332907754513
30
0
10
63.59413552887726
20
28.440827953877257
30
0
0
SPLINE
5
111
100
AcDbEntity
8
0
100
AcDbSpline
70
4
71
3
72
8
73
4
74
0
42
0.000000001
43
0.0000000001
44
0.0000000001
40
0
40
0
40
0
40
0
40
1
40
1
40
1
40
1
41
1
41
1
41
1
41
1
10
63.59413552887726
20
28.440827953877257
30
0
10
63.59413552887726
20
29.333069586631773
30
0
10
62.873891551938634
20
30.053315203877258
30
0
10
61.981648278877259
20
30.053315203877258
30
0
0
SPLINE
5
112
100
AcDbEntity
8
0
100
AcDbSpline
70
4
71
3
72
8
73
4
74
0
42
0.000000001
43
0.0000000001
44
0.0000000001
40
0
40
0
40
0
40
0
40
1
40
1
40
1
40
1
41
1
41
1
41
1
41
1
10
61.981648278877259
20
30.053315203877258
30
0
10
61.089405005815891
20
30.053315203877258
30
0
10
60.369161028877258
20
29.333069586631773
30
0
10
60.369161028877258
20
28.440827953877257
30
0
0
SPLINE
5
113
100
AcDbEntity
8
0
100
AcDbSpline
70
4
71
3
72
8
73
4
74
0
42
0.000000001
43
0.0000000001
44
0.0000000001
40
0
40
0
40
0
40
0
40
1
40
1
40
1
40
1
41
1
41
1
41
1
41
1
10
60.369161028877258
20
28.440827953877257
30
0
10
60.369161028877258
20
27.742083478877255
30
0
10
60.820657130815889
20
27.140087582754511
30
0
10
61.444152528877254
20
26.914338711631771
30
0
0
LINE
5
114
100
AcDbEntity
8
0
100
AcDbLine
10
61.444152528877254
20
26.914338711631771
30
0
11
61.444152528877254
21
23.700114782754511
31
0
0
LINE
5
115
100
AcDbEntity
8
0
100
AcDbLine
10
61.444152528877254
20
23.700114782754511
30
0
11
58.756673778877257
21
21.001885461631773
31
0
0
LINE
5
116
100
AcDbEntity
8
0
100
AcDbLine
10
58.756673778877257
20
21.001885461631773
30
0
11
58.756673778877257
21
36.836512225
31
0
0
LINE
5
117
100
AcDbEntity
8
0
100
AcDbLine
10
58.756673778877257
20
36.836512225
30
0
11
60.960406353877261
21
39.050995371122738
31
0
0
SPLINE
5
118
100
AcDbEntity
8
0
100
AcDbSpline
70
4
71
3
72
8
73
4
74
0
42
0.000000001
43
0.0000000001
44
0.0000000001
40
0
40
0
40
0
40
0
40
1
40
1
40
1
40
1
41
1
41
1
41
1
41
1
10
60.960406353877261
20
39.050995371122738
30
0
10
61.175404653877258
20
38.954246792245485
30
0
10
61.401152704846574
20
38.889746646122738
30
0
10
61.659150828877259
20
38.889746646122738
30
0
0
SPLINE
5
119
100
AcDbEntity
8
0
100
AcDbSpline
70
4
71
3
72
8
73
4
74
0
42
0.000000001
43
0.0000000001
44
0.0000000001
40
0
40
0
40
0
40
0
40
1
40
1
40
1
40
1
41
1
41
1
41
1
41
1
10
61.659150828877259
20
38.889746646122738
30
0
10
62.551394101938627
20
38.889746646122738
30
0
10
63.27163807887726
20
39.609992263368227
30
0
10
63.27163807887726
20
40.502233896122739
30
0
0
SPLINE
5
120
100
AcDbEntity
8
0
100
AcDbSpline
70
4
71
3
72
8
73
4
74
0
42
0.000000001
43
0.0000000001
44
0.0000000001
40
0
40
0
40
0
40
0
40
1
40
1
40
1
40
1
41
1
41
1
41
1
41
1
10
63.27163807887726
20
40.502233896122739
30
0
10
63.27163807887726
20
41.394475528877251
30
0
10
62.551394101938627
20
42.11472114612274
30
0
10
61.659150828877259
20
42.11472114612274
30
0
0
SPLINE
5
121
100
AcDbEntity
8
0
100
AcDbSpline
70
4
71
3
72
8
73
4
74
0
42
0.000000001
43
0.0000000001
44
0.0000000001
40
0
40
0
40
0
40
0
40
1
40
1
40
1
40
1
41
1
41
1
41
1
41
1
10
61.659150828877259
20
42.11472114612274
30
0
10
60.766907555815884
20
42.11472114612274
30
0
10
60.046663578877258
20
41.394475528877251
30
0
10
60.046663578877258
20
40.502233896122739
30
0
0
SPLINE
5
122
100
AcDbEntity
8
0
100
AcDbSpline
70
4
71
3
72
8
73
4
74
0
42
0.000000001
43
0.0000000001
44
0.0000000001
40
0
40
0
40
0
40
0
40
1
40
1
40
1
40
1
41
1
41
1
41
1
41
1
10
60.046663578877258
20
40.502233896122739
30
0
10
60.046663578877258
20
40.254987163368227
30
0
10
60.100413153877255
20
40.018487721122739
30
0
10
60.207912303877258
20
39.803489421122741
30
0
0
LINE
5
123
100
AcDbEntity
8
0
100
AcDbLine
10
60.207912303877258
20
39.803489421122741
30
0
11
58.229928600000001
21
37.814755146122742
31
0
0
LINE
5
124
100
AcDbEntity
8
0
100
AcDbLine
10
58.229928600000001
20
37.814755146122742
30
0
11
56.25194407596932
21
39.803489421122741
31
0
0
SPLINE
5
125
100
AcDbEntity
8
0
100
AcDbSpline
70
4
71
3
72
8
73
4
74
0
42
0.000000001
43
0.0000000001
44
0.0000000001
40
0
40
0
40
0
40
0
40
1
40
1
40
1
40
1
41
1
41
1
41
1
41
1
10
56.25194407596932
20
39.803489421122741
30
0
10
56.348693475000005
20
40.018487721122739
30
0
10
56.413192800969313
20
40.254987163368227
30
0
10
56.413192800969313
20
40.502233896122739
30
0
0
SPLINE
5
126
100
AcDbEntity
8
0
100
AcDbSpline
70
4
71
3
72
8
73
4
74
0
42
0.000000001
43
0.0000000001
44
0.0000000001
40
0
40
0
40
0
40
0
40
1
40
1
40
1
40
1
41
1
41
1
41
1
41
1
10
56.413192800969313
20
40.502233896122739
30
0
10
56.413192800969313
20
41.394475528877251
30
0
10
55.692948413953971
20
42.11472114612274
30
0
10
54.800705550969312
20
42.11472114612274
30
0
0
SPLINE
5
127
100
AcDbEntity
8
0
100
AcDbSpline
70
4
71
3
72
8
73
4
74
0
42
0.000000001
43
0.0000000001
44
0.0000000001
40
0
40
0
40
0
40
0
40
1
40
1
40
1
40
1
41
1
41
1
41
1
41
1
10
54.800705550969312
20
42.11472114612274
30
0
10
53.90846268798466
20
42.11472114612274
30
0
10
53.188218300969311
20
41.394475528877251
30
0
10
53.188218300969311
20
40.502233896122739
30
0
0
SPLINE
5
128
100
AcDbEntity
8
0
100
AcDbSpline
70
4
71
3
72
8
73
4
74
0
42
0.000000001
43
0.0000000001
44
0.0000000001
40
0
40
0
40
0
40
0
40
1
40
1
40
1
40
1
41
1
41
1
41
1
41
1
10
53.188218300969311
20
40.502233896122739
30
0
10
53.188218300969311
20
39.609992263368227
30
0
10
53.90846268798466
20
38.889746646122738
30
0
10
54.800705550969312
20
38.889746646122738
30
0
0
SPLINE
5
129
100
AcDbEntity
8
0
100
AcDbSpline
70
4
71
3
72
8
73
4
74
0
42
0.000000001
43
0.0000000001
44
0.0000000001
40
0
40
0
40
0
40
0
40
1
40
1
40
1
40
1
41
1
41
1
41
1
41
1
10
54.800705550969312
20
38.889746646122738
30
0
10
55.047953513953971
20
38.889746646122738
30
0
10
55.284451725969319
20
38.943496221122743
30
0
10
55.499450025969317
20
39.050995371122738
30
0
0
LINE
5
130
100
AcDbEntity
8
0
100
AcDbLine
10
55.499450025969324
20
39.050995371122738
30
0
11
57.703182600969321
21
36.836512225
31
0
0
LINE
5
131
100
AcDbEntity
8
0
100
AcDbLine
10
57.703182600969321
20
36.836512225
30
0
11
57.703182600969313
21
25.527600332754517
31
0
0
LINE
5
132
100
AcDbEntity
8
0
100
AcDbLine
10
57.703182600969313
20
25.527600332754517
30
0
11
53.833213200969311
21
29.408320303877261
31
0
0
LINE
5
133
100
AcDbEntity
8
0
100
AcDbLine
10
53.833213200969311
20
29.408320303877261
30
0
11
53.833213200969318
21
32.515045082754511
31
0
0
SPLINE
5
134
100
AcDbEntity
8
0
100
AcDbSpline
70
4
71
3
72
8
73
4
74
0
42
0.000000001
43
0.0000000001
44
0.0000000001
40
0
40
0
40
0
40
0
40
1
40
1
40
1
40
1
41
1
41
1
41
1
41
1
10
53.833213200969318
20
32.515045082754519
30
0
10
54.456708188953975
20
32.740793953877258
30
0
10
54.908204700969314
20
33.332039278877254
30
0
10
54.908204700969314
20
34.041534325000001
30
0
0
SPLINE
5
135
100
AcDbEntity
8
0
100
AcDbSpline
70
4
71
3
72
8
73
4
74
0
42
0.000000001
43
0.0000000001
44
0.0000000001
40
0
40
0
40
0
40
0
40
1
40
1
40
1
40
1
41
1
41
1
41
1
41
1
10
54.908204700969314
20
34.041534325000001
30
0
10
54.908204700969314
20
34.933775957754513
30
0
10
54.187960313953965
20
35.654021575000002
30
0
10
53.295717450969313
20
35.654021575000002
30
0
0
SPLINE
5
136
100
AcDbEntity
8
0
100
AcDbSpline
70
4
71
3
72
8
73
4
74
0
42
0.000000001
43
0.0000000001
44
0.0000000001
40
0
40
0
40
0
40
0
40
1
40
1
40
1
40
1
41
1
41
1
41
1
41
1
10
53.295717450969313
20
35.654021575000002
30
0
10
52.403474587984661
20
35.654021575000002
30
0
10
51.683230200969312
20
34.933775957754513
30
0
10
51.683230200969312
20
34.041534325000001
30
0
0
SPLINE
5
137
100
AcDbEntity
8
0
100
AcDbSpline
70
4
71
3
72
8
73
4
74
0
42
0.000000001
43
0.0000000001
44
0.0000000001
40
0
40
0
40
0
40
0
40
1
40
1
40
1
40
1
41
1
41
1
41
1
41
1
10
51.683230200969312
20
34.041534325000001
30
0
10
51.683230200969312
20
33.342789849999996
30
0
10
52.134726712984659
20
32.740793953877258
30
0
10
52.758221700969308
20
32.515045082754519
30
0
0
LINE
5
138
100
AcDbEntity
8
0
100
AcDbLine
10
52.758221700969308
20
32.515045082754519
30
0
11
52.758221700969308
21
30.494062374999999
31
0
0
LINE
5
139
100
AcDbEntity
8
0
100
AcDbLine
10
52.758221700969308
20
30.494062374999999
30
0
11
49.748245500969304
21
33.514789146122737
31
0
0
LINE
5
140
100
AcDbEntity
8
0
100
AcDbLine
10
49.748245500969304
20
33.514789146122737
30
0
11
49.748245500969318
21
36.514014775
31
0
0
SPLINE
5
141
100
AcDbEntity
8
0
100
AcDbSpline
70
4
71
3
72
8
73
4
74
0
42
0.000000001
43
0.0000000001
44
0.0000000001
40
0
40
0
40
0
40
0
40
1
40
1
40
1
40
1
41
1
41
1
41
1
41
1
10
49.748245500969318
20
36.514014775
30
0
10
50.371740591473149
20
36.739763646122739
30
0
10
50.823237000969314
20
37.331008971122742
30
0
10
50.823237000969314
20
38.040504017245482
30
0
0
SPLINE
5
142
100
AcDbEntity
8
0
100
AcDbSpline
70
4
71
3
72
8
73
4
74
0
42
0.000000001
43
0.0000000001
44
0.0000000001
40
0
40
0
40
0
40
0
40
1
40
1
40
1
40
1
41
1
41
1
41
1
41
1
10
50.823237000969314
20
38.040504017245482
30
0
10
50.823237000969314
20
38.932745650000001
30
0
10
50.102992716473153
20
39.652991267245483
30
0
10
49.210749750969313
20
39.652991267245483
30
0
0
SPLINE
5
143
100
AcDbEntity
8
0
100
AcDbSpline
70
4
71
3
72
8
73
4
74
0
42
0.000000001
43
0.0000000001
44
0.0000000001
40
0
40
0
40
0
40
0
40
1
40
1
40
1
40
1
41
1
41
1
41
1
41
1
10
49.210749750969313
20
39.652991267245483
30
0
10
48.31850678546548
20
39.652991267245483
30
0
10
47.598262500969312
20
38.932745650000001
30
0
10
47.598262500969312
20
38.040504017245482
30
0
0
SPLINE
5
144
100
AcDbEntity
8
0
100
AcDbSpline
70
4
71
3
72
8
73
4
74
0
42
0.000000001
43
0.0000000001
44
0.0000000001
40
0
40
0
40
0
40
0
40
1
40
1
40
1
40
1
41
1
41
1
41
1
41
1
10
47.598262500969312
20
38.040504017245482
30
0
10
47.598262500969312
20
37.341759542245484
30
0
10
48.049758910465471
20
36.739763646122739
30
0
10
48.673254000969315
20
36.514014775
30
0
0
LINE
5
145
100
AcDbEntity
8
0
100
AcDbLine
10
48.673254000969308
20
36.514014775
30
0
11
48.673254000969315
21
33.074041975
31
0
0
LINE
5
146
100
AcDbEntity
8
0
100
AcDbLine
10
48.673254000969315
20
33.074041975
30
0
11
51.994977694961648
21
29.741568324999999
31
0
0
LINE
5
147
100
AcDbEntity
8
0
100
AcDbLine
10
51.994977694961648
20
29.741568324999999
30
0
11
50.070743156007673
21
29.741568324999996
31
0
0
SPLINE
5
148
100
AcDbEntity
8
0
100
AcDbSpline
70
4
71
3
72
8
73
4
74
0
42
0.000000001
43
0.0000000001
44
0.0000000001
40
0
40
0
40
0
40
0
40
1
40
1
40
1
40
1
41
1
41
1
41
1
41
1
10
50.070743156007673
20
29.741568324999996
30
0
10
49.844994951259586
20
30.365062082754513
30
0
10
49.253749626259591
20
30.816559824999995
30
0
10
48.555005099999995
20
30.816559824999995
30
0
0
SPLINE
5
149
100
AcDbEntity
8
0
100
AcDbSpline
70
4
71
3
72
8
73
4
74
0
42
0.000000001
43
0.0000000001
44
0.0000000001
40
0
40
0
40
0
40
0
40
1
40
1
40
1
40
1
41
1
41
1
41
1
41
1
10
48.555005099999995
20
30.816559824999995
30
0
10
47.662762134496163
20
30.816559824999995
30
0
10
46.942517849999994
20
30.096314207754517
30
0
10
46.942517849999994
20
29.204072574999998
30
0
0
SPLINE
5
150
100
AcDbEntity
8
0
100
AcDbSpline
70
4
71
3
72
8
73
4
74
0
42
0.000000001
43
0.0000000001
44
0.0000000001
40
0
40
0
40
0
40
0
40
1
40
1
40
1
40
1
41
1
41
1
41
1
41
1
10
46.942517849999994
20
29.204072574999998
30
0
10
46.942517849999994
20
28.311830942245486
30
0
10
47.662762134496163
20
27.591585324999997
30
0
10
48.555005099999995
20
27.591585324999997
30
0
0
SPLINE
5
151
100
AcDbEntity
8
0
100
AcDbSpline
70
4
71
3
72
8
73
4
74
0
42
0.000000001
43
0.0000000001
44
0.0000000001
40
0
40
0
40
0
40
0
40
1
40
1
40
1
40
1
41
1
41
1
41
1
41
1
10
48.555005099999995
20
27.591585324999997
30
0
10
49.253749575000001
20
27.591585324999997
30
0
10
49.855744856007675
20
28.043083067245476
30
0
10
50.070743156007673
20
28.666576824999996
30
0
0
LINE
5
152
100
AcDbEntity
8
0
100
AcDbLine
10
50.070743156007673
20
28.666576824999996
30
0
11
53.05921964903068
21
28.666576824999996
31
0
0
LINE
5
153
100
AcDbEntity
8
0
100
AcDbLine
10
53.05921964903068
20
28.666576824999996
30
0
11
57.681683099030678
21
24.022612232754511
31
0
0
LINE
5
154
100
AcDbEntity
8
0
100
AcDbLine
10
57.681683099030678
20
24.022612232754511
30
0
11
57.681683099030685
21
15.949425411631776
31
0
0
LINE
5
155
100
AcDbEntity
8
0
100
AcDbLine
10
57.681683099030685
20
15.949425411631776
30
0
11
55.209202649030686
21
18.432656432754513
31
0
0
LINE
5
156
100
AcDbEntity
8
0
100
AcDbLine
10
55.209202649030686
20
18.432656432754513
30
0
11
55.209202649030686
21
21.53938121163177
31
0
0
SPLINE
5
157
100
AcDbEntity
8
0
100
AcDbSpline
70
4
71
3
72
8
73
4
74
0
42
0.000000001
43
0.0000000001
44
0.0000000001
40
0
40
0
40
0
40
0
40
1
40
1
40
1
40
1
41
1
41
1
41
1
41
1
10
55.209202649030686
20
21.539381211631774
30
0
10
55.832697637015343
20
21.765130082754514
30
0
10
56.284194149030682
20
22.356375407754516
30
0
10
56.284194149030682
20
23.06587045387726
30
0
0
SPLINE
5
158
100
AcDbEntity
8
0
100
AcDbSpline
70
4
71
3
72
8
73
4
74
0
42
0.000000001
43
0.0000000001
44
0.0000000001
40
0
40
0
40
0
40
0
40
1
40
1
40
1
40
1
41
1
41
1
41
1
41
1
10
56.284194149030682
20
23.06587045387726
30
0
10
56.284194149030682
20
23.958112086631775
30
0
10
55.563949762015341
20
24.678357703877261
30
0
10
54.671706899030681
20
24.678357703877261
30
0
0
SPLINE
5
159
100
AcDbEntity
8
0
100
AcDbSpline
70
4
71
3
72
8
73
4
74
0
42
0.000000001
43
0.0000000001
44
0.0000000001
40
0
40
0
40
0
40
0
40
1
40
1
40
1
40
1
41
1
41
1
41
1
41
1
10
54.671706899030681
20
24.678357703877261
30
0
10
53.779464036046029
20
24.678357703877261
30
0
10
53.05921964903068
20
23.958112086631775
30
0
10
53.05921964903068
20
23.06587045387726
30
0
0
SPLINE
5
160
100
AcDbEntity
8
0
100
AcDbSpline
70
4
71
3
72
8
73
4
74
0
42
0.000000001
43
0.0000000001
44
0.0000000001
40
0
40
0
40
0
40
0
40
1
40
1
40
1
40
1
41
1
41
1
41
1
41
1
10
53.05921964903068
20
23.06587045387726
30
0
10
53.05921964903068
20
22.367125978877258
30
0
10
53.510716161046034
20
21.765130082754514
30
0
10
54.134211149030691
20
21.539381211631774
30
0
0
LINE
5
161
100
AcDbEntity
8
0
100
AcDbLine
10
54.134211149030691
20
21.539381211631774
30
0
11
54.134211149030691
21
19.518398503877258
31
0
0
LINE
5
162
100
AcDbEntity
8
0
100
AcDbLine
10
54.134211149030691
20
19.518398503877258
30
0
11
50.543739375000001
21
23.130370599999992
31
0
0
SPLINE
5
163
100
AcDbEntity
8
0
100
AcDbSpline
70
4
71
3
72
8
73
4
74
0
42
0.000000001
43
0.0000000001
44
0.0000000001
40
0
40
0
40
0
40
0
40
1
40
1
40
1
40
1
41
1
41
1
41
1
41
1
10
50.543739375000001
20
23.130370599999999
30
0
10
50.640488568992332
20
23.345368899999997
30
0
10
50.704988100000001
20
23.581868342245478
30
0
10
50.704988100000001
20
23.829115074999994
30
0
0
SPLINE
5
164
100
AcDbEntity
8
0
100
AcDbSpline
70
4
71
3
72
8
73
4
74
0
42
0.000000001
43
0.0000000001
44
0.0000000001
40
0
40
0
40
0
40
0
40
1
40
1
40
1
40
1
41
1
41
1
41
1
41
1
10
50.704988100000001
20
23.829115074999994
30
0
10
50.704988100000001
20
24.721356707754516
30
0
10
49.984743815503833
20
25.441602324999995
30
0
10
49.09250085
20
25.441602324999995
30
0
0
SPLINE
5
165
100
AcDbEntity
8
0
100
AcDbSpline
70
4
71
3
72
8
73
4
74
0
42
0.000000001
43
0.0000000001
44
0.0000000001
40
0
40
0
40
0
40
0
40
1
40
1
40
1
40
1
41
1
41
1
41
1
41
1
10
49.09250085
20
25.441602324999995
30
0
10
48.20025788449616
20
25.441602324999995
30
0
10
47.480013599999999
20
24.721356707754516
30
0
10
47.480013599999999
20
23.829115074999994
30
0
0
SPLINE
5
166
100
AcDbEntity
8
0
100
AcDbSpline
70
4
71
3
72
8
73
4
74
0
42
0.000000001
43
0.0000000001
44
0.0000000001
40
0
40
0
40
0
40
0
40
1
40
1
40
1
40
1
41
1
41
1
41
1
41
1
10
47.480013599999999
20
23.829115074999994
30
0
10
47.480013599999999
20
22.936873442245478
30
0
10
48.20025788449616
20
22.216627825000003
30
0
10
49.09250085
20
22.216627825000003
30
0
0
SPLINE
5
167
100
AcDbEntity
8
0
100
AcDbSpline
70
4
71
3
72
8
73
4
74
0
42
0.000000001
43
0.0000000001
44
0.0000000001
40
0
40
0
40
0
40
0
40
1
40
1
40
1
40
1
41
1
41
1
41
1
41
1
10
49.09250085
20
22.216627825000003
30
0
10
49.339748889874038
20
22.216627825000003
30
0
10
49.576247024999994
20
22.270377400000001
30
0
10
49.791245325000006
20
22.37787655
30
0
0
LINE
5
168
100
AcDbEntity
8
0
100
AcDbLine
10
49.791245325000006
20
22.37787655
30
0
11
53.381717099030688
21
18.765904453877258
31
0
0
LINE
5
169
100
AcDbEntity
8
0
100
AcDbLine
10
53.381717099030688
20
18.765904453877258
30
0
11
51.468232106007676
21
18.765904453877262
31
0
0
SPLINE
5
170
100
AcDbEntity
8
0
100
AcDbSpline
70
4
71
3
72
8
73
4
74
0
42
0.000000001
43
0.0000000001
44
0.0000000001
40
0
40
0
40
0
40
0
40
1
40
1
40
1
40
1
41
1
41
1
41
1
41
1
10
51.468232106007676
20
18.765904453877262
30
0
10
51.242483849999999
20
19.389398211631772
30
0
10
50.651238525000004
20
19.840895953877258
30
0
10
49.952494049999999
20
19.840895953877258
30
0
0
SPLINE
5
171
100
AcDbEntity
8
0
100
AcDbSpline
70
4
71
3
72
8
73
4
74
0
42
0.000000001
43
0.0000000001
44
0.0000000001
40
0
40
0
40
0
40
0
40
1
40
1
40
1
40
1
41
1
41
1
41
1
41
1
10
49.952494049999999
20
19.840895953877258
30
0
10
49.060251084496159
20
19.840895953877258
30
0
10
48.340006799999998
20
19.120650336631773
30
0
10
48.340006799999998
20
18.228408703877257
30
0
0
SPLINE
5
172
100
AcDbEntity
8
0
100
AcDbSpline
70
4
71
3
72
8
73
4
74
0
42
0.000000001
43
0.0000000001
44
0.0000000001
40
0
40
0
40
0
40
0
40
1
40
1
40
1
40
1
41
1
41
1
41
1
41
1
10
48.340006799999998
20
18.228408703877257
30
0
10
48.340006799999998
20
17.336167071122741
30
0
10
49.060251084496159
20
16.615921453877256
30
0
10
49.952494049999999
20
16.615921453877256
30
0
0
SPLINE
5
173
100
AcDbEntity
8
0
100
AcDbSpline
70
4
71
3
72
8
73
4
74
0
42
0.000000001
43
0.0000000001
44
0.0000000001
40
0
40
0
40
0
40
0
40
1
40
1
40
1
40
1
41
1
41
1
41
1
41
1
10
49.952494049999999
20
16.615921453877256
30
0
10
50.651238525000004
20
16.615921453877256
30
0
10
51.253233806007671
20
17.067419196122735
30
0
10
51.468232106007676
20
17.690912953877252
30
0
0
LINE
5
174
100
AcDbEntity
8
0
100
AcDbLine
10
51.468232106007676
20
17.690912953877252
30
0
11
54.456708599030684
21
17.690912953877252
31
0
0
LINE
5
175
100
AcDbEntity
8
0
100
AcDbLine
10
54.456708599030684
20
17.690912953877252
30
0
11
57.466684799030688
21
14.670186182754513
31
0
0
LINE
5
176
100
AcDbEntity
8
0
100
AcDbLine
10
57.466684799030688
20
14.670186182754513
30
0
11
58.982422649999997
21
14.670186182754517
31
0
0
LINE
5
177
100
AcDbEntity
8
0
100
AcDbLine
10
58.982422649999997
20
14.670186182754517
30
0
11
62.09989800000001
21
17.798412103877258
31
0
0
LINE
5
178
100
AcDbEntity
8
0
100
AcDbLine
10
62.09989800000001
20
17.798412103877258
30
0
11
64.980875548061363
21
17.798412103877254
31
0
0
SPLINE
5
179
100
AcDbEntity
8
0
100
AcDbSpline
70
4
71
3
72
8
73
4
74
0
42
0.000000001
43
0.0000000001
44
0.0000000001
40
0
40
0
40
0
40
0
40
1
40
1
40
1
40
1
41
1
41
1
41
1
41
1
10
64.980875548061363
20
17.798412103877254
30
0
10
65.206624419184109
20
17.174918346122745
30
0
10
65.797869744184112
20
16.723420603877255
30
0
10
66.49661421918411
20
16.723420603877255
30
0
0
SPLINE
5
180
100
AcDbEntity
8
0
100
AcDbSpline
70
4
71
3
72
8
73
4
74
0
42
0.000000001
43
0.0000000001
44
0.0000000001
40
0
40
0
40
0
40
0
40
1
40
1
40
1
40
1
41
1
41
1
41
1
41
1
10
66.49661421918411
20
16.723420603877255
30
0
10
67.388857492245492
20
16.723420603877255
30
0
10
68.109101469184111
20
17.44366622112274
30
0
10
68.109101469184111
20
18.335907853877256
30
0
0
SPLINE
5
181
100
AcDbEntity
8
0
100
AcDbSpline
70
4
71
3
72
8
73
4
74
0
42
0.000000001
43
0.0000000001
44
0.0000000001
40
0
40
0
40
0
40
0
40
1
40
1
40
1
40
1
41
1
41
1
41
1
41
1
10
68.109101469184111
20
18.335907853877256
30
0
10
68.109101469184111
20
19.228149486631771
30
0
10
67.388857492245492
20
19.948395103877257
30
0
10
66.49661421918411
20
19.948395103877257
30
0
0
SPLINE
5
182
100
AcDbEntity
8
0
100
AcDbSpline
70
4
71
3
72
8
73
4
74
0
42
0.000000001
43
0.0000000001
44
0.0000000001
40
0
40
0
40
0
40
0
40
1
40
1
40
1
40
1
41
1
41
1
41
1
41
1
10
66.49661421918411
20
19.948395103877257
30
0
10
65.797869744184112
20
19.948395103877257
30
0
10
65.195873848061368
20
19.496897361631767
30
0
10
64.980875548061363
20
18.873403603877257
30
0
0
LINE
5
183
100
AcDbEntity
8
0
100
AcDbLine
10
64.980875548061363
20
18.873403603877257
30
0
11
61.659151649030683
21
18.873403603877257
31
0
0
LINE
5
184
100
AcDbEntity
8
0
100
AcDbLine
10
61.659151649030683
20
18.873403603877257
30
0
11
58.767424350000006
21
15.970926553877259
31
0
0
LINE
5
185
100
AcDbEntity
8
0
100
AcDbLine
10
58.767424350000006
20
15.970926553877259
30
0
11
58.767424349999999
21
19.518398503877254
31
0
0
LINE
5
186
100
AcDbEntity
8
0
100
AcDbLine
10
58.767424349999999
20
19.518398503877254
30
0
11
62.207397149999998
21
22.979872446122734
31
0
0
LINE
5
187
100
AcDbEntity
8
0
100
AcDbLine
10
62.207397149999998
20
22.979872446122734
30
0
11
67.765102876938627
21
22.979872446122734
31
0
0
SPLINE
5
188
100
AcDbEntity
8
0
100
AcDbSpline
70
4
71
3
72
8
73
4
74
0
42
0.000000001
43
0.0000000001
44
0.0000000001
40
0
40
0
40
0
40
0
40
1
40
1
40
1
40
1
41
1
41
1
41
1
41
1
10
67.765102876938641
20
22.979872446122734
30
0
10
67.990851748061374
20
22.356378688368224
30
0
10
68.582097073061377
20
21.904880946122738
30
0
10
69.280841548061375
20
21.904880946122738
30
0
0
SPLINE
5
189
100
AcDbEntity
8
0
100
AcDbSpline
70
4
71
3
72
8
73
4
74
0
42
0.000000001
43
0.0000000001
44
0.0000000001
40
0
40
0
40
0
40
0
40
1
40
1
40
1
40
1
41
1
41
1
41
1
41
1
10
69.280841548061375
20
21.904880946122738
30
0
10
70.173084821122728
20
21.904880946122738
30
0
10
70.893328798061376
20
22.625126563368223
30
0
10
70.893328798061376
20
23.517368196122739
30
0
0
SPLINE
5
190
100
AcDbEntity
8
0
100
AcDbSpline
70
4
71
3
72
8
73
4
74
0
42
0.000000001
43
0.0000000001
44
0.0000000001
40
0
40
0
40
0
40
0
40
1
40
1
40
1
40
1
41
1
41
1
41
1
41
1
10
70.893328798061376
20
23.517368196122739
30
0
10
70.893328798061376
20
24.409609828877255
30
0
10
70.173084821122728
20
25.12985544612274
30
0
10
69.280841548061375
20
25.12985544612274
30
0
0
SPLINE
5
191
100
AcDbEntity
8
0
100
AcDbSpline
70
4
71
3
72
8
73
4
74
0
42
0.000000001
43
0.0000000001
44
0.0000000001
40
0
40
0
40
0
40
0
40
1
40
1
40
1
40
1
41
1
41
1
41
1
41
1
10
69.280841548061375
20
25.12985544612274
30
0
10
68.582097073061377
20
25.12985544612274
30
0
10
67.980101176938632
20
24.678357703877261
30
0
10
67.765102876938641
20
24.054863946122744
30
0
0
LINE
5
192
100
AcDbEntity
8
0
100
AcDbLine
10
67.765102876938627
20
24.054863946122744
30
0
11
63.282388650000001
21
24.054863946122744
31
0
0
LINE
5
193
100
AcDbEntity
8
0
100
AcDbLine
10
63.282388650000001
20
24.054863946122744
30
0
11
66.496612578877262
21
27.279838446122746
31
0
0
LINE
5
194
100
AcDbEntity
8
0
100
AcDbLine
10
66.496612578877262
20
27.279838446122746
30
0
11
66.496612578877262
21
29.978067767245484
31
0
0
LINE
5
195
100
AcDbEntity
8
0
100
AcDbLine
10
66.496612578877262
20
29.978067767245484
30
0
11
68.80784430387726
21
32.300050063368225
31
0
0
SPLINE
5
196
100
AcDbEntity
8
0
100
AcDbSpline
70
4
71
3
72
8
73
4
74
0
42
0.000000001
43
0.0000000001
44
0.0000000001
40
0
40
0
40
0
40
0
40
1
40
1
40
1
40
1
41
1
41
1
41
1
41
1
10
68.80784430387726
20
32.300050063368225
30
0
10
69.022842603877251
20
32.203301484490964
30
0
10
69.248591474999998
20
32.138801338368225
30
0
10
69.506588778877259
20
32.138801338368225
30
0
0
SPLINE
5
197
100
AcDbEntity
8
0
100
AcDbSpline
70
4
71
3
72
8
73
4
74
0
42
0.000000001
43
0.0000000001
44
0.0000000001
40
0
40
0
40
0
40
0
40
1
40
1
40
1
40
1
41
1
41
1
41
1
41
1
10
69.506588778877259
20
32.138801338368225
30
0
10
70.398832051938626
20
32.138801338368225
30
0
10
71.119076028877259
20
32.859046955613707
30
0
10
71.119076028877259
20
33.751288588368226
30
0
0
SPLINE
5
198
100
AcDbEntity
8
0
100
AcDbSpline
70
4
71
3
72
8
73
4
74
0
42
0.000000001
43
0.0000000001
44
0.0000000001
40
0
40
0
40
0
40
0
40
1
40
1
40
1
40
1
41
1
41
1
41
1
41
1
10
71.119076028877259
20
33.751288588368226
30
0
10
71.119076028877259
20
34.643530221122738
30
0
10
70.398832051938626
20
35.363775838368227
30
0
10
69.506588778877259
20
35.363775838368227
30
0
0
SPLINE
5
199
100
AcDbEntity
8
0
100
AcDbSpline
70
4
71
3
72
8
73
4
74
0
42
0.000000001
43
0.0000000001
44
0.0000000001
40
0
40
0
40
0
40
0
40
1
40
1
40
1
40
1
41
1
41
1
41
1
41
1
10
69.506588778877259
20
35.363775838368227
30
0
10
68.614345505815891
20
35.363775838368227
30
0
10
67.894101528877258
20
34.643530221122738
30
0
10
67.894101528877258
20
33.751288588368226
30
0
0
SPLINE
5
200
100
AcDbEntity
8
0
100
AcDbSpline
70
4
71
3
72
8
73
4
74
0
42
0.000000001
43
0.0000000001
44
0.0000000001
40
0
40
0
40
0
40
0
40
1
40
1
40
1
40
1
41
1
41
1
41
1
41
1
10
67.894101528877258
20
33.751288588368226
30
0
10
67.894101528877258
20
33.504041855613707
30
0
10
67.947851103877255
20
33.267542413368226
30
0
10
68.055350253877251
20
33.052544113368228
30
0
0
LINE
5
201
100
AcDbEntity
8
0
100
AcDbLine
10
68.055350253877251
20
33.052544113368228
30
0
11
66.496612578877262
21
31.493806438368225
31
0
0
LINE
5
202
100
AcDbEntity
8
0
100
AcDbLine
10
66.496612578877262
20
31.493806438368225
30
0
11
66.496612578877262
21
36.428016767245481
31
0
0
SPLINE
5
203
100
AcDbEntity
8
0
100
AcDbSpline
70
4
71
3
72
8
73
4
74
0
42
0.000000001
43
0.0000000001
44
0.0000000001
40
0
40
0
40
0
40
0
40
1
40
1
40
1
40
1
41
1
41
1
41
1
41
1
10
66.496612578877262
20
36.428016767245481
30
0
10
67.120107976938627
20
36.65376563836822
30
0
10
67.571604078877257
20
37.245010963368223
30
0
10
67.571604078877257
20
37.954506009490963
30
0
0
SPLINE
5
204
100
AcDbEntity
8
0
100
AcDbSpline
70
4
71
3
72
8
73
4
74
0
42
0.000000001
43
0.0000000001
44
0.0000000001
40
0
40
0
40
0
40
0
40
1
40
1
40
1
40
1
41
1
41
1
41
1
41
1
10
67.571604078877257
20
37.954506009490963
30
0
10
67.571604078877257
20
38.846747642245482
30
0
10
66.851360101938624
20
39.566993259490964
30
0
10
65.959116828877256
20
39.566993259490964
30
0
0
SPLINE
5
205
100
AcDbEntity
8
0
100
AcDbSpline
70
4
71
3
72
8
73
4
74
0
42
0.000000001
43
0.0000000001
44
0.0000000001
40
0
40
0
40
0
40
0
40
1
40
1
40
1
40
1
41
1
41
1
41
1
41
1
10
65.959116828877256
20
39.566993259490964
30
0
10
65.066873555815889
20
39.566993259490964
30
0
10
64.346629578877256
20
38.846747642245482
30
0
10
64.346629578877256
20
37.954506009490963
30
0
0
SPLINE
5
206
100
AcDbEntity
8
0
100
AcDbSpline
70
4
71
3
72
8
73
4
74
0
42
0.000000001
43
0.0000000001
44
0.0000000001
40
0
40
0
40
0
40
0
40
1
40
1
40
1
40
1
41
1
41
1
41
1
41
1
10
64.346629578877256
20
37.954506009490963
30
0
10
64.346629578877256
20
37.255761534490965
30
0
10
64.798125680815886
20
36.65376563836822
30
0
10
65.421621078877251
20
36.428016767245481
30
0
0
LINE
5
207
100
AcDbEntity
8
0
100
AcDbLine
10
65.421621078877251
20
36.428016767245481
30
0
11
65.421621078877251
21
31.493806438368225
31
0
0
LINE
5
208
100
AcDbEntity
8
0
100
AcDbLine
10
65.421621078877251
20
31.493806438368225
30
0
11
63.862883403877255
21
33.020292400000002
31
0
0
ENDSEC
0
SECTION
2
OBJECTS
0
DICTIONARY
5
C
100
AcDbDictionary
3
ACAD_GROUP
350
D
3
ACAD_MLINESTYLE
350
17
0
DICTIONARY
5
D
100
AcDbDictionary
0
DICTIONARY
5
1A
330
C
100
AcDbDictionary
0
DICTIONARY
5
17
100
AcDbDictionary
0
ENDSEC
0
EOF
