                                                                        S      1
,,18HWalllight Mount v6,18HWalllight Mount v6,7Hunknown,7Hunknown,32,38,G      1
7,99,15,,1.,2,2HMM,1,0.08,15H20220922.115314,0.01,10000.,7Hunknown,7HunkG      2
nown,11,0,15H20190819.104015;                                           G      3
     186       1                                                00000000D      1
     186            -235       1       0                               0D      2
     514       2                                                00010000D      3
     514                       2       1                               0D      4
     510       4                                                00010000D      5
     510            -235       1       1                               0D      6
     510       5                                                00010000D      7
     510            -235       1       1                               0D      8
     510       6                                                00010000D      9
     510            -235       1       1                               0D     10
     510       7                                                00010000D     11
     510            -235       1       1                               0D     12
     510       8                                                00010000D     13
     510            -235       1       1                               0D     14
     510       9                                                00010000D     15
     510            -235       1       1                               0D     16
     510      10                                                00010000D     17
     510            -235       1       1                               0D     18
     510      11                                                00010000D     19
     510            -235       1       1                               0D     20
     510      12                                                00010000D     21
     510            -235       1       1                               0D     22
     510      13                                                00010000D     23
     510            -235       1       1                               0D     24
     510      14                                                00010000D     25
     510            -235       1       1                               0D     26
     510      15                                                00010000D     27
     510            -235       1       1                               0D     28
     510      16                                                00010000D     29
     510            -235       1       1                               0D     30
     510      17                                                00010000D     31
     510            -235       1       1                               0D     32
     510      18                                                00010000D     33
     510            -235       1       1                               0D     34
     510      19                                                00010000D     35
     510            -235       1       1                               0D     36
     510      20                                                00010000D     37
     510            -235       1       1                               0D     38
     510      21                                                00010000D     39
     510            -235       1       1                               0D     40
     510      22                                                00010000D     41
     510            -235       1       1                               0D     42
     508      23                                                00010000D     43
     508                       1       1                               0D     44
     508      24                                                00010000D     45
     508                       1       1                               0D     46
     508      25                                                00010000D     47
     508                       1       1                               0D     48
     508      26                                                00010000D     49
     508                       2       1                               0D     50
     508      28                                                00010000D     51
     508                       1       1                               0D     52
     508      29                                                00010000D     53
     508                       1       1                               0D     54
     508      30                                                00010000D     55
     508                       2       1                               0D     56
     508      32                                                00010000D     57
     508                       1       1                               0D     58
     508      33                                                00010000D     59
     508                       1       1                               0D     60
     508      34                                                00010000D     61
     508                       1       1                               0D     62
     508      35                                                00010000D     63
     508                       1       1                               0D     64
     508      36                                                00010000D     65
     508                       3       1                               0D     66
     508      39                                                00010000D     67
     508                       1       1                               0D     68
     508      40                                                00010000D     69
     508                       1       1                               0D     70
     508      41                                                00010000D     71
     508                       1       1                               0D     72
     508      42                                                00010000D     73
     508                       1       1                               0D     74
     508      43                                                00010000D     75
     508                       1       1                               0D     76
     508      44                                                00010000D     77
     508                       1       1                               0D     78
     508      45                                                00010000D     79
     508                       1       1                               0D     80
     508      46                                                00010000D     81
     508                       1       1                               0D     82
     508      47                                                00010000D     83
     508                       1       1                               0D     84
     508      48                                                00010000D     85
     508                       1       1                               0D     86
     508      49                                                00010000D     87
     508                       3       1                               0D     88
     126      52                                                00010000D     89
     126       0               3       0                               0D     90
     126      55                                                00010000D     91
     126       0               7       0                               0D     92
     126      62                                                00010000D     93
     126       0               3       0                               0D     94
     126      65                                                00010000D     95
     126       0               7       0                               0D     96
     126      72                                                00010000D     97
     126       0               3       0                               0D     98
     126      75                                                00010000D     99
     126       0               7       0                               0D    100
     126      82                                                00010000D    101
     126       0               3       0                               0D    102
     126      85                                                00010000D    103
     126       0               7       0                               0D    104
     126      92                                                00010000D    105
     126       0               2       0                               0D    106
     126      94                                                00010000D    107
     126       0               3       0                               0D    108
     126      97                                                00010000D    109
     126       0               3       0                               0D    110
     126     100                                                00010000D    111
     126       0               4       0                               0D    112
     126     104                                                00010000D    113
     126       0               3       0                               0D    114
     126     107                                                00010000D    115
     126       0               4       0                               0D    116
     126     111                                                00010000D    117
     126       0               3       0                               0D    118
     126     114                                                00010000D    119
     126       0               4       0                               0D    120
     126     118                                                00010000D    121
     126       0               8       0                               0D    122
     126     126                                                00010000D    123
     126       0               2       0                               0D    124
     126     128                                                00010000D    125
     126       0               8       0                               0D    126
     126     136                                                00010000D    127
     126       0               8       0                               0D    128
     126     144                                                00010000D    129
     126       0               2       0                               0D    130
     126     146                                                00010000D    131
     126       0               8       0                               0D    132
     126     154                                                00010000D    133
     126       0               4       0                               0D    134
     126     158                                                00010000D    135
     126       0               2       0                               0D    136
     126     160                                                00010000D    137
     126       0               2       0                               0D    138
     126     162                                                00010000D    139
     126       0               2       0                               0D    140
     126     164                                                00010000D    141
     126       0               2       0                               0D    142
     126     166                                                00010000D    143
     126       0               3       0                               0D    144
     126     169                                                00010000D    145
     126       0               4       0                               0D    146
     126     173                                                00010000D    147
     126       0               5       0                               0D    148
     126     178                                                00010000D    149
     126       0               2       0                               0D    150
     126     180                                                00010000D    151
     126       0               2       0                               0D    152
     126     182                                                00010000D    153
     126       0               2       0                               0D    154
     126     184                                                00010000D    155
     126       0               2       0                               0D    156
     126     186                                                00010000D    157
     126       0               2       0                               0D    158
     126     188                                                00010000D    159
     126       0               2       0                               0D    160
     126     190                                                00010000D    161
     126       0               2       0                               0D    162
     126     192                                                00010000D    163
     126       0               2       0                               0D    164
     126     194                                                00010000D    165
     126       0               2       0                               0D    166
     126     196                                                00010000D    167
     126       0               2       0                               0D    168
     126     198                                                00010000D    169
     126       0               2       0                               0D    170
     126     200                                                00010000D    171
     126       0               2       0                               0D    172
     126     202                                                00010000D    173
     126       0               2       0                               0D    174
     126     204                                                00010000D    175
     126       0               2       0                               0D    176
     126     206                                                00010000D    177
     126       0               2       0                               0D    178
     126     208                                                00010000D    179
     126       0               2       0                               0D    180
     126     210                                                00010000D    181
     126       0               2       0                               0D    182
     126     212                                                00010000D    183
     126       0               2       0                               0D    184
     126     214                                                00010000D    185
     126       0               2       0                               0D    186
     126     216                                                00010000D    187
     126       0               2       0                               0D    188
     126     218                                                00010000D    189
     126       0               2       0                               0D    190
     128     220                                                00010000D    191
     128       0    -235      11       0                               0D    192
     128     231                                                00010000D    193
     128       0    -235      12       0                               0D    194
     128     243                                                00010000D    195
     128       0    -235       4       0                               0D    196
     128     247                                                00010000D    197
     128       0    -235       6       0                               0D    198
     128     253                                                00010000D    199
     128       0    -235      12       0                               0D    200
     128     265                                                00010000D    201
     128       0    -235      12       0                               0D    202
     128     277                                                00010000D    203
     128       0    -235       3       0                               0D    204
     128     280                                                00010000D    205
     128       0    -235       4       0                               0D    206
     128     284                                                00010000D    207
     128       0    -235       8       0                               0D    208
     128     292                                                00010000D    209
     128       0    -235       4       0                               0D    210
     128     296                                                00010000D    211
     128       0    -235       5       0                               0D    212
     128     301                                                00010000D    213
     128       0    -235       3       0                               0D    214
     128     304                                                00010000D    215
     128       0    -235       3       0                               0D    216
     128     307                                                00010000D    217
     128       0    -235       3       0                               0D    218
     128     310                                                00010000D    219
     128       0    -235       3       0                               0D    220
     128     313                                                00010000D    221
     128       0    -235       3       0                               0D    222
     128     316                                                00010000D    223
     128       0    -235       3       0                               0D    224
     128     319                                                00010000D    225
     128       0    -235       3       0                               0D    226
     128     322                                                00010000D    227
     128       0    -235       3       0                               0D    228
     502     325                                                00010000D    229
     502                      10       1                               0D    230
     504     335                                                00010001D    231
     504                      15       1                               0D    232
     406     350                                                00000000D    233
     406                       1      15                               0D    234
     314     351                                                00000200D    235
     314                       2       0                               0D    236
186,3,1,0,0,1,233;                                                     1P      1
514,19,5,1,7,1,9,1,11,1,13,1,15,1,17,1,19,1,21,1,23,1,25,1,27,1,       3P      2
29,1,31,1,33,1,35,1,37,1,39,1,41,1;                                    3P      3
510,191,1,1,43;                                                        5P      4
510,193,1,1,45;                                                        7P      5
510,195,1,1,47;                                                        9P      6
510,197,1,1,49;                                                       11P      7
510,199,1,1,51;                                                       13P      8
510,201,1,1,53;                                                       15P      9
510,203,3,1,55,57,59;                                                 17P     10
510,205,1,1,61;                                                       19P     11
510,207,1,1,63;                                                       21P     12
510,209,1,1,65;                                                       23P     13
510,211,1,1,67;                                                       25P     14
510,213,1,1,69;                                                       27P     15
510,215,1,1,71;                                                       29P     16
510,217,1,1,73;                                                       31P     17
510,219,1,1,75;                                                       33P     18
510,221,1,1,77;                                                       35P     19
510,223,3,1,79,81,83;                                                 37P     20
510,225,1,1,85;                                                       39P     21
510,227,1,1,87;                                                       41P     22
508,4,0,231,1,0,0,0,231,2,0,0,0,231,3,0,0,0,231,4,0,0;                43P     23
508,4,0,231,5,0,0,0,231,6,0,0,0,231,7,0,0,0,231,8,0,0;                45P     24
508,4,0,231,3,1,0,0,231,9,1,0,0,231,10,0,0,0,231,11,0,0;              47P     25
508,8,0,231,4,1,0,0,231,11,1,0,0,231,12,1,0,0,231,13,0,0,0,231,       49P     26
14,1,0,0,231,15,1,0,0,231,8,1,0,0,231,16,1,0;                         49P     27
508,4,0,231,17,0,0,0,231,18,1,0,0,231,19,0,0,0,231,18,0,0;            51P     28
508,4,0,231,20,0,0,0,231,21,1,0,0,231,22,0,0,0,231,21,0,0;            53P     29
508,8,0,231,23,0,0,0,231,6,1,0,0,231,24,0,0,0,231,25,0,0,0,231,       55P     30
26,1,0,0,231,27,0,0,0,231,9,0,0,0,231,2,1,0;                          55P     31
508,1,0,231,22,1,0;                                                   57P     32
508,1,0,231,19,1,0;                                                   59P     33
508,4,0,231,5,1,0,0,231,15,0,0,0,231,28,1,0,0,231,24,1,0;             61P     34
508,4,0,231,29,1,0,0,231,13,1,0,0,231,30,1,0,0,231,31,0,0;            63P     35
508,11,0,231,30,0,0,0,231,12,0,0,0,231,10,1,0,0,231,27,1,0,0,         65P     36
231,32,1,0,0,231,33,1,0,0,231,34,1,0,0,231,35,1,0,0,231,36,1,0,       65P     37
0,231,37,1,0,0,231,38,1,0;                                            65P     38
508,4,0,231,1,1,0,0,231,16,0,0,0,231,7,1,0,0,231,23,1,0;              67P     39
508,4,0,231,39,0,0,0,231,31,1,0,0,231,38,0,0,0,231,40,0,0;            69P     40
508,4,0,231,41,0,0,0,231,40,1,0,0,231,37,0,0,0,231,42,0,0;            71P     41
508,4,0,231,43,1,0,0,231,42,1,0,0,231,36,0,0,0,231,44,0,0;            73P     42
508,4,0,231,45,0,0,0,231,44,1,0,0,231,35,0,0,0,231,46,0,0;            75P     43
508,4,0,231,47,0,0,0,231,46,1,0,0,231,34,0,0,0,231,48,0,0;            77P     44
508,4,0,231,49,0,0,0,231,48,1,0,0,231,33,0,0,0,231,50,0,0;            79P     45
508,1,0,231,17,1,0;                                                   81P     46
508,1,0,231,20,1,0;                                                   83P     47
508,4,0,231,51,0,0,0,231,50,1,0,0,231,32,0,0,0,231,26,0,0;            85P     48
508,11,0,231,29,0,0,0,231,39,1,0,0,231,41,1,0,0,231,43,0,0,0,         87P     49
231,45,1,0,0,231,47,1,0,0,231,49,1,0,0,231,51,1,0,0,231,25,1,0,       87P     50
0,231,28,0,0,0,231,14,0,0;                                            87P     51
126,1,1,0,0,1,0,5.55111512312578D-17,5.55111512312578D-17,0.18,       89P     52
0.18,1.,1.,19.2003289616073,7.9,2.,19.2003289616073,7.9,3.8,          89P     53
5.55111512312578D-17,0.18,0.,0.,0.;                                   89P     54
126,4,2,0,0,0,0,0.31782370392788,0.31782370392788,                    91P     55
0.31782370392788,1.5707963267949,1.5707963267949,                     91P     56
2.82376894966191,2.82376894966191,2.82376894966191,1.,                91P     57
0.810092587300984,1.,0.810092587300984,1.,26.7996710383927,7.9,       91P     58
2.,25.894987457823,10.65,2.,23.,10.65,2.,20.105012542177,10.65,       91P     59
2.,19.2003289616073,7.9,2.,0.31782370392788,2.82376894966191,0.,      91P     60
0.,0.;                                                                91P     61
126,1,1,0,0,1,0,-0.18,-0.18,-5.55111512312578D-17,                    93P     62
-5.55111512312578D-17,1.,1.,26.7996710383927,7.9,3.8,                 93P     63
26.7996710383927,7.9,2.,-0.18,-5.55111512312578D-17,0.,0.,0.;         93P     64
126,4,2,0,0,0,0,-1.25297262286702,-1.25297262286702,                  95P     65
-1.25297262286702,0.,0.,1.25297262286702,1.25297262286702,            95P     66
1.25297262286702,1.,0.810092587300985,1.,0.810092587300985,1.,        95P     67
19.2003289616073,7.9,3.8,20.105012542177,10.65,8.99444444444445,      95P     68
23.,10.65,8.99444444444445,25.894987457823,10.65,                     95P     69
8.99444444444445,26.7996710383927,7.9,3.8,-1.25297262286702,          95P     70
1.25297262286702,0.,0.,0.;                                            95P     71
126,1,1,0,0,1,0,5.55111512312578D-17,5.55111512312578D-17,0.18,       97P     72
0.18,1.,1.,3.20032896160733,7.9,2.,3.20032896160733,7.9,3.8,          97P     73
5.55111512312578D-17,0.18,0.,0.,0.;                                   97P     74
126,4,2,0,0,0,0,0.31782370392788,0.31782370392788,                    99P     75
0.31782370392788,1.5707963267949,1.5707963267949,                     99P     76
2.82376894966191,2.82376894966191,2.82376894966191,1.,                99P     77
0.81009258730098,1.,0.81009258730098,1.,10.7996710383927,7.9,2.,      99P     78
9.89498745782299,10.65,2.,7.,10.65,2.,4.10501254217702,10.65,2.,      99P     79
3.20032896160733,7.9,2.,0.31782370392788,2.82376894966191,0.,0.,      99P     80
0.;                                                                   99P     81
126,1,1,0,0,1,0,-0.18,-0.18,-5.55111512312578D-17,                   101P     82
-5.55111512312578D-17,1.,1.,10.7996710383927,7.9,3.8,                101P     83
10.7996710383927,7.9,2.,-0.18,-5.55111512312578D-17,0.,0.,0.;        101P     84
126,4,2,0,0,0,0,-1.25297262286702,-1.25297262286702,                 103P     85
-1.25297262286702,0.,0.,1.25297262286702,1.25297262286702,           103P     86
1.25297262286702,1.,0.810092587300983,1.,0.810092587300981,1.,       103P     87
3.20032896160733,7.9,3.8,4.10501254217702,10.65,                     103P     88
8.99444444444445,7.,10.65,8.99444444444445,9.89498745782299,         103P     89
10.65,8.99444444444445,10.7996710383927,7.9,3.8,                     103P     90
-1.25297262286702,1.25297262286702,0.,0.,0.;                         103P     91
126,1,1,0,0,1,0,2.67996710383927,2.67996710383927,3.,3.,1.,1.,       105P     92
26.7996710383927,7.9,2.,30.,7.9,2.,2.67996710383927,3.,0.,0.,0.;     105P     93
126,1,1,0,0,1,0,1.11022302462516D-16,1.11022302462516D-16,0.18,      107P     94
0.18,1.,1.,30.,7.9,3.8,30.,7.9,2.,1.11022302462516D-16,0.18,0.,      107P     95
0.,0.;                                                               107P     96
126,1,1,0,0,1,0,2.67996710383927,2.67996710383927,3.,3.,1.,1.,       109P     97
26.7996710383927,7.9,3.8,30.,7.9,3.8,2.67996710383927,3.,0.,0.,      109P     98
0.;                                                                  109P     99
126,1,1,0,0,1,0,-0.327911310727006,-0.327911310727006,               111P    100
0.448150764792722,0.448150764792722,1.,1.,30.,7.9,3.8,30.,           111P    101
11.5310991541859,10.6587428467956,-0.327911310727006,                111P    102
0.448150764792722,0.,0.,0.;                                          111P    103
126,1,1,0,0,1,0,0.,0.,8.57142857142857,8.57142857142857,1.,1.,       113P    104
0.,11.5310991541859,10.6587428467956,30.,11.5310991541859,           113P    105
10.6587428467956,0.,8.57142857142857,0.,0.,0.;                       113P    106
126,1,1,0,0,1,0,-0.448150764792722,-0.448150764792722,               115P    107
0.327911310727006,0.327911310727006,1.,1.,0.,11.5310991541859,       115P    108
10.6587428467956,0.,7.9,3.8,-0.448150764792722,                      115P    109
0.327911310727006,0.,0.,0.;                                          115P    110
126,1,1,0,0,1,0,0.,0.,0.320032896160733,0.320032896160733,1.,1.,     117P    111
0.,7.9,3.8,3.20032896160733,7.9,3.8,0.,0.320032896160733,0.,0.,      117P    112
0.;                                                                  117P    113
126,1,1,0,0,1,0,1.07996710383927,1.07996710383927,                   119P    114
1.92003289616073,1.92003289616073,1.,1.,10.7996710383927,7.9,        119P    115
3.8,19.2003289616073,7.9,3.8,1.07996710383927,1.92003289616073,      119P    116
0.,0.,0.;                                                            119P    117
126,8,2,0,1,0,0,-3.14159265358979,-3.14159265358979,                 121P    118
-3.14159265358979,-1.5707963267949,-1.5707963267949,0.,0.,           121P    119
1.5707963267949,1.5707963267949,3.14159265358979,                    121P    120
3.14159265358979,3.14159265358979,1.,0.707106781186547,1.,           121P    121
0.707106781186547,1.,0.707106781186547,1.,0.707106781186547,1.,      121P    122
4.95,6.65,0.,4.95,4.6,0.,7.,4.6,0.,9.05,4.6,0.,9.05,6.65,0.,         121P    123
9.05,8.7,0.,7.,8.7,0.,4.95,8.7,0.,4.95,6.65,0.,                      121P    124
-3.14159265358979,3.14159265358979,0.,0.,0.;                         121P    125
126,1,1,0,0,1,0,0.,0.,0.975609756097561,0.975609756097561,1.,1.,     123P    126
4.95,6.65,0.,4.95,6.65,2.,0.,0.975609756097561,0.,0.,0.;             123P    127
126,8,2,0,1,0,0,-3.14159265358979,-3.14159265358979,                 125P    128
-3.14159265358979,-1.5707963267949,-1.5707963267949,0.,0.,           125P    129
1.5707963267949,1.5707963267949,3.14159265358979,                    125P    130
3.14159265358979,3.14159265358979,1.,0.707106781186547,1.,           125P    131
0.707106781186547,1.,0.707106781186547,1.,0.707106781186547,1.,      125P    132
4.95,6.65,2.,4.95,8.7,2.,7.,8.7,2.,9.05,8.7,2.,9.05,6.65,2.,         125P    133
9.05,4.6,2.,7.,4.6,2.,4.95,4.6,2.,4.95,6.65,2.,                      125P    134
-3.14159265358979,3.14159265358979,0.,0.,0.;                         125P    135
126,8,2,0,1,0,0,-3.14159265358979,-3.14159265358979,                 127P    136
-3.14159265358979,-1.5707963267949,-1.5707963267949,0.,0.,           127P    137
1.5707963267949,1.5707963267949,3.14159265358979,                    127P    138
3.14159265358979,3.14159265358979,1.,0.707106781186548,1.,           127P    139
0.707106781186548,1.,0.707106781186548,1.,0.707106781186548,1.,      127P    140
20.95,6.65,0.,20.95,4.6,0.,23.,4.6,0.,25.05,4.6,0.,25.05,6.65,       127P    141
0.,25.05,8.7,0.,23.,8.7,0.,20.95,8.7,0.,20.95,6.65,0.,               127P    142
-3.14159265358979,3.14159265358979,0.,0.,0.;                         127P    143
126,1,1,0,0,1,0,0.,0.,0.975609756097561,0.975609756097561,1.,1.,     129P    144
20.95,6.65,0.,20.95,6.65,2.,0.,0.975609756097561,0.,0.,0.;           129P    145
126,8,2,0,1,0,0,-3.14159265358979,-3.14159265358979,                 131P    146
-3.14159265358979,-1.5707963267949,-1.5707963267949,0.,0.,           131P    147
1.5707963267949,1.5707963267949,3.14159265358979,                    131P    148
3.14159265358979,3.14159265358979,1.,0.707106781186548,1.,           131P    149
0.707106781186548,1.,0.707106781186548,1.,0.707106781186548,1.,      131P    150
20.95,6.65,2.,20.95,8.7,2.,23.,8.7,2.,25.05,8.7,2.,25.05,6.65,       131P    151
2.,25.05,4.6,2.,23.,4.6,2.,20.95,4.6,2.,20.95,6.65,2.,               131P    152
-3.14159265358979,3.14159265358979,0.,0.,0.;                         131P    153
126,1,1,0,0,1,0,1.07996710383927,1.07996710383927,                   133P    154
1.92003289616073,1.92003289616073,1.,1.,10.7996710383927,7.9,2.,     133P    155
19.2003289616073,7.9,2.,1.07996710383927,1.92003289616073,0.,0.,     133P    156
0.;                                                                  133P    157
126,1,1,0,0,1,0,0.,0.,0.320032896160733,0.320032896160733,1.,1.,     135P    158
0.,7.9,2.,3.20032896160733,7.9,2.,0.,0.320032896160733,0.,0.,0.;     135P    159
126,1,1,0,0,1,0,0.,0.,0.79,0.79,1.,1.,0.,0.,2.,0.,7.9,2.,0.,         137P    160
0.79,0.,0.,0.;                                                       137P    161
126,1,1,0,0,1,0,0.,0.,3.,3.,1.,1.,0.,0.,2.,30.,0.,2.,0.,3.,0.,       139P    162
0.,0.;                                                               139P    163
126,1,1,0,0,1,0,-0.79,-0.79,0.,0.,1.,1.,30.,7.9,2.,30.,0.,2.,        141P    164
-0.79,0.,0.,0.,0.;                                                   141P    165
126,1,1,0,0,1,0,1.11022302462516D-16,1.11022302462516D-16,0.18,      143P    166
0.18,1.,1.,0.,7.9,3.8,0.,7.9,2.,1.11022302462516D-16,0.18,0.,0.,     143P    167
0.;                                                                  143P    168
126,2,2,0,0,0,0,0.,0.,0.,0.726522145287675,0.726522145287675,        145P    169
0.726522145287675,1.,0.934743057411491,1.,0.,13.4,12.3,0.,           145P    170
12.1536035939423,11.8345845663354,0.,11.5310991541859,               145P    171
10.6587428467956,0.,0.726522145287675,0.,0.,0.;                      145P    172
126,2,2,0,0,0,0,5.55666316189191,5.55666316189191,                   147P    173
5.55666316189191,6.28318530717959,6.28318530717959,                  147P    174
6.28318530717959,1.,0.934743057411483,1.,30.,11.5310991541859,       147P    175
10.6587428467956,30.,12.1536035939423,11.8345845663354,30.,13.4,     147P    176
12.3,5.55666316189191,6.28318530717959,0.,0.,0.;                     147P    177
126,1,1,0,0,1,0,0.,0.,3.,3.,1.,1.,0.,13.4,12.3,30.,13.4,12.3,0.,     149P    178
3.,0.,0.,0.;                                                         149P    179
126,1,1,0,0,1,0,-0.2,-0.2,0.,0.,1.,1.,30.,0.,2.,30.,0.,0.,-0.2,      151P    180
0.,0.,0.,0.;                                                         151P    181
126,1,1,0,0,1,0,-1.44,-1.44,0.,0.,1.,1.,30.,0.,0.,30.,14.4,0.,       153P    182
-1.44,0.,0.,0.,0.;                                                   153P    183
126,1,1,0,0,1,0,-0.2,-0.2,0.,0.,1.,1.,30.,14.4,0.,30.,14.4,2.,       155P    184
-0.2,0.,0.,0.,0.;                                                    155P    185
126,1,1,0,0,1,0,-1.44,-1.44,-1.09,-1.09,1.,1.,30.,14.4,2.,30.,       157P    186
10.9,2.,-1.44,-1.09,0.,0.,0.;                                        157P    187
126,1,1,0,0,1,0,0.,0.,0.18,0.18,1.,1.,30.,10.9,2.,30.,10.9,3.8,      159P    188
0.,0.18,0.,0.,0.;                                                    159P    189
126,1,1,0,0,1,0,-0.25,-0.25,0.,0.,1.,1.,30.,10.9,3.8,30.,13.4,       161P    190
3.8,-0.25,0.,0.,0.,0.;                                               161P    191
126,1,1,0,0,1,0,-0.85,-0.85,0.,0.,1.,1.,30.,13.4,3.8,30.,13.4,       163P    192
12.3,-0.85,0.,0.,0.,0.;                                              163P    193
126,1,1,0,0,1,0,0.,0.,0.85,0.85,1.,1.,0.,13.4,12.3,0.,13.4,3.8,      165P    194
0.,0.85,0.,0.,0.;                                                    165P    195
126,1,1,0,0,1,0,0.,0.,3.,3.,1.,1.,0.,13.4,3.8,30.,13.4,3.8,0.,       167P    196
3.,0.,0.,0.;                                                         167P    197
126,1,1,0,0,1,0,0.,0.,0.25,0.25,1.,1.,0.,13.4,3.8,0.,10.9,3.8,       169P    198
0.,0.25,0.,0.,0.;                                                    169P    199
126,1,1,0,0,1,0,0.,0.,3.,3.,1.,1.,0.,10.9,3.8,30.,10.9,3.8,0.,       171P    200
3.,0.,0.,0.;                                                         171P    201
126,1,1,0,0,1,0,0.,0.,0.18,0.18,1.,1.,0.,10.9,2.,0.,10.9,3.8,0.,     173P    202
0.18,0.,0.,0.;                                                       173P    203
126,1,1,0,0,1,0,0.,0.,3.,3.,1.,1.,0.,10.9,2.,30.,10.9,2.,0.,3.,      175P    204
0.,0.,0.;                                                            175P    205
126,1,1,0,0,1,0,1.09,1.09,1.44,1.44,1.,1.,0.,10.9,2.,0.,14.4,2.,     177P    206
1.09,1.44,0.,0.,0.;                                                  177P    207
126,1,1,0,0,1,0,0.,0.,3.,3.,1.,1.,0.,14.4,2.,30.,14.4,2.,0.,3.,      179P    208
0.,0.,0.;                                                            179P    209
126,1,1,0,0,1,0,0.,0.,0.2,0.2,1.,1.,0.,14.4,2.,0.,14.4,0.,0.,        181P    210
0.2,0.,0.,0.;                                                        181P    211
126,1,1,0,0,1,0,0.,0.,3.,3.,1.,1.,0.,14.4,0.,30.,14.4,0.,0.,3.,      183P    212
0.,0.,0.;                                                            183P    213
126,1,1,0,0,1,0,0.,0.,1.44,1.44,1.,1.,0.,14.4,0.,0.,0.,0.,0.,        185P    214
1.44,0.,0.,0.;                                                       185P    215
126,1,1,0,0,1,0,0.,0.,3.,3.,1.,1.,0.,0.,0.,30.,0.,0.,0.,3.,0.,       187P    216
0.,0.;                                                               187P    217
126,1,1,0,0,1,0,0.,0.,0.2,0.2,1.,1.,0.,0.,0.,0.,0.,2.,0.,0.2,0.,     189P    218
0.,0.;                                                               189P    219
128,1,4,1,2,0,0,0,0,0,0.,0.,1.80075148954556,1.80075148954556,       191P    220
0.31782370392788,0.31782370392788,0.31782370392788,                  191P    221
1.5707963267949,1.5707963267949,2.82376894966191,                    191P    222
2.82376894966191,2.82376894966191,1.,1.,0.810092587300982,           191P    223
0.810092587300982,1.,1.,0.810092587300982,0.810092587300982,1.,      191P    224
1.,26.7996710383927,7.9,2.,26.7996710383927,7.9,                     191P    225
9.20300595818223,25.894987457823,10.65,2.,25.894987457823,10.65,     191P    226
9.20300595818223,23.,10.65,2.,23.,10.65,9.20300595818223,            191P    227
20.105012542177,10.65,2.,20.105012542177,10.65,9.20300595818223,     191P    228
19.2003289616073,7.9,2.,19.2003289616073,7.9,9.20300595818223,       191P    229
0.,1.80075148954556,0.31782370392788,2.82376894966191;               191P    230
128,1,4,1,2,0,0,0,0,0,0.,0.,1.80075148954548,1.80075148954548,       193P    231
0.31782370392788,0.31782370392788,0.31782370392788,                  193P    232
1.5707963267949,1.5707963267949,2.82376894966191,                    193P    233
2.82376894966191,2.82376894966191,1.,1.,0.810092587300982,           193P    234
0.810092587300982,1.,1.,0.810092587300982,0.810092587300982,1.,      193P    235
1.,10.7996710383927,7.9,2.,10.7996710383927,7.9,                     193P    236
9.20300595818191,9.89498745782299,10.65,2.,9.89498745782299,         193P    237
10.65,9.20300595818191,7.,10.65,2.,7.,10.65,9.20300595818191,        193P    238
4.10501254217701,10.65,2.,4.10501254217701,10.65,                    193P    239
9.20300595818191,3.20032896160733,7.9,2.,3.20032896160733,7.9,       193P    240
9.20300595818191,0.,1.80075148954548,0.31782370392788,               193P    241
2.82376894966191;                                                    193P    242
128,1,1,1,1,0,0,1,0,0,0.849,0.849,1.031,1.031,2.67896710383927,      195P    243
2.67896710383927,3.001,3.001,1.,1.,1.,1.,26.7896710383927,7.9,       195P    244
3.81,26.7896710383927,7.9,1.99,30.01,7.9,3.81,30.01,7.9,1.99,        195P    245
0.849,1.031,2.67896710383927,3.001;                                  195P    246
128,1,1,1,1,0,0,1,0,0,-0.296177473977944,-0.296177473977944,         197P    247
0.481884601541784,0.481884601541784,-0.001,-0.001,3.001,3.001,       197P    248
1.,1.,1.,1.,-0.01,11.5357780313901,10.667580725959,-0.01,            197P    249
7.89532112279581,3.79116212083653,30.01,11.5357780313901,            197P    250
10.667580725959,30.01,7.89532112279581,3.79116212083653,             197P    251
-0.296177473977944,0.481884601541784,-0.001,3.001;                   197P    252
128,1,8,1,2,0,1,0,0,1,0.,0.,0.975609756097561,0.975609756097561,     199P    253
-3.14159265358979,-3.14159265358979,-3.14159265358979,               199P    254
-1.5707963267949,-1.5707963267949,0.,0.,1.5707963267949,             199P    255
1.5707963267949,3.14159265358979,3.14159265358979,                   199P    256
3.14159265358979,1.,1.,0.707106781186548,0.707106781186548,1.,       199P    257
1.,0.707106781186548,0.707106781186548,1.,1.,0.707106781186548,      199P    258
0.707106781186548,1.,1.,0.707106781186548,0.707106781186548,1.,      199P    259
1.,4.95,6.65,0.,4.95,6.65,2.,4.95,4.6,0.,4.95,4.6,2.,7.,4.6,0.,      199P    260
7.,4.6,2.,9.05,4.6,0.,9.05,4.6,2.,9.05,6.65,0.,9.05,6.65,2.,         199P    261
9.05,8.7,0.,9.05,8.7,2.,7.,8.7,0.,7.,8.7,2.,4.95,8.7,0.,4.95,        199P    262
8.7,2.,4.95,6.65,0.,4.95,6.65,2.,0.,0.975609756097561,               199P    263
-3.14159265358979,3.14159265358979;                                  199P    264
128,1,8,1,2,0,1,0,0,1,0.,0.,0.975609756097561,0.975609756097561,     201P    265
-3.14159265358979,-3.14159265358979,-3.14159265358979,               201P    266
-1.5707963267949,-1.5707963267949,0.,0.,1.5707963267949,             201P    267
1.5707963267949,3.14159265358979,3.14159265358979,                   201P    268
3.14159265358979,1.,1.,0.707106781186548,0.707106781186548,1.,       201P    269
1.,0.707106781186548,0.707106781186548,1.,1.,0.707106781186548,      201P    270
0.707106781186548,1.,1.,0.707106781186548,0.707106781186548,1.,      201P    271
1.,20.95,6.65,0.,20.95,6.65,2.,20.95,4.6,0.,20.95,4.6,2.,23.,        201P    272
4.6,0.,23.,4.6,2.,25.05,4.6,0.,25.05,4.6,2.,25.05,6.65,0.,25.05,     201P    273
6.65,2.,25.05,8.7,0.,25.05,8.7,2.,23.,8.7,0.,23.,8.7,2.,20.95,       201P    274
8.7,0.,20.95,8.7,2.,20.95,6.65,0.,20.95,6.65,2.,0.,                  201P    275
0.975609756097561,-3.14159265358979,3.14159265358979;                201P    276
128,1,1,1,1,0,0,1,0,0,-0.276,-0.276,0.791,0.791,-0.001,-0.001,       203P    277
3.001,3.001,1.,1.,1.,1.,-0.01,10.66,2.,-0.01,-0.01,2.,30.01,         203P    278
10.66,2.,30.01,-0.0099999999999989,2.,-0.276,0.791,-0.001,3.001;     203P    279
128,1,1,1,1,0,0,1,0,0,0.849,0.849,1.031,1.031,-0.001,-0.001,         205P    280
0.321032896160733,0.321032896160733,1.,1.,1.,1.,-0.01,7.9,3.81,      205P    281
-0.01,7.9,1.99,3.21032896160733,7.9,3.81,3.21032896160733,7.9,       205P    282
1.99,0.849,1.031,-0.001,0.321032896160733;                           205P    283
128,1,2,1,2,0,0,0,0,0,-8.57142857142857,-8.57142857142857,0.,0.,     207P    284
3.96508223080413D-17,3.96508223080413D-17,3.96508223080413D-17,      207P    285
0.726522145287676,0.726522145287676,0.726522145287676,1.,1.,         207P    286
0.934743057411496,0.934743057411496,1.,1.,30.,13.4,12.3,0.,13.4,     207P    287
12.3,30.,12.1536035939423,11.8345845663354,0.,12.1536035939423,      207P    288
11.8345845663354,30.,11.5310991541859,10.6587428467956,0.,           207P    289
11.5310991541859,10.6587428467956,-8.57142857142857,0.,              207P    290
3.96508223080413D-17,0.726522145287676;                              207P    291
128,1,1,1,1,0,0,1,0,0,-0.616,-0.616,0.616,0.616,-0.721,-0.721,       209P    292
0.721,0.721,1.,1.,1.,1.,30.,-0.01,12.31,30.,-0.01,-0.01,30.,         209P    293
14.41,12.31,30.,14.41,-0.0099999999999989,-0.616,0.616,-0.721,       209P    294
0.721;                                                               209P    295
128,1,1,1,1,0,0,1,0,0,0.849,0.849,1.031,1.031,1.07896710383927,      211P    296
1.07896710383927,1.92103289616073,1.92103289616073,1.,1.,1.,1.,      211P    297
10.7896710383927,7.9,3.81,10.7896710383927,7.9,1.99,                 211P    298
19.2103289616073,7.9,3.81,19.2103289616073,7.9,1.99,0.849,1.031,     211P    299
1.07896710383927,1.92103289616073;                                   211P    300
128,1,1,1,1,0,0,1,0,0,-0.001,-0.001,0.851,0.851,-0.001,-0.001,       213P    301
3.001,3.001,1.,1.,1.,1.,-0.01,13.4,3.79,-0.01,13.4,12.31,30.01,      213P    302
13.4,3.79,30.01,13.4,12.31,-0.001,0.851,-0.001,3.001;                213P    303
128,1,1,1,1,0,0,1,0,0,-0.001,-0.001,0.251,0.251,-0.001,-0.001,       215P    304
3.001,3.001,1.,1.,1.,1.,-0.01,10.89,3.8,-0.01,13.41,3.8,30.01,       215P    305
10.89,3.8,30.01,13.41,3.8,-0.001,0.251,-0.001,3.001;                 215P    306
128,1,1,1,1,0,0,1,0,0,-0.001,-0.001,0.181,0.181,-0.001,-0.001,       217P    307
3.001,3.001,1.,1.,1.,1.,-0.01,10.9,1.99,-0.01,10.9,3.81,30.01,       217P    308
10.9,1.99,30.01,10.9,3.81,-0.001,0.181,-0.001,3.001;                 217P    309
128,1,1,1,1,0,0,1,0,0,-0.001,-0.001,0.351,0.351,-0.001,-0.001,       219P    310
3.001,3.001,1.,1.,1.,1.,-0.01,14.41,2.,-0.01,10.89,2.,30.01,         219P    311
14.41,2.,30.01,10.89,2.,-0.001,0.351,-0.001,3.001;                   219P    312
128,1,1,1,1,0,0,1,0,0,-0.001,-0.001,0.201,0.201,-0.001,-0.001,       221P    313
3.001,3.001,1.,1.,1.,1.,-0.01,14.4,-0.01,-0.01,14.4,2.01,30.01,      221P    314
14.4,-0.01,30.01,14.4,2.01,-0.001,0.201,-0.001,3.001;                221P    315
128,1,1,1,1,0,0,1,0,0,-0.001,-0.001,1.441,1.441,-0.001,-0.001,       223P    316
3.001,3.001,1.,1.,1.,1.,-0.01,-0.01,0.,-0.01,14.41,0.,30.01,         223P    317
-0.01,0.,30.01,14.41,0.,-0.001,1.441,-0.001,3.001;                   223P    318
128,1,1,1,1,0,0,1,0,0,-0.001,-0.001,0.201,0.201,-0.001,-0.001,       225P    319
3.001,3.001,1.,1.,1.,1.,-0.01,0.,2.01,-0.01,0.,-0.01,30.01,0.,       225P    320
2.01,30.01,0.,-0.01,-0.001,0.201,-0.001,3.001;                       225P    321
128,1,1,1,1,0,0,1,0,0,-0.616,-0.616,0.616,0.616,-0.721,-0.721,       227P    322
0.721,0.721,1.,1.,1.,1.,0.,-0.01,-0.01,0.,-0.01,12.31,0.,14.41,      227P    323
-0.0099999999999989,0.,14.41,12.31,-0.616,0.616,-0.721,0.721;        227P    324
502,34,19.2003289616073,7.9,2.,19.2003289616073,7.9,3.8,             229P    325
26.7996710383927,7.9,2.,26.7996710383927,7.9,3.8,                    229P    326
3.20032896160733,7.9,2.,3.20032896160733,7.9,3.8,                    229P    327
10.7996710383927,7.9,2.,10.7996710383927,7.9,3.8,30.,7.9,2.,30.,     229P    328
7.9,3.8,30.,11.5310991541859,10.6587428467956,0.,                    229P    329
11.5310991541859,10.6587428467956,0.,7.9,3.8,4.95,6.65,0.,4.95,      229P    330
6.65,2.,20.95,6.65,0.,20.95,6.65,2.,0.,7.9,2.,0.,0.,2.,30.,0.,       229P    331
2.,0.,13.4,12.3,30.,13.4,12.3,30.,0.,0.,30.,14.4,0.,30.,14.4,2.,     229P    332
30.,10.9,2.,30.,10.9,3.8,30.,13.4,3.8,0.,13.4,3.8,0.,10.9,3.8,       229P    333
0.,10.9,2.,0.,14.4,2.,0.,14.4,0.,0.,0.,0.;                           229P    334
504,51,89,229,1,229,2,91,229,3,229,1,93,229,4,229,3,95,229,2,        231P    335
229,4,97,229,5,229,6,99,229,7,229,5,101,229,8,229,7,103,229,6,       231P    336
229,8,105,229,3,229,9,107,229,10,229,9,109,229,4,229,10,111,229,     231P    337
10,229,11,113,229,12,229,11,115,229,12,229,13,117,229,13,229,6,      231P    338
119,229,8,229,2,121,229,14,229,14,123,229,14,229,15,125,229,15,      231P    339
229,15,127,229,16,229,16,129,229,16,229,17,131,229,17,229,17,        231P    340
133,229,7,229,1,135,229,18,229,5,137,229,19,229,18,139,229,19,       231P    341
229,20,141,229,9,229,20,143,229,13,229,18,145,229,21,229,12,147,     231P    342
229,11,229,22,149,229,21,229,22,151,229,20,229,23,153,229,23,        231P    343
229,24,155,229,24,229,25,157,229,25,229,26,159,229,26,229,27,        231P    344
161,229,27,229,28,163,229,28,229,22,165,229,21,229,29,167,229,       231P    345
29,229,28,169,229,29,229,30,171,229,30,229,27,173,229,31,229,30,     231P    346
175,229,31,229,26,177,229,31,229,32,179,229,32,229,25,181,229,       231P    347
32,229,33,183,229,33,229,24,185,229,33,229,34,187,229,34,229,23,     231P    348
189,229,34,229,19;                                                   231P    349
406,1,5HBody1;                                                       233P    350
314,62.7450980392157,62.7450980392157,62.7450980392157,13HSteel      235P    351
- Satin;                                                             235P    352
S      1G      3D    236P    352                                        T      1
