                                                                        S      1
,,22HLadestation Stopfen v3,22HLadestation Stopfen v3,7Hunknown,7HunknowG      1
n,32,38,7,99,15,,1.,2,2HMM,1,0.08,15H20220922.115107,0.01,10000.,7HunknoG      2
wn,7Hunknown,11,0,15H20220420.093218;                                   G      3
     186       1                                                00000000D      1
     186             -85       1       0                               0D      2
     514       2                                                00010000D      3
     514                       1       1                               0D      4
     510       3                                                00010000D      5
     510             -85       1       1                               0D      6
     510       4                                                00010000D      7
     510             -85       1       1                               0D      8
     510       5                                                00010000D      9
     510             -85       1       1                               0D     10
     510       6                                                00010000D     11
     510             -85       1       1                               0D     12
     510       7                                                00010000D     13
     510             -85       1       1                               0D     14
     510       8                                                00010000D     15
     510             -85       1       1                               0D     16
     510       9                                                00010000D     17
     510             -85       1       1                               0D     18
     508      10                                                00010000D     19
     508                       2       1                               0D     20
     508      12                                                00010000D     21
     508                       1       1                               0D     22
     508      13                                                00010000D     23
     508                       1       1                               0D     24
     508      14                                                00010000D     25
     508                       1       1                               0D     26
     508      15                                                00010000D     27
     508                       1       1                               0D     28
     508      16                                                00010000D     29
     508                       1       1                               0D     30
     508      17                                                00010000D     31
     508                       1       1                               0D     32
     508      18                                                00010000D     33
     508                       1       1                               0D     34
     508      19                                                00010000D     35
     508                       1       1                               0D     36
     508      20                                                00010000D     37
     508                       1       1                               0D     38
     126      21                                                00010000D     39
     126       0               5       0                               0D     40
     126      26                                                00010000D     41
     126       0               5       0                               0D     42
     126      31                                                00010000D     43
     126       0               5       0                               0D     44
     126      36                                                00010000D     45
     126       0               5       0                               0D     46
     126      41                                                00010000D     47
     126       0               5       0                               0D     48
     126      46                                                00010000D     49
     126       0              10       0                               0D     50
     126      56                                                00010000D     51
     126       0               3       0                               0D     52
     126      59                                                00010000D     53
     126       0               9       0                               0D     54
     126      68                                                00010000D     55
     126       0              10       0                               0D     56
     126      78                                                00010000D     57
     126       0               2       0                               0D     58
     126      80                                                00010000D     59
     126       0              10       0                               0D     60
     126      90                                                00010000D     61
     126       0               9       0                               0D     62
     126      99                                                00010000D     63
     126       0               2       0                               0D     64
     128     101                                                00010000D     65
     128       0     -85      21       0                               0D     66
     128     122                                                00010000D     67
     128       0     -85      13       0                               0D     68
     128     135                                                00010000D     69
     128       0     -85       3       0                               0D     70
     128     138                                                00010000D     71
     128       0     -85      12       0                               0D     72
     128     150                                                00010000D     73
     128       0     -85       3       0                               0D     74
     128     153                                                00010000D     75
     128       0     -85      12       0                               0D     76
     128     165                                                00010000D     77
     128       0     -85       3       0                               0D     78
     502     168                                                00010000D     79
     502                       4       1                               0D     80
     504     172                                                00010001D     81
     504                       3       1                               0D     82
     406     175                                                00000000D     83
     406                       1      15                               0D     84
     314     176                                                00000200D     85
     314                       2       0                               0D     86
186,3,1,0,0,1,83;                                                      1P      1
514,7,5,1,7,1,9,1,11,1,13,1,15,1,17,1;                                 3P      2
510,65,1,1,19;                                                         5P      3
510,67,1,1,21;                                                         7P      4
510,69,2,1,23,25;                                                      9P      5
510,71,1,1,27;                                                        11P      6
510,73,2,1,29,31;                                                     13P      7
510,75,1,1,33;                                                        15P      8
510,77,2,1,35,37;                                                     17P      9
508,6,0,81,1,1,0,0,81,2,1,0,0,81,3,1,0,0,81,4,1,0,0,81,2,0,0,0,       19P     10
81,5,1,0;                                                             19P     11
508,5,0,81,6,0,0,0,81,7,1,0,0,81,5,0,0,0,81,1,0,0,0,81,7,0,0;         21P     12
508,1,0,81,8,0,0;                                                     23P     13
508,2,0,81,4,0,0,0,81,3,0,0;                                          25P     14
508,4,0,81,9,0,0,0,81,10,1,0,0,81,11,0,0,0,81,10,0,0;                 27P     15
508,1,0,81,9,1,0;                                                     29P     16
508,1,0,81,6,1,0;                                                     31P     17
508,4,0,81,12,0,0,0,81,13,1,0,0,81,8,1,0,0,81,13,0,0;                 33P     18
508,1,0,81,12,1,0;                                                    35P     19
508,1,0,81,11,1,0;                                                    37P     20
126,4,2,0,0,0,0,-3.14159265358979,-3.14159265358979,                  39P     21
-3.14159265358979,-1.5707963267949,-1.5707963267949,0.,0.,0.,1.,      39P     22
0.707106781186548,1.,0.707106781186548,1.,-9.5,                       39P     23
-1.16341445918999D-15,2.,-9.5,-9.5,2.,5.81707229594993D-16,-9.5,      39P     24
2.,9.5,-9.5,2.,9.5,0.,2.,-3.14159265358979,0.,0.,0.,0.;               39P     25
126,2,2,0,0,0,0,-3.14159265358979,-3.14159265358979,                  41P     26
-3.14159265358979,-1.5707963267949,-1.5707963267949,                  41P     27
-1.5707963267949,1.,0.707106781186548,1.,9.5,0.,2.,9.5,0.,            41P     28
-1.35430201643971D-15,11.5,0.,0.,-3.14159265358979,                   41P     29
-1.5707963267949,0.,0.,0.;                                            41P     30
126,4,2,0,0,0,0,0.,0.,0.,1.5707963267949,1.5707963267949,             43P     31
3.14159265358979,3.14159265358979,3.14159265358979,1.,                43P     32
0.707106781186548,1.,0.707106781186548,1.,11.5,0.,0.,11.5,-11.5,      43P     33
0.,7.04171909509728D-16,-11.5,0.,-11.5,-11.5,0.,-11.5,                43P     34
-1.40834381901946D-15,0.,0.,3.14159265358979,0.,0.,0.;                43P     35
126,4,2,0,0,0,0,-3.14159265358979,-3.14159265358979,                  45P     36
-3.14159265358979,-1.5707963267949,-1.5707963267949,0.,0.,0.,1.,      45P     37
0.707106781186548,1.,0.707106781186548,1.,-11.5,                      45P     38
1.40834381901946D-15,0.,-11.5,11.5,0.,7.04171909509728D-16,11.5,      45P     39
0.,11.5,11.5,0.,11.5,0.,0.,-3.14159265358979,0.,0.,0.,0.;             45P     40
126,4,2,0,0,0,0,0.,0.,0.,1.5707963267949,1.5707963267949,             47P     41
3.14159265358979,3.14159265358979,3.14159265358979,1.,                47P     42
0.707106781186548,1.,0.707106781186548,1.,9.5,0.,2.,9.5,9.5,2.,       47P     43
5.81707229594993D-16,9.5,2.,-9.5,9.5,2.,-9.5,                         47P     44
1.16341445918999D-15,2.,0.,3.14159265358979,0.,0.,0.;                 47P     45
126,8,2,0,1,0,0,-3.14159265358979,-3.14159265358979,                  49P     46
-3.14159265358979,-1.5707963267949,-1.5707963267949,0.,0.,            49P     47
1.5707963267949,1.5707963267949,3.14159265358979,                     49P     48
3.14159265358979,3.14159265358979,1.,0.707106781186548,1.,            49P     49
0.707106781186548,1.,0.707106781186548,1.,0.707106781186548,1.,       49P     50
-9.5,1.16341445918999D-15,14.,-9.5,9.5,14.,5.81707229594993D-16,      49P     51
9.5,14.,9.5,9.5,14.,9.5,0.,14.,9.5,-9.5,14.,                          49P     52
5.81707229594993D-16,-9.5,14.,-9.5,-9.5,14.,-9.5,                     49P     53
-1.16341445918999D-15,14.,-3.14159265358979,3.14159265358979,0.,      49P     54
0.,0.;                                                                49P     55
126,1,1,0,0,1,0,-1.47368421052632,-1.47368421052632,                  51P     56
-0.210526315789474,-0.210526315789474,1.,1.,-9.5,0.,14.,-9.5,0.,      51P     57
2.,-1.47368421052632,-0.210526315789474,0.,0.,0.;                     51P     58
126,8,2,0,1,0,0,-3.14159265358979,-3.14159265358979,                  53P     59
-3.14159265358979,-1.5707963267949,-1.5707963267949,0.,0.,            53P     60
1.5707963267949,1.5707963267949,3.14159265358979,                     53P     61
3.14159265358979,3.14159265358979,1.,0.707106781186548,1.,            53P     62
0.707106781186548,1.,0.707106781186548,1.,0.707106781186548,1.,       53P     63
-15.,-1.83697019872103D-15,0.,-15.,-15.,0.,9.18485099360515D-16,      53P     64
-15.,0.,15.,-15.,0.,15.,0.,0.,15.,15.,0.,9.18485099360515D-16,        53P     65
15.,0.,-15.,15.,0.,-15.,1.83697019872103D-15,0.,                      53P     66
-3.14159265358979,3.14159265358979,0.,0.,0.;                          53P     67
126,8,2,0,1,0,0,-3.14159265358979,-3.14159265358979,                  55P     68
-3.14159265358979,-1.5707963267949,-1.5707963267949,0.,0.,            55P     69
1.5707963267949,1.5707963267949,3.14159265358979,                     55P     70
3.14159265358979,3.14159265358979,1.,0.707106781186548,1.,            55P     71
0.707106781186547,1.,0.707106781186547,1.,0.707106781186548,1.,       55P     72
-12.5,-1.53080849893419D-15,14.,-12.5,-12.5,14.,                      55P     73
7.65404249467096D-16,-12.5,14.,12.5,-12.5,14.,12.5,0.,14.,12.5,       55P     74
12.5,14.,7.65404249467096D-16,12.5,14.,-12.5,12.5,14.,-12.5,          55P     75
1.53080849893419D-15,14.,-3.14159265358979,3.14159265358979,0.,       55P     76
0.,0.;                                                                55P     77
126,1,1,0,0,1,0,-1.12,-1.12,-0.16,-0.16,1.,1.,-12.5,0.,14.,           57P     78
-12.5,0.,2.,-1.12,-0.16,0.,0.,0.;                                     57P     79
126,8,2,0,1,0,0,-3.14159265358979,-3.14159265358979,                  59P     80
-3.14159265358979,-1.5707963267949,-1.5707963267949,0.,0.,            59P     81
1.5707963267949,1.5707963267949,3.14159265358979,                     59P     82
3.14159265358979,3.14159265358979,1.,0.707106781186548,1.,            59P     83
0.707106781186547,1.,0.707106781186547,1.,0.707106781186548,1.,       59P     84
-12.5,1.53080849893419D-15,2.,-12.5,12.5,2.,                          59P     85
7.65404249467096D-16,12.5,2.,12.5,12.5,2.,12.5,0.,2.,12.5,-12.5,      59P     86
2.,7.65404249467096D-16,-12.5,2.,-12.5,-12.5,2.,-12.5,                59P     87
-1.53080849893419D-15,2.,-3.14159265358979,3.14159265358979,0.,       59P     88
0.,0.;                                                                59P     89
126,8,2,0,1,0,0,-3.14159265358979,-3.14159265358979,                  61P     90
-3.14159265358979,-1.5707963267949,-1.5707963267949,0.,0.,            61P     91
1.5707963267949,1.5707963267949,3.14159265358979,                     61P     92
3.14159265358979,3.14159265358979,1.,0.707106781186548,1.,            61P     93
0.707106781186548,1.,0.707106781186548,1.,0.707106781186548,1.,       61P     94
-15.,-1.83697019872103D-15,2.,-15.,-15.,2.,9.18485099360515D-16,      61P     95
-15.,2.,15.,-15.,2.,15.,0.,2.,15.,15.,2.,9.18485099360515D-16,        61P     96
15.,2.,-15.,15.,2.,-15.,1.83697019872103D-15,2.,                      61P     97
-3.14159265358979,3.14159265358979,0.,0.,0.;                          61P     98
126,1,1,0,0,1,0,-0.133333333333333,-0.133333333333333,0.,0.,1.,       63P     99
1.,-15.,0.,2.,-15.,0.,0.,-0.133333333333333,0.,0.,0.,0.;              63P    100
128,2,8,2,2,0,1,0,0,1,1.5707963267949,1.5707963267949,                65P    101
1.5707963267949,3.14159265358979,3.14159265358979,                    65P    102
3.14159265358979,-3.14159265358979,-3.14159265358979,                 65P    103
-3.14159265358979,-1.5707963267949,-1.5707963267949,0.,0.,            65P    104
1.5707963267949,1.5707963267949,3.14159265358979,                     65P    105
3.14159265358979,3.14159265358979,1.,0.707106781186548,1.,            65P    106
0.707106781186548,0.500000000000001,0.707106781186548,1.,             65P    107
0.707106781186548,1.,0.707106781186548,0.500000000000001,             65P    108
0.707106781186548,1.,0.707106781186548,1.,0.707106781186548,          65P    109
0.500000000000001,0.707106781186548,1.,0.707106781186548,1.,          65P    110
0.707106781186548,0.500000000000001,0.707106781186548,1.,             65P    111
0.707106781186548,1.,9.5,0.,2.,9.5,0.,-1.35430201643971D-15,          65P    112
11.5,0.,0.,9.5,-9.5,2.,9.5,-9.5,-1.35430201643971D-15,11.5,           65P    113
-11.5,0.,0.,-9.5,2.,0.,-9.5,-1.38777878078145D-15,0.,-11.5,0.,        65P    114
-9.5,-9.5,2.,-9.5,-9.5,-1.42125554512319D-15,-11.5,-11.5,0.,          65P    115
-9.5,0.,2.,-9.5,0.,-1.42125554512319D-15,-11.5,0.,0.,-9.5,9.5,        65P    116
2.,-9.5,9.5,-1.42125554512319D-15,-11.5,11.5,0.,0.,9.5,2.,0.,         65P    117
9.5,-1.38777878078145D-15,0.,11.5,0.,9.5,9.5,2.,9.5,9.5,              65P    118
-1.35430201643971D-15,11.5,11.5,0.,9.5,0.,2.,9.5,0.,                  65P    119
-1.35430201643971D-15,11.5,0.,0.,1.5707963267949,                     65P    120
3.14159265358979,-3.14159265358979,3.14159265358979;                  65P    121
128,1,8,1,2,0,1,0,0,1,0.210526315789474,0.210526315789474,            67P    122
1.47368421052632,1.47368421052632,-3.14159265358979,                  67P    123
-3.14159265358979,-3.14159265358979,-1.5707963267949,                 67P    124
-1.5707963267949,0.,0.,1.5707963267949,1.5707963267949,               67P    125
3.14159265358979,3.14159265358979,3.14159265358979,1.,1.,             67P    126
0.707106781186548,0.707106781186548,1.,1.,0.707106781186548,          67P    127
0.707106781186548,1.,1.,0.707106781186548,0.707106781186548,1.,       67P    128
1.,0.707106781186548,0.707106781186548,1.,1.,-9.5,0.,2.,-9.5,0.,      67P    129
14.,-9.5,-9.5,2.,-9.5,-9.5,14.,0.,-9.5,2.,0.,-9.5,14.,9.5,-9.5,       67P    130
2.,9.5,-9.5,14.,9.5,0.,2.,9.5,0.,14.,9.5,9.5,2.,9.5,9.5,14.,0.,       67P    131
9.5,2.,0.,9.5,14.,-9.5,9.5,2.,-9.5,9.5,14.,-9.5,0.,2.,-9.5,0.,        67P    132
14.,0.210526315789474,1.47368421052632,-3.14159265358979,             67P    133
3.14159265358979;                                                     67P    134
128,1,1,1,1,0,0,1,0,0,-1.501,-1.501,1.501,1.501,-1.501,-1.501,        69P    135
1.501,1.501,1.,1.,1.,1.,15.01,-15.01,0.,-15.01,-15.01,0.,15.01,       69P    136
15.01,0.,-15.01,15.01,0.,-1.501,1.501,-1.501,1.501;                   69P    137
128,1,8,1,2,0,1,0,0,1,0.16,0.16,1.12,1.12,-3.14159265358979,          71P    138
-3.14159265358979,-3.14159265358979,-1.5707963267949,                 71P    139
-1.5707963267949,0.,0.,1.5707963267949,1.5707963267949,               71P    140
3.14159265358979,3.14159265358979,3.14159265358979,1.,1.,             71P    141
0.707106781186548,0.707106781186548,1.,1.,0.707106781186548,          71P    142
0.707106781186548,1.,1.,0.707106781186548,0.707106781186548,1.,       71P    143
1.,0.707106781186548,0.707106781186548,1.,1.,-12.5,0.,14.,-12.5,      71P    144
0.,2.,-12.5,-12.5,14.,-12.5,-12.5,2.,0.,-12.5,14.,0.,-12.5,2.,        71P    145
12.5,-12.5,14.,12.5,-12.5,2.,12.5,0.,14.,12.5,0.,2.,12.5,12.5,        71P    146
14.,12.5,12.5,2.,0.,12.5,14.,0.,12.5,2.,-12.5,12.5,14.,-12.5,         71P    147
12.5,2.,-12.5,0.,14.,-12.5,0.,2.,0.16,1.12,-3.14159265358979,         71P    148
3.14159265358979;                                                     71P    149
128,1,1,1,1,0,0,1,0,0,-1.251,-1.251,1.251,1.251,-1.251,-1.251,        73P    150
1.251,1.251,1.,1.,1.,1.,-12.51,-12.51,14.,12.51,-12.51,14.,           73P    151
-12.51,12.51,14.,12.51,12.51,14.,-1.251,1.251,-1.251,1.251;           73P    152
128,1,8,1,2,0,1,0,0,1,0.,0.,0.133333333333333,0.133333333333333,      75P    153
-3.14159265358979,-3.14159265358979,-3.14159265358979,                75P    154
-1.5707963267949,-1.5707963267949,0.,0.,1.5707963267949,              75P    155
1.5707963267949,3.14159265358979,3.14159265358979,                    75P    156
3.14159265358979,1.,1.,0.707106781186548,0.707106781186548,1.,        75P    157
1.,0.707106781186548,0.707106781186548,1.,1.,0.707106781186548,       75P    158
0.707106781186548,1.,1.,0.707106781186548,0.707106781186548,1.,       75P    159
1.,-15.,0.,2.,-15.,0.,0.,-15.,-15.,2.,-15.,-15.,0.,0.,-15.,2.,        75P    160
0.,-15.,0.,15.,-15.,2.,15.,-15.,0.,15.,0.,2.,15.,0.,0.,15.,15.,       75P    161
2.,15.,15.,0.,0.,15.,2.,0.,15.,0.,-15.,15.,2.,-15.,15.,0.,-15.,       75P    162
0.,2.,-15.,0.,0.,0.,0.133333333333333,-3.14159265358979,              75P    163
3.14159265358979;                                                     75P    164
128,1,1,1,1,0,0,1,0,0,-1.501,-1.501,1.501,1.501,-1.501,-1.501,        77P    165
1.501,1.501,1.,1.,1.,1.,-15.01,-15.01,2.,15.01,-15.01,2.,-15.01,      77P    166
15.01,2.,15.01,15.01,2.,-1.501,1.501,-1.501,1.501;                    77P    167
502,9,-9.5,-1.16341445918999D-15,2.,9.5,0.,2.,11.5,0.,0.,-11.5,       79P    168
1.40834381901946D-15,0.,-9.5,-1.16341445918999D-15,14.,-15.,          79P    169
-1.83697019872103D-15,0.,-12.5,-1.53080849893419D-15,14.,-12.5,       79P    170
1.53080849893419D-15,2.,-15.,-1.83697019872103D-15,2.;                79P    171
504,13,39,79,1,79,2,41,79,2,79,3,43,79,3,79,4,45,79,4,79,3,47,        81P    172
79,2,79,1,49,79,5,79,5,51,79,5,79,1,53,79,6,79,6,55,79,7,79,7,        81P    173
57,79,7,79,8,59,79,8,79,8,61,79,9,79,9,63,79,9,79,6;                  81P    174
406,1,5HBody1;                                                        83P    175
314,62.7450980392157,62.7450980392157,62.7450980392157,13HSteel       85P    176
- Satin;                                                              85P    177
S      1G      3D     86P    177                                        T      1
