                                                                        S      1
,,27HMakita Crosscut Saw Foot v3,27HMakita Crosscut Saw Foot v3,7HunknowG      1
n,7Hunknown,32,38,7,99,15,,1.,2,2HMM,1,0.08,15H20220922.115129,0.01,    G      2
10000.,7Hunknown,7Hunknown,11,0,15H20190708.213916;                     G      3
     186       1                                                00000000D      1
     186            -127       1       0                               0D      2
     514       2                                                00010000D      3
     514                       1       1                               0D      4
     510       3                                                00010000D      5
     510            -127       1       1                               0D      6
     510       4                                                00010000D      7
     510            -127       1       1                               0D      8
     510       5                                                00010000D      9
     510            -127       1       1                               0D     10
     510       6                                                00010000D     11
     510            -127       1       1                               0D     12
     510       7                                                00010000D     13
     510            -127       1       1                               0D     14
     510       8                                                00010000D     15
     510            -127       1       1                               0D     16
     510       9                                                00010000D     17
     510            -127       1       1                               0D     18
     510      10                                                00010000D     19
     510            -127       1       1                               0D     20
     510      11                                                00010000D     21
     510            -127       1       1                               0D     22
     510      12                                                00010000D     23
     510            -127       1       1                               0D     24
     510      13                                                00010000D     25
     510            -127       1       1                               0D     26
     508      14                                                00010000D     27
     508                       1       1                               0D     28
     508      15                                                00010000D     29
     508                       1       1                               0D     30
     508      16                                                00010000D     31
     508                       1       1                               0D     32
     508      17                                                00010000D     33
     508                       1       1                               0D     34
     508      18                                                00010000D     35
     508                       1       1                               0D     36
     508      19                                                00010000D     37
     508                       1       1                               0D     38
     508      20                                                00010000D     39
     508                       1       1                               0D     40
     508      21                                                00010000D     41
     508                       1       1                               0D     42
     508      22                                                00010000D     43
     508                       1       1                               0D     44
     508      23                                                00010000D     45
     508                       1       1                               0D     46
     508      24                                                00010000D     47
     508                       1       1                               0D     48
     508      25                                                00010000D     49
     508                       1       1                               0D     50
     508      26                                                00010000D     51
     508                       1       1                               0D     52
     508      27                                                00010000D     53
     508                       1       1                               0D     54
     508      28                                                00010000D     55
     508                       1       1                               0D     56
     126      29                                                00010000D     57
     126       0               7       0                               0D     58
     126      36                                                00010000D     59
     126       0               3       0                               0D     60
     126      39                                                00010000D     61
     126       0               7       0                               0D     62
     126      46                                                00010000D     63
     126       0               3       0                               0D     64
     126      49                                                00010000D     65
     126       0               4       0                               0D     66
     126      53                                                00010000D     67
     126       0               3       0                               0D     68
     126      56                                                00010000D     69
     126       0               4       0                               0D     70
     126      60                                                00010000D     71
     126       0              10       0                               0D     72
     126      70                                                00010000D     73
     126       0               2       0                               0D     74
     126      72                                                00010000D     75
     126       0              10       0                               0D     76
     126      82                                                00010000D     77
     126       0               4       0                               0D     78
     126      86                                                00010000D     79
     126       0               3       0                               0D     80
     126      89                                                00010000D     81
     126       0               3       0                               0D     82
     126      92                                                00010000D     83
     126       0              13       0                               0D     84
     126     105                                                00010000D     85
     126       0              13       0                               0D     86
     126     118                                                00010000D     87
     126       0              10       0                               0D     88
     126     128                                                00010000D     89
     126       0              10       0                               0D     90
     126     138                                                00010000D     91
     126       0               2       0                               0D     92
     126     140                                                00010000D     93
     126       0              10       0                               0D     94
     126     150                                                00010000D     95
     126       0               2       0                               0D     96
     126     152                                                00010000D     97
     126       0               9       0                               0D     98
     128     161                                                00010000D     99
     128       0    -127      13       0                               0D    100
     128     174                                                00010000D    101
     128       0    -127       6       0                               0D    102
     128     180                                                00010000D    103
     128       0    -127      11       0                               0D    104
     128     191                                                00010000D    105
     128       0    -127       6       0                               0D    106
     128     197                                                00010000D    107
     128       0    -127      22       0                               0D    108
     128     219                                                00010000D    109
     128       0    -127       7       0                               0D    110
     128     226                                                00010000D    111
     128       0    -127       3       0                               0D    112
     128     229                                                00010000D    113
     128       0    -127      12       0                               0D    114
     128     241                                                00010000D    115
     128       0    -127      11       0                               0D    116
     128     252                                                00010000D    117
     128       0    -127       3       0                               0D    118
     128     255                                                00010000D    119
     128       0    -127       3       0                               0D    120
     502     258                                                00010000D    121
     502                       9       1                               0D    122
     504     267                                                00010001D    123
     504                       6       1                               0D    124
     406     273                                                00000000D    125
     406                       1      15                               0D    126
     314     274                                                00000200D    127
     314                       2       0                               0D    128
186,3,1,0,0,1,125;                                                     1P      1
514,11,5,1,7,1,9,1,11,1,13,1,15,1,17,1,19,1,21,1,23,1,25,1;            3P      2
510,99,1,1,27;                                                         5P      3
510,101,1,1,29;                                                        7P      4
510,103,1,1,31;                                                        9P      5
510,105,1,1,33;                                                       11P      6
510,107,1,1,35;                                                       13P      7
510,109,2,1,37,39;                                                    15P      8
510,111,2,1,41,43;                                                    17P      9
510,113,1,1,45;                                                       19P     10
510,115,1,1,47;                                                       21P     11
510,117,2,1,49,51;                                                    23P     12
510,119,2,1,53,55;                                                    25P     13
508,4,0,123,1,0,0,0,123,2,1,0,0,123,3,0,0,0,123,4,0,0;                27P     14
508,4,0,123,5,0,0,0,123,6,1,0,0,123,7,0,0,0,123,2,0,0;                29P     15
508,4,0,123,8,0,0,0,123,9,1,0,0,123,10,0,0,0,123,9,0,0;               31P     16
508,4,0,123,11,0,0,0,123,4,1,0,0,123,12,0,0,0,123,13,0,0;             33P     17
508,4,0,123,14,0,0,0,123,13,1,0,0,123,15,0,0,0,123,6,0,0;             35P     18
508,4,0,123,15,1,0,0,123,12,1,0,0,123,3,1,0,0,123,7,1,0;              37P     19
508,1,0,123,8,1,0;                                                    39P     20
508,1,0,123,16,1,0;                                                   41P     21
508,4,0,123,5,1,0,0,123,1,1,0,0,123,11,1,0,0,123,14,1,0;              43P     22
508,4,0,123,17,0,0,0,123,18,1,0,0,123,19,1,0,0,123,18,0,0;            45P     23
508,4,0,123,16,0,0,0,123,20,1,0,0,123,21,1,0,0,123,20,0,0;            47P     24
508,1,0,123,10,1,0;                                                   49P     25
508,1,0,123,17,1,0;                                                   51P     26
508,1,0,123,21,0,0;                                                   53P     27
508,1,0,123,19,0,0;                                                   55P     28
126,4,2,0,0,0,0,0.,0.,0.,1.5707963267949,1.5707963267949,             57P     29
3.1415926535898,3.1415926535898,3.1415926535898,1.,                   57P     30
0.707106781186545,1.,0.707106781186547,1.,-0.658302248852557,         57P     31
5.61864072958896,2.8,-0.658302248852559,4.96864072958896,2.8,         57P     32
-0.00830224885255725,4.96864072958896,2.8,0.641697751147444,          57P     33
4.96864072958896,2.8,0.641697751147444,5.61864072958896,2.8,0.,       57P     34
3.1415926535898,0.,0.,0.;                                             57P     35
126,1,1,0,0,1,0,0.28,0.28,0.98,0.98,1.,1.,-0.658302248852557,         59P     36
5.61864072958896,2.8,-0.658302248852557,5.61864072958896,9.8,         59P     37
0.28,0.98,0.,0.,0.;                                                   59P     38
126,4,2,0,0,0,0,-3.14159265358979,-3.14159265358979,                  61P     39
-3.14159265358979,-1.5707963267949,-1.5707963267949,0.,0.,0.,1.,      61P     40
0.707106781186547,1.,0.707106781186547,1.,0.641697751147444,          61P     41
5.61864072958896,9.8,0.641697751147442,4.96864072958895,9.8,          61P     42
-0.0083022488525584,4.96864072958896,9.8,-0.658302248852559,          61P     43
4.96864072958896,9.8,-0.658302248852557,5.61864072958896,9.8,         61P     44
-3.14159265358979,0.,0.,0.,0.;                                        61P     45
126,1,1,0,0,1,0,0.28,0.28,0.98,0.98,1.,1.,0.641697751147444,          63P     46
5.61864072958896,2.8,0.641697751147444,5.61864072958896,9.8,          63P     47
0.28,0.98,0.,0.,0.;                                                   63P     48
126,1,1,0,0,1,0,-0.305383903514986,-0.305383903514986,                65P     49
-0.280932036479448,-0.280932036479448,1.,1.,-0.658302248852557,       65P     50
5.86315939994434,2.8,-0.658302248852557,5.61864072958896,2.8,         65P     51
-0.305383903514986,-0.280932036479448,0.,0.,0.;                       65P     52
126,1,1,0,0,1,0,0.28,0.28,0.98,0.98,1.,1.,-0.658302248852557,         67P     53
5.86315939994434,2.8,-0.658302248852557,5.86315939994434,9.8,         67P     54
0.28,0.98,0.,0.,0.;                                                   67P     55
126,1,1,0,0,1,0,-0.218396784378794,-0.218396784378794,                69P     56
-0.193944917343256,-0.193944917343256,1.,1.,-0.658302248852557,       69P     57
5.61864072958896,9.8,-0.658302248852557,5.86315939994434,9.8,         69P     58
-0.218396784378794,-0.193944917343256,0.,0.,0.;                       69P     59
126,8,2,0,1,0,0,-3.14159265358979,-3.14159265358979,                  71P     60
-3.14159265358979,-1.5707963267949,-1.5707963267949,0.,0.,            71P     61
1.5707963267949,1.5707963267949,3.14159265358979,                     71P     62
3.14159265358979,3.14159265358979,1.,0.707106781186548,1.,            71P     63
0.707106781186547,1.,0.707106781186547,1.,0.707106781186548,1.,       71P     64
-2.8,3.42901103761259D-16,9.8,-2.8,2.8,9.8,1.71450551880629D-16,      71P     65
2.8,9.8,2.8,2.8,9.8,2.8,0.,9.8,2.8,-2.8,9.8,                          71P     66
1.71450551880629D-16,-2.8,9.8,-2.8,-2.8,9.8,-2.8,                     71P     67
-3.42901103761259D-16,9.8,-3.14159265358979,3.14159265358979,0.,      71P     68
0.,0.;                                                                71P     69
126,1,1,0,0,1,0,-3.5,-3.5,-1.,-1.,1.,1.,-2.8,0.,9.8,-2.8,0.,2.8,      73P     70
-3.5,-1.,0.,0.,0.;                                                    73P     71
126,8,2,0,1,0,0,-3.14159265358979,-3.14159265358979,                  75P     72
-3.14159265358979,-1.5707963267949,-1.5707963267949,0.,0.,            75P     73
1.5707963267949,1.5707963267949,3.14159265358979,                     75P     74
3.14159265358979,3.14159265358979,1.,0.707106781186548,1.,            75P     75
0.707106781186547,1.,0.707106781186547,1.,0.707106781186548,1.,       75P     76
-2.8,-3.42901103761259D-16,2.8,-2.8,-2.8,2.8,                         75P     77
1.71450551880629D-16,-2.8,2.8,2.8,-2.8,2.8,2.8,0.,2.8,2.8,2.8,        75P     78
2.8,1.71450551880629D-16,2.8,2.8,-2.8,2.8,2.8,-2.8,                   75P     79
3.42901103761259D-16,2.8,-3.14159265358979,3.14159265358979,0.,       75P     80
0.,0.;                                                                75P     81
126,1,1,0,0,1,0,0.268614077237786,0.268614077237786,                  77P     82
0.29324999572111,0.29324999572111,1.,1.,0.641697751147444,            77P     83
5.61864072958896,2.8,0.641697751147444,5.86499991442219,2.8,          77P     84
0.268614077237786,0.29324999572111,0.,0.,0.;                          77P     85
126,1,1,0,0,1,0,-0.0246359184833235,-0.0246359184833235,0.,0.,        79P     86
1.,1.,0.641697751147444,5.86499991442219,9.8,0.641697751147444,       79P     87
5.61864072958896,9.8,-0.0246359184833235,0.,0.,0.,0.;                 79P     88
126,1,1,0,0,1,0,0.28,0.28,0.98,0.98,1.,1.,0.641697751147444,          81P     89
5.86499991442219,2.8,0.641697751147444,5.86499991442219,9.8,          81P     90
0.28,0.98,0.,0.,0.;                                                   81P     91
126,8,2,0,0,0,0,-1.46181841717918,-1.46181841717918,                  83P     92
-1.46181841717918,0.0537810650970396,0.0537810650970396,              83P     93
1.56938054737326,1.56938054737326,3.08498002964949,                   83P     94
3.08498002964949,4.60057951192571,4.60057951192571,                   83P     95
4.60057951192571,1.,0.726350060517364,1.,0.726350060517363,1.,        83P     96
0.726350060517364,1.,0.726350060517364,1.,0.641697751147443,          83P     97
5.86499991442219,2.8,6.19158478709351,5.25777909906779,2.8,           83P     98
5.89146946770137,-0.317155342289168,2.8,5.59135414830923,             83P     99
-5.89208978364613,2.8,0.00835309579710354,-5.89999408692845,2.8,      83P    100
-5.57464795671502,-5.90789839021076,2.8,-5.8905478068106,             83P    101
-0.333836091036895,2.8,-6.20644765690619,5.24022620813697,2.8,        83P    102
-0.658302248852558,5.86315939994434,2.8,-1.46181841717918,            83P    103
4.60057951192571,0.,0.,0.;                                            83P    104
126,8,2,0,0,0,0,1.68260579525388,1.68260579525388,                    85P    105
1.68260579525388,3.1982052775301,3.1982052775301,                     85P    106
4.71380475980632,4.71380475980632,6.22940424208255,                   85P    107
6.22940424208255,7.74500372435877,7.74500372435877,                   85P    108
7.74500372435877,1.,0.726350060517364,1.,0.726350060517364,1.,        85P    109
0.726350060517363,1.,0.726350060517364,1.,-0.658302248852557,         85P    110
5.86315939994434,9.8,-6.20644765690618,5.24022620813697,9.8,          85P    111
-5.8905478068106,-0.333836091036894,9.8,-5.57464795671502,            85P    112
-5.90789839021076,9.8,0.0083530957971021,-5.89999408692845,9.8,       85P    113
5.59135414830923,-5.89208978364613,9.8,5.89146946770137,              85P    114
-0.31715534228917,9.8,6.19158478709351,5.25777909906779,9.8,          85P    115
0.641697751147445,5.86499991442219,9.8,1.68260579525388,              85P    116
7.74500372435877,0.,0.,0.;                                            85P    117
126,8,2,0,1,0,0,-3.14159265358979,-3.14159265358979,                  87P    118
-3.14159265358979,-1.5707963267949,-1.5707963267949,0.,0.,            87P    119
1.5707963267949,1.5707963267949,3.14159265358979,                     87P    120
3.14159265358979,3.14159265358979,1.,0.707106781186548,1.,            87P    121
0.707106781186547,1.,0.707106781186547,1.,0.707106781186548,1.,       87P    122
-10.,-1.22464679914735D-15,2.8,-10.,-10.,2.8,                         87P    123
6.12323399573677D-16,-10.,2.8,10.,-10.,2.8,10.,0.,2.8,10.,10.,        87P    124
2.8,6.12323399573677D-16,10.,2.8,-10.,10.,2.8,-10.,                   87P    125
1.22464679914735D-15,2.8,-3.14159265358979,3.14159265358979,0.,       87P    126
0.,0.;                                                                87P    127
126,8,2,0,1,0,0,-3.14159265358979,-3.14159265358979,                  89P    128
-3.14159265358979,-1.5707963267949,-1.5707963267949,0.,0.,            89P    129
1.5707963267949,1.5707963267949,3.14159265358979,                     89P    130
3.14159265358979,3.14159265358979,1.,0.707106781186548,1.,            89P    131
0.707106781186547,1.,0.707106781186547,1.,0.707106781186548,1.,       89P    132
-1.35,1.65327317884893D-16,2.8,-1.35,1.35,2.8,                        89P    133
8.26636589424463D-17,1.35,2.8,1.35,1.35,2.8,1.35,0.,2.8,1.35,         89P    134
-1.35,2.8,8.26636589424463D-17,-1.35,2.8,-1.35,-1.35,2.8,-1.35,       89P    135
-1.65327317884893D-16,2.8,-3.14159265358979,3.14159265358979,0.,      89P    136
0.,0.;                                                                89P    137
126,1,1,0,0,1,0,-2.07407407407407,-2.07407407407407,0.,0.,1.,1.,      91P    138
-1.35,0.,2.8,-1.35,0.,0.,-2.07407407407407,0.,0.,0.,0.;               91P    139
126,8,2,0,1,0,0,-3.14159265358979,-3.14159265358979,                  93P    140
-3.14159265358979,-1.5707963267949,-1.5707963267949,0.,0.,            93P    141
1.5707963267949,1.5707963267949,3.14159265358979,                     93P    142
3.14159265358979,3.14159265358979,1.,0.707106781186548,1.,            93P    143
0.707106781186547,1.,0.707106781186547,1.,0.707106781186548,1.,       93P    144
-1.35,1.65327317884893D-16,0.,-1.35,1.35,0.,                          93P    145
8.26636589424463D-17,1.35,0.,1.35,1.35,0.,1.35,0.,0.,1.35,-1.35,      93P    146
0.,8.26636589424463D-17,-1.35,0.,-1.35,-1.35,0.,-1.35,                93P    147
-1.65327317884893D-16,0.,-3.14159265358979,3.14159265358979,0.,       93P    148
0.,0.;                                                                93P    149
126,1,1,0,0,1,0,-0.28,-0.28,0.,0.,1.,1.,-10.,0.,2.8,-10.,0.,0.,       95P    150
-0.28,0.,0.,0.,0.;                                                    95P    151
126,8,2,0,1,0,0,-3.14159265358979,-3.14159265358979,                  97P    152
-3.14159265358979,-1.5707963267949,-1.5707963267949,0.,0.,            97P    153
1.5707963267949,1.5707963267949,3.14159265358979,                     97P    154
3.14159265358979,3.14159265358979,1.,0.707106781186548,1.,            97P    155
0.707106781186547,1.,0.707106781186547,1.,0.707106781186548,1.,       97P    156
-10.,-1.22464679914735D-15,0.,-10.,-10.,0.,6.12323399573677D-16,      97P    157
-10.,0.,10.,-10.,0.,10.,0.,0.,10.,10.,0.,6.12323399573677D-16,        97P    158
10.,0.,-10.,10.,0.,-10.,1.22464679914735D-15,0.,                      97P    159
-3.14159265358979,3.14159265358979,0.,0.,0.;                          97P    160
128,1,4,1,2,0,0,0,0,0,4.3076923076923,4.3076923076923,                99P    161
15.0769230769231,15.0769230769231,0.,0.,0.,1.5707963267949,           99P    162
1.5707963267949,3.1415926535898,3.1415926535898,3.1415926535898,      99P    163
1.,1.,0.707106781186547,0.707106781186547,1.,1.,                      99P    164
0.707106781186547,0.707106781186547,1.,1.,-0.658302248852557,         99P    165
5.61864072958896,2.8,-0.658302248852557,5.61864072958896,9.8,         99P    166
-0.658302248852559,4.96864072958896,2.8,-0.658302248852559,           99P    167
4.96864072958896,9.8,-0.00830224885255836,4.96864072958896,2.8,       99P    168
-0.00830224885255836,4.96864072958896,9.8,0.641697751147443,          99P    169
4.96864072958895,2.8,0.641697751147443,4.96864072958895,9.8,          99P    170
0.641697751147444,5.61864072958896,2.8,0.641697751147444,             99P    171
5.61864072958896,9.8,4.3076923076923,15.0769230769231,0.,             99P    172
3.1415926535898;                                                      99P    173
128,1,1,1,1,0,0,1,0,0,-0.001,-0.001,0.025451867035538,               101P    174
0.025451867035538,0.279,0.279,0.981,0.981,1.,1.,1.,1.,               101P    175
-0.658302248852557,5.60864072958896,2.79,-0.658302248852557,         101P    176
5.87315939994434,2.79,-0.658302248852557,5.60864072958896,9.81,      101P    177
-0.658302248852557,5.87315939994434,9.81,-0.001,                     101P    178
0.025451867035538,0.279,0.981;                                       101P    179
128,1,8,1,2,0,1,0,0,1,1.,1.,3.5,3.5,-3.14159265358979,               103P    180
-3.14159265358979,-3.14159265358979,-1.5707963267949,                103P    181
-1.5707963267949,0.,0.,1.5707963267949,1.5707963267949,              103P    182
3.14159265358979,3.14159265358979,3.14159265358979,1.,1.,            103P    183
0.707106781186548,0.707106781186548,1.,1.,0.707106781186548,         103P    184
0.707106781186548,1.,1.,0.707106781186548,0.707106781186548,1.,      103P    185
1.,0.707106781186548,0.707106781186548,1.,1.,-2.8,0.,2.8,-2.8,       103P    186
0.,9.8,-2.8,-2.8,2.8,-2.8,-2.8,9.8,0.,-2.8,2.8,0.,-2.8,9.8,2.8,      103P    187
-2.8,2.8,2.8,-2.8,9.8,2.8,0.,2.8,2.8,0.,9.8,2.8,2.8,2.8,2.8,2.8,     103P    188
9.8,0.,2.8,2.8,0.,2.8,9.8,-2.8,2.8,2.8,-2.8,2.8,9.8,-2.8,0.,2.8,     103P    189
-2.8,0.,9.8,1.,3.5,-3.14159265358979,3.14159265358979;               103P    190
128,1,1,1,1,0,0,1,0,0,-0.001,-0.001,0.0256359184833235,              105P    191
0.0256359184833235,0.279,0.279,0.981,0.981,1.,1.,1.,1.,              105P    192
0.641697751147444,5.87499991442219,2.79,0.641697751147444,           105P    193
5.60864072958896,2.79,0.641697751147444,5.87499991442219,9.81,       105P    194
0.641697751147444,5.60864072958896,9.81,-0.001,                      105P    195
0.0256359184833235,0.279,0.981;                                      105P    196
128,1,8,1,2,0,0,0,0,0,0.474576271186441,0.474576271186441,           107P    197
1.66101694915254,1.66101694915254,1.68260579525388,                  107P    198
1.68260579525388,1.68260579525388,3.1982052775301,                   107P    199
3.1982052775301,4.71380475980632,4.71380475980632,                   107P    200
6.22940424208255,6.22940424208255,7.74500372435877,                  107P    201
7.74500372435877,7.74500372435877,1.,1.,0.726350060517364,           107P    202
0.726350060517364,1.,1.,0.726350060517364,0.726350060517364,1.,      107P    203
1.,0.726350060517364,0.726350060517364,1.,1.,0.726350060517364,      107P    204
0.726350060517364,1.,1.,-0.658302248852557,5.86315939994434,9.8,     107P    205
-0.658302248852557,5.86315939994434,2.8,-6.20644765690618,           107P    206
5.24022620813697,9.8,-6.20644765690618,5.24022620813697,2.8,         107P    207
-5.8905478068106,-0.333836091036894,9.8,-5.8905478068106,            107P    208
-0.333836091036894,2.8,-5.57464795671502,-5.90789839021076,9.8,      107P    209
-5.57464795671502,-5.90789839021076,2.8,0.0083530957971021,          107P    210
-5.89999408692845,9.8,0.0083530957971021,-5.89999408692845,2.8,      107P    211
5.59135414830923,-5.89208978364613,9.8,5.59135414830923,             107P    212
-5.89208978364613,2.8,5.89146946770137,-0.31715534228917,9.8,        107P    213
5.89146946770137,-0.31715534228917,2.8,6.19158478709351,             107P    214
5.25777909906779,9.8,6.19158478709351,5.25777909906779,2.8,          107P    215
0.641697751147445,5.86499991442219,9.8,0.641697751147445,            107P    216
5.86499991442219,2.8,0.474576271186441,1.66101694915254,             107P    217
1.68260579525388,7.74500372435877;                                   107P    218
128,1,1,1,1,0,0,1,0,0,-0.621644765690618,-0.621644765690618,         109P    219
0.620158478709351,0.620158478709351,-0.590039834742186,              109P    220
-0.590039834742186,0.58924999572111,0.58924999572111,1.,1.,1.,       109P    221
1.,-6.21644765690618,-5.91789839021076,9.8,6.20158478709351,         109P    222
-5.91789839021076,9.8,-6.21644765690618,5.87499991442219,9.8,        109P    223
6.20158478709351,5.87499991442219,9.8,-0.621644765690618,            109P    224
0.620158478709351,-0.590039834742186,0.58924999572111;               109P    225
128,1,1,1,1,0,0,1,0,0,-1.001,-1.001,1.001,1.001,-1.001,-1.001,       111P    226
1.001,1.001,1.,1.,1.,1.,-10.01,-10.01,2.8,10.01,-10.01,2.8,          111P    227
-10.01,10.01,2.8,10.01,10.01,2.8,-1.001,1.001,-1.001,1.001;          111P    228
128,1,8,1,2,0,1,0,0,1,0.,0.,2.07407407407407,2.07407407407407,       113P    229
-3.14159265358979,-3.14159265358979,-3.14159265358979,               113P    230
-1.5707963267949,-1.5707963267949,0.,0.,1.5707963267949,             113P    231
1.5707963267949,3.14159265358979,3.14159265358979,                   113P    232
3.14159265358979,1.,1.,0.707106781186548,0.707106781186548,1.,       113P    233
1.,0.707106781186548,0.707106781186548,1.,1.,0.707106781186548,      113P    234
0.707106781186548,1.,1.,0.707106781186548,0.707106781186548,1.,      113P    235
1.,-1.35,0.,0.,-1.35,0.,2.8,-1.35,-1.35,0.,-1.35,-1.35,2.8,0.,       113P    236
-1.35,0.,0.,-1.35,2.8,1.35,-1.35,0.,1.35,-1.35,2.8,1.35,0.,0.,       113P    237
1.35,0.,2.8,1.35,1.35,0.,1.35,1.35,2.8,0.,1.35,0.,0.,1.35,2.8,       113P    238
-1.35,1.35,0.,-1.35,1.35,2.8,-1.35,0.,0.,-1.35,0.,2.8,0.,            113P    239
2.07407407407407,-3.14159265358979,3.14159265358979;                 113P    240
128,1,8,1,2,0,1,0,0,1,0.,0.,0.28,0.28,-3.14159265358979,             115P    241
-3.14159265358979,-3.14159265358979,-1.5707963267949,                115P    242
-1.5707963267949,0.,0.,1.5707963267949,1.5707963267949,              115P    243
3.14159265358979,3.14159265358979,3.14159265358979,1.,1.,            115P    244
0.707106781186548,0.707106781186548,1.,1.,0.707106781186548,         115P    245
0.707106781186548,1.,1.,0.707106781186548,0.707106781186548,1.,      115P    246
1.,0.707106781186548,0.707106781186548,1.,1.,-10.,0.,2.8,-10.,       115P    247
0.,0.,-10.,-10.,2.8,-10.,-10.,0.,0.,-10.,2.8,0.,-10.,0.,10.,         115P    248
-10.,2.8,10.,-10.,0.,10.,0.,2.8,10.,0.,0.,10.,10.,2.8,10.,10.,       115P    249
0.,0.,10.,2.8,0.,10.,0.,-10.,10.,2.8,-10.,10.,0.,-10.,0.,2.8,        115P    250
-10.,0.,0.,0.,0.28,-3.14159265358979,3.14159265358979;               115P    251
128,1,1,1,1,0,0,1,0,0,-0.281,-0.281,0.281,0.281,-0.281,-0.281,       117P    252
0.281,0.281,1.,1.,1.,1.,-2.81,-2.81,2.8,2.81,-2.81,2.8,-2.81,        117P    253
2.81,2.8,2.81,2.81,2.8,-0.281,0.281,-0.281,0.281;                    117P    254
128,1,1,1,1,0,0,1,0,0,-1.001,-1.001,1.001,1.001,-1.001,-1.001,       119P    255
1.001,1.001,1.,1.,1.,1.,10.01,-10.01,0.,-10.01,-10.01,0.,10.01,      119P    256
10.01,0.,-10.01,10.01,0.,-1.001,1.001,-1.001,1.001;                  119P    257
502,14,-0.658302248852557,5.61864072958896,2.8,                      121P    258
0.641697751147444,5.61864072958896,2.8,-0.658302248852556,           121P    259
5.61864072958896,9.8,0.641697751147444,5.61864072958896,9.8,         121P    260
-0.658302248852557,5.86315939994434,2.8,-0.658302248852556,          121P    261
5.86315939994434,9.8,-2.8,-3.42901103761259D-16,9.8,-2.8,            121P    262
-3.42901103761259D-16,2.8,0.641697751147444,5.86499991442219,        121P    263
2.8,0.641697751147444,5.86499991442219,9.8,-10.,                     121P    264
-1.22464679914735D-15,2.8,-1.35,-1.65327317884893D-16,2.8,-1.35,     121P    265
-1.65327317884893D-16,0.,-10.,-1.22464679914735D-15,0.;              121P    266
504,21,57,121,1,121,2,59,121,1,121,3,61,121,4,121,3,63,121,2,        123P    267
121,4,65,121,5,121,1,67,121,5,121,6,69,121,3,121,6,71,121,7,121,     123P    268
7,73,121,7,121,8,75,121,8,121,8,77,121,2,121,9,79,121,10,121,4,      123P    269
81,121,9,121,10,83,121,9,121,5,85,121,6,121,10,87,121,11,121,11,     123P    270
89,121,12,121,12,91,121,12,121,13,93,121,13,121,13,95,121,11,        123P    271
121,14,97,121,14,121,14;                                             123P    272
406,1,5HBody1;                                                       125P    273
314,62.7450980392157,62.7450980392157,62.7450980392157,13HSteel      127P    274
- Satin;                                                             127P    275
S      1G      3D    128P    275                                        T      1
