0
SECTION
2
HEADER
9
$INSUNITS
70
4
9
$ACADVER
1
AC1014
9
$HANDSEED
5
FFFF
0
ENDSEC
0
SECTION
2
TABLES
0
TABLE
2
VPORT
5
8
100
AcDbSymbolTable
0
ENDTAB
0
TABLE
2
LTYPE
5
5
100
AcDbSymbolTable
0
LTYPE
5
14
100
AcDbSymbolTableRecord
100
AcDbLinetypeTableRecord
2
BYBLOCK
70
0
0
LTYPE
5
15
100
AcDbSymbolTableRecord
100
AcDbLinetypeTableRecord
2
BYLAYER
70
0
0
ENDTAB
0
TABLE
2
LAYER
5
2
100
AcDbSymbolTable
70
2
0
LAYER
5
50
100
AcDbSymbolTableRecord
100
AcDbLayerTableRecord
2
0
70
0
6
CONTINUOUS
0
ENDTAB
0
TABLE
2
STYLE
5
3
100
AcDbSymbolTable
70
1
0
STYLE
5
11
100
AcDbSymbolTableRecord
100
AcDbTextStyleTableRecord
2
STANDARD
70
0
0
ENDTAB
0
TABLE
2
VIEW
5
6
100
AcDbSymbolTable
70
0
0
ENDTAB
0
TABLE
2
UCS
5
7
100
AcDbSymbolTable
70
0
0
ENDTAB
0
TABLE
2
APPID
5
9
100
AcDbSymbolTable
70
2
0
APPID
5
12
100
AcDbSymbolTableRecord
100
AcDbRegAppTableRecord
2
ACAD
70
0
0
ENDTAB
0
TABLE
2
DIMSTYLE
5
A
100
AcDbSymbolTable
70
1
0
ENDTAB
0
TABLE
2
BLOCK_RECORD
5
1
100
AcDbSymbolTable
70
1
0
BLOCK_RECORD
5
1F
100
AcDbSymbolTableRecord
100
AcDbBlockTableRecord
2
*MODEL_SPACE
0
BLOCK_RECORD
5
1B
100
AcDbSymbolTableRecord
100
AcDbBlockTableRecord
2
*PAPER_SPACE
0
ENDTAB
0
ENDSEC
0
SECTION
2
BLOCKS
0
BLOCK
5
20
100
AcDbEntity
100
AcDbBlockBegin
2
*MODEL_SPACE
0
ENDBLK
5
21
100
AcDbEntity
100
AcDbBlockEnd
0
BLOCK
5
1C
100
AcDbEntity
100
AcDbBlockBegin
2
*PAPER_SPACE
0
ENDBLK
5
1D
100
AcDbEntity
100
AcDbBlockEnd
0
ENDSEC
0
SECTION
2
ENTITIES
0
LWPOLYLINE
5
100
100
AcDbEntity
8
0
100
AcDbPolyline
90
4
70
1
43
0.0
10
0
20
0
10
131.533203125
20
0
10
131.533203125
20
-20
10
0
20
-20
0
LINE
5
101
100
AcDbEntity
8
0
100
AcDbLine
10
0.010000000000000009
20
-0.2641406249999978
30
0
11
0.010000000000000009
21
-14.580546874999998
31
0
0
LINE
5
102
100
AcDbEntity
8
0
100
AcDbLine
10
0.010000000000000009
20
-14.580546874999998
30
0
11
4.3361718749999998
21
-14.580546874999998
31
0
0
LINE
5
103
100
AcDbEntity
8
0
100
AcDbLine
10
4.3361718749999998
20
-14.580546874999998
30
0
11
6.9338281249999998
21
-4.8149218749999978
31
0
0
LINE
5
104
100
AcDbEntity
8
0
100
AcDbLine
10
6.9338281249999998
20
-4.8149218749999978
30
0
11
9.5021874999999998
21
-14.580546874999998
31
0
0
LINE
5
105
100
AcDbEntity
8
0
100
AcDbLine
10
9.5021874999999998
20
-14.580546874999998
30
0
11
13.838124999999998
21
-14.580546874999998
31
0
0
LINE
5
106
100
AcDbEntity
8
0
100
AcDbLine
10
13.838124999999998
20
-14.580546874999998
30
0
11
13.838124999999998
21
-0.2641406249999978
31
0
0
LINE
5
107
100
AcDbEntity
8
0
100
AcDbLine
10
13.838124999999998
20
-0.2641406249999978
30
0
11
11.152578124999998
21
-0.2641406249999978
31
0
0
LINE
5
108
100
AcDbEntity
8
0
100
AcDbLine
10
11.152578124999998
20
-0.2641406249999978
30
0
11
11.152578124999998
21
-11.533671874999998
31
0
0
LINE
5
109
100
AcDbEntity
8
0
100
AcDbLine
10
11.152578124999998
20
-11.533671874999998
30
0
11
8.310781249999998
21
-0.2641406249999978
31
0
0
LINE
5
110
100
AcDbEntity
8
0
100
AcDbLine
10
8.3107812499999998
20
-0.2641406249999978
30
0
11
5.5275781249999998
21
-0.2641406249999978
31
0
0
LINE
5
111
100
AcDbEntity
8
0
100
AcDbLine
10
5.5275781249999998
20
-0.2641406249999978
30
0
11
2.6955468749999998
21
-11.533671874999998
31
0
0
LINE
5
112
100
AcDbEntity
8
0
100
AcDbLine
10
2.6955468749999998
20
-11.533671874999998
30
0
11
2.6955468749999998
21
-0.2641406249999978
31
0
0
LINE
5
113
100
AcDbEntity
8
0
100
AcDbLine
10
2.6955468749999998
20
-0.2641406249999978
30
0
11
0.010000000000000009
21
-0.2641406249999978
31
0
0
LINE
5
114
100
AcDbEntity
8
0
100
AcDbLine
10
18.740468749999998
20
-7.4711718749999978
30
0
11
16.250234374999998
21
-7.9203906249999978
31
0
0
SPLINE
5
115
100
AcDbEntity
8
0
100
AcDbSpline
70
0
71
3
72
9
73
5
74
0
42
0.000000001
43
0.0000000001
44
0.0000000001
40
0
40
0
40
0
40
0
40
0.14278616163589494
40
0.26953724034041243
40
0.26953724034041243
40
0.26953724034041243
40
0.26953724034041243
10
16.250234374999998
20
-7.9203906249999978
30
0
10
16.404172915394689
20
-8.3808238892489921
30
0
10
16.694762485732888
20
-9.2499831269842776
30
0
10
17.375450382638171
20
-9.8600612098204561
30
0
10
17.695546874999998
20
-10.146953124999998
30
0
0
SPLINE
5
116
100
AcDbEntity
8
0
100
AcDbSpline
70
0
71
3
72
9
73
5
74
0
42
0.000000001
43
0.0000000001
44
0.0000000001
40
0
40
0
40
0
40
0
40
0.13848778769295109
40
0.31665224201654457
40
0.31665224201654457
40
0.31665224201654457
40
0.31665224201654457
10
17.695546874999998
20
-10.146953124999998
30
0
10
18.112820007973497
20
-10.356887655738607
30
0
10
19.066914771782415
20
-10.836902832112569
30
0
10
20.139136232118489
20
-10.857833007287569
30
0
10
20.742421874999998
20
-10.869609374999998
30
0
0
SPLINE
5
117
100
AcDbEntity
8
0
100
AcDbSpline
70
0
71
3
72
9
73
5
74
0
42
0.000000001
43
0.0000000001
44
0.0000000001
40
0
40
0
40
0
40
0
40
0.16053262540596744
40
0.27851116689802857
40
0.27851116689802857
40
0.27851116689802857
40
0.27851116689802857
10
20.742421874999998
20
-10.869609374999998
30
0
10
21.282054598502164
20
-10.865516924978165
30
0
10
22.218273881896277
20
-10.858416854022675
30
0
10
23.102313744621949
20
-10.557588464183461
30
0
10
23.476796874999998
20
-10.430156249999998
30
0
0
SPLINE
5
118
100
AcDbEntity
8
0
100
AcDbSpline
70
0
71
3
72
9
73
5
74
0
42
0.000000001
43
0.0000000001
44
0.0000000001
40
0
40
0
40
0
40
0
40
0.090815718339783011
40
0.16962815411005633
40
0.16962815411005633
40
0.16962815411005633
40
0.16962815411005633
10
23.476796874999998
20
-10.430156249999998
30
0
10
23.748744871862844
20
-10.285802200445245
30
0
10
24.256696992542864
20
-10.01617364481714
30
0
10
24.584335484667875
20
-9.5453801508640996
30
0
10
24.736562499999998
20
-9.3266406249999978
30
0
0
SPLINE
5
119
100
AcDbEntity
8
0
100
AcDbSpline
70
0
71
3
72
9
73
5
74
0
42
0.000000001
43
0.0000000001
44
0.0000000001
40
0
40
0
40
0
40
0
40
0.09849644667127061
40
0.24941662995354186
40
0.24941662995354186
40
0.24941662995354186
40
0.24941662995354186
10
24.736562499999998
20
-9.3266406249999978
30
0
10
24.843669276718575
20
-9.0142185627534293
30
0
10
25.114889327767642
20
-8.2230909584374885
30
0
10
25.110382997544313
20
-7.3834994480733362
30
0
10
25.107656249999998
20
-6.8754687499999978
30
0
0
LINE
5
120
100
AcDbEntity
8
0
100
AcDbLine
10
25.107656249999998
20
-6.8754687499999978
30
0
11
25.078359374999998
21
-3.6723437499999978
31
0
0
SPLINE
5
121
100
AcDbEntity
8
0
100
AcDbSpline
70
0
71
3
72
9
73
5
74
0
42
0.000000001
43
0.0000000001
44
0.0000000001
40
0
40
0
40
0
40
0
40
0.11893883798701609
40
0.20273350585932504
40
0.20273350585932504
40
0.20273350585932504
40
0.20273350585932504
10
25.078359374999998
20
-3.6723437499999978
30
0
10
25.078827401191141
20
-3.2753103215482149
30
0
10
25.079625160713345
20
-2.5985593102245219
30
0
10
25.168555455433964
20
-1.9280125787513525
30
0
10
25.205312499999998
20
-1.6508593749999978
30
0
0
SPLINE
5
122
100
AcDbEntity
8
0
100
AcDbSpline
70
0
71
3
72
9
73
5
74
0
42
0.000000001
43
0.0000000001
44
0.0000000001
40
0
40
0
40
0
40
0
40
0.069619472126700582
40
0.14761504668334541
40
0.14761504668334541
40
0.14761504668334541
40
0.14761504668334541
10
25.205312499999998
20
-1.6508593749999978
30
0
10
25.263351330263269
20
-1.4256566254452285
30
0
10
25.386411795633745
20
-0.94815638918596346
30
0
10
25.593787811298164
20
-0.5006108861972125
30
0
10
25.703359374999998
20
-0.2641406249999978
30
0
0
LINE
5
123
100
AcDbEntity
8
0
100
AcDbLine
10
25.703359374999998
20
-0.2641406249999978
30
0
11
22.988515624999998
21
-0.2641406249999978
31
0
0
SPLINE
5
124
100
AcDbEntity
8
0
100
AcDbSpline
70
0
71
3
72
9
73
5
74
0
42
0.000000001
43
0.0000000001
44
0.0000000001
40
0
40
0
40
0
40
0
40
0.035982385882693146
40
0.085254053012004491
40
0.085254053012004491
40
0.085254053012004491
40
0.085254053012004491
10
22.988515624999998
20
-0.2641406249999978
30
0
10
22.947623816051419
20
-0.37692506757868838
30
0
10
22.850737732420811
20
-0.64414833837235008
30
0
10
22.770953939106633
20
-0.9169973405601084
30
0
10
22.724843749999998
20
-1.0746874999999978
30
0
0
SPLINE
5
125
100
AcDbEntity
8
0
100
AcDbSpline
70
0
71
3
72
9
73
5
74
0
42
0.000000001
43
0.0000000001
44
0.0000000001
40
0
40
0
40
0
40
0
40
0.021093806513957859
40
0.033678302577297578
40
0.033678302577297578
40
0.033678302577297578
40
0.033678302577297578
10
22.724843749999998
20
-1.0746874999999978
30
0
10
22.706030882325944
20
-1.1424541518113562
30
0
10
22.67599431924975
20
-1.2506501667337022
30
0
10
22.640464025475332
20
-1.3571555110108657
30
0
10
22.627187499999998
20
-1.3969531249999978
30
0
0
SPLINE
5
126
100
AcDbEntity
8
0
100
AcDbSpline
70
0
71
3
72
9
73
5
74
0
42
0.000000001
43
0.0000000001
44
0.0000000001
40
0
40
0
40
0
40
0
40
0.094185453639490491
40
0.1828017746222132
40
0.1828017746222132
40
0.1828017746222132
40
0.1828017746222132
10
22.627187499999998
20
-1.3969531249999978
30
0
10
22.393057252751834
20
-1.1852019107802425
30
0
10
21.938640747486339
20
-0.77422021199326174
30
0
10
21.38949105736204
20
-0.50302773990095195
30
0
10
21.123281249999998
20
-0.3715624999999978
30
0
0
SPLINE
5
127
100
AcDbEntity
8
0
100
AcDbSpline
70
0
71
3
72
9
73
5
74
0
42
0.000000001
43
0.0000000001
44
0.0000000001
40
0
40
0
40
0
40
0
40
0.086642752673731158
40
0.17519077694092491
40
0.17519077694092491
40
0.17519077694092491
40
0.17519077694092491
10
21.123281249999998
20
-0.3715624999999978
30
0
10
20.850266448103682
20
-0.27187507737115091
30
0
10
20.298233256814161
20
-0.070308108609773434
30
0
10
19.711070879541609
20
-0.043377413656371377
30
0
10
19.414296874999998
20
-0.029765624999997797
30
0
0
SPLINE
5
128
100
AcDbEntity
8
0
100
AcDbSpline
70
0
71
3
72
9
73
5
74
0
42
0.000000001
43
0.0000000001
44
0.0000000001
40
0
40
0
40
0
40
0
40
0.14494840888011651
40
0.27248472336644758
40
0.27248472336644758
40
0.27248472336644758
40
0.27248472336644758
10
19.414296874999998
20
-0.029765624999997797
30
0
10
18.919993333490464
20
-0.055775479198696409
30
0
10
17.990765032138913
20
-0.1046707239336464
30
0
10
17.237544450271535
20
-0.64568488851276751
30
0
10
16.884999999999998
20
-0.8989062499999978
30
0
0
SPLINE
5
129
100
AcDbEntity
8
0
100
AcDbSpline
70
0
71
3
72
9
73
5
74
0
42
0.000000001
43
0.0000000001
44
0.0000000001
40
0
40
0
40
0
40
0
40
0.12008468064014069
40
0.24357375036924592
40
0.24357375036924592
40
0.24357375036924592
40
0.24357375036924592
10
16.884999999999998
20
-0.8989062499999978
30
0
10
16.617273852497846
20
-1.2107600475494529
30
0
10
16.074231547089806
20
-1.8433086676656241
30
0
10
16.00309609840594
20
-2.6746775053711414
30
0
10
15.967031249999998
20
-3.0961718749999978
30
0
0
SPLINE
5
130
100
AcDbEntity
8
0
100
AcDbSpline
70
0
71
3
72
9
73
5
74
0
42
0.000000001
43
0.0000000001
44
0.0000000001
40
0
40
0
40
0
40
0
40
0.083669026074317684
40
0.1633954264915724
40
0.1633954264915724
40
0.1633954264915724
40
0.1633954264915724
10
15.967031249999998
20
-3.0961718749999978
30
0
10
15.982776620755601
20
-3.3781078322766578
30
0
10
16.013525413834589
20
-3.9286944489011999
30
0
10
16.264495805532601
20
-4.4192919998621916
30
0
10
16.386953124999998
20
-4.6586718749999978
30
0
0
SPLINE
5
131
100
AcDbEntity
8
0
100
AcDbSpline
70
0
71
3
72
9
73
5
74
0
42
0.000000001
43
0.0000000001
44
0.0000000001
40
0
40
0
40
0
40
0
40
0.079086490655170621
40
0.15939354242957748
40
0.15939354242957748
40
0.15939354242957748
40
0.15939354242957748
10
16.386953124999998
20
-4.6586718749999978
30
0
10
16.541708427114237
20
-4.8764095592246814
30
0
10
16.853607407703734
20
-5.3152453265153099
30
0
10
17.322557552353445
20
-5.5799789567747071
30
0
10
17.558828124999998
20
-5.7133593749999978
30
0
0
SPLINE
5
132
100
AcDbEntity
8
0
100
AcDbSpline
70
0
71
3
72
9
73
5
74
0
42
0.000000001
43
0.0000000001
44
0.0000000001
40
0
40
0
40
0
40
0
40
0.099039278888819582
40
0.22848907545935623
40
0.22848907545935623
40
0.22848907545935623
40
0.22848907545935623
10
17.558828124999998
20
-5.7133593749999978
30
0
10
17.865466026151221
20
-5.8375016267237871
30
0
10
18.572896566043315
20
-6.123904644193785
30
0
10
19.321952656264365
20
-6.2732688083083721
30
0
10
19.746328124999998
20
-6.3578906249999978
30
0
0
SPLINE
5
133
100
AcDbEntity
8
0
100
AcDbSpline
70
0
71
3
72
9
73
5
74
0
42
0.000000001
43
0.0000000001
44
0.0000000001
40
0
40
0
40
0
40
0
40
0.16654220543300946
40
0.27526403177890385
40
0.27526403177890385
40
0.27526403177890385
40
0.27526403177890385
10
19.746328124999998
20
-6.3578906249999978
30
0
10
20.293067368122632
20
-6.4593129487093641
30
0
10
21.196728082848914
20
-6.6269456377567959
30
0
10
22.068154106889772
20
-6.9171112167077435
30
0
10
22.412343749999998
20
-7.0317187499999978
30
0
0
LINE
5
134
100
AcDbEntity
8
0
100
AcDbLine
10
22.412343749999998
20
-7.0317187499999978
30
0
11
22.412343749999998
21
-7.3051562499999978
31
0
0
SPLINE
5
135
100
AcDbEntity
8
0
100
AcDbSpline
70
0
71
3
72
9
73
5
74
0
42
0.000000001
43
0.0000000001
44
0.0000000001
40
0
40
0
40
0
40
0
40
0.068328414445321145
40
0.12175506354152296
40
0.12175506354152296
40
0.12175506354152296
40
0.12175506354152296
10
22.412343749999998
20
-7.3051562499999978
30
0
10
22.405702759873201
20
-7.5403888481163062
30
0
10
22.393869115240431
20
-7.9595520932053336
30
0
10
22.135216595610405
20
-8.2852746546290863
30
0
10
22.021718749999998
20
-8.4282031249999978
30
0
0
SPLINE
5
136
100
AcDbEntity
8
0
100
AcDbSpline
70
0
71
3
72
9
73
5
74
0
42
0.000000001
43
0.0000000001
44
0.0000000001
40
0
40
0
40
0
40
0
40
0.061949210313839362
40
0.15341368600142627
40
0.15341368600142627
40
0.15341368600142627
40
0.15341368600142627
10
22.021718749999998
20
-8.4282031249999978
30
0
10
21.83728515675115
20
-8.5270097144801671
30
0
10
21.380545882441574
20
-8.7716985977861821
30
0
10
20.858406358962366
20
-8.7706344434915913
30
0
10
20.547109374999998
20
-8.7699999999999978
30
0
0
SPLINE
5
137
100
AcDbEntity
8
0
100
AcDbSpline
70
0
71
3
72
9
73
5
74
0
42
0.000000001
43
0.0000000001
44
0.0000000001
40
0
40
0
40
0
40
0
40
0.065595729294601751
40
0.11936267895934674
40
0.11936267895934674
40
0.11936267895934674
40
0.11936267895934674
10
20.547109374999998
20
-8.7699999999999978
30
0
10
20.324953983890563
20
-8.7634302229675054
30
0
10
19.920704150658423
20
-8.7514753869561286
30
0
10
19.564833346114732
20
-8.5622623234723712
30
0
10
19.404531249999998
20
-8.4770312499999978
30
0
0
SPLINE
5
138
100
AcDbEntity
8
0
100
AcDbSpline
70
0
71
3
72
9
73
5
74
0
42
0.000000001
43
0.0000000001
44
0.0000000001
40
0
40
0
40
0
40
0
40
0.054056615784874334
40
0.12197906502119096
40
0.12197906502119096
40
0.12197906502119096
40
0.12197906502119096
10
19.404531249999998
20
-8.4770312499999978
30
0
10
19.270645585910309
20
-8.3529985125481261
30
0
10
18.96853181337238
20
-8.0731179257461783
30
0
10
18.822040515792157
20
-7.6864711064709361
30
0
10
18.740468749999998
20
-7.4711718749999978
30
0
0
SPLINE
5
139
100
AcDbEntity
8
0
100
AcDbSpline
70
0
71
3
72
9
73
5
74
0
42
0.000000001
43
0.0000000001
44
0.0000000001
40
0
40
0
40
0
40
0
40
0.070793204066523188
40
0.17224354872806585
40
0.17224354872806585
40
0.17224354872806585
40
0.17224354872806585
10
22.412343749999998
20
-5.2446093749999978
30
0
10
22.185897304241578
20
-5.1779603489173436
30
0
10
21.634941320138399
20
-5.0157998008376374
30
0
10
21.073252805149853
20
-4.8955272565941987
30
0
10
20.742421874999998
20
-4.8246874999999978
30
0
0
SPLINE
5
140
100
AcDbEntity
8
0
100
AcDbSpline
70
0
71
3
72
9
73
5
74
0
42
0.000000001
43
0.0000000001
44
0.0000000001
40
0
40
0
40
0
40
0
40
0.097524936128197917
40
0.1573438733006837
40
0.1573438733006837
40
0.1573438733006837
40
0.1573438733006837
10
20.742421874999998
20
-4.8246874999999978
30
0
10
20.422392344050131
20
-4.7590371711666268
30
0
10
19.90606607951343
20
-4.6531188549677038
30
0
10
19.42947244615344
20
-4.4307224574407282
30
0
10
19.248281249999998
20
-4.3461718749999978
30
0
0
SPLINE
5
141
100
AcDbEntity
8
0
100
AcDbSpline
70
0
71
3
72
9
73
5
74
0
42
0.000000001
43
0.0000000001
44
0.0000000001
40
0
40
0
40
0
40
0
40
0.059076986806862644
40
0.11420413455203504
40
0.11420413455203504
40
0.11420413455203504
40
0.11420413455203504
10
19.248281249999998
20
-4.3461718749999978
30
0
10
19.091679806797266
20
-4.2142721687250972
30
0
10
18.788947164913601
20
-3.9592914627517395
30
0
10
18.736492240143548
20
-3.5681714237219997
30
0
10
18.711171874999998
20
-3.3793749999999978
30
0
0
SPLINE
5
142
100
AcDbEntity
8
0
100
AcDbSpline
70
0
71
3
72
9
73
5
74
0
42
0.000000001
43
0.0000000001
44
0.0000000001
40
0
40
0
40
0
40
0
40
0.054774623681172495
40
0.1108568659286773
40
0.1108568659286773
40
0.1108568659286773
40
0.1108568659286773
10
18.711171874999998
20
-3.3793749999999978
30
0
10
18.729905482869039
20
-3.1930236283380875
30
0
10
18.767819920547094
20
-2.8158721732373548
30
0
10
19.015538895688309
20
-2.5286077059522194
30
0
10
19.140859374999998
20
-2.3832812499999978
30
0
0
SPLINE
5
143
100
AcDbEntity
8
0
100
AcDbSpline
70
0
71
3
72
9
73
5
74
0
42
0.000000001
43
0.0000000001
44
0.0000000001
40
0
40
0
40
0
40
0
40
0.05810393002820808
40
0.11955417868885487
40
0.11955417868885487
40
0.11955417868885487
40
0.11955417868885487
10
19.140859374999998
20
-2.3832812499999978
30
0
10
19.29679820487047
20
-2.2608307052559384
30
0
10
19.617656685902883
20
-2.0088774501186091
30
0
10
20.025156508503713
20
-1.9788125717839211
30
0
10
20.234609374999998
20
-1.9633593749999978
30
0
0
SPLINE
5
144
100
AcDbEntity
8
0
100
AcDbSpline
70
0
71
3
72
9
73
5
74
0
42
0.000000001
43
0.0000000001
44
0.0000000001
40
0
40
0
40
0
40
0
40
0.07353011439492603
40
0.15172717893613852
40
0.15172717893613852
40
0.15172717893613852
40
0.15172717893613852
10
20.234609374999998
20
-1.9633593749999978
30
0
10
20.482399869967843
20
-1.9860955418673565
30
0
10
20.99370810167725
20
-2.0330109381916173
30
0
10
21.4272080504889
20
-2.3092649792519349
30
0
10
21.650624999999998
20
-2.4516406249999978
30
0
0
SPLINE
5
145
100
AcDbEntity
8
0
100
AcDbSpline
70
0
71
3
72
9
73
5
74
0
42
0.000000001
43
0.0000000001
44
0.0000000001
40
0
40
0
40
0
40
0
40
0.05835012012721022
40
0.11349024100114988
40
0.11349024100114988
40
0.11349024100114988
40
0.11349024100114988
10
21.650624999999998
20
-2.4516406249999978
30
0
10
21.801596186932247
20
-2.5795878839654884
30
0
10
22.095233224042307
20
-2.8284436742153352
30
0
10
22.236356182374223
20
-3.1860822512676901
30
0
10
22.304921874999998
20
-3.3598437499999978
30
0
0
SPLINE
5
146
100
AcDbEntity
8
0
100
AcDbSpline
70
0
71
3
72
9
73
5
74
0
42
0.000000001
43
0.0000000001
44
0.0000000001
40
0
40
0
40
0
40
0
40
0.051657525556246288
40
0.13446475678788747
40
0.13446475678788747
40
0.13446475678788747
40
0.13446475678788747
10
22.304921874999998
20
-3.3598437499999978
30
0
10
22.335863212065266
20
-3.5295410372442571
30
0
10
22.416403642880955
20
-3.97126379130879
30
0
10
22.413891066299875
20
-4.4208601301650097
30
0
10
22.412343749999998
20
-4.6977343749999978
30
0
0
LINE
5
147
100
AcDbEntity
8
0
100
AcDbLine
10
22.412343749999998
20
-4.6977343749999978
30
0
11
22.412343749999998
21
-5.2446093749999978
31
0
0
LINE
5
148
100
AcDbEntity
8
0
100
AcDbLine
10
30.439687499999998
20
-0.2641406249999978
30
0
11
27.695546874999998
21
-0.2641406249999978
31
0
0
LINE
5
149
100
AcDbEntity
8
0
100
AcDbLine
10
27.695546874999998
20
-0.2641406249999978
30
0
11
27.695546874999998
21
-10.635234374999998
31
0
0
LINE
5
150
100
AcDbEntity
8
0
100
AcDbLine
10
27.695546874999998
20
-10.635234374999998
30
0
11
30.244374999999998
21
-10.635234374999998
31
0
0
LINE
5
151
100
AcDbEntity
8
0
100
AcDbLine
10
30.244374999999998
20
-10.635234374999998
30
0
11
30.244374999999998
21
-9.1606249999999978
31
0
0
SPLINE
5
152
100
AcDbEntity
8
0
100
AcDbSpline
70
0
71
3
72
9
73
5
74
0
42
0.000000001
43
0.0000000001
44
0.0000000001
40
0
40
0
40
0
40
0
40
0.10656982978379811
40
0.18172272277523052
40
0.18172272277523052
40
0.18172272277523052
40
0.18172272277523052
10
30.244374999999998
20
-9.1606249999999978
30
0
10
30.435217706947192
20
-9.4635151554788095
30
0
10
30.760642420476309
20
-9.9800030195120755
30
0
10
31.224441968236203
20
-10.374450993947262
30
0
10
31.416249999999998
20
-10.537578124999998
30
0
0
SPLINE
5
153
100
AcDbEntity
8
0
100
AcDbSpline
70
0
71
3
72
9
73
5
74
0
42
0.000000001
43
0.0000000001
44
0.0000000001
40
0
40
0
40
0
40
0
40
0.061426479899643671
40
0.12495935756301929
40
0.12495935756301929
40
0.12495935756301929
40
0.12495935756301929
10
31.416249999999998
20
-10.537578124999998
30
0
10
31.599534840071058
20
-10.634412841106576
30
0
10
31.972389607326782
20
-10.831402867789601
30
0
10
32.393534337529147
20
-10.856731553557498
30
0
10
32.607656249999998
20
-10.869609374999998
30
0
0
SPLINE
5
154
100
AcDbEntity
8
0
100
AcDbSpline
70
0
71
3
72
9
73
5
74
0
42
0.000000001
43
0.0000000001
44
0.0000000001
40
0
40
0
40
0
40
0
40
0.092946102685672438
40
0.1896978957541996
40
0.1896978957541996
40
0.1896978957541996
40
0.1896978957541996
10
32.607656249999998
20
-10.869609374999998
30
0
10
32.92009747959758
20
-10.846364078343864
30
0
10
33.557772885977506
20
-10.798921703306767
30
0
10
34.124995699339024
20
-10.502973821592022
30
0
10
34.414296874999998
20
-10.352031249999998
30
0
0
LINE
5
155
100
AcDbEntity
8
0
100
AcDbLine
10
34.414296874999998
20
-10.352031249999998
30
0
11
33.564687499999998
21
-7.9594531249999978
31
0
0
SPLINE
5
156
100
AcDbEntity
8
0
100
AcDbSpline
70
0
71
3
72
9
73
5
74
0
42
0.000000001
43
0.0000000001
44
0.0000000001
40
0
40
0
40
0
40
0
40
0.074899860922833267
40
0.13792030753084952
40
0.13792030753084952
40
0.13792030753084952
40
0.13792030753084952
10
33.564687499999998
20
-7.9594531249999978
30
0
10
33.347866322806738
20
-8.0901713630067782
30
0
10
32.948612665066264
20
-8.330875409231373
30
0
10
32.486692104808668
20
-8.3842728025556106
30
0
10
32.275624999999998
20
-8.4086718749999978
30
0
0
SPLINE
5
157
100
AcDbEntity
8
0
100
AcDbSpline
70
0
71
3
72
9
73
5
74
0
42
0.000000001
43
0.0000000001
44
0.0000000001
40
0
40
0
40
0
40
0
40
0.05382899401313445
40
0.10441090161836067
40
0.10441090161836067
40
0.10441090161836067
40
0.10441090161836067
10
32.275624999999998
20
-8.4086718749999978
30
0
10
32.093115071016939
20
-8.3969949243457975
30
0
10
31.739104623881801
20
-8.3743454030550826
30
0
10
31.442670259379909
20
-8.180375200615952
30
0
10
31.299062499999998
20
-8.0864062499999978
30
0
0
SPLINE
5
158
100
AcDbEntity
8
0
100
AcDbSpline
70
0
71
3
72
9
73
5
74
0
42
0.000000001
43
0.0000000001
44
0.0000000001
40
0
40
0
40
0
40
0
40
0.056927186268407717
40
0.13223101548473054
40
0.13223101548473054
40
0.13223101548473054
40
0.13223101548473054
10
31.299062499999998
20
-8.0864062499999978
30
0
10
31.168646983198414
20
-7.9454078375826809
30
0
10
30.865716567134452
20
-7.6178953698529401
30
0
10
30.737381826681943
20
-7.1884128103324363
30
0
10
30.664296874999998
20
-6.9438281249999978
30
0
0
SPLINE
5
159
100
AcDbEntity
8
0
100
AcDbSpline
70
0
71
3
72
9
73
5
74
0
42
0.000000001
43
0.0000000001
44
0.0000000001
40
0
40
0
40
0
40
0
40
0.12951815475697456
40
0.34882833423467297
40
0.34882833423467297
40
0.34882833423467297
40
0.34882833423467297
10
30.664296874999998
20
-6.9438281249999978
30
0
10
30.599772135882905
20
-6.5164227755433624
30
0
10
30.425989106736331
20
-5.3653015572578022
30
0
10
30.434399710116544
20
-4.199936603840408
30
0
10
30.439687499999998
20
-3.4672656249999978
30
0
0
LINE
5
160
100
AcDbEntity
8
0
100
AcDbLine
10
30.439687499999998
20
-3.4672656249999978
30
0
11
30.439687499999998
21
-0.2641406249999978
31
0
0
LINE
5
161
100
AcDbEntity
8
0
100
AcDbLine
10
40.351796875000005
20
-10.635234374999998
30
0
11
40.351796875000005
21
-8.4477343749999978
31
0
0
LINE
5
162
100
AcDbEntity
8
0
100
AcDbLine
10
40.351796875000005
20
-8.4477343749999978
30
0
11
38.476796875000005
21
-8.4477343749999978
31
0
0
LINE
5
163
100
AcDbEntity
8
0
100
AcDbLine
10
38.476796874999998
20
-8.4477343749999978
30
0
11
38.476796874999998
21
-4.2680468749999978
31
0
0
SPLINE
5
164
100
AcDbEntity
8
0
100
AcDbSpline
70
0
71
3
72
9
73
5
74
0
42
0.000000001
43
0.0000000001
44
0.0000000001
40
0
40
0
40
0
40
0
40
0.10059334440644317
40
0.1485848340558161
40
0.1485848340558161
40
0.1485848340558161
40
0.1485848340558161
10
38.476796874999998
20
-4.2680468749999978
30
0
10
38.473582029395835
20
-3.932437833287703
30
0
10
38.468833431927195
20
-3.4367150390542278
30
0
10
38.511760095519314
20
-2.9431036603624317
30
0
10
38.525624999999998
20
-2.7836718749999978
30
0
0
SPLINE
5
165
100
AcDbEntity
8
0
100
AcDbSpline
70
0
71
3
72
9
73
5
74
0
42
0.000000001
43
0.0000000001
44
0.0000000001
40
0
40
0
40
0
40
0
40
0.02085652649821635
40
0.042608346427294719
40
0.042608346427294719
40
0.042608346427294719
40
0.042608346427294719
10
38.525624999999998
20
-2.7836718749999978
30
0
10
38.551073583460614
20
-2.7177041847758865
30
0
10
38.603063163809296
20
-2.5829370557279363
30
0
10
38.713425156619657
20
-2.4895497747672035
30
0
10
38.769765624999998
20
-2.4418749999999978
30
0
0
SPLINE
5
166
100
AcDbEntity
8
0
100
AcDbSpline
70
0
71
3
72
9
73
5
74
0
42
0.000000001
43
0.0000000001
44
0.0000000001
40
0
40
0
40
0
40
0
40
0.023805901842283018
40
0.049425549542175415
40
0.049425549542175415
40
0.049425549542175415
40
0.049425549542175415
10
38.769765624999998
20
-2.4418749999999978
30
0
10
38.839687428986508
20
-2.4020134973485519
30
0
10
38.984858303415464
20
-2.3192534873654314
30
0
10
39.151919660776834
20
-2.3099688998179357
30
0
10
39.238515624999998
20
-2.3051562499999978
30
0
0
SPLINE
5
167
100
AcDbEntity
8
0
100
AcDbSpline
70
0
71
3
72
9
73
5
74
0
42
0.000000001
43
0.0000000001
44
0.0000000001
40
0
40
0
40
0
40
0
40
0.047094467106999792
40
0.11381323568912907
40
0.11381323568912907
40
0.11381323568912907
40
0.11381323568912907
10
39.238515624999998
20
-2.3051562499999978
30
0
10
39.395091546686793
20
-2.3220483116352009
30
0
10
39.773488699747105
20
-2.3628713702716753
30
0
10
40.131916378719772
20
-2.4927131939543168
30
0
10
40.342031250000005
20
-2.5688281249999978
30
0
0
LINE
5
168
100
AcDbEntity
8
0
100
AcDbLine
10
40.342031250000005
20
-2.5688281249999978
30
0
11
40.576406250000005
21
-0.4399218749999978
31
0
0
SPLINE
5
169
100
AcDbEntity
8
0
100
AcDbSpline
70
0
71
3
72
9
73
5
74
0
42
0.000000001
43
0.0000000001
44
0.0000000001
40
0
40
0
40
0
40
0
40
0.10658632789522986
40
0.22178966388975555
40
0.22178966388975555
40
0.22178966388975555
40
0.22178966388975555
10
40.576406250000005
20
-0.4399218749999978
30
0
10
40.239530917162838
20
-0.32034263309775213
30
0
10
39.538545450094801
20
-0.071516724621387695
30
0
10
38.794772545326047
20
-0.044038520755917965
30
0
10
38.408437499999998
20
-0.029765624999997797
30
0
0
SPLINE
5
170
100
AcDbEntity
8
0
100
AcDbSpline
70
0
71
3
72
9
73
5
74
0
42
0.000000001
43
0.0000000001
44
0.0000000001
40
0
40
0
40
0
40
0
40
0.070820141480160997
40
0.13665034201942378
40
0.13665034201942378
40
0.13665034201942378
40
0.13665034201942378
10
38.408437499999998
20
-0.029765624999997797
30
0
10
38.171062348632326
20
-0.03836783563795354
30
0
10
37.713037344115911
20
-0.054966150767392641
30
0
10
37.279432508611961
20
-0.20272474062414947
30
0
10
37.070546874999998
20
-0.2739062499999978
30
0
0
SPLINE
5
171
100
AcDbEntity
8
0
100
AcDbSpline
70
0
71
3
72
9
73
5
74
0
42
0.000000001
43
0.0000000001
44
0.0000000001
40
0
40
0
40
0
40
0
40
0.059235177290506147
40
0.10999059815559584
40
0.10999059815559584
40
0.10999059815559584
40
0.10999059815559584
10
37.070546874999998
20
-0.2739062499999978
30
0
10
36.889414611641321
20
-0.358453865026791
30
0
10
36.553079904742575
20
-0.51544576029569189
30
0
10
36.305764774837563
20
-0.79119319573381031
30
0
10
36.191640624999998
20
-0.9184374999999978
30
0
0
SPLINE
5
172
100
AcDbEntity
8
0
100
AcDbSpline
70
0
71
3
72
9
73
5
74
0
42
0.000000001
43
0.0000000001
44
0.0000000001
40
0
40
0
40
0
40
0
40
0.052299116092893005
40
0.11465064338352843
40
0.11465064338352843
40
0.11465064338352843
40
0.11465064338352843
10
36.191640624999998
20
-0.9184374999999978
30
0
10
36.106193203612669
20
-1.0717145391179939
30
0
10
35.918874515087978
20
-1.4077299914554087
30
0
10
35.848858637087382
20
-1.7866076719868507
30
0
10
35.810781249999998
20
-1.9926562499999978
30
0
0
SPLINE
5
173
100
AcDbEntity
8
0
100
AcDbSpline
70
0
71
3
72
9
73
5
74
0
42
0.000000001
43
0.0000000001
44
0.0000000001
40
0
40
0
40
0
40
0
40
0.072565641612831383
40
0.19367932484180972
40
0.19367932484180972
40
0.19367932484180972
40
0.19367932484180972
10
35.810781249999998
20
-1.9926562499999978
30
0
10
35.785514442390458
20
-2.2333617796079008
30
0
10
35.718076766240209
20
-2.87581023626021
30
0
10
35.721038537596542
20
-3.5221030668251196
30
0
10
35.722890624999998
20
-3.9262499999999978
30
0
0
LINE
5
174
100
AcDbEntity
8
0
100
AcDbLine
10
35.722890624999998
20
-3.9262499999999978
30
0
11
35.722890624999998
21
-8.4477343749999978
31
0
0
LINE
5
175
100
AcDbEntity
8
0
100
AcDbLine
10
35.722890624999998
20
-8.4477343749999978
30
0
11
34.463124999999998
21
-8.4477343749999978
31
0
0
LINE
5
176
100
AcDbEntity
8
0
100
AcDbLine
10
34.463124999999998
20
-8.4477343749999978
30
0
11
34.463124999999998
21
-10.635234374999998
31
0
0
LINE
5
177
100
AcDbEntity
8
0
100
AcDbLine
10
34.463124999999998
20
-10.635234374999998
30
0
11
35.722890624999998
21
-10.635234374999998
31
0
0
LINE
5
178
100
AcDbEntity
8
0
100
AcDbLine
10
35.722890624999998
20
-10.635234374999998
30
0
11
35.722890624999998
21
-12.695781249999998
31
0
0
LINE
5
179
100
AcDbEntity
8
0
100
AcDbLine
10
35.722890624999998
20
-12.695781249999998
30
0
11
38.476796874999998
21
-14.297343749999998
31
0
0
LINE
5
180
100
AcDbEntity
8
0
100
AcDbLine
10
38.476796874999998
20
-14.297343749999998
30
0
11
38.476796874999998
21
-10.635234374999998
31
0
0
LINE
5
181
100
AcDbEntity
8
0
100
AcDbLine
10
38.476796874999998
20
-10.635234374999998
30
0
11
40.351796874999991
21
-10.635234374999998
31
0
0
LINE
5
182
100
AcDbEntity
8
0
100
AcDbLine
10
42.256093750000005
20
-12.041484374999998
30
0
11
42.256093750000005
21
-14.580546874999998
31
0
0
LINE
5
183
100
AcDbEntity
8
0
100
AcDbLine
10
42.256093750000005
20
-14.580546874999998
30
0
11
45.000234375000005
21
-14.580546874999998
31
0
0
LINE
5
184
100
AcDbEntity
8
0
100
AcDbLine
10
45.000234375000005
20
-14.580546874999998
30
0
11
45.000234375000005
21
-12.041484374999998
31
0
0
LINE
5
185
100
AcDbEntity
8
0
100
AcDbLine
10
45.000234375000005
20
-12.041484374999998
30
0
11
42.256093750000005
21
-12.041484374999998
31
0
0
LINE
5
186
100
AcDbEntity
8
0
100
AcDbLine
10
42.256093750000005
20
-0.2641406249999978
30
0
11
42.256093750000005
21
-10.635234374999998
31
0
0
LINE
5
187
100
AcDbEntity
8
0
100
AcDbLine
10
42.256093750000005
20
-10.635234374999998
30
0
11
45.000234375000005
21
-10.635234374999998
31
0
0
LINE
5
188
100
AcDbEntity
8
0
100
AcDbLine
10
45.000234375000005
20
-10.635234374999998
30
0
11
45.000234375000005
21
-0.2641406249999978
31
0
0
LINE
5
189
100
AcDbEntity
8
0
100
AcDbLine
10
45.000234375000005
20
-0.2641406249999978
30
0
11
42.256093750000005
21
-0.2641406249999978
31
0
0
LINE
5
190
100
AcDbEntity
8
0
100
AcDbLine
10
57.246328125000005
20
-0.2641406249999978
30
0
11
54.502187500000005
21
-0.2641406249999978
31
0
0
LINE
5
191
100
AcDbEntity
8
0
100
AcDbLine
10
54.502187500000005
20
-0.2641406249999978
30
0
11
54.502187500000005
21
-5.5571093749999978
31
0
0
SPLINE
5
192
100
AcDbEntity
8
0
100
AcDbSpline
70
0
71
3
72
9
73
5
74
0
42
0.000000001
43
0.0000000001
44
0.0000000001
40
0
40
0
40
0
40
0
40
0.13825345379617923
40
0.21796452663462898
40
0.21796452663462898
40
0.21796452663462898
40
0.21796452663462898
10
54.502187500000005
20
-5.5571093749999978
30
0
10
54.507066332144383
20
-6.0196603732067349
30
0
10
54.514758091805234
20
-6.7488986424881681
30
0
10
54.376842790341129
20
-7.4636784201816049
30
0
10
54.326406250000005
20
-7.7250781249999978
30
0
0
SPLINE
5
193
100
AcDbEntity
8
0
100
AcDbSpline
70
0
71
3
72
9
73
5
74
0
42
0.000000001
43
0.0000000001
44
0.0000000001
40
0
40
0
40
0
40
0
40
0.049906309085971011
40
0.097564410116236955
40
0.097564410116236955
40
0.097564410116236955
40
0.097564410116236955
10
54.326406250000005
20
-7.7250781249999978
30
0
10
54.260053864380815
20
-7.8806251618807899
30
0
10
54.130338173493122
20
-8.184712063447888
30
0
10
53.874974162843905
20
-8.3942216198279151
30
0
10
53.750234375000005
20
-8.4965624999999978
30
0
0
SPLINE
5
194
100
AcDbEntity
8
0
100
AcDbSpline
70
0
71
3
72
9
73
5
74
0
42
0.000000001
43
0.0000000001
44
0.0000000001
40
0
40
0
40
0
40
0
40
0.047832251564225672
40
0.099797513341196187
40
0.099797513341196187
40
0.099797513341196187
40
0.099797513341196187
10
53.750234375000005
20
-8.4965624999999978
30
0
10
53.609549403311249
20
-8.5762775768985247
30
0
10
53.316023385198463
20
-8.7425956194350221
30
0
10
52.978644362173114
20
-8.7606164353624525
30
0
10
52.802968750000005
20
-8.7699999999999978
30
0
0
SPLINE
5
195
100
AcDbEntity
8
0
100
AcDbSpline
70
0
71
3
72
9
73
5
74
0
42
0.000000001
43
0.0000000001
44
0.0000000001
40
0
40
0
40
0
40
0
40
0.068328414445321145
40
0.13537113707699411
40
0.13537113707699411
40
0.13537113707699411
40
0.13537113707699411
10
52.802968750000005
20
-8.7699999999999978
30
0
10
52.572356939788911
20
-8.7543511806555774
30
0
10
52.115472593428997
20
-8.7233479957322384
30
0
10
51.719685781735272
20
-8.4933043829921182
30
0
10
51.523671875000005
20
-8.3793749999999978
30
0
0
SPLINE
5
196
100
AcDbEntity
8
0
100
AcDbSpline
70
0
71
3
72
9
73
5
74
0
42
0.000000001
43
0.0000000001
44
0.0000000001
40
0
40
0
40
0
40
0
40
0.065968585890109996
40
0.13148748787055861
40
0.13148748787055861
40
0.13148748787055861
40
0.13148748787055861
10
51.523671875000005
20
-8.3793749999999978
30
0
10
51.349641873539667
20
-8.2389568928576686
30
0
10
51.002768169982538
20
-7.9590778578509198
30
0
10
50.829005885776681
20
-7.5487039631422608
30
0
10
50.742421875000005
20
-7.3442187499999978
30
0
0
SPLINE
5
197
100
AcDbEntity
8
0
100
AcDbSpline
70
0
71
3
72
9
73
5
74
0
42
0.000000001
43
0.0000000001
44
0.0000000001
40
0
40
0
40
0
40
0
40
0.093076512047235369
40
0.23965058126647543
40
0.23965058126647543
40
0.23965058126647543
40
0.23965058126647543
10
50.742421875000005
20
-7.3442187499999978
30
0
10
50.683303632052613
20
-7.0390206161028335
30
0
10
50.531087772496058
20
-6.2532057141350723
30
0
10
50.534969577148686
20
-5.4516502151000834
30
0
10
50.537343750000005
20
-4.9614062499999978
30
0
0
LINE
5
198
100
AcDbEntity
8
0
100
AcDbLine
10
50.537343750000005
20
-4.9614062499999978
30
0
11
50.537343750000005
21
-0.2641406249999978
31
0
0
LINE
5
199
100
AcDbEntity
8
0
100
AcDbLine
10
50.537343750000005
20
-0.2641406249999978
30
0
11
47.793203125000005
21
-0.2641406249999978
31
0
0
LINE
5
200
100
AcDbEntity
8
0
100
AcDbLine
10
47.793203125000005
20
-0.2641406249999978
30
0
11
47.793203125000005
21
-10.635234374999998
31
0
0
LINE
5
201
100
AcDbEntity
8
0
100
AcDbLine
10
47.793203125000005
20
-10.635234374999998
30
0
11
50.342031250000005
21
-10.635234374999998
31
0
0
LINE
5
202
100
AcDbEntity
8
0
100
AcDbLine
10
50.342031250000005
20
-10.635234374999998
30
0
11
50.342031250000005
21
-9.1117968749999978
31
0
0
SPLINE
5
203
100
AcDbEntity
8
0
100
AcDbSpline
70
0
71
3
72
9
73
5
74
0
42
0.000000001
43
0.0000000001
44
0.0000000001
40
0
40
0
40
0
40
0
40
0.20220740006637136
40
0.39573932276270346
40
0.39573932276270346
40
0.39573932276270346
40
0.39573932276270346
10
50.342031250000005
20
-9.1117968749999978
30
0
10
50.815964766499839
20
-9.6244202117412456
30
0
10
51.743498223695916
20
-10.627673366906441
30
0
10
53.097728645515886
20
-10.790151330548248
30
0
10
53.760000000000005
20
-10.869609374999998
30
0
0
SPLINE
5
204
100
AcDbEntity
8
0
100
AcDbSpline
70
0
71
3
72
9
73
5
74
0
42
0.000000001
43
0.0000000001
44
0.0000000001
40
0
40
0
40
0
40
0
40
0.087309548330146897
40
0.17023833654138612
40
0.17023833654138612
40
0.17023833654138612
40
0.17023833654138612
10
53.760000000000005
20
-10.869609374999998
30
0
10
54.052819730955697
20
-10.857255190783979
30
0
10
54.623766951022603
20
-10.833166694044676
30
0
10
55.159286677881873
20
-10.634402710198101
30
0
10
55.420156250000005
20
-10.537578124999998
30
0
0
SPLINE
5
205
100
AcDbEntity
8
0
100
AcDbSpline
70
0
71
3
72
9
73
5
74
0
42
0.000000001
43
0.0000000001
44
0.0000000001
40
0
40
0
40
0
40
0
40
0.075526314021337346
40
0.14165057527837016
40
0.14165057527837016
40
0.14165057527837016
40
0.14165057527837016
10
55.420156250000005
20
-10.537578124999998
30
0
10
55.65038679634177
20
-10.428768603221471
30
0
10
56.082187153059195
20
-10.224694942863323
30
0
10
56.403142689105408
20
-9.8720970902587286
30
0
10
56.552968750000005
20
-9.7074999999999978
30
0
0
SPLINE
5
206
100
AcDbEntity
8
0
100
AcDbSpline
70
0
71
3
72
9
73
5
74
0
42
0.000000001
43
0.0000000001
44
0.0000000001
40
0
40
0
40
0
40
0
40
0.063433823502464723
40
0.1279003563467562
40
0.1279003563467562
40
0.1279003563467562
40
0.1279003563467562
10
56.552968750000005
20
-9.7074999999999978
30
0
10
56.673197210816149
20
-9.5316783503718696
30
0
10
56.915611464480179
20
-9.1771726561023392
30
0
10
57.031610367123733
20
-8.7636081371325094
30
0
10
57.090078125000005
20
-8.5551562499999978
30
0
0
SPLINE
5
207
100
AcDbEntity
8
0
100
AcDbSpline
70
0
71
3
72
9
73
5
74
0
42
0.000000001
43
0.0000000001
44
0.0000000001
40
0
40
0
40
0
40
0
40
0.0792404650659215
40
0.18551345174026784
40
0.18551345174026784
40
0.18551345174026784
40
0.18551345174026784
10
57.090078125000005
20
-8.5551562499999978
30
0
10
57.135409727060363
20
-8.2945079585839352
30
0
10
57.241537599532315
20
-7.6842924053237338
30
0
10
57.244583343947269
20
-7.0645041767567758
30
0
10
57.246328125000005
20
-6.7094531249999978
30
0
0
LINE
5
208
100
AcDbEntity
8
0
100
AcDbLine
10
57.246328125000005
20
-6.7094531249999978
30
0
11
57.246328125000005
21
-0.2641406249999978
31
0
0
LINE
5
209
100
AcDbEntity
8
0
100
AcDbLine
10
70.771718750000005
20
-14.580546874999998
30
0
11
73.652578125000005
21
-14.580546874999998
31
0
0
LINE
5
210
100
AcDbEntity
8
0
100
AcDbLine
10
73.652578125000005
20
-14.580546874999998
30
0
11
73.652578125000005
21
-5.5180468749999978
31
0
0
SPLINE
5
211
100
AcDbEntity
8
0
100
AcDbSpline
70
0
71
3
72
9
73
5
74
0
42
0.000000001
43
0.0000000001
44
0.0000000001
40
0
40
0
40
0
40
0
40
0.15742054221675267
40
0.27597136845123704
40
0.27597136845123704
40
0.27597136845123704
40
0.27597136845123704
10
73.652578125000005
20
-5.5180468749999978
30
0
10
73.648696975564746
20
-4.9911888348960431
30
0
10
73.641892996200127
20
-4.0675626533343889
30
0
10
73.430771127402892
20
-3.1694709874875127
30
0
10
73.340078125000005
20
-2.7836718749999978
30
0
0
SPLINE
5
212
100
AcDbEntity
8
0
100
AcDbSpline
70
0
71
3
72
9
73
5
74
0
42
0.000000001
43
0.0000000001
44
0.0000000001
40
0
40
0
40
0
40
0
40
0.12733004443596355
40
0.25581576058429806
40
0.25581576058429806
40
0.25581576058429806
40
0.25581576058429806
10
73.340078125000005
20
-2.7836718749999978
30
0
10
73.170796537133512
20
-2.3867827230332672
30
0
10
72.83069692949725
20
-1.5894021776342737
30
0
10
72.15567588347939
20
-1.0452555536960095
30
0
10
71.816640625000005
20
-0.7719531249999978
30
0
0
SPLINE
5
213
100
AcDbEntity
8
0
100
AcDbSpline
70
0
71
3
72
9
73
5
74
0
42
0.000000001
43
0.0000000001
44
0.0000000001
40
0
40
0
40
0
40
0
40
0.13980904260349999
40
0.30397487019599012
40
0.30397487019599012
40
0.30397487019599012
40
0.30397487019599012
10
71.816640625000005
20
-0.7719531249999978
30
0
10
71.398609592891688
20
-0.55300594015465832
30
0
10
70.489720394047851
20
-0.076967760836823551
30
0
10
69.461687655913366
20
-0.039977241132946872
30
0
10
68.906484375000005
20
-0.019999999999997797
30
0
0
SPLINE
5
214
100
AcDbEntity
8
0
100
AcDbSpline
70
0
71
3
72
9
73
5
74
0
42
0.000000001
43
0.0000000001
44
0.0000000001
40
0
40
0
40
0
40
0
40
0.18981285942779666
40
0.3543848295606965
40
0.3543848295606965
40
0.3543848295606965
40
0.3543848295606965
10
68.906484375000005
20
-0.019999999999997797
30
0
10
68.256882266839384
20
-0.053594543978203735
30
0
10
67.044060685220799
20
-0.11631630465223974
30
0
10
66.088511125576815
20
-0.85746176129064988
30
0
10
65.644765625000005
20
-1.2016406249999978
30
0
0
SPLINE
5
215
100
AcDbEntity
8
0
100
AcDbSpline
70
0
71
3
72
9
73
5
74
0
42
0.000000001
43
0.0000000001
44
0.0000000001
40
0
40
0
40
0
40
0
40
0.17004267465482267
40
0.3740614286490419
40
0.3740614286490419
40
0.3740614286490419
40
0.3740614286490419
10
65.644765625000005
20
-1.2016406249999978
30
0
10
65.311697525420101
20
-1.6744071156630125
30
0
10
64.579011278163719
20
-2.714403159443104
30
0
10
64.522981410983022
20
-3.9914487778566898
30
0
10
64.492421875000005
20
-4.6879687499999978
30
0
0
LINE
5
216
100
AcDbEntity
8
0
100
AcDbLine
10
64.492421875000005
20
-4.6879687499999978
30
0
11
67.217031250000005
21
-5.0004687499999978
31
0
0
SPLINE
5
217
100
AcDbEntity
8
0
100
AcDbSpline
70
0
71
3
72
9
73
5
74
0
42
0.000000001
43
0.0000000001
44
0.0000000001
40
0
40
0
40
0
40
0
40
0.1056057076074895
40
0.17873591171271488
40
0.17873591171271488
40
0.17873591171271488
40
0.17873591171271488
10
67.217031250000005
20
-5.0004687499999978
30
0
10
67.23151432354048
20
-4.6450595577575466
30
0
10
67.256026685725317
20
-4.0435353840581589
30
0
10
67.484768955820783
20
-3.4890545799674455
30
0
10
67.578359375000005
20
-3.2621874999999978
30
0
0
SPLINE
5
218
100
AcDbEntity
8
0
100
AcDbSpline
70
0
71
3
72
9
73
5
74
0
42
0.000000001
43
0.0000000001
44
0.0000000001
40
0
40
0
40
0
40
0
40
0.082695947355447191
40
0.16839069783382832
40
0.16839069783382832
40
0.16839069783382832
40
0.16839069783382832
10
67.578359375000005
20
-3.2621874999999978
30
0
10
67.757708268209043
20
-3.0371912566582937
30
0
10
68.122909783506785
20
-2.5790397312461666
30
0
10
68.706930148850176
20
-2.5204961866674691
30
0
10
69.004140625000005
20
-2.4907031249999978
30
0
0
SPLINE
5
219
100
AcDbEntity
8
0
100
AcDbSpline
70
0
71
3
72
9
73
5
74
0
42
0.000000001
43
0.0000000001
44
0.0000000001
40
0
40
0
40
0
40
0
40
0.083644445145719934
40
0.15161382654095537
40
0.15161382654095537
40
0.15161382654095537
40
0.15161382654095537
10
69.004140625000005
20
-2.4907031249999978
30
0
10
69.293752904913973
20
-2.5024362762102914
30
0
10
69.818703795490308
20
-2.5237037728058787
30
0
10
70.200269808775531
20
-2.8785144053203915
30
0
10
70.371328125000005
20
-3.0375781249999978
30
0
0
SPLINE
5
220
100
AcDbEntity
8
0
100
AcDbSpline
70
0
71
3
72
9
73
5
74
0
42
0.000000001
43
0.0000000001
44
0.0000000001
40
0
40
0
40
0
40
0
40
0.090341928300729984
40
0.23497582937395917
40
0.23497582937395917
40
0.23497582937395917
40
0.23497582937395917
10
70.371328125000005
20
-3.0375781249999978
30
0
10
70.486661783659855
20
-3.3184422202883379
30
0
10
70.78664012824558
20
-4.0489587697254503
30
0
10
70.777403897065369
20
-4.8434620211677704
30
0
10
70.771718750000005
20
-5.3324999999999978
30
0
0
LINE
5
221
100
AcDbEntity
8
0
100
AcDbLine
10
70.771718750000005
20
-5.3324999999999978
30
0
11
70.771718750000005
21
-14.580546874999998
31
0
0
LINE
5
222
100
AcDbEntity
8
0
100
AcDbLine
10
83.535390624999991
20
-0.2641406249999978
30
0
11
83.535390624999991
21
-1.8168749999999978
31
0
0
SPLINE
5
223
100
AcDbEntity
8
0
100
AcDbSpline
70
0
71
3
72
9
73
5
74
0
42
0.000000001
43
0.0000000001
44
0.0000000001
40
0
40
0
40
0
40
0
40
0.099103352880488063
40
0.20020027297981927
40
0.20020027297981927
40
0.20020027297981927
40
0.20020027297981927
10
83.535390624999991
20
-1.8168749999999978
30
0
10
83.330020900012954
20
-1.5540551003810288
30
0
10
82.915150224004861
20
-1.0231284049775136
30
0
10
82.334477494813711
20
-0.68103248328631905
30
0
10
82.041249999999991
20
-0.5082812499999978
30
0
0
SPLINE
5
224
100
AcDbEntity
8
0
100
AcDbSpline
70
0
71
3
72
9
73
5
74
0
42
0.000000001
43
0.0000000001
44
0.0000000001
40
0
40
0
40
0
40
0
40
0.10106891120575552
40
0.20163647722372094
40
0.20163647722372094
40
0.20163647722372094
40
0.20163647722372094
10
82.041249999999991
20
-0.5082812499999978
30
0
10
81.731211486713505
20
-0.36871443984178853
30
0
10
81.112672384263917
20
-0.090273130818852021
30
0
10
80.435590049778966
20
-0.04990133371105987
30
0
10
80.097890624999991
20
-0.029765624999997797
30
0
0
SPLINE
5
225
100
AcDbEntity
8
0
100
AcDbSpline
70
0
71
3
72
9
73
5
74
0
42
0.000000001
43
0.0000000001
44
0.0000000001
40
0
40
0
40
0
40
0
40
0.099783054104918667
40
0.19462940887264724
40
0.19462940887264724
40
0.19462940887264724
40
0.19462940887264724
10
80.097890624999991
20
-0.029765624999997797
30
0
10
79.762238722849176
20
-0.046873902549631197
30
0
10
79.107541070140485
20
-0.080244037149972414
30
0
10
78.512745184532193
20
-0.3549035563808367
30
0
10
78.222890625000005
20
-0.4887499999999978
30
0
0
SPLINE
5
226
100
AcDbEntity
8
0
100
AcDbSpline
70
0
71
3
72
9
73
5
74
0
42
0.000000001
43
0.0000000001
44
0.0000000001
40
0
40
0
40
0
40
0
40
0.090340278867570262
40
0.17863855495405437
40
0.17863855495405437
40
0.17863855495405437
40
0.17863855495405437
10
78.222890625000005
20
-0.4887499999999978
30
0
10
77.966050661619079
20
-0.65559312047779983
30
0
10
77.458176206415345
20
-0.98550812981566871
30
0
10
77.166091637159639
20
-1.5157313561190322
30
0
10
77.021718750000005
20
-1.7778124999999978
30
0
0
SPLINE
5
227
100
AcDbEntity
8
0
100
AcDbSpline
70
0
71
3
72
9
73
5
74
0
42
0.000000001
43
0.0000000001
44
0.0000000001
40
0
40
0
40
0
40
0
40
0.10271939360600034
40
0.23366368923544673
40
0.23366368923544673
40
0.23366368923544673
40
0.23366368923544673
10
77.021718750000005
20
-1.7778124999999978
30
0
10
76.913885659661048
20
-2.1047762193678454
30
0
10
76.668589451946815
20
-2.8485456891008898
30
0
10
76.657076703210549
20
-3.6330826617990475
30
0
10
76.650625000000005
20
-4.0727343749999978
30
0
0
LINE
5
228
100
AcDbEntity
8
0
100
AcDbLine
10
76.650625000000005
20
-4.0727343749999978
30
0
11
76.650625000000005
21
-10.635234374999998
31
0
0
LINE
5
229
100
AcDbEntity
8
0
100
AcDbLine
10
76.650625000000005
20
-10.635234374999998
30
0
11
79.394765625000005
21
-10.635234374999998
31
0
0
LINE
5
230
100
AcDbEntity
8
0
100
AcDbLine
10
79.394765625000005
20
-10.635234374999998
30
0
11
79.394765625000005
21
-5.8696093749999978
31
0
0
SPLINE
5
231
100
AcDbEntity
8
0
100
AcDbSpline
70
0
71
3
72
9
73
5
74
0
42
0.000000001
43
0.0000000001
44
0.0000000001
40
0
40
0
40
0
40
0
40
0.17655165647444271
40
0.26924603582374124
40
0.26924603582374124
40
0.26924603582374124
40
0.26924603582374124
10
79.394765625000005
20
-5.8696093749999978
30
0
10
79.388106153296562
20
-5.2799119632834346
30
0
10
79.377950279414492
20
-4.3806075126158266
30
0
10
79.499428292301644
20
-3.4905024350232705
30
0
10
79.541250000000005
20
-3.1840624999999978
30
0
0
SPLINE
5
232
100
AcDbEntity
8
0
100
AcDbSpline
70
0
71
3
72
9
73
5
74
0
42
0.000000001
43
0.0000000001
44
0.0000000001
40
0
40
0
40
0
40
0
40
0.049023656350669374
40
0.097188709857366301
40
0.097188709857366301
40
0.097188709857366301
40
0.097188709857366301
10
79.541250000000005
20
-3.1840624999999978
30
0
10
79.602907417787023
20
-3.0298804420679559
30
0
10
79.725142382168158
20
-2.7242166787129318
30
0
10
79.974375150443237
20
-2.5093143827631659
30
0
10
80.097890624999991
20
-2.4028124999999978
30
0
0
SPLINE
5
233
100
AcDbEntity
8
0
100
AcDbSpline
70
0
71
3
72
9
73
5
74
0
42
0.000000001
43
0.0000000001
44
0.0000000001
40
0
40
0
40
0
40
0
40
0.050132123902287898
40
0.10672906034653608
40
0.10672906034653608
40
0.10672906034653608
40
0.10672906034653608
10
80.097890624999991
20
-2.4028124999999978
30
0
10
80.245869485221547
20
-2.3202932323139125
30
0
10
80.560909891915244
20
-2.144613384442593
30
0
10
80.922022585504351
20
-2.1282739499058945
30
0
10
81.113515624999991
20
-2.1196093749999978
30
0
0
SPLINE
5
234
100
AcDbEntity
8
0
100
AcDbSpline
70
0
71
3
72
9
73
5
74
0
42
0.000000001
43
0.0000000001
44
0.0000000001
40
0
40
0
40
0
40
0
40
0.067327061685242565
40
0.13317174751236427
40
0.13317174751236427
40
0.13317174751236427
40
0.13317174751236427
10
81.113515624999991
20
-2.1196093749999978
30
0
10
81.340729640862008
20
-2.1347600079039264
30
0
10
81.790154980305829
20
-2.1647276941393212
30
0
10
82.180353634017365
20
-2.3893886548969867
30
0
10
82.373281249999991
20
-2.5004687499999978
30
0
0
SPLINE
5
235
100
AcDbEntity
8
0
100
AcDbSpline
70
0
71
3
72
9
73
5
74
0
42
0.000000001
43
0.0000000001
44
0.0000000001
40
0
40
0
40
0
40
0
40
0.063920100047351908
40
0.12381969267450935
40
0.12381969267450935
40
0.12381969267450935
40
0.12381969267450935
10
82.373281249999991
20
-2.5004687499999978
30
0
10
82.542963431651785
20
-2.6347462576222003
30
0
10
82.871654963249824
20
-2.894855358117403
30
0
10
83.049139332755303
20
-3.274056085621162
30
0
10
83.134999999999991
20
-3.4574999999999978
30
0
0
SPLINE
5
236
100
AcDbEntity
8
0
100
AcDbSpline
70
0
71
3
72
9
73
5
74
0
42
0.000000001
43
0.0000000001
44
0.0000000001
40
0
40
0
40
0
40
0
40
0.10006609163146611
40
0.28153501511963686
40
0.28153501511963686
40
0.28153501511963686
40
0.28153501511963686
10
83.134999999999991
20
-3.4574999999999978
30
0
10
83.193706165602762
20
-3.7864090797294114
30
0
10
83.358875414757208
20
-4.7117917066000725
30
0
10
83.347445500636127
20
-5.6533405654946218
30
0
10
83.340078124999991
20
-6.2602343749999978
30
0
0
LINE
5
237
100
AcDbEntity
8
0
100
AcDbLine
10
83.340078124999991
20
-6.2602343749999978
30
0
11
83.340078124999991
21
-10.635234374999998
31
0
0
LINE
5
238
100
AcDbEntity
8
0
100
AcDbLine
10
83.340078124999991
20
-10.635234374999998
30
0
11
86.084218749999991
21
-10.635234374999998
31
0
0
LINE
5
239
100
AcDbEntity
8
0
100
AcDbLine
10
86.084218749999991
20
-10.635234374999998
30
0
11
86.084218749999991
21
-0.2641406249999978
31
0
0
LINE
5
240
100
AcDbEntity
8
0
100
AcDbLine
10
86.084218749999991
20
-0.2641406249999978
30
0
11
83.535390624999991
21
-0.2641406249999978
31
0
0
LINE
5
241
100
AcDbEntity
8
0
100
AcDbLine
10
91.660390624999991
20
-14.580546874999998
30
0
11
91.660390624999991
21
-9.3168749999999978
31
0
0
SPLINE
5
242
100
AcDbEntity
8
0
100
AcDbSpline
70
0
71
3
72
9
73
5
74
0
42
0.000000001
43
0.0000000001
44
0.0000000001
40
0
40
0
40
0
40
0
40
0.18656209974389776
40
0.36252805359397544
40
0.36252805359397544
40
0.36252805359397544
40
0.36252805359397544
10
91.660390624999991
20
-9.3168749999999978
30
0
10
92.11517006358919
20
-9.7696419887990693
30
0
10
92.998898885856022
20
-10.649460212362467
30
0
10
94.234483551372662
20
-10.797670306306028
30
0
10
94.834218749999991
20
-10.869609374999998
30
0
0
SPLINE
5
243
100
AcDbEntity
8
0
100
AcDbSpline
70
0
71
3
72
9
73
5
74
0
42
0.000000001
43
0.0000000001
44
0.0000000001
40
0
40
0
40
0
40
0
40
0.09051561001778019
40
0.1755189809091556
40
0.1755189809091556
40
0.1755189809091556
40
0.1755189809091556
10
94.834218749999991
20
-10.869609374999998
30
0
10
95.137981536558058
20
-10.856890593082923
30
0
10
95.727008498032703
20
-10.832227580371057
30
0
10
96.276894709940194
20
-10.620557921906322
30
0
10
96.543203124999991
20
-10.518046874999998
30
0
0
SPLINE
5
244
100
AcDbEntity
8
0
100
AcDbSpline
70
0
71
3
72
9
73
5
74
0
42
0.000000001
43
0.0000000001
44
0.0000000001
40
0
40
0
40
0
40
0
40
0.077752177437959855
40
0.14665046126678163
40
0.14665046126678163
40
0.14665046126678163
40
0.14665046126678163
10
96.543203124999991
20
-10.518046874999998
30
0
10
96.776792290098911
20
-10.398868218930746
30
0
10
97.217371061491008
20
-10.17408216840944
30
0
10
97.53605800247243
20
-9.7968417865305728
30
0
10
97.685781249999991
20
-9.6196093749999978
30
0
0
SPLINE
5
245
100
AcDbEntity
8
0
100
AcDbSpline
70
0
71
3
72
9
73
5
74
0
42
0.000000001
43
0.0000000001
44
0.0000000001
40
0
40
0
40
0
40
0
40
0.066257084881520933
40
0.13281574786603506
40
0.13281574786603506
40
0.13281574786603506
40
0.13281574786603506
10
97.685781249999991
20
-9.6196093749999978
30
0
10
97.805461553046214
20
-9.432184675340924
30
0
10
98.045366900260674
20
-9.0564821870968419
30
0
10
98.157121048560896
20
-8.6249352763903975
30
0
10
98.213124999999991
20
-8.4086718749999978
30
0
0
SPLINE
5
246
100
AcDbEntity
8
0
100
AcDbSpline
70
0
71
3
72
9
73
5
74
0
42
0.000000001
43
0.0000000001
44
0.0000000001
40
0
40
0
40
0
40
0
40
0.08542619667543544
40
0.20681933794131968
40
0.20681933794131968
40
0.20681933794131968
40
0.20681933794131968
10
98.213124999999991
20
-8.4086718749999978
30
0
10
98.255535122982167
20
-8.1267441457286758
30
0
10
98.358211279694515
20
-7.4441888104288045
30
0
10
98.359092273452461
20
-6.7535167428648641
30
0
10
98.359609374999991
20
-6.3481249999999978
30
0
0
LINE
5
247
100
AcDbEntity
8
0
100
AcDbLine
10
98.359609374999991
20
-6.3481249999999978
30
0
11
98.359609374999991
21
-0.2641406249999978
31
0
0
LINE
5
248
100
AcDbEntity
8
0
100
AcDbLine
10
98.359609374999991
20
-0.2641406249999978
30
0
11
95.615468749999991
21
-0.2641406249999978
31
0
0
LINE
5
249
100
AcDbEntity
8
0
100
AcDbLine
10
95.615468749999991
20
-0.2641406249999978
30
0
11
95.615468749999991
21
-5.7426562499999978
31
0
0
SPLINE
5
250
100
AcDbEntity
8
0
100
AcDbSpline
70
0
71
3
72
9
73
5
74
0
42
0.000000001
43
0.0000000001
44
0.0000000001
40
0
40
0
40
0
40
0
40
0.13335800340033158
40
0.20801395509647719
40
0.20801395509647719
40
0.20801395509647719
40
0.20801395509647719
10
95.615468749999991
20
-5.7426562499999978
30
0
10
95.620641264008427
20
-6.1886974836489062
30
0
10
95.628709434416294
20
-6.8844397621898779
30
0
10
95.503982936228027
20
-7.5677349504456686
30
0
10
95.459218749999991
20
-7.8129687499999978
30
0
0
SPLINE
5
251
100
AcDbEntity
8
0
100
AcDbSpline
70
0
71
3
72
9
73
5
74
0
42
0.000000001
43
0.0000000001
44
0.0000000001
40
0
40
0
40
0
40
0
40
0.044912586081061613
40
0.09022682239275738
40
0.09022682239275738
40
0.09022682239275738
40
0.09022682239275738
10
95.459218749999991
20
-7.8129687499999978
30
0
10
95.39666806172319
20
-7.9519084102968618
30
0
10
95.271007298579633
20
-8.2310302589093851
30
0
10
95.025751772862051
20
-8.4142902386253819
30
0
10
94.902578124999991
20
-8.5063281249999978
30
0
0
SPLINE
5
252
100
AcDbEntity
8
0
100
AcDbSpline
70
0
71
3
72
9
73
5
74
0
42
0.000000001
43
0.0000000001
44
0.0000000001
40
0
40
0
40
0
40
0
40
0.048412538064616178
40
0.10325350054775154
40
0.10325350054775154
40
0.10325350054775154
40
0.10325350054775154
10
94.902578124999991
20
-8.5063281249999978
30
0
10
94.758305795903311
20
-8.583152244506616
30
0
10
94.450604039149169
20
-8.7470015195636215
30
0
10
94.101610633458534
20
-8.7620221190634986
30
0
10
93.916249999999991
20
-8.7699999999999978
30
0
0
SPLINE
5
253
100
AcDbEntity
8
0
100
AcDbSpline
70
0
71
3
72
9
73
5
74
0
42
0.000000001
43
0.0000000001
44
0.0000000001
40
0
40
0
40
0
40
0
40
0.065227594994083274
40
0.1277719251285096
40
0.1277719251285096
40
0.1277719251285096
40
0.1277719251285096
10
93.916249999999991
20
-8.7699999999999978
30
0
10
93.696455004248349
20
-8.757364890736774
30
0
10
93.265906710334519
20
-8.7326144421740572
30
0
10
92.882986323024497
20
-8.534799246262974
30
0
10
92.695546874999991
20
-8.4379687499999978
30
0
0
SPLINE
5
254
100
AcDbEntity
8
0
100
AcDbSpline
70
0
71
3
72
9
73
5
74
0
42
0.000000001
43
0.0000000001
44
0.0000000001
40
0
40
0
40
0
40
0
40
0.062588628870811847
40
0.12979163426961338
40
0.12979163426961338
40
0.12979163426961338
40
0.12979163426961338
10
92.695546874999991
20
-8.4379687499999978
30
0
10
92.526938168374912
20
-8.3092968376567793
30
0
10
92.177289997776271
20
-8.0424666148363659
30
0
10
91.997580520935685
20
-7.6403274308464049
30
0
10
91.904531249999991
20
-7.4321093749999978
30
0
0
SPLINE
5
255
100
AcDbEntity
8
0
100
AcDbSpline
70
0
71
3
72
9
73
5
74
0
42
0.000000001
43
0.0000000001
44
0.0000000001
40
0
40
0
40
0
40
0
40
0.084526618083189037
40
0.19943492471882096
40
0.19943492471882096
40
0.19943492471882096
40
0.19943492471882096
10
91.904531249999991
20
-7.4321093749999978
30
0
10
91.833733299805772
20
-7.1583777569081697
30
0
10
91.666690252450763
20
-6.5125262383536597
30
0
10
91.662693456588542
20
-5.8444044652836187
30
0
10
91.660390624999991
20
-5.4594531249999978
30
0
0
LINE
5
256
100
AcDbEntity
8
0
100
AcDbLine
10
91.660390624999991
20
-5.4594531249999978
30
0
11
91.660390624999991
21
-0.2641406249999978
31
0
0
LINE
5
257
100
AcDbEntity
8
0
100
AcDbLine
10
91.660390624999991
20
-0.2641406249999978
30
0
11
88.916249999999991
21
-0.2641406249999978
31
0
0
LINE
5
258
100
AcDbEntity
8
0
100
AcDbLine
10
88.916249999999991
20
-0.2641406249999978
30
0
11
88.916249999999991
21
-14.580546874999998
31
0
0
LINE
5
259
100
AcDbEntity
8
0
100
AcDbLine
10
88.916249999999991
20
-14.580546874999998
30
0
11
91.660390624999991
21
-14.580546874999998
31
0
0
LINE
5
260
100
AcDbEntity
8
0
100
AcDbLine
10
103.19359374999999
20
-7.4711718749999978
30
0
11
100.70335937499999
21
-7.9203906249999978
31
0
0
SPLINE
5
261
100
AcDbEntity
8
0
100
AcDbSpline
70
0
71
3
72
9
73
5
74
0
42
0.000000001
43
0.0000000001
44
0.0000000001
40
0
40
0
40
0
40
0
40
0.14278616163589494
40
0.26953724034041243
40
0.26953724034041243
40
0.26953724034041243
40
0.26953724034041243
10
100.70335937499999
20
-7.9203906249999978
30
0
10
100.8572979153947
20
-8.3808238892489921
30
0
10
101.14788748573288
20
-9.2499831269842776
30
0
10
101.82857538263816
20
-9.8600612098204561
30
0
10
102.14867187499999
20
-10.146953124999998
30
0
0
SPLINE
5
262
100
AcDbEntity
8
0
100
AcDbSpline
70
0
71
3
72
9
73
5
74
0
42
0.000000001
43
0.0000000001
44
0.0000000001
40
0
40
0
40
0
40
0
40
0.13848778769295109
40
0.31665224201654457
40
0.31665224201654457
40
0.31665224201654457
40
0.31665224201654457
10
102.14867187499999
20
-10.146953124999998
30
0
10
102.5659450079735
20
-10.356887655738607
30
0
10
103.52003977178241
20
-10.836902832112569
30
0
10
104.59226123211849
20
-10.857833007287569
30
0
10
105.19554687499999
20
-10.869609374999998
30
0
0
SPLINE
5
263
100
AcDbEntity
8
0
100
AcDbSpline
70
0
71
3
72
9
73
5
74
0
42
0.000000001
43
0.0000000001
44
0.0000000001
40
0
40
0
40
0
40
0
40
0.16053262540596744
40
0.27851116689802857
40
0.27851116689802857
40
0.27851116689802857
40
0.27851116689802857
10
105.19554687499999
20
-10.869609374999998
30
0
10
105.73517959850216
20
-10.865516924978165
30
0
10
106.67139888189629
20
-10.858416854022675
30
0
10
107.55543874462197
20
-10.557588464183461
30
0
10
107.92992187499999
20
-10.430156249999998
30
0
0
SPLINE
5
264
100
AcDbEntity
8
0
100
AcDbSpline
70
0
71
3
72
9
73
5
74
0
42
0.000000001
43
0.0000000001
44
0.0000000001
40
0
40
0
40
0
40
0
40
0.090815718339783011
40
0.16962815411005633
40
0.16962815411005633
40
0.16962815411005633
40
0.16962815411005633
10
107.92992187499999
20
-10.430156249999998
30
0
10
108.20186987186284
20
-10.285802200445245
30
0
10
108.70982199254286
20
-10.01617364481714
30
0
10
109.03746048466786
20
-9.5453801508640996
30
0
10
109.18968749999999
20
-9.3266406249999978
30
0
0
SPLINE
5
265
100
AcDbEntity
8
0
100
AcDbSpline
70
0
71
3
72
9
73
5
74
0
42
0.000000001
43
0.0000000001
44
0.0000000001
40
0
40
0
40
0
40
0
40
0.09849644667127061
40
0.24941662995354186
40
0.24941662995354186
40
0.24941662995354186
40
0.24941662995354186
10
109.18968749999999
20
-9.3266406249999978
30
0
10
109.29679427671856
20
-9.0142185627534293
30
0
10
109.56801432776763
20
-8.2230909584374885
30
0
10
109.56350799754429
20
-7.3834994480733362
30
0
10
109.56078124999999
20
-6.8754687499999978
30
0
0
LINE
5
266
100
AcDbEntity
8
0
100
AcDbLine
10
109.56078124999999
20
-6.8754687499999978
30
0
11
109.53148437499999
21
-3.6723437499999978
31
0
0
SPLINE
5
267
100
AcDbEntity
8
0
100
AcDbSpline
70
0
71
3
72
9
73
5
74
0
42
0.000000001
43
0.0000000001
44
0.0000000001
40
0
40
0
40
0
40
0
40
0.11893883798701609
40
0.20273350585932504
40
0.20273350585932504
40
0.20273350585932504
40
0.20273350585932504
10
109.53148437499999
20
-3.6723437499999978
30
0
10
109.53195240119113
20
-3.2753103215482149
30
0
10
109.53275016071336
20
-2.5985593102245219
30
0
10
109.62168045543396
20
-1.9280125787513525
30
0
10
109.65843749999999
20
-1.6508593749999978
30
0
0
SPLINE
5
268
100
AcDbEntity
8
0
100
AcDbSpline
70
0
71
3
72
9
73
5
74
0
42
0.000000001
43
0.0000000001
44
0.0000000001
40
0
40
0
40
0
40
0
40
0.069619472126700582
40
0.14761504668334541
40
0.14761504668334541
40
0.14761504668334541
40
0.14761504668334541
10
109.65843749999999
20
-1.6508593749999978
30
0
10
109.71647633026328
20
-1.4256566254452285
30
0
10
109.83953679563372
20
-0.94815638918596346
30
0
10
110.04691281129816
20
-0.5006108861972125
30
0
10
110.15648437499999
20
-0.2641406249999978
30
0
0
LINE
5
269
100
AcDbEntity
8
0
100
AcDbLine
10
110.15648437499999
20
-0.2641406249999978
30
0
11
107.44164062499999
21
-0.2641406249999978
31
0
0
SPLINE
5
270
100
AcDbEntity
8
0
100
AcDbSpline
70
0
71
3
72
9
73
5
74
0
42
0.000000001
43
0.0000000001
44
0.0000000001
40
0
40
0
40
0
40
0
40
0.035982385882693146
40
0.085254053012004491
40
0.085254053012004491
40
0.085254053012004491
40
0.085254053012004491
10
107.44164062499999
20
-0.2641406249999978
30
0
10
107.4007488160514
20
-0.37692506757868838
30
0
10
107.30386273242081
20
-0.64414833837235008
30
0
10
107.22407893910663
20
-0.9169973405601084
30
0
10
107.17796874999999
20
-1.0746874999999978
30
0
0
SPLINE
5
271
100
AcDbEntity
8
0
100
AcDbSpline
70
0
71
3
72
9
73
5
74
0
42
0.000000001
43
0.0000000001
44
0.0000000001
40
0
40
0
40
0
40
0
40
0.021093806513957859
40
0.033678302577297578
40
0.033678302577297578
40
0.033678302577297578
40
0.033678302577297578
10
107.17796874999999
20
-1.0746874999999978
30
0
10
107.15915588232593
20
-1.1424541518113562
30
0
10
107.12911931924975
20
-1.2506501667337022
30
0
10
107.09358902547532
20
-1.3571555110108657
30
0
10
107.08031249999999
20
-1.3969531249999978
30
0
0
SPLINE
5
272
100
AcDbEntity
8
0
100
AcDbSpline
70
0
71
3
72
9
73
5
74
0
42
0.000000001
43
0.0000000001
44
0.0000000001
40
0
40
0
40
0
40
0
40
0.094185453639490491
40
0.1828017746222132
40
0.1828017746222132
40
0.1828017746222132
40
0.1828017746222132
10
107.08031249999999
20
-1.3969531249999978
30
0
10
106.84618225275184
20
-1.1852019107802425
30
0
10
106.39176574748633
20
-0.77422021199326174
30
0
10
105.84261605736204
20
-0.50302773990095195
30
0
10
105.57640624999999
20
-0.3715624999999978
30
0
0
SPLINE
5
273
100
AcDbEntity
8
0
100
AcDbSpline
70
0
71
3
72
9
73
5
74
0
42
0.000000001
43
0.0000000001
44
0.0000000001
40
0
40
0
40
0
40
0
40
0.086642752673731158
40
0.17519077694092491
40
0.17519077694092491
40
0.17519077694092491
40
0.17519077694092491
10
105.57640624999999
20
-0.3715624999999978
30
0
10
105.30339144810368
20
-0.27187507737115091
30
0
10
104.75135825681414
20
-0.070308108609773434
30
0
10
104.16419587954161
20
-0.043377413656371377
30
0
10
103.86742187499999
20
-0.029765624999997797
30
0
0
SPLINE
5
274
100
AcDbEntity
8
0
100
AcDbSpline
70
0
71
3
72
9
73
5
74
0
42
0.000000001
43
0.0000000001
44
0.0000000001
40
0
40
0
40
0
40
0
40
0.14494840888011651
40
0.27248472336644758
40
0.27248472336644758
40
0.27248472336644758
40
0.27248472336644758
10
103.86742187499999
20
-0.029765624999997797
30
0
10
103.37311833349047
20
-0.055775479198696409
30
0
10
102.4438900321389
20
-0.1046707239336464
30
0
10
101.69066945027153
20
-0.64568488851276751
30
0
10
101.33812499999999
20
-0.8989062499999978
30
0
0
SPLINE
5
275
100
AcDbEntity
8
0
100
AcDbSpline
70
0
71
3
72
9
73
5
74
0
42
0.000000001
43
0.0000000001
44
0.0000000001
40
0
40
0
40
0
40
0
40
0.12008468064014069
40
0.24357375036924592
40
0.24357375036924592
40
0.24357375036924592
40
0.24357375036924592
10
101.33812499999999
20
-0.8989062499999978
30
0
10
101.07039885249785
20
-1.2107600475494529
30
0
10
100.52735654708982
20
-1.8433086676656241
30
0
10
100.45622109840595
20
-2.6746775053711414
30
0
10
100.42015624999999
20
-3.0961718749999978
30
0
0
SPLINE
5
276
100
AcDbEntity
8
0
100
AcDbSpline
70
0
71
3
72
9
73
5
74
0
42
0.000000001
43
0.0000000001
44
0.0000000001
40
0
40
0
40
0
40
0
40
0.083669026074317684
40
0.1633954264915724
40
0.1633954264915724
40
0.1633954264915724
40
0.1633954264915724
10
100.42015624999999
20
-3.0961718749999978
30
0
10
100.43590162075559
20
-3.3781078322766578
30
0
10
100.4666504138346
20
-3.9286944489011999
30
0
10
100.71762080553259
20
-4.4192919998621916
30
0
10
100.84007812499999
20
-4.6586718749999978
30
0
0
SPLINE
5
277
100
AcDbEntity
8
0
100
AcDbSpline
70
0
71
3
72
9
73
5
74
0
42
0.000000001
43
0.0000000001
44
0.0000000001
40
0
40
0
40
0
40
0
40
0.079086490655170621
40
0.15939354242957748
40
0.15939354242957748
40
0.15939354242957748
40
0.15939354242957748
10
100.84007812499999
20
-4.6586718749999978
30
0
10
100.99483342711423
20
-4.8764095592246814
30
0
10
101.30673240770372
20
-5.3152453265153099
30
0
10
101.77568255235343
20
-5.5799789567747071
30
0
10
102.01195312499999
20
-5.7133593749999978
30
0
0
SPLINE
5
278
100
AcDbEntity
8
0
100
AcDbSpline
70
0
71
3
72
9
73
5
74
0
42
0.000000001
43
0.0000000001
44
0.0000000001
40
0
40
0
40
0
40
0
40
0.099039278888819582
40
0.22848907545935623
40
0.22848907545935623
40
0.22848907545935623
40
0.22848907545935623
10
102.01195312499999
20
-5.7133593749999978
30
0
10
102.3185910261512
20
-5.8375016267237871
30
0
10
103.02602156604331
20
-6.123904644193785
30
0
10
103.77507765626436
20
-6.2732688083083721
30
0
10
104.19945312499999
20
-6.3578906249999978
30
0
0
SPLINE
5
279
100
AcDbEntity
8
0
100
AcDbSpline
70
0
71
3
72
9
73
5
74
0
42
0.000000001
43
0.0000000001
44
0.0000000001
40
0
40
0
40
0
40
0
40
0.16654220543300946
40
0.27526403177890385
40
0.27526403177890385
40
0.27526403177890385
40
0.27526403177890385
10
104.19945312499999
20
-6.3578906249999978
30
0
10
104.74619236812262
20
-6.4593129487093641
30
0
10
105.64985308284891
20
-6.6269456377567959
30
0
10
106.52127910688976
20
-6.9171112167077435
30
0
10
106.86546874999999
20
-7.0317187499999978
30
0
0
LINE
5
280
100
AcDbEntity
8
0
100
AcDbLine
10
106.86546874999999
20
-7.0317187499999978
30
0
11
106.86546874999999
21
-7.3051562499999978
31
0
0
SPLINE
5
281
100
AcDbEntity
8
0
100
AcDbSpline
70
0
71
3
72
9
73
5
74
0
42
0.000000001
43
0.0000000001
44
0.0000000001
40
0
40
0
40
0
40
0
40
0.068328414445321145
40
0.12175506354152296
40
0.12175506354152296
40
0.12175506354152296
40
0.12175506354152296
10
106.86546874999999
20
-7.3051562499999978
30
0
10
106.85882775987318
20
-7.5403888481163062
30
0
10
106.84699411524042
20
-7.9595520932053336
30
0
10
106.58834159561039
20
-8.2852746546290863
30
0
10
106.47484374999999
20
-8.4282031249999978
30
0
0
SPLINE
5
282
100
AcDbEntity
8
0
100
AcDbSpline
70
0
71
3
72
9
73
5
74
0
42
0.000000001
43
0.0000000001
44
0.0000000001
40
0
40
0
40
0
40
0
40
0.061949210313839362
40
0.15341368600142627
40
0.15341368600142627
40
0.15341368600142627
40
0.15341368600142627
10
106.47484374999999
20
-8.4282031249999978
30
0
10
106.29041015675115
20
-8.5270097144801671
30
0
10
105.83367088244158
20
-8.7716985977861821
30
0
10
105.31153135896236
20
-8.7706344434915913
30
0
10
105.00023437499999
20
-8.7699999999999978
30
0
0
SPLINE
5
283
100
AcDbEntity
8
0
100
AcDbSpline
70
0
71
3
72
9
73
5
74
0
42
0.000000001
43
0.0000000001
44
0.0000000001
40
0
40
0
40
0
40
0
40
0.065595729294601751
40
0.11936267895934674
40
0.11936267895934674
40
0.11936267895934674
40
0.11936267895934674
10
105.00023437499999
20
-8.7699999999999978
30
0
10
104.77807898389058
20
-8.7634302229675054
30
0
10
104.37382915065841
20
-8.7514753869561286
30
0
10
104.01795834611471
20
-8.5622623234723712
30
0
10
103.85765624999999
20
-8.4770312499999978
30
0
0
SPLINE
5
284
100
AcDbEntity
8
0
100
AcDbSpline
70
0
71
3
72
9
73
5
74
0
42
0.000000001
43
0.0000000001
44
0.0000000001
40
0
40
0
40
0
40
0
40
0.054056615784874334
40
0.12197906502119096
40
0.12197906502119096
40
0.12197906502119096
40
0.12197906502119096
10
103.85765624999999
20
-8.4770312499999978
30
0
10
103.72377058591029
20
-8.3529985125481261
30
0
10
103.42165681337235
20
-8.0731179257461783
30
0
10
103.27516551579217
20
-7.6864711064709361
30
0
10
103.19359374999999
20
-7.4711718749999978
30
0
0
SPLINE
5
285
100
AcDbEntity
8
0
100
AcDbSpline
70
0
71
3
72
9
73
5
74
0
42
0.000000001
43
0.0000000001
44
0.0000000001
40
0
40
0
40
0
40
0
40
0.070793204066523188
40
0.17224354872806585
40
0.17224354872806585
40
0.17224354872806585
40
0.17224354872806585
10
106.86546874999999
20
-5.2446093749999978
30
0
10
106.63902230424158
20
-5.1779603489173436
30
0
10
106.08806632013838
20
-5.0157998008376374
30
0
10
105.52637780514985
20
-4.8955272565941987
30
0
10
105.19554687499999
20
-4.8246874999999978
30
0
0
SPLINE
5
286
100
AcDbEntity
8
0
100
AcDbSpline
70
0
71
3
72
9
73
5
74
0
42
0.000000001
43
0.0000000001
44
0.0000000001
40
0
40
0
40
0
40
0
40
0.097524936128197917
40
0.1573438733006837
40
0.1573438733006837
40
0.1573438733006837
40
0.1573438733006837
10
105.19554687499999
20
-4.8246874999999978
30
0
10
104.87551734405011
20
-4.7590371711666268
30
0
10
104.35919107951342
20
-4.6531188549677038
30
0
10
103.88259744615345
20
-4.4307224574407282
30
0
10
103.70140624999999
20
-4.3461718749999978
30
0
0
SPLINE
5
287
100
AcDbEntity
8
0
100
AcDbSpline
70
0
71
3
72
9
73
5
74
0
42
0.000000001
43
0.0000000001
44
0.0000000001
40
0
40
0
40
0
40
0
40
0.059076986806862644
40
0.11420413455203504
40
0.11420413455203504
40
0.11420413455203504
40
0.11420413455203504
10
103.70140624999999
20
-4.3461718749999978
30
0
10
103.54480480679727
20
-4.2142721687250972
30
0
10
103.24207216491361
20
-3.9592914627517395
30
0
10
103.18961724014352
20
-3.5681714237219997
30
0
10
103.16429687499999
20
-3.3793749999999978
30
0
0
SPLINE
5
288
100
AcDbEntity
8
0
100
AcDbSpline
70
0
71
3
72
9
73
5
74
0
42
0.000000001
43
0.0000000001
44
0.0000000001
40
0
40
0
40
0
40
0
40
0.054774623681172495
40
0.1108568659286773
40
0.1108568659286773
40
0.1108568659286773
40
0.1108568659286773
10
103.16429687499999
20
-3.3793749999999978
30
0
10
103.18303048286901
20
-3.1930236283380875
30
0
10
103.2209449205471
20
-2.8158721732373548
30
0
10
103.46866389568829
20
-2.5286077059522194
30
0
10
103.59398437499999
20
-2.3832812499999978
30
0
0
SPLINE
5
289
100
AcDbEntity
8
0
100
AcDbSpline
70
0
71
3
72
9
73
5
74
0
42
0.000000001
43
0.0000000001
44
0.0000000001
40
0
40
0
40
0
40
0
40
0.05810393002820808
40
0.11955417868885487
40
0.11955417868885487
40
0.11955417868885487
40
0.11955417868885487
10
103.59398437499999
20
-2.3832812499999978
30
0
10
103.74992320487047
20
-2.2608307052559384
30
0
10
104.07078168590289
20
-2.0088774501186091
30
0
10
104.4782815085037
20
-1.9788125717839211
30
0
10
104.68773437499999
20
-1.9633593749999978
30
0
0
SPLINE
5
290
100
AcDbEntity
8
0
100
AcDbSpline
70
0
71
3
72
9
73
5
74
0
42
0.000000001
43
0.0000000001
44
0.0000000001
40
0
40
0
40
0
40
0
40
0.07353011439492603
40
0.15172717893613852
40
0.15172717893613852
40
0.15172717893613852
40
0.15172717893613852
10
104.68773437499999
20
-1.9633593749999978
30
0
10
104.93552486996785
20
-1.9860955418673565
30
0
10
105.44683310167726
20
-2.0330109381916173
30
0
10
105.8803330504889
20
-2.3092649792519349
30
0
10
106.10374999999999
20
-2.4516406249999978
30
0
0
SPLINE
5
291
100
AcDbEntity
8
0
100
AcDbSpline
70
0
71
3
72
9
73
5
74
0
42
0.000000001
43
0.0000000001
44
0.0000000001
40
0
40
0
40
0
40
0
40
0.05835012012721022
40
0.11349024100114988
40
0.11349024100114988
40
0.11349024100114988
40
0.11349024100114988
10
106.10374999999999
20
-2.4516406249999978
30
0
10
106.25472118693224
20
-2.5795878839654884
30
0
10
106.54835822404229
20
-2.8284436742153352
30
0
10
106.68948118237422
20
-3.1860822512676901
30
0
10
106.75804687499999
20
-3.3598437499999978
30
0
0
SPLINE
5
292
100
AcDbEntity
8
0
100
AcDbSpline
70
0
71
3
72
9
73
5
74
0
42
0.000000001
43
0.0000000001
44
0.0000000001
40
0
40
0
40
0
40
0
40
0.051657525556246288
40
0.13446475678788747
40
0.13446475678788747
40
0.13446475678788747
40
0.13446475678788747
10
106.75804687499999
20
-3.3598437499999978
30
0
10
106.78898821206528
20
-3.5295410372442571
30
0
10
106.86952864288094
20
-3.97126379130879
30
0
10
106.86701606629987
20
-4.4208601301650097
30
0
10
106.86546874999999
20
-4.6977343749999978
30
0
0
LINE
5
293
100
AcDbEntity
8
0
100
AcDbLine
10
106.86546874999999
20
-4.6977343749999978
30
0
11
106.86546874999999
21
-5.2446093749999978
31
0
0
LINE
5
294
100
AcDbEntity
8
0
100
AcDbLine
10
111.29906249999999
20
-3.2231249999999978
30
0
11
114.05296874999999
21
-3.6430468749999978
31
0
0
SPLINE
5
295
100
AcDbEntity
8
0
100
AcDbSpline
70
0
71
3
72
9
73
5
74
0
42
0.000000001
43
0.0000000001
44
0.0000000001
40
0
40
0
40
0
40
0
40
0.075408237751997731
40
0.14359737426895491
40
0.14359737426895491
40
0.14359737426895491
40
0.14359737426895491
10
114.05296874999999
20
-3.6430468749999978
30
0
10
114.12172115102179
20
-3.3959643600532075
30
0
10
114.25264403896784
20
-2.925453426077842
30
0
10
114.60061886708746
20
-2.5843305274286776
30
0
10
114.76585937499999
20
-2.4223437499999978
30
0
0
SPLINE
5
296
100
AcDbEntity
8
0
100
AcDbSpline
70
0
71
3
72
9
73
5
74
0
42
0.000000001
43
0.0000000001
44
0.0000000001
40
0
40
0
40
0
40
0
40
0.071417705526849062
40
0.15796478230956768
40
0.15796478230956768
40
0.15796478230956768
40
0.15796478230956768
10
114.76585937499999
20
-2.4223437499999978
30
0
10
114.97583421163662
20
-2.3030009762405879
30
0
10
115.44026567320634
20
-2.0390334469275961
30
0
10
115.97615697842693
20
-2.0216898539499151
30
0
10
116.26976562499999
20
-2.0121874999999978
30
0
0
SPLINE
5
297
100
AcDbEntity
8
0
100
AcDbSpline
70
0
71
3
72
9
73
5
74
0
42
0.000000001
43
0.0000000001
44
0.0000000001
40
0
40
0
40
0
40
0
40
0.093771614126262781
40
0.16680027422572546
40
0.16680027422572546
40
0.16680027422572546
40
0.16680027422572546
10
116.26976562499999
20
-2.0121874999999978
30
0
10
116.58754023224944
20
-2.0186425853653311
30
0
10
117.15279542301334
20
-2.0301248448861964
30
0
10
117.65253267143481
20
-2.2893279441637637
30
0
10
117.87132812499999
20
-2.4028124999999978
30
0
0
SPLINE
5
298
100
AcDbEntity
8
0
100
AcDbSpline
70
0
71
3
72
9
73
5
74
0
42
0.000000001
43
0.0000000001
44
0.0000000001
40
0
40
0
40
0
40
0
40
0.041919734460848707
40
0.08415676818869755
40
0.08415676818869755
40
0.08415676818869755
40
0.08415676818869755
10
117.87132812499999
20
-2.4028124999999978
30
0
10
117.97671506836316
20
-2.5019759262461161
30
0
10
118.18828665097931
20
-2.7010533675210668
30
0
10
118.21782925514812
20
-2.9901440495346132
30
0
10
118.23265624999999
20
-3.1352343749999978
30
0
0
SPLINE
5
299
100
AcDbEntity
8
0
100
AcDbSpline
70
0
71
3
72
9
73
5
74
0
42
0.000000001
43
0.0000000001
44
0.0000000001
40
0
40
0
40
0
40
0
40
0.028978782587273721
40
0.056410673522630447
40
0.056410673522630447
40
0.056410673522630447
40
0.056410673522630447
10
118.23265624999999
20
-3.1352343749999978
30
0
10
118.22544862358315
20
-3.233928081538946
30
0
10
118.21141811490152
20
-3.4260472101303474
30
0
10
118.09429798349097
20
-3.5786186732743608
30
0
10
118.03734374999999
20
-3.6528124999999978
30
0
0
SPLINE
5
300
100
AcDbEntity
8
0
100
AcDbSpline
70
0
71
3
72
9
73
5
74
0
42
0.000000001
43
0.0000000001
44
0.0000000001
40
0
40
0
40
0
40
0
40
0.038155516621308068
40
0.099259481741218611
40
0.099259481741218611
40
0.099259481741218611
40
0.099259481741218611
10
118.03734374999999
20
-3.6528124999999978
30
0
10
117.92883528369778
20
-3.7205845129360116
30
0
10
117.64655646575937
20
-3.896889683885556
30
0
10
117.32024919250549
20
-3.9694640010163651
30
0
10
117.11937499999999
20
-4.0141406249999978
30
0
0
SPLINE
5
301
100
AcDbEntity
8
0
100
AcDbSpline
70
0
71
3
72
9
73
5
74
0
42
0.000000001
43
0.0000000001
44
0.0000000001
40
0
40
0
40
0
40
0
40
0.28014431946642981
40
0.44280318264132157
40
0.44280318264132157
40
0.44280318264132157
40
0.44280318264132157
10
117.11937499999999
20
-4.0141406249999978
30
0
10
116.20102002696947
20
-4.2058654075511503
30
0
10
114.74944497584255
20
-4.5089104382930234
30
0
10
113.40445708563439
20
-5.1255247766396899
30
0
10
112.91039062499999
20
-5.3520312499999978
30
0
0
SPLINE
5
302
100
AcDbEntity
8
0
100
AcDbSpline
70
0
71
3
72
9
73
5
74
0
42
0.000000001
43
0.0000000001
44
0.0000000001
40
0
40
0
40
0
40
0
40
0.13632690953803167
40
0.27289320462896727
40
0.27289320462896727
40
0.27289320462896727
40
0.27289320462896727
10
112.91039062499999
20
-5.3520312499999978
30
0
10
112.55150398508499
20
-5.6594596421410825
30
0
10
111.83310051216237
20
-6.2748562605314318
30
0
10
111.73101127206772
20
-7.2153541644155395
30
0
10
111.67992187499999
20
-7.6860156249999978
30
0
0
SPLINE
5
303
100
AcDbEntity
8
0
100
AcDbSpline
70
0
71
3
72
9
73
5
74
0
42
0.000000001
43
0.0000000001
44
0.0000000001
40
0
40
0
40
0
40
0
40
0.12684626850598649
40
0.25679904608140675
40
0.25679904608140675
40
0.25679904608140675
40
0.25679904608140675
10
111.67992187499999
20
-7.6860156249999978
30
0
10
111.72638173391161
20
-8.1191320935348479
30
0
10
111.82043926977848
20
-8.9959722029989173
30
0
10
112.43392264502931
20
-9.6305257438705496
30
0
10
112.74437499999999
20
-9.9516406249999978
30
0
0
SPLINE
5
304
100
AcDbEntity
8
0
100
AcDbSpline
70
0
71
3
72
9
73
5
74
0
42
0.000000001
43
0.0000000001
44
0.0000000001
40
0
40
0
40
0
40
0
40
0.15220361769157564
40
0.34788990552299026
40
0.34788990552299026
40
0.34788990552299026
40
0.34788990552299026
10
112.74437499999999
20
-9.9516406249999978
30
0
10
113.18561154007654
20
-10.218319211244397
30
0
10
114.19414038169434
20
-10.827863120782517
30
0
10
115.37879442544966
20
-10.854580811169278
30
0
10
116.04515624999999
20
-10.869609374999998
30
0
0
SPLINE
5
305
100
AcDbEntity
8
0
100
AcDbSpline
70
0
71
3
72
9
73
5
74
0
42
0.000000001
43
0.0000000001
44
0.0000000001
40
0
40
0
40
0
40
0
40
0.18635479558245441
40
0.32716807320287389
40
0.32716807320287389
40
0.32716807320287389
40
0.32716807320287389
10
116.04515624999999
20
-10.869609374999998
30
0
10
116.67538456967316
20
-10.860707075280054
30
0
10
117.78182556240908
20
-10.845078026200074
30
0
10
118.77972318817015
20
-10.377497050481699
30
0
10
119.20921874999999
20
-10.176249999999998
30
0
0
SPLINE
5
306
100
AcDbEntity
8
0
100
AcDbSpline
70
0
71
3
72
9
73
5
74
0
42
0.000000001
43
0.0000000001
44
0.0000000001
40
0
40
0
40
0
40
0
40
0.12257415551103407
40
0.25387097710980117
40
0.25387097710980117
40
0.25387097710980117
40
0.25387097710980117
10
119.20921874999999
20
-10.176249999999998
30
0
10
119.52944234863496
20
-9.9101409906252922
30
0
10
120.19267741266729
20
-9.3589860269543728
30
0
10
120.48422013202335
20
-8.5459527530612682
30
0
10
120.63499999999999
20
-8.1254687499999978
30
0
0
LINE
5
307
100
AcDbEntity
8
0
100
AcDbLine
10
120.63499999999999
20
-8.1254687499999978
30
0
11
118.04710937499999
21
-7.6469531249999978
31
0
0
SPLINE
5
308
100
AcDbEntity
8
0
100
AcDbSpline
70
0
71
3
72
9
73
5
74
0
42
0.000000001
43
0.0000000001
44
0.0000000001
40
0
40
0
40
0
40
0
40
0.058676089606551948
40
0.11426407386975221
40
0.11426407386975221
40
0.11426407386975221
40
0.11426407386975221
10
118.04710937499999
20
-7.6469531249999978
30
0
10
117.98136666803343
20
-7.835425959877556
30
0
10
117.85334127343744
20
-8.202452359750092
30
0
10
117.55667031078717
20
-8.4528650072620799
30
0
10
117.41234374999999
20
-8.5746874999999978
30
0
0
SPLINE
5
309
100
AcDbEntity
8
0
100
AcDbSpline
70
0
71
3
72
9
73
5
74
0
42
0.000000001
43
0.0000000001
44
0.0000000001
40
0
40
0
40
0
40
0
40
0.060909049410657064
40
0.13726302969643495
40
0.13726302969643495
40
0.13726302969643495
40
0.13726302969643495
10
117.41234374999999
20
-8.5746874999999978
30
0
10
117.22943005857708
20
-8.6683760152443305
30
0
10
116.81722058066529
20
-8.8795099858879016
30
0
10
116.35249357796062
20
-8.8907183541828321
30
0
10
116.09398437499999
20
-8.8969531249999978
30
0
0
SPLINE
5
310
100
AcDbEntity
8
0
100
AcDbSpline
70
0
71
3
72
9
73
5
74
0
42
0.000000001
43
0.0000000001
44
0.0000000001
40
0
40
0
40
0
40
0
40
0.093324969348345513
40
0.15959194905303803
40
0.15959194905303803
40
0.15959194905303803
40
0.15959194905303803
10
116.09398437499999
20
-8.8969531249999978
30
0
10
115.77871980480143
20
-8.8955134192812064
30
0
10
115.23959627144608
20
-8.893051426061934
30
0
10
114.74614470330573
20
-8.6818962174732324
30
0
10
114.54124999999999
20
-8.5942187499999978
30
0
0
SPLINE
5
311
100
AcDbEntity
8
0
100
AcDbSpline
70
0
71
3
72
9
73
5
74
0
42
0.000000001
43
0.0000000001
44
0.0000000001
40
0
40
0
40
0
40
0
40
0.034019749963863047
40
0.065994716294295291
40
0.065994716294295291
40
0.065994716294295291
40
0.065994716294295291
10
114.54124999999999
20
-8.5942187499999978
30
0
10
114.45012996634188
20
-8.5191818875347955
30
0
10
114.2733667397931
20
-8.3736183118099525
30
0
10
114.24331183907549
20
-8.1472536222666232
30
0
10
114.22874999999999
20
-8.0375781249999978
30
0
0
SPLINE
5
312
100
AcDbEntity
8
0
100
AcDbSpline
70
0
71
3
72
9
73
5
74
0
42
0.000000001
43
0.0000000001
44
0.0000000001
40
0
40
0
40
0
40
0
40
0.02794850389164855
40
0.058544107271832277
40
0.058544107271832277
40
0.058544107271832277
40
0.058544107271832277
10
114.22874999999999
20
-8.0375781249999978
30
0
10
114.24207011936463
20
-7.9421865705746919
30
0
10
114.26997195267852
20
-7.7423685976072454
30
0
10
114.42248368749496
20
-7.6091515235311373
30
0
10
114.50218749999999
20
-7.5395312499999978
30
0
0
SPLINE
5
313
100
AcDbEntity
8
0
100
AcDbSpline
70
0
71
3
72
9
73
5
74
0
42
0.000000001
43
0.0000000001
44
0.0000000001
40
0
40
0
40
0
40
0
40
0.088858132372626533
40
0.26774191922532314
40
0.26774191922532314
40
0.26774191922532314
40
0.26774191922532314
10
114.50218749999999
20
-7.5395312499999978
30
0
10
114.77526977650429
20
-7.4235788243929557
30
0
10
115.59810468047318
20
-7.0741980289394562
30
0
10
116.47494590703396
20
-6.8906673982272171
30
0
10
117.06078124999999
20
-6.7680468749999978
30
0
0
SPLINE
5
314
100
AcDbEntity
8
0
100
AcDbSpline
70
0
71
3
72
9
73
5
74
0
42
0.000000001
43
0.0000000001
44
0.0000000001
40
0
40
0
40
0
40
0
40
0.1945825287055534
40
0.33195215163353281
40
0.33195215163353281
40
0.33195215163353281
40
0.33195215163353281
10
117.06078124999999
20
-6.7680468749999978
30
0
10
117.69852747610619
20
-6.6214051179511895
30
0
10
118.78650404502245
20
-6.3712385326184684
30
0
10
119.73477191082748
20
-5.7884962422881951
30
0
10
120.12718749999999
20
-5.5473437499999978
30
0
0
SPLINE
5
315
100
AcDbEntity
8
0
100
AcDbSpline
70
0
71
3
72
9
73
5
74
0
42
0.000000001
43
0.0000000001
44
0.0000000001
40
0
40
0
40
0
40
0
40
0.10879389479912346
40
0.22721417849343184
40
0.22721417849343184
40
0.22721417849343184
40
0.22721417849343184
10
120.12718749999999
20
-5.5473437499999978
30
0
10
120.37771522074735
20
-5.2706242148490716
30
0
10
120.90093805751172
20
-4.6927002240911886
30
0
10
120.95722610019067
20
-3.9127995157639184
30
0
10
120.98656249999999
20
-3.5063281249999978
30
0
0
SPLINE
5
316
100
AcDbEntity
8
0
100
AcDbSpline
70
0
71
3
72
9
73
5
74
0
42
0.000000001
43
0.0000000001
44
0.0000000001
40
0
40
0
40
0
40
0
40
0.13587319618017404
40
0.27957997579701405
40
0.27957997579701405
40
0.27957997579701405
40
0.27957997579701405
10
120.98656249999999
20
-3.5063281249999978
30
0
10
120.93158434280041
20
-3.0432487299021904
30
0
10
120.81845833788302
20
-2.0903917300428443
30
0
10
120.14256954782707
20
-1.4066209605756819
30
0
10
119.79515624999999
20
-1.0551562499999978
30
0
0
SPLINE
5
317
100
AcDbEntity
8
0
100
AcDbSpline
70
0
71
3
72
9
73
5
74
0
42
0.000000001
43
0.0000000001
44
0.0000000001
40
0
40
0
40
0
40
0
40
0.16652645730258747
40
0.3729582919686254
40
0.3729582919686254
40
0.3729582919686254
40
0.3729582919686254
10
119.79515624999999
20
-1.0551562499999978
30
0
10
119.31585306985454
20
-0.75696768264582159
30
0
10
118.24238943952368
20
-0.089134471236611557
30
0
10
116.97259491811084
20
-0.050918246156688163
30
0
10
116.26976562499999
20
-0.029765624999997797
30
0
0
SPLINE
5
318
100
AcDbEntity
8
0
100
AcDbSpline
70
0
71
3
72
9
73
5
74
0
42
0.000000001
43
0.0000000001
44
0.0000000001
40
0
40
0
40
0
40
0
40
0.19115259919072031
40
0.35074290188021462
40
0.35074290188021462
40
0.35074290188021462
40
0.35074290188021462
10
116.26976562499999
20
-0.029765624999997797
30
0
10
115.62293777353561
20
-0.050772390588154082
30
0
10
114.43608350840898
20
-0.089317374819071205
30
0
10
113.38750202377673
20
-0.63902161755251319
30
0
10
112.91039062499999
20
-0.8891406249999978
30
0
0
SPLINE
5
319
100
AcDbEntity
8
0
100
AcDbSpline
70
0
71
3
72
9
73
5
74
0
42
0.000000001
43
0.0000000001
44
0.0000000001
40
0
40
0
40
0
40
0
40
0.14363147991227254
40
0.28842354359964506
40
0.28842354359964506
40
0.28842354359964506
40
0.28842354359964506
10
112.91039062499999
20
-0.8891406249999978
30
0
10
112.53538253223704
20
-1.2022155674784463
30
0
10
111.78233617318472
20
-1.8308951882485003
30
0
10
111.46058528747389
20
-2.7578051357573741
30
0
10
111.29906249999999
20
-3.2231249999999978
30
0
0
LINE
5
320
100
AcDbEntity
8
0
100
AcDbLine
10
122.28539062499999
20
-0.2641406249999978
30
0
11
122.28539062499999
21
-2.4028124999999978
31
0
0
LINE
5
321
100
AcDbEntity
8
0
100
AcDbLine
10
122.28539062499999
20
-2.4028124999999978
30
0
11
126.17210937499999
21
-6.8657031249999978
31
0
0
SPLINE
5
322
100
AcDbEntity
8
0
100
AcDbSpline
70
0
71
3
72
9
73
5
74
0
42
0.000000001
43
0.0000000001
44
0.0000000001
40
0
40
0
40
0
40
0
40
0.12519677885866104
40
0.21016683606496794
40
0.21016683606496794
40
0.21016683606496794
40
0.21016683606496794
10
126.17210937499999
20
-6.8657031249999978
30
0
10
126.4469137184379
20
-7.1798675728733325
30
0
10
126.90822558223951
20
-7.7072529306721709
30
0
10
127.39238162213451
20
-8.2136871115608141
30
0
10
127.58812499999999
20
-8.4184374999999978
30
0
0
SPLINE
5
323
100
AcDbEntity
8
0
100
AcDbSpline
70
0
71
3
72
9
73
5
74
0
42
0.000000001
43
0.0000000001
44
0.0000000001
40
0
40
0
40
0
40
0
40
0.055473671278442015
40
0.12604551625572255
40
0.12604551625572255
40
0.12604551625572255
40
0.12604551625572255
10
127.58812499999999
20
-8.4184374999999978
30
0
10
127.40342258640099
20
-8.4093532817451582
30
0
10
126.98374762097623
20
-8.3887124091776357
30
0
10
126.56359779649503
20
-8.3827264751130866
30
0
10
126.32835937499999
20
-8.3793749999999978
30
0
0
LINE
5
324
100
AcDbEntity
8
0
100
AcDbLine
10
126.32835937499999
20
-8.3793749999999978
30
0
11
122.66624999999999
21
-8.3598437499999978
31
0
0
LINE
5
325
100
AcDbEntity
8
0
100
AcDbLine
10
122.66624999999999
20
-8.3598437499999978
30
0
11
122.66624999999999
21
-10.635234374999998
31
0
0
LINE
5
326
100
AcDbEntity
8
0
100
AcDbLine
10
122.66624999999999
20
-10.635234374999998
30
0
11
131.24046874999999
21
-10.635234374999998
31
0
0
LINE
5
327
100
AcDbEntity
8
0
100
AcDbLine
10
131.24046874999999
20
-10.635234374999998
30
0
11
131.24046874999999
21
-8.6918749999999978
31
0
0
LINE
5
328
100
AcDbEntity
8
0
100
AcDbLine
10
131.24046874999999
20
-8.6918749999999978
30
0
11
127.27562499999999
21
-4.1215624999999978
31
0
0
LINE
5
329
100
AcDbEntity
8
0
100
AcDbLine
10
127.27562499999999
20
-4.1215624999999978
30
0
11
125.87914062499999
21
-2.6078906249999978
31
0
0
SPLINE
5
330
100
AcDbEntity
8
0
100
AcDbSpline
70
0
71
3
72
9
73
5
74
0
42
0.000000001
43
0.0000000001
44
0.0000000001
40
0
40
0
40
0
40
0
40
0.092671227619622223
40
0.14177324266141608
40
0.14177324266141608
40
0.14177324266141608
40
0.14177324266141608
10
125.87914062499999
20
-2.6078906249999978
30
0
10
126.18747815883297
20
-2.6270520771668249
30
0
10
126.65918888424989
20
-2.6563662588990833
30
0
10
127.13155579421067
20
-2.6711349747925839
30
0
10
127.29515624999999
20
-2.6762499999999978
30
0
0
LINE
5
331
100
AcDbEntity
8
0
100
AcDbLine
10
127.29515624999999
20
-2.6762499999999978
30
0
11
131.54320312499999
21
-2.6762499999999978
31
0
0
LINE
5
332
100
AcDbEntity
8
0
100
AcDbLine
10
131.54320312499999
20
-2.6762499999999978
30
0
11
131.54320312499999
21
-0.2641406249999978
31
0
0
LINE
5
333
100
AcDbEntity
8
0
100
AcDbLine
10
131.54320312499999
20
-0.2641406249999978
30
0
11
122.28539062499999
21
-0.2641406249999978
31
0
0
ENDSEC
0
SECTION
2
OBJECTS
0
DICTIONARY
5
C
100
AcDbDictionary
3
ACAD_GROUP
350
D
3
ACAD_MLINESTYLE
350
17
0
DICTIONARY
5
D
100
AcDbDictionary
0
DICTIONARY
5
1A
330
C
100
AcDbDictionary
0
DICTIONARY
5
17
100
AcDbDictionary
0
ENDSEC
0
EOF
