                                                                        S      1
,,26HIkea Schienen Verbinder v7,26HIkea Schienen Verbinder v7,7Hunknown,G      1
7Hunknown,32,38,7,99,15,,1.,2,2HMM,1,0.08,15H20220922.115045,0.01,      G      2
10000.,7Hunknown,7Hunknown,11,0,15H20211031.114304;                     G      3
     186       1                                                00000000D      1
     186            -135       1       0                               0D      2
     514       2                                                00010000D      3
     514                       1       1                               0D      4
     510       3                                                00010000D      5
     510            -135       1       1                               0D      6
     510       4                                                00010000D      7
     510            -135       1       1                               0D      8
     510       5                                                00010000D      9
     510            -135       1       1                               0D     10
     510       6                                                00010000D     11
     510            -135       1       1                               0D     12
     510       7                                                00010000D     13
     510            -135       1       1                               0D     14
     510       8                                                00010000D     15
     510            -135       1       1                               0D     16
     510       9                                                00010000D     17
     510            -135       1       1                               0D     18
     510      10                                                00010000D     19
     510            -135       1       1                               0D     20
     510      11                                                00010000D     21
     510            -135       1       1                               0D     22
     510      12                                                00010000D     23
     510            -135       1       1                               0D     24
     510      13                                                00010000D     25
     510            -135       1       1                               0D     26
     510      14                                                00010000D     27
     510            -135       1       1                               0D     28
     508      15                                                00010000D     29
     508                       1       1                               0D     30
     508      16                                                00010000D     31
     508                       1       1                               0D     32
     508      17                                                00010000D     33
     508                       1       1                               0D     34
     508      18                                                00010000D     35
     508                       1       1                               0D     36
     508      19                                                00010000D     37
     508                       1       1                               0D     38
     508      20                                                00010000D     39
     508                       1       1                               0D     40
     508      21                                                00010000D     41
     508                       1       1                               0D     42
     508      22                                                00010000D     43
     508                       1       1                               0D     44
     508      23                                                00010000D     45
     508                       2       1                               0D     46
     508      25                                                00010000D     47
     508                       1       1                               0D     48
     508      26                                                00010000D     49
     508                       1       1                               0D     50
     508      27                                                00010000D     51
     508                       1       1                               0D     52
     126      28                                                00010000D     53
     126       0               4       0                               0D     54
     126      32                                                00010000D     55
     126       0               2       0                               0D     56
     126      34                                                00010000D     57
     126       0               4       0                               0D     58
     126      38                                                00010000D     59
     126       0               3       0                               0D     60
     126      41                                                00010000D     61
     126       0               2       0                               0D     62
     126      43                                                00010000D     63
     126       0               3       0                               0D     64
     126      46                                                00010000D     65
     126       0               2       0                               0D     66
     126      48                                                00010000D     67
     126       0               2       0                               0D     68
     126      50                                                00010000D     69
     126       0               3       0                               0D     70
     126      53                                                00010000D     71
     126       0               4       0                               0D     72
     126      57                                                00010000D     73
     126       0               2       0                               0D     74
     126      59                                                00010000D     75
     126       0               3       0                               0D     76
     126      62                                                00010000D     77
     126       0               3       0                               0D     78
     126      65                                                00010000D     79
     126       0               2       0                               0D     80
     126      67                                                00010000D     81
     126       0               2       0                               0D     82
     126      69                                                00010000D     83
     126       0               2       0                               0D     84
     126      71                                                00010000D     85
     126       0               2       0                               0D     86
     126      73                                                00010000D     87
     126       0               3       0                               0D     88
     126      76                                                00010000D     89
     126       0               3       0                               0D     90
     126      79                                                00010000D     91
     126       0               2       0                               0D     92
     126      81                                                00010000D     93
     126       0               2       0                               0D     94
     126      83                                                00010000D     95
     126       0               2       0                               0D     96
     126      85                                                00010000D     97
     126       0               2       0                               0D     98
     126      87                                                00010000D     99
     126       0               4       0                               0D    100
     126      91                                                00010000D    101
     126       0               2       0                               0D    102
     126      93                                                00010000D    103
     126       0               2       0                               0D    104
     128      95                                                00010000D    105
     128       0    -135       8       0                               0D    106
     128     103                                                00010000D    107
     128       0    -135       4       0                               0D    108
     128     107                                                00010000D    109
     128       0    -135       7       0                               0D    110
     128     114                                                00010000D    111
     128       0    -135       7       0                               0D    112
     128     121                                                00010000D    113
     128       0    -135       3       0                               0D    114
     128     124                                                00010000D    115
     128       0    -135       6       0                               0D    116
     128     130                                                00010000D    117
     128       0    -135       7       0                               0D    118
     128     137                                                00010000D    119
     128       0    -135       3       0                               0D    120
     128     140                                                00010000D    121
     128       0    -135       4       0                               0D    122
     128     144                                                00010000D    123
     128       0    -135       7       0                               0D    124
     128     151                                                00010000D    125
     128       0    -135       3       0                               0D    126
     128     154                                                00010000D    127
     128       0    -135       3       0                               0D    128
     502     157                                                00010000D    129
     502                       4       1                               0D    130
     504     161                                                00010001D    131
     504                       7       1                               0D    132
     406     168                                                00000000D    133
     406                       1      15                               0D    134
     314     169                                                00000200D    135
     314                       2       0                               0D    136
186,3,1,0,0,1,133;                                                     1P      1
514,12,5,1,7,1,9,1,11,1,13,1,15,1,17,1,19,1,21,1,23,1,25,1,27,1;       3P      2
510,105,1,1,29;                                                        5P      3
510,107,1,1,31;                                                        7P      4
510,109,1,1,33;                                                        9P      5
510,111,1,1,35;                                                       11P      6
510,113,1,1,37;                                                       13P      7
510,115,1,1,39;                                                       15P      8
510,117,1,1,41;                                                       17P      9
510,119,1,1,43;                                                       19P     10
510,121,1,1,45;                                                       21P     11
510,123,1,1,47;                                                       23P     12
510,125,1,1,49;                                                       25P     13
510,127,1,1,51;                                                       27P     14
508,4,0,131,1,1,0,0,131,2,1,0,0,131,3,1,0,0,131,4,1,0;                29P     15
508,4,0,131,4,0,0,0,131,5,0,0,0,131,6,1,0,0,131,7,0,0;                31P     16
508,4,0,131,3,0,0,0,131,8,1,0,0,131,9,1,0,0,131,5,1,0;                33P     17
508,4,0,131,10,1,0,0,131,11,1,0,0,131,12,1,0,0,131,13,1,0;            35P     18
508,4,0,131,13,0,0,0,131,14,0,0,0,131,15,1,0,0,131,16,0,0;            37P     19
508,4,0,131,12,0,0,0,131,17,1,0,0,131,18,1,0,0,131,14,1,0;            39P     20
508,4,0,131,10,0,0,0,131,16,1,0,0,131,19,1,0,0,131,20,1,0;            41P     21
508,4,0,131,20,0,0,0,131,21,1,0,0,131,8,0,0,0,131,22,0,0;             43P     22
508,8,0,131,19,0,0,0,131,15,0,0,0,131,18,0,0,0,131,23,0,0,0,131,      45P     23
24,0,0,0,131,6,0,0,0,131,9,0,0,0,131,21,0,0;                          45P     24
508,4,0,131,1,0,0,0,131,7,1,0,0,131,24,1,0,0,131,25,1,0;              47P     25
508,4,0,131,25,0,0,0,131,23,1,0,0,131,17,0,0,0,131,26,0,0;            49P     26
508,4,0,131,2,0,0,0,131,26,1,0,0,131,11,0,0,0,131,22,1,0;             51P     27
126,1,1,0,0,1,0,-0.298873120312708,-0.298873120312708,                53P     28
0.696114316793912,0.696114316793912,1.,1.,9.9,                        53P     29
-5.55111512312578D-16,3.5,12.9,9.,6.5,-0.298873120312708,             53P     30
0.696114316793912,0.,0.,0.;                                           53P     31
126,1,1,0,0,1,0,-0.9675,-0.9675,0.3225,0.3225,1.,1.,12.9,9.,6.5,      55P     32
0.,9.,6.5,-0.9675,0.3225,0.,0.,0.;                                    55P     33
126,1,1,0,0,1,0,-0.598876908167583,-0.598876908167583,                57P     34
0.396110528939037,0.396110528939037,1.,1.,-1.38777878078145D-15,      57P     35
9.,6.5,3.,-5.55111512312578D-16,3.5,-0.598876908167583,               57P     36
0.396110528939037,0.,0.,0.;                                           57P     37
126,1,1,0,0,1,0,-0.0225,-0.0225,0.6675,0.6675,1.,1.,3.,               59P     38
3.44315963894811D-34,3.5,9.9,-1.02147069288794D-32,3.5,-0.0225,       59P     39
0.6675,0.,0.,0.;                                                      59P     40
126,1,1,0,0,1,0,0.,0.,0.35,0.35,1.,1.,3.,0.,0.,3.,0.,3.5,0.,          61P     41
0.35,0.,0.,0.;                                                        61P     42
126,1,1,0,0,1,0,0.3,0.3,0.99,0.99,1.,1.,3.,                           63P     43
-4.59087951859748D-33,0.,9.9,-1.51499024113717D-32,0.,0.3,0.99,       63P     44
0.,0.,0.;                                                             63P     45
126,1,1,0,0,1,0,-0.35,-0.35,0.,0.,1.,1.,9.9,0.,3.5,9.9,0.,0.,         65P     46
-0.35,0.,0.,0.,0.;                                                    65P     47
126,1,1,0,0,1,0,-0.65,-0.65,0.,0.,1.,1.,0.,9.,6.5,0.,9.,0.,           67P     48
-0.65,0.,0.,0.,0.;                                                    67P     49
126,1,1,0,0,1,0,0.419792359387352,0.419792359387352,                  69P     50
1.36847565743787,1.36847565743787,1.,1.,-2.77555756156289D-16,        69P     51
9.,0.,3.,0.,0.,0.419792359387352,1.36847565743787,0.,0.,0.;           69P     52
126,1,1,0,0,1,0,-0.298873120312708,-0.298873120312708,                71P     53
0.696114316793912,0.696114316793912,1.,1.,3.,50.,3.5,                 71P     54
2.77555756156289D-16,41.,6.5,-0.298873120312708,                      71P     55
0.696114316793912,0.,0.,0.;                                           71P     56
126,1,1,0,0,1,0,-0.9675,-0.9675,0.3225,0.3225,1.,1.,0.,41.,6.5,       73P     57
12.9,41.,6.5,-0.9675,0.3225,0.,0.,0.;                                 73P     58
126,1,1,0,0,1,0,-0.598876908167583,-0.598876908167583,                75P     59
0.396110528939037,0.396110528939037,1.,1.,12.9,41.,6.5,9.9,50.,       75P     60
3.5,-0.598876908167583,0.396110528939037,0.,0.,0.;                    75P     61
126,1,1,0,0,1,0,-0.0225000000000001,-0.0225000000000001,0.6675,       77P     62
0.6675,1.,1.,9.9,50.,3.5,3.,50.,3.5,-0.0225000000000001,0.6675,       77P     63
0.,0.,0.;                                                             77P     64
126,1,1,0,0,1,0,0.,0.,0.35,0.35,1.,1.,9.9,50.,0.,9.9,50.,3.5,0.,      79P     65
0.35,0.,0.,0.;                                                        79P     66
126,1,1,0,0,1,0,0.3,0.3,0.99,0.99,1.,1.,9.9,50.,0.,3.,50.,0.,         81P     67
0.3,0.99,0.,0.,0.;                                                    81P     68
126,1,1,0,0,1,0,-0.35,-0.35,0.,0.,1.,1.,3.,50.,3.5,3.,50.,0.,         83P     69
-0.35,0.,0.,0.,0.;                                                    83P     70
126,1,1,0,0,1,0,-0.65,-0.65,0.,0.,1.,1.,12.9,41.,6.5,12.9,41.,        85P     71
0.,-0.65,0.,0.,0.,0.;                                                 85P     72
126,1,1,0,0,1,0,0.419792359387352,0.419792359387352,                  87P     73
1.36847565743787,1.36847565743787,1.,1.,12.9,41.,0.,9.9,50.,0.,       87P     74
0.419792359387352,1.36847565743787,0.,0.,0.;                          87P     75
126,1,1,0,0,1,0,-1.36847565743787,-1.36847565743787,                  89P     76
-0.419792359387352,-0.419792359387352,1.,1.,3.,50.,0.,0.,41.,0.,      89P     77
-1.36847565743787,-0.419792359387352,0.,0.,0.;                        89P     78
126,1,1,0,0,1,0,0.,0.,0.65,0.65,1.,1.,0.,41.,0.,0.,41.,6.5,0.,        91P     79
0.65,0.,0.,0.;                                                        91P     80
126,1,1,0,0,1,0,0.9,0.9,4.1,4.1,1.,1.,0.,41.,0.,0.,9.,0.,0.9,         93P     81
4.1,0.,0.,0.;                                                         93P     82
126,1,1,0,0,1,0,0.9,0.9,4.1,4.1,1.,1.,0.,41.,6.5,0.,9.,6.5,0.9,       95P     83
4.1,0.,0.,0.;                                                         95P     84
126,1,1,0,0,1,0,0.9,0.9,4.1,4.1,1.,1.,12.9,9.,0.,12.9,41.,0.,         97P     85
0.9,4.1,0.,0.,0.;                                                     97P     86
126,1,1,0,0,1,0,-1.36847565743787,-1.36847565743787,                  99P     87
-0.419792359387352,-0.419792359387352,1.,1.,9.9,                      99P     88
-2.22044604925031D-15,0.,12.9,9.,0.,-1.36847565743787,                99P     89
-0.419792359387352,0.,0.,0.;                                          99P     90
126,1,1,0,0,1,0,0.,0.,0.65,0.65,1.,1.,12.9,9.,0.,12.9,9.,6.5,0.,     101P     91
0.65,0.,0.,0.;                                                       101P     92
126,1,1,0,0,1,0,0.9,0.9,4.1,4.1,1.,1.,12.9,9.,6.5,12.9,41.,6.5,      103P     93
0.9,4.1,0.,0.,0.;                                                    103P     94
128,1,1,1,1,0,0,1,0,0,-0.3235,-0.3235,0.9685,0.9685,                 105P     95
-0.475341649025257,-0.475341649025257,0.475341649025257,             105P     96
0.475341649025257,1.,1.,1.,1.,-0.0100000000000011,                   105P     97
-0.00948683298050701,3.49683772233983,12.91,                         105P     98
-0.00948683298050701,3.49683772233983,-0.0100000000000011,           105P     99
9.00948683298051,6.50316227766017,12.91,9.00948683298051,            105P    100
6.50316227766017,-0.3235,0.9685,-0.475341649025257,                  105P    101
0.475341649025257;                                                   105P    102
128,1,1,1,1,0,0,1,0,0,0.299,0.299,0.991,0.991,-0.001,-0.001,         107P    103
0.351,0.351,1.,1.,1.,1.,2.99,-4.57557658686882D-33,-0.01,9.91,       107P    104
-1.51652053431003D-32,-0.01,2.99,-4.57557658686882D-33,3.51,         107P    105
9.91,-1.51652053431003D-32,3.51,0.299,0.991,-0.001,0.351;            107P    106
128,1,1,1,1,0,0,1,0,0,-0.001,-0.001,0.651,0.651,                     109P    107
-0.475341649025257,-0.475341649025257,0.475341649025257,             109P    108
0.475341649025257,1.,1.,1.,1.,3.00316227766017,                      109P    109
-0.0094868329805059,-0.01,3.00316227766017,-0.0094868329805059,      109P    110
6.51,-0.00316227766016974,9.00948683298051,-0.01,                    109P    111
-0.00316227766016974,9.00948683298051,6.51,-0.001,0.651,             109P    112
-0.475341649025257,0.475341649025257;                                109P    113
128,1,1,1,1,0,0,1,0,0,-0.9685,-0.9685,0.3235,0.3235,                 111P    114
-0.475341649025257,-0.475341649025257,0.475341649025257,             111P    115
0.475341649025257,1.,1.,1.,1.,-0.01,40.9905131670195,                111P    116
6.50316227766017,12.91,40.9905131670195,6.50316227766017,-0.01,      111P    117
50.0094868329805,3.49683772233983,12.91,50.0094868329805,            111P    118
3.49683772233983,-0.9685,0.3235,-0.475341649025257,                  111P    119
0.475341649025257;                                                   111P    120
128,1,1,1,1,0,0,1,0,0,0.299,0.299,0.991,0.991,-0.001,-0.001,         113P    121
0.351,0.351,1.,1.,1.,1.,9.91,50.,-0.01,2.99,50.,-0.01,9.91,50.,      113P    122
3.51,2.99,50.,3.51,0.299,0.991,-0.001,0.351;                         113P    123
128,1,1,1,1,0,0,1,0,0,-0.651,-0.651,0.001,0.001,                     115P    124
-0.475341649025257,-0.475341649025257,0.475341649025257,             115P    125
0.475341649025257,1.,1.,1.,1.,12.9031622776602,40.9905131670195,     115P    126
6.51,12.9031622776602,40.9905131670195,-0.01,9.89683772233983,       115P    127
50.0094868329805,6.51,9.89683772233983,50.0094868329805,-0.01,       115P    128
-0.651,0.001,-0.475341649025257,0.475341649025257;                   115P    129
128,1,1,1,1,0,0,1,0,0,-0.001,-0.001,0.651,0.651,                     117P    130
-0.475341649025257,-0.475341649025257,0.475341649025257,             117P    131
0.475341649025257,1.,1.,1.,1.,-0.00316227766016863,                  117P    132
40.9905131670195,-0.01,-0.00316227766016863,40.9905131670195,        117P    133
6.51,3.00316227766017,50.0094868329805,-0.01,3.00316227766017,       117P    134
50.0094868329805,6.51,-0.001,0.651,-0.475341649025257,               117P    135
0.475341649025257;                                                   117P    136
128,1,1,1,1,0,0,1,0,0,0.899,0.899,4.101,4.101,-0.001,-0.001,         119P    137
0.651,0.651,1.,1.,1.,1.,0.,41.01,-0.01,0.,8.99,-0.01,0.,41.01,       119P    138
6.51,0.,8.99,6.51,0.899,4.101,-0.001,0.651;                          119P    139
128,1,1,1,1,0,0,1,0,0,-0.646,-0.646,0.646,0.646,-2.501,-2.501,       121P    140
2.501,2.501,1.,1.,1.,1.,12.91,-0.0099999999999989,0.,-0.01,          121P    141
-0.0099999999999989,0.,12.91,50.01,0.,-0.01,50.01,0.,-0.646,         121P    142
0.646,-2.501,2.501;                                                  121P    143
128,1,1,1,1,0,0,1,0,0,-0.651,-0.651,0.001,0.001,                     123P    144
-0.475341649025257,-0.475341649025257,0.475341649025257,             123P    145
0.475341649025257,1.,1.,1.,1.,9.89683772233983,                      123P    146
-0.00948683298050812,6.51,9.89683772233983,-0.00948683298050812,     123P    147
-0.01,12.9031622776602,9.00948683298051,6.51,12.9031622776602,       123P    148
9.00948683298051,-0.01,-0.651,0.001,-0.475341649025257,              123P    149
0.475341649025257;                                                   123P    150
128,1,1,1,1,0,0,1,0,0,0.899,0.899,4.101,4.101,-0.001,-0.001,         125P    151
0.651,0.651,1.,1.,1.,1.,12.9,8.99,-0.01,12.9,41.01,-0.01,12.9,       125P    152
8.99,6.51,12.9,41.01,6.51,0.899,4.101,-0.001,0.651;                  125P    153
128,1,1,1,1,0,0,1,0,0,-0.646,-0.646,0.646,0.646,-1.601,-1.601,       127P    154
1.601,1.601,1.,1.,1.,1.,-0.01,8.99,6.5,12.91,8.99,6.5,-0.01,         127P    155
41.01,6.5,12.91,41.01,6.5,-0.646,0.646,-1.601,1.601;                 127P    156
502,16,9.9,0.,3.5,12.9,9.,6.5,0.,9.,6.5,3.,0.,3.5,3.,                129P    157
-4.59087951859748D-33,0.,9.9,-1.51499024113717D-32,0.,0.,9.,0.,      129P    158
3.,50.,3.5,0.,41.,6.5,12.9,41.,6.5,9.9,50.,3.5,9.9,50.,0.,3.,        129P    159
50.,0.,12.9,41.,0.,0.,41.,0.,12.9,9.,0.;                             129P    160
504,26,53,129,1,129,2,55,129,2,129,3,57,129,3,129,4,59,129,4,        131P    161
129,1,61,129,5,129,4,63,129,5,129,6,65,129,1,129,6,67,129,3,129,     131P    162
7,69,129,7,129,5,71,129,8,129,9,73,129,9,129,10,75,129,10,129,       131P    163
11,77,129,11,129,8,79,129,12,129,11,81,129,12,129,13,83,129,8,       131P    164
129,13,85,129,10,129,14,87,129,14,129,12,89,129,13,129,15,91,        131P    165
129,15,129,9,93,129,15,129,7,95,129,9,129,3,97,129,16,129,14,99,     131P    166
129,6,129,16,101,129,16,129,2,103,129,2,129,10;                      131P    167
406,1,5HBody1;                                                       133P    168
314,62.7450980392157,62.7450980392157,62.7450980392157,13HSteel      135P    169
- Satin;                                                             135P    170
S      1G      3D    136P    170                                        T      1
