                                                                        S      1
,,26HCyclone - Mount Adapter v2,25HCyclone  Mount Adapter v2,7Hunknown, G      1
7Hunknown,32,38,7,99,15,,1.,2,2HMM,1,0.08,15H20220922.114938,0.01,      G      2
10000.,7Hunknown,7Hunknown,11,0,15H20190920.160910;                     G      3
     186       1                                                00000000D      1
     186            -115       1       0                               0D      2
     514       2                                                00010000D      3
     514                       1       1                               0D      4
     510       3                                                00010000D      5
     510            -115       1       1                               0D      6
     510       4                                                00010000D      7
     510            -115       1       1                               0D      8
     510       5                                                00010000D      9
     510            -115       1       1                               0D     10
     510       6                                                00010000D     11
     510            -115       1       1                               0D     12
     510       7                                                00010000D     13
     510            -115       1       1                               0D     14
     510       8                                                00010000D     15
     510            -115       1       1                               0D     16
     510       9                                                00010000D     17
     510            -115       1       1                               0D     18
     510      10                                                00010000D     19
     510            -115       1       1                               0D     20
     508      11                                                00010000D     21
     508                       1       1                               0D     22
     508      12                                                00010000D     23
     508                       1       1                               0D     24
     508      13                                                00010000D     25
     508                       1       1                               0D     26
     508      14                                                00010000D     27
     508                       1       1                               0D     28
     508      15                                                00010000D     29
     508                       1       1                               0D     30
     508      16                                                00010000D     31
     508                       1       1                               0D     32
     508      17                                                00010000D     33
     508                       1       1                               0D     34
     508      18                                                00010000D     35
     508                       1       1                               0D     36
     508      19                                                00010000D     37
     508                       1       1                               0D     38
     508      20                                                00010000D     39
     508                       1       1                               0D     40
     508      21                                                00010000D     41
     508                       1       1                               0D     42
     508      22                                                00010000D     43
     508                       1       1                               0D     44
     508      23                                                00010000D     45
     508                       1       1                               0D     46
     508      24                                                00010000D     47
     508                       1       1                               0D     48
     508      25                                                00010000D     49
     508                       1       1                               0D     50
     508      26                                                00010000D     51
     508                       1       1                               0D     52
     508      27                                                00010000D     53
     508                       1       1                               0D     54
     508      28                                                00010000D     55
     508                       1       1                               0D     56
     126      29                                                00010000D     57
     126       0              12       0                               0D     58
     126      41                                                00010000D     59
     126       0               3       0                               0D     60
     126      44                                                00010000D     61
     126       0              12       0                               0D     62
     126      56                                                00010000D     63
     126       0              12       0                               0D     64
     126      68                                                00010000D     65
     126       0               3       0                               0D     66
     126      71                                                00010000D     67
     126       0              12       0                               0D     68
     126      83                                                00010000D     69
     126       0              12       0                               0D     70
     126      95                                                00010000D     71
     126       0               3       0                               0D     72
     126      98                                                00010000D     73
     126       0              12       0                               0D     74
     126     110                                                00010000D     75
     126       0              12       0                               0D     76
     126     122                                                00010000D     77
     126       0               3       0                               0D     78
     126     125                                                00010000D     79
     126       0              12       0                               0D     80
     126     137                                                00010000D     81
     126       0              10       0                               0D     82
     126     147                                                00010000D     83
     126       0               2       0                               0D     84
     126     149                                                00010000D     85
     126       0              10       0                               0D     86
     126     159                                                00010000D     87
     126       0              10       0                               0D     88
     126     169                                                00010000D     89
     126       0               2       0                               0D     90
     126     171                                                00010000D     91
     126       0              10       0                               0D     92
     128     181                                                00010000D     93
     128       0    -115      20       0                               0D     94
     128     201                                                00010000D     95
     128       0    -115      20       0                               0D     96
     128     221                                                00010000D     97
     128       0    -115      20       0                               0D     98
     128     241                                                00010000D     99
     128       0    -115      20       0                               0D    100
     128     261                                                00010000D    101
     128       0    -115      12       0                               0D    102
     128     273                                                00010000D    103
     128       0    -115      12       0                               0D    104
     128     285                                                00010000D    105
     128       0    -115       3       0                               0D    106
     128     288                                                00010000D    107
     128       0    -115       3       0                               0D    108
     502     291                                                00010000D    109
     502                       8       1                               0D    110
     504     299                                                00010001D    111
     504                       5       1                               0D    112
     406     304                                                00000000D    113
     406                       1      15                               0D    114
     314     305                                                00000200D    115
     314                       2       0                               0D    116
186,3,1,0,0,1,113;                                                     1P      1
514,8,5,1,7,1,9,1,11,1,13,1,15,1,17,1,19,1;                            3P      2
510,93,1,1,21;                                                         5P      3
510,95,1,1,23;                                                         7P      4
510,97,1,1,25;                                                         9P      5
510,99,1,1,27;                                                        11P      6
510,101,1,1,29;                                                       13P      7
510,103,1,1,31;                                                       15P      8
510,105,6,1,33,35,37,39,41,43;                                        17P      9
510,107,6,1,45,47,49,51,53,55;                                        19P     10
508,4,0,111,1,0,0,0,111,2,1,0,0,111,3,1,0,0,111,2,0,0;                21P     11
508,4,0,111,4,0,0,0,111,5,1,0,0,111,6,1,0,0,111,5,0,0;                23P     12
508,4,0,111,7,0,0,0,111,8,1,0,0,111,9,1,0,0,111,8,0,0;                25P     13
508,4,0,111,10,0,0,0,111,11,1,0,0,111,12,1,0,0,111,11,0,0;            27P     14
508,4,0,111,13,0,0,0,111,14,1,0,0,111,15,1,0,0,111,14,0,0;            29P     15
508,4,0,111,16,0,0,0,111,17,1,0,0,111,18,1,0,0,111,17,0,0;            31P     16
508,1,0,111,16,1,0;                                                   33P     17
508,1,0,111,13,1,0;                                                   35P     18
508,1,0,111,10,1,0;                                                   37P     19
508,1,0,111,7,1,0;                                                    39P     20
508,1,0,111,4,1,0;                                                    41P     21
508,1,0,111,1,1,0;                                                    43P     22
508,1,0,111,18,0,0;                                                   45P     23
508,1,0,111,15,0,0;                                                   47P     24
508,1,0,111,12,0,0;                                                   49P     25
508,1,0,111,9,0,0;                                                    51P     26
508,1,0,111,6,0,0;                                                    53P     27
508,1,0,111,3,0,0;                                                    55P     28
126,8,2,0,1,0,0,-3.14159265358979,-3.14159265358979,                  57P     29
-3.14159265358979,-1.5707963267949,-1.5707963267949,0.,0.,            57P     30
1.5707963267949,1.5707963267949,3.14159265358979,                     57P     31
3.14159265358979,3.14159265358979,1.,0.707106781186543,1.,            57P     32
0.707106781186544,1.,0.707106781186544,1.,0.707106781186543,1.,       57P     33
-47.4999999999932,2.47497764924321D-5,5.,-47.4999999999932,           57P     34
2.50002474977649,5.,-44.9999999999932,2.50002474977649,5.,            57P     35
-42.4999999999932,2.50002474977649,5.,-42.4999999999932,              57P     36
2.47497764921259D-5,5.,-42.4999999999932,-2.49997525022351,5.,        57P     37
-44.9999999999932,-2.49997525022351,5.,-47.4999999999932,             57P     38
-2.49997525022351,5.,-47.4999999999932,2.47497764918198D-5,5.,        57P     39
-3.14159265358979,3.14159265358979,0.,0.,0.;                          57P     40
126,1,1,0,0,1,0,-2.,-2.,0.,0.,1.,1.,-47.4999999999932,                59P     41
2.47497764921259D-5,5.,-47.4999999999932,2.47497764921259D-5,0.,      59P     42
-2.,0.,0.,0.,0.;                                                      59P     43
126,8,2,0,1,0,0,-3.14159265358979,-3.14159265358979,                  61P     44
-3.14159265358979,-1.5707963267949,-1.5707963267949,0.,0.,            61P     45
1.5707963267949,1.5707963267949,3.14159265358979,                     61P     46
3.14159265358979,3.14159265358979,1.,0.707106781186543,1.,            61P     47
0.707106781186544,1.,0.707106781186544,1.,0.707106781186543,1.,       61P     48
-47.4999999999932,2.47497764924321D-5,0.,-47.4999999999932,           61P     49
2.50002474977649,0.,-44.9999999999932,2.50002474977649,0.,            61P     50
-42.4999999999932,2.50002474977649,0.,-42.4999999999932,              61P     51
2.47497764921259D-5,0.,-42.4999999999932,-2.49997525022351,0.,        61P     52
-44.9999999999932,-2.49997525022351,0.,-47.4999999999932,             61P     53
-2.49997525022351,0.,-47.4999999999932,2.47497764918198D-5,0.,        61P     54
-3.14159265358979,3.14159265358979,0.,0.,0.;                          61P     55
126,8,2,0,1,0,0,-3.14159265358979,-3.14159265358979,                  63P     56
-3.14159265358979,-1.5707963267949,-1.5707963267949,0.,0.,            63P     57
1.5707963267949,1.5707963267949,3.14159265358979,                     63P     58
3.14159265358979,3.14159265358979,1.,0.707106781186544,1.,            63P     59
0.707106781186544,1.,0.707106781186544,1.,0.707106781186544,1.,       63P     60
-2.49991780507401,-44.9999999999249,5.,-2.49991780507401,             63P     61
-42.4999999999249,5.,8.21949259913138D-5,-42.4999999999249,5.,        63P     62
2.50008219492599,-42.4999999999249,5.,2.50008219492599,               63P     63
-44.9999999999249,5.,2.50008219492599,-47.4999999999249,5.,           63P     64
8.21949259913138D-5,-47.4999999999249,5.,-2.49991780507401,           63P     65
-47.4999999999249,5.,-2.49991780507401,-44.9999999999249,5.,          63P     66
-3.14159265358979,3.14159265358979,0.,0.,0.;                          63P     67
126,1,1,0,0,1,0,-2.,-2.,0.,0.,1.,1.,-2.49991780507401,                65P     68
-44.9999999999249,5.,-2.49991780507401,-44.9999999999249,0.,-2.,      65P     69
0.,0.,0.,0.;                                                          65P     70
126,8,2,0,1,0,0,-3.14159265358979,-3.14159265358979,                  67P     71
-3.14159265358979,-1.5707963267949,-1.5707963267949,0.,0.,            67P     72
1.5707963267949,1.5707963267949,3.14159265358979,                     67P     73
3.14159265358979,3.14159265358979,1.,0.707106781186544,1.,            67P     74
0.707106781186544,1.,0.707106781186544,1.,0.707106781186544,1.,       67P     75
-2.49991780507401,-44.9999999999249,0.,-2.49991780507401,             67P     76
-42.4999999999249,0.,8.21949259913138D-5,-42.4999999999249,0.,        67P     77
2.50008219492599,-42.4999999999249,0.,2.50008219492599,               67P     78
-44.9999999999249,0.,2.50008219492599,-47.4999999999249,0.,           67P     79
8.21949259913138D-5,-47.4999999999249,0.,-2.49991780507401,           67P     80
-47.4999999999249,0.,-2.49991780507401,-44.9999999999249,0.,          67P     81
-3.14159265358979,3.14159265358979,0.,0.,0.;                          67P     82
126,8,2,0,1,0,0,-3.14159265358979,-3.14159265358979,                  69P     83
-3.14159265358979,-1.5707963267949,-1.5707963267949,0.,0.,            69P     84
1.5707963267949,1.5707963267949,3.14159265358979,                     69P     85
3.14159265358979,3.14159265358979,1.,0.707106781186543,1.,            69P     86
0.707106781186544,1.,0.707106781186543,1.,0.707106781186543,1.,       69P     87
42.4999999859292,-0.00112533068623189,5.,42.4999999859292,            69P     88
2.49887466931377,5.,44.9999999859292,2.49887466931377,5.,             69P     89
47.4999999859292,2.49887466931377,5.,47.4999999859292,                69P     90
-0.0011253306862322,5.,47.4999999859292,-2.50112533068623,5.,         69P     91
44.9999999859292,-2.50112533068623,5.,42.4999999859292,               69P     92
-2.50112533068623,5.,42.4999999859292,-0.0011253306862325,5.,         69P     93
-3.14159265358979,3.14159265358979,0.,0.,0.;                          69P     94
126,1,1,0,0,1,0,-2.,-2.,0.,0.,1.,1.,42.4999999859292,                 71P     95
-0.0011253306862322,5.,42.4999999859292,-0.0011253306862322,0.,       71P     96
-2.,0.,0.,0.,0.;                                                      71P     97
126,8,2,0,1,0,0,-3.14159265358979,-3.14159265358979,                  73P     98
-3.14159265358979,-1.5707963267949,-1.5707963267949,0.,0.,            73P     99
1.5707963267949,1.5707963267949,3.14159265358979,                     73P    100
3.14159265358979,3.14159265358979,1.,0.707106781186543,1.,            73P    101
0.707106781186544,1.,0.707106781186543,1.,0.707106781186543,1.,       73P    102
42.4999999859292,-0.00112533068623189,0.,42.4999999859292,            73P    103
2.49887466931377,0.,44.9999999859292,2.49887466931377,0.,             73P    104
47.4999999859292,2.49887466931377,0.,47.4999999859292,                73P    105
-0.0011253306862322,0.,47.4999999859292,-2.50112533068623,0.,         73P    106
44.9999999859292,-2.50112533068623,0.,42.4999999859292,               73P    107
-2.50112533068623,0.,42.4999999859292,-0.0011253306862325,0.,         73P    108
-3.14159265358979,3.14159265358979,0.,0.,0.;                          73P    109
126,8,2,0,1,0,0,-3.14159265358979,-3.14159265358979,                  75P    110
-3.14159265358979,-1.5707963267949,-1.5707963267949,0.,0.,            75P    111
1.5707963267949,1.5707963267949,3.14159265358979,                     75P    112
3.14159265358979,3.14159265358979,1.,0.707106781186554,1.,            75P    113
0.707106781186554,1.,0.707106781186554,1.,0.707106781186554,1.,       75P    114
-2.49923213302038,44.9999999934487,5.,-2.49923213302038,              75P    115
47.4999999934487,5.,0.000767866979619421,47.4999999934487,5.,         75P    116
2.50076786697962,47.4999999934487,5.,2.50076786697962,                75P    117
44.9999999934487,5.,2.50076786697962,42.4999999934487,5.,             75P    118
0.000767866979619421,42.4999999934487,5.,-2.49923213302038,           75P    119
42.4999999934487,5.,-2.49923213302038,44.9999999934487,5.,            75P    120
-3.14159265358979,3.14159265358979,0.,0.,0.;                          75P    121
126,1,1,0,0,1,0,-2.,-2.,0.,0.,1.,1.,-2.49923213302038,                77P    122
44.9999999934487,5.,-2.49923213302038,44.9999999934487,0.,-2.,        77P    123
0.,0.,0.,0.;                                                          77P    124
126,8,2,0,1,0,0,-3.14159265358979,-3.14159265358979,                  79P    125
-3.14159265358979,-1.5707963267949,-1.5707963267949,0.,0.,            79P    126
1.5707963267949,1.5707963267949,3.14159265358979,                     79P    127
3.14159265358979,3.14159265358979,1.,0.707106781186554,1.,            79P    128
0.707106781186554,1.,0.707106781186554,1.,0.707106781186554,1.,       79P    129
-2.49923213302038,44.9999999934487,0.,-2.49923213302038,              79P    130
47.4999999934487,0.,0.000767866979619421,47.4999999934487,0.,         79P    131
2.50076786697962,47.4999999934487,0.,2.50076786697962,                79P    132
44.9999999934487,0.,2.50076786697962,42.4999999934487,0.,             79P    133
0.000767866979619421,42.4999999934487,0.,-2.49923213302038,           79P    134
42.4999999934487,0.,-2.49923213302038,44.9999999934487,0.,            79P    135
-3.14159265358979,3.14159265358979,0.,0.,0.;                          79P    136
126,8,2,0,1,0,0,-3.14159265358979,-3.14159265358979,                  81P    137
-3.14159265358979,-1.5707963267949,-1.5707963267949,0.,0.,            81P    138
1.5707963267949,1.5707963267949,3.14159265358979,                     81P    139
3.14159265358979,3.14159265358979,1.,0.707106781186548,1.,            81P    140
0.707106781186548,1.,0.707106781186548,1.,0.707106781186548,1.,       81P    141
-37.6,4.60467196479405D-15,5.,-37.6,37.6,5.,                          81P    142
2.30233598239702D-15,37.6,5.,37.6,37.6,5.,37.6,0.,5.,37.6,-37.6,      81P    143
5.,2.30233598239702D-15,-37.6,5.,-37.6,-37.6,5.,-37.6,                81P    144
-4.60467196479405D-15,5.,-3.14159265358979,3.14159265358979,0.,       81P    145
0.,0.;                                                                81P    146
126,1,1,0,0,1,0,-0.132978723404255,-0.132978723404255,0.,0.,1.,       83P    147
1.,-37.6,0.,5.,-37.6,0.,0.,-0.132978723404255,0.,0.,0.,0.;            83P    148
126,8,2,0,1,0,0,-3.14159265358979,-3.14159265358979,                  85P    149
-3.14159265358979,-1.5707963267949,-1.5707963267949,0.,0.,            85P    150
1.5707963267949,1.5707963267949,3.14159265358979,                     85P    151
3.14159265358979,3.14159265358979,1.,0.707106781186548,1.,            85P    152
0.707106781186548,1.,0.707106781186548,1.,0.707106781186548,1.,       85P    153
-37.6,4.60467196479405D-15,0.,-37.6,37.6,0.,                          85P    154
2.30233598239702D-15,37.6,0.,37.6,37.6,0.,37.6,0.,0.,37.6,-37.6,      85P    155
0.,2.30233598239702D-15,-37.6,0.,-37.6,-37.6,0.,-37.6,                85P    156
-4.60467196479405D-15,0.,-3.14159265358979,3.14159265358979,0.,       85P    157
0.,0.;                                                                85P    158
126,8,2,0,1,0,0,-3.14159265358979,-3.14159265358979,                  87P    159
-3.14159265358979,-1.5707963267949,-1.5707963267949,0.,0.,            87P    160
1.5707963267949,1.5707963267949,3.14159265358979,                     87P    161
3.14159265358979,3.14159265358979,1.,0.707106781186548,1.,            87P    162
0.707106781186548,1.,0.707106781186548,1.,0.707106781186548,1.,       87P    163
-52.5,-6.4293956955236D-15,5.,-52.5,-52.5,5.,                         87P    164
3.2146978477618D-15,-52.5,5.,52.5,-52.5,5.,52.5,0.,5.,52.5,52.5,      87P    165
5.,3.2146978477618D-15,52.5,5.,-52.5,52.5,5.,-52.5,                   87P    166
6.4293956955236D-15,5.,-3.14159265358979,3.14159265358979,0.,0.,      87P    167
0.;                                                                   87P    168
126,1,1,0,0,1,0,-0.0952380952380952,-0.0952380952380952,0.,0.,        89P    169
1.,1.,-52.5,0.,5.,-52.5,0.,0.,-0.0952380952380952,0.,0.,0.,0.;        89P    170
126,8,2,0,1,0,0,-3.14159265358979,-3.14159265358979,                  91P    171
-3.14159265358979,-1.5707963267949,-1.5707963267949,0.,0.,            91P    172
1.5707963267949,1.5707963267949,3.14159265358979,                     91P    173
3.14159265358979,3.14159265358979,1.,0.707106781186548,1.,            91P    174
0.707106781186548,1.,0.707106781186548,1.,0.707106781186548,1.,       91P    175
-52.5,-6.4293956955236D-15,0.,-52.5,-52.5,0.,                         91P    176
3.2146978477618D-15,-52.5,0.,52.5,-52.5,0.,52.5,0.,0.,52.5,52.5,      91P    177
0.,3.2146978477618D-15,52.5,0.,-52.5,52.5,0.,-52.5,                   91P    178
6.4293956955236D-15,0.,-3.14159265358979,3.14159265358979,0.,0.,      91P    179
0.;                                                                   91P    180
128,1,8,1,2,0,1,0,0,1,0.,0.,2.,2.,-3.14159265358979,                  93P    181
-3.14159265358979,-3.14159265358979,-1.5707963267949,                 93P    182
-1.5707963267949,0.,0.,1.5707963267949,1.5707963267949,               93P    183
3.14159265358979,3.14159265358979,3.14159265358979,1.,1.,             93P    184
0.707106781186548,0.707106781186548,1.,1.,0.707106781186548,          93P    185
0.707106781186548,1.,1.,0.707106781186548,0.707106781186548,1.,       93P    186
1.,0.707106781186548,0.707106781186548,1.,1.,-47.4999999999932,       93P    187
2.47497764921259D-5,0.,-47.4999999999932,2.47497764921259D-5,5.,      93P    188
-47.4999999999932,-2.49997525022351,0.,-47.4999999999932,             93P    189
-2.49997525022351,5.,-44.9999999999932,-2.49997525022351,0.,          93P    190
-44.9999999999932,-2.49997525022351,5.,-42.4999999999932,             93P    191
-2.49997525022351,0.,-42.4999999999932,-2.49997525022351,5.,          93P    192
-42.4999999999932,2.47497764921259D-5,0.,-42.4999999999932,           93P    193
2.47497764921259D-5,5.,-42.4999999999932,2.50002474977649,0.,         93P    194
-42.4999999999932,2.50002474977649,5.,-44.9999999999932,              93P    195
2.50002474977649,0.,-44.9999999999932,2.50002474977649,5.,            93P    196
-47.4999999999932,2.50002474977649,0.,-47.4999999999932,              93P    197
2.50002474977649,5.,-47.4999999999932,2.47497764921259D-5,0.,         93P    198
-47.4999999999932,2.47497764921259D-5,5.,0.,2.,                       93P    199
-3.14159265358979,3.14159265358979;                                   93P    200
128,1,8,1,2,0,1,0,0,1,0.,0.,2.,2.,-3.14159265358979,                  95P    201
-3.14159265358979,-3.14159265358979,-1.5707963267949,                 95P    202
-1.5707963267949,0.,0.,1.5707963267949,1.5707963267949,               95P    203
3.14159265358979,3.14159265358979,3.14159265358979,1.,1.,             95P    204
0.707106781186548,0.707106781186548,1.,1.,0.707106781186548,          95P    205
0.707106781186548,1.,1.,0.707106781186548,0.707106781186548,1.,       95P    206
1.,0.707106781186548,0.707106781186548,1.,1.,-2.49991780507401,       95P    207
-44.9999999999249,0.,-2.49991780507401,-44.9999999999249,5.,          95P    208
-2.49991780507401,-47.4999999999249,0.,-2.49991780507401,             95P    209
-47.4999999999249,5.,8.21949259911608D-5,-47.4999999999249,0.,        95P    210
8.21949259911608D-5,-47.4999999999249,5.,2.50008219492599,            95P    211
-47.4999999999249,0.,2.50008219492599,-47.4999999999249,5.,           95P    212
2.50008219492599,-44.9999999999249,0.,2.50008219492599,               95P    213
-44.9999999999249,5.,2.50008219492599,-42.4999999999249,0.,           95P    214
2.50008219492599,-42.4999999999249,5.,8.21949259911608D-5,            95P    215
-42.4999999999249,0.,8.21949259911608D-5,-42.4999999999249,5.,        95P    216
-2.49991780507401,-42.4999999999249,0.,-2.49991780507401,             95P    217
-42.4999999999249,5.,-2.49991780507401,-44.9999999999249,0.,          95P    218
-2.49991780507401,-44.9999999999249,5.,0.,2.,-3.14159265358979,       95P    219
3.14159265358979;                                                     95P    220
128,1,8,1,2,0,1,0,0,1,0.,0.,2.,2.,-3.14159265358979,                  97P    221
-3.14159265358979,-3.14159265358979,-1.5707963267949,                 97P    222
-1.5707963267949,0.,0.,1.5707963267949,1.5707963267949,               97P    223
3.14159265358979,3.14159265358979,3.14159265358979,1.,1.,             97P    224
0.707106781186548,0.707106781186548,1.,1.,0.707106781186548,          97P    225
0.707106781186548,1.,1.,0.707106781186548,0.707106781186548,1.,       97P    226
1.,0.707106781186548,0.707106781186548,1.,1.,42.4999999859292,        97P    227
-0.0011253306862322,0.,42.4999999859292,-0.0011253306862322,5.,       97P    228
42.4999999859292,-2.50112533068623,0.,42.4999999859292,               97P    229
-2.50112533068623,5.,44.9999999859292,-2.50112533068623,0.,           97P    230
44.9999999859292,-2.50112533068623,5.,47.4999999859292,               97P    231
-2.50112533068623,0.,47.4999999859292,-2.50112533068623,5.,           97P    232
47.4999999859292,-0.0011253306862322,0.,47.4999999859292,             97P    233
-0.0011253306862322,5.,47.4999999859292,2.49887466931377,0.,          97P    234
47.4999999859292,2.49887466931377,5.,44.9999999859292,                97P    235
2.49887466931377,0.,44.9999999859292,2.49887466931377,5.,             97P    236
42.4999999859292,2.49887466931377,0.,42.4999999859292,                97P    237
2.49887466931377,5.,42.4999999859292,-0.0011253306862322,0.,          97P    238
42.4999999859292,-0.0011253306862322,5.,0.,2.,-3.14159265358979,      97P    239
3.14159265358979;                                                     97P    240
128,1,8,1,2,0,1,0,0,1,0.,0.,2.,2.,-3.14159265358979,                  99P    241
-3.14159265358979,-3.14159265358979,-1.5707963267949,                 99P    242
-1.5707963267949,0.,0.,1.5707963267949,1.5707963267949,               99P    243
3.14159265358979,3.14159265358979,3.14159265358979,1.,1.,             99P    244
0.707106781186548,0.707106781186548,1.,1.,0.707106781186548,          99P    245
0.707106781186548,1.,1.,0.707106781186548,0.707106781186548,1.,       99P    246
1.,0.707106781186548,0.707106781186548,1.,1.,-2.49923213302038,       99P    247
44.9999999934487,0.,-2.49923213302038,44.9999999934487,5.,            99P    248
-2.49923213302038,42.4999999934487,0.,-2.49923213302038,              99P    249
42.4999999934487,5.,0.000767866979619268,42.4999999934487,0.,         99P    250
0.000767866979619268,42.4999999934487,5.,2.50076786697962,            99P    251
42.4999999934487,0.,2.50076786697962,42.4999999934487,5.,             99P    252
2.50076786697962,44.9999999934487,0.,2.50076786697962,                99P    253
44.9999999934487,5.,2.50076786697962,47.4999999934487,0.,             99P    254
2.50076786697962,47.4999999934487,5.,0.000767866979619268,            99P    255
47.4999999934487,0.,0.000767866979619268,47.4999999934487,5.,         99P    256
-2.49923213302038,47.4999999934487,0.,-2.49923213302038,              99P    257
47.4999999934487,5.,-2.49923213302038,44.9999999934487,0.,            99P    258
-2.49923213302038,44.9999999934487,5.,0.,2.,-3.14159265358979,        99P    259
3.14159265358979;                                                     99P    260
128,1,8,1,2,0,1,0,0,1,0.,0.,0.132978723404255,0.132978723404255,     101P    261
-3.14159265358979,-3.14159265358979,-3.14159265358979,               101P    262
-1.5707963267949,-1.5707963267949,0.,0.,1.5707963267949,             101P    263
1.5707963267949,3.14159265358979,3.14159265358979,                   101P    264
3.14159265358979,1.,1.,0.707106781186548,0.707106781186548,1.,       101P    265
1.,0.707106781186548,0.707106781186548,1.,1.,0.707106781186548,      101P    266
0.707106781186548,1.,1.,0.707106781186548,0.707106781186548,1.,      101P    267
1.,-37.6,0.,0.,-37.6,0.,5.,-37.6,-37.6,0.,-37.6,-37.6,5.,0.,         101P    268
-37.6,0.,0.,-37.6,5.,37.6,-37.6,0.,37.6,-37.6,5.,37.6,0.,0.,         101P    269
37.6,0.,5.,37.6,37.6,0.,37.6,37.6,5.,0.,37.6,0.,0.,37.6,5.,          101P    270
-37.6,37.6,0.,-37.6,37.6,5.,-37.6,0.,0.,-37.6,0.,5.,0.,              101P    271
0.132978723404255,-3.14159265358979,3.14159265358979;                101P    272
128,1,8,1,2,0,1,0,0,1,0.,0.,0.0952380952380952,                      103P    273
0.0952380952380952,-3.14159265358979,-3.14159265358979,              103P    274
-3.14159265358979,-1.5707963267949,-1.5707963267949,0.,0.,           103P    275
1.5707963267949,1.5707963267949,3.14159265358979,                    103P    276
3.14159265358979,3.14159265358979,1.,1.,0.707106781186548,           103P    277
0.707106781186548,1.,1.,0.707106781186548,0.707106781186548,1.,      103P    278
1.,0.707106781186548,0.707106781186548,1.,1.,0.707106781186548,      103P    279
0.707106781186548,1.,1.,-52.5,0.,5.,-52.5,0.,0.,-52.5,-52.5,5.,      103P    280
-52.5,-52.5,0.,0.,-52.5,5.,0.,-52.5,0.,52.5,-52.5,5.,52.5,-52.5,     103P    281
0.,52.5,0.,5.,52.5,0.,0.,52.5,52.5,5.,52.5,52.5,0.,0.,52.5,5.,       103P    282
0.,52.5,0.,-52.5,52.5,5.,-52.5,52.5,0.,-52.5,0.,5.,-52.5,0.,0.,      103P    283
0.,0.0952380952380952,-3.14159265358979,3.14159265358979;            103P    284
128,1,1,1,1,0,0,1,0,0,-5.251,-5.251,5.251,5.251,-5.251,-5.251,       105P    285
5.251,5.251,1.,1.,1.,1.,-52.51,-52.51,5.,52.51,-52.51,5.,-52.51,     105P    286
52.51,5.,52.51,52.51,5.,-5.251,5.251,-5.251,5.251;                   105P    287
128,1,1,1,1,0,0,1,0,0,-5.251,-5.251,5.251,5.251,-5.251,-5.251,       107P    288
5.251,5.251,1.,1.,1.,1.,52.51,-52.51,0.,-52.51,-52.51,0.,52.51,      107P    289
52.51,0.,-52.51,52.51,0.,-5.251,5.251,-5.251,5.251;                  107P    290
502,12,-47.4999999999932,2.47497764918198D-5,5.,                     109P    291
-47.4999999999932,2.47497764918198D-5,0.,-2.49991780507401,          109P    292
-44.9999999999249,5.,-2.49991780507401,-44.9999999999249,0.,         109P    293
42.4999999859293,-0.0011253306862325,5.,42.4999999859292,            109P    294
-0.0011253306862325,0.,-2.49923213302038,44.9999999934487,5.,        109P    295
-2.49923213302038,44.9999999934487,0.,-37.6,                         109P    296
-4.60467196479405D-15,5.,-37.6,-4.60467196479405D-15,0.,-52.5,       109P    297
-6.4293956955236D-15,5.,-52.5,-6.4293956955236D-15,0.;               109P    298
504,18,57,109,1,109,1,59,109,1,109,2,61,109,2,109,2,63,109,3,        111P    299
109,3,65,109,3,109,4,67,109,4,109,4,69,109,5,109,5,71,109,5,109,     111P    300
6,73,109,6,109,6,75,109,7,109,7,77,109,7,109,8,79,109,8,109,8,       111P    301
81,109,9,109,9,83,109,9,109,10,85,109,10,109,10,87,109,11,109,       111P    302
11,89,109,11,109,12,91,109,12,109,12;                                111P    303
406,1,5HBody1;                                                       113P    304
314,62.7450980392157,62.7450980392157,62.7450980392157,13HSteel      115P    305
- Satin;                                                             115P    306
S      1G      3D    116P    306                                        T      1
