                                                                        S      1
,,17HCam Halter Bed v6,17HCam Halter Bed v6,7Hunknown,7Hunknown,32,38,7,G      1
99,15,,1.,2,2HMM,1,0.08,15H20220922.114704,0.01,10000.,7Hunknown,7HunknoG      2
wn,11,0,15H20220602.132758;                                             G      3
     186       1                                                00000000D      1
     186            -121       1       0                               0D      2
     514       2                                                00010000D      3
     514                       1       1                               0D      4
     510       3                                                00010000D      5
     510            -121       1       1                               0D      6
     510       4                                                00010000D      7
     510            -121       1       1                               0D      8
     510       5                                                00010000D      9
     510            -121       1       1                               0D     10
     510       6                                                00010000D     11
     510            -121       1       1                               0D     12
     510       7                                                00010000D     13
     510            -121       1       1                               0D     14
     510       8                                                00010000D     15
     510            -121       1       1                               0D     16
     510       9                                                00010000D     17
     510            -121       1       1                               0D     18
     510      10                                                00010000D     19
     510            -121       1       1                               0D     20
     510      11                                                00010000D     21
     510            -121       1       1                               0D     22
     510      12                                                00010000D     23
     510            -121       1       1                               0D     24
     510      13                                                00010000D     25
     510            -121       1       1                               0D     26
     508      14                                                00010000D     27
     508                       1       1                               0D     28
     508      15                                                00010000D     29
     508                       1       1                               0D     30
     508      16                                                00010000D     31
     508                       1       1                               0D     32
     508      17                                                00010000D     33
     508                       1       1                               0D     34
     508      18                                                00010000D     35
     508                       1       1                               0D     36
     508      19                                                00010000D     37
     508                       1       1                               0D     38
     508      20                                                00010000D     39
     508                       1       1                               0D     40
     508      21                                                00010000D     41
     508                       1       1                               0D     42
     508      22                                                00010000D     43
     508                       1       1                               0D     44
     508      23                                                00010000D     45
     508                       1       1                               0D     46
     508      24                                                00010000D     47
     508                       2       1                               0D     48
     508      26                                                00010000D     49
     508                       1       1                               0D     50
     508      27                                                00010000D     51
     508                       1       1                               0D     52
     126      28                                                00010000D     53
     126       0              13       0                               0D     54
     126      41                                                00010000D     55
     126       0               4       0                               0D     56
     126      45                                                00010000D     57
     126       0               2       0                               0D     58
     126      47                                                00010000D     59
     126       0               4       0                               0D     60
     126      51                                                00010000D     61
     126       0               2       0                               0D     62
     126      53                                                00010000D     63
     126       0              13       0                               0D     64
     126      66                                                00010000D     65
     126       0               5       0                               0D     66
     126      71                                                00010000D     67
     126       0               2       0                               0D     68
     126      73                                                00010000D     69
     126       0               3       0                               0D     70
     126      76                                                00010000D     71
     126       0               2       0                               0D     72
     126      78                                                00010000D     73
     126       0               2       0                               0D     74
     126      80                                                00010000D     75
     126       0               2       0                               0D     76
     126      82                                                00010000D     77
     126       0               3       0                               0D     78
     126      85                                                00010000D     79
     126       0               5       0                               0D     80
     126      90                                                00010000D     81
     126       0               9       0                               0D     82
     126      99                                                00010000D     83
     126       0               3       0                               0D     84
     126     102                                                00010000D     85
     126       0               9       0                               0D     86
     126     111                                                00010000D     87
     126       0               9       0                               0D     88
     126     120                                                00010000D     89
     126       0               2       0                               0D     90
     126     122                                                00010000D     91
     126       0               5       0                               0D     92
     128     127                                                00010000D     93
     128       0    -121       5       0                               0D     94
     128     132                                                00010000D     95
     128       0    -121      23       0                               0D     96
     128     155                                                00010000D     97
     128       0    -121       5       0                               0D     98
     128     160                                                00010000D     99
     128       0    -121       4       0                               0D    100
     128     164                                                00010000D    101
     128       0    -121       6       0                               0D    102
     128     170                                                00010000D    103
     128       0    -121       5       0                               0D    104
     128     175                                                00010000D    105
     128       0    -121      13       0                               0D    106
     128     188                                                00010000D    107
     128       0    -121       3       0                               0D    108
     128     191                                                00010000D    109
     128       0    -121      11       0                               0D    110
     128     202                                                00010000D    111
     128       0    -121       3       0                               0D    112
     128     205                                                00010000D    113
     128       0    -121       3       0                               0D    114
     502     208                                                00010000D    115
     502                       6       1                               0D    116
     504     214                                                00010001D    117
     504                       6       1                               0D    118
     406     220                                                00000000D    119
     406                       1      15                               0D    120
     314     221                                                00000200D    121
     314                       2       0                               0D    122
186,3,1,0,0,1,119;                                                     1P      1
514,11,5,1,7,1,9,1,11,1,13,1,15,1,17,1,19,1,21,1,23,1,25,1;            3P      2
510,93,2,1,27,29;                                                      5P      3
510,95,1,1,31;                                                         7P      4
510,97,1,1,33;                                                         9P      5
510,99,1,1,35;                                                        11P      6
510,101,1,1,37;                                                       13P      7
510,103,1,1,39;                                                       15P      8
510,105,1,1,41;                                                       17P      9
510,107,2,1,43,45;                                                    19P     10
510,109,1,1,47;                                                       21P     11
510,111,1,1,49;                                                       23P     12
510,113,1,1,51;                                                       25P     13
508,1,0,117,1,0,0;                                                    27P     14
508,4,0,117,2,1,0,0,117,3,1,0,0,117,4,1,0,0,117,5,1,0;                29P     15
508,4,0,117,6,0,0,0,117,7,1,0,0,117,1,1,0,0,117,7,0,0;                31P     16
508,1,0,117,6,1,0;                                                    33P     17
508,4,0,117,8,0,0,0,117,4,0,0,0,117,9,0,0,0,117,10,0,0;               35P     18
508,4,0,117,11,0,0,0,117,12,1,0,0,117,13,1,0,0,117,2,0,0;             37P     19
508,4,0,117,13,0,0,0,117,14,0,0,0,117,9,1,0,0,117,3,0,0;              39P     20
508,4,0,117,15,0,0,0,117,16,1,0,0,117,17,0,0,0,117,16,0,0;            41P     21
508,1,0,117,18,1,0;                                                   43P     22
508,1,0,117,15,1,0;                                                   45P     23
508,7,0,117,18,0,0,0,117,19,1,0,0,117,14,1,0,0,117,12,0,0,0,117,      47P     24
20,1,0,0,117,10,1,0,0,117,19,0,0;                                     47P     25
508,1,0,117,17,1,0;                                                   49P     26
508,4,0,117,20,0,0,0,117,11,1,0,0,117,5,0,0,0,117,8,1,0;              51P     27
126,8,2,0,1,0,0,-3.14159265358979,-3.14159265358979,                  53P     28
-3.14159265358979,-1.5707963267949,-1.5707963267949,0.,0.,            53P     29
1.5707963267949,1.5707963267949,3.14159265358979,                     53P     30
3.14159265358979,3.14159265358979,1.,0.707106781186547,1.,            53P     31
0.707106781186547,1.,0.707106781186547,1.,0.707106781186547,1.,       53P     32
-35.,-22.3020323355629,11.5709013305944,-35.,-2.22685706327632,       53P     33
-17.0994202195204,2.14313189850787D-15,-2.22685706327632,             53P     34
-17.0994202195203,35.,-2.22685706327632,-17.0994202195204,35.,        53P     35
-22.3020323355629,11.5709013305944,35.,-42.3772076078496,             53P     36
40.2412228807091,2.14313189850787D-15,-42.3772076078496,              53P     37
40.2412228807091,-35.,-42.3772076078496,40.2412228807091,-35.,        53P     38
-22.3020323355629,11.5709013305944,-3.14159265358979,                 53P     39
3.14159265358979,0.,0.,0.;                                            53P     40
126,1,1,0,0,1,0,0.0286788218175523,0.0286788218175523,                55P     41
1.4936083283313,1.4936083283313,1.,1.,6.,-14.2,                       55P     42
-2.77555756156289D-16,6.,-22.6024904585165,12.,                       55P     43
0.0286788218175523,1.4936083283313,0.,0.,0.;                          55P     44
126,1,1,0,0,1,0,-0.9,-0.9,0.3,0.3,1.,1.,6.,-22.6024904585165,         57P     45
12.,-6.,-22.6024904585165,12.,-0.9,0.3,0.,0.,0.;                      57P     46
126,1,1,0,0,1,0,-1.87216877632299,-1.87216877632299,                  59P     47
-0.407239269809243,-0.407239269809243,1.,1.,-6.,                      59P     48
-22.6024904585165,12.,-6.,-14.2,1.66533453693773D-15,                 59P     49
-1.87216877632299,-0.407239269809243,0.,0.,0.;                        59P     50
126,1,1,0,0,1,0,-1.2,-1.2,0.,0.,1.,1.,-6.,-14.2,0.,6.,-14.2,0.,       61P     51
-1.2,0.,0.,0.,0.;                                                     61P     52
126,8,2,0,1,0,0,-3.14159265358979,-3.14159265358979,                  63P     53
-3.14159265358979,-1.5707963267949,-1.5707963267949,0.,0.,            63P     54
1.5707963267949,1.5707963267949,3.14159265358979,                     63P     55
3.14159265358979,3.14159265358979,1.,0.707106781186547,1.,            63P     56
0.707106781186547,1.,0.707106781186547,1.,0.707106781186547,1.,       63P     57
-35.,-23.2850147887097,10.8826096069731,-35.,-3.20983951642311,       63P     58
-17.7877119431416,2.14313189850787D-15,-3.20983951642311,             63P     59
-17.7877119431416,35.,-3.20983951642311,-17.7877119431416,35.,        63P     60
-23.2850147887097,10.8826096069731,35.,-43.3601900609963,             63P     61
39.5529311570878,2.14313189850787D-15,-43.3601900609963,              63P     62
39.5529311570878,-35.,-43.3601900609963,39.5529311570878,-35.,        63P     63
-23.2850147887097,10.8826096069731,-3.14159265358979,                 63P     64
3.14159265358979,0.,0.,0.;                                            63P     65
126,1,1,0,0,1,0,-0.0342857142857146,-0.0342857142857146,              65P     66
2.69165266308803D-16,2.69165266308803D-16,1.,1.,-35.,                 65P     67
-23.2850147887097,10.8826096069731,-35.,-22.3020323355629,            65P     68
11.5709013305944,-0.0342857142857146,2.69165266308803D-16,0.,0.,      65P     69
0.;                                                                   65P     70
126,1,1,0,0,1,0,-0.1,-0.1,1.32,1.32,1.,1.,-6.,-14.2,0.,-6.,0.,        67P     71
0.,-0.1,1.32,0.,0.,0.;                                                67P     72
126,1,1,0,0,1,0,-1.32,-1.32,0.940249045851652,0.940249045851652,      69P     73
1.,1.,-6.,0.,12.,-6.,-22.6024904585165,12.,-1.32,                     69P     74
0.940249045851652,0.,0.,0.;                                           69P     75
126,1,1,0,0,1,0,0.,0.,1.2,1.2,1.,1.,-6.,0.,0.,-6.,0.,12.,0.,1.2,      71P     76
0.,0.,0.;                                                             71P     77
126,1,1,0,0,1,0,-1.32,-1.32,0.1,0.1,1.,1.,6.,0.,0.,6.,-14.2,0.,       73P     78
-1.32,0.1,0.,0.,0.;                                                   73P     79
126,1,1,0,0,1,0,0.,0.,1.2,1.2,1.,1.,6.,0.,0.,6.,0.,12.,0.,1.2,        75P     80
0.,0.,0.;                                                             75P     81
126,1,1,0,0,1,0,-1.32,-1.32,0.940249045851652,0.940249045851652,      77P     82
1.,1.,6.,0.,12.,6.,-22.6024904585165,12.,-1.32,                       77P     83
0.940249045851652,0.,0.,0.;                                           77P     84
126,4,2,0,0,0,0,-3.14159265358979,-3.14159265358979,                  79P     85
-3.14159265358979,-1.5707963267949,-1.5707963267949,0.,0.,0.,1.,      79P     86
0.707106781186548,1.,0.707106781186548,1.,-6.,                        79P     87
-7.34788079488412D-16,12.,-6.,-6.,12.,3.67394039744206D-16,-6.,       79P     88
12.,6.,-6.,12.,6.,0.,12.,-3.14159265358979,0.,0.,0.,0.;               79P     89
126,8,2,0,1,0,0,-3.14159265358979,-3.14159265358979,                  81P     90
-3.14159265358979,-1.5707963267949,-1.5707963267949,0.,0.,            81P     91
1.5707963267949,1.5707963267949,3.14159265358979,                     81P     92
3.14159265358979,3.14159265358979,1.,0.707106781186548,1.,            81P     93
0.707106781186548,1.,0.707106781186548,1.,0.707106781186548,1.,       81P     94
-3.7,4.53119315684521D-16,18.,-3.7,3.7,18.,2.2655965784226D-16,       81P     95
3.7,18.,3.7,3.7,18.,3.7,0.,18.,3.7,-3.7,18.,2.2655965784226D-16,      81P     96
-3.7,18.,-3.7,-3.7,18.,-3.7,-4.53119315684521D-16,18.,                81P     97
-3.14159265358979,3.14159265358979,0.,0.,0.;                          81P     98
126,1,1,0,0,1,0,-4.86486486486486,-4.86486486486486,                  83P     99
-0.54054054054054,-0.54054054054054,1.,1.,-3.7,0.,18.,-3.7,0.,        83P    100
2.,-4.86486486486486,-0.54054054054054,0.,0.,0.;                      83P    101
126,8,2,0,1,0,0,-3.14159265358979,-3.14159265358979,                  85P    102
-3.14159265358979,-1.5707963267949,-1.5707963267949,0.,0.,            85P    103
1.5707963267949,1.5707963267949,3.14159265358979,                     85P    104
3.14159265358979,3.14159265358979,1.,0.707106781186548,1.,            85P    105
0.707106781186548,1.,0.707106781186548,1.,0.707106781186548,1.,       85P    106
-3.7,-4.53119315684521D-16,2.,-3.7,-3.7,2.,2.2655965784226D-16,       85P    107
-3.7,2.,3.7,-3.7,2.,3.7,0.,2.,3.7,3.7,2.,2.2655965784226D-16,         85P    108
3.7,2.,-3.7,3.7,2.,-3.7,4.53119315684521D-16,2.,                      85P    109
-3.14159265358979,3.14159265358979,0.,0.,0.;                          85P    110
126,8,2,0,1,0,0,-3.14159265358979,-3.14159265358979,                  87P    111
-3.14159265358979,-1.5707963267949,-1.5707963267949,0.,0.,            87P    112
1.5707963267949,1.5707963267949,3.14159265358979,                     87P    113
3.14159265358979,3.14159265358979,1.,0.707106781186548,1.,            87P    114
0.707106781186548,1.,0.707106781186548,1.,0.707106781186548,1.,       87P    115
-6.,-7.34788079488412D-16,18.,-6.,-6.,18.,3.67394039744206D-16,       87P    116
-6.,18.,6.,-6.,18.,6.,0.,18.,6.,6.,18.,3.67394039744206D-16,6.,       87P    117
18.,-6.,6.,18.,-6.,7.34788079488412D-16,18.,-3.14159265358979,        87P    118
3.14159265358979,0.,0.,0.;                                            87P    119
126,1,1,0,0,1,0,-3.,-3.,-2.,-2.,1.,1.,-6.,0.,18.,-6.,0.,12.,-3.,      89P    120
-2.,0.,0.,0.;                                                         89P    121
126,4,2,0,0,0,0,0.,0.,0.,1.5707963267949,1.5707963267949,             91P    122
3.14159265358979,3.14159265358979,3.14159265358979,1.,                91P    123
0.707106781186548,1.,0.707106781186548,1.,6.,0.,0.,6.,6.,0.,          91P    124
3.67394039744206D-16,6.,0.,-6.,6.,0.,-6.,7.34788079488412D-16,        91P    125
0.,0.,3.14159265358979,0.,0.,0.;                                      91P    126
128,1,1,1,1,0,0,1,0,0,-3.501,-3.501,3.501,3.501,-3.501,-3.501,        93P    127
3.501,3.501,1.,1.,1.,1.,35.01,-2.22112129891281,                      93P    128
-17.1076117399632,-35.01,-2.22112129891281,-17.1076117399632,         93P    129
35.01,-42.3829433722131,40.249414401152,-35.01,                       93P    130
-42.3829433722131,40.249414401152,-3.501,3.501,-3.501,3.501;          93P    131
128,1,8,1,2,0,1,0,0,1,-2.69165266308803D-16,                          95P    132
-2.69165266308803D-16,0.0342857142857146,0.0342857142857146,          95P    133
-3.14159265358979,-3.14159265358979,-3.14159265358979,                95P    134
-1.5707963267949,-1.5707963267949,0.,0.,1.5707963267949,              95P    135
1.5707963267949,3.14159265358979,3.14159265358979,                    95P    136
3.14159265358979,1.,1.,0.707106781186548,0.707106781186548,1.,        95P    137
1.,0.707106781186548,0.707106781186548,1.,1.,0.707106781186548,       95P    138
0.707106781186548,1.,1.,0.707106781186548,0.707106781186548,1.,       95P    139
1.,-35.,-23.2850147887097,10.8826096069731,-35.,                      95P    140
-22.3020323355629,11.5709013305944,-35.,-3.20983951642313,            95P    141
-17.7877119431416,-35.,-2.22685706327633,-17.0994202195203,0.,        95P    142
-3.20983951642313,-17.7877119431416,-1.81888292047681D-15,            95P    143
-2.22685706327632,-17.0994202195203,35.,-3.20983951642313,            95P    144
-17.7877119431416,35.,-2.22685706327633,-17.0994202195203,35.,        95P    145
-23.2850147887097,10.8826096069731,35.,-22.3020323355629,             95P    146
11.5709013305944,35.,-43.3601900609963,39.5529311570878,35.,          95P    147
-42.3772076078495,40.2412228807091,0.,-43.3601900609963,              95P    148
39.5529311570878,1.81888292047681D-15,-42.3772076078495,              95P    149
40.2412228807091,-35.,-43.3601900609963,39.5529311570878,-35.,        95P    150
-42.3772076078495,40.2412228807091,-35.,-23.2850147887097,            95P    151
10.8826096069731,-35.,-22.3020323355629,11.5709013305944,             95P    152
-2.69165266308803D-16,0.0342857142857146,-3.14159265358979,           95P    153
3.14159265358979;                                                     95P    154
128,1,1,1,1,0,0,1,0,0,-3.501,-3.501,3.501,3.501,-3.501,-3.501,        97P    155
3.501,3.501,1.,1.,1.,1.,-35.01,-3.2041037520596,                      97P    156
-17.7959034635845,35.01,-3.2041037520596,-17.7959034635845,           97P    157
-35.01,-43.3659258253599,39.5611226775307,35.01,                      97P    158
-43.3659258253599,39.5611226775307,-3.501,3.501,-3.501,3.501;         97P    159
128,1,1,1,1,0,0,1,0,0,-0.001,-0.001,2.26124904585165,                 99P    160
2.26124904585165,-0.001,-0.001,1.201,1.201,1.,1.,1.,1.,-6.,0.01,      99P    161
-0.01,-6.,-22.6124904585165,-0.01,-6.,0.01,12.01,-6.,                 99P    162
-22.6124904585165,12.01,-0.001,2.26124904585165,-0.001,1.201;         99P    163
128,1,1,1,1,0,0,1,0,0,-0.941249045851652,-0.941249045851652,         101P    164
1.321,1.321,-0.00100000000000009,-0.00100000000000009,1.201,         101P    165
1.201,1.,1.,1.,1.,6.,-22.6124904585165,-0.0100000000000009,6.,       101P    166
0.0099999999999989,-0.0100000000000009,6.,-22.6124904585165,         101P    167
12.01,6.,0.0099999999999989,12.01,-0.941249045851652,1.321,          101P    168
-0.00100000000000009,1.201;                                          101P    169
128,1,1,1,1,0,0,1,0,0,-0.601,-0.601,0.601,0.601,                     103P    170
-1.60124904585165,-1.60124904585165,0.661,0.661,1.,1.,1.,1.,         103P    171
-6.01,-22.6124904585165,12.,6.01,-22.6124904585165,12.,-6.01,        103P    172
0.01,12.,6.01,0.0099999999999989,12.,-0.601,0.601,                   103P    173
-1.60124904585165,0.661;                                             103P    174
128,1,8,1,2,0,1,0,0,1,0.54054054054054,0.54054054054054,             105P    175
4.86486486486486,4.86486486486486,-3.14159265358979,                 105P    176
-3.14159265358979,-3.14159265358979,-1.5707963267949,                105P    177
-1.5707963267949,0.,0.,1.5707963267949,1.5707963267949,              105P    178
3.14159265358979,3.14159265358979,3.14159265358979,1.,1.,            105P    179
0.707106781186548,0.707106781186548,1.,1.,0.707106781186548,         105P    180
0.707106781186548,1.,1.,0.707106781186548,0.707106781186548,1.,      105P    181
1.,0.707106781186548,0.707106781186548,1.,1.,-3.7,0.,2.,-3.7,0.,     105P    182
18.,-3.7,-3.7,2.,-3.7,-3.7,18.,0.,-3.7,2.,0.,-3.7,18.,3.7,-3.7,      105P    183
2.,3.7,-3.7,18.,3.7,0.,2.,3.7,0.,18.,3.7,3.7,2.,3.7,3.7,18.,0.,      105P    184
3.7,2.,0.,3.7,18.,-3.7,3.7,2.,-3.7,3.7,18.,-3.7,0.,2.,-3.7,0.,       105P    185
18.,0.54054054054054,4.86486486486486,-3.14159265358979,             105P    186
3.14159265358979;                                                    105P    187
128,1,1,1,1,0,0,1,0,0,-0.601,-0.601,0.601,0.601,-0.601,-0.601,       107P    188
0.601,0.601,1.,1.,1.,1.,-6.01,-6.01,18.,6.01,-6.01,18.,-6.01,        107P    189
6.01,18.,6.01,6.01,18.,-0.601,0.601,-0.601,0.601;                    107P    190
128,1,8,1,2,0,1,0,0,1,0.,0.,3.,3.,-3.14159265358979,                 109P    191
-3.14159265358979,-3.14159265358979,-1.5707963267949,                109P    192
-1.5707963267949,0.,0.,1.5707963267949,1.5707963267949,              109P    193
3.14159265358979,3.14159265358979,3.14159265358979,1.,1.,            109P    194
0.707106781186548,0.707106781186548,1.,1.,0.707106781186548,         109P    195
0.707106781186548,1.,1.,0.707106781186548,0.707106781186548,1.,      109P    196
1.,0.707106781186548,0.707106781186548,1.,1.,-6.,0.,18.,-6.,0.,      109P    197
0.,-6.,-6.,18.,-6.,-6.,0.,0.,-6.,18.,0.,-6.,0.,6.,-6.,18.,6.,        109P    198
-6.,0.,6.,0.,18.,6.,0.,0.,6.,6.,18.,6.,6.,0.,0.,6.,18.,0.,6.,0.,     109P    199
-6.,6.,18.,-6.,6.,0.,-6.,0.,18.,-6.,0.,0.,0.,3.,                     109P    200
-3.14159265358979,3.14159265358979;                                  109P    201
128,1,1,1,1,0,0,1,0,0,-0.371,-0.371,0.371,0.371,-0.371,-0.371,       111P    202
0.371,0.371,1.,1.,1.,1.,-3.71,-3.71,2.,3.71,-3.71,2.,-3.71,3.71,     111P    203
2.,3.71,3.71,2.,-0.371,0.371,-0.371,0.371;                           111P    204
128,1,1,1,1,0,0,1,0,0,-0.601,-0.601,0.601,0.601,-1.421,-1.421,       113P    205
0.601,0.601,1.,1.,1.,1.,6.01,-14.21,0.,-6.01,-14.21,0.,6.01,         113P    206
6.01,0.,-6.01,6.01,0.,-0.601,0.601,-1.421,0.601;                     113P    207
502,13,-35.,-22.3020323355629,11.5709013305944,6.,-14.2,0.,6.,       115P    208
-22.6024904585165,12.,-6.,-22.6024904585165,12.,-6.,-14.2,0.,        115P    209
-35.,-23.2850147887097,10.8826096069731,-6.,                         115P    210
-7.34788079488412D-16,0.,-6.,0.,12.,6.,0.,0.,6.,0.,12.,-3.7,         115P    211
-4.53119315684521D-16,18.,-3.7,-4.53119315684521D-16,2.,-6.,         115P    212
-7.34788079488412D-16,18.;                                           115P    213
504,20,53,115,1,115,1,55,115,2,115,3,57,115,3,115,4,59,115,4,        117P    214
115,5,61,115,5,115,2,63,115,6,115,6,65,115,6,115,1,67,115,5,115,     117P    215
7,69,115,8,115,4,71,115,7,115,8,73,115,9,115,2,75,115,9,115,10,      117P    216
77,115,10,115,3,79,115,8,115,10,81,115,11,115,11,83,115,11,115,      117P    217
12,85,115,12,115,12,87,115,13,115,13,89,115,13,115,8,91,115,9,       117P    218
115,7;                                                               117P    219
406,1,5HBody1;                                                       119P    220
314,62.7450980392157,62.7450980392157,62.7450980392157,13HSteel      121P    221
- Satin;                                                             121P    222
S      1G      3D    122P    222                                        T      1
