                                                                        S      1
,,9HSpike v10,9HSpike v10,7Hunknown,7Hunknown,32,38,7,99,15,,1.,2,2HMM, G      1
1,0.08,15H20220922.115229,0.01,10000.,7Hunknown,7Hunknown,11,0,15H202106G      2
22.064244;                                                              G      3
     186       1                                                00000000D      1
     186            -207       1       0                               0D      2
     514       2                                                00010000D      3
     514                       2       1                               0D      4
     510       4                                                00010000D      5
     510            -207       1       1                               0D      6
     510       5                                                00010000D      7
     510            -207       1       1                               0D      8
     510       6                                                00010000D      9
     510            -207       1       1                               0D     10
     510       7                                                00010000D     11
     510            -207       1       1                               0D     12
     510       8                                                00010000D     13
     510            -207       1       1                               0D     14
     510       9                                                00010000D     15
     510            -207       1       1                               0D     16
     510      10                                                00010000D     17
     510            -207       1       1                               0D     18
     510      11                                                00010000D     19
     510            -207       1       1                               0D     20
     510      12                                                00010000D     21
     510            -207       1       1                               0D     22
     510      13                                                00010000D     23
     510            -207       1       1                               0D     24
     510      14                                                00010000D     25
     510            -207       1       1                               0D     26
     510      15                                                00010000D     27
     510            -207       1       1                               0D     28
     510      16                                                00010000D     29
     510            -207       1       1                               0D     30
     510      17                                                00010000D     31
     510            -207       1       1                               0D     32
     510      18                                                00010000D     33
     510            -207       1       1                               0D     34
     510      19                                                00010000D     35
     510            -207       1       1                               0D     36
     510      20                                                00010000D     37
     510            -207       1       1                               0D     38
     510      21                                                00010000D     39
     510            -207       1       1                               0D     40
     508      22                                                00010000D     41
     508                       1       1                               0D     42
     508      23                                                00010000D     43
     508                       1       1                               0D     44
     508      24                                                00010000D     45
     508                       2       1                               0D     46
     508      26                                                00010000D     47
     508                       2       1                               0D     48
     508      28                                                00010000D     49
     508                       1       1                               0D     50
     508      29                                                00010000D     51
     508                       1       1                               0D     52
     508      30                                                00010000D     53
     508                       1       1                               0D     54
     508      31                                                00010000D     55
     508                       1       1                               0D     56
     508      32                                                00010000D     57
     508                       3       1                               0D     58
     508      35                                                00010000D     59
     508                       1       1                               0D     60
     508      36                                                00010000D     61
     508                       2       1                               0D     62
     508      38                                                00010000D     63
     508                       1       1                               0D     64
     508      39                                                00010000D     65
     508                       1       1                               0D     66
     508      40                                                00010000D     67
     508                       1       1                               0D     68
     508      41                                                00010000D     69
     508                       2       1                               0D     70
     508      43                                                00010000D     71
     508                       1       1                               0D     72
     508      44                                                00010000D     73
     508                       1       1                               0D     74
     508      45                                                00010000D     75
     508                       1       1                               0D     76
     126      46                                                00010000D     77
     126       0               3       0                               0D     78
     126      49                                                00010000D     79
     126       0               6       0                               0D     80
     126      55                                                00010000D     81
     126       0               3       0                               0D     82
     126      58                                                00010000D     83
     126       0               6       0                               0D     84
     126      64                                                00010000D     85
     126       0               3       0                               0D     86
     126      67                                                00010000D     87
     126       0               6       0                               0D     88
     126      73                                                00010000D     89
     126       0               3       0                               0D     90
     126      76                                                00010000D     91
     126       0               6       0                               0D     92
     126      82                                                00010000D     93
     126       0               8       0                               0D     94
     126      90                                                00010000D     95
     126       0               3       0                               0D     96
     126      93                                                00010000D     97
     126       0               5       0                               0D     98
     126      98                                                00010000D     99
     126       0               2       0                               0D    100
     126     100                                                00010000D    101
     126       0               8       0                               0D    102
     126     108                                                00010000D    103
     126       0               6       0                               0D    104
     126     114                                                00010000D    105
     126       0               4       0                               0D    106
     126     118                                                00010000D    107
     126       0               3       0                               0D    108
     126     121                                                00010000D    109
     126       0               4       0                               0D    110
     126     125                                                00010000D    111
     126       0              10       0                               0D    112
     126     135                                                00010000D    113
     126       0              10       0                               0D    114
     126     145                                                00010000D    115
     126       0               2       0                               0D    116
     126     147                                                00010000D    117
     126       0               3       0                               0D    118
     126     150                                                00010000D    119
     126       0               2       0                               0D    120
     126     152                                                00010000D    121
     126       0               3       0                               0D    122
     126     155                                                00010000D    123
     126       0               3       0                               0D    124
     126     158                                                00010000D    125
     126       0               2       0                               0D    126
     126     160                                                00010000D    127
     126       0               3       0                               0D    128
     126     163                                                00010000D    129
     126       0               5       0                               0D    130
     126     168                                                00010000D    131
     126       0               3       0                               0D    132
     126     171                                                00010000D    133
     126       0               2       0                               0D    134
     126     173                                                00010000D    135
     126       0               3       0                               0D    136
     126     176                                                00010000D    137
     126       0               2       0                               0D    138
     126     178                                                00010000D    139
     126       0               2       0                               0D    140
     126     180                                                00010000D    141
     126       0               2       0                               0D    142
     126     182                                                00010000D    143
     126       0               3       0                               0D    144
     126     185                                                00010000D    145
     126       0               5       0                               0D    146
     126     190                                                00010000D    147
     126       0               2       0                               0D    148
     126     192                                                00010000D    149
     126       0               2       0                               0D    150
     126     194                                                00010000D    151
     126       0               2       0                               0D    152
     126     196                                                00010000D    153
     126       0               3       0                               0D    154
     126     199                                                00010000D    155
     126       0               2       0                               0D    156
     126     201                                                00010000D    157
     126       0               2       0                               0D    158
     126     203                                                00010000D    159
     126       0               3       0                               0D    160
     126     206                                                00010000D    161
     126       0               2       0                               0D    162
     126     208                                                00010000D    163
     126       0               2       0                               0D    164
     128     210                                                00010000D    165
     128       0    -207       9       0                               0D    166
     128     219                                                00010000D    167
     128       0    -207       9       0                               0D    168
     128     228                                                00010000D    169
     128       0    -207      14       0                               0D    170
     128     242                                                00010000D    171
     128       0    -207       7       0                               0D    172
     128     249                                                00010000D    173
     128       0    -207      17       0                               0D    174
     128     266                                                00010000D    175
     128       0    -207       7       0                               0D    176
     128     273                                                00010000D    177
     128       0    -207       5       0                               0D    178
     128     278                                                00010000D    179
     128       0    -207       6       0                               0D    180
     128     284                                                00010000D    181
     128       0    -207       7       0                               0D    182
     128     291                                                00010000D    183
     128       0    -207       5       0                               0D    184
     128     296                                                00010000D    185
     128       0    -207       6       0                               0D    186
     128     302                                                00010000D    187
     128       0    -207       7       0                               0D    188
     128     309                                                00010000D    189
     128       0    -207       5       0                               0D    190
     128     314                                                00010000D    191
     128       0    -207       5       0                               0D    192
     128     319                                                00010000D    193
     128       0    -207       9       0                               0D    194
     128     328                                                00010000D    195
     128       0    -207       5       0                               0D    196
     128     333                                                00010000D    197
     128       0    -207       5       0                               0D    198
     128     338                                                00010000D    199
     128       0    -207       3       0                               0D    200
     502     341                                                00010000D    201
     502                      14       1                               0D    202
     504     355                                                00010001D    203
     504                      13       1                               0D    204
     406     368                                                00000000D    205
     406                       1      15                               0D    206
     314     369                                                00000200D    207
     314                       2       0                               0D    208
186,3,1,0,0,1,205;                                                     1P      1
514,18,5,1,7,1,9,1,11,1,13,1,15,1,17,1,19,1,21,1,23,1,25,1,27,1,       3P      2
29,1,31,1,33,1,35,1,37,1,39,1;                                         3P      3
510,165,1,1,41;                                                        5P      4
510,167,1,1,43;                                                        7P      5
510,169,1,1,45;                                                        9P      6
510,171,1,1,47;                                                       11P      7
510,173,1,1,49;                                                       13P      8
510,175,1,1,51;                                                       15P      9
510,177,1,1,53;                                                       17P     10
510,179,1,1,55;                                                       19P     11
510,181,1,1,57;                                                       21P     12
510,183,1,1,59;                                                       23P     13
510,185,1,1,61;                                                       25P     14
510,187,1,1,63;                                                       27P     15
510,189,1,1,65;                                                       29P     16
510,191,1,1,67;                                                       31P     17
510,193,1,1,69;                                                       33P     18
510,195,1,1,71;                                                       35P     19
510,197,1,1,73;                                                       37P     20
510,199,1,1,75;                                                       39P     21
508,4,0,203,1,0,0,0,203,2,0,0,0,203,3,0,0,0,203,4,0,0;                41P     22
508,4,0,203,5,0,0,0,203,6,0,0,0,203,7,0,0,0,203,8,0,0;                43P     23
508,6,0,203,1,1,0,0,203,9,0,0,0,203,10,0,0,0,203,11,0,0,0,203,        45P     24
12,0,0,0,203,13,1,0;                                                  45P     25
508,8,0,203,8,1,0,0,203,14,1,0,0,203,15,1,0,0,203,16,1,0,0,203,       47P     26
17,1,0,0,203,9,1,0,0,203,4,1,0,0,203,18,1,0;                          47P     27
508,4,0,203,5,1,0,0,203,18,0,0,0,203,3,1,0,0,203,19,1,0;              49P     28
508,4,0,203,20,1,0,0,203,21,0,0,0,203,22,1,0,0,203,23,1,0;            51P     29
508,4,0,203,11,1,0,0,203,24,1,0,0,203,25,1,0,0,203,26,1,0;            53P     30
508,4,0,203,27,1,0,0,203,28,1,0,0,203,29,1,0,0,203,21,1,0;            55P     31
508,10,0,203,6,1,0,0,203,19,0,0,0,203,2,1,0,0,203,13,0,0,0,203,       57P     32
30,0,0,0,203,31,0,0,0,203,32,0,0,0,203,33,1,0,0,203,34,1,0,0,         57P     33
203,35,0,0;                                                           57P     34
508,4,0,203,36,1,0,0,203,37,0,0,0,203,38,0,0,0,203,22,0,0;            59P     35
508,6,0,203,23,0,0,0,203,38,1,0,0,203,39,0,0,0,203,17,0,0,0,203,      61P     36
16,0,0,0,203,15,0,0;                                                  61P     37
508,4,0,203,10,1,0,0,203,39,1,0,0,203,37,1,0,0,203,24,0,0;            63P     38
508,4,0,203,33,0,0,0,203,40,1,0,0,203,29,0,0,0,203,41,0,0;            65P     39
508,4,0,203,34,0,0,0,203,41,1,0,0,203,28,0,0,0,203,42,0,0;            67P     40
508,6,0,203,7,1,0,0,203,35,1,0,0,203,42,1,0,0,203,27,0,0,0,203,       69P     41
20,0,0,0,203,14,0,0;                                                  69P     42
508,4,0,203,30,1,0,0,203,12,1,0,0,203,26,0,0,0,203,43,0,0;            71P     43
508,4,0,203,31,1,0,0,203,43,1,0,0,203,25,0,0,0,203,44,0,0;            73P     44
508,4,0,203,32,1,0,0,203,44,1,0,0,203,36,0,0,0,203,40,0,0;            75P     45
126,1,1,0,0,1,0,-0.7,-0.7,0.,0.,1.,1.,-0.404818005324292,             77P     46
135.992548493528,0.,-0.404818005324292,135.992548493528,7.,-0.7,      77P     47
0.,0.,0.,0.;                                                          77P     48
126,2,2,0,0,0,0,-2.9246625952431,-2.9246625952431,                    79P     49
-2.9246625952431,-2.37505504833448,-2.37505504833448,                 79P     50
-2.37505504833448,1.,0.962478463816296,1.,1.70921269280372,           79P     51
132.045643474571,0.,1.20858618861665,134.317107487371,0.,             79P     52
-0.404818005324287,135.992548493528,0.,-2.9246625952431,              79P     53
-2.37505504833448,0.,0.,0.;                                           79P     54
126,1,1,0,0,1,0,0.,0.,0.7,0.7,1.,1.,1.70921269280372,                 81P     55
132.045643474571,7.,1.70921269280372,132.045643474571,0.,0.,0.7,      81P     56
0.,0.,0.;                                                             81P     57
126,2,2,0,0,0,0,2.37505504833448,2.37505504833448,                    83P     58
2.37505504833448,2.9246625952431,2.9246625952431,                     83P     59
2.9246625952431,1.,0.962478463816296,1.,-0.404818005324287,           83P     60
135.992548493528,7.,1.20858618861665,134.317107487371,7.,             83P     61
1.70921269280372,132.045643474571,7.,2.37505504833448,                83P     62
2.9246625952431,0.,0.,0.;                                             83P     63
126,1,1,0,0,1,0,-0.7,-0.7,0.,0.,1.,1.,-6.61113095261222,              85P     64
122.024189601569,0.,-6.61113095261222,122.024189601569,7.,-0.7,       85P     65
0.,0.,0.,0.;                                                          85P     66
126,2,2,0,0,0,0,0.98921963393724,0.98921963393724,                    87P     67
0.98921963393724,1.53882718084586,1.53882718084586,                   87P     68
1.53882718084586,1.,0.962478463816278,1.,-10.8795027449602,           87P     69
123.376294354754,0.,-8.93592087856759,122.098536479893,0.,            87P     70
-6.61113095261222,122.024189601569,0.,0.98921963393724,               87P     71
1.53882718084586,0.,0.,0.;                                            87P     72
126,1,1,0,0,1,0,0.,0.,0.7,0.7,1.,1.,-10.8795027449602,                89P     73
123.376294354754,7.,-10.8795027449602,123.376294354754,0.,0.,         89P     74
0.7,0.,0.,0.;                                                         89P     75
126,2,2,0,0,0,0,-1.53882718084586,-1.53882718084586,                  91P     76
-1.53882718084586,-0.98921963393724,-0.98921963393724,                91P     77
-0.98921963393724,1.,0.962478463816278,1.,-6.61113095261222,          91P     78
122.024189601569,7.,-8.93592087856759,122.098536479893,7.,            91P     79
-10.8795027449602,123.376294354754,7.,-1.53882718084586,              91P     80
-0.98921963393724,0.,0.,0.;                                           91P     81
126,4,2,0,0,0,0,-7.76294685593707,-7.76294685593707,                  93P     82
-7.76294685593707,-6.21926294364671,-6.21926294364671,                93P     83
-4.67557903135634,-4.67557903135634,-4.67557903135634,1.,             93P     84
0.716627201891155,1.,0.716627201891152,1.,1.00000000000001,           93P     85
114.045548849897,7.,11.6614041838867,115.018797444262,7.,             93P     86
10.9775342741931,125.702667246223,7.,10.2936643644996,                93P     87
136.386537048184,7.,-0.404818005324301,135.992548493528,7.,           93P     88
-7.76294685593707,-4.67557903135634,0.,0.,0.;                         93P     89
126,1,1,0,0,1,0,0.2,0.2,0.700000002861731,0.700000002861731,1.,       95P     90
1.,1.,114.045548849897,2.,1.,114.045548849897,7.00000002861731,       95P     91
0.2,0.700000002861731,0.,0.,0.;                                       95P     92
126,2,2,0,0,0,0,0.99386498155844,0.99386498155844,                    97P     93
0.99386498155844,1.47976154875748,1.47976154875748,                   97P     94
1.47976154875748,1.,0.970632939497794,1.,6.,115.780455542707,2.,      97P     95
3.71499294519705,114.293392663155,2.,1.,114.045548849897,2.,          97P     96
0.99386498155844,1.47976154875748,0.,0.,0.;                           97P     97
126,1,1,0,0,1,0,0.,0.,0.2,0.2,1.,1.,6.,115.780455542707,0.,6.,        99P     98
115.780455542707,2.,0.,0.2,0.,0.,0.;                                  99P     99
126,4,2,0,0,0,0,-0.99386498155844,-0.99386498155844,                 101P    100
-0.99386498155844,0.306870647132401,0.306870647132401,               101P    101
1.60760627582324,1.60760627582324,1.60760627582324,1.,               101P    102
0.795861148462339,1.,0.795861148462335,1.,6.,115.780455542707,       101P    103
0.,13.0140905739006,120.34516518084,0.,10.4861189556261,             101P    104
128.322846558067,0.,7.95814733735165,136.300527935294,0.,            101P    105
-0.404818005324294,135.992548493528,0.,-0.99386498155844,            101P    106
1.60760627582324,0.,0.,0.;                                           101P    107
126,2,2,0,0,0,0,-2.99344169022048,-2.99344169022048,                 103P    108
-2.99344169022048,-1.66183110483231,-1.66183110483231,               103P    109
-1.66183110483231,1.,0.786419616814428,1.,-10.8795027449602,         103P    110
123.376294354754,7.,-9.60416450262376,114.830998014325,7.,-1.,       103P    111
114.045548849897,7.,-2.99344169022048,-1.66183110483231,0.,0.,       103P    112
0.;                                                                  103P    113
126,1,1,0,0,1,0,5.92732930993801,5.92732930993801,                   105P    114
6.17277459854687,6.17277459854687,1.,1.,-1.,114.045548849897,        105P    115
7.00000002861731,-1.,116.500001735985,7.00000002980232,              105P    116
5.92732930993801,6.17277459854687,0.,0.,0.;                          105P    117
126,1,1,0,0,1,0,-0.1,-0.1,0.1,0.1,1.,1.,-1.,116.500001735985,        107P    118
7.00000002980232,1.,116.500001735985,7.00000002980232,-0.1,0.1,      107P    119
0.,0.,0.;                                                            107P    120
126,1,1,0,0,1,0,-6.17277459854687,-6.17277459854687,                 109P    121
-5.92732930993801,-5.92732930993801,1.,1.,1.,116.500001735985,       109P    122
7.00000002980232,1.,114.045548849897,7.00000002861731,               109P    123
-6.17277459854687,-5.92732930993801,0.,0.,0.;                        109P    124
126,6,2,0,0,0,0,-1.33280250236893,-1.33280250236893,                 111P    125
-1.33280250236893,0.0176776373427702,0.0176776373427702,             111P    126
1.36815777705447,1.36815777705447,2.71863791676618,                  111P    127
2.71863791676618,2.71863791676618,1.,0.780556909627695,1.,           111P    128
0.780556909627692,1.,0.780556909627684,1.,1.70921269280372,          111P    129
132.045643474571,7.,7.35149712434002,130.676873652254,7.,            111P    130
7.24886722112496,124.871843804286,7.,7.1462373179099,                111P    131
119.066813956317,7.,1.45909578219095,117.898342482322,7.,            111P    132
-4.228045753528,116.729871008327,7.,-6.61113095261222,               111P    133
122.024189601569,7.,-1.33280250236893,2.71863791676618,0.,0.,0.;     111P    134
126,6,2,0,0,0,0,-1.33280250236893,-1.33280250236893,                 113P    135
-1.33280250236893,0.0176776373427702,0.0176776373427702,             113P    136
1.36815777705447,1.36815777705447,2.71863791676618,                  113P    137
2.71863791676618,2.71863791676618,1.,0.780556909627695,1.,           113P    138
0.780556909627692,1.,0.780556909627684,1.,1.70921269280372,          113P    139
132.045643474571,0.,7.35149712434002,130.676873652254,0.,            113P    140
7.24886722112496,124.871843804286,0.,7.1462373179099,                113P    141
119.066813956317,0.,1.45909578219095,117.898342482322,0.,            113P    142
-4.228045753528,116.729871008327,0.,-6.61113095261222,               113P    143
122.024189601569,0.,-1.33280250236893,2.71863791676618,0.,0.,0.;     113P    144
126,1,1,0,0,1,0,-0.7,-0.7,-0.2,-0.2,1.,1.,-1.,114.045548849897,      115P    145
7.,-1.,114.045548849897,2.,-0.7,-0.2,0.,0.,0.;                       115P    146
126,1,1,0,0,1,0,-6.31250004339963,-6.31250004339963,                 117P    147
5.09205484159004,5.09205484159004,1.,1.,-1.,0.,2.,-1.,               117P    148
114.045548849897,2.,-6.31250004339963,5.09205484159004,0.,0.,0.;     117P    149
126,1,1,0,0,1,0,0.,0.,5.5,5.5,1.,1.,-1.,0.,2.,-1.,                   119P    150
54.7722557505166,7.,0.,5.5,0.,0.,0.;                                 119P    151
126,1,1,0,0,1,0,0.,0.,5.92732930993801,5.92732930993801,1.,1.,       121P    152
-1.,54.7722557505166,7.,-1.,114.045548849897,7.00000002861731,       121P    153
0.,5.92732930993801,0.,0.,0.;                                        121P    154
126,1,1,0,0,1,0,-5.09205484159004,-5.09205484159004,                 123P    155
6.31250004339963,6.31250004339963,1.,1.,1.,114.045548849897,2.,      123P    156
1.,0.,2.,-5.09205484159004,6.31250004339963,0.,0.,0.;                123P    157
126,1,1,0,0,1,0,0.,0.,5.5,5.5,1.,1.,1.,0.,2.,6.,                     125P    158
54.7722557505166,2.,0.,5.5,0.,0.,0.;                                 125P    159
126,1,1,0,0,1,0,0.,0.,6.10081997921905,6.10081997921905,1.,1.,       127P    160
6.,54.7722557505166,2.,6.,115.780455542707,2.,0.,                    127P    161
6.10081997921905,0.,0.,0.;                                           127P    162
126,2,2,0,0,0,0,1.66183110483231,1.66183110483231,                   129P    163
1.66183110483231,2.14772767203135,2.14772767203135,                  129P    164
2.14772767203135,1.,0.9706329394978,1.,-1.,114.045548849897,2.,      129P    165
-3.71499294519704,114.293392663155,2.,-5.99999999999999,             129P    166
115.780455542707,2.,1.66183110483231,2.14772767203135,0.,0.,0.;      129P    167
126,1,1,0,0,1,0,-6.10081997921905,-6.10081997921905,0.,0.,1.,1.,     131P    168
-5.99999999999999,115.780455542707,2.,-6.,54.7722557505166,2.,       131P    169
-6.10081997921905,0.,0.,0.,0.;                                       131P    170
126,1,1,0,0,1,0,-5.5,-5.5,0.,0.,1.,1.,-6.,54.7722557505166,2.,       133P    171
-1.,0.,2.,-5.5,0.,0.,0.,0.;                                          133P    172
126,1,1,0,0,1,0,0.,0.,6.10081997921905,6.10081997921905,1.,1.,       135P    173
6.,54.7722557505166,0.,6.,115.780455542707,0.,0.,                    135P    174
6.10081997921905,0.,0.,0.;                                           135P    175
126,1,1,0,0,1,0,0.,0.,5.5,5.5,1.,1.,1.,0.,0.,6.,                     137P    176
54.7722557505166,0.,0.,5.5,0.,0.,0.;                                 137P    177
126,1,1,0,0,1,0,0.,0.,0.2,0.2,1.,1.,-1.,0.,0.,1.,0.,0.,0.,0.2,       139P    178
0.,0.,0.;                                                            139P    179
126,1,1,0,0,1,0,0.,0.,5.5,5.5,1.,1.,-1.,0.,0.,-6.,                   141P    180
54.7722557505166,0.,0.,5.5,0.,0.,0.;                                 141P    181
126,1,1,0,0,1,0,0.,0.,6.10081997921905,6.10081997921905,1.,1.,       143P    182
-6.,54.7722557505166,0.,-5.99999999999999,115.780455542707,0.,       143P    183
0.,6.10081997921905,0.,0.,0.;                                        143P    184
126,2,2,0,0,0,0,3.2897436169591,3.2897436169591,3.2897436169591,     145P    185
4.13545763514823,4.13545763514823,4.13545763514823,1.,               145P    186
0.911920240032212,1.,-10.8795027449602,123.376294354754,0.,          145P    187
-10.1488291850901,118.480477786306,0.,-6.,115.780455542707,0.,       145P    188
3.2897436169591,4.13545763514823,0.,0.,0.;                           145P    189
126,1,1,0,0,1,0,0.,0.,0.2,0.2,1.,1.,-1.,0.,2.,1.,0.,2.,0.,0.2,       147P    190
0.,0.,0.;                                                            147P    191
126,1,1,0,0,1,0,-5.5,-5.5,0.,0.,1.,1.,1.,54.7722557505166,7.,1.,     149P    192
0.,2.,-5.5,0.,0.,0.,0.;                                              149P    193
126,1,1,0,0,1,0,-0.1,-0.1,0.1,0.1,1.,1.,-1.,54.7722557505166,7.,     151P    194
1.,54.7722557505166,7.,-0.1,0.1,0.,0.,0.;                            151P    195
126,1,1,0,0,1,0,-5.92732930993801,-5.92732930993801,0.,0.,1.,1.,     153P    196
1.,114.045548849897,7.00000002861731,1.,54.7722557505166,7.,         153P    197
-5.92732930993801,0.,0.,0.,0.;                                       153P    198
126,1,1,0,0,1,0,0.,0.,0.2,0.2,1.,1.,-1.,0.,0.,-1.,0.,2.,0.,0.2,      155P    199
0.,0.,0.;                                                            155P    200
126,1,1,0,0,1,0,0.,0.,0.2,0.2,1.,1.,-6.,54.7722557505166,0.,-6.,     157P    201
54.7722557505166,2.,0.,0.2,0.,0.,0.;                                 157P    202
126,1,1,0,0,1,0,0.,0.,0.2,0.2,1.,1.,-5.99999999999999,               159P    203
115.780455542707,0.,-5.99999999999999,115.780455542707,2.,0.,        159P    204
0.2,0.,0.,0.;                                                        159P    205
126,1,1,0,0,1,0,0.,0.,0.2,0.2,1.,1.,6.,54.7722557505166,0.,6.,       161P    206
54.7722557505166,2.,0.,0.2,0.,0.,0.;                                 161P    207
126,1,1,0,0,1,0,0.,0.,0.2,0.2,1.,1.,1.,0.,0.,1.,0.,2.,0.,0.2,0.,     163P    208
0.,0.;                                                               163P    209
128,1,2,1,2,0,0,0,0,0,0.,0.,0.848484848484849,0.848484848484849,     165P    210
2.37505504833448,2.37505504833448,2.37505504833448,                  165P    211
2.9246625952431,2.9246625952431,2.9246625952431,1.,1.,               165P    212
0.962478463816306,0.962478463816306,1.,1.,-0.404818005324287,        165P    213
135.992548493528,7.,-0.404818005324287,135.992548493528,0.,          165P    214
1.20858618861665,134.317107487371,7.,1.20858618861665,               165P    215
134.317107487371,0.,1.70921269280372,132.045643474571,7.,            165P    216
1.70921269280372,132.045643474571,0.,0.,0.848484848484849,           165P    217
2.37505504833448,2.9246625952431;                                    165P    218
128,1,2,1,2,0,0,0,0,0,0.,0.,0.848484848484849,0.848484848484849,     167P    219
-1.53882718084586,-1.53882718084586,-1.53882718084586,               167P    220
-0.98921963393724,-0.98921963393724,-0.98921963393724,1.,1.,         167P    221
0.962478463816306,0.962478463816306,1.,1.,-6.61113095261222,         167P    222
122.024189601569,7.,-6.61113095261222,122.024189601569,0.,           167P    223
-8.93592087856758,122.098536479893,7.,-8.93592087856758,             167P    224
122.098536479893,0.,-10.8795027449602,123.376294354754,7.,           167P    225
-10.8795027449602,123.376294354754,0.,0.,0.848484848484849,          167P    226
-1.53882718084586,-0.98921963393724;                                 167P    227
128,1,4,1,2,0,0,0,0,0,0.,0.,0.63636363896521,0.63636363896521,       169P    228
-1.47976154875748,-1.47976154875748,-1.47976154875748,               169P    229
0.0639223635328805,0.0639223635328805,1.60760627582324,              169P    230
1.60760627582324,1.60760627582324,1.,1.,0.716627201891155,           169P    231
0.716627201891155,1.,1.,0.716627201891155,0.716627201891155,1.,      169P    232
1.,1.,114.045548849897,7.00000002861731,1.,114.045548849897,0.,      169P    233
11.6614041838867,115.018797444262,7.00000002861731,                  169P    234
11.6614041838867,115.018797444262,0.,10.9775342741931,               169P    235
125.702667246223,7.00000002861731,10.9775342741931,                  169P    236
125.702667246223,0.,10.2936643644996,136.386537048184,               169P    237
7.00000002861731,10.2936643644996,136.386537048184,0.,               169P    238
-0.404818005324301,135.992548493528,7.00000002861731,                169P    239
-0.404818005324301,135.992548493528,0.,0.,0.63636363896521,          169P    240
-1.47976154875748,1.60760627582324;                                  169P    241
128,1,1,1,1,0,0,1,0,0,-1.08895027449602,-1.08895027449602,           171P    242
1.16714041838867,1.16714041838867,-1.09644511501033,                 171P    243
-1.09644511501033,1.13965370481839,1.13965370481839,1.,1.,1.,1.,     171P    244
-10.8895027449602,114.035548849897,7.,11.6714041838867,              171P    245
114.035548849897,7.,-10.8895027449602,136.396537048184,7.,           171P    246
11.6714041838867,136.396537048184,7.,-1.08895027449602,              171P    247
1.16714041838867,-1.09644511501033,1.13965370481839;                 171P    248
128,1,6,1,2,0,0,0,0,0,0.,0.,0.965517241379311,0.965517241379311,     173P    249
-2.71863791676618,-2.71863791676618,-2.71863791676618,               173P    250
-1.36815777705447,-1.36815777705447,-0.0176776373427705,             173P    251
-0.0176776373427705,1.33280250236893,1.33280250236893,               173P    252
1.33280250236893,1.,1.,0.780556909627688,0.780556909627688,1.,       173P    253
1.,0.780556909627688,0.780556909627688,1.,1.,0.780556909627688,      173P    254
0.780556909627688,1.,1.,-6.61113095261222,122.024189601569,0.,       173P    255
-6.61113095261222,122.024189601569,7.,-4.228045753528,               173P    256
116.729871008327,0.,-4.228045753528,116.729871008327,7.,             173P    257
1.45909578219095,117.898342482322,0.,1.45909578219095,               173P    258
117.898342482322,7.,7.1462373179099,119.066813956317,0.,             173P    259
7.1462373179099,119.066813956317,7.,7.24886722112496,                173P    260
124.871843804286,0.,7.24886722112496,124.871843804286,7.,            173P    261
7.35149712434002,130.676873652254,0.,7.35149712434002,               173P    262
130.676873652254,7.,1.70921269280372,132.045643474571,0.,            173P    263
1.70921269280372,132.045643474571,7.,0.,0.965517241379311,           173P    264
-2.71863791676618,1.33280250236893;                                  173P    265
128,1,1,1,1,0,0,1,0,0,-0.251000001490116,-0.251000001490116,         175P    266
0.251000001371615,0.251000001371615,-5.82600008679926,               175P    267
-5.82600008679926,5.58055479819041,5.58055479819041,1.,1.,1.,1.,     175P    268
-1.,-0.0100000000000033,1.99,-1.,-0.0100000000000033,                175P    269
7.01000002861731,-1.,114.055548849897,1.99,-1.,114.055548849897,     175P    270
7.0100000286173,-0.251000001490116,0.251000001371615,                175P    271
-5.82600008679926,5.58055479819041;                                  175P    272
128,1,1,1,1,0,0,1,0,0,0.0990000000000002,0.0990000000000002,         177P    273
0.601,0.601,-6.801,-6.801,4.77904555427071,4.77904555427071,1.,      177P    274
1.,1.,1.,0.99,-0.0100000000000033,2.,6.01,-0.0100000000000033,       177P    275
2.,0.99,115.790455542707,2.,6.01,115.790455542707,2.,                177P    276
0.0990000000000002,0.601,-6.801,4.77904555427071;                    177P    277
128,1,1,1,1,0,0,1,0,0,-0.601,-0.601,-0.0989999999999998,             179P    278
-0.0989999999999998,-6.801,-6.801,4.77904555427071,                  179P    279
4.77904555427071,1.,1.,1.,1.,-6.01,-0.0100000000000033,2.,-0.99,     179P    280
-0.0100000000000033,2.,-6.01,115.790455542707,2.,-0.99,              179P    281
115.790455542707,2.,-0.601,-0.0989999999999998,-6.801,               179P    282
4.77904555427071;                                                    179P    283
128,1,1,1,1,0,0,1,0,0,-1.08895027449602,-1.08895027449602,           181P    284
1.30240905739006,1.30240905739006,-6.801,-6.801,                     181P    285
6.83105279352937,6.83105279352937,1.,1.,1.,1.,13.0240905739006,      181P    286
-0.0100000000000033,0.,-10.8895027449602,-0.0100000000000033,0.,     181P    287
13.0240905739006,136.310527935294,0.,-10.8895027449602,              181P    288
136.310527935294,0.,-1.08895027449602,1.30240905739006,-6.801,       181P    289
6.83105279352937;                                                    181P    290
128,1,1,1,1,0,0,1,0,0,-0.001,-0.001,5.501,5.501,-0.101,-0.101,       183P    291
0.101,0.101,1.,1.,1.,1.,-1.01,54.7822143424712,7.00090909090909,     183P    292
-1.01,-0.0099585919546552,1.99909090909091,1.01,                     183P    293
54.7822143424712,7.00090909090909,1.01,-0.0099585919546552,          183P    294
1.99909090909091,-0.001,5.501,-0.101,0.101;                          183P    295
128,1,1,1,1,0,0,1,0,0,-0.001,-0.001,6.17377459854687,                185P    296
6.17377459854687,-0.101,-0.101,0.101,0.101,1.,1.,1.,1.,-1.01,        185P    297
116.510001735985,7.00000002980715,-1.01,54.7622557505166,            185P    298
6.99999999999517,1.01,116.510001735985,7.00000002980715,1.01,        185P    299
54.7622557505166,6.99999999999517,-0.001,6.17377459854687,           185P    300
-0.101,0.101;                                                        185P    301
128,1,1,1,1,0,0,1,0,0,-0.251000001371614,-0.251000001371614,         187P    302
0.251000001490116,0.251000001490116,-5.82600008679926,               187P    303
-5.82600008679926,5.58055479819041,5.58055479819041,1.,1.,1.,1.,     187P    304
1.,-0.0100000000000033,7.01000002861731,1.,-0.0100000000000033,      187P    305
1.99,1.,114.055548849897,7.01000002861731,1.,114.055548849897,       187P    306
1.99,-0.251000001371614,0.251000001490116,-5.82600008679926,         187P    307
5.58055479819041;                                                    187P    308
128,1,1,1,1,0,0,1,0,0,-0.001,-0.001,5.501,5.501,-0.001,-0.001,       189P    309
0.201,0.201,1.,1.,1.,1.,-6.00090909090909,54.7822143424712,          189P    310
-0.01,-0.999090909090908,-0.0099585919546552,-0.01,                  189P    311
-6.00090909090909,54.7822143424712,2.01,-0.999090909090908,          189P    312
-0.0099585919546552,2.01,-0.001,5.501,-0.001,0.201;                  189P    313
128,1,1,1,1,0,0,1,0,0,-0.001,-0.001,6.10181997921905,                191P    314
6.10181997921905,-0.001,-0.001,0.201,0.201,1.,1.,1.,1.,              191P    315
-5.99999999999999,115.790455542707,-0.01,-6.,54.7622557505166,       191P    316
-0.01,-5.99999999999999,115.790455542707,2.01,-6.,                   191P    317
54.7622557505166,2.01,-0.001,6.10181997921905,-0.001,0.201;          191P    318
128,1,2,1,2,0,0,0,0,0,0.,0.,0.636363636363636,0.636363636363636,     193P    319
-2.99344169022048,-2.99344169022048,-2.99344169022048,               193P    320
-1.66183110483231,-1.66183110483231,-1.66183110483231,1.,1.,         193P    321
0.786419616814424,0.786419616814424,1.,1.,-10.8795027449602,         193P    322
123.376294354754,7.,-10.8795027449602,123.376294354754,0.,           193P    323
-9.60416450262376,114.830998014325,7.,-9.60416450262376,             193P    324
114.830998014325,0.,-1.,114.045548849897,7.,-1.,                     193P    325
114.045548849897,0.,0.,0.636363636363636,-2.99344169022048,          193P    326
-1.66183110483231;                                                   193P    327
128,1,1,1,1,0,0,1,0,0,-0.001,-0.001,6.10181997921905,                195P    328
6.10181997921905,-0.001,-0.001,0.201,0.201,1.,1.,1.,1.,6.,           195P    329
54.7622557505166,-0.01,6.,115.790455542707,-0.01,6.,                 195P    330
54.7622557505166,2.01,6.,115.790455542707,2.01,-0.001,               195P    331
6.10181997921905,-0.001,0.201;                                       195P    332
128,1,1,1,1,0,0,1,0,0,-0.001,-0.001,5.501,5.501,-0.001,-0.001,       197P    333
0.201,0.201,1.,1.,1.,1.,0.99909090909091,-0.00995859195463938,       197P    334
-0.01,6.00090909090909,54.7822143424713,-0.01,0.99909090909091,      197P    335
-0.00995859195463938,2.01,6.00090909090909,54.7822143424713,         197P    336
2.01,-0.001,5.501,-0.001,0.201;                                      197P    337
128,1,1,1,1,0,0,1,0,0,-0.001,-0.001,0.201,0.201,-0.001,-0.001,       199P    338
0.201,0.201,1.,1.,1.,1.,-1.01,0.,-0.01,1.01,0.,-0.01,-1.01,0.,       199P    339
2.01,1.01,0.,2.01,-0.001,0.201,-0.001,0.201;                         199P    340
502,28,-0.404818005324292,135.992548493528,0.,                       201P    341
-0.404818005324292,135.992548493528,7.,1.70921269280372,             201P    342
132.045643474571,0.,1.70921269280372,132.045643474571,7.,            201P    343
-6.61113095261222,122.024189601569,0.,-6.61113095261222,             201P    344
122.024189601569,7.,-10.8795027449602,123.376294354754,0.,           201P    345
-10.8795027449602,123.376294354754,7.,1.,114.045548849897,           201P    346
7.00000002861731,1.,114.045548849897,2.,6.,115.780455542707,2.,      201P    347
6.,115.780455542707,0.,-1.,114.045548849897,7.,-1.,                  201P    348
116.500001735985,7.00000002980232,1.,116.500001735985,               201P    349
7.00000002980232,-1.,114.045548849897,2.,-1.,0.,2.,-1.,              201P    350
54.7722557505166,7.,1.,0.,2.,6.,54.7722557505166,2.,                 201P    351
-5.99999999999999,115.780455542707,2.,-6.,54.7722557505166,2.,       201P    352
6.,54.7722557505166,0.,1.,0.,0.,-1.,0.,0.,-6.,54.7722557505166,      201P    353
0.,-5.99999999999999,115.780455542707,0.,1.,54.7722557505166,7.;     201P    354
504,44,77,201,1,201,2,79,201,3,201,1,81,201,4,201,3,83,201,2,        203P    355
201,4,85,201,5,201,6,87,201,7,201,5,89,201,8,201,7,91,201,6,201,     203P    356
8,93,201,9,201,2,95,201,10,201,9,97,201,11,201,10,99,201,12,201,     203P    357
11,101,201,12,201,1,103,201,8,201,13,105,201,13,201,14,107,201,      203P    358
14,201,15,109,201,15,201,9,111,201,4,201,6,113,201,3,201,5,115,      203P    359
201,13,201,16,117,201,17,201,16,119,201,17,201,18,121,201,18,        203P    360
201,13,123,201,10,201,19,125,201,19,201,20,127,201,20,201,11,        203P    361
129,201,16,201,21,131,201,21,201,22,133,201,22,201,17,135,201,       203P    362
23,201,12,137,201,24,201,23,139,201,25,201,24,141,201,25,201,26,     203P    363
143,201,26,201,27,145,201,7,201,27,147,201,17,201,19,149,201,28,     203P    364
201,19,151,201,18,201,28,153,201,9,201,28,155,201,25,201,17,157,     203P    365
201,26,201,22,159,201,27,201,21,161,201,23,201,20,163,201,24,        203P    366
201,19;                                                              203P    367
406,1,5HBody1;                                                       205P    368
314,62.7450980392157,62.7450980392157,62.7450980392157,13HSteel      207P    369
- Satin;                                                             207P    370
S      1G      3D    208P    370                                        T      1
