                                                                        S      1
,,23HTapeziertisch halter v3,23HTapeziertisch halter v3,7Hunknown,7HunknG      1
own,32,38,7,99,15,,1.,2,2HMM,1,0.08,15H20220922.115646,0.01,10000.,7HunkG      2
nown,7Hunknown,11,0,15H20220513.135842;                                 G      3
     186       1                                                00000000D      1
     186            -215       1       0                               0D      2
     514       2                                                00010000D      3
     514                       2       1                               0D      4
     510       4                                                00010000D      5
     510            -215       1       1                               0D      6
     510       5                                                00010000D      7
     510            -215       1       1                               0D      8
     510       6                                                00010000D      9
     510            -215       1       1                               0D     10
     510       7                                                00010000D     11
     510            -215       1       1                               0D     12
     510       8                                                00010000D     13
     510            -215       1       1                               0D     14
     510       9                                                00010000D     15
     510            -215       1       1                               0D     16
     510      10                                                00010000D     17
     510            -215       1       1                               0D     18
     510      11                                                00010000D     19
     510            -215       1       1                               0D     20
     510      12                                                00010000D     21
     510            -215       1       1                               0D     22
     510      13                                                00010000D     23
     510            -215       1       1                               0D     24
     510      14                                                00010000D     25
     510            -215       1       1                               0D     26
     510      15                                                00010000D     27
     510            -215       1       1                               0D     28
     510      16                                                00010000D     29
     510            -215       1       1                               0D     30
     510      17                                                00010000D     31
     510            -215       1       1                               0D     32
     510      18                                                00010000D     33
     510            -215       1       1                               0D     34
     510      19                                                00010000D     35
     510            -215       1       1                               0D     36
     510      20                                                00010000D     37
     510            -215       1       1                               0D     38
     510      21                                                00010000D     39
     510            -215       1       1                               0D     40
     508      22                                                00010000D     41
     508                       1       1                               0D     42
     508      23                                                00010000D     43
     508                       1       1                               0D     44
     508      24                                                00010000D     45
     508                       4       1                               0D     46
     508      28                                                00010000D     47
     508                       1       1                               0D     48
     508      29                                                00010000D     49
     508                       1       1                               0D     50
     508      30                                                00010000D     51
     508                       1       1                               0D     52
     508      31                                                00010000D     53
     508                       1       1                               0D     54
     508      32                                                00010000D     55
     508                       1       1                               0D     56
     508      33                                                00010000D     57
     508                       1       1                               0D     58
     508      34                                                00010000D     59
     508                       1       1                               0D     60
     508      35                                                00010000D     61
     508                       1       1                               0D     62
     508      36                                                00010000D     63
     508                       1       1                               0D     64
     508      37                                                00010000D     65
     508                       1       1                               0D     66
     508      38                                                00010000D     67
     508                       1       1                               0D     68
     508      39                                                00010000D     69
     508                       1       1                               0D     70
     508      40                                                00010000D     71
     508                       1       1                               0D     72
     508      41                                                00010000D     73
     508                       1       1                               0D     74
     508      42                                                00010000D     75
     508                       4       1                               0D     76
     126      46                                                00010000D     77
     126       0               4       0                               0D     78
     126      50                                                00010000D     79
     126       0               2       0                               0D     80
     126      52                                                00010000D     81
     126       0               4       0                               0D     82
     126      56                                                00010000D     83
     126       0               2       0                               0D     84
     126      58                                                00010000D     85
     126       0               2       0                               0D     86
     126      60                                                00010000D     87
     126       0               2       0                               0D     88
     126      62                                                00010000D     89
     126       0               2       0                               0D     90
     126      64                                                00010000D     91
     126       0               2       0                               0D     92
     126      66                                                00010000D     93
     126       0               4       0                               0D     94
     126      70                                                00010000D     95
     126       0               2       0                               0D     96
     126      72                                                00010000D     97
     126       0               2       0                               0D     98
     126      74                                                00010000D     99
     126       0               2       0                               0D    100
     126      76                                                00010000D    101
     126       0               6       0                               0D    102
     126      82                                                00010000D    103
     126       0               2       0                               0D    104
     126      84                                                00010000D    105
     126       0               4       0                               0D    106
     126      88                                                00010000D    107
     126       0               2       0                               0D    108
     126      90                                                00010000D    109
     126       0               5       0                               0D    110
     126      95                                                00010000D    111
     126       0               2       0                               0D    112
     126      97                                                00010000D    113
     126       0               2       0                               0D    114
     126      99                                                00010000D    115
     126       0               2       0                               0D    116
     126     101                                                00010000D    117
     126       0               7       0                               0D    118
     126     108                                                00010000D    119
     126       0               4       0                               0D    120
     126     112                                                00010000D    121
     126       0               2       0                               0D    122
     126     114                                                00010000D    123
     126       0               2       0                               0D    124
     126     116                                                00010000D    125
     126       0               2       0                               0D    126
     126     118                                                00010000D    127
     126       0               2       0                               0D    128
     126     120                                                00010000D    129
     126       0               2       0                               0D    130
     126     122                                                00010000D    131
     126       0               2       0                               0D    132
     126     124                                                00010000D    133
     126       0               2       0                               0D    134
     126     126                                                00010000D    135
     126       0               2       0                               0D    136
     126     128                                                00010000D    137
     126       0               2       0                               0D    138
     126     130                                                00010000D    139
     126       0               2       0                               0D    140
     126     132                                                00010000D    141
     126       0               2       0                               0D    142
     126     134                                                00010000D    143
     126       0               7       0                               0D    144
     126     141                                                00010000D    145
     126       0               2       0                               0D    146
     126     143                                                00010000D    147
     126       0               2       0                               0D    148
     126     145                                                00010000D    149
     126       0               4       0                               0D    150
     126     149                                                00010000D    151
     126       0               2       0                               0D    152
     126     151                                                00010000D    153
     126       0               2       0                               0D    154
     126     153                                                00010000D    155
     126       0               2       0                               0D    156
     126     155                                                00010000D    157
     126       0               2       0                               0D    158
     126     157                                                00010000D    159
     126       0               2       0                               0D    160
     126     159                                                00010000D    161
     126       0               2       0                               0D    162
     126     161                                                00010000D    163
     126       0               2       0                               0D    164
     126     163                                                00010000D    165
     126       0               6       0                               0D    166
     126     169                                                00010000D    167
     126       0               2       0                               0D    168
     126     171                                                00010000D    169
     126       0               2       0                               0D    170
     126     173                                                00010000D    171
     126       0               5       0                               0D    172
     128     178                                                00010000D    173
     128       0    -215       5       0                               0D    174
     128     183                                                00010000D    175
     128       0    -215       3       0                               0D    176
     128     186                                                00010000D    177
     128       0    -215       4       0                               0D    178
     128     190                                                00010000D    179
     128       0    -215       6       0                               0D    180
     128     196                                                00010000D    181
     128       0    -215       3       0                               0D    182
     128     199                                                00010000D    183
     128       0    -215       4       0                               0D    184
     128     203                                                00010000D    185
     128       0    -215       3       0                               0D    186
     128     206                                                00010000D    187
     128       0    -215       4       0                               0D    188
     128     210                                                00010000D    189
     128       0    -215       7       0                               0D    190
     128     217                                                00010000D    191
     128       0    -215       4       0                               0D    192
     128     221                                                00010000D    193
     128       0    -215       8       0                               0D    194
     128     229                                                00010000D    195
     128       0    -215       3       0                               0D    196
     128     232                                                00010000D    197
     128       0    -215       4       0                               0D    198
     128     236                                                00010000D    199
     128       0    -215       5       0                               0D    200
     128     241                                                00010000D    201
     128       0    -215      12       0                               0D    202
     128     253                                                00010000D    203
     128       0    -215       3       0                               0D    204
     128     256                                                00010000D    205
     128       0    -215       6       0                               0D    206
     128     262                                                00010000D    207
     128       0    -215       4       0                               0D    208
     502     266                                                00010000D    209
     502                       8       1                               0D    210
     504     274                                                00010001D    211
     504                      14       1                               0D    212
     406     288                                                00000000D    213
     406                       1      15                               0D    214
     314     289                                                00000200D    215
     314                       2       0                               0D    216
186,3,1,0,0,1,213;                                                     1P      1
514,18,5,1,7,1,9,1,11,1,13,1,15,1,17,1,19,1,21,1,23,1,25,1,27,1,       3P      2
29,1,31,1,33,1,35,1,37,1,39,1;                                         3P      3
510,173,1,1,41;                                                        5P      4
510,175,1,1,43;                                                        7P      5
510,177,1,1,45;                                                        9P      6
510,179,1,1,47;                                                       11P      7
510,181,1,1,49;                                                       13P      8
510,183,1,1,51;                                                       15P      9
510,185,1,1,53;                                                       17P     10
510,187,1,1,55;                                                       19P     11
510,189,1,1,57;                                                       21P     12
510,191,1,1,59;                                                       23P     13
510,193,1,1,61;                                                       25P     14
510,195,1,1,63;                                                       27P     15
510,197,1,1,65;                                                       29P     16
510,199,1,1,67;                                                       31P     17
510,201,1,1,69;                                                       33P     18
510,203,1,1,71;                                                       35P     19
510,205,1,1,73;                                                       37P     20
510,207,1,1,75;                                                       39P     21
508,4,0,211,1,1,0,0,211,2,1,0,0,211,3,1,0,0,211,4,1,0;                41P     22
508,4,0,211,4,0,0,0,211,5,1,0,0,211,6,1,0,0,211,7,0,0;                43P     23
508,16,0,211,3,0,0,0,211,8,1,0,0,211,9,0,0,0,211,10,1,0,0,211,        45P     24
11,1,0,0,211,12,0,0,0,211,13,1,0,0,211,14,0,0,0,211,15,0,0,0,         45P     25
211,16,1,0,0,211,17,0,0,0,211,18,1,0,0,211,19,1,0,0,211,20,0,0,       45P     26
0,211,21,1,0,0,211,5,0,0;                                             45P     27
508,4,0,211,22,1,0,0,211,23,1,0,0,211,15,1,0,0,211,24,1,0;            47P     28
508,4,0,211,23,0,0,0,211,25,0,0,0,211,26,0,0,0,211,16,0,0;            49P     29
508,4,0,211,18,0,0,0,211,27,1,0,0,211,28,0,0,0,211,29,0,0;            51P     30
508,4,0,211,19,0,0,0,211,29,1,0,0,211,30,0,0,0,211,31,0,0;            53P     31
508,4,0,211,20,1,0,0,211,31,1,0,0,211,32,0,0,0,211,33,0,0;            55P     32
508,4,0,211,21,0,0,0,211,33,1,0,0,211,34,0,0,0,211,6,0,0;             57P     33
508,4,0,211,2,0,0,0,211,35,0,0,0,211,36,0,0,0,211,8,0,0;              59P     34
508,4,0,211,9,1,0,0,211,36,1,0,0,211,37,0,0,0,211,38,0,0;             61P     35
508,4,0,211,10,0,0,0,211,38,1,0,0,211,39,0,0,0,211,40,0,0;            63P     36
508,4,0,211,11,0,0,0,211,40,1,0,0,211,41,0,0,0,211,42,0,0;            65P     37
508,4,0,211,12,1,0,0,211,42,1,0,0,211,43,0,0,0,211,44,0,0;            67P     38
508,4,0,211,13,0,0,0,211,44,1,0,0,211,45,0,0,0,211,46,0,0;            69P     39
508,4,0,211,24,0,0,0,211,14,1,0,0,211,46,1,0,0,211,47,0,0;            71P     40
508,4,0,211,17,1,0,0,211,26,1,0,0,211,48,0,0,0,211,27,0,0;            73P     41
508,16,0,211,1,0,0,0,211,7,1,0,0,211,34,1,0,0,211,32,1,0,0,211,       75P     42
30,1,0,0,211,28,1,0,0,211,48,1,0,0,211,25,1,0,0,211,22,0,0,0,         75P     43
211,47,1,0,0,211,45,1,0,0,211,43,1,0,0,211,41,1,0,0,211,39,1,0,       75P     44
0,211,37,1,0,0,211,35,1,0;                                            75P     45
126,2,2,0,0,0,0,-0.785398163397449,-0.785398163397449,                77P     46
-0.785398163397449,0.785398163397448,0.785398163397448,               77P     47
0.785398163397448,1.,0.707106781186547,1.,3.,4.,4.,3.,9.,4.,8.,       77P     48
9.,4.,-0.785398163397449,0.785398163397448,0.,0.,0.;                  77P     49
126,1,1,0,0,1,0,-0.4,-0.4,0.,0.,1.,1.,8.,9.,4.,8.,9.,0.,-0.4,0.,      79P     50
0.,0.,0.;                                                             79P     51
126,2,2,0,0,0,0,-0.785398163397448,-0.785398163397448,                81P     52
-0.785398163397448,0.785398163397449,0.785398163397449,               81P     53
0.785398163397449,1.,0.707106781186547,1.,8.,9.,0.,3.,9.,0.,3.,       81P     54
4.,0.,-0.785398163397448,0.785398163397449,0.,0.,0.;                  81P     55
126,1,1,0,0,1,0,0.,0.,0.4,0.4,1.,1.,3.,4.,0.,3.,4.,4.,0.,0.4,0.,      83P     56
0.,0.;                                                                83P     57
126,1,1,0,0,1,0,0.5,0.5,0.9,0.9,1.,1.,3.,4.,0.,3.,0.,0.,0.5,0.9,      85P     58
0.,0.,0.;                                                             85P     59
126,1,1,0,0,1,0,0.,0.,0.4,0.4,1.,1.,3.,0.,0.,3.,0.,4.,0.,0.4,0.,      87P     60
0.,0.;                                                                87P     61
126,1,1,0,0,1,0,0.5,0.5,0.9,0.9,1.,1.,3.,4.,4.,3.,0.,4.,0.5,0.9,      89P     62
0.,0.,0.;                                                             89P     63
126,1,1,0,0,1,0,1.7,1.7,16.9,16.9,1.,1.,8.,9.,0.,160.,9.,0.,1.7,      91P     64
16.9,0.,0.,0.;                                                        91P     65
126,2,2,0,0,0,0,0.,0.,0.,1.5707963267949,1.5707963267949,             93P     66
1.5707963267949,1.,0.707106781186547,1.,169.,                         93P     67
8.62816615085482D-31,0.,169.,8.99999999999999,0.,160.,                93P     68
8.99999999999999,0.,0.,1.5707963267949,0.,0.,0.;                      93P     69
126,1,1,0,0,1,0,0.9,0.9,1.8,1.8,1.,1.,169.,0.,0.,169.,-9.,0.,         95P     70
0.9,1.8,0.,0.,0.;                                                     95P     71
126,1,1,0,0,1,0,0.,0.,0.599999999999998,0.599999999999998,1.,1.,      97P     72
169.,-9.,0.,163.,-9.,0.,0.,0.599999999999998,0.,0.,0.;                97P     73
126,1,1,0,0,1,0,0.299999999999999,0.299999999999999,1.2,1.2,1.,       99P     74
1.,163.,0.,0.,163.,-9.,0.,0.299999999999999,1.2,0.,0.,0.;             99P     75
126,4,2,0,0,0,0,0.,0.,0.,1.5707963267949,1.5707963267949,            101P     76
3.14159265358979,3.14159265358979,3.14159265358979,1.,               101P     77
0.707106781186539,1.,0.707106781186556,1.,163.,                      101P     78
8.62816615085482D-31,0.,163.,3.00000000000001,0.,160.,               101P     79
3.00000000000001,0.,157.,3.00000000000001,0.,157.,                   101P     80
3.67394039744208D-16,0.,0.,3.14159265358979,0.,0.,0.;                101P     81
126,1,1,0,0,1,0,0.5,0.5,0.9,0.9,1.,1.,157.,-4.,0.,157.,0.,0.,        103P     82
0.5,0.9,0.,0.,0.;                                                    103P     83
126,2,2,0,0,0,0,-0.785398163397448,-0.785398163397448,               105P     84
-0.785398163397448,0.785398163397448,0.785398163397448,              105P     85
0.785398163397448,1.,0.707106781186543,1.,152.,-9.,0.,157.,-9.,      105P     86
0.,157.,-4.,0.,-0.785398163397448,0.785398163397448,0.,0.,0.;        105P     87
126,1,1,0,0,1,0,1.7,1.7,16.9,16.9,1.,1.,152.,-9.,0.,0.,-9.,0.,       107P     88
1.7,16.9,0.,0.,0.;                                                   107P     89
126,2,2,0,0,0,0,3.14159265358979,3.14159265358979,                   109P     90
3.14159265358979,4.71238898038469,4.71238898038469,                  109P     91
4.71238898038469,1.,0.707106781186548,1.,-9.,                        109P     92
1.10218211923262D-15,0.,-9.,-9.,0.,-1.65327317884893D-15,-9.,0.,     109P     93
3.14159265358979,4.71238898038469,0.,0.,0.;                          109P     94
126,1,1,0,0,1,0,0.9,0.9,1.8,1.8,1.,1.,-9.,1.11022302462516D-15,      111P     95
0.,-9.,9.,0.,0.9,1.8,0.,0.,0.;                                       111P     96
126,1,1,0,0,1,0,0.,0.,0.6,0.6,1.,1.,-9.,9.,0.,-3.,9.,0.,0.,0.6,      113P     97
0.,0.,0.;                                                            113P     98
126,1,1,0,0,1,0,0.3,0.3,1.2,1.2,1.,1.,-3.,5.55111512312578D-16,      115P     99
0.,-3.,9.,0.,0.3,1.2,0.,0.,0.;                                       115P    100
126,4,2,0,0,0,0,3.14159265358979,3.14159265358979,                   117P    101
3.14159265358979,4.71238898038469,4.71238898038469,                  117P    102
6.28318530717959,6.28318530717959,6.28318530717959,1.,               117P    103
0.707106781186548,1.,0.707106781186548,1.,-3.,                       117P    104
3.67394039744206D-16,0.,-3.,-3.,0.,-5.51091059616309D-16,-3.,0.,     117P    105
3.,-3.,0.,3.,-7.34788079488412D-16,0.,3.14159265358979,              117P    106
6.28318530717959,0.,0.,0.;                                           117P    107
126,2,2,0,0,0,0,-0.785398163397448,-0.785398163397448,               119P    108
-0.785398163397448,0.785398163397448,0.785398163397448,              119P    109
0.785398163397448,1.,0.707106781186543,1.,157.,-4.,4.,157.,-9.,      119P    110
4.,152.,-9.,4.,-0.785398163397448,0.785398163397448,0.,0.,0.;        119P    111
126,1,1,0,0,1,0,-0.4,-0.4,0.,0.,1.,1.,152.,-9.,4.,152.,-9.,0.,       121P    112
-0.4,0.,0.,0.,0.;                                                    121P    113
126,1,1,0,0,1,0,0.,0.,0.4,0.4,1.,1.,157.,-4.,0.,157.,-4.,4.,0.,      123P    114
0.4,0.,0.,0.;                                                        123P    115
126,1,1,0,0,1,0,-16.9,-16.9,-1.7,-1.7,1.,1.,0.,-9.,4.,152.,-9.,      125P    116
4.,-16.9,-1.7,0.,0.,0.;                                              125P    117
126,1,1,0,0,1,0,0.,0.,0.4,0.4,1.,1.,0.,-9.,0.,0.,-9.,4.,0.,0.4,      127P    118
0.,0.,0.;                                                            127P    119
126,1,1,0,0,1,0,0.,0.,0.4,0.4,1.,1.,-9.,1.11022302462516D-15,0.,     129P    120
-9.,1.11022302462516D-15,4.,0.,0.4,0.,0.,0.;                         129P    121
126,1,1,0,0,1,0,-1.8,-1.8,-0.9,-0.9,1.,1.,-9.,9.,4.,-9.,             131P    122
1.11022302462516D-15,4.,-1.8,-0.9,0.,0.,0.;                          131P    123
126,1,1,0,0,1,0,0.,0.,0.4,0.4,1.,1.,-9.,9.,0.,-9.,9.,4.,0.,0.4,      133P    124
0.,0.,0.;                                                            133P    125
126,1,1,0,0,1,0,-0.6,-0.6,0.,0.,1.,1.,-3.,9.,4.,-9.,9.,4.,-0.6,      135P    126
0.,0.,0.,0.;                                                         135P    127
126,1,1,0,0,1,0,0.,0.,0.4,0.4,1.,1.,-3.,9.,0.,-3.,9.,4.,0.,0.4,      137P    128
0.,0.,0.;                                                            137P    129
126,1,1,0,0,1,0,0.3,0.3,1.2,1.2,1.,1.,-3.,5.55111512312578D-16,      139P    130
4.,-3.,9.,4.,0.3,1.2,0.,0.,0.;                                       139P    131
126,1,1,0,0,1,0,0.,0.,0.4,0.4,1.,1.,-3.,5.55111512312578D-16,0.,     141P    132
-3.,5.55111512312578D-16,4.,0.,0.4,0.,0.,0.;                         141P    133
126,4,2,0,0,0,0,-6.28318530717959,-6.28318530717959,                 143P    134
-6.28318530717959,-4.71238898038469,-4.71238898038469,               143P    135
-3.14159265358979,-3.14159265358979,-3.14159265358979,1.,            143P    136
0.707106781186548,1.,0.707106781186548,1.,3.,                        143P    137
-7.34788079488412D-16,4.,3.,-3.,4.,-5.51091059616309D-16,-3.,4.,     143P    138
-3.,-3.,4.,-3.,3.67394039744206D-16,4.,-6.28318530717959,            143P    139
-3.14159265358979,0.,0.,0.;                                          143P    140
126,1,1,0,0,1,0,-16.9,-16.9,-1.7,-1.7,1.,1.,160.,9.,4.,8.,9.,4.,     145P    141
-16.9,-1.7,0.,0.,0.;                                                 145P    142
126,1,1,0,0,1,0,0.,0.,0.4,0.4,1.,1.,160.,9.,0.,160.,9.,4.,0.,        147P    143
0.4,0.,0.,0.;                                                        147P    144
126,2,2,0,0,0,0,0.,0.,0.,1.5707963267949,1.5707963267949,            149P    145
1.5707963267949,1.,0.707106781186547,1.,169.,                        149P    146
8.62816615085482D-31,4.,169.,8.99999999999999,4.,160.,               149P    147
8.99999999999999,4.,0.,1.5707963267949,0.,0.,0.;                     149P    148
126,1,1,0,0,1,0,0.,0.,0.4,0.4,1.,1.,169.,0.,0.,169.,0.,4.,0.,        151P    149
0.4,0.,0.,0.;                                                        151P    150
126,1,1,0,0,1,0,-1.8,-1.8,-0.9,-0.9,1.,1.,169.,-9.,4.,169.,0.,       153P    151
4.,-1.8,-0.9,0.,0.,0.;                                               153P    152
126,1,1,0,0,1,0,0.,0.,0.4,0.4,1.,1.,169.,-9.,0.,169.,-9.,4.,0.,      155P    153
0.4,0.,0.,0.;                                                        155P    154
126,1,1,0,0,1,0,-0.599999999999998,-0.599999999999998,0.,0.,1.,      157P    155
1.,163.,-9.,4.,169.,-9.,4.,-0.599999999999998,0.,0.,0.,0.;           157P    156
126,1,1,0,0,1,0,0.,0.,0.4,0.4,1.,1.,163.,-9.,0.,163.,-9.,4.,0.,      159P    157
0.4,0.,0.,0.;                                                        159P    158
126,1,1,0,0,1,0,0.299999999999999,0.299999999999999,1.2,1.2,1.,      161P    159
1.,163.,0.,4.,163.,-9.,4.,0.299999999999999,1.2,0.,0.,0.;            161P    160
126,1,1,0,0,1,0,0.,0.,0.4,0.4,1.,1.,163.,0.,0.,163.,0.,4.,0.,        163P    161
0.4,0.,0.,0.;                                                        163P    162
126,4,2,0,0,0,0,-3.14159265358979,-3.14159265358979,                 165P    163
-3.14159265358979,-1.5707963267949,-1.5707963267949,0.,0.,0.,1.,     165P    164
0.707106781186556,1.,0.707106781186539,1.,157.,                      165P    165
3.67394039744208D-16,4.,157.,3.00000000000001,4.,160.,               165P    166
3.00000000000001,4.,163.,3.00000000000001,4.,163.,                   165P    167
8.62816615085482D-31,4.,-3.14159265358979,0.,0.,0.,0.;               165P    168
126,1,1,0,0,1,0,0.,0.,0.4,0.4,1.,1.,157.,0.,0.,157.,0.,4.,0.,        167P    169
0.4,0.,0.,0.;                                                        167P    170
126,1,1,0,0,1,0,0.5,0.5,0.9,0.9,1.,1.,157.,-4.,4.,157.,0.,4.,        169P    171
0.5,0.9,0.,0.,0.;                                                    169P    172
126,2,2,0,0,0,0,3.14159265358979,3.14159265358979,                   171P    173
3.14159265358979,4.71238898038469,4.71238898038469,                  171P    174
4.71238898038469,1.,0.707106781186548,1.,-9.,                        171P    175
1.10218211923262D-15,4.,-9.,-9.,4.,-1.65327317884893D-15,-9.,4.,     171P    176
3.14159265358979,4.71238898038469,0.,0.,0.;                          171P    177
128,1,2,1,2,0,0,0,0,0,0.,0.,0.8,0.8,-0.785398163397448,              173P    178
-0.785398163397448,-0.785398163397448,0.785398163397449,             173P    179
0.785398163397449,0.785398163397449,1.,1.,0.707106781186548,         173P    180
0.707106781186548,1.,1.,8.,9.,4.,8.,9.,0.,3.,9.,4.,3.,9.,0.,3.,      173P    181
4.,4.,3.,4.,0.,0.,0.8,-0.785398163397448,0.785398163397449;          173P    182
128,1,1,1,1,0,0,1,0,0,0.499,0.499,0.901,0.901,-0.001,-0.001,         175P    183
0.401,0.401,1.,1.,1.,1.,3.,4.01,-0.01,3.,-0.01,-0.01,3.,4.01,        175P    184
4.01,3.,-0.01,4.01,0.499,0.901,-0.001,0.401;                         175P    185
128,1,1,1,1,0,0,1,0,0,-8.901,-8.901,8.901,8.901,-0.901,-0.901,       177P    186
0.901,0.901,1.,1.,1.,1.,169.01,-9.01,0.,-9.00999999999999,-9.01,     177P    187
0.,169.01,9.01,0.,-9.00999999999999,9.01,0.,-8.901,8.901,-0.901,     177P    188
0.901;                                                               177P    189
128,1,2,1,2,0,0,0,0,0,0.,0.,0.8,0.8,-0.785398163397448,              179P    190
-0.785398163397448,-0.785398163397448,0.785398163397448,             179P    191
0.785398163397448,0.785398163397448,1.,1.,0.707106781186548,         179P    192
0.707106781186548,1.,1.,152.,-8.99999999999999,4.,152.,              179P    193
-8.99999999999999,0.,157.,-9.,4.,157.,-9.,0.,157.,-4.,4.,157.,       179P    194
-4.,0.,0.,0.8,-0.785398163397448,0.785398163397448;                  179P    195
128,1,1,1,1,0,0,1,0,0,-0.001,-0.001,15.201,15.201,-0.001,-0.001,     181P    196
0.401,0.401,1.,1.,1.,1.,-0.01,-9.,-0.01,152.01,-9.,-0.01,-0.01,      181P    197
-9.,4.01,152.01,-9.,4.01,-0.001,15.201,-0.001,0.401;                 181P    198
128,1,1,1,1,0,0,1,0,0,-0.001,-0.001,0.901,0.901,-0.001,-0.001,       183P    199
0.401,0.401,1.,1.,1.,1.,-9.,9.01,-0.01,-9.,-0.0099999999999989,      183P    200
-0.01,-9.,9.01,4.01,-9.,-0.0099999999999989,4.01,-0.001,0.901,       183P    201
-0.001,0.401;                                                        183P    202
128,1,1,1,1,0,0,1,0,0,-0.001,-0.001,0.601,0.601,-0.001,-0.001,       185P    203
0.401,0.401,1.,1.,1.,1.,-2.99,9.,-0.01,-9.01,9.,-0.01,-2.99,9.,      185P    204
4.01,-9.01,9.,4.01,-0.001,0.601,-0.001,0.401;                        185P    205
128,1,1,1,1,0,0,1,0,0,-0.00100000000000006,-0.00100000000000006,     187P    206
0.901,0.901,-0.001,-0.001,0.401,0.401,1.,1.,1.,1.,-3.,-0.01,         187P    207
-0.01,-3.,9.01,-0.01,-3.,-0.01,4.01,-3.,9.01,4.01,                   187P    208
-0.00100000000000006,0.901,-0.001,0.401;                             187P    209
128,1,4,1,2,0,0,0,0,0,0.,0.,1.33333333333333,1.33333333333333,       189P    210
-3.14159265358979,-3.14159265358979,-3.14159265358979,               189P    211
-1.5707963267949,-1.5707963267949,0.,0.,0.,1.,1.,                    189P    212
0.707106781186548,0.707106781186548,1.,1.,0.707106781186548,         189P    213
0.707106781186548,1.,1.,-3.,0.,0.,-3.,0.,4.,-3.,-3.,0.,-3.,-3.,      189P    214
4.,0.,-3.,0.,0.,-3.,4.,3.,-3.,0.,3.,-3.,4.,3.,0.,0.,3.,0.,4.,0.,     189P    215
1.33333333333333,-3.14159265358979,0.;                               189P    216
128,1,1,1,1,0,0,1,0,0,-0.001,-0.001,15.201,15.201,-0.001,-0.001,     191P    217
0.401,0.401,1.,1.,1.,1.,160.01,9.,-0.01,7.98999999999999,9.,         191P    218
-0.01,160.01,9.,4.01,7.98999999999999,9.,4.01,-0.001,15.201,         191P    219
-0.001,0.401;                                                        191P    220
128,1,2,1,2,0,0,0,0,0,0.,0.,0.444444444444445,0.444444444444445,     193P    221
-9.58685127872759D-32,-9.58685127872759D-32,                         193P    222
-9.58685127872759D-32,1.5707963267949,1.5707963267949,               193P    223
1.5707963267949,1.,1.,0.707106781186547,0.707106781186547,1.,1.,     193P    224
169.,8.62816615085482D-31,4.,169.,8.62816615085482D-31,0.,169.,      193P    225
8.99999999999999,4.,169.,8.99999999999999,0.,160.,                   193P    226
8.99999999999999,4.,160.,8.99999999999999,0.,0.,                     193P    227
0.444444444444445,-9.58685127872759D-32,1.5707963267949;             193P    228
128,1,1,1,1,0,0,1,0,0,-0.001,-0.001,0.901,0.901,-0.001,-0.001,       195P    229
0.401,0.401,1.,1.,1.,1.,169.,-9.01,-0.01,169.,0.01,-0.01,169.,       195P    230
-9.01,4.01,169.,0.01,4.01,-0.001,0.901,-0.001,0.401;                 195P    231
128,1,1,1,1,0,0,1,0,0,-0.001,-0.001,0.600999999999998,               197P    232
0.600999999999998,-0.001,-0.001,0.401,0.401,1.,1.,1.,1.,162.99,      197P    233
-9.,-0.01,169.01,-9.,-0.01,162.99,-9.,4.01,169.01,-9.,4.01,          197P    234
-0.001,0.600999999999998,-0.001,0.401;                               197P    235
128,1,1,1,1,0,0,1,0,0,-0.00100000000000006,-0.00100000000000006,     199P    236
0.901,0.901,-0.001,-0.001,0.401,0.401,1.,1.,1.,1.,163.,              199P    237
0.0100000000000006,-0.01,163.,-9.01,-0.01,163.,                      199P    238
0.0100000000000006,4.01,163.,-9.01,4.01,-0.00100000000000006,        199P    239
0.901,-0.001,0.401;                                                  199P    240
128,1,4,1,2,0,0,0,0,0,0.,0.,1.33333333333333,1.33333333333333,       201P    241
-2.87605538361827D-31,-2.87605538361827D-31,                         201P    242
-2.87605538361827D-31,1.5707963267949,1.5707963267949,               201P    243
3.14159265358979,3.14159265358979,3.14159265358979,1.,1.,            201P    244
0.707106781186548,0.707106781186548,1.,1.,0.707106781186548,         201P    245
0.707106781186548,1.,1.,163.,8.62816615085482D-31,0.,163.,           201P    246
8.62816615085482D-31,4.,163.,3.00000000000001,0.,163.,               201P    247
3.00000000000001,4.,160.,3.00000000000001,0.,160.,                   201P    248
3.00000000000001,4.,157.,3.00000000000001,0.,157.,                   201P    249
3.00000000000001,4.,157.,8.62816615085482D-31,0.,157.,               201P    250
8.62816615085482D-31,4.,0.,1.33333333333333,                         201P    251
-2.87605538361827D-31,3.14159265358979;                              201P    252
128,1,1,1,1,0,0,1,0,0,0.499,0.499,0.901,0.901,-0.001,-0.001,         203P    253
0.401,0.401,1.,1.,1.,1.,157.,-4.01,-0.01,157.,0.01,-0.01,157.,       203P    254
-4.01,4.01,157.,0.01,4.01,0.499,0.901,-0.001,0.401;                  203P    255
128,1,2,1,2,0,0,0,0,0,0.,0.,0.444444444444444,0.444444444444444,     205P    256
-3.14159265358979,-3.14159265358979,-3.14159265358979,               205P    257
-1.5707963267949,-1.5707963267949,-1.5707963267949,1.,1.,            205P    258
0.707106781186548,0.707106781186548,1.,1.,-9.,0.,4.,-9.,0.,0.,       205P    259
-9.,-9.,4.,-9.,-9.,0.,0.,-9.,4.,0.,-9.,0.,0.,0.444444444444444,      205P    260
-3.14159265358979,-1.5707963267949;                                  205P    261
128,1,1,1,1,0,0,1,0,0,-8.901,-8.901,8.901,8.901,-0.901,-0.901,       207P    262
0.901,0.901,1.,1.,1.,1.,-9.00999999999999,-9.01,4.,169.01,-9.01,     207P    263
4.,-9.00999999999999,9.01,4.,169.01,9.01,4.,-8.901,8.901,-0.901,     207P    264
0.901;                                                               207P    265
502,32,3.,4.,4.,8.,9.,4.,8.,9.,0.,3.,4.,0.,3.,0.,0.,3.,0.,4.,        209P    266
160.,9.,0.,169.,0.,0.,169.,-9.,0.,163.,-9.,0.,163.,0.,0.,157.,       209P    267
0.,0.,157.,-4.,0.,152.,-9.,0.,0.,-9.,0.,-9.,                         209P    268
1.11022302462516D-15,0.,-9.,9.,0.,-3.,9.,0.,-3.,                     209P    269
5.55111512312578D-16,0.,157.,-4.,4.,152.,-9.,4.,0.,-9.,4.,-9.,       209P    270
1.11022302462516D-15,4.,-9.,9.,4.,-3.,9.,4.,-3.,                     209P    271
5.55111512312578D-16,4.,160.,9.,4.,169.,0.,4.,169.,-9.,4.,163.,      209P    272
-9.,4.,163.,0.,4.,157.,0.,4.;                                        209P    273
504,48,77,209,1,209,2,79,209,2,209,3,81,209,3,209,4,83,209,4,        211P    274
209,1,85,209,4,209,5,87,209,5,209,6,89,209,1,209,6,91,209,3,209,     211P    275
7,93,209,8,209,7,95,209,8,209,9,97,209,9,209,10,99,209,11,209,       211P    276
10,101,209,11,209,12,103,209,13,209,12,105,209,14,209,13,107,        211P    277
209,14,209,15,109,209,16,209,15,111,209,16,209,17,113,209,17,        211P    278
209,18,115,209,19,209,18,117,209,19,209,5,119,209,20,209,21,121,     211P    279
209,21,209,14,123,209,13,209,20,125,209,22,209,21,127,209,15,        211P    280
209,22,129,209,16,209,23,131,209,24,209,23,133,209,17,209,24,        211P    281
135,209,25,209,24,137,209,18,209,25,139,209,26,209,25,141,209,       211P    282
19,209,26,143,209,6,209,26,145,209,27,209,2,147,209,7,209,27,        211P    283
149,209,28,209,27,151,209,8,209,28,153,209,29,209,28,155,209,9,      211P    284
209,29,157,209,30,209,29,159,209,10,209,30,161,209,31,209,30,        211P    285
163,209,11,209,31,165,209,32,209,31,167,209,12,209,32,169,209,       211P    286
20,209,32,171,209,23,209,22;                                         211P    287
406,1,5HBody1;                                                       213P    288
314,62.7450980392157,62.7450980392157,62.7450980392157,13HSteel      215P    289
- Satin;                                                             215P    290
S      1G      3D    216P    290                                        T      1
