0
SECTION
2
HEADER
9
$INSUNITS
70
4
9
$ACADVER
1
AC1014
9
$HANDSEED
5
FFFF
0
ENDSEC
0
SECTION
2
TABLES
0
TABLE
2
VPORT
5
8
100
AcDbSymbolTable
0
ENDTAB
0
TABLE
2
LTYPE
5
5
100
AcDbSymbolTable
0
LTYPE
5
14
100
AcDbSymbolTableRecord
100
AcDbLinetypeTableRecord
2
BYBLOCK
70
0
0
LTYPE
5
15
100
AcDbSymbolTableRecord
100
AcDbLinetypeTableRecord
2
BYLAYER
70
0
0
ENDTAB
0
TABLE
2
LAYER
5
2
100
AcDbSymbolTable
70
2
0
LAYER
5
50
100
AcDbSymbolTableRecord
100
AcDbLayerTableRecord
2
0
70
0
6
CONTINUOUS
0
ENDTAB
0
TABLE
2
STYLE
5
3
100
AcDbSymbolTable
70
1
0
STYLE
5
11
100
AcDbSymbolTableRecord
100
AcDbTextStyleTableRecord
2
STANDARD
70
0
0
ENDTAB
0
TABLE
2
VIEW
5
6
100
AcDbSymbolTable
70
0
0
ENDTAB
0
TABLE
2
UCS
5
7
100
AcDbSymbolTable
70
0
0
ENDTAB
0
TABLE
2
APPID
5
9
100
AcDbSymbolTable
70
2
0
APPID
5
12
100
AcDbSymbolTableRecord
100
AcDbRegAppTableRecord
2
ACAD
70
0
0
ENDTAB
0
TABLE
2
DIMSTYLE
5
A
100
AcDbSymbolTable
70
1
0
ENDTAB
0
TABLE
2
BLOCK_RECORD
5
1
100
AcDbSymbolTable
70
1
0
BLOCK_RECORD
5
1F
100
AcDbSymbolTableRecord
100
AcDbBlockTableRecord
2
*MODEL_SPACE
0
BLOCK_RECORD
5
1B
100
AcDbSymbolTableRecord
100
AcDbBlockTableRecord
2
*PAPER_SPACE
0
ENDTAB
0
ENDSEC
0
SECTION
2
BLOCKS
0
BLOCK
5
20
100
AcDbEntity
100
AcDbBlockBegin
2
*MODEL_SPACE
0
ENDBLK
5
21
100
AcDbEntity
100
AcDbBlockEnd
0
BLOCK
5
1C
100
AcDbEntity
100
AcDbBlockBegin
2
*PAPER_SPACE
0
ENDBLK
5
1D
100
AcDbEntity
100
AcDbBlockEnd
0
ENDSEC
0
SECTION
2
ENTITIES
0
SPLINE
5
100
100
AcDbEntity
8
0
100
AcDbSpline
70
4
71
5
72
81
73
75
74
0
42
0.000000001
43
0.0000000001
44
0.0000000001
40
0
40
0
40
0
40
0
40
0
40
0
40
0.014285714285714285
40
0.028571428571428571
40
0.042857142857142858
40
0.057142857142857141
40
0.071428571428571425
40
0.085714285714285715
40
0.10000000000000001
40
0.1142857142857143
40
0.12857142857142859
40
0.14285714285714288
40
0.15714285714285717
40
0.17142857142857146
40
0.18571428571428575
40
0.20000000000000004
40
0.21428571428571433
40
0.22857142857142862
40
0.24285714285714291
40
0.25714285714285717
40
0.27142857142857146
40
0.28571428571428575
40
0.30000000000000004
40
0.31428571428571433
40
0.32857142857142863
40
0.34285714285714292
40
0.35714285714285721
40
0.3714285714285715
40
0.38571428571428579
40
0.40000000000000008
40
0.41428571428571437
40
0.42857142857142866
40
0.44285714285714295
40
0.45714285714285724
40
0.47142857142857153
40
0.48571428571428582
40
0.50000000000000011
40
0.51428571428571435
40
0.52857142857142858
40
0.54285714285714282
40
0.55714285714285705
40
0.57142857142857129
40
0.58571428571428552
40
0.59999999999999976
40
0.61428571428571399
40
0.62857142857142823
40
0.64285714285714246
40
0.6571428571428567
40
0.67142857142857093
40
0.68571428571428517
40
0.6999999999999994
40
0.71428571428571364
40
0.72857142857142787
40
0.74285714285714211
40
0.75714285714285634
40
0.77142857142857058
40
0.78571428571428481
40
0.79999999999999905
40
0.81428571428571328
40
0.82857142857142752
40
0.84285714285714175
40
0.85714285714285599
40
0.87142857142857022
40
0.88571428571428445
40
0.89999999999999869
40
0.91428571428571292
40
0.92857142857142716
40
0.94285714285714139
40
0.95714285714285563
40
0.97142857142856986
40
0.9857142857142841
40
1
40
1
40
1
40
1
40
1
40
1
41
1
41
1
41
1
41
1
41
1
41
1
41
1
41
1
41
1
41
1
41
1
41
1
41
1
41
1
41
1
41
1
41
1
41
1
41
1
41
1
41
1
41
1
41
1
41
1
41
1
41
1
41
1
41
1
41
1
41
1
41
1
41
1
41
1
41
1
41
1
41
1
41
1
41
1
41
1
41
1
41
1
41
1
41
1
41
1
41
1
41
1
41
1
41
1
41
1
41
1
41
1
41
1
41
1
41
1
41
1
41
1
41
1
41
1
41
1
41
1
41
1
41
1
41
1
41
1
41
1
41
1
41
1
41
1
41
1
41
1
41
1
41
1
41
1
41
1
41
1
10
22.508688720754261
20
-1.4070293850717874
30
0
10
22.51727471293102
20
-1.4075531175162381
30
0
10
22.534449405486438
20
-1.4084058948589169
30
0
10
22.56021956892517
20
-1.4091010028151298
30
0
10
22.594595790112407
20
-1.4089156493426913
30
0
10
22.637591092181204
20
-1.4071555599530488
30
0
10
22.68060893821449
20
-1.4042823007658247
30
0
10
22.723646207700803
20
-1.400707922052888
30
0
10
22.766699335364208
20
-1.3967435590678992
30
0
10
22.80976450821651
20
-1.3925140797088853
30
0
10
22.852837890741256
20
-1.3880171395110665
30
0
10
22.895915852592967
20
-1.3831728600728348
30
0
10
22.938995186302442
20
-1.3778754616632489
30
0
10
22.982073351079642
20
-1.3720474696814522
30
0
10
23.025148643047594
20
-1.365682601594379
30
0
10
23.068219940851186
20
-1.3588191268936669
30
0
10
23.111286497732383
20
-1.3515211317337847
30
0
10
23.154347724720893
20
-1.3438576135227369
30
0
10
23.197402958110686
20
-1.335880537508094
30
0
10
23.240451294402561
20
-1.3276093843817809
30
0
10
23.283491700787064
20
-1.3190432762069568
30
0
10
23.326523085296586
20
-1.310169039595048
30
0
10
23.369544378563809
20
-1.3009704035232248
30
0
10
23.41255462047847
20
-1.2914377487614739
30
0
10
23.455553014137088
20
-1.2815743498276908
30
0
10
23.498538871866401
20
-1.2713911200306076
30
0
10
23.541511579723334
20
-1.2609033180998273
30
0
10
23.58447055695715
20
-1.2501266968188207
30
0
10
23.627415212879498
20
-1.2390734001842603
30
0
10
23.670344920740369
20
-1.2277495587445466
30
0
10
23.713259038471346
20
-1.2161576018565743
30
0
10
23.756156920837629
20
-1.2042976965413481
30
0
10
23.79903793420862
20
-1.1921694365655728
30
0
10
23.841901472486278
20
-1.1797736523507165
30
0
10
23.884746965679593
20
-1.1671134297205146
30
0
10
23.927573869662034
20
-1.1541931303508535
30
0
10
23.970381659729618
20
-1.1410178018140875
30
0
10
24.013169823158108
20
-1.1275924760881695
30
0
10
24.055937851509427
20
-1.1139214205649142
30
0
10
24.098685235956609
20
-1.1000077300073299
30
0
10
24.141411469964829
20
-1.0858537550631522
30
0
10
24.18411605063314
20
-1.0714613674895954
30
0
10
24.226798480631359
20
-1.056832273872226
30
0
10
24.269458270283263
20
-1.0419683522481147
30
0
10
24.312094938991272
20
-1.0268718428939727
30
0
10
24.354708014608406
20
-1.0115451672782341
30
0
10
24.397297033452556
20
-0.99599082080869106
30
0
10
24.43986154010269
20
-0.98021124489707401
30
0
10
24.482401087820701
20
-0.96420869304631507
30
0
10
24.524915237803139
20
-0.94798515401900896
30
0
10
24.567403555486532
20
-0.93154243444847484
30
0
10
24.609865607409624
20
-0.91488221328771324
30
0
10
24.65230095838799
20
-0.89800610547838811
30
0
10
24.694709167935539
20
-0.88091573120054389
30
0
10
24.737089789741326
20
-0.8636127591043592
30
0
10
24.779442379906207
20
-0.84609886147928259
30
0
10
24.821766504174541
20
-0.8283756855066976
30
0
10
24.864061745026614
20
-0.81044482142478924
30
0
10
24.906327710826869
20
-0.79230776935543323
30
0
10
24.94856403896091
20
-0.77396592078646442
30
0
10
24.99077037496917
20
-0.75542059875416689
30
0
10
25.03294635494823
20
-0.73667309111056067
30
0
10
25.075091588021202
20
-0.71772468601737716
30
0
10
25.117205636307215
20
-0.69857671243547625
30
0
10
25.159288004012584
20
-0.67923056682181404
30
0
10
25.201338180787868
20
-0.65968764962017545
30
0
10
25.24335567928043
20
-0.63994931322652304
30
0
10
25.285340074403756
20
-0.62001680743962295
30
0
10
25.327291043996997
20
-0.59989122604280332
30
0
10
25.369208404087725
20
-0.57957345778401503
30
0
10
25.411092070884106
20
-0.55906419005060748
30
0
10
25.444572036681233
20
-0.54250396576061244
30
0
10
25.469666849347302
20
-0.5299979720561947
30
0
10
25.486389988176761
20
-0.52162251092616241
30
0
10
25.494749873520849
20
-0.51742524736280793
30
0
0
SPLINE
5
101
100
AcDbEntity
8
0
100
AcDbSpline
70
4
71
5
72
81
73
75
74
0
42
0.000000001
43
0.0000000001
44
0.0000000001
40
0
40
0
40
0
40
0
40
0
40
0
40
0.014285714285714285
40
0.028571428571428571
40
0.042857142857142858
40
0.057142857142857141
40
0.071428571428571425
40
0.085714285714285715
40
0.10000000000000001
40
0.1142857142857143
40
0.12857142857142859
40
0.14285714285714288
40
0.15714285714285717
40
0.17142857142857146
40
0.18571428571428575
40
0.20000000000000004
40
0.21428571428571433
40
0.22857142857142862
40
0.24285714285714291
40
0.25714285714285717
40
0.27142857142857146
40
0.28571428571428575
40
0.30000000000000004
40
0.31428571428571433
40
0.32857142857142863
40
0.34285714285714292
40
0.35714285714285721
40
0.3714285714285715
40
0.38571428571428579
40
0.40000000000000008
40
0.41428571428571437
40
0.42857142857142866
40
0.44285714285714295
40
0.45714285714285724
40
0.47142857142857153
40
0.48571428571428582
40
0.50000000000000011
40
0.51428571428571435
40
0.52857142857142858
40
0.54285714285714282
40
0.55714285714285705
40
0.57142857142857129
40
0.58571428571428552
40
0.59999999999999976
40
0.61428571428571399
40
0.62857142857142823
40
0.64285714285714246
40
0.6571428571428567
40
0.67142857142857093
40
0.68571428571428517
40
0.6999999999999994
40
0.71428571428571364
40
0.72857142857142787
40
0.74285714285714211
40
0.75714285714285634
40
0.77142857142857058
40
0.78571428571428481
40
0.79999999999999905
40
0.81428571428571328
40
0.82857142857142752
40
0.84285714285714175
40
0.85714285714285599
40
0.87142857142857022
40
0.88571428571428445
40
0.89999999999999869
40
0.91428571428571292
40
0.92857142857142716
40
0.94285714285714139
40
0.95714285714285563
40
0.97142857142856986
40
0.9857142857142841
40
1
40
1
40
1
40
1
40
1
40
1
41
1
41
1
41
1
41
1
41
1
41
1
41
1
41
1
41
1
41
1
41
1
41
1
41
1
41
1
41
1
41
1
41
1
41
1
41
1
41
1
41
1
41
1
41
1
41
1
41
1
41
1
41
1
41
1
41
1
41
1
41
1
41
1
41
1
41
1
41
1
41
1
41
1
41
1
41
1
41
1
41
1
41
1
41
1
41
1
41
1
41
1
41
1
41
1
41
1
41
1
41
1
41
1
41
1
41
1
41
1
41
1
41
1
41
1
41
1
41
1
41
1
41
1
41
1
41
1
41
1
41
1
41
1
41
1
41
1
41
1
41
1
41
1
41
1
41
1
41
1
10
22.508688720754261
20
1.4070293850717874
30
0
10
22.51727471293102
20
1.4075531175162381
30
0
10
22.534449405486438
20
1.4084058948589169
30
0
10
22.56021956892517
20
1.4091010028151298
30
0
10
22.594595790112407
20
1.4089156493426913
30
0
10
22.637591092181204
20
1.4071555599530488
30
0
10
22.68060893821449
20
1.4042823007658247
30
0
10
22.723646207700803
20
1.400707922052888
30
0
10
22.766699335364208
20
1.3967435590678992
30
0
10
22.80976450821651
20
1.3925140797088853
30
0
10
22.852837890741256
20
1.3880171395110665
30
0
10
22.895915852592967
20
1.3831728600728348
30
0
10
22.938995186302442
20
1.3778754616632489
30
0
10
22.982073351079642
20
1.3720474696814522
30
0
10
23.025148643047594
20
1.365682601594379
30
0
10
23.068219940851186
20
1.3588191268936669
30
0
10
23.111286497732383
20
1.3515211317337847
30
0
10
23.154347724720893
20
1.3438576135227369
30
0
10
23.197402958110686
20
1.335880537508094
30
0
10
23.240451294402561
20
1.3276093843817809
30
0
10
23.283491700787064
20
1.3190432762069568
30
0
10
23.326523085296586
20
1.310169039595048
30
0
10
23.369544378563809
20
1.3009704035232248
30
0
10
23.41255462047847
20
1.2914377487614739
30
0
10
23.455553014137088
20
1.2815743498276908
30
0
10
23.498538871866401
20
1.2713911200306076
30
0
10
23.541511579723334
20
1.2609033180998273
30
0
10
23.58447055695715
20
1.2501266968188207
30
0
10
23.627415212879498
20
1.2390734001842603
30
0
10
23.670344920740369
20
1.2277495587445466
30
0
10
23.713259038471346
20
1.2161576018565743
30
0
10
23.756156920837629
20
1.2042976965413481
30
0
10
23.79903793420862
20
1.1921694365655728
30
0
10
23.841901472486278
20
1.1797736523507165
30
0
10
23.884746965679593
20
1.1671134297205146
30
0
10
23.927573869662034
20
1.1541931303508535
30
0
10
23.970381659729618
20
1.1410178018140875
30
0
10
24.013169823158108
20
1.1275924760881695
30
0
10
24.055937851509427
20
1.1139214205649142
30
0
10
24.098685235956609
20
1.1000077300073299
30
0
10
24.141411469964829
20
1.0858537550631522
30
0
10
24.18411605063314
20
1.0714613674895954
30
0
10
24.226798480631359
20
1.056832273872226
30
0
10
24.269458270283263
20
1.0419683522481147
30
0
10
24.312094938991272
20
1.0268718428939727
30
0
10
24.354708014608406
20
1.0115451672782341
30
0
10
24.397297033452556
20
0.99599082080869106
30
0
10
24.43986154010269
20
0.98021124489707401
30
0
10
24.482401087820701
20
0.96420869304631507
30
0
10
24.524915237803139
20
0.94798515401900896
30
0
10
24.567403555486532
20
0.93154243444847484
30
0
10
24.609865607409624
20
0.91488221328771324
30
0
10
24.65230095838799
20
0.89800610547838811
30
0
10
24.694709167935539
20
0.88091573120054389
30
0
10
24.737089789741326
20
0.8636127591043592
30
0
10
24.779442379906207
20
0.84609886147928259
30
0
10
24.821766504174541
20
0.8283756855066976
30
0
10
24.864061745026614
20
0.81044482142478924
30
0
10
24.906327710826869
20
0.79230776935543323
30
0
10
24.94856403896091
20
0.77396592078646442
30
0
10
24.99077037496917
20
0.75542059875416689
30
0
10
25.03294635494823
20
0.73667309111056067
30
0
10
25.075091588021202
20
0.71772468601737716
30
0
10
25.117205636307215
20
0.69857671243547625
30
0
10
25.159288004012584
20
0.67923056682181404
30
0
10
25.201338180787868
20
0.65968764962017545
30
0
10
25.24335567928043
20
0.63994931322652304
30
0
10
25.285340074403756
20
0.62001680743962295
30
0
10
25.327291043996997
20
0.59989122604280332
30
0
10
25.369208404087725
20
0.57957345778401503
30
0
10
25.411092070884106
20
0.55906419005060748
30
0
10
25.444572036681233
20
0.54250396576061244
30
0
10
25.469666849347302
20
0.5299979720561947
30
0
10
25.486389988176761
20
0.52162251092616241
30
0
10
25.494749873520849
20
0.51742524736280793
30
0
0
ARC
5
102
100
AcDbEntity
8
0
100
AcDbCircle
10
3.4194869158454821e-11
20
0
30
0
40
25.499999999973632
210
0
220
0
230
1
100
AcDbArc
50
-1.1626791236413527
51
1.162679123641351
0
LINE
5
103
100
AcDbEntity
8
0
100
AcDbLine
10
22.096071200289188
20
-1.3818603448295528
30
0
11
22.508688720754261
21
-1.4070293850717874
31
0
0
LINE
5
104
100
AcDbEntity
8
0
100
AcDbLine
10
22.096071200289188
20
1.3818603448295528
30
0
11
22.508688720754261
21
1.4070293850717874
31
0
0
LINE
5
105
100
AcDbEntity
8
0
100
AcDbLine
10
22.096071200289188
20
-1.3818603448295528
30
0
11
22.096071200289188
21
1.3818603448295528
31
0
0
ENDSEC
0
SECTION
2
OBJECTS
0
DICTIONARY
5
C
100
AcDbDictionary
3
ACAD_GROUP
350
D
3
ACAD_MLINESTYLE
350
17
0
DICTIONARY
5
D
100
AcDbDictionary
0
DICTIONARY
5
1A
330
C
100
AcDbDictionary
0
DICTIONARY
5
17
100
AcDbDictionary
0
ENDSEC
0
EOF
