                                                                        S      1
,,26HSleeping Room - Cabinet v3,25HSleeping Room  Cabinet v3,7Hunknown, G      1
7Hunknown,32,38,7,99,15,,1.,2,2HMM,1,0.08,15H20220922.115220,0.01,      G      2
10000.,7Hunknown,7Hunknown,11,0,15H20201212.191712;                     G      3
     186       1                                                00000000D      1
     186            -131       1       0                               0D      2
     514       2                                                00010000D      3
     514                       1       1                               0D      4
     510       3                                                00010000D      5
     510            -131       1       1                               0D      6
     510       4                                                00010000D      7
     510            -131       1       1                               0D      8
     510       5                                                00010000D      9
     510            -131       1       1                               0D     10
     510       6                                                00010000D     11
     510            -131       1       1                               0D     12
     510       7                                                00010000D     13
     510            -131       1       1                               0D     14
     510       8                                                00010000D     15
     510            -131       1       1                               0D     16
     510       9                                                00010000D     17
     510            -131       1       1                               0D     18
     510      10                                                00010000D     19
     510            -131       1       1                               0D     20
     510      11                                                00010000D     21
     510            -131       1       1                               0D     22
     510      12                                                00010000D     23
     510            -131       1       1                               0D     24
     510      13                                                00010000D     25
     510            -131       1       1                               0D     26
     508      14                                                00010000D     27
     508                       1       1                               0D     28
     508      15                                                00010000D     29
     508                       1       1                               0D     30
     508      16                                                00010000D     31
     508                       1       1                               0D     32
     508      17                                                00010000D     33
     508                       1       1                               0D     34
     508      18                                                00010000D     35
     508                       1       1                               0D     36
     508      19                                                00010000D     37
     508                       1       1                               0D     38
     508      20                                                00010000D     39
     508                       1       1                               0D     40
     508      21                                                00010000D     41
     508                       1       1                               0D     42
     508      22                                                00010000D     43
     508                       1       1                               0D     44
     508      23                                                00010000D     45
     508                       2       1                               0D     46
     508      25                                                00010000D     47
     508                       2       1                               0D     48
     126      27                                                00010000D     49
     126       0               2       0                               0D     50
     126      29                                                00010000D     51
     126       0               2       0                               0D     52
     126      31                                                00010000D     53
     126       0               2       0                               0D     54
     126      33                                                00010000D     55
     126       0               2       0                               0D     56
     126      35                                                00010000D     57
     126       0               2       0                               0D     58
     126      37                                                00010000D     59
     126       0               2       0                               0D     60
     126      39                                                00010000D     61
     126       0               3       0                               0D     62
     126      42                                                00010000D     63
     126       0               2       0                               0D     64
     126      44                                                00010000D     65
     126       0               3       0                               0D     66
     126      47                                                00010000D     67
     126       0               2       0                               0D     68
     126      49                                                00010000D     69
     126       0               3       0                               0D     70
     126      52                                                00010000D     71
     126       0               2       0                               0D     72
     126      54                                                00010000D     73
     126       0               2       0                               0D     74
     126      56                                                00010000D     75
     126       0               2       0                               0D     76
     126      58                                                00010000D     77
     126       0               2       0                               0D     78
     126      60                                                00010000D     79
     126       0               2       0                               0D     80
     126      62                                                00010000D     81
     126       0               2       0                               0D     82
     126      64                                                00010000D     83
     126       0               2       0                               0D     84
     126      66                                                00010000D     85
     126       0               2       0                               0D     86
     126      68                                                00010000D     87
     126       0               2       0                               0D     88
     126      70                                                00010000D     89
     126       0               2       0                               0D     90
     126      72                                                00010000D     91
     126       0               2       0                               0D     92
     126      74                                                00010000D     93
     126       0               2       0                               0D     94
     126      76                                                00010000D     95
     126       0               2       0                               0D     96
     126      78                                                00010000D     97
     126       0               2       0                               0D     98
     126      80                                                00010000D     99
     126       0               2       0                               0D    100
     126      82                                                00010000D    101
     126       0               2       0                               0D    102
     128      84                                                00010000D    103
     128       0    -131       4       0                               0D    104
     128      88                                                00010000D    105
     128       0    -131       3       0                               0D    106
     128      91                                                00010000D    107
     128       0    -131       5       0                               0D    108
     128      96                                                00010000D    109
     128       0    -131       4       0                               0D    110
     128     100                                                00010000D    111
     128       0    -131       6       0                               0D    112
     128     106                                                00010000D    113
     128       0    -131       4       0                               0D    114
     128     110                                                00010000D    115
     128       0    -131       4       0                               0D    116
     128     114                                                00010000D    117
     128       0    -131       4       0                               0D    118
     128     118                                                00010000D    119
     128       0    -131       4       0                               0D    120
     128     122                                                00010000D    121
     128       0    -131       4       0                               0D    122
     128     126                                                00010000D    123
     128       0    -131       4       0                               0D    124
     502     130                                                00010000D    125
     502                       5       1                               0D    126
     504     135                                                00010001D    127
     504                       7       1                               0D    128
     406     142                                                00000000D    129
     406                       1      15                               0D    130
     314     143                                                00000200D    131
     314                       1       0                               0D    132
     314     144                                                00000200D    133
     314                       2       0                               0D    134
186,3,1,0,0,1,129;                                                     1P      1
514,11,5,1,7,1,9,1,11,1,13,1,15,1,17,1,19,1,21,1,23,1,25,1;            3P      2
510,103,1,1,27;                                                        5P      3
510,105,1,1,29;                                                        7P      4
510,107,1,1,31;                                                        9P      5
510,109,1,1,33;                                                       11P      6
510,111,1,1,35;                                                       13P      7
510,113,1,1,37;                                                       15P      8
510,115,1,1,39;                                                       17P      9
510,117,1,1,41;                                                       19P     10
510,119,1,1,43;                                                       21P     11
510,121,1,1,45;                                                       23P     12
510,123,1,1,47;                                                       25P     13
508,4,0,127,1,0,0,0,127,2,1,0,0,127,3,0,0,0,127,4,0,0;                27P     14
508,4,0,127,5,0,0,0,127,4,1,0,0,127,6,0,0,0,127,7,0,0;                29P     15
508,4,0,127,8,0,0,0,127,7,1,0,0,127,9,0,0,0,127,10,0,0;               31P     16
508,4,0,127,11,0,0,0,127,10,1,0,0,127,12,0,0,0,127,13,0,0;            33P     17
508,4,0,127,14,0,0,0,127,13,1,0,0,127,15,0,0,0,127,16,0,0;            35P     18
508,4,0,127,17,1,0,0,127,16,1,0,0,127,18,0,0,0,127,19,0,0;            37P     19
508,4,0,127,20,1,0,0,127,19,1,0,0,127,21,0,0,0,127,22,0,0;            39P     20
508,4,0,127,23,1,0,0,127,22,1,0,0,127,24,0,0,0,127,25,0,0;            41P     21
508,4,0,127,26,0,0,0,127,25,1,0,0,127,27,0,0,0,127,2,0,0;             43P     22
508,9,0,127,27,1,0,0,127,24,1,0,0,127,21,1,0,0,127,18,1,0,0,127,      45P     23
15,1,0,0,127,12,1,0,0,127,9,1,0,0,127,6,1,0,0,127,3,1,0;              45P     24
508,9,0,127,26,1,0,0,127,1,1,0,0,127,5,1,0,0,127,8,1,0,0,127,11,      47P     25
1,0,0,127,14,1,0,0,127,17,0,0,0,127,20,0,0,0,127,23,0,0;              47P     26
126,1,1,0,0,1,0,0.,0.,22.6,22.6,1.,1.,-3.,0.,-3.,223.,0.,-3.,0.,      49P     27
22.6,0.,0.,0.;                                                        49P     28
126,1,1,0,0,1,0,0.,0.,40.,40.,1.,1.,-3.,0.,-3.,-3.,400.,-3.,0.,       51P     29
40.,0.,0.,0.;                                                         51P     30
126,1,1,0,0,1,0,-22.6,-22.6,0.,0.,1.,1.,223.,400.,-3.,-3.,400.,       53P     31
-3.,-22.6,0.,0.,0.,0.;                                                53P     32
126,1,1,0,0,1,0,0.,0.,40.,40.,1.,1.,223.,0.,-3.,223.,400.,-3.,        55P     33
0.,40.,0.,0.,0.;                                                      55P     34
126,1,1,0,0,1,0,0.,0.,0.3,0.3,1.,1.,223.,0.,-3.,223.,0.,0.,0.,        57P     35
0.3,0.,0.,0.;                                                         57P     36
126,1,1,0,0,1,0,-0.3,-0.3,0.,0.,1.,1.,223.,400.,0.,223.,400.,         59P     37
-3.,-0.3,0.,0.,0.,0.;                                                 59P     38
126,1,1,0,0,1,0,0.,0.,40.,40.,1.,1.,223.,0.,                          61P     39
1.71792951039341D-31,223.,400.,1.71792951039341D-31,0.,40.,0.,        61P     40
0.,0.;                                                                61P     41
126,1,1,0,0,1,0,0.,0.,22.3,22.3,1.,1.,223.,0.,                        63P     42
1.71792951039341D-31,0.,0.,2.2804374031771D-33,0.,22.3,0.,0.,0.;      63P     43
126,1,1,0,0,1,0,-22.3,-22.3,0.,0.,1.,1.,0.,400.,                      65P     44
2.2804374031771D-33,223.,400.,1.71792951039341D-31,-22.3,0.,0.,       65P     45
0.,0.;                                                                65P     46
126,1,1,0,0,1,0,0.,0.,40.,40.,1.,1.,0.,0.,2.2804374031771D-33,        67P     47
0.,400.,2.2804374031771D-33,0.,40.,0.,0.,0.;                          67P     48
126,1,1,0,0,1,0,2.2804374031771D-34,2.2804374031771D-34,6.46,         69P     49
6.46,1.,1.,0.,0.,2.2804374031771D-33,0.,0.,64.6,                      69P     50
2.2804374031771D-34,6.46,0.,0.,0.;                                    69P     51
126,1,1,0,0,1,0,-6.46,-6.46,0.,0.,1.,1.,0.,400.,64.6,0.,400.,         71P     52
2.2804374031771D-33,-6.46,0.,0.,0.,0.;                                71P     53
126,1,1,0,0,1,0,0.,0.,40.,40.,1.,1.,0.,0.,64.6,0.,400.,64.6,0.,       73P     54
40.,0.,0.,0.;                                                         73P     55
126,1,1,0,0,1,0,0.,0.,21.409177938445,21.409177938445,1.,1.,0.,       75P     56
0.,64.6,120.,0.,241.9,0.,21.409177938445,0.,0.,0.;                    75P     57
126,1,1,0,0,1,0,-21.409177938445,-21.409177938445,0.,0.,1.,1.,        77P     58
120.,400.,241.9,0.,400.,64.6,-21.409177938445,0.,0.,0.,0.;            77P     59
126,1,1,0,0,1,0,0.,0.,40.,40.,1.,1.,120.,0.,241.9,120.,400.,          79P     60
241.9,0.,40.,0.,0.,0.;                                                79P     61
126,1,1,0,0,1,0,0.,0.,10.3,10.3,1.,1.,223.,0.,241.9,120.,0.,          81P     62
241.9,0.,10.3,0.,0.,0.;                                               81P     63
126,1,1,0,0,1,0,0.,0.,10.3,10.3,1.,1.,223.,400.,241.9,120.,400.,      83P     64
241.9,0.,10.3,0.,0.,0.;                                               83P     65
126,1,1,0,0,1,0,0.,0.,40.,40.,1.,1.,223.,0.,241.9,223.,400.,          85P     66
241.9,0.,40.,0.,0.,0.;                                                85P     67
126,1,1,0,0,1,0,0.,0.,0.300000000000001,0.300000000000001,1.,1.,      87P     68
223.,0.,244.9,223.,0.,241.9,0.,0.300000000000001,0.,0.,0.;            87P     69
126,1,1,0,0,1,0,0.,0.,0.300000000000001,0.300000000000001,1.,1.,      89P     70
223.,400.,244.9,223.,400.,241.9,0.,0.300000000000001,0.,0.,0.;        89P     71
126,1,1,0,0,1,0,0.,0.,40.,40.,1.,1.,223.,0.,244.9,223.,400.,          91P     72
244.9,0.,40.,0.,0.,0.;                                                91P     73
126,1,1,0,0,1,0,0.,0.,22.6,22.6,1.,1.,-3.,0.,244.9,223.,0.,           93P     74
244.9,0.,22.6,0.,0.,0.;                                               93P     75
126,1,1,0,0,1,0,0.,0.,22.6,22.6,1.,1.,-3.,400.,244.9,223.,400.,       95P     76
244.9,0.,22.6,0.,0.,0.;                                               95P     77
126,1,1,0,0,1,0,0.,0.,40.,40.,1.,1.,-3.,0.,244.9,-3.,400.,244.9,      97P     78
0.,40.,0.,0.,0.;                                                      97P     79
126,1,1,0,0,1,0,0.,0.,24.79,24.79,1.,1.,-3.,0.,244.9,-3.,0.,          99P     80
-3.00000000000001,0.,24.79,0.,0.,0.;                                  99P     81
126,1,1,0,0,1,0,-24.79,-24.79,0.,0.,1.,1.,-3.,400.,                  101P     82
-3.00000000000001,-3.,400.,244.9,-24.79,0.,0.,0.,0.;                 101P     83
128,1,1,1,1,0,0,1,0,0,-0.001,-0.001,22.601,22.601,-0.001,-0.001,     103P     84
40.001,40.001,1.,1.,1.,1.,223.01,-0.01,-3.,-3.01000000000002,        103P     85
-0.01,-3.,223.01,400.01,-3.,-3.01000000000002,400.01,-3.,-0.001,     103P     86
22.601,-0.001,40.001;                                                103P     87
128,1,1,1,1,0,0,1,0,0,-0.001,-0.001,0.301,0.301,-0.001,-0.001,       105P     88
40.001,40.001,1.,1.,1.,1.,223.,-0.01,0.01,223.,-0.01,-3.01,223.,     105P     89
400.01,0.01,223.,400.01,-3.01,-0.001,0.301,-0.001,40.001;            105P     90
128,1,1,1,1,0,0,1,0,0,-0.001,-0.001,22.301,22.301,-0.001,-0.001,     107P     91
40.001,40.001,1.,1.,1.,1.,-0.01,-0.01,2.27283594516651D-33,          107P     92
223.01,-0.01,1.71800552497352D-31,-0.01,400.01,                      107P     93
2.27283594516651D-33,223.01,400.01,1.71800552497352D-31,-0.001,      107P     94
22.301,-0.001,40.001;                                                107P     95
128,1,1,1,1,0,0,1,0,0,-0.001,-0.001,6.461,6.461,-0.001,-0.001,       109P     96
40.001,40.001,1.,1.,1.,1.,0.,-0.01,64.61,0.,-0.01,                   109P     97
-0.0100000000000033,0.,400.01,64.61,0.,400.01,                       109P     98
-0.0100000000000033,-0.001,6.461,-0.001,40.001;                      109P     99
128,1,1,1,1,0,0,1,0,0,-0.001,-0.001,21.410177938445,                 111P    100
21.410177938445,-0.001,-0.001,40.001,40.001,1.,1.,1.,1.,             111P    101
120.005605072756,-0.01,241.908281494998,-0.00560507275642053,        111P    102
-0.01,64.5917185050024,120.005605072756,400.01,241.908281494998,     111P    103
-0.00560507275642053,400.01,64.5917185050024,-0.001,                 111P    104
21.410177938445,-0.001,40.001;                                       111P    105
128,1,1,1,1,0,0,1,0,0,-0.001,-0.001,10.301,10.301,-0.001,-0.001,     113P    106
40.001,40.001,1.,1.,1.,1.,223.01,-0.01,241.9,119.99,-0.01,241.9,     113P    107
223.01,400.01,241.9,119.99,400.01,241.9,-0.001,10.301,-0.001,        113P    108
40.001;                                                              113P    109
128,1,1,1,1,0,0,1,0,0,-0.001,-0.001,0.301000000000001,               115P    110
0.301000000000001,-0.001,-0.001,40.001,40.001,1.,1.,1.,1.,223.,      115P    111
-0.01,244.91,223.,-0.01,241.89,223.,400.01,244.91,223.,400.01,       115P    112
241.89,-0.001,0.301000000000001,-0.001,40.001;                       115P    113
128,1,1,1,1,0,0,1,0,0,-0.001,-0.001,22.601,22.601,-0.001,-0.001,     117P    114
40.001,40.001,1.,1.,1.,1.,-3.01,-0.01,244.9,223.01,-0.01,244.9,      117P    115
-3.01,400.01,244.9,223.01,400.01,244.9,-0.001,22.601,-0.001,         117P    116
40.001;                                                              117P    117
128,1,1,1,1,0,0,1,0,0,-0.001,-0.001,24.791,24.791,-0.001,-0.001,     119P    118
40.001,40.001,1.,1.,1.,1.,-3.,-0.01,-3.01000000000001,-3.,-0.01,     119P    119
244.91,-3.,400.01,-3.01000000000001,-3.,400.01,244.91,-0.001,        119P    120
24.791,-0.001,40.001;                                                119P    121
128,1,1,1,1,0,0,1,0,0,-12.396,-12.396,12.396,12.396,-11.301,         121P    122
-11.301,11.301,11.301,1.,1.,1.,1.,-3.01,400.,-3.01,-3.01,400.,       121P    123
244.91,223.01,400.,-3.01,223.01,400.,244.91,-12.396,12.396,          121P    124
-11.301,11.301;                                                      121P    125
128,1,1,1,1,0,0,1,0,0,-11.301,-11.301,11.301,11.301,-12.396,         123P    126
-12.396,12.396,12.396,1.,1.,1.,1.,223.01,0.,244.91,-3.01,0.,         123P    127
244.91,223.01,0.,-3.01000000000002,-3.01,0.,-3.01,-11.301,           123P    128
11.301,-12.396,12.396;                                               123P    129
502,18,-3.,0.,-3.,223.,0.,-3.,-3.,400.,-3.00000000000001,223.,       125P    130
400.,-3.00000000000001,223.,0.,1.71792951039341D-31,223.,400.,       125P    131
0.,0.,0.,2.2804374031771D-33,0.,400.,0.,0.,0.,64.6,0.,400.,64.6,     125P    132
120.,0.,241.9,120.,400.,241.9,223.,0.,241.9,223.,400.,241.9,         125P    133
223.,0.,244.9,223.,400.,244.9,-3.,0.,244.9,-3.,400.,244.9;           125P    134
504,27,49,125,1,125,2,51,125,1,125,3,53,125,4,125,3,55,125,2,        127P    135
125,4,57,125,2,125,5,59,125,6,125,4,61,125,5,125,6,63,125,5,125,     127P    136
7,65,125,8,125,6,67,125,7,125,8,69,125,7,125,9,71,125,10,125,8,      127P    137
73,125,9,125,10,75,125,9,125,11,77,125,12,125,10,79,125,11,125,      127P    138
12,81,125,13,125,11,83,125,14,125,12,85,125,13,125,14,87,125,15,     127P    139
125,13,89,125,16,125,14,91,125,15,125,16,93,125,17,125,15,95,        127P    140
125,18,125,16,97,125,17,125,18,99,125,17,125,1,101,125,3,125,18;     127P    141
406,1,5HBody1;                                                       129P    142
314,0.,0.,0.,15HOak - Semigloss;                                     131P    143
314,62.7450980392157,62.7450980392157,62.7450980392157,13HSteel      133P    144
- Satin;                                                             133P    145
S      1G      3D    134P    145                                        T      1
