                                                                        S      1
,,5HPlate,5HPlate,7Hunknown,7Hunknown,32,38,7,99,15,,1.,2,2HMM,1,0.08,  G      1
15H20220922.115615,0.01,10000.,7Hunknown,7Hunknown,11,0,;               G      2
     186       1                                                00000000D      1
     186            -119       1       0                               0D      2
     514       2                                                00010000D      3
     514                       1       1                               0D      4
     510       3                                                00010000D      5
     510            -119       1       1                               0D      6
     510       4                                                00010000D      7
     510            -119       1       1                               0D      8
     510       5                                                00010000D      9
     510            -119       1       1                               0D     10
     510       6                                                00010000D     11
     510            -119       1       1                               0D     12
     510       7                                                00010000D     13
     510            -119       1       1                               0D     14
     510       8                                                00010000D     15
     510            -119       1       1                               0D     16
     510       9                                                00010000D     17
     510            -119       1       1                               0D     18
     510      10                                                00010000D     19
     510            -119       1       1                               0D     20
     510      11                                                00010000D     21
     510            -119       1       1                               0D     22
     510      12                                                00010000D     23
     510            -119       1       1                               0D     24
     508      13                                                00010000D     25
     508                       1       1                               0D     26
     508      14                                                00010000D     27
     508                       1       1                               0D     28
     508      15                                                00010000D     29
     508                       2       1                               0D     30
     508      17                                                00010000D     31
     508                       1       1                               0D     32
     508      18                                                00010000D     33
     508                       1       1                               0D     34
     508      19                                                00010000D     35
     508                       1       1                               0D     36
     508      20                                                00010000D     37
     508                       1       1                               0D     38
     508      21                                                00010000D     39
     508                       1       1                               0D     40
     508      22                                                00010000D     41
     508                       1       1                               0D     42
     508      23                                                00010000D     43
     508                       2       1                               0D     44
     126      25                                                00010000D     45
     126       0               6       0                               0D     46
     126      31                                                00010000D     47
     126       0               3       0                               0D     48
     126      34                                                00010000D     49
     126       0               6       0                               0D     50
     126      40                                                00010000D     51
     126       0               3       0                               0D     52
     126      43                                                00010000D     53
     126       0               3       0                               0D     54
     126      46                                                00010000D     55
     126       0               3       0                               0D     56
     126      49                                                00010000D     57
     126       0               3       0                               0D     58
     126      52                                                00010000D     59
     126       0               3       0                               0D     60
     126      55                                                00010000D     61
     126       0               6       0                               0D     62
     126      61                                                00010000D     63
     126       0               3       0                               0D     64
     126      64                                                00010000D     65
     126       0               6       0                               0D     66
     126      70                                                00010000D     67
     126       0               3       0                               0D     68
     126      73                                                00010000D     69
     126       0               6       0                               0D     70
     126      79                                                00010000D     71
     126       0               6       0                               0D     72
     126      85                                                00010000D     73
     126       0               3       0                               0D     74
     126      88                                                00010000D     75
     126       0               3       0                               0D     76
     126      91                                                00010000D     77
     126       0               3       0                               0D     78
     126      94                                                00010000D     79
     126       0               6       0                               0D     80
     126     100                                                00010000D     81
     126       0               3       0                               0D     82
     126     103                                                00010000D     83
     126       0               3       0                               0D     84
     126     106                                                00010000D     85
     126       0               3       0                               0D     86
     126     109                                                00010000D     87
     126       0               6       0                               0D     88
     126     115                                                00010000D     89
     126       0               3       0                               0D     90
     126     118                                                00010000D     91
     126       0               3       0                               0D     92
     128     121                                                00010000D     93
     128       0    -119       9       0                               0D     94
     128     130                                                00010000D     95
     128       0    -119       5       0                               0D     96
     128     135                                                00010000D     97
     128       0    -119       5       0                               0D     98
     128     140                                                00010000D     99
     128       0    -119       8       0                               0D    100
     128     148                                                00010000D    101
     128       0    -119       5       0                               0D    102
     128     153                                                00010000D    103
     128       0    -119       8       0                               0D    104
     128     161                                                00010000D    105
     128       0    -119       5       0                               0D    106
     128     166                                                00010000D    107
     128       0    -119       8       0                               0D    108
     128     174                                                00010000D    109
     128       0    -119       5       0                               0D    110
     128     179                                                00010000D    111
     128       0    -119       5       0                               0D    112
     502     184                                                00010000D    113
     502                      11       1                               0D    114
     504     195                                                00010001D    115
     504                       7       1                               0D    116
     406     202                                                00000000D    117
     406                       1      15                               0D    118
     314     203                                                00000200D    119
     314                       2       0                               0D    120
     314     205                                                00000200D    121
     314                       2       0                               0D    122
186,3,1,0,0,1,117;                                                     1P      1
514,10,5,1,7,1,9,1,11,1,13,1,15,1,17,1,19,1,21,1,23,1;                 3P      2
510,93,1,1,25;                                                         5P      3
510,95,1,1,27;                                                         7P      4
510,97,1,1,29;                                                         9P      5
510,99,1,1,31;                                                        11P      6
510,101,1,1,33;                                                       13P      7
510,103,1,1,35;                                                       15P      8
510,105,1,1,37;                                                       17P      9
510,107,1,1,39;                                                       19P     10
510,109,1,1,41;                                                       21P     11
510,111,1,1,43;                                                       23P     12
508,4,0,115,1,1,0,0,115,2,1,0,0,115,3,1,0,0,115,4,1,0;                25P     13
508,4,0,115,4,0,0,0,115,5,0,0,0,115,6,0,0,0,115,7,0,0;                27P     14
508,8,0,115,3,0,0,0,115,8,1,0,0,115,9,0,0,0,115,10,1,0,0,115,11,      29P     15
0,0,0,115,12,1,0,0,115,13,0,0,0,115,5,1,0;                            29P     16
508,4,0,115,14,1,0,0,115,6,1,0,0,115,13,1,0,0,115,15,1,0;             31P     17
508,4,0,115,15,0,0,0,115,12,0,0,0,115,16,0,0,0,115,17,0,0;            33P     18
508,4,0,115,18,1,0,0,115,19,1,0,0,115,9,1,0,0,115,20,1,0;             35P     19
508,4,0,115,2,0,0,0,115,21,0,0,0,115,20,0,0,0,115,8,0,0;              37P     20
508,4,0,115,22,1,0,0,115,16,1,0,0,115,11,1,0,0,115,23,1,0;            39P     21
508,4,0,115,19,0,0,0,115,24,0,0,0,115,23,0,0,0,115,10,0,0;            41P     22
508,8,0,115,1,0,0,0,115,7,1,0,0,115,14,0,0,0,115,17,1,0,0,115,        43P     23
22,0,0,0,115,24,1,0,0,115,18,0,0,0,115,21,1,0;                        43P     24
126,2,2,0,0,0,0,-0.785398163397449,-0.785398163397449,                45P     25
-0.785398163397449,0.785398163397448,0.785398163397448,               45P     26
0.785398163397448,1.,0.707106781186547,1.,-0.499999724328522,         45P     27
-14.,-12.7499998323619,-5.49999972432853,-14.,-12.749999832362,       45P     28
-5.49999972432853,-14.,-7.74999983236195,-0.785398163397449,          45P     29
0.785398163397448,0.,0.,0.;                                           45P     30
126,1,1,0,0,1,0,-0.2,-0.2,0.,0.,1.,1.,-5.49999972432853,-14.,         47P     31
-7.74999983236195,-5.49999972432853,-12.,-7.74999983236195,-0.2,      47P     32
0.,0.,0.,0.;                                                          47P     33
126,2,2,0,0,0,0,-0.785398163397448,-0.785398163397448,                49P     34
-0.785398163397448,0.785398163397449,0.785398163397449,               49P     35
0.785398163397449,1.,0.707106781186547,1.,-5.49999972432853,          49P     36
-12.,-7.74999983236195,-5.49999972432853,-12.,-12.749999832362,       49P     37
-0.499999724328522,-12.,-12.7499998323619,-0.785398163397448,         49P     38
0.785398163397449,0.,0.,0.;                                           49P     39
126,1,1,0,0,1,0,0.,0.,0.2,0.2,1.,1.,-0.499999724328526,-12.,          51P     40
-12.7499998323619,-0.499999724328526,-14.,-12.7499998323619,0.,       51P     41
0.2,0.,0.,0.;                                                         51P     42
126,1,1,0,0,1,0,0.5,0.5,4.3,4.3,1.,1.,37.5000002756715,-12.,          53P     43
-12.7499998323619,-0.499999724328521,-12.,-12.7499998323619,0.5,      53P     44
4.3,0.,0.,0.;                                                         53P     45
126,1,1,0,0,1,0,-0.2,-0.2,0.,0.,1.,1.,37.5000002756715,-14.,          55P     46
-12.7499998323619,37.5000002756715,-12.,-12.7499998323619,-0.2,       55P     47
0.,0.,0.,0.;                                                          55P     48
126,1,1,0,0,1,0,-4.3,-4.3,-0.5,-0.5,1.,1.,-0.499999724328521,         57P     49
-14.,-12.7499998323619,37.5000002756715,-14.,-12.7499998323619,       57P     50
-4.3,-0.5,0.,0.,0.;                                                   57P     51
126,1,1,0,0,1,0,0.5,0.5,4.3,4.3,1.,1.,-5.49999972432853,-12.,         59P     52
-7.74999983236195,-5.49999972432853,-12.,30.250000167638,0.5,         59P     53
4.3,0.,0.,0.;                                                         59P     54
126,2,2,0,0,0,0,-0.785398163397448,-0.785398163397448,                61P     55
-0.785398163397448,0.785398163397448,0.785398163397448,               61P     56
0.785398163397448,1.,0.707106781186548,1.,-0.499999724328526,         61P     57
-12.,35.250000167638,-5.49999972432853,-12.,35.250000167638,          61P     58
-5.49999972432853,-12.,30.250000167638,-0.785398163397448,            61P     59
0.785398163397448,0.,0.,0.;                                           61P     60
126,1,1,0,0,1,0,0.5,0.5,4.3,4.3,1.,1.,-0.499999724328526,-12.,        63P     61
35.250000167638,37.5000002756715,-12.,35.250000167638,0.5,4.3,        63P     62
0.,0.,0.;                                                             63P     63
126,2,2,0,0,0,0,-0.785398163397448,-0.785398163397448,                65P     64
-0.785398163397448,0.785398163397449,0.785398163397449,               65P     65
0.785398163397449,1.,0.70710678118655,1.,42.5000002756715,-12.,       65P     66
30.250000167638,42.5000002756715,-12.,35.250000167638,                65P     67
37.5000002756715,-12.,35.250000167638,-0.785398163397448,             65P     68
0.785398163397449,0.,0.,0.;                                           65P     69
126,1,1,0,0,1,0,0.5,0.5,4.3,4.3,1.,1.,42.5000002756715,-12.,          67P     70
30.250000167638,42.5000002756715,-12.,-7.74999983236195,0.5,4.3,      67P     71
0.,0.,0.;                                                             67P     72
126,2,2,0,0,0,0,-0.785398163397448,-0.785398163397448,                69P     73
-0.785398163397448,0.785398163397449,0.785398163397449,               69P     74
0.785398163397449,1.,0.70710678118655,1.,37.5000002756715,-12.,       69P     75
-12.7499998323619,42.5000002756715,-12.,-12.7499998323619,            69P     76
42.5000002756715,-12.,-7.74999983236195,-0.785398163397448,           69P     77
0.785398163397449,0.,0.,0.;                                           69P     78
126,2,2,0,0,0,0,-0.785398163397449,-0.785398163397449,                71P     79
-0.785398163397449,0.785398163397448,0.785398163397448,               71P     80
0.785398163397448,1.,0.70710678118655,1.,42.5000002756715,-14.,       71P     81
-7.74999983236195,42.5000002756715,-14.,-12.7499998323619,            71P     82
37.5000002756715,-14.,-12.7499998323619,-0.785398163397449,           71P     83
0.785398163397448,0.,0.,0.;                                           71P     84
126,1,1,0,0,1,0,0.,0.,0.2,0.2,1.,1.,42.5000002756715,-12.,            73P     85
-7.74999983236195,42.5000002756715,-14.,-7.74999983236195,0.,         73P     86
0.2,0.,0.,0.;                                                         73P     87
126,1,1,0,0,1,0,-0.2,-0.2,0.,0.,1.,1.,42.5000002756715,-14.,          75P     88
30.250000167638,42.5000002756715,-12.,30.250000167638,-0.2,0.,        75P     89
0.,0.,0.;                                                             75P     90
126,1,1,0,0,1,0,-4.3,-4.3,-0.5,-0.5,1.,1.,42.5000002756715,-14.,      77P     91
-7.74999983236195,42.5000002756715,-14.,30.250000167638,-4.3,         77P     92
-0.5,0.,0.,0.;                                                        77P     93
126,2,2,0,0,0,0,-0.785398163397448,-0.785398163397448,                79P     94
-0.785398163397448,0.785398163397448,0.785398163397448,               79P     95
0.785398163397448,1.,0.707106781186548,1.,-5.49999972432853,          79P     96
-14.,30.250000167638,-5.49999972432853,-14.,35.250000167638,          79P     97
-0.499999724328526,-14.,35.250000167638,-0.785398163397448,           79P     98
0.785398163397448,0.,0.,0.;                                           79P     99
126,1,1,0,0,1,0,-0.2,-0.2,0.,0.,1.,1.,-0.499999724328526,-14.,        81P    100
35.250000167638,-0.499999724328526,-12.,35.250000167638,-0.2,0.,      81P    101
0.,0.,0.;                                                             81P    102
126,1,1,0,0,1,0,0.,0.,0.2,0.2,1.,1.,-5.49999972432853,-12.,           83P    103
30.250000167638,-5.49999972432853,-14.,30.250000167638,0.,0.2,        83P    104
0.,0.,0.;                                                             83P    105
126,1,1,0,0,1,0,-4.3,-4.3,-0.5,-0.5,1.,1.,-5.49999972432853,          85P    106
-14.,30.250000167638,-5.49999972432853,-14.,-7.74999983236195,        85P    107
-4.3,-0.5,0.,0.,0.;                                                   85P    108
126,2,2,0,0,0,0,-0.785398163397449,-0.785398163397449,                87P    109
-0.785398163397449,0.785398163397448,0.785398163397448,               87P    110
0.785398163397448,1.,0.70710678118655,1.,37.5000002756715,-14.,       87P    111
35.250000167638,42.5000002756715,-14.,35.250000167638,                87P    112
42.5000002756715,-14.,30.250000167638,-0.785398163397449,             87P    113
0.785398163397448,0.,0.,0.;                                           87P    114
126,1,1,0,0,1,0,0.,0.,0.2,0.2,1.,1.,37.5000002756715,-12.,            89P    115
35.250000167638,37.5000002756715,-14.,35.250000167638,0.,0.2,0.,      89P    116
0.,0.;                                                                89P    117
126,1,1,0,0,1,0,-4.3,-4.3,-0.5,-0.5,1.,1.,37.5000002756715,-14.,      91P    118
35.250000167638,-0.499999724328526,-14.,35.250000167638,-4.3,         91P    119
-0.5,0.,0.,0.;                                                        91P    120
128,1,2,1,2,0,0,0,0,0,0.,0.,0.4,0.4,-0.785398163397448,               93P    121
-0.785398163397448,-0.785398163397448,0.785398163397449,              93P    122
0.785398163397449,0.785398163397449,1.,1.,0.707106781186547,          93P    123
0.707106781186547,1.,1.,-5.49999972432853,-14.,                       93P    124
-7.74999983236195,-5.49999972432853,-12.,-7.74999983236195,           93P    125
-5.49999972432853,-14.,-12.7499998323619,-5.49999972432853,-12.,      93P    126
-12.7499998323619,-0.499999724328522,-14.,-12.7499998323619,          93P    127
-0.499999724328522,-12.,-12.7499998323619,0.,0.4,                     93P    128
-0.785398163397448,0.785398163397449;                                 93P    129
128,1,1,1,1,0,0,1,0,0,0.499,0.499,4.301,4.301,-0.001,-0.001,          95P    130
0.201,0.201,1.,1.,1.,1.,-0.509999724328526,-11.99,                    95P    131
-12.7499998323619,37.5100002756715,-11.99,-12.7499998323619,          95P    132
-0.509999724328526,-14.01,-12.7499998323619,37.5100002756715,         95P    133
-14.01,-12.7499998323619,0.499,4.301,-0.001,0.201;                    95P    134
128,1,1,1,1,0,0,1,0,0,-2.401,-2.401,2.401,2.401,-2.401,-2.401,        97P    135
2.401,2.401,1.,1.,1.,1.,42.5100002756715,-12.,-12.759999832362,       97P    136
-5.50999972432852,-12.,-12.759999832362,42.5100002756715,-12.,        97P    137
35.260000167638,-5.50999972432852,-12.,35.260000167638,-2.401,        97P    138
2.401,-2.401,2.401;                                                   97P    139
128,1,2,1,2,0,0,0,0,0,0.,0.,0.4,0.4,-0.785398163397448,               99P    140
-0.785398163397448,-0.785398163397448,0.785398163397449,              99P    141
0.785398163397449,0.785398163397449,1.,1.,0.707106781186547,          99P    142
0.707106781186547,1.,1.,37.5000002756715,-14.,-12.749999832362,       99P    143
37.5000002756715,-12.,-12.749999832362,42.5000002756715,-14.,         99P    144
-12.749999832362,42.5000002756715,-12.,-12.749999832362,              99P    145
42.5000002756715,-14.,-7.74999983236195,42.5000002756715,-12.,        99P    146
-7.74999983236195,0.,0.4,-0.785398163397448,0.785398163397449;        99P    147
128,1,1,1,1,0,0,1,0,0,0.499,0.499,4.301,4.301,-0.001,-0.001,         101P    148
0.201,0.201,1.,1.,1.,1.,42.5000002756715,-11.99,                     101P    149
-7.75999983236195,42.5000002756715,-11.99,30.260000167638,           101P    150
42.5000002756715,-14.01,-7.75999983236195,42.5000002756715,          101P    151
-14.01,30.260000167638,0.499,4.301,-0.001,0.201;                     101P    152
128,1,2,1,2,0,0,0,0,0,0.,0.,0.4,0.4,-0.785398163397448,              103P    153
-0.785398163397448,-0.785398163397448,0.785398163397448,             103P    154
0.785398163397448,0.785398163397448,1.,1.,0.707106781186548,         103P    155
0.707106781186548,1.,1.,-0.499999724328525,-14.,35.250000167638,     103P    156
-0.499999724328525,-12.,35.250000167638,-5.49999972432853,-14.,      103P    157
35.250000167638,-5.49999972432853,-12.,35.250000167638,              103P    158
-5.49999972432853,-14.,30.250000167638,-5.49999972432853,-12.,       103P    159
30.250000167638,0.,0.4,-0.785398163397448,0.785398163397448;         103P    160
128,1,1,1,1,0,0,1,0,0,0.499,0.499,4.301,4.301,-0.001,-0.001,         105P    161
0.201,0.201,1.,1.,1.,1.,-5.49999972432853,-11.99,                    105P    162
30.260000167638,-5.49999972432853,-11.99,-7.75999983236195,          105P    163
-5.49999972432853,-14.01,30.260000167638,-5.49999972432853,          105P    164
-14.01,-7.75999983236195,0.499,4.301,-0.001,0.201;                   105P    165
128,1,2,1,2,0,0,0,0,0,0.,0.,0.4,0.4,-0.785398163397448,              107P    166
-0.785398163397448,-0.785398163397448,0.785398163397449,             107P    167
0.785398163397449,0.785398163397449,1.,1.,0.707106781186547,         107P    168
0.707106781186547,1.,1.,42.5000002756715,-14.,30.250000167638,       107P    169
42.5000002756715,-12.,30.250000167638,42.5000002756715,-14.,         107P    170
35.250000167638,42.5000002756715,-12.,35.250000167638,               107P    171
37.5000002756715,-14.,35.250000167638,37.5000002756715,-12.,         107P    172
35.250000167638,0.,0.4,-0.785398163397448,0.785398163397449;         107P    173
128,1,1,1,1,0,0,1,0,0,0.499,0.499,4.301,4.301,-0.001,-0.001,         109P    174
0.201,0.201,1.,1.,1.,1.,37.5100002756715,-11.99,35.250000167638,     109P    175
-0.509999724328525,-11.99,35.250000167638,37.5100002756715,          109P    176
-14.01,35.250000167638,-0.509999724328525,-14.01,                    109P    177
35.250000167638,0.499,4.301,-0.001,0.201;                            109P    178
128,1,1,1,1,0,0,1,0,0,-2.401,-2.401,2.401,2.401,-2.401,-2.401,       111P    179
2.401,2.401,1.,1.,1.,1.,-5.50999972432852,-14.,35.260000167638,      111P    180
-5.50999972432852,-14.,-12.759999832362,42.5100002756715,-14.,       111P    181
35.260000167638,42.5100002756715,-14.,-12.759999832362,-2.401,       111P    182
2.401,-2.401,2.401;                                                  111P    183
502,16,-0.499999724328521,-14.,-12.7499998323619,                    113P    184
-5.49999972432853,-14.,-7.74999983236195,-5.49999972432853,-12.,     113P    185
-7.74999983236195,-0.499999724328521,-12.,-12.7499998323619,         113P    186
37.5000002756715,-12.,-12.7499998323619,37.5000002756715,-14.,       113P    187
-12.7499998323619,-5.49999972432853,-12.,30.250000167638,            113P    188
-0.499999724328526,-12.,35.250000167638,37.5000002756715,-12.,       113P    189
35.250000167638,42.5000002756715,-12.,30.250000167638,               113P    190
42.5000002756715,-12.,-7.74999983236195,42.5000002756715,-14.,       113P    191
-7.74999983236195,42.5000002756715,-14.,30.250000167638,             113P    192
-5.49999972432853,-14.,30.250000167638,-0.499999724328526,-14.,      113P    193
35.250000167638,37.5000002756715,-14.,35.250000167638;               113P    194
504,24,45,113,1,113,2,47,113,2,113,3,49,113,3,113,4,51,113,4,        115P    195
113,1,53,113,5,113,4,55,113,6,113,5,57,113,1,113,6,59,113,3,113,     115P    196
7,61,113,8,113,7,63,113,8,113,9,65,113,10,113,9,67,113,10,113,       115P    197
11,69,113,5,113,11,71,113,12,113,6,73,113,11,113,12,75,113,13,       115P    198
113,10,77,113,12,113,13,79,113,14,113,15,81,113,15,113,8,83,113,     115P    199
7,113,14,85,113,14,113,2,87,113,16,113,13,89,113,9,113,16,91,        115P    200
113,16,113,15;                                                       115P    201
406,1,5HBody1;                                                       117P    202
314,95.2941176470588,79.6078431372549,48.6274509803922,16HBrass      119P    203
- Polished;                                                          119P    204
314,62.7450980392157,62.7450980392157,62.7450980392157,13HSteel      121P    205
- Satin;                                                             121P    206
S      1G      2D    122P    206                                        T      1
