                                                                        S      1
,,5HServo,5HServo,7Hunknown,7Hunknown,32,38,7,99,15,,1.,2,2HMM,1,0.08,  G      1
15H20220922.115609,0.01,10000.,7Hunknown,7Hunknown,11,0,;               G      2
     186       1                                                00000000D      1
     186            -167       1       0                               0D      2
     514       2                                                00010000D      3
     514                       2       1                               0D      4
     510       4                                                00010000D      5
     510            -167       1       1                               0D      6
     510       5                                                00010000D      7
     510            -167       1       1                               0D      8
     510       6                                                00010000D      9
     510            -167       1       1                               0D     10
     510       7                                                00010000D     11
     510            -167       1       1                               0D     12
     510       8                                                00010000D     13
     510            -167       1       1                               0D     14
     510       9                                                00010000D     15
     510            -167       1       1                               0D     16
     510      10                                                00010000D     17
     510            -167       1       1                               0D     18
     510      11                                                00010000D     19
     510            -167       1       1                               0D     20
     510      12                                                00010000D     21
     510            -167       1       1                               0D     22
     510      13                                                00010000D     23
     510            -167       1       1                               0D     24
     510      14                                                00010000D     25
     510            -167       1       1                               0D     26
     510      15                                                00010000D     27
     510            -167       1       1                               0D     28
     510      16                                                00010000D     29
     510            -167       1       1                               0D     30
     510      17                                                00010000D     31
     510            -167       1       1                               0D     32
     508      18                                                00010000D     33
     508                       1       1                               0D     34
     508      19                                                00010000D     35
     508                       1       1                               0D     36
     508      20                                                00010000D     37
     508                       1       1                               0D     38
     508      21                                                00010000D     39
     508                       1       1                               0D     40
     508      22                                                00010000D     41
     508                       1       1                               0D     42
     508      23                                                00010000D     43
     508                       1       1                               0D     44
     508      24                                                00010000D     45
     508                       1       1                               0D     46
     508      25                                                00010000D     47
     508                       1       1                               0D     48
     508      26                                                00010000D     49
     508                       1       1                               0D     50
     508      27                                                00010000D     51
     508                       1       1                               0D     52
     508      28                                                00010000D     53
     508                       1       1                               0D     54
     508      29                                                00010000D     55
     508                       1       1                               0D     56
     508      30                                                00010000D     57
     508                       3       1                               0D     58
     508      33                                                00010000D     59
     508                       3       1                               0D     60
     126      36                                                00010000D     61
     126       0               2       0                               0D     62
     126      38                                                00010000D     63
     126       0               3       0                               0D     64
     126      41                                                00010000D     65
     126       0               2       0                               0D     66
     126      43                                                00010000D     67
     126       0               2       0                               0D     68
     126      45                                                00010000D     69
     126       0               2       0                               0D     70
     126      47                                                00010000D     71
     126       0               2       0                               0D     72
     126      49                                                00010000D     73
     126       0               2       0                               0D     74
     126      51                                                00010000D     75
     126       0               2       0                               0D     76
     126      53                                                00010000D     77
     126       0               2       0                               0D     78
     126      55                                                00010000D     79
     126       0               2       0                               0D     80
     126      57                                                00010000D     81
     126       0               3       0                               0D     82
     126      60                                                00010000D     83
     126       0               3       0                               0D     84
     126      63                                                00010000D     85
     126       0               3       0                               0D     86
     126      66                                                00010000D     87
     126       0               2       0                               0D     88
     126      68                                                00010000D     89
     126       0               2       0                               0D     90
     126      70                                                00010000D     91
     126       0               2       0                               0D     92
     126      72                                                00010000D     93
     126       0               2       0                               0D     94
     126      74                                                00010000D     95
     126       0               2       0                               0D     96
     126      76                                                00010000D     97
     126       0               2       0                               0D     98
     126      78                                                00010000D     99
     126       0               2       0                               0D    100
     126      80                                                00010000D    101
     126       0               2       0                               0D    102
     126      82                                                00010000D    103
     126       0               2       0                               0D    104
     126      84                                                00010000D    105
     126       0               2       0                               0D    106
     126      86                                                00010000D    107
     126       0               2       0                               0D    108
     126      88                                                00010000D    109
     126       0               2       0                               0D    110
     126      90                                                00010000D    111
     126       0               2       0                               0D    112
     126      92                                                00010000D    113
     126       0               2       0                               0D    114
     126      94                                                00010000D    115
     126       0               2       0                               0D    116
     126      96                                                00010000D    117
     126       0               2       0                               0D    118
     126      98                                                00010000D    119
     126       0               2       0                               0D    120
     126     100                                                00010000D    121
     126       0               2       0                               0D    122
     126     102                                                00010000D    123
     126       0               2       0                               0D    124
     126     104                                                00010000D    125
     126       0               2       0                               0D    126
     126     106                                                00010000D    127
     126       0               2       0                               0D    128
     126     108                                                00010000D    129
     126       0               2       0                               0D    130
     126     110                                                00010000D    131
     126       0               2       0                               0D    132
     128     112                                                00010000D    133
     128       0    -167       3       0                               0D    134
     128     115                                                00010000D    135
     128       0    -167       3       0                               0D    136
     128     118                                                00010000D    137
     128       0    -167       3       0                               0D    138
     128     121                                                00010000D    139
     128       0    -167       4       0                               0D    140
     128     125                                                00010000D    141
     128       0    -167       4       0                               0D    142
     128     129                                                00010000D    143
     128       0    -167       3       0                               0D    144
     128     132                                                00010000D    145
     128       0    -167       3       0                               0D    146
     128     135                                                00010000D    147
     128       0    -167       3       0                               0D    148
     128     138                                                00010000D    149
     128       0    -167       3       0                               0D    150
     128     141                                                00010000D    151
     128       0    -167       3       0                               0D    152
     128     144                                                00010000D    153
     128       0    -167       5       0                               0D    154
     128     149                                                00010000D    155
     128       0    -167       5       0                               0D    156
     128     154                                                00010000D    157
     128       0    -167       4       0                               0D    158
     128     158                                                00010000D    159
     128       0    -167       4       0                               0D    160
     502     162                                                00010000D    161
     502                       7       1                               0D    162
     504     169                                                00010001D    163
     504                      10       1                               0D    164
     406     179                                                00000000D    165
     406                       1      15                               0D    166
     314     180                                                00000200D    167
     314                       2       0                               0D    168
186,3,1,0,0,1,165;                                                     1P      1
514,14,5,1,7,1,9,1,11,1,13,1,15,1,17,1,19,1,21,1,23,1,25,1,27,1,       3P      2
29,1,31,1;                                                             3P      3
510,133,1,1,33;                                                        5P      4
510,135,1,1,35;                                                        7P      5
510,137,1,1,37;                                                        9P      6
510,139,1,1,39;                                                       11P      7
510,141,1,1,41;                                                       13P      8
510,143,1,1,43;                                                       15P      9
510,145,1,1,45;                                                       17P     10
510,147,1,1,47;                                                       19P     11
510,149,1,1,49;                                                       21P     12
510,151,1,1,51;                                                       23P     13
510,153,1,1,53;                                                       25P     14
510,155,1,1,55;                                                       27P     15
510,157,1,1,57;                                                       29P     16
510,159,1,1,59;                                                       31P     17
508,4,0,163,1,0,0,0,163,2,1,0,0,163,3,0,0,0,163,4,0,0;                33P     18
508,4,0,163,5,0,0,0,163,4,1,0,0,163,6,0,0,0,163,7,0,0;                35P     19
508,4,0,163,8,0,0,0,163,7,1,0,0,163,9,0,0,0,163,10,0,0;               37P     20
508,4,0,163,11,0,0,0,163,10,1,0,0,163,12,0,0,0,163,13,0,0;            39P     21
508,4,0,163,14,0,0,0,163,13,1,0,0,163,15,0,0,0,163,16,0,0;            41P     22
508,4,0,163,17,0,0,0,163,16,1,0,0,163,18,0,0,0,163,19,0,0;            43P     23
508,4,0,163,20,0,0,0,163,19,1,0,0,163,21,0,0,0,163,22,0,0;            45P     24
508,4,0,163,23,0,0,0,163,22,1,0,0,163,24,0,0,0,163,25,0,0;            47P     25
508,4,0,163,26,0,0,0,163,25,1,0,0,163,27,0,0,0,163,28,0,0;            49P     26
508,4,0,163,29,0,0,0,163,28,1,0,0,163,30,0,0,0,163,31,0,0;            51P     27
508,4,0,163,32,0,0,0,163,31,1,0,0,163,33,0,0,0,163,34,0,0;            53P     28
508,4,0,163,35,0,0,0,163,34,1,0,0,163,36,0,0,0,163,2,0,0;             55P     29
508,12,0,163,36,1,0,0,163,33,1,0,0,163,30,1,0,0,163,27,1,0,0,         57P     30
163,24,1,0,0,163,21,1,0,0,163,18,1,0,0,163,15,1,0,0,163,12,1,0,       57P     31
0,163,9,1,0,0,163,6,1,0,0,163,3,1,0;                                  57P     32
508,12,0,163,35,1,0,0,163,1,1,0,0,163,5,1,0,0,163,8,1,0,0,163,        59P     33
11,1,0,0,163,14,1,0,0,163,17,1,0,0,163,20,1,0,0,163,23,1,0,0,         59P     34
163,26,1,0,0,163,29,1,0,0,163,32,1,0;                                 59P     35
126,1,1,0,0,1,0,0.,0.,0.52,0.52,1.,1.,18.05,0.,                       61P     36
-1.54074395550979D-32,18.05,0.,-5.2,0.,0.52,0.,0.,0.;                 61P     37
126,1,1,0,0,1,0,0.,0.,1.2,1.2,1.,1.,18.05,0.,                         63P     38
-1.54074395550979D-32,18.05,12.,-1.54074395550979D-32,0.,1.2,0.,      63P     39
0.,0.;                                                                63P     40
126,1,1,0,0,1,0,-0.52,-0.52,0.,0.,1.,1.,18.05,12.,-5.2,18.05,         65P     41
12.,-1.54074395550979D-32,-0.52,0.,0.,0.,0.;                          65P     42
126,1,1,0,0,1,0,0.,0.,1.2,1.2,1.,1.,18.05,0.,-5.2,18.05,12.,          67P     43
-5.2,0.,1.2,0.,0.,0.;                                                 67P     44
126,1,1,0,0,1,0,0.,0.,0.245,0.245,1.,1.,18.05,0.,-5.2,20.5,0.,        69P     45
-5.2,0.,0.245,0.,0.,0.;                                               69P     46
126,1,1,0,0,1,0,-0.245,-0.245,0.,0.,1.,1.,20.5,12.,-5.2,18.05,        71P     47
12.,-5.2,-0.245,0.,0.,0.,0.;                                          71P     48
126,1,1,0,0,1,0,0.,0.,1.2,1.2,1.,1.,20.5,0.,-5.2,20.5,12.,-5.2,       73P     49
0.,1.2,0.,0.,0.;                                                      73P     50
126,1,1,0,0,1,0,0.,0.,0.52,0.52,1.,1.,20.5,0.,-5.2,20.5,0.,0.,        75P     51
0.,0.52,0.,0.,0.;                                                     75P     52
126,1,1,0,0,1,0,-0.52,-0.52,0.,0.,1.,1.,20.5,12.,0.,20.5,12.,         77P     53
-5.2,-0.52,0.,0.,0.,0.;                                               77P     54
126,1,1,0,0,1,0,0.,0.,1.2,1.2,1.,1.,20.5,0.,0.,20.5,12.,0.,0.,        79P     55
1.2,0.,0.,0.;                                                         79P     56
126,1,1,0,0,1,0,2.05,2.05,2.85,2.85,1.,1.,20.5,0.,                    81P     57
-3.32476327241586D-32,28.5,0.,-4.62223186652937D-32,2.05,2.85,        81P     58
0.,0.,0.;                                                             81P     59
126,1,1,0,0,1,0,-2.85,-2.85,-2.05,-2.05,1.,1.,28.5,12.,               83P     60
-4.62223186652937D-32,20.5,12.,-3.32476327241586D-32,-2.85,           83P     61
-2.05,0.,0.,0.;                                                       83P     62
126,1,1,0,0,1,0,0.,0.,1.2,1.2,1.,1.,28.5,0.,                          85P     63
-4.62223186652937D-32,28.5,12.,-4.62223186652937D-32,0.,1.2,0.,       85P     64
0.,0.;                                                                85P     65
126,1,1,0,0,1,0,0.,0.,2.25,2.25,1.,1.,28.5,0.,                        87P     66
-4.62223186652937D-32,28.5,0.,22.5,0.,2.25,0.,0.,0.;                  87P     67
126,1,1,0,0,1,0,-2.25,-2.25,0.,0.,1.,1.,28.5,12.,22.5,28.5,12.,       89P     68
-4.62223186652937D-32,-2.25,0.,0.,0.,0.;                              89P     69
126,1,1,0,0,1,0,0.,0.,1.2,1.2,1.,1.,28.5,0.,22.5,28.5,12.,22.5,       91P     70
0.,1.2,0.,0.,0.;                                                      91P     71
126,1,1,0,0,1,0,0.,0.,0.8,0.8,1.,1.,28.5,0.,22.5,20.5,0.,22.5,        93P     72
0.,0.8,0.,0.,0.;                                                      93P     73
126,1,1,0,0,1,0,-0.8,-0.8,0.,0.,1.,1.,20.5,12.,22.5,28.5,12.,         95P     74
22.5,-0.8,0.,0.,0.,0.;                                                95P     75
126,1,1,0,0,1,0,0.,0.,1.2,1.2,1.,1.,20.5,0.,22.5,20.5,12.,22.5,       97P     76
0.,1.2,0.,0.,0.;                                                      97P     77
126,1,1,0,0,1,0,0.,0.,0.52,0.52,1.,1.,20.5,0.,22.5,20.5,0.,27.7,      99P     78
0.,0.52,0.,0.,0.;                                                     99P     79
126,1,1,0,0,1,0,-0.52,-0.52,0.,0.,1.,1.,20.5,12.,27.7,20.5,12.,      101P     80
22.5,-0.52,0.,0.,0.,0.;                                              101P     81
126,1,1,0,0,1,0,0.,0.,1.2,1.2,1.,1.,20.5,0.,27.7,20.5,12.,27.7,      103P     82
0.,1.2,0.,0.,0.;                                                     103P     83
126,1,1,0,0,1,0,0.,0.,0.245,0.245,1.,1.,20.5,0.,27.7,18.05,0.,       105P     84
27.7,0.,0.245,0.,0.,0.;                                              105P     85
126,1,1,0,0,1,0,-0.245,-0.245,0.,0.,1.,1.,18.05,12.,27.7,20.5,       107P     86
12.,27.7,-0.245,0.,0.,0.,0.;                                         107P     87
126,1,1,0,0,1,0,0.,0.,1.2,1.2,1.,1.,18.05,0.,27.7,18.05,12.,         109P     88
27.7,0.,1.2,0.,0.,0.;                                                109P     89
126,1,1,0,0,1,0,0.,0.,0.52,0.52,1.,1.,18.05,0.,27.7,18.05,0.,        111P     90
22.5,0.,0.52,0.,0.,0.;                                               111P     91
126,1,1,0,0,1,0,-0.52,-0.52,0.,0.,1.,1.,18.05,12.,22.5,18.05,        113P     92
12.,27.7,-0.52,0.,0.,0.,0.;                                          113P     93
126,1,1,0,0,1,0,0.,0.,1.2,1.2,1.,1.,18.05,0.,22.5,18.05,12.,         115P     94
22.5,0.,1.2,0.,0.,0.;                                                115P     95
126,1,1,0,0,1,0,1.045,1.045,2.85,2.85,1.,1.,18.05,0.,22.5,0.,0.,     117P     96
22.5,1.045,2.85,0.,0.,0.;                                            117P     97
126,1,1,0,0,1,0,-2.85,-2.85,-1.045,-1.045,1.,1.,0.,12.,22.5,         119P     98
18.05,12.,22.5,-2.85,-1.045,0.,0.,0.;                                119P     99
126,1,1,0,0,1,0,0.,0.,1.2,1.2,1.,1.,-1.1170393677446D-31,0.,         121P    100
22.5,-1.1170393677446D-31,12.,22.5,0.,1.2,0.,0.,0.;                  121P    101
126,1,1,0,0,1,0,0.,0.,2.25,2.25,1.,1.,-1.1170393677446D-31,0.,       123P    102
22.5,0.,0.,0.,0.,2.25,0.,0.,0.;                                      123P    103
126,1,1,0,0,1,0,-2.25,-2.25,0.,0.,1.,1.,0.,12.,0.,                   125P    104
-1.1170393677446D-31,12.,22.5,-2.25,0.,0.,0.,0.;                     125P    105
126,1,1,0,0,1,0,0.,0.,1.2,1.2,1.,1.,0.,0.,0.,0.,12.,0.,0.,1.2,       127P    106
0.,0.,0.;                                                            127P    107
126,1,1,0,0,1,0,0.,0.,1.805,1.805,1.,1.,0.,0.,0.,18.05,0.,           129P    108
-2.9274135154686D-32,0.,1.805,0.,0.,0.;                              129P    109
126,1,1,0,0,1,0,-1.805,-1.805,0.,0.,1.,1.,18.05,12.,                 131P    110
-2.9274135154686D-32,0.,12.,0.,-1.805,0.,0.,0.,0.;                   131P    111
128,1,1,1,1,0,0,1,0,0,-0.001,-0.001,0.521,0.521,-0.001,-0.001,       133P    112
1.201,1.201,1.,1.,1.,1.,18.05,-0.01,-5.21,18.05,-0.01,0.01,          133P    113
18.05,12.01,-5.21,18.05,12.01,0.01,-0.001,0.521,-0.001,1.201;        133P    114
128,1,1,1,1,0,0,1,0,0,-0.001,-0.001,0.246,0.246,-0.001,-0.001,       135P    115
1.201,1.201,1.,1.,1.,1.,20.51,-0.01,-5.2,18.04,-0.01,-5.2,20.51,     135P    116
12.01,-5.2,18.04,12.01,-5.2,-0.001,0.246,-0.001,1.201;               135P    117
128,1,1,1,1,0,0,1,0,0,-0.001,-0.001,0.521,0.521,-0.001,-0.001,       137P    118
1.201,1.201,1.,1.,1.,1.,20.5,-0.01,0.01,20.5,-0.01,-5.21,20.5,       137P    119
12.01,0.01,20.5,12.01,-5.21,-0.001,0.521,-0.001,1.201;               137P    120
128,1,1,1,1,0,0,1,0,0,-0.001,-0.001,0.801,0.801,-0.001,-0.001,       139P    121
1.201,1.201,1.,1.,1.,1.,28.51,-0.01,-4.62385370227201D-32,20.49,     139P    122
-0.01,-3.32314143667322D-32,28.51,12.01,-4.62385370227201D-32,       139P    123
20.49,12.01,-3.32314143667322D-32,-0.001,0.801,-0.001,1.201;         139P    124
128,1,1,1,1,0,0,1,0,0,-0.001,-0.001,2.251,2.251,-0.001,-0.001,       141P    125
1.201,1.201,1.,1.,1.,1.,28.5,-0.01,22.51,28.5,-0.01,                 141P    126
-0.0099999999999989,28.5,12.01,22.51,28.5,12.01,                     141P    127
-0.0099999999999989,-0.001,2.251,-0.001,1.201;                       141P    128
128,1,1,1,1,0,0,1,0,0,-0.001,-0.001,0.801,0.801,-0.001,-0.001,       143P    129
1.201,1.201,1.,1.,1.,1.,20.49,-0.01,22.5,28.51,-0.01,22.5,20.49,     143P    130
12.01,22.5,28.51,12.01,22.5,-0.001,0.801,-0.001,1.201;               143P    131
128,1,1,1,1,0,0,1,0,0,-0.001,-0.001,0.521,0.521,-0.001,-0.001,       145P    132
1.201,1.201,1.,1.,1.,1.,20.5,-0.01,27.71,20.5,-0.01,22.49,20.5,      145P    133
12.01,27.71,20.5,12.01,22.49,-0.001,0.521,-0.001,1.201;              145P    134
128,1,1,1,1,0,0,1,0,0,-0.001,-0.001,0.246,0.246,-0.001,-0.001,       147P    135
1.201,1.201,1.,1.,1.,1.,18.04,-0.01,27.7,20.51,-0.01,27.7,18.04,     147P    136
12.01,27.7,20.51,12.01,27.7,-0.001,0.246,-0.001,1.201;               147P    137
128,1,1,1,1,0,0,1,0,0,-0.001,-0.001,0.521,0.521,-0.001,-0.001,       149P    138
1.201,1.201,1.,1.,1.,1.,18.05,-0.01,22.49,18.05,-0.01,27.71,         149P    139
18.05,12.01,22.49,18.05,12.01,27.71,-0.001,0.521,-0.001,1.201;       149P    140
128,1,1,1,1,0,0,1,0,0,-0.001,-0.001,1.806,1.806,-0.001,-0.001,       151P    141
1.201,1.201,1.,1.,1.,1.,-0.01,-0.01,22.5,18.06,-0.01,22.5,-0.01,     151P    142
12.01,22.5,18.06,12.01,22.5,-0.001,1.806,-0.001,1.201;               151P    143
128,1,1,1,1,0,0,1,0,0,-0.001,-0.001,2.251,2.251,-0.001,-0.001,       153P    144
1.201,1.201,1.,1.,1.,1.,4.96461941219821D-35,-0.01,-0.01,            153P    145
-1.11753582968582D-31,-0.01,22.51,4.96461941219821D-35,12.01,        153P    146
-0.01,-1.11753582968582D-31,12.01,22.51,-0.001,2.251,-0.001,         153P    147
1.201;                                                               153P    148
128,1,1,1,1,0,0,1,0,0,-0.001,-0.001,1.806,1.806,-0.001,-0.001,       155P    149
1.201,1.201,1.,1.,1.,1.,18.06,-0.01,-2.92903535121124D-32,           155P    150
-0.0099999999999989,-0.01,1.62183574264161D-35,18.06,12.01,          155P    151
-2.92903535121124D-32,-0.0099999999999989,12.01,                     155P    152
1.62183574264161D-35,-0.001,1.806,-0.001,1.201;                      155P    153
128,1,1,1,1,0,0,1,0,0,-1.646,-1.646,1.646,1.646,-1.426,-1.426,       157P    154
1.426,1.426,1.,1.,1.,1.,-0.0099999999999989,12.,-5.21,               157P    155
-0.0099999999999989,12.,27.71,28.51,12.,-5.21,28.51,12.,27.71,       157P    156
-1.646,1.646,-1.426,1.426;                                           157P    157
128,1,1,1,1,0,0,1,0,0,-1.426,-1.426,1.426,1.426,-1.646,-1.646,       159P    158
1.646,1.646,1.,1.,1.,1.,28.51,0.,27.71,-0.0099999999999989,0.,       159P    159
27.71,28.51,0.,-5.21,-0.0099999999999989,0.,-5.21,-1.426,1.426,      159P    160
-1.646,1.646;                                                        159P    161
502,24,18.05,0.,-1.54074395550979D-32,18.05,0.,-5.2,18.05,12.,       161P    162
-1.54074395550979D-32,18.05,12.,-5.2,20.5,0.,-5.2,20.5,12.,-5.2,     161P    163
20.5,0.,0.,20.5,12.,0.,28.5,0.,-4.62223186652937D-32,28.5,12.,       161P    164
-4.62223186652937D-32,28.5,0.,22.5,28.5,12.,22.5,20.5,0.,22.5,       161P    165
20.5,12.,22.5,20.5,0.,27.7,20.5,12.,27.7,18.05,0.,27.7,18.05,        161P    166
12.,27.7,18.05,0.,22.5,18.05,12.,22.5,-1.1170393677446D-31,0.,       161P    167
22.5,-1.1170393677446D-31,12.,22.5,0.,0.,0.,0.,12.,0.;               161P    168
504,36,61,161,1,161,2,63,161,1,161,3,65,161,4,161,3,67,161,2,        163P    169
161,4,69,161,2,161,5,71,161,6,161,4,73,161,5,161,6,75,161,5,161,     163P    170
7,77,161,8,161,6,79,161,7,161,8,81,161,7,161,9,83,161,10,161,8,      163P    171
85,161,9,161,10,87,161,9,161,11,89,161,12,161,10,91,161,11,161,      163P    172
12,93,161,11,161,13,95,161,14,161,12,97,161,13,161,14,99,161,13,     163P    173
161,15,101,161,16,161,14,103,161,15,161,16,105,161,15,161,17,        163P    174
107,161,18,161,16,109,161,17,161,18,111,161,17,161,19,113,161,       163P    175
20,161,18,115,161,19,161,20,117,161,19,161,21,119,161,22,161,20,     163P    176
121,161,21,161,22,123,161,21,161,23,125,161,24,161,22,127,161,       163P    177
23,161,24,129,161,23,161,1,131,161,3,161,24;                         163P    178
406,1,5HBody1;                                                       165P    179
314,18.8235294117647,23.1372549019608,58.8235294117647,22HPlasti     167P    180
c - Matte (Blue);                                                    167P    181
S      1G      2D    168P    181                                        T      1
