                                                                        S      1
,,9Hbase back,9Hbase back,7Hunknown,7Hunknown,32,38,7,99,15,,1.,2,2HMM, G      1
1,0.08,15H20220922.114715,0.01,10000.,7Hunknown,7Hunknown,11,0,;        G      2
     186       1                                                00000000D      1
     186             -71       1       0                               0D      2
     514       2                                                00010000D      3
     514                       1       1                               0D      4
     510       3                                                00010000D      5
     510             -71       1       1                               0D      6
     510       4                                                00010000D      7
     510             -71       1       1                               0D      8
     510       5                                                00010000D      9
     510             -71       1       1                               0D     10
     510       6                                                00010000D     11
     510             -71       1       1                               0D     12
     510       7                                                00010000D     13
     510             -71       1       1                               0D     14
     510       8                                                00010000D     15
     510             -71       1       1                               0D     16
     508       9                                                00010000D     17
     508                       1       1                               0D     18
     508      10                                                00010000D     19
     508                       1       1                               0D     20
     508      11                                                00010000D     21
     508                       1       1                               0D     22
     508      12                                                00010000D     23
     508                       1       1                               0D     24
     508      13                                                00010000D     25
     508                       1       1                               0D     26
     508      14                                                00010000D     27
     508                       1       1                               0D     28
     126      15                                                00010000D     29
     126       0               2       0                               0D     30
     126      17                                                00010000D     31
     126       0               2       0                               0D     32
     126      19                                                00010000D     33
     126       0               2       0                               0D     34
     126      21                                                00010000D     35
     126       0               2       0                               0D     36
     126      23                                                00010000D     37
     126       0               2       0                               0D     38
     126      25                                                00010000D     39
     126       0               2       0                               0D     40
     126      27                                                00010000D     41
     126       0               2       0                               0D     42
     126      29                                                00010000D     43
     126       0               2       0                               0D     44
     126      31                                                00010000D     45
     126       0               2       0                               0D     46
     126      33                                                00010000D     47
     126       0               2       0                               0D     48
     126      35                                                00010000D     49
     126       0               4       0                               0D     50
     126      39                                                00010000D     51
     126       0               4       0                               0D     52
     128      43                                                00010000D     53
     128       0     -71       4       0                               0D     54
     128      47                                                00010000D     55
     128       0     -71       4       0                               0D     56
     128      51                                                00010000D     57
     128       0     -71       4       0                               0D     58
     128      55                                                00010000D     59
     128       0     -71       4       0                               0D     60
     128      59                                                00010000D     61
     128       0     -71       4       0                               0D     62
     128      63                                                00010000D     63
     128       0     -71       4       0                               0D     64
     502      67                                                00010000D     65
     502                       4       1                               0D     66
     504      71                                                00010001D     67
     504                       3       1                               0D     68
     406      74                                                00000000D     69
     406                       1      15                               0D     70
     314      75                                                00000200D     71
     314                       2       0                               0D     72
     314      77                                                00000200D     73
     314                       2       0                               0D     74
186,3,1,0,0,1,69;                                                      1P      1
514,6,5,1,7,1,9,1,11,1,13,1,15,1;                                      3P      2
510,53,1,1,17;                                                         5P      3
510,55,1,1,19;                                                         7P      4
510,57,1,1,21;                                                         9P      5
510,59,1,1,23;                                                        11P      6
510,61,1,1,25;                                                        13P      7
510,63,1,1,27;                                                        15P      8
508,4,0,67,1,0,0,0,67,2,1,0,0,67,3,0,0,0,67,4,0,0;                    17P      9
508,4,0,67,5,1,0,0,67,4,1,0,0,67,6,0,0,0,67,7,0,0;                    19P     10
508,4,0,67,8,0,0,0,67,7,1,0,0,67,9,0,0,0,67,10,0,0;                   21P     11
508,4,0,67,11,1,0,0,67,10,1,0,0,67,12,0,0,0,67,2,0,0;                 23P     12
508,4,0,67,12,1,0,0,67,9,1,0,0,67,6,1,0,0,67,3,1,0;                   25P     13
508,4,0,67,11,0,0,0,67,1,1,0,0,67,5,0,0,0,67,8,1,0;                   27P     14
126,1,1,0,0,1,0,0.,0.,39.,39.,1.,1.,1367.93021784514,505.,23.,        29P     15
1367.93021784514,115.,23.,0.,39.,0.,0.,0.;                            29P     16
126,1,1,0,0,1,0,0.,0.,1.5,1.5,1.,1.,1367.93021784514,505.,23.,        31P     17
1367.93021784514,505.,38.,0.,1.5,0.,0.,0.;                            31P     18
126,1,1,0,0,1,0,-39.,-39.,0.,0.,1.,1.,1367.93021784514,115.,38.,      33P     19
1367.93021784514,505.,38.,-39.,0.,0.,0.,0.;                           33P     20
126,1,1,0,0,1,0,0.,0.,1.5,1.5,1.,1.,1367.93021784514,115.,23.,        35P     21
1367.93021784514,115.,38.,0.,1.5,0.,0.,0.;                            35P     22
126,1,1,0,0,1,0,0.,0.,85.,85.,1.,1.,517.930217845144,115.,23.,        37P     23
1367.93021784514,115.,23.,0.,85.,0.,0.,0.;                            37P     24
126,1,1,0,0,1,0,0.,0.,85.,85.,1.,1.,517.930217845144,115.,38.,        39P     25
1367.93021784514,115.,38.,0.,85.,0.,0.,0.;                            39P     26
126,1,1,0,0,1,0,0.,0.,1.5,1.5,1.,1.,517.930217845144,115.,23.,        41P     27
517.930217845144,115.,38.,0.,1.5,0.,0.,0.;                            41P     28
126,1,1,0,0,1,0,37.,37.,76.,76.,1.,1.,517.930217845144,115.,23.,      43P     29
517.930217845144,505.,23.,37.,76.,0.,0.,0.;                           43P     30
126,1,1,0,0,1,0,-76.,-76.,-37.,-37.,1.,1.,517.930217845144,505.,      45P     31
38.,517.930217845144,115.,38.,-76.,-37.,0.,0.,0.;                     45P     32
126,1,1,0,0,1,0,0.,0.,1.5,1.5,1.,1.,517.930217845144,505.,23.,        47P     33
517.930217845144,505.,38.,0.,1.5,0.,0.,0.;                            47P     34
126,1,1,0,0,1,0,24.7069782154856,24.7069782154856,                    49P     35
109.706978215486,109.706978215486,1.,1.,1367.93021784514,505.,        49P     36
23.,517.930217845144,505.,23.,24.7069782154856,109.706978215486,      49P     37
0.,0.,0.;                                                             49P     38
126,1,1,0,0,1,0,24.7069782154856,24.7069782154856,                    51P     39
109.706978215486,109.706978215486,1.,1.,1367.93021784514,505.,        51P     40
38.,517.930217845144,505.,38.,24.7069782154856,109.706978215486,      51P     41
0.,0.,0.;                                                             51P     42
128,1,1,1,1,0,0,1,0,0,-0.001,-0.001,39.001,39.001,-0.001,-0.001,      53P     43
1.501,1.501,1.,1.,1.,1.,1367.93021784514,114.99,22.99,                53P     44
1367.93021784514,505.01,22.99,1367.93021784514,114.99,38.01,          53P     45
1367.93021784514,505.01,38.01,-0.001,39.001,-0.001,1.501;             53P     46
128,1,1,1,1,0,0,1,0,0,-0.001,-0.001,85.001,85.001,-0.001,-0.001,      55P     47
1.501,1.501,1.,1.,1.,1.,517.920217845144,115.,22.99,                  55P     48
1367.94021784514,115.,22.99,517.920217845144,115.,38.01,              55P     49
1367.94021784514,115.,38.01,-0.001,85.001,-0.001,1.501;               55P     50
128,1,1,1,1,0,0,1,0,0,-0.001,-0.001,39.001,39.001,-0.001,-0.001,      57P     51
1.501,1.501,1.,1.,1.,1.,517.930217845144,505.01,22.99,                57P     52
517.930217845144,114.99,22.99,517.930217845144,505.01,38.01,          57P     53
517.930217845144,114.99,38.01,-0.001,39.001,-0.001,1.501;             57P     54
128,1,1,1,1,0,0,1,0,0,-0.001,-0.001,85.001,85.001,-0.001,-0.001,      59P     55
1.501,1.501,1.,1.,1.,1.,1367.94021784514,505.,22.99,                  59P     56
517.920217845144,505.,22.99,1367.94021784514,505.,38.01,              59P     57
517.920217845144,505.,38.01,-0.001,85.001,-0.001,1.501;               59P     58
128,1,1,1,1,0,0,1,0,0,-42.501,-42.501,42.501,42.501,-19.501,          61P     59
-19.501,19.501,19.501,1.,1.,1.,1.,517.920217845144,114.99,38.,        61P     60
1367.94021784514,114.99,38.,517.920217845144,505.01,38.,              61P     61
1367.94021784514,505.01,38.,-42.501,42.501,-19.501,19.501;            61P     62
128,1,1,1,1,0,0,1,0,0,-42.501,-42.501,42.501,42.501,-19.501,          63P     63
-19.501,19.501,19.501,1.,1.,1.,1.,517.920217845144,505.01,23.,        63P     64
1367.94021784514,505.01,23.,517.920217845144,114.99,23.,              63P     65
1367.94021784514,114.99,23.,-42.501,42.501,-19.501,19.501;            63P     66
502,8,1367.93021784514,505.,23.,1367.93021784514,115.,23.,            65P     67
1367.93021784514,505.,38.,1367.93021784514,115.,38.,                  65P     68
517.930217845144,115.,23.,517.930217845144,115.,38.,                  65P     69
517.930217845144,505.,23.,517.930217845144,505.,38.;                  65P     70
504,12,29,65,1,65,2,31,65,1,65,3,33,65,4,65,3,35,65,2,65,4,37,        67P     71
65,5,65,2,39,65,6,65,4,41,65,5,65,6,43,65,5,65,7,45,65,8,65,6,        67P     72
47,65,7,65,8,49,65,1,65,7,51,65,3,65,8;                               67P     73
406,1,9Hbase back;                                                    69P     74
314,96.4705882352941,96.4705882352941,95.2941176470588,27HPowder      71P     75
 Coat - Rough (White);                                                71P     76
314,62.7450980392157,62.7450980392157,62.7450980392157,13HSteel       73P     77
- Satin;                                                              73P     78
S      1G      2D     74P     78                                        T      1
