                                                                        S      1
,,30HDämmungs-Extension Stopfen v2,27HDmmungsExtension Stopfen v2,7HunkG      1
nown,7Hunknown,32,38,7,99,15,,1.,2,2HMM,1,0.08,15H20220922.114945,0.01, G      2
10000.,7Hunknown,7Hunknown,11,0,15H20200403.182901;                     G      3
     186       1                                                00000000D      1
     186            -127       1       0                               0D      2
     514       2                                                00010000D      3
     514                       1       1                               0D      4
     510       3                                                00010000D      5
     510            -127       1       1                               0D      6
     510       4                                                00010000D      7
     510            -127       1       1                               0D      8
     510       5                                                00010000D      9
     510            -127       1       1                               0D     10
     510       6                                                00010000D     11
     510            -127       1       1                               0D     12
     510       7                                                00010000D     13
     510            -127       1       1                               0D     14
     510       8                                                00010000D     15
     510            -127       1       1                               0D     16
     510       9                                                00010000D     17
     510            -127       1       1                               0D     18
     510      10                                                00010000D     19
     510            -127       1       1                               0D     20
     510      11                                                00010000D     21
     510            -127       1       1                               0D     22
     510      12                                                00010000D     23
     510            -127       1       1                               0D     24
     510      13                                                00010000D     25
     510            -127       1       1                               0D     26
     508      14                                                00010000D     27
     508                       1       1                               0D     28
     508      15                                                00010000D     29
     508                       1       1                               0D     30
     508      16                                                00010000D     31
     508                       1       1                               0D     32
     508      17                                                00010000D     33
     508                       1       1                               0D     34
     508      18                                                00010000D     35
     508                       1       1                               0D     36
     508      19                                                00010000D     37
     508                       1       1                               0D     38
     508      20                                                00010000D     39
     508                       1       1                               0D     40
     508      21                                                00010000D     41
     508                       1       1                               0D     42
     508      22                                                00010000D     43
     508                       1       1                               0D     44
     508      23                                                00010000D     45
     508                       1       1                               0D     46
     508      24                                                00010000D     47
     508                       1       1                               0D     48
     508      25                                                00010000D     49
     508                       1       1                               0D     50
     126      26                                                00010000D     51
     126       0               2       0                               0D     52
     126      28                                                00010000D     53
     126       0               2       0                               0D     54
     126      30                                                00010000D     55
     126       0               2       0                               0D     56
     126      32                                                00010000D     57
     126       0               2       0                               0D     58
     126      34                                                00010000D     59
     126       0               2       0                               0D     60
     126      36                                                00010000D     61
     126       0               2       0                               0D     62
     126      38                                                00010000D     63
     126       0               2       0                               0D     64
     126      40                                                00010000D     65
     126       0               2       0                               0D     66
     126      42                                                00010000D     67
     126       0               2       0                               0D     68
     126      44                                                00010000D     69
     126       0               2       0                               0D     70
     126      46                                                00010000D     71
     126       0               2       0                               0D     72
     126      48                                                00010000D     73
     126       0               2       0                               0D     74
     126      50                                                00010000D     75
     126       0               2       0                               0D     76
     126      52                                                00010000D     77
     126       0               2       0                               0D     78
     126      54                                                00010000D     79
     126       0               2       0                               0D     80
     126      56                                                00010000D     81
     126       0               2       0                               0D     82
     126      58                                                00010000D     83
     126       0               2       0                               0D     84
     126      60                                                00010000D     85
     126       0               2       0                               0D     86
     126      62                                                00010000D     87
     126       0               2       0                               0D     88
     126      64                                                00010000D     89
     126       0               2       0                               0D     90
     126      66                                                00010000D     91
     126       0               2       0                               0D     92
     126      68                                                00010000D     93
     126       0               2       0                               0D     94
     126      70                                                00010000D     95
     126       0               2       0                               0D     96
     126      72                                                00010000D     97
     126       0               2       0                               0D     98
     128      74                                                00010000D     99
     128       0    -127       3       0                               0D    100
     128      77                                                00010000D    101
     128       0    -127       3       0                               0D    102
     128      80                                                00010000D    103
     128       0    -127       3       0                               0D    104
     128      83                                                00010000D    105
     128       0    -127       3       0                               0D    106
     128      86                                                00010000D    107
     128       0    -127       3       0                               0D    108
     128      89                                                00010000D    109
     128       0    -127       4       0                               0D    110
     128      93                                                00010000D    111
     128       0    -127       3       0                               0D    112
     128      96                                                00010000D    113
     128       0    -127       3       0                               0D    114
     128      99                                                00010000D    115
     128       0    -127       4       0                               0D    116
     128     103                                                00010000D    117
     128       0    -127       4       0                               0D    118
     128     107                                                00010000D    119
     128       0    -127       4       0                               0D    120
     502     111                                                00010000D    121
     502                       3       1                               0D    122
     504     114                                                00010001D    123
     504                       7       1                               0D    124
     406     121                                                00000000D    125
     406                       1      15                               0D    126
     314     122                                                00000200D    127
     314                       2       0                               0D    128
186,3,1,0,0,1,125;                                                     1P      1
514,11,5,1,7,1,9,1,11,1,13,1,15,1,17,1,19,1,21,1,23,1,25,1;            3P      2
510,99,1,1,27;                                                         5P      3
510,101,1,1,29;                                                        7P      4
510,103,1,1,31;                                                        9P      5
510,105,1,1,33;                                                       11P      6
510,107,1,1,35;                                                       13P      7
510,109,1,1,37;                                                       15P      8
510,111,1,1,39;                                                       17P      9
510,113,1,1,41;                                                       19P     10
510,115,1,1,43;                                                       21P     11
510,117,2,1,45,47;                                                    23P     12
510,119,1,1,49;                                                       25P     13
508,4,0,123,1,0,0,0,123,2,1,0,0,123,3,0,0,0,123,4,0,0;                27P     14
508,4,0,123,5,0,0,0,123,6,1,0,0,123,7,0,0,0,123,2,0,0;                29P     15
508,4,0,123,8,0,0,0,123,9,1,0,0,123,10,0,0,0,123,6,0,0;               31P     16
508,4,0,123,11,0,0,0,123,4,1,0,0,123,12,0,0,0,123,9,0,0;              33P     17
508,4,0,123,11,1,0,0,123,8,1,0,0,123,5,1,0,0,123,1,1,0;               35P     18
508,4,0,123,13,1,0,0,123,14,1,0,0,123,15,0,0,0,123,16,0,0;            37P     19
508,4,0,123,17,1,0,0,123,16,1,0,0,123,18,0,0,0,123,19,0,0;            39P     20
508,4,0,123,20,1,0,0,123,19,1,0,0,123,21,0,0,0,123,22,0,0;            41P     21
508,4,0,123,23,1,0,0,123,22,1,0,0,123,24,0,0,0,123,14,0,0;            43P     22
508,4,0,123,24,1,0,0,123,21,1,0,0,123,18,1,0,0,123,15,1,0;            45P     23
508,4,0,123,3,1,0,0,123,7,1,0,0,123,10,1,0,0,123,12,1,0;              47P     24
508,4,0,123,23,0,0,0,123,13,0,0,0,123,17,0,0,0,123,20,0,0;            49P     25
126,1,1,0,0,1,0,-0.55,-0.55,2.25,2.25,1.,1.,31.,30.,3.,3.,30.,        51P     26
3.,-0.55,2.25,0.,0.,0.;                                               51P     27
126,1,1,0,0,1,0,0.3,0.3,4.9,4.9,1.,1.,31.,30.,3.,31.,30.,49.,         53P     28
0.3,4.9,0.,0.,0.;                                                     53P     29
126,1,1,0,0,1,0,-2.25,-2.25,0.55,0.55,1.,1.,3.,30.,49.,31.,30.,       55P     30
49.,-2.25,0.55,0.,0.,0.;                                              55P     31
126,1,1,0,0,1,0,0.3,0.3,4.9,4.9,1.,1.,3.,30.,3.,3.,30.,49.,0.3,       57P     32
4.9,0.,0.,0.;                                                         57P     33
126,1,1,0,0,1,0,-0.525,-0.525,2.175,2.175,1.,1.,31.,3.,3.,31.,        59P     34
30.,3.,-0.525,2.175,0.,0.,0.;                                         59P     35
126,1,1,0,0,1,0,0.3,0.3,4.9,4.9,1.,1.,31.,3.,3.,31.,3.,49.,0.3,       61P     36
4.9,0.,0.,0.;                                                         61P     37
126,1,1,0,0,1,0,-2.175,-2.175,0.525,0.525,1.,1.,31.,30.,49.,31.,      63P     38
3.,49.,-2.175,0.525,0.,0.,0.;                                         63P     39
126,1,1,0,0,1,0,-0.55,-0.55,2.25,2.25,1.,1.,3.,3.,3.,31.,3.,3.,       65P     40
-0.55,2.25,0.,0.,0.;                                                  65P     41
126,1,1,0,0,1,0,0.3,0.3,4.9,4.9,1.,1.,3.,3.,3.,3.,3.,49.,0.3,         67P     42
4.9,0.,0.,0.;                                                         67P     43
126,1,1,0,0,1,0,-2.25,-2.25,0.55,0.55,1.,1.,31.,3.,49.,3.,3.,         69P     44
49.,-2.25,0.55,0.,0.,0.;                                              69P     45
126,1,1,0,0,1,0,-0.525,-0.525,2.175,2.175,1.,1.,3.,30.,3.,3.,3.,      71P     46
3.,-0.525,2.175,0.,0.,0.;                                             71P     47
126,1,1,0,0,1,0,-2.175,-2.175,0.525,0.525,1.,1.,3.,3.,49.,3.,         73P     48
30.,49.,-2.175,0.525,0.,0.,0.;                                        73P     49
126,1,1,0,0,1,0,0.,0.,3.4,3.4,1.,1.,34.,33.,0.,0.,33.,0.,0.,3.4,      75P     50
0.,0.,0.;                                                             75P     51
126,1,1,0,0,1,0,0.,0.,4.9,4.9,1.,1.,0.,33.,0.,0.,33.,49.,0.,4.9,      77P     52
0.,0.,0.;                                                             77P     53
126,1,1,0,0,1,0,0.,0.,3.4,3.4,1.,1.,34.,33.,49.,0.,33.,49.,0.,        79P     54
3.4,0.,0.,0.;                                                         79P     55
126,1,1,0,0,1,0,0.,0.,4.9,4.9,1.,1.,34.,33.,0.,34.,33.,49.,0.,        81P     56
4.9,0.,0.,0.;                                                         81P     57
126,1,1,0,0,1,0,0.,0.,3.3,3.3,1.,1.,34.,0.,0.,34.,33.,0.,0.,3.3,      83P     58
0.,0.,0.;                                                             83P     59
126,1,1,0,0,1,0,0.,0.,3.3,3.3,1.,1.,34.,0.,49.,34.,33.,49.,0.,        85P     60
3.3,0.,0.,0.;                                                         85P     61
126,1,1,0,0,1,0,0.,0.,4.9,4.9,1.,1.,34.,0.,0.,34.,0.,49.,0.,4.9,      87P     62
0.,0.,0.;                                                             87P     63
126,1,1,0,0,1,0,0.,0.,3.4,3.4,1.,1.,0.,0.,0.,34.,0.,0.,0.,3.4,        89P     64
0.,0.,0.;                                                             89P     65
126,1,1,0,0,1,0,0.,0.,3.4,3.4,1.,1.,0.,0.,49.,34.,0.,49.,0.,3.4,      91P     66
0.,0.,0.;                                                             91P     67
126,1,1,0,0,1,0,0.,0.,4.9,4.9,1.,1.,0.,0.,0.,0.,0.,49.,0.,4.9,        93P     68
0.,0.,0.;                                                             93P     69
126,1,1,0,0,1,0,0.,0.,3.3,3.3,1.,1.,0.,33.,0.,0.,0.,0.,0.,3.3,        95P     70
0.,0.,0.;                                                             95P     71
126,1,1,0,0,1,0,0.,0.,3.3,3.3,1.,1.,0.,33.,49.,0.,0.,49.,0.,3.3,      97P     72
0.,0.,0.;                                                             97P     73
128,1,1,1,1,0,0,1,0,0,0.299,0.299,3.101,3.101,0.299,0.299,4.901,      99P     74
4.901,1.,1.,1.,1.,2.99,30.,2.99,31.01,30.,2.99,2.99,30.,49.01,        99P     75
31.01,30.,49.01,0.299,3.101,0.299,4.901;                              99P     76
128,1,1,1,1,0,0,1,0,0,0.299,0.299,3.001,3.001,0.299,0.299,4.901,     101P     77
4.901,1.,1.,1.,1.,31.,30.01,2.99,31.,2.99,2.99,31.,30.01,49.01,      101P     78
31.,2.99,49.01,0.299,3.001,0.299,4.901;                              101P     79
128,1,1,1,1,0,0,1,0,0,0.299,0.299,3.101,3.101,0.299,0.299,4.901,     103P     80
4.901,1.,1.,1.,1.,31.01,3.,2.99,2.99,3.,2.99,31.01,3.,49.01,         103P     81
2.99,3.,49.01,0.299,3.101,0.299,4.901;                               103P     82
128,1,1,1,1,0,0,1,0,0,0.299,0.299,3.001,3.001,0.299,0.299,4.901,     105P     83
4.901,1.,1.,1.,1.,3.,2.99,2.99,3.,30.01,2.99,3.,2.99,49.01,3.,       105P     84
30.01,49.01,0.299,3.001,0.299,4.901;                                 105P     85
128,1,1,1,1,0,0,1,0,0,-1.401,-1.401,1.401,1.401,-1.351,-1.351,       107P     86
1.351,1.351,1.,1.,1.,1.,2.99,2.99,3.,31.01,2.99,3.,2.99,30.01,       107P     87
3.,31.01,30.01,3.,-1.401,1.401,-1.351,1.351;                         107P     88
128,1,1,1,1,0,0,1,0,0,-0.001,-0.001,3.401,3.401,-0.001,-0.001,       109P     89
4.901,4.901,1.,1.,1.,1.,34.01,33.,-0.01,-0.0099999999999989,33.,     109P     90
-0.01,34.01,33.,49.01,-0.0099999999999989,33.,49.01,-0.001,          109P     91
3.401,-0.001,4.901;                                                  109P     92
128,1,1,1,1,0,0,1,0,0,-0.001,-0.001,3.301,3.301,-0.001,-0.001,       111P     93
4.901,4.901,1.,1.,1.,1.,34.,-0.01,-0.01,34.,33.01,-0.01,34.,         111P     94
-0.01,49.01,34.,33.01,49.01,-0.001,3.301,-0.001,4.901;               111P     95
128,1,1,1,1,0,0,1,0,0,-0.001,-0.001,3.401,3.401,-0.001,-0.001,       113P     96
4.901,4.901,1.,1.,1.,1.,-0.01,0.,-0.01,34.01,0.,-0.01,-0.01,0.,      113P     97
49.01,34.01,0.,49.01,-0.001,3.401,-0.001,4.901;                      113P     98
128,1,1,1,1,0,0,1,0,0,-0.001,-0.001,3.301,3.301,-0.001,-0.001,       115P     99
4.901,4.901,1.,1.,1.,1.,0.,33.01,-0.01,0.,-0.0099999999999989,       115P    100
-0.01,0.,33.01,49.01,0.,-0.0099999999999989,49.01,-0.001,3.301,      115P    101
-0.001,4.901;                                                        115P    102
128,1,1,1,1,0,0,1,0,0,-1.701,-1.701,1.701,1.701,-1.651,-1.651,       117P    103
1.651,1.651,1.,1.,1.,1.,-0.0099999999999989,-0.0099999999999989,     117P    104
49.,34.01,-0.0099999999999989,49.,-0.0099999999999989,33.01,49.,     117P    105
34.01,33.01,49.,-1.701,1.701,-1.651,1.651;                           117P    106
128,1,1,1,1,0,0,1,0,0,-1.701,-1.701,1.701,1.701,-1.651,-1.651,       119P    107
1.651,1.651,1.,1.,1.,1.,34.01,-0.0099999999999989,0.,                119P    108
-0.0099999999999989,-0.0099999999999989,0.,34.01,33.01,0.,           119P    109
-0.0099999999999989,33.01,0.,-1.701,1.701,-1.651,1.651;              119P    110
502,16,31.,30.,3.,3.,30.,3.,31.,30.,49.,3.,30.,49.,31.,3.,3.,        121P    111
31.,3.,49.,3.,3.,3.,3.,3.,49.,34.,33.,0.,0.,33.,0.,0.,33.,49.,       121P    112
34.,33.,49.,34.,0.,0.,34.,0.,49.,0.,0.,0.,0.,0.,49.;                 121P    113
504,24,51,121,1,121,2,53,121,1,121,3,55,121,4,121,3,57,121,2,        123P    114
121,4,59,121,5,121,1,61,121,5,121,6,63,121,3,121,6,65,121,7,121,     123P    115
5,67,121,7,121,8,69,121,6,121,8,71,121,2,121,7,73,121,8,121,4,       123P    116
75,121,9,121,10,77,121,10,121,11,79,121,12,121,11,81,121,9,121,      123P    117
12,83,121,13,121,9,85,121,14,121,12,87,121,13,121,14,89,121,15,      123P    118
121,13,91,121,16,121,14,93,121,15,121,16,95,121,10,121,15,97,        123P    119
121,11,121,16;                                                       123P    120
406,1,5HBody1;                                                       125P    121
314,62.7450980392157,62.7450980392157,62.7450980392157,13HSteel      127P    122
- Satin;                                                             127P    123
S      1G      3D    128P    123                                        T      1
