                                                                        S      1
,,20HKitchen Shelf Cap v2,20HKitchen Shelf Cap v2,7Hunknown,7Hunknown,  G      1
32,38,7,99,15,,1.,2,2HMM,1,0.08,15H20220922.115104,0.01,10000.,7HunknownG      2
,7Hunknown,11,0,15H20190723.184050;                                     G      3
     186       1                                                00000000D      1
     186            -155       1       0                               0D      2
     514       2                                                00010000D      3
     514                       2       1                               0D      4
     510       4                                                00010000D      5
     510            -155       1       1                               0D      6
     510       5                                                00010000D      7
     510            -155       1       1                               0D      8
     510       6                                                00010000D      9
     510            -155       1       1                               0D     10
     510       7                                                00010000D     11
     510            -155       1       1                               0D     12
     510       8                                                00010000D     13
     510            -155       1       1                               0D     14
     510       9                                                00010000D     15
     510            -155       1       1                               0D     16
     510      10                                                00010000D     17
     510            -155       1       1                               0D     18
     510      11                                                00010000D     19
     510            -155       1       1                               0D     20
     510      12                                                00010000D     21
     510            -155       1       1                               0D     22
     510      13                                                00010000D     23
     510            -155       1       1                               0D     24
     510      14                                                00010000D     25
     510            -155       1       1                               0D     26
     510      15                                                00010000D     27
     510            -155       1       1                               0D     28
     510      16                                                00010000D     29
     510            -155       1       1                               0D     30
     508      17                                                00010000D     31
     508                       1       1                               0D     32
     508      18                                                00010000D     33
     508                       2       1                               0D     34
     508      20                                                00010000D     35
     508                       1       1                               0D     36
     508      21                                                00010000D     37
     508                       1       1                               0D     38
     508      22                                                00010000D     39
     508                       1       1                               0D     40
     508      23                                                00010000D     41
     508                       1       1                               0D     42
     508      24                                                00010000D     43
     508                       1       1                               0D     44
     508      25                                                00010000D     45
     508                       1       1                               0D     46
     508      26                                                00010000D     47
     508                       3       1                               0D     48
     508      29                                                00010000D     49
     508                       2       1                               0D     50
     508      31                                                00010000D     51
     508                       1       1                               0D     52
     508      32                                                00010000D     53
     508                       1       1                               0D     54
     508      33                                                00010000D     55
     508                       2       1                               0D     56
     126      35                                                00010000D     57
     126       0               5       0                               0D     58
     126      40                                                00010000D     59
     126       0               2       0                               0D     60
     126      42                                                00010000D     61
     126       0               4       0                               0D     62
     126      46                                                00010000D     63
     126       0               2       0                               0D     64
     126      48                                                00010000D     65
     126       0               2       0                               0D     66
     126      50                                                00010000D     67
     126       0               4       0                               0D     68
     126      54                                                00010000D     69
     126       0               2       0                               0D     70
     126      56                                                00010000D     71
     126       0               2       0                               0D     72
     126      58                                                00010000D     73
     126       0               2       0                               0D     74
     126      60                                                00010000D     75
     126       0               2       0                               0D     76
     126      62                                                00010000D     77
     126       0               2       0                               0D     78
     126      64                                                00010000D     79
     126       0               5       0                               0D     80
     126      69                                                00010000D     81
     126       0               2       0                               0D     82
     126      71                                                00010000D     83
     126       0               3       0                               0D     84
     126      74                                                00010000D     85
     126       0               2       0                               0D     86
     126      76                                                00010000D     87
     126       0               2       0                               0D     88
     126      78                                                00010000D     89
     126       0               2       0                               0D     90
     126      80                                                00010000D     91
     126       0             168       0                               0D     92
     126     248                                                00010000D     93
     126       0               2       0                               0D     94
     126     250                                                00010000D     95
     126       0               4       0                               0D     96
     126     254                                                00010000D     97
     126       0             168       0                               0D     98
     126     422                                                00010000D     99
     126       0               2       0                               0D    100
     126     424                                                00010000D    101
     126       0               4       0                               0D    102
     126     428                                                00010000D    103
     126       0               2       0                               0D    104
     126     430                                                00010000D    105
     126       0               2       0                               0D    106
     126     432                                                00010000D    107
     126       0               2       0                               0D    108
     126     434                                                00010000D    109
     126       0               2       0                               0D    110
     126     436                                                00010000D    111
     126       0               2       0                               0D    112
     126     438                                                00010000D    113
     126       0               2       0                               0D    114
     126     440                                                00010000D    115
     126       0               2       0                               0D    116
     126     442                                                00010000D    117
     126       0               2       0                               0D    118
     126     444                                                00010000D    119
     126       0               2       0                               0D    120
     126     446                                                00010000D    121
     126       0               2       0                               0D    122
     128     448                                                00010000D    123
     128       0    -155       6       0                               0D    124
     128     454                                                00010000D    125
     128       0    -155       4       0                               0D    126
     128     458                                                00010000D    127
     128       0    -155       3       0                               0D    128
     128     461                                                00010000D    129
     128       0    -155       6       0                               0D    130
     128     467                                                00010000D    131
     128       0    -155       4       0                               0D    132
     128     471                                                00010000D    133
     128       0    -155       6       0                               0D    134
     128     477                                                00010000D    135
     128       0    -155       5       0                               0D    136
     128     482                                                00010000D    137
     128       0    -155       4       0                               0D    138
     128     486                                                00010000D    139
     128       0    -155       4       0                               0D    140
     128     490                                                00010000D    141
     128       0    -155       3       0                               0D    142
     128     493                                                00010000D    143
     128       0    -155       3       0                               0D    144
     128     496                                                00010000D    145
     128       0    -155       4       0                               0D    146
     128     500                                                00010000D    147
     128       0    -155       4       0                               0D    148
     502     504                                                00010000D    149
     502                       5       1                               0D    150
     504     509                                                00010001D    151
     504                       9       1                               0D    152
     406     518                                                00000000D    153
     406                       1      15                               0D    154
     314     519                                                00000200D    155
     314                       2       0                               0D    156
186,3,1,0,0,1,153;                                                     1P      1
514,13,5,1,7,1,9,1,11,1,13,1,15,1,17,1,19,1,21,1,23,1,25,1,27,1,       3P      2
29,1;                                                                  3P      3
510,123,1,1,31;                                                        5P      4
510,125,1,1,33;                                                        7P      5
510,127,1,1,35;                                                        9P      6
510,129,1,1,37;                                                       11P      7
510,131,1,1,39;                                                       13P      8
510,133,1,1,41;                                                       15P      9
510,135,1,1,43;                                                       17P     10
510,137,1,1,45;                                                       19P     11
510,139,1,1,47;                                                       21P     12
510,141,1,1,49;                                                       23P     13
510,143,1,1,51;                                                       25P     14
510,145,1,1,53;                                                       27P     15
510,147,1,1,55;                                                       29P     16
508,4,0,151,1,1,0,0,151,2,1,0,0,151,3,1,0,0,151,4,1,0;                31P     17
508,6,0,151,3,0,0,0,151,5,0,0,0,151,6,0,0,0,151,7,0,0,0,151,8,0,      33P     18
0,0,151,9,0,0;                                                        33P     19
508,4,0,151,2,0,0,0,151,10,0,0,0,151,11,0,0,0,151,5,1,0;              35P     20
508,4,0,151,12,1,0,0,151,13,1,0,0,151,6,1,0,0,151,11,1,0;             37P     21
508,4,0,151,14,0,0,0,151,15,1,0,0,151,16,0,0,0,151,17,0,0;            39P     22
508,4,0,151,18,0,0,0,151,19,1,0,0,151,20,0,0,0,151,15,0,0;            41P     23
508,4,0,151,21,0,0,0,151,22,1,0,0,151,23,0,0,0,151,19,0,0;            43P     24
508,4,0,151,24,0,0,0,151,25,1,0,0,151,26,0,0,0,151,22,0,0;            45P     25
508,11,0,151,1,0,0,0,151,27,1,0,0,151,28,1,0,0,151,16,1,0,0,151,      47P     26
20,1,0,0,151,23,1,0,0,151,26,1,0,0,151,29,1,0,0,151,30,1,0,0,         47P     27
151,12,0,0,0,151,10,1,0;                                              47P     28
508,8,0,151,8,1,0,0,151,31,1,0,0,151,29,0,0,0,151,25,0,0,0,151,       49P     29
32,0,0,0,151,17,1,0,0,151,28,0,0,0,151,33,0,0;                        49P     30
508,4,0,151,13,0,0,0,151,30,0,0,0,151,31,0,0,0,151,7,1,0;             51P     31
508,4,0,151,4,0,0,0,151,9,1,0,0,151,33,1,0,0,151,27,0,0;              53P     32
508,5,0,151,14,1,0,0,151,32,1,0,0,151,24,1,0,0,151,21,1,0,0,151,      55P     33
18,1,0;                                                               55P     34
126,2,2,0,0,0,0,-0.785398163397448,-0.785398163397448,                57P     35
-0.785398163397448,0.785398163397448,0.785398163397448,               57P     36
0.785398163397448,1.,0.707106781186548,1.,-1.5,35.,7.5,-1.5,          57P     37
39.5,7.5,3.,39.5,7.5,-0.785398163397448,0.785398163397448,0.,0.,      57P     38
0.;                                                                   57P     39
126,1,1,0,0,1,0,-0.75,-0.75,0.,0.,1.,1.,3.,39.5,7.5,3.,39.5,0.,       59P     40
-0.75,0.,0.,0.,0.;                                                    59P     41
126,2,2,0,0,0,0,-0.785398163397448,-0.785398163397448,                61P     42
-0.785398163397448,0.785398163397448,0.785398163397448,               61P     43
0.785398163397448,1.,0.707106781186548,1.,3.,39.5,0.,-1.5,39.5,       61P     44
0.,-1.5,35.,0.,-0.785398163397448,0.785398163397448,0.,0.,0.;         61P     45
126,1,1,0,0,1,0,0.,0.,0.75,0.75,1.,1.,-1.5,35.,0.,-1.5,35.,7.5,       63P     46
0.,0.75,0.,0.,0.;                                                     63P     47
126,1,1,0,0,1,0,0.45,0.45,1.61,1.61,1.,1.,14.6,39.5,0.,3.,39.5,       65P     48
0.,0.45,1.61,0.,0.,0.;                                                65P     49
126,2,2,0,0,0,0,-0.785398163397448,-0.785398163397448,                67P     50
-0.785398163397448,0.785398163397448,0.785398163397448,               67P     51
0.785398163397448,1.,0.707106781186548,1.,19.1,35.,0.,19.1,39.5,      67P     52
0.,14.6,39.5,0.,-0.785398163397448,0.785398163397448,0.,0.,0.;        67P     53
126,1,1,0,0,1,0,0.,0.,3.5,3.5,1.,1.,19.1,0.,0.,19.1,35.,0.,0.,        69P     54
3.5,0.,0.,0.;                                                         69P     55
126,1,1,0,0,1,0,0.,0.,2.06,2.06,1.,1.,-1.5,0.,0.,19.1,0.,0.,0.,       71P     56
2.06,0.,0.,0.;                                                        71P     57
126,1,1,0,0,1,0,0.45,0.45,3.95,3.95,1.,1.,-1.5,35.,0.,-1.5,0.,        73P     58
0.,0.45,3.95,0.,0.,0.;                                                73P     59
126,1,1,0,0,1,0,0.45,0.45,1.61,1.61,1.,1.,14.6,39.5,7.5,3.,39.5,      75P     60
7.5,0.45,1.61,0.,0.,0.;                                               75P     61
126,1,1,0,0,1,0,0.,0.,0.75,0.75,1.,1.,14.6,39.5,0.,14.6,39.5,         77P     62
7.5,0.,0.75,0.,0.,0.;                                                 77P     63
126,2,2,0,0,0,0,-0.785398163397448,-0.785398163397448,                79P     64
-0.785398163397448,0.785398163397448,0.785398163397448,               79P     65
0.785398163397448,1.,0.707106781186548,1.,14.6,39.5,7.5,19.1,         79P     66
39.5,7.5,19.1,35.,7.5,-0.785398163397448,0.785398163397448,0.,        79P     67
0.,0.;                                                                79P     68
126,1,1,0,0,1,0,-0.75,-0.75,0.,0.,1.,1.,19.1,35.,7.5,19.1,35.,        81P     69
0.,-0.75,0.,0.,0.,0.;                                                 81P     70
126,1,1,0,0,1,0,-2.5625,-2.5625,0.9875,0.9875,1.,1.,                  83P     71
-1.66238163620793D-31,35.5,1.,6.40625118343544D-32,0.,1.,             83P     72
-2.5625,0.9875,0.,0.,0.;                                              83P     73
126,1,1,0,0,1,0,0.1,0.1,0.75,0.75,1.,1.,-2.30300675455147D-31,        85P     74
35.5,1.,-2.30300675455147D-31,35.5,7.5,0.1,0.75,0.,0.,0.;             85P     75
126,1,1,0,0,1,0,-3.8,-3.8,-0.25,-0.25,1.,1.,0.,0.,7.5,                87P     76
-2.30300675455147D-31,35.5,7.5,-3.8,-0.25,0.,0.,0.;                   87P     77
126,1,1,0,0,1,0,0.1,0.1,0.75,0.75,1.,1.,0.,0.,1.,0.,0.,7.5,0.1,       89P     78
0.75,0.,0.,0.;                                                        89P     79
126,159,3,0,0,1,0,0.,0.,0.,0.,0.0187675440717498,                     91P     80
0.0187675440717498,0.0187675440717498,0.0379352171442836,             91P     81
0.0379352171442836,0.0379352171442836,0.057960069314682,              91P     82
0.057960069314682,0.057960069314682,0.0788882956563169,               91P     83
0.0788882956563169,0.0788882956563169,0.100769021127371,              91P     84
0.100769021127371,0.100769021127371,0.123654516629564,                91P     85
0.123654516629564,0.123654516629564,0.14760043399426,                 91P     86
0.14760043399426,0.14760043399426,0.172666062099504,                  91P     87
0.172666062099504,0.172666062099504,0.198914606746935,                91P     88
0.198914606746935,0.198914606746935,0.226413497496156,                91P     89
0.226413497496156,0.226413497496156,0.255234725430683,                91P     90
0.255234725430683,0.255234725430683,0.285455216915815,                91P     91
0.285455216915815,0.285455216915815,0.318530067295005,                91P     92
0.318530067295005,0.318530067295005,0.35266041978461,                 91P     93
0.35266041978461,0.35266041978461,0.38849543946068,                   91P     94
0.38849543946068,0.38849543946068,0.426138865368714,                  91P     95
0.426138865368714,0.426138865368714,0.465702365687909,                91P     96
0.465702365687909,0.465702365687909,0.507306469974549,                91P     97
0.507306469974549,0.507306469974549,0.551081738444351,                91P     98
0.551081738444351,0.551081738444351,0.597170281322601,                91P     99
0.597170281322601,0.597170281322601,0.645727812765263,                91P    100
0.645727812765263,0.645727812765263,0.696926548537105,                91P    101
0.696926548537105,0.696926548537105,0.752422477076955,                91P    102
0.752422477076955,0.752422477076955,0.811049178171638,                91P    103
0.811049178171638,0.811049178171638,0.873080776591723,                91P    104
0.873080776591723,0.873080776591723,0.938857594189967,                91P    105
0.938857594189967,0.938857594189967,1.00882729398985,                 91P    106
1.00882729398985,1.00882729398985,1.08362508982331,                   91P    107
1.08362508982331,1.08362508982331,1.16788823125217,                   91P    108
1.16788823125217,1.16788823125217,1.26082204126807,                   91P    109
1.26082204126807,1.26082204126807,1.3652809311093,                    91P    110
1.3652809311093,1.3652809311093,1.46929063776183,                     91P    111
1.46929063776183,1.46929063776183,1.5589504835045,                    91P    112
1.5589504835045,1.5589504835045,1.63850701598921,                     91P    113
1.63850701598921,1.63850701598921,1.71075341994274,                   91P    114
1.71075341994274,1.71075341994274,1.77716236378965,                   91P    115
1.77716236378965,1.77716236378965,1.8386305892287,                    91P    116
1.8386305892287,1.8386305892287,1.89577385390453,                     91P    117
1.89577385390453,1.89577385390453,1.94905382872393,                   91P    118
1.94905382872393,1.94905382872393,1.99883896736214,                   91P    119
1.99883896736214,1.99883896736214,2.04543641287707,                   91P    120
2.04543641287707,2.04543641287707,2.09003756641543,                   91P    121
2.09003756641543,2.09003756641543,2.12963463985367,                   91P    122
2.12963463985367,2.12963463985367,2.16701810755345,                   91P    123
2.16701810755345,2.16701810755345,2.20233816616,2.20233816616,        91P    124
2.20233816616,2.23573204886496,2.23573204886496,                      91P    125
2.23573204886496,2.26732563689817,2.26732563689817,                   91P    126
2.26732563689817,2.29723474815656,2.29723474815656,                   91P    127
2.29723474815656,2.32474614097503,2.32474614097503,                   91P    128
2.32474614097503,2.35104763936047,2.35104763936047,                   91P    129
2.35104763936047,2.37664664027222,2.37664664027222,                   91P    130
2.37664664027222,2.40030298147147,2.40030298147147,                   91P    131
2.40030298147147,2.40224564118397,2.40224564118397,                   91P    132
2.40224564118397,2.40224564118397,1.,1.,1.,1.,1.,1.,1.,1.,1.,1.,      91P    133
1.,1.,1.,1.,1.,1.,1.,1.,1.,1.,1.,1.,1.,1.,1.,1.,1.,1.,1.,1.,1.,       91P    134
1.,1.,1.,1.,1.,1.,1.,1.,1.,1.,1.,1.,1.,1.,1.,1.,1.,1.,1.,1.,1.,       91P    135
1.,1.,1.,1.,1.,1.,1.,1.,1.,1.,1.,1.,1.,1.,1.,1.,1.,1.,1.,1.,1.,       91P    136
1.,1.,1.,1.,1.,1.,1.,1.,1.,1.,1.,1.,1.,1.,1.,1.,1.,1.,1.,1.,1.,       91P    137
1.,1.,1.,1.,1.,1.,1.,1.,1.,1.,1.,1.,1.,1.,1.,1.,1.,1.,1.,1.,1.,       91P    138
1.,1.,1.,1.,1.,1.,1.,1.,1.,1.,1.,1.,1.,1.,1.,1.,1.,1.,1.,1.,1.,       91P    139
1.,1.,1.,1.,1.,1.,1.,1.,1.,1.,1.,1.,1.,1.,1.,1.,1.,1.,1.,1.,1.,       91P    140
1.,1.,1.,8.8,38.,1.,8.69375000046566,37.9843750086147,1.,             91P    141
8.59146610053446,37.9693087609218,1.,8.49273028787055,                91P    142
37.954741914523,1.,8.39188940157997,37.9398644991083,1.,              91P    143
8.29475003307804,37.9255080812382,1.,8.20092770513099,                91P    144
37.9116180668744,1.,8.10290963896757,37.897106890519,1.,              91P    145
8.00851220948693,37.8831048061739,1.,7.91735667629652,                91P    146
37.8695580198506,1.,7.8220888753326,37.855400102081,1.,               91P    147
7.73036235492376,37.841739528838,1.,7.64180399652405,                 91P    148
37.8285232873007,1.,7.54921511217812,37.8147055395318,1.,             91P    149
7.46008962021529,37.801373529724,1.,7.37405991177365,                 91P    150
37.7884750071883,1.,7.28407969113606,37.7749841803021,1.,             91P    151
7.1974863852794,37.7619676069097,1.,7.11391778529066,                 91P    152
37.7493737790747,1.,7.02647695232195,37.7361964038847,1.,             91P    153
6.94234790890227,37.7234818989055,1.,6.86117373828582,                91P    154
37.7111794789931,1.,6.7762038646562,37.6983017981082,1.,              91P    155
6.69447194817227,37.685875681828,1.,6.61562625785978,                 91P    156
37.673851046963,1.,6.53305962064107,37.661258936213,1.,               91P    157
6.45365833948366,37.6491071354185,1.,6.37707576348234,                91P    158
37.6373462412536,1.,6.29684518616687,37.6250251183838,1.,             91P    159
6.21970853092425,37.6131330710742,1.,6.14532412104706,                91P    160
37.6016213520377,1.,6.06736279339219,37.5895560697943,1.,             91P    161
5.99242505308788,37.5779086133156,1.,5.92017409049396,                91P    162
37.5666308651761,1.,5.84441536137867,37.5548055851291,1.,             91P    163
5.77161091164578,37.5433868238258,1.,5.70142868893035,                91P    164
37.5323270643656,1.,5.62461767754313,37.5202226983741,1.,             91P    165
5.55094753320635,37.5085483398372,1.,5.48004768990892,                91P    166
37.4972508476015,1.,5.40688525333078,37.4855928238211,1.,             91P    167
5.33667326928387,37.4743361770944,1.,5.26906618119077,                91P    168
37.4634312182713,1.,5.19808240413204,37.4519816027389,1.,             91P    169
5.12997055867547,37.440919730487,1.,5.06439110808834,                 91P    170
37.4301966118018,1.,4.99550220523349,37.4189323533368,1.,             91P    171
4.92940806873096,37.4080419487575,1.,4.86577493950581,                91P    172
37.397477033844,1.,4.79889608170574,37.3863732353859,1.,              91P    173
4.73473601808801,37.3756290253044,1.,4.67296650529236,                91P    174
37.3651965763643,1.,4.60801104808175,37.3542260431666,1.,             91P    175
4.54569942691388,37.3436003081475,1.,4.48570862253981,                91P    176
37.3332719725204,1.,4.4225871201731,37.3224046392926,1.,              91P    177
4.36203531029753,37.3118666038331,1.,4.30373506253525,                91P    178
37.3016107595638,1.,4.24235397767319,37.2908129521515,1.,             91P    179
4.18346903207646,37.2803279971574,1.,4.12676658527473,                91P    180
37.270108905312,1.,4.06702655724381,37.2593423711018,1.,              91P    181
4.00970945178957,37.2488709978101,1.,3.95450562622472,                91P    182
37.2386476839913,1.,3.89629908246689,37.2278682904067,1.,             91P    183
3.8404422933597,37.217364727435,1.,3.78662898462161,                  91P    184
37.2070894737554,1.,3.72829903777427,37.195951801402,1.,              91P    185
3.67237009434565,37.1850823969148,1.,3.61851380628732,                91P    186
37.1744289583725,1.,3.56161924509807,37.1631745119027,1.,             91P    187
3.50703818149761,37.1521611545874,1.,3.45444528090421,                91P    188
37.1413352233987,1.,3.39879791155815,37.1298805482509,1.,             91P    189
3.34537673868232,37.1186357777722,1.,3.29385740832804,                91P    190
37.1075449037071,1.,3.2392275473893,37.0957844071383,1.,              91P    191
3.18673651056808,37.0841970393409,1.,3.13605794656825,                91P    192
37.072722975085,1.,3.08214892453231,37.0605175072503,1.,              91P    193
3.0302912192343,37.0484403578151,1.,2.98015186724758,                 91P    194
37.036425578001,1.,2.92655276615309,37.0235817463125,1.,              91P    195
2.87491777929966,37.0108093382914,1.,2.82489968339046,                91P    196
36.9980324361768,1.,2.76855200840037,36.9836386709874,1.,             91P    197
2.71425645597205,36.9692394574484,1.,2.66158576617973,                91P    198
36.9547287334676,1.,2.60349526782465,36.9387248574814,1.,             91P    199
2.54738201029394,36.9225858945848,1.,2.49274461966654,                91P    200
36.9061658337461,1.,2.43133143572646,36.8877094579013,1.,             91P    201
2.37178440152522,36.8688992478878,1.,2.31345965668468,                91P    202
36.8495083835307,1.,2.25538571380946,36.8302009017396,1.,             91P    203
2.19852663700251,36.8103191023994,1.,2.14227270509475,                91P    204
36.7896009116504,1.,2.09377993437558,36.7717411383042,1.,             91P    205
2.04573851010364,36.75325999228,1.,1.99774645438945,                  91P    206
36.7339531318332,1.,1.95516238001582,36.7168218635649,1.,             91P    207
1.91261792289569,36.6990406262454,1.,1.86980814671374,                91P    208
36.6804337727463,1.,1.83093198800489,36.6635366278831,1.,             91P    209
1.79183751127631,36.6459588014696,1.,1.75226728357605,                91P    210
36.6275376943245,1.,1.71589430325379,36.610605000058,1.,              91P    211
1.67911972541423,36.5929599899711,1.,1.64171206319026,                91P    212
36.5744462201125,1.,1.60708747075537,36.5573098448975,1.,             91P    213
1.5719208193407,36.5394293745132,1.,1.53599553043994,                 91P    214
36.5206510175638,1.,1.50259797784185,36.503193923046,1.,              91P    215
1.46854509071303,36.4849610571994,1.,1.433628884687,                  91P    216
36.4657992975186,1.,1.40107326175558,36.4479330086554,1.,             91P    217
1.36776739335015,36.4292593897931,1.,1.33350799558166,                91P    218
36.409624771911,1.,1.30149580200711,36.3912780632896,1.,              91P    219
1.2686513449644,36.3720925030542,1.,1.23477350577324,                 91P    220
36.3519130832115,1.,1.20306483107523,36.3330257316371,1.,             91P    221
1.17045114221899,36.3132679293333,1.,1.13673176289017,                91P    222
36.2924827839256,1.,1.10445696331599,36.2725880997557,1.,             91P    223
1.07116961581796,36.2517525606763,1.,1.03665469608943,                91P    224
36.2298062512167,1.,1.00601221931963,36.21032223436,1.,               91P    225
0.974402095912957,36.1899626413004,1.,0.941640917133902,              91P    226
36.1685814006448,1.,0.910711195254231,36.1483954411781,1.,            91P    227
0.87875576046565,36.1272990649892,1.,0.845587455612295,               91P    228
36.1051423568312,1.,0.8142499007148,36.084208605127,1.,               91P    229
0.781829919481702,36.0623285436331,1.,0.748136064018084,              91P    230
36.0393481464232,1.,0.716279699628564,36.0176209829016,1.,            91P    231
0.683284866595953,35.9949104298715,1.,0.648955344887615,              91P    232
35.9710580903225,1.,0.616476559002987,35.9484916521518,1.,            91P    233
0.582803372146058,35.9249034284767,1.,0.547734349934316,              91P    234
35.9001303910447,1.,0.514535104380081,35.8766781787799,1.,            91P    235
0.48008516328741,35.8521643412717,1.,0.444177459135441,               91P    236
35.8264209544683,1.,0.411148361560467,35.8027413332082,1.,            91P    237
0.376885929353351,35.778021454136,1.,0.341195580947553,               91P    238
35.7521032755176,1.,0.307074820607831,35.7273249250508,1.,            91P    239
0.271649263848446,35.7014515897822,1.,0.234714201851701,              91P    240
35.6743168036036,1.,0.198765653526648,35.647906771523,1.,             91P    241
0.161387604789161,35.6203021378095,1.,0.122352270918112,              91P    242
35.5913174939789,1.,0.0862792546287923,35.5645324398918,1.,           91P    243
0.0487910428506566,35.5365689602601,1.,0.00967086847649687,           91P    244
35.5072504812701,1.,0.00645831814748104,35.5048428465692,1.,          91P    245
0.00323473954228565,35.5024260555123,1.,-2.30300675455147D-31,        91P    246
35.5,1.,0.,2.40224564118397,0.,0.,0.;                                 91P    247
126,1,1,0,0,1,0,0.1,0.1,0.75,0.75,1.,1.,8.8,38.,1.,8.8,38.,7.5,       93P    248
0.1,0.75,0.,0.,0.;                                                    93P    249
126,2,2,0,0,0,0,0.,0.,0.,0.926130900450834,0.926130900450834,         95P    250
0.926130900450834,1.,3.,1.,-2.30300675455147D-31,35.5,7.5,            95P    251
2.00000002980232,37.000000551343,7.5,8.8,38.,7.5,0.,                  95P    252
0.926130900450834,0.,0.,0.;                                           95P    253
126,159,3,0,0,1,0,0.,0.,0.,0.,0.00907916479922597,                    97P    254
0.00907916479922597,0.00907916479922597,0.0186770556342489,           97P    255
0.0186770556342489,0.0186770556342489,0.0288295330103262,             97P    256
0.0288295330103262,0.0288295330103262,0.0395754208322077,             97P    257
0.0395754208322077,0.0395754208322077,0.0509568102173084,             97P    258
0.0509568102173084,0.0509568102173084,0.0630194092025206,             97P    259
0.0630194092025206,0.0630194092025206,0.0764792049466891,             97P    260
0.0764792049466891,0.0764792049466891,0.0904955318458839,             97P    261
0.0904955318458839,0.0904955318458839,0.105384443888099,              97P    262
0.105384443888099,0.105384443888099,0.121213585102403,                97P    263
0.121213585102403,0.121213585102403,0.138057903448799,                97P    264
0.138057903448799,0.138057903448799,0.15600119175124,                 97P    265
0.15600119175124,0.15600119175124,0.175138337360103,                  97P    266
0.175138337360103,0.175138337360103,0.195578777706059,                97P    267
0.195578777706059,0.195578777706059,0.21835588892866,                 97P    268
0.21835588892866,0.21835588892866,0.242697977792547,                  97P    269
0.242697977792547,0.242697977792547,0.268944129465328,                97P    270
0.268944129465328,0.268944129465328,0.297434178075356,                97P    271
0.297434178075356,0.297434178075356,0.328709502986852,                97P    272
0.328709502986852,0.328709502986852,0.363718915239065,                97P    273
0.363718915239065,0.363718915239065,0.404439022532068,                97P    274
0.404439022532068,0.404439022532068,0.441593470039348,                97P    275
0.441593470039348,0.441593470039348,0.47470010975442,                 97P    276
0.47470010975442,0.47470010975442,0.504967902668562,                  97P    277
0.504967902668562,0.504967902668562,0.533046280447678,                97P    278
0.533046280447678,0.533046280447678,0.55930374132413,                 97P    279
0.55930374132413,0.55930374132413,0.583976519708021,                  97P    280
0.583976519708021,0.583976519708021,0.60723209512788,                 97P    281
0.60723209512788,0.60723209512788,0.62919871356019,                   97P    282
0.62919871356019,0.62919871356019,0.649980345867809,                  97P    283
0.649980345867809,0.649980345867809,0.669664826924004,                97P    284
0.669664826924004,0.669664826924004,0.688328557504894,                97P    285
0.688328557504894,0.688328557504894,0.706039368394927,                97P    286
0.706039368394927,0.706039368394927,0.722858353189566,                97P    287
0.722858353189566,0.722858353189566,0.738841097932689,                97P    288
0.738841097932689,0.738841097932689,0.754038544647747,                97P    289
0.754038544647747,0.754038544647747,0.768497624755455,                97P    290
0.768497624755455,0.768497624755455,0.782261742835269,                97P    291
0.782261742835269,0.782261742835269,0.79537115967737,                 97P    292
0.79537115967737,0.79537115967737,0.807863305190851,                  97P    293
0.807863305190851,0.807863305190851,0.81977304074777,                 97P    294
0.81977304074777,0.81977304074777,0.831132883828098,                  97P    295
0.831132883828098,0.831132883828098,0.841973203640944,                97P    296
0.841973203640944,0.841973203640944,0.852282345289488,                97P    297
0.852282345289488,0.852282345289488,0.861947142529947,                97P    298
0.861947142529947,0.861947142529947,0.871213958742631,                97P    299
0.871213958742631,0.871213958742631,0.880102199776065,                97P    300
0.880102199776065,0.880102199776065,0.888630163240097,                97P    301
0.888630163240097,0.888630163240097,0.896815111658829,                97P    302
0.896815111658829,0.896815111658829,0.904511663480935,                97P    303
0.904511663480935,0.904511663480935,0.911950019801898,                97P    304
0.911950019801898,0.911950019801898,0.918996208025763,                97P    305
0.918996208025763,0.918996208025763,0.924446336829302,                97P    306
0.924446336829302,0.924446336829302,0.924446336829302,1.,1.,1.,       97P    307
1.,1.,1.,1.,1.,1.,1.,1.,1.,1.,1.,1.,1.,1.,1.,1.,1.,1.,1.,1.,1.,       97P    308
1.,1.,1.,1.,1.,1.,1.,1.,1.,1.,1.,1.,1.,1.,1.,1.,1.,1.,1.,1.,1.,       97P    309
1.,1.,1.,1.,1.,1.,1.,1.,1.,1.,1.,1.,1.,1.,1.,1.,1.,1.,1.,1.,1.,       97P    310
1.,1.,1.,1.,1.,1.,1.,1.,1.,1.,1.,1.,1.,1.,1.,1.,1.,1.,1.,1.,1.,       97P    311
1.,1.,1.,1.,1.,1.,1.,1.,1.,1.,1.,1.,1.,1.,1.,1.,1.,1.,1.,1.,1.,       97P    312
1.,1.,1.,1.,1.,1.,1.,1.,1.,1.,1.,1.,1.,1.,1.,1.,1.,1.,1.,1.,1.,       97P    313
1.,1.,1.,1.,1.,1.,1.,1.,1.,1.,1.,1.,1.,1.,1.,1.,1.,1.,1.,1.,1.,       97P    314
1.,1.,1.,1.,1.,1.,1.,1.,1.,1.,17.6,35.5,1.,17.5586915253579,          97P    315
35.531822201538,1.,17.5191249660862,35.5621651692361,1.,              97P    316
17.4810691449897,35.5912217197292,1.,17.4408390550422,                97P    317
35.6219383776864,1.,17.4022975440353,35.6512171887439,1.,             97P    318
17.3652177074181,35.6792472733738,1.,17.3259953189959,                97P    319
35.7088969958958,1.,17.2884086829487,35.7371492803859,1.,             97P    320
17.2522350086849,35.7641896533633,1.,17.2139469897764,                97P    321
35.7928105311956,1.,17.1772422144426,35.8200734515362,1.,             97P    322
17.1419018382786,35.8461604481842,1.,17.1044714659535,                97P    323
35.8737902049489,1.,17.0685719226666,35.9001006061984,1.,             97P    324
17.0339881285419,35.9252702945605,1.,16.9973343927107,                97P    325
35.9519464627349,1.,16.9621589017203,35.977341048811,1.,              97P    326
16.9282501382034,36.0016294078255,1.,16.8904137621923,                97P    327
36.0287310591112,1.,16.8541544798746,36.0544554414946,1.,             97P    328
16.8192310406652,36.079002061478,1.,16.7828635987139,                 97P    329
36.1045636269354,1.,16.7479452579903,36.1288475990153,1.,             97P    330
16.7142532262685,36.1520376089006,1.,16.6784637002082,                97P    331
36.1766713107202,1.,16.6440582575177,36.2000703247414,1.,             97P    332
16.6108182105451,36.2224141186184,1.,16.5754790671606,                97P    333
36.2461689146397,1.,16.5414574878348,36.2687307348371,1.,             97P    334
16.5085383252377,36.2902751289159,1.,16.4735079438053,                97P    335
36.3132012389008,1.,16.4397262483929,36.3349749642766,1.,             97P    336
16.4069809332063,36.3557682128573,1.,16.3720992230138,                97P    337
36.3779180705337,1.,16.3383938689269,36.3989550704248,1.,             97P    338
16.3056545086905,36.4190478036554,1.,16.270736833991,                 97P    339
36.4404774075849,1.,16.2369183083028,36.4608326436821,1.,             97P    340
16.2039893162729,36.4802791897037,1.,16.1688177650397,                97P    341
36.5010501015217,1.,16.1346613715127,36.5207840745672,1.,             97P    342
16.1013096140433,36.5396444011587,1.,16.0641452146227,                97P    343
36.5606607662271,1.,16.0279800191536,36.5805922942029,1.,             97P    344
15.9925735048367,36.5996207154813,1.,15.9547342674795,                97P    345
36.6199565481148,1.,15.9177620357885,36.6392605514787,1.,             97P    346
15.8814129348986,36.6577103360058,1.,15.842220570576,                 97P    347
36.6776032813375,1.,15.8037531104084,36.6965028337521,1.,             97P    348
15.7657529666854,36.7145873190925,1.,15.7245040264463,                97P    349
36.7342179252422,1.,15.6838062664995,36.752887840141,1.,              97P    350
15.6433765133118,36.770779864537,1.,15.598994220942,                  97P    351
36.7904210692245,1.,15.5549355903236,36.8091245710963,1.,             97P    352
15.5108695120047,36.8270845399685,1.,15.4615422066427,                97P    353
36.8471888220522,1.,15.4122066560126,36.866361180458,1.,              97P    354
15.3624359883434,36.8848211841555,1.,15.3045467866358,                97P    355
36.9062923624139,1.,15.2460713970966,36.926799672118,1.,              97P    356
15.1863573623383,36.9466240153704,1.,15.1318721922989,                97P    357
36.9647124382578,1.,15.0763579260093,36.9822306419564,1.,             97P    358
15.0192989102267,36.9993596059441,1.,14.968456214271,                 97P    359
37.0146224473393,1.,14.9163878319595,37.0295754803533,1.,             97P    360
14.8626944936594,37.0443346245049,1.,14.813605281993,                 97P    361
37.0578281932457,1.,14.7631583188254,37.0711593570024,1.,             97P    362
14.7110096400899,37.0844128319247,1.,14.6626331262698,                97P    363
37.0967076192193,1.,14.6127925464032,37.1089353631651,1.,             97P    364
14.5611726106333,37.1211636684077,1.,14.5129002903951,                97P    365
37.132598953203,1.,14.463072235492,37.1440346105339,1.,               97P    366
14.4113889168804,37.1555279545796,1.,14.3628247745877,                97P    367
37.1663276557335,1.,14.3126228400835,37.1771782074778,1.,             97P    368
14.2604922934392,37.1881303870458,1.,14.2113561223804,                97P    369
37.1984534740525,1.,14.1605068124621,37.2088667853934,1.,             97P    370
14.1076580643943,37.2194168119165,1.,14.0577384961844,                97P    371
37.2293820956345,1.,14.0060352568855,37.2394693071037,1.,             97P    372
13.9522639245924,37.2497220824398,1.,13.9013932792152,                97P    373
37.2594217732603,1.,13.8486719115911,37.2692696018072,1.,             97P    374
13.7938155297398,37.2793073001881,1.,13.7418552509042,                97P    375
37.2888150655407,1.,13.6879796993365,37.2984931410389,1.,             97P    376
13.6319035127267,37.3083820072752,1.,13.5787351901328,                97P    377
37.31775808047,1.,13.5235888020808,37.3273236119682,1.,               97P    378
13.4661770633093,37.3371182907104,1.,13.4116966129061,                97P    379
37.346412879602,1.,13.355176486561,37.3559137778683,1.,               97P    380
13.296326851014,37.365660214269,1.,13.2404405829271,                  97P    381
37.3749158698481,1.,13.1824537568717,37.3843929234363,1.,             97P    382
13.1220735190201,37.3941303873491,1.,13.0646953870523,                97P    383
37.4033837044823,1.,13.0051561802133,37.4128721467756,1.,             97P    384
12.9431596555451,37.4226346926658,1.,12.8842092752877,                97P    385
37.4319175644976,1.,12.8230373732912,37.441448232894,1.,              97P    386
12.7593440207993,37.4512657816139,1.,12.6987452042168,                97P    387
37.4606063455957,1.,12.6358642460359,37.4702065583144,1.,             97P    388
12.5703972851807,37.4801057168849,1.,12.5080769319615,                97P    389
37.4895290817491,1.,12.44341344131,37.4992233136144,1.,               97P    390
12.3760988084396,37.5092280083278,1.,12.3119860496887,                97P    391
37.5187568217698,1.,12.2454686096892,37.5285672334911,1.,             97P    392
12.1762341531372,37.5386992068196,1.,12.1102596772157,                97P    393
37.5483541050263,1.,12.0418182802952,37.5583009635628,1.,             97P    394
11.9705931268033,37.5685801696951,1.,11.9026886389654,                97P    395
37.5783801377341,1.,11.8322541652084,37.588482154302,1.,              97P    396
11.7589682115433,37.5989270779237,1.,11.6890659933413,                97P    397
37.6088897418939,1.,11.6165697844552,37.6191643467822,1.,             97P    398
11.5411532819251,37.6297922628808,1.,11.4691858259655,                97P    399
37.6399341291583,1.,11.3945593313342,37.6503976974419,1.,             97P    400
11.3169425401491,37.6612248852177,1.,11.2431289895854,                97P    401
37.6715215383021,1.,11.1666112316868,37.6821470214937,1.,             97P    402
11.0870569005989,37.6931433270519,1.,11.0124748931169,                97P    403
37.703452338921,1.,10.9352241213151,37.7140872563956,1.,              97P    404
10.8549860245768,37.7250882772587,1.,10.7780520054526,                97P    405
37.7356362935238,1.,10.6983718716351,37.7465208515262,1.,             97P    406
10.6156197439144,37.7577830309531,1.,10.5362482704406,                97P    407
37.7685851190716,1.,10.4540509287467,37.7797345731931,1.,             97P    408
10.3686942358557,37.7912733965616,1.,10.2867974065902,                97P    409
37.802344503177,1.,10.2019924172539,37.8137740207723,1.,              97P    410
10.1139378841892,37.8256049182315,1.,10.0294251146154,                97P    411
37.8369599487565,1.,9.9419192165915,37.8486846864859,1.,              97P    412
9.8510705960023,37.860823108796,1.,9.76564292064501,                  97P    413
37.8722372303725,1.,9.67725962696453,37.884017129573,1.,              97P    414
9.58558475376945,37.8962050491598,1.,9.49698528893566,                97P    415
37.9079841017528,1.,9.4053116810595,37.9201442211024,1.,              97P    416
9.31021400282643,37.9327293891242,1.,9.22013010370017,                97P    417
37.9446510367147,1.,9.12697379755148,37.956954078883,1.,              97P    418
9.03040228713507,37.9696815876059,1.,8.9557055640559,                 97P    419
37.9795261389697,1.,8.8789648047603,37.9896247389552,1.,8.8,38.,      97P    420
1.,0.,0.924446336829302,0.,0.,0.;                                     97P    421
126,1,1,0,0,1,0,0.1,0.1,0.75,0.75,1.,1.,17.6,35.5,1.,17.6,35.5,       99P    422
7.5,0.1,0.75,0.,0.,0.;                                                99P    423
126,2,2,0,0,0,0,-0.928187621421593,-0.928187621421593,               101P    424
-0.928187621421593,0.,0.,0.,1.,3.,1.,8.8,38.,7.5,                    101P    425
15.4969724139088,37.1200784043592,7.5,17.6,35.5,7.5,                 101P    426
-0.928187621421593,0.,0.,0.,0.;                                      101P    427
126,1,1,0,0,1,0,-2.7625,-2.7625,0.7875,0.7875,1.,1.,17.6,0.,1.,      103P    428
17.6,35.5,1.,-2.7625,0.7875,0.,0.,0.;                                103P    429
126,1,1,0,0,1,0,0.1,0.1,0.75,0.75,1.,1.,17.6,0.,1.,17.6,0.,7.5,      105P    430
0.1,0.75,0.,0.,0.;                                                   105P    431
126,1,1,0,0,1,0,-3.55,-3.55,0.,0.,1.,1.,17.6,35.5,7.5,17.6,0.,       107P    432
7.5,-3.55,0.,0.,0.,0.;                                               107P    433
126,1,1,0,0,1,0,0.45,0.45,3.95,3.95,1.,1.,-1.5,35.,7.5,-1.5,0.,      109P    434
7.5,0.45,3.95,0.,0.,0.;                                              109P    435
126,1,1,0,0,1,0,0.,0.,0.15,0.15,1.,1.,-1.5,0.,7.5,0.,0.,7.5,0.,      111P    436
0.15,0.,0.,0.;                                                       111P    437
126,1,1,0,0,1,0,1.91,1.91,2.06,2.06,1.,1.,17.6,0.,7.5,19.1,0.,       113P    438
7.5,1.91,2.06,0.,0.,0.;                                              113P    439
126,1,1,0,0,1,0,0.,0.,3.5,3.5,1.,1.,19.1,0.,7.5,19.1,35.,7.5,0.,     115P    440
3.5,0.,0.,0.;                                                        115P    441
126,1,1,0,0,1,0,0.,0.,0.75,0.75,1.,1.,19.1,0.,0.,19.1,0.,7.5,0.,     117P    442
0.75,0.,0.,0.;                                                       117P    443
126,1,1,0,0,1,0,0.15,0.15,1.91,1.91,1.,1.,0.,0.,1.,17.6,0.,1.,       119P    444
0.15,1.91,0.,0.,0.;                                                  119P    445
126,1,1,0,0,1,0,0.,0.,0.75,0.75,1.,1.,-1.5,0.,0.,-1.5,0.,7.5,0.,     121P    446
0.75,0.,0.,0.;                                                       121P    447
128,1,2,1,2,0,0,0,0,0,0.,0.,1.66666666666667,1.66666666666667,       123P    448
-0.785398163397448,-0.785398163397448,-0.785398163397448,            123P    449
0.785398163397448,0.785398163397448,0.785398163397448,1.,1.,         123P    450
0.707106781186548,0.707106781186548,1.,1.,3.,39.5,7.5,3.,39.5,       123P    451
0.,-1.5,39.5,7.5,-1.5,39.5,0.,-1.5,35.,7.5,-1.5,35.,0.,0.,           123P    452
1.66666666666667,-0.785398163397448,0.785398163397448;               123P    453
128,1,1,1,1,0,0,1,0,0,-1.031,-1.031,1.031,1.031,-1.976,-1.976,       125P    454
1.976,1.976,1.,1.,1.,1.,19.11,-0.0099999999999989,0.,-1.51,          125P    455
-0.0099999999999989,0.,19.11,39.51,0.,-1.51,39.51,0.,-1.031,         125P    456
1.031,-1.976,1.976;                                                  125P    457
128,1,1,1,1,0,0,1,0,0,0.449,0.449,1.611,1.611,-0.001,-0.001,         127P    458
0.751,0.751,1.,1.,1.,1.,14.61,39.5,-0.01,2.99,39.5,-0.01,14.61,      127P    459
39.5,7.51,2.99,39.5,7.51,0.449,1.611,-0.001,0.751;                   127P    460
128,1,2,1,2,0,0,0,0,0,0.,0.,1.66666666666667,1.66666666666667,       129P    461
-0.785398163397448,-0.785398163397448,-0.785398163397448,            129P    462
0.785398163397448,0.785398163397448,0.785398163397448,1.,1.,         129P    463
0.707106781186548,0.707106781186548,1.,1.,19.1,35.,7.5,19.1,35.,     129P    464
0.,19.1,39.5,7.5,19.1,39.5,0.,14.6,39.5,7.5,14.6,39.5,0.,0.,         129P    465
1.66666666666667,-0.785398163397448,0.785398163397448;               129P    466
128,1,1,1,1,0,0,1,0,0,-0.001,-0.001,3.551,3.551,0.099,0.099,         131P    467
0.751,0.751,1.,1.,1.,1.,6.48734297056753D-35,-0.01,0.99,             131P    468
-2.30365548884853D-31,35.51,0.99,6.48734297056753D-35,-0.01,         131P    469
7.51,-2.30365548884853D-31,35.51,7.51,-0.001,3.551,0.099,0.751;      131P    470
128,2,1,2,1,0,0,0,0,0,0.,0.,0.,0.926130900450834,                    133P    471
0.926130900450834,0.926130900450834,0.,0.,0.75,0.75,1.,3.,1.,1.,     133P    472
3.,1.,-2.30300675455147D-31,35.5,0.,2.00000002980232,                133P    473
37.000000551343,0.,8.8,38.,0.,-2.30300675455147D-31,35.5,7.5,        133P    474
2.00000002980232,37.000000551343,7.5,8.8,38.,7.5,0.,                 133P    475
0.926130900450834,0.,0.75;                                           133P    476
128,2,1,2,1,0,0,0,0,0,-0.928187621421593,-0.928187621421593,         135P    477
-0.928187621421593,0.,0.,0.,0.,0.,0.75,0.75,1.,3.,1.,1.,3.,1.,       135P    478
8.8,38.,0.,15.4969724139088,37.1200784043592,0.,17.6,35.5,0.,        135P    479
8.8,38.,7.5,15.4969724139088,37.1200784043592,7.5,17.6,35.5,7.5,     135P    480
-0.928187621421593,0.,0.,0.75;                                       135P    481
128,1,1,1,1,0,0,1,0,0,-0.001,-0.001,3.551,3.551,0.099,0.099,         137P    482
0.751,0.751,1.,1.,1.,1.,17.6,35.51,0.99,17.6,                        137P    483
-0.0099999999999989,0.99,17.6,35.51,7.51,17.6,                       137P    484
-0.0099999999999989,7.51,-0.001,3.551,0.099,0.751;                   137P    485
128,1,1,1,1,0,0,1,0,0,-1.031,-1.031,1.031,1.031,-1.976,-1.976,       139P    486
1.976,1.976,1.,1.,1.,1.,-1.51,-0.0099999999999989,7.5,19.11,         139P    487
-0.0099999999999989,7.5,-1.51,39.51,7.5,19.11,39.51,7.5,-1.031,      139P    488
1.031,-1.976,1.976;                                                  139P    489
128,1,1,1,1,0,0,1,0,0,-0.001,-0.001,2.061,2.061,-0.001,-0.001,       141P    490
0.751,0.751,1.,1.,1.,1.,-1.51,0.,-0.01,19.11,0.,-0.01,-1.51,0.,      141P    491
7.51,19.11,0.,7.51,-0.001,2.061,-0.001,0.751;                        141P    492
128,1,1,1,1,0,0,1,0,0,-0.001,-0.001,3.501,3.501,-0.001,-0.001,       143P    493
0.751,0.751,1.,1.,1.,1.,19.1,-0.01,-0.01,19.1,35.01,-0.01,19.1,      143P    494
-0.01,7.51,19.1,35.01,7.51,-0.001,3.501,-0.001,0.751;                143P    495
128,1,1,1,1,0,0,1,0,0,0.449,0.449,3.951,3.951,-0.001,-0.001,         145P    496
0.751,0.751,1.,1.,1.,1.,-1.5,35.01,-0.01,-1.5,                       145P    497
-0.0099999999999989,-0.01,-1.5,35.01,7.51,-1.5,                      145P    498
-0.0099999999999989,7.51,0.449,3.951,-0.001,0.751;                   145P    499
128,1,1,1,1,0,0,1,0,0,-0.881,-0.881,0.881,0.881,-1.976,-1.976,       147P    500
1.826,1.826,1.,1.,1.,1.,-0.01,-0.0099999999999989,1.,17.61,          147P    501
-0.0099999999999989,1.,-0.01,38.01,1.,17.61,38.01,1.,-0.881,         147P    502
0.881,-1.976,1.826;                                                  147P    503
502,22,-1.5,35.,7.5,3.,39.5,7.5,3.,39.5,0.,-1.5,35.,0.,14.6,         149P    504
39.5,0.,19.1,35.,0.,19.1,0.,0.,-1.5,0.,0.,14.6,39.5,7.5,19.1,        149P    505
35.,7.5,-2.30300675455147D-31,35.5,1.,0.,0.,1.,0.,35.5,7.5,0.,       149P    506
0.,7.5,8.8,38.,1.,8.8,38.,7.5,17.6,35.5,1.,17.6,35.5,7.5,17.6,       149P    507
0.,1.,17.6,0.,7.5,-1.5,0.,7.5,19.1,0.,7.5;                           149P    508
504,33,57,149,1,149,2,59,149,2,149,3,61,149,3,149,4,63,149,4,        151P    509
149,1,65,149,5,149,3,67,149,6,149,5,69,149,7,149,6,71,149,8,149,     151P    510
7,73,149,4,149,8,75,149,9,149,2,77,149,5,149,9,79,149,9,149,10,      151P    511
81,149,10,149,6,83,149,11,149,12,85,149,11,149,13,87,149,14,149,     151P    512
13,89,149,12,149,14,91,149,15,149,11,93,149,15,149,16,95,149,13,     151P    513
149,16,97,149,17,149,15,99,149,17,149,18,101,149,16,149,18,103,      151P    514
149,19,149,17,105,149,19,149,20,107,149,18,149,20,109,149,1,149,     151P    515
21,111,149,21,149,14,113,149,20,149,22,115,149,22,149,10,117,        151P    516
149,7,149,22,119,149,12,149,19,121,149,8,149,21;                     151P    517
406,1,5HBody1;                                                       153P    518
314,62.7450980392157,62.7450980392157,62.7450980392157,13HSteel      155P    519
- Satin;                                                             155P    520
S      1G      3D    156P    520                                        T      1
