                                                                        S      1
,,10Hdog lid v8,10Hdog lid v8,7Hunknown,7Hunknown,32,38,7,99,15,,1.,2,2HG      1
MM,1,0.08,15H20220922.115530,0.01,10000.,7Hunknown,7Hunknown,11,0,15H202G      2
20727.153152;                                                           G      3
     186       1                                                00000000D      1
     186             -79       1       0                               0D      2
     514       2                                                00010000D      3
     514                       1       1                               0D      4
     510       3                                                00010000D      5
     510             -79       1       1                               0D      6
     510       4                                                00010000D      7
     510             -79       1       1                               0D      8
     510       5                                                00010000D      9
     510             -79       1       1                               0D     10
     510       6                                                00010000D     11
     510             -79       1       1                               0D     12
     510       7                                                00010000D     13
     510             -79       1       1                               0D     14
     510       8                                                00010000D     15
     510             -79       1       1                               0D     16
     510       9                                                00010000D     17
     510             -79       1       1                               0D     18
     508      10                                                00010000D     19
     508                       2       1                               0D     20
     508      12                                                00010000D     21
     508                       1       1                               0D     22
     508      13                                                00010000D     23
     508                       1       1                               0D     24
     508      14                                                00010000D     25
     508                       1       1                               0D     26
     508      15                                                00010000D     27
     508                       1       1                               0D     28
     508      16                                                00010000D     29
     508                       1       1                               0D     30
     508      17                                                00010000D     31
     508                       1       1                               0D     32
     508      18                                                00010000D     33
     508                       1       1                               0D     34
     126      19                                                00010000D     35
     126       0               7       0                               0D     36
     126      26                                                00010000D     37
     126       0               7       0                               0D     38
     126      33                                                00010000D     39
     126       0               4       0                               0D     40
     126      37                                                00010000D     41
     126       0               6       0                               0D     42
     126      43                                                00010000D     43
     126       0               5       0                               0D     44
     126      48                                                00010000D     45
     126       0               4       0                               0D     46
     126      52                                                00010000D     47
     126       0              10       0                               0D     48
     126      62                                                00010000D     49
     126       0              10       0                               0D     50
     126      72                                                00010000D     51
     126       0               3       0                               0D     52
     126      75                                                00010000D     53
     126       0              10       0                               0D     54
     126      85                                                00010000D     55
     126       0               2       0                               0D     56
     126      87                                                00010000D     57
     126       0               9       0                               0D     58
     128      96                                                00010000D     59
     128       0     -79      21       0                               0D     60
     128     117                                                00010000D     61
     128       0     -79      15       0                               0D     62
     128     132                                                00010000D     63
     128       0     -79      13       0                               0D     64
     128     145                                                00010000D     65
     128       0     -79       3       0                               0D     66
     128     148                                                00010000D     67
     128       0     -79      12       0                               0D     68
     128     160                                                00010000D     69
     128       0     -79       3       0                               0D     70
     128     163                                                00010000D     71
     128       0     -79       3       0                               0D     72
     502     166                                                00010000D     73
     502                       4       1                               0D     74
     504     170                                                00010001D     75
     504                       3       1                               0D     76
     406     173                                                00000000D     77
     406                       1      15                               0D     78
     314     174                                                00000200D     79
     314                       2       0                               0D     80
186,3,1,0,0,1,77;                                                      1P      1
514,7,5,1,7,1,9,1,11,1,13,1,15,1,17,1;                                 3P      2
510,59,1,1,19;                                                         5P      3
510,61,1,1,21;                                                         7P      4
510,63,1,1,23;                                                         9P      5
510,65,2,1,25,27;                                                     11P      6
510,67,1,1,29;                                                        13P      7
510,69,1,1,31;                                                        15P      8
510,71,1,1,33;                                                        17P      9
508,6,0,75,1,1,0,0,75,2,1,0,0,75,3,1,0,0,75,4,0,0,0,75,5,0,0,0,       19P     10
75,3,0,0;                                                             19P     11
508,5,0,75,1,0,0,0,75,2,0,0,0,75,6,1,0,0,75,7,0,0,0,75,6,0,0;         21P     12
508,5,0,75,8,0,0,0,75,9,1,0,0,75,4,1,0,0,75,5,1,0,0,75,9,0,0;         23P     13
508,1,0,75,10,1,0;                                                    25P     14
508,1,0,75,8,1,0;                                                     27P     15
508,4,0,75,10,0,0,0,75,11,1,0,0,75,12,1,0,0,75,11,0,0;                29P     16
508,1,0,75,7,1,0;                                                     31P     17
508,1,0,75,12,0,0;                                                    33P     18
126,4,2,0,0,0,0,-3.14159265358979,-3.14159265358979,                  35P     19
-3.14159265358979,-1.5707963267949,-1.5707963267949,0.,0.,0.,1.,      35P     20
0.707106781186548,1.,0.707106781186547,1.,51.,                        35P     21
-6.2456986756515D-15,2.55289321881346,51.,-51.,2.55289321881346,      35P     22
-3.12284933782575D-15,-51.,2.55289321881346,-51.,-51.,                35P     23
2.55289321881346,-51.,0.,2.55289321881346,-3.14159265358979,0.,       35P     24
0.,0.,0.;                                                             35P     25
126,4,2,0,0,0,0,0.,0.,0.,1.5707963267949,1.5707963267949,             37P     26
3.14159265358979,3.14159265358979,3.14159265358979,1.,                37P     27
0.707106781186547,1.,0.707106781186548,1.,-51.,0.,                    37P     28
2.55289321881346,-51.,51.,2.55289321881346,                           37P     29
-3.12284933782575D-15,51.,2.55289321881346,51.,51.,                   37P     30
2.55289321881346,51.,6.2456986756515D-15,2.55289321881346,0.,         37P     31
3.14159265358979,0.,0.,0.;                                            37P     32
126,2,2,0,0,0,0,0.,0.,0.,1.23095941734076,1.23095941734076,           39P     33
1.23095941734076,1.,0.816496580927722,1.,51.,0.,                      39P     34
2.55289321881346,51.,0.,3.08322330470336,50.5,0.,3.26,0.,             39P     35
1.23095941734076,0.,0.,0.;                                            39P     36
126,4,2,0,0,0,0,-3.14159265358979,-3.14159265358979,                  41P     37
-3.14159265358979,-1.5707963267949,-1.5707963267949,0.,0.,0.,1.,      41P     38
0.707106781186548,1.,0.707106781186547,1.,-50.5,                      41P     39
6.18446633569414D-15,3.26,-50.5,50.5,3.26,3.09223316784707D-15,       41P     40
50.5,3.26,50.5,50.5,3.26,50.5,0.,3.26,-3.14159265358979,0.,0.,        41P     41
0.,0.;                                                                41P     42
126,4,2,0,0,0,0,0.,0.,0.,1.5707963267949,1.5707963267949,             43P     43
3.14159265358979,3.14159265358979,3.14159265358979,1.,                43P     44
0.707106781186547,1.,0.707106781186548,1.,50.5,0.,3.26,50.5,          43P     45
-50.5,3.26,3.09223316784707D-15,-50.5,3.26,-50.5,-50.5,3.26,          43P     46
-50.5,-6.18446633569414D-15,3.26,0.,3.14159265358979,0.,0.,0.;        43P     47
126,1,1,0,0,1,0,-0.050056729780656,-0.050056729780656,                45P     48
-0.0117647058823529,-0.0117647058823529,1.,1.,-51.,0.,                45P     49
2.55289321881346,-51.,0.,0.6,-0.050056729780656,                      45P     50
-0.0117647058823529,0.,0.,0.;                                         45P     51
126,8,2,0,1,0,0,-3.14159265358979,-3.14159265358979,                  47P     52
-3.14159265358979,-1.5707963267949,-1.5707963267949,0.,0.,            47P     53
1.5707963267949,1.5707963267949,3.14159265358979,                     47P     54
3.14159265358979,3.14159265358979,1.,0.707106781186547,1.,            47P     55
0.707106781186547,1.,0.707106781186547,1.,0.707106781186547,1.,       47P     56
-51.,-6.2456986756515D-15,0.6,-51.,-51.,0.6,                          47P     57
3.12284933782575D-15,-51.,0.6,51.,-51.,0.6,51.,0.,0.6,51.,51.,        47P     58
0.6,3.12284933782575D-15,51.,0.6,-51.,51.,0.6,-51.,                   47P     59
6.2456986756515D-15,0.6,-3.14159265358979,3.14159265358979,0.,        47P     60
0.,0.;                                                                47P     61
126,8,2,0,1,0,0,-3.14159265358979,-3.14159265358979,                  49P     62
-3.14159265358979,-1.5707963267949,-1.5707963267949,0.,0.,            49P     63
1.5707963267949,1.5707963267949,3.14159265358979,                     49P     64
3.14159265358979,3.14159265358979,1.,0.707106781186548,1.,            49P     65
0.707106781186547,1.,0.707106781186547,1.,0.707106781186548,1.,       49P     66
-50.5,6.18446633569414D-15,4.26,-50.5,50.5,4.26,                      49P     67
3.09223316784707D-15,50.5,4.26,50.5,50.5,4.26,50.5,0.,4.26,50.5,      49P     68
-50.5,4.26,3.09223316784707D-15,-50.5,4.26,-50.5,-50.5,4.26,          49P     69
-50.5,-6.18446633569414D-15,4.26,-3.14159265358979,                   49P     70
3.14159265358979,0.,0.,0.;                                            49P     71
126,1,1,0,0,1,0,-0.0198019801980198,-0.0198019801980198,0.,0.,        51P     72
1.,1.,-50.5,0.,4.26,-50.5,0.,3.26,-0.0198019801980198,0.,0.,0.,       51P     73
0.;                                                                   51P     74
126,8,2,0,1,0,0,-3.14159265358979,-3.14159265358979,                  53P     75
-3.14159265358979,-1.5707963267949,-1.5707963267949,0.,0.,            53P     76
1.5707963267949,1.5707963267949,3.14159265358979,                     53P     77
3.14159265358979,3.14159265358979,1.,0.707106781186548,1.,            53P     78
0.707106781186547,1.,0.707106781186547,1.,0.707106781186548,1.,       53P     79
-52.,-6.36816335556624D-15,4.26,-52.,-52.,4.26,                       53P     80
3.18408167778312D-15,-52.,4.26,52.,-52.,4.26,52.,0.,4.26,52.,         53P     81
52.,4.26,3.18408167778312D-15,52.,4.26,-52.,52.,4.26,-52.,            53P     82
6.36816335556624D-15,4.26,-3.14159265358979,3.14159265358979,0.,      53P     83
0.,0.;                                                                53P     84
126,1,1,0,0,1,0,-0.0819230769230769,-0.0819230769230769,0.,0.,        55P     85
1.,1.,-52.,0.,4.26,-52.,0.,0.,-0.0819230769230769,0.,0.,0.,0.;        55P     86
126,8,2,0,1,0,0,-3.14159265358979,-3.14159265358979,                  57P     87
-3.14159265358979,-1.5707963267949,-1.5707963267949,0.,0.,            57P     88
1.5707963267949,1.5707963267949,3.14159265358979,                     57P     89
3.14159265358979,3.14159265358979,1.,0.707106781186548,1.,            57P     90
0.707106781186547,1.,0.707106781186547,1.,0.707106781186548,1.,       57P     91
-52.,-6.36816335556624D-15,0.,-52.,-52.,0.,3.18408167778312D-15,      57P     92
-52.,0.,52.,-52.,0.,52.,0.,0.,52.,52.,0.,3.18408167778312D-15,        57P     93
52.,0.,-52.,52.,0.,-52.,6.36816335556624D-15,0.,                      57P     94
-3.14159265358979,3.14159265358979,0.,0.,0.;                          57P     95
128,2,8,2,2,0,1,0,0,1,-1.23095941734076,-1.23095941734076,            59P     96
-1.23095941734076,0.,0.,0.,-3.14159265358979,-3.14159265358979,       59P     97
-3.14159265358979,-1.5707963267949,-1.5707963267949,0.,0.,            59P     98
1.5707963267949,1.5707963267949,3.14159265358979,                     59P     99
3.14159265358979,3.14159265358979,1.,0.816496580927722,1.,            59P    100
0.707106781186548,0.577350269189623,0.707106781186548,1.,             59P    101
0.816496580927722,1.,0.707106781186548,0.577350269189623,             59P    102
0.707106781186548,1.,0.816496580927722,1.,0.707106781186548,          59P    103
0.577350269189623,0.707106781186548,1.,0.816496580927722,1.,          59P    104
0.707106781186548,0.577350269189623,0.707106781186548,1.,             59P    105
0.816496580927722,1.,50.5,0.,3.26,51.,0.,3.08322330470336,51.,        59P    106
0.,2.55289321881346,50.5,-50.5,3.26,51.,-51.,3.08322330470336,        59P    107
51.,-51.,2.55289321881346,0.,-50.5,3.26,0.,-51.,                      59P    108
3.08322330470336,0.,-51.,2.55289321881346,-50.5,-50.5,3.26,-51.,      59P    109
-51.,3.08322330470336,-51.,-51.,2.55289321881346,-50.5,0.,3.26,       59P    110
-51.,0.,3.08322330470336,-51.,0.,2.55289321881346,-50.5,50.5,         59P    111
3.26,-51.,51.,3.08322330470336,-51.,51.,2.55289321881346,0.,          59P    112
50.5,3.26,0.,51.,3.08322330470336,0.,51.,2.55289321881346,50.5,       59P    113
50.5,3.26,51.,51.,3.08322330470336,51.,51.,2.55289321881346,          59P    114
50.5,0.,3.26,51.,0.,3.08322330470336,51.,0.,2.55289321881346,         59P    115
-1.23095941734076,0.,-3.14159265358979,3.14159265358979;              59P    116
128,1,8,1,2,0,1,0,0,1,0.0117647058823529,0.0117647058823529,          61P    117
0.050056729780656,0.050056729780656,-3.14159265358979,                61P    118
-3.14159265358979,-3.14159265358979,-1.5707963267949,                 61P    119
-1.5707963267949,0.,0.,1.5707963267949,1.5707963267949,               61P    120
3.14159265358979,3.14159265358979,3.14159265358979,1.,1.,             61P    121
0.707106781186548,0.707106781186548,1.,1.,0.707106781186548,          61P    122
0.707106781186548,1.,1.,0.707106781186548,0.707106781186548,1.,       61P    123
1.,0.707106781186548,0.707106781186548,1.,1.,-51.,0.,0.6,-51.,        61P    124
0.,2.55289321881346,-51.,-51.,0.6,-51.,-51.,2.55289321881346,0.,      61P    125
-51.,0.6,0.,-51.,2.55289321881346,51.,-51.,0.6,51.,-51.,              61P    126
2.55289321881346,51.,0.,0.6,51.,0.,2.55289321881346,51.,51.,0.6,      61P    127
51.,51.,2.55289321881346,0.,51.,0.6,0.,51.,2.55289321881346,          61P    128
-51.,51.,0.6,-51.,51.,2.55289321881346,-51.,0.,0.6,-51.,0.,           61P    129
2.55289321881346,0.0117647058823529,0.050056729780656,                61P    130
-3.14159265358979,3.14159265358979;                                   61P    131
128,1,8,1,2,0,1,0,0,1,0.,0.,0.0198019801980198,                       63P    132
0.0198019801980198,-3.14159265358979,-3.14159265358979,               63P    133
-3.14159265358979,-1.5707963267949,-1.5707963267949,0.,0.,            63P    134
1.5707963267949,1.5707963267949,3.14159265358979,                     63P    135
3.14159265358979,3.14159265358979,1.,1.,0.707106781186548,            63P    136
0.707106781186548,1.,1.,0.707106781186548,0.707106781186548,1.,       63P    137
1.,0.707106781186548,0.707106781186548,1.,1.,0.707106781186548,       63P    138
0.707106781186548,1.,1.,-50.5,0.,3.26,-50.5,0.,4.26,-50.5,-50.5,      63P    139
3.26,-50.5,-50.5,4.26,0.,-50.5,3.26,0.,-50.5,4.26,50.5,-50.5,         63P    140
3.26,50.5,-50.5,4.26,50.5,0.,3.26,50.5,0.,4.26,50.5,50.5,3.26,        63P    141
50.5,50.5,4.26,0.,50.5,3.26,0.,50.5,4.26,-50.5,50.5,3.26,-50.5,       63P    142
50.5,4.26,-50.5,0.,3.26,-50.5,0.,4.26,0.,0.0198019801980198,          63P    143
-3.14159265358979,3.14159265358979;                                   63P    144
128,1,1,1,1,0,0,1,0,0,-5.201,-5.201,5.201,5.201,-5.201,-5.201,        65P    145
5.201,5.201,1.,1.,1.,1.,-52.01,-52.01,4.26,52.01,-52.01,4.26,         65P    146
-52.01,52.01,4.26,52.01,52.01,4.26,-5.201,5.201,-5.201,5.201;         65P    147
128,1,8,1,2,0,1,0,0,1,0.,0.,0.0819230769230769,                       67P    148
0.0819230769230769,-3.14159265358979,-3.14159265358979,               67P    149
-3.14159265358979,-1.5707963267949,-1.5707963267949,0.,0.,            67P    150
1.5707963267949,1.5707963267949,3.14159265358979,                     67P    151
3.14159265358979,3.14159265358979,1.,1.,0.707106781186548,            67P    152
0.707106781186548,1.,1.,0.707106781186548,0.707106781186548,1.,       67P    153
1.,0.707106781186548,0.707106781186548,1.,1.,0.707106781186548,       67P    154
0.707106781186548,1.,1.,-52.,0.,4.26,-52.,0.,0.,-52.,-52.,4.26,       67P    155
-52.,-52.,0.,0.,-52.,4.26,0.,-52.,0.,52.,-52.,4.26,52.,-52.,0.,       67P    156
52.,0.,4.26,52.,0.,0.,52.,52.,4.26,52.,52.,0.,0.,52.,4.26,0.,         67P    157
52.,0.,-52.,52.,4.26,-52.,52.,0.,-52.,0.,4.26,-52.,0.,0.,0.,          67P    158
0.0819230769230769,-3.14159265358979,3.14159265358979;                67P    159
128,1,1,1,1,0,0,1,0,0,-5.101,-5.101,5.101,5.101,-5.101,-5.101,        69P    160
5.101,5.101,1.,1.,1.,1.,-51.01,-51.01,0.6,51.01,-51.01,0.6,           69P    161
-51.01,51.01,0.6,51.01,51.01,0.6,-5.101,5.101,-5.101,5.101;           69P    162
128,1,1,1,1,0,0,1,0,0,-5.201,-5.201,5.201,5.201,-5.201,-5.201,        71P    163
5.201,5.201,1.,1.,1.,1.,52.01,-52.01,0.,-52.01,-52.01,0.,52.01,       71P    164
52.01,0.,-52.01,52.01,0.,-5.201,5.201,-5.201,5.201;                   71P    165
502,8,51.,-6.2456986756515D-15,2.55289321881346,-51.,0.,              73P    166
2.55289321881346,50.5,0.,3.26,-50.5,-6.18446633569414D-15,3.26,       73P    167
-51.,-6.2456986756515D-15,0.6,-50.5,-6.18446633569414D-15,4.26,       73P    168
-52.,-6.36816335556624D-15,4.26,-52.,-6.36816335556624D-15,0.;        73P    169
504,12,35,73,1,73,2,37,73,2,73,1,39,73,1,73,3,41,73,4,73,3,43,        75P    170
73,3,73,4,45,73,2,73,5,47,73,5,73,5,49,73,6,73,6,51,73,6,73,4,        75P    171
53,73,7,73,7,55,73,7,73,8,57,73,8,73,8;                               75P    172
406,1,5HBody1;                                                        77P    173
314,62.7450980392157,62.7450980392157,62.7450980392157,13HSteel       79P    174
- Satin;                                                              79P    175
S      1G      3D     80P    175                                        T      1
