                                                                        S      1
,,21HClothes Stand Foot v1,21HClothes Stand Foot v1,7Hunknown,7Hunknown,G      1
32,38,7,99,15,,1.,2,2HMM,1,0.08,15H20220922.114916,0.01,10000.,7HunknownG      2
,7Hunknown,11,0,15H20190702.145647;                                     G      3
     186       1                                                00000000D      1
     186             -59       1       0                               0D      2
     514       2                                                00010000D      3
     514                       1       1                               0D      4
     510       3                                                00010000D      5
     510             -59       1       1                               0D      6
     510       4                                                00010000D      7
     510             -59       1       1                               0D      8
     510       5                                                00010000D      9
     510             -59       1       1                               0D     10
     510       6                                                00010000D     11
     510             -59       1       1                               0D     12
     510       7                                                00010000D     13
     510             -59       1       1                               0D     14
     508       8                                                00010000D     15
     508                       2       1                               0D     16
     508      10                                                00010000D     17
     508                       1       1                               0D     18
     508      11                                                00010000D     19
     508                       1       1                               0D     20
     508      12                                                00010000D     21
     508                       1       1                               0D     22
     508      13                                                00010000D     23
     508                       1       1                               0D     24
     126      14                                                00010000D     25
     126       0               7       0                               0D     26
     126      21                                                00010000D     27
     126       0               7       0                               0D     28
     126      28                                                00010000D     29
     126       0               4       0                               0D     30
     126      32                                                00010000D     31
     126       0               7       0                               0D     32
     126      39                                                00010000D     33
     126       0               8       0                               0D     34
     126      47                                                00010000D     35
     126       0               3       0                               0D     36
     126      50                                                00010000D     37
     126       0              10       0                               0D     38
     126      60                                                00010000D     39
     126       0              10       0                               0D     40
     126      70                                                00010000D     41
     126       0               2       0                               0D     42
     128      72                                                00010000D     43
     128       0     -59      23       0                               0D     44
     128      95                                                00010000D     45
     128       0     -59      15       0                               0D     46
     128     110                                                00010000D     47
     128       0     -59      13       0                               0D     48
     128     123                                                00010000D     49
     128       0     -59       3       0                               0D     50
     128     126                                                00010000D     51
     128       0     -59       3       0                               0D     52
     502     129                                                00010000D     53
     502                       3       1                               0D     54
     504     132                                                00010001D     55
     504                       2       1                               0D     56
     406     134                                                00000000D     57
     406                       1      15                               0D     58
     314     135                                                00000200D     59
     314                       2       0                               0D     60
186,3,1,0,0,1,57;                                                      1P      1
514,5,5,1,7,1,9,1,11,1,13,1;                                           3P      2
510,43,1,1,15;                                                         5P      3
510,45,1,1,17;                                                         7P      4
510,47,1,1,19;                                                         9P      5
510,49,1,1,21;                                                        11P      6
510,51,1,1,23;                                                        13P      7
508,6,0,55,1,1,0,0,55,2,1,0,0,55,3,1,0,0,55,4,1,0,0,55,5,1,0,0,       15P      8
55,3,0,0;                                                             15P      9
508,5,0,55,1,0,0,0,55,2,0,0,0,55,6,1,0,0,55,7,1,0,0,55,6,0,0;         17P     10
508,5,0,55,8,0,0,0,55,9,1,0,0,55,4,0,0,0,55,5,0,0,0,55,9,0,0;         19P     11
508,1,0,55,8,1,0;                                                     21P     12
508,1,0,55,7,0,0;                                                     23P     13
126,4,2,0,0,0,0,-3.14159265358979,-3.14159265358979,                  25P     14
-3.14159265358979,-1.5707963267949,-1.5707963267949,0.,0.,0.,1.,      25P     15
0.707106781186548,1.,0.707106781186548,1.,14.15,                      25P     16
6.42928578572858,-1.7328752207935D-15,14.15,6.42928578572858,         25P     17
-14.15,-8.66437610396752D-16,6.42928578572858,-14.15,-14.15,          25P     18
6.42928578572858,-14.15,-14.15,6.42928578572858,0.,                   25P     19
-3.14159265358979,0.,0.,0.,0.;                                        25P     20
126,4,2,0,0,0,0,0.,0.,0.,1.5707963267949,1.5707963267949,             27P     21
3.14159265358979,3.14159265358979,3.14159265358979,1.,                27P     22
0.707106781186548,1.,0.707106781186548,1.,-14.15,                     27P     23
6.42928578572858,0.,-14.15,6.42928578572858,14.15,                    27P     24
-8.66437610396752D-16,6.42928578572858,14.15,14.15,                   27P     25
6.42928578572858,14.15,14.15,6.42928578572858,                        27P     26
1.7328752207935D-15,0.,3.14159265358979,0.,0.,0.;                     27P     27
126,2,2,0,0,0,0,0.,0.,0.,0.795398830184143,0.795398830184143,         29P     28
0.795398830184143,1.,0.921954445729284,1.,14.15,                      29P     29
6.42928578572858,0.,14.15,8.52970591177059,0.,12.65,10.,0.,0.,        29P     30
0.795398830184143,0.,0.,0.;                                           29P     31
126,4,2,0,0,0,0,-6.28318530717959,-6.28318530717959,                  31P     32
-6.28318530717959,-4.71238898038469,-4.71238898038469,                31P     33
-3.14159265358979,-3.14159265358979,-3.14159265358979,1.,             31P     34
0.707106781186548,1.,0.707106781186548,1.,12.65,10.,                  31P     35
3.0983564018428D-15,12.65,10.,12.65,-2.3237673013821D-15,10.,         31P     36
12.65,-12.65,10.,12.65,-12.65,10.,-1.5491782009214D-15,               31P     37
-6.28318530717959,-3.14159265358979,0.,0.,0.;                         31P     38
126,4,2,0,0,0,0,-3.14159265358979,-3.14159265358979,                  33P     39
-3.14159265358979,-1.5707963267949,-1.5707963267949,                  33P     40
-1.22464679914735D-16,-1.22464679914735D-16,                          33P     41
-1.22464679914735D-16,1.,0.707106781186548,1.,0.707106781186548,      33P     42
1.,-12.65,10.,-1.5491782009214D-15,-12.65,10.,-12.65,                 33P     43
7.74589100460701D-16,10.,-12.65,12.65,10.,-12.65,12.65,10.,           33P     44
-1.5491782009214D-15,-3.14159265358979,-1.22464679914735D-16,0.,      33P     45
0.,0.;                                                                33P     46
126,1,1,0,0,1,0,-0.454366486623928,-0.454366486623928,0.,0.,1.,       35P     47
1.,-14.15,6.42928578572858,0.,-14.15,0.,0.,-0.454366486623928,        35P     48
0.,0.,0.,0.;                                                          35P     49
126,8,2,0,1,0,0,-3.14159265358979,-3.14159265358979,                  37P     50
-3.14159265358979,-1.5707963267949,-1.5707963267949,0.,0.,            37P     51
1.5707963267949,1.5707963267949,3.14159265358979,                     37P     52
3.14159265358979,3.14159265358979,1.,0.707106781186548,1.,            37P     53
0.707106781186548,1.,0.707106781186548,1.,0.707106781186548,1.,       37P     54
-14.15,0.,1.7328752207935D-15,-14.15,0.,14.15,                        37P     55
8.66437610396752D-16,0.,14.15,14.15,0.,14.15,14.15,0.,0.,14.15,       37P     56
0.,-14.15,8.66437610396752D-16,0.,-14.15,-14.15,0.,-14.15,            37P     57
-14.15,0.,-1.7328752207935D-15,-3.14159265358979,                     37P     58
3.14159265358979,0.,0.,0.;                                            37P     59
126,8,2,0,1,0,0,-3.14159265358979,-3.14159265358979,                  39P     60
-3.14159265358979,-1.5707963267949,-1.5707963267949,0.,0.,            39P     61
1.5707963267949,1.5707963267949,3.14159265358979,                     39P     62
3.14159265358979,3.14159265358979,1.,0.707106781186548,1.,            39P     63
0.707106781186547,1.,0.707106781186547,1.,0.707106781186548,1.,       39P     64
-12.65,3.2,1.5491782009214D-15,-12.65,3.2,12.65,                      39P     65
7.74589100460701D-16,3.2,12.65,12.65,3.2,12.65,12.65,3.2,0.,          39P     66
12.65,3.2,-12.65,7.74589100460701D-16,3.2,-12.65,-12.65,3.2,          39P     67
-12.65,-12.65,3.2,-1.5491782009214D-15,-3.14159265358979,             39P     68
3.14159265358979,0.,0.,0.;                                            39P     69
126,1,1,0,0,1,0,0.,0.,0.537549407114624,0.537549407114624,1.,1.,      41P     70
-12.65,3.2,0.,-12.65,10.,0.,0.,0.537549407114624,0.,0.,0.;            41P     71
128,2,8,2,2,0,1,0,0,1,-0.795398830184143,-0.795398830184143,          43P     72
-0.795398830184143,0.,0.,0.,-3.14159265358979,-3.14159265358979,      43P     73
-3.14159265358979,-1.5707963267949,-1.5707963267949,0.,0.,            43P     74
1.5707963267949,1.5707963267949,3.14159265358979,                     43P     75
3.14159265358979,3.14159265358979,1.,0.921954445729284,1.,            43P     76
0.707106781186548,0.651920240520262,0.707106781186548,1.,             43P     77
0.921954445729284,1.,0.707106781186548,0.651920240520262,             43P     78
0.707106781186548,1.,0.921954445729284,1.,0.707106781186548,          43P     79
0.651920240520262,0.707106781186548,1.,0.921954445729284,1.,          43P     80
0.707106781186548,0.651920240520262,0.707106781186548,1.,             43P     81
0.921954445729284,1.,12.65,10.,0.,14.15,8.52970591177059,0.,          43P     82
14.15,6.42928578572858,0.,12.65,10.,-12.65,14.15,                     43P     83
8.52970591177059,-14.15,14.15,6.42928578572858,-14.15,0.,10.,         43P     84
-12.65,0.,8.52970591177059,-14.15,0.,6.42928578572858,-14.15,         43P     85
-12.65,10.,-12.65,-14.15,8.52970591177059,-14.15,-14.15,              43P     86
6.42928578572858,-14.15,-12.65,10.,0.,-14.15,8.52970591177059,        43P     87
0.,-14.15,6.42928578572858,0.,-12.65,10.,12.65,-14.15,                43P     88
8.52970591177059,14.15,-14.15,6.42928578572858,14.15,0.,10.,          43P     89
12.65,0.,8.52970591177059,14.15,0.,6.42928578572858,14.15,12.65,      43P     90
10.,12.65,14.15,8.52970591177059,14.15,14.15,6.42928578572858,        43P     91
14.15,12.65,10.,0.,14.15,8.52970591177059,0.,14.15,                   43P     92
6.42928578572858,0.,-0.795398830184143,0.,-3.14159265358979,          43P     93
3.14159265358979;                                                     43P     94
128,1,8,1,2,0,1,0,0,1,0.,0.,0.454366486623928,0.454366486623928,      45P     95
-3.14159265358979,-3.14159265358979,-3.14159265358979,                45P     96
-1.5707963267949,-1.5707963267949,0.,0.,1.5707963267949,              45P     97
1.5707963267949,3.14159265358979,3.14159265358979,                    45P     98
3.14159265358979,1.,1.,0.707106781186548,0.707106781186548,1.,        45P     99
1.,0.707106781186548,0.707106781186548,1.,1.,0.707106781186548,       45P    100
0.707106781186548,1.,1.,0.707106781186548,0.707106781186548,1.,       45P    101
1.,-14.15,6.42928578572858,0.,-14.15,0.,0.,-14.15,                    45P    102
6.42928578572858,14.15,-14.15,0.,14.15,0.,6.42928578572858,           45P    103
14.15,0.,0.,14.15,14.15,6.42928578572858,14.15,14.15,0.,14.15,        45P    104
14.15,6.42928578572858,0.,14.15,0.,0.,14.15,6.42928578572858,         45P    105
-14.15,14.15,0.,-14.15,0.,6.42928578572858,-14.15,0.,0.,-14.15,       45P    106
-14.15,6.42928578572858,-14.15,-14.15,0.,-14.15,-14.15,               45P    107
6.42928578572858,0.,-14.15,0.,0.,0.,0.454366486623928,                45P    108
-3.14159265358979,3.14159265358979;                                   45P    109
128,1,8,1,2,0,1,0,0,1,0.,0.,0.537549407114624,0.537549407114624,      47P    110
-3.14159265358979,-3.14159265358979,-3.14159265358979,                47P    111
-1.5707963267949,-1.5707963267949,0.,0.,1.5707963267949,              47P    112
1.5707963267949,3.14159265358979,3.14159265358979,                    47P    113
3.14159265358979,1.,1.,0.707106781186548,0.707106781186548,1.,        47P    114
1.,0.707106781186548,0.707106781186548,1.,1.,0.707106781186548,       47P    115
0.707106781186548,1.,1.,0.707106781186548,0.707106781186548,1.,       47P    116
1.,-12.65,3.2,0.,-12.65,10.,0.,-12.65,3.2,12.65,-12.65,10.,           47P    117
12.65,0.,3.2,12.65,0.,10.,12.65,12.65,3.2,12.65,12.65,10.,12.65,      47P    118
12.65,3.2,0.,12.65,10.,0.,12.65,3.2,-12.65,12.65,10.,-12.65,0.,       47P    119
3.2,-12.65,0.,10.,-12.65,-12.65,3.2,-12.65,-12.65,10.,-12.65,         47P    120
-12.65,3.2,0.,-12.65,10.,0.,0.,0.537549407114624,                     47P    121
-3.14159265358979,3.14159265358979;                                   47P    122
128,1,1,1,1,0,0,1,0,0,-1.266,-1.266,1.266,1.266,-1.266,-1.266,        49P    123
1.266,1.266,1.,1.,1.,1.,-12.66,3.2,12.66,12.66,3.2,12.66,-12.66,      49P    124
3.2,-12.66,12.66,3.2,-12.66,-1.266,1.266,-1.266,1.266;                49P    125
128,1,1,1,1,0,0,1,0,0,-1.416,-1.416,1.416,1.416,-1.416,-1.416,        51P    126
1.416,1.416,1.,1.,1.,1.,14.16,0.,14.16,-14.16,0.,14.16,14.16,0.,      51P    127
-14.16,-14.16,0.,-14.16,-1.416,1.416,-1.416,1.416;                    51P    128
502,6,14.15,6.42928578572858,-1.7328752207935D-15,-14.15,             53P    129
6.42928578572858,0.,12.65,10.,-1.5491782009214D-15,-12.65,10.,        53P    130
0.,-14.15,0.,1.7328752207935D-15,-12.65,3.2,1.5491782009214D-15;      53P    131
504,9,25,53,1,53,2,27,53,2,53,1,29,53,1,53,3,31,53,3,53,4,33,53,      55P    132
4,53,3,35,53,2,53,5,37,53,5,53,5,39,53,6,53,6,41,53,6,53,4;           55P    133
406,1,5HBody1;                                                        57P    134
314,62.7450980392157,62.7450980392157,62.7450980392157,13HSteel       59P    135
- Satin;                                                              59P    136
S      1G      3D     60P    136                                        T      1
