                                                                        S      1
,,16HFaucet Spacer v2,16HFaucet Spacer v2,7Hunknown,7Hunknown,32,38,7,  G      1
99,15,,1.,2,2HMM,1,0.08,15H20220922.114956,0.01,10000.,7Hunknown,7HunknoG      2
wn,11,0,15H20190820.210253;                                             G      3
     186       1                                                00000000D      1
     186             -53       1       0                               0D      2
     514       2                                                00010000D      3
     514                       1       1                               0D      4
     510       3                                                00010000D      5
     510             -53       1       1                               0D      6
     510       4                                                00010000D      7
     510             -53       1       1                               0D      8
     510       5                                                00010000D      9
     510             -53       1       1                               0D     10
     510       6                                                00010000D     11
     510             -53       1       1                               0D     12
     508       7                                                00010000D     13
     508                       1       1                               0D     14
     508       8                                                00010000D     15
     508                       1       1                               0D     16
     508       9                                                00010000D     17
     508                       1       1                               0D     18
     508      10                                                00010000D     19
     508                       1       1                               0D     20
     508      11                                                00010000D     21
     508                       1       1                               0D     22
     508      12                                                00010000D     23
     508                       1       1                               0D     24
     126      13                                                00010000D     25
     126       0               8       0                               0D     26
     126      21                                                00010000D     27
     126       0               7       0                               0D     28
     126      28                                                00010000D     29
     126       0              11       0                               0D     30
     126      39                                                00010000D     31
     126       0               3       0                               0D     32
     126      42                                                00010000D     33
     126       0              10       0                               0D     34
     126      52                                                00010000D     35
     126       0               3       0                               0D     36
     126      55                                                00010000D     37
     126       0               9       0                               0D     38
     128      64                                                00010000D     39
     128       0     -53       7       0                               0D     40
     128      71                                                00010000D     41
     128       0     -53      14       0                               0D     42
     128      85                                                00010000D     43
     128       0     -53      14       0                               0D     44
     128      99                                                00010000D     45
     128       0     -53       3       0                               0D     46
     502     102                                                00010000D     47
     502                       3       1                               0D     48
     504     105                                                00010001D     49
     504                       2       1                               0D     50
     406     107                                                00000000D     51
     406                       1      15                               0D     52
     314     108                                                00000200D     53
     314                       2       0                               0D     54
186,3,1,0,0,1,51;                                                      1P      1
514,4,5,1,7,1,9,1,11,1;                                                3P      2
510,39,2,1,13,15;                                                      5P      3
510,41,1,1,17;                                                         7P      4
510,43,1,1,19;                                                         9P      5
510,45,2,1,21,23;                                                     11P      6
508,2,0,49,1,0,0,0,49,2,0,0;                                          13P      7
508,1,0,49,3,0,0;                                                     15P      8
508,4,0,49,3,1,0,0,49,4,1,0,0,49,5,1,0,0,49,4,0,0;                    17P      9
508,5,0,49,1,1,0,0,49,6,1,0,0,49,7,1,0,0,49,6,0,0,0,49,2,1,0;         19P     10
508,1,0,49,7,0,0;                                                     21P     11
508,1,0,49,5,0,0;                                                     23P     12
126,4,2,0,0,0,0,-6.28318530717959,-6.28318530717959,                  25P     13
-6.28318530717959,-4.71238898038469,-4.71238898038469,                25P     14
-3.14159265358979,-3.14159265358979,-3.14159265358979,1.,             25P     15
0.707106781186548,1.,0.707106781186548,1.,18.,                        25P     16
-4.40872847693047D-15,2.00000004470348,18.,-18.,                      25P     17
2.00000004470348,-3.30654635769785D-15,-18.,3.00000004470348,         25P     18
-18.,-18.,4.00000004470348,-18.,2.20436423846524D-15,                 25P     19
4.00000004470348,-6.28318530717959,-3.14159265358979,0.,0.,0.;        25P     20
126,4,2,0,0,0,0,-3.14159265358979,-3.14159265358979,                  27P     21
-3.14159265358979,-1.5707963267949,-1.5707963267949,0.,0.,0.,1.,      27P     22
0.707106781186548,1.,0.707106781186548,1.,-18.,                       27P     23
2.20436423846524D-15,4.00000004470348,-18.,18.,4.00000004470348,      27P     24
1.10218211923262D-15,18.,3.00000004470348,18.,18.,                    27P     25
2.00000004470348,18.,0.,2.00000004470348,-3.14159265358979,0.,        27P     26
0.,0.,0.;                                                             27P     27
126,8,2,0,1,0,0,-3.14159265358979,-3.14159265358979,                  29P     28
-3.14159265358979,-1.5707963267949,-1.5707963267949,0.,0.,            29P     29
1.5707963267949,1.5707963267949,3.14159265358979,                     29P     30
3.14159265358979,3.14159265358979,1.,0.707106781186548,1.,            29P     31
0.707106781186547,1.,0.707106781186547,1.,0.707106781186548,1.,       29P     32
-13.5,-1.65327317884893D-15,3.75000004470348,-13.5,-13.5,             29P     33
3.75000004470348,8.26636589424463D-16,-13.5,3.00000004470348,         29P     34
13.5,-13.5,2.25000004470348,13.5,0.,2.25000004470348,13.5,13.5,       29P     35
2.25000004470348,8.26636589424463D-16,13.5,3.00000004470348,          29P     36
-13.5,13.5,3.75000004470348,-13.5,1.65327317884893D-15,               29P     37
3.75000004470348,-3.14159265358979,3.14159265358979,0.,0.,0.;         29P     38
126,1,1,0,0,1,0,-0.277777781089147,-0.277777781089147,0.,0.,1.,       31P     39
1.,-13.5,0.,3.75000004470348,-13.5,0.,0.,-0.277777781089147,0.,       31P     40
0.,0.,0.;                                                             31P     41
126,8,2,0,1,0,0,-3.14159265358979,-3.14159265358979,                  33P     42
-3.14159265358979,-1.5707963267949,-1.5707963267949,0.,0.,            33P     43
1.5707963267949,1.5707963267949,3.14159265358979,                     33P     44
3.14159265358979,3.14159265358979,1.,0.707106781186548,1.,            33P     45
0.707106781186547,1.,0.707106781186547,1.,0.707106781186548,1.,       33P     46
-13.5,1.65327317884893D-15,0.,-13.5,13.5,0.,                          33P     47
8.26636589424463D-16,13.5,0.,13.5,13.5,0.,13.5,0.,0.,13.5,-13.5,      33P     48
0.,8.26636589424463D-16,-13.5,0.,-13.5,-13.5,0.,-13.5,                33P     49
-1.65327317884893D-15,0.,-3.14159265358979,3.14159265358979,0.,       33P     50
0.,0.;                                                                33P     51
126,1,1,0,0,1,0,-0.222222224705749,-0.222222224705749,0.,0.,1.,       35P     52
1.,-18.,0.,4.00000004470348,-18.,0.,0.,-0.222222224705749,0.,0.,      35P     53
0.,0.;                                                                35P     54
126,8,2,0,1,0,0,-3.14159265358979,-3.14159265358979,                  37P     55
-3.14159265358979,-1.5707963267949,-1.5707963267949,0.,0.,            37P     56
1.5707963267949,1.5707963267949,3.14159265358979,                     37P     57
3.14159265358979,3.14159265358979,1.,0.707106781186548,1.,            37P     58
0.707106781186547,1.,0.707106781186547,1.,0.707106781186548,1.,       37P     59
-18.,-2.20436423846524D-15,0.,-18.,-18.,0.,1.10218211923262D-15,      37P     60
-18.,0.,18.,-18.,0.,18.,0.,0.,18.,18.,0.,1.10218211923262D-15,        37P     61
18.,0.,-18.,18.,0.,-18.,2.20436423846524D-15,0.,                      37P     62
-3.14159265358979,3.14159265358979,0.,0.,0.;                          37P     63
128,1,1,1,1,0,0,1,0,0,-0.000999973136549869,                          39P     64
-0.000999973136549869,3.60655130232744,3.60655130232744,-1.801,       39P     65
-1.801,1.801,1.801,1.,1.,1.,1.,-18.0099846035321,-18.01,              39P     66
4.00055474489971,18.0099846035321,-18.01,1.99944534450726,            39P     67
-18.0099846035321,18.01,4.00055474489971,18.0099846035321,18.01,      39P     68
1.99944534450726,-0.000999973136549869,3.60655130232744,-1.801,       39P     69
1.801;                                                                39P     70
128,1,8,1,2,0,1,0,0,1,0.,0.,0.277777781089147,0.277777781089147,      41P     71
-3.14159265358979,-3.14159265358979,-3.14159265358979,                41P     72
-1.5707963267949,-1.5707963267949,0.,0.,1.5707963267949,              41P     73
1.5707963267949,3.14159265358979,3.14159265358979,                    41P     74
3.14159265358979,1.,1.,0.707106781186548,0.707106781186548,1.,        41P     75
1.,0.707106781186548,0.707106781186548,1.,1.,0.707106781186548,       41P     76
0.707106781186548,1.,1.,0.707106781186548,0.707106781186548,1.,       41P     77
1.,-13.5,0.,0.,-13.5,0.,3.75000004470348,-13.5,-13.5,0.,-13.5,        41P     78
-13.5,3.75000004470348,0.,-13.5,0.,0.,-13.5,3.75000004470348,         41P     79
13.5,-13.5,0.,13.5,-13.5,3.75000004470348,13.5,0.,0.,13.5,0.,         41P     80
3.75000004470348,13.5,13.5,0.,13.5,13.5,3.75000004470348,0.,          41P     81
13.5,0.,0.,13.5,3.75000004470348,-13.5,13.5,0.,-13.5,13.5,            41P     82
3.75000004470348,-13.5,0.,0.,-13.5,0.,3.75000004470348,0.,            41P     83
0.277777781089147,-3.14159265358979,3.14159265358979;                 41P     84
128,1,8,1,2,0,1,0,0,1,0.,0.,0.226808009617352,0.226808009617352,      43P     85
-3.14159265358979,-3.14159265358979,-3.14159265358979,                43P     86
-1.5707963267949,-1.5707963267949,0.,0.,1.5707963267949,              43P     87
1.5707963267949,3.14159265358979,3.14159265358979,                    43P     88
3.14159265358979,1.,1.,0.707106781186548,0.707106781186548,1.,        43P     89
1.,0.707106781186548,0.707106781186548,1.,1.,0.707106781186548,       43P     90
0.707106781186548,1.,1.,0.707106781186548,0.707106781186548,1.,       43P     91
1.,-18.,0.,4.08254417311234,-18.,0.,0.,-18.,-18.,                     43P     92
4.08254417311234,-18.,-18.,0.,0.,-18.,4.08254417311234,0.,-18.,       43P     93
0.,18.,-18.,4.08254417311234,18.,-18.,0.,18.,0.,                      43P     94
4.08254417311234,18.,0.,0.,18.,18.,4.08254417311234,18.,18.,0.,       43P     95
0.,18.,4.08254417311234,0.,18.,0.,-18.,18.,4.08254417311234,          43P     96
-18.,18.,0.,-18.,0.,4.08254417311234,-18.,0.,0.,0.,                   43P     97
0.226808009617352,-3.14159265358979,3.14159265358979;                 43P     98
128,1,1,1,1,0,0,1,0,0,-1.801,-1.801,1.801,1.801,-1.801,-1.801,        45P     99
1.801,1.801,1.,1.,1.,1.,18.01,-18.01,0.,-18.01,-18.01,0.,18.01,       45P    100
18.01,0.,-18.01,18.01,0.,-1.801,1.801,-1.801,1.801;                   45P    101
502,5,18.0000002682209,0.,2.00000002980232,-18.,0.,                   47P    102
4.00000004470348,-13.5,-1.65327317884893D-15,3.75000004470348,        47P    103
-13.5,-1.65327317884893D-15,0.,-18.,-2.20436423846524D-15,0.;         47P    104
504,7,25,47,1,47,2,27,47,2,47,1,29,47,3,47,3,31,47,3,47,4,33,47,      49P    105
4,47,4,35,47,2,47,5,37,47,5,47,5;                                     49P    106
406,1,5HBody1;                                                        51P    107
314,62.7450980392157,62.7450980392157,62.7450980392157,13HSteel       53P    108
- Satin;                                                              53P    109
S      1G      3D     54P    109                                        T      1
