0
SECTION
2
HEADER
9
$INSUNITS
70
4
9
$ACADVER
1
AC1014
9
$HANDSEED
5
FFFF
0
ENDSEC
0
SECTION
2
TABLES
0
TABLE
2
VPORT
5
8
100
AcDbSymbolTable
0
ENDTAB
0
TABLE
2
LTYPE
5
5
100
AcDbSymbolTable
0
LTYPE
5
14
100
AcDbSymbolTableRecord
100
AcDbLinetypeTableRecord
2
BYBLOCK
70
0
0
LTYPE
5
15
100
AcDbSymbolTableRecord
100
AcDbLinetypeTableRecord
2
BYLAYER
70
0
0
ENDTAB
0
TABLE
2
LAYER
5
2
100
AcDbSymbolTable
70
2
0
LAYER
5
50
100
AcDbSymbolTableRecord
100
AcDbLayerTableRecord
2
0
70
0
6
CONTINUOUS
0
ENDTAB
0
TABLE
2
STYLE
5
3
100
AcDbSymbolTable
70
1
0
STYLE
5
11
100
AcDbSymbolTableRecord
100
AcDbTextStyleTableRecord
2
STANDARD
70
0
0
ENDTAB
0
TABLE
2
VIEW
5
6
100
AcDbSymbolTable
70
0
0
ENDTAB
0
TABLE
2
UCS
5
7
100
AcDbSymbolTable
70
0
0
ENDTAB
0
TABLE
2
APPID
5
9
100
AcDbSymbolTable
70
2
0
APPID
5
12
100
AcDbSymbolTableRecord
100
AcDbRegAppTableRecord
2
ACAD
70
0
0
ENDTAB
0
TABLE
2
DIMSTYLE
5
A
100
AcDbSymbolTable
70
1
0
ENDTAB
0
TABLE
2
BLOCK_RECORD
5
1
100
AcDbSymbolTable
70
1
0
BLOCK_RECORD
5
1F
100
AcDbSymbolTableRecord
100
AcDbBlockTableRecord
2
*MODEL_SPACE
0
BLOCK_RECORD
5
1B
100
AcDbSymbolTableRecord
100
AcDbBlockTableRecord
2
*PAPER_SPACE
0
ENDTAB
0
ENDSEC
0
SECTION
2
BLOCKS
0
BLOCK
5
20
100
AcDbEntity
100
AcDbBlockBegin
2
*MODEL_SPACE
0
ENDBLK
5
21
100
AcDbEntity
100
AcDbBlockEnd
0
BLOCK
5
1C
100
AcDbEntity
100
AcDbBlockBegin
2
*PAPER_SPACE
0
ENDBLK
5
1D
100
AcDbEntity
100
AcDbBlockEnd
0
ENDSEC
0
SECTION
2
ENTITIES
0
SPLINE
5
100
100
AcDbEntity
8
0
100
AcDbSpline
70
4
71
3
72
8
73
4
74
0
42
0.000000001
43
0.0000000001
44
0.0000000001
40
0
40
0
40
0
40
0
40
1
40
1
40
1
40
1
41
1
41
1
41
1
41
1
10
59.841093714714049
20
26.389792448806759
30
0
10
55.509695448529719
20
27.2397279970169
30
0
10
53.613687103086711
20
32.502784934496873
30
0
10
55.934663222634796
20
36.180387174701693
30
0
0
SPLINE
5
101
100
AcDbEntity
8
0
100
AcDbSpline
70
4
71
3
72
8
73
4
74
0
42
0.000000001
43
0.0000000001
44
0.0000000001
40
0
40
0
40
0
40
0
40
1
40
1
40
1
40
1
41
1
41
1
41
1
41
1
10
55.934663222634796
20
36.180387174701693
30
0
10
56.997081358921527
20
37.863911957836144
30
0
10
58.942124422550208
20
39.040745194292072
30
0
10
60.887167486178875
20
39.334952853918075
30
0
0
SPLINE
5
102
100
AcDbEntity
8
0
100
AcDbSpline
70
4
71
3
72
8
73
4
74
0
42
0.000000001
43
0.0000000001
44
0.0000000001
40
0
40
0
40
0
40
0
40
1
40
1
40
1
40
1
41
1
41
1
41
1
41
1
10
60.887167486178875
20
39.334952853918075
30
0
10
61.475583454918869
20
38.615777420186994
30
0
10
62.292828974509234
20
38.076395844888687
30
0
10
63.289868352532395
20
37.94563573040962
30
0
0
SPLINE
5
103
100
AcDbEntity
8
0
100
AcDbSpline
70
4
71
3
72
8
73
4
74
0
42
0.000000001
43
0.0000000001
44
0.0000000001
40
0
40
0
40
0
40
0
40
1
40
1
40
1
40
1
41
1
41
1
41
1
41
1
10
63.289868352532395
20
37.94563573040962
30
0
10
65.234910766673096
20
37.700463113713255
30
0
10
65.856017413520817
20
39.122468966865533
30
0
10
64.107112573146821
20
39.678195556473732
30
0
0
SPLINE
5
104
100
AcDbEntity
8
0
100
AcDbSpline
70
4
71
3
72
8
73
4
74
0
42
0.000000001
43
0.0000000001
44
0.0000000001
40
0
40
0
40
0
40
0
40
1
40
1
40
1
40
1
41
1
41
1
41
1
41
1
10
64.107112573146821
20
39.678195556473732
30
0
10
63.698489813351635
20
39.808955021464818
30
0
10
63.175453252363205
20
39.907024457836151
30
0
10
62.570692918801313
20
39.956058851277824
30
0
0
SPLINE
5
105
100
AcDbEntity
8
0
100
AcDbSpline
70
4
71
3
72
8
73
4
74
0
42
0.000000001
43
0.0000000001
44
0.0000000001
40
0
40
0
40
0
40
0
40
1
40
1
40
1
40
1
41
1
41
1
41
1
41
1
10
62.570692918801313
20
39.956058851277824
30
0
10
61.263100866842272
20
41.443444761669632
30
0
10
61.214065823912627
20
44.205732695400712
30
0
10
62.930280635666847
20
45.17008204480409
30
0
0
SPLINE
5
106
100
AcDbEntity
8
0
100
AcDbSpline
70
4
71
3
72
8
73
4
74
0
42
0.000000001
43
0.0000000001
44
0.0000000001
40
0
40
0
40
0
40
0
40
1
40
1
40
1
40
1
41
1
41
1
41
1
41
1
10
62.930280635666847
20
45.17008204480409
30
0
10
65.856017413520817
20
46.837261813628672
30
0
10
66.902090535497663
20
43.421177853918074
30
0
10
65.202220738053327
20
43.225038981175423
30
0
0
SPLINE
5
107
100
AcDbEntity
8
0
100
AcDbSpline
70
4
71
3
72
8
73
4
74
0
42
0.000000001
43
0.0000000001
44
0.0000000001
40
0
40
0
40
0
40
0
40
1
40
1
40
1
40
1
41
1
41
1
41
1
41
1
10
65.202220738053327
20
43.225038981175423
30
0
10
64.875323049807548
20
43.372142810988422
30
0
10
64.254216402959827
20
43.40483283960819
30
0
10
64.025388800573353
20
43.094279516184329
30
0
0
SPLINE
5
108
100
AcDbEntity
8
0
100
AcDbSpline
70
4
71
3
72
8
73
4
74
0
42
0.000000001
43
0.0000000001
44
0.0000000001
40
0
40
0
40
0
40
0
40
1
40
1
40
1
40
1
41
1
41
1
41
1
41
1
10
64.025388800573353
20
43.094279516184329
30
0
10
63.289868352532395
20
42.146275830578801
30
0
10
65.18587572374345
20
40.904063186371324
30
0
10
66.297328902959833
20
42.440483490204812
30
0
0
SPLINE
5
109
100
AcDbEntity
8
0
100
AcDbSpline
70
4
71
3
72
8
73
4
74
0
42
0.000000001
43
0.0000000001
44
0.0000000001
40
0
40
0
40
0
40
0
40
1
40
1
40
1
40
1
41
1
41
1
41
1
41
1
10
66.297328902959833
20
42.440483490204812
30
0
10
68.291407659006126
20
45.17008204480409
30
0
10
64.760909248614311
20
47.44202312142253
30
0
10
61.688067341971404
20
45.496980057793849
30
0
0
SPLINE
5
110
100
AcDbEntity
8
0
100
AcDbSpline
70
4
71
3
72
8
73
4
74
0
42
0.000000001
43
0.0000000001
44
0.0000000001
40
0
40
0
40
0
40
0
40
1
40
1
40
1
40
1
41
1
41
1
41
1
41
1
10
61.688067341971404
20
45.496980057793849
30
0
10
59.628610477149486
20
44.205732695400712
30
0
10
59.481505997848515
20
41.672273663032051
30
0
10
60.511234755003457
20
39.890679443526267
30
0
0
SPLINE
5
111
100
AcDbEntity
8
0
100
AcDbSpline
70
4
71
3
72
8
73
4
74
0
42
0.000000001
43
0.0000000001
44
0.0000000001
40
0
40
0
40
0
40
0
40
1
40
1
40
1
40
1
41
1
41
1
41
1
41
1
10
60.511234755003457
20
39.890679443526267
30
0
10
57.487428540778168
20
39.531091726660726
30
0
10
53.924240101766586
20
37.929290716099736
30
0
10
52.8454597397387
20
33.990170844888681
30
0
0
SPLINE
5
112
100
AcDbEntity
8
0
100
AcDbSpline
70
4
71
3
72
8
73
4
74
0
42
0.000000001
43
0.0000000001
44
0.0000000001
40
0
40
0
40
0
40
0
40
1
40
1
40
1
40
1
41
1
41
1
41
1
41
1
10
52.8454597397387
20
33.990170844888681
30
0
10
50.328345214267443
20
24.771647722911826
30
0
10
62.832210549807556
20
20.718112751531592
30
0
10
66.231950144696242
20
29.135735368227955
30
0
0
SPLINE
5
113
100
AcDbEntity
8
0
100
AcDbSpline
70
4
71
3
72
8
73
4
74
0
42
0.000000001
43
0.0000000001
44
0.0000000001
40
0
40
0
40
0
40
0
40
1
40
1
40
1
40
1
41
1
41
1
41
1
41
1
10
66.231950144696242
20
29.135735368227955
30
0
10
66.705951662755012
20
30.312567305707926
30
0
10
66.836711777234086
20
32.535474963116641
30
0
10
65.529119725275052
20
33.254650396847723
30
0
0
SPLINE
5
114
100
AcDbEntity
8
0
100
AcDbSpline
70
4
71
3
72
8
73
4
74
0
42
0.000000001
43
0.0000000001
44
0.0000000001
40
0
40
0
40
0
40
0
40
1
40
1
40
1
40
1
41
1
41
1
41
1
41
1
10
65.529119725275052
20
33.254650396847723
30
0
10
64.074422544527053
20
34.055549603152272
30
0
10
62.881245592737201
20
31.832643244719499
30
0
10
64.630149134135252
20
31.669194400596616
30
0
0
SPLINE
5
115
100
AcDbEntity
8
0
100
AcDbSpline
70
4
71
3
72
8
73
4
74
0
42
0.000000001
43
0.0000000001
44
0.0000000001
40
0
40
0
40
0
40
0
40
1
40
1
40
1
40
1
41
1
41
1
41
1
41
1
10
64.630149134135252
20
31.669194400596616
30
0
10
65.480084682345392
20
31.39133175528049
30
0
10
65.856017413520817
20
30.361602348637575
30
0
10
65.529119725275052
20
29.380909283900255
30
0
0
SPLINE
5
116
100
AcDbEntity
8
0
100
AcDbSpline
70
4
71
3
72
8
73
4
74
0
42
0.000000001
43
0.0000000001
44
0.0000000001
40
0
40
0
40
0
40
0
40
1
40
1
40
1
40
1
41
1
41
1
41
1
41
1
10
65.529119725275052
20
29.380909283900255
30
0
10
64.679184177064897
20
26.831103938245768
30
0
10
62.309173988819126
20
25.915790930747981
30
0
10
59.841093714714049
20
26.389792448806759
30
0
0
SPLINE
5
117
100
AcDbEntity
8
0
100
AcDbSpline
70
4
71
3
72
8
73
4
74
0
42
0.000000001
43
0.0000000001
44
0.0000000001
40
0
40
0
40
0
40
0
40
1
40
1
40
1
40
1
41
1
41
1
41
1
41
1
10
68.736908345866212
20
41.933791943526266
30
0
10
69.325324964094165
20
41.770343099403384
30
0
10
69.946430311965941
20
42.244345266950127
30
0
10
70.142569184708606
20
42.979865714991092
30
0
0
SPLINE
5
118
100
AcDbEntity
8
0
100
AcDbSpline
70
4
71
3
72
8
73
4
74
0
42
0.000000001
43
0.0000000001
44
0.0000000001
40
0
40
0
40
0
40
0
40
1
40
1
40
1
40
1
41
1
41
1
41
1
41
1
10
70.142569184708606
20
42.979865714991092
30
0
10
70.32236304314138
20
43.715386163032051
30
0
10
69.9954653548956
20
44.450906611073016
30
0
10
69.407048736667633
20
44.614355455195906
30
0
0
SPLINE
5
119
100
AcDbEntity
8
0
100
AcDbSpline
70
4
71
3
72
8
73
4
74
0
42
0.000000001
43
0.0000000001
44
0.0000000001
40
0
40
0
40
0
40
0
40
1
40
1
40
1
40
1
41
1
41
1
41
1
41
1
10
69.407048736667633
20
44.614355455195906
30
0
10
68.81863211843968
20
44.777804299318788
30
0
10
68.213871784877782
20
44.320147146081922
30
0
10
68.001387897825239
20
43.584626698040964
30
0
0
SPLINE
5
120
100
AcDbEntity
8
0
100
AcDbSpline
70
4
71
3
72
8
73
4
74
0
42
0.000000001
43
0.0000000001
44
0.0000000001
40
0
40
0
40
0
40
0
40
1
40
1
40
1
40
1
41
1
41
1
41
1
41
1
10
68.001387897825239
20
43.584626698040964
30
0
10
67.82159403939248
20
42.832761235690114
30
0
10
68.148491727638259
20
42.097240787649149
30
0
10
68.736908345866212
20
41.933791943526266
30
0
0
SPLINE
5
121
100
AcDbEntity
8
0
100
AcDbSpline
70
4
71
3
72
8
73
4
74
0
42
0.000000001
43
0.0000000001
44
0.0000000001
40
0
40
0
40
0
40
0
40
1
40
1
40
1
40
1
41
1
41
1
41
1
41
1
10
66.072689199018484
20
35.085279009795187
30
0
10
65.680411453533182
20
33.79403197214603
30
0
10
66.072689199018484
20
32.502784934496873
30
0
10
67.086073591351521
20
32.502784934496873
30
0
0
SPLINE
5
122
100
AcDbEntity
8
0
100
AcDbSpline
70
4
71
3
72
8
73
4
74
0
42
0.000000001
43
0.0000000001
44
0.0000000001
40
0
40
0
40
0
40
0
40
1
40
1
40
1
40
1
41
1
41
1
41
1
41
1
10
67.086073591351521
20
32.502784934496873
30
0
10
68.933047218608863
20
32.502784934496873
30
0
10
69.864706539392472
20
34.823760079812999
30
0
10
70.371398086071025
20
36.752458778619761
30
0
0
LINE
5
123
100
AcDbEntity
8
0
100
AcDbLine
10
70.371398086071025
20
36.752458778619761
30
0
11
69.832016510772718
21
36.752458778619761
31
0
0
SPLINE
5
124
100
AcDbEntity
8
0
100
AcDbSpline
70
4
71
3
72
8
73
4
74
0
42
0.000000001
43
0.0000000001
44
0.0000000001
40
0
40
0
40
0
40
0
40
1
40
1
40
1
40
1
41
1
41
1
41
1
41
1
10
69.832016510772718
20
36.752458778619761
30
0
10
69.031116005492223
20
34.31706853313446
30
0
10
68.410010657620433
20
33.663271857666963
30
0
10
67.87062778334618
20
33.663271857666963
30
0
0
SPLINE
5
125
100
AcDbEntity
8
0
100
AcDbSpline
70
4
71
3
72
8
73
4
74
0
42
0.000000001
43
0.0000000001
44
0.0000000001
40
0
40
0
40
0
40
0
40
1
40
1
40
1
40
1
41
1
41
1
41
1
41
1
10
67.87062778334618
20
33.663271857666963
30
0
10
67.478351336836823
20
33.663271857666963
30
0
10
67.576420123720169
20
33.990170844888681
30
0
10
67.739868967843066
20
34.562242448806757
30
0
0
SPLINE
5
126
100
AcDbEntity
8
0
100
AcDbSpline
70
4
71
3
72
8
73
4
74
0
42
0.000000001
43
0.0000000001
44
0.0000000001
40
0
40
0
40
0
40
0
40
1
40
1
40
1
40
1
41
1
41
1
41
1
41
1
10
67.739868967843066
20
34.562242448806757
30
0
10
67.854282769036303
20
34.938175179982181
30
0
10
69.096496062731745
20
39.759919978535173
30
0
10
69.178219835305214
20
40.037783273339265
30
0
0
SPLINE
5
127
100
AcDbEntity
8
0
100
AcDbSpline
70
4
71
3
72
8
73
4
74
0
42
0.000000001
43
0.0000000001
44
0.0000000001
40
0
40
0
40
0
40
0
40
1
40
1
40
1
40
1
41
1
41
1
41
1
41
1
10
69.178219835305214
20
40.037783273339265
30
0
10
69.308979949784288
20
40.528130455195907
30
0
10
69.178219835305214
20
40.805993749999999
30
0
10
68.671528288626675
20
40.805993749999999
30
0
0
LINE
5
128
100
AcDbEntity
8
0
100
AcDbLine
10
68.671528288626661
20
40.805993749999999
30
0
11
67.249522435474404
21
40.805993749999999
31
0
0
SPLINE
5
129
100
AcDbEntity
8
0
100
AcDbSpline
70
4
71
3
72
8
73
4
74
0
42
0.000000001
43
0.0000000001
44
0.0000000001
40
0
40
0
40
0
40
0
40
1
40
1
40
1
40
1
41
1
41
1
41
1
41
1
10
67.249522435474404
20
40.805993749999999
30
0
10
67.576420123720169
20
40.511785440886015
30
0
10
67.511040066480646
20
40.037783273339265
30
0
10
67.249522435474404
20
39.253228431856627
30
0
0
SPLINE
5
130
100
AcDbEntity
8
0
100
AcDbSpline
70
4
71
3
72
8
73
4
74
0
42
0.000000001
43
0.0000000001
44
0.0000000001
40
0
40
0
40
0
40
0
40
1
40
1
40
1
40
1
41
1
41
1
41
1
41
1
10
67.249522435474404
20
39.253228431856627
30
0
10
67.11876232099533
20
38.877295051193236
30
0
10
66.187103000211721
20
35.461211740970604
30
0
10
66.072689199018484
20
35.085279009795187
30
0
0
SPLINE
5
131
100
AcDbEntity
8
0
100
AcDbSpline
70
4
71
3
72
8
73
4
74
0
42
0.000000001
43
0.0000000001
44
0.0000000001
40
0
40
0
40
0
40
0
40
1
40
1
40
1
40
1
41
1
41
1
41
1
41
1
10
73.463784384775167
20
32.372024820017813
30
0
10
75.261722969102863
20
32.372024820017813
30
0
10
76.22607231850624
20
34.823760079812999
30
0
10
76.863523979663853
20
36.752458778619761
30
0
0
LINE
5
132
100
AcDbEntity
8
0
100
AcDbLine
10
76.863523979663853
20
36.752458778619761
30
0
11
76.37317614831926
21
36.752458778619761
31
0
0
SPLINE
5
133
100
AcDbEntity
8
0
100
AcDbSpline
70
4
71
3
72
8
73
4
74
0
42
0.000000001
43
0.0000000001
44
0.0000000001
40
0
40
0
40
0
40
0
40
1
40
1
40
1
40
1
41
1
41
1
41
1
41
1
10
76.37317614831926
20
36.752458778619761
30
0
10
75.457863140821473
20
34.31706853313446
30
0
10
74.885791536903383
20
33.695961886286732
30
0
10
74.428133734178545
20
33.695961886286732
30
0
0
SPLINE
5
134
100
AcDbEntity
8
0
100
AcDbSpline
70
4
71
3
72
8
73
4
74
0
42
0.000000001
43
0.0000000001
44
0.0000000001
40
0
40
0
40
0
40
0
40
1
40
1
40
1
40
1
41
1
41
1
41
1
41
1
10
74.428133734178545
20
33.695961886286732
30
0
10
74.035855988693243
20
33.695961886286732
30
0
10
73.986822244739542
20
33.990170844888681
30
0
10
74.117579761266711
20
34.431482334327697
30
0
0
SPLINE
5
135
100
AcDbEntity
8
0
100
AcDbSpline
70
4
71
3
72
8
73
4
74
0
42
0.000000001
43
0.0000000001
44
0.0000000001
40
0
40
0
40
0
40
0
40
1
40
1
40
1
40
1
41
1
41
1
41
1
41
1
10
74.117579761266711
20
34.431482334327697
30
0
10
74.264686189031607
20
34.954520194292066
30
0
10
75.00020533809662
20
36.817837536883353
30
0
10
75.506896884775173
20
38.485017305707927
30
0
0
SPLINE
5
136
100
AcDbEntity
8
0
100
AcDbSpline
70
4
71
3
72
8
73
4
74
0
42
0.000000001
43
0.0000000001
44
0.0000000001
40
0
40
0
40
0
40
0
40
1
40
1
40
1
40
1
41
1
41
1
41
1
41
1
10
75.506896884775173
20
38.485017305707927
30
0
10
76.029934744739535
20
40.168542738330366
30
0
10
75.359793054962154
20
41.067512030494207
30
0
10
74.330063648319253
20
41.067512030494207
30
0
0
SPLINE
5
137
100
AcDbEntity
8
0
100
AcDbSpline
70
4
71
3
72
8
73
4
74
0
42
0.000000001
43
0.0000000001
44
0.0000000001
40
0
40
0
40
0
40
0
40
1
40
1
40
1
40
1
41
1
41
1
41
1
41
1
10
74.330063648319253
20
41.067512030494207
30
0
10
73.545510755300526
20
41.067512030494207
30
0
10
72.777298979663854
20
40.511785440886015
30
0
10
72.12350360317231
20
39.465711669421196
30
0
0
SPLINE
5
138
100
AcDbEntity
8
0
100
AcDbSpline
70
4
71
3
72
8
73
4
74
0
42
0.000000001
43
0.0000000001
44
0.0000000001
40
0
40
0
40
0
40
0
40
1
40
1
40
1
40
1
41
1
41
1
41
1
41
1
10
72.12350360317231
20
39.465711669421196
30
0
10
72.17253734712601
20
40.29930155383348
30
0
10
71.633155771827703
20
40.805993749999999
30
0
10
70.94667036671639
20
40.805993749999999
30
0
0
LINE
5
139
100
AcDbEntity
8
0
100
AcDbLine
10
70.94667036671639
20
40.805993749999992
30
0
11
70.570737635540979
21
40.805993749999999
31
0
0
SPLINE
5
140
100
AcDbEntity
8
0
100
AcDbSpline
70
4
71
3
72
8
73
4
74
0
42
0.000000001
43
0.0000000001
44
0.0000000001
40
0
40
0
40
0
40
0
40
1
40
1
40
1
40
1
41
1
41
1
41
1
41
1
10
70.570737635540979
20
40.805993749999999
30
0
10
70.913980338096621
20
40.41371600451469
30
0
10
70.799566536903384
20
40.037783273339265
30
0
10
70.570737635540979
20
39.253228431856627
30
0
0
SPLINE
5
141
100
AcDbEntity
8
0
100
AcDbSpline
70
4
71
3
72
8
73
4
74
0
42
0.000000001
43
0.0000000001
44
0.0000000001
40
0
40
0
40
0
40
0
40
1
40
1
40
1
40
1
41
1
41
1
41
1
41
1
10
70.570737635540979
20
39.253228431856627
30
0
10
70.390943777108191
20
38.615777420186994
30
0
10
69.148731782388694
20
34.529552420186995
30
0
10
68.576660178470618
20
32.633543749999994
30
0
0
LINE
5
142
100
AcDbEntity
8
0
100
AcDbLine
10
68.576660178470618
20
32.633543749999994
30
0
11
69.76983713026047
21
32.633543749999994
31
0
0
SPLINE
5
143
100
AcDbEntity
8
0
100
AcDbSpline
70
4
71
3
72
8
73
4
74
0
42
0.000000001
43
0.0000000001
44
0.0000000001
40
0
40
0
40
0
40
0
40
1
40
1
40
1
40
1
41
1
41
1
41
1
41
1
10
69.76983713026047
20
32.633543749999994
30
0
10
70.292874990224846
20
32.633543749999994
30
0
10
70.554392621231088
20
33.025821495485303
30
0
10
70.66880772140027
20
33.532513042163849
30
0
0
SPLINE
5
144
100
AcDbEntity
8
0
100
AcDbSpline
70
4
71
3
72
8
73
4
74
0
42
0.000000001
43
0.0000000001
44
0.0000000001
40
0
40
0
40
0
40
0
40
1
40
1
40
1
40
1
41
1
41
1
41
1
41
1
10
70.66880772140027
20
33.532513042163849
30
0
10
70.750531493973739
20
33.875755744719498
30
0
10
71.224534311008455
20
35.44486672666072
30
0
10
71.633155771827703
20
36.964942665672297
30
0
0
SPLINE
5
145
100
AcDbEntity
8
0
100
AcDbSpline
70
4
71
3
72
8
73
4
74
0
42
0.000000001
43
0.0000000001
44
0.0000000001
40
0
40
0
40
0
40
0
40
1
40
1
40
1
40
1
41
1
41
1
41
1
41
1
10
71.633155771827703
20
36.964942665672297
30
0
10
72.286951148319247
20
38.909985079813005
30
0
10
73.120542981195456
20
40.168542738330366
30
0
10
73.807028386306769
20
40.168542738330366
30
0
0
SPLINE
5
146
100
AcDbEntity
8
0
100
AcDbSpline
70
4
71
3
72
8
73
4
74
0
42
0.000000001
43
0.0000000001
44
0.0000000001
40
0
40
0
40
0
40
0
40
1
40
1
40
1
40
1
41
1
41
1
41
1
41
1
10
73.807028386306769
20
40.168542738330366
30
0
10
74.182959818506248
20
40.168542738330366
30
0
10
74.330063648319253
20
39.776264992845057
30
0
10
74.084892330598834
20
39.008055165672303
30
0
0
SPLINE
5
147
100
AcDbEntity
8
0
100
AcDbSpline
70
4
71
3
72
8
73
4
74
0
42
0.000000001
43
0.0000000001
44
0.0000000001
40
0
40
0
40
0
40
0
40
1
40
1
40
1
40
1
41
1
41
1
41
1
41
1
10
74.084892330598834
20
39.008055165672303
30
0
10
73.807028386306769
20
38.109085873508448
30
0
10
72.908059094142914
20
36.376526047444344
30
0
10
72.417711262798306
20
34.823760079812999
30
0
0
SPLINE
5
148
100
AcDbEntity
8
0
100
AcDbSpline
70
4
71
3
72
8
73
4
74
0
42
0.000000001
43
0.0000000001
44
0.0000000001
40
0
40
0
40
0
40
0
40
1
40
1
40
1
40
1
41
1
41
1
41
1
41
1
10
72.417711262798306
20
34.823760079812999
30
0
10
72.009089801979073
20
33.548858056473726
30
0
10
72.450401291418075
20
32.372024820017813
30
0
10
73.463784384775167
20
32.372024820017813
30
0
0
LINE
5
149
100
AcDbEntity
8
0
100
AcDbLine
10
77.646785690593717
20
26.749380165672292
30
0
11
79.117826586675648
21
26.749380165672292
31
0
0
SPLINE
5
150
100
AcDbEntity
8
0
100
AcDbSpline
70
4
71
3
72
8
73
4
74
0
42
0.000000001
43
0.0000000001
44
0.0000000001
40
0
40
0
40
0
40
0
40
1
40
1
40
1
40
1
41
1
41
1
41
1
41
1
10
79.117826586675648
20
26.749380165672292
30
0
10
79.640864446640023
20
26.749380165672292
30
0
10
79.902382077646266
20
27.141657911157605
30
0
10
80.016795878839503
20
27.648349457836147
30
0
0
SPLINE
5
151
100
AcDbEntity
8
0
100
AcDbSpline
70
4
71
3
72
8
73
4
74
0
42
0.000000001
43
0.0000000001
44
0.0000000001
40
0
40
0
40
0
40
0
40
1
40
1
40
1
40
1
41
1
41
1
41
1
41
1
10
80.016795878839503
20
27.648349457836147
30
0
10
80.082175936079025
20
27.909867088842386
30
0
10
80.752317625856421
20
30.361602348637575
30
0
10
81.471526832962056
20
32.960441438245766
30
0
0
SPLINE
5
152
100
AcDbEntity
8
0
100
AcDbSpline
70
4
71
3
72
8
73
4
74
0
42
0.000000001
43
0.0000000001
44
0.0000000001
40
0
40
0
40
0
40
0
40
1
40
1
40
1
40
1
41
1
41
1
41
1
41
1
10
81.471526832962056
20
32.960441438245766
30
0
10
81.700354435348515
20
32.666233778619763
30
0
10
82.059942152214063
20
32.502784934496873
30
0
10
82.582980012178439
20
32.502784934496873
30
0
0
SPLINE
5
153
100
AcDbEntity
8
0
100
AcDbSpline
70
4
71
3
72
8
73
4
74
0
42
0.000000001
43
0.0000000001
44
0.0000000001
40
0
40
0
40
0
40
0
40
1
40
1
40
1
40
1
41
1
41
1
41
1
41
1
10
82.582980012178439
20
32.502784934496873
30
0
10
84.151987076044094
20
32.502784934496873
30
0
10
85.753788086605084
20
34.480517377257343
30
0
10
86.37489343447686
20
36.752458778619761
30
0
0
SPLINE
5
154
100
AcDbEntity
8
0
100
AcDbSpline
70
4
71
3
72
8
73
4
74
0
42
0.000000001
43
0.0000000001
44
0.0000000001
40
0
40
0
40
0
40
0
40
1
40
1
40
1
40
1
41
1
41
1
41
1
41
1
10
86.37489343447686
20
36.752458778619761
30
0
10
87.045035124254241
20
39.23688341754675
30
0
10
86.767171179962176
20
41.067512030494207
30
0
10
85.181716482687023
20
41.067512030494207
30
0
0
SPLINE
5
155
100
AcDbEntity
8
0
100
AcDbSpline
70
4
71
3
72
8
73
4
74
0
42
0.000000001
43
0.0000000001
44
0.0000000001
40
0
40
0
40
0
40
0
40
1
40
1
40
1
40
1
41
1
41
1
41
1
41
1
10
85.181716482687023
20
41.067512030494207
30
0
10
84.348127247762676
20
41.067512030494207
30
0
10
83.629053134155271
20
40.430061018824574
30
0
10
83.024291501617441
20
39.400332261669632
30
0
0
SPLINE
5
156
100
AcDbEntity
8
0
100
AcDbSpline
70
4
71
3
72
8
73
4
74
0
42
0.000000001
43
0.0000000001
44
0.0000000001
40
0
40
0
40
0
40
0
40
1
40
1
40
1
40
1
41
1
41
1
41
1
41
1
10
83.024291501617441
20
39.400332261669632
30
0
10
83.122361587476732
20
40.282957189011569
30
0
10
82.566633698892602
20
40.805993749999999
30
0
10
81.863770805072789
20
40.805993749999999
30
0
0
LINE
5
157
100
AcDbEntity
8
0
100
AcDbLine
10
81.863770805072789
20
40.805993750000013
30
0
11
81.487870548295987
21
40.805993749999999
31
0
0
SPLINE
5
158
100
AcDbEntity
8
0
100
AcDbSpline
70
4
71
3
72
8
73
4
74
0
42
0.000000001
43
0.0000000001
44
0.0000000001
40
0
40
0
40
0
40
0
40
1
40
1
40
1
40
1
41
1
41
1
41
1
41
1
10
81.487870548295973
20
40.805993749999999
30
0
10
81.814768236541767
20
40.462751047444343
30
0
10
81.716700748634352
20
40.037783273339265
30
0
10
81.487870548295973
20
39.253228431856627
30
0
0
SPLINE
5
159
100
AcDbEntity
8
0
100
AcDbSpline
70
4
71
3
72
8
73
4
74
0
42
0.000000001
43
0.0000000001
44
0.0000000001
40
0
40
0
40
0
40
0
40
1
40
1
40
1
40
1
41
1
41
1
41
1
41
1
10
81.487870548295973
20
39.253228431856627
30
0
10
81.259042945909513
20
38.468673590373989
30
0
10
78.414994868278512
20
28.432904948806758
30
0
10
78.218857294511807
20
27.77910957231521
30
0
0
SPLINE
5
160
100
AcDbEntity
8
0
100
AcDbSpline
70
4
71
3
72
8
73
4
74
0
42
0.000000001
43
0.0000000001
44
0.0000000001
40
0
40
0
40
0
40
0
40
1
40
1
40
1
40
1
41
1
41
1
41
1
41
1
10
78.218857294511807
20
27.77910957231521
30
0
10
78.039063436079033
20
27.15800162649154
30
0
10
77.908303321599973
20
26.880137682199468
30
0
10
77.646785690593717
20
26.749380165672292
30
0
0
LINE
5
161
100
AcDbEntity
8
0
100
AcDbLine
10
81.667664406728747
20
33.663271857666963
30
0
11
82.403186153745651
21
36.376526047444337
31
0
0
SPLINE
5
162
100
AcDbEntity
8
0
100
AcDbSpline
70
4
71
3
72
8
73
4
74
0
42
0.000000001
43
0.0000000001
44
0.0000000001
40
0
40
0
40
0
40
0
40
1
40
1
40
1
40
1
41
1
41
1
41
1
41
1
10
82.403186153745651
20
36.376526047444344
30
0
10
82.975257757663741
20
38.37060350451469
30
0
10
83.743466935348522
20
39.890679443526267
30
0
10
84.397160991716405
20
40.037783273339265
30
0
0
SPLINE
5
163
100
AcDbEntity
8
0
100
AcDbSpline
70
4
71
3
72
8
73
4
74
0
42
0.000000001
43
0.0000000001
44
0.0000000001
40
0
40
0
40
0
40
0
40
1
40
1
40
1
40
1
41
1
41
1
41
1
41
1
10
84.397160991716405
20
40.037783273339265
30
0
10
85.067302681493771
20
40.184887752640243
30
0
10
85.099992710113526
20
39.155158995485301
30
0
10
84.560611134815233
20
37.14473652410507
30
0
0
SPLINE
5
164
100
AcDbEntity
8
0
100
AcDbSpline
70
4
71
3
72
8
73
4
74
0
42
0.000000001
43
0.0000000001
44
0.0000000001
40
0
40
0
40
0
40
0
40
1
40
1
40
1
40
1
41
1
41
1
41
1
41
1
10
84.560611134815233
20
37.14473652410507
30
0
10
84.070263303470625
20
35.346796640801429
30
0
10
83.432912962436689
20
33.79403197214603
30
0
10
82.468566210985188
20
33.352719183731075
30
0
0
SPLINE
5
165
100
AcDbEntity
8
0
100
AcDbSpline
70
4
71
3
72
8
73
4
74
0
42
0.000000001
43
0.0000000001
44
0.0000000001
40
0
40
0
40
0
40
0
40
1
40
1
40
1
40
1
41
1
41
1
41
1
41
1
10
82.468566210985188
20
33.352719183731075
30
0
10
82.092632180833817
20
33.172925325298309
30
0
10
81.798424521207821
20
33.320029155111314
30
0
10
81.667664406728747
20
33.663271857666963
30
0
0
SPLINE
5
166
100
AcDbEntity
8
0
100
AcDbSpline
70
4
71
3
72
8
73
4
74
0
42
0.000000001
43
0.0000000001
44
0.0000000001
40
0
40
0
40
0
40
0
40
1
40
1
40
1
40
1
41
1
41
1
41
1
41
1
10
88.261367621231102
20
32.372024820017813
30
0
10
89.029576798915869
20
32.372024820017813
30
0
10
89.716064801979073
20
33.042166509795187
30
0
10
90.255446377277366
20
33.973825830578797
30
0
0
SPLINE
5
167
100
AcDbEntity
8
0
100
AcDbSpline
70
4
71
3
72
8
73
4
74
0
42
0.000000001
43
0.0000000001
44
0.0000000001
40
0
40
0
40
0
40
0
40
1
40
1
40
1
40
1
41
1
41
1
41
1
41
1
10
90.255446377277366
20
33.973825830578797
30
0
10
90.288136405897149
20
33.14023529667854
30
0
10
90.696757866716396
20
32.502784934496873
30
0
10
91.415933300447477
20
32.502784934496873
30
0
0
SPLINE
5
168
100
AcDbEntity
8
0
100
AcDbSpline
70
4
71
3
72
8
73
4
74
0
42
0.000000001
43
0.0000000001
44
0.0000000001
40
0
40
0
40
0
40
0
40
1
40
1
40
1
40
1
41
1
41
1
41
1
41
1
10
91.415933300447477
20
32.502784934496873
30
0
10
93.099458083581936
20
32.502784934496873
30
0
10
94.031117404365546
20
34.823760079812999
30
0
10
94.53781154899599
20
36.752458778619761
30
0
0
LINE
5
169
100
AcDbEntity
8
0
100
AcDbLine
10
94.53781154899599
20
36.752458778619761
30
0
11
93.998429973697668
21
36.752458778619761
31
0
0
SPLINE
5
170
100
AcDbEntity
8
0
100
AcDbSpline
70
4
71
3
72
8
73
4
74
0
42
0.000000001
43
0.0000000001
44
0.0000000001
40
0
40
0
40
0
40
0
40
1
40
1
40
1
40
1
41
1
41
1
41
1
41
1
10
93.998429973697668
20
36.752458778619761
30
0
10
93.197528169441242
20
34.31706853313446
30
0
10
92.576420223617575
20
33.663271857666963
30
0
10
92.200488791418081
20
33.663271857666963
30
0
0
SPLINE
5
171
100
AcDbEntity
8
0
100
AcDbSpline
70
4
71
3
72
8
73
4
74
0
42
0.000000001
43
0.0000000001
44
0.0000000001
40
0
40
0
40
0
40
0
40
1
40
1
40
1
40
1
41
1
41
1
41
1
41
1
10
92.200488791418081
20
33.663271857666963
30
0
10
91.808211045932779
20
33.663271857666963
30
0
10
91.808211045932779
20
33.990170844888681
30
0
10
91.971661189031622
20
34.562242448806757
30
0
0
SPLINE
5
172
100
AcDbEntity
8
0
100
AcDbSpline
70
4
71
3
72
8
73
4
74
0
42
0.000000001
43
0.0000000001
44
0.0000000001
40
0
40
0
40
0
40
0
40
1
40
1
40
1
40
1
41
1
41
1
41
1
41
1
10
91.971661189031622
20
34.562242448806757
30
0
10
92.069728676939036
20
34.905485151362413
30
0
10
93.32828568596841
20
39.7108855850935
30
0
10
93.606149630260489
20
40.805993749999999
30
0
0
LINE
5
173
100
AcDbEntity
8
0
100
AcDbLine
10
93.606149630260504
20
40.805993749999999
30
0
11
92.05338496160509
21
40.805993749999999
31
0
0
SPLINE
5
174
100
AcDbEntity
8
0
100
AcDbSpline
70
4
71
3
72
8
73
4
74
0
42
0.000000001
43
0.0000000001
44
0.0000000001
40
0
40
0
40
0
40
0
40
1
40
1
40
1
40
1
41
1
41
1
41
1
41
1
10
92.053384961605076
20
40.805993749999999
30
0
10
92.004348619699499
20
40.707924313628673
30
0
10
91.922624847126016
20
40.430061018824574
30
0
10
91.808211045932779
20
40.037783273339265
30
0
0
SPLINE
5
175
100
AcDbEntity
8
0
100
AcDbSpline
70
4
71
3
72
8
73
4
74
0
42
0.000000001
43
0.0000000001
44
0.0000000001
40
0
40
0
40
0
40
0
40
1
40
1
40
1
40
1
41
1
41
1
41
1
41
1
10
91.808211045932779
20
40.037783273339265
30
0
10
91.710140960073474
20
40.609854877257341
30
0
10
91.415933300447477
20
41.051167016184323
30
0
10
90.827517981195456
20
41.051167016184323
30
0
0
SPLINE
5
176
100
AcDbEntity
8
0
100
AcDbSpline
70
4
71
3
72
8
73
4
74
0
42
0.000000001
43
0.0000000001
44
0.0000000001
40
0
40
0
40
0
40
0
40
1
40
1
40
1
40
1
41
1
41
1
41
1
41
1
10
90.827517981195456
20
41.051167016184323
30
0
10
89.895858660411847
20
41.051167016184323
30
0
10
88.163297535371782
20
39.629161163032052
30
0
10
87.313364585113533
20
36.78514880723953
30
0
0
SPLINE
5
177
100
AcDbEntity
8
0
100
AcDbSpline
70
4
71
3
72
8
73
4
74
0
42
0.000000001
43
0.0000000001
44
0.0000000001
40
0
40
0
40
0
40
0
40
1
40
1
40
1
40
1
41
1
41
1
41
1
41
1
10
87.313364585113533
20
36.78514880723953
30
0
10
86.463429036903392
20
33.941135801959035
30
0
10
87.133570726680759
20
32.372024820017813
30
0
10
88.261367621231102
20
32.372024820017813
30
0
0
SPLINE
5
178
100
AcDbEntity
8
0
100
AcDbSpline
70
4
71
3
72
8
73
4
74
0
42
0.000000001
43
0.0000000001
44
0.0000000001
40
0
40
0
40
0
40
0
40
1
40
1
40
1
40
1
41
1
41
1
41
1
41
1
10
88.947853026342401
20
36.752458778619761
30
0
10
89.50358091492653
20
38.730191221380231
30
0
10
90.533307723617582
20
39.939713836967947
30
0
10
91.05634558358193
20
39.939713836967947
30
0
0
SPLINE
5
179
100
AcDbEntity
8
0
100
AcDbSpline
70
4
71
3
72
8
73
4
74
0
42
0.000000001
43
0.0000000001
44
0.0000000001
40
0
40
0
40
0
40
0
40
1
40
1
40
1
40
1
41
1
41
1
41
1
41
1
10
91.05634558358193
20
39.939713836967947
30
0
10
91.530347101640714
20
39.939713836967947
30
0
10
91.563037130260483
20
39.334952853918075
30
0
10
91.464967044401178
20
38.877295051193236
30
0
0
SPLINE
5
180
100
AcDbEntity
8
0
100
AcDbSpline
70
4
71
3
72
8
73
4
74
0
42
0.000000001
43
0.0000000001
44
0.0000000001
40
0
40
0
40
0
40
0
40
1
40
1
40
1
40
1
41
1
41
1
41
1
41
1
10
91.464967044401178
20
38.877295051193236
30
0
10
91.072689298915876
20
37.487979226660727
30
0
10
90.598687780857091
20
35.788109429216384
30
0
10
90.451583951044086
20
35.248727853918069
30
0
0
SPLINE
5
181
100
AcDbEntity
8
0
100
AcDbSpline
70
4
71
3
72
8
73
4
74
0
42
0.000000001
43
0.0000000001
44
0.0000000001
40
0
40
0
40
0
40
0
40
1
40
1
40
1
40
1
41
1
41
1
41
1
41
1
10
90.451583951044086
20
35.248727853918069
30
0
10
90.206410035371789
20
34.611276192760464
30
0
10
89.83047860317231
20
33.973825830578797
30
0
10
89.340130771827702
20
33.973825830578797
30
0
0
SPLINE
5
182
100
AcDbEntity
8
0
100
AcDbSpline
70
4
71
3
72
8
73
4
74
0
42
0.000000001
43
0.0000000001
44
0.0000000001
40
0
40
0
40
0
40
0
40
1
40
1
40
1
40
1
41
1
41
1
41
1
41
1
10
89.340130771827702
20
33.973825830578797
30
0
10
88.751715452575695
20
33.973825830578797
30
0
10
88.441161479663862
20
34.938175179982181
30
0
10
88.947853026342401
20
36.752458778619761
30
0
0
SPLINE
5
183
100
AcDbEntity
8
0
100
AcDbSpline
70
4
71
3
72
8
73
4
74
0
42
0.000000001
43
0.0000000001
44
0.0000000001
40
0
40
0
40
0
40
0
40
1
40
1
40
1
40
1
41
1
41
1
41
1
41
1
10
94.949498593044297
20
32.372024820017813
30
0
10
95.717707770729078
20
32.372024820017813
30
0
10
96.4041905778885
20
33.042166509795187
30
0
10
96.943572153186821
20
33.973825830578797
30
0
0
SPLINE
5
184
100
AcDbEntity
8
0
100
AcDbSpline
70
4
71
3
72
8
73
4
74
0
42
0.000000001
43
0.0000000001
44
0.0000000001
40
0
40
0
40
0
40
0
40
1
40
1
40
1
40
1
41
1
41
1
41
1
41
1
10
96.943572153186821
20
33.973825830578797
30
0
10
96.976264779758466
20
33.14023529667854
30
0
10
97.384886240577714
20
32.502784934496873
30
0
10
98.104061674308809
20
32.502784934496873
30
0
0
SPLINE
5
185
100
AcDbEntity
8
0
100
AcDbSpline
70
4
71
3
72
8
73
4
74
0
42
0.000000001
43
0.0000000001
44
0.0000000001
40
0
40
0
40
0
40
0
40
1
40
1
40
1
40
1
41
1
41
1
41
1
41
1
10
98.104061674308809
20
32.502784934496873
30
0
10
99.78758645744324
20
32.502784934496873
30
0
10
100.71924837617874
20
34.823760079812999
30
0
10
101.22593732490542
20
36.752458778619761
30
0
0
LINE
5
186
100
AcDbEntity
8
0
100
AcDbLine
10
101.22593732490543
20
36.752458778619761
30
0
11
100.68655574960709
21
36.752458778619761
31
0
0
SPLINE
5
187
100
AcDbEntity
8
0
100
AcDbSpline
70
4
71
3
72
8
73
4
74
0
42
0.000000001
43
0.0000000001
44
0.0000000001
40
0
40
0
40
0
40
0
40
1
40
1
40
1
40
1
41
1
41
1
41
1
41
1
10
100.68655574960709
20
36.752458778619761
30
0
10
99.885653945350654
20
34.31706853313446
30
0
10
99.264551195430769
20
33.663271857666963
30
0
10
98.888617165279413
20
33.663271857666963
30
0
0
SPLINE
5
188
100
AcDbEntity
8
0
100
AcDbSpline
70
4
71
3
72
8
73
4
74
0
42
0.000000001
43
0.0000000001
44
0.0000000001
40
0
40
0
40
0
40
0
40
1
40
1
40
1
40
1
41
1
41
1
41
1
41
1
10
98.888617165279413
20
33.663271857666963
30
0
10
98.496342017745988
20
33.663271857666963
30
0
10
98.496342017745988
20
33.990170844888681
30
0
10
98.659789562892939
20
34.562242448806757
30
0
0
SPLINE
5
189
100
AcDbEntity
8
0
100
AcDbSpline
70
4
71
3
72
8
73
4
74
0
42
0.000000001
43
0.0000000001
44
0.0000000001
40
0
40
0
40
0
40
0
40
1
40
1
40
1
40
1
41
1
41
1
41
1
41
1
10
98.659789562892939
20
34.562242448806757
30
0
10
98.757857050800339
20
34.905485151362413
30
0
10
100.01641405982973
20
39.7108855850935
30
0
10
100.29428060207368
20
40.805993749999999
30
0
0
LINE
5
190
100
AcDbEntity
8
0
100
AcDbLine
10
100.29428060207368
20
40.805993749999999
30
0
11
98.741515933418299
21
40.805993749999999
31
0
0
SPLINE
5
191
100
AcDbEntity
8
0
100
AcDbSpline
70
4
71
3
72
8
73
4
74
0
42
0.000000001
43
0.0000000001
44
0.0000000001
40
0
40
0
40
0
40
0
40
1
40
1
40
1
40
1
41
1
41
1
41
1
41
1
10
98.741515933418285
20
40.805993749999999
30
0
10
98.692476993560803
20
40.707924313628673
30
0
10
98.610755818939211
20
40.430061018824574
30
0
10
98.496342017745988
20
40.037783273339265
30
0
0
SPLINE
5
192
100
AcDbEntity
8
0
100
AcDbSpline
70
4
71
3
72
8
73
4
74
0
42
0.000000001
43
0.0000000001
44
0.0000000001
40
0
40
0
40
0
40
0
40
1
40
1
40
1
40
1
41
1
41
1
41
1
41
1
10
98.496342017745988
20
40.037783273339265
30
0
10
98.398269333934792
20
40.609854877257341
30
0
10
98.104061674308809
20
41.051167016184323
30
0
10
97.515646355056759
20
41.051167016184323
30
0
0
SPLINE
5
193
100
AcDbEntity
8
0
100
AcDbSpline
70
4
71
3
72
8
73
4
74
0
42
0.000000001
43
0.0000000001
44
0.0000000001
40
0
40
0
40
0
40
0
40
1
40
1
40
1
40
1
41
1
41
1
41
1
41
1
10
97.515646355056759
20
41.051167016184323
30
0
10
96.583984436321259
20
41.051167016184323
30
0
10
94.8514259092331
20
39.629161163032052
30
0
10
94.001490361022945
20
36.78514880723953
30
0
0
SPLINE
5
194
100
AcDbEntity
8
0
100
AcDbSpline
70
4
71
3
72
8
73
4
74
0
42
0.000000001
43
0.0000000001
44
0.0000000001
40
0
40
0
40
0
40
0
40
1
40
1
40
1
40
1
41
1
41
1
41
1
41
1
10
94.001490361022945
20
36.78514880723953
30
0
10
93.151557410764696
20
33.941135801959035
30
0
10
93.821696502590186
20
32.372024820017813
30
0
10
94.949498593044297
20
32.372024820017813
30
0
0
SPLINE
5
195
100
AcDbEntity
8
0
100
AcDbSpline
70
4
71
3
72
8
73
4
74
0
42
0.000000001
43
0.0000000001
44
0.0000000001
40
0
40
0
40
0
40
0
40
1
40
1
40
1
40
1
41
1
41
1
41
1
41
1
10
95.635981400203718
20
36.752458778619761
30
0
10
96.191709288787848
20
38.730191221380231
30
0
10
97.221438695430763
20
39.939713836967947
30
0
10
97.744473957443248
20
39.939713836967947
30
0
0
SPLINE
5
196
100
AcDbEntity
8
0
100
AcDbSpline
70
4
71
3
72
8
73
4
74
0
42
0.000000001
43
0.0000000001
44
0.0000000001
40
0
40
0
40
0
40
0
40
1
40
1
40
1
40
1
41
1
41
1
41
1
41
1
10
97.744473957443248
20
39.939713836967947
30
0
10
98.218475475502032
20
39.939713836967947
30
0
10
98.251168102073692
20
39.334952853918075
30
0
10
98.153095418262495
20
38.877295051193236
30
0
0
SPLINE
5
197
100
AcDbEntity
8
0
100
AcDbSpline
70
4
71
3
72
8
73
4
74
0
42
0.000000001
43
0.0000000001
44
0.0000000001
40
0
40
0
40
0
40
0
40
1
40
1
40
1
40
1
41
1
41
1
41
1
41
1
10
98.153095418262495
20
38.877295051193236
30
0
10
97.760820270729084
20
37.487979226660727
30
0
10
97.2868187526703
20
35.788109429216384
30
0
10
97.139712324905389
20
35.248727853918069
30
0
0
SPLINE
5
198
100
AcDbEntity
8
0
100
AcDbSpline
70
4
71
3
72
8
73
4
74
0
42
0.000000001
43
0.0000000001
44
0.0000000001
40
0
40
0
40
0
40
0
40
1
40
1
40
1
40
1
41
1
41
1
41
1
41
1
10
97.139712324905389
20
35.248727853918069
30
0
10
96.894538409233093
20
34.611276192760464
30
0
10
96.518604379081722
20
33.973825830578797
30
0
10
96.028261743640911
20
33.973825830578797
30
0
0
SPLINE
5
199
100
AcDbEntity
8
0
100
AcDbSpline
70
4
71
3
72
8
73
4
74
0
42
0.000000001
43
0.0000000001
44
0.0000000001
40
0
40
0
40
0
40
0
40
1
40
1
40
1
40
1
41
1
41
1
41
1
41
1
10
96.028261743640911
20
33.973825830578797
30
0
10
95.439841228485122
20
33.973825830578797
30
0
10
95.129292451477056
20
34.938175179982181
30
0
10
95.635981400203718
20
36.752458778619761
30
0
0
LINE
5
200
100
AcDbEntity
8
0
100
AcDbLine
10
99.169206361103065
20
32.633543749999994
30
0
11
100.6402446592331
21
32.633543749999994
31
0
0
SPLINE
5
201
100
AcDbEntity
8
0
100
AcDbSpline
70
4
71
3
72
8
73
4
74
0
42
0.000000001
43
0.0000000001
44
0.0000000001
40
0
40
0
40
0
40
0
40
1
40
1
40
1
40
1
41
1
41
1
41
1
41
1
10
100.6402446592331
20
32.633543749999994
30
0
10
101.16328511714937
20
32.633543749999994
30
0
10
101.42480015020371
20
33.025821495485303
30
0
10
101.53921395139696
20
33.532513042163849
30
0
0
SPLINE
5
202
100
AcDbEntity
8
0
100
AcDbSpline
70
4
71
3
72
8
73
4
74
0
42
0.000000001
43
0.0000000001
44
0.0000000001
40
0
40
0
40
0
40
0
40
1
40
1
40
1
40
1
41
1
41
1
41
1
41
1
10
101.53921395139696
20
33.532513042163849
30
0
10
101.62094032192232
20
33.875755744719498
30
0
10
102.0949418399811
20
35.461211740970604
30
0
10
102.51990961408616
20
36.997632694292065
30
0
0
SPLINE
5
203
100
AcDbEntity
8
0
100
AcDbSpline
70
4
71
3
72
8
73
4
74
0
42
0.000000001
43
0.0000000001
44
0.0000000001
40
0
40
0
40
0
40
0
40
1
40
1
40
1
40
1
41
1
41
1
41
1
41
1
10
102.51990961408616
20
36.997632694292065
30
0
10
103.12467124662402
20
38.844606321549414
30
0
10
103.43522521953585
20
39.302262825298307
30
0
10
103.82750036706926
20
39.694540570783616
30
0
0
SPLINE
5
204
100
AcDbEntity
8
0
100
AcDbSpline
70
4
71
3
72
8
73
4
74
0
42
0.000000001
43
0.0000000001
44
0.0000000001
40
0
40
0
40
0
40
0
40
1
40
1
40
1
40
1
41
1
41
1
41
1
41
1
10
103.82750036706926
20
39.694540570783616
30
0
10
104.08902059602738
20
39.956058851277824
30
0
10
104.23612182788851
20
39.874334429216383
30
0
10
104.25246814117432
20
39.645505527853963
30
0
0
SPLINE
5
205
100
AcDbEntity
8
0
100
AcDbSpline
70
4
71
3
72
8
73
4
74
0
42
0.000000001
43
0.0000000001
44
0.0000000001
40
0
40
0
40
0
40
0
40
1
40
1
40
1
40
1
41
1
41
1
41
1
41
1
10
104.25246814117432
20
39.645505527853963
30
0
10
104.30150188512805
20
38.959020122742643
30
0
10
105.31488497848513
20
38.811916292929645
30
0
10
105.67447269535066
20
39.54743674097061
30
0
0
SPLINE
5
206
100
AcDbEntity
8
0
100
AcDbSpline
70
4
71
3
72
8
73
4
74
0
42
0.000000001
43
0.0000000001
44
0.0000000001
40
0
40
0
40
0
40
0
40
1
40
1
40
1
40
1
41
1
41
1
41
1
41
1
10
105.67447269535066
20
39.54743674097061
30
0
10
106.05040672550203
20
40.315646568143364
30
0
10
105.56005889415744
20
41.11654707342386
30
0
10
104.79184971647264
20
41.083857044804091
30
0
0
SPLINE
5
207
100
AcDbEntity
8
0
100
AcDbSpline
70
4
71
3
72
8
73
4
74
0
42
0.000000001
43
0.0000000001
44
0.0000000001
40
0
40
0
40
0
40
0
40
1
40
1
40
1
40
1
41
1
41
1
41
1
41
1
10
104.79184971647264
20
41.083857044804091
30
0
10
104.1380543399811
20
41.051167016184323
30
0
10
103.58232645139695
20
40.544475469505784
30
0
10
102.99391113214494
20
39.465711669421196
30
0
0
SPLINE
5
208
100
AcDbEntity
8
0
100
AcDbSpline
70
4
71
3
72
8
73
4
74
0
42
0.000000001
43
0.0000000001
44
0.0000000001
40
0
40
0
40
0
40
0
40
1
40
1
40
1
40
1
41
1
41
1
41
1
41
1
10
102.99391113214494
20
39.465711669421196
30
0
10
103.04294487609866
20
40.29930155383348
30
0
10
102.50356330080035
20
40.805993749999999
30
0
10
101.8170804936409
20
40.805993749999999
30
0
0
LINE
5
209
100
AcDbEntity
8
0
100
AcDbLine
10
101.8170804936409
20
40.805993749999992
30
0
11
101.44114646348953
21
40.805993749999999
31
0
0
SPLINE
5
210
100
AcDbEntity
8
0
100
AcDbSpline
70
4
71
3
72
8
73
4
74
0
42
0.000000001
43
0.0000000001
44
0.0000000001
40
0
40
0
40
0
40
0
40
1
40
1
40
1
40
1
41
1
41
1
41
1
41
1
10
101.44114646348955
20
40.805993749999999
30
0
10
101.73535412311554
20
40.479096061754227
30
0
10
101.669974065876
20
40.037783273339265
30
0
10
101.44114646348955
20
39.253228431856627
30
0
0
SPLINE
5
211
100
AcDbEntity
8
0
100
AcDbSpline
70
4
71
3
72
8
73
4
74
0
42
0.000000001
43
0.0000000001
44
0.0000000001
40
0
40
0
40
0
40
0
40
1
40
1
40
1
40
1
41
1
41
1
41
1
41
1
10
101.44114646348955
20
39.253228431856627
30
0
10
101.21231886110307
20
38.468673590373989
30
0
10
99.937415538787846
20
34.31706853313446
30
0
10
99.741275367069278
20
33.663271857666963
30
0
0
SPLINE
5
212
100
AcDbEntity
8
0
100
AcDbSpline
70
4
71
3
72
8
73
4
74
0
42
0.000000001
43
0.0000000001
44
0.0000000001
40
0
40
0
40
0
40
0
40
1
40
1
40
1
40
1
41
1
41
1
41
1
41
1
10
99.741275367069278
20
33.663271857666963
30
0
10
99.561481508636476
20
33.042166509795187
30
0
10
99.430721394157416
20
32.764302565503115
30
0
10
99.169206361103065
20
32.633543749999994
30
0
0
SPLINE
5
213
100
AcDbEntity
8
0
100
AcDbSpline
70
4
71
3
72
8
73
4
74
0
42
0.000000001
43
0.0000000001
44
0.0000000001
40
0
40
0
40
0
40
0
40
1
40
1
40
1
40
1
41
1
41
1
41
1
41
1
10
110.83197354860306
20
24.902405239439002
30
0
10
117.86028034076693
20
24.101506033134452
30
0
10
124.0223052714348
20
35.036243966865534
30
0
10
124.87224081964496
20
42.391449096763132
30
0
0
SPLINE
5
214
100
AcDbEntity
8
0
100
AcDbSpline
70
4
71
3
72
8
73
4
74
0
42
0.000000001
43
0.0000000001
44
0.0000000001
40
0
40
0
40
0
40
0
40
1
40
1
40
1
40
1
41
1
41
1
41
1
41
1
10
124.87224081964496
20
42.391449096763132
30
0
10
125.46065613889695
20
39.808955021464818
30
0
10
126.09811039800647
20
37.259150325298307
30
0
10
126.31059168710709
20
34.676656249999994
30
0
0
SPLINE
5
215
100
AcDbEntity
8
0
100
AcDbSpline
70
4
71
3
72
8
73
4
74
0
42
0.000000001
43
0.0000000001
44
0.0000000001
40
0
40
0
40
0
40
0
40
1
40
1
40
1
40
1
41
1
41
1
41
1
41
1
10
126.31059168710709
20
34.676656249999994
30
0
10
125.60776256666186
20
33.320029155111314
30
0
10
125.10106842203143
20
31.930713330578797
30
0
10
124.97030830755236
20
30.688500036883347
30
0
0
SPLINE
5
216
100
AcDbEntity
8
0
100
AcDbSpline
70
4
71
3
72
8
73
4
74
0
42
0.000000001
43
0.0000000001
44
0.0000000001
40
0
40
0
40
0
40
0
40
1
40
1
40
1
40
1
41
1
41
1
41
1
41
1
10
124.97030830755236
20
30.688500036883347
30
0
10
124.65975953054431
20
27.795453287649149
30
0
10
126.55576560277942
20
27.828143316268914
30
0
10
127.25859472322466
20
29.952979588842386
30
0
0
SPLINE
5
217
100
AcDbEntity
8
0
100
AcDbSpline
70
4
71
3
72
8
73
4
74
0
42
0.000000001
43
0.0000000001
44
0.0000000001
40
0
40
0
40
0
40
0
40
1
40
1
40
1
40
1
41
1
41
1
41
1
41
1
10
127.25859472322466
20
29.952979588842386
30
0
10
127.79797629852297
20
31.603815642333029
30
0
10
127.99411647024158
20
34.055549603152272
30
0
10
127.99411647024158
20
36.213077203321454
30
0
0
SPLINE
5
218
100
AcDbEntity
8
0
100
AcDbSpline
70
4
71
3
72
8
73
4
74
0
42
0.000000001
43
0.0000000001
44
0.0000000001
40
0
40
0
40
0
40
0
40
1
40
1
40
1
40
1
41
1
41
1
41
1
41
1
10
127.99411647024158
20
36.213077203321454
30
0
10
129.59591488285068
20
38.59943240587711
30
0
10
131.9986150997162
20
41.247305888926974
30
0
10
134.48304168710712
20
43.421177853918074
30
0
0
SPLINE
5
219
100
AcDbEntity
8
0
100
AcDbSpline
70
4
71
3
72
8
73
4
74
0
42
0.000000001
43
0.0000000001
44
0.0000000001
40
0
40
0
40
0
40
0
40
1
40
1
40
1
40
1
41
1
41
1
41
1
41
1
10
134.48304168710712
20
43.421177853918074
30
0
10
133.97635273838046
20
42.620277348637579
30
0
10
133.06103713293078
20
41.574204226660726
30
0
10
132.01496141300203
20
39.285917810988423
30
0
0
SPLINE
5
220
100
AcDbEntity
8
0
100
AcDbSpline
70
4
71
3
72
8
73
4
74
0
42
0.000000001
43
0.0000000001
44
0.0000000001
40
0
40
0
40
0
40
0
40
1
40
1
40
1
40
1
41
1
41
1
41
1
41
1
10
132.01496141300203
20
39.285917810988423
30
0
10
131.19771849136353
20
37.487979226660727
30
0
10
131.00157831964495
20
35.722729371976847
30
0
10
131.21406480464938
20
33.712306900596616
30
0
0
SPLINE
5
221
100
AcDbEntity
8
0
100
AcDbSpline
70
4
71
3
72
8
73
4
74
0
42
0.000000001
43
0.0000000001
44
0.0000000001
40
0
40
0
40
0
40
0
40
1
40
1
40
1
40
1
41
1
41
1
41
1
41
1
10
131.21406480464938
20
33.712306900596616
30
0
10
131.58999363889697
20
30.05104967470168
30
0
10
134.84262940397264
20
27.517589343357081
30
0
10
137.22898850345612
20
29.446288042163843
30
0
0
SPLINE
5
222
100
AcDbEntity
8
0
100
AcDbSpline
70
4
71
3
72
8
73
4
74
0
42
0.000000001
43
0.0000000001
44
0.0000000001
40
0
40
0
40
0
40
0
40
1
40
1
40
1
40
1
41
1
41
1
41
1
41
1
10
137.22898850345612
20
29.446288042163843
30
0
10
138.22602008762362
20
30.263533561754219
30
0
10
136.88574190397264
20
31.554780599403376
30
0
10
136.26463395814898
20
30.606776264309879
30
0
0
SPLINE
5
223
100
AcDbEntity
8
0
100
AcDbSpline
70
4
71
3
72
8
73
4
74
0
42
0.000000001
43
0.0000000001
44
0.0000000001
40
0
40
0
40
0
40
0
40
1
40
1
40
1
40
1
41
1
41
1
41
1
41
1
10
136.26463395814898
20
30.606776264309879
30
0
10
135.83967137994767
20
29.96932460315227
30
0
10
135.2512508647919
20
29.577046857666964
30
0
10
134.64648923225405
20
29.724151986455915
30
0
0
SPLINE
5
224
100
AcDbEntity
8
0
100
AcDbSpline
70
4
71
3
72
8
73
4
74
0
42
0.000000001
43
0.0000000001
44
0.0000000001
40
0
40
0
40
0
40
0
40
1
40
1
40
1
40
1
41
1
41
1
41
1
41
1
10
134.64648923225405
20
29.724151986455915
30
0
10
133.40427853651047
20
30.034704660391803
30
0
10
132.81586321725848
20
31.620159357666964
30
0
10
133.06103713293078
20
34.627621207070348
30
0
0
SPLINE
5
225
100
AcDbEntity
8
0
100
AcDbSpline
70
4
71
3
72
8
73
4
74
0
42
0.000000001
43
0.0000000001
44
0.0000000001
40
0
40
0
40
0
40
0
40
1
40
1
40
1
40
1
41
1
41
1
41
1
41
1
10
133.06103713293078
20
34.627621207070348
30
0
10
133.46965859375001
20
39.629161163032052
30
0
10
136.13387903957369
20
45.823878070783614
30
0
10
140.9883080213547
20
47.80161100066006
30
0
0
SPLINE
5
226
100
AcDbEntity
8
0
100
AcDbSpline
70
4
71
3
72
8
73
4
74
0
42
0.000000001
43
0.0000000001
44
0.0000000001
40
0
40
0
40
0
40
0
40
1
40
1
40
1
40
1
41
1
41
1
41
1
41
1
10
140.9883080213547
20
47.80161100066006
30
0
10
143.66887478046419
20
48.896719246752561
30
0
10
146.07157499732975
20
47.621816979855296
30
0
10
145.18894682254793
20
45.970982225340606
30
0
0
SPLINE
5
227
100
AcDbEntity
8
0
100
AcDbSpline
70
4
71
3
72
8
73
4
74
0
42
0.000000001
43
0.0000000001
44
0.0000000001
40
0
40
0
40
0
40
0
40
1
40
1
40
1
40
1
41
1
41
1
41
1
41
1
10
145.18894682254793
20
45.970982225340606
30
0
10
144.9928118467331
20
45.611394508475065
30
0
10
144.09384775047306
20
46.118086379897598
30
0
10
143.21121957569125
20
45.464290353918074
30
0
0
SPLINE
5
228
100
AcDbEntity
8
0
100
AcDbSpline
70
4
71
3
72
8
73
4
74
0
42
0.000000001
43
0.0000000001
44
0.0000000001
40
0
40
0
40
0
40
0
40
1
40
1
40
1
40
1
41
1
41
1
41
1
41
1
10
143.21121957569125
20
45.464290353918074
30
0
10
142.13245642509463
20
44.663390173381565
30
0
10
143.24391220226292
20
42.832761235690114
30
0
10
145.41778481674197
20
44.205732695400712
30
0
0
SPLINE
5
229
100
AcDbEntity
8
0
100
AcDbSpline
70
4
71
3
72
8
73
4
74
0
42
0.000000001
43
0.0000000001
44
0.0000000001
40
0
40
0
40
0
40
0
40
1
40
1
40
1
40
1
41
1
41
1
41
1
41
1
10
145.41778481674197
20
44.205732695400712
30
0
10
146.61096176853184
20
44.957598482495548
30
0
10
147.11764552135469
20
47.115125108432771
30
0
10
145.87544002151492
20
48.144853865587713
30
0
0
SPLINE
5
230
100
AcDbEntity
8
0
100
AcDbSpline
70
4
71
3
72
8
73
4
74
0
42
0.000000001
43
0.0000000001
44
0.0000000001
40
0
40
0
40
0
40
0
40
1
40
1
40
1
40
1
41
1
41
1
41
1
41
1
10
145.87544002151492
20
48.144853865587713
30
0
10
144.60019896545413
20
49.174582541556653
30
0
10
142.83528554553988
20
49.06016825324744
30
0
10
141.38058836479189
20
48.569821314948797
30
0
0
SPLINE
5
231
100
AcDbEntity
8
0
100
AcDbSpline
70
4
71
3
72
8
73
4
74
0
42
0.000000001
43
0.0000000001
44
0.0000000001
40
0
40
0
40
0
40
0
40
1
40
1
40
1
40
1
41
1
41
1
41
1
41
1
10
141.38058836479189
20
48.569821314948797
30
0
10
136.33001401538851
20
47.262229262989763
30
0
10
130.62564428949358
20
41.149236452555655
30
0
10
127.97777015695573
20
37.42259916942119
30
0
0
LINE
5
232
100
AcDbEntity
8
0
100
AcDbLine
10
127.97777015695574
20
37.42259916942119
30
0
11
127.97777015695573
21
37.471634212350843
31
0
0
SPLINE
5
233
100
AcDbEntity
8
0
100
AcDbSpline
70
4
71
3
72
8
73
4
74
0
42
0.000000001
43
0.0000000001
44
0.0000000001
40
0
40
0
40
0
40
0
40
1
40
1
40
1
40
1
41
1
41
1
41
1
41
1
10
127.97777015695573
20
37.471634212350843
30
0
10
127.91239009971621
20
39.433022290289401
30
0
10
127.47108120822908
20
41.459789775979516
30
0
10
126.66984167022707
20
43.208693966865539
30
0
0
SPLINE
5
234
100
AcDbEntity
8
0
100
AcDbSpline
70
4
71
3
72
8
73
4
74
0
42
0.000000001
43
0.0000000001
44
0.0000000001
40
0
40
0
40
0
40
0
40
1
40
1
40
1
40
1
41
1
41
1
41
1
41
1
10
126.66984167022707
20
43.208693966865539
30
0
10
123.64637124128343
20
49.828379237320647
30
0
10
116.94496473531726
20
49.28899682986588
30
0
10
114.5422645184517
20
47.098780094122887
30
0
0
SPLINE
5
235
100
AcDbEntity
8
0
100
AcDbSpline
70
4
71
3
72
8
73
4
74
0
42
0.000000001
43
0.0000000001
44
0.0000000001
40
0
40
0
40
0
40
0
40
1
40
1
40
1
40
1
41
1
41
1
41
1
41
1
10
114.5422645184517
20
47.098780094122887
30
0
10
111.19156126546862
20
44.058628865587714
30
0
10
113.33274125337603
20
37.831221929216383
30
0
10
118.579455774498
20
39.351297868227959
30
0
0
SPLINE
5
236
100
AcDbEntity
8
0
100
AcDbSpline
70
4
71
3
72
8
73
4
74
0
42
0.000000001
43
0.0000000001
44
0.0000000001
40
0
40
0
40
0
40
0
40
1
40
1
40
1
40
1
41
1
41
1
41
1
41
1
10
118.579455774498
20
39.351297868227959
30
0
10
121.40712376546861
20
40.168542738330366
30
0
10
119.34766495218278
20
43.241383995485307
30
0
10
117.77855397024156
20
41.345375325298306
30
0
0
SPLINE
5
237
100
AcDbEntity
8
0
100
AcDbSpline
70
4
71
3
72
8
73
4
74
0
42
0.000000001
43
0.0000000001
44
0.0000000001
40
0
40
0
40
0
40
0
40
1
40
1
40
1
40
1
41
1
41
1
41
1
41
1
10
117.77855397024156
20
41.345375325298306
30
0
10
117.28820613889695
20
40.740614342248442
30
0
10
116.78151719017031
20
40.544475469505784
30
0
10
116.16040924434664
20
40.609854877257341
30
0
0
SPLINE
5
238
100
AcDbEntity
8
0
100
AcDbSpline
70
4
71
3
72
8
73
4
74
0
42
0.000000001
43
0.0000000001
44
0.0000000001
40
0
40
0
40
0
40
0
40
1
40
1
40
1
40
1
41
1
41
1
41
1
41
1
10
116.16040924434664
20
40.609854877257341
30
0
10
113.33274125337603
20
40.88771817206144
30
0
10
113.03853359375
20
45.039322904556983
30
0
10
115.16337246427538
20
46.624778251320123
30
0
0
SPLINE
5
239
100
AcDbEntity
8
0
100
AcDbSpline
70
4
71
3
72
8
73
4
74
0
42
0.000000001
43
0.0000000001
44
0.0000000001
40
0
40
0
40
0
40
0
40
1
40
1
40
1
40
1
41
1
41
1
41
1
41
1
10
115.16337246427538
20
46.624778251320123
30
0
10
118.35062817211153
20
49.011133535061774
30
0
10
122.79644088897709
20
47.458367973360424
30
0
10
124.43092673225405
20
43.731730527853962
30
0
0
SPLINE
5
240
100
AcDbEntity
8
0
100
AcDbSpline
70
4
71
3
72
8
73
4
74
0
42
0.000000001
43
0.0000000001
44
0.0000000001
40
0
40
0
40
0
40
0
40
1
40
1
40
1
40
1
41
1
41
1
41
1
41
1
10
124.43092673225405
20
43.731730527853962
30
0
10
124.44727304553987
20
43.225038981175423
30
0
10
124.39823930158617
20
42.702002420186993
30
0
10
124.31651293106083
20
42.211655238330366
30
0
0
SPLINE
5
241
100
AcDbEntity
8
0
100
AcDbSpline
70
4
71
3
72
8
73
4
74
0
42
0.000000001
43
0.0000000001
44
0.0000000001
40
0
40
0
40
0
40
0
40
1
40
1
40
1
40
1
41
1
41
1
41
1
41
1
10
124.31651293106083
20
42.211655238330366
30
0
10
123.38485620822908
20
36.327491004514691
30
0
10
118.2362143709183
20
25.37640935544967
30
0
10
110.99542109375001
20
26.847450251531594
30
0
0
SPLINE
5
242
100
AcDbEntity
8
0
100
AcDbSpline
70
4
71
3
72
8
73
4
74
0
42
0.000000001
43
0.0000000001
44
0.0000000001
40
0
40
0
40
0
40
0
40
1
40
1
40
1
40
1
41
1
41
1
41
1
41
1
10
110.99542109375001
20
26.847450251531594
30
0
10
109.72018003768923
20
27.108967882537836
30
0
10
109.55672729663848
20
25.049509069252007
30
0
10
110.83197354860306
20
24.902405239439002
30
0
0
SPLINE
5
243
100
AcDbEntity
8
0
100
AcDbSpline
70
4
71
3
72
8
73
4
74
0
42
0.000000001
43
0.0000000001
44
0.0000000001
40
0
40
0
40
0
40
0
40
1
40
1
40
1
40
1
41
1
41
1
41
1
41
1
10
125.70583005456926
20
29.282839198040953
30
0
10
125.42796870822909
20
30.394292377257344
30
0
10
125.70583005456926
20
31.79995321609973
30
0
10
126.37563401060106
20
33.336374169421191
30
0
0
LINE
5
244
100
AcDbEntity
8
0
100
AcDbLine
10
126.37563401060106
20
33.336374169421191
30
0
11
126.37563401060106
21
33.189270339608193
31
0
0
SPLINE
5
245
100
AcDbEntity
8
0
100
AcDbSpline
70
4
71
3
72
8
73
4
74
0
42
0.000000001
43
0.0000000001
44
0.0000000001
40
0
40
0
40
0
40
0
40
1
40
1
40
1
40
1
41
1
41
1
41
1
41
1
10
126.37563401060106
20
33.189270339608186
30
0
10
126.39231805763247
20
31.930713330578797
30
0
10
126.34328431367877
20
30.345257334327691
30
0
10
125.70583005456926
20
29.282839198040953
30
0
0
SPLINE
5
246
100
AcDbEntity
8
0
100
AcDbSpline
70
4
71
3
72
8
73
4
74
0
42
0.000000001
43
0.0000000001
44
0.0000000001
40
0
40
0
40
0
40
0
40
1
40
1
40
1
40
1
41
1
41
1
41
1
41
1
10
136.91298402748112
20
32.372024820017813
30
0
10
137.68119840106965
20
32.372024820017813
30
0
10
138.36768120822907
20
33.042166509795187
30
0
10
138.90705758762363
20
33.973825830578797
30
0
0
SPLINE
5
247
100
AcDbEntity
8
0
100
AcDbSpline
70
4
71
3
72
8
73
4
74
0
42
0.000000001
43
0.0000000001
44
0.0000000001
40
0
40
0
40
0
40
0
40
1
40
1
40
1
40
1
41
1
41
1
41
1
41
1
10
138.90705758762363
20
33.973825830578797
30
0
10
138.93975021419527
20
33.14023529667854
30
0
10
139.34837687091832
20
32.502784934496873
30
0
10
140.06755230464938
20
32.502784934496873
30
0
0
SPLINE
5
248
100
AcDbEntity
8
0
100
AcDbSpline
70
4
71
3
72
8
73
4
74
0
42
0.000000001
43
0.0000000001
44
0.0000000001
40
0
40
0
40
0
40
0
40
1
40
1
40
1
40
1
41
1
41
1
41
1
41
1
10
140.06755230464938
20
32.502784934496873
30
0
10
141.75107708778384
20
32.502784934496873
30
0
10
142.68273381061556
20
34.823760079812999
30
0
10
143.189427955246
20
36.752458778619761
30
0
0
LINE
5
249
100
AcDbEntity
8
0
100
AcDbLine
10
143.189427955246
20
36.752458778619761
30
0
11
142.65004118404389
21
36.752458778619761
31
0
0
SPLINE
5
250
100
AcDbEntity
8
0
100
AcDbSpline
70
4
71
3
72
8
73
4
74
0
42
0.000000001
43
0.0000000001
44
0.0000000001
40
0
40
0
40
0
40
0
40
1
40
1
40
1
40
1
41
1
41
1
41
1
41
1
10
142.65004118404391
20
36.752458778619761
30
0
10
141.84914457569124
20
34.31706853313446
30
0
10
141.22803662986757
20
33.663271857666963
30
0
10
140.8521025997162
20
33.663271857666963
30
0
0
SPLINE
5
251
100
AcDbEntity
8
0
100
AcDbSpline
70
4
71
3
72
8
73
4
74
0
42
0.000000001
43
0.0000000001
44
0.0000000001
40
0
40
0
40
0
40
0
40
1
40
1
40
1
40
1
41
1
41
1
41
1
41
1
10
140.8521025997162
20
33.663271857666963
30
0
10
140.45983264808658
20
33.663271857666963
30
0
10
140.45983264808658
20
33.990170844888681
30
0
10
140.62327499732973
20
34.562242448806757
30
0
0
SPLINE
5
252
100
AcDbEntity
8
0
100
AcDbSpline
70
4
71
3
72
8
73
4
74
0
42
0.000000001
43
0.0000000001
44
0.0000000001
40
0
40
0
40
0
40
0
40
1
40
1
40
1
40
1
41
1
41
1
41
1
41
1
10
140.62327499732973
20
34.562242448806757
30
0
10
140.72134248523713
20
34.905485151362413
30
0
10
141.97990469017032
20
39.7108855850935
30
0
10
142.25777123241426
20
40.805993749999999
30
0
0
LINE
5
253
100
AcDbEntity
8
0
100
AcDbLine
10
142.25777123241426
20
40.805993749999999
30
0
11
140.70499617195134
21
40.805993749999999
31
0
0
SPLINE
5
254
100
AcDbEntity
8
0
100
AcDbSpline
70
4
71
3
72
8
73
4
74
0
42
0.000000001
43
0.0000000001
44
0.0000000001
40
0
40
0
40
0
40
0
40
1
40
1
40
1
40
1
41
1
41
1
41
1
41
1
10
140.70499617195134
20
40.805993749999999
30
0
10
140.6559676239014
20
40.707924313628673
30
0
10
140.5742464492798
20
40.430061018824574
30
0
10
140.45983264808658
20
40.037783273339265
30
0
0
SPLINE
5
255
100
AcDbEntity
8
0
100
AcDbSpline
70
4
71
3
72
8
73
4
74
0
42
0.000000001
43
0.0000000001
44
0.0000000001
40
0
40
0
40
0
40
0
40
1
40
1
40
1
40
1
41
1
41
1
41
1
41
1
10
140.45983264808658
20
40.037783273339265
30
0
10
140.36175476837161
20
40.609854877257341
30
0
10
140.06755230464938
20
41.051167016184323
30
0
10
139.47913698539736
20
41.051167016184323
30
0
0
SPLINE
5
256
100
AcDbEntity
8
0
100
AcDbSpline
70
4
71
3
72
8
73
4
74
0
42
0.000000001
43
0.0000000001
44
0.0000000001
40
0
40
0
40
0
40
0
40
1
40
1
40
1
40
1
41
1
41
1
41
1
41
1
10
139.47913698539736
20
41.051167016184323
30
0
10
138.54746987075808
20
41.051167016184323
30
0
10
136.81491653957369
20
39.629161163032052
30
0
10
135.96498099136355
20
36.78514880723953
30
0
0
SPLINE
5
257
100
AcDbEntity
8
0
100
AcDbSpline
70
4
71
3
72
8
73
4
74
0
42
0.000000001
43
0.0000000001
44
0.0000000001
40
0
40
0
40
0
40
0
40
1
40
1
40
1
40
1
41
1
41
1
41
1
41
1
10
135.96498099136355
20
36.78514880723953
30
0
10
135.11504544315341
20
33.941135801959035
30
0
10
135.78518713293079
20
32.372024820017813
30
0
10
136.91298402748112
20
32.372024820017813
30
0
0
SPLINE
5
258
100
AcDbEntity
8
0
100
AcDbSpline
70
4
71
3
72
8
73
4
74
0
42
0.000000001
43
0.0000000001
44
0.0000000001
40
0
40
0
40
0
40
0
40
1
40
1
40
1
40
1
41
1
41
1
41
1
41
1
10
137.59946683464054
20
36.752458778619761
30
0
10
138.15519991912845
20
38.730191221380231
30
0
10
139.18492412986757
20
39.939713836967947
30
0
10
139.70796458778383
20
39.939713836967947
30
0
0
SPLINE
5
259
100
AcDbEntity
8
0
100
AcDbSpline
70
4
71
3
72
8
73
4
74
0
42
0.000000001
43
0.0000000001
44
0.0000000001
40
0
40
0
40
0
40
0
40
1
40
1
40
1
40
1
41
1
41
1
41
1
41
1
10
139.70796458778383
20
39.939713836967947
30
0
10
140.1819661058426
20
39.939713836967947
30
0
10
140.21465873241428
20
39.334952853918075
30
0
10
140.11658085269931
20
38.877295051193236
30
0
0
SPLINE
5
260
100
AcDbEntity
8
0
100
AcDbSpline
70
4
71
3
72
8
73
4
74
0
42
0.000000001
43
0.0000000001
44
0.0000000001
40
0
40
0
40
0
40
0
40
1
40
1
40
1
40
1
41
1
41
1
41
1
41
1
10
140.11658085269931
20
38.877295051193236
30
0
10
139.72431090106966
20
37.487979226660727
30
0
10
139.25030938301089
20
35.788109429216384
30
0
10
139.10320295524599
20
35.248727853918069
30
0
0
SPLINE
5
261
100
AcDbEntity
8
0
100
AcDbSpline
70
4
71
3
72
8
73
4
74
0
42
0.000000001
43
0.0000000001
44
0.0000000001
40
0
40
0
40
0
40
0
40
1
40
1
40
1
40
1
41
1
41
1
41
1
41
1
10
139.10320295524599
20
35.248727853918069
30
0
10
138.85802903957369
20
34.611276192760464
30
0
10
138.48209500942232
20
33.973825830578797
30
0
10
137.9917471780777
20
33.973825830578797
30
0
0
SPLINE
5
262
100
AcDbEntity
8
0
100
AcDbSpline
70
4
71
3
72
8
73
4
74
0
42
0.000000001
43
0.0000000001
44
0.0000000001
40
0
40
0
40
0
40
0
40
1
40
1
40
1
40
1
41
1
41
1
41
1
41
1
10
137.9917471780777
20
33.973825830578797
30
0
10
137.40333185882571
20
33.973825830578797
30
0
10
137.09277788591388
20
34.938175179982181
30
0
10
137.59946683464054
20
36.752458778619761
30
0
0
SPLINE
5
263
100
AcDbEntity
8
0
100
AcDbSpline
70
4
71
3
72
8
73
4
74
0
42
0.000000001
43
0.0000000001
44
0.0000000001
40
0
40
0
40
0
40
0
40
1
40
1
40
1
40
1
41
1
41
1
41
1
41
1
10
137.87733337688448
20
43.126969544804091
30
0
10
137.87733337688448
20
42.522208561754226
30
0
10
138.38402752151492
20
41.982826336967946
30
0
10
138.98878915405274
20
41.982826336967946
30
0
0
SPLINE
5
264
100
AcDbEntity
8
0
100
AcDbSpline
70
4
71
3
72
8
73
4
74
0
42
0.000000001
43
0.0000000001
44
0.0000000001
40
0
40
0
40
0
40
0
40
1
40
1
40
1
40
1
41
1
41
1
41
1
41
1
10
138.98878915405274
20
41.982826336967946
30
0
10
139.59355078659061
20
41.982826336967946
30
0
10
140.16561979255678
20
42.538552926576131
30
0
10
140.16561979255678
20
43.176003938245771
30
0
0
SPLINE
5
265
100
AcDbEntity
8
0
100
AcDbSpline
70
4
71
3
72
8
73
4
74
0
42
0.000000001
43
0.0000000001
44
0.0000000001
40
0
40
0
40
0
40
0
40
1
40
1
40
1
40
1
41
1
41
1
41
1
41
1
10
140.16561979255678
20
43.176003938245771
30
0
10
140.16561979255678
20
43.813455599403383
30
0
10
139.59355078659061
20
44.254767738330365
30
0
10
138.98878915405274
20
44.254767738330365
30
0
0
SPLINE
5
266
100
AcDbEntity
8
0
100
AcDbSpline
70
4
71
3
72
8
73
4
74
0
42
0.000000001
43
0.0000000001
44
0.0000000001
40
0
40
0
40
0
40
0
40
1
40
1
40
1
40
1
41
1
41
1
41
1
41
1
10
138.98878915405274
20
44.254767738330365
30
0
10
138.38402752151492
20
44.254767738330365
30
0
10
137.87733337688448
20
43.748075542163846
30
0
10
137.87733337688448
20
43.126969544804091
30
0
0
SPLINE
5
267
100
AcDbEntity
8
0
100
AcDbSpline
70
4
71
3
72
8
73
4
74
0
42
0.000000001
43
0.0000000001
44
0.0000000001
40
0
40
0
40
0
40
0
40
1
40
1
40
1
40
1
41
1
41
1
41
1
41
1
10
140.7540351118088
20
43.126969544804091
30
0
10
140.7540351118088
20
42.522208561754226
30
0
10
141.26072925643922
20
41.99917135127783
30
0
10
141.86549088897709
20
41.99917135127783
30
0
0
SPLINE
5
268
100
AcDbEntity
8
0
100
AcDbSpline
70
4
71
3
72
8
73
4
74
0
42
0.000000001
43
0.0000000001
44
0.0000000001
40
0
40
0
40
0
40
0
40
1
40
1
40
1
40
1
41
1
41
1
41
1
41
1
10
141.86549088897709
20
41.99917135127783
30
0
10
142.53562738285066
20
41.99917135127783
30
0
10
142.99328258762361
20
42.554897940886022
30
0
10
142.99328258762361
20
43.143314559113975
30
0
0
SPLINE
5
269
100
AcDbEntity
8
0
100
AcDbSpline
70
4
71
3
72
8
73
4
74
0
42
0.000000001
43
0.0000000001
44
0.0000000001
40
0
40
0
40
0
40
0
40
1
40
1
40
1
40
1
41
1
41
1
41
1
41
1
10
142.99328258762361
20
43.143314559113975
30
0
10
142.99328258762361
20
43.813455599403383
30
0
10
142.45390620822909
20
44.254767738330365
30
0
10
141.86549088897709
20
44.254767738330365
30
0
0
SPLINE
5
270
100
AcDbEntity
8
0
100
AcDbSpline
70
4
71
3
72
8
73
4
74
0
42
0.000000001
43
0.0000000001
44
0.0000000001
40
0
40
0
40
0
40
0
40
1
40
1
40
1
40
1
41
1
41
1
41
1
41
1
10
141.86549088897709
20
44.254767738330365
30
0
10
141.24438294315343
20
44.254767738330365
30
0
10
140.7540351118088
20
43.748075542163846
30
0
10
140.7540351118088
20
43.126969544804091
30
0
0
SPLINE
5
271
100
AcDbEntity
8
0
100
AcDbSpline
70
4
71
3
72
8
73
4
74
0
42
0.000000001
43
0.0000000001
44
0.0000000001
40
0
40
0
40
0
40
0
40
1
40
1
40
1
40
1
41
1
41
1
41
1
41
1
10
143.60110980339053
20
32.502784934496873
30
0
10
144.41836311683656
20
32.502784934496873
30
0
10
145.07215329742434
20
33.042166509795187
30
0
10
145.61154006862643
20
33.941135801959035
30
0
0
SPLINE
5
272
100
AcDbEntity
8
0
100
AcDbSpline
70
4
71
3
72
8
73
4
74
0
42
0.000000001
43
0.0000000001
44
0.0000000001
40
0
40
0
40
0
40
0
40
1
40
1
40
1
40
1
41
1
41
1
41
1
41
1
10
145.61154006862643
20
33.941135801959035
30
0
10
145.66056861667636
20
33.123890282368656
30
0
10
146.06919527339937
20
32.502784934496873
30
0
10
146.77202439384462
20
32.502784934496873
30
0
0
SPLINE
5
273
100
AcDbEntity
8
0
100
AcDbSpline
70
4
71
3
72
8
73
4
74
0
42
0.000000001
43
0.0000000001
44
0.0000000001
40
0
40
0
40
0
40
0
40
1
40
1
40
1
40
1
41
1
41
1
41
1
41
1
10
146.77202439384462
20
32.502784934496873
30
0
10
148.45554917697908
20
32.502784934496873
30
0
10
149.38720589981082
20
34.823760079812999
30
0
10
149.89390004444124
20
36.752458778619761
30
0
0
LINE
5
274
100
AcDbEntity
8
0
100
AcDbLine
10
149.89390004444124
20
36.752458778619761
30
0
11
149.35451327323915
21
36.752458778619761
31
0
0
SPLINE
5
275
100
AcDbEntity
8
0
100
AcDbSpline
70
4
71
3
72
8
73
4
74
0
42
0.000000001
43
0.0000000001
44
0.0000000001
40
0
40
0
40
0
40
0
40
1
40
1
40
1
40
1
41
1
41
1
41
1
41
1
10
149.35451327323915
20
36.752458778619761
30
0
10
148.5536166648865
20
34.31706853313446
30
0
10
147.93250871906284
20
33.663271857666963
30
0
10
147.55657468891147
20
33.663271857666963
30
0
0
SPLINE
5
276
100
AcDbEntity
8
0
100
AcDbSpline
70
4
71
3
72
8
73
4
74
0
42
0.000000001
43
0.0000000001
44
0.0000000001
40
0
40
0
40
0
40
0
40
1
40
1
40
1
40
1
41
1
41
1
41
1
41
1
10
147.55657468891147
20
33.663271857666963
30
0
10
147.16430473728184
20
33.663271857666963
30
0
10
147.26237222518924
20
33.990170844888681
30
0
10
147.42581457443239
20
34.562242448806757
30
0
0
SPLINE
5
277
100
AcDbEntity
8
0
100
AcDbSpline
70
4
71
3
72
8
73
4
74
0
42
0.000000001
43
0.0000000001
44
0.0000000001
40
0
40
0
40
0
40
0
40
1
40
1
40
1
40
1
41
1
41
1
41
1
41
1
10
147.42581457443239
20
34.562242448806757
30
0
10
147.54023876743321
20
34.938175179982181
30
0
10
148.78244426727298
20
39.759919978535173
30
0
10
148.86417583370212
20
40.037783273339265
30
0
0
SPLINE
5
278
100
AcDbEntity
8
0
100
AcDbSpline
70
4
71
3
72
8
73
4
74
0
42
0.000000001
43
0.0000000001
44
0.0000000001
40
0
40
0
40
0
40
0
40
1
40
1
40
1
40
1
41
1
41
1
41
1
41
1
10
148.86417583370212
20
40.037783273339265
30
0
10
148.99492555637363
20
40.528130455195907
30
0
10
148.86417583370212
20
40.805993749999999
30
0
10
148.35748168907168
20
40.805993749999999
30
0
0
LINE
5
279
100
AcDbEntity
8
0
100
AcDbLine
10
148.35748168907168
20
40.805993749999999
30
0
11
146.93547713489534
21
40.805993749999999
31
0
0
SPLINE
5
280
100
AcDbEntity
8
0
100
AcDbSpline
70
4
71
3
72
8
73
4
74
0
42
0.000000001
43
0.0000000001
44
0.0000000001
40
0
40
0
40
0
40
0
40
1
40
1
40
1
40
1
41
1
41
1
41
1
41
1
10
146.93547713489534
20
40.805993749999999
30
0
10
147.26237222518924
20
40.446406033134458
30
0
10
147.19698697204592
20
40.037783273339265
30
0
10
146.93547713489534
20
39.253228431856627
30
0
0
SPLINE
5
281
100
AcDbEntity
8
0
100
AcDbSpline
70
4
71
3
72
8
73
4
74
0
42
0.000000001
43
0.0000000001
44
0.0000000001
40
0
40
0
40
0
40
0
40
1
40
1
40
1
40
1
41
1
41
1
41
1
41
1
10
146.93547713489534
20
39.253228431856627
30
0
10
146.87009188175205
20
39.057088909626003
30
0
10
146.59222533950808
20
38.043705816268918
30
0
10
146.31436918907167
20
37.063011452555649
30
0
0
SPLINE
5
282
100
AcDbEntity
8
0
100
AcDbSpline
70
4
71
3
72
8
73
4
74
0
42
0.000000001
43
0.0000000001
44
0.0000000001
40
0
40
0
40
0
40
0
40
1
40
1
40
1
40
1
41
1
41
1
41
1
41
1
10
146.31436918907167
20
37.063011452555649
30
0
10
145.43174101428988
20
34.218998447275155
30
0
10
144.92504686965947
20
33.663271857666963
30
0
10
144.3202852371216
20
33.663271857666963
30
0
0
SPLINE
5
283
100
AcDbEntity
8
0
100
AcDbSpline
70
4
71
3
72
8
73
4
74
0
42
0.000000001
43
0.0000000001
44
0.0000000001
40
0
40
0
40
0
40
0
40
1
40
1
40
1
40
1
41
1
41
1
41
1
41
1
10
144.3202852371216
20
33.663271857666963
30
0
10
143.92801528549197
20
33.663271857666963
30
0
10
143.66649505653385
20
33.990170844888681
30
0
10
143.829937405777
20
34.562242448806757
30
0
0
SPLINE
5
284
100
AcDbEntity
8
0
100
AcDbSpline
70
4
71
3
72
8
73
4
74
0
42
0.000000001
43
0.0000000001
44
0.0000000001
40
0
40
0
40
0
40
0
40
1
40
1
40
1
40
1
41
1
41
1
41
1
41
1
10
143.829937405777
20
34.562242448806757
30
0
10
143.94435120697023
20
34.938175179982181
30
0
10
145.18656709861759
20
39.759919978535173
30
0
10
145.26828827323916
20
40.037783273339265
30
0
0
SPLINE
5
285
100
AcDbEntity
8
0
100
AcDbSpline
70
4
71
3
72
8
73
4
74
0
42
0.000000001
43
0.0000000001
44
0.0000000001
40
0
40
0
40
0
40
0
40
1
40
1
40
1
40
1
41
1
41
1
41
1
41
1
10
145.26828827323916
20
40.037783273339265
30
0
10
145.39904838771824
20
40.528130455195907
30
0
10
145.26828827323916
20
40.805993749999999
30
0
10
144.76160452041628
20
40.805993749999999
30
0
0
LINE
5
286
100
AcDbEntity
8
0
100
AcDbLine
10
144.76160452041628
20
40.805993749999999
30
0
11
143.33958957443241
21
40.805993749999999
31
0
0
SPLINE
5
287
100
AcDbEntity
8
0
100
AcDbSpline
70
4
71
3
72
8
73
4
74
0
42
0.000000001
43
0.0000000001
44
0.0000000001
40
0
40
0
40
0
40
0
40
1
40
1
40
1
40
1
41
1
41
1
41
1
41
1
10
143.33958957443241
20
40.805993749999999
30
0
10
143.66649505653385
20
40.446406033134458
30
0
10
143.60110980339053
20
40.037783273339265
30
0
10
143.33958957443241
20
39.253228431856627
30
0
0
SPLINE
5
288
100
AcDbEntity
8
0
100
AcDbSpline
70
4
71
3
72
8
73
4
74
0
42
0.000000001
43
0.0000000001
44
0.0000000001
40
0
40
0
40
0
40
0
40
1
40
1
40
1
40
1
41
1
41
1
41
1
41
1
10
143.33958957443241
20
39.253228431856627
30
0
10
143.2088398517609
20
38.877295051193236
30
0
10
142.27717273712162
20
35.461211740970604
30
0
10
142.16275893592837
20
35.085279009795187
30
0
0
SPLINE
5
289
100
AcDbEntity
8
0
100
AcDbSpline
70
4
71
3
72
8
73
4
74
0
42
0.000000001
43
0.0000000001
44
0.0000000001
40
0
40
0
40
0
40
0
40
1
40
1
40
1
40
1
41
1
41
1
41
1
41
1
10
142.16275893592837
20
35.085279009795187
30
0
10
141.77048898429874
20
33.79403197214603
30
0
10
142.16275893592837
20
32.502784934496873
30
0
10
143.60110980339053
20
32.502784934496873
30
0
0
SPLINE
5
290
100
AcDbEntity
8
0
100
AcDbSpline
70
4
71
3
72
8
73
4
74
0
42
0.000000001
43
0.0000000001
44
0.0000000001
40
0
40
0
40
0
40
0
40
1
40
1
40
1
40
1
41
1
41
1
41
1
41
1
10
150.94236068420412
20
32.38836983432769
30
0
10
152.64222138881686
20
32.38836983432769
30
0
10
153.80271610584262
20
33.859410730409614
30
0
10
153.70464861793519
20
35.248727853918069
30
0
0
SPLINE
5
291
100
AcDbEntity
8
0
100
AcDbSpline
70
4
71
3
72
8
73
4
74
0
42
0.000000001
43
0.0000000001
44
0.0000000001
40
0
40
0
40
0
40
0
40
1
40
1
40
1
40
1
41
1
41
1
41
1
41
1
10
153.70464861793519
20
35.248727853918069
30
0
10
153.57388850345615
20
37.063011452555649
30
0
10
152.07015238285069
20
38.076395844888687
30
0
10
151.82497846717837
20
39.18784837461709
30
0
0
SPLINE
5
292
100
AcDbEntity
8
0
100
AcDbSpline
70
4
71
3
72
8
73
4
74
0
42
0.000000001
43
0.0000000001
44
0.0000000001
40
0
40
0
40
0
40
0
40
1
40
1
40
1
40
1
41
1
41
1
41
1
41
1
10
151.82497846717837
20
39.18784837461709
30
0
10
151.61249717807772
20
40.152197724020482
30
0
10
152.10284500942234
20
40.756959356558312
30
0
10
152.67491401538851
20
40.707924313628673
30
0
0
SPLINE
5
293
100
AcDbEntity
8
0
100
AcDbSpline
70
4
71
3
72
8
73
4
74
0
42
0.000000001
43
0.0000000001
44
0.0000000001
40
0
40
0
40
0
40
0
40
1
40
1
40
1
40
1
41
1
41
1
41
1
41
1
10
152.67491401538851
20
40.707924313628673
30
0
10
153.2143007865906
20
40.658889920186994
30
0
10
153.23064709987642
20
39.988748879897585
30
0
10
153.1162332986832
20
39.400332261669632
30
0
0
SPLINE
5
294
100
AcDbEntity
8
0
100
AcDbSpline
70
4
71
3
72
8
73
4
74
0
42
0.000000001
43
0.0000000001
44
0.0000000001
40
0
40
0
40
0
40
0
40
1
40
1
40
1
40
1
41
1
41
1
41
1
41
1
10
153.1162332986832
20
39.400332261669632
30
0
10
152.88739530448916
20
38.190809646081917
30
0
10
154.83244031658177
20
38.223499674701685
30
0
10
154.58726640090947
20
39.694540570783616
30
0
0
SPLINE
5
295
100
AcDbEntity
8
0
100
AcDbSpline
70
4
71
3
72
8
73
4
74
0
42
0.000000001
43
0.0000000001
44
0.0000000001
40
0
40
0
40
0
40
0
40
1
40
1
40
1
40
1
41
1
41
1
41
1
41
1
10
154.58726640090947
20
39.694540570783616
30
0
10
154.42382405166629
20
40.658889920186994
30
0
10
153.65560967807772
20
41.16558146686554
30
0
10
152.54415390090944
20
41.181926481175424
30
0
0
SPLINE
5
296
100
AcDbEntity
8
0
100
AcDbSpline
70
4
71
3
72
8
73
4
74
0
42
0.000000001
43
0.0000000001
44
0.0000000001
40
0
40
0
40
0
40
0
40
1
40
1
40
1
40
1
41
1
41
1
41
1
41
1
10
152.54415390090944
20
41.181926481175424
30
0
10
151.43270851554874
20
41.198271495485308
30
0
10
150.1087714492798
20
40.282957189011569
30
0
10
150.37028128643038
20
38.501362320017812
30
0
0
SPLINE
5
297
100
AcDbEntity
8
0
100
AcDbSpline
70
4
71
3
72
8
73
4
74
0
42
0.000000001
43
0.0000000001
44
0.0000000001
40
0
40
0
40
0
40
0
40
1
40
1
40
1
40
1
41
1
41
1
41
1
41
1
10
150.37028128643038
20
38.501362320017812
30
0
10
150.59910888881686
20
36.932252637052528
30
0
10
152.3970578649521
20
35.771764414906499
30
0
10
152.18456618404392
20
34.235343461585039
30
0
0
SPLINE
5
298
100
AcDbEntity
8
0
100
AcDbSpline
70
4
71
3
72
8
73
4
74
0
42
0.000000001
43
0.0000000001
44
0.0000000001
40
0
40
0
40
0
40
0
40
1
40
1
40
1
40
1
41
1
41
1
41
1
41
1
10
152.18456618404392
20
34.235343461585039
30
0
10
152.05380606956484
20
33.352719183731075
30
0
10
151.57980455150607
20
33.009476481175419
30
0
10
150.95869660568241
20
33.009476481175419
30
0
0
SPLINE
5
299
100
AcDbEntity
8
0
100
AcDbSpline
70
4
71
3
72
8
73
4
74
0
42
0.000000001
43
0.0000000001
44
0.0000000001
40
0
40
0
40
0
40
0
40
1
40
1
40
1
40
1
41
1
41
1
41
1
41
1
10
150.95869660568241
20
33.009476481175419
30
0
10
149.84725122032168
20
33.009476481175419
30
0
10
149.32421076240541
20
34.120929660391809
30
0
10
150.17414631061558
20
35.54293551354408
30
0
0
SPLINE
5
300
100
AcDbEntity
8
0
100
AcDbSpline
70
4
71
3
72
8
73
4
74
0
42
0.000000001
43
0.0000000001
44
0.0000000001
40
0
40
0
40
0
40
0
40
1
40
1
40
1
40
1
41
1
41
1
41
1
41
1
10
150.17414631061558
20
35.54293551354408
30
0
10
150.9260143709183
20
36.78514880723953
30
0
10
149.20979696121219
20
37.373564126491544
30
0
10
148.75214175643924
20
36.131352131772033
30
0
0
SPLINE
5
301
100
AcDbEntity
8
0
100
AcDbSpline
70
4
71
3
72
8
73
4
74
0
42
0.000000001
43
0.0000000001
44
0.0000000001
40
0
40
0
40
0
40
0
40
1
40
1
40
1
40
1
41
1
41
1
41
1
41
1
10
148.75214175643924
20
36.131352131772033
30
0
10
148.22910129852298
20
34.709346278619762
30
0
10
148.70310281658175
20
32.38836983432769
30
0
10
150.94236068420412
20
32.38836983432769
30
0
0
SPLINE
5
302
100
AcDbEntity
8
0
100
AcDbSpline
70
4
71
3
72
8
73
4
74
0
42
0.000000001
43
0.0000000001
44
0.0000000001
40
0
40
0
40
0
40
0
40
1
40
1
40
1
40
1
41
1
41
1
41
1
41
1
10
156.79417457160955
20
32.502784934496873
30
0
10
158.5757668426514
20
32.502784934496873
30
0
10
160.19390637264254
20
34.382448590373983
30
0
10
160.81501431846621
20
36.752458778619761
30
0
0
LINE
5
303
100
AcDbEntity
8
0
100
AcDbLine
10
160.81501431846624
20
36.752458778619761
30
0
11
160.27563793907171
21
36.752458778619761
31
0
0
SPLINE
5
304
100
AcDbEntity
8
0
100
AcDbSpline
70
4
71
3
72
8
73
4
74
0
42
0.000000001
43
0.0000000001
44
0.0000000001
40
0
40
0
40
0
40
0
40
1
40
1
40
1
40
1
41
1
41
1
41
1
41
1
10
160.27563793907171
20
36.752458778619761
30
0
10
159.4910772521973
20
34.349758561754221
30
0
10
158.23252543907168
20
33.532513042163849
30
0
10
157.34989726428989
20
33.695961886286732
30
0
0
SPLINE
5
305
100
AcDbEntity
8
0
100
AcDbSpline
70
4
71
3
72
8
73
4
74
0
42
0.000000001
43
0.0000000001
44
0.0000000001
40
0
40
0
40
0
40
0
40
1
40
1
40
1
40
1
41
1
41
1
41
1
41
1
10
157.34989726428989
20
33.695961886286732
30
0
10
156.54900065593722
20
33.84306571609973
30
0
10
156.15672031250003
20
35.036243966865534
30
0
10
156.3855479148865
20
36.376526047444344
30
0
0
SPLINE
5
306
100
AcDbEntity
8
0
100
AcDbSpline
70
4
71
3
72
8
73
4
74
0
42
0.000000001
43
0.0000000001
44
0.0000000001
40
0
40
0
40
0
40
0
40
1
40
1
40
1
40
1
41
1
41
1
41
1
41
1
10
156.3855479148865
20
36.376526047444344
30
0
10
160.16122413787843
20
36.016938330578803
30
0
10
161.23998728847508
20
41.067512030494207
30
0
10
158.5757668426514
20
41.067512030494207
30
0
0
SPLINE
5
307
100
AcDbEntity
8
0
100
AcDbSpline
70
4
71
3
72
8
73
4
74
0
42
0.000000001
43
0.0000000001
44
0.0000000001
40
0
40
0
40
0
40
0
40
1
40
1
40
1
40
1
41
1
41
1
41
1
41
1
10
158.5757668426514
20
41.067512030494207
30
0
10
156.67976077041629
20
41.067512030494207
30
0
10
155.15967833652499
20
38.681156178450578
30
0
10
154.76740838489536
20
36.719768749999993
30
0
0
SPLINE
5
308
100
AcDbEntity
8
0
100
AcDbSpline
70
4
71
3
72
8
73
4
74
0
42
0.000000001
43
0.0000000001
44
0.0000000001
40
0
40
0
40
0
40
0
40
1
40
1
40
1
40
1
41
1
41
1
41
1
41
1
10
154.76740838489536
20
36.719768749999993
30
0
10
154.29340686683656
20
34.382448590373983
30
0
10
154.96354336071016
20
32.502784934496873
30
0
10
156.79417457160955
20
32.502784934496873
30
0
0
SPLINE
5
309
100
AcDbEntity
8
0
100
AcDbSpline
70
4
71
3
72
8
73
4
74
0
42
0.000000001
43
0.0000000001
44
0.0000000001
40
0
40
0
40
0
40
0
40
1
40
1
40
1
40
1
41
1
41
1
41
1
41
1
10
156.4836154027939
20
36.866872579812998
30
0
10
156.97396323413852
20
38.909985079813005
30
0
10
158.02003375816349
20
40.544475469505784
30
0
10
158.83728707160952
20
40.544475469505784
30
0
0
SPLINE
5
310
100
AcDbEntity
8
0
100
AcDbSpline
70
4
71
3
72
8
73
4
74
0
42
0.000000001
43
0.0000000001
44
0.0000000001
40
0
40
0
40
0
40
0
40
1
40
1
40
1
40
1
41
1
41
1
41
1
41
1
10
158.83728707160952
20
40.544475469505784
30
0
10
159.60549105339052
20
40.544475469505784
30
0
10
158.9190082462311
20
37.242805310988423
30
0
10
156.4836154027939
20
36.866872579812998
30
0
0
SPLINE
5
311
100
AcDbEntity
8
0
100
AcDbSpline
70
4
71
3
72
8
73
4
74
0
42
0.000000001
43
0.0000000001
44
0.0000000001
40
0
40
0
40
0
40
0
40
1
40
1
40
1
40
1
41
1
41
1
41
1
41
1
10
76.493414557647711
20
3.3434807469367822
30
0
10
77.784661595296868
20
3.3434807469367822
30
0
10
79.206668747425084
20
4.6510766958236616
30
0
10
79.762394038057337
20
6.7595666551112998
30
0
0
SPLINE
5
312
100
AcDbEntity
8
0
100
AcDbSpline
70
4
71
3
72
8
73
4
74
0
42
0.000000001
43
0.0000000001
44
0.0000000001
40
0
40
0
40
0
40
0
40
1
40
1
40
1
40
1
41
1
41
1
41
1
41
1
10
79.762394038057337
20
6.7595666551112998
30
0
10
80.154671783542639
20
7.9200561762332811
30
0
10
81.266124962759037
20
12.905250468397131
30
0
10
81.887230310630798
20
15.634848373508445
30
0
0
LINE
5
313
100
AcDbEntity
8
0
100
AcDbLine
10
81.887230310630798
20
15.634848373508447
30
0
11
82.998683489847181
21
15.634848373508445
31
0
0
LINE
5
314
100
AcDbEntity
8
0
100
AcDbLine
10
82.998683489847181
20
15.634848373508445
30
0
11
83.162133632946023
21
16.288643749999991
31
0
0
LINE
5
315
100
AcDbEntity
8
0
100
AcDbLine
10
83.162133632946023
20
16.288643749999991
30
0
11
82.050680453729655
21
16.288643749999991
31
0
0
LINE
5
316
100
AcDbEntity
8
0
100
AcDbLine
10
82.050680453729655
20
16.288643749999991
30
0
11
82.279508056116129
21
17.269336814737311
31
0
0
SPLINE
5
317
100
AcDbEntity
8
0
100
AcDbSpline
70
4
71
3
72
8
73
4
74
0
42
0.000000001
43
0.0000000001
44
0.0000000001
40
0
40
0
40
0
40
0
40
1
40
1
40
1
40
1
41
1
41
1
41
1
41
1
10
82.279508056116114
20
17.269336814737311
30
0
10
82.655442086267485
20
18.740377710819235
30
0
10
83.211167376899738
20
19.557623230409614
30
0
10
83.881309066677105
20
19.835487174701679
30
0
0
SPLINE
5
318
100
AcDbEntity
8
0
100
AcDbSpline
70
4
71
3
72
8
73
4
74
0
42
0.000000001
43
0.0000000001
44
0.0000000001
40
0
40
0
40
0
40
0
40
1
40
1
40
1
40
1
41
1
41
1
41
1
41
1
10
83.881309066677105
20
19.835487174701679
30
0
10
84.240863010168084
20
19.982591004514685
30
0
10
84.420656868600872
20
19.770107117462146
30
0
10
84.159139237594616
20
19.426865713882439
30
0
0
SPLINE
5
319
100
AcDbEntity
8
0
100
AcDbSpline
70
4
71
3
72
8
73
4
74
0
42
0.000000001
43
0.0000000001
44
0.0000000001
40
0
40
0
40
0
40
0
40
1
40
1
40
1
40
1
41
1
41
1
41
1
41
1
10
84.159139237594616
20
19.426865713882439
30
0
10
83.652481464290645
20
18.773067739439
30
0
10
84.714864528226869
20
18.004858561754219
30
0
10
85.156176017665871
20
18.854794109964359
30
0
0
SPLINE
5
320
100
AcDbEntity
8
0
100
AcDbSpline
70
4
71
3
72
8
73
4
74
0
42
0.000000001
43
0.0000000001
44
0.0000000001
40
0
40
0
40
0
40
0
40
1
40
1
40
1
40
1
41
1
41
1
41
1
41
1
10
85.156176017665871
20
18.854794109964359
30
0
10
85.499420019197473
20
19.524933201789846
30
0
10
85.009072187852865
20
20.407558778619759
30
0
10
83.832275322723405
20
20.407558778619759
30
0
0
SPLINE
5
321
100
AcDbEntity
8
0
100
AcDbSpline
70
4
71
3
72
8
73
4
74
0
42
0.000000001
43
0.0000000001
44
0.0000000001
40
0
40
0
40
0
40
0
40
1
40
1
40
1
40
1
41
1
41
1
41
1
41
1
10
83.832275322723405
20
20.407558778619759
30
0
10
82.541028285074248
20
20.407558778619759
30
0
10
81.233434934139268
20
19.328795628023137
30
0
10
80.677709643507015
20
17.220303070783608
30
0
0
SPLINE
5
322
100
AcDbEntity
8
0
100
AcDbSpline
70
4
71
3
72
8
73
4
74
0
42
0.000000001
43
0.0000000001
44
0.0000000001
40
0
40
0
40
0
40
0
40
1
40
1
40
1
40
1
41
1
41
1
41
1
41
1
10
80.677709643507015
20
17.220303070783608
30
0
10
80.628673301601424
20
17.040509212350837
30
0
10
80.563293244361887
20
16.74630155272483
30
0
10
80.448879443168664
20
16.288643749999991
30
0
0
LINE
5
323
100
AcDbEntity
8
0
100
AcDbLine
10
80.448879443168636
20
16.288643749999988
30
0
11
79.647980236864115
21
16.288643749999991
31
0
0
LINE
5
324
100
AcDbEntity
8
0
100
AcDbLine
10
79.647980236864115
20
16.288643749999991
30
0
11
79.484530093765258
21
15.634848373508445
31
0
0
LINE
5
325
100
AcDbEntity
8
0
100
AcDbLine
10
79.484530093765258
20
15.634848373508445
30
0
11
80.285431898021713
21
15.634848373508445
31
0
0
SPLINE
5
326
100
AcDbEntity
8
0
100
AcDbSpline
70
4
71
3
72
8
73
4
74
0
42
0.000000001
43
0.0000000001
44
0.0000000001
40
0
40
0
40
0
40
0
40
1
40
1
40
1
40
1
41
1
41
1
41
1
41
1
10
80.285431898021713
20
15.634848373508445
30
0
10
79.909497867870343
20
14.114771135520927
30
0
10
79.239358776044853
20
11.385173230409613
30
0
10
77.980799169063573
20
6.4817027108192349
30
0
0
SPLINE
5
327
100
AcDbEntity
8
0
100
AcDbSpline
70
4
71
3
72
8
73
4
74
0
42
0.000000001
43
0.0000000001
44
0.0000000001
40
0
40
0
40
0
40
0
40
1
40
1
40
1
40
1
41
1
41
1
41
1
41
1
10
77.980799169063573
20
6.4817027108192349
30
0
10
77.604867736864094
20
5.0106644126891986
30
0
10
77.114519905519487
20
4.19341629514693
30
0
10
76.444380813694011
20
3.9155549488067543
30
0
0
SPLINE
5
328
100
AcDbEntity
8
0
100
AcDbSpline
70
4
71
3
72
8
73
4
74
0
42
0.000000001
43
0.0000000001
44
0.0000000001
40
0
40
0
40
0
40
0
40
1
40
1
40
1
40
1
41
1
41
1
41
1
41
1
10
76.444380813694011
20
3.9155549488067543
30
0
10
76.084793096828477
20
3.7684485210418561
30
0
10
75.904999238395703
20
3.9809350060462823
30
0
10
76.166516869401931
20
4.3241764096259949
30
0
0
SPLINE
5
329
100
AcDbEntity
8
0
100
AcDbSpline
70
4
71
3
72
8
73
4
74
0
42
0.000000001
43
0.0000000001
44
0.0000000001
40
0
40
0
40
0
40
0
40
1
40
1
40
1
40
1
41
1
41
1
41
1
41
1
10
76.166516869401931
20
4.3241764096259949
30
0
10
76.673208416080485
20
4.977971786117541
30
0
10
75.610788980817802
20
5.7461809638023276
30
0
10
75.169477491378785
20
4.8962506114959581
30
0
0
SPLINE
5
330
100
AcDbEntity
8
0
100
AcDbSpline
70
4
71
3
72
8
73
4
74
0
42
0.000000001
43
0.0000000001
44
0.0000000001
40
0
40
0
40
0
40
0
40
1
40
1
40
1
40
1
41
1
41
1
41
1
41
1
10
75.169477491378785
20
4.8962506114959581
30
0
10
74.826233489847183
20
4.2261089217185877
30
0
10
75.316581321191791
20
3.3434807469367822
30
0
10
76.493414557647711
20
3.3434807469367822
30
0
0
SPLINE
5
331
100
AcDbEntity
8
0
100
AcDbSpline
70
4
71
3
72
8
73
4
74
0
42
0.000000001
43
0.0000000001
44
0.0000000001
40
0
40
0
40
0
40
0
40
1
40
1
40
1
40
1
41
1
41
1
41
1
41
1
10
83.401041288661958
20
7.9854336355209199
30
0
10
84.218388128376034
20
7.9854336355209199
30
0
10
84.872183504867564
20
8.5248152108192343
30
0
10
85.411565080165872
20
9.4237845029830858
30
0
0
SPLINE
5
332
100
AcDbEntity
8
0
100
AcDbSpline
70
4
71
3
72
8
73
4
74
0
42
0.000000001
43
0.0000000001
44
0.0000000001
40
0
40
0
40
0
40
0
40
1
40
1
40
1
40
1
41
1
41
1
41
1
41
1
10
85.411565080165872
20
9.4237845029830858
30
0
10
85.460601422071463
20
8.6065415813445956
30
0
10
85.86922288289071
20
7.9854336355209199
30
0
10
86.57205460128786
20
7.9854336355209199
30
0
0
SPLINE
5
333
100
AcDbEntity
8
0
100
AcDbSpline
70
4
71
3
72
8
73
4
74
0
42
0.000000001
43
0.0000000001
44
0.0000000001
40
0
40
0
40
0
40
0
40
1
40
1
40
1
40
1
41
1
41
1
41
1
41
1
10
86.57205460128786
20
7.9854336355209199
30
0
10
88.255579384422305
20
7.9854336355209199
30
0
10
89.187238705205928
20
10.306410079812993
30
0
10
89.693930251884467
20
12.235108778619757
30
0
0
LINE
5
334
100
AcDbEntity
8
0
100
AcDbLine
10
89.693930251884467
20
12.235108778619757
30
0
11
89.15454867658616
21
12.235108778619757
31
0
0
SPLINE
5
335
100
AcDbEntity
8
0
100
AcDbSpline
70
4
71
3
72
8
73
4
74
0
42
0.000000001
43
0.0000000001
44
0.0000000001
40
0
40
0
40
0
40
0
40
1
40
1
40
1
40
1
41
1
41
1
41
1
41
1
10
89.15454867658616
20
12.235108778619757
30
0
10
88.35364947028161
20
9.7997185331344472
30
0
10
87.732541524457943
20
9.1459231566429011
30
0
10
87.356610092258478
20
9.1459231566429011
30
0
0
SPLINE
5
336
100
AcDbEntity
8
0
100
AcDbSpline
70
4
71
3
72
8
73
4
74
0
42
0.000000001
43
0.0000000001
44
0.0000000001
40
0
40
0
40
0
40
0
40
1
40
1
40
1
40
1
41
1
41
1
41
1
41
1
10
87.356610092258478
20
9.1459231566429011
30
0
10
86.964332346773148
20
9.1459231566429011
30
0
10
87.062402432632453
20
9.4728208448886786
30
0
10
87.225849977779404
20
10.044892448806753
30
0
0
SPLINE
5
337
100
AcDbEntity
8
0
100
AcDbSpline
70
4
71
3
72
8
73
4
74
0
42
0.000000001
43
0.0000000001
44
0.0000000001
40
0
40
0
40
0
40
0
40
1
40
1
40
1
40
1
41
1
41
1
41
1
41
1
10
87.225849977779404
20
10.044892448806753
30
0
10
87.340263778972641
20
10.420823881006228
30
0
10
88.582477072668098
20
15.24257062802314
30
0
10
88.664200845241567
20
15.520434572315205
30
0
0
SPLINE
5
338
100
AcDbEntity
8
0
100
AcDbSpline
70
4
71
3
72
8
73
4
74
0
42
0.000000001
43
0.0000000001
44
0.0000000001
40
0
40
0
40
0
40
0
40
1
40
1
40
1
40
1
41
1
41
1
41
1
41
1
10
88.664200845241567
20
15.520434572315205
30
0
10
88.794960959720612
20
16.010779805707923
30
0
10
88.664200845241567
20
16.288643749999991
30
0
10
88.157509298563014
20
16.288643749999991
30
0
0
LINE
5
339
100
AcDbEntity
8
0
100
AcDbLine
10
88.157509298563014
20
16.288643749999991
30
0
11
86.735502146434811
21
16.288643749999991
31
0
0
SPLINE
5
340
100
AcDbEntity
8
0
100
AcDbSpline
70
4
71
3
72
8
73
4
74
0
42
0.000000001
43
0.0000000001
44
0.0000000001
40
0
40
0
40
0
40
0
40
1
40
1
40
1
40
1
41
1
41
1
41
1
41
1
10
86.735502146434811
20
16.288643749999991
30
0
10
87.062402432632453
20
15.929056033134451
30
0
10
86.997022375392916
20
15.520434572315205
30
0
10
86.735502146434811
20
14.735879081344594
30
0
0
SPLINE
5
341
100
AcDbEntity
8
0
100
AcDbSpline
70
4
71
3
72
8
73
4
74
0
42
0.000000001
43
0.0000000001
44
0.0000000001
40
0
40
0
40
0
40
0
40
1
40
1
40
1
40
1
41
1
41
1
41
1
41
1
10
86.735502146434811
20
14.735879081344594
30
0
10
86.670124687147151
20
14.539738909625996
30
0
10
86.392260742855086
20
13.526355816268909
30
0
10
86.114396798563021
20
12.545662751531591
30
0
0
SPLINE
5
342
100
AcDbEntity
8
0
100
AcDbSpline
70
4
71
3
72
8
73
4
74
0
42
0.000000001
43
0.0000000001
44
0.0000000001
40
0
40
0
40
0
40
0
40
1
40
1
40
1
40
1
41
1
41
1
41
1
41
1
10
86.114396798563021
20
12.545662751531591
30
0
10
85.231771221733098
20
9.7016484472751507
30
0
10
84.725079675054559
20
9.1459231566429011
30
0
10
84.120318042516715
20
9.1459231566429011
30
0
0
SPLINE
5
343
100
AcDbEntity
8
0
100
AcDbSpline
70
4
71
3
72
8
73
4
74
0
42
0.000000001
43
0.0000000001
44
0.0000000001
40
0
40
0
40
0
40
0
40
1
40
1
40
1
40
1
41
1
41
1
41
1
41
1
10
84.120318042516715
20
9.1459231566429011
30
0
10
83.727938976907723
20
9.1459231566429011
30
0
10
83.466421345901495
20
9.4728208448886786
30
0
10
83.629868891048446
20
10.044892448806753
30
0
0
SPLINE
5
344
100
AcDbEntity
8
0
100
AcDbSpline
70
4
71
3
72
8
73
4
74
0
42
0.000000001
43
0.0000000001
44
0.0000000001
40
0
40
0
40
0
40
0
40
1
40
1
40
1
40
1
41
1
41
1
41
1
41
1
10
83.629868891048446
20
10.044892448806753
30
0
10
83.744285290193559
20
10.420823881006228
30
0
10
84.986599904012678
20
15.24257062802314
30
0
10
85.068323676586161
20
15.520434572315205
30
0
0
SPLINE
5
345
100
AcDbEntity
8
0
100
AcDbSpline
70
4
71
3
72
8
73
4
74
0
42
0.000000001
43
0.0000000001
44
0.0000000001
40
0
40
0
40
0
40
0
40
1
40
1
40
1
40
1
41
1
41
1
41
1
41
1
10
85.068323676586161
20
15.520434572315205
30
0
10
85.199083791065235
20
16.010779805707923
30
0
10
85.068323676586161
20
16.288643749999991
30
0
10
84.561632129907608
20
16.288643749999991
30
0
0
LINE
5
346
100
AcDbEntity
8
0
100
AcDbLine
10
84.561632129907608
20
16.288643749999991
30
0
11
83.139523657655715
21
16.288643749999991
31
0
0
SPLINE
5
347
100
AcDbEntity
8
0
100
AcDbSpline
70
4
71
3
72
8
73
4
74
0
42
0.000000001
43
0.0000000001
44
0.0000000001
40
0
40
0
40
0
40
0
40
1
40
1
40
1
40
1
41
1
41
1
41
1
41
1
10
83.139523657655729
20
16.288643749999991
30
0
10
83.466421345901495
20
15.929056033134451
30
0
10
83.401041288661958
20
15.520434572315205
30
0
10
83.139523657655729
20
14.735879081344594
30
0
0
SPLINE
5
348
100
AcDbEntity
8
0
100
AcDbSpline
70
4
71
3
72
8
73
4
74
0
42
0.000000001
43
0.0000000001
44
0.0000000001
40
0
40
0
40
0
40
0
40
1
40
1
40
1
40
1
41
1
41
1
41
1
41
1
10
83.139523657655729
20
14.735879081344594
30
0
10
83.008763543176656
20
14.359945051193229
30
0
10
82.077104222393046
20
10.9438617409706
30
0
10
81.96269042119981
20
10.567927710819234
30
0
0
SPLINE
5
349
100
AcDbEntity
8
0
100
AcDbSpline
70
4
71
3
72
8
73
4
74
0
42
0.000000001
43
0.0000000001
44
0.0000000001
40
0
40
0
40
0
40
0
40
1
40
1
40
1
40
1
41
1
41
1
41
1
41
1
10
81.96269042119981
20
10.567927710819234
30
0
10
81.570412675714508
20
9.2766806731700768
30
0
10
81.96269042119981
20
7.9854336355209199
30
0
10
83.401041288661958
20
7.9854336355209199
30
0
0
SPLINE
5
350
100
AcDbEntity
8
0
100
AcDbSpline
70
4
71
3
72
8
73
4
74
0
42
0.000000001
43
0.0000000001
44
0.0000000001
40
0
40
0
40
0
40
0
40
1
40
1
40
1
40
1
41
1
41
1
41
1
41
1
10
83.597181460380554
20
18.200996135520924
30
0
10
83.597181460380554
20
17.596234502983084
30
0
10
84.103974327182769
20
17.056852927684773
30
0
10
84.708735959720627
20
17.056852927684773
30
0
0
SPLINE
5
351
100
AcDbEntity
8
0
100
AcDbSpline
70
4
71
3
72
8
73
4
74
0
42
0.000000001
43
0.0000000001
44
0.0000000001
40
0
40
0
40
0
40
0
40
1
40
1
40
1
40
1
41
1
41
1
41
1
41
1
10
84.708735959720627
20
17.056852927684773
30
0
10
85.313497592258472
20
17.056852927684773
30
0
10
85.885569196176533
20
17.612580816268913
30
0
10
85.885569196176533
20
18.250032477426519
30
0
0
SPLINE
5
352
100
AcDbEntity
8
0
100
AcDbSpline
70
4
71
3
72
8
73
4
74
0
42
0.000000001
43
0.0000000001
44
0.0000000001
40
0
40
0
40
0
40
0
40
1
40
1
40
1
40
1
41
1
41
1
41
1
41
1
10
85.885569196176533
20
18.250032477426519
30
0
10
85.885569196176533
20
18.887484138584128
30
0
10
85.313497592258472
20
19.328795628023137
30
0
10
84.708735959720627
20
19.328795628023137
30
0
0
SPLINE
5
353
100
AcDbEntity
8
0
100
AcDbSpline
70
4
71
3
72
8
73
4
74
0
42
0.000000001
43
0.0000000001
44
0.0000000001
40
0
40
0
40
0
40
0
40
1
40
1
40
1
40
1
41
1
41
1
41
1
41
1
10
84.708735959720627
20
19.328795628023137
30
0
10
84.103974327182769
20
19.328795628023137
30
0
10
83.597181460380554
20
18.822104081344598
30
0
10
83.597181460380554
20
18.200996135520924
30
0
0
SPLINE
5
354
100
AcDbEntity
8
0
100
AcDbSpline
70
4
71
3
72
8
73
4
74
0
42
0.000000001
43
0.0000000001
44
0.0000000001
40
0
40
0
40
0
40
0
40
1
40
1
40
1
40
1
41
1
41
1
41
1
41
1
10
86.473984515428555
20
18.200996135520924
30
0
10
86.473984515428555
20
17.596234502983084
30
0
10
86.980676062107108
20
17.073199240970602
30
0
10
87.585437694644938
20
17.073199240970602
30
0
0
SPLINE
5
355
100
AcDbEntity
8
0
100
AcDbSpline
70
4
71
3
72
8
73
4
74
0
42
0.000000001
43
0.0000000001
44
0.0000000001
40
0
40
0
40
0
40
0
40
1
40
1
40
1
40
1
41
1
41
1
41
1
41
1
10
87.585437694644938
20
17.073199240970602
30
0
10
88.255579384422305
20
17.073199240970602
30
0
10
88.713237187147143
20
17.628924531602852
30
0
10
88.713237187147143
20
18.217342448806754
30
0
0
SPLINE
5
356
100
AcDbEntity
8
0
100
AcDbSpline
70
4
71
3
72
8
73
4
74
0
42
0.000000001
43
0.0000000001
44
0.0000000001
40
0
40
0
40
0
40
0
40
1
40
1
40
1
40
1
41
1
41
1
41
1
41
1
10
88.713237187147143
20
18.217342448806754
30
0
10
88.713237187147143
20
18.887484138584128
30
0
10
88.17385561184885
20
19.328795628023137
30
0
10
87.585437694644938
20
19.328795628023137
30
0
0
SPLINE
5
357
100
AcDbEntity
8
0
100
AcDbSpline
70
4
71
3
72
8
73
4
74
0
42
0.000000001
43
0.0000000001
44
0.0000000001
40
0
40
0
40
0
40
0
40
1
40
1
40
1
40
1
41
1
41
1
41
1
41
1
10
87.585437694644938
20
19.328795628023137
30
0
10
86.964332346773148
20
19.328795628023137
30
0
10
86.473984515428555
20
18.822104081344598
30
0
10
86.473984515428555
20
18.200996135520924
30
0
0
LINE
5
358
100
AcDbEntity
8
0
100
AcDbLine
10
87.636856358432766
20
8.1161937499999848
30
0
11
89.107897254514683
21
8.1161937499999848
31
0
0
SPLINE
5
359
100
AcDbEntity
8
0
100
AcDbSpline
70
4
71
3
72
8
73
4
74
0
42
0.000000001
43
0.0000000001
44
0.0000000001
40
0
40
0
40
0
40
0
40
1
40
1
40
1
40
1
41
1
41
1
41
1
41
1
10
89.107897254514711
20
8.1161937499999848
30
0
10
89.630935114479087
20
8.1161937499999848
30
0
10
89.892452745485315
20
8.5084714954852902
30
0
10
90.006866546678566
20
9.0151630421638362
30
0
0
SPLINE
5
360
100
AcDbEntity
8
0
100
AcDbSpline
70
4
71
3
72
8
73
4
74
0
42
0.000000001
43
0.0000000001
44
0.0000000001
40
0
40
0
40
0
40
0
40
1
40
1
40
1
40
1
41
1
41
1
41
1
41
1
10
90.006866546678566
20
9.0151630421638362
30
0
10
90.088590319252006
20
9.3584070436954381
30
0
10
90.562594435262696
20
10.9438617409706
30
0
10
90.98755961141589
20
12.480282694292057
30
0
0
SPLINE
5
361
100
AcDbEntity
8
0
100
AcDbSpline
70
4
71
3
72
8
73
4
74
0
42
0.000000001
43
0.0000000001
44
0.0000000001
40
0
40
0
40
0
40
0
40
1
40
1
40
1
40
1
41
1
41
1
41
1
41
1
10
90.98755961141589
20
12.480282694292057
30
0
10
91.59232124395372
20
14.327255022573461
30
0
10
91.902875216865553
20
14.784912825298303
30
0
10
92.295152962350855
20
15.177190570783608
30
0
0
SPLINE
5
362
100
AcDbEntity
8
0
100
AcDbSpline
70
4
71
3
72
8
73
4
74
0
42
0.000000001
43
0.0000000001
44
0.0000000001
40
0
40
0
40
0
40
0
40
1
40
1
40
1
40
1
41
1
41
1
41
1
41
1
10
92.295152962350855
20
15.177190570783608
30
0
10
92.556670593357097
20
15.438708201789847
30
0
10
92.703774423170103
20
15.356984429216375
30
0
10
92.720120736455925
20
15.128156826829899
30
0
0
SPLINE
5
363
100
AcDbEntity
8
0
100
AcDbSpline
70
4
71
3
72
8
73
4
74
0
42
0.000000001
43
0.0000000001
44
0.0000000001
40
0
40
0
40
0
40
0
40
1
40
1
40
1
40
1
41
1
41
1
41
1
41
1
10
92.720120736455925
20
15.128156826829899
30
0
10
92.76915448040964
20
14.441668823766701
30
0
10
93.782540171718622
20
14.294564993953696
30
0
10
94.142127888584142
20
15.030086740970603
30
0
0
SPLINE
5
364
100
AcDbEntity
8
0
100
AcDbSpline
70
4
71
3
72
8
73
4
74
0
42
0.000000001
43
0.0000000001
44
0.0000000001
40
0
40
0
40
0
40
0
40
1
40
1
40
1
40
1
41
1
41
1
41
1
41
1
10
94.142127888584142
20
15.030086740970603
30
0
10
94.518056722831744
20
15.798295918655384
30
0
10
94.027714087390919
20
16.599197722911825
30
0
10
93.259502311754233
20
16.56650769429206
30
0
0
SPLINE
5
365
100
AcDbEntity
8
0
100
AcDbSpline
70
4
71
3
72
8
73
4
74
0
42
0.000000001
43
0.0000000001
44
0.0000000001
40
0
40
0
40
0
40
0
40
1
40
1
40
1
40
1
41
1
41
1
41
1
41
1
10
93.259502311754233
20
16.56650769429206
30
0
10
92.605706935262688
20
16.533817665672291
30
0
10
92.049979046678558
20
16.027126118993749
30
0
10
91.461563727426537
20
14.948362968397131
30
0
0
SPLINE
5
366
100
AcDbEntity
8
0
100
AcDbSpline
70
4
71
3
72
8
73
4
74
0
42
0.000000001
43
0.0000000001
44
0.0000000001
40
0
40
0
40
0
40
0
40
1
40
1
40
1
40
1
41
1
41
1
41
1
41
1
10
91.461563727426537
20
14.948362968397131
30
0
10
91.510597471380237
20
15.781952203321445
30
0
10
90.971215896081929
20
16.288643749999991
30
0
10
90.284730490970617
20
16.288643749999991
30
0
0
LINE
5
367
100
AcDbEntity
8
0
100
AcDbLine
10
90.284730490970603
20
16.288643749999991
30
0
11
89.908796460819246
21
16.288643749999991
31
0
0
SPLINE
5
368
100
AcDbEntity
8
0
100
AcDbSpline
70
4
71
3
72
8
73
4
74
0
42
0.000000001
43
0.0000000001
44
0.0000000001
40
0
40
0
40
0
40
0
40
1
40
1
40
1
40
1
41
1
41
1
41
1
41
1
10
89.908796460819246
20
16.288643749999991
30
0
10
90.203006718397148
20
15.961746061754219
30
0
10
90.137626661157611
20
15.520434572315205
30
0
10
89.908796460819246
20
14.735879081344594
30
0
0
SPLINE
5
369
100
AcDbEntity
8
0
100
AcDbSpline
70
4
71
3
72
8
73
4
74
0
42
0.000000001
43
0.0000000001
44
0.0000000001
40
0
40
0
40
0
40
0
40
1
40
1
40
1
40
1
41
1
41
1
41
1
41
1
10
89.908796460819246
20
14.735879081344594
30
0
10
89.679968858432773
20
13.951323590373983
30
0
10
88.405065536117576
20
9.7997185331344472
30
0
10
88.208927962350856
20
9.1459231566429011
30
0
0
SPLINE
5
370
100
AcDbEntity
8
0
100
AcDbSpline
70
4
71
3
72
8
73
4
74
0
42
0.000000001
43
0.0000000001
44
0.0000000001
40
0
40
0
40
0
40
0
40
1
40
1
40
1
40
1
41
1
41
1
41
1
41
1
10
88.208927962350856
20
9.1459231566429011
30
0
10
88.029134103918096
20
8.5248152108192343
30
0
10
87.898373989439023
20
8.2469538644790497
30
0
10
87.636856358432766
20
8.1161937499999848
30
0
0
SPLINE
5
371
100
AcDbEntity
8
0
100
AcDbSpline
70
4
71
3
72
8
73
4
74
0
42
0.000000001
43
0.0000000001
44
0.0000000001
40
0
40
0
40
0
40
0
40
1
40
1
40
1
40
1
41
1
41
1
41
1
41
1
10
105.42861811628343
20
3.6376936024665696
30
0
10
112.39155004711152
20
6.1057686806678646
30
0
10
113.38858682718279
20
14.359945051193229
30
0
10
115.43169932718278
20
20.521972579812996
30
0
0
SPLINE
5
372
100
AcDbEntity
8
0
100
AcDbSpline
70
4
71
3
72
8
73
4
74
0
42
0.000000001
43
0.0000000001
44
0.0000000001
40
0
40
0
40
0
40
0
40
1
40
1
40
1
40
1
41
1
41
1
41
1
41
1
10
115.43169932718278
20
20.521972579812996
30
0
10
115.84032078800203
20
21.780529588842384
30
0
10
116.37970236330034
20
23.153502997016901
30
0
10
117.60557194166185
20
23.709228287649147
30
0
0
LINE
5
373
100
AcDbEntity
8
0
100
AcDbLine
10
117.60557194166188
20
23.709228287649147
30
0
11
117.62191825494769
21
23.709228287649147
31
0
0
LINE
5
374
100
AcDbEntity
8
0
100
AcDbLine
10
117.62191825494769
20
23.709228287649147
30
0
11
117.65460568561554
21
23.725572002983085
31
0
0
SPLINE
5
375
100
AcDbEntity
8
0
100
AcDbSpline
70
4
71
3
72
8
73
4
74
0
42
0.000000001
43
0.0000000001
44
0.0000000001
40
0
40
0
40
0
40
0
40
1
40
1
40
1
40
1
41
1
41
1
41
1
41
1
10
117.65460568561556
20
23.725572002983085
30
0
10
118.14495351696017
20
23.872678430747982
30
0
10
117.81805323076249
20
24.608197579812998
30
0
10
117.37674433927538
20
24.412060006046289
30
0
0
SPLINE
5
376
100
AcDbEntity
8
0
100
AcDbSpline
70
4
71
3
72
8
73
4
74
0
42
0.000000001
43
0.0000000001
44
0.0000000001
40
0
40
0
40
0
40
0
40
1
40
1
40
1
40
1
41
1
41
1
41
1
41
1
10
117.37674433927538
20
24.412060006046289
30
0
10
116.5594962217331
20
24.052472289180749
30
0
10
115.72590698680881
20
23.856332117462152
30
0
10
114.8596303212166
20
23.660194543695443
30
0
0
SPLINE
5
377
100
AcDbEntity
8
0
100
AcDbSpline
70
4
71
3
72
8
73
4
74
0
42
0.000000001
43
0.0000000001
44
0.0000000001
40
0
40
0
40
0
40
0
40
1
40
1
40
1
40
1
41
1
41
1
41
1
41
1
10
114.8596303212166
20
23.660194543695443
30
0
10
111.98292339038851
20
23.006396569252008
30
0
10
109.1716017127037
20
23.365984286117545
30
0
10
106.39296746568682
20
22.221843676233284
30
0
0
SPLINE
5
378
100
AcDbEntity
8
0
100
AcDbSpline
70
4
71
3
72
8
73
4
74
0
42
0.000000001
43
0.0000000001
44
0.0000000001
40
0
40
0
40
0
40
0
40
1
40
1
40
1
40
1
41
1
41
1
41
1
41
1
10
106.39296746568682
20
22.221843676233284
30
0
10
103.85951233024599
20
21.17576795630454
30
0
10
102.33943509225846
20
17.776028361415857
30
0
10
104.25178747777942
20
15.324294400596607
30
0
0
SPLINE
5
379
100
AcDbEntity
8
0
100
AcDbSpline
70
4
71
3
72
8
73
4
74
0
42
0.000000001
43
0.0000000001
44
0.0000000001
40
0
40
0
40
0
40
0
40
1
40
1
40
1
40
1
41
1
41
1
41
1
41
1
10
104.25178747777942
20
15.324294400596607
30
0
10
105.16710308322908
20
14.14746116414069
30
0
10
107.92939101696015
20
14.507048881006233
30
0
10
107.53711067352296
20
16.108849891567225
30
0
0
SPLINE
5
380
100
AcDbEntity
8
0
100
AcDbSpline
70
4
71
3
72
8
73
4
74
0
42
0.000000001
43
0.0000000001
44
0.0000000001
40
0
40
0
40
0
40
0
40
1
40
1
40
1
40
1
41
1
41
1
41
1
41
1
10
107.53711067352296
20
16.108849891567225
30
0
10
107.39000944166186
20
16.762645268058769
30
0
10
106.60545395069124
20
16.680921495485297
30
0
10
106.19683248987199
20
16.239610006046288
30
0
0
SPLINE
5
381
100
AcDbEntity
8
0
100
AcDbSpline
70
4
71
3
72
8
73
4
74
0
42
0.000000001
43
0.0000000001
44
0.0000000001
40
0
40
0
40
0
40
0
40
1
40
1
40
1
40
1
41
1
41
1
41
1
41
1
10
106.19683248987199
20
16.239610006046288
30
0
10
104.3988939055443
20
14.310911307239525
30
0
10
103.54895835733416
20
17.56354707231521
30
0
10
104.69310156517031
20
19.116311740970602
30
0
0
SPLINE
5
382
100
AcDbEntity
8
0
100
AcDbSpline
70
4
71
3
72
8
73
4
74
0
42
0.000000001
43
0.0000000001
44
0.0000000001
40
0
40
0
40
0
40
0
40
1
40
1
40
1
40
1
41
1
41
1
41
1
41
1
10
104.69310156517031
20
19.116311740970602
30
0
10
106.14779874591829
20
21.077700468397133
30
0
10
107.96207844762804
20
21.371908128023136
30
0
10
109.87443083314898
20
21.878599674701682
30
0
0
SPLINE
5
383
100
AcDbEntity
8
0
100
AcDbSpline
70
4
71
3
72
8
73
4
74
0
42
0.000000001
43
0.0000000001
44
0.0000000001
40
0
40
0
40
0
40
0
40
1
40
1
40
1
40
1
41
1
41
1
41
1
41
1
10
109.87443083314898
20
21.878599674701682
30
0
10
111.85216847181323
20
22.401637534666055
30
0
10
113.96065583314896
20
22.793912682199469
30
0
10
115.97108090248111
20
23.284260513544076
30
0
0
SPLINE
5
384
100
AcDbEntity
8
0
100
AcDbSpline
70
4
71
3
72
8
73
4
74
0
42
0.000000001
43
0.0000000001
44
0.0000000001
40
0
40
0
40
0
40
0
40
1
40
1
40
1
40
1
41
1
41
1
41
1
41
1
10
115.97108090248111
20
23.284260513544076
30
0
10
111.62333567352297
20
18.740377710819235
30
0
10
111.68871573076248
20
12.022624891567219
30
0
10
108.66491276397707
20
7.0210842861175404
30
0
0
SPLINE
5
385
100
AcDbEntity
8
0
100
AcDbSpline
70
4
71
3
72
8
73
4
74
0
42
0.000000001
43
0.0000000001
44
0.0000000001
40
0
40
0
40
0
40
0
40
1
40
1
40
1
40
1
41
1
41
1
41
1
41
1
10
108.66491276397707
20
7.0210842861175404
30
0
10
107.09580178203584
20
4.4222438975334022
30
0
10
103.71240590248109
20
3.0819657138824308
30
0
10
101.03184433927538
20
4.7164567530631896
30
0
0
SPLINE
5
386
100
AcDbEntity
8
0
100
AcDbSpline
70
4
71
3
72
8
73
4
74
0
42
0.000000001
43
0.0000000001
44
0.0000000001
40
0
40
0
40
0
40
0
40
1
40
1
40
1
40
1
41
1
41
1
41
1
41
1
10
101.03184433927538
20
4.7164567530631896
30
0
10
99.005072956657443
20
5.9423211355209204
30
0
10
99.168525697708134
20
8.6555753252982992
30
0
10
101.26067194166185
20
8.8190254683971325
30
0
0
SPLINE
5
387
100
AcDbEntity
8
0
100
AcDbSpline
70
4
71
3
72
8
73
4
74
0
42
0.000000001
43
0.0000000001
44
0.0000000001
40
0
40
0
40
0
40
0
40
1
40
1
40
1
40
1
41
1
41
1
41
1
41
1
10
101.26067194166185
20
8.8190254683971325
30
0
10
102.76440286636355
20
8.9497829849243082
30
0
10
102.25770872173311
20
10.862137968397132
30
0
10
100.72129036636355
20
10.665997796678536
30
0
0
SPLINE
5
388
100
AcDbEntity
8
0
100
AcDbSpline
70
4
71
3
72
8
73
4
74
0
42
0.000000001
43
0.0000000001
44
0.0000000001
40
0
40
0
40
0
40
0
40
1
40
1
40
1
40
1
41
1
41
1
41
1
41
1
10
100.72129036636355
20
10.665997796678536
30
0
10
99.756941016960155
20
10.551583995485295
30
0
10
98.874318038082123
20
9.6689584186553823
30
0
10
98.596451495838181
20
8.7046090692520028
30
0
0
SPLINE
5
389
100
AcDbEntity
8
0
100
AcDbSpline
70
4
71
3
72
8
73
4
74
0
42
0.000000001
43
0.0000000001
44
0.0000000001
40
0
40
0
40
0
40
0
40
1
40
1
40
1
40
1
41
1
41
1
41
1
41
1
10
98.596451495838181
20
8.7046090692520028
30
0
10
97.435961974716193
20
4.6674178132057076
30
0
10
102.09426117658616
20
2.460857768058764
30
0
10
105.42861811628343
20
3.6376936024665696
30
0
0
SPLINE
5
390
100
AcDbEntity
8
0
100
AcDbSpline
70
4
71
3
72
8
73
4
74
0
42
0.000000001
43
0.0000000001
44
0.0000000001
40
0
40
0
40
0
40
0
40
1
40
1
40
1
40
1
41
1
41
1
41
1
41
1
10
118.5001143238068
20
7.8546761189937442
30
0
10
120.29805290813448
20
7.8546761189937442
30
0
10
121.26240225753787
20
10.306410079812993
30
0
10
121.89985132074358
20
12.235108778619757
30
0
0
LINE
5
391
100
AcDbEntity
8
0
100
AcDbLine
10
121.89985132074361
20
12.235108778619757
30
0
11
121.40950348939897
21
12.235108778619757
31
0
0
SPLINE
5
392
100
AcDbEntity
8
0
100
AcDbSpline
70
4
71
3
72
8
73
4
74
0
42
0.000000001
43
0.0000000001
44
0.0000000001
40
0
40
0
40
0
40
0
40
1
40
1
40
1
40
1
41
1
41
1
41
1
41
1
10
121.40950348939897
20
12.235108778619757
30
0
10
120.49419307985306
20
9.7997185331344472
30
0
10
119.92211887798312
20
9.1786131852626696
30
0
10
119.46446367321016
20
9.1786131852626696
30
0
0
SPLINE
5
393
100
AcDbEntity
8
0
100
AcDbSpline
70
4
71
3
72
8
73
4
74
0
42
0.000000001
43
0.0000000001
44
0.0000000001
40
0
40
0
40
0
40
0
40
1
40
1
40
1
40
1
41
1
41
1
41
1
41
1
10
119.46446367321016
20
9.1786131852626696
30
0
10
119.07218332977297
20
9.1786131852626696
30
0
10
119.02314958581925
20
9.4728208448886786
30
0
10
119.15390970029833
20
9.9141323343276877
30
0
0
SPLINE
5
394
100
AcDbEntity
8
0
100
AcDbSpline
70
4
71
3
72
8
73
4
74
0
42
0.000000001
43
0.0000000001
44
0.0000000001
40
0
40
0
40
0
40
0
40
1
40
1
40
1
40
1
41
1
41
1
41
1
41
1
10
119.15390970029833
20
9.9141323343276877
30
0
10
119.30101612806322
20
10.437170194292058
30
0
10
120.03653267917635
20
12.300488835859289
30
0
10
120.54322682380679
20
13.967667305707923
30
0
0
SPLINE
5
395
100
AcDbEntity
8
0
100
AcDbSpline
70
4
71
3
72
8
73
4
74
0
42
0.000000001
43
0.0000000001
44
0.0000000001
40
0
40
0
40
0
40
0
40
1
40
1
40
1
40
1
41
1
41
1
41
1
41
1
10
120.54322682380679
20
13.967667305707923
30
0
10
121.06626208581926
20
15.651192088842381
30
0
10
120.39612039604191
20
16.550161381006234
30
0
10
119.36639098939898
20
16.550161381006234
30
0
0
SPLINE
5
396
100
AcDbEntity
8
0
100
AcDbSpline
70
4
71
3
72
8
73
4
74
0
42
0.000000001
43
0.0000000001
44
0.0000000001
40
0
40
0
40
0
40
0
40
1
40
1
40
1
40
1
41
1
41
1
41
1
41
1
10
119.36639098939898
20
16.550161381006234
30
0
10
118.58184069433214
20
16.550161381006234
30
0
10
117.81362632074359
20
15.994436090373982
30
0
10
117.15983094425204
20
14.948362968397131
30
0
0
SPLINE
5
397
100
AcDbEntity
8
0
100
AcDbSpline
70
4
71
3
72
8
73
4
74
0
42
0.000000001
43
0.0000000001
44
0.0000000001
40
0
40
0
40
0
40
0
40
1
40
1
40
1
40
1
41
1
41
1
41
1
41
1
10
117.15983094425204
20
14.948362968397131
30
0
10
117.20886468820574
20
15.781952203321445
30
0
10
116.66948311290741
20
16.288643749999991
30
0
10
115.98300030574802
20
16.288643749999991
30
0
0
LINE
5
398
100
AcDbEntity
8
0
100
AcDbLine
10
115.98300030574802
20
16.288643749999991
30
0
11
115.60706627559665
21
16.288643749999991
31
0
0
SPLINE
5
399
100
AcDbEntity
8
0
100
AcDbSpline
70
4
71
3
72
8
73
4
74
0
42
0.000000001
43
0.0000000001
44
0.0000000001
40
0
40
0
40
0
40
0
40
1
40
1
40
1
40
1
41
1
41
1
41
1
41
1
10
115.60706627559665
20
16.288643749999991
30
0
10
115.95030767917635
20
15.896366004514686
30
0
10
115.83589387798311
20
15.520434572315205
30
0
10
115.60706627559665
20
14.735879081344594
30
0
0
SPLINE
5
400
100
AcDbEntity
8
0
100
AcDbSpline
70
4
71
3
72
8
73
4
74
0
42
0.000000001
43
0.0000000001
44
0.0000000001
40
0
40
0
40
0
40
0
40
1
40
1
40
1
40
1
41
1
41
1
41
1
41
1
10
115.60706627559665
20
14.735879081344594
30
0
10
115.42727241716386
20
14.098427420186987
30
0
10
114.18506172142031
20
10.012202420186984
30
0
10
113.61298751955033
20
8.1161937499999848
30
0
0
LINE
5
401
100
AcDbEntity
8
0
100
AcDbLine
10
113.61298751955034
20
8.1161937499999866
30
0
11
114.80616447134018
21
8.1161937499999848
31
0
0
SPLINE
5
402
100
AcDbEntity
8
0
100
AcDbSpline
70
4
71
3
72
8
73
4
74
0
42
0.000000001
43
0.0000000001
44
0.0000000001
40
0
40
0
40
0
40
0
40
1
40
1
40
1
40
1
41
1
41
1
41
1
41
1
10
114.8061644713402
20
8.1161937499999848
30
0
10
115.32920492925646
20
8.1161937499999848
30
0
10
115.59071996231081
20
8.5084714954852902
30
0
10
115.70513376350405
20
9.0151630421638362
30
0
0
SPLINE
5
403
100
AcDbEntity
8
0
100
AcDbSpline
70
4
71
3
72
8
73
4
74
0
42
0.000000001
43
0.0000000001
44
0.0000000001
40
0
40
0
40
0
40
0
40
1
40
1
40
1
40
1
41
1
41
1
41
1
41
1
10
115.70513376350405
20
9.0151630421638362
30
0
10
115.78686013402941
20
9.3584070436954381
30
0
10
116.26086165208818
20
10.927515427684774
30
0
10
116.66948311290741
20
12.447592665672293
30
0
0
SPLINE
5
404
100
AcDbEntity
8
0
100
AcDbSpline
70
4
71
3
72
8
73
4
74
0
42
0.000000001
43
0.0000000001
44
0.0000000001
40
0
40
0
40
0
40
0
40
1
40
1
40
1
40
1
41
1
41
1
41
1
41
1
10
116.66948311290741
20
12.447592665672293
30
0
10
117.32327848939897
20
14.392635079812992
30
0
10
118.15687292022707
20
15.651192088842381
30
0
10
118.84335572738649
20
15.651192088842381
30
0
0
SPLINE
5
405
100
AcDbEntity
8
0
100
AcDbSpline
70
4
71
3
72
8
73
4
74
0
42
0.000000001
43
0.0000000001
44
0.0000000001
40
0
40
0
40
0
40
0
40
1
40
1
40
1
40
1
41
1
41
1
41
1
41
1
10
118.84335572738649
20
15.651192088842381
30
0
10
119.21928975753787
20
15.651192088842381
30
0
10
119.36639098939898
20
15.258914343357075
30
0
10
119.12122226963047
20
14.490705165672292
30
0
0
SPLINE
5
406
100
AcDbEntity
8
0
100
AcDbSpline
70
4
71
3
72
8
73
4
74
0
42
0.000000001
43
0.0000000001
44
0.0000000001
40
0
40
0
40
0
40
0
40
1
40
1
40
1
40
1
41
1
41
1
41
1
41
1
10
119.12122226963047
20
14.490705165672292
30
0
10
118.84335572738649
20
13.591735873508441
30
0
10
117.94438643522264
20
11.859174748468391
30
0
10
117.45403860387803
20
10.306410079812993
30
0
0
SPLINE
5
407
100
AcDbEntity
8
0
100
AcDbSpline
70
4
71
3
72
8
73
4
74
0
42
0.000000001
43
0.0000000001
44
0.0000000001
40
0
40
0
40
0
40
0
40
1
40
1
40
1
40
1
41
1
41
1
41
1
41
1
10
117.45403860387803
20
10.306410079812993
30
0
10
117.04541714305878
20
9.0315093554496695
30
0
10
117.48673123044969
20
7.8546761189937442
30
0
10
118.5001143238068
20
7.8546761189937442
30
0
0
SPLINE
5
408
100
AcDbEntity
8
0
100
AcDbSpline
70
4
71
3
72
8
73
4
74
0
42
0.000000001
43
0.0000000001
44
0.0000000001
40
0
40
0
40
0
40
0
40
1
40
1
40
1
40
1
41
1
41
1
41
1
41
1
10
133.16795844087602
20
3.1309994578361344
30
0
10
137.43397729930879
20
2.7223779970168938
30
0
10
138.31660547409061
20
5.3702521295547356
30
0
10
137.66280490169527
20
6.4163252515315872
30
0
0
SPLINE
5
409
100
AcDbEntity
8
0
100
AcDbSpline
70
4
71
3
72
8
73
4
74
0
42
0.000000001
43
0.0000000001
44
0.0000000001
40
0
40
0
40
0
40
0
40
1
40
1
40
1
40
1
41
1
41
1
41
1
41
1
10
137.66280490169527
20
6.4163252515315872
30
0
10
136.79652823610309
20
7.7892960617542162
30
0
10
135.0966571396828
20
6.0077011927604573
30
0
10
136.95997578125002
20
5.0923855873107815
30
0
0
SPLINE
5
410
100
AcDbEntity
8
0
100
AcDbSpline
70
4
71
3
72
8
73
4
74
0
42
0.000000001
43
0.0000000001
44
0.0000000001
40
0
40
0
40
0
40
0
40
1
40
1
40
1
40
1
41
1
41
1
41
1
41
1
10
136.95997578125002
20
5.0923855873107815
30
0
10
136.95997578125002
20
4.3241764096259949
30
0
10
135.37451848602296
20
3.9645886927604579
30
0
10
130.73257079334263
20
5.2558383283614951
30
0
0
SPLINE
5
411
100
AcDbEntity
8
0
100
AcDbSpline
70
4
71
3
72
8
73
4
74
0
42
0.000000001
43
0.0000000001
44
0.0000000001
40
0
40
0
40
0
40
0
40
1
40
1
40
1
40
1
41
1
41
1
41
1
41
1
10
130.73257079334263
20
5.2558383283614951
30
0
10
128.93463220901492
20
5.7625272770881519
30
0
10
127.13668842878346
20
6.6124628252982998
30
0
10
125.32240872707369
20
7.0701206280231332
30
0
0
LINE
5
412
100
AcDbEntity
8
0
100
AcDbLine
10
125.32240872707368
20
7.0701206280231341
30
0
11
127.80683011856082
21
16.288643749999988
31
0
0
LINE
5
413
100
AcDbEntity
8
0
100
AcDbLine
10
127.80683011856082
20
16.288643749999988
30
0
11
126.10696421804428
21
16.288643749999991
31
0
0
LINE
5
414
100
AcDbEntity
8
0
100
AcDbLine
10
126.10696421804428
20
16.288643749999991
30
0
11
125.89447773303988
21
15.536778287649147
31
0
0
SPLINE
5
415
100
AcDbEntity
8
0
100
AcDbSpline
70
4
71
3
72
8
73
4
74
0
42
0.000000001
43
0.0000000001
44
0.0000000001
40
0
40
0
40
0
40
0
40
1
40
1
40
1
40
1
41
1
41
1
41
1
41
1
10
125.89447773303988
20
15.536778287649145
30
0
10
125.81275655841829
20
16.092506176233282
30
0
10
125.51854370288851
20
16.533817665672291
30
0
10
124.93012838363651
20
16.533817665672291
30
0
0
SPLINE
5
416
100
AcDbEntity
8
0
100
AcDbSpline
70
4
71
3
72
8
73
4
74
0
42
0.000000001
43
0.0000000001
44
0.0000000001
40
0
40
0
40
0
40
0
40
1
40
1
40
1
40
1
41
1
41
1
41
1
41
1
10
124.93012838363651
20
16.533817665672291
30
0
10
123.99847166080477
20
16.533817665672291
30
0
10
122.26591313371659
20
15.111810513544075
30
0
10
121.41597758550645
20
12.267798807239521
30
0
0
SPLINE
5
417
100
AcDbEntity
8
0
100
AcDbSpline
70
4
71
3
72
8
73
4
74
0
42
0.000000001
43
0.0000000001
44
0.0000000001
40
0
40
0
40
0
40
0
40
1
40
1
40
1
40
1
41
1
41
1
41
1
41
1
10
121.41597758550645
20
12.267798807239521
30
0
10
120.56604203729631
20
9.4237845029830858
30
0
10
121.23618372707369
20
7.8546761189937442
30
0
10
122.36398062162401
20
7.8546761189937442
30
0
0
SPLINE
5
418
100
AcDbEntity
8
0
100
AcDbSpline
70
4
71
3
72
8
73
4
74
0
42
0.000000001
43
0.0000000001
44
0.0000000001
40
0
40
0
40
0
40
0
40
1
40
1
40
1
40
1
41
1
41
1
41
1
41
1
10
122.36398062162401
20
7.8546761189937442
30
0
10
123.0341223114014
20
7.8546761189937442
30
0
10
123.65522506132126
20
8.3777113810062254
30
0
10
124.1619192059517
20
9.1459231566429011
30
0
0
LINE
5
419
100
AcDbEntity
8
0
100
AcDbLine
10
124.1619192059517
20
9.1459231566429011
30
0
11
123.6225376306534
21
7.1681907138824332
31
0
0
SPLINE
5
420
100
AcDbEntity
8
0
100
AcDbSpline
70
4
71
3
72
8
73
4
74
0
42
0.000000001
43
0.0000000001
44
0.0000000001
40
0
40
0
40
0
40
0
40
1
40
1
40
1
40
1
41
1
41
1
41
1
41
1
10
123.6225376306534
20
7.1681907138824386
30
0
10
122.83798213968279
20
7.1355006852626701
30
0
10
122.05342664871218
20
6.9393605135440684
30
0
10
121.25252484445575
20
6.5470827680587629
30
0
0
SPLINE
5
421
100
AcDbEntity
8
0
100
AcDbSpline
70
4
71
3
72
8
73
4
74
0
42
0.000000001
43
0.0000000001
44
0.0000000001
40
0
40
0
40
0
40
0
40
1
40
1
40
1
40
1
41
1
41
1
41
1
41
1
10
121.25252484445575
20
6.5470827680587629
30
0
10
120.23914175109866
20
6.0403938193321149
30
0
10
119.76514023303989
20
5.0760444699287266
30
0
10
119.69976017580035
20
4.3568690361976525
30
0
0
SPLINE
5
422
100
AcDbEntity
8
0
100
AcDbSpline
70
4
71
3
72
8
73
4
74
0
42
0.000000001
43
0.0000000001
44
0.0000000001
40
0
40
0
40
0
40
0
40
1
40
1
40
1
40
1
41
1
41
1
41
1
41
1
10
119.69976017580035
20
4.3568690361976525
30
0
10
119.47093257341386
20
1.6926485903739774
30
0
10
123.75329774513247
20
1.4474746747016809
30
0
10
124.91378207035066
20
5.5336996747016798
30
0
0
LINE
5
423
100
AcDbEntity
8
0
100
AcDbLine
10
124.91378207035066
20
5.5336996747016807
30
0
11
125.09357592878344
21
6.1711487379073997
31
0
0
SPLINE
5
424
100
AcDbEntity
8
0
100
AcDbSpline
70
4
71
3
72
8
73
4
74
0
42
0.000000001
43
0.0000000001
44
0.0000000001
40
0
40
0
40
0
40
0
40
1
40
1
40
1
40
1
41
1
41
1
41
1
41
1
10
125.09357592878344
20
6.1711487379074015
30
0
10
126.74441328125002
20
5.5336996747016798
30
0
10
129.67014876012803
20
3.4578997440338011
30
0
10
133.16795844087602
20
3.1309994578361344
30
0
0
SPLINE
5
425
100
AcDbEntity
8
0
100
AcDbSpline
70
4
71
3
72
8
73
4
74
0
42
0.000000001
43
0.0000000001
44
0.0000000001
40
0
40
0
40
0
40
0
40
1
40
1
40
1
40
1
41
1
41
1
41
1
41
1
10
121.18714478721621
20
4.3405227229118193
30
0
10
121.53039138669969
20
5.7788735903739852
30
0
10
122.28225425109866
20
6.5143927394389944
30
0
10
123.50812382946017
20
6.4653589954852908
30
0
0
LINE
5
426
100
AcDbEntity
8
0
100
AcDbLine
10
123.50812382946017
20
6.4653589954852908
30
0
11
123.26294991378788
21
5.5500459879875033
31
0
0
SPLINE
5
427
100
AcDbEntity
8
0
100
AcDbSpline
70
4
71
3
72
8
73
4
74
0
42
0.000000001
43
0.0000000001
44
0.0000000001
40
0
40
0
40
0
40
0
40
1
40
1
40
1
40
1
41
1
41
1
41
1
41
1
10
123.26294991378786
20
5.5500459879875041
30
0
10
122.36398062162401
20
2.2156838523864586
30
0
10
120.76218220901492
20
2.5425841385841252
30
0
10
121.18714478721621
20
4.3405227229118193
30
0
0
SPLINE
5
428
100
AcDbEntity
8
0
100
AcDbSpline
70
4
71
3
72
8
73
4
74
0
42
0.000000001
43
0.0000000001
44
0.0000000001
40
0
40
0
40
0
40
0
40
1
40
1
40
1
40
1
41
1
41
1
41
1
41
1
10
123.05046342878343
20
12.235108778619757
30
0
10
123.60619131736757
20
14.212841221380224
30
0
10
124.63592072401049
20
15.422364486455908
30
0
10
125.15895598602297
20
15.422364486455908
30
0
0
SPLINE
5
429
100
AcDbEntity
8
0
100
AcDbSpline
70
4
71
3
72
8
73
4
74
0
42
0.000000001
43
0.0000000001
44
0.0000000001
40
0
40
0
40
0
40
0
40
1
40
1
40
1
40
1
41
1
41
1
41
1
41
1
10
125.15895598602297
20
15.422364486455908
30
0
10
125.68199644393923
20
15.422364486455908
30
0
10
125.6656501306534
20
14.686842739439001
30
0
10
125.53489001617434
20
14.212841221380224
30
0
0
LINE
5
430
100
AcDbEntity
8
0
100
AcDbLine
10
125.53489001617434
20
14.212841221380224
30
0
11
125.53489001617434
21
14.196497506046285
31
0
0
LINE
5
431
100
AcDbEntity
8
0
100
AcDbLine
10
125.53489001617434
20
14.196497506046285
30
0
11
124.75033452520373
21
11.270759429216373
31
0
0
LINE
5
432
100
AcDbEntity
8
0
100
AcDbLine
10
124.75033452520373
20
11.270759429216373
30
0
11
124.68495446796418
21
11.107309286117541
31
0
0
SPLINE
5
433
100
AcDbEntity
8
0
100
AcDbSpline
70
4
71
3
72
8
73
4
74
0
42
0.000000001
43
0.0000000001
44
0.0000000001
40
0
40
0
40
0
40
0
40
1
40
1
40
1
40
1
41
1
41
1
41
1
41
1
10
124.68495446796419
20
11.107309286117545
30
0
10
124.43978055229188
20
10.388133852386465
30
0
10
124.03115909147263
20
9.4564745316028453
30
0
10
123.44274377222064
20
9.4564745316028453
30
0
0
SPLINE
5
434
100
AcDbEntity
8
0
100
AcDbSpline
70
4
71
3
72
8
73
4
74
0
42
0.000000001
43
0.0000000001
44
0.0000000001
40
0
40
0
40
0
40
0
40
1
40
1
40
1
40
1
41
1
41
1
41
1
41
1
10
123.44274377222064
20
9.4564745316028453
30
0
10
122.85432845296862
20
9.4564745316028453
30
0
10
122.54377448005678
20
10.420823881006228
30
0
10
123.05046342878343
20
12.235108778619757
30
0
0
SPLINE
5
435
100
AcDbEntity
8
0
100
AcDbSpline
70
4
71
3
72
8
73
4
74
0
42
0.000000001
43
0.0000000001
44
0.0000000001
40
0
40
0
40
0
40
0
40
1
40
1
40
1
40
1
41
1
41
1
41
1
41
1
10
129.76277094087604
20
7.9854336355209199
30
0
10
131.5443632119179
20
7.9854336355209199
30
0
10
133.1625131337166
20
9.8650985903739841
30
0
10
133.78361588363649
20
12.235108778619757
30
0
0
LINE
5
436
100
AcDbEntity
8
0
100
AcDbLine
10
133.78361588363649
20
12.235108778619757
30
0
11
133.24423430833818
21
12.235108778619757
31
0
0
SPLINE
5
437
100
AcDbEntity
8
0
100
AcDbSpline
70
4
71
3
72
8
73
4
74
0
42
0.000000001
43
0.0000000001
44
0.0000000001
40
0
40
0
40
0
40
0
40
1
40
1
40
1
40
1
41
1
41
1
41
1
41
1
10
133.24423430833821
20
12.235108778619757
30
0
10
132.45967881736757
20
9.8324085617542156
30
0
10
131.20112180833817
20
9.0151630421638362
30
0
10
130.31849882946017
20
9.1786131852626696
30
0
0
SPLINE
5
438
100
AcDbEntity
8
0
100
AcDbSpline
70
4
71
3
72
8
73
4
74
0
42
0.000000001
43
0.0000000001
44
0.0000000001
40
0
40
0
40
0
40
0
40
1
40
1
40
1
40
1
41
1
41
1
41
1
41
1
10
130.31849882946017
20
9.1786131852626696
30
0
10
129.51759702520374
20
9.3257170150756696
30
0
10
129.1253218776703
20
10.51889396686553
30
0
10
129.35414948005678
20
11.859174748468391
30
0
0
SPLINE
5
439
100
AcDbEntity
8
0
100
AcDbSpline
70
4
71
3
72
8
73
4
74
0
42
0.000000001
43
0.0000000001
44
0.0000000001
40
0
40
0
40
0
40
0
40
1
40
1
40
1
40
1
41
1
41
1
41
1
41
1
10
129.35414948005678
20
11.859174748468391
30
0
10
133.12982050714496
20
11.49958703160285
30
0
10
134.20858365774157
20
16.550161381006234
30
0
10
131.5443632119179
20
16.550161381006234
30
0
0
SPLINE
5
440
100
AcDbEntity
8
0
100
AcDbSpline
70
4
71
3
72
8
73
4
74
0
42
0.000000001
43
0.0000000001
44
0.0000000001
40
0
40
0
40
0
40
0
40
1
40
1
40
1
40
1
41
1
41
1
41
1
41
1
10
131.5443632119179
20
16.550161381006234
30
0
10
129.64835713968279
20
16.550161381006234
30
0
10
128.12827990169527
20
14.16380747742652
30
0
10
127.73600475416185
20
12.202418749999989
30
0
0
SPLINE
5
441
100
AcDbEntity
8
0
100
AcDbSpline
70
4
71
3
72
8
73
4
74
0
42
0.000000001
43
0.0000000001
44
0.0000000001
40
0
40
0
40
0
40
0
40
1
40
1
40
1
40
1
41
1
41
1
41
1
41
1
10
127.73600475416185
20
12.202418749999989
30
0
10
127.26200323610307
20
9.8650985903739841
30
0
10
127.93214492588046
20
7.9854336355209199
30
0
10
129.76277094087604
20
7.9854336355209199
30
0
0
SPLINE
5
442
100
AcDbEntity
8
0
100
AcDbSpline
70
4
71
3
72
8
73
4
74
0
42
0.000000001
43
0.0000000001
44
0.0000000001
40
0
40
0
40
0
40
0
40
1
40
1
40
1
40
1
41
1
41
1
41
1
41
1
10
129.4522169679642
20
12.349522579812993
30
0
10
129.9425647993088
20
14.392635079812992
30
0
10
130.98864051923752
20
16.027126118993749
30
0
10
131.80588344087602
20
16.027126118993749
30
0
0
SPLINE
5
443
100
AcDbEntity
8
0
100
AcDbSpline
70
4
71
3
72
8
73
4
74
0
42
0.000000001
43
0.0000000001
44
0.0000000001
40
0
40
0
40
0
40
0
40
1
40
1
40
1
40
1
41
1
41
1
41
1
41
1
10
131.80588344087602
20
16.027126118993749
30
0
10
132.5740926185608
20
16.027126118993749
30
0
10
131.88760981140138
20
12.725456609964358
30
0
10
129.4522169679642
20
12.349522579812993
30
0
0
ENDSEC
0
SECTION
2
OBJECTS
0
DICTIONARY
5
C
100
AcDbDictionary
3
ACAD_GROUP
350
D
3
ACAD_MLINESTYLE
350
17
0
DICTIONARY
5
D
100
AcDbDictionary
0
DICTIONARY
5
1A
330
C
100
AcDbDictionary
0
DICTIONARY
5
17
100
AcDbDictionary
0
ENDSEC
0
EOF
