0
SECTION
2
HEADER
9
$INSUNITS
70
4
9
$ACADVER
1
AC1014
9
$HANDSEED
5
FFFF
0
ENDSEC
0
SECTION
2
TABLES
0
TABLE
2
VPORT
5
8
100
AcDbSymbolTable
0
ENDTAB
0
TABLE
2
LTYPE
5
5
100
AcDbSymbolTable
0
LTYPE
5
14
100
AcDbSymbolTableRecord
100
AcDbLinetypeTableRecord
2
BYBLOCK
70
0
0
LTYPE
5
15
100
AcDbSymbolTableRecord
100
AcDbLinetypeTableRecord
2
BYLAYER
70
0
0
ENDTAB
0
TABLE
2
LAYER
5
2
100
AcDbSymbolTable
70
2
0
LAYER
5
50
100
AcDbSymbolTableRecord
100
AcDbLayerTableRecord
2
0
70
0
6
CONTINUOUS
0
ENDTAB
0
TABLE
2
STYLE
5
3
100
AcDbSymbolTable
70
1
0
STYLE
5
11
100
AcDbSymbolTableRecord
100
AcDbTextStyleTableRecord
2
STANDARD
70
0
0
ENDTAB
0
TABLE
2
VIEW
5
6
100
AcDbSymbolTable
70
0
0
ENDTAB
0
TABLE
2
UCS
5
7
100
AcDbSymbolTable
70
0
0
ENDTAB
0
TABLE
2
APPID
5
9
100
AcDbSymbolTable
70
2
0
APPID
5
12
100
AcDbSymbolTableRecord
100
AcDbRegAppTableRecord
2
ACAD
70
0
0
ENDTAB
0
TABLE
2
DIMSTYLE
5
A
100
AcDbSymbolTable
70
1
0
ENDTAB
0
TABLE
2
BLOCK_RECORD
5
1
100
AcDbSymbolTable
70
1
0
BLOCK_RECORD
5
1F
100
AcDbSymbolTableRecord
100
AcDbBlockTableRecord
2
*MODEL_SPACE
0
BLOCK_RECORD
5
1B
100
AcDbSymbolTableRecord
100
AcDbBlockTableRecord
2
*PAPER_SPACE
0
ENDTAB
0
ENDSEC
0
SECTION
2
BLOCKS
0
BLOCK
5
20
100
AcDbEntity
100
AcDbBlockBegin
2
*MODEL_SPACE
0
ENDBLK
5
21
100
AcDbEntity
100
AcDbBlockEnd
0
BLOCK
5
1C
100
AcDbEntity
100
AcDbBlockBegin
2
*PAPER_SPACE
0
ENDBLK
5
1D
100
AcDbEntity
100
AcDbBlockEnd
0
ENDSEC
0
SECTION
2
ENTITIES
0
SPLINE
5
100
100
AcDbEntity
8
0
100
AcDbSpline
70
4
71
3
72
8
73
4
74
0
42
0.000000001
43
0.0000000001
44
0.0000000001
40
0
40
0
40
0
40
0
40
1
40
1
40
1
40
1
41
1
41
1
41
1
41
1
10
61.440031837248377
20
19.189498581921086
30
0
10
57.687642677723865
20
19.189498581921086
30
0
10
54.635181337248412
20
16.137037029539968
30
0
10
54.635181337248412
20
12.384648081921124
30
0
0
SPLINE
5
101
100
AcDbEntity
8
0
100
AcDbSpline
70
4
71
3
72
8
73
4
74
0
42
0.000000001
43
0.0000000001
44
0.0000000001
40
0
40
0
40
0
40
0
40
1
40
1
40
1
40
1
41
1
41
1
41
1
41
1
10
54.635181337248412
20
12.384648081921124
30
0
10
54.635181337248412
20
8.6322589223966091
30
0
10
57.687642889629544
20
5.5797975819211594
30
0
10
61.440031837248377
20
5.5797975819211585
30
0
0
SPLINE
5
102
100
AcDbEntity
8
0
100
AcDbSpline
70
4
71
3
72
8
73
4
74
0
42
0.000000001
43
0.0000000001
44
0.0000000001
40
0
40
0
40
0
40
0
40
1
40
1
40
1
40
1
41
1
41
1
41
1
41
1
10
61.440031837248377
20
5.5797975819211585
30
0
10
65.192420996772881
20
5.5797975819211594
30
0
10
68.244882337248342
20
8.6322589223966073
30
0
10
68.244882337248342
20
12.384648081921126
30
0
0
SPLINE
5
103
100
AcDbEntity
8
0
100
AcDbSpline
70
4
71
3
72
8
73
4
74
0
42
0.000000001
43
0.0000000001
44
0.0000000001
40
0
40
0
40
0
40
0
40
1
40
1
40
1
40
1
41
1
41
1
41
1
41
1
10
68.244882337248342
20
12.384648081921126
30
0
10
68.244882337248342
20
16.137037241445643
30
0
10
65.192420996772881
20
19.189498581921086
30
0
10
61.440031837248377
20
19.189498581921086
30
0
0
SPLINE
5
104
100
AcDbEntity
8
0
100
AcDbSpline
70
4
71
3
72
8
73
4
74
0
42
0.000000001
43
0.0000000001
44
0.0000000001
40
0
40
0
40
0
40
0
40
1
40
1
40
1
40
1
41
1
41
1
41
1
41
1
10
61.440031837248377
20
6.7130131628720822
30
0
10
58.312577927723851
20
6.7130131628720839
30
0
10
55.768397342010665
20
9.2571941723966056
30
0
10
55.768397342010665
20
12.384648081921124
30
0
0
SPLINE
5
105
100
AcDbEntity
8
0
100
AcDbSpline
70
4
71
3
72
8
73
4
74
0
42
0.000000001
43
0.0000000001
44
0.0000000001
40
0
40
0
40
0
40
0
40
1
40
1
40
1
40
1
41
1
41
1
41
1
41
1
10
55.768397342010665
20
12.384648081921124
30
0
10
55.768397342010665
20
15.512101991445642
30
0
10
58.312577927723851
20
18.056282577158822
30
0
10
61.440031837248377
20
18.056282577158822
30
0
0
SPLINE
5
106
100
AcDbEntity
8
0
100
AcDbSpline
70
4
71
3
72
8
73
4
74
0
42
0.000000001
43
0.0000000001
44
0.0000000001
40
0
40
0
40
0
40
0
40
1
40
1
40
1
40
1
41
1
41
1
41
1
41
1
10
61.440031837248377
20
18.056282577158822
30
0
10
64.567485746772903
20
18.056282577158822
30
0
10
67.111666756297424
20
15.512101991445643
30
0
10
67.111666756297424
20
12.384648081921126
30
0
0
SPLINE
5
107
100
AcDbEntity
8
0
100
AcDbSpline
70
4
71
3
72
8
73
4
74
0
42
0.000000001
43
0.0000000001
44
0.0000000001
40
0
40
0
40
0
40
0
40
1
40
1
40
1
40
1
41
1
41
1
41
1
41
1
10
67.111666756297424
20
12.384648081921126
30
0
10
67.111666756297424
20
9.2571941723966038
30
0
10
64.567485746772903
20
6.7130131628720822
30
0
10
61.440031837248377
20
6.7130131628720822
30
0
0
LINE
5
108
100
AcDbEntity
8
0
100
AcDbLine
10
61.79555021819931
20
13.251224877158849
30
0
11
61.79555021819931
21
15.098255727158838
31
0
0
SPLINE
5
109
100
AcDbEntity
8
0
100
AcDbSpline
70
4
71
3
72
8
73
4
74
0
42
0.000000001
43
0.0000000001
44
0.0000000001
40
0
40
0
40
0
40
0
40
1
40
1
40
1
40
1
41
1
41
1
41
1
41
1
10
61.79555021819931
20
15.09825572715884
30
0
10
62.101074118199321
20
14.964936122396571
30
0
10
62.289943099150236
20
14.714962022396572
30
0
10
62.362158008674768
20
14.342778531921113
30
0
0
LINE
5
110
100
AcDbEntity
8
0
100
AcDbLine
10
62.362158008674768
20
14.342778531921113
30
0
11
63.55647870867476
21
14.498318141445646
31
0
0
SPLINE
5
111
100
AcDbEntity
8
0
100
AcDbSpline
70
4
71
3
72
8
73
4
74
0
42
0.000000001
43
0.0000000001
44
0.0000000001
40
0
40
0
40
0
40
0
40
1
40
1
40
1
40
1
41
1
41
1
41
1
41
1
10
63.55647870867476
20
14.498318141445646
30
0
10
63.475931668199294
20
14.970491441445644
30
0
10
63.284285027723833
20
15.348230250970179
30
0
10
62.989870918199315
20
15.628756486683372
30
0
0
SPLINE
5
112
100
AcDbEntity
8
0
100
AcDbSpline
70
4
71
3
72
8
73
4
74
0
42
0.000000001
43
0.0000000001
44
0.0000000001
40
0
40
0
40
0
40
0
40
1
40
1
40
1
40
1
41
1
41
1
41
1
41
1
10
62.989870918199315
20
15.628756486683372
30
0
10
62.69267914915023
20
15.912060381921103
30
0
10
62.295498418199315
20
16.081487441445638
30
0
10
61.79555021819931
20
16.142592136683373
30
0
0
LINE
5
113
100
AcDbEntity
8
0
100
AcDbLine
10
61.795550218199296
20
16.142592136683373
30
0
11
61.79555021819931
21
16.609210541445634
31
0
0
LINE
5
114
100
AcDbEntity
8
0
100
AcDbLine
10
61.79555021819931
20
16.609210541445634
30
0
11
61.109510272961593
21
16.609210541445634
31
0
0
LINE
5
115
100
AcDbEntity
8
0
100
AcDbLine
10
61.109510272961593
20
16.609210541445634
30
0
11
61.109510272961593
21
16.142592136683373
31
0
0
SPLINE
5
116
100
AcDbEntity
8
0
100
AcDbSpline
70
4
71
3
72
8
73
4
74
0
42
0.000000001
43
0.0000000001
44
0.0000000001
40
0
40
0
40
0
40
0
40
1
40
1
40
1
40
1
41
1
41
1
41
1
41
1
10
61.109510272961593
20
16.142592136683373
30
0
10
60.567899722961592
20
16.089819784302236
30
0
10
60.134611537248396
20
15.88706314144564
30
0
10
59.806867208674788
20
15.534321996207909
30
0
0
SPLINE
5
117
100
AcDbEntity
8
0
100
AcDbSpline
70
4
71
3
72
8
73
4
74
0
42
0.000000001
43
0.0000000001
44
0.0000000001
40
0
40
0
40
0
40
0
40
1
40
1
40
1
40
1
41
1
41
1
41
1
41
1
10
59.806867208674788
20
15.534321996207909
30
0
10
59.481900963437056
20
15.184358086683375
30
0
10
59.318028799150248
20
14.748292241445643
30
0
10
59.318028799150248
20
14.231678931921113
30
0
0
SPLINE
5
118
100
AcDbEntity
8
0
100
AcDbSpline
70
4
71
3
72
8
73
4
74
0
42
0.000000001
43
0.0000000001
44
0.0000000001
40
0
40
0
40
0
40
0
40
1
40
1
40
1
40
1
41
1
41
1
41
1
41
1
10
59.318028799150248
20
14.231678931921113
30
0
10
59.318028799150248
20
13.720620941445652
30
0
10
59.462458194387978
20
13.287332331921117
30
0
10
59.75131740867478
20
12.929036291445657
30
0
0
SPLINE
5
119
100
AcDbEntity
8
0
100
AcDbSpline
70
4
71
3
72
8
73
4
74
0
42
0.000000001
43
0.0000000001
44
0.0000000001
40
0
40
0
40
0
40
0
40
1
40
1
40
1
40
1
41
1
41
1
41
1
41
1
10
59.75131740867478
20
12.929036291445657
30
0
10
60.040176199150245
20
12.570740250970193
30
0
10
60.492907153912519
20
12.304101041445659
30
0
10
61.109509849150243
20
12.129119510494732
30
0
0
LINE
5
120
100
AcDbEntity
8
0
100
AcDbLine
10
61.109509849150257
20
12.129119510494736
30
0
11
61.109509849150243
21
10.148768631921136
31
0
0
SPLINE
5
121
100
AcDbEntity
8
0
100
AcDbSpline
70
4
71
3
72
8
73
4
74
0
42
0.000000001
43
0.0000000001
44
0.0000000001
40
0
40
0
40
0
40
0
40
1
40
1
40
1
40
1
41
1
41
1
41
1
41
1
10
61.109509849150243
20
10.148768631921136
30
0
10
60.94008278962572
20
10.229315672396599
30
0
10
60.78454360391251
20
10.362635700970205
30
0
10
60.645669103912503
20
10.545949362872062
30
0
0
SPLINE
5
122
100
AcDbEntity
8
0
100
AcDbSpline
70
4
71
3
72
8
73
4
74
0
42
0.000000001
43
0.0000000001
44
0.0000000001
40
0
40
0
40
0
40
0
40
1
40
1
40
1
40
1
41
1
41
1
41
1
41
1
10
60.645669103912503
20
10.545949362872062
30
0
10
60.506794603912518
20
10.729263872396597
30
0
10
60.412360113437053
20
10.945907753347521
30
0
10
60.362365208674788
20
11.198659512872053
30
0
0
LINE
5
123
100
AcDbEntity
8
0
100
AcDbLine
10
60.362365208674788
20
11.198659512872053
30
0
11
59.129159818199319
21
11.06534033192113
31
0
0
SPLINE
5
124
100
AcDbEntity
8
0
100
AcDbSpline
70
4
71
3
72
8
73
4
74
0
42
0.000000001
43
0.0000000001
44
0.0000000001
40
0
40
0
40
0
40
0
40
1
40
1
40
1
40
1
41
1
41
1
41
1
41
1
10
59.129159818199319
20
11.06534033192113
30
0
10
59.223594308674777
20
10.445960400970208
30
0
10
59.440238613437046
20
9.9654541223966024
30
0
10
59.781869968199317
20
9.6238231914456733
30
0
0
SPLINE
5
125
100
AcDbEntity
8
0
100
AcDbSpline
70
4
71
3
72
8
73
4
74
0
42
0.000000001
43
0.0000000001
44
0.0000000001
40
0
40
0
40
0
40
0
40
1
40
1
40
1
40
1
41
1
41
1
41
1
41
1
10
59.781869968199317
20
9.6238231914456733
30
0
10
60.123501322961587
20
9.2821922604947495
30
0
10
60.565122063437052
20
9.0794349819211408
30
0
10
61.109510272961593
20
9.0155530509702135
30
0
0
LINE
5
126
100
AcDbEntity
8
0
100
AcDbLine
10
61.109510272961593
20
9.0155530509702135
30
0
11
61.109510272961593
21
8.1545311509702181
31
0
0
LINE
5
127
100
AcDbEntity
8
0
100
AcDbLine
10
61.109510272961593
20
8.1545311509702181
30
0
11
61.79555021819931
21
8.1545311509702181
31
0
0
LINE
5
128
100
AcDbEntity
8
0
100
AcDbLine
10
61.79555021819931
20
8.1545311509702181
30
0
11
61.79555021819931
21
9.0377726319211398
31
0
0
SPLINE
5
129
100
AcDbEntity
8
0
100
AcDbSpline
70
4
71
3
72
8
73
4
74
0
42
0.000000001
43
0.0000000001
44
0.0000000001
40
0
40
0
40
0
40
0
40
1
40
1
40
1
40
1
41
1
41
1
41
1
41
1
10
61.79555021819931
20
9.0377726319211398
30
0
10
62.409375677723844
20
9.1266526509702111
30
0
10
62.889881108674771
20
9.3655161128720685
30
0
10
63.234289699150239
20
9.7571423723966024
30
0
0
SPLINE
5
130
100
AcDbEntity
8
0
100
AcDbSpline
70
4
71
3
72
8
73
4
74
0
42
0.000000001
43
0.0000000001
44
0.0000000001
40
0
40
0
40
0
40
0
40
1
40
1
40
1
40
1
41
1
41
1
41
1
41
1
10
63.234289699150239
20
9.7571423723966024
30
0
10
63.578698289625699
20
10.148768631921136
30
0
10
63.750903008674761
20
10.629274062872064
30
0
10
63.750903008674761
20
11.198659512872053
30
0
0
SPLINE
5
131
100
AcDbEntity
8
0
100
AcDbSpline
70
4
71
3
72
8
73
4
74
0
42
0.000000001
43
0.0000000001
44
0.0000000001
40
0
40
0
40
0
40
0
40
1
40
1
40
1
40
1
41
1
41
1
41
1
41
1
10
63.750903008674761
20
11.198659512872053
30
0
10
63.750903008674761
20
11.709717503347516
30
0
10
63.614806168199294
20
12.126341003347516
30
0
10
63.339834827723827
20
12.454084908109785
30
0
0
SPLINE
5
132
100
AcDbEntity
8
0
100
AcDbSpline
70
4
71
3
72
8
73
4
74
0
42
0.000000001
43
0.0000000001
44
0.0000000001
40
0
40
0
40
0
40
0
40
1
40
1
40
1
40
1
41
1
41
1
41
1
41
1
10
63.339834827723827
20
12.454084908109785
30
0
10
63.064863487248388
20
12.78182881287205
30
0
10
62.551027837248384
20
13.045690362872049
30
0
10
61.79555021819931
20
13.251224877158849
30
0
0
LWPOLYLINE
5
133
100
AcDbEntity
8
0
100
AcDbPolyline
90
2
70
1
43
0.0
10
61.109510272961572
20
15.114920412872037
0
LINE
5
134
100
AcDbEntity
8
0
100
AcDbLine
10
61.79555021819931
20
10.084886700970211
30
0
11
61.79555021819931
21
11.929139891445661
31
0
0
SPLINE
5
135
100
AcDbEntity
8
0
100
AcDbSpline
70
4
71
3
72
8
73
4
74
0
42
0.000000001
43
0.0000000001
44
0.0000000001
40
0
40
0
40
0
40
0
40
1
40
1
40
1
40
1
41
1
41
1
41
1
41
1
10
61.79555021819931
20
11.92913989144566
30
0
10
62.80100193724838
20
11.734715591445662
30
0
10
62.714899577723848
20
10.276533341445671
30
0
10
61.79555021819931
20
10.084886700970211
30
0
0
SPLINE
5
136
100
AcDbEntity
8
0
100
AcDbSpline
70
4
71
3
72
8
73
4
74
0
42
0.000000001
43
0.0000000001
44
0.0000000001
40
0
40
0
40
0
40
0
40
1
40
1
40
1
40
1
41
1
41
1
41
1
41
1
10
148.6456691039125
20
10.545949362872062
30
0
10
148.50679460391251
20
10.729263872396597
30
0
10
148.41236011343707
20
10.945907753347521
30
0
10
148.36236520867482
20
11.198659512872053
30
0
0
SPLINE
5
137
100
AcDbEntity
8
0
100
AcDbSpline
70
4
71
3
72
8
73
4
74
0
42
0.000000001
43
0.0000000001
44
0.0000000001
40
0
40
0
40
0
40
0
40
1
40
1
40
1
40
1
41
1
41
1
41
1
41
1
10
149.79555021819931
20
9.0377726319211398
30
0
10
150.40937567772386
20
9.1266526509702111
30
0
10
150.88988110867479
20
9.3655161128720685
30
0
10
151.23428969915025
20
9.7571423723966024
30
0
0
SPLINE
5
138
100
AcDbEntity
8
0
100
AcDbSpline
70
4
71
3
72
8
73
4
74
0
42
0.000000001
43
0.0000000001
44
0.0000000001
40
0
40
0
40
0
40
0
40
1
40
1
40
1
40
1
41
1
41
1
41
1
41
1
10
151.75090300867478
20
11.198659512872053
30
0
10
151.75090300867478
20
11.709717503347516
30
0
10
151.61480616819929
20
12.126341003347516
30
0
10
151.33983482772382
20
12.454084908109785
30
0
0
SPLINE
5
139
100
AcDbEntity
8
0
100
AcDbSpline
70
4
71
3
72
8
73
4
74
0
42
0.000000001
43
0.0000000001
44
0.0000000001
40
0
40
0
40
0
40
0
40
1
40
1
40
1
40
1
41
1
41
1
41
1
41
1
10
147.78186996819932
20
9.6238231914456733
30
0
10
148.1235013229616
20
9.2821922604947495
30
0
10
148.56512206343706
20
9.0794349819211408
30
0
10
149.10951027296161
20
9.0155530509702135
30
0
0
LINE
5
140
100
AcDbEntity
8
0
100
AcDbLine
10
149.10951027296159
20
15.114920412872037
30
0
11
149.10951027296161
21
13.478978972396582
31
0
0
LINE
5
141
100
AcDbEntity
8
0
100
AcDbLine
10
149.10950984915024
20
12.129119510494736
30
0
11
149.10950984915024
21
10.148768631921136
31
0
0
LWPOLYLINE
5
142
100
AcDbEntity
8
0
100
AcDbPolyline
90
2
70
1
43
0.0
10
149.79555021819931
20
10.084886700970211
0
LINE
5
143
100
AcDbEntity
8
0
100
AcDbLine
10
150.36215800867478
20
14.342778531921113
30
0
11
151.55647870867477
21
14.498318141445646
31
0
0
LINE
5
144
100
AcDbEntity
8
0
100
AcDbLine
10
149.79555021819931
20
8.1545311509702181
30
0
11
149.79555021819931
21
9.0377726319211398
31
0
0
SPLINE
5
145
100
AcDbEntity
8
0
100
AcDbSpline
70
4
71
3
72
8
73
4
74
0
42
0.000000001
43
0.0000000001
44
0.0000000001
40
0
40
0
40
0
40
0
40
1
40
1
40
1
40
1
41
1
41
1
41
1
41
1
10
149.79555021819931
20
15.09825572715884
30
0
10
150.10107411819934
20
14.964936122396571
30
0
10
150.28994309915024
20
14.714962022396572
30
0
10
150.36215800867478
20
14.342778531921113
30
0
0
SPLINE
5
146
100
AcDbEntity
8
0
100
AcDbSpline
70
4
71
3
72
8
73
4
74
0
42
0.000000001
43
0.0000000001
44
0.0000000001
40
0
40
0
40
0
40
0
40
1
40
1
40
1
40
1
41
1
41
1
41
1
41
1
10
147.31802879915026
20
14.231678931921113
30
0
10
147.31802879915026
20
13.720620941445652
30
0
10
147.46245819438798
20
13.287332331921117
30
0
10
147.75131740867479
20
12.929036291445657
30
0
0
SPLINE
5
147
100
AcDbEntity
8
0
100
AcDbSpline
70
4
71
3
72
8
73
4
74
0
42
0.000000001
43
0.0000000001
44
0.0000000001
40
0
40
0
40
0
40
0
40
1
40
1
40
1
40
1
41
1
41
1
41
1
41
1
10
147.80686720867479
20
15.534321996207909
30
0
10
147.48190096343706
20
15.184358086683375
30
0
10
147.31802879915026
20
14.748292241445643
30
0
10
147.31802879915026
20
14.231678931921113
30
0
0
SPLINE
5
148
100
AcDbEntity
8
0
100
AcDbSpline
70
4
71
3
72
8
73
4
74
0
42
0.000000001
43
0.0000000001
44
0.0000000001
40
0
40
0
40
0
40
0
40
1
40
1
40
1
40
1
41
1
41
1
41
1
41
1
10
155.11166675629741
20
12.384648081921126
30
0
10
155.11166675629741
20
9.2571941723966038
30
0
10
152.56748574677292
20
6.7130131628720822
30
0
10
149.4400318372484
20
6.7130131628720822
30
0
0
SPLINE
5
149
100
AcDbEntity
8
0
100
AcDbSpline
70
4
71
3
72
8
73
4
74
0
42
0.000000001
43
0.0000000001
44
0.0000000001
40
0
40
0
40
0
40
0
40
1
40
1
40
1
40
1
41
1
41
1
41
1
41
1
10
149.4400318372484
20
19.189498581921086
30
0
10
145.68764267772389
20
19.189498581921086
30
0
10
142.63518133724841
20
16.137037029539968
30
0
10
142.63518133724841
20
12.384648081921124
30
0
0
LINE
5
150
100
AcDbEntity
8
0
100
AcDbLine
10
148.36236520867482
20
11.198659512872053
30
0
11
147.12915981819933
21
11.06534033192113
31
0
0
LINE
5
151
100
AcDbEntity
8
0
100
AcDbLine
10
149.79555021819931
20
16.142592136683373
30
0
11
149.79555021819931
21
16.609210541445634
31
0
0
SPLINE
5
152
100
AcDbEntity
8
0
100
AcDbSpline
70
4
71
3
72
8
73
4
74
0
42
0.000000001
43
0.0000000001
44
0.0000000001
40
0
40
0
40
0
40
0
40
1
40
1
40
1
40
1
41
1
41
1
41
1
41
1
10
151.55647870867477
20
14.498318141445646
30
0
10
151.47593166819931
20
14.970491441445644
30
0
10
151.28428502772383
20
15.348230250970179
30
0
10
150.98987091819933
20
15.628756486683372
30
0
0
LINE
5
153
100
AcDbEntity
8
0
100
AcDbLine
10
149.10951027296161
20
9.0155530509702135
30
0
11
149.10951027296161
21
8.1545311509702181
31
0
0
SPLINE
5
154
100
AcDbEntity
8
0
100
AcDbSpline
70
4
71
3
72
8
73
4
74
0
42
0.000000001
43
0.0000000001
44
0.0000000001
40
0
40
0
40
0
40
0
40
1
40
1
40
1
40
1
41
1
41
1
41
1
41
1
10
149.10951027296161
20
16.142592136683373
30
0
10
148.56789972296158
20
16.089819784302236
30
0
10
148.13461153724842
20
15.88706314144564
30
0
10
147.80686720867479
20
15.534321996207909
30
0
0
SPLINE
5
155
100
AcDbEntity
8
0
100
AcDbSpline
70
4
71
3
72
8
73
4
74
0
42
0.000000001
43
0.0000000001
44
0.0000000001
40
0
40
0
40
0
40
0
40
1
40
1
40
1
40
1
41
1
41
1
41
1
41
1
10
149.4400318372484
20
5.5797975819211585
30
0
10
153.19242099677291
20
5.5797975819211594
30
0
10
156.24488233724836
20
8.6322589223966073
30
0
10
156.24488233724836
20
12.384648081921126
30
0
0
SPLINE
5
156
100
AcDbEntity
8
0
100
AcDbSpline
70
4
71
3
72
8
73
4
74
0
42
0.000000001
43
0.0000000001
44
0.0000000001
40
0
40
0
40
0
40
0
40
1
40
1
40
1
40
1
41
1
41
1
41
1
41
1
10
151.23428969915025
20
9.7571423723966024
30
0
10
151.57869828962572
20
10.148768631921136
30
0
10
151.75090300867478
20
10.629274062872064
30
0
10
151.75090300867478
20
11.198659512872053
30
0
0
SPLINE
5
157
100
AcDbEntity
8
0
100
AcDbSpline
70
4
71
3
72
8
73
4
74
0
42
0.000000001
43
0.0000000001
44
0.0000000001
40
0
40
0
40
0
40
0
40
1
40
1
40
1
40
1
41
1
41
1
41
1
41
1
10
149.10950984915024
20
10.148768631921136
30
0
10
148.94008278962573
20
10.229315672396599
30
0
10
148.78454360391254
20
10.362635700970205
30
0
10
148.6456691039125
20
10.545949362872062
30
0
0
SPLINE
5
158
100
AcDbEntity
8
0
100
AcDbSpline
70
4
71
3
72
8
73
4
74
0
42
0.000000001
43
0.0000000001
44
0.0000000001
40
0
40
0
40
0
40
0
40
1
40
1
40
1
40
1
41
1
41
1
41
1
41
1
10
151.33983482772382
20
12.454084908109785
30
0
10
151.0648634872484
20
12.78182881287205
30
0
10
150.5510278372484
20
13.045690362872049
30
0
10
149.79555021819931
20
13.251224877158849
30
0
0
LINE
5
159
100
AcDbEntity
8
0
100
AcDbLine
10
149.79555021819931
20
13.251224877158849
30
0
11
149.79555021819931
21
15.098255727158838
31
0
0
LINE
5
160
100
AcDbEntity
8
0
100
AcDbLine
10
149.10951027296161
20
8.1545311509702181
30
0
11
149.79555021819931
21
8.1545311509702181
31
0
0
SPLINE
5
161
100
AcDbEntity
8
0
100
AcDbSpline
70
4
71
3
72
8
73
4
74
0
42
0.000000001
43
0.0000000001
44
0.0000000001
40
0
40
0
40
0
40
0
40
1
40
1
40
1
40
1
41
1
41
1
41
1
41
1
10
149.4400318372484
20
18.056282577158822
30
0
10
152.56748574677292
20
18.056282577158822
30
0
10
155.11166675629741
20
15.512101991445643
30
0
10
155.11166675629741
20
12.384648081921126
30
0
0
SPLINE
5
162
100
AcDbEntity
8
0
100
AcDbSpline
70
4
71
3
72
8
73
4
74
0
42
0.000000001
43
0.0000000001
44
0.0000000001
40
0
40
0
40
0
40
0
40
1
40
1
40
1
40
1
41
1
41
1
41
1
41
1
10
149.10951027296161
20
13.478978972396582
30
0
10
148.10683663724842
20
13.806722877158846
30
0
10
148.43735777772389
20
15.114920412872035
30
0
10
149.10951027296161
20
15.114920412872035
30
0
0
SPLINE
5
163
100
AcDbEntity
8
0
100
AcDbSpline
70
4
71
3
72
8
73
4
74
0
42
0.000000001
43
0.0000000001
44
0.0000000001
40
0
40
0
40
0
40
0
40
1
40
1
40
1
40
1
41
1
41
1
41
1
41
1
10
150.98987091819933
20
15.628756486683372
30
0
10
150.69267914915025
20
15.912060381921103
30
0
10
150.29549841819932
20
16.081487441445638
30
0
10
149.79555021819931
20
16.142592136683373
30
0
0
SPLINE
5
164
100
AcDbEntity
8
0
100
AcDbSpline
70
4
71
3
72
8
73
4
74
0
42
0.000000001
43
0.0000000001
44
0.0000000001
40
0
40
0
40
0
40
0
40
1
40
1
40
1
40
1
41
1
41
1
41
1
41
1
10
147.12915981819933
20
11.06534033192113
30
0
10
147.22359430867476
20
10.445960400970208
30
0
10
147.44023861343706
20
9.9654541223966024
30
0
10
147.78186996819932
20
9.6238231914456733
30
0
0
LINE
5
165
100
AcDbEntity
8
0
100
AcDbLine
10
149.10951027296161
20
16.609210541445634
30
0
11
149.10951027296161
21
16.142592136683373
31
0
0
SPLINE
5
166
100
AcDbEntity
8
0
100
AcDbSpline
70
4
71
3
72
8
73
4
74
0
42
0.000000001
43
0.0000000001
44
0.0000000001
40
0
40
0
40
0
40
0
40
1
40
1
40
1
40
1
41
1
41
1
41
1
41
1
10
149.4400318372484
20
6.7130131628720822
30
0
10
146.31257792772385
20
6.7130131628720839
30
0
10
143.76839734201067
20
9.2571941723966056
30
0
10
143.76839734201067
20
12.384648081921124
30
0
0
SPLINE
5
167
100
AcDbEntity
8
0
100
AcDbSpline
70
4
71
3
72
8
73
4
74
0
42
0.000000001
43
0.0000000001
44
0.0000000001
40
0
40
0
40
0
40
0
40
1
40
1
40
1
40
1
41
1
41
1
41
1
41
1
10
142.63518133724841
20
12.384648081921124
30
0
10
142.63518133724841
20
8.6322589223966091
30
0
10
145.68764288962956
20
5.5797975819211594
30
0
10
149.4400318372484
20
5.5797975819211585
30
0
0
SPLINE
5
168
100
AcDbEntity
8
0
100
AcDbSpline
70
4
71
3
72
8
73
4
74
0
42
0.000000001
43
0.0000000001
44
0.0000000001
40
0
40
0
40
0
40
0
40
1
40
1
40
1
40
1
41
1
41
1
41
1
41
1
10
147.75131740867479
20
12.929036291445657
30
0
10
148.04017619915027
20
12.570740250970193
30
0
10
148.49290715391251
20
12.304101041445659
30
0
10
149.10950984915024
20
12.129119510494732
30
0
0
LINE
5
169
100
AcDbEntity
8
0
100
AcDbLine
10
149.79555021819931
20
16.609210541445634
30
0
11
149.10951027296161
21
16.609210541445634
31
0
0
SPLINE
5
170
100
AcDbEntity
8
0
100
AcDbSpline
70
4
71
3
72
8
73
4
74
0
42
0.000000001
43
0.0000000001
44
0.0000000001
40
0
40
0
40
0
40
0
40
1
40
1
40
1
40
1
41
1
41
1
41
1
41
1
10
156.24488233724836
20
12.384648081921126
30
0
10
156.24488233724836
20
16.137037241445643
30
0
10
153.19242099677291
20
19.189498581921086
30
0
10
149.4400318372484
20
19.189498581921086
30
0
0
SPLINE
5
171
100
AcDbEntity
8
0
100
AcDbSpline
70
4
71
3
72
8
73
4
74
0
42
0.000000001
43
0.0000000001
44
0.0000000001
40
0
40
0
40
0
40
0
40
1
40
1
40
1
40
1
41
1
41
1
41
1
41
1
10
143.76839734201067
20
12.384648081921124
30
0
10
143.76839734201067
20
15.512101991445642
30
0
10
146.31257792772385
20
18.056282577158822
30
0
10
149.4400318372484
20
18.056282577158822
30
0
0
ENDSEC
0
SECTION
2
OBJECTS
0
DICTIONARY
5
C
100
AcDbDictionary
3
ACAD_GROUP
350
D
3
ACAD_MLINESTYLE
350
17
0
DICTIONARY
5
D
100
AcDbDictionary
0
DICTIONARY
5
1A
330
C
100
AcDbDictionary
0
DICTIONARY
5
17
100
AcDbDictionary
0
ENDSEC
0
EOF
