                                                                        S      1
,,17HSwitch Spacers v3,17HSwitch Spacers v3,7Hunknown,7Hunknown,32,38,7,G      1
99,15,,1.,2,2HMM,1,0.08,15H20220922.115249,0.01,10000.,7Hunknown,7HunknoG      2
wn,11,0,15H20190814.095949;                                             G      3
     186       1                                                00000000D      1
     186             -51       1       0                               0D      2
     514       2                                                00010000D      3
     514                       1       1                               0D      4
     510       3                                                00010000D      5
     510             -51       1       1                               0D      6
     510       4                                                00010000D      7
     510             -51       1       1                               0D      8
     510       5                                                00010000D      9
     510             -51       1       1                               0D     10
     510       6                                                00010000D     11
     510             -51       1       1                               0D     12
     508       7                                                00010000D     13
     508                       1       1                               0D     14
     508       8                                                00010000D     15
     508                       1       1                               0D     16
     508       9                                                00010000D     17
     508                       1       1                               0D     18
     508      10                                                00010000D     19
     508                       1       1                               0D     20
     508      11                                                00010000D     21
     508                       1       1                               0D     22
     508      12                                                00010000D     23
     508                       1       1                               0D     24
     126      13                                                00010000D     25
     126       0              10       0                               0D     26
     126      23                                                00010000D     27
     126       0               2       0                               0D     28
     126      25                                                00010000D     29
     126       0               9       0                               0D     30
     126      34                                                00010000D     31
     126       0               9       0                               0D     32
     126      43                                                00010000D     33
     126       0               2       0                               0D     34
     126      45                                                00010000D     35
     126       0               9       0                               0D     36
     128      54                                                00010000D     37
     128       0     -51      12       0                               0D     38
     128      66                                                00010000D     39
     128       0     -51      11       0                               0D     40
     128      77                                                00010000D     41
     128       0     -51       3       0                               0D     42
     128      80                                                00010000D     43
     128       0     -51       3       0                               0D     44
     502      83                                                00010000D     45
     502                       2       1                               0D     46
     504      85                                                00010001D     47
     504                       2       1                               0D     48
     406      87                                                00000000D     49
     406                       1      15                               0D     50
     314      88                                                00000200D     51
     314                       2       0                               0D     52
186,3,1,0,0,1,49;                                                      1P      1
514,4,5,1,7,1,9,1,11,1;                                                3P      2
510,37,1,1,13;                                                         5P      3
510,39,1,1,15;                                                         7P      4
510,41,2,1,17,19;                                                      9P      5
510,43,2,1,21,23;                                                     11P      6
508,4,0,47,1,0,0,0,47,2,1,0,0,47,3,1,0,0,47,2,0,0;                    13P      7
508,4,0,47,4,0,0,0,47,5,1,0,0,47,6,1,0,0,47,5,0,0;                    15P      8
508,1,0,47,4,1,0;                                                     17P      9
508,1,0,47,1,1,0;                                                     19P     10
508,1,0,47,6,0,0;                                                     21P     11
508,1,0,47,3,0,0;                                                     23P     12
126,8,2,0,1,0,0,-3.14159265358979,-3.14159265358979,                  25P     13
-3.14159265358979,-1.5707963267949,-1.5707963267949,0.,0.,            25P     14
1.5707963267949,1.5707963267949,3.14159265358979,                     25P     15
3.14159265358979,3.14159265358979,1.,0.707106781186548,1.,            25P     16
0.707106781186547,1.,0.707106781186547,1.,0.707106781186548,1.,       25P     17
-3.5,4.28626379701574D-16,37.,-3.5,3.5,37.,2.14313189850787D-16,      25P     18
3.5,37.,3.5,3.5,37.,3.5,0.,37.,3.5,-3.5,37.,                          25P     19
2.14313189850787D-16,-3.5,37.,-3.5,-3.5,37.,-3.5,                     25P     20
-4.28626379701574D-16,37.,-3.14159265358979,3.14159265358979,0.,      25P     21
0.,0.;                                                                25P     22
126,1,1,0,0,1,0,-10.5714285714286,-10.5714285714286,0.,0.,1.,1.,      27P     23
-3.5,0.,37.,-3.5,0.,0.,-10.5714285714286,0.,0.,0.,0.;                 27P     24
126,8,2,0,1,0,0,-3.14159265358979,-3.14159265358979,                  29P     25
-3.14159265358979,-1.5707963267949,-1.5707963267949,0.,0.,            29P     26
1.5707963267949,1.5707963267949,3.14159265358979,                     29P     27
3.14159265358979,3.14159265358979,1.,0.707106781186548,1.,            29P     28
0.707106781186547,1.,0.707106781186547,1.,0.707106781186548,1.,       29P     29
-3.5,4.28626379701574D-16,0.,-3.5,3.5,0.,2.14313189850787D-16,        29P     30
3.5,0.,3.5,3.5,0.,3.5,0.,0.,3.5,-3.5,0.,2.14313189850787D-16,         29P     31
-3.5,0.,-3.5,-3.5,0.,-3.5,-4.28626379701574D-16,0.,                   29P     32
-3.14159265358979,3.14159265358979,0.,0.,0.;                          29P     33
126,8,2,0,1,0,0,-3.14159265358979,-3.14159265358979,                  31P     34
-3.14159265358979,-1.5707963267949,-1.5707963267949,0.,0.,            31P     35
1.5707963267949,1.5707963267949,3.14159265358979,                     31P     36
3.14159265358979,3.14159265358979,1.,0.707106781186548,1.,            31P     37
0.707106781186547,1.,0.707106781186547,1.,0.707106781186548,1.,       31P     38
-6.,-7.34788079488412D-16,37.,-6.,-6.,37.,3.67394039744206D-16,       31P     39
-6.,37.,6.,-6.,37.,6.,0.,37.,6.,6.,37.,3.67394039744206D-16,6.,       31P     40
37.,-6.,6.,37.,-6.,7.34788079488412D-16,37.,-3.14159265358979,        31P     41
3.14159265358979,0.,0.,0.;                                            31P     42
126,1,1,0,0,1,0,-6.16666666666667,-6.16666666666667,0.,0.,1.,1.,      33P     43
-6.,0.,37.,-6.,0.,0.,-6.16666666666667,0.,0.,0.,0.;                   33P     44
126,8,2,0,1,0,0,-3.14159265358979,-3.14159265358979,                  35P     45
-3.14159265358979,-1.5707963267949,-1.5707963267949,0.,0.,            35P     46
1.5707963267949,1.5707963267949,3.14159265358979,                     35P     47
3.14159265358979,3.14159265358979,1.,0.707106781186548,1.,            35P     48
0.707106781186547,1.,0.707106781186547,1.,0.707106781186548,1.,       35P     49
-6.,-7.34788079488412D-16,0.,-6.,-6.,0.,3.67394039744206D-16,         35P     50
-6.,0.,6.,-6.,0.,6.,0.,0.,6.,6.,0.,3.67394039744206D-16,6.,0.,        35P     51
-6.,6.,0.,-6.,7.34788079488412D-16,0.,-3.14159265358979,              35P     52
3.14159265358979,0.,0.,0.;                                            35P     53
128,1,8,1,2,0,1,0,0,1,0.,0.,10.5714285714286,10.5714285714286,        37P     54
-3.14159265358979,-3.14159265358979,-3.14159265358979,                37P     55
-1.5707963267949,-1.5707963267949,0.,0.,1.5707963267949,              37P     56
1.5707963267949,3.14159265358979,3.14159265358979,                    37P     57
3.14159265358979,1.,1.,0.707106781186548,0.707106781186548,1.,        37P     58
1.,0.707106781186548,0.707106781186548,1.,1.,0.707106781186548,       37P     59
0.707106781186548,1.,1.,0.707106781186548,0.707106781186548,1.,       37P     60
1.,-3.5,0.,0.,-3.5,0.,37.,-3.5,-3.5,0.,-3.5,-3.5,37.,0.,-3.5,0.,      37P     61
0.,-3.5,37.,3.5,-3.5,0.,3.5,-3.5,37.,3.5,0.,0.,3.5,0.,37.,3.5,        37P     62
3.5,0.,3.5,3.5,37.,0.,3.5,0.,0.,3.5,37.,-3.5,3.5,0.,-3.5,3.5,         37P     63
37.,-3.5,0.,0.,-3.5,0.,37.,0.,10.5714285714286,                       37P     64
-3.14159265358979,3.14159265358979;                                   37P     65
128,1,8,1,2,0,1,0,0,1,0.,0.,6.16666666666667,6.16666666666667,        39P     66
-3.14159265358979,-3.14159265358979,-3.14159265358979,                39P     67
-1.5707963267949,-1.5707963267949,0.,0.,1.5707963267949,              39P     68
1.5707963267949,3.14159265358979,3.14159265358979,                    39P     69
3.14159265358979,1.,1.,0.707106781186548,0.707106781186548,1.,        39P     70
1.,0.707106781186548,0.707106781186548,1.,1.,0.707106781186548,       39P     71
0.707106781186548,1.,1.,0.707106781186548,0.707106781186548,1.,       39P     72
1.,-6.,0.,37.,-6.,0.,0.,-6.,-6.,37.,-6.,-6.,0.,0.,-6.,37.,0.,         39P     73
-6.,0.,6.,-6.,37.,6.,-6.,0.,6.,0.,37.,6.,0.,0.,6.,6.,37.,6.,6.,       39P     74
0.,0.,6.,37.,0.,6.,0.,-6.,6.,37.,-6.,6.,0.,-6.,0.,37.,-6.,0.,0.,      39P     75
0.,6.16666666666667,-3.14159265358979,3.14159265358979;               39P     76
128,1,1,1,1,0,0,1,0,0,-0.601,-0.601,0.601,0.601,-0.601,-0.601,        41P     77
0.601,0.601,1.,1.,1.,1.,-6.01,-6.01,37.,6.01,-6.01,37.,-6.01,         41P     78
6.01,37.,6.01,6.01,37.,-0.601,0.601,-0.601,0.601;                     41P     79
128,1,1,1,1,0,0,1,0,0,-0.601,-0.601,0.601,0.601,-0.601,-0.601,        43P     80
0.601,0.601,1.,1.,1.,1.,6.01,-6.01,0.,-6.01,-6.01,0.,6.01,6.01,       43P     81
0.,-6.01,6.01,0.,-0.601,0.601,-0.601,0.601;                           43P     82
502,4,-3.5,-4.28626379701574D-16,37.,-3.5,-4.28626379701574D-16,      45P     83
0.,-6.,-7.34788079488412D-16,37.,-6.,-7.34788079488412D-16,0.;        45P     84
504,6,25,45,1,45,1,27,45,1,45,2,29,45,2,45,2,31,45,3,45,3,33,45,      47P     85
3,45,4,35,45,4,45,4;                                                  47P     86
406,1,5HBody1;                                                        49P     87
314,62.7450980392157,62.7450980392157,62.7450980392157,13HSteel       51P     88
- Satin;                                                              51P     89
S      1G      3D     52P     89                                        T      1
