0
SECTION
2
HEADER
9
$INSUNITS
70
4
9
$ACADVER
1
AC1014
9
$HANDSEED
5
FFFF
0
ENDSEC
0
SECTION
2
TABLES
0
TABLE
2
VPORT
5
8
100
AcDbSymbolTable
0
ENDTAB
0
TABLE
2
LTYPE
5
5
100
AcDbSymbolTable
0
LTYPE
5
14
100
AcDbSymbolTableRecord
100
AcDbLinetypeTableRecord
2
BYBLOCK
70
0
0
LTYPE
5
15
100
AcDbSymbolTableRecord
100
AcDbLinetypeTableRecord
2
BYLAYER
70
0
0
ENDTAB
0
TABLE
2
LAYER
5
2
100
AcDbSymbolTable
70
2
0
LAYER
5
50
100
AcDbSymbolTableRecord
100
AcDbLayerTableRecord
2
0
70
0
6
CONTINUOUS
0
ENDTAB
0
TABLE
2
STYLE
5
3
100
AcDbSymbolTable
70
1
0
STYLE
5
11
100
AcDbSymbolTableRecord
100
AcDbTextStyleTableRecord
2
STANDARD
70
0
0
ENDTAB
0
TABLE
2
VIEW
5
6
100
AcDbSymbolTable
70
0
0
ENDTAB
0
TABLE
2
UCS
5
7
100
AcDbSymbolTable
70
0
0
ENDTAB
0
TABLE
2
APPID
5
9
100
AcDbSymbolTable
70
2
0
APPID
5
12
100
AcDbSymbolTableRecord
100
AcDbRegAppTableRecord
2
ACAD
70
0
0
ENDTAB
0
TABLE
2
DIMSTYLE
5
A
100
AcDbSymbolTable
70
1
0
ENDTAB
0
TABLE
2
BLOCK_RECORD
5
1
100
AcDbSymbolTable
70
1
0
BLOCK_RECORD
5
1F
100
AcDbSymbolTableRecord
100
AcDbBlockTableRecord
2
*MODEL_SPACE
0
BLOCK_RECORD
5
1B
100
AcDbSymbolTableRecord
100
AcDbBlockTableRecord
2
*PAPER_SPACE
0
ENDTAB
0
ENDSEC
0
SECTION
2
BLOCKS
0
BLOCK
5
20
100
AcDbEntity
100
AcDbBlockBegin
2
*MODEL_SPACE
0
ENDBLK
5
21
100
AcDbEntity
100
AcDbBlockEnd
0
BLOCK
5
1C
100
AcDbEntity
100
AcDbBlockBegin
2
*PAPER_SPACE
0
ENDBLK
5
1D
100
AcDbEntity
100
AcDbBlockEnd
0
ENDSEC
0
SECTION
2
ENTITIES
0
SPLINE
5
100
100
AcDbEntity
8
0
100
AcDbSpline
70
4
71
3
72
8
73
4
74
0
42
0.000000001
43
0.0000000001
44
0.0000000001
40
0
40
0
40
0
40
0
40
1
40
1
40
1
40
1
41
1
41
1
41
1
41
1
10
220.05821490857244
20
22.270837821737253
30
0
10
220.05821490857244
20
23.114117086093433
30
0
10
220.43102813347841
20
23.810913466642766
30
0
10
221.176653472222
20
24.361255352314434
30
0
0
SPLINE
5
101
100
AcDbEntity
8
0
100
AcDbSpline
70
4
71
3
72
8
73
4
74
0
42
0.000000001
43
0.0000000001
44
0.0000000001
40
0
40
0
40
0
40
0
40
1
40
1
40
1
40
1
41
1
41
1
41
1
41
1
10
221.176653472222
20
24.361255352314434
30
0
10
221.92228452503122
20
24.920474311022414
30
0
10
222.90757500870043
20
25.200083813051268
30
0
10
224.13253100009302
20
25.200083813051268
30
0
0
SPLINE
5
102
100
AcDbEntity
8
0
100
AcDbSpline
70
4
71
3
72
8
73
4
74
0
42
0.000000001
43
0.0000000001
44
0.0000000001
40
0
40
0
40
0
40
0
40
1
40
1
40
1
40
1
41
1
41
1
41
1
41
1
10
224.13253100009302
20
25.200083813051268
30
0
10
224.78050205042624
20
25.200083813051268
30
0
10
225.3619189296185
20
25.133510118852751
30
0
10
225.87676168378979
20
25.000362753130577
30
0
0
SPLINE
5
103
100
AcDbEntity
8
0
100
AcDbSpline
70
4
71
3
72
8
73
4
74
0
42
0.000000001
43
0.0000000001
44
0.0000000001
40
0
40
0
40
0
40
0
40
1
40
1
40
1
40
1
41
1
41
1
41
1
41
1
10
225.87676168378979
20
25.000362753130577
30
0
10
226.39158520967683
20
24.876092483119582
30
0
10
226.79991052476765
20
24.71631564425298
30
0
10
227.10171767518239
20
24.52103214583131
30
0
0
SPLINE
5
104
100
AcDbEntity
8
0
100
AcDbSpline
70
4
71
3
72
8
73
4
74
0
42
0.000000001
43
0.0000000001
44
0.0000000001
40
0
40
0
40
0
40
0
40
1
40
1
40
1
40
1
41
1
41
1
41
1
41
1
10
227.10171767518239
20
24.52103214583131
30
0
10
227.40350523451502
20
24.325748692759372
30
0
10
227.65648560352241
20
24.099398137019389
30
0
10
227.86065733101327
20
23.841980569310806
30
0
0
SPLINE
5
105
100
AcDbEntity
8
0
100
AcDbSpline
70
4
71
3
72
8
73
4
74
0
42
0.000000001
43
0.0000000001
44
0.0000000001
40
0
40
0
40
0
40
0
40
1
40
1
40
1
40
1
41
1
41
1
41
1
41
1
10
227.86065733101327
20
23.841980569310806
30
0
10
228.19795771746385
20
23.398158390205957
30
0
10
228.36216653981302
20
22.901081300937957
30
0
10
228.35330266354731
20
22.350726082446513
30
0
0
SPLINE
5
106
100
AcDbEntity
8
0
100
AcDbSpline
70
4
71
3
72
8
73
4
74
0
42
0.000000001
43
0.0000000001
44
0.0000000001
40
0
40
0
40
0
40
0
40
1
40
1
40
1
40
1
41
1
41
1
41
1
41
1
10
228.35330266354731
20
22.350726082446513
30
0
10
228.35330266354731
20
21.809272652592661
30
0
10
228.14026705979074
20
21.325491196324322
30
0
10
227.71419585227761
20
20.899419626013376
30
0
0
SPLINE
5
107
100
AcDbEntity
8
0
100
AcDbSpline
70
4
71
3
72
8
73
4
74
0
42
0.000000001
43
0.0000000001
44
0.0000000001
40
0
40
0
40
0
40
0
40
1
40
1
40
1
40
1
41
1
41
1
41
1
41
1
10
227.71419585227761
20
20.899419626013376
30
0
10
227.28812391916887
20
20.473348055702431
30
0
10
226.77328116499754
20
20.251448575680151
30
0
10
226.16968572965453
20
20.233682729377932
30
0
0
SPLINE
5
108
100
AcDbEntity
8
0
100
AcDbSpline
70
4
71
3
72
8
73
4
74
0
42
0.000000001
43
0.0000000001
44
0.0000000001
40
0
40
0
40
0
40
0
40
1
40
1
40
1
40
1
41
1
41
1
41
1
41
1
10
226.16968572965453
20
20.233682729377932
30
0
10
226.9241753074617
20
20.180423647039881
30
0
10
227.57659752421205
20
19.931894807247488
30
0
10
228.1269523799057
20
19.488057390634324
30
0
0
SPLINE
5
109
100
AcDbEntity
8
0
100
AcDbSpline
70
4
71
3
72
8
73
4
74
0
42
0.000000001
43
0.0000000001
44
0.0000000001
40
0
40
0
40
0
40
0
40
1
40
1
40
1
40
1
41
1
41
1
41
1
41
1
10
228.1269523799057
20
19.488057390634324
30
0
10
228.68617111186501
20
19.044239202305462
30
0
10
228.96578084064254
20
18.485020470346115
30
0
10
228.96578084064254
20
17.810400106362838
30
0
0
SPLINE
5
110
100
AcDbEntity
8
0
100
AcDbSpline
70
4
71
3
72
8
73
4
74
0
42
0.000000001
43
0.0000000001
44
0.0000000001
40
0
40
0
40
0
40
0
40
1
40
1
40
1
40
1
41
1
41
1
41
1
41
1
10
228.96578084064254
20
17.810400106362838
30
0
10
228.96578084064254
20
16.922763729705114
30
0
10
228.6240296505726
20
16.230378607813073
30
0
10
227.94054613591925
20
15.733301337146159
30
0
0
SPLINE
5
111
100
AcDbEntity
8
0
100
AcDbSpline
70
4
71
3
72
8
73
4
74
0
42
0.000000001
43
0.0000000001
44
0.0000000001
40
0
40
0
40
0
40
0
40
1
40
1
40
1
40
1
41
1
41
1
41
1
41
1
10
227.94054613591925
20
15.733301337146159
30
0
10
227.25704375577942
20
15.236224066479249
30
0
10
226.42266609866192
20
14.987676361200368
30
0
10
225.43737543359381
20
14.987676361200368
30
0
0
SPLINE
5
112
100
AcDbEntity
8
0
100
AcDbSpline
70
4
71
3
72
8
73
4
74
0
42
0.000000001
43
0.0000000001
44
0.0000000001
40
0
40
0
40
0
40
0
40
1
40
1
40
1
40
1
41
1
41
1
41
1
41
1
10
225.43737543359381
20
14.987676361200368
30
0
10
224.46094864479139
20
14.987676361200368
30
0
10
223.79521174815596
20
15.116391221918091
30
0
10
223.44016474368746
20
15.373803529058323
30
0
0
LINE
5
113
100
AcDbEntity
8
0
100
AcDbLine
10
223.44016474368746
20
15.373803529058323
30
0
11
223.85292163411336
21
16.492241718572647
31
0
0
SPLINE
5
114
100
AcDbEntity
8
0
100
AcDbSpline
70
4
71
3
72
8
73
4
74
0
42
0.000000001
43
0.0000000001
44
0.0000000001
40
0
40
0
40
0
40
0
40
1
40
1
40
1
40
1
41
1
41
1
41
1
41
1
10
223.85292163411336
20
16.492241718572643
30
0
10
224.24348074010419
20
16.288088130972646
30
0
10
224.69618203298307
20
16.18600263002504
30
0
10
225.21102478715437
20
16.18600263002504
30
0
0
SPLINE
5
115
100
AcDbEntity
8
0
100
AcDbSpline
70
4
71
3
72
8
73
4
74
0
42
0.000000001
43
0.0000000001
44
0.0000000001
40
0
40
0
40
0
40
0
40
1
40
1
40
1
40
1
41
1
41
1
41
1
41
1
10
225.21102478715437
20
16.18600263002504
30
0
10
225.73473141759138
20
16.18600263002504
30
0
10
226.16080298790234
20
16.336915637975654
30
0
10
226.48923949808719
20
16.638703197308281
30
0
0
SPLINE
5
116
100
AcDbEntity
8
0
100
AcDbSpline
70
4
71
3
72
8
73
4
74
0
42
0.000000001
43
0.0000000001
44
0.0000000001
40
0
40
0
40
0
40
0
40
1
40
1
40
1
40
1
41
1
41
1
41
1
41
1
10
226.48923949808719
20
16.638703197308281
30
0
10
226.81765714278558
20
16.949393089475233
30
0
10
226.98188483062125
20
17.357699539079594
30
0
10
226.98188483062125
20
17.863659551498706
30
0
0
SPLINE
5
117
100
AcDbEntity
8
0
100
AcDbSpline
70
4
71
3
72
8
73
4
74
0
42
0.000000001
43
0.0000000001
44
0.0000000001
40
0
40
0
40
0
40
0
40
1
40
1
40
1
40
1
41
1
41
1
41
1
41
1
10
226.98188483062125
20
17.863659551498706
30
0
10
226.98188483062125
20
18.369619563917819
30
0
10
226.75553454697962
20
18.795690771430948
30
0
10
226.30283325410076
20
19.141873899633726
30
0
0
SPLINE
5
118
100
AcDbEntity
8
0
100
AcDbSpline
70
4
71
3
72
8
73
4
74
0
42
0.000000001
43
0.0000000001
44
0.0000000001
40
0
40
0
40
0
40
0
40
1
40
1
40
1
40
1
41
1
41
1
41
1
41
1
10
226.30283325410076
20
19.141873899633726
30
0
10
225.85899583748758
20
19.488057390634324
30
0
10
225.25096882680955
20
19.661148954735715
30
0
10
224.47871412829582
20
19.661148954735715
30
0
0
LINE
5
119
100
AcDbEntity
8
0
100
AcDbLine
10
224.47871412829582
20
19.661148954735715
30
0
11
224.59854697285695
21
20.646439619803822
31
0
0
SPLINE
5
120
100
AcDbEntity
8
0
100
AcDbSpline
70
4
71
3
72
8
73
4
74
0
42
0.000000001
43
0.0000000001
44
0.0000000001
40
0
40
0
40
0
40
0
40
1
40
1
40
1
40
1
41
1
41
1
41
1
41
1
10
224.59854697285695
20
20.646439619803818
30
0
10
225.1311363450462
20
20.646439619803818
30
0
10
225.57938647150792
20
20.770723267984323
30
0
10
225.9433354460129
20
21.019252470574532
30
0
0
SPLINE
5
121
100
AcDbEntity
8
0
100
AcDbSpline
70
4
71
3
72
8
73
4
74
0
42
0.000000001
43
0.0000000001
44
0.0000000001
40
0
40
0
40
0
40
0
40
1
40
1
40
1
40
1
41
1
41
1
41
1
41
1
10
225.9433354460129
20
21.019252470574532
30
0
10
226.3161479339858
20
21.276683280403432
30
0
10
226.50698611610511
20
21.658359644642044
30
0
10
226.51586885785733
20
22.164319657061156
30
0
0
SPLINE
5
122
100
AcDbEntity
8
0
100
AcDbSpline
70
4
71
3
72
8
73
4
74
0
42
0.000000001
43
0.0000000001
44
0.0000000001
40
0
40
0
40
0
40
0
40
1
40
1
40
1
40
1
41
1
41
1
41
1
41
1
10
226.51586885785733
20
22.164319657061156
30
0
10
226.53361547587522
20
22.670279850879176
30
0
10
226.30726519223361
20
23.096351421190121
30
0
10
225.83681728133681
20
23.44253835876998
30
0
0
SPLINE
5
123
100
AcDbEntity
8
0
100
AcDbSpline
70
4
71
3
72
8
73
4
74
0
42
0.000000001
43
0.0000000001
44
0.0000000001
40
0
40
0
40
0
40
0
40
1
40
1
40
1
40
1
41
1
41
1
41
1
41
1
10
225.83681728133681
20
23.44253835876998
30
0
10
225.3308572689177
20
23.806473909755749
30
0
10
224.63849101251213
20
23.988442682942626
30
0
10
223.75971814932231
20
23.988442682942626
30
0
0
SPLINE
5
124
100
AcDbEntity
8
0
100
AcDbSpline
70
4
71
3
72
8
73
4
74
0
42
0.000000001
43
0.0000000001
44
0.0000000001
40
0
40
0
40
0
40
0
40
1
40
1
40
1
40
1
41
1
41
1
41
1
41
1
10
223.75971814932231
20
23.988442682942626
30
0
10
223.18273357106077
20
23.988442682942626
30
0
10
222.61908271956966
20
23.837542917112337
30
0
10
222.0687465479636
20
23.535741480763207
30
0
0
SPLINE
5
125
100
AcDbEntity
8
0
100
AcDbSpline
70
4
71
3
72
8
73
4
74
0
42
0.000000001
43
0.0000000001
44
0.0000000001
40
0
40
0
40
0
40
0
40
1
40
1
40
1
40
1
41
1
41
1
41
1
41
1
10
222.0687465479636
20
23.535741480763207
30
0
10
221.51839713423723
20
23.242813444122486
30
0
10
221.24322714374563
20
22.847822399998815
30
0
10
221.24322714374563
20
22.350726082446513
30
0
0
SPLINE
5
126
100
AcDbEntity
8
0
100
AcDbSpline
70
4
71
3
72
8
73
4
74
0
42
0.000000001
43
0.0000000001
44
0.0000000001
40
0
40
0
40
0
40
0
40
1
40
1
40
1
40
1
41
1
41
1
41
1
41
1
10
221.24322714374563
20
22.350726082446513
30
0
10
221.24322714374563
20
22.111060937520925
30
0
10
221.34086791793735
20
21.906907712718741
30
0
10
221.53615137100928
20
21.738248086750211
30
0
0
SPLINE
5
127
100
AcDbEntity
8
0
100
AcDbSpline
70
4
71
3
72
8
73
4
74
0
42
0.000000001
43
0.0000000001
44
0.0000000001
40
0
40
0
40
0
40
0
40
1
40
1
40
1
40
1
41
1
41
1
41
1
41
1
10
221.53615137100928
20
21.738248086750211
30
0
10
221.73143291939269
20
21.57847120253388
30
0
10
222.37498563651118
20
21.494150822292855
30
0
10
222.69453922354498
20
21.458638720770537
30
0
0
LINE
5
128
100
AcDbEntity
8
0
100
AcDbLine
10
222.69453922354498
20
21.458638720770541
30
0
11
222.69453922354498
21
20.446718695932312
31
0
0
SPLINE
5
129
100
AcDbEntity
8
0
100
AcDbSpline
70
4
71
3
72
8
73
4
74
0
42
0.000000001
43
0.0000000001
44
0.0000000001
40
0
40
0
40
0
40
0
40
1
40
1
40
1
40
1
41
1
41
1
41
1
41
1
10
222.69453922354498
20
20.446718695932312
30
0
10
222.01991958515731
20
20.473348055702431
30
0
10
220.96805524856558
20
20.677520145991096
30
0
10
220.6041197429295
20
21.032567150459592
30
0
0
SPLINE
5
130
100
AcDbEntity
8
0
100
AcDbSpline
70
4
71
3
72
8
73
4
74
0
42
0.000000001
43
0.0000000001
44
0.0000000001
40
0
40
0
40
0
40
0
40
1
40
1
40
1
40
1
41
1
41
1
41
1
41
1
10
220.6041197429295
20
21.032567150459592
30
0
10
220.24018228725521
20
21.387633020414572
30
0
10
220.05821490857244
20
21.800389910840462
30
0
10
220.05821490857244
20
22.270837821737253
30
0
0
SPLINE
5
131
100
AcDbEntity
8
0
100
AcDbSpline
70
4
71
3
72
8
73
4
74
0
42
0.000000001
43
0.0000000001
44
0.0000000001
40
0
40
0
40
0
40
0
40
1
40
1
40
1
40
1
41
1
41
1
41
1
41
1
10
223.86623631399843
20
17.623993862376391
30
0
10
223.72420604780001
20
16.674216024426233
30
0
10
223.44902825715536
20
15.99959638603859
30
0
10
223.04072253314666
20
15.600153812699944
30
0
0
SPLINE
5
132
100
AcDbEntity
8
0
100
AcDbSpline
70
4
71
3
72
8
73
4
74
0
42
0.000000001
43
0.0000000001
44
0.0000000001
40
0
40
0
40
0
40
0
40
1
40
1
40
1
40
1
41
1
41
1
41
1
41
1
10
223.04072253314666
20
15.600153812699944
30
0
10
222.63239758085362
20
15.209594706709133
30
0
10
222.15306692820462
20
15.014305720970484
30
0
10
221.60272513323238
20
15.014305720970484
30
0
0
SPLINE
5
133
100
AcDbEntity
8
0
100
AcDbSpline
70
4
71
3
72
8
73
4
74
0
42
0.000000001
43
0.0000000001
44
0.0000000001
40
0
40
0
40
0
40
0
40
1
40
1
40
1
40
1
41
1
41
1
41
1
41
1
10
221.60272513323238
20
15.014305720970484
30
0
10
221.0523813428722
20
15.014305720970484
30
0
10
220.63518680024782
20
15.156335987168902
30
0
10
220.35113969137024
20
15.440376928483612
30
0
0
SPLINE
5
134
100
AcDbEntity
8
0
100
AcDbSpline
70
4
71
3
72
8
73
4
74
0
42
0.000000001
43
0.0000000001
44
0.0000000001
40
0
40
0
40
0
40
0
40
1
40
1
40
1
40
1
41
1
41
1
41
1
41
1
10
220.35113969137024
20
15.440376928483612
30
0
10
220.06709126735052
20
15.724437460880445
30
0
10
219.92506752442694
20
16.08836720710114
30
0
10
219.92506752442694
20
16.532185758227818
30
0
0
SPLINE
5
135
100
AcDbEntity
8
0
100
AcDbSpline
70
4
71
3
72
8
73
4
74
0
42
0.000000001
43
0.0000000001
44
0.0000000001
40
0
40
0
40
0
40
0
40
1
40
1
40
1
40
1
41
1
41
1
41
1
41
1
10
219.92506752442694
20
16.532185758227818
30
0
10
219.92506752442694
20
17.579617884588359
30
0
10
220.7195128945545
20
18.471705790461058
30
0
10
222.30841187428808
20
19.208448024654651
30
0
0
SPLINE
5
136
100
AcDbEntity
8
0
100
AcDbSpline
70
4
71
3
72
8
73
4
74
0
42
0.000000001
43
0.0000000001
44
0.0000000001
40
0
40
0
40
0
40
0
40
1
40
1
40
1
40
1
41
1
41
1
41
1
41
1
10
222.30841187428808
20
19.208448024654651
30
0
10
222.35278803347501
20
19.581260512627548
30
0
10
222.41492985756531
20
20.0827885869138
30
0
10
222.49481829967345
20
20.713013382026926
30
0
0
SPLINE
5
137
100
AcDbEntity
8
0
100
AcDbSpline
70
4
71
3
72
8
73
4
74
0
42
0.000000001
43
0.0000000001
44
0.0000000001
40
0
40
0
40
0
40
0
40
1
40
1
40
1
40
1
41
1
41
1
41
1
41
1
10
222.49481829967345
20
20.713013382026926
30
0
10
222.58357043664842
20
21.352120918892258
30
0
10
222.65014419887152
20
21.866963673063569
30
0
10
222.69453922354498
20
22.257522779054383
30
0
0
SPLINE
5
138
100
AcDbEntity
8
0
100
AcDbSpline
70
4
71
3
72
8
73
4
74
0
42
0.000000001
43
0.0000000001
44
0.0000000001
40
0
40
0
40
0
40
0
40
1
40
1
40
1
40
1
41
1
41
1
41
1
41
1
10
222.69453922354498
20
22.257522779054383
30
0
10
222.74779830588301
20
22.648101294728402
30
0
10
222.78329154191883
20
22.905513239070814
30
0
10
222.80105720682215
20
23.029777658967014
30
0
0
SPLINE
5
139
100
AcDbEntity
8
0
100
AcDbSpline
70
4
71
3
72
8
73
4
74
0
42
0.000000001
43
0.0000000001
44
0.0000000001
40
0
40
0
40
0
40
0
40
1
40
1
40
1
40
1
41
1
41
1
41
1
41
1
10
222.80105720682215
20
23.029777658967014
30
0
10
223.16498695304284
20
23.260579109025798
30
0
10
223.58662658522093
20
23.375960968568702
30
0
10
224.06595723786992
20
23.375960968568702
30
0
0
SPLINE
5
140
100
AcDbEntity
8
0
100
AcDbSpline
70
4
71
3
72
8
73
4
74
0
42
0.000000001
43
0.0000000001
44
0.0000000001
40
0
40
0
40
0
40
0
40
1
40
1
40
1
40
1
41
1
41
1
41
1
41
1
10
224.06595723786992
20
23.375960968568702
30
0
10
224.28785708069003
20
23.375960968568702
30
0
10
224.50089268444657
20
23.353782412417928
30
0
10
224.70506477473523
20
23.309387206345594
30
0
0
LINE
5
141
100
AcDbEntity
8
0
100
AcDbLine
10
224.70506477473523
20
23.309387206345594
30
0
11
223.86623631399843
21
17.623993862376391
31
0
0
SPLINE
5
142
100
AcDbEntity
8
0
100
AcDbSpline
70
4
71
3
72
8
73
4
74
0
42
0.000000001
43
0.0000000001
44
0.0000000001
40
0
40
0
40
0
40
0
40
1
40
1
40
1
40
1
41
1
41
1
41
1
41
1
10
220.91035869542793
20
16.705277322329209
30
0
10
220.91035869542793
20
16.385723553896547
30
0
10
221.06125846125823
20
16.225946669680212
30
0
10
221.3630598069079
20
16.225946669680212
30
0
0
SPLINE
5
143
100
AcDbEntity
8
0
100
AcDbSpline
70
4
71
3
72
8
73
4
74
0
42
0.000000001
43
0.0000000001
44
0.0000000001
40
0
40
0
40
0
40
0
40
1
40
1
40
1
40
1
41
1
41
1
41
1
41
1
10
221.3630598069079
20
16.225946669680212
30
0
10
221.48733003156917
20
16.225946669680212
30
0
10
221.61603981311745
20
16.305834748990563
30
0
10
221.74918715616479
20
16.465611633206894
30
0
0
SPLINE
5
144
100
AcDbEntity
8
0
100
AcDbSpline
70
4
71
3
72
8
73
4
74
0
42
0.000000001
43
0.0000000001
44
0.0000000001
40
0
40
0
40
0
40
0
40
1
40
1
40
1
40
1
41
1
41
1
41
1
41
1
10
221.74918715616479
20
16.465611633206894
30
0
10
221.89120399884393
20
16.634271259175428
30
0
10
221.98885810585546
20
16.896134369935002
30
0
10
222.04211718819349
20
17.251181374403494
30
0
0
LINE
5
145
100
AcDbEntity
8
0
100
AcDbLine
10
222.04211718819349
20
17.251181374403497
30
0
11
222.16194985135573
21
18.076695155255269
31
0
0
SPLINE
5
146
100
AcDbEntity
8
0
100
AcDbSpline
70
4
71
3
72
8
73
4
74
0
42
0.000000001
43
0.0000000001
44
0.0000000001
40
0
40
0
40
0
40
0
40
1
40
1
40
1
40
1
41
1
41
1
41
1
41
1
10
222.16194985135573
20
18.076695155255269
30
0
10
221.32755314735283
20
17.606247244358475
30
0
10
220.91035869542793
20
17.149095147860255
30
0
10
220.91035869542793
20
16.705277322329209
30
0
0
SPLINE
5
147
100
AcDbEntity
8
0
100
AcDbSpline
70
4
71
3
72
8
73
4
74
0
42
0.000000001
43
0.0000000001
44
0.0000000001
40
0
40
0
40
0
40
0
40
1
40
1
40
1
40
1
41
1
41
1
41
1
41
1
10
230.36424670201956
20
24.867215364733543
30
0
10
230.56839956402393
20
25.08025117256388
30
0
10
230.81694799489844
20
25.186769076479049
30
0
10
231.10987240356098
20
25.186769076479049
30
0
0
SPLINE
5
148
100
AcDbEntity
8
0
100
AcDbSpline
70
4
71
3
72
8
73
4
74
0
42
0.000000001
43
0.0000000001
44
0.0000000001
40
0
40
0
40
0
40
0
40
1
40
1
40
1
40
1
41
1
41
1
41
1
41
1
10
231.10987240356098
20
25.186769076479049
30
0
10
231.40279608662792
20
25.186769076479049
30
0
10
231.65132565201591
20
25.08025117256388
30
0
10
231.85549737950677
20
24.867215364733543
30
0
0
SPLINE
5
149
100
AcDbEntity
8
0
100
AcDbSpline
70
4
71
3
72
8
73
4
74
0
42
0.000000001
43
0.0000000001
44
0.0000000001
40
0
40
0
40
0
40
0
40
1
40
1
40
1
40
1
41
1
41
1
41
1
41
1
10
231.85549737950677
20
24.867215364733543
30
0
10
232.06853298326334
20
24.663056697964109
30
0
10
232.17505187353507
20
24.414514253253575
30
0
10
232.17505187353507
20
24.121590025989935
30
0
0
SPLINE
5
150
100
AcDbEntity
8
0
100
AcDbSpline
70
4
71
3
72
8
73
4
74
0
42
0.000000001
43
0.0000000001
44
0.0000000001
40
0
40
0
40
0
40
0
40
1
40
1
40
1
40
1
41
1
41
1
41
1
41
1
10
232.17505187353507
20
24.121590025989935
30
0
10
232.17505187353507
20
23.828665798726298
30
0
10
232.06853298326334
20
23.580123444715216
30
0
10
231.85549737950677
20
23.375960968568702
30
0
0
SPLINE
5
151
100
AcDbEntity
8
0
100
AcDbSpline
70
4
71
3
72
8
73
4
74
0
42
0.000000001
43
0.0000000001
44
0.0000000001
40
0
40
0
40
0
40
0
40
1
40
1
40
1
40
1
41
1
41
1
41
1
41
1
10
231.85549737950677
20
23.375960968568702
30
0
10
231.65132565201591
20
23.171807925165432
30
0
10
231.40279608662792
20
23.069721880021095
30
0
10
231.10987240356098
20
23.069721880021095
30
0
0
SPLINE
5
152
100
AcDbEntity
8
0
100
AcDbSpline
70
4
71
3
72
8
73
4
74
0
42
0.000000001
43
0.0000000001
44
0.0000000001
40
0
40
0
40
0
40
0
40
1
40
1
40
1
40
1
41
1
41
1
41
1
41
1
10
231.10987240356098
20
23.069721880021095
30
0
10
230.81694799489844
20
23.069721880021095
30
0
10
230.56839956402393
20
23.171807925165432
30
0
10
230.36424670201956
20
23.375960968568702
30
0
0
SPLINE
5
153
100
AcDbEntity
8
0
100
AcDbSpline
70
4
71
3
72
8
73
4
74
0
42
0.000000001
43
0.0000000001
44
0.0000000001
40
0
40
0
40
0
40
0
40
1
40
1
40
1
40
1
41
1
41
1
41
1
41
1
10
230.36424670201956
20
23.375960968568702
30
0
10
230.16007497452873
20
23.580123444715216
30
0
10
230.05800761347194
20
23.828665798726298
30
0
10
230.05800761347194
20
24.121590025989935
30
0
0
SPLINE
5
154
100
AcDbEntity
8
0
100
AcDbSpline
70
4
71
3
72
8
73
4
74
0
42
0.000000001
43
0.0000000001
44
0.0000000001
40
0
40
0
40
0
40
0
40
1
40
1
40
1
40
1
41
1
41
1
41
1
41
1
10
230.05800761347194
20
24.121590025989935
30
0
10
230.05800761347194
20
24.414514253253575
30
0
10
230.16007497452873
20
24.663056697964109
30
0
10
230.36424670201956
20
24.867215364733543
30
0
0
SPLINE
5
155
100
AcDbEntity
8
0
100
AcDbSpline
70
4
71
3
72
8
73
4
74
0
42
0.000000001
43
0.0000000001
44
0.0000000001
40
0
40
0
40
0
40
0
40
1
40
1
40
1
40
1
41
1
41
1
41
1
41
1
10
229.81834264994529
20
20.965993388236484
30
0
10
229.90709460552131
20
21.125770272452815
30
0
10
230.07575423148984
20
21.245602754216154
30
0
10
230.3243026623644
20
21.325491196324322
30
0
0
SPLINE
5
156
100
AcDbEntity
8
0
100
AcDbSpline
70
4
71
3
72
8
73
4
74
0
42
0.000000001
43
0.0000000001
44
0.0000000001
40
0
40
0
40
0
40
0
40
1
40
1
40
1
40
1
41
1
41
1
41
1
41
1
10
230.3243026623644
20
21.325491196324322
30
0
10
230.57283150215679
20
21.414262380184688
30
0
10
230.81694799489844
20
21.458638720770537
30
0
10
231.05661295842512
20
21.458638720770537
30
0
0
SPLINE
5
157
100
AcDbEntity
8
0
100
AcDbSpline
70
4
71
3
72
8
73
4
74
0
42
0.000000001
43
0.0000000001
44
0.0000000001
40
0
40
0
40
0
40
0
40
1
40
1
40
1
40
1
41
1
41
1
41
1
41
1
10
231.05661295842512
20
21.458638720770537
30
0
10
231.30514252381315
20
21.458638720770537
30
0
10
231.52262893118905
20
21.427577422867564
30
0
10
231.70903517517553
20
21.365435598777314
30
0
0
SPLINE
5
158
100
AcDbEntity
8
0
100
AcDbSpline
70
4
71
3
72
8
73
4
74
0
42
0.000000001
43
0.0000000001
44
0.0000000001
40
0
40
0
40
0
40
0
40
1
40
1
40
1
40
1
41
1
41
1
41
1
41
1
10
231.70903517517553
20
21.365435598777314
30
0
10
231.36285204697273
20
18.693624135969824
30
0
10
231.18976048287135
20
17.344384859194534
30
0
10
231.18976048287135
20
17.317755499424422
30
0
0
SPLINE
5
159
100
AcDbEntity
8
0
100
AcDbSpline
70
4
71
3
72
8
73
4
74
0
42
0.000000001
43
0.0000000001
44
0.0000000001
40
0
40
0
40
0
40
0
40
1
40
1
40
1
40
1
41
1
41
1
41
1
41
1
10
231.18976048287135
20
17.317755499424422
30
0
10
231.14536563959683
20
17.14023199719017
30
0
10
231.12318708344603
20
16.98931826364392
30
0
10
231.12318708344603
20
16.86505420654554
30
0
0
SPLINE
5
160
100
AcDbEntity
8
0
100
AcDbSpline
70
4
71
3
72
8
73
4
74
0
42
0.000000001
43
0.0000000001
44
0.0000000001
40
0
40
0
40
0
40
0
40
1
40
1
40
1
40
1
41
1
41
1
41
1
41
1
10
231.12318708344603
20
16.86505420654554
30
0
10
231.12318708344603
20
16.749653300117238
30
0
10
231.13205095971176
20
16.647586664656121
30
0
10
231.14981644321617
20
16.558815117997938
30
0
0
SPLINE
5
161
100
AcDbEntity
8
0
100
AcDbSpline
70
4
71
3
72
8
73
4
74
0
42
0.000000001
43
0.0000000001
44
0.0000000001
40
0
40
0
40
0
40
0
40
1
40
1
40
1
40
1
41
1
41
1
41
1
41
1
10
231.14981644321617
20
16.558815117997938
30
0
10
231.18530967925199
20
16.328032896223455
30
0
10
231.34508656346833
20
16.212631989795156
30
0
10
231.62914709586516
20
16.212631989795156
30
0
0
SPLINE
5
162
100
AcDbEntity
8
0
100
AcDbSpline
70
4
71
3
72
8
73
4
74
0
42
0.000000001
43
0.0000000001
44
0.0000000001
40
0
40
0
40
0
40
0
40
1
40
1
40
1
40
1
41
1
41
1
41
1
41
1
10
231.62914709586516
20
16.212631989795156
30
0
10
231.92207150452771
20
16.212631989795156
30
0
10
232.18836655342014
20
16.399038233781603
30
0
10
232.42803079135118
20
16.7718507217545
30
0
0
SPLINE
5
163
100
AcDbEntity
8
0
100
AcDbSpline
70
4
71
3
72
8
73
4
74
0
42
0.000000001
43
0.0000000001
44
0.0000000001
40
0
40
0
40
0
40
0
40
1
40
1
40
1
40
1
41
1
41
1
41
1
41
1
10
232.42803079135118
20
16.7718507217545
30
0
10
232.6765603567392
20
17.15354667707523
30
0
10
232.86296732632132
20
17.584049822721216
30
0
10
232.98725024890615
20
18.063380475370213
30
0
0
SPLINE
5
164
100
AcDbEntity
8
0
100
AcDbSpline
70
4
71
3
72
8
73
4
74
0
42
0.000000001
43
0.0000000001
44
0.0000000001
40
0
40
0
40
0
40
0
40
1
40
1
40
1
40
1
41
1
41
1
41
1
41
1
10
232.98725024890615
20
18.063380475370213
30
0
10
233.04937284471211
20
18.027887239334383
30
0
10
233.14702640752685
20
17.92136907465828
30
0
10
233.28017465756872
20
17.743826706937547
30
0
0
SPLINE
5
165
100
AcDbEntity
8
0
100
AcDbSpline
70
4
71
3
72
8
73
4
74
0
42
0.000000001
43
0.0000000001
44
0.0000000001
40
0
40
0
40
0
40
0
40
1
40
1
40
1
40
1
41
1
41
1
41
1
41
1
10
233.28017465756872
20
17.743826706937547
30
0
10
233.41332145641928
20
17.566303204703303
30
0
10
233.49320953572965
20
17.433155680257087
30
0
10
233.51984034669101
20
17.344384859194534
30
0
0
SPLINE
5
166
100
AcDbEntity
8
0
100
AcDbSpline
70
4
71
3
72
8
73
4
74
0
42
0.000000001
43
0.0000000001
44
0.0000000001
40
0
40
0
40
0
40
0
40
1
40
1
40
1
40
1
41
1
41
1
41
1
41
1
10
233.51984034669101
20
17.344384859194534
30
0
10
233.34229725337465
20
16.634271259175428
30
0
10
233.0405089684464
20
16.061737847331024
30
0
10
232.61443776093327
20
15.626783172470059
30
0
0
SPLINE
5
167
100
AcDbEntity
8
0
100
AcDbSpline
70
4
71
3
72
8
73
4
74
0
42
0.000000001
43
0.0000000001
44
0.0000000001
40
0
40
0
40
0
40
0
40
1
40
1
40
1
40
1
41
1
41
1
41
1
41
1
10
232.61443776093327
20
15.626783172470059
30
0
10
232.18836655342014
20
15.191848088691216
30
0
10
231.67795501178605
20
14.974360955719675
30
0
10
231.08324231819523
20
14.974360955719675
30
0
0
SPLINE
5
168
100
AcDbEntity
8
0
100
AcDbSpline
70
4
71
3
72
8
73
4
74
0
42
0.000000001
43
0.0000000001
44
0.0000000001
40
0
40
0
40
0
40
0
40
1
40
1
40
1
40
1
41
1
41
1
41
1
41
1
10
231.08324231819523
20
14.974360955719675
30
0
10
230.48851148471357
20
14.974360955719675
30
0
10
230.04469293358687
20
15.12082316005095
30
0
10
229.75176852492436
20
15.413747568713497
30
0
0
SPLINE
5
169
100
AcDbEntity
8
0
100
AcDbSpline
70
4
71
3
72
8
73
4
74
0
42
0.000000001
43
0.0000000001
44
0.0000000001
40
0
40
0
40
0
40
0
40
1
40
1
40
1
40
1
41
1
41
1
41
1
41
1
10
229.75176852492436
20
15.413747568713497
30
0
10
229.46770871812316
20
15.706671977376043
30
0
10
229.32569731741123
20
16.083916403481798
30
0
10
229.32569731741123
20
16.545500438112878
30
0
0
SPLINE
5
170
100
AcDbEntity
8
0
100
AcDbSpline
70
4
71
3
72
8
73
4
74
0
42
0.000000001
43
0.0000000001
44
0.0000000001
40
0
40
0
40
0
40
0
40
1
40
1
40
1
40
1
41
1
41
1
41
1
41
1
10
229.32569731741123
20
16.545500438112878
30
0
10
229.32569731741123
20
16.643135135441142
30
0
10
229.33012925554408
20
16.745221361984385
30
0
10
229.3390119972963
20
16.851739526660481
30
0
0
LINE
5
171
100
AcDbEntity
8
0
100
AcDbLine
10
229.3390119972963
20
16.851739526660481
30
0
11
229.81834264994529
21
20.965993388236484
31
0
0
SPLINE
5
172
100
AcDbEntity
8
0
100
AcDbSpline
70
4
71
3
72
8
73
4
74
0
42
0.000000001
43
0.0000000001
44
0.0000000001
40
0
40
0
40
0
40
0
40
1
40
1
40
1
40
1
41
1
41
1
41
1
41
1
10
235.44307801289588
20
24.334625811145408
30
0
10
235.44307801289588
20
24.281366910206266
30
0
10
235.32324444273911
20
23.327152871248906
30
0
10
235.08358020480807
20
21.471953400655597
30
0
0
LINE
5
173
100
AcDbEntity
8
0
100
AcDbLine
10
235.08358020480807
20
21.4719534006556
30
0
11
237.04084540386793
21
21.471953400655597
31
0
0
LINE
5
174
100
AcDbEntity
8
0
100
AcDbLine
10
237.04084540386793
20
21.471953400655597
30
0
11
237.04084540386793
21
20.446718695932312
31
0
0
LINE
5
175
100
AcDbEntity
8
0
100
AcDbLine
10
237.04084540386793
20
20.446718695932312
30
0
11
234.95043195476623
21
20.446718695932312
31
0
0
LINE
5
176
100
AcDbEntity
8
0
100
AcDbLine
10
234.95043195476623
20
20.446718695932312
30
0
11
234.91048791511102
21
20.113850247614593
31
0
0
SPLINE
5
177
100
AcDbEntity
8
0
100
AcDbSpline
70
4
71
3
72
8
73
4
74
0
42
0.000000001
43
0.0000000001
44
0.0000000001
40
0
40
0
40
0
40
0
40
1
40
1
40
1
40
1
41
1
41
1
41
1
41
1
10
234.91048791511102
20
20.113850247614593
30
0
10
235.94903729971935
20
19.243960126176969
30
0
10
236.4683127176192
20
18.294182288226814
30
0
10
236.4683127176192
20
17.26449605428855
30
0
0
SPLINE
5
178
100
AcDbEntity
8
0
100
AcDbSpline
70
4
71
3
72
8
73
4
74
0
42
0.000000001
43
0.0000000001
44
0.0000000001
40
0
40
0
40
0
40
0
40
1
40
1
40
1
40
1
41
1
41
1
41
1
41
1
10
236.4683127176192
20
17.26449605428855
30
0
10
236.4683127176192
20
16.45674775694118
30
0
10
236.25972719188633
20
15.875331603344575
30
0
10
235.8425198606389
20
15.520265733389596
30
0
0
SPLINE
5
179
100
AcDbEntity
8
0
100
AcDbSpline
70
4
71
3
72
8
73
4
74
0
42
0.000000001
43
0.0000000001
44
0.0000000001
40
0
40
0
40
0
40
0
40
1
40
1
40
1
40
1
41
1
41
1
41
1
41
1
10
235.8425198606389
20
15.520265733389596
30
0
10
235.4342141366302
20
15.165199863434616
30
0
10
234.94156807850047
20
14.987676361200368
30
0
10
234.36458313744112
20
14.987676361200368
30
0
0
SPLINE
5
180
100
AcDbEntity
8
0
100
AcDbSpline
70
4
71
3
72
8
73
4
74
0
42
0.000000001
43
0.0000000001
44
0.0000000001
40
0
40
0
40
0
40
0
40
1
40
1
40
1
40
1
41
1
41
1
41
1
41
1
10
234.36458313744112
20
14.987676361200368
30
0
10
233.7876185130595
20
14.987676361200368
30
0
10
233.36597779248794
20
15.138589369150983
30
0
10
233.09968419478679
20
15.440376928483612
30
0
0
SPLINE
5
181
100
AcDbEntity
8
0
100
AcDbSpline
70
4
71
3
72
8
73
4
74
0
42
0.000000001
43
0.0000000001
44
0.0000000001
40
0
40
0
40
0
40
0
40
1
40
1
40
1
40
1
41
1
41
1
41
1
41
1
10
233.09968419478679
20
15.440376928483612
30
0
10
232.83338914589436
20
15.751066820650561
30
0
10
232.70024089585249
20
16.123860443136969
30
0
10
232.70024089585249
20
16.558815117997938
30
0
0
SPLINE
5
182
100
AcDbEntity
8
0
100
AcDbSpline
70
4
71
3
72
8
73
4
74
0
42
0.000000001
43
0.0000000001
44
0.0000000001
40
0
40
0
40
0
40
0
40
1
40
1
40
1
40
1
41
1
41
1
41
1
41
1
10
232.70024089585249
20
16.558815117997938
30
0
10
232.70024089585249
20
16.656449815326198
30
0
10
232.7091236376047
20
16.762967980002298
30
0
10
232.72687025562263
20
16.8783688864306
30
0
0
LINE
5
183
100
AcDbEntity
8
0
100
AcDbLine
10
232.72687025562263
20
16.878368886430597
30
0
11
233.13962823444197
21
20.420088973364379
31
0
0
LINE
5
184
100
AcDbEntity
8
0
100
AcDbLine
10
233.13962823444197
20
20.420088973364379
30
0
11
233.08636951490172
21
20.446718695932312
31
0
0
LINE
5
185
100
AcDbEntity
8
0
100
AcDbLine
10
233.08636951490172
20
20.446718695932312
30
0
11
232.00787536504259
21
20.446718695932312
31
0
0
SPLINE
5
186
100
AcDbEntity
8
0
100
AcDbSpline
70
4
71
3
72
8
73
4
74
0
42
0.000000001
43
0.0000000001
44
0.0000000001
40
0
40
0
40
0
40
0
40
1
40
1
40
1
40
1
41
1
41
1
41
1
41
1
10
232.00787536504259
20
20.446718695932312
30
0
10
231.99901148877686
20
20.535489879792678
30
0
10
231.99456068515752
20
20.677520145991096
30
0
10
231.99456068515752
20
20.872790266243261
30
0
0
SPLINE
5
187
100
AcDbEntity
8
0
100
AcDbSpline
70
4
71
3
72
8
73
4
74
0
42
0.000000001
43
0.0000000001
44
0.0000000001
40
0
40
0
40
0
40
0
40
1
40
1
40
1
40
1
41
1
41
1
41
1
41
1
10
231.99456068515752
20
20.872790266243261
30
0
10
231.99456068515752
20
21.076961993734109
30
0
10
232.03450472481268
20
21.276683280403432
30
0
10
232.11439352971865
20
21.471953400655597
30
0
0
LINE
5
188
100
AcDbEntity
8
0
100
AcDbLine
10
232.11439352971865
20
21.471953400655597
30
0
11
233.25946035340746
21
21.471953400655597
31
0
0
LINE
5
189
100
AcDbEntity
8
0
100
AcDbLine
10
233.25946035340746
20
21.471953400655597
30
0
11
233.68553156092062
21
25.093565897798669
31
0
0
SPLINE
5
190
100
AcDbEntity
8
0
100
AcDbSpline
70
4
71
3
72
8
73
4
74
0
42
0.000000001
43
0.0000000001
44
0.0000000001
40
0
40
0
40
0
40
0
40
1
40
1
40
1
40
1
41
1
41
1
41
1
41
1
10
233.68553156092059
20
25.093565897798666
30
0
10
233.87193853050266
20
25.164577595656045
30
0
10
234.1204869613772
20
25.200083813051268
30
0
10
234.43115798805766
20
25.200083813051268
30
0
0
SPLINE
5
191
100
AcDbEntity
8
0
100
AcDbSpline
70
4
71
3
72
8
73
4
74
0
42
0.000000001
43
0.0000000001
44
0.0000000001
40
0
40
0
40
0
40
0
40
1
40
1
40
1
40
1
41
1
41
1
41
1
41
1
10
234.43115798805766
20
25.200083813051268
30
0
10
235.1057776264453
20
25.200083813051268
30
0
10
235.44307801289588
20
24.911597192636378
30
0
10
235.44307801289588
20
24.334625811145408
30
0
0
SPLINE
5
192
100
AcDbEntity
8
0
100
AcDbSpline
70
4
71
3
72
8
73
4
74
0
42
0.000000001
43
0.0000000001
44
0.0000000001
40
0
40
0
40
0
40
0
40
1
40
1
40
1
40
1
41
1
41
1
41
1
41
1
10
235.57622481174647
20
17.27781073417361
30
0
10
235.57622481174647
20
17.890288911268822
30
0
10
235.30992976285404
20
18.493903212098317
30
0
10
234.77734111626046
20
19.088615180093495
30
0
0
SPLINE
5
193
100
AcDbEntity
8
0
100
AcDbSpline
70
4
71
3
72
8
73
4
74
0
42
0.000000001
43
0.0000000001
44
0.0000000001
40
0
40
0
40
0
40
0
40
1
40
1
40
1
40
1
41
1
41
1
41
1
41
1
10
234.77734111626046
20
19.088615180093495
30
0
10
234.61756350644848
20
17.766024128574806
30
0
10
234.53767542713814
20
17.002652534611098
30
0
10
234.53767542713814
20
16.798480081524616
30
0
0
SPLINE
5
194
100
AcDbEntity
8
0
100
AcDbSpline
70
4
71
3
72
8
73
4
74
0
42
0.000000001
43
0.0000000001
44
0.0000000001
40
0
40
0
40
0
40
0
40
1
40
1
40
1
40
1
41
1
41
1
41
1
41
1
10
234.53767542713814
20
16.798480081524616
30
0
10
234.53767542713814
20
16.399038233781603
30
0
10
234.66639028785585
20
16.199317309910096
30
0
10
234.92380259499609
20
16.199317309910096
30
0
0
SPLINE
5
195
100
AcDbEntity
8
0
100
AcDbSpline
70
4
71
3
72
8
73
4
74
0
42
0.000000001
43
0.0000000001
44
0.0000000001
40
0
40
0
40
0
40
0
40
1
40
1
40
1
40
1
41
1
41
1
41
1
41
1
10
234.92380259499609
20
16.199317309910096
30
0
10
235.11020956457816
20
16.199317309910096
30
0
10
235.265553785066
20
16.283656192839789
30
0
10
235.3898178421644
20
16.452296953321834
30
0
0
SPLINE
5
196
100
AcDbEntity
8
0
100
AcDbSpline
70
4
71
3
72
8
73
4
74
0
42
0.000000001
43
0.0000000001
44
0.0000000001
40
0
40
0
40
0
40
0
40
1
40
1
40
1
40
1
41
1
41
1
41
1
41
1
10
235.3898178421644
20
16.452296953321834
30
0
10
235.51410221594051
20
16.629840046638201
30
0
10
235.57622481174647
20
16.904998246200716
30
0
10
235.57622481174647
20
17.27781073417361
30
0
0
SPLINE
5
197
100
AcDbEntity
8
0
100
AcDbSpline
70
4
71
3
72
8
73
4
74
0
42
0.000000001
43
0.0000000001
44
0.0000000001
40
0
40
0
40
0
40
0
40
1
40
1
40
1
40
1
41
1
41
1
41
1
41
1
10
240.02005690823754
20
24.334625811145408
30
0
10
240.02005690823754
20
24.281366910206266
30
0
10
239.90022478927202
20
23.327152871248906
30
0
10
239.6605591001497
20
21.471953400655597
30
0
0
LINE
5
198
100
AcDbEntity
8
0
100
AcDbLine
10
239.66055910014967
20
21.4719534006556
30
0
11
241.61782575040087
21
21.471953400655597
31
0
0
LINE
5
199
100
AcDbEntity
8
0
100
AcDbLine
10
241.61782575040087
20
21.471953400655597
30
0
11
241.61782575040087
21
20.446718695932312
31
0
0
LINE
5
200
100
AcDbEntity
8
0
100
AcDbLine
10
241.61782575040087
20
20.446718695932312
30
0
11
239.52741085010786
21
20.446718695932312
31
0
0
LINE
5
201
100
AcDbEntity
8
0
100
AcDbLine
10
239.52741085010786
20
20.446718695932312
30
0
11
239.48746681045267
21
20.113850247614593
31
0
0
SPLINE
5
202
100
AcDbEntity
8
0
100
AcDbSpline
70
4
71
3
72
8
73
4
74
0
42
0.000000001
43
0.0000000001
44
0.0000000001
40
0
40
0
40
0
40
0
40
1
40
1
40
1
40
1
41
1
41
1
41
1
41
1
10
239.48746681045267
20
20.113850247614593
30
0
10
240.526016195061
20
19.243960126176969
30
0
10
241.04529161296082
20
18.294182288226814
30
0
10
241.04529161296082
20
17.26449605428855
30
0
0
SPLINE
5
203
100
AcDbEntity
8
0
100
AcDbSpline
70
4
71
3
72
8
73
4
74
0
42
0.000000001
43
0.0000000001
44
0.0000000001
40
0
40
0
40
0
40
0
40
1
40
1
40
1
40
1
41
1
41
1
41
1
41
1
10
241.04529161296082
20
17.26449605428855
30
0
10
241.04529161296082
20
16.45674775694118
30
0
10
240.83663062528203
20
15.875331603344575
30
0
10
240.41949875598053
20
15.520265733389596
30
0
0
SPLINE
5
204
100
AcDbEntity
8
0
100
AcDbSpline
70
4
71
3
72
8
73
4
74
0
42
0.000000001
43
0.0000000001
44
0.0000000001
40
0
40
0
40
0
40
0
40
1
40
1
40
1
40
1
41
1
41
1
41
1
41
1
10
240.41949875598053
20
15.520265733389596
30
0
10
240.01111611883459
20
15.165199863434616
30
0
10
239.51847151189617
20
14.987676361200368
30
0
10
238.94156348397402
20
14.987676361200368
30
0
0
SPLINE
5
205
100
AcDbEntity
8
0
100
AcDbSpline
70
4
71
3
72
8
73
4
74
0
42
0.000000001
43
0.0000000001
44
0.0000000001
40
0
40
0
40
0
40
0
40
1
40
1
40
1
40
1
41
1
41
1
41
1
41
1
10
238.94156348397402
20
14.987676361200368
30
0
10
238.36455967742813
20
14.987676361200368
30
0
10
237.9429189568566
20
15.138589369150983
30
0
10
237.67662535915545
20
15.440376928483612
30
0
0
SPLINE
5
206
100
AcDbEntity
8
0
100
AcDbSpline
70
4
71
3
72
8
73
4
74
0
42
0.000000001
43
0.0000000001
44
0.0000000001
40
0
40
0
40
0
40
0
40
1
40
1
40
1
40
1
41
1
41
1
41
1
41
1
10
237.67662535915545
20
15.440376928483612
30
0
10
237.41033031026302
20
15.751066820650561
30
0
10
237.27718206022118
20
16.123860443136969
30
0
10
237.27718206022118
20
16.558815117997938
30
0
0
SPLINE
5
207
100
AcDbEntity
8
0
100
AcDbSpline
70
4
71
3
72
8
73
4
74
0
42
0.000000001
43
0.0000000001
44
0.0000000001
40
0
40
0
40
0
40
0
40
1
40
1
40
1
40
1
41
1
41
1
41
1
41
1
10
237.27718206022118
20
16.558815117997938
30
0
10
237.27718206022118
20
16.656449815326198
30
0
10
237.28606480197334
20
16.762967980002298
30
0
10
237.30381141999129
20
16.8783688864306
30
0
0
LINE
5
208
100
AcDbEntity
8
0
100
AcDbLine
10
237.30381141999129
20
16.878368886430597
30
0
11
237.71656939881063
21
20.420088973364379
31
0
0
LINE
5
209
100
AcDbEntity
8
0
100
AcDbLine
10
237.71656939881063
20
20.420088973364379
30
0
11
237.66331067927038
21
20.446718695932312
31
0
0
LINE
5
210
100
AcDbEntity
8
0
100
AcDbLine
10
237.66331067927038
20
20.446718695932312
30
0
11
236.58481580381562
21
20.446718695932312
31
0
0
SPLINE
5
211
100
AcDbEntity
8
0
100
AcDbSpline
70
4
71
3
72
8
73
4
74
0
42
0.000000001
43
0.0000000001
44
0.0000000001
40
0
40
0
40
0
40
0
40
1
40
1
40
1
40
1
41
1
41
1
41
1
41
1
10
236.58481580381562
20
20.446718695932312
30
0
10
236.57595192754991
20
20.535489879792678
30
0
10
236.57150112393055
20
20.677520145991096
30
0
10
236.57150112393055
20
20.872790266243261
30
0
0
SPLINE
5
212
100
AcDbEntity
8
0
100
AcDbSpline
70
4
71
3
72
8
73
4
74
0
42
0.000000001
43
0.0000000001
44
0.0000000001
40
0
40
0
40
0
40
0
40
1
40
1
40
1
40
1
41
1
41
1
41
1
41
1
10
236.57150112393055
20
20.872790266243261
30
0
10
236.57150112393055
20
21.076961993734109
30
0
10
236.61144516358573
20
21.276683280403432
30
0
10
236.69133469408735
20
21.471953400655597
30
0
0
LINE
5
213
100
AcDbEntity
8
0
100
AcDbLine
10
236.69133469408737
20
21.471953400655597
30
0
11
237.83640151777615
21
21.471953400655597
31
0
0
LINE
5
214
100
AcDbEntity
8
0
100
AcDbLine
10
237.83640151777615
20
21.471953400655597
30
0
11
238.26247272528929
21
25.093565897798669
31
0
0
SPLINE
5
215
100
AcDbEntity
8
0
100
AcDbSpline
70
4
71
3
72
8
73
4
74
0
42
0.000000001
43
0.0000000001
44
0.0000000001
40
0
40
0
40
0
40
0
40
1
40
1
40
1
40
1
41
1
41
1
41
1
41
1
10
238.26247272528929
20
25.093565897798666
30
0
10
238.44887969487135
20
25.164577595656045
30
0
10
238.69742812574586
20
25.200083813051268
30
0
10
239.00813688339929
20
25.200083813051268
30
0
0
SPLINE
5
216
100
AcDbEntity
8
0
100
AcDbSpline
70
4
71
3
72
8
73
4
74
0
42
0.000000001
43
0.0000000001
44
0.0000000001
40
0
40
0
40
0
40
0
40
1
40
1
40
1
40
1
41
1
41
1
41
1
41
1
10
239.00813688339929
20
25.200083813051268
30
0
10
239.68262301219028
20
25.200083813051268
30
0
10
240.02005690823754
20
24.911597192636378
30
0
10
240.02005690823754
20
24.334625811145408
30
0
0
SPLINE
5
217
100
AcDbEntity
8
0
100
AcDbSpline
70
4
71
3
72
8
73
4
74
0
42
0.000000001
43
0.0000000001
44
0.0000000001
40
0
40
0
40
0
40
0
40
1
40
1
40
1
40
1
41
1
41
1
41
1
41
1
10
240.1532037070881
20
17.27781073417361
30
0
10
240.1532037070881
20
17.890288911268822
30
0
10
239.88690865819567
20
18.493903212098317
30
0
10
239.35432001160208
20
19.088615180093495
30
0
0
SPLINE
5
218
100
AcDbEntity
8
0
100
AcDbSpline
70
4
71
3
72
8
73
4
74
0
42
0.000000001
43
0.0000000001
44
0.0000000001
40
0
40
0
40
0
40
0
40
1
40
1
40
1
40
1
41
1
41
1
41
1
41
1
10
239.35432001160208
20
19.088615180093495
30
0
10
239.1945424017901
20
17.766024128574806
30
0
10
239.11465432247977
20
17.002652534611098
30
0
10
239.11465432247977
20
16.798480081524616
30
0
0
SPLINE
5
219
100
AcDbEntity
8
0
100
AcDbSpline
70
4
71
3
72
8
73
4
74
0
42
0.000000001
43
0.0000000001
44
0.0000000001
40
0
40
0
40
0
40
0
40
1
40
1
40
1
40
1
41
1
41
1
41
1
41
1
10
239.11465432247977
20
16.798480081524616
30
0
10
239.11465432247977
20
16.399038233781603
30
0
10
239.2432371247921
20
16.199317309910096
30
0
10
239.50078149033772
20
16.199317309910096
30
0
0
SPLINE
5
220
100
AcDbEntity
8
0
100
AcDbSpline
70
4
71
3
72
8
73
4
74
0
42
0.000000001
43
0.0000000001
44
0.0000000001
40
0
40
0
40
0
40
0
40
1
40
1
40
1
40
1
41
1
41
1
41
1
41
1
10
239.50078149033772
20
16.199317309910096
30
0
10
239.68718845991981
20
16.199317309910096
30
0
10
239.84240062200226
20
16.283656192839789
30
0
10
239.96679818869728
20
16.452296953321834
30
0
0
SPLINE
5
221
100
AcDbEntity
8
0
100
AcDbSpline
70
4
71
3
72
8
73
4
74
0
42
0.000000001
43
0.0000000001
44
0.0000000001
40
0
40
0
40
0
40
0
40
1
40
1
40
1
40
1
41
1
41
1
41
1
41
1
10
239.96679818869728
20
16.452296953321834
30
0
10
240.09100564933621
20
16.629840046638201
30
0
10
240.1532037070881
20
16.904998246200716
30
0
10
240.1532037070881
20
17.27781073417361
30
0
0
SPLINE
5
222
100
AcDbEntity
8
0
100
AcDbSpline
70
4
71
3
72
8
73
4
74
0
42
0.000000001
43
0.0000000001
44
0.0000000001
40
0
40
0
40
0
40
0
40
1
40
1
40
1
40
1
41
1
41
1
41
1
41
1
10
244.06431364738893
20
18.050065795485153
30
0
10
244.61478242159711
20
18.165466701913452
30
0
10
245.02297350149564
20
18.387385047422221
30
0
10
245.28927000157935
20
18.715802692120597
30
0
0
SPLINE
5
223
100
AcDbEntity
8
0
100
AcDbSpline
70
4
71
3
72
8
73
4
74
0
42
0.000000001
43
0.0000000001
44
0.0000000001
40
0
40
0
40
0
40
0
40
1
40
1
40
1
40
1
41
1
41
1
41
1
41
1
10
245.28927000157935
20
18.715802692120597
30
0
10
245.56450293749214
20
19.044239202305462
30
0
10
245.70202652920742
20
19.359361032605268
30
0
10
245.70202652920742
20
19.661148954735715
30
0
0
SPLINE
5
224
100
AcDbEntity
8
0
100
AcDbSpline
70
4
71
3
72
8
73
4
74
0
42
0.000000001
43
0.0000000001
44
0.0000000001
40
0
40
0
40
0
40
0
40
1
40
1
40
1
40
1
41
1
41
1
41
1
41
1
10
245.70202652920742
20
19.661148954735715
30
0
10
245.70202652920742
20
19.97183884690266
30
0
10
245.61776165703239
20
20.180423647039881
30
0
10
245.44904616020003
20
20.286941811715984
30
0
0
SPLINE
5
225
100
AcDbEntity
8
0
100
AcDbSpline
70
4
71
3
72
8
73
4
74
0
42
0.000000001
43
0.0000000001
44
0.0000000001
40
0
40
0
40
0
40
0
40
1
40
1
40
1
40
1
41
1
41
1
41
1
41
1
10
245.44904616020003
20
20.286941811715984
30
0
10
245.28927000157935
20
20.402342355346462
30
0
10
245.1118038214002
20
20.460033375817371
30
0
10
244.91645606241516
20
20.460033375817371
30
0
0
SPLINE
5
226
100
AcDbEntity
8
0
100
AcDbSpline
70
4
71
3
72
8
73
4
74
0
42
0.000000001
43
0.0000000001
44
0.0000000001
40
0
40
0
40
0
40
0
40
1
40
1
40
1
40
1
41
1
41
1
41
1
41
1
10
244.91645606241516
20
20.460033375817371
30
0
10
244.49932564430497
20
20.460033375817371
30
0
10
244.13088704681422
20
20.224818853112218
30
0
10
243.81133327838154
20
19.754352076728935
30
0
0
SPLINE
5
227
100
AcDbEntity
8
0
100
AcDbSpline
70
4
71
3
72
8
73
4
74
0
42
0.000000001
43
0.0000000001
44
0.0000000001
40
0
40
0
40
0
40
0
40
1
40
1
40
1
40
1
41
1
41
1
41
1
41
1
10
243.81133327838154
20
19.754352076728935
30
0
10
243.50071884816055
20
19.29278727038216
30
0
10
243.34531803121322
20
18.738000113757856
30
0
10
243.34531803121322
20
18.090009835140329
30
0
0
SPLINE
5
228
100
AcDbEntity
8
0
100
AcDbSpline
70
4
71
3
72
8
73
4
74
0
42
0.000000001
43
0.0000000001
44
0.0000000001
40
0
40
0
40
0
40
0
40
1
40
1
40
1
40
1
41
1
41
1
41
1
41
1
10
243.34531803121322
20
18.090009835140329
30
0
10
243.34531803121322
20
17.450902298275
30
0
10
243.49634495767842
20
16.971571645626007
30
0
10
243.7980185984965
20
16.652018602788978
30
0
0
SPLINE
5
229
100
AcDbEntity
8
0
100
AcDbSpline
70
4
71
3
72
8
73
4
74
0
42
0.000000001
43
0.0000000001
44
0.0000000001
40
0
40
0
40
0
40
0
40
1
40
1
40
1
40
1
41
1
41
1
41
1
41
1
10
243.7980185984965
20
16.652018602788978
30
0
10
244.10882313477362
20
16.341347576108515
30
0
10
244.49038630609328
20
16.18600263002504
30
0
10
244.94308542218531
20
16.18600263002504
30
0
0
SPLINE
5
230
100
AcDbEntity
8
0
100
AcDbSpline
70
4
71
3
72
8
73
4
74
0
42
0.000000001
43
0.0000000001
44
0.0000000001
40
0
40
0
40
0
40
0
40
1
40
1
40
1
40
1
41
1
41
1
41
1
41
1
10
244.94308542218531
20
16.18600263002504
30
0
10
245.60882231882073
20
16.18600263002504
30
0
10
246.24792985568607
20
16.41678485179952
30
0
10
246.86040803278127
20
16.8783688864306
30
0
0
SPLINE
5
231
100
AcDbEntity
8
0
100
AcDbSpline
70
4
71
3
72
8
73
4
74
0
42
0.000000001
43
0.0000000001
44
0.0000000001
40
0
40
0
40
0
40
0
40
1
40
1
40
1
40
1
41
1
41
1
41
1
41
1
10
246.86040803278127
20
16.8783688864306
30
0
10
247.47288620987646
20
17.339952921061681
30
0
10
247.97009626454442
20
17.943547630809054
30
0
10
248.35165798467287
20
18.689173332350482
30
0
0
SPLINE
5
232
100
AcDbEntity
8
0
100
AcDbSpline
70
4
71
3
72
8
73
4
74
0
42
0.000000001
43
0.0000000001
44
0.0000000001
40
0
40
0
40
0
40
0
40
1
40
1
40
1
40
1
41
1
41
1
41
1
41
1
10
248.35165798467287
20
18.689173332350482
30
0
10
248.54700574365785
20
18.502767088364035
30
0
10
248.72447192383703
20
18.271984140993919
30
0
10
248.88424808245773
20
17.996807075944922
30
0
0
SPLINE
5
233
100
AcDbEntity
8
0
100
AcDbSpline
70
4
71
3
72
8
73
4
74
0
42
0.000000001
43
0.0000000001
44
0.0000000001
40
0
40
0
40
0
40
0
40
1
40
1
40
1
40
1
41
1
41
1
41
1
41
1
10
248.88424808245773
20
17.996807075944922
30
0
10
248.59132512498644
20
17.331070179309478
30
0
10
248.07204825589537
20
16.678647962559094
30
0
10
247.32642327994955
20
16.039540425693765
30
0
0
SPLINE
5
234
100
AcDbEntity
8
0
100
AcDbSpline
70
4
71
3
72
8
73
4
74
0
42
0.000000001
43
0.0000000001
44
0.0000000001
40
0
40
0
40
0
40
0
40
1
40
1
40
1
40
1
41
1
41
1
41
1
41
1
10
247.32642327994955
20
16.039540425693765
30
0
10
246.95361224316795
20
15.728869399013302
30
0
10
246.50984956290506
20
15.475889755601564
30
0
10
245.99494948667868
20
15.280600044267281
30
0
0
SPLINE
5
235
100
AcDbEntity
8
0
100
AcDbSpline
70
4
71
3
72
8
73
4
74
0
42
0.000000001
43
0.0000000001
44
0.0000000001
40
0
40
0
40
0
40
0
40
1
40
1
40
1
40
1
41
1
41
1
41
1
41
1
10
245.99494948667868
20
15.280600044267281
30
0
10
245.48899165104646
20
15.085329924015118
30
0
10
244.96534089147329
20
14.987676361200368
30
0
10
244.42381145547674
20
14.987676361200368
30
0
0
SPLINE
5
236
100
AcDbEntity
8
0
100
AcDbSpline
70
4
71
3
72
8
73
4
74
0
42
0.000000001
43
0.0000000001
44
0.0000000001
40
0
40
0
40
0
40
0
40
1
40
1
40
1
40
1
41
1
41
1
41
1
41
1
10
244.42381145547674
20
14.987676361200368
30
0
10
243.5362889973336
20
14.987676361200368
30
0
10
242.83498195152509
20
15.258421488116507
30
0
10
242.32008187529868
20
15.79987473657145
30
0
0
SPLINE
5
237
100
AcDbEntity
8
0
100
AcDbSpline
70
4
71
3
72
8
73
4
74
0
42
0.000000001
43
0.0000000001
44
0.0000000001
40
0
40
0
40
0
40
0
40
1
40
1
40
1
40
1
41
1
41
1
41
1
41
1
10
242.32008187529868
20
15.79987473657145
30
0
10
241.76980320714662
20
16.385723553896547
30
0
10
241.49456882004256
20
17.135780467975195
30
0
10
241.49456882004256
20
18.050065795485153
30
0
0
SPLINE
5
238
100
AcDbEntity
8
0
100
AcDbSpline
70
4
71
3
72
8
73
4
74
0
42
0.000000001
43
0.0000000001
44
0.0000000001
40
0
40
0
40
0
40
0
40
1
40
1
40
1
40
1
41
1
41
1
41
1
41
1
10
241.49456882004256
20
18.050065795485153
30
0
10
241.49456882004256
20
18.964350397399478
30
0
10
241.83637660657195
20
19.763235181278954
30
0
10
242.51980352476582
20
20.446718695932312
30
0
0
SPLINE
5
239
100
AcDbEntity
8
0
100
AcDbSpline
70
4
71
3
72
8
73
4
74
0
42
0.000000001
43
0.0000000001
44
0.0000000001
40
0
40
0
40
0
40
0
40
1
40
1
40
1
40
1
41
1
41
1
41
1
41
1
10
242.51980352476582
20
20.446718695932312
30
0
10
243.21216978117138
20
21.130221076072161
30
0
10
244.03768428761879
20
21.471953400655597
30
0
10
244.9963441417255
20
21.471953400655597
30
0
0
SPLINE
5
240
100
AcDbEntity
8
0
100
AcDbSpline
70
4
71
3
72
8
73
4
74
0
42
0.000000001
43
0.0000000001
44
0.0000000001
40
0
40
0
40
0
40
0
40
1
40
1
40
1
40
1
41
1
41
1
41
1
41
1
10
244.9963441417255
20
21.471953400655597
30
0
10
245.67996261716684
20
21.471953400655597
30
0
10
246.23461662699228
20
21.321059258191465
30
0
10
246.66068638331413
20
21.019252470574532
30
0
0
SPLINE
5
241
100
AcDbEntity
8
0
100
AcDbSpline
70
4
71
3
72
8
73
4
74
0
42
0.000000001
43
0.0000000001
44
0.0000000001
40
0
40
0
40
0
40
0
40
1
40
1
40
1
40
1
41
1
41
1
41
1
41
1
10
246.66068638331413
20
21.019252470574532
30
0
10
247.08675904201854
20
20.726328061911985
30
0
10
247.30435936790897
20
20.326885851371159
30
0
10
247.31311005125579
20
19.820925838952043
30
0
0
SPLINE
5
242
100
AcDbEntity
8
0
100
AcDbSpline
70
4
71
3
72
8
73
4
74
0
42
0.000000001
43
0.0000000001
44
0.0000000001
40
0
40
0
40
0
40
0
40
1
40
1
40
1
40
1
41
1
41
1
41
1
41
1
10
247.31311005125579
20
19.820925838952043
30
0
10
247.31311005125579
20
19.137442687096502
30
0
10
247.03806577020782
20
18.582655167674382
30
0
10
246.48759699599964
20
18.156583960161253
30
0
0
SPLINE
5
243
100
AcDbEntity
8
0
100
AcDbSpline
70
4
71
3
72
8
73
4
74
0
42
0.000000001
43
0.0000000001
44
0.0000000001
40
0
40
0
40
0
40
0
40
1
40
1
40
1
40
1
41
1
41
1
41
1
41
1
10
246.48759699599964
20
18.156583960161253
30
0
10
245.94625621486799
20
17.730512027052491
30
0
10
245.20063123892217
20
17.433155680257087
30
0
10
244.25071916577974
20
17.26449605428855
30
0
0
LINE
5
244
100
AcDbEntity
8
0
100
AcDbLine
10
244.25071916577977
20
17.26449605428855
30
0
11
244.06431364738893
21
18.050065795485153
31
0
0
SPLINE
5
245
100
AcDbEntity
8
0
100
AcDbSpline
70
4
71
3
72
8
73
4
74
0
42
0.000000001
43
0.0000000001
44
0.0000000001
40
0
40
0
40
0
40
0
40
1
40
1
40
1
40
1
41
1
41
1
41
1
41
1
10
256.74736253299511
20
19.860870241405038
30
0
10
256.74736253299511
20
18.937721037629363
30
0
10
256.19689375878693
20
18.232040101338743
30
0
10
255.0963335201003
20
17.743826706937547
30
0
0
SPLINE
5
246
100
AcDbEntity
8
0
100
AcDbSpline
70
4
71
3
72
8
73
4
74
0
42
0.000000001
43
0.0000000001
44
0.0000000001
40
0
40
0
40
0
40
0
40
1
40
1
40
1
40
1
41
1
41
1
41
1
41
1
10
255.0963335201003
20
17.743826706937547
30
0
10
255.12296287987041
20
17.584049822721216
30
0
10
255.16290837071688
20
17.393211640601912
30
0
10
255.21616709025707
20
17.171293295093147
30
0
0
SPLINE
5
247
100
AcDbEntity
8
0
100
AcDbSpline
70
4
71
3
72
8
73
4
74
0
42
0.000000001
43
0.0000000001
44
0.0000000001
40
0
40
0
40
0
40
0
40
1
40
1
40
1
40
1
41
1
41
1
41
1
41
1
10
255.21616709025707
20
17.171293295093147
30
0
10
255.37594324887777
20
16.514439140209905
30
0
10
255.64223974896149
20
16.177138753759323
30
0
10
256.01505078574314
20
16.159373270254921
30
0
0
SPLINE
5
248
100
AcDbEntity
8
0
100
AcDbSpline
70
4
71
3
72
8
73
4
74
0
42
0.000000001
43
0.0000000001
44
0.0000000001
40
0
40
0
40
0
40
0
40
1
40
1
40
1
40
1
41
1
41
1
41
1
41
1
10
256.01505078574314
20
16.159373270254921
30
0
10
256.04168014551323
20
16.159373270254921
30
0
10
256.06830950528331
20
16.159373270254921
30
0
10
256.09493886505345
20
16.159373270254921
30
0
0
SPLINE
5
249
100
AcDbEntity
8
0
100
AcDbSpline
70
4
71
3
72
8
73
4
74
0
42
0.000000001
43
0.0000000001
44
0.0000000001
40
0
40
0
40
0
40
0
40
1
40
1
40
1
40
1
41
1
41
1
41
1
41
1
10
256.09493886505345
20
16.159373270254921
30
0
10
256.80499514301749
20
16.159373270254921
30
0
10
257.3332113503202
20
16.78516540163956
30
0
10
257.67939302733174
20
18.036751115600097
30
0
0
SPLINE
5
250
100
AcDbEntity
8
0
100
AcDbSpline
70
4
71
3
72
8
73
4
74
0
42
0.000000001
43
0.0000000001
44
0.0000000001
40
0
40
0
40
0
40
0
40
1
40
1
40
1
40
1
41
1
41
1
41
1
41
1
10
257.67939302733174
20
18.036751115600097
30
0
10
257.86579854572255
20
17.868091489631563
30
0
10
258.04326762828424
20
17.615129986110677
30
0
10
258.2119831251166
20
17.27781073417361
30
0
0
SPLINE
5
251
100
AcDbEntity
8
0
100
AcDbSpline
70
4
71
3
72
8
73
4
74
0
42
0.000000001
43
0.0000000001
44
0.0000000001
40
0
40
0
40
0
40
0
40
1
40
1
40
1
40
1
41
1
41
1
41
1
41
1
10
258.2119831251166
20
17.27781073417361
30
0
10
258.08758410723027
20
16.798480081524616
30
0
10
257.91011792705115
20
16.394606295648746
30
0
10
257.67939302733174
20
16.066169785463881
30
0
0
SPLINE
5
252
100
AcDbEntity
8
0
100
AcDbSpline
70
4
71
3
72
8
73
4
74
0
42
0.000000001
43
0.0000000001
44
0.0000000001
40
0
40
0
40
0
40
0
40
1
40
1
40
1
40
1
41
1
41
1
41
1
41
1
10
257.67939302733174
20
16.066169785463881
30
0
10
257.45741881095915
20
15.737733275279018
30
0
10
257.2133777801634
20
15.502519115371678
30
0
10
256.94708418246228
20
15.360488849173263
30
0
0
SPLINE
5
253
100
AcDbEntity
8
0
100
AcDbSpline
70
4
71
3
72
8
73
4
74
0
42
0.000000001
43
0.0000000001
44
0.0000000001
40
0
40
0
40
0
40
0
40
1
40
1
40
1
40
1
41
1
41
1
41
1
41
1
10
256.94708418246228
20
15.360488849173263
30
0
10
256.4765034875644
20
15.111940418298747
30
0
10
256.03274080730159
20
14.987676361200368
30
0
10
255.61561038919137
20
14.987676361200368
30
0
0
SPLINE
5
254
100
AcDbEntity
8
0
100
AcDbSpline
70
4
71
3
72
8
73
4
74
0
42
0.000000001
43
0.0000000001
44
0.0000000001
40
0
40
0
40
0
40
0
40
1
40
1
40
1
40
1
41
1
41
1
41
1
41
1
10
255.61561038919137
20
14.987676361200368
30
0
10
254.63906895627878
20
14.987676361200368
30
0
10
253.9556420380849
20
15.533580413274652
30
0
10
253.56514097974483
20
16.625388517423225
30
0
0
SPLINE
5
255
100
AcDbEntity
8
0
100
AcDbSpline
70
4
71
3
72
8
73
4
74
0
42
0.000000001
43
0.0000000001
44
0.0000000001
40
0
40
0
40
0
40
0
40
1
40
1
40
1
40
1
41
1
41
1
41
1
41
1
10
253.56514097974483
20
16.625388517423225
30
0
10
253.41411260208838
20
17.06034319228419
30
0
10
253.31216061073744
20
17.504161743410869
30
0
10
253.25890189119721
20
17.956862310694113
30
0
0
SPLINE
5
256
100
AcDbEntity
8
0
100
AcDbSpline
70
4
71
3
72
8
73
4
74
0
42
0.000000001
43
0.0000000001
44
0.0000000001
40
0
40
0
40
0
40
0
40
1
40
1
40
1
40
1
41
1
41
1
41
1
41
1
10
253.25890189119721
20
17.956862310694113
30
0
10
253.76485972682943
20
18.081145958874615
30
0
10
254.1643030257637
20
18.285298820878978
30
0
10
254.45722598323499
20
18.569340487789322
30
0
0
SPLINE
5
257
100
AcDbEntity
8
0
100
AcDbSpline
70
4
71
3
72
8
73
4
74
0
42
0.000000001
43
0.0000000001
44
0.0000000001
40
0
40
0
40
0
40
0
40
1
40
1
40
1
40
1
41
1
41
1
41
1
41
1
10
254.45722598323499
20
18.569340487789322
30
0
10
254.75015184308882
20
18.862264896451872
30
0
10
254.8966147730157
20
19.172935923132336
30
0
10
254.8966147730157
20
19.50137207051938
30
0
0
SPLINE
5
258
100
AcDbEntity
8
0
100
AcDbSpline
70
4
71
3
72
8
73
4
74
0
42
0.000000001
43
0.0000000001
44
0.0000000001
40
0
40
0
40
0
40
0
40
1
40
1
40
1
40
1
41
1
41
1
41
1
41
1
10
254.8966147730157
20
19.50137207051938
30
0
10
254.8966147730157
20
20.069473907028744
30
0
10
254.61243959650869
20
20.353515573939092
30
0
10
254.0444694556069
20
20.353515573939092
30
0
0
SPLINE
5
259
100
AcDbEntity
8
0
100
AcDbSpline
70
4
71
3
72
8
73
4
74
0
42
0.000000001
43
0.0000000001
44
0.0000000001
40
0
40
0
40
0
40
0
40
1
40
1
40
1
40
1
41
1
41
1
41
1
41
1
10
254.0444694556069
20
20.353515573939092
30
0
10
253.73366491932978
20
20.353515573939092
30
0
10
253.4673713216286
20
20.233682729377932
30
0
10
253.24558576012089
20
19.994017403053434
30
0
0
SPLINE
5
260
100
AcDbEntity
8
0
100
AcDbSpline
70
4
71
3
72
8
73
4
74
0
42
0.000000001
43
0.0000000001
44
0.0000000001
40
0
40
0
40
0
40
0
40
1
40
1
40
1
40
1
41
1
41
1
41
1
41
1
10
253.24558576012089
20
19.994017403053434
30
0
10
253.0236115437483
20
19.763235181278954
30
0
10
252.87714861382139
20
19.483625452501464
30
0
10
252.80619987272269
20
19.155189305114419
30
0
0
SPLINE
5
261
100
AcDbEntity
8
0
100
AcDbSpline
70
4
71
3
72
8
73
4
74
0
42
0.000000001
43
0.0000000001
44
0.0000000001
40
0
40
0
40
0
40
0
40
1
40
1
40
1
40
1
41
1
41
1
41
1
41
1
10
252.80619987272269
20
19.155189305114419
30
0
10
252.75294115318246
20
18.702488012235538
30
0
10
252.66411083327793
20
17.987923608597086
30
0
10
252.539903372639
20
17.011516410876816
30
0
0
SPLINE
5
262
100
AcDbEntity
8
0
100
AcDbSpline
70
4
71
3
72
8
73
4
74
0
42
0.000000001
43
0.0000000001
44
0.0000000001
40
0
40
0
40
0
40
0
40
1
40
1
40
1
40
1
41
1
41
1
41
1
41
1
10
252.539903372639
20
17.011516410876816
30
0
10
252.42444659534686
20
16.043972363826626
30
0
10
252.34893240651866
20
15.39600095069558
30
0
10
252.31355526578426
20
15.067564440510717
30
0
0
LINE
5
263
100
AcDbEntity
8
0
100
AcDbLine
10
252.31355526578429
20
15.067564440510717
30
0
11
250.54269268273265
21
15.067564440510717
31
0
0
SPLINE
5
264
100
AcDbEntity
8
0
100
AcDbSpline
70
4
71
3
72
8
73
4
74
0
42
0.000000001
43
0.0000000001
44
0.0000000001
40
0
40
0
40
0
40
0
40
1
40
1
40
1
40
1
41
1
41
1
41
1
41
1
10
250.54269268273265
20
15.067564440510717
30
0
10
251.18180021959799
20
20.508860520022566
30
0
10
251.5679302898385
20
23.850857687696845
30
0
10
251.70107708868903
20
25.093565897798666
30
0
0
SPLINE
5
265
100
AcDbEntity
8
0
100
AcDbSpline
70
4
71
3
72
8
73
4
74
0
42
0.000000001
43
0.0000000001
44
0.0000000001
40
0
40
0
40
0
40
0
40
1
40
1
40
1
40
1
41
1
41
1
41
1
41
1
10
251.70107708868903
20
25.093565897798666
30
0
10
251.8874826070799
20
25.164577595656045
30
0
10
252.14046297608724
20
25.200083813051268
30
0
10
252.46001529332864
20
25.200083813051268
30
0
0
SPLINE
5
266
100
AcDbEntity
8
0
100
AcDbSpline
70
4
71
3
72
8
73
4
74
0
42
0.000000001
43
0.0000000001
44
0.0000000001
40
0
40
0
40
0
40
0
40
1
40
1
40
1
40
1
41
1
41
1
41
1
41
1
10
252.46001529332864
20
25.200083813051268
30
0
10
253.15238154973423
20
25.200083813051268
30
0
10
253.49856612912822
20
24.995925123606966
30
0
10
253.49856612912822
20
24.587605862704692
30
0
0
LINE
5
267
100
AcDbEntity
8
0
100
AcDbLine
10
253.49856612912822
20
24.587605862704692
30
0
11
253.49856612912822
21
24.507717465946254
31
0
0
SPLINE
5
268
100
AcDbEntity
8
0
100
AcDbSpline
70
4
71
3
72
8
73
4
74
0
42
0.000000001
43
0.0000000001
44
0.0000000001
40
0
40
0
40
0
40
0
40
1
40
1
40
1
40
1
41
1
41
1
41
1
41
1
10
253.49856612912822
20
24.507717465946254
30
0
10
253.32090839170172
20
22.901081300937957
30
0
10
253.15675834259889
20
21.671674324527103
30
0
10
253.00592152218982
20
20.819531183905209
30
0
0
SPLINE
5
269
100
AcDbEntity
8
0
100
AcDbSpline
70
4
71
3
72
8
73
4
74
0
42
0.000000001
43
0.0000000001
44
0.0000000001
40
0
40
0
40
0
40
0
40
1
40
1
40
1
40
1
41
1
41
1
41
1
41
1
10
253.00592152218982
20
20.819531183905209
30
0
10
253.49400068139872
20
21.272232476784087
30
0
10
254.10647885849392
20
21.498582760425712
30
0
10
254.84335315109291
20
21.498582760425712
30
0
0
SPLINE
5
270
100
AcDbEntity
8
0
100
AcDbSpline
70
4
71
3
72
8
73
4
74
0
42
0.000000001
43
0.0000000001
44
0.0000000001
40
0
40
0
40
0
40
0
40
1
40
1
40
1
40
1
41
1
41
1
41
1
41
1
10
254.84335315109291
20
21.498582760425712
30
0
10
255.39363327043623
20
21.498582760425712
30
0
10
255.84633528891075
20
21.356571722511596
30
0
10
256.20145630413396
20
21.072511190114763
30
0
0
SPLINE
5
271
100
AcDbEntity
8
0
100
AcDbSpline
70
4
71
3
72
8
73
4
74
0
42
0.000000001
43
0.0000000001
44
0.0000000001
40
0
40
0
40
0
40
0
40
1
40
1
40
1
40
1
41
1
41
1
41
1
41
1
10
256.20145630413396
20
21.072511190114763
30
0
10
256.56533090508646
20
20.788469886002233
30
0
10
256.74736253299511
20
20.384595737328549
30
0
10
256.74736253299511
20
19.860870241405038
30
0
0
SPLINE
5
272
100
AcDbEntity
8
0
100
AcDbSpline
70
4
71
3
72
8
73
4
74
0
42
0.000000001
43
0.0000000001
44
0.0000000001
40
0
40
0
40
0
40
0
40
1
40
1
40
1
40
1
41
1
41
1
41
1
41
1
10
259.79757792373158
20
18.050065795485153
30
0
10
260.34785804307495
20
18.165466701913452
30
0
10
260.75624068022086
20
18.387385047422221
30
0
10
261.02253427792203
20
18.715802692120597
30
0
0
SPLINE
5
273
100
AcDbEntity
8
0
100
AcDbSpline
70
4
71
3
72
8
73
4
74
0
42
0.000000001
43
0.0000000001
44
0.0000000001
40
0
40
0
40
0
40
0
40
1
40
1
40
1
40
1
41
1
41
1
41
1
41
1
10
261.02253427792203
20
18.715802692120597
30
0
10
261.29777011621735
20
19.044239202305462
30
0
10
261.4352908055501
20
19.359361032605268
30
0
10
261.4352908055501
20
19.661148954735715
30
0
0
SPLINE
5
274
100
AcDbEntity
8
0
100
AcDbSpline
70
4
71
3
72
8
73
4
74
0
42
0.000000001
43
0.0000000001
44
0.0000000001
40
0
40
0
40
0
40
0
40
1
40
1
40
1
40
1
41
1
41
1
41
1
41
1
10
261.4352908055501
20
19.661148954735715
30
0
10
261.4352908055501
20
19.97183884690266
30
0
10
261.35102883575763
20
20.180423647039881
30
0
10
261.18231043654271
20
20.286941811715984
30
0
0
SPLINE
5
275
100
AcDbEntity
8
0
100
AcDbSpline
70
4
71
3
72
8
73
4
74
0
42
0.000000001
43
0.0000000001
44
0.0000000001
40
0
40
0
40
0
40
0
40
1
40
1
40
1
40
1
41
1
41
1
41
1
41
1
10
261.18231043654271
20
20.286941811715984
30
0
10
261.02253427792203
20
20.402342355346462
30
0
10
260.84506809774285
20
20.460033375817371
30
0
10
260.64972033875785
20
20.460033375817371
30
0
0
SPLINE
5
276
100
AcDbEntity
8
0
100
AcDbSpline
70
4
71
3
72
8
73
4
74
0
42
0.000000001
43
0.0000000001
44
0.0000000001
40
0
40
0
40
0
40
0
40
1
40
1
40
1
40
1
41
1
41
1
41
1
41
1
10
260.64972033875785
20
20.460033375817371
30
0
10
260.23258992064763
20
20.460033375817371
30
0
10
259.86415277434816
20
20.224818853112218
30
0
10
259.54459755472419
20
19.754352076728935
30
0
0
SPLINE
5
277
100
AcDbEntity
8
0
100
AcDbSpline
70
4
71
3
72
8
73
4
74
0
42
0.000000001
43
0.0000000001
44
0.0000000001
40
0
40
0
40
0
40
0
40
1
40
1
40
1
40
1
41
1
41
1
41
1
41
1
10
259.54459755472419
20
19.754352076728935
30
0
10
259.23398457569448
20
19.29278727038216
30
0
10
259.07858230755596
20
18.738000113757856
30
0
10
259.07858230755596
20
18.090009835140329
30
0
0
SPLINE
5
278
100
AcDbEntity
8
0
100
AcDbSpline
70
4
71
3
72
8
73
4
74
0
42
0.000000001
43
0.0000000001
44
0.0000000001
40
0
40
0
40
0
40
0
40
1
40
1
40
1
40
1
41
1
41
1
41
1
41
1
10
259.07858230755596
20
18.090009835140329
30
0
10
259.07858230755596
20
17.450902298275
30
0
10
259.22961068521238
20
16.971571645626007
30
0
10
259.53128432603046
20
16.652018602788978
30
0
0
SPLINE
5
279
100
AcDbEntity
8
0
100
AcDbSpline
70
4
71
3
72
8
73
4
74
0
42
0.000000001
43
0.0000000001
44
0.0000000001
40
0
40
0
40
0
40
0
40
1
40
1
40
1
40
1
41
1
41
1
41
1
41
1
10
259.53128432603046
20
16.652018602788978
30
0
10
259.84208886230755
20
16.341347576108515
30
0
10
260.22365058243599
20
16.18600263002504
30
0
10
260.67634969852799
20
16.18600263002504
30
0
0
SPLINE
5
280
100
AcDbEntity
8
0
100
AcDbSpline
70
4
71
3
72
8
73
4
74
0
42
0.000000001
43
0.0000000001
44
0.0000000001
40
0
40
0
40
0
40
0
40
1
40
1
40
1
40
1
41
1
41
1
41
1
41
1
10
260.67634969852799
20
16.18600263002504
30
0
10
261.34208659516338
20
16.18600263002504
30
0
10
261.98119413202875
20
16.41678485179952
30
0
10
262.59367230912397
20
16.8783688864306
30
0
0
SPLINE
5
281
100
AcDbEntity
8
0
100
AcDbSpline
70
4
71
3
72
8
73
4
74
0
42
0.000000001
43
0.0000000001
44
0.0000000001
40
0
40
0
40
0
40
0
40
1
40
1
40
1
40
1
41
1
41
1
41
1
41
1
10
262.59367230912397
20
16.8783688864306
30
0
10
263.20615048621914
20
17.339952921061681
30
0
10
263.7033605408871
20
17.943547630809054
30
0
10
264.08492516339805
20
18.689173332350482
30
0
0
SPLINE
5
282
100
AcDbEntity
8
0
100
AcDbSpline
70
4
71
3
72
8
73
4
74
0
42
0.000000001
43
0.0000000001
44
0.0000000001
40
0
40
0
40
0
40
0
40
1
40
1
40
1
40
1
41
1
41
1
41
1
41
1
10
264.08492516339805
20
18.689173332350482
30
0
10
264.28027002000056
20
18.502767088364035
30
0
10
264.45773620017968
20
18.271984140993919
30
0
10
264.61751235880041
20
17.996807075944922
30
0
0
SPLINE
5
283
100
AcDbEntity
8
0
100
AcDbSpline
70
4
71
3
72
8
73
4
74
0
42
0.000000001
43
0.0000000001
44
0.0000000001
40
0
40
0
40
0
40
0
40
1
40
1
40
1
40
1
41
1
41
1
41
1
41
1
10
264.61751235880041
20
17.996807075944922
30
0
10
264.32458940132909
20
17.331070179309478
30
0
10
263.80531543462058
20
16.678647962559094
30
0
10
263.05969045867477
20
16.039540425693765
30
0
0
SPLINE
5
284
100
AcDbEntity
8
0
100
AcDbSpline
70
4
71
3
72
8
73
4
74
0
42
0.000000001
43
0.0000000001
44
0.0000000001
40
0
40
0
40
0
40
0
40
1
40
1
40
1
40
1
41
1
41
1
41
1
41
1
10
263.05969045867477
20
16.039540425693765
30
0
10
262.68687651951063
20
15.728869399013302
30
0
10
262.24311383924777
20
15.475889755601564
30
0
10
261.72821666540392
20
15.280600044267281
30
0
0
SPLINE
5
285
100
AcDbEntity
8
0
100
AcDbSpline
70
4
71
3
72
8
73
4
74
0
42
0.000000001
43
0.0000000001
44
0.0000000001
40
0
40
0
40
0
40
0
40
1
40
1
40
1
40
1
41
1
41
1
41
1
41
1
10
261.72821666540392
20
15.280600044267281
30
0
10
261.22225592738914
20
15.085329924015118
30
0
10
260.69860516781597
20
14.987676361200368
30
0
10
260.15707573181942
20
14.987676361200368
30
0
0
SPLINE
5
286
100
AcDbEntity
8
0
100
AcDbSpline
70
4
71
3
72
8
73
4
74
0
42
0.000000001
43
0.0000000001
44
0.0000000001
40
0
40
0
40
0
40
0
40
1
40
1
40
1
40
1
41
1
41
1
41
1
41
1
10
260.15707573181942
20
14.987676361200368
30
0
10
259.26936461881144
20
14.987676361200368
30
0
10
258.56824767905903
20
15.258421488116507
30
0
10
258.05334760283262
20
15.79987473657145
30
0
0
SPLINE
5
287
100
AcDbEntity
8
0
100
AcDbSpline
70
4
71
3
72
8
73
4
74
0
42
0.000000001
43
0.0000000001
44
0.0000000001
40
0
40
0
40
0
40
0
40
1
40
1
40
1
40
1
41
1
41
1
41
1
41
1
10
258.05334760283262
20
15.79987473657145
30
0
10
257.5030674834893
20
16.385723553896547
30
0
10
257.22783454757649
20
17.135780467975195
30
0
10
257.22783454757649
20
18.050065795485153
30
0
0
SPLINE
5
288
100
AcDbEntity
8
0
100
AcDbSpline
70
4
71
3
72
8
73
4
74
0
42
0.000000001
43
0.0000000001
44
0.0000000001
40
0
40
0
40
0
40
0
40
1
40
1
40
1
40
1
41
1
41
1
41
1
41
1
10
257.22783454757649
20
18.050065795485153
30
0
10
257.22783454757649
20
18.964350397399478
30
0
10
257.56964233410588
20
19.763235181278954
30
0
10
258.25306925229978
20
20.446718695932312
30
0
0
SPLINE
5
289
100
AcDbEntity
8
0
100
AcDbSpline
70
4
71
3
72
8
73
4
74
0
42
0.000000001
43
0.0000000001
44
0.0000000001
40
0
40
0
40
0
40
0
40
1
40
1
40
1
40
1
41
1
41
1
41
1
41
1
10
258.25306925229978
20
20.446718695932312
30
0
10
258.94543550870532
20
21.130221076072161
30
0
10
259.7709485639615
20
21.471953400655597
30
0
10
260.72961132045072
20
21.471953400655597
30
0
0
SPLINE
5
290
100
AcDbEntity
8
0
100
AcDbSpline
70
4
71
3
72
8
73
4
74
0
42
0.000000001
43
0.0000000001
44
0.0000000001
40
0
40
0
40
0
40
0
40
1
40
1
40
1
40
1
41
1
41
1
41
1
41
1
10
260.72961132045072
20
21.471953400655597
30
0
10
261.41322689350949
20
21.471953400655597
30
0
10
261.96788090333496
20
21.321059258191465
30
0
10
262.39395356203937
20
21.019252470574532
30
0
0
SPLINE
5
291
100
AcDbEntity
8
0
100
AcDbSpline
70
4
71
3
72
8
73
4
74
0
42
0.000000001
43
0.0000000001
44
0.0000000001
40
0
40
0
40
0
40
0
40
1
40
1
40
1
40
1
41
1
41
1
41
1
41
1
10
262.39395356203937
20
21.019252470574532
30
0
10
262.82002331836122
20
20.726328061911985
30
0
10
263.03762364425165
20
20.326885851371159
30
0
10
263.04637432759847
20
19.820925838952043
30
0
0
SPLINE
5
292
100
AcDbEntity
8
0
100
AcDbSpline
70
4
71
3
72
8
73
4
74
0
42
0.000000001
43
0.0000000001
44
0.0000000001
40
0
40
0
40
0
40
0
40
1
40
1
40
1
40
1
41
1
41
1
41
1
41
1
10
263.04637432759847
20
19.820925838952043
30
0
10
263.04637432759847
20
19.137442687096502
30
0
10
262.77133004655047
20
18.582655167674382
30
0
10
262.22086127234229
20
18.156583960161253
30
0
0
SPLINE
5
293
100
AcDbEntity
8
0
100
AcDbSpline
70
4
71
3
72
8
73
4
74
0
42
0.000000001
43
0.0000000001
44
0.0000000001
40
0
40
0
40
0
40
0
40
1
40
1
40
1
40
1
41
1
41
1
41
1
41
1
10
262.22086127234229
20
18.156583960161253
30
0
10
261.67952049121067
20
17.730512027052491
30
0
10
260.93389551526485
20
17.433155680257087
30
0
10
259.98398344212239
20
17.26449605428855
30
0
0
LINE
5
294
100
AcDbEntity
8
0
100
AcDbLine
10
259.98398344212245
20
17.26449605428855
30
0
11
259.79757792373158
21
18.050065795485153
31
0
0
SPLINE
5
295
100
AcDbEntity
8
0
100
AcDbSpline
70
4
71
3
72
8
73
4
74
0
42
0.000000001
43
0.0000000001
44
0.0000000001
40
0
40
0
40
0
40
0
40
1
40
1
40
1
40
1
41
1
41
1
41
1
41
1
10
264.53534300681656
20
24.867215364733543
30
0
10
264.73943854676583
20
25.08025117256388
30
0
10
264.98804212290855
20
25.186769076479049
30
0
10
265.28096798276232
20
25.186769076479049
30
0
0
SPLINE
5
296
100
AcDbEntity
8
0
100
AcDbSpline
70
4
71
3
72
8
73
4
74
0
42
0.000000001
43
0.0000000001
44
0.0000000001
40
0
40
0
40
0
40
0
40
1
40
1
40
1
40
1
41
1
41
1
41
1
41
1
10
265.28096798276232
20
25.186769076479049
30
0
10
265.57389094023364
20
25.186769076479049
30
0
10
265.8223058615115
20
25.08025117256388
30
0
10
266.02659295870814
20
24.867215364733543
30
0
0
SPLINE
5
297
100
AcDbEntity
8
0
100
AcDbSpline
70
4
71
3
72
8
73
4
74
0
42
0.000000001
43
0.0000000001
44
0.0000000001
40
0
40
0
40
0
40
0
40
1
40
1
40
1
40
1
41
1
41
1
41
1
41
1
10
266.02659295870814
20
24.867215364733543
30
0
10
266.23962783686909
20
24.663056697964109
30
0
10
266.34614817833204
20
24.414514253253575
30
0
10
266.34614817833204
20
24.121590025989935
30
0
0
SPLINE
5
298
100
AcDbEntity
8
0
100
AcDbSpline
70
4
71
3
72
8
73
4
74
0
42
0.000000001
43
0.0000000001
44
0.0000000001
40
0
40
0
40
0
40
0
40
1
40
1
40
1
40
1
41
1
41
1
41
1
41
1
10
266.34614817833204
20
24.121590025989935
30
0
10
266.34614817833204
20
23.828665798726298
30
0
10
266.23962783686909
20
23.580123444715216
30
0
10
266.02659295870814
20
23.375960968568702
30
0
0
SPLINE
5
299
100
AcDbEntity
8
0
100
AcDbSpline
70
4
71
3
72
8
73
4
74
0
42
0.000000001
43
0.0000000001
44
0.0000000001
40
0
40
0
40
0
40
0
40
1
40
1
40
1
40
1
41
1
41
1
41
1
41
1
10
266.02659295870814
20
23.375960968568702
30
0
10
265.8223058615115
20
23.171807925165432
30
0
10
265.57389094023364
20
23.069721880021095
30
0
10
265.28096798276232
20
23.069721880021095
30
0
0
SPLINE
5
300
100
AcDbEntity
8
0
100
AcDbSpline
70
4
71
3
72
8
73
4
74
0
42
0.000000001
43
0.0000000001
44
0.0000000001
40
0
40
0
40
0
40
0
40
1
40
1
40
1
40
1
41
1
41
1
41
1
41
1
10
265.28096798276232
20
23.069721880021095
30
0
10
264.98804212290855
20
23.069721880021095
30
0
10
264.73943854676583
20
23.171807925165432
30
0
10
264.53534300681656
20
23.375960968568702
30
0
0
SPLINE
5
301
100
AcDbEntity
8
0
100
AcDbSpline
70
4
71
3
72
8
73
4
74
0
42
0.000000001
43
0.0000000001
44
0.0000000001
40
0
40
0
40
0
40
0
40
1
40
1
40
1
40
1
41
1
41
1
41
1
41
1
10
264.53534300681656
20
23.375960968568702
30
0
10
264.33105590961992
20
23.580123444715216
30
0
10
264.22910391826895
20
23.828665798726298
30
0
10
264.22910391826895
20
24.121590025989935
30
0
0
SPLINE
5
302
100
AcDbEntity
8
0
100
AcDbSpline
70
4
71
3
72
8
73
4
74
0
42
0.000000001
43
0.0000000001
44
0.0000000001
40
0
40
0
40
0
40
0
40
1
40
1
40
1
40
1
41
1
41
1
41
1
41
1
10
264.22910391826895
20
24.121590025989935
30
0
10
264.22910391826895
20
24.414514253253575
30
0
10
264.33105590961992
20
24.663056697964109
30
0
10
264.53534300681656
20
24.867215364733543
30
0
0
SPLINE
5
303
100
AcDbEntity
8
0
100
AcDbSpline
70
4
71
3
72
8
73
4
74
0
42
0.000000001
43
0.0000000001
44
0.0000000001
40
0
40
0
40
0
40
0
40
1
40
1
40
1
40
1
41
1
41
1
41
1
41
1
10
263.98943677795535
20
20.965993388236484
30
0
10
264.07807554061253
20
21.125770272452815
30
0
10
264.2467939398274
20
21.245602754216154
30
0
10
264.49539751597013
20
21.325491196324322
30
0
0
SPLINE
5
304
100
AcDbEntity
8
0
100
AcDbSpline
70
4
71
3
72
8
73
4
74
0
42
0.000000001
43
0.0000000001
44
0.0000000001
40
0
40
0
40
0
40
0
40
1
40
1
40
1
40
1
41
1
41
1
41
1
41
1
10
264.49539751597013
20
21.325491196324322
30
0
10
264.74381243724798
20
21.414262380184688
30
0
10
264.98804212290855
20
21.458638720770537
30
0
10
265.2277092632221
20
21.458638720770537
30
0
0
SPLINE
5
305
100
AcDbEntity
8
0
100
AcDbSpline
70
4
71
3
72
8
73
4
74
0
42
0.000000001
43
0.0000000001
44
0.0000000001
40
0
40
0
40
0
40
0
40
1
40
1
40
1
40
1
41
1
41
1
41
1
41
1
10
265.2277092632221
20
21.458638720770537
30
0
10
265.47612418449995
20
21.458638720770537
30
0
10
265.69372451039044
20
21.427577422867564
30
0
10
265.8801300287812
20
21.365435598777314
30
0
0
SPLINE
5
306
100
AcDbEntity
8
0
100
AcDbSpline
70
4
71
3
72
8
73
4
74
0
42
0.000000001
43
0.0000000001
44
0.0000000001
40
0
40
0
40
0
40
0
40
1
40
1
40
1
40
1
41
1
41
1
41
1
41
1
10
265.8801300287812
20
21.365435598777314
30
0
10
265.53394835176971
20
18.693624135969824
30
0
10
265.36085606207268
20
17.344384859194534
30
0
10
265.36085606207268
20
17.317755499424422
30
0
0
SPLINE
5
307
100
AcDbEntity
8
0
100
AcDbSpline
70
4
71
3
72
8
73
4
74
0
42
0.000000001
43
0.0000000001
44
0.0000000001
40
0
40
0
40
0
40
0
40
1
40
1
40
1
40
1
41
1
41
1
41
1
41
1
10
265.36085606207268
20
17.317755499424422
30
0
10
265.31634802587928
20
17.14023199719017
30
0
10
265.29428121145611
20
16.98931826364392
30
0
10
265.29428121145611
20
16.86505420654554
30
0
0
SPLINE
5
308
100
AcDbEntity
8
0
100
AcDbSpline
70
4
71
3
72
8
73
4
74
0
42
0.000000001
43
0.0000000001
44
0.0000000001
40
0
40
0
40
0
40
0
40
1
40
1
40
1
40
1
41
1
41
1
41
1
41
1
10
265.29428121145611
20
16.86505420654554
30
0
10
265.29428121145611
20
16.749653300117238
30
0
10
265.30303189480293
20
16.647586664656121
30
0
10
265.32091057122625
20
16.558815117997938
30
0
0
SPLINE
5
309
100
AcDbEntity
8
0
100
AcDbSpline
70
4
71
3
72
8
73
4
74
0
42
0.000000001
43
0.0000000001
44
0.0000000001
40
0
40
0
40
0
40
0
40
1
40
1
40
1
40
1
41
1
41
1
41
1
41
1
10
265.32091057122625
20
16.558815117997938
30
0
10
265.35629061434315
20
16.328032896223455
30
0
10
265.51606677296388
20
16.212631989795156
30
0
10
265.80024194947089
20
16.212631989795156
30
0
0
SPLINE
5
310
100
AcDbEntity
8
0
100
AcDbSpline
70
4
71
3
72
8
73
4
74
0
42
0.000000001
43
0.0000000001
44
0.0000000001
40
0
40
0
40
0
40
0
40
1
40
1
40
1
40
1
41
1
41
1
41
1
41
1
10
265.80024194947089
20
16.212631989795156
30
0
10
266.09316780932471
20
16.212631989795156
30
0
10
266.35946140702583
20
16.399038233781603
30
0
10
266.59912564495693
20
16.7718507217545
30
0
0
SPLINE
5
311
100
AcDbEntity
8
0
100
AcDbSpline
70
4
71
3
72
8
73
4
74
0
42
0.000000001
43
0.0000000001
44
0.0000000001
40
0
40
0
40
0
40
0
40
1
40
1
40
1
40
1
41
1
41
1
41
1
41
1
10
266.59912564495693
20
16.7718507217545
30
0
10
266.84754056623478
20
17.15354667707523
30
0
10
267.0339489870081
20
17.584049822721216
30
0
10
267.15834510251187
20
18.063380475370213
30
0
0
SPLINE
5
312
100
AcDbEntity
8
0
100
AcDbSpline
70
4
71
3
72
8
73
4
74
0
42
0.000000001
43
0.0000000001
44
0.0000000001
40
0
40
0
40
0
40
0
40
1
40
1
40
1
40
1
41
1
41
1
41
1
41
1
10
267.15834510251187
20
18.063380475370213
30
0
10
267.22035450539892
20
18.027887239334383
30
0
10
267.3181212611326
20
17.92136907465828
30
0
10
267.4512709623657
20
17.743826706937547
30
0
0
SPLINE
5
313
100
AcDbEntity
8
0
100
AcDbSpline
70
4
71
3
72
8
73
4
74
0
42
0.000000001
43
0.0000000001
44
0.0000000001
40
0
40
0
40
0
40
0
40
1
40
1
40
1
40
1
41
1
41
1
41
1
41
1
10
267.4512709623657
20
17.743826706937547
30
0
10
267.58441776121629
20
17.566303204703303
30
0
10
267.66430584052665
20
17.433155680257087
30
0
10
267.69093520029674
20
17.344384859194534
30
0
0
SPLINE
5
314
100
AcDbEntity
8
0
100
AcDbSpline
70
4
71
3
72
8
73
4
74
0
42
0.000000001
43
0.0000000001
44
0.0000000001
40
0
40
0
40
0
40
0
40
1
40
1
40
1
40
1
41
1
41
1
41
1
41
1
10
267.69093520029674
20
17.344384859194534
30
0
10
267.51327746287018
20
16.634271259175428
30
0
10
267.2116038220521
20
16.061737847331024
30
0
10
266.78553406573025
20
15.626783172470059
30
0
0
SPLINE
5
315
100
AcDbEntity
8
0
100
AcDbSpline
70
4
71
3
72
8
73
4
74
0
42
0.000000001
43
0.0000000001
44
0.0000000001
40
0
40
0
40
0
40
0
40
1
40
1
40
1
40
1
41
1
41
1
41
1
41
1
10
266.78553406573025
20
15.626783172470059
30
0
10
266.35946140702583
20
15.191848088691216
30
0
10
265.84893522128158
20
14.974360955719675
30
0
10
265.25433862299224
20
14.974360955719675
30
0
0
SPLINE
5
316
100
AcDbEntity
8
0
100
AcDbSpline
70
4
71
3
72
8
73
4
74
0
42
0.000000001
43
0.0000000001
44
0.0000000001
40
0
40
0
40
0
40
0
40
1
40
1
40
1
40
1
41
1
41
1
41
1
41
1
10
265.25433862299224
20
14.974360955719675
30
0
10
264.65955046745546
20
14.974360955719675
30
0
10
264.2157877871926
20
15.12082316005095
30
0
10
263.92286482972133
20
15.413747568713497
30
0
0
SPLINE
5
317
100
AcDbEntity
8
0
100
AcDbSpline
70
4
71
3
72
8
73
4
74
0
42
0.000000001
43
0.0000000001
44
0.0000000001
40
0
40
0
40
0
40
0
40
1
40
1
40
1
40
1
41
1
41
1
41
1
41
1
10
263.92286482972133
20
15.413747568713497
30
0
10
263.63868965321433
20
15.706671977376043
30
0
10
263.49679217101698
20
16.083916403481798
30
0
10
263.49679217101698
20
16.545500438112878
30
0
0
SPLINE
5
318
100
AcDbEntity
8
0
100
AcDbSpline
70
4
71
3
72
8
73
4
74
0
42
0.000000001
43
0.0000000001
44
0.0000000001
40
0
40
0
40
0
40
0
40
1
40
1
40
1
40
1
41
1
41
1
41
1
41
1
10
263.49679217101698
20
16.545500438112878
30
0
10
263.49679217101698
20
16.643135135441142
30
0
10
263.50116896388164
20
16.745221361984385
30
0
10
263.51010830209327
20
16.851739526660481
30
0
0
LINE
5
319
100
AcDbEntity
8
0
100
AcDbLine
10
263.51010830209327
20
16.851739526660481
30
0
11
263.98943677795535
21
20.965993388236484
31
0
0
LINE
5
320
100
AcDbEntity
8
0
100
AcDbLine
10
270.39972301661612
20
16.558815117997938
30
0
11
270.71927533385752
21
19.528001793087316
31
0
0
SPLINE
5
321
100
AcDbEntity
8
0
100
AcDbSpline
70
4
71
3
72
8
73
4
74
0
42
0.000000001
43
0.0000000001
44
0.0000000001
40
0
40
0
40
0
40
0
40
1
40
1
40
1
40
1
41
1
41
1
41
1
41
1
10
270.71927533385747
20
19.528001793087313
30
0
10
270.71927533385747
20
19.767666756613995
30
0
10
270.65707727610561
20
19.967388043283318
30
0
10
270.53287271784922
20
20.127164927499649
30
0
0
SPLINE
5
322
100
AcDbEntity
8
0
100
AcDbSpline
70
4
71
3
72
8
73
4
74
0
42
0.000000001
43
0.0000000001
44
0.0000000001
40
0
40
0
40
0
40
0
40
1
40
1
40
1
40
1
41
1
41
1
41
1
41
1
10
270.53287271784922
20
20.127164927499649
30
0
10
270.40847079758038
20
20.286941811715984
30
0
10
270.20000426953152
20
20.366830253824148
30
0
10
269.90707840967764
20
20.366830253824148
30
0
0
SPLINE
5
323
100
AcDbEntity
8
0
100
AcDbSpline
70
4
71
3
72
8
73
4
74
0
42
0.000000001
43
0.0000000001
44
0.0000000001
40
0
40
0
40
0
40
0
40
1
40
1
40
1
40
1
41
1
41
1
41
1
41
1
10
269.90707840967764
20
20.366830253824148
30
0
10
269.62290613555319
20
20.366830253824148
30
0
10
269.37886220237493
20
20.238133532997278
30
0
10
269.17476666242567
20
19.980702723168378
30
0
0
SPLINE
5
324
100
AcDbEntity
8
0
100
AcDbSpline
70
4
71
3
72
8
73
4
74
0
42
0.000000001
43
0.0000000001
44
0.0000000001
40
0
40
0
40
0
40
0
40
1
40
1
40
1
40
1
41
1
41
1
41
1
41
1
10
269.17476666242567
20
19.980702723168378
30
0
10
268.97941890344066
20
19.732173520578161
30
0
10
268.85521434518427
20
19.417051690278356
30
0
10
268.80195562564404
20
19.03535646055326
30
0
0
SPLINE
5
325
100
AcDbEntity
8
0
100
AcDbSpline
70
4
71
3
72
8
73
4
74
0
42
0.000000001
43
0.0000000001
44
0.0000000001
40
0
40
0
40
0
40
0
40
1
40
1
40
1
40
1
41
1
41
1
41
1
41
1
10
268.80195562564404
20
19.03535646055326
30
0
10
268.48240040602013
20
16.603191095785967
30
0
10
268.31368490918777
20
15.280600044267281
30
0
10
268.29599488762932
20
15.067564440510717
30
0
0
LINE
5
326
100
AcDbEntity
8
0
100
AcDbLine
10
268.29599488762932
20
15.067564440510717
30
0
11
266.49850584719013
21
15.067564440510717
31
0
0
LINE
5
327
100
AcDbEntity
8
0
100
AcDbLine
10
266.49850584719013
20
15.067564440510717
30
0
11
267.2308146920596
21
21.338805876209381
31
0
0
SPLINE
5
328
100
AcDbEntity
8
0
100
AcDbSpline
70
4
71
3
72
8
73
4
74
0
42
0.000000001
43
0.0000000001
44
0.0000000001
40
0
40
0
40
0
40
0
40
1
40
1
40
1
40
1
41
1
41
1
41
1
41
1
10
267.2308146920596
20
21.338805876209381
30
0
10
267.60362863122373
20
21.436460164619767
30
0
10
267.88761225048336
20
21.485268080540653
30
0
10
268.08296000946837
20
21.485268080540653
30
0
0
SPLINE
5
329
100
AcDbEntity
8
0
100
AcDbSpline
70
4
71
3
72
8
73
4
74
0
42
0.000000001
43
0.0000000001
44
0.0000000001
40
0
40
0
40
0
40
0
40
1
40
1
40
1
40
1
41
1
41
1
41
1
41
1
10
268.08296000946837
20
21.485268080540653
30
0
10
268.67755951014027
20
21.485268080540653
30
0
10
268.98836404641736
20
21.26780053865123
30
0
10
269.014990503805
20
20.832845863790268
30
0
0
SPLINE
5
330
100
AcDbEntity
8
0
100
AcDbSpline
70
4
71
3
72
8
73
4
74
0
42
0.000000001
43
0.0000000001
44
0.0000000001
40
0
40
0
40
0
40
0
40
1
40
1
40
1
40
1
41
1
41
1
41
1
41
1
10
269.014990503805
20
20.832845863790268
30
0
10
269.44981384585617
20
21.258917434101214
30
0
10
269.96908491018218
20
21.471953400655597
30
0
10
270.57281530631309
20
21.471953400655597
30
0
0
SPLINE
5
331
100
AcDbEntity
8
0
100
AcDbSpline
70
4
71
3
72
8
73
4
74
0
42
0.000000001
43
0.0000000001
44
0.0000000001
40
0
40
0
40
0
40
0
40
1
40
1
40
1
40
1
41
1
41
1
41
1
41
1
10
270.57281530631309
20
21.471953400655597
30
0
10
271.18529348340832
20
21.471953400655597
30
0
10
271.66462195927045
20
21.321059258191465
30
0
10
272.0108065386645
20
21.019252470574532
30
0
0
SPLINE
5
332
100
AcDbEntity
8
0
100
AcDbSpline
70
4
71
3
72
8
73
4
74
0
42
0.000000001
43
0.0000000001
44
0.0000000001
40
0
40
0
40
0
40
0
40
1
40
1
40
1
40
1
41
1
41
1
41
1
41
1
10
272.0108065386645
20
21.019252470574532
30
0
10
272.35699111805849
20
20.717464185646271
30
0
10
272.53008340775557
20
20.335768593123355
30
0
10
272.53008340775557
20
19.874184921290095
30
0
0
SPLINE
5
333
100
AcDbEntity
8
0
100
AcDbSpline
70
4
71
3
72
8
73
4
74
0
42
0.000000001
43
0.0000000001
44
0.0000000001
40
0
40
0
40
0
40
0
40
1
40
1
40
1
40
1
41
1
41
1
41
1
41
1
10
272.53008340775557
20
19.874184921290095
30
0
10
272.53008340775557
20
19.749920138596082
30
0
10
272.50345114560287
20
19.51468675040444
30
0
10
272.45019242606264
20
19.168503984999475
30
0
0
SPLINE
5
334
100
AcDbEntity
8
0
100
AcDbSpline
70
4
71
3
72
8
73
4
74
0
42
0.000000001
43
0.0000000001
44
0.0000000001
40
0
40
0
40
0
40
0
40
1
40
1
40
1
40
1
41
1
41
1
41
1
41
1
10
272.45019242606264
20
19.168503984999475
30
0
10
272.245905328866
20
17.819283573710674
30
0
10
272.14395623989759
20
17.033713832514074
30
0
10
272.14395623989759
20
16.811794761409672
30
0
0
SPLINE
5
335
100
AcDbEntity
8
0
100
AcDbSpline
70
4
71
3
72
8
73
4
74
0
42
0.000000001
43
0.0000000001
44
0.0000000001
40
0
40
0
40
0
40
0
40
1
40
1
40
1
40
1
41
1
41
1
41
1
41
1
10
272.14395623989759
20
16.811794761409672
30
0
10
272.14395623989759
20
16.403489037400945
30
0
10
272.28147692923028
20
16.199317309910096
30
0
10
272.55670986514309
20
16.199317309910096
30
0
0
SPLINE
5
336
100
AcDbEntity
8
0
100
AcDbSpline
70
4
71
3
72
8
73
4
74
0
42
0.000000001
43
0.0000000001
44
0.0000000001
40
0
40
0
40
0
40
0
40
1
40
1
40
1
40
1
41
1
41
1
41
1
41
1
10
272.55670986514309
20
16.199317309910096
30
0
10
273.16024870402669
20
16.199317309910096
30
0
10
273.61732751536584
20
16.829560970509711
30
0
10
273.92813205164299
20
18.090009835140329
30
0
0
SPLINE
5
337
100
AcDbEntity
8
0
100
AcDbSpline
70
4
71
3
72
8
73
4
74
0
42
0.000000001
43
0.0000000001
44
0.0000000001
40
0
40
0
40
0
40
0
40
1
40
1
40
1
40
1
41
1
41
1
41
1
41
1
10
273.92813205164299
20
18.090009835140329
30
0
10
274.22980569246107
20
17.770456066707666
30
0
10
274.41183732036973
20
17.517476423295925
30
0
10
274.47403537812164
20
17.331070179309478
30
0
0
SPLINE
5
338
100
AcDbEntity
8
0
100
AcDbSpline
70
4
71
3
72
8
73
4
74
0
42
0.000000001
43
0.0000000001
44
0.0000000001
40
0
40
0
40
0
40
0
40
1
40
1
40
1
40
1
41
1
41
1
41
1
41
1
10
274.47403537812164
20
17.331070179309478
30
0
10
274.00345468322382
20
15.768813438668477
30
0
10
273.18688096617933
20
14.987676361200368
30
0
10
272.02412266974079
20
14.987676361200368
30
0
0
SPLINE
5
339
100
AcDbEntity
8
0
100
AcDbSpline
70
4
71
3
72
8
73
4
74
0
42
0.000000001
43
0.0000000001
44
0.0000000001
40
0
40
0
40
0
40
0
40
1
40
1
40
1
40
1
41
1
41
1
41
1
41
1
10
272.02412266974079
20
14.987676361200368
30
0
10
271.4736509931501
20
14.987676361200368
30
0
10
271.06545991325157
20
15.156335987168902
30
0
10
270.79916631555034
20
15.493636373619479
30
0
0
SPLINE
5
340
100
AcDbEntity
8
0
100
AcDbSpline
70
4
71
3
72
8
73
4
74
0
42
0.000000001
43
0.0000000001
44
0.0000000001
40
0
40
0
40
0
40
0
40
1
40
1
40
1
40
1
41
1
41
1
41
1
41
1
10
270.79916631555034
20
15.493636373619479
30
0
10
270.53287271784922
20
15.830955625556545
30
0
10
270.39972301661612
20
16.18600263002504
30
0
10
270.39972301661612
20
16.558815117997938
30
0
0
SPLINE
5
341
100
AcDbEntity
8
0
100
AcDbSpline
70
4
71
3
72
8
73
4
74
0
42
0.000000001
43
0.0000000001
44
0.0000000001
40
0
40
0
40
0
40
0
40
1
40
1
40
1
40
1
41
1
41
1
41
1
41
1
10
275.98601414608714
20
18.050065795485153
30
0
10
276.53629426543046
20
18.165466701913452
30
0
10
276.94467690257636
20
18.387385047422221
30
0
10
277.2109705002776
20
18.715802692120597
30
0
0
SPLINE
5
342
100
AcDbEntity
8
0
100
AcDbSpline
70
4
71
3
72
8
73
4
74
0
42
0.000000001
43
0.0000000001
44
0.0000000001
40
0
40
0
40
0
40
0
40
1
40
1
40
1
40
1
41
1
41
1
41
1
41
1
10
277.2109705002776
20
18.715802692120597
30
0
10
277.48601768370804
20
19.044239202305462
30
0
10
277.62372993028816
20
19.359361032605268
30
0
10
277.62372993028816
20
19.661148954735715
30
0
0
SPLINE
5
343
100
AcDbEntity
8
0
100
AcDbSpline
70
4
71
3
72
8
73
4
74
0
42
0.000000001
43
0.0000000001
44
0.0000000001
40
0
40
0
40
0
40
0
40
1
40
1
40
1
40
1
41
1
41
1
41
1
41
1
10
277.62372993028816
20
19.661148954735715
30
0
10
277.62372993028816
20
19.97183884690266
30
0
10
277.53927640324827
20
20.180423647039881
30
0
10
277.37075246366334
20
20.286941811715984
30
0
0
SPLINE
5
344
100
AcDbEntity
8
0
100
AcDbSpline
70
4
71
3
72
8
73
4
74
0
42
0.000000001
43
0.0000000001
44
0.0000000001
40
0
40
0
40
0
40
0
40
1
40
1
40
1
40
1
41
1
41
1
41
1
41
1
10
277.37075246366334
20
20.286941811715984
30
0
10
277.2109705002776
20
20.402342355346462
30
0
10
277.03331566523354
20
20.460033375817371
30
0
10
276.83815946349591
20
20.460033375817371
30
0
0
SPLINE
5
345
100
AcDbEntity
8
0
100
AcDbSpline
70
4
71
3
72
8
73
4
74
0
42
0.000000001
43
0.0000000001
44
0.0000000001
40
0
40
0
40
0
40
0
40
1
40
1
40
1
40
1
41
1
41
1
41
1
41
1
10
276.83815946349591
20
20.460033375817371
30
0
10
276.42083748813832
20
20.460033375817371
30
0
10
276.05258899670372
20
20.224818853112218
30
0
10
275.73303667946232
20
19.754352076728935
30
0
0
SPLINE
5
346
100
AcDbEntity
8
0
100
AcDbSpline
70
4
71
3
72
8
73
4
74
0
42
0.000000001
43
0.0000000001
44
0.0000000001
40
0
40
0
40
0
40
0
40
1
40
1
40
1
40
1
41
1
41
1
41
1
41
1
10
275.73303667946232
20
19.754352076728935
30
0
10
275.42223214318517
20
19.29278727038216
30
0
10
275.26701852991147
20
18.738000113757856
30
0
10
275.26701852991147
20
18.090009835140329
30
0
0
SPLINE
5
347
100
AcDbEntity
8
0
100
AcDbSpline
70
4
71
3
72
8
73
4
74
0
42
0.000000001
43
0.0000000001
44
0.0000000001
40
0
40
0
40
0
40
0
40
1
40
1
40
1
40
1
41
1
41
1
41
1
41
1
10
275.26701852991147
20
18.090009835140329
30
0
10
275.26701852991147
20
17.450902298275
30
0
10
275.41785535032051
20
16.971571645626007
30
0
10
275.71972054838596
20
16.652018602788978
30
0
0
SPLINE
5
348
100
AcDbEntity
8
0
100
AcDbSpline
70
4
71
3
72
8
73
4
74
0
42
0.000000001
43
0.0000000001
44
0.0000000001
40
0
40
0
40
0
40
0
40
1
40
1
40
1
40
1
41
1
41
1
41
1
41
1
10
275.71972054838596
20
16.652018602788978
30
0
10
276.03033352741573
20
16.341347576108515
30
0
10
276.41208970717406
20
16.18600263002504
30
0
10
276.86479172564862
20
16.18600263002504
30
0
0
SPLINE
5
349
100
AcDbEntity
8
0
100
AcDbSpline
70
4
71
3
72
8
73
4
74
0
42
0.000000001
43
0.0000000001
44
0.0000000001
40
0
40
0
40
0
40
0
40
1
40
1
40
1
40
1
41
1
41
1
41
1
41
1
10
276.86479172564862
20
16.18600263002504
30
0
10
277.53052862228401
20
16.18600263002504
30
0
10
278.16963325676682
20
16.41678485179952
30
0
10
278.78211143386204
20
16.8783688864306
30
0
0
SPLINE
5
350
100
AcDbEntity
8
0
100
AcDbSpline
70
4
71
3
72
8
73
4
74
0
42
0.000000001
43
0.0000000001
44
0.0000000001
40
0
40
0
40
0
40
0
40
1
40
1
40
1
40
1
41
1
41
1
41
1
41
1
10
278.78211143386204
20
16.8783688864306
30
0
10
279.39458961095727
20
17.339952921061681
30
0
10
279.8916110107603
20
17.943547630809054
30
0
10
280.27336138575362
20
18.689173332350482
30
0
0
SPLINE
5
351
100
AcDbEntity
8
0
100
AcDbSpline
70
4
71
3
72
8
73
4
74
0
42
0.000000001
43
0.0000000001
44
0.0000000001
40
0
40
0
40
0
40
0
40
1
40
1
40
1
40
1
41
1
41
1
41
1
41
1
10
280.27336138575362
20
18.689173332350482
30
0
10
280.46851758749125
20
18.502767088364035
30
0
10
280.64617242253524
20
18.271984140993919
30
0
10
280.80595438592104
20
17.996807075944922
30
0
0
SPLINE
5
352
100
AcDbEntity
8
0
100
AcDbSpline
70
4
71
3
72
8
73
4
74
0
42
0.000000001
43
0.0000000001
44
0.0000000001
40
0
40
0
40
0
40
0
40
1
40
1
40
1
40
1
41
1
41
1
41
1
41
1
10
280.80595438592104
20
17.996807075944922
30
0
10
280.51302852606722
20
17.331070179309478
30
0
10
279.99375165697614
20
16.678647962559094
30
0
10
279.24812958341289
20
16.039540425693765
30
0
0
SPLINE
5
353
100
AcDbEntity
8
0
100
AcDbSpline
70
4
71
3
72
8
73
4
74
0
42
0.000000001
43
0.0000000001
44
0.0000000001
40
0
40
0
40
0
40
0
40
1
40
1
40
1
40
1
41
1
41
1
41
1
41
1
10
279.24812958341289
20
16.039540425693765
30
0
10
278.8753127418662
20
15.728869399013302
30
0
10
278.43136430912102
20
15.475889755601564
30
0
10
277.91665579014199
20
15.280600044267281
30
0
0
SPLINE
5
354
100
AcDbEntity
8
0
100
AcDbSpline
70
4
71
3
72
8
73
4
74
0
42
0.000000001
43
0.0000000001
44
0.0000000001
40
0
40
0
40
0
40
0
40
1
40
1
40
1
40
1
41
1
41
1
41
1
41
1
10
277.91665579014199
20
15.280600044267281
30
0
10
277.41069505212727
20
15.085329924015118
30
0
10
276.88685563768917
20
14.987676361200368
30
0
10
276.34551485655754
20
14.987676361200368
30
0
0
SPLINE
5
355
100
AcDbEntity
8
0
100
AcDbSpline
70
4
71
3
72
8
73
4
74
0
42
0.000000001
43
0.0000000001
44
0.0000000001
40
0
40
0
40
0
40
0
40
1
40
1
40
1
40
1
41
1
41
1
41
1
41
1
10
276.34551485655754
20
14.987676361200368
30
0
10
275.45780374354945
20
14.987676361200368
30
0
10
274.75649524654972
20
15.258421488116507
30
0
10
274.24178672757074
20
15.79987473657145
30
0
0
SPLINE
5
356
100
AcDbEntity
8
0
100
AcDbSpline
70
4
71
3
72
8
73
4
74
0
42
0.000000001
43
0.0000000001
44
0.0000000001
40
0
40
0
40
0
40
0
40
1
40
1
40
1
40
1
41
1
41
1
41
1
41
1
10
274.24178672757074
20
15.79987473657145
30
0
10
273.69131505097999
20
16.385723553896547
30
0
10
273.41627367231456
20
17.135780467975195
30
0
10
273.41627367231456
20
18.050065795485153
30
0
0
SPLINE
5
357
100
AcDbEntity
8
0
100
AcDbSpline
70
4
71
3
72
8
73
4
74
0
42
0.000000001
43
0.0000000001
44
0.0000000001
40
0
40
0
40
0
40
0
40
1
40
1
40
1
40
1
41
1
41
1
41
1
41
1
10
273.41627367231456
20
18.050065795485153
30
0
10
273.41627367231456
20
18.964350397399478
30
0
10
273.75788990159657
20
19.763235181278954
30
0
10
274.44150547465534
20
20.446718695932312
30
0
0
SPLINE
5
358
100
AcDbEntity
8
0
100
AcDbSpline
70
4
71
3
72
8
73
4
74
0
42
0.000000001
43
0.0000000001
44
0.0000000001
40
0
40
0
40
0
40
0
40
1
40
1
40
1
40
1
41
1
41
1
41
1
41
1
10
274.44150547465534
20
20.446718695932312
30
0
10
275.13387463344344
20
21.130221076072161
30
0
10
275.95938768869956
20
21.471953400655597
30
0
10
276.91805044518878
20
21.471953400655597
30
0
0
SPLINE
5
359
100
AcDbEntity
8
0
100
AcDbSpline
70
4
71
3
72
8
73
4
74
0
42
0.000000001
43
0.0000000001
44
0.0000000001
40
0
40
0
40
0
40
0
40
1
40
1
40
1
40
1
41
1
41
1
41
1
41
1
10
276.91805044518878
20
21.471953400655597
30
0
10
277.60147446100018
20
21.471953400655597
30
0
10
278.15631712569052
20
21.321059258191465
30
0
10
278.58239268677744
20
21.019252470574532
30
0
0
SPLINE
5
360
100
AcDbEntity
8
0
100
AcDbSpline
70
4
71
3
72
8
73
4
74
0
42
0.000000001
43
0.0000000001
44
0.0000000001
40
0
40
0
40
0
40
0
40
1
40
1
40
1
40
1
41
1
41
1
41
1
41
1
10
278.58239268677744
20
21.019252470574532
30
0
10
279.00846244309929
20
20.726328061911985
30
0
10
279.22587411412491
20
20.326885851371159
30
0
10
279.23481345233654
20
19.820925838952043
30
0
0
SPLINE
5
361
100
AcDbEntity
8
0
100
AcDbSpline
70
4
71
3
72
8
73
4
74
0
42
0.000000001
43
0.0000000001
44
0.0000000001
40
0
40
0
40
0
40
0
40
1
40
1
40
1
40
1
41
1
41
1
41
1
41
1
10
279.23481345233654
20
19.820925838952043
30
0
10
279.23481345233654
20
19.137442687096502
30
0
10
278.95958051642373
20
18.582655167674382
30
0
10
278.40930039708041
20
18.156583960161253
30
0
0
SPLINE
5
362
100
AcDbEntity
8
0
100
AcDbSpline
70
4
71
3
72
8
73
4
74
0
42
0.000000001
43
0.0000000001
44
0.0000000001
40
0
40
0
40
0
40
0
40
1
40
1
40
1
40
1
41
1
41
1
41
1
41
1
10
278.40930039708041
20
18.156583960161253
30
0
10
277.86776805870136
20
17.730512027052491
30
0
10
277.1221459851381
20
17.433155680257087
30
0
10
276.17242256686046
20
17.26449605428855
30
0
0
LINE
5
363
100
AcDbEntity
8
0
100
AcDbLine
10
276.17242256686046
20
17.26449605428855
30
0
11
275.98601414608714
21
18.050065795485153
31
0
0
LINE
5
364
100
AcDbEntity
8
0
100
AcDbLine
10
231.68759890335838
20
10.789748625093292
30
0
11
231.67428422347331
21
10.616656335396268
31
0
0
SPLINE
5
365
100
AcDbEntity
8
0
100
AcDbSpline
70
4
71
3
72
8
73
4
74
0
42
0.000000001
43
0.0000000001
44
0.0000000001
40
0
40
0
40
0
40
0
40
1
40
1
40
1
40
1
41
1
41
1
41
1
41
1
10
231.67428422347331
20
10.616656335396268
30
0
10
231.33698383702273
20
8.0247140864126436
30
0
10
231.11506476591836
20
6.4269466954405914
30
0
10
231.00854732683788
20
5.8233323946110964
30
0
0
SPLINE
5
366
100
AcDbEntity
8
0
100
AcDbSpline
70
4
71
3
72
8
73
4
74
0
42
0.000000001
43
0.0000000001
44
0.0000000001
40
0
40
0
40
0
40
0
40
1
40
1
40
1
40
1
41
1
41
1
41
1
41
1
10
231.00854732683788
20
5.8233323946110964
30
0
10
230.83102382460365
20
4.8291009401400631
30
0
10
230.74225227794545
20
4.070161284309215
30
0
10
230.74225227794545
20
3.5465119759272756
30
0
0
SPLINE
5
367
100
AcDbEntity
8
0
100
AcDbSpline
70
4
71
3
72
8
73
4
74
0
42
0.000000001
43
0.0000000001
44
0.0000000001
40
0
40
0
40
0
40
0
40
1
40
1
40
1
40
1
41
1
41
1
41
1
41
1
10
230.74225227794545
20
3.5465119759272756
30
0
10
230.74225227794545
20
3.0316118997008745
30
0
10
230.96417062345421
20
2.7742576402113661
30
0
10
231.40798917458088
20
2.7742576402113661
30
0
0
SPLINE
5
368
100
AcDbEntity
8
0
100
AcDbSpline
70
4
71
3
72
8
73
4
74
0
42
0.000000001
43
0.0000000001
44
0.0000000001
40
0
40
0
40
0
40
0
40
1
40
1
40
1
40
1
41
1
41
1
41
1
41
1
10
231.40798917458088
20
2.7742576402113661
30
0
10
231.78080166255376
20
2.7742576402113661
30
0
10
232.11367083646712
20
3.0405512379125321
30
0
10
232.40659379393844
20
3.573141335697394
30
0
0
SPLINE
5
369
100
AcDbEntity
8
0
100
AcDbSpline
70
4
71
3
72
8
73
4
74
0
42
0.000000001
43
0.0000000001
44
0.0000000001
40
0
40
0
40
0
40
0
40
1
40
1
40
1
40
1
41
1
41
1
41
1
41
1
10
232.40659379393844
20
3.573141335697394
30
0
10
232.69951820260098
20
4.1146707716939135
30
0
10
232.92143727370535
20
4.7847830100027577
30
0
10
233.07233069057386
20
5.5836667054887812
30
0
0
SPLINE
5
370
100
AcDbEntity
8
0
100
AcDbSpline
70
4
71
3
72
8
73
4
74
0
42
0.000000001
43
0.0000000001
44
0.0000000001
40
0
40
0
40
0
40
0
40
1
40
1
40
1
40
1
41
1
41
1
41
1
41
1
10
233.07233069057386
20
5.5836667054887812
30
0
10
233.38300171725433
20
7.2524597506967332
30
0
10
233.53834738893343
20
8.6949032378586981
30
0
10
233.53834738893343
20
9.9109753991056504
30
0
0
SPLINE
5
371
100
AcDbEntity
8
0
100
AcDbSpline
70
4
71
3
72
8
73
4
74
0
42
0.000000001
43
0.0000000001
44
0.0000000001
40
0
40
0
40
0
40
0
40
1
40
1
40
1
40
1
41
1
41
1
41
1
41
1
10
233.53834738893343
20
9.9109753991056504
30
0
10
233.53834738893343
20
10.479077598412829
30
0
10
233.48952060752606
20
10.971722205351249
30
0
10
233.39188445900652
20
11.388912122303445
30
0
0
SPLINE
5
372
100
AcDbEntity
8
0
100
AcDbSpline
70
4
71
3
72
8
73
4
74
0
42
0.000000001
43
0.0000000001
44
0.0000000001
40
0
40
0
40
0
40
0
40
1
40
1
40
1
40
1
41
1
41
1
41
1
41
1
10
233.39188445900652
20
11.388912122303445
30
0
10
233.74695178015276
20
11.601947000464376
30
0
10
234.17302298766589
20
11.708465890736107
30
0
10
234.67009953273717
20
11.708465890736107
30
0
0
SPLINE
5
373
100
AcDbEntity
8
0
100
AcDbSpline
70
4
71
3
72
8
73
4
74
0
42
0.000000001
43
0.0000000001
44
0.0000000001
40
0
40
0
40
0
40
0
40
1
40
1
40
1
40
1
41
1
41
1
41
1
41
1
10
234.67009953273717
20
11.708465890736107
30
0
10
235.16717752899973
20
11.708465890736107
30
0
10
235.41572450868298
20
11.415541482073561
30
0
10
235.41572450868298
20
10.829692664748467
30
0
0
SPLINE
5
374
100
AcDbEntity
8
0
100
AcDbSpline
70
4
71
3
72
8
73
4
74
0
42
0.000000001
43
0.0000000001
44
0.0000000001
40
0
40
0
40
0
40
0
40
1
40
1
40
1
40
1
41
1
41
1
41
1
41
1
10
235.41572450868298
20
10.829692664748467
30
0
10
235.41572450868298
20
9.9154073372385092
30
0
10
235.27369496808021
20
8.526242886294531
30
0
10
234.98965330116985
20
6.6621789952387811
30
0
0
SPLINE
5
375
100
AcDbEntity
8
0
100
AcDbSpline
70
4
71
3
72
8
73
4
74
0
42
0.000000001
43
0.0000000001
44
0.0000000001
40
0
40
0
40
0
40
0
40
1
40
1
40
1
40
1
41
1
41
1
41
1
41
1
10
234.98965330116985
20
6.6621789952387811
30
0
10
234.758871804991
20
5.108710668917551
30
0
10
234.43931803655832
20
3.9682092929582735
30
0
10
234.03099199587186
20
3.2402728873796693
30
0
0
SPLINE
5
376
100
AcDbEntity
8
0
100
AcDbSpline
70
4
71
3
72
8
73
4
74
0
42
0.000000001
43
0.0000000001
44
0.0000000001
40
0
40
0
40
0
40
0
40
1
40
1
40
1
40
1
41
1
41
1
41
1
41
1
10
234.03099199587186
20
3.2402728873796693
30
0
10
233.84458647748104
20
2.9296584571586637
30
0
10
233.63155014812884
20
2.6321700519578606
30
0
10
233.39188445900652
20
2.3481849815069733
30
0
0
SPLINE
5
377
100
AcDbEntity
8
0
100
AcDbSpline
70
4
71
3
72
8
73
4
74
0
42
0.000000001
43
0.0000000001
44
0.0000000001
40
0
40
0
40
0
40
0
40
1
40
1
40
1
40
1
41
1
41
1
41
1
41
1
10
233.39188445900652
20
2.3481849815069733
30
0
10
232.89480791393527
20
1.7712769535848016
30
0
10
232.19799085391034
20
1.4827278865956561
30
0
10
231.30147100990479
20
1.4827278865956561
30
0
0
SPLINE
5
378
100
AcDbEntity
8
0
100
AcDbSpline
70
4
71
3
72
8
73
4
74
0
42
0.000000001
43
0.0000000001
44
0.0000000001
40
0
40
0
40
0
40
0
40
1
40
1
40
1
40
1
41
1
41
1
41
1
41
1
10
231.30147100990479
20
1.4827278865956561
30
0
10
230.41381576776058
20
1.4827278865956561
30
0
10
229.77915903451461
20
1.8644797127802093
30
0
10
229.39746380478951
20
2.6277947102844612
30
0
0
SPLINE
5
379
100
AcDbEntity
8
0
100
AcDbSpline
70
4
71
3
72
8
73
4
74
0
42
0.000000001
43
0.0000000001
44
0.0000000001
40
0
40
0
40
0
40
0
40
1
40
1
40
1
40
1
41
1
41
1
41
1
41
1
10
229.39746380478951
20
2.6277947102844612
30
0
10
228.9092504103883
20
1.8644797127802093
30
0
10
228.16807623806184
20
1.4827278865956561
30
0
10
227.17390210564591
20
1.4827278865956561
30
0
0
SPLINE
5
380
100
AcDbEntity
8
0
100
AcDbSpline
70
4
71
3
72
8
73
4
74
0
42
0.000000001
43
0.0000000001
44
0.0000000001
40
0
40
0
40
0
40
0
40
1
40
1
40
1
40
1
41
1
41
1
41
1
41
1
10
227.17390210564591
20
1.4827278865956561
30
0
10
226.53479529437621
20
1.4827278865956561
30
0
10
226.03771802370932
20
1.664759514504337
30
0
10
225.6826517909565
20
2.0286312130743056
30
0
0
SPLINE
5
381
100
AcDbEntity
8
0
100
AcDbSpline
70
4
71
3
72
8
73
4
74
0
42
0.000000001
43
0.0000000001
44
0.0000000001
40
0
40
0
40
0
40
0
40
1
40
1
40
1
40
1
41
1
41
1
41
1
41
1
10
225.6826517909565
20
2.0286312130743056
30
0
10
225.33646866275373
20
2.4014451522384705
30
0
10
225.16337709865235
20
2.8940897591768922
30
0
10
225.16337709865235
20
3.5065679362721003
30
0
0
SPLINE
5
382
100
AcDbEntity
8
0
100
AcDbSpline
70
4
71
3
72
8
73
4
74
0
42
0.000000001
43
0.0000000001
44
0.0000000001
40
0
40
0
40
0
40
0
40
1
40
1
40
1
40
1
41
1
41
1
41
1
41
1
10
225.16337709865235
20
3.5065679362721003
30
0
10
225.16337709865235
20
3.586456015582451
30
0
10
225.17225984040454
20
3.7062881345479726
30
0
10
225.19000645842249
20
3.8660657443599389
30
0
0
LINE
5
383
100
AcDbEntity
8
0
100
AcDbLine
10
225.19000645842249
20
3.8660657443599389
30
0
11
225.68265179095653
21
7.6208403005367709
31
0
0
SPLINE
5
384
100
AcDbEntity
8
0
100
AcDbSpline
70
4
71
3
72
8
73
4
74
0
42
0.000000001
43
0.0000000001
44
0.0000000001
40
0
40
0
40
0
40
0
40
1
40
1
40
1
40
1
41
1
41
1
41
1
41
1
10
225.6826517909565
20
7.6208403005367735
30
0
10
224.73287359020856
20
8.3043238151901306
30
0
10
224.25797487569241
20
9.0721476639644507
30
0
10
224.25797487569241
20
9.92429007899071
30
0
0
SPLINE
5
385
100
AcDbEntity
8
0
100
AcDbSpline
70
4
71
3
72
8
73
4
74
0
42
0.000000001
43
0.0000000001
44
0.0000000001
40
0
40
0
40
0
40
0
40
1
40
1
40
1
40
1
41
1
41
1
41
1
41
1
10
224.25797487569241
20
9.92429007899071
30
0
10
224.25797487569241
20
10.465762918527773
30
0
10
224.44438111967884
20
10.896266064173759
30
0
10
224.81719397044955
20
11.215819832606421
30
0
0
SPLINE
5
386
100
AcDbEntity
8
0
100
AcDbSpline
70
4
71
3
72
8
73
4
74
0
42
0.000000001
43
0.0000000001
44
0.0000000001
40
0
40
0
40
0
40
0
40
1
40
1
40
1
40
1
41
1
41
1
41
1
41
1
10
224.81719397044955
20
11.215819832606421
30
0
10
225.19000645842249
20
11.535373601039085
30
0
10
225.64270775130132
20
11.695151210851051
30
0
10
226.17529676069273
20
11.695151210851051
30
0
0
SPLINE
5
387
100
AcDbEntity
8
0
100
AcDbSpline
70
4
71
3
72
8
73
4
74
0
42
0.000000001
43
0.0000000001
44
0.0000000001
40
0
40
0
40
0
40
0
40
1
40
1
40
1
40
1
41
1
41
1
41
1
41
1
10
226.17529676069273
20
11.695151210851051
30
0
10
227.3381109279951
20
11.695151210851051
30
0
10
227.91952780718734
20
11.118185135278155
30
0
10
227.91952780718734
20
9.9642341186458836
30
0
0
SPLINE
5
388
100
AcDbEntity
8
0
100
AcDbSpline
70
4
71
3
72
8
73
4
74
0
42
0.000000001
43
0.0000000001
44
0.0000000001
40
0
40
0
40
0
40
0
40
1
40
1
40
1
40
1
41
1
41
1
41
1
41
1
10
227.91952780718734
20
9.9642341186458836
30
0
10
227.91952780718734
20
9.9464875006279669
30
0
10
227.91509586905448
20
9.92429007899071
30
0
10
227.90621312730227
20
9.8976607192205925
30
0
0
SPLINE
5
389
100
AcDbEntity
8
0
100
AcDbSpline
70
4
71
3
72
8
73
4
74
0
42
0.000000001
43
0.0000000001
44
0.0000000001
40
0
40
0
40
0
40
0
40
1
40
1
40
1
40
1
41
1
41
1
41
1
41
1
10
227.90621312730227
20
9.8976607192205925
30
0
10
227.90621312730227
20
9.8710313594504751
30
0
10
227.90178118916941
20
9.8266553816624445
30
0
10
227.89289844741722
20
9.7645139203700104
30
0
0
SPLINE
5
390
100
AcDbEntity
8
0
100
AcDbSpline
70
4
71
3
72
8
73
4
74
0
42
0.000000001
43
0.0000000001
44
0.0000000001
40
0
40
0
40
0
40
0
40
1
40
1
40
1
40
1
41
1
41
1
41
1
41
1
10
227.89289844741722
20
9.7645139203700104
30
0
10
227.89289844741722
20
9.711255200829779
30
0
10
227.88401570566504
20
9.6446803502132195
30
0
10
227.86626908764708
20
9.5647922709028705
30
0
0
SPLINE
5
391
100
AcDbEntity
8
0
100
AcDbSpline
70
4
71
3
72
8
73
4
74
0
42
0.000000001
43
0.0000000001
44
0.0000000001
40
0
40
0
40
0
40
0
40
1
40
1
40
1
40
1
41
1
41
1
41
1
41
1
10
227.86626908764708
20
9.5647922709028705
30
0
10
227.85738634589492
20
9.4937869333447225
30
0
10
227.83963900228139
20
9.382818690644914
30
0
10
227.81300964251125
20
9.2319238225851485
30
0
0
SPLINE
5
392
100
AcDbEntity
8
0
100
AcDbSpline
70
4
71
3
72
8
73
4
74
0
42
0.000000001
43
0.0000000001
44
0.0000000001
40
0
40
0
40
0
40
0
40
1
40
1
40
1
40
1
41
1
41
1
41
1
41
1
10
227.81300964251125
20
9.2319238225851485
30
0
10
227.79526302449335
20
9.0810304057166533
30
0
10
227.77306560285606
20
8.9123700541524862
30
0
10
227.74643624308595
20
8.7259645357616726
30
0
0
SPLINE
5
393
100
AcDbEntity
8
0
100
AcDbSpline
70
4
71
3
72
8
73
4
74
0
42
0.000000001
43
0.0000000001
44
0.0000000001
40
0
40
0
40
0
40
0
40
1
40
1
40
1
40
1
41
1
41
1
41
1
41
1
10
227.74643624308595
20
8.7259645357616726
30
0
10
227.71980688331584
20
8.5484403079317914
30
0
10
227.68429405619787
20
8.3087746188094762
30
0
10
227.63991807840983
20
8.006967468394727
30
0
0
SPLINE
5
394
100
AcDbEntity
8
0
100
AcDbSpline
70
4
71
3
72
8
73
4
74
0
42
0.000000001
43
0.0000000001
44
0.0000000001
40
0
40
0
40
0
40
0
40
1
40
1
40
1
40
1
41
1
41
1
41
1
41
1
10
227.63991807840983
20
8.006967468394727
30
0
10
227.5955421006218
20
7.7051617691712471
30
0
10
227.54671531921446
20
7.3767441244728698
30
0
10
227.49345587407859
20
7.0216782545178873
30
0
0
SPLINE
5
395
100
AcDbEntity
8
0
100
AcDbSpline
70
4
71
3
72
8
73
4
74
0
42
0.000000001
43
0.0000000001
44
0.0000000001
40
0
40
0
40
0
40
0
40
1
40
1
40
1
40
1
41
1
41
1
41
1
41
1
10
227.49345587407859
20
7.0216782545178873
30
0
10
227.44907989629056
20
6.6754936751238407
30
0
10
227.39137037313097
20
6.2494036021242261
30
0
10
227.32036430997721
20
5.7434443153007475
30
0
0
SPLINE
5
396
100
AcDbEntity
8
0
100
AcDbSpline
70
4
71
3
72
8
73
4
74
0
42
0.000000001
43
0.0000000001
44
0.0000000001
40
0
40
0
40
0
40
0
40
1
40
1
40
1
40
1
41
1
41
1
41
1
41
1
10
227.32036430997721
20
5.7434443153007475
30
0
10
227.24935897241903
20
5.237483577286004
30
0
10
227.18721751112662
20
4.8070370280994723
30
0
10
227.13395806599073
20
4.4519145616850331
30
0
0
SPLINE
5
397
100
AcDbEntity
8
0
100
AcDbSpline
70
4
71
3
72
8
73
4
74
0
42
0.000000001
43
0.0000000001
44
0.0000000001
40
0
40
0
40
0
40
0
40
1
40
1
40
1
40
1
41
1
41
1
41
1
41
1
10
227.13395806599073
20
4.4519145616850331
30
0
10
227.0806993464505
20
4.0967906440793289
30
0
10
227.05406998668039
20
3.8394363845898249
30
0
10
227.05406998668039
20
3.6796587747778586
30
0
0
SPLINE
5
398
100
AcDbEntity
8
0
100
AcDbSpline
70
4
71
3
72
8
73
4
74
0
42
0.000000001
43
0.0000000001
44
0.0000000001
40
0
40
0
40
0
40
0
40
1
40
1
40
1
40
1
41
1
41
1
41
1
41
1
10
227.05406998668039
20
3.6796587747778586
30
0
10
227.05406998668039
20
3.0848706192411068
30
0
10
227.28485220845488
20
2.7875723200964275
30
0
10
227.74643624308595
20
2.7875723200964275
30
0
0
SPLINE
5
399
100
AcDbEntity
8
0
100
AcDbSpline
70
4
71
3
72
8
73
4
74
0
42
0.000000001
43
0.0000000001
44
0.0000000001
40
0
40
0
40
0
40
0
40
1
40
1
40
1
40
1
41
1
41
1
41
1
41
1
10
227.74643624308595
20
2.7875723200964275
30
0
10
228.38554377995126
20
2.7875723200964275
30
0
10
228.78055368956143
20
3.3690457957481224
30
0
10
228.93144783202555
20
4.5318026409953838
30
0
0
LINE
5
400
100
AcDbEntity
8
0
100
AcDbLine
10
228.93144783202555
20
4.5318026409953838
30
0
11
229.78359097264743
21
11.255763872261594
31
0
0
SPLINE
5
401
100
AcDbEntity
8
0
100
AcDbSpline
70
4
71
3
72
8
73
4
74
0
42
0.000000001
43
0.0000000001
44
0.0000000001
40
0
40
0
40
0
40
0
40
1
40
1
40
1
40
1
41
1
41
1
41
1
41
1
10
229.78359097264746
20
11.255763872261594
30
0
10
230.07651538131
20
11.388912122303445
30
0
10
230.42713044764565
20
11.455485521728736
30
0
10
230.83545503714083
20
11.455485521728736
30
0
0
SPLINE
5
402
100
AcDbEntity
8
0
100
AcDbSpline
70
4
71
3
72
8
73
4
74
0
42
0.000000001
43
0.0000000001
44
0.0000000001
40
0
40
0
40
0
40
0
40
1
40
1
40
1
40
1
41
1
41
1
41
1
41
1
10
230.83545503714083
20
11.455485521728736
30
0
10
231.40355723644802
20
11.455485521728736
30
0
10
231.68759890335838
20
11.233566450624338
30
0
10
231.68759890335838
20
10.789748625093292
30
0
0
SPLINE
5
403
100
AcDbEntity
8
0
100
AcDbSpline
70
4
71
3
72
8
73
4
74
0
42
0.000000001
43
0.0000000001
44
0.0000000001
40
0
40
0
40
0
40
0
40
1
40
1
40
1
40
1
41
1
41
1
41
1
41
1
10
225.65602243118639
20
10.629971015281328
30
0
10
225.48736280521786
20
10.629971015281328
30
0
10
225.36309802252387
20
10.567829553988894
30
0
10
225.2832095804157
20
10.443565496890512
30
0
0
SPLINE
5
404
100
AcDbEntity
8
0
100
AcDbSpline
70
4
71
3
72
8
73
4
74
0
42
0.000000001
43
0.0000000001
44
0.0000000001
40
0
40
0
40
0
40
0
40
1
40
1
40
1
40
1
41
1
41
1
41
1
41
1
10
225.2832095804157
20
10.443565496890512
30
0
10
225.2033211383075
20
10.319299988600863
30
0
10
225.16337709865235
20
10.177270447998081
30
0
10
225.16337709865235
20
10.017494289377385
30
0
0
SPLINE
5
405
100
AcDbEntity
8
0
100
AcDbSpline
70
4
71
3
72
8
73
4
74
0
42
0.000000001
43
0.0000000001
44
0.0000000001
40
0
40
0
40
0
40
0
40
1
40
1
40
1
40
1
41
1
41
1
41
1
41
1
10
225.16337709865235
20
10.017494289377385
30
0
10
225.16337709865235
20
9.6180509904431037
30
0
10
225.38529580695894
20
9.2052944628150328
30
0
10
225.8291139952878
20
8.7792232553019041
30
0
0
LINE
5
406
100
AcDbEntity
8
0
100
AcDbLine
10
225.8291139952878
20
8.7792232553019041
30
0
11
225.8956877575109
21
9.3118119018954975
31
0
0
SPLINE
5
407
100
AcDbEntity
8
0
100
AcDbSpline
70
4
71
3
72
8
73
4
74
0
42
0.000000001
43
0.0000000001
44
0.0000000001
40
0
40
0
40
0
40
0
40
1
40
1
40
1
40
1
41
1
41
1
41
1
41
1
10
225.8956877575109
20
9.3118119018954975
30
0
10
225.9311998590332
20
9.6047363105580441
30
0
10
225.94894647705109
20
9.8976607192205925
30
0
10
225.94894647705109
20
10.190585127883141
30
0
0
SPLINE
5
408
100
AcDbEntity
8
0
100
AcDbSpline
70
4
71
3
72
8
73
4
74
0
42
0.000000001
43
0.0000000001
44
0.0000000001
40
0
40
0
40
0
40
0
40
1
40
1
40
1
40
1
41
1
41
1
41
1
41
1
10
225.94894647705109
20
10.190585127883141
30
0
10
225.95782921880331
20
10.483509536545688
30
0
10
225.86017529319076
20
10.629971015281328
30
0
10
225.65602243118639
20
10.629971015281328
30
0
0
SPLINE
5
409
100
AcDbEntity
8
0
100
AcDbSpline
70
4
71
3
72
8
73
4
74
0
42
0.000000001
43
0.0000000001
44
0.0000000001
40
0
40
0
40
0
40
0
40
1
40
1
40
1
40
1
41
1
41
1
41
1
41
1
10
238.18716895919493
20
4.5451173208804407
30
0
10
238.73750567499772
20
4.6605755493638323
30
0
10
239.14584912997941
20
4.8823611108715648
30
0
10
239.41214417887184
20
5.2108542175158856
30
0
0
SPLINE
5
410
100
AcDbEntity
8
0
100
AcDbSpline
70
4
71
3
72
8
73
4
74
0
42
0.000000001
43
0.0000000001
44
0.0000000001
40
0
40
0
40
0
40
0
40
1
40
1
40
1
40
1
41
1
41
1
41
1
41
1
10
239.41214417887184
20
5.2108542175158856
30
0
10
239.68737856597591
20
5.5393473241602065
30
0
10
239.8249007064999
20
5.8543370960546142
30
0
10
239.8249007064999
20
6.1562008429288184
30
0
0
SPLINE
5
411
100
AcDbEntity
8
0
100
AcDbSpline
70
4
71
3
72
8
73
4
74
0
42
0.000000001
43
0.0000000001
44
0.0000000001
40
0
40
0
40
0
40
0
40
1
40
1
40
1
40
1
41
1
41
1
41
1
41
1
10
239.8249007064999
20
6.1562008429288184
30
0
10
239.8249007064999
20
6.4668907350957667
30
0
10
239.74063728551616
20
6.6754936751238407
30
0
10
239.57192033749254
20
6.7820125653955721
30
0
0
SPLINE
5
412
100
AcDbEntity
8
0
100
AcDbSpline
70
4
71
3
72
8
73
4
74
0
42
0.000000001
43
0.0000000001
44
0.0000000001
40
0
40
0
40
0
40
0
40
1
40
1
40
1
40
1
41
1
41
1
41
1
41
1
10
239.57192033749254
20
6.7820125653955721
30
0
10
239.41214417887184
20
6.8974127462282393
30
0
10
239.23467799869269
20
6.9551034039013278
30
0
10
239.03933169089896
20
6.9551034039013278
30
0
0
SPLINE
5
413
100
AcDbEntity
8
0
100
AcDbSpline
70
4
71
3
72
8
73
4
74
0
42
0.000000001
43
0.0000000001
44
0.0000000001
40
0
40
0
40
0
40
0
40
1
40
1
40
1
40
1
41
1
41
1
41
1
41
1
10
239.03933169089896
20
6.9551034039013278
30
0
10
238.62212290846028
20
6.9551034039013278
30
0
10
238.25374235862023
20
6.7198711041031389
30
0
10
237.93418859018757
20
6.2494036021242261
30
0
0
SPLINE
5
414
100
AcDbEntity
8
0
100
AcDbSpline
70
4
71
3
72
8
73
4
74
0
42
0.000000001
43
0.0000000001
44
0.0000000001
40
0
40
0
40
0
40
0
40
1
40
1
40
1
40
1
41
1
41
1
41
1
41
1
10
237.93418859018757
20
6.2494036021242261
30
0
10
237.62351756350711
20
5.7877622454380546
30
0
10
237.46817334301926
20
5.2331082356126002
30
0
10
237.46817334301926
20
4.5850613605356161
30
0
0
SPLINE
5
415
100
AcDbEntity
8
0
100
AcDbSpline
70
4
71
3
72
8
73
4
74
0
42
0.000000001
43
0.0000000001
44
0.0000000001
40
0
40
0
40
0
40
0
40
1
40
1
40
1
40
1
41
1
41
1
41
1
41
1
10
237.46817334301926
20
4.5850613605356161
30
0
10
237.46817334301926
20
3.9459538236702896
30
0
10
237.61906675988774
20
3.4666238966169294
30
0
10
237.9208739103025
20
3.1470701281842661
30
0
0
SPLINE
5
416
100
AcDbEntity
8
0
100
AcDbSpline
70
4
71
3
72
8
73
4
74
0
42
0.000000001
43
0.0000000001
44
0.0000000001
40
0
40
0
40
0
40
0
40
1
40
1
40
1
40
1
41
1
41
1
41
1
41
1
10
237.9208739103025
20
3.1470701281842661
30
0
10
238.23154493698297
20
2.8364556979632605
30
0
10
238.61324016670807
20
2.6810534298246935
30
0
10
239.06596105066907
20
2.6810534298246935
30
0
0
SPLINE
5
417
100
AcDbEntity
8
0
100
AcDbSpline
70
4
71
3
72
8
73
4
74
0
42
0.000000001
43
0.0000000001
44
0.0000000001
40
0
40
0
40
0
40
0
40
1
40
1
40
1
40
1
41
1
41
1
41
1
41
1
10
239.06596105066907
20
2.6810534298246935
30
0
10
239.73169794730453
20
2.6810534298246935
30
0
10
240.37080548416984
20
2.9117797807353485
30
0
10
240.98328221007378
20
3.3734196862302523
30
0
0
SPLINE
5
418
100
AcDbEntity
8
0
100
AcDbSpline
70
4
71
3
72
8
73
4
74
0
42
0.000000001
43
0.0000000001
44
0.0000000001
40
0
40
0
40
0
40
0
40
1
40
1
40
1
40
1
41
1
41
1
41
1
41
1
10
240.98328221007378
20
3.3734196862302523
30
0
10
241.59576038716898
20
3.8350610429164256
30
0
10
242.09278033578079
20
4.4385998817999761
30
0
10
242.47453361315664
20
5.1842248577457672
30
0
0
SPLINE
5
419
100
AcDbEntity
8
0
100
AcDbSpline
70
4
71
3
72
8
73
4
74
0
42
0.000000001
43
0.0000000001
44
0.0000000001
40
0
40
0
40
0
40
0
40
1
40
1
40
1
40
1
41
1
41
1
41
1
41
1
10
242.47453361315664
20
5.1842248577457672
30
0
10
242.66987992095036
20
4.997817888163687
30
0
10
242.84734610112952
20
4.767092988444297
30
0
10
243.0071237109415
20
4.4918586013402084
30
0
0
SPLINE
5
420
100
AcDbEntity
8
0
100
AcDbSpline
70
4
71
3
72
8
73
4
74
0
42
0.000000001
43
0.0000000001
44
0.0000000001
40
0
40
0
40
0
40
0
40
1
40
1
40
1
40
1
41
1
41
1
41
1
41
1
10
243.0071237109415
20
4.4918586013402084
30
0
10
242.71419930227893
20
3.826121704704768
30
0
10
242.19492388437914
20
3.1736994879543801
30
0
10
241.44929890843338
20
2.5345919510890536
30
0
0
SPLINE
5
421
100
AcDbEntity
8
0
100
AcDbSpline
70
4
71
3
72
8
73
4
74
0
42
0.000000001
43
0.0000000001
44
0.0000000001
40
0
40
0
40
0
40
0
40
1
40
1
40
1
40
1
41
1
41
1
41
1
41
1
10
241.44929890843338
20
2.5345919510890536
30
0
10
241.07648642046044
20
2.2239775208680479
30
0
10
240.63272519138889
20
1.9709986030519433
30
0
10
240.11782511516245
20
1.775652295258201
30
0
0
SPLINE
5
422
100
AcDbEntity
8
0
100
AcDbSpline
70
4
71
3
72
8
73
4
74
0
42
0.000000001
43
0.0000000001
44
0.0000000001
40
0
40
0
40
0
40
0
40
1
40
1
40
1
40
1
41
1
41
1
41
1
41
1
10
240.11782511516245
20
1.775652295258201
30
0
10
239.61186437714773
20
1.5803059874644632
30
0
10
239.08821506876578
20
1.4827278865956561
30
0
10
238.54666676728277
20
1.4827278865956561
30
0
0
SPLINE
5
423
100
AcDbEntity
8
0
100
AcDbSpline
70
4
71
3
72
8
73
4
74
0
42
0.000000001
43
0.0000000001
44
0.0000000001
40
0
40
0
40
0
40
0
40
1
40
1
40
1
40
1
41
1
41
1
41
1
41
1
10
238.54666676728277
20
1.4827278865956561
30
0
10
237.65901079954293
20
1.4827278865956561
30
0
10
236.95778066687166
20
1.7533968259702171
30
0
10
236.442938638296
20
2.2949262619667365
30
0
0
SPLINE
5
424
100
AcDbEntity
8
0
100
AcDbSpline
70
4
71
3
72
8
73
4
74
0
42
0.000000001
43
0.0000000001
44
0.0000000001
40
0
40
0
40
0
40
0
40
1
40
1
40
1
40
1
41
1
41
1
41
1
41
1
10
236.442938638296
20
2.2949262619667365
30
0
10
235.89260192249321
20
2.8807750792918352
30
0
10
235.61742413184857
20
3.6307753969110257
30
0
10
235.61742413184857
20
4.5451173208804407
30
0
0
SPLINE
5
425
100
AcDbEntity
8
0
100
AcDbSpline
70
4
71
3
72
8
73
4
74
0
42
0.000000001
43
0.0000000001
44
0.0000000001
40
0
40
0
40
0
40
0
40
1
40
1
40
1
40
1
41
1
41
1
41
1
41
1
10
235.61742413184857
20
4.5451173208804407
30
0
10
235.61742413184857
20
5.4594592448498585
30
0
10
235.95917532191848
20
6.2583429403358837
30
0
10
236.64265883657185
20
6.9417887240162717
30
0
0
SPLINE
5
426
100
AcDbEntity
8
0
100
AcDbSpline
70
4
71
3
72
8
73
4
74
0
42
0.000000001
43
0.0000000001
44
0.0000000001
40
0
40
0
40
0
40
0
40
1
40
1
40
1
40
1
41
1
41
1
41
1
41
1
10
236.64265883657185
20
6.9417887240162717
30
0
10
237.33502509297739
20
7.6252722386696288
30
0
10
238.16053959942482
20
7.9670234287395525
30
0
10
239.11921977020933
20
7.9670234287395525
30
0
0
SPLINE
5
427
100
AcDbEntity
8
0
100
AcDbSpline
70
4
71
3
72
8
73
4
74
0
42
0.000000001
43
0.0000000001
44
0.0000000001
40
0
40
0
40
0
40
0
40
1
40
1
40
1
40
1
41
1
41
1
41
1
41
1
10
239.11921977020933
20
7.9670234287395525
30
0
10
239.8026466884032
20
7.9670234287395525
30
0
10
240.35749080428477
20
7.8161300118710564
30
0
10
240.7835620117979
20
7.5143228614563089
30
0
0
SPLINE
5
428
100
AcDbEntity
8
0
100
AcDbSpline
70
4
71
3
72
8
73
4
74
0
42
0.000000001
43
0.0000000001
44
0.0000000001
40
0
40
0
40
0
40
0
40
1
40
1
40
1
40
1
41
1
41
1
41
1
41
1
10
240.7835620117979
20
7.5143228614563089
30
0
10
241.20963321931103
20
7.2213984527937587
30
0
10
241.42704343914539
20
6.8219566050507474
30
0
10
241.43598422854831
20
6.3159770015495154
30
0
0
SPLINE
5
429
100
AcDbEntity
8
0
100
AcDbSpline
70
4
71
3
72
8
73
4
74
0
42
0.000000001
43
0.0000000001
44
0.0000000001
40
0
40
0
40
0
40
0
40
1
40
1
40
1
40
1
41
1
41
1
41
1
41
1
10
241.43598422854831
20
6.3159770015495154
30
0
10
241.43598422854831
20
5.6325515345468808
30
0
10
241.16074984144419
20
5.0777074186653026
30
0
10
240.6104697221009
20
4.6516347599609054
30
0
0
SPLINE
5
430
100
AcDbEntity
8
0
100
AcDbSpline
70
4
71
3
72
8
73
4
74
0
42
0.000000001
43
0.0000000001
44
0.0000000001
40
0
40
0
40
0
40
0
40
1
40
1
40
1
40
1
41
1
41
1
41
1
41
1
10
240.6104697221009
20
4.6516347599609054
30
0
10
240.06894028610435
20
4.2255635524477775
30
0
10
239.32331531015859
20
3.9282638021118288
30
0
10
238.37357592877703
20
3.7595483052794743
30
0
0
LINE
5
431
100
AcDbEntity
8
0
100
AcDbLine
10
238.37357592877703
20
3.7595483052794743
30
0
11
238.18716895919493
21
4.5451173208804407
31
0
0
SPLINE
5
432
100
AcDbEntity
8
0
100
AcDbSpline
70
4
71
3
72
8
73
4
74
0
42
0.000000001
43
0.0000000001
44
0.0000000001
40
0
40
0
40
0
40
0
40
1
40
1
40
1
40
1
41
1
41
1
41
1
41
1
10
245.84069075725944
20
6.2227742423541095
30
0
10
245.84069075725944
20
6.6133522138314067
30
0
10
245.6588477842156
20
6.8086419251656904
30
0
10
245.29478452839822
20
6.8086419251656904
30
0
0
SPLINE
5
433
100
AcDbEntity
8
0
100
AcDbSpline
70
4
71
3
72
8
73
4
74
0
42
0.000000001
43
0.0000000001
44
0.0000000001
40
0
40
0
40
0
40
0
40
1
40
1
40
1
40
1
41
1
41
1
41
1
41
1
10
245.29478452839822
20
6.8086419251656904
30
0
10
244.93985216803992
20
6.8086419251656904
30
0
10
244.65567699153291
20
6.5778589777955743
30
0
10
244.44264211337196
20
6.1162568032736431
30
0
0
SPLINE
5
434
100
AcDbEntity
8
0
100
AcDbSpline
70
4
71
3
72
8
73
4
74
0
42
0.000000001
43
0.0000000001
44
0.0000000001
40
0
40
0
40
0
40
0
40
1
40
1
40
1
40
1
41
1
41
1
41
1
41
1
10
244.44264211337196
20
6.1162568032736431
30
0
10
245.40130196747867
20
5.361691037924925
30
0
10
245.88063334572331
20
4.5141126194369274
30
0
10
245.88063334572331
20
3.573141335697394
30
0
0
SPLINE
5
435
100
AcDbEntity
8
0
100
AcDbSpline
70
4
71
3
72
8
73
4
74
0
42
0.000000001
43
0.0000000001
44
0.0000000001
40
0
40
0
40
0
40
0
40
1
40
1
40
1
40
1
41
1
41
1
41
1
41
1
10
245.88063334572331
20
3.573141335697394
30
0
10
245.88063334572331
20
2.8897144175034928
30
0
10
245.68985393685037
20
2.3704404507949572
30
0
10
245.30810065947458
20
2.0153165331892486
30
0
0
SPLINE
5
436
100
AcDbEntity
8
0
100
AcDbSpline
70
4
71
3
72
8
73
4
74
0
42
0.000000001
43
0.0000000001
44
0.0000000001
40
0
40
0
40
0
40
0
40
1
40
1
40
1
40
1
41
1
41
1
41
1
41
1
10
245.30810065947458
20
2.0153165331892486
30
0
10
244.92653893934613
20
1.6601940667748138
30
0
10
244.44720756110146
20
1.4827278865956561
30
0
10
243.87010797593192
20
1.4827278865956561
30
0
0
SPLINE
5
437
100
AcDbEntity
8
0
100
AcDbSpline
70
4
71
3
72
8
73
4
74
0
42
0.000000001
43
0.0000000001
44
0.0000000001
40
0
40
0
40
0
40
0
40
1
40
1
40
1
40
1
41
1
41
1
41
1
41
1
10
243.87010797593192
20
1.4827278865956561
30
0
10
243.29319994800977
20
1.4827278865956561
30
0
10
242.87150263097874
20
1.6601940667748138
30
0
10
242.60520758208631
20
2.0153165331892486
30
0
0
SPLINE
5
438
100
AcDbEntity
8
0
100
AcDbSpline
70
4
71
3
72
8
73
4
74
0
42
0.000000001
43
0.0000000001
44
0.0000000001
40
0
40
0
40
0
40
0
40
1
40
1
40
1
40
1
41
1
41
1
41
1
41
1
10
242.60520758208631
20
2.0153165331892486
30
0
10
242.33891398438516
20
2.3791896829504866
30
0
10
242.20576573434332
20
2.8364556979632605
30
0
10
242.20576573434332
20
3.3867343661153093
30
0
0
SPLINE
5
439
100
AcDbEntity
8
0
100
AcDbSpline
70
4
71
3
72
8
73
4
74
0
42
0.000000001
43
0.0000000001
44
0.0000000001
40
0
40
0
40
0
40
0
40
1
40
1
40
1
40
1
41
1
41
1
41
1
41
1
10
242.20576573434332
20
3.3867343661153093
30
0
10
242.20576573434332
20
3.5554513141389332
30
0
10
242.21033118207285
20
3.6796587747778586
30
0
10
242.21908041422836
20
3.7595483052794743
30
0
0
LINE
5
440
100
AcDbEntity
8
0
100
AcDbLine
10
242.21908041422836
20
3.7595483052794747
30
0
11
242.68509711258793
21
7.8205619500039125
31
0
0
SPLINE
5
441
100
AcDbEntity
8
0
100
AcDbSpline
70
4
71
3
72
8
73
4
74
0
42
0.000000001
43
0.0000000001
44
0.0000000001
40
0
40
0
40
0
40
0
40
1
40
1
40
1
40
1
41
1
41
1
41
1
41
1
10
242.68509711258793
20
7.8205619500039125
30
0
10
243.00465088102061
20
7.9181966473321763
30
0
10
243.32876864599154
20
7.9670234287395525
30
0
10
243.65707309777099
20
7.9670234287395525
30
0
0
SPLINE
5
442
100
AcDbEntity
8
0
100
AcDbSpline
70
4
71
3
72
8
73
4
74
0
42
0.000000001
43
0.0000000001
44
0.0000000001
40
0
40
0
40
0
40
0
40
1
40
1
40
1
40
1
41
1
41
1
41
1
41
1
10
243.65707309777099
20
7.9670234287395525
30
0
10
244.19860253376751
20
7.9670234287395525
30
0
10
244.46927147314204
20
7.7673032304636802
30
0
10
244.46927147314204
20
7.3678613827206689
30
0
0
LINE
5
443
100
AcDbEntity
8
0
100
AcDbLine
10
244.46927147314204
20
7.3678613827206689
30
0
11
244.46927147314204
21
7.3412305717592838
31
0
0
SPLINE
5
444
100
AcDbEntity
8
0
100
AcDbSpline
70
4
71
3
72
8
73
4
74
0
42
0.000000001
43
0.0000000001
44
0.0000000001
40
0
40
0
40
0
40
0
40
1
40
1
40
1
40
1
41
1
41
1
41
1
41
1
10
244.46927147314204
20
7.341230571759283
30
0
10
244.82439539074778
20
7.7584204887114794
30
0
10
245.27709450683975
20
7.9670234287395525
30
0
10
245.82737462618309
20
7.9670234287395525
30
0
0
SPLINE
5
445
100
AcDbEntity
8
0
100
AcDbSpline
70
4
71
3
72
8
73
4
74
0
42
0.000000001
43
0.0000000001
44
0.0000000001
40
0
40
0
40
0
40
0
40
1
40
1
40
1
40
1
41
1
41
1
41
1
41
1
10
245.82737462618309
20
7.9670234287395525
30
0
10
246.22681792511736
20
7.9670234287395525
30
0
10
246.53761955901194
20
7.8738206695441448
30
0
10
246.75940512051969
20
7.6874151511533313
30
0
0
SPLINE
5
446
100
AcDbEntity
8
0
100
AcDbSpline
70
4
71
3
72
8
73
4
74
0
42
0.000000001
43
0.0000000001
44
0.0000000001
40
0
40
0
40
0
40
0
40
1
40
1
40
1
40
1
41
1
41
1
41
1
41
1
10
246.75940512051969
20
7.6874151511533313
30
0
10
246.98138223927481
20
7.5098909233234501
30
0
10
247.09227356883741
20
7.2702252342011349
30
0
10
247.09227356883741
20
6.9684180837863874
30
0
0
SPLINE
5
447
100
AcDbEntity
8
0
100
AcDbSpline
70
4
71
3
72
8
73
4
74
0
42
0.000000001
43
0.0000000001
44
0.0000000001
40
0
40
0
40
0
40
0
40
1
40
1
40
1
40
1
41
1
41
1
41
1
41
1
10
247.09227356883741
20
6.9684180837863874
30
0
10
247.09227356883741
20
6.6666109333716399
30
0
10
246.97700834879268
20
6.4180828191748773
30
0
10
246.7460918918259
20
6.2227742423541095
30
0
0
SPLINE
5
448
100
AcDbEntity
8
0
100
AcDbSpline
70
4
71
3
72
8
73
4
74
0
42
0.000000001
43
0.0000000001
44
0.0000000001
40
0
40
0
40
0
40
0
40
1
40
1
40
1
40
1
41
1
41
1
41
1
41
1
10
246.7460918918259
20
6.2227742423541095
30
0
10
246.52430633031815
20
6.0363672727720274
30
0
10
246.23138337284689
20
5.9431645135766198
30
0
10
245.86732011702952
20
5.9431645135766198
30
0
0
SPLINE
5
449
100
AcDbEntity
8
0
100
AcDbSpline
70
4
71
3
72
8
73
4
74
0
42
0.000000001
43
0.0000000001
44
0.0000000001
40
0
40
0
40
0
40
0
40
1
40
1
40
1
40
1
41
1
41
1
41
1
41
1
10
245.86732011702952
20
5.9431645135766198
30
0
10
245.84963009547107
20
5.9431645135766198
30
0
10
245.83194007391259
20
5.9431645135766198
30
0
10
245.8140613974893
20
5.9431645135766198
30
0
0
SPLINE
5
450
100
AcDbEntity
8
0
100
AcDbSpline
70
4
71
3
72
8
73
4
74
0
42
0.000000001
43
0.0000000001
44
0.0000000001
40
0
40
0
40
0
40
0
40
1
40
1
40
1
40
1
41
1
41
1
41
1
41
1
10
245.8140613974893
20
5.9431645135766198
30
0
10
245.83194007391259
20
6.0407426144454268
30
0
10
245.84069075725944
20
6.1339453736408345
30
0
10
245.84069075725944
20
6.2227742423541095
30
0
0
SPLINE
5
451
100
AcDbEntity
8
0
100
AcDbSpline
70
4
71
3
72
8
73
4
74
0
42
0.000000001
43
0.0000000001
44
0.0000000001
40
0
40
0
40
0
40
0
40
1
40
1
40
1
40
1
41
1
41
1
41
1
41
1
10
245.01517479962072
20
3.6397147351226833
30
0
10
245.01517479962072
20
4.1546148113490888
30
0
10
244.74888120191957
20
4.6693247815193661
30
0
10
244.21629110413471
20
5.1842248577457672
30
0
0
SPLINE
5
452
100
AcDbEntity
8
0
100
AcDbSpline
70
4
71
3
72
8
73
4
74
0
42
0.000000001
43
0.0000000001
44
0.0000000001
40
0
40
0
40
0
40
0
40
1
40
1
40
1
40
1
41
1
41
1
41
1
41
1
10
244.21629110413471
20
5.1842248577457672
30
0
10
244.05651494551398
20
3.9060097840151142
30
0
10
243.97662686620365
20
3.2625269054763884
30
0
10
243.97662686620365
20
3.2535875672647308
30
0
0
SPLINE
5
453
100
AcDbEntity
8
0
100
AcDbSpline
70
4
71
3
72
8
73
4
74
0
42
0.000000001
43
0.0000000001
44
0.0000000001
40
0
40
0
40
0
40
0
40
1
40
1
40
1
40
1
41
1
41
1
41
1
41
1
10
243.97662686620365
20
3.2535875672647308
30
0
10
243.97662686620365
20
2.8807750792918352
30
0
10
244.12765379266884
20
2.6943681097097505
30
0
10
244.42932598229564
20
2.6943681097097505
30
0
0
SPLINE
5
454
100
AcDbEntity
8
0
100
AcDbSpline
70
4
71
3
72
8
73
4
74
0
42
0.000000001
43
0.0000000001
44
0.0000000001
40
0
40
0
40
0
40
0
40
1
40
1
40
1
40
1
41
1
41
1
41
1
41
1
10
244.42932598229564
20
2.6943681097097505
30
0
10
244.82001859788312
20
2.6943681097097505
30
0
10
245.01517479962072
20
3.0095479876602838
30
0
10
245.01517479962072
20
3.6397147351226833
30
0
0
SPLINE
5
455
100
AcDbEntity
8
0
100
AcDbSpline
70
4
71
3
72
8
73
4
74
0
42
0.000000001
43
0.0000000001
44
0.0000000001
40
0
40
0
40
0
40
0
40
1
40
1
40
1
40
1
41
1
41
1
41
1
41
1
10
251.30125357764254
20
7.9803381086246112
30
0
10
251.94036111450785
20
7.9803381086246112
30
0
10
252.49064123385119
20
7.7184764490563058
30
0
10
252.95228259053738
20
7.194769093023643
30
0
0
SPLINE
5
456
100
AcDbEntity
8
0
100
AcDbSpline
70
4
71
3
72
8
73
4
74
0
42
0.000000001
43
0.0000000001
44
0.0000000001
40
0
40
0
40
0
40
0
40
1
40
1
40
1
40
1
41
1
41
1
41
1
41
1
10
252.95228259053738
20
7.194769093023643
30
0
10
253.413921044841
20
6.6710617369909819
30
0
10
253.64464884694291
20
6.0586227420600114
30
0
10
253.64464884694291
20
5.3573156962515256
30
0
0
SPLINE
5
457
100
AcDbEntity
8
0
100
AcDbSpline
70
4
71
3
72
8
73
4
74
0
42
0.000000001
43
0.0000000001
44
0.0000000001
40
0
40
0
40
0
40
0
40
1
40
1
40
1
40
1
41
1
41
1
41
1
41
1
10
253.64464884694291
20
5.3573156962515256
30
0
10
253.64464884694291
20
5.2597375953827186
30
0
10
253.64027205407822
20
5.1575954979756533
30
0
10
253.63133271586659
20
5.0510766077039193
30
0
0
SPLINE
5
458
100
AcDbEntity
8
0
100
AcDbSpline
70
4
71
3
72
8
73
4
74
0
42
0.000000001
43
0.0000000001
44
0.0000000001
40
0
40
0
40
0
40
0
40
1
40
1
40
1
40
1
41
1
41
1
41
1
41
1
10
253.63133271586659
20
5.0510766077039193
30
0
10
253.53375461499778
20
3.8883197624566579
30
0
10
253.14306199941029
20
3.0006071982573568
30
0
10
252.45963508121639
20
2.3881290211621442
30
0
0
SPLINE
5
459
100
AcDbEntity
8
0
100
AcDbSpline
70
4
71
3
72
8
73
4
74
0
42
0.000000001
43
0.0000000001
44
0.0000000001
40
0
40
0
40
0
40
0
40
1
40
1
40
1
40
1
41
1
41
1
41
1
41
1
10
252.45963508121639
20
2.3881290211621442
30
0
10
251.77620816302249
20
1.7845916334698586
30
0
10
250.88412315953232
20
1.4827278865956561
30
0
10
249.7833742659808
20
1.4827278865956561
30
0
0
SPLINE
5
460
100
AcDbEntity
8
0
100
AcDbSpline
70
4
71
3
72
8
73
4
74
0
42
0.000000001
43
0.0000000001
44
0.0000000001
40
0
40
0
40
0
40
0
40
1
40
1
40
1
40
1
41
1
41
1
41
1
41
1
10
249.7833742659808
20
1.4827278865956561
30
0
10
249.33961158571799
20
1.5004164569628475
30
0
10
248.95348441786001
20
1.5803059874644632
30
0
10
248.62499276240698
20
1.7223921245267038
30
0
0
SPLINE
5
461
100
AcDbEntity
8
0
100
AcDbSpline
70
4
71
3
72
8
73
4
74
0
42
0.000000001
43
0.0000000001
44
0.0000000001
40
0
40
0
40
0
40
0
40
1
40
1
40
1
40
1
41
1
41
1
41
1
41
1
10
248.62499276240698
20
1.7223921245267038
30
0
10
248.29649820457138
20
1.8644797127802093
30
0
10
248.05245717377568
20
2.041945892959367
30
0
10
247.89268101515495
20
2.2549822223115656
30
0
0
SPLINE
5
462
100
AcDbEntity
8
0
100
AcDbSpline
70
4
71
3
72
8
73
4
74
0
42
0.000000001
43
0.0000000001
44
0.0000000001
40
0
40
0
40
0
40
0
40
1
40
1
40
1
40
1
41
1
41
1
41
1
41
1
10
247.89268101515495
20
2.2549822223115656
30
0
10
247.59081581708949
20
2.6454847318429175
30
0
10
247.43997899668045
20
2.9916678600456992
30
0
10
247.43997899668045
20
3.2935316069199061
30
0
0
SPLINE
5
463
100
AcDbEntity
8
0
100
AcDbSpline
70
4
71
3
72
8
73
4
74
0
42
0.000000001
43
0.0000000001
44
0.0000000001
40
0
40
0
40
0
40
0
40
1
40
1
40
1
40
1
41
1
41
1
41
1
41
1
10
247.43997899668045
20
3.2935316069199061
30
0
10
247.43997899668045
20
3.6041460371409118
30
0
10
247.48429837800902
20
4.1013560918088565
30
0
10
247.57312579553101
20
4.7847830100027577
30
0
0
SPLINE
5
464
100
AcDbEntity
8
0
100
AcDbSpline
70
4
71
3
72
8
73
4
74
0
42
0.000000001
43
0.0000000001
44
0.0000000001
40
0
40
0
40
0
40
0
40
1
40
1
40
1
40
1
41
1
41
1
41
1
41
1
10
247.57312579553101
20
4.7847830100027577
30
0
10
247.75953421630442
20
6.1872055443723362
30
0
10
248.02582781400557
20
8.4552375487363829
30
0
10
248.37201239339959
20
11.588632320579318
30
0
0
SPLINE
5
465
100
AcDbEntity
8
0
100
AcDbSpline
70
4
71
3
72
8
73
4
74
0
42
0.000000001
43
0.0000000001
44
0.0000000001
40
0
40
0
40
0
40
0
40
1
40
1
40
1
40
1
41
1
41
1
41
1
41
1
10
248.37201239339959
20
11.588632320579318
30
0
10
248.55841791179043
20
11.659637658137465
30
0
10
248.80702148793313
20
11.695151210851051
30
0
10
249.1176373693454
20
11.695151210851051
30
0
0
SPLINE
5
466
100
AcDbEntity
8
0
100
AcDbSpline
70
4
71
3
72
8
73
4
74
0
42
0.000000001
43
0.0000000001
44
0.0000000001
40
0
40
0
40
0
40
0
40
1
40
1
40
1
40
1
41
1
41
1
41
1
41
1
10
249.1176373693454
20
11.695151210851051
30
0
10
249.82769364730942
20
11.695151210851051
30
0
10
250.18281466253256
20
11.490997623251054
30
0
10
250.18281466253256
20
11.082673033755839
30
0
0
LINE
5
467
100
AcDbEntity
8
0
100
AcDbLine
10
250.18281466253256
20
11.082673033755839
30
0
11
249.7301155464406
21
7.5409522212264228
31
0
0
SPLINE
5
468
100
AcDbEntity
8
0
100
AcDbSpline
70
4
71
3
72
8
73
4
74
0
42
0.000000001
43
0.0000000001
44
0.0000000001
40
0
40
0
40
0
40
0
40
1
40
1
40
1
40
1
41
1
41
1
41
1
41
1
10
249.7301155464406
20
7.5409522212264246
30
0
10
250.14724596455082
20
7.8338766298889713
30
0
10
250.67108537898886
20
7.9803381086246112
30
0
10
251.30125357764254
20
7.9803381086246112
30
0
0
SPLINE
5
469
100
AcDbEntity
8
0
100
AcDbSpline
70
4
71
3
72
8
73
4
74
0
42
0.000000001
43
0.0000000001
44
0.0000000001
40
0
40
0
40
0
40
0
40
1
40
1
40
1
40
1
41
1
41
1
41
1
41
1
10
249.23746803711964
20
3.3867343661153093
30
0
10
249.23746803711964
20
3.1826388261660377
30
0
10
249.31298222594788
20
3.0095479876602838
30
0
10
249.46381904635689
20
2.8674603994067738
30
0
0
SPLINE
5
470
100
AcDbEntity
8
0
100
AcDbSpline
70
4
71
3
72
8
73
4
74
0
42
0.000000001
43
0.0000000001
44
0.0000000001
40
0
40
0
40
0
40
0
40
1
40
1
40
1
40
1
41
1
41
1
41
1
41
1
10
249.46381904635689
20
2.8674603994067738
30
0
10
249.62359810736015
20
2.7343136005561952
30
0
10
249.84100687600318
20
2.6677387499396366
30
0
10
250.11624271429855
20
2.6677387499396366
30
0
0
SPLINE
5
471
100
AcDbEntity
8
0
100
AcDbSpline
70
4
71
3
72
8
73
4
74
0
42
0.000000001
43
0.0000000001
44
0.0000000001
40
0
40
0
40
0
40
0
40
1
40
1
40
1
40
1
41
1
41
1
41
1
41
1
10
250.11624271429855
20
2.6677387499396366
30
0
10
250.56894183039051
20
2.6677387499396366
30
0
10
250.94175576955467
20
2.8763997376184314
30
0
10
251.23467872702599
20
3.2935316069199061
30
0
0
SPLINE
5
472
100
AcDbEntity
8
0
100
AcDbSpline
70
4
71
3
72
8
73
4
74
0
42
0.000000001
43
0.0000000001
44
0.0000000001
40
0
40
0
40
0
40
0
40
1
40
1
40
1
40
1
41
1
41
1
41
1
41
1
10
251.23467872702599
20
3.2935316069199061
30
0
10
251.58980264463167
20
3.7994923449346496
30
0
10
251.76726882481086
20
4.4562884521671675
30
0
10
251.76726882481086
20
5.2641129370561179
30
0
0
SPLINE
5
473
100
AcDbEntity
8
0
100
AcDbSpline
70
4
71
3
72
8
73
4
74
0
42
0.000000001
43
0.0000000001
44
0.0000000001
40
0
40
0
40
0
40
0
40
1
40
1
40
1
40
1
41
1
41
1
41
1
41
1
10
251.76726882481086
20
5.2641129370561179
30
0
10
251.76726882481086
20
5.6546154465874743
30
0
10
251.6784414072888
20
6.0007985747902541
30
0
10
251.50097522710968
20
6.3026623216644584
30
0
0
SPLINE
5
474
100
AcDbEntity
8
0
100
AcDbSpline
70
4
71
3
72
8
73
4
74
0
42
0.000000001
43
0.0000000001
44
0.0000000001
40
0
40
0
40
0
40
0
40
1
40
1
40
1
40
1
41
1
41
1
41
1
41
1
10
251.50097522710968
20
6.3026623216644584
30
0
10
251.32350904693052
20
6.6044883375656926
30
0
10
251.04827320863518
20
6.7553832056254564
30
0
10
250.67546217185352
20
6.7553832056254564
30
0
0
SPLINE
5
475
100
AcDbEntity
8
0
100
AcDbSpline
70
4
71
3
72
8
73
4
74
0
42
0.000000001
43
0.0000000001
44
0.0000000001
40
0
40
0
40
0
40
0
40
1
40
1
40
1
40
1
41
1
41
1
41
1
41
1
10
250.67546217185352
20
6.7553832056254564
30
0
10
250.1695014338388
20
6.7553832056254564
30
0
10
249.7833742659808
20
6.453576055210708
30
0
10
249.51707776589714
20
5.8499617543812121
30
0
0
LINE
5
476
100
AcDbEntity
8
0
100
AcDbLine
10
249.51707776589714
20
5.8499617543812121
30
0
11
249.41056032681669
21
5.0510766077039193
31
0
0
SPLINE
5
477
100
AcDbEntity
8
0
100
AcDbSpline
70
4
71
3
72
8
73
4
74
0
42
0.000000001
43
0.0000000001
44
0.0000000001
40
0
40
0
40
0
40
0
40
1
40
1
40
1
40
1
41
1
41
1
41
1
41
1
10
249.41056032681666
20
5.0510766077039193
30
0
10
249.29510354952455
20
4.1546148113490888
30
0
10
249.23746803711964
20
3.5997706954675079
30
0
10
249.23746803711964
20
3.3867343661153093
30
0
0
SPLINE
5
478
100
AcDbEntity
8
0
100
AcDbSpline
70
4
71
3
72
8
73
4
74
0
42
0.000000001
43
0.0000000001
44
0.0000000001
40
0
40
0
40
0
40
0
40
1
40
1
40
1
40
1
41
1
41
1
41
1
41
1
10
260.15174985986539
20
7.8338766298889713
30
0
10
259.78787816129545
20
4.9578738485085116
30
0
10
259.60584653338674
20
3.426679856961754
30
0
10
259.60584653338674
20
3.2402728873796693
30
0
0
SPLINE
5
479
100
AcDbEntity
8
0
100
AcDbSpline
70
4
71
3
72
8
73
4
74
0
42
0.000000001
43
0.0000000001
44
0.0000000001
40
0
40
0
40
0
40
0
40
1
40
1
40
1
40
1
41
1
41
1
41
1
41
1
10
259.60584653338674
20
3.2402728873796693
30
0
10
259.60584653338674
20
2.8851504209652346
30
0
10
259.73461944175523
20
2.7076827895948075
30
0
10
259.99197370124472
20
2.7076827895948075
30
0
0
SPLINE
5
480
100
AcDbEntity
8
0
100
AcDbSpline
70
4
71
3
72
8
73
4
74
0
42
0.000000001
43
0.0000000001
44
0.0000000001
40
0
40
0
40
0
40
0
40
1
40
1
40
1
40
1
41
1
41
1
41
1
41
1
10
259.99197370124472
20
2.7076827895948075
30
0
10
260.2228901582115
20
2.7076827895948075
30
0
10
260.47130507948935
20
2.8630850577333744
30
0
10
260.73759867719053
20
3.1736994879543801
30
0
0
SPLINE
5
481
100
AcDbEntity
8
0
100
AcDbSpline
70
4
71
3
72
8
73
4
74
0
42
0.000000001
43
0.0000000001
44
0.0000000001
40
0
40
0
40
0
40
0
40
1
40
1
40
1
40
1
41
1
41
1
41
1
41
1
10
260.73759867719053
20
3.1736994879543801
30
0
10
261.01283451548585
20
3.4932532563870433
30
0
10
261.2302432841289
20
3.9682092929582735
30
0
10
261.39001944274963
20
4.598376040420673
30
0
0
SPLINE
5
482
100
AcDbEntity
8
0
100
AcDbSpline
70
4
71
3
72
8
73
4
74
0
42
0.000000001
43
0.0000000001
44
0.0000000001
40
0
40
0
40
0
40
0
40
1
40
1
40
1
40
1
41
1
41
1
41
1
41
1
10
261.39001944274963
20
4.598376040420673
30
0
10
261.68294530260346
20
4.2788222719880098
30
0
10
261.86060304003001
20
4.0302172446540396
30
0
10
261.92260954053449
20
3.8527510644748819
30
0
0
SPLINE
5
483
100
AcDbEntity
8
0
100
AcDbSpline
70
4
71
3
72
8
73
4
74
0
42
0.000000001
43
0.0000000001
44
0.0000000001
40
0
40
0
40
0
40
0
40
1
40
1
40
1
40
1
41
1
41
1
41
1
41
1
10
261.92260954053449
20
3.8527510644748819
30
0
10
261.71851400058523
20
2.9916678600456992
30
0
10
261.39458489047917
20
2.3837551306800142
30
0
10
260.95063355535143
20
2.0286312130743056
30
0
0
SPLINE
5
484
100
AcDbEntity
8
0
100
AcDbSpline
70
4
71
3
72
8
73
4
74
0
42
0.000000001
43
0.0000000001
44
0.0000000001
40
0
40
0
40
0
40
0
40
1
40
1
40
1
40
1
41
1
41
1
41
1
41
1
10
260.95063355535143
20
2.0286312130743056
30
0
10
260.50687377747113
20
1.6735087466598708
30
0
10
260.04979786851447
20
1.4960425664807131
30
0
10
259.57921717361666
20
1.4960425664807131
30
0
0
SPLINE
5
485
100
AcDbEntity
8
0
100
AcDbSpline
70
4
71
3
72
8
73
4
74
0
42
0.000000001
43
0.0000000001
44
0.0000000001
40
0
40
0
40
0
40
0
40
1
40
1
40
1
40
1
41
1
41
1
41
1
41
1
10
259.57921717361666
20
1.4960425664807131
30
0
10
258.80696283790076
20
1.4960425664807131
30
0
10
258.28768596880968
20
1.7933408656253924
30
0
10
258.0213923711085
20
2.3881290211621442
30
0
0
SPLINE
5
486
100
AcDbEntity
8
0
100
AcDbSpline
70
4
71
3
72
8
73
4
74
0
42
0.000000001
43
0.0000000001
44
0.0000000001
40
0
40
0
40
0
40
0
40
1
40
1
40
1
40
1
41
1
41
1
41
1
41
1
10
258.0213923711085
20
2.3881290211621442
30
0
10
257.55994257166969
20
1.7933408656253924
30
0
10
256.94289894684499
20
1.4960425664807131
30
0
10
256.17064461112909
20
1.4960425664807131
30
0
0
SPLINE
5
487
100
AcDbEntity
8
0
100
AcDbSpline
70
4
71
3
72
8
73
4
74
0
42
0.000000001
43
0.0000000001
44
0.0000000001
40
0
40
0
40
0
40
0
40
1
40
1
40
1
40
1
41
1
41
1
41
1
41
1
10
256.17064461112909
20
1.4960425664807131
30
0
10
255.53153707426375
20
1.4960425664807131
30
0
10
255.03888956494279
20
1.65581872510141
30
0
10
254.69270788793128
20
1.9753724935340733
30
0
0
SPLINE
5
488
100
AcDbEntity
8
0
100
AcDbSpline
70
4
71
3
72
8
73
4
74
0
42
0.000000001
43
0.0000000001
44
0.0000000001
40
0
40
0
40
0
40
0
40
1
40
1
40
1
40
1
41
1
41
1
41
1
41
1
10
254.69270788793128
20
1.9753724935340733
30
0
10
254.34652330853723
20
2.2949262619667365
30
0
10
254.17343392122274
20
2.7120581312682113
30
0
10
254.17343392122274
20
3.2269582074946124
30
0
0
SPLINE
5
489
100
AcDbEntity
8
0
100
AcDbSpline
70
4
71
3
72
8
73
4
74
0
42
0.000000001
43
0.0000000001
44
0.0000000001
40
0
40
0
40
0
40
0
40
1
40
1
40
1
40
1
41
1
41
1
41
1
41
1
10
254.17343392122274
20
3.2269582074946124
30
0
10
254.17343392122274
20
3.3511656681335378
30
0
10
254.19568648812822
20
3.5687659940239946
30
0
10
254.24000586945678
20
3.8793804242450003
30
0
0
SPLINE
5
490
100
AcDbEntity
8
0
100
AcDbSpline
70
4
71
3
72
8
73
4
74
0
42
0.000000001
43
0.0000000001
44
0.0000000001
40
0
40
0
40
0
40
0
40
1
40
1
40
1
40
1
41
1
41
1
41
1
41
1
10
254.24000586945678
20
3.8793804242450003
30
0
10
254.44429296665345
20
5.5304079859485489
30
0
10
254.59950367754459
20
6.8441540266880079
30
0
10
254.7060211166251
20
7.8205619500039125
30
0
0
SPLINE
5
491
100
AcDbEntity
8
0
100
AcDbSpline
70
4
71
3
72
8
73
4
74
0
42
0.000000001
43
0.0000000001
44
0.0000000001
40
0
40
0
40
0
40
0
40
1
40
1
40
1
40
1
41
1
41
1
41
1
41
1
10
254.7060211166251
20
7.8205619500039125
30
0
10
254.98125695492041
20
7.9181966473321763
30
0
10
255.2342373239278
20
7.9670234287395525
30
0
10
255.46496222364721
20
7.9670234287395525
30
0
0
SPLINE
5
492
100
AcDbEntity
8
0
100
AcDbSpline
70
4
71
3
72
8
73
4
74
0
42
0.000000001
43
0.0000000001
44
0.0000000001
40
0
40
0
40
0
40
0
40
1
40
1
40
1
40
1
41
1
41
1
41
1
41
1
10
255.46496222364721
20
7.9670234287395525
30
0
10
255.69587868061399
20
7.9670234287395525
30
0
10
255.86897097031098
20
7.9581406869873517
30
0
10
255.98423619035572
20
7.9403940689694359
30
0
0
SPLINE
5
493
100
AcDbEntity
8
0
100
AcDbSpline
70
4
71
3
72
8
73
4
74
0
42
0.000000001
43
0.0000000001
44
0.0000000001
40
0
40
0
40
0
40
0
40
1
40
1
40
1
40
1
41
1
41
1
41
1
41
1
10
255.98423619035572
20
7.9403940689694359
30
0
10
256.09969587003042
20
7.922647450951521
30
0
10
256.21058719959296
20
7.85607405152623
30
0
10
256.31710463867341
20
7.7406738706935645
30
0
0
SPLINE
5
494
100
AcDbEntity
8
0
100
AcDbSpline
70
4
71
3
72
8
73
4
74
0
42
0.000000001
43
0.0000000001
44
0.0000000001
40
0
40
0
40
0
40
0
40
1
40
1
40
1
40
1
41
1
41
1
41
1
41
1
10
256.31710463867341
20
7.7406738706935645
30
0
10
256.42362498013648
20
7.6252722386696288
30
0
10
256.4768836996767
20
7.4610641419160739
30
0
10
256.4768836996767
20
7.2480278125638753
30
0
0
LINE
5
495
100
AcDbEntity
8
0
100
AcDbLine
10
256.4768836996767
20
7.2480278125638762
30
0
11
256.03749490989594
21
3.8527510644748815
31
0
0
SPLINE
5
496
100
AcDbEntity
8
0
100
AcDbSpline
70
4
71
3
72
8
73
4
74
0
42
0.000000001
43
0.0000000001
44
0.0000000001
40
0
40
0
40
0
40
0
40
1
40
1
40
1
40
1
41
1
41
1
41
1
41
1
10
256.03749490989594
20
3.8527510644748819
30
0
10
256.01980779072005
20
3.7462336253944173
30
0
10
256.01086555012586
20
3.6486555245256103
30
0
10
256.01086555012586
20
3.559826655812337
30
0
0
SPLINE
5
497
100
AcDbEntity
8
0
100
AcDbSpline
70
4
71
3
72
8
73
4
74
0
42
0.000000001
43
0.0000000001
44
0.0000000001
40
0
40
0
40
0
40
0
40
1
40
1
40
1
40
1
41
1
41
1
41
1
41
1
10
256.01086555012586
20
3.559826655812337
30
0
10
256.01086555012586
20
3.0361773474303977
30
0
10
256.2505326904394
20
2.7742576402113661
30
0
10
256.72986116630153
20
2.7742576402113661
30
0
0
SPLINE
5
498
100
AcDbEntity
8
0
100
AcDbSpline
70
4
71
3
72
8
73
4
74
0
42
0.000000001
43
0.0000000001
44
0.0000000001
40
0
40
0
40
0
40
0
40
1
40
1
40
1
40
1
41
1
41
1
41
1
41
1
10
256.72986116630153
20
2.7742576402113661
30
0
10
257.17381540381177
20
2.7742576402113661
30
0
10
257.54206099286387
20
2.9916678600456992
30
0
10
257.83498685271769
20
3.426679856961754
30
0
0
SPLINE
5
499
100
AcDbEntity
8
0
100
AcDbSpline
70
4
71
3
72
8
73
4
74
0
42
0.000000001
43
0.0000000001
44
0.0000000001
40
0
40
0
40
0
40
0
40
1
40
1
40
1
40
1
41
1
41
1
41
1
41
1
10
257.83498685271769
20
3.426679856961754
30
0
10
257.83498685271769
20
3.5242579578305611
30
0
10
257.84392619092932
20
3.6796587747778586
30
0
10
257.86161621248777
20
3.8926951041300573
30
0
0
LINE
5
500
100
AcDbEntity
8
0
100
AcDbLine
10
257.86161621248783
20
3.8926951041300573
30
0
11
258.30100209988598
21
7.4344347821459591
31
0
0
SPLINE
5
501
100
AcDbEntity
8
0
100
AcDbSpline
70
4
71
3
72
8
73
4
74
0
42
0.000000001
43
0.0000000001
44
0.0000000001
40
0
40
0
40
0
40
0
40
1
40
1
40
1
40
1
41
1
41
1
41
1
41
1
10
258.30100209988598
20
7.4344347821459582
30
0
10
258.36320015763789
20
7.5853281990144561
30
0
10
258.49634695648842
20
7.70961257279059
30
0
10
258.70044249643774
20
7.8072472701188556
30
0
0
SPLINE
5
502
100
AcDbEntity
8
0
100
AcDbSpline
70
4
71
3
72
8
73
4
74
0
42
0.000000001
43
0.0000000001
44
0.0000000001
40
0
40
0
40
0
40
0
40
1
40
1
40
1
40
1
41
1
41
1
41
1
41
1
10
258.70044249643774
20
7.8072472701188556
30
0
10
258.90472959363439
20
7.9137647091993202
30
0
10
259.15770996264177
20
7.9670234287395525
30
0
10
259.45938360345986
20
7.9670234287395525
30
0
0
SPLINE
5
503
100
AcDbEntity
8
0
100
AcDbSpline
70
4
71
3
72
8
73
4
74
0
42
0.000000001
43
0.0000000001
44
0.0000000001
40
0
40
0
40
0
40
0
40
1
40
1
40
1
40
1
41
1
41
1
41
1
41
1
10
259.45938360345986
20
7.9670234287395525
30
0
10
259.77018813973694
20
7.9670234287395525
30
0
10
260.00091303945635
20
7.922647450951521
30
0
10
260.15174985986539
20
7.8338766298889713
30
0
0
LINE
5
504
100
AcDbEntity
8
0
100
AcDbLine
10
264.75655679896465
20
3.0538659177975891
30
0
11
265.07611201858856
21
6.0230525928869678
31
0
0
SPLINE
5
505
100
AcDbEntity
8
0
100
AcDbSpline
70
4
71
3
72
8
73
4
74
0
42
0.000000001
43
0.0000000001
44
0.0000000001
40
0
40
0
40
0
40
0
40
1
40
1
40
1
40
1
41
1
41
1
41
1
41
1
10
265.07611201858856
20
6.0230525928869678
30
0
10
265.07611201858856
20
6.262718282009283
30
0
10
265.01391105845414
20
6.4624587969629088
30
0
10
264.88970359781524
20
6.6222349555836075
30
0
0
SPLINE
5
506
100
AcDbEntity
8
0
100
AcDbSpline
70
4
71
3
72
8
73
4
74
0
42
0.000000001
43
0.0000000001
44
0.0000000001
40
0
40
0
40
0
40
0
40
1
40
1
40
1
40
1
41
1
41
1
41
1
41
1
10
264.88970359781524
20
6.6222349555836075
30
0
10
264.76530748231147
20
6.7820125653955721
30
0
10
264.55683514949749
20
6.8619006447059228
30
0
10
264.26391219202623
20
6.8619006447059228
30
0
0
SPLINE
5
507
100
AcDbEntity
8
0
100
AcDbSpline
70
4
71
3
72
8
73
4
74
0
42
0.000000001
43
0.0000000001
44
0.0000000001
40
0
40
0
40
0
40
0
40
1
40
1
40
1
40
1
41
1
41
1
41
1
41
1
10
264.26391219202623
20
6.8619006447059228
30
0
10
263.97973701551916
20
6.8619006447059228
30
0
10
263.73569598472352
20
6.7331857839881977
30
0
10
263.53160044477426
20
6.4757734768479676
30
0
0
SPLINE
5
508
100
AcDbEntity
8
0
100
AcDbSpline
70
4
71
3
72
8
73
4
74
0
42
0.000000001
43
0.0000000001
44
0.0000000001
40
0
40
0
40
0
40
0
40
1
40
1
40
1
40
1
41
1
41
1
41
1
41
1
10
263.53160044477426
20
6.4757734768479676
30
0
10
263.33625558817175
20
6.2271495840275097
30
0
10
263.21204812753285
20
5.912159812133102
30
0
10
263.15878940799257
20
5.5304079859485489
30
0
0
SPLINE
5
509
100
AcDbEntity
8
0
100
AcDbSpline
70
4
71
3
72
8
73
4
74
0
42
0.000000001
43
0.0000000001
44
0.0000000001
40
0
40
0
40
0
40
0
40
1
40
1
40
1
40
1
41
1
41
1
41
1
41
1
10
263.15878940799257
20
5.5304079859485489
30
0
10
262.83923418836866
20
3.0981852991261638
30
0
10
262.6705186915363
20
1.775652295258201
30
0
10
262.65282866997785
20
1.5626159659060024
30
0
0
LINE
5
510
100
AcDbEntity
8
0
100
AcDbLine
10
262.65282866997791
20
1.5626159659060028
30
0
11
260.85533962953866
21
1.5626159659060024
31
0
0
LINE
5
511
100
AcDbEntity
8
0
100
AcDbLine
10
260.85533962953866
20
1.5626159659060024
30
0
11
261.58764847440813
21
7.8338766298889695
31
0
0
SPLINE
5
512
100
AcDbEntity
8
0
100
AcDbSpline
70
4
71
3
72
8
73
4
74
0
42
0.000000001
43
0.0000000001
44
0.0000000001
40
0
40
0
40
0
40
0
40
1
40
1
40
1
40
1
41
1
41
1
41
1
41
1
10
261.58764847440813
20
7.8338766298889713
30
0
10
261.96046241357232
20
7.9315113272172351
30
0
10
262.24444603283189
20
7.9803381086246112
30
0
10
262.4397937918169
20
7.9803381086246112
30
0
0
SPLINE
5
513
100
AcDbEntity
8
0
100
AcDbSpline
70
4
71
3
72
8
73
4
74
0
42
0.000000001
43
0.0000000001
44
0.0000000001
40
0
40
0
40
0
40
0
40
1
40
1
40
1
40
1
41
1
41
1
41
1
41
1
10
262.4397937918169
20
7.9803381086246112
30
0
10
263.0343903901063
20
7.9803381086246112
30
0
10
263.34519492638344
20
7.7628712923308214
30
0
10
263.37182428615353
20
7.327915891874226
30
0
0
SPLINE
5
514
100
AcDbEntity
8
0
100
AcDbSpline
70
4
71
3
72
8
73
4
74
0
42
0.000000001
43
0.0000000001
44
0.0000000001
40
0
40
0
40
0
40
0
40
1
40
1
40
1
40
1
41
1
41
1
41
1
41
1
10
263.37182428615353
20
7.327915891874226
30
0
10
263.8066447258222
20
7.7539885505786232
30
0
10
264.32592159491327
20
7.9670234287395525
30
0
10
264.92964908866168
20
7.9670234287395525
30
0
0
SPLINE
5
515
100
AcDbEntity
8
0
100
AcDbSpline
70
4
71
3
72
8
73
4
74
0
42
0.000000001
43
0.0000000001
44
0.0000000001
40
0
40
0
40
0
40
0
40
1
40
1
40
1
40
1
41
1
41
1
41
1
41
1
10
264.92964908866168
20
7.9670234287395525
30
0
10
265.5421272657569
20
7.9670234287395525
30
0
10
266.02145864400148
20
7.8161300118710564
30
0
10
266.36764032101303
20
7.5143228614563089
30
0
0
SPLINE
5
516
100
AcDbEntity
8
0
100
AcDbSpline
70
4
71
3
72
8
73
4
74
0
42
0.000000001
43
0.0000000001
44
0.0000000001
40
0
40
0
40
0
40
0
40
1
40
1
40
1
40
1
41
1
41
1
41
1
41
1
10
266.36764032101303
20
7.5143228614563089
30
0
10
266.71382490040708
20
7.2125157110415579
30
0
10
266.88691428772154
20
6.8308393468029482
30
0
10
266.88691428772154
20
6.3692560377675029
30
0
0
SPLINE
5
517
100
AcDbEntity
8
0
100
AcDbSpline
70
4
71
3
72
8
73
4
74
0
42
0.000000001
43
0.0000000001
44
0.0000000001
40
0
40
0
40
0
40
0
40
1
40
1
40
1
40
1
41
1
41
1
41
1
41
1
10
266.88691428772154
20
6.3692560377675029
30
0
10
266.88691428772154
20
6.2450282604508249
30
0
10
266.86028492795145
20
6.0097379130019117
30
0
10
266.80702620841123
20
5.6635547847991301
30
0
0
SPLINE
5
518
100
AcDbEntity
8
0
100
AcDbSpline
70
4
71
3
72
8
73
4
74
0
42
0.000000001
43
0.0000000001
44
0.0000000001
40
0
40
0
40
0
40
0
40
1
40
1
40
1
40
1
41
1
41
1
41
1
41
1
10
266.80702620841123
20
5.6635547847991301
30
0
10
266.60274201359709
20
4.3143924211610551
30
0
10
266.50078711986362
20
3.5288219543688193
30
0
10
266.50078711986362
20
3.3068462868049631
30
0
0
SPLINE
5
519
100
AcDbEntity
8
0
100
AcDbSpline
70
4
71
3
72
8
73
4
74
0
42
0.000000001
43
0.0000000001
44
0.0000000001
40
0
40
0
40
0
40
0
40
1
40
1
40
1
40
1
41
1
41
1
41
1
41
1
10
266.50078711986362
20
3.3068462868049631
30
0
10
266.50078711986362
20
2.8984651008502915
30
0
10
266.63831071157887
20
2.6943681097097505
30
0
10
266.91354364749168
20
2.6943681097097505
30
0
0
SPLINE
5
520
100
AcDbEntity
8
0
100
AcDbSpline
70
4
71
3
72
8
73
4
74
0
42
0.000000001
43
0.0000000001
44
0.0000000001
40
0
40
0
40
0
40
0
40
1
40
1
40
1
40
1
41
1
41
1
41
1
41
1
10
266.91354364749168
20
2.6943681097097505
30
0
10
267.51708248637522
20
2.6943681097097505
30
0
10
267.97415839533187
20
3.3245363083634194
30
0
10
268.28496293160902
20
4.5850613605356161
30
0
0
SPLINE
5
521
100
AcDbEntity
8
0
100
AcDbSpline
70
4
71
3
72
8
73
4
74
0
42
0.000000001
43
0.0000000001
44
0.0000000001
40
0
40
0
40
0
40
0
40
1
40
1
40
1
40
1
41
1
41
1
41
1
41
1
10
268.28496293160902
20
4.5850613605356161
30
0
10
268.5866365724271
20
4.2655075921029528
30
0
10
268.76867110271832
20
4.0125272230955789
30
0
10
268.83086916047023
20
3.826121704704768
30
0
0
SPLINE
5
522
100
AcDbEntity
8
0
100
AcDbSpline
70
4
71
3
72
8
73
4
74
0
42
0.000000001
43
0.0000000001
44
0.0000000001
40
0
40
0
40
0
40
0
40
1
40
1
40
1
40
1
41
1
41
1
41
1
41
1
10
268.83086916047023
20
3.826121704704768
30
0
10
268.36028556318985
20
2.2639215605232232
30
0
10
267.54371184614536
20
1.4827278865956561
30
0
10
266.38095645208932
20
1.4827278865956561
30
0
0
SPLINE
5
523
100
AcDbEntity
8
0
100
AcDbSpline
70
4
71
3
72
8
73
4
74
0
42
0.000000001
43
0.0000000001
44
0.0000000001
40
0
40
0
40
0
40
0
40
1
40
1
40
1
40
1
41
1
41
1
41
1
41
1
10
266.38095645208932
20
1.4827278865956561
30
0
10
265.83048477549863
20
1.4827278865956561
30
0
10
265.4222936956001
20
1.65144483461928
30
0
10
265.15600009789893
20
1.9886871734191347
30
0
0
SPLINE
5
524
100
AcDbEntity
8
0
100
AcDbSpline
70
4
71
3
72
8
73
4
74
0
42
0.000000001
43
0.0000000001
44
0.0000000001
40
0
40
0
40
0
40
0
40
1
40
1
40
1
40
1
41
1
41
1
41
1
41
1
10
265.15600009789893
20
1.9886871734191347
30
0
10
264.88970359781524
20
2.3259309634102543
30
0
10
264.75655679896465
20
2.6810534298246935
30
0
10
264.75655679896465
20
3.0538659177975891
30
0
0
SPLINE
5
525
100
AcDbEntity
8
0
100
AcDbSpline
70
4
71
3
72
8
73
4
74
0
42
0.000000001
43
0.0000000001
44
0.0000000001
40
0
40
0
40
0
40
0
40
1
40
1
40
1
40
1
41
1
41
1
41
1
41
1
10
271.44797651723439
20
7.9670234287395525
30
0
10
271.93605277406073
20
7.9670234287395525
30
0
10
272.38437799967062
20
7.8871353494292045
30
0
10
272.79276063681652
20
7.7273591908085049
30
0
0
SPLINE
5
526
100
AcDbEntity
8
0
100
AcDbSpline
70
4
71
3
72
8
73
4
74
0
42
0.000000001
43
0.0000000001
44
0.0000000001
40
0
40
0
40
0
40
0
40
1
40
1
40
1
40
1
41
1
41
1
41
1
41
1
10
272.79276063681652
20
7.7273591908085049
30
0
10
273.06780782024703
20
7.8960180911814053
30
0
10
273.35635688723619
20
7.9803381086246112
30
0
10
273.65822208530165
20
7.9803381086246112
30
0
0
SPLINE
5
527
100
AcDbEntity
8
0
100
AcDbSpline
70
4
71
3
72
8
73
4
74
0
42
0.000000001
43
0.0000000001
44
0.0000000001
40
0
40
0
40
0
40
0
40
1
40
1
40
1
40
1
41
1
41
1
41
1
41
1
10
273.65822208530165
20
7.9803381086246112
30
0
10
273.95989572611973
20
7.9803381086246112
30
0
10
274.19955706166826
20
7.9403940689694359
30
0
10
274.37721770147732
20
7.8605059896590879
30
0
0
LINE
5
528
100
AcDbEntity
8
0
100
AcDbLine
10
274.37721770147726
20
7.8605059896590879
30
0
11
273.89788342085018
21
4.1057314334822559
31
0
0
SPLINE
5
529
100
AcDbEntity
8
0
100
AcDbSpline
70
4
71
3
72
8
73
4
74
0
42
0.000000001
43
0.0000000001
44
0.0000000001
40
0
40
0
40
0
40
0
40
1
40
1
40
1
40
1
41
1
41
1
41
1
41
1
10
273.89788342085018
20
4.1057314334822559
30
0
10
274.55468097927394
20
4.6116907203057345
30
0
10
275.05170237907703
20
5.0733320769919033
30
0
10
275.38913917750682
20
5.4904639462933762
30
0
0
LINE
5
530
100
AcDbEntity
8
0
100
AcDbLine
10
275.38913917750682
20
5.4904639462933771
30
0
11
275.7752663453648
21
4.6782641197310246
31
0
0
SPLINE
5
531
100
AcDbEntity
8
0
100
AcDbSpline
70
4
71
3
72
8
73
4
74
0
42
0.000000001
43
0.0000000001
44
0.0000000001
40
0
40
0
40
0
40
0
40
1
40
1
40
1
40
1
41
1
41
1
41
1
41
1
10
275.77526634536474
20
4.6782641197310237
30
0
10
275.26930560735002
20
4.1456754731374312
30
0
10
274.59462937250294
20
3.5775166773707934
30
0
10
273.7514233933058
20
2.9739778384872384
30
0
0
LINE
5
532
100
AcDbEntity
8
0
100
AcDbLine
10
273.7514233933058
20
2.9739778384872384
30
0
11
273.39192848760047
21
0.19119668178867288
31
0
0
SPLINE
5
533
100
AcDbEntity
8
0
100
AcDbSpline
70
4
71
3
72
8
73
4
74
0
42
0.000000001
43
0.0000000001
44
0.0000000001
40
0
40
0
40
0
40
0
40
1
40
1
40
1
40
1
41
1
41
1
41
1
41
1
10
273.39192848760047
20
0.19119668178867677
30
0
10
273.29415882948427
20
-0.64325571167912265
30
0
10
273.01911164605377
20
-1.2823632485444492
30
0
10
272.56640962757928
20
-1.7261230264247729
30
0
0
SPLINE
5
534
100
AcDbEntity
8
0
100
AcDbSpline
70
4
71
3
72
8
73
4
74
0
42
0.000000001
43
0.0000000001
44
0.0000000001
40
0
40
0
40
0
40
0
40
1
40
1
40
1
40
1
41
1
41
1
41
1
41
1
10
272.56640962757928
20
-1.7261230264247729
30
0
10
272.1224611948341
20
-2.1788250448992841
30
0
10
271.54555461810321
20
-2.4051760541365397
30
0
10
270.83549834013917
20
-2.4051760541365397
30
0
0
SPLINE
5
535
100
AcDbEntity
8
0
100
AcDbSpline
70
4
71
3
72
8
73
4
74
0
42
0.000000001
43
0.0000000001
44
0.0000000001
40
0
40
0
40
0
40
0
40
1
40
1
40
1
40
1
41
1
41
1
41
1
41
1
10
270.83549834013917
20
-2.4051760541365397
30
0
10
270.42711570299326
20
-2.4051760541365397
30
0
10
270.02767240405893
20
-2.2720292552859611
30
0
10
269.63716844333635
20
-2.0057327552022608
30
0
0
SPLINE
5
536
100
AcDbEntity
8
0
100
AcDbSpline
70
4
71
3
72
8
73
4
74
0
42
0.000000001
43
0.0000000001
44
0.0000000001
40
0
40
0
40
0
40
0
40
1
40
1
40
1
40
1
41
1
41
1
41
1
41
1
10
269.63716844333635
20
-2.0057327552022608
30
0
10
269.22878580619044
20
-1.7217491359426385
30
0
10
269.02469026624112
20
-1.2644845721211384
30
0
10
269.02469026624112
20
-0.63431637346746506
30
0
0
SPLINE
5
537
100
AcDbEntity
8
0
100
AcDbSpline
70
4
71
3
72
8
73
4
74
0
42
0.000000001
43
0.0000000001
44
0.0000000001
40
0
40
0
40
0
40
0
40
1
40
1
40
1
40
1
41
1
41
1
41
1
41
1
10
269.02469026624112
20
-0.63431637346746506
30
0
10
269.02469026624112
20
0.13793796224844002
30
0
10
269.39293875767578
20
0.84362034973032962
30
0
10
270.12981305027478
20
1.4827278865956561
30
0
0
SPLINE
5
538
100
AcDbEntity
8
0
100
AcDbSpline
70
4
71
3
72
8
73
4
74
0
42
0.000000001
43
0.0000000001
44
0.0000000001
40
0
40
0
40
0
40
0
40
1
40
1
40
1
40
1
41
1
41
1
41
1
41
1
10
270.12981305027478
20
1.4827278865956561
30
0
10
269.49945619675623
20
1.5270472679242308
30
0
10
268.9581154156246
20
1.7889669751432624
30
0
10
268.50541629953261
20
2.2682969021966226
30
0
0
SPLINE
5
539
100
AcDbEntity
8
0
100
AcDbSpline
70
4
71
3
72
8
73
4
74
0
42
0.000000001
43
0.0000000001
44
0.0000000001
40
0
40
0
40
0
40
0
40
1
40
1
40
1
40
1
41
1
41
1
41
1
41
1
10
268.50541629953261
20
2.2682969021966226
30
0
10
268.05271718344062
20
2.7476282804412522
30
0
10
267.82636617420337
20
3.3734196862302523
30
0
10
267.82636617420337
20
4.1456754731374312
30
0
0
SPLINE
5
540
100
AcDbEntity
8
0
100
AcDbSpline
70
4
71
3
72
8
73
4
74
0
42
0.000000001
43
0.0000000001
44
0.0000000001
40
0
40
0
40
0
40
0
40
1
40
1
40
1
40
1
41
1
41
1
41
1
41
1
10
267.82636617420337
20
4.1456754731374312
30
0
10
267.82636617420337
20
5.3084323183846926
30
0
10
268.16798240348533
20
6.2360889222391673
30
0
10
268.8515979765441
20
6.928474044131212
30
0
0
SPLINE
5
541
100
AcDbEntity
8
0
100
AcDbSpline
70
4
71
3
72
8
73
4
74
0
42
0.000000001
43
0.0000000001
44
0.0000000001
40
0
40
0
40
0
40
0
40
1
40
1
40
1
40
1
41
1
41
1
41
1
41
1
10
268.8515979765441
20
6.928474044131212
30
0
10
269.53502779712051
20
7.6208403005367735
30
0
10
270.40048344084062
20
7.9670234287395525
30
0
10
271.44797651723439
20
7.9670234287395525
30
0
0
SPLINE
5
542
100
AcDbEntity
8
0
100
AcDbSpline
70
4
71
3
72
8
73
4
74
0
42
0.000000001
43
0.0000000001
44
0.0000000001
40
0
40
0
40
0
40
0
40
1
40
1
40
1
40
1
41
1
41
1
41
1
41
1
10
271.647695264319
20
6.928474044131212
30
0
10
271.07953646855236
20
6.928474044131212
30
0
10
270.62683445007787
20
6.711007227837424
30
0
10
270.28958920889545
20
6.2760329618943427
30
0
0
SPLINE
5
543
100
AcDbEntity
8
0
100
AcDbSpline
70
4
71
3
72
8
73
4
74
0
42
0.000000001
43
0.0000000001
44
0.0000000001
40
0
40
0
40
0
40
0
40
1
40
1
40
1
40
1
41
1
41
1
41
1
41
1
10
270.28958920889545
20
6.2760329618943427
30
0
10
269.96109755344241
20
5.8499617543812121
30
0
10
269.76574979445741
20
5.2108542175158856
30
0
10
269.70374329395293
20
4.3587103512983605
30
0
0
SPLINE
5
544
100
AcDbEntity
8
0
100
AcDbSpline
70
4
71
3
72
8
73
4
74
0
42
0.000000001
43
0.0000000001
44
0.0000000001
40
0
40
0
40
0
40
0
40
1
40
1
40
1
40
1
41
1
41
1
41
1
41
1
10
269.70374329395293
20
4.3587103512983605
30
0
10
269.69480395574124
20
4.2788222719880098
30
0
10
269.69042716287657
20
4.2033095343510629
30
0
10
269.69042716287657
20
4.1323607932523698
30
0
0
SPLINE
5
545
100
AcDbEntity
8
0
100
AcDbSpline
70
4
71
3
72
8
73
4
74
0
42
0.000000001
43
0.0000000001
44
0.0000000001
40
0
40
0
40
0
40
0
40
1
40
1
40
1
40
1
41
1
41
1
41
1
41
1
10
269.69042716287657
20
4.1323607932523698
30
0
10
269.69042716287657
20
3.697348796336315
30
0
10
269.79238205661005
20
3.3511656681335378
30
0
10
269.99666915380669
20
3.0938114086440338
30
0
0
SPLINE
5
546
100
AcDbEntity
8
0
100
AcDbSpline
70
4
71
3
72
8
73
4
74
0
42
0.000000001
43
0.0000000001
44
0.0000000001
40
0
40
0
40
0
40
0
40
1
40
1
40
1
40
1
41
1
41
1
41
1
41
1
10
269.99666915380669
20
3.0938114086440338
30
0
10
270.20970403196765
20
2.8364556979632605
30
0
10
270.48037442253349
20
2.7076827895948075
30
0
10
270.80886607798652
20
2.7076827895948075
30
0
0
SPLINE
5
547
100
AcDbEntity
8
0
100
AcDbSpline
70
4
71
3
72
8
73
4
74
0
42
0.000000001
43
0.0000000001
44
0.0000000001
40
0
40
0
40
0
40
0
40
1
40
1
40
1
40
1
41
1
41
1
41
1
41
1
10
270.80886607798652
20
2.7076827895948075
30
0
10
271.36808553554152
20
2.7076827895948075
30
0
10
271.7895927465164
20
3.0981852991261638
30
0
10
272.07376502064085
20
3.8793804242450003
30
0
0
LINE
5
548
100
AcDbEntity
8
0
100
AcDbLine
10
272.07376502064085
20
3.8793804242450003
30
0
11
272.4066334689586
21
6.7686978855105178
31
0
0
SPLINE
5
549
100
AcDbEntity
8
0
100
AcDbSpline
70
4
71
3
72
8
73
4
74
0
42
0.000000001
43
0.0000000001
44
0.0000000001
40
0
40
0
40
0
40
0
40
1
40
1
40
1
40
1
41
1
41
1
41
1
41
1
10
272.4066334689586
20
6.7686978855105151
30
0
10
272.13140053304579
20
6.8752153245909797
30
0
10
271.87842306642091
20
6.928474044131212
30
0
10
271.647695264319
20
6.928474044131212
30
0
0
SPLINE
5
550
100
AcDbEntity
8
0
100
AcDbSpline
70
4
71
3
72
8
73
4
74
0
42
0.000000001
43
0.0000000001
44
0.0000000001
40
0
40
0
40
0
40
0
40
1
40
1
40
1
40
1
41
1
41
1
41
1
41
1
10
270.04992787334692
20
-0.43459472400032784
30
0
10
270.04992787334692
20
-0.67425896193137103
30
0
10
270.11650272396355
20
-0.86066738270472509
30
0
10
270.24964662043152
20
-0.99381418155530366
30
0
0
SPLINE
5
551
100
AcDbEntity
8
0
100
AcDbSpline
70
4
71
3
72
8
73
4
74
0
42
0.000000001
43
0.0000000001
44
0.0000000001
40
0
40
0
40
0
40
0
40
1
40
1
40
1
40
1
41
1
41
1
41
1
41
1
10
270.24964662043152
20
-0.99381418155530366
30
0
10
270.39154410262893
20
-1.1359003186175443
30
0
10
270.5513202612496
20
-1.2068490597162329
30
0
10
270.72898090105872
20
-1.2068490597162329
30
0
0
SPLINE
5
552
100
AcDbEntity
8
0
100
AcDbSpline
70
4
71
3
72
8
73
4
74
0
42
0.000000001
43
0.0000000001
44
0.0000000001
40
0
40
0
40
0
40
0
40
1
40
1
40
1
40
1
41
1
41
1
41
1
41
1
10
270.72898090105872
20
-1.2068490597162329
30
0
10
271.22599649609674
20
-1.2068490597162329
30
0
10
271.51454556308585
20
-0.89167063295697346
30
0
10
271.59443654477877
20
-0.26150243430330011
30
0
0
LINE
5
553
100
AcDbEntity
8
0
100
AcDbLine
10
271.59443654477877
20
-0.2615024343033
30
0
11
271.82078755401602
21
1.7357082556030303
31
0
0
SPLINE
5
554
100
AcDbEntity
8
0
100
AcDbSpline
70
4
71
3
72
8
73
4
74
0
42
0.000000001
43
0.0000000001
44
0.0000000001
40
0
40
0
40
0
40
0
40
1
40
1
40
1
40
1
41
1
41
1
41
1
41
1
10
271.82078755401602
20
1.7357082556030301
30
0
10
270.64015058115416
20
1.0344012097945443
30
0
10
270.04992787334692
20
0.31103025194546774
30
0
10
270.04992787334692
20
-0.43459472400032784
30
0
0
SPLINE
5
555
100
AcDbEntity
8
0
100
AcDbSpline
70
4
71
3
72
8
73
4
74
0
42
0.000000001
43
0.0000000001
44
0.0000000001
40
0
40
0
40
0
40
0
40
1
40
1
40
1
40
1
41
1
41
1
41
1
41
1
10
230.10034902110206
20
16.593185857587869
30
0
10
229.69809113670325
20
16.927728255033376
30
0
10
229.2898804657226
20
16.944067217521209
30
0
10
228.94763441943024
20
16.823778698901858
30
0
0
SPLINE
5
556
100
AcDbEntity
8
0
100
AcDbSpline
70
4
71
3
72
8
73
4
74
0
42
0.000000001
43
0.0000000001
44
0.0000000001
40
0
40
0
40
0
40
0
40
1
40
1
40
1
40
1
41
1
41
1
41
1
41
1
10
228.94763441943024
20
16.823778698901858
30
0
10
228.71645312005705
20
16.742501103952282
30
0
10
228.51699776418758
20
16.599881654099004
30
0
10
228.36737849325249
20
16.456291357287355
30
0
0
LINE
5
557
100
AcDbEntity
8
0
100
AcDbLine
10
228.36737849325255
20
16.456291357287355
30
0
11
228.36737849325249
21
17.472015680034968
31
0
0
SPLINE
5
558
100
AcDbEntity
8
0
100
AcDbSpline
70
4
71
3
72
8
73
4
74
0
42
0.000000001
43
0.0000000001
44
0.0000000001
40
0
40
0
40
0
40
0
40
1
40
1
40
1
40
1
41
1
41
1
41
1
41
1
10
228.36737849325249
20
17.472015680034968
30
0
10
228.48129555660915
20
17.439965395282769
30
0
10
228.60862235287891
20
17.427848673789548
30
0
10
228.74011479368386
20
17.428781064179319
30
0
0
SPLINE
5
559
100
AcDbEntity
8
0
100
AcDbSpline
70
4
71
3
72
8
73
4
74
0
42
0.000000001
43
0.0000000001
44
0.0000000001
40
0
40
0
40
0
40
0
40
1
40
1
40
1
40
1
41
1
41
1
41
1
41
1
10
228.74011479368386
20
17.428781064179319
30
0
10
228.92891840564522
20
17.430150263140796
30
0
10
229.13438314455595
20
17.458549350662391
30
0
10
229.33650143640244
20
17.500832710641788
30
0
0
SPLINE
5
560
100
AcDbEntity
8
0
100
AcDbSpline
70
4
71
3
72
8
73
4
74
0
42
0.000000001
43
0.0000000001
44
0.0000000001
40
0
40
0
40
0
40
0
40
1
40
1
40
1
40
1
41
1
41
1
41
1
41
1
10
229.33650143640244
20
17.500832710641788
30
0
10
229.6897605732286
20
17.574729546801677
30
0
10
230.04069852962141
20
17.69271720166541
30
0
10
230.28844807970279
20
17.791816876578849
30
0
0
SPLINE
5
561
100
AcDbEntity
8
0
100
AcDbSpline
70
4
71
3
72
8
73
4
74
0
42
0.000000001
43
0.0000000001
44
0.0000000001
40
0
40
0
40
0
40
0
40
1
40
1
40
1
40
1
41
1
41
1
41
1
41
1
10
230.28844807970279
20
17.791816876578849
30
0
10
230.38193672357804
20
17.443522265080947
30
0
10
230.46804460866355
20
17.009499980609753
30
0
10
230.45904794839683
20
16.717545693309948
30
0
0
SPLINE
5
562
100
AcDbEntity
8
0
100
AcDbSpline
70
4
71
3
72
8
73
4
74
0
42
0.000000001
43
0.0000000001
44
0.0000000001
40
0
40
0
40
0
40
0
40
1
40
1
40
1
40
1
41
1
41
1
41
1
41
1
10
230.45904794839683
20
16.717545693309948
30
0
10
230.45659398396239
20
16.637961638570271
30
0
10
230.44714019844619
20
16.574431387234242
30
0
10
230.43173362634815
20
16.528324138263336
30
0
0
SPLINE
5
563
100
AcDbEntity
8
0
100
AcDbSpline
70
4
71
3
72
8
73
4
74
0
42
0.000000001
43
0.0000000001
44
0.0000000001
40
0
40
0
40
0
40
0
40
1
40
1
40
1
40
1
41
1
41
1
41
1
41
1
10
230.43173362634815
20
16.528324138263336
30
0
10
230.41609849162535
20
16.481513787123021
30
0
10
230.39818063303781
20
16.463576337453347
30
0
10
230.38657763325349
20
16.457033641620999
30
0
0
SPLINE
5
564
100
AcDbEntity
8
0
100
AcDbSpline
70
4
71
3
72
8
73
4
74
0
42
0.000000001
43
0.0000000001
44
0.0000000001
40
0
40
0
40
0
40
0
40
1
40
1
40
1
40
1
41
1
41
1
41
1
41
1
10
230.38657763325349
20
16.457033641620999
30
0
10
230.37742859790359
20
16.451897875723102
30
0
10
230.35606778803239
20
16.44465062653008
30
0
10
230.30771627176534
20
16.461522176213315
30
0
0
SPLINE
5
565
100
AcDbEntity
8
0
100
AcDbSpline
70
4
71
3
72
8
73
4
74
0
42
0.000000001
43
0.0000000001
44
0.0000000001
40
0
40
0
40
0
40
0
40
1
40
1
40
1
40
1
41
1
41
1
41
1
41
1
10
230.30771627176534
20
16.461522176213315
30
0
10
230.25797596545465
20
16.478907447605465
30
0
10
230.18978593895667
20
16.518794890801182
30
0
10
230.10034902110206
20
16.593185857587869
30
0
0
SPLINE
5
566
100
AcDbEntity
8
0
100
AcDbSpline
70
4
71
3
72
8
73
4
74
0
42
0.000000001
43
0.0000000001
44
0.0000000001
40
0
40
0
40
0
40
0
40
1
40
1
40
1
40
1
41
1
41
1
41
1
41
1
10
235.9581870606649
20
4.2949899939062064
30
0
10
235.74410442240838
20
4.4958522797100908
30
0
10
235.5255912972103
20
4.6046524426553193
30
0
10
235.31084256216167
20
4.6430756338614998
30
0
0
SPLINE
5
567
100
AcDbEntity
8
0
100
AcDbSpline
70
4
71
3
72
8
73
4
74
0
42
0.000000001
43
0.0000000001
44
0.0000000001
40
0
40
0
40
0
40
0
40
1
40
1
40
1
40
1
41
1
41
1
41
1
41
1
10
235.31084256216167
20
4.6430756338614998
30
0
10
235.09640002847067
20
4.6814988250676759
30
0
10
234.892551191037
20
4.6482113997593988
30
0
10
234.7093397446273
20
4.5755502529643177
30
0
0
SPLINE
5
568
100
AcDbEntity
8
0
100
AcDbSpline
70
4
71
3
72
8
73
4
74
0
42
0.000000001
43
0.0000000001
44
0.0000000001
40
0
40
0
40
0
40
0
40
1
40
1
40
1
40
1
41
1
41
1
41
1
41
1
10
234.7093397446273
20
4.5755502529643177
30
0
10
234.45430593997554
20
4.4743586858378759
30
0
10
234.23562157420778
20
4.295751869321971
30
0
10
234.07369475012774
20
4.1180941318954245
30
0
0
LINE
5
569
100
AcDbEntity
8
0
100
AcDbLine
10
234.0736947501278
20
4.1180941318954236
30
0
11
234.07369475012774
21
5.4124769275442732
31
0
0
SPLINE
5
570
100
AcDbEntity
8
0
100
AcDbSpline
70
4
71
3
72
8
73
4
74
0
42
0.000000001
43
0.0000000001
44
0.0000000001
40
0
40
0
40
0
40
0
40
1
40
1
40
1
40
1
41
1
41
1
41
1
41
1
10
234.07369475012774
20
5.4124769275442723
30
0
10
234.19894851967098
20
5.3715823576084727
30
0
10
234.33979969296405
20
5.3561750599147784
30
0
10
234.48544415101571
20
5.3573156962515256
30
0
0
SPLINE
5
571
100
AcDbEntity
8
0
100
AcDbSpline
70
4
71
3
72
8
73
4
74
0
42
0.000000001
43
0.0000000001
44
0.0000000001
40
0
40
0
40
0
40
0
40
1
40
1
40
1
40
1
41
1
41
1
41
1
41
1
10
234.48544415101571
20
5.3573156962515256
30
0
10
234.69035671164897
20
5.3590281019479136
30
0
10
234.91320744754748
20
5.3938363757051899
30
0
10
235.13225461113225
20
5.4453841407403019
30
0
0
SPLINE
5
572
100
AcDbEntity
8
0
100
AcDbSpline
70
4
71
3
72
8
73
4
74
0
42
0.000000001
43
0.0000000001
44
0.0000000001
40
0
40
0
40
0
40
0
40
1
40
1
40
1
40
1
41
1
41
1
41
1
41
1
10
235.13225461113225
20
5.4453841407403019
30
0
10
235.51640380529176
20
5.5361140700148219
30
0
10
235.8978711979878
20
5.6810547003014644
30
0
10
236.16633432663477
20
5.8024091189072529
30
0
0
SPLINE
5
573
100
AcDbEntity
8
0
100
AcDbSpline
70
4
71
3
72
8
73
4
74
0
42
0.000000001
43
0.0000000001
44
0.0000000001
40
0
40
0
40
0
40
0
40
1
40
1
40
1
40
1
41
1
41
1
41
1
41
1
10
236.16633432663477
20
5.8024091189072529
30
0
10
236.26910478986093
20
5.3734848693609871
30
0
10
236.36550307222876
20
4.8315737700609507
30
0
10
236.35551742511279
20
4.4659896657945897
30
0
0
SPLINE
5
574
100
AcDbEntity
8
0
100
AcDbSpline
70
4
71
3
72
8
73
4
74
0
42
0.000000001
43
0.0000000001
44
0.0000000001
40
0
40
0
40
0
40
0
40
1
40
1
40
1
40
1
41
1
41
1
41
1
41
1
10
236.35551742511279
20
4.4659896657945897
30
0
10
236.35281675816282
20
4.3670808225329116
30
0
10
236.34237398579734
20
4.2860506556945488
30
0
10
236.32455190583352
20
4.2257536585039013
30
0
0
SPLINE
5
575
100
AcDbEntity
8
0
100
AcDbSpline
70
4
71
3
72
8
73
4
74
0
42
0.000000001
43
0.0000000001
44
0.0000000001
40
0
40
0
40
0
40
0
40
1
40
1
40
1
40
1
41
1
41
1
41
1
41
1
10
236.32455190583352
20
4.2257536585039013
30
0
10
236.3061769219965
20
4.1637457068081396
30
0
10
236.2840172313322
20
4.137306453094145
30
0
10
236.26864766461151
20
4.1274151334105991
30
0
0
SPLINE
5
576
100
AcDbEntity
8
0
100
AcDbSpline
70
4
71
3
72
8
73
4
74
0
42
0.000000001
43
0.0000000001
44
0.0000000001
40
0
40
0
40
0
40
0
40
1
40
1
40
1
40
1
41
1
41
1
41
1
41
1
10
236.26864766461151
20
4.1274151334105991
30
0
10
236.25839644949343
20
4.1209471739285597
30
0
10
236.2363891339123
20
4.1123880478291497
30
0
10
236.18453661871089
20
4.1327410053646219
30
0
0
SPLINE
5
577
100
AcDbEntity
8
0
100
AcDbSpline
70
4
71
3
72
8
73
4
74
0
42
0.000000001
43
0.0000000001
44
0.0000000001
40
0
40
0
40
0
40
0
40
1
40
1
40
1
40
1
41
1
41
1
41
1
41
1
10
236.18453661871089
20
4.1327410053646219
30
0
10
236.13036509986301
20
4.154044493180713
30
0
10
236.05584062347964
20
4.2033095343510629
30
0
10
235.9581870606649
20
4.2949899939062064
30
0
0
SPLINE
5
578
100
AcDbEntity
8
0
100
AcDbSpline
70
4
71
3
72
8
73
4
74
0
42
0.000000001
43
0.0000000001
44
0.0000000001
40
0
40
0
40
0
40
0
40
1
40
1
40
1
40
1
41
1
41
1
41
1
41
1
10
247.56095320317399
20
2.9635162006353166
30
0
10
247.34696634354117
20
3.1643784864392055
30
0
10
247.12841403617884
20
3.2731786493844339
30
0
10
246.91366675232149
20
3.31160184059061
30
0
0
SPLINE
5
579
100
AcDbEntity
8
0
100
AcDbSpline
70
4
71
3
72
8
73
4
74
0
42
0.000000001
43
0.0000000001
44
0.0000000001
40
0
40
0
40
0
40
0
40
1
40
1
40
1
40
1
41
1
41
1
41
1
41
1
10
246.91366675232149
20
3.31160184059061
30
0
10
246.69929968057644
20
3.3500250317967906
30
0
10
246.49539279549202
20
3.316737606488509
30
0
10
246.3122205312466
20
3.2440764596934324
30
0
0
SPLINE
5
580
100
AcDbEntity
8
0
100
AcDbSpline
70
4
71
3
72
8
73
4
74
0
42
0.000000001
43
0.0000000001
44
0.0000000001
40
0
40
0
40
0
40
0
40
1
40
1
40
1
40
1
41
1
41
1
41
1
41
1
10
246.3122205312466
20
3.2440764596934324
30
0
10
246.05715044681313
20
3.1428848925669861
30
0
10
245.83840658220339
20
2.9642780760510856
30
0
10
245.67653780577405
20
2.7866203386245347
30
0
0
LINE
5
581
100
AcDbEntity
8
0
100
AcDbLine
10
245.67653780577405
20
2.7866203386245343
30
0
11
245.67653780577405
21
4.0810031342733835
31
0
0
SPLINE
5
582
100
AcDbEntity
8
0
100
AcDbSpline
70
4
71
3
72
8
73
4
74
0
42
0.000000001
43
0.0000000001
44
0.0000000001
40
0
40
0
40
0
40
0
40
1
40
1
40
1
40
1
41
1
41
1
41
1
41
1
10
245.67653780577405
20
4.0810031342733843
30
0
10
245.80188590274972
20
4.0401085643375856
30
0
10
245.94264274861033
20
4.024701266643893
30
0
10
246.08834235193024
20
4.0258419029806403
30
0
0
SPLINE
5
583
100
AcDbEntity
8
0
100
AcDbSpline
70
4
71
3
72
8
73
4
74
0
42
0.000000001
43
0.0000000001
44
0.0000000001
40
0
40
0
40
0
40
0
40
1
40
1
40
1
40
1
41
1
41
1
41
1
41
1
10
246.08834235193024
20
4.0258419029806403
30
0
10
246.29320121848653
20
4.0275543086770282
30
0
10
246.51612741633102
20
4.0623625824343046
30
0
10
246.73505993580559
20
4.1139103474694139
30
0
0
SPLINE
5
584
100
AcDbEntity
8
0
100
AcDbSpline
70
4
71
3
72
8
73
4
74
0
42
0.000000001
43
0.0000000001
44
0.0000000001
40
0
40
0
40
0
40
0
40
1
40
1
40
1
40
1
41
1
41
1
41
1
41
1
10
246.73505993580559
20
4.1139103474694139
30
0
10
247.11928604310231
20
4.2046402767439339
30
0
10
247.50065620598335
20
4.3495809070305791
30
0
10
247.76923397874054
20
4.4709353256363649
30
0
0
SPLINE
5
585
100
AcDbEntity
8
0
100
AcDbSpline
70
4
71
3
72
8
73
4
74
0
42
0.000000001
43
0.0000000001
44
0.0000000001
40
0
40
0
40
0
40
0
40
1
40
1
40
1
40
1
41
1
41
1
41
1
41
1
10
247.76923397874054
20
4.4709353256363649
30
0
10
247.87194929669852
20
4.0420110760901018
30
0
10
247.96838385884803
20
3.5000999767900653
30
0
10
247.95830388429962
20
3.1345158725237043
30
0
0
SPLINE
5
586
100
AcDbEntity
8
0
100
AcDbSpline
70
4
71
3
72
8
73
4
74
0
42
0.000000001
43
0.0000000001
44
0.0000000001
40
0
40
0
40
0
40
0
40
1
40
1
40
1
40
1
41
1
41
1
41
1
41
1
10
247.95830388429962
20
3.1345158725237043
30
0
10
247.95563949713136
20
3.0356070292620263
30
0
10
247.94517931047071
20
2.954576862423659
30
0
10
247.92729773166485
20
2.8942798652330159
30
0
0
SPLINE
5
587
100
AcDbEntity
8
0
100
AcDbSpline
70
4
71
3
72
8
73
4
74
0
42
0.000000001
43
0.0000000001
44
0.0000000001
40
0
40
0
40
0
40
0
40
1
40
1
40
1
40
1
41
1
41
1
41
1
41
1
10
247.92729773166485
20
2.8942798652330159
30
0
10
247.90903884312928
20
2.8322719135372498
30
0
10
247.8867833738413
20
2.8058326598232597
30
0
10
247.87156618220371
20
2.7959413401397093
30
0
0
SPLINE
5
588
100
AcDbEntity
8
0
100
AcDbSpline
70
4
71
3
72
8
73
4
74
0
42
0.000000001
43
0.0000000001
44
0.0000000001
40
0
40
0
40
0
40
0
40
1
40
1
40
1
40
1
41
1
41
1
41
1
41
1
10
247.87156618220371
20
2.7959413401397093
30
0
10
247.86129465040796
20
2.7894733806576699
30
0
10
247.83923073836732
20
2.7809142545582644
30
0
10
247.78730421241124
20
2.8012672120937321
30
0
0
SPLINE
5
589
100
AcDbEntity
8
0
100
AcDbSpline
70
4
71
3
72
8
73
4
74
0
42
0.000000001
43
0.0000000001
44
0.0000000001
40
0
40
0
40
0
40
0
40
1
40
1
40
1
40
1
41
1
41
1
41
1
41
1
10
247.78730421241124
20
2.8012672120937321
30
0
10
247.73328506864652
20
2.8225706999098277
30
0
10
247.65872286129019
20
2.8718357410801776
30
0
10
247.56095320317399
20
2.9635162006353166
30
0
0
SPLINE
5
590
100
AcDbEntity
8
0
100
AcDbSpline
70
4
71
3
72
8
73
4
74
0
42
0.000000001
43
0.0000000001
44
0.0000000001
40
0
40
0
40
0
40
0
40
1
40
1
40
1
40
1
41
1
41
1
41
1
41
1
10
242.27386143340885
20
16.593185857587869
30
0
10
241.8715665436327
20
16.927728255033376
30
0
10
241.46337401254289
20
16.944067217521209
30
0
10
241.12118601390131
20
16.823778698901858
30
0
0
SPLINE
5
591
100
AcDbEntity
8
0
100
AcDbSpline
70
4
71
3
72
8
73
4
74
0
42
0.000000001
43
0.0000000001
44
0.0000000001
40
0
40
0
40
0
40
0
40
1
40
1
40
1
40
1
41
1
41
1
41
1
41
1
10
241.12118601390131
20
16.823778698901858
30
0
10
240.88988934482222
20
16.742501103952282
30
0
10
240.69054935865864
20
16.599881654099004
30
0
10
240.54085317458632
20
16.456291357287355
30
0
0
LINE
5
592
100
AcDbEntity
8
0
100
AcDbLine
10
240.54085317458632
20
16.456291357287355
30
0
11
240.54085317458632
21
17.472015680034968
31
0
0
SPLINE
5
593
100
AcDbEntity
8
0
100
AcDbSpline
70
4
71
3
72
8
73
4
74
0
42
0.000000001
43
0.0000000001
44
0.0000000001
40
0
40
0
40
0
40
0
40
1
40
1
40
1
40
1
41
1
41
1
41
1
41
1
10
240.54085317458632
20
17.472015680034968
30
0
10
240.65478910342947
20
17.439965395282769
30
0
10
240.78203971215765
20
17.427848673789548
30
0
10
240.9136656625592
20
17.428781064179319
30
0
0
SPLINE
5
594
100
AcDbEntity
8
0
100
AcDbSpline
70
4
71
3
72
8
73
4
74
0
42
0.000000001
43
0.0000000001
44
0.0000000001
40
0
40
0
40
0
40
0
40
1
40
1
40
1
40
1
41
1
41
1
41
1
41
1
10
240.9136656625592
20
17.428781064179319
30
0
10
241.10235535600609
20
17.430150263140796
30
0
10
241.30778163834822
20
17.458549350662391
30
0
10
241.50997611773624
20
17.500832710641788
30
0
0
SPLINE
5
595
100
AcDbEntity
8
0
100
AcDbSpline
70
4
71
3
72
8
73
4
74
0
42
0.000000001
43
0.0000000001
44
0.0000000001
40
0
40
0
40
0
40
0
40
1
40
1
40
1
40
1
41
1
41
1
41
1
41
1
10
241.50997611773624
20
17.500832710641788
30
0
10
241.86319752358943
20
17.574729546801677
30
0
10
242.21413475438658
20
17.69271720166541
30
0
10
242.46197935749606
20
17.791816876578849
30
0
0
SPLINE
5
596
100
AcDbEntity
8
0
100
AcDbSpline
70
4
71
3
72
8
73
4
74
0
42
0.000000001
43
0.0000000001
44
0.0000000001
40
0
40
0
40
0
40
0
40
1
40
1
40
1
40
1
41
1
41
1
41
1
41
1
10
242.46197935749606
20
17.791816876578849
30
0
10
242.55537367393887
20
17.443522265080947
30
0
10
242.64153815548386
20
17.009499980609753
30
0
10
242.63259881727222
20
16.717545693309948
30
0
0
SPLINE
5
597
100
AcDbEntity
8
0
100
AcDbSpline
70
4
71
3
72
8
73
4
74
0
42
0.000000001
43
0.0000000001
44
0.0000000001
40
0
40
0
40
0
40
0
40
1
40
1
40
1
40
1
41
1
41
1
41
1
41
1
10
242.63259881727222
20
16.717545693309948
30
0
10
242.63012598735131
20
16.637961638570271
30
0
10
242.62061487978002
20
16.574431387234242
30
0
10
242.60520758208631
20
16.528324138263336
30
0
0
SPLINE
5
598
100
AcDbEntity
8
0
100
AcDbSpline
70
4
71
3
72
8
73
4
74
0
42
0.000000001
43
0.0000000001
44
0.0000000001
40
0
40
0
40
0
40
0
40
1
40
1
40
1
40
1
41
1
41
1
41
1
41
1
10
242.60520758208631
20
16.528324138263336
30
0
10
242.58961162952775
20
16.481513787123021
30
0
10
242.57173150191321
20
16.463576337453347
30
0
10
242.56012777653325
20
16.457033641620999
30
0
0
SPLINE
5
599
100
AcDbEntity
8
0
100
AcDbSpline
70
4
71
3
72
8
73
4
74
0
42
0.000000001
43
0.0000000001
44
0.0000000001
40
0
40
0
40
0
40
0
40
1
40
1
40
1
40
1
41
1
41
1
41
1
41
1
10
242.56012777653325
20
16.457033641620999
30
0
10
242.55099833226549
20
16.451897875723102
30
0
10
242.52950473839326
20
16.44465062653008
30
0
10
242.48119022750353
20
16.461522176213315
30
0
0
SPLINE
5
600
100
AcDbEntity
8
0
100
AcDbSpline
70
4
71
3
72
8
73
4
74
0
42
0.000000001
43
0.0000000001
44
0.0000000001
40
0
40
0
40
0
40
0
40
1
40
1
40
1
40
1
41
1
41
1
41
1
41
1
10
242.48119022750353
20
16.461522176213315
30
0
10
242.43154642541219
20
16.478907447605465
30
0
10
242.3632606202905
20
16.518794890801182
30
0
10
242.27386143340885
20
16.593185857587869
30
0
0
SPLINE
5
601
100
AcDbEntity
8
0
100
AcDbSpline
70
4
71
3
72
8
73
4
74
0
42
0.000000001
43
0.0000000001
44
0.0000000001
40
0
40
0
40
0
40
0
40
1
40
1
40
1
40
1
41
1
41
1
41
1
41
1
10
251.31665942414497
20
2.3472344512263499
30
0
10
251.57458545299409
20
2.6685006253554011
30
0
10
251.95747936670668
20
3.1054136828327028
30
0
10
252.25211763225687
20
3.4327661531402764
30
0
0
SPLINE
5
602
100
AcDbEntity
8
0
100
AcDbSpline
70
4
71
3
72
8
73
4
74
0
42
0.000000001
43
0.0000000001
44
0.0000000001
40
0
40
0
40
0
40
0
40
1
40
1
40
1
40
1
41
1
41
1
41
1
41
1
10
252.25211763225687
20
3.4327661531402764
30
0
10
252.54332818403179
20
3.2317137612802638
30
0
10
253.00934343120008
20
3.0236230917698403
30
0
10
253.57103571867594
20
2.8769715069780766
30
0
0
SPLINE
5
603
100
AcDbEntity
8
0
100
AcDbSpline
70
4
71
3
72
8
73
4
74
0
42
0.000000001
43
0.0000000001
44
0.0000000001
40
0
40
0
40
0
40
0
40
1
40
1
40
1
40
1
41
1
41
1
41
1
41
1
10
253.57103571867594
20
2.8769715069780766
30
0
10
254.18275347154665
20
2.7173840032222341
30
0
10
254.91544543091092
20
2.6287466917563496
30
0
10
255.67210236287701
20
2.7042594293933009
30
0
0
SPLINE
5
604
100
AcDbEntity
8
0
100
AcDbSpline
70
4
71
3
72
8
73
4
74
0
42
0.000000001
43
0.0000000001
44
0.0000000001
40
0
40
0
40
0
40
0
40
1
40
1
40
1
40
1
41
1
41
1
41
1
41
1
10
255.67210236287701
20
2.7042594293933009
30
0
10
255.78717892805685
20
2.7158631547732348
30
0
10
255.87714988429815
20
2.7168136850538582
30
0
10
255.94562579547596
20
2.7103457255718189
30
0
0
SPLINE
5
605
100
AcDbEntity
8
0
100
AcDbSpline
70
4
71
3
72
8
73
4
74
0
42
0.000000001
43
0.0000000001
44
0.0000000001
40
0
40
0
40
0
40
0
40
1
40
1
40
1
40
1
41
1
41
1
41
1
41
1
10
255.94562579547596
20
2.7103457255718189
30
0
10
256.01505078574314
20
2.7034990051688013
30
0
10
256.05613691292632
20
2.6894239010592447
30
0
10
256.07858103707918
20
2.6759176639267945
30
0
0
SPLINE
5
606
100
AcDbEntity
8
0
100
AcDbSpline
70
4
71
3
72
8
73
4
74
0
42
0.000000001
43
0.0000000001
44
0.0000000001
40
0
40
0
40
0
40
0
40
1
40
1
40
1
40
1
41
1
41
1
41
1
41
1
10
256.07858103707918
20
2.6759176639267945
30
0
10
256.09779190708662
20
2.6643153897381255
30
0
10
256.10102516123197
20
2.654994388222951
30
0
10
256.10235735481615
20
2.6479575617638051
30
0
0
SPLINE
5
607
100
AcDbEntity
8
0
100
AcDbSpline
70
4
71
3
72
8
73
4
74
0
42
0.000000001
43
0.0000000001
44
0.0000000001
40
0
40
0
40
0
40
0
40
1
40
1
40
1
40
1
41
1
41
1
41
1
41
1
10
256.10235735481615
20
2.6479575617638051
30
0
10
256.10444997262476
20
2.6365453936312599
30
0
10
256.10330933628802
20
2.6137196061749046
30
0
10
256.08657129620144
20
2.5754865210248523
30
0
0
SPLINE
5
608
100
AcDbEntity
8
0
100
AcDbSpline
70
4
71
3
72
8
73
4
74
0
42
0.000000001
43
0.0000000001
44
0.0000000001
40
0
40
0
40
0
40
0
40
1
40
1
40
1
40
1
41
1
41
1
41
1
41
1
10
256.08657129620144
20
2.5754865210248523
30
0
10
256.05271210153353
20
2.4980712716353892
30
0
10
255.9718749431338
20
2.3957376169809308
30
0
10
255.85070917939291
20
2.2789486461046682
30
0
0
SPLINE
5
609
100
AcDbEntity
8
0
100
AcDbSpline
70
4
71
3
72
8
73
4
74
0
42
0.000000001
43
0.0000000001
44
0.0000000001
40
0
40
0
40
0
40
0
40
1
40
1
40
1
40
1
41
1
41
1
41
1
41
1
10
255.85070917939291
20
2.2789486461046682
30
0
10
255.73943763771805
20
2.1718608888558322
30
0
10
255.60077340966603
20
2.0584952781810761
30
0
10
255.44955637714477
20
1.9485530277078356
30
0
0
SPLINE
5
610
100
AcDbEntity
8
0
100
AcDbSpline
70
4
71
3
72
8
73
4
74
0
42
0.000000001
43
0.0000000001
44
0.0000000001
40
0
40
0
40
0
40
0
40
1
40
1
40
1
40
1
41
1
41
1
41
1
41
1
10
255.44955637714477
20
1.9485530277078356
30
0
10
254.82832751670276
20
2.0588754902933282
30
0
10
253.88659435754747
20
2.1975382671540578
30
0
10
253.02836564634265
20
2.2637314544670994
30
0
0
SPLINE
5
611
100
AcDbEntity
8
0
100
AcDbSpline
70
4
71
3
72
8
73
4
74
0
42
0.000000001
43
0.0000000001
44
0.0000000001
40
0
40
0
40
0
40
0
40
1
40
1
40
1
40
1
41
1
41
1
41
1
41
1
10
253.02836564634265
20
2.2637314544670994
30
0
10
252.59031195252862
20
2.2975891979437524
30
0
10
252.1714662263395
20
2.3128063895813211
30
0
10
251.82699695502436
20
2.2951163680228648
30
0
0
SPLINE
5
612
100
AcDbEntity
8
0
100
AcDbSpline
70
4
71
3
72
8
73
4
74
0
42
0.000000001
43
0.0000000001
44
0.0000000001
40
0
40
0
40
0
40
0
40
1
40
1
40
1
40
1
41
1
41
1
41
1
41
1
10
251.82699695502436
20
2.2951163680228648
30
0
10
251.6548537444167
20
2.286367135867331
30
0
10
251.49926282141331
20
2.269247432477246
30
0
10
251.36801708312393
20
2.2412873303142566
30
0
0
SPLINE
5
613
100
AcDbEntity
8
0
100
AcDbSpline
70
4
71
3
72
8
73
4
74
0
42
0.000000001
43
0.0000000001
44
0.0000000001
40
0
40
0
40
0
40
0
40
1
40
1
40
1
40
1
41
1
41
1
41
1
41
1
10
251.36801708312393
20
2.2412873303142566
30
0
10
251.30677100684395
20
2.2283528625414473
30
0
10
251.24913549443903
20
2.2127554587916265
30
0
10
251.1966371991233
20
2.1935445887841709
30
0
0
SPLINE
5
614
100
AcDbEntity
8
0
100
AcDbSpline
70
4
71
3
72
8
73
4
74
0
42
0.000000001
43
0.0000000001
44
0.0000000001
40
0
40
0
40
0
40
0
40
1
40
1
40
1
40
1
41
1
41
1
41
1
41
1
10
251.1966371991233
20
2.1935445887841709
30
0
10
251.23144547288061
20
2.2395749246178687
30
0
10
251.27177117583926
20
2.2911226896529779
30
0
10
251.31665942414497
20
2.3472344512263499
30
0
0
ENDSEC
0
SECTION
2
OBJECTS
0
DICTIONARY
5
C
100
AcDbDictionary
3
ACAD_GROUP
350
D
3
ACAD_MLINESTYLE
350
17
0
DICTIONARY
5
D
100
AcDbDictionary
0
DICTIONARY
5
1A
330
C
100
AcDbDictionary
0
DICTIONARY
5
17
100
AcDbDictionary
0
ENDSEC
0
EOF
