0
SECTION
2
HEADER
9
$INSUNITS
70
4
9
$ACADVER
1
AC1014
9
$HANDSEED
5
FFFF
0
ENDSEC
0
SECTION
2
TABLES
0
TABLE
2
VPORT
5
8
100
AcDbSymbolTable
0
ENDTAB
0
TABLE
2
LTYPE
5
5
100
AcDbSymbolTable
0
LTYPE
5
14
100
AcDbSymbolTableRecord
100
AcDbLinetypeTableRecord
2
BYBLOCK
70
0
0
LTYPE
5
15
100
AcDbSymbolTableRecord
100
AcDbLinetypeTableRecord
2
BYLAYER
70
0
0
ENDTAB
0
TABLE
2
LAYER
5
2
100
AcDbSymbolTable
70
2
0
LAYER
5
50
100
AcDbSymbolTableRecord
100
AcDbLayerTableRecord
2
0
70
0
6
CONTINUOUS
0
ENDTAB
0
TABLE
2
STYLE
5
3
100
AcDbSymbolTable
70
1
0
STYLE
5
11
100
AcDbSymbolTableRecord
100
AcDbTextStyleTableRecord
2
STANDARD
70
0
0
ENDTAB
0
TABLE
2
VIEW
5
6
100
AcDbSymbolTable
70
0
0
ENDTAB
0
TABLE
2
UCS
5
7
100
AcDbSymbolTable
70
0
0
ENDTAB
0
TABLE
2
APPID
5
9
100
AcDbSymbolTable
70
2
0
APPID
5
12
100
AcDbSymbolTableRecord
100
AcDbRegAppTableRecord
2
ACAD
70
0
0
ENDTAB
0
TABLE
2
DIMSTYLE
5
A
100
AcDbSymbolTable
70
1
0
ENDTAB
0
TABLE
2
BLOCK_RECORD
5
1
100
AcDbSymbolTable
70
1
0
BLOCK_RECORD
5
1F
100
AcDbSymbolTableRecord
100
AcDbBlockTableRecord
2
*MODEL_SPACE
0
BLOCK_RECORD
5
1B
100
AcDbSymbolTableRecord
100
AcDbBlockTableRecord
2
*PAPER_SPACE
0
ENDTAB
0
ENDSEC
0
SECTION
2
BLOCKS
0
BLOCK
5
20
100
AcDbEntity
100
AcDbBlockBegin
2
*MODEL_SPACE
0
ENDBLK
5
21
100
AcDbEntity
100
AcDbBlockEnd
0
BLOCK
5
1C
100
AcDbEntity
100
AcDbBlockBegin
2
*PAPER_SPACE
0
ENDBLK
5
1D
100
AcDbEntity
100
AcDbBlockEnd
0
ENDSEC
0
SECTION
2
ENTITIES
0
SPLINE
5
100
100
AcDbEntity
8
0
100
AcDbSpline
70
4
71
3
72
8
73
4
74
0
42
0.000000001
43
0.0000000001
44
0.0000000001
40
0
40
0
40
0
40
0
40
1
40
1
40
1
40
1
41
1
41
1
41
1
41
1
10
-205.11103422356797
20
36.79729684597573
30
0
10
-205.49056286289041
20
36.963334687758348
30
0
10
-205.85819821012265
20
37.046351185008454
30
0
10
-206.21399067700168
20
37.046351185008454
30
0
0
SPLINE
5
101
100
AcDbEntity
8
0
100
AcDbSpline
70
4
71
3
72
8
73
4
74
0
42
0.000000001
43
0.0000000001
44
0.0000000001
40
0
40
0
40
0
40
0
40
1
40
1
40
1
40
1
41
1
41
1
41
1
41
1
10
-206.21399067700168
20
37.046351185008454
30
0
10
-206.56978120496771
20
37.046351185008454
30
0
10
-206.92557367184673
20
36.821017991843675
30
0
10
-207.28136613872576
20
36.3703462735035
30
0
0
SPLINE
5
102
100
AcDbEntity
8
0
100
AcDbSpline
70
4
71
3
72
8
73
4
74
0
42
0.000000001
43
0.0000000001
44
0.0000000001
40
0
40
0
40
0
40
0
40
1
40
1
40
1
40
1
41
1
41
1
41
1
41
1
10
-207.28136613872576
20
36.3703462735035
30
0
10
-207.63715763614829
20
35.919699761031779
30
0
10
-207.87437006428428
20
35.267380610233275
30
0
10
-207.99295010302731
20
34.413479465288802
30
0
0
LINE
5
103
100
AcDbEntity
8
0
100
AcDbLine
10
-207.99295010302734
20
34.413479465288809
30
0
11
-209.77191049850947
21
21.960756212185551
31
0
0
SPLINE
5
104
100
AcDbEntity
8
0
100
AcDbSpline
70
4
71
3
72
8
73
4
74
0
42
0.000000001
43
0.0000000001
44
0.0000000001
40
0
40
0
40
0
40
0
40
1
40
1
40
1
40
1
41
1
41
1
41
1
41
1
10
-209.77191049850947
20
21.960756212185551
30
0
10
-206.78325746066034
20
23.265344102045631
30
0
10
-204.87382179543201
20
24.237825285733141
30
0
10
-204.04365876184389
20
24.878252113897972
30
0
0
LINE
5
105
100
AcDbEntity
8
0
100
AcDbLine
10
-204.04365876184391
20
24.878252113897972
30
0
11
-202.69164893883399
21
22.530024934757165
31
0
0
SPLINE
5
106
100
AcDbEntity
8
0
100
AcDbSpline
70
4
71
3
72
8
73
4
74
0
42
0.000000001
43
0.0000000001
44
0.0000000001
40
0
40
0
40
0
40
0
40
1
40
1
40
1
40
1
41
1
41
1
41
1
41
1
10
-202.69164893883399
20
22.530024934757165
30
0
10
-203.40323193367905
20
21.984492384628936
30
0
10
-204.25713307862353
20
21.498226586916715
30
0
10
-205.2533504347544
20
21.071276014444482
30
0
0
SPLINE
5
107
100
AcDbEntity
8
0
100
AcDbSpline
70
4
71
3
72
8
73
4
74
0
42
0.000000001
43
0.0000000001
44
0.0000000001
40
0
40
0
40
0
40
0
40
1
40
1
40
1
40
1
41
1
41
1
41
1
41
1
10
-205.2533504347544
20
21.071276014444482
30
0
10
-206.24956972979828
20
20.644325441972246
30
0
10
-207.21020803313255
20
20.241112980856354
30
0
10
-208.13526728367023
20
19.861584341533952
30
0
0
SPLINE
5
108
100
AcDbEntity
8
0
100
AcDbSpline
70
4
71
3
72
8
73
4
74
0
42
0.000000001
43
0.0000000001
44
0.0000000001
40
0
40
0
40
0
40
0
40
1
40
1
40
1
40
1
41
1
41
1
41
1
41
1
10
-208.13526728367023
20
19.861584341533952
30
0
10
-209.06032653420792
20
19.505791874654932
30
0
10
-209.74817432606611
20
19.233000393722346
30
0
10
-210.19886107098171
20
19.043262249386093
30
0
0
LINE
5
109
100
AcDbEntity
8
0
100
AcDbLine
10
-210.19886107098171
20
19.043262249386093
30
0
11
-211.37297466055207
21
10.717727055634025
31
0
0
SPLINE
5
110
100
AcDbEntity
8
0
100
AcDbSpline
70
4
71
3
72
8
73
4
74
0
42
0.000000001
43
0.0000000001
44
0.0000000001
40
0
40
0
40
0
40
0
40
1
40
1
40
1
40
1
41
1
41
1
41
1
41
1
10
-211.37297466055207
20
10.717727055634025
30
0
10
-211.68134519428128
20
8.4406579820864316
30
0
10
-212.49966631697265
20
6.7684347449941074
30
0
10
-213.82793996753921
20
5.7010592832700047
30
0
0
SPLINE
5
111
100
AcDbEntity
8
0
100
AcDbSpline
70
4
71
3
72
8
73
4
74
0
42
0.000000001
43
0.0000000001
44
0.0000000001
40
0
40
0
40
0
40
0
40
1
40
1
40
1
40
1
41
1
41
1
41
1
41
1
10
-213.82793996753921
20
5.7010592832700047
30
0
10
-215.13252785739928
20
4.6099476491025193
30
0
10
-216.57938203143712
20
4.0644150989742833
30
0
10
-218.16860379785476
20
4.0644150989742833
30
0
0
SPLINE
5
112
100
AcDbEntity
8
0
100
AcDbSpline
70
4
71
3
72
8
73
4
74
0
42
0.000000001
43
0.0000000001
44
0.0000000001
40
0
40
0
40
0
40
0
40
1
40
1
40
1
40
1
41
1
41
1
41
1
41
1
10
-218.16860379785476
20
4.0644150989742833
30
0
10
-219.73408357509015
20
4.0644150989742833
30
0
10
-220.97935599734612
20
4.6455267018991231
30
0
10
-221.90441536906587
20
5.8077964416598205
30
0
0
SPLINE
5
113
100
AcDbEntity
8
0
100
AcDbSpline
70
4
71
3
72
8
73
4
74
0
42
0.000000001
43
0.0000000001
44
0.0000000001
40
0
40
0
40
0
40
0
40
1
40
1
40
1
40
1
41
1
41
1
41
1
41
1
10
-221.90441536906587
20
5.8077964416598205
30
0
10
-222.82947628585686
20
6.9463300089771396
30
0
10
-223.29200583159997
20
8.2271836653067965
30
0
10
-223.29200583159997
20
9.6503515939099227
30
0
0
SPLINE
5
114
100
AcDbEntity
8
0
100
AcDbSpline
70
4
71
3
72
8
73
4
74
0
42
0.000000001
43
0.0000000001
44
0.0000000001
40
0
40
0
40
0
40
0
40
1
40
1
40
1
40
1
41
1
41
1
41
1
41
1
10
-223.29200583159997
20
9.6503515939099227
30
0
10
-223.29200583159997
20
13.374324768504016
30
0
10
-220.56426866381318
20
16.683192189892061
30
0
10
-215.10879168495592
20
19.576949980248145
30
0
0
LINE
5
115
100
AcDbEntity
8
0
100
AcDbLine
10
-215.10879168495592
20
19.576949980248145
30
0
11
-214.75299921807689
21
22.458864890251
31
0
0
SPLINE
5
116
100
AcDbEntity
8
0
100
AcDbSpline
70
4
71
3
72
8
73
4
74
0
42
0.000000001
43
0.0000000001
44
0.0000000001
40
0
40
0
40
0
40
0
40
1
40
1
40
1
40
1
41
1
41
1
41
1
41
1
10
-214.75299921807689
20
22.458864890251
30
0
10
-214.30231247316127
20
26.538631501180596
30
0
10
-213.83978284789242
20
30.08470941179166
30
0
10
-213.36541034227037
20
33.097049179803747
30
0
0
SPLINE
5
117
100
AcDbEntity
8
0
100
AcDbSpline
70
4
71
3
72
8
73
4
74
0
42
0.000000001
43
0.0000000001
44
0.0000000001
40
0
40
0
40
0
40
0
40
1
40
1
40
1
40
1
41
1
41
1
41
1
41
1
10
-213.36541034227037
20
33.097049179803747
30
0
10
-214.71742016528026
20
32.551517599131984
30
0
10
-216.14058857861164
20
32.278727087655881
30
0
10
-217.63491558226445
20
32.278727087655881
30
0
0
SPLINE
5
118
100
AcDbEntity
8
0
100
AcDbSpline
70
4
71
3
72
8
73
4
74
0
42
0.000000001
43
0.0000000001
44
0.0000000001
40
0
40
0
40
0
40
0
40
1
40
1
40
1
40
1
41
1
41
1
41
1
41
1
10
-217.63491558226445
20
32.278727087655881
30
0
10
-219.10552095532108
20
32.278727087655881
30
0
10
-220.30335108584114
20
32.681991899421668
30
0
10
-221.22841033637883
20
33.48842021475113
30
0
0
SPLINE
5
119
100
AcDbEntity
8
0
100
AcDbSpline
70
4
71
3
72
8
73
4
74
0
42
0.000000001
43
0.0000000001
44
0.0000000001
40
0
40
0
40
0
40
0
40
1
40
1
40
1
40
1
41
1
41
1
41
1
41
1
10
-221.22841033637883
20
33.48842021475113
30
0
10
-222.12975377305921
20
34.294898941817522
30
0
10
-222.58042028057079
20
35.350432492644885
30
0
10
-222.58042028057079
20
36.654979665332824
30
0
0
SPLINE
5
120
100
AcDbEntity
8
0
100
AcDbSpline
70
4
71
3
72
8
73
4
74
0
42
0.000000001
43
0.0000000001
44
0.0000000001
40
0
40
0
40
0
40
0
40
1
40
1
40
1
40
1
41
1
41
1
41
1
41
1
10
-222.58042028057079
20
36.654979665332824
30
0
10
-222.58042028057079
20
37.959552528617479
30
0
10
-222.11789065530198
20
38.979486425698042
30
0
10
-221.19283128358222
20
39.714791778231671
30
0
0
SPLINE
5
121
100
AcDbEntity
8
0
100
AcDbSpline
70
4
71
3
72
8
73
4
74
0
42
0.000000001
43
0.0000000001
44
0.0000000001
40
0
40
0
40
0
40
0
40
1
40
1
40
1
40
1
41
1
41
1
41
1
41
1
10
-221.19283128358222
20
39.714791778231671
30
0
10
-220.24405573445901
20
40.473813126395711
30
0
10
-219.05807866358518
20
40.853326405892012
30
0
10
-217.63491558226445
20
40.853326405892012
30
0
0
SPLINE
5
122
100
AcDbEntity
8
0
100
AcDbSpline
70
4
71
3
72
8
73
4
74
0
42
0.000000001
43
0.0000000001
44
0.0000000001
40
0
40
0
40
0
40
0
40
1
40
1
40
1
40
1
41
1
41
1
41
1
41
1
10
-217.63491558226445
20
40.853326405892012
30
0
10
-216.75727826487662
20
40.853326405892012
30
0
10
-215.50016320463155
20
40.580550769513763
30
0
10
-213.86351902033581
20
40.035004586403787
30
0
0
SPLINE
5
123
100
AcDbEntity
8
0
100
AcDbSpline
70
4
71
3
72
8
73
4
74
0
42
0.000000001
43
0.0000000001
44
0.0000000001
40
0
40
0
40
0
40
0
40
1
40
1
40
1
40
1
41
1
41
1
41
1
41
1
10
-213.86351902033581
20
40.035004586403787
30
0
10
-212.20313963305318
20
39.489458463884837
30
0
10
-210.9222879156365
20
39.216682857802105
30
0
10
-210.02096483754218
20
39.216682857802105
30
0
0
SPLINE
5
124
100
AcDbEntity
8
0
100
AcDbSpline
70
4
71
3
72
8
73
4
74
0
42
0.000000001
43
0.0000000001
44
0.0000000001
40
0
40
0
40
0
40
0
40
1
40
1
40
1
40
1
41
1
41
1
41
1
41
1
10
-210.02096483754218
20
39.216682857802105
30
0
10
-208.40805779514631
20
39.216682857802105
30
0
10
-207.05604700267995
20
39.631775280981564
30
0
10
-205.96493536851244
20
40.461955098284989
30
0
0
SPLINE
5
125
100
AcDbEntity
8
0
100
AcDbSpline
70
4
71
3
72
8
73
4
74
0
42
0.000000001
43
0.0000000001
44
0.0000000001
40
0
40
0
40
0
40
0
40
1
40
1
40
1
40
1
41
1
41
1
41
1
41
1
10
-205.96493536851244
20
40.461955098284989
30
0
10
-205.37193241241042
20
39.631775280981564
30
0
10
-205.07545517077136
20
38.647415589415203
30
0
10
-205.07545517077136
20
37.50888081027729
30
0
0
SPLINE
5
126
100
AcDbEntity
8
0
100
AcDbSpline
70
4
71
3
72
8
73
4
74
0
42
0.000000001
43
0.0000000001
44
0.0000000001
40
0
40
0
40
0
40
0
40
1
40
1
40
1
40
1
41
1
41
1
41
1
41
1
10
-205.07545517077136
20
37.50888081027729
30
0
10
-205.07545517077136
20
37.271684378173227
30
0
10
-205.08729805112461
20
37.034487946069163
30
0
10
-205.11103422356797
20
36.79729684597573
30
0
0
SPLINE
5
127
100
AcDbEntity
8
0
100
AcDbSpline
70
4
71
3
72
8
73
4
74
0
42
0.000000001
43
0.0000000001
44
0.0000000001
40
0
40
0
40
0
40
0
40
1
40
1
40
1
40
1
41
1
41
1
41
1
41
1
10
-219.05807866358518
20
35.694331182705511
30
0
10
-219.05807866358518
20
35.33853920055472
30
0
10
-218.86832452321701
20
35.030219563290707
30
0
10
-218.4888113951983
20
34.769271447439593
30
0
0
SPLINE
5
128
100
AcDbEntity
8
0
100
AcDbSpline
70
4
71
3
72
8
73
4
74
0
42
0.000000001
43
0.0000000001
44
0.0000000001
40
0
40
0
40
0
40
0
40
1
40
1
40
1
40
1
41
1
41
1
41
1
41
1
10
-218.4888113951983
20
34.769271447439593
30
0
10
-218.08560232718008
20
34.50837422805364
30
0
10
-217.49259888634978
20
34.377900412492203
30
0
10
-216.70985584699852
20
34.377900412492203
30
0
0
SPLINE
5
129
100
AcDbEntity
8
0
100
AcDbSpline
70
4
71
3
72
8
73
4
74
0
42
0.000000001
43
0.0000000001
44
0.0000000001
40
0
40
0
40
0
40
0
40
1
40
1
40
1
40
1
41
1
41
1
41
1
41
1
10
-216.70985584699852
20
34.377900412492203
30
0
10
-215.90337711993214
20
34.377900412492203
30
0
10
-214.85973734592318
20
34.733692394642979
30
0
10
-213.57888562850647
20
35.445276843672787
30
0
0
SPLINE
5
130
100
AcDbEntity
8
0
100
AcDbSpline
70
4
71
3
72
8
73
4
74
0
42
0.000000001
43
0.0000000001
44
0.0000000001
40
0
40
0
40
0
40
0
40
1
40
1
40
1
40
1
41
1
41
1
41
1
41
1
10
-213.57888562850647
20
35.445276843672787
30
0
10
-214.50394487904416
20
35.658751645180658
30
0
10
-215.45274078675345
20
35.895963588588401
30
0
10
-216.42522245516921
20
36.156860807974347
30
0
0
SPLINE
5
131
100
AcDbEntity
8
0
100
AcDbSpline
70
4
71
3
72
8
73
4
74
0
42
0.000000001
43
0.0000000001
44
0.0000000001
40
0
40
0
40
0
40
0
40
1
40
1
40
1
40
1
41
1
41
1
41
1
41
1
10
-216.42522245516921
20
36.156860807974347
30
0
10
-217.39770363885671
20
36.441504379096713
30
0
10
-217.97886468406202
20
36.583821559739611
30
0
10
-218.16860379785476
20
36.583821559739611
30
0
0
SPLINE
5
132
100
AcDbEntity
8
0
100
AcDbSpline
70
4
71
3
72
8
73
4
74
0
42
0.000000001
43
0.0000000001
44
0.0000000001
40
0
40
0
40
0
40
0
40
1
40
1
40
1
40
1
41
1
41
1
41
1
41
1
10
-218.16860379785476
20
36.583821559739611
30
0
10
-218.76158688009895
20
36.583821559739611
30
0
10
-219.05807866358518
20
36.287329776253387
30
0
10
-219.05807866358518
20
35.694331182705511
30
0
0
SPLINE
5
133
100
AcDbEntity
8
0
100
AcDbSpline
70
4
71
3
72
8
73
4
74
0
42
0.000000001
43
0.0000000001
44
0.0000000001
40
0
40
0
40
0
40
0
40
1
40
1
40
1
40
1
41
1
41
1
41
1
41
1
10
-215.50016320463155
20
16.481558814552692
30
0
10
-218.89204566908495
20
14.441700230228122
30
0
10
-220.5879847200346
20
12.283213134336531
30
0
10
-220.5879847200346
20
10.006142121875982
30
0
0
SPLINE
5
134
100
AcDbEntity
8
0
100
AcDbSpline
70
4
71
3
72
8
73
4
74
0
42
0.000000001
43
0.0000000001
44
0.0000000001
40
0
40
0
40
0
40
0
40
1
40
1
40
1
40
1
41
1
41
1
41
1
41
1
10
-220.5879847200346
20
10.006142121875982
30
0
10
-220.5879847200346
20
9.3657172326241103
30
0
10
-220.42195172553437
20
8.8201866214088334
30
0
10
-220.08987579960504
20
8.3694998764932205
30
0
0
SPLINE
5
135
100
AcDbEntity
8
0
100
AcDbSpline
70
4
71
3
72
8
73
4
74
0
42
0.000000001
43
0.0000000001
44
0.0000000001
40
0
40
0
40
0
40
0
40
1
40
1
40
1
40
1
41
1
41
1
41
1
41
1
10
-220.08987579960504
20
8.3694998764932205
30
0
10
-219.71036751886871
20
7.8476530870714356
30
0
10
-219.2359748970247
20
7.5867568371419658
30
0
10
-218.66670762863779
20
7.5867568371419658
30
0
0
SPLINE
5
136
100
AcDbEntity
8
0
100
AcDbSpline
70
4
71
3
72
8
73
4
74
0
42
0.000000001
43
0.0000000001
44
0.0000000001
40
0
40
0
40
0
40
0
40
1
40
1
40
1
40
1
41
1
41
1
41
1
41
1
10
-218.66670762863779
20
7.5867568371419658
30
0
10
-218.07370855036169
20
7.5867568371419658
30
0
10
-217.56375699194302
20
7.764652101124998
30
0
10
-217.13680641947079
20
8.1204465069169771
30
0
0
SPLINE
5
137
100
AcDbEntity
8
0
100
AcDbSpline
70
4
71
3
72
8
73
4
74
0
42
0.000000001
43
0.0000000001
44
0.0000000001
40
0
40
0
40
0
40
0
40
1
40
1
40
1
40
1
41
1
41
1
41
1
41
1
10
-217.13680641947079
20
8.1204465069169771
30
0
10
-216.70985584699852
20
8.4762370348830416
30
0
10
-216.4489586276126
20
9.0455038185416967
30
0
10
-216.35406386484775
20
9.8282468578929496
30
0
0
LINE
5
138
100
AcDbEntity
8
0
100
AcDbLine
10
-216.35406386484772
20
9.8282468578929496
30
0
11
-215.50016320463155
21
16.481558814552692
31
0
0
SPLINE
5
139
100
AcDbEntity
8
0
100
AcDbSpline
70
4
71
3
72
8
73
4
74
0
42
0.000000001
43
0.0000000001
44
0.0000000001
40
0
40
0
40
0
40
0
40
1
40
1
40
1
40
1
41
1
41
1
41
1
41
1
10
-191.41415754335017
20
30.570924797766949
30
0
10
-192.38663872703771
20
22.88581546272323
30
0
10
-192.87290452474991
20
18.794206940896888
30
0
10
-192.87290452474991
20
18.296098262831446
30
0
0
SPLINE
5
140
100
AcDbEntity
8
0
100
AcDbSpline
70
4
71
3
72
8
73
4
74
0
42
0.000000001
43
0.0000000001
44
0.0000000001
40
0
40
0
40
0
40
0
40
1
40
1
40
1
40
1
41
1
41
1
41
1
41
1
10
-192.87290452474991
20
18.296098262831446
30
0
10
-192.87290452474991
20
17.347353251587315
30
0
10
-192.5289549382241
20
16.872930334228322
30
0
10
-191.84110811582244
20
16.872930334228322
30
0
0
SPLINE
5
141
100
AcDbEntity
8
0
100
AcDbSpline
70
4
71
3
72
8
73
4
74
0
42
0.000000001
43
0.0000000001
44
0.0000000001
40
0
40
0
40
0
40
0
40
1
40
1
40
1
40
1
41
1
41
1
41
1
41
1
10
-191.84110811582244
20
16.872930334228322
30
0
10
-191.22436704836403
20
16.872930334228322
30
0
10
-190.56025833731869
20
17.28803802634733
30
0
10
-189.84867340356064
20
18.118202998848414
30
0
0
SPLINE
5
142
100
AcDbEntity
8
0
100
AcDbSpline
70
4
71
3
72
8
73
4
74
0
42
0.000000001
43
0.0000000001
44
0.0000000001
40
0
40
0
40
0
40
0
40
1
40
1
40
1
40
1
41
1
41
1
41
1
41
1
10
-189.84867340356064
20
18.118202998848414
30
0
10
-189.11335229735923
20
18.97210414379288
30
0
10
-188.53224069443439
20
20.241112980856354
30
0
10
-188.10529206087509
20
21.925177159388944
30
0
0
SPLINE
5
143
100
AcDbEntity
8
0
100
AcDbSpline
70
4
71
3
72
8
73
4
74
0
42
0.000000001
43
0.0000000001
44
0.0000000001
40
0
40
0
40
0
40
0
40
1
40
1
40
1
40
1
41
1
41
1
41
1
41
1
10
-188.10529206087509
20
21.925177159388944
30
0
10
-187.32254902152386
20
21.071276014444482
30
0
10
-186.8481241652519
20
20.407114952749229
30
0
10
-186.68212219335902
20
19.932742447127161
30
0
0
SPLINE
5
144
100
AcDbEntity
8
0
100
AcDbSpline
70
4
71
3
72
8
73
4
74
0
42
0.000000001
43
0.0000000001
44
0.0000000001
40
0
40
0
40
0
40
0
40
1
40
1
40
1
40
1
41
1
41
1
41
1
41
1
10
-186.68212219335902
20
19.932742447127161
30
0
10
-187.22765474348728
20
17.631937201136193
30
0
10
-188.09339876878494
20
16.007186308930628
30
0
10
-189.27940468098905
20
15.058390885949571
30
0
0
SPLINE
5
145
100
AcDbEntity
8
0
100
AcDbSpline
70
4
71
3
72
8
73
4
74
0
42
0.000000001
43
0.0000000001
44
0.0000000001
40
0
40
0
40
0
40
0
40
1
40
1
40
1
40
1
41
1
41
1
41
1
41
1
10
-189.27940468098905
20
15.058390885949571
30
0
10
-190.46536018145616
20
14.10959546296851
30
0
10
-191.68689667363287
20
13.635222957346445
30
0
10
-192.94406263034315
20
13.635222957346445
30
0
0
SPLINE
5
146
100
AcDbEntity
8
0
100
AcDbSpline
70
4
71
3
72
8
73
4
74
0
42
0.000000001
43
0.0000000001
44
0.0000000001
40
0
40
0
40
0
40
0
40
1
40
1
40
1
40
1
41
1
41
1
41
1
41
1
10
-192.94406263034315
20
13.635222957346445
30
0
10
-195.0076573871111
20
13.635222957346445
30
0
10
-196.3952462629176
20
14.429806938137965
30
0
10
-197.10683119667564
20
16.019029189283852
30
0
0
SPLINE
5
147
100
AcDbEntity
8
0
100
AcDbSpline
70
4
71
3
72
8
73
4
74
0
42
0.000000001
43
0.0000000001
44
0.0000000001
40
0
40
0
40
0
40
0
40
1
40
1
40
1
40
1
41
1
41
1
41
1
41
1
10
-197.10683119667564
20
16.019029189283852
30
0
10
-198.34020863029264
20
14.429806938137965
30
0
10
-199.98874610667852
20
13.635222957346445
30
0
10
-202.05234086344646
20
13.635222957346445
30
0
0
SPLINE
5
148
100
AcDbEntity
8
0
100
AcDbSpline
70
4
71
3
72
8
73
4
74
0
42
0.000000001
43
0.0000000001
44
0.0000000001
40
0
40
0
40
0
40
0
40
1
40
1
40
1
40
1
41
1
41
1
41
1
41
1
10
-202.05234086344646
20
13.635222957346445
30
0
10
-203.76014315333538
20
13.635222957346445
30
0
10
-205.07657392354869
20
14.062173529818676
30
0
10
-206.00163317408635
20
14.916072735850182
30
0
0
SPLINE
5
149
100
AcDbEntity
8
0
100
AcDbSpline
70
4
71
3
72
8
73
4
74
0
42
0.000000001
43
0.0000000001
44
0.0000000001
40
0
40
0
40
0
40
0
40
1
40
1
40
1
40
1
41
1
41
1
41
1
41
1
10
-206.00163317408635
20
14.916072735850182
30
0
10
-206.92669242462404
20
15.76997388079465
30
0
10
-207.38922204989291
20
16.884773214581546
30
0
10
-207.38922204989291
20
18.260519210034836
30
0
0
SPLINE
5
150
100
AcDbEntity
8
0
100
AcDbSpline
70
4
71
3
72
8
73
4
74
0
42
0.000000001
43
0.0000000001
44
0.0000000001
40
0
40
0
40
0
40
0
40
1
40
1
40
1
40
1
41
1
41
1
41
1
41
1
10
-207.38922204989291
20
18.260519210034836
30
0
10
-207.38922204989291
20
18.592575504470478
30
0
10
-207.32990585519642
20
19.17373558021929
30
0
10
-207.21132581645338
20
20.003900552720374
30
0
0
SPLINE
5
151
100
AcDbEntity
8
0
100
AcDbSpline
70
4
71
3
72
8
73
4
74
0
42
0.000000001
43
0.0000000001
44
0.0000000001
40
0
40
0
40
0
40
0
40
1
40
1
40
1
40
1
41
1
41
1
41
1
41
1
10
-207.21132581645338
20
20.003900552720374
30
0
10
-206.66574382404468
20
24.415722488629132
30
0
10
-206.2506865436626
20
27.926221346443594
30
0
10
-205.96605412128977
20
30.535345744970343
30
0
0
SPLINE
5
152
100
AcDbEntity
8
0
100
AcDbSpline
70
4
71
3
72
8
73
4
74
0
42
0.000000001
43
0.0000000001
44
0.0000000001
40
0
40
0
40
0
40
0
40
1
40
1
40
1
40
1
41
1
41
1
41
1
41
1
10
-205.96605412128977
20
30.535345744970343
30
0
10
-205.23073301508833
20
30.796294345549704
30
0
10
-204.55472713412689
20
30.926717264645973
30
0
10
-203.93803841731841
20
30.926717264645973
30
0
0
SPLINE
5
153
100
AcDbEntity
8
0
100
AcDbSpline
70
4
71
3
72
8
73
4
74
0
42
0.000000001
43
0.0000000001
44
0.0000000001
40
0
40
0
40
0
40
0
40
1
40
1
40
1
40
1
41
1
41
1
41
1
41
1
10
-203.93803841731841
20
30.926717264645973
30
0
10
-203.32129928877299
20
30.926717264645973
30
0
10
-202.85876966350415
20
30.90303150393952
30
0
10
-202.55044954151188
20
30.855559159052753
30
0
0
SPLINE
5
154
100
AcDbEntity
8
0
100
AcDbSpline
70
4
71
3
72
8
73
4
74
0
42
0.000000001
43
0.0000000001
44
0.0000000001
40
0
40
0
40
0
40
0
40
1
40
1
40
1
40
1
41
1
41
1
41
1
41
1
10
-202.55044954151188
20
30.855559159052753
30
0
10
-202.24207900778271
20
30.808137225902925
30
0
10
-201.94560370505661
20
30.630240992463413
30
0
10
-201.66096934377083
20
30.321870458734228
30
0
0
SPLINE
5
155
100
AcDbEntity
8
0
100
AcDbSpline
70
4
71
3
72
8
73
4
74
0
42
0.000000001
43
0.0000000001
44
0.0000000001
40
0
40
0
40
0
40
0
40
1
40
1
40
1
40
1
41
1
41
1
41
1
41
1
10
-201.66096934377083
20
30.321870458734228
30
0
10
-201.37633498248502
20
30.013551306198451
30
0
10
-201.23401877129857
20
29.574707441636061
30
0
10
-201.23401877129857
20
29.005439688520916
30
0
0
LINE
5
156
100
AcDbEntity
8
0
100
AcDbLine
10
-201.23401877129854
20
29.005439688520916
30
0
11
-202.40813333032546
21
19.932742447127161
31
0
0
SPLINE
5
157
100
AcDbEntity
8
0
100
AcDbSpline
70
4
71
3
72
8
73
4
74
0
42
0.000000001
43
0.0000000001
44
0.0000000001
40
0
40
0
40
0
40
0
40
1
40
1
40
1
40
1
41
1
41
1
41
1
41
1
10
-202.40813333032548
20
19.932742447127161
30
0
10
-202.4555552634753
20
19.648108085841358
30
0
10
-202.4792914359187
20
19.387211835911884
30
0
10
-202.4792914359187
20
19.149999407775908
30
0
0
SPLINE
5
158
100
AcDbEntity
8
0
100
AcDbSpline
70
4
71
3
72
8
73
4
74
0
42
0.000000001
43
0.0000000001
44
0.0000000001
40
0
40
0
40
0
40
0
40
1
40
1
40
1
40
1
41
1
41
1
41
1
41
1
10
-202.4792914359187
20
19.149999407775908
30
0
10
-202.4792914359187
20
17.750567651616169
30
0
10
-201.83886460775386
20
17.050825598211354
30
0
10
-200.55801482925011
20
17.050825598211354
30
0
0
SPLINE
5
159
100
AcDbEntity
8
0
100
AcDbSpline
70
4
71
3
72
8
73
4
74
0
42
0.000000001
43
0.0000000001
44
0.0000000001
40
0
40
0
40
0
40
0
40
1
40
1
40
1
40
1
41
1
41
1
41
1
41
1
10
-200.55801482925011
20
17.050825598211354
30
0
10
-199.37200697813307
20
17.050825598211354
30
0
10
-198.38768291409235
20
17.631987612873125
30
0
10
-197.60493987474109
20
18.794206940896888
30
0
0
SPLINE
5
160
100
AcDbEntity
8
0
100
AcDbSpline
70
4
71
3
72
8
73
4
74
0
42
0.000000001
43
0.0000000001
44
0.0000000001
40
0
40
0
40
0
40
0
40
1
40
1
40
1
40
1
41
1
41
1
41
1
41
1
10
-197.60493987474109
20
18.794206940896888
30
0
10
-197.60493987474109
20
19.05515554147625
30
0
10
-197.58120370229773
20
19.470212821858325
30
0
10
-197.53378176914788
20
20.039479605516984
30
0
0
LINE
5
161
100
AcDbEntity
8
0
100
AcDbLine
10
-197.53378176914788
20
20.039479605516984
30
0
11
-196.35966721012099
21
29.503549336042845
31
0
0
SPLINE
5
162
100
AcDbEntity
8
0
100
AcDbSpline
70
4
71
3
72
8
73
4
74
0
42
0.000000001
43
0.0000000001
44
0.0000000001
40
0
40
0
40
0
40
0
40
1
40
1
40
1
40
1
41
1
41
1
41
1
41
1
10
-196.35966721012099
20
29.503549336042845
30
0
10
-196.19361482649117
20
29.906814147808628
30
0
10
-195.83782235961218
20
30.23886947278779
30
0
10
-195.29229174839688
20
30.49976669217374
30
0
0
SPLINE
5
163
100
AcDbEntity
8
0
100
AcDbSpline
70
4
71
3
72
8
73
4
74
0
42
0.000000001
43
0.0000000001
44
0.0000000001
40
0
40
0
40
0
40
0
40
1
40
1
40
1
40
1
41
1
41
1
41
1
41
1
10
-195.29229174839688
20
30.49976669217374
30
0
10
-194.74670878653171
20
30.784400084003067
30
0
10
-194.07070484448326
20
30.926717264645973
30
0
10
-193.26427604442554
20
30.926717264645973
30
0
0
SPLINE
5
164
100
AcDbEntity
8
0
100
AcDbSpline
70
4
71
3
72
8
73
4
74
0
42
0.000000001
43
0.0000000001
44
0.0000000001
40
0
40
0
40
0
40
0
40
1
40
1
40
1
40
1
41
1
41
1
41
1
41
1
10
-193.26427604442554
20
30.926717264645973
30
0
10
-192.43406066018753
20
30.926717264645973
30
0
10
-191.81737194337904
20
30.808137225902925
30
0
10
-191.41415754335017
20
30.570924797766949
30
0
0
LINE
5
165
100
AcDbEntity
8
0
100
AcDbLine
10
-179.53654544229209
20
17.86914769035921
30
0
11
-178.68264429734762
21
25.732153258842438
31
0
0
SPLINE
5
166
100
AcDbEntity
8
0
100
AcDbSpline
70
4
71
3
72
8
73
4
74
0
42
0.000000001
43
0.0000000001
44
0.0000000001
40
0
40
0
40
0
40
0
40
1
40
1
40
1
40
1
41
1
41
1
41
1
41
1
10
-178.68264429734762
20
25.732153258842438
30
0
10
-178.68264429734762
20
26.372578148094309
30
0
10
-178.84865014706639
20
26.906266848412841
30
0
10
-179.18075491432603
20
27.33321742088507
30
0
0
SPLINE
5
167
100
AcDbEntity
8
0
100
AcDbSpline
70
4
71
3
72
8
73
4
74
0
42
0.000000001
43
0.0000000001
44
0.0000000001
40
0
40
0
40
0
40
0
40
1
40
1
40
1
40
1
41
1
41
1
41
1
41
1
10
-179.18075491432603
20
27.33321742088507
30
0
10
-179.51280926984873
20
27.760167993357307
30
0
10
-180.04649893962375
20
27.973643279593425
30
0
10
-180.78182004582516
20
27.973643279593425
30
0
0
SPLINE
5
168
100
AcDbEntity
8
0
100
AcDbSpline
70
4
71
3
72
8
73
4
74
0
42
0.000000001
43
0.0000000001
44
0.0000000001
40
0
40
0
40
0
40
0
40
1
40
1
40
1
40
1
41
1
41
1
41
1
41
1
10
-180.78182004582516
20
27.973643279593425
30
0
10
-181.51709074028963
20
27.973643279593425
30
0
10
-182.14567081027531
20
27.67716603795439
30
0
10
-182.66751759969711
20
27.084163081852353
30
0
0
SPLINE
5
169
100
AcDbEntity
8
0
100
AcDbSpline
70
4
71
3
72
8
73
4
74
0
42
0.000000001
43
0.0000000001
44
0.0000000001
40
0
40
0
40
0
40
0
40
1
40
1
40
1
40
1
41
1
41
1
41
1
41
1
10
-182.66751759969711
20
27.084163081852353
30
0
10
-183.16562821667554
20
26.514895328737214
30
0
10
-183.53326162499479
20
25.755889431285823
30
0
10
-183.77047211421782
20
24.807094008304759
30
0
0
SPLINE
5
170
100
AcDbEntity
8
0
100
AcDbSpline
70
4
71
3
72
8
73
4
74
0
42
0.000000001
43
0.0000000001
44
0.0000000001
40
0
40
0
40
0
40
0
40
1
40
1
40
1
40
1
41
1
41
1
41
1
41
1
10
-183.77047211421782
20
24.807094008304759
30
0
10
-183.93647408611071
20
23.455084185294844
30
0
10
-184.18553133351284
20
21.474540826210262
30
0
10
-184.51763610077248
20
18.865365046490101
30
0
0
SPLINE
5
171
100
AcDbEntity
8
0
100
AcDbSpline
70
4
71
3
72
8
73
4
74
0
42
0.000000001
43
0.0000000001
44
0.0000000001
40
0
40
0
40
0
40
0
40
1
40
1
40
1
40
1
41
1
41
1
41
1
41
1
10
-184.51763610077248
20
18.865365046490101
30
0
10
-184.84969045629512
20
16.279977789863214
30
0
10
-185.06316865090071
20
14.595861260680728
30
0
10
-185.15806292893728
20
13.813118221329477
30
0
0
LINE
5
172
100
AcDbEntity
8
0
100
AcDbLine
10
-185.15806292893726
20
13.813118221329477
30
0
11
-189.8900963400155
21
13.813118221329477
31
0
0
SPLINE
5
173
100
AcDbEntity
8
0
100
AcDbSpline
70
4
71
3
72
8
73
4
74
0
42
0.000000001
43
0.0000000001
44
0.0000000001
40
0
40
0
40
0
40
0
40
1
40
1
40
1
40
1
41
1
41
1
41
1
41
1
10
-189.8900963400155
20
13.813118221329477
30
0
10
-188.18229405012659
20
28.353171918915827
30
0
10
-187.15049764119908
20
37.283547617112518
30
0
10
-186.79470711323302
20
40.604271915381716
30
0
0
SPLINE
5
174
100
AcDbEntity
8
0
100
AcDbSpline
70
4
71
3
72
8
73
4
74
0
42
0.000000001
43
0.0000000001
44
0.0000000001
40
0
40
0
40
0
40
0
40
1
40
1
40
1
40
1
41
1
41
1
41
1
41
1
10
-186.79470711323302
20
40.604271915381716
30
0
10
-186.29659649625461
20
40.794027055501871
30
0
10
-185.62059061529317
20
40.888905610166191
30
0
10
-184.76668947034869
20
40.888905610166191
30
0
0
SPLINE
5
175
100
AcDbEntity
8
0
100
AcDbSpline
70
4
71
3
72
8
73
4
74
0
42
0.000000001
43
0.0000000001
44
0.0000000001
40
0
40
0
40
0
40
0
40
1
40
1
40
1
40
1
41
1
41
1
41
1
41
1
10
-184.76668947034869
20
40.888905610166191
30
0
10
-182.91657096927335
20
40.888905610166191
30
0
10
-181.99151171873567
20
40.343359427056214
30
0
10
-181.99151171873567
20
39.252262031780774
30
0
0
LINE
5
176
100
AcDbEntity
8
0
100
AcDbLine
10
-181.99151171873567
20
39.252262031780774
30
0
11
-181.99151171873567
21
39.038786866726717
31
0
0
SPLINE
5
177
100
AcDbEntity
8
0
100
AcDbSpline
70
4
71
3
72
8
73
4
74
0
42
0.000000001
43
0.0000000001
44
0.0000000001
40
0
40
0
40
0
40
0
40
1
40
1
40
1
40
1
41
1
41
1
41
1
41
1
10
-181.99151171873567
20
39.03878686672671
30
0
10
-182.39472805767747
20
35.314853439848278
30
0
10
-182.82167669123675
20
32.04156604071332
30
0
10
-183.27236537506533
20
29.218914974757038
30
0
0
SPLINE
5
178
100
AcDbEntity
8
0
100
AcDbSpline
70
4
71
3
72
8
73
4
74
0
42
0.000000001
43
0.0000000001
44
0.0000000001
40
0
40
0
40
0
40
0
40
1
40
1
40
1
40
1
41
1
41
1
41
1
41
1
10
-183.27236537506533
20
29.218914974757038
30
0
10
-182.01519747944212
20
30.357449511530831
30
0
10
-180.59203148975195
20
30.926717264645973
30
0
10
-179.002859650343
20
30.926717264645973
30
0
0
SPLINE
5
179
100
AcDbEntity
8
0
100
AcDbSpline
70
4
71
3
72
8
73
4
74
0
42
0.000000001
43
0.0000000001
44
0.0000000001
40
0
40
0
40
0
40
0
40
1
40
1
40
1
40
1
41
1
41
1
41
1
41
1
10
-179.002859650343
20
30.926717264645973
30
0
10
-177.41363739919709
20
30.926717264645973
30
0
10
-176.15652379313673
20
30.523502864617118
30
0
10
-175.2314645425991
20
29.717024622278963
30
0
0
SPLINE
5
180
100
AcDbEntity
8
0
100
AcDbSpline
70
4
71
3
72
8
73
4
74
0
42
0.000000001
43
0.0000000001
44
0.0000000001
40
0
40
0
40
0
40
0
40
1
40
1
40
1
40
1
41
1
41
1
41
1
41
1
10
-175.2314645425991
20
29.717024622278963
30
0
10
-174.30640529206136
20
28.910595822221261
30
0
10
-173.84387372787958
20
27.890641324190504
30
0
10
-173.84387372787958
20
26.657212509380116
30
0
0
SPLINE
5
181
100
AcDbEntity
8
0
100
AcDbSpline
70
4
71
3
72
8
73
4
74
0
42
0.000000001
43
0.0000000001
44
0.0000000001
40
0
40
0
40
0
40
0
40
1
40
1
40
1
40
1
41
1
41
1
41
1
41
1
10
-173.84387372787958
20
26.657212509380116
30
0
10
-173.84387372787958
20
26.325156214944478
30
0
10
-173.91503183347282
20
25.708467498135992
30
0
10
-174.05734804465922
20
24.807094008304759
30
0
0
SPLINE
5
182
100
AcDbEntity
8
0
100
AcDbSpline
70
4
71
3
72
8
73
4
74
0
42
0.000000001
43
0.0000000001
44
0.0000000001
40
0
40
0
40
0
40
0
40
1
40
1
40
1
40
1
41
1
41
1
41
1
41
1
10
-174.05734804465922
20
24.807094008304759
30
0
10
-174.60288059478745
20
21.24917321734047
30
0
10
-174.87567013680712
20
19.161892699866065
30
0
10
-174.87567013680712
20
18.545153571320647
30
0
0
SPLINE
5
183
100
AcDbEntity
8
0
100
AcDbSpline
70
4
71
3
72
8
73
4
74
0
42
0.000000001
43
0.0000000001
44
0.0000000001
40
0
40
0
40
0
40
0
40
1
40
1
40
1
40
1
41
1
41
1
41
1
41
1
10
-174.87567013680712
20
18.545153571320647
30
0
10
-174.87567013680712
20
17.430354237533756
30
0
10
-174.50798631675087
20
16.872930334228322
30
0
10
-173.7727156222864
20
16.872930334228322
30
0
0
SPLINE
5
184
100
AcDbEntity
8
0
100
AcDbSpline
70
4
71
3
72
8
73
4
74
0
42
0.000000001
43
0.0000000001
44
0.0000000001
40
0
40
0
40
0
40
0
40
1
40
1
40
1
40
1
41
1
41
1
41
1
41
1
10
-173.7727156222864
20
16.872930334228322
30
0
10
-173.15597455482799
20
16.872930334228322
30
0
10
-172.50370872413586
20
17.276195145994105
30
0
10
-171.81601119803202
20
18.082623946051804
30
0
0
SPLINE
5
185
100
AcDbEntity
8
0
100
AcDbSpline
70
4
71
3
72
8
73
4
74
0
42
0.000000001
43
0.0000000001
44
0.0000000001
40
0
40
0
40
0
40
0
40
1
40
1
40
1
40
1
41
1
41
1
41
1
41
1
10
-171.81601119803202
20
18.082623946051804
30
0
10
-171.10442626427397
20
18.912786979639932
30
0
10
-170.53516141952827
20
20.181795816703406
30
0
10
-170.10820890814307
20
21.889598106592342
30
0
0
SPLINE
5
186
100
AcDbEntity
8
0
100
AcDbSpline
70
4
71
3
72
8
73
4
74
0
42
0.000000001
43
0.0000000001
44
0.0000000001
40
0
40
0
40
0
40
0
40
1
40
1
40
1
40
1
41
1
41
1
41
1
41
1
10
-170.10820890814307
20
21.889598106592342
30
0
10
-169.30157846113764
20
21.035696961647872
30
0
10
-168.81515948930166
20
20.359693019599398
30
0
10
-168.64946386565632
20
19.861584341533952
30
0
0
SPLINE
5
187
100
AcDbEntity
8
0
100
AcDbSpline
70
4
71
3
72
8
73
4
74
0
42
0.000000001
43
0.0000000001
44
0.0000000001
40
0
40
0
40
0
40
0
40
1
40
1
40
1
40
1
41
1
41
1
41
1
41
1
10
-168.64946386565632
20
19.861584341533952
30
0
10
-169.88253495102578
20
15.734394827998045
30
0
10
-172.06506456760823
20
13.670802010143049
30
0
10
-175.19588548980244
20
13.670802010143049
30
0
0
SPLINE
5
188
100
AcDbEntity
8
0
100
AcDbSpline
70
4
71
3
72
8
73
4
74
0
42
0.000000001
43
0.0000000001
44
0.0000000001
40
0
40
0
40
0
40
0
40
1
40
1
40
1
40
1
41
1
41
1
41
1
41
1
10
-175.19588548980244
20
13.670802010143049
30
0
10
-176.66647341264246
20
13.670802010143049
30
0
10
-177.75758504680994
20
14.121488755058667
30
0
10
-178.46916998056798
20
15.022811833152963
30
0
0
SPLINE
5
189
100
AcDbEntity
8
0
100
AcDbSpline
70
4
71
3
72
8
73
4
74
0
42
0.000000001
43
0.0000000001
44
0.0000000001
40
0
40
0
40
0
40
0
40
1
40
1
40
1
40
1
41
1
41
1
41
1
41
1
10
-178.46916998056798
20
15.022811833152963
30
0
10
-179.18075491432603
20
15.924134911247258
30
0
10
-179.53654544229209
20
16.872930334228322
30
0
10
-179.53654544229209
20
17.86914769035921
30
0
0
SPLINE
5
190
100
AcDbEntity
8
0
100
AcDbSpline
70
4
71
3
72
8
73
4
74
0
42
0.000000001
43
0.0000000001
44
0.0000000001
40
0
40
0
40
0
40
0
40
1
40
1
40
1
40
1
41
1
41
1
41
1
41
1
10
-155.73166955712327
20
13.635222957346445
30
0
10
-157.9136911785105
20
13.635222957346445
30
0
10
-159.36074845368074
20
14.394227885341358
30
0
10
-160.07233338743879
20
15.912292030894033
30
0
0
SPLINE
5
191
100
AcDbEntity
8
0
100
AcDbSpline
70
4
71
3
72
8
73
4
74
0
42
0.000000001
43
0.0000000001
44
0.0000000001
40
0
40
0
40
0
40
0
40
1
40
1
40
1
40
1
41
1
41
1
41
1
41
1
10
-160.07233338743879
20
15.912292030894033
30
0
10
-161.30540447280828
20
14.370542124634911
30
0
10
-162.89477795916497
20
13.599643904549836
30
0
10
-164.83994585131364
20
13.599643904549836
30
0
0
SPLINE
5
192
100
AcDbEntity
8
0
100
AcDbSpline
70
4
71
3
72
8
73
4
74
0
42
0.000000001
43
0.0000000001
44
0.0000000001
40
0
40
0
40
0
40
0
40
1
40
1
40
1
40
1
41
1
41
1
41
1
41
1
10
-164.83994585131364
20
13.599643904549836
30
0
10
-166.76122245798217
20
13.599643904549836
30
0
10
-168.38566700194025
20
14.251911674154933
30
0
10
-169.71429547357826
20
15.556499564015013
30
0
0
SPLINE
5
193
100
AcDbEntity
8
0
100
AcDbSpline
70
4
71
3
72
8
73
4
74
0
42
0.000000001
43
0.0000000001
44
0.0000000001
40
0
40
0
40
0
40
0
40
1
40
1
40
1
40
1
41
1
41
1
41
1
41
1
10
-169.71429547357826
20
15.556499564015013
30
0
10
-171.01852854236685
20
16.861087453875093
30
0
10
-171.67115501086937
20
18.580732624117253
30
0
10
-171.67115501086937
20
20.715485486478418
30
0
0
SPLINE
5
194
100
AcDbEntity
8
0
100
AcDbSpline
70
4
71
3
72
8
73
4
74
0
42
0.000000001
43
0.0000000001
44
0.0000000001
40
0
40
0
40
0
40
0
40
1
40
1
40
1
40
1
41
1
41
1
41
1
41
1
10
-171.67115501086937
20
20.715485486478418
30
0
10
-171.67115501086937
20
23.822769944264024
30
0
10
-170.75778352764817
20
26.3014200425011
30
0
10
-168.931552434227
20
28.151538543576457
30
0
0
SPLINE
5
195
100
AcDbEntity
8
0
100
AcDbSpline
70
4
71
3
72
8
73
4
74
0
42
0.000000001
43
0.0000000001
44
0.0000000001
40
0
40
0
40
0
40
0
40
1
40
1
40
1
40
1
41
1
41
1
41
1
41
1
10
-168.931552434227
20
28.151538543576457
30
0
10
-167.1048172234365
20
30.001658014108294
30
0
10
-164.79216715817932
20
30.926717264645973
30
0
10
-161.99360999410737
20
30.926717264645973
30
0
0
SPLINE
5
196
100
AcDbEntity
8
0
100
AcDbSpline
70
4
71
3
72
8
73
4
74
0
42
0.000000001
43
0.0000000001
44
0.0000000001
40
0
40
0
40
0
40
0
40
1
40
1
40
1
40
1
41
1
41
1
41
1
41
1
10
-161.99360999410737
20
30.926717264645973
30
0
10
-161.92245188851416
20
30.926717264645973
30
0
10
-161.85129378292095
20
30.926717264645973
30
0
10
-161.78013179950185
20
30.926717264645973
30
0
0
SPLINE
5
197
100
AcDbEntity
8
0
100
AcDbSpline
70
4
71
3
72
8
73
4
74
0
42
0.000000001
43
0.0000000001
44
0.0000000001
40
0
40
0
40
0
40
0
40
1
40
1
40
1
40
1
41
1
41
1
41
1
41
1
10
-161.78013179950185
20
30.926717264645973
30
0
10
-160.59381953905023
20
30.926717264645973
30
0
10
-159.5030646648672
20
30.725135270500008
30
0
10
-158.50684730873633
20
30.321870458734228
30
0
0
SPLINE
5
198
100
AcDbEntity
8
0
100
AcDbSpline
70
4
71
3
72
8
73
4
74
0
42
0.000000001
43
0.0000000001
44
0.0000000001
40
0
40
0
40
0
40
0
40
1
40
1
40
1
40
1
41
1
41
1
41
1
41
1
10
-158.50684730873633
20
30.321870458734228
30
0
10
-157.86642048057146
20
30.725135270500008
30
0
10
-157.09536908636264
20
30.926717264645973
30
0
10
-156.19420112130507
20
30.926717264645973
30
0
0
SPLINE
5
199
100
AcDbEntity
8
0
100
AcDbSpline
70
4
71
3
72
8
73
4
74
0
42
0.000000001
43
0.0000000001
44
0.0000000001
40
0
40
0
40
0
40
0
40
1
40
1
40
1
40
1
41
1
41
1
41
1
41
1
10
-156.19420112130507
20
30.926717264645973
30
0
10
-155.26913799294147
20
30.926717264645973
30
0
10
-154.60482763494838
20
30.808137225902925
30
0
10
-154.20175865339144
20
30.570924797766949
30
0
0
SPLINE
5
200
100
AcDbEntity
8
0
100
AcDbSpline
70
4
71
3
72
8
73
4
74
0
42
0.000000001
43
0.0000000001
44
0.0000000001
40
0
40
0
40
0
40
0
40
1
40
1
40
1
40
1
41
1
41
1
41
1
41
1
10
-154.20175865339144
20
30.570924797766949
30
0
10
-154.41524072582291
20
28.815701544184662
30
0
10
-154.64040280991907
20
27.084163081852353
30
0
10
-154.87776453435288
20
25.376360791963421
30
0
0
SPLINE
5
201
100
AcDbEntity
8
0
100
AcDbSpline
70
4
71
3
72
8
73
4
74
0
42
0.000000001
43
0.0000000001
44
0.0000000001
40
0
40
0
40
0
40
0
40
1
40
1
40
1
40
1
41
1
41
1
41
1
41
1
10
-154.87776453435288
20
25.376360791963421
30
0
10
-155.11462214141739
20
23.692294674517864
30
0
10
-155.28082576025798
20
22.494445881960562
30
0
10
-155.3758790291572
20
21.782860948202519
30
0
0
SPLINE
5
202
100
AcDbEntity
8
0
100
AcDbSpline
70
4
71
3
72
8
73
4
74
0
42
0.000000001
43
0.0000000001
44
0.0000000001
40
0
40
0
40
0
40
0
40
1
40
1
40
1
40
1
41
1
41
1
41
1
41
1
10
-155.3758790291572
20
21.782860948202519
30
0
10
-155.58935334593684
20
20.169952936350182
30
0
10
-155.69608662650074
20
19.007683196589483
30
0
10
-155.69608662650074
20
18.296098262831446
30
0
0
SPLINE
5
203
100
AcDbEntity
8
0
100
AcDbSpline
70
4
71
3
72
8
73
4
74
0
42
0.000000001
43
0.0000000001
44
0.0000000001
40
0
40
0
40
0
40
0
40
1
40
1
40
1
40
1
41
1
41
1
41
1
41
1
10
-155.69608662650074
20
18.296098262831446
30
0
10
-155.69608662650074
20
17.347353251587315
30
0
10
-155.31640869088051
20
16.872930334228322
30
0
10
-154.55755693700934
20
16.872930334228322
30
0
0
SPLINE
5
204
100
AcDbEntity
8
0
100
AcDbSpline
70
4
71
3
72
8
73
4
74
0
42
0.000000001
43
0.0000000001
44
0.0000000001
40
0
40
0
40
0
40
0
40
1
40
1
40
1
40
1
41
1
41
1
41
1
41
1
10
-154.55755693700934
20
16.872930334228322
30
0
10
-153.96439692895763
20
16.872930334228322
30
0
10
-153.33566174593523
20
17.264301853903948
30
0
10
-152.67185550531144
20
18.047044893255201
30
0
0
SPLINE
5
205
100
AcDbEntity
8
0
100
AcDbSpline
70
4
71
3
72
8
73
4
74
0
42
0.000000001
43
0.0000000001
44
0.0000000001
40
0
40
0
40
0
40
0
40
1
40
1
40
1
40
1
41
1
41
1
41
1
41
1
10
-152.67185550531144
20
18.047044893255201
30
0
10
-152.00754514731838
20
18.853522166136877
30
0
10
-151.42658477960433
20
20.110637711110193
30
0
10
-150.92847804045186
20
21.818440000999129
30
0
0
SPLINE
5
206
100
AcDbEntity
8
0
100
AcDbSpline
70
4
71
3
72
8
73
4
74
0
42
0.000000001
43
0.0000000001
44
0.0000000001
40
0
40
0
40
0
40
0
40
1
40
1
40
1
40
1
41
1
41
1
41
1
41
1
10
-150.92847804045186
20
21.818440000999129
30
0
10
-150.24027251915274
20
21.201751284190639
30
0
10
-149.76605318765445
20
20.513902522875981
30
0
10
-149.50530817293577
20
19.754845244231177
30
0
0
SPLINE
5
207
100
AcDbEntity
8
0
100
AcDbSpline
70
4
71
3
72
8
73
4
74
0
42
0.000000001
43
0.0000000001
44
0.0000000001
40
0
40
0
40
0
40
0
40
1
40
1
40
1
40
1
41
1
41
1
41
1
41
1
10
-149.50530817293577
20
19.754845244231177
30
0
10
-150.1930018212137
20
17.501512343126965
30
0
10
-151.1180649495773
20
15.912292030894033
30
0
10
-152.28048204672288
20
14.987232780356354
30
0
0
SPLINE
5
208
100
AcDbEntity
8
0
100
AcDbSpline
70
4
71
3
72
8
73
4
74
0
42
0.000000001
43
0.0000000001
44
0.0000000001
40
0
40
0
40
0
40
0
40
1
40
1
40
1
40
1
41
1
41
1
41
1
41
1
10
-152.28048204672288
20
14.987232780356354
30
0
10
-153.44240278215096
20
14.085909702262057
30
0
10
-154.59313211198003
20
13.635222957346445
30
0
10
-155.73166955712327
20
13.635222957346445
30
0
0
SPLINE
5
209
100
AcDbEntity
8
0
100
AcDbSpline
70
4
71
3
72
8
73
4
74
0
42
0.000000001
43
0.0000000001
44
0.0000000001
40
0
40
0
40
0
40
0
40
1
40
1
40
1
40
1
41
1
41
1
41
1
41
1
10
-161.45992032433239
20
28.151538543576457
30
0
10
-162.97762770990062
20
28.151538543576457
30
0
10
-164.18731938281113
20
27.57042887956457
30
0
10
-165.08899922088986
20
26.408158170347392
30
0
0
SPLINE
5
210
100
AcDbEntity
8
0
100
AcDbSpline
70
4
71
3
72
8
73
4
74
0
42
0.000000001
43
0.0000000001
44
0.0000000001
40
0
40
0
40
0
40
0
40
1
40
1
40
1
40
1
41
1
41
1
41
1
41
1
10
-165.08899922088986
20
26.408158170347392
30
0
10
-165.96627977829328
20
25.269623633573598
30
0
10
-166.48827780292584
20
23.561821343684667
30
0
10
-166.65448529959238
20
21.284752270137076
30
0
0
SPLINE
5
211
100
AcDbEntity
8
0
100
AcDbSpline
70
4
71
3
72
8
73
4
74
0
42
0.000000001
43
0.0000000001
44
0.0000000001
40
0
40
0
40
0
40
0
40
1
40
1
40
1
40
1
41
1
41
1
41
1
41
1
10
-166.65448529959238
20
21.284752270137076
30
0
10
-166.67786471205133
20
21.071276014444482
30
0
10
-166.69006435238899
20
20.869694989754997
30
0
10
-166.69006435238899
20
20.679904494768856
30
0
0
SPLINE
5
212
100
AcDbEntity
8
0
100
AcDbSpline
70
4
71
3
72
8
73
4
74
0
42
0.000000001
43
0.0000000001
44
0.0000000001
40
0
40
0
40
0
40
0
40
1
40
1
40
1
40
1
41
1
41
1
41
1
41
1
10
-166.69006435238899
20
20.679904494768856
30
0
10
-166.69006435238899
20
19.517685166745089
30
0
10
-166.41711969733265
20
18.59262591620741
30
0
10
-165.87174226024109
20
17.90472674315582
30
0
0
SPLINE
5
213
100
AcDbEntity
8
0
100
AcDbSpline
70
4
71
3
72
8
73
4
74
0
42
0.000000001
43
0.0000000001
44
0.0000000001
40
0
40
0
40
0
40
0
40
1
40
1
40
1
40
1
41
1
41
1
41
1
41
1
10
-165.87174226024109
20
17.90472674315582
30
0
10
-165.30247353766953
20
17.216879920754117
30
0
10
-164.57869284139971
20
16.872930334228322
30
0
10
-163.70141228399632
20
16.872930334228322
30
0
0
SPLINE
5
214
100
AcDbEntity
8
0
100
AcDbSpline
70
4
71
3
72
8
73
4
74
0
42
0.000000001
43
0.0000000001
44
0.0000000001
40
0
40
0
40
0
40
0
40
1
40
1
40
1
40
1
41
1
41
1
41
1
41
1
10
-163.70141228399632
20
16.872930334228322
30
0
10
-162.20708431088701
20
16.872930334228322
30
0
10
-161.0802385108862
20
17.928462915599198
30
0
10
-160.32138675701503
20
20.039479605516984
30
0
0
LINE
5
215
100
AcDbEntity
8
0
100
AcDbLine
10
-160.32138675701506
20
20.039479605516984
30
0
11
-159.46748561207056
21
27.7245889405607
31
0
0
SPLINE
5
216
100
AcDbEntity
8
0
100
AcDbSpline
70
4
71
3
72
8
73
4
74
0
42
0.000000001
43
0.0000000001
44
0.0000000001
40
0
40
0
40
0
40
0
40
1
40
1
40
1
40
1
41
1
41
1
41
1
41
1
10
-159.46748561207059
20
27.7245889405607
30
0
10
-160.15517926034852
20
28.009222332390031
30
0
10
-160.81949349616752
20
28.151538543576457
30
0
10
-161.45992032433239
20
28.151538543576457
30
0
0
SPLINE
5
217
100
AcDbEntity
8
0
100
AcDbSpline
70
4
71
3
72
8
73
4
74
0
42
0.000000001
43
0.0000000001
44
0.0000000001
40
0
40
0
40
0
40
0
40
1
40
1
40
1
40
1
41
1
41
1
41
1
41
1
10
-137.19998156769958
20
24.70035491100198
30
0
10
-135.32597565897007
20
23.324661266198579
30
0
10
-134.38922476328995
20
21.699859962256085
30
0
10
-134.38922476328995
20
19.826005288737349
30
0
0
SPLINE
5
218
100
AcDbEntity
8
0
100
AcDbSpline
70
4
71
3
72
8
73
4
74
0
42
0.000000001
43
0.0000000001
44
0.0000000001
40
0
40
0
40
0
40
0
40
1
40
1
40
1
40
1
41
1
41
1
41
1
41
1
10
-134.38922476328995
20
19.826005288737349
30
0
10
-134.38922476328995
20
17.952148676305647
30
0
10
-135.12470098252808
20
16.445979761756089
30
0
10
-136.59513379233138
20
15.307444255525811
30
0
0
SPLINE
5
219
100
AcDbEntity
8
0
100
AcDbSpline
70
4
71
3
72
8
73
4
74
0
42
0.000000001
43
0.0000000001
44
0.0000000001
40
0
40
0
40
0
40
0
40
1
40
1
40
1
40
1
41
1
41
1
41
1
41
1
10
-136.59513379233138
20
15.307444255525811
30
0
10
-138.06557435778649
20
14.168910688208495
30
0
10
-139.91569285886183
20
13.599643904549836
30
0
10
-142.14549705120928
20
13.599643904549836
30
0
0
SPLINE
5
220
100
AcDbEntity
8
0
100
AcDbSpline
70
4
71
3
72
8
73
4
74
0
42
0.000000001
43
0.0000000001
44
0.0000000001
40
0
40
0
40
0
40
0
40
1
40
1
40
1
40
1
41
1
41
1
41
1
41
1
10
-142.14549705120928
20
13.599643904549836
30
0
10
-143.59255432637954
20
13.599643904549836
30
0
10
-144.80224212146416
20
13.955434432515901
30
0
10
-145.77457594776678
20
14.667019366273944
30
0
0
SPLINE
5
221
100
AcDbEntity
8
0
100
AcDbSpline
70
4
71
3
72
8
73
4
74
0
42
0.000000001
43
0.0000000001
44
0.0000000001
40
0
40
0
40
0
40
0
40
1
40
1
40
1
40
1
41
1
41
1
41
1
41
1
10
-145.77457594776678
20
14.667019366273944
30
0
10
-146.72351872813272
20
15.402340472475364
30
0
10
-147.19773805963104
20
16.303663550569659
30
0
10
-147.19773805963104
20
17.371039012293767
30
0
0
SPLINE
5
222
100
AcDbEntity
8
0
100
AcDbSpline
70
4
71
3
72
8
73
4
74
0
42
0.000000001
43
0.0000000001
44
0.0000000001
40
0
40
0
40
0
40
0
40
1
40
1
40
1
40
1
41
1
41
1
41
1
41
1
10
-147.19773805963104
20
17.371039012293767
30
0
10
-147.19773805963104
20
18.438414474017868
30
0
10
-146.84194753166497
20
19.280472738609113
30
0
10
-146.13036647573284
20
19.897163394330558
30
0
0
SPLINE
5
223
100
AcDbEntity
8
0
100
AcDbSpline
70
4
71
3
72
8
73
4
74
0
42
0.000000001
43
0.0000000001
44
0.0000000001
40
0
40
0
40
0
40
0
40
1
40
1
40
1
40
1
41
1
41
1
41
1
41
1
10
-146.13036647573284
20
19.897163394330558
30
0
10
-145.41877766414888
20
20.537588283582426
30
0
10
-144.5292974664078
20
20.928959803258053
30
0
10
-143.46192588250963
20
21.071276014444482
30
0
0
SPLINE
5
224
100
AcDbEntity
8
0
100
AcDbSpline
70
4
71
3
72
8
73
4
74
0
42
0.000000001
43
0.0000000001
44
0.0000000001
40
0
40
0
40
0
40
0
40
1
40
1
40
1
40
1
41
1
41
1
41
1
41
1
10
-143.46192588250963
20
21.071276014444482
30
0
10
-143.96003262166209
20
20.359693019599398
30
0
10
-144.20908986906429
20
19.671844258284739
30
0
10
-144.20908986906429
20
19.007683196589483
30
0
0
SPLINE
5
225
100
AcDbEntity
8
0
100
AcDbSpline
70
4
71
3
72
8
73
4
74
0
42
0.000000001
43
0.0000000001
44
0.0000000001
40
0
40
0
40
0
40
0
40
1
40
1
40
1
40
1
41
1
41
1
41
1
41
1
10
-144.20908986906429
20
19.007683196589483
30
0
10
-144.20908986906429
20
18.367256368424659
30
0
10
-143.98392002931629
20
17.845461929652764
30
0
10
-143.53308398810285
20
17.44219711788698
30
0
0
SPLINE
5
226
100
AcDbEntity
8
0
100
AcDbSpline
70
4
71
3
72
8
73
4
74
0
42
0.000000001
43
0.0000000001
44
0.0000000001
40
0
40
0
40
0
40
0
40
1
40
1
40
1
40
1
41
1
41
1
41
1
41
1
10
-143.53308398810285
20
17.44219711788698
30
0
10
-143.08224019123756
20
17.038982717858126
30
0
10
-142.51297534649186
20
16.837351281431712
30
0
10
-141.8252816982139
20
16.837351281431712
30
0
0
SPLINE
5
227
100
AcDbEntity
8
0
100
AcDbSpline
70
4
71
3
72
8
73
4
74
0
42
0.000000001
43
0.0000000001
44
0.0000000001
40
0
40
0
40
0
40
0
40
1
40
1
40
1
40
1
41
1
41
1
41
1
41
1
10
-141.8252816982139
20
16.837351281431712
30
0
10
-141.13758804993597
20
16.837351281431712
30
0
10
-140.56831544953843
20
17.086404651007957
30
0
10
-140.11747940832498
20
17.584513329073403
30
0
0
SPLINE
5
228
100
AcDbEntity
8
0
100
AcDbSpline
70
4
71
3
72
8
73
4
74
0
42
0.000000001
43
0.0000000001
44
0.0000000001
40
0
40
0
40
0
40
0
40
1
40
1
40
1
40
1
41
1
41
1
41
1
41
1
10
-140.11747940832498
20
17.584513329073403
30
0
10
-139.6666356114597
20
18.106360118495189
30
0
10
-139.44147352736354
20
18.699363074597226
30
0
10
-139.44147352736354
20
19.363473724555547
30
0
0
SPLINE
5
229
100
AcDbEntity
8
0
100
AcDbSpline
70
4
71
3
72
8
73
4
74
0
42
0.000000001
43
0.0000000001
44
0.0000000001
40
0
40
0
40
0
40
0
40
1
40
1
40
1
40
1
41
1
41
1
41
1
41
1
10
-139.44147352736354
20
19.363473724555547
30
0
10
-139.44147352736354
20
20.454587297635992
30
0
10
-139.95127578948438
20
21.427068481323502
30
0
10
-140.97137667544354
20
22.280969626267968
30
0
0
SPLINE
5
230
100
AcDbEntity
8
0
100
AcDbSpline
70
4
71
3
72
8
73
4
74
0
42
0.000000001
43
0.0000000001
44
0.0000000001
40
0
40
0
40
0
40
0
40
1
40
1
40
1
40
1
41
1
41
1
41
1
41
1
10
-140.97137667544354
20
22.280969626267968
30
0
10
-141.58791997378009
20
22.779078304333417
30
0
10
-142.25223033177318
20
23.241607929602253
30
0
10
-142.96381914335714
20
23.668558502074486
30
0
0
SPLINE
5
231
100
AcDbEntity
8
0
100
AcDbSpline
70
4
71
3
72
8
73
4
74
0
42
0.000000001
43
0.0000000001
44
0.0000000001
40
0
40
0
40
0
40
0
40
1
40
1
40
1
40
1
41
1
41
1
41
1
41
1
10
-142.96381914335714
20
23.668558502074486
30
0
10
-143.67540019928927
20
24.119245246990101
30
0
10
-144.05507813490951
20
24.356457675126077
30
0
10
-144.10234883284855
20
24.380143435832522
30
0
0
SPLINE
5
232
100
AcDbEntity
8
0
100
AcDbSpline
70
4
71
3
72
8
73
4
74
0
42
0.000000001
43
0.0000000001
44
0.0000000001
40
0
40
0
40
0
40
0
40
1
40
1
40
1
40
1
41
1
41
1
41
1
41
1
10
-144.10234883284855
20
24.380143435832522
30
0
10
-144.19739434609593
20
24.451301541425742
30
0
10
-144.29193574197399
20
24.510616766665727
30
0
10
-144.3869812552214
20
24.558038699815555
30
0
0
SPLINE
5
233
100
AcDbEntity
8
0
100
AcDbSpline
70
4
71
3
72
8
73
4
74
0
42
0.000000001
43
0.0000000001
44
0.0000000001
40
0
40
0
40
0
40
0
40
1
40
1
40
1
40
1
41
1
41
1
41
1
41
1
10
-144.3869812552214
20
24.558038699815555
30
0
10
-144.81393764443251
20
24.059930021750112
30
0
10
-145.43047318711723
20
23.37208319934841
30
0
10
-146.23709975629674
20
22.494445881960562
30
0
0
SPLINE
5
234
100
AcDbEntity
8
0
100
AcDbSpline
70
4
71
3
72
8
73
4
74
0
42
0.000000001
43
0.0000000001
44
0.0000000001
40
0
40
0
40
0
40
0
40
1
40
1
40
1
40
1
41
1
41
1
41
1
41
1
10
-146.23709975629674
20
22.494445881960562
30
0
10
-147.04373408112809
20
21.640544737016096
30
0
10
-147.68415703146701
20
20.952695975701438
30
0
10
-148.15837636296533
20
20.430851125192611
30
0
0
SPLINE
5
235
100
AcDbEntity
8
0
100
AcDbSpline
70
4
71
3
72
8
73
4
74
0
42
0.000000001
43
0.0000000001
44
0.0000000001
40
0
40
0
40
0
40
0
40
1
40
1
40
1
40
1
41
1
41
1
41
1
41
1
10
-148.15837636296533
20
20.430851125192611
30
0
10
-149.48650071723401
20
18.983947024146104
30
0
10
-150.23366470378866
20
17.774253412322615
30
0
10
-150.39986832262926
20
16.801772228635109
30
0
0
SPLINE
5
236
100
AcDbEntity
8
0
100
AcDbSpline
70
4
71
3
72
8
73
4
74
0
42
0.000000001
43
0.0000000001
44
0.0000000001
40
0
40
0
40
0
40
0
40
1
40
1
40
1
40
1
41
1
41
1
41
1
41
1
10
-150.39986832262926
20
16.801772228635109
30
0
10
-150.4471390205683
20
16.612032145385889
30
0
10
-150.47102642822247
20
16.244398737066604
30
0
10
-150.47102642822247
20
15.698815775201439
30
0
0
SPLINE
5
237
100
AcDbEntity
8
0
100
AcDbSpline
70
4
71
3
72
8
73
4
74
0
42
0.000000001
43
0.0000000001
44
0.0000000001
40
0
40
0
40
0
40
0
40
1
40
1
40
1
40
1
41
1
41
1
41
1
41
1
10
-150.47102642822247
20
15.698815775201439
30
0
10
-150.47102642822247
20
15.177021336429544
30
0
10
-150.31702244971953
20
14.631440313477334
30
0
10
-150.00849486404067
20
14.062173529818676
30
0
0
SPLINE
5
238
100
AcDbEntity
8
0
100
AcDbSpline
70
4
71
3
72
8
73
4
74
0
42
0.000000001
43
0.0000000001
44
0.0000000001
40
0
40
0
40
0
40
0
40
1
40
1
40
1
40
1
41
1
41
1
41
1
41
1
10
-150.00849486404067
20
14.062173529818676
30
0
10
-149.67659174372881
20
13.492904807247061
30
0
10
-149.28522604079205
20
13.065954234774825
30
0
10
-148.83438224392674
20
12.781321812401977
30
0
0
SPLINE
5
239
100
AcDbEntity
8
0
100
AcDbSpline
70
4
71
3
72
8
73
4
74
0
42
0.000000001
43
0.0000000001
44
0.0000000001
40
0
40
0
40
0
40
0
40
1
40
1
40
1
40
1
41
1
41
1
41
1
41
1
10
-148.83438224392674
20
12.781321812401977
30
0
10
-148.38354620271329
20
12.49668745111617
30
0
10
-147.94490204618569
20
12.27137025398331
30
0
10
-147.51795341262641
20
12.105315931440543
30
0
0
SPLINE
5
240
100
AcDbEntity
8
0
100
AcDbSpline
70
4
71
3
72
8
73
4
74
0
42
0.000000001
43
0.0000000001
44
0.0000000001
40
0
40
0
40
0
40
0
40
1
40
1
40
1
40
1
41
1
41
1
41
1
41
1
10
-147.51795341262641
20
12.105315931440543
30
0
10
-147.06711737141293
20
11.915577787104287
30
0
10
-146.68794355316206
20
11.785102517358128
30
0
10
-146.37941596748317
20
11.713944411764917
30
0
0
SPLINE
5
241
100
AcDbEntity
8
0
100
AcDbSpline
70
4
71
3
72
8
73
4
74
0
42
0.000000001
43
0.0000000001
44
0.0000000001
40
0
40
0
40
0
40
0
40
1
40
1
40
1
40
1
41
1
41
1
41
1
41
1
10
-146.37941596748317
20
11.713944411764917
30
0
10
-146.04751284717128
20
11.642786306171704
30
0
10
-145.88130922833071
20
11.595364373021869
30
0
10
-145.88130922833071
20
11.571628200578491
30
0
0
SPLINE
5
242
100
AcDbEntity
8
0
100
AcDbSpline
70
4
71
3
72
8
73
4
74
0
42
0.000000001
43
0.0000000001
44
0.0000000001
40
0
40
0
40
0
40
0
40
1
40
1
40
1
40
1
41
1
41
1
41
1
41
1
10
-145.88130922833071
20
11.571628200578491
30
0
10
-145.88130922833071
20
11.405575816948685
30
0
10
-146.14205424304936
20
11.215835733699468
30
0
10
-146.66405614550786
20
11.002361416919832
30
0
0
SPLINE
5
243
100
AcDbEntity
8
0
100
AcDbSpline
70
4
71
3
72
8
73
4
74
0
42
0.000000001
43
0.0000000001
44
0.0000000001
40
0
40
0
40
0
40
0
40
1
40
1
40
1
40
1
41
1
41
1
41
1
41
1
10
-146.66405614550786
20
11.002361416919832
30
0
10
-147.63638221615867
20
10.646568950040812
30
0
10
-148.65649085776965
20
10.468671747144821
30
0
10
-149.72386244166782
20
10.468671747144821
30
0
0
SPLINE
5
244
100
AcDbEntity
8
0
100
AcDbSpline
70
4
71
3
72
8
73
4
74
0
42
0.000000001
43
0.0000000001
44
0.0000000001
40
0
40
0
40
0
40
0
40
1
40
1
40
1
40
1
41
1
41
1
41
1
41
1
10
-149.72386244166782
20
10.468671747144821
30
0
10
-150.76735437356365
20
10.468671747144821
30
0
10
-151.78745525952283
20
10.848200386467223
30
0
10
-152.78367649347962
20
11.607207253375096
30
0
0
SPLINE
5
245
100
AcDbEntity
8
0
100
AcDbSpline
70
4
71
3
72
8
73
4
74
0
42
0.000000001
43
0.0000000001
44
0.0000000001
40
0
40
0
40
0
40
0
40
1
40
1
40
1
40
1
41
1
41
1
41
1
41
1
10
-152.78367649347962
20
11.607207253375096
30
0
10
-154.1356882554025
20
12.65084654265582
30
0
10
-154.81169413636394
20
14.03848776911223
30
0
10
-154.81169413636394
20
15.76997388079465
30
0
0
SPLINE
5
246
100
AcDbEntity
8
0
100
AcDbSpline
70
4
71
3
72
8
73
4
74
0
42
0.000000001
43
0.0000000001
44
0.0000000001
40
0
40
0
40
0
40
0
40
1
40
1
40
1
40
1
41
1
41
1
41
1
41
1
10
-154.81169413636394
20
15.76997388079465
30
0
10
-154.81169413636394
20
16.837351281431712
30
0
10
-154.5387494813076
20
17.892883862802591
30
0
10
-153.99337204421607
20
18.936525090996273
30
0
0
SPLINE
5
247
100
AcDbEntity
8
0
100
AcDbSpline
70
4
71
3
72
8
73
4
74
0
42
0.000000001
43
0.0000000001
44
0.0000000001
40
0
40
0
40
0
40
0
40
1
40
1
40
1
40
1
41
1
41
1
41
1
41
1
10
-153.99337204421607
20
18.936525090996273
30
0
10
-153.02103821791346
20
20.786643592071631
30
0
10
-150.74397108327881
20
23.324661266198579
30
0
10
-147.16216288466035
20
26.550474381533817
30
0
0
SPLINE
5
248
100
AcDbEntity
8
0
100
AcDbSpline
70
4
71
3
72
8
73
4
74
0
42
0.000000001
43
0.0000000001
44
0.0000000001
40
0
40
0
40
0
40
0
40
1
40
1
40
1
40
1
41
1
41
1
41
1
41
1
10
-147.16216288466035
20
26.550474381533817
30
0
10
-148.03995531508491
20
27.428111698921668
30
0
10
-148.4785917159607
20
28.365013829812572
30
0
10
-148.4785917159607
20
29.361232155399939
30
0
0
SPLINE
5
249
100
AcDbEntity
8
0
100
AcDbSpline
70
4
71
3
72
8
73
4
74
0
42
0.000000001
43
0.0000000001
44
0.0000000001
40
0
40
0
40
0
40
0
40
1
40
1
40
1
40
1
41
1
41
1
41
1
41
1
10
-148.4785917159607
20
29.361232155399939
30
0
10
-148.4785917159607
20
30.357449511530831
30
0
10
-148.11111342067812
20
31.199507776122076
30
0
10
-147.37563720143999
20
31.887355567980254
30
0
0
SPLINE
5
250
100
AcDbEntity
8
0
100
AcDbSpline
70
4
71
3
72
8
73
4
74
0
42
0.000000001
43
0.0000000001
44
0.0000000001
40
0
40
0
40
0
40
0
40
1
40
1
40
1
40
1
41
1
41
1
41
1
41
1
10
-147.37563720143999
20
31.887355567980254
30
0
10
-146.61678544756882
20
32.575254741031841
30
0
10
-145.72730524982777
20
32.919152946364235
30
0
10
-144.70719660821675
20
32.919152946364235
30
0
0
SPLINE
5
251
100
AcDbEntity
8
0
100
AcDbSpline
70
4
71
3
72
8
73
4
74
0
42
0.000000001
43
0.0000000001
44
0.0000000001
40
0
40
0
40
0
40
0
40
1
40
1
40
1
40
1
41
1
41
1
41
1
41
1
10
-144.70719660821675
20
32.919152946364235
30
0
10
-143.78213347985314
20
32.919152946364235
30
0
10
-142.97550691067366
20
32.551517599131984
30
0
10
-142.2878132623957
20
31.816197462387041
30
0
0
SPLINE
5
252
100
AcDbEntity
8
0
100
AcDbSpline
70
4
71
3
72
8
73
4
74
0
42
0.000000001
43
0.0000000001
44
0.0000000001
40
0
40
0
40
0
40
0
40
1
40
1
40
1
40
1
41
1
41
1
41
1
41
1
10
-142.2878132623957
20
31.816197462387041
30
0
10
-141.83696946553042
20
31.318088784321599
30
0
10
-141.61180738143426
20
30.689556217703405
30
0
10
-141.61180738143426
20
29.930498939058594
30
0
0
SPLINE
5
253
100
AcDbEntity
8
0
100
AcDbSpline
70
4
71
3
72
8
73
4
74
0
42
0.000000001
43
0.0000000001
44
0.0000000001
40
0
40
0
40
0
40
0
40
1
40
1
40
1
40
1
41
1
41
1
41
1
41
1
10
-141.61180738143426
20
29.930498939058594
30
0
10
-141.61180738143426
20
29.171493041607206
30
0
10
-141.86085687318462
20
28.317591896662737
30
0
10
-142.35897136798891
20
27.36879647368168
30
0
0
SPLINE
5
254
100
AcDbEntity
8
0
100
AcDbSpline
70
4
71
3
72
8
73
4
74
0
42
0.000000001
43
0.0000000001
44
0.0000000001
40
0
40
0
40
0
40
0
40
1
40
1
40
1
40
1
41
1
41
1
41
1
41
1
10
-142.35897136798891
20
27.36879647368168
30
0
10
-139.82115146298378
20
26.23026193690788
30
0
10
-138.10115728840901
20
25.340781739166811
30
0
10
-137.19998156769958
20
24.70035491100198
30
0
0
SPLINE
5
255
100
AcDbEntity
8
0
100
AcDbSpline
70
4
71
3
72
8
73
4
74
0
42
0.000000001
43
0.0000000001
44
0.0000000001
40
0
40
0
40
0
40
0
40
1
40
1
40
1
40
1
41
1
41
1
41
1
41
1
10
-144.92067092499641
20
28.720806296691592
30
0
10
-144.35140608025068
20
29.313810222250112
30
0
10
-144.06677365787786
20
29.740760794722341
30
0
10
-144.06677365787786
20
30.001658014108294
30
0
0
SPLINE
5
256
100
AcDbEntity
8
0
100
AcDbSpline
70
4
71
3
72
8
73
4
74
0
42
0.000000001
43
0.0000000001
44
0.0000000001
40
0
40
0
40
0
40
0
40
1
40
1
40
1
40
1
41
1
41
1
41
1
41
1
10
-144.06677365787786
20
30.001658014108294
30
0
10
-144.06677365787786
20
30.59466193966681
30
0
10
-144.32751867259651
20
30.914874384292744
30
0
10
-144.84951281940317
20
30.962296317442579
30
0
0
SPLINE
5
257
100
AcDbEntity
8
0
100
AcDbSpline
70
4
71
3
72
8
73
4
74
0
42
0.000000001
43
0.0000000001
44
0.0000000001
40
0
40
0
40
0
40
0
40
1
40
1
40
1
40
1
41
1
41
1
41
1
41
1
10
-144.84951281940317
20
30.962296317442579
30
0
10
-145.44267282745491
20
30.962296317442579
30
0
10
-145.73899301714425
20
30.630240992463413
30
0
10
-145.73899301714425
20
29.966078961311684
30
0
0
SPLINE
5
258
100
AcDbEntity
8
0
100
AcDbSpline
70
4
71
3
72
8
73
4
74
0
42
0.000000001
43
0.0000000001
44
0.0000000001
40
0
40
0
40
0
40
0
40
1
40
1
40
1
40
1
41
1
41
1
41
1
41
1
10
-145.73899301714425
20
29.966078961311684
30
0
10
-145.73899301714425
20
29.562864561282829
30
0
10
-145.46604836208792
20
29.147756869163825
30
0
10
-144.92067092499641
20
28.720806296691592
30
0
0
LINE
5
259
100
AcDbEntity
8
0
100
AcDbLine
10
-124.33098194269134
20
13.492803983773193
30
0
11
-134.22200515405888
21
13.70627830055283
31
0
0
SPLINE
5
260
100
AcDbEntity
8
0
100
AcDbSpline
70
4
71
3
72
8
73
4
74
0
42
0.000000001
43
0.0000000001
44
0.0000000001
40
0
40
0
40
0
40
0
40
1
40
1
40
1
40
1
41
1
41
1
41
1
41
1
10
-134.22200515405888
20
13.706278300552835
30
0
10
-134.5305249840859
20
13.706278300552835
30
0
10
-134.68453671824068
20
14.12138599267184
30
0
10
-134.68453671824068
20
14.951550965172924
30
0
0
SPLINE
5
261
100
AcDbEntity
8
0
100
AcDbSpline
70
4
71
3
72
8
73
4
74
0
42
0.000000001
43
0.0000000001
44
0.0000000001
40
0
40
0
40
0
40
0
40
1
40
1
40
1
40
1
41
1
41
1
41
1
41
1
10
-134.68453671824068
20
14.951550965172924
30
0
10
-134.68453671824068
20
15.80545211011739
30
0
10
-134.50663757643173
20
16.469615110725606
30
0
10
-134.15084704846566
20
16.94398761634767
30
0
0
SPLINE
5
262
100
AcDbEntity
8
0
100
AcDbSpline
70
4
71
3
72
8
73
4
74
0
42
0.000000001
43
0.0000000001
44
0.0000000001
40
0
40
0
40
0
40
0
40
1
40
1
40
1
40
1
41
1
41
1
41
1
41
1
10
-134.15084704846566
20
16.94398761634767
30
0
10
-133.7950565204996
20
17.892783039328727
30
0
10
-132.8105230538593
20
19.280371915135245
30
0
10
-131.19777403286957
20
21.106754243767224
30
0
0
SPLINE
5
263
100
AcDbEntity
8
0
100
AcDbSpline
70
4
71
3
72
8
73
4
74
0
42
0.000000001
43
0.0000000001
44
0.0000000001
40
0
40
0
40
0
40
0
40
1
40
1
40
1
40
1
41
1
41
1
41
1
41
1
10
-131.19777403286957
20
21.106754243767224
30
0
10
-130.67577213041108
20
21.699757199869261
30
0
10
-129.7034460597603
20
22.767134600506324
30
0
10
-128.28027619224423
20
24.308882567852489
30
0
0
SPLINE
5
264
100
AcDbEntity
8
0
100
AcDbSpline
70
4
71
3
72
8
73
4
74
0
42
0.000000001
43
0.0000000001
44
0.0000000001
40
0
40
0
40
0
40
0
40
1
40
1
40
1
40
1
41
1
41
1
41
1
41
1
10
-128.28027619224423
20
24.308882567852489
30
0
10
-126.85710632472812
20
25.850682885848553
30
0
10
-125.92035542904802
20
26.906165055482496
30
0
10
-125.46951938783457
20
27.475432808597631
30
0
0
LINE
5
265
100
AcDbEntity
8
0
100
AcDbLine
10
-125.46951938783457
20
27.475432808597631
30
0
11
-127.3552130638806
21
27.582169966987454
31
0
0
SPLINE
5
266
100
AcDbEntity
8
0
100
AcDbSpline
70
4
71
3
72
8
73
4
74
0
42
0.000000001
43
0.0000000001
44
0.0000000001
40
0
40
0
40
0
40
0
40
1
40
1
40
1
40
1
41
1
41
1
41
1
41
1
10
-127.35521306388063
20
27.58216996698745
30
0
10
-127.7110113474985
20
26.728268822042985
30
0
10
-128.23300549430516
20
26.028578149831581
30
0
10
-128.92069914258312
20
25.482997126879372
30
0
0
SPLINE
5
267
100
AcDbEntity
8
0
100
AcDbSpline
70
4
71
3
72
8
73
4
74
0
42
0.000000001
43
0.0000000001
44
0.0000000001
40
0
40
0
40
0
40
0
40
1
40
1
40
1
40
1
41
1
41
1
41
1
41
1
10
-128.92069914258312
20
25.482997126879372
30
0
10
-129.58501725622804
20
24.961202688107477
30
0
10
-130.3321812427827
20
24.700254087528116
30
0
10
-131.16219110224708
20
24.700254087528116
30
0
0
SPLINE
5
268
100
AcDbEntity
8
0
100
AcDbSpline
70
4
71
3
72
8
73
4
74
0
42
0.000000001
43
0.0000000001
44
0.0000000001
40
0
40
0
40
0
40
0
40
1
40
1
40
1
40
1
41
1
41
1
41
1
41
1
10
-131.16219110224708
20
24.700254087528116
30
0
10
-132.11114163826483
20
24.700254087528116
30
0
10
-132.88168115945251
20
24.973045568460705
30
0
10
-133.47484116750422
20
25.518576179675982
30
0
0
SPLINE
5
269
100
AcDbEntity
8
0
100
AcDbSpline
70
4
71
3
72
8
73
4
74
0
42
0.000000001
43
0.0000000001
44
0.0000000001
40
0
40
0
40
0
40
0
40
1
40
1
40
1
40
1
41
1
41
1
41
1
41
1
10
-133.47484116750422
20
25.518576179675982
30
0
10
-134.0679934199041
20
26.087842963334637
30
0
10
-134.36432136524527
20
26.87058600268589
30
0
10
-134.36432136524527
20
27.866803358816782
30
0
0
SPLINE
5
270
100
AcDbEntity
8
0
100
AcDbSpline
70
4
71
3
72
8
73
4
74
0
42
0.000000001
43
0.0000000001
44
0.0000000001
40
0
40
0
40
0
40
0
40
1
40
1
40
1
40
1
41
1
41
1
41
1
41
1
10
-134.36432136524527
20
27.866803358816782
30
0
10
-134.36432136524527
20
28.863021684404153
30
0
10
-134.02021860459573
20
29.657658015845563
30
0
10
-133.3325249563178
20
30.250610560210667
30
0
0
SPLINE
5
271
100
AcDbEntity
8
0
100
AcDbSpline
70
4
71
3
72
8
73
4
74
0
42
0.000000001
43
0.0000000001
44
0.0000000001
40
0
40
0
40
0
40
0
40
1
40
1
40
1
40
1
41
1
41
1
41
1
41
1
10
-133.3325249563178
20
30.250610560210667
30
0
10
-132.64483130803984
20
30.843614485769191
30
0
10
-131.69588077202209
20
31.140090757951739
30
0
10
-130.48618522128561
20
31.140090757951739
30
0
0
LINE
5
272
100
AcDbEntity
8
0
100
AcDbLine
10
-130.48618522128561
20
31.140090757951739
30
0
11
-120.59516976556992
21
30.926615471715625
31
0
0
SPLINE
5
273
100
AcDbEntity
8
0
100
AcDbSpline
70
4
71
3
72
8
73
4
74
0
42
0.000000001
43
0.0000000001
44
0.0000000001
40
0
40
0
40
0
40
0
40
1
40
1
40
1
40
1
41
1
41
1
41
1
41
1
10
-120.59516976556992
20
30.926615471715628
30
0
10
-120.28664217989106
20
30.926615471715628
30
0
10
-120.13263820138812
20
30.523401071686777
30
0
10
-120.13263820138812
20
29.716922829348619
30
0
0
SPLINE
5
274
100
AcDbEntity
8
0
100
AcDbSpline
70
4
71
3
72
8
73
4
74
0
42
0.000000001
43
0.0000000001
44
0.0000000001
40
0
40
0
40
0
40
0
40
1
40
1
40
1
40
1
41
1
41
1
41
1
41
1
10
-120.13263820138812
20
29.716922829348619
30
0
10
-120.13263820138812
20
28.886757856847534
30
0
10
-120.28664217989106
20
28.246331998139183
30
0
10
-120.59516976556992
20
27.795645253223569
30
0
0
SPLINE
5
275
100
AcDbEntity
8
0
100
AcDbSpline
70
4
71
3
72
8
73
4
74
0
42
0.000000001
43
0.0000000001
44
0.0000000001
40
0
40
0
40
0
40
0
40
1
40
1
40
1
40
1
41
1
41
1
41
1
41
1
10
-120.59516976556992
20
27.795645253223569
30
0
10
-120.87980218794279
20
27.273850814451674
30
0
10
-121.29506305418553
20
26.71642594168976
30
0
10
-121.84044049127706
20
26.123422985587723
30
0
0
SPLINE
5
276
100
AcDbEntity
8
0
100
AcDbSpline
70
4
71
3
72
8
73
4
74
0
42
0.000000001
43
0.0000000001
44
0.0000000001
40
0
40
0
40
0
40
0
40
1
40
1
40
1
40
1
41
1
41
1
41
1
41
1
10
-121.84044049127706
20
26.123422985587723
30
0
10
-122.36243463808373
20
25.554155232472585
30
0
10
-123.13298191492323
20
24.783305485211486
30
0
10
-124.15309055653422
20
23.810773889787047
30
0
0
SPLINE
5
277
100
AcDbEntity
8
0
100
AcDbSpline
70
4
71
3
72
8
73
4
74
0
42
0.000000001
43
0.0000000001
44
0.0000000001
40
0
40
0
40
0
40
0
40
1
40
1
40
1
40
1
41
1
41
1
41
1
41
1
10
-124.15309055653422
20
23.810773889787047
30
0
10
-125.17319144249336
20
22.862028878542915
30
0
10
-125.88478025407733
20
22.186024936494441
30
0
10
-126.28784147998243
20
21.782758185815698
30
0
0
SPLINE
5
278
100
AcDbEntity
8
0
100
AcDbSpline
70
4
71
3
72
8
73
4
74
0
42
0.000000001
43
0.0000000001
44
0.0000000001
40
0
40
0
40
0
40
0
40
1
40
1
40
1
40
1
41
1
41
1
41
1
41
1
10
-126.28784147998243
20
21.782758185815698
30
0
10
-127.87721496633912
20
20.193588285319702
30
0
10
-129.06301535376954
20
18.663683198326755
30
0
10
-129.84576227094672
20
17.193040985923908
30
0
0
LINE
5
279
100
AcDbEntity
8
0
100
AcDbLine
10
-129.84576227094672
20
17.193040985923911
30
0
11
-127.46195410009635
21
17.050724774737485
31
0
0
SPLINE
5
280
100
AcDbEntity
8
0
100
AcDbSpline
70
4
71
3
72
8
73
4
74
0
42
0.000000001
43
0.0000000001
44
0.0000000001
40
0
40
0
40
0
40
0
40
1
40
1
40
1
40
1
41
1
41
1
41
1
41
1
10
-127.46195410009635
20
17.050724774737485
30
0
10
-127.10616357213028
20
17.904625919681951
30
0
10
-126.59636131000946
20
18.592523153820583
30
0
10
-125.93205095201637
20
19.114317592592478
30
0
0
SPLINE
5
281
100
AcDbEntity
8
0
100
AcDbSpline
70
4
71
3
72
8
73
4
74
0
42
0.000000001
43
0.0000000001
44
0.0000000001
40
0
40
0
40
0
40
0
40
1
40
1
40
1
40
1
41
1
41
1
41
1
41
1
10
-125.93205095201637
20
19.114317592592478
30
0
10
-125.24434954808657
20
19.65990055445765
30
0
10
-124.4849936768461
20
19.932639684740341
30
0
10
-123.65497606172991
20
19.932639684740341
30
0
0
SPLINE
5
282
100
AcDbEntity
8
0
100
AcDbSpline
70
4
71
3
72
8
73
4
74
0
42
0.000000001
43
0.0000000001
44
0.0000000001
40
0
40
0
40
0
40
0
40
1
40
1
40
1
40
1
41
1
41
1
41
1
41
1
10
-123.65497606172991
20
19.932639684740341
30
0
10
-122.70603328136396
20
19.932639684740341
30
0
10
-121.93548600452445
20
19.648007262367493
30
0
10
-121.34233375212459
20
19.078738539795875
30
0
0
SPLINE
5
283
100
AcDbEntity
8
0
100
AcDbSpline
70
4
71
3
72
8
73
4
74
0
42
0.000000001
43
0.0000000001
44
0.0000000001
40
0
40
0
40
0
40
0
40
1
40
1
40
1
40
1
41
1
41
1
41
1
41
1
10
-121.34233375212459
20
19.078738539795875
30
0
10
-120.74917374407286
20
18.533207928580598
30
0
10
-120.45285355438351
20
17.76230776958257
30
0
10
-120.45285355438351
20
16.766090413451678
30
0
0
SPLINE
5
284
100
AcDbEntity
8
0
100
AcDbSpline
70
4
71
3
72
8
73
4
74
0
42
0.000000001
43
0.0000000001
44
0.0000000001
40
0
40
0
40
0
40
0
40
1
40
1
40
1
40
1
41
1
41
1
41
1
41
1
10
-120.45285355438351
20
16.766090413451678
30
0
10
-120.45285355438351
20
15.769873057320787
30
0
10
-120.79694855938122
20
14.975287137616306
30
0
10
-121.484649963311
20
14.382284181514269
30
0
0
SPLINE
5
285
100
AcDbEntity
8
0
100
AcDbSpline
70
4
71
3
72
8
73
4
74
0
42
0.000000001
43
0.0000000001
44
0.0000000001
40
0
40
0
40
0
40
0
40
1
40
1
40
1
40
1
41
1
41
1
41
1
41
1
10
-121.484649963311
20
14.382284181514269
30
0
10
-122.17234361158894
20
13.789331637149163
30
0
10
-123.12129414760673
20
13.492803983773193
30
0
10
-124.33098194269134
20
13.492803983773193
30
0
0
SPLINE
5
286
100
AcDbEntity
8
0
100
AcDbSpline
70
4
71
3
72
8
73
4
74
0
42
0.000000001
43
0.0000000001
44
0.0000000001
40
0
40
0
40
0
40
0
40
1
40
1
40
1
40
1
41
1
41
1
41
1
41
1
10
-130.77081764365849
20
27.831224306020175
30
0
10
-131.60083525877468
20
27.831224306020175
30
0
10
-132.01609612501744
20
27.558484206281001
30
0
10
-132.01609612501744
20
27.012903183328795
30
0
0
SPLINE
5
287
100
AcDbEntity
8
0
100
AcDbSpline
70
4
71
3
72
8
73
4
74
0
42
0.000000001
43
0.0000000001
44
0.0000000001
40
0
40
0
40
0
40
0
40
1
40
1
40
1
40
1
41
1
41
1
41
1
41
1
10
-132.01609612501744
20
27.012903183328795
30
0
10
-132.01609612501744
20
26.467371602657039
30
0
10
-131.70756853933858
20
26.194581091180929
30
0
10
-131.09103299665384
20
26.194581091180929
30
0
0
SPLINE
5
288
100
AcDbEntity
8
0
100
AcDbSpline
70
4
71
3
72
8
73
4
74
0
42
0.000000001
43
0.0000000001
44
0.0000000001
40
0
40
0
40
0
40
0
40
1
40
1
40
1
40
1
41
1
41
1
41
1
41
1
10
-131.09103299665384
20
26.194581091180929
30
0
10
-130.1659776239421
20
26.194581091180929
30
0
10
-129.43050140470396
20
26.692689769246378
30
0
10
-128.88512396761243
20
27.688908094833753
30
0
0
LINE
5
289
100
AcDbEntity
8
0
100
AcDbLine
10
-128.88512396761243
20
27.688908094833753
30
0
11
-130.34386901009921
21
27.795645253223572
31
0
0
SPLINE
5
290
100
AcDbEntity
8
0
100
AcDbSpline
70
4
71
3
72
8
73
4
74
0
42
0.000000001
43
0.0000000001
44
0.0000000001
40
0
40
0
40
0
40
0
40
1
40
1
40
1
40
1
41
1
41
1
41
1
41
1
10
-130.34386901009921
20
27.795645253223569
30
0
10
-130.48618522128561
20
27.819381425666947
30
0
10
-130.62850143247206
20
27.831224306020175
30
0
10
-130.77081764365849
20
27.831224306020175
30
0
0
SPLINE
5
291
100
AcDbEntity
8
0
100
AcDbSpline
70
4
71
3
72
8
73
4
74
0
42
0.000000001
43
0.0000000001
44
0.0000000001
40
0
40
0
40
0
40
0
40
1
40
1
40
1
40
1
41
1
41
1
41
1
41
1
10
-124.04634952031849
20
16.801669466248281
30
0
10
-123.21633966085412
20
16.801669466248281
30
0
10
-122.80107879461134
20
17.074460947180867
30
0
10
-122.80107879461134
20
17.619991558396144
30
0
0
SPLINE
5
292
100
AcDbEntity
8
0
100
AcDbSpline
70
4
71
3
72
8
73
4
74
0
42
0.000000001
43
0.0000000001
44
0.0000000001
40
0
40
0
40
0
40
0
40
1
40
1
40
1
40
1
41
1
41
1
41
1
41
1
10
-122.80107879461134
20
17.619991558396144
30
0
10
-122.80107879461134
20
18.165574520261313
30
0
10
-123.10959862463838
20
18.438313650544004
30
0
10
-123.7261341673231
20
18.438313650544004
30
0
0
SPLINE
5
293
100
AcDbEntity
8
0
100
AcDbSpline
70
4
71
3
72
8
73
4
74
0
42
0.000000001
43
0.0000000001
44
0.0000000001
40
0
40
0
40
0
40
0
40
1
40
1
40
1
40
1
41
1
41
1
41
1
41
1
10
-123.7261341673231
20
18.438313650544004
30
0
10
-124.6511972956867
20
18.438313650544004
30
0
10
-125.38667351492485
20
17.940204972478561
30
0
10
-125.93205095201637
20
16.94398761634767
30
0
0
LINE
5
294
100
AcDbEntity
8
0
100
AcDbLine
10
-125.93205095201638
20
16.94398761634767
30
0
11
-124.47329815387775
21
16.837248519044891
31
0
0
SPLINE
5
295
100
AcDbEntity
8
0
100
AcDbSpline
70
4
71
3
72
8
73
4
74
0
42
0.000000001
43
0.0000000001
44
0.0000000001
40
0
40
0
40
0
40
0
40
1
40
1
40
1
40
1
41
1
41
1
41
1
41
1
10
-124.47329815387775
20
16.837248519044891
30
0
10
-124.33098194269134
20
16.813562758338438
30
0
10
-124.1886657315049
20
16.801669466248281
30
0
10
-124.04634952031849
20
16.801669466248281
30
0
0
SPLINE
5
296
100
AcDbEntity
8
0
100
AcDbSpline
70
4
71
3
72
8
73
4
74
0
42
0.000000001
43
0.0000000001
44
0.0000000001
40
0
40
0
40
0
40
0
40
1
40
1
40
1
40
1
41
1
41
1
41
1
41
1
10
-131.32992258449931
20
16.100353015520806
30
0
10
-133.97294790665671
20
15.897042480471946
30
0
10
-135.39611777417281
20
18.811133651028463
30
0
10
-135.65025497352738
20
19.912411005839687
30
0
0
SPLINE
5
297
100
AcDbEntity
8
0
100
AcDbSpline
70
4
71
3
72
8
73
4
74
0
42
0.000000001
43
0.0000000001
44
0.0000000001
40
0
40
0
40
0
40
0
40
1
40
1
40
1
40
1
41
1
41
1
41
1
41
1
10
-135.65025497352738
20
19.912411005839687
30
0
10
-137.42921536900954
20
18.895862208421317
30
0
10
-140.30808230784092
20
13.272008331660587
30
0
10
-138.44576416642789
20
14.575529819393251
30
0
0
SPLINE
5
298
100
AcDbEntity
8
0
100
AcDbSpline
70
4
71
3
72
8
73
4
74
0
42
0.000000001
43
0.0000000001
44
0.0000000001
40
0
40
0
40
0
40
0
40
1
40
1
40
1
40
1
41
1
41
1
41
1
41
1
10
-138.44576416642789
20
14.575529819393251
30
0
10
-135.90439217288198
20
16.354490214875398
30
0
10
-133.70204298803318
20
14.829667018747843
30
0
10
-133.10888297998144
20
14.067255420684068
30
0
0
LINE
5
299
100
AcDbEntity
8
0
100
AcDbLine
10
-133.10888297998144
20
14.06725542068407
30
0
11
-131.83819698320849
21
14.575529819393253
31
0
0
SPLINE
5
300
100
AcDbEntity
8
0
100
AcDbSpline
70
4
71
3
72
8
73
4
74
0
42
0.000000001
43
0.0000000001
44
0.0000000001
40
0
40
0
40
0
40
0
40
1
40
1
40
1
40
1
41
1
41
1
41
1
41
1
10
-131.83819698320849
20
14.575529819393251
30
0
10
-130.7367625764476
20
15.083804218102435
30
0
10
-128.68689726234192
20
16.303663550569659
30
0
10
-131.32992258449931
20
16.100353015520806
30
0
0
ENDSEC
0
SECTION
2
OBJECTS
0
DICTIONARY
5
C
100
AcDbDictionary
3
ACAD_GROUP
350
D
3
ACAD_MLINESTYLE
350
17
0
DICTIONARY
5
D
100
AcDbDictionary
0
DICTIONARY
5
1A
330
C
100
AcDbDictionary
0
DICTIONARY
5
17
100
AcDbDictionary
0
ENDSEC
0
EOF
