0
SECTION
2
HEADER
9
$INSUNITS
70
4
9
$ACADVER
1
AC1014
9
$HANDSEED
5
FFFF
0
ENDSEC
0
SECTION
2
TABLES
0
TABLE
2
VPORT
5
8
100
AcDbSymbolTable
0
ENDTAB
0
TABLE
2
LTYPE
5
5
100
AcDbSymbolTable
0
LTYPE
5
14
100
AcDbSymbolTableRecord
100
AcDbLinetypeTableRecord
2
BYBLOCK
70
0
0
LTYPE
5
15
100
AcDbSymbolTableRecord
100
AcDbLinetypeTableRecord
2
BYLAYER
70
0
0
ENDTAB
0
TABLE
2
LAYER
5
2
100
AcDbSymbolTable
70
2
0
LAYER
5
50
100
AcDbSymbolTableRecord
100
AcDbLayerTableRecord
2
0
70
0
6
CONTINUOUS
0
ENDTAB
0
TABLE
2
STYLE
5
3
100
AcDbSymbolTable
70
1
0
STYLE
5
11
100
AcDbSymbolTableRecord
100
AcDbTextStyleTableRecord
2
STANDARD
70
0
0
ENDTAB
0
TABLE
2
VIEW
5
6
100
AcDbSymbolTable
70
0
0
ENDTAB
0
TABLE
2
UCS
5
7
100
AcDbSymbolTable
70
0
0
ENDTAB
0
TABLE
2
APPID
5
9
100
AcDbSymbolTable
70
2
0
APPID
5
12
100
AcDbSymbolTableRecord
100
AcDbRegAppTableRecord
2
ACAD
70
0
0
ENDTAB
0
TABLE
2
DIMSTYLE
5
A
100
AcDbSymbolTable
70
1
0
ENDTAB
0
TABLE
2
BLOCK_RECORD
5
1
100
AcDbSymbolTable
70
1
0
BLOCK_RECORD
5
1F
100
AcDbSymbolTableRecord
100
AcDbBlockTableRecord
2
*MODEL_SPACE
0
BLOCK_RECORD
5
1B
100
AcDbSymbolTableRecord
100
AcDbBlockTableRecord
2
*PAPER_SPACE
0
ENDTAB
0
ENDSEC
0
SECTION
2
BLOCKS
0
BLOCK
5
20
100
AcDbEntity
100
AcDbBlockBegin
2
*MODEL_SPACE
0
ENDBLK
5
21
100
AcDbEntity
100
AcDbBlockEnd
0
BLOCK
5
1C
100
AcDbEntity
100
AcDbBlockBegin
2
*PAPER_SPACE
0
ENDBLK
5
1D
100
AcDbEntity
100
AcDbBlockEnd
0
ENDSEC
0
SECTION
2
ENTITIES
0
SPLINE
5
100
100
AcDbEntity
8
0
100
AcDbSpline
70
4
71
3
72
8
73
4
74
0
42
0.000000001
43
0.0000000001
44
0.0000000001
40
-1
40
-1
40
-1
40
-1
40
0
40
0
40
0
40
0
41
1
41
1
41
1
41
1
10
245.01517479962072
20
-3.6397147351226833
30
0
10
245.01517479962072
20
-3.0095479876602838
30
0
10
244.82001859788312
20
-2.6943681097097505
30
0
10
244.42932598229564
20
-2.6943681097097505
30
0
0
SPLINE
5
101
100
AcDbEntity
8
0
100
AcDbSpline
70
4
71
3
72
8
73
4
74
0
42
0.000000001
43
0.0000000001
44
0.0000000001
40
-1
40
-1
40
-1
40
-1
40
0
40
0
40
0
40
0
41
1
41
1
41
1
41
1
10
244.21629110413471
20
-5.1842248577457672
30
0
10
244.74888120191957
20
-4.6693247815193661
30
0
10
245.01517479962072
20
-4.1546148113490888
30
0
10
245.01517479962072
20
-3.6397147351226833
30
0
0
SPLINE
5
102
100
AcDbEntity
8
0
100
AcDbSpline
70
4
71
3
72
8
73
4
74
0
42
0.000000001
43
0.0000000001
44
0.0000000001
40
-1
40
-1
40
-1
40
-1
40
0
40
0
40
0
40
0
41
1
41
1
41
1
41
1
10
243.97662686620365
20
-3.2535875672647308
30
0
10
243.97662686620365
20
-3.2625269054763884
30
0
10
244.05651494551398
20
-3.9060097840151142
30
0
10
244.21629110413471
20
-5.1842248577457672
30
0
0
SPLINE
5
103
100
AcDbEntity
8
0
100
AcDbSpline
70
4
71
3
72
8
73
4
74
0
42
0.000000001
43
0.0000000001
44
0.0000000001
40
-1
40
-1
40
-1
40
-1
40
0
40
0
40
0
40
0
41
1
41
1
41
1
41
1
10
244.42932598229564
20
-2.6943681097097505
30
0
10
244.12765379266884
20
-2.6943681097097505
30
0
10
243.97662686620365
20
-2.8807750792918352
30
0
10
243.97662686620365
20
-3.2535875672647308
30
0
0
SPLINE
5
104
100
AcDbEntity
8
0
100
AcDbSpline
70
4
71
3
72
8
73
4
74
0
42
0.000000001
43
0.0000000001
44
0.0000000001
40
-1
40
-1
40
-1
40
-1
40
0
40
0
40
0
40
0
41
1
41
1
41
1
41
1
10
271.647695264319
20
-6.928474044131212
30
0
10
271.87842306642091
20
-6.928474044131212
30
0
10
272.13140053304579
20
-6.8752153245909797
30
0
10
272.4066334689586
20
-6.7686978855105151
30
0
0
SPLINE
5
105
100
AcDbEntity
8
0
100
AcDbSpline
70
4
71
3
72
8
73
4
74
0
42
0.000000001
43
0.0000000001
44
0.0000000001
40
-1
40
-1
40
-1
40
-1
40
0
40
0
40
0
40
0
41
1
41
1
41
1
41
1
10
270.28958920889545
20
-6.2760329618943427
30
0
10
270.62683445007787
20
-6.711007227837424
30
0
10
271.07953646855236
20
-6.928474044131212
30
0
10
271.647695264319
20
-6.928474044131212
30
0
0
SPLINE
5
106
100
AcDbEntity
8
0
100
AcDbSpline
70
4
71
3
72
8
73
4
74
0
42
0.000000001
43
0.0000000001
44
0.0000000001
40
-1
40
-1
40
-1
40
-1
40
0
40
0
40
0
40
0
41
1
41
1
41
1
41
1
10
269.70374329395293
20
-4.3587103512983605
30
0
10
269.76574979445741
20
-5.2108542175158856
30
0
10
269.96109755344241
20
-5.8499617543812121
30
0
10
270.28958920889545
20
-6.2760329618943427
30
0
0
SPLINE
5
107
100
AcDbEntity
8
0
100
AcDbSpline
70
4
71
3
72
8
73
4
74
0
42
0.000000001
43
0.0000000001
44
0.0000000001
40
-1
40
-1
40
-1
40
-1
40
0
40
0
40
0
40
0
41
1
41
1
41
1
41
1
10
269.69042716287657
20
-4.1323607932523698
30
0
10
269.69042716287657
20
-4.2033095343510629
30
0
10
269.69480395574124
20
-4.2788222719880098
30
0
10
269.70374329395293
20
-4.3587103512983605
30
0
0
SPLINE
5
108
100
AcDbEntity
8
0
100
AcDbSpline
70
4
71
3
72
8
73
4
74
0
42
0.000000001
43
0.0000000001
44
0.0000000001
40
-1
40
-1
40
-1
40
-1
40
0
40
0
40
0
40
0
41
1
41
1
41
1
41
1
10
269.99666915380669
20
-3.0938114086440338
30
0
10
269.79238205661005
20
-3.3511656681335378
30
0
10
269.69042716287657
20
-3.697348796336315
30
0
10
269.69042716287657
20
-4.1323607932523698
30
0
0
SPLINE
5
109
100
AcDbEntity
8
0
100
AcDbSpline
70
4
71
3
72
8
73
4
74
0
42
0.000000001
43
0.0000000001
44
0.0000000001
40
-1
40
-1
40
-1
40
-1
40
0
40
0
40
0
40
0
41
1
41
1
41
1
41
1
10
270.80886607798652
20
-2.7076827895948075
30
0
10
270.48037442253349
20
-2.7076827895948075
30
0
10
270.20970403196765
20
-2.8364556979632605
30
0
10
269.99666915380669
20
-3.0938114086440338
30
0
0
SPLINE
5
110
100
AcDbEntity
8
0
100
AcDbSpline
70
4
71
3
72
8
73
4
74
0
42
0.000000001
43
0.0000000001
44
0.0000000001
40
-1
40
-1
40
-1
40
-1
40
0
40
0
40
0
40
0
41
1
41
1
41
1
41
1
10
272.07376502064085
20
-3.8793804242450003
30
0
10
271.7895927465164
20
-3.0981852991261638
30
0
10
271.36808553554152
20
-2.7076827895948075
30
0
10
270.80886607798652
20
-2.7076827895948075
30
0
0
LINE
5
111
100
AcDbEntity
8
0
100
AcDbLine
10
272.07376502064085
20
-3.8793804242450003
30
0
11
272.4066334689586
21
-6.768697885510516
31
0
0
SPLINE
5
112
100
AcDbEntity
8
0
100
AcDbSpline
70
4
71
3
72
8
73
4
74
0
42
0.000000001
43
0.0000000001
44
0.0000000001
40
-1
40
-1
40
-1
40
-1
40
0
40
0
40
0
40
0
41
1
41
1
41
1
41
1
10
249.23746803711964
20
-3.3867343661153093
30
0
10
249.23746803711964
20
-3.5997706954675079
30
0
10
249.29510354952455
20
-4.1546148113490888
30
0
10
249.41056032681666
20
-5.0510766077039193
30
0
0
SPLINE
5
113
100
AcDbEntity
8
0
100
AcDbSpline
70
4
71
3
72
8
73
4
74
0
42
0.000000001
43
0.0000000001
44
0.0000000001
40
-1
40
-1
40
-1
40
-1
40
0
40
0
40
0
40
0
41
1
41
1
41
1
41
1
10
249.46381904635689
20
-2.8674603994067738
30
0
10
249.31298222594788
20
-3.0095479876602838
30
0
10
249.23746803711964
20
-3.1826388261660377
30
0
10
249.23746803711964
20
-3.3867343661153093
30
0
0
SPLINE
5
114
100
AcDbEntity
8
0
100
AcDbSpline
70
4
71
3
72
8
73
4
74
0
42
0.000000001
43
0.0000000001
44
0.0000000001
40
-1
40
-1
40
-1
40
-1
40
0
40
0
40
0
40
0
41
1
41
1
41
1
41
1
10
250.11624271429855
20
-2.6677387499396366
30
0
10
249.84100687600318
20
-2.6677387499396366
30
0
10
249.62359810736015
20
-2.7343136005561952
30
0
10
249.46381904635689
20
-2.8674603994067738
30
0
0
SPLINE
5
115
100
AcDbEntity
8
0
100
AcDbSpline
70
4
71
3
72
8
73
4
74
0
42
0.000000001
43
0.0000000001
44
0.0000000001
40
-1
40
-1
40
-1
40
-1
40
0
40
0
40
0
40
0
41
1
41
1
41
1
41
1
10
251.23467872702599
20
-3.2935316069199061
30
0
10
250.94175576955467
20
-2.8763997376184314
30
0
10
250.56894183039051
20
-2.6677387499396366
30
0
10
250.11624271429855
20
-2.6677387499396366
30
0
0
SPLINE
5
116
100
AcDbEntity
8
0
100
AcDbSpline
70
4
71
3
72
8
73
4
74
0
42
0.000000001
43
0.0000000001
44
0.0000000001
40
-1
40
-1
40
-1
40
-1
40
0
40
0
40
0
40
0
41
1
41
1
41
1
41
1
10
251.76726882481086
20
-5.2641129370561179
30
0
10
251.76726882481086
20
-4.4562884521671675
30
0
10
251.58980264463167
20
-3.7994923449346496
30
0
10
251.23467872702599
20
-3.2935316069199061
30
0
0
SPLINE
5
117
100
AcDbEntity
8
0
100
AcDbSpline
70
4
71
3
72
8
73
4
74
0
42
0.000000001
43
0.0000000001
44
0.0000000001
40
-1
40
-1
40
-1
40
-1
40
0
40
0
40
0
40
0
41
1
41
1
41
1
41
1
10
251.50097522710968
20
-6.3026623216644584
30
0
10
251.6784414072888
20
-6.0007985747902541
30
0
10
251.76726882481086
20
-5.6546154465874743
30
0
10
251.76726882481086
20
-5.2641129370561179
30
0
0
SPLINE
5
118
100
AcDbEntity
8
0
100
AcDbSpline
70
4
71
3
72
8
73
4
74
0
42
0.000000001
43
0.0000000001
44
0.0000000001
40
-1
40
-1
40
-1
40
-1
40
0
40
0
40
0
40
0
41
1
41
1
41
1
41
1
10
250.67546217185352
20
-6.7553832056254564
30
0
10
251.04827320863518
20
-6.7553832056254564
30
0
10
251.32350904693052
20
-6.6044883375656926
30
0
10
251.50097522710968
20
-6.3026623216644584
30
0
0
SPLINE
5
119
100
AcDbEntity
8
0
100
AcDbSpline
70
4
71
3
72
8
73
4
74
0
42
0.000000001
43
0.0000000001
44
0.0000000001
40
-1
40
-1
40
-1
40
-1
40
0
40
0
40
0
40
0
41
1
41
1
41
1
41
1
10
249.51707776589714
20
-5.8499617543812121
30
0
10
249.7833742659808
20
-6.453576055210708
30
0
10
250.1695014338388
20
-6.7553832056254564
30
0
10
250.67546217185352
20
-6.7553832056254564
30
0
0
LINE
5
120
100
AcDbEntity
8
0
100
AcDbLine
10
249.51707776589714
20
-5.8499617543812121
30
0
11
249.41056032681666
21
-5.0510766077039193
31
0
0
SPLINE
5
121
100
AcDbEntity
8
0
100
AcDbSpline
70
4
71
3
72
8
73
4
74
0
42
0.000000001
43
0.0000000001
44
0.0000000001
40
-1
40
-1
40
-1
40
-1
40
0
40
0
40
0
40
0
41
1
41
1
41
1
41
1
10
270.04992787334692
20
0.43459472400032784
30
0
10
270.04992787334692
20
-0.31103025194546774
30
0
10
270.64015058115416
20
-1.0344012097945443
30
0
10
271.82078755401602
20
-1.7357082556030301
30
0
0
SPLINE
5
122
100
AcDbEntity
8
0
100
AcDbSpline
70
4
71
3
72
8
73
4
74
0
42
0.000000001
43
0.0000000001
44
0.0000000001
40
-1
40
-1
40
-1
40
-1
40
0
40
0
40
0
40
0
41
1
41
1
41
1
41
1
10
270.24964662043152
20
0.99381418155530366
30
0
10
270.11650272396355
20
0.86066738270472509
30
0
10
270.04992787334692
20
0.67425896193137103
30
0
10
270.04992787334692
20
0.43459472400032784
30
0
0
SPLINE
5
123
100
AcDbEntity
8
0
100
AcDbSpline
70
4
71
3
72
8
73
4
74
0
42
0.000000001
43
0.0000000001
44
0.0000000001
40
-1
40
-1
40
-1
40
-1
40
0
40
0
40
0
40
0
41
1
41
1
41
1
41
1
10
270.72898090105872
20
1.2068490597162329
30
0
10
270.5513202612496
20
1.2068490597162329
30
0
10
270.39154410262893
20
1.1359003186175443
30
0
10
270.24964662043152
20
0.99381418155530366
30
0
0
SPLINE
5
124
100
AcDbEntity
8
0
100
AcDbSpline
70
4
71
3
72
8
73
4
74
0
42
0.000000001
43
0.0000000001
44
0.0000000001
40
-1
40
-1
40
-1
40
-1
40
0
40
0
40
0
40
0
41
1
41
1
41
1
41
1
10
271.59443654477877
20
0.26150243430330011
30
0
10
271.51454556308585
20
0.89167063295697346
30
0
10
271.22599649609674
20
1.2068490597162329
30
0
10
270.72898090105872
20
1.2068490597162329
30
0
0
LINE
5
125
100
AcDbEntity
8
0
100
AcDbLine
10
271.59443654477877
20
0.26150243430330011
30
0
11
271.82078755401602
21
-1.7357082556030301
31
0
0
SPLINE
5
126
100
AcDbEntity
8
0
100
AcDbSpline
70
4
71
3
72
8
73
4
74
0
42
0.000000001
43
0.0000000001
44
0.0000000001
40
0.39750314368067879
40
0.39750314368067879
40
0.39750314368067879
40
0.39750314368067879
40
1
40
1
40
1
40
1
41
1
41
1
41
1
41
1
10
254.58218302722611
20
-2.0872158909479359
30
0
10
254.0928381675339
20
-2.1576624405185152
30
0
10
253.54544574684653
20
-2.2238502672012359
30
0
10
253.02836564634265
20
-2.2637314544670994
30
0
0
SPLINE
5
127
100
AcDbEntity
8
0
100
AcDbSpline
70
4
71
3
72
8
73
4
74
0
42
0.000000001
43
0.0000000001
44
0.0000000001
40
0
40
0
40
0
40
0
40
0.53069265231896934
40
0.53069265231896934
40
0.53069265231896934
40
0.53069265231896934
41
1
41
1
41
1
41
1
10
253.02836564634265
20
-2.2637314544670994
30
0
10
252.79589376971438
20
-2.2816995101542599
30
0
10
252.56883152311718
20
-2.2944177397799494
30
0
10
252.3554244692715
20
-2.2997538272902958
30
0
0
SPLINE
5
128
100
AcDbEntity
8
0
100
AcDbSpline
70
4
71
3
72
8
73
4
74
0
42
0.000000001
43
0.0000000001
44
0.0000000001
40
0.050062301471809081
40
0.050062301471809081
40
0.050062301471809081
40
0.050062301471809081
40
1
40
1
40
1
40
1
41
1
41
1
41
1
41
1
10
252.35542446926922
20
-2.2997538272903615
30
0
10
251.68636554571421
20
-1.7551241868654388
30
0
10
250.82901713657856
20
-1.4827278865956559
30
0
10
249.7833742659808
20
-1.4827278865956561
30
0
0
SPLINE
5
129
100
AcDbEntity
8
0
100
AcDbSpline
70
4
71
3
72
8
73
4
74
0
42
0.000000001
43
0.0000000001
44
0.0000000001
40
0
40
0
40
0
40
0
40
1
40
1
40
1
40
1
41
1
41
1
41
1
41
1
10
249.7833742659808
20
-1.4827278865956561
30
0
10
249.33961158571799
20
-1.5004164569628475
30
0
10
248.95348441786001
20
-1.5803059874644632
30
0
10
248.62499276240698
20
-1.7223921245267038
30
0
0
SPLINE
5
130
100
AcDbEntity
8
0
100
AcDbSpline
70
4
71
3
72
8
73
4
74
0
42
0.000000001
43
0.0000000001
44
0.0000000001
40
0
40
0
40
0
40
0
40
1
40
1
40
1
40
1
41
1
41
1
41
1
41
1
10
248.62499276240698
20
-1.7223921245267038
30
0
10
248.29649820457138
20
-1.8644797127802093
30
0
10
248.05245717377568
20
-2.041945892959367
30
0
10
247.89268101515495
20
-2.2549822223115656
30
0
0
SPLINE
5
131
100
AcDbEntity
8
0
100
AcDbSpline
70
4
71
3
72
8
73
4
74
0
42
0.000000001
43
0.0000000001
44
0.0000000001
40
0
40
0
40
0
40
0
40
0.73186187021542071
40
0.73186187021542071
40
0.73186187021542071
40
0.73186187021542071
41
1
41
1
41
1
41
1
10
247.89268101515495
20
-2.2549822223115656
30
0
10
247.67175738674581
20
-2.5407761192609963
30
0
10
247.53172784938636
20
-2.8028315895379556
30
0
10
247.4725173124115
20
-3.0411486331424431
30
0
0
SPLINE
5
132
100
AcDbEntity
8
0
100
AcDbSpline
70
4
71
3
72
8
73
4
74
0
42
0.000000001
43
0.0000000001
44
0.0000000001
40
0.1373901584842194
40
0.1373901584842194
40
0.1373901584842194
40
0.1373901584842194
40
1
40
1
40
1
40
1
41
1
41
1
41
1
41
1
10
247.47251731241076
20
-3.0411486331430253
30
0
10
247.28698429508535
20
-3.1929461900646059
30
0
10
247.09890987281563
20
-3.2784576177137206
30
0
10
246.91366675232149
20
-3.31160184059061
30
0
0
SPLINE
5
133
100
AcDbEntity
8
0
100
AcDbSpline
70
4
71
3
72
8
73
4
74
0
42
0.000000001
43
0.0000000001
44
0.0000000001
40
0
40
0
40
0
40
0
40
1
40
1
40
1
40
1
41
1
41
1
41
1
41
1
10
246.91366675232149
20
-3.31160184059061
30
0
10
246.69929968057644
20
-3.3500250317967906
30
0
10
246.49539279549202
20
-3.316737606488509
30
0
10
246.3122205312466
20
-3.2440764596934324
30
0
0
SPLINE
5
134
100
AcDbEntity
8
0
100
AcDbSpline
70
4
71
3
72
8
73
4
74
0
42
0.000000001
43
0.0000000001
44
0.0000000001
40
0
40
0
40
0
40
0
40
0.7434666550036847
40
0.7434666550036847
40
0.7434666550036847
40
0.7434666550036847
41
1
41
1
41
1
41
1
10
246.3122205312466
20
-3.2440764596934324
30
0
10
246.12258442878132
20
-3.1688439037673528
30
0
10
245.95302737794719
20
-3.0508206364193509
30
0
10
245.8119938486939
20
-2.9222101447458999
30
0
0
SPLINE
5
135
100
AcDbEntity
8
0
100
AcDbSpline
70
4
71
3
72
8
73
4
74
0
42
0.000000001
43
0.0000000001
44
0.0000000001
40
0.34628615040110278
40
0.34628615040110278
40
0.34628615040110278
40
0.34628615040110278
40
1
40
1
40
1
40
1
41
1
41
1
41
1
41
1
10
245.81199384869379
20
-2.922210144745907
30
0
10
245.72560435239907
20
-2.5497635567016665
30
0
10
245.55765806402491
20
-2.2474659564519177
30
0
10
245.30810065947458
20
-2.0153165331892486
30
0
0
SPLINE
5
136
100
AcDbEntity
8
0
100
AcDbSpline
70
4
71
3
72
8
73
4
74
0
42
0.000000001
43
0.0000000001
44
0.0000000001
40
0
40
0
40
0
40
0
40
1
40
1
40
1
40
1
41
1
41
1
41
1
41
1
10
245.30810065947458
20
-2.0153165331892486
30
0
10
244.92653893934613
20
-1.6601940667748138
30
0
10
244.44720756110146
20
-1.4827278865956561
30
0
10
243.87010797593192
20
-1.4827278865956561
30
0
0
SPLINE
5
137
100
AcDbEntity
8
0
100
AcDbSpline
70
4
71
3
72
8
73
4
74
0
42
0.000000001
43
0.0000000001
44
0.0000000001
40
0
40
0
40
0
40
0
40
1
40
1
40
1
40
1
41
1
41
1
41
1
41
1
10
243.87010797593192
20
-1.4827278865956561
30
0
10
243.29319994800977
20
-1.4827278865956561
30
0
10
242.87150263097874
20
-1.6601940667748138
30
0
10
242.60520758208631
20
-2.0153165331892486
30
0
0
SPLINE
5
138
100
AcDbEntity
8
0
100
AcDbSpline
70
4
71
3
72
8
73
4
74
0
42
0.000000001
43
0.0000000001
44
0.0000000001
40
0
40
0
40
0
40
0
40
0.93222677851373204
40
0.93222677851373204
40
0.93222677851373204
40
0.93222677851373204
41
1
41
1
41
1
41
1
10
242.60520758208631
20
-2.0153165331892486
30
0
10
242.35696155936253
20
-2.3545288273788123
30
0
10
242.22442507050701
20
-2.7749038891366866
30
0
10
242.20760046688105
20
-3.276133690126724
30
0
0
SPLINE
5
139
100
AcDbEntity
8
0
100
AcDbSpline
70
4
71
3
72
8
73
4
74
0
42
0.000000001
43
0.0000000001
44
0.0000000001
40
0.61630807784750696
40
0.61630807784750696
40
0.61630807784750696
40
0.61630807784750696
40
1
40
1
40
1
40
1
41
1
41
1
41
1
41
1
10
242.20760046688093
20
-3.2761336901265765
30
0
10
241.98815640213255
20
-3.0269929300502305
30
0
10
241.7353891886589
20
-2.7798123503710559
30
0
10
241.44929890843338
20
-2.5345919510890536
30
0
0
SPLINE
5
140
100
AcDbEntity
8
0
100
AcDbSpline
70
4
71
3
72
8
73
4
74
0
42
0.000000001
43
0.0000000001
44
0.0000000001
40
0
40
0
40
0
40
0
40
1
40
1
40
1
40
1
41
1
41
1
41
1
41
1
10
241.44929890843338
20
-2.5345919510890536
30
0
10
241.07648642046044
20
-2.2239775208680479
30
0
10
240.63272519138889
20
-1.9709986030519433
30
0
10
240.11782511516245
20
-1.775652295258201
30
0
0
SPLINE
5
141
100
AcDbEntity
8
0
100
AcDbSpline
70
4
71
3
72
8
73
4
74
0
42
0.000000001
43
0.0000000001
44
0.0000000001
40
0
40
0
40
0
40
0
40
1
40
1
40
1
40
1
41
1
41
1
41
1
41
1
10
240.11782511516245
20
-1.775652295258201
30
0
10
239.61186437714773
20
-1.5803059874644632
30
0
10
239.08821506876578
20
-1.4827278865956561
30
0
10
238.54666676728277
20
-1.4827278865956561
30
0
0
SPLINE
5
142
100
AcDbEntity
8
0
100
AcDbSpline
70
4
71
3
72
8
73
4
74
0
42
0.000000001
43
0.0000000001
44
0.0000000001
40
0
40
0
40
0
40
0
40
1
40
1
40
1
40
1
41
1
41
1
41
1
41
1
10
238.54666676728277
20
-1.4827278865956561
30
0
10
237.65901079954293
20
-1.4827278865956561
30
0
10
236.95778066687166
20
-1.7533968259702171
30
0
10
236.442938638296
20
-2.2949262619667365
30
0
0
SPLINE
5
143
100
AcDbEntity
8
0
100
AcDbSpline
70
4
71
3
72
8
73
4
74
0
42
0.000000001
43
0.0000000001
44
0.0000000001
40
0
40
0
40
0
40
0
40
0.9977404183921742
40
0.9977404183921742
40
0.9977404183921742
40
0.9977404183921742
41
1
41
1
41
1
41
1
10
236.442938638296
20
-2.2949262619667365
30
0
10
235.89384545321437
20
-2.879451306079241
30
0
10
235.61866911007917
20
-3.6273868611737137
30
0
10
235.61742834678154
20
-4.5389217475355279
30
0
0
SPLINE
5
144
100
AcDbEntity
8
0
100
AcDbSpline
70
4
71
3
72
8
73
4
74
0
42
0.000000001
43
0.0000000001
44
0.0000000001
40
0.52669521998008217
40
0.52669521998008217
40
0.52669521998008217
40
0.52669521998008217
40
1
40
1
40
1
40
1
41
1
41
1
41
1
41
1
10
235.61742834678148
20
-4.5389217475355279
30
0
10
235.5149690567147
20
-4.5909382064687811
30
0
10
235.41248416496342
20
-4.6248897537999953
30
0
10
235.31084256216167
20
-4.6430756338614998
30
0
0
SPLINE
5
145
100
AcDbEntity
8
0
100
AcDbSpline
70
4
71
3
72
8
73
4
74
0
42
0.000000001
43
0.0000000001
44
0.0000000001
40
0
40
0
40
0
40
0
40
1
40
1
40
1
40
1
41
1
41
1
41
1
41
1
10
235.31084256216167
20
-4.6430756338614998
30
0
10
235.09640002847067
20
-4.6814988250676759
30
0
10
234.892551191037
20
-4.6482113997593988
30
0
10
234.7093397446273
20
-4.5755502529643177
30
0
0
SPLINE
5
146
100
AcDbEntity
8
0
100
AcDbSpline
70
4
71
3
72
8
73
4
74
0
42
0.000000001
43
0.0000000001
44
0.0000000001
40
0
40
0
40
0
40
0
40
0.23828998124815171
40
0.23828998124815171
40
0.23828998124815171
40
0.23828998124815171
41
1
41
1
41
1
41
1
10
234.7093397446273
20
-4.5755502529643177
30
0
10
234.64856774409921
20
-4.5514373163312865
30
0
10
234.58985974159592
20
-4.5229285780920323
30
0
10
234.53349187118016
20
-4.4910843553470885
30
0
0
SPLINE
5
147
100
AcDbEntity
8
0
100
AcDbSpline
70
4
71
3
72
8
73
4
74
0
42
0.000000001
43
0.0000000001
44
0.0000000001
40
0.54472615452179596
40
0.54472615452179596
40
0.54472615452179596
40
0.54472615452179596
40
1
40
1
40
1
40
1
41
1
41
1
41
1
41
1
10
234.53349187118005
20
-4.4910843553465902
30
0
10
234.3843921210601
20
-3.9886078055111964
30
0
10
234.21689216262408
20
-3.5716832940110219
30
0
10
234.03099199587186
20
-3.2402728873796693
30
0
0
SPLINE
5
148
100
AcDbEntity
8
0
100
AcDbSpline
70
4
71
3
72
8
73
4
74
0
42
0.000000001
43
0.0000000001
44
0.0000000001
40
0
40
0
40
0
40
0
40
1
40
1
40
1
40
1
41
1
41
1
41
1
41
1
10
234.03099199587186
20
-3.2402728873796693
30
0
10
233.84458647748104
20
-2.9296584571586637
30
0
10
233.63155014812884
20
-2.6321700519578606
30
0
10
233.39188445900652
20
-2.3481849815069733
30
0
0
SPLINE
5
149
100
AcDbEntity
8
0
100
AcDbSpline
70
4
71
3
72
8
73
4
74
0
42
0.000000001
43
0.0000000001
44
0.0000000001
40
0
40
0
40
0
40
0
40
1
40
1
40
1
40
1
41
1
41
1
41
1
41
1
10
233.39188445900652
20
-2.3481849815069733
30
0
10
232.89480791393527
20
-1.7712769535848016
30
0
10
232.19799085391034
20
-1.4827278865956561
30
0
10
231.30147100990479
20
-1.4827278865956561
30
0
0
SPLINE
5
150
100
AcDbEntity
8
0
100
AcDbSpline
70
4
71
3
72
8
73
4
74
0
42
0.000000001
43
0.0000000001
44
0.0000000001
40
0
40
0
40
0
40
0
40
1
40
1
40
1
40
1
41
1
41
1
41
1
41
1
10
231.30147100990479
20
-1.4827278865956561
30
0
10
230.41381576776058
20
-1.4827278865956561
30
0
10
229.77915903451461
20
-1.8644797127802093
30
0
10
229.39746380478951
20
-2.6277947102844612
30
0
0
SPLINE
5
151
100
AcDbEntity
8
0
100
AcDbSpline
70
4
71
3
72
8
73
4
74
0
42
0.000000001
43
0.0000000001
44
0.0000000001
40
0
40
0
40
0
40
0
40
1
40
1
40
1
40
1
41
1
41
1
41
1
41
1
10
229.39746380478951
20
-2.6277947102844612
30
0
10
228.9092504103883
20
-1.8644797127802093
30
0
10
228.16807623806184
20
-1.4827278865956561
30
0
10
227.17390210564591
20
-1.4827278865956561
30
0
0
SPLINE
5
152
100
AcDbEntity
8
0
100
AcDbSpline
70
4
71
3
72
8
73
4
74
0
42
0.000000001
43
0.0000000001
44
0.0000000001
40
0
40
0
40
0
40
0
40
1
40
1
40
1
40
1
41
1
41
1
41
1
41
1
10
227.17390210564591
20
-1.4827278865956561
30
0
10
226.53479529437621
20
-1.4827278865956561
30
0
10
226.03771802370932
20
-1.664759514504337
30
0
10
225.6826517909565
20
-2.0286312130743056
30
0
0
SPLINE
5
153
100
AcDbEntity
8
0
100
AcDbSpline
70
4
71
3
72
8
73
4
74
0
42
0.000000001
43
0.0000000001
44
0.0000000001
40
0
40
0
40
0
40
0
40
1
40
1
40
1
40
1
41
1
41
1
41
1
41
1
10
225.6826517909565
20
-2.0286312130743056
30
0
10
225.33646866275373
20
-2.4014451522384705
30
0
10
225.16337709865235
20
-2.8940897591768922
30
0
10
225.16337709865235
20
-3.5065679362721003
30
0
0
SPLINE
5
154
100
AcDbEntity
8
0
100
AcDbSpline
70
4
71
3
72
8
73
4
74
0
42
0.000000001
43
0.0000000001
44
0.0000000001
40
0
40
0
40
0
40
0
40
1
40
1
40
1
40
1
41
1
41
1
41
1
41
1
10
225.16337709865235
20
-3.5065679362721003
30
0
10
225.16337709865235
20
-3.586456015582451
30
0
10
225.17225984040454
20
-3.7062881345479726
30
0
10
225.19000645842249
20
-3.8660657443599389
30
0
0
LINE
5
155
100
AcDbEntity
8
0
100
AcDbLine
10
225.19000645842249
20
-3.8660657443599389
30
0
11
225.6826517909565
21
-7.6208403005367735
31
0
0
SPLINE
5
156
100
AcDbEntity
8
0
100
AcDbSpline
70
4
71
3
72
8
73
4
74
0
42
0.000000001
43
0.0000000001
44
0.0000000001
40
0
40
0
40
0
40
0
40
1
40
1
40
1
40
1
41
1
41
1
41
1
41
1
10
225.6826517909565
20
-7.6208403005367735
30
0
10
224.73287359020856
20
-8.3043238151901306
30
0
10
224.25797487569241
20
-9.0721476639644507
30
0
10
224.25797487569241
20
-9.92429007899071
30
0
0
SPLINE
5
157
100
AcDbEntity
8
0
100
AcDbSpline
70
4
71
3
72
8
73
4
74
0
42
0.000000001
43
0.0000000001
44
0.0000000001
40
0
40
0
40
0
40
0
40
1
40
1
40
1
40
1
41
1
41
1
41
1
41
1
10
224.25797487569241
20
-9.92429007899071
30
0
10
224.25797487569241
20
-10.465762918527773
30
0
10
224.44438111967884
20
-10.896266064173759
30
0
10
224.81719397044955
20
-11.215819832606421
30
0
0
SPLINE
5
158
100
AcDbEntity
8
0
100
AcDbSpline
70
4
71
3
72
8
73
4
74
0
42
0.000000001
43
0.0000000001
44
0.0000000001
40
0
40
0
40
0
40
0
40
1
40
1
40
1
40
1
41
1
41
1
41
1
41
1
10
224.81719397044955
20
-11.215819832606421
30
0
10
225.19000645842249
20
-11.535373601039085
30
0
10
225.64270775130132
20
-11.695151210851051
30
0
10
226.17529676069273
20
-11.695151210851051
30
0
0
SPLINE
5
159
100
AcDbEntity
8
0
100
AcDbSpline
70
4
71
3
72
8
73
4
74
0
42
0.000000001
43
0.0000000001
44
0.0000000001
40
0
40
0
40
0
40
0
40
1
40
1
40
1
40
1
41
1
41
1
41
1
41
1
10
226.17529676069273
20
-11.695151210851051
30
0
10
227.3381109279951
20
-11.695151210851051
30
0
10
227.91952780718734
20
-11.118185135278155
30
0
10
227.91952780718734
20
-9.9642341186458836
30
0
0
SPLINE
5
160
100
AcDbEntity
8
0
100
AcDbSpline
70
4
71
3
72
8
73
4
74
0
42
0.000000001
43
0.0000000001
44
0.0000000001
40
0
40
0
40
0
40
0
40
1
40
1
40
1
40
1
41
1
41
1
41
1
41
1
10
227.91952780718734
20
-9.9642341186458836
30
0
10
227.91952780718734
20
-9.9464875006279669
30
0
10
227.91509586905448
20
-9.92429007899071
30
0
10
227.90621312730227
20
-9.8976607192205925
30
0
0
SPLINE
5
161
100
AcDbEntity
8
0
100
AcDbSpline
70
4
71
3
72
8
73
4
74
0
42
0.000000001
43
0.0000000001
44
0.0000000001
40
0
40
0
40
0
40
0
40
1
40
1
40
1
40
1
41
1
41
1
41
1
41
1
10
227.90621312730227
20
-9.8976607192205925
30
0
10
227.90621312730227
20
-9.8710313594504751
30
0
10
227.90178118916941
20
-9.8266553816624445
30
0
10
227.89289844741722
20
-9.7645139203700104
30
0
0
SPLINE
5
162
100
AcDbEntity
8
0
100
AcDbSpline
70
4
71
3
72
8
73
4
74
0
42
0.000000001
43
0.0000000001
44
0.0000000001
40
0
40
0
40
0
40
0
40
1
40
1
40
1
40
1
41
1
41
1
41
1
41
1
10
227.89289844741722
20
-9.7645139203700104
30
0
10
227.89289844741722
20
-9.711255200829779
30
0
10
227.88401570566504
20
-9.6446803502132195
30
0
10
227.86626908764708
20
-9.5647922709028705
30
0
0
SPLINE
5
163
100
AcDbEntity
8
0
100
AcDbSpline
70
4
71
3
72
8
73
4
74
0
42
0.000000001
43
0.0000000001
44
0.0000000001
40
0
40
0
40
0
40
0
40
1
40
1
40
1
40
1
41
1
41
1
41
1
41
1
10
227.86626908764708
20
-9.5647922709028705
30
0
10
227.85738634589492
20
-9.4937869333447225
30
0
10
227.83963900228139
20
-9.382818690644914
30
0
10
227.81300964251125
20
-9.2319238225851485
30
0
0
SPLINE
5
164
100
AcDbEntity
8
0
100
AcDbSpline
70
4
71
3
72
8
73
4
74
0
42
0.000000001
43
0.0000000001
44
0.0000000001
40
0
40
0
40
0
40
0
40
1
40
1
40
1
40
1
41
1
41
1
41
1
41
1
10
227.81300964251125
20
-9.2319238225851485
30
0
10
227.79526302449335
20
-9.0810304057166533
30
0
10
227.77306560285606
20
-8.9123700541524862
30
0
10
227.74643624308595
20
-8.7259645357616726
30
0
0
SPLINE
5
165
100
AcDbEntity
8
0
100
AcDbSpline
70
4
71
3
72
8
73
4
74
0
42
0.000000001
43
0.0000000001
44
0.0000000001
40
0
40
0
40
0
40
0
40
1
40
1
40
1
40
1
41
1
41
1
41
1
41
1
10
227.74643624308595
20
-8.7259645357616726
30
0
10
227.71980688331584
20
-8.5484403079317914
30
0
10
227.68429405619787
20
-8.3087746188094762
30
0
10
227.63991807840983
20
-8.006967468394727
30
0
0
SPLINE
5
166
100
AcDbEntity
8
0
100
AcDbSpline
70
4
71
3
72
8
73
4
74
0
42
0.000000001
43
0.0000000001
44
0.0000000001
40
0
40
0
40
0
40
0
40
1
40
1
40
1
40
1
41
1
41
1
41
1
41
1
10
227.63991807840983
20
-8.006967468394727
30
0
10
227.5955421006218
20
-7.7051617691712471
30
0
10
227.54671531921446
20
-7.3767441244728698
30
0
10
227.49345587407859
20
-7.0216782545178873
30
0
0
SPLINE
5
167
100
AcDbEntity
8
0
100
AcDbSpline
70
4
71
3
72
8
73
4
74
0
42
0.000000001
43
0.0000000001
44
0.0000000001
40
0
40
0
40
0
40
0
40
1
40
1
40
1
40
1
41
1
41
1
41
1
41
1
10
227.49345587407859
20
-7.0216782545178873
30
0
10
227.44907989629056
20
-6.6754936751238407
30
0
10
227.39137037313097
20
-6.2494036021242261
30
0
10
227.32036430997721
20
-5.7434443153007475
30
0
0
SPLINE
5
168
100
AcDbEntity
8
0
100
AcDbSpline
70
4
71
3
72
8
73
4
74
0
42
0.000000001
43
0.0000000001
44
0.0000000001
40
0
40
0
40
0
40
0
40
1
40
1
40
1
40
1
41
1
41
1
41
1
41
1
10
227.32036430997721
20
-5.7434443153007475
30
0
10
227.24935897241903
20
-5.237483577286004
30
0
10
227.18721751112662
20
-4.8070370280994723
30
0
10
227.13395806599073
20
-4.4519145616850331
30
0
0
SPLINE
5
169
100
AcDbEntity
8
0
100
AcDbSpline
70
4
71
3
72
8
73
4
74
0
42
0.000000001
43
0.0000000001
44
0.0000000001
40
0
40
0
40
0
40
0
40
1
40
1
40
1
40
1
41
1
41
1
41
1
41
1
10
227.13395806599073
20
-4.4519145616850331
30
0
10
227.0806993464505
20
-4.0967906440793289
30
0
10
227.05406998668039
20
-3.8394363845898249
30
0
10
227.05406998668039
20
-3.6796587747778586
30
0
0
SPLINE
5
170
100
AcDbEntity
8
0
100
AcDbSpline
70
4
71
3
72
8
73
4
74
0
42
0.000000001
43
0.0000000001
44
0.0000000001
40
0
40
0
40
0
40
0
40
1
40
1
40
1
40
1
41
1
41
1
41
1
41
1
10
227.05406998668039
20
-3.6796587747778586
30
0
10
227.05406998668039
20
-3.0848706192411068
30
0
10
227.28485220845488
20
-2.7875723200964275
30
0
10
227.74643624308595
20
-2.7875723200964275
30
0
0
SPLINE
5
171
100
AcDbEntity
8
0
100
AcDbSpline
70
4
71
3
72
8
73
4
74
0
42
0.000000001
43
0.0000000001
44
0.0000000001
40
0
40
0
40
0
40
0
40
1
40
1
40
1
40
1
41
1
41
1
41
1
41
1
10
227.74643624308595
20
-2.7875723200964275
30
0
10
228.38554377995126
20
-2.7875723200964275
30
0
10
228.78055368956143
20
-3.3690457957481224
30
0
10
228.93144783202555
20
-4.5318026409953838
30
0
0
LINE
5
172
100
AcDbEntity
8
0
100
AcDbLine
10
228.93144783202555
20
-4.5318026409953838
30
0
11
229.78359097264746
21
-11.255763872261594
31
0
0
SPLINE
5
173
100
AcDbEntity
8
0
100
AcDbSpline
70
4
71
3
72
8
73
4
74
0
42
0.000000001
43
0.0000000001
44
0.0000000001
40
0
40
0
40
0
40
0
40
1
40
1
40
1
40
1
41
1
41
1
41
1
41
1
10
229.78359097264746
20
-11.255763872261594
30
0
10
230.07651538131
20
-11.388912122303445
30
0
10
230.42713044764565
20
-11.455485521728736
30
0
10
230.83545503714083
20
-11.455485521728736
30
0
0
SPLINE
5
174
100
AcDbEntity
8
0
100
AcDbSpline
70
4
71
3
72
8
73
4
74
0
42
0.000000001
43
0.0000000001
44
0.0000000001
40
0
40
0
40
0
40
0
40
1
40
1
40
1
40
1
41
1
41
1
41
1
41
1
10
230.83545503714083
20
-11.455485521728736
30
0
10
231.40355723644802
20
-11.455485521728736
30
0
10
231.68759890335838
20
-11.233566450624338
30
0
10
231.68759890335838
20
-10.789748625093292
30
0
0
LINE
5
175
100
AcDbEntity
8
0
100
AcDbLine
10
231.68759890335835
20
-10.789748625093292
30
0
11
231.67428422347331
21
-10.616656335396268
31
0
0
SPLINE
5
176
100
AcDbEntity
8
0
100
AcDbSpline
70
4
71
3
72
8
73
4
74
0
42
0.000000001
43
0.0000000001
44
0.0000000001
40
0
40
0
40
0
40
0
40
1
40
1
40
1
40
1
41
1
41
1
41
1
41
1
10
231.67428422347331
20
-10.616656335396268
30
0
10
231.33698383702273
20
-8.0247140864126436
30
0
10
231.11506476591836
20
-6.4269466954405914
30
0
10
231.00854732683788
20
-5.8233323946110964
30
0
0
SPLINE
5
177
100
AcDbEntity
8
0
100
AcDbSpline
70
4
71
3
72
8
73
4
74
0
42
0.000000001
43
0.0000000001
44
0.0000000001
40
0
40
0
40
0
40
0
40
1
40
1
40
1
40
1
41
1
41
1
41
1
41
1
10
231.00854732683788
20
-5.8233323946110964
30
0
10
230.83102382460365
20
-4.8291009401400631
30
0
10
230.74225227794545
20
-4.070161284309215
30
0
10
230.74225227794545
20
-3.5465119759272756
30
0
0
SPLINE
5
178
100
AcDbEntity
8
0
100
AcDbSpline
70
4
71
3
72
8
73
4
74
0
42
0.000000001
43
0.0000000001
44
0.0000000001
40
0
40
0
40
0
40
0
40
1
40
1
40
1
40
1
41
1
41
1
41
1
41
1
10
230.74225227794545
20
-3.5465119759272756
30
0
10
230.74225227794545
20
-3.0316118997008745
30
0
10
230.96417062345421
20
-2.7742576402113661
30
0
10
231.40798917458088
20
-2.7742576402113661
30
0
0
SPLINE
5
179
100
AcDbEntity
8
0
100
AcDbSpline
70
4
71
3
72
8
73
4
74
0
42
0.000000001
43
0.0000000001
44
0.0000000001
40
0
40
0
40
0
40
0
40
1
40
1
40
1
40
1
41
1
41
1
41
1
41
1
10
231.40798917458088
20
-2.7742576402113661
30
0
10
231.78080166255376
20
-2.7742576402113661
30
0
10
232.11367083646712
20
-3.0405512379125321
30
0
10
232.40659379393844
20
-3.573141335697394
30
0
0
SPLINE
5
180
100
AcDbEntity
8
0
100
AcDbSpline
70
4
71
3
72
8
73
4
74
0
42
0.000000001
43
0.0000000001
44
0.0000000001
40
0
40
0
40
0
40
0
40
1
40
1
40
1
40
1
41
1
41
1
41
1
41
1
10
232.40659379393844
20
-3.573141335697394
30
0
10
232.69951820260098
20
-4.1146707716939135
30
0
10
232.92143727370535
20
-4.7847830100027577
30
0
10
233.07233069057386
20
-5.5836667054887812
30
0
0
SPLINE
5
181
100
AcDbEntity
8
0
100
AcDbSpline
70
4
71
3
72
8
73
4
74
0
42
0.000000001
43
0.0000000001
44
0.0000000001
40
0
40
0
40
0
40
0
40
1
40
1
40
1
40
1
41
1
41
1
41
1
41
1
10
233.07233069057386
20
-5.5836667054887812
30
0
10
233.38300171725433
20
-7.2524597506967332
30
0
10
233.53834738893343
20
-8.6949032378586981
30
0
10
233.53834738893343
20
-9.9109753991056504
30
0
0
SPLINE
5
182
100
AcDbEntity
8
0
100
AcDbSpline
70
4
71
3
72
8
73
4
74
0
42
0.000000001
43
0.0000000001
44
0.0000000001
40
0
40
0
40
0
40
0
40
1
40
1
40
1
40
1
41
1
41
1
41
1
41
1
10
233.53834738893343
20
-9.9109753991056504
30
0
10
233.53834738893343
20
-10.479077598412829
30
0
10
233.48952060752606
20
-10.971722205351249
30
0
10
233.39188445900652
20
-11.388912122303445
30
0
0
SPLINE
5
183
100
AcDbEntity
8
0
100
AcDbSpline
70
4
71
3
72
8
73
4
74
0
42
0.000000001
43
0.0000000001
44
0.0000000001
40
0
40
0
40
0
40
0
40
1
40
1
40
1
40
1
41
1
41
1
41
1
41
1
10
233.39188445900652
20
-11.388912122303445
30
0
10
233.74695178015276
20
-11.601947000464376
30
0
10
234.17302298766589
20
-11.708465890736107
30
0
10
234.67009953273717
20
-11.708465890736107
30
0
0
SPLINE
5
184
100
AcDbEntity
8
0
100
AcDbSpline
70
4
71
3
72
8
73
4
74
0
42
0.000000001
43
0.0000000001
44
0.0000000001
40
0
40
0
40
0
40
0
40
1
40
1
40
1
40
1
41
1
41
1
41
1
41
1
10
234.67009953273717
20
-11.708465890736107
30
0
10
235.16717752899973
20
-11.708465890736107
30
0
10
235.41572450868298
20
-11.415541482073561
30
0
10
235.41572450868298
20
-10.829692664748467
30
0
0
SPLINE
5
185
100
AcDbEntity
8
0
100
AcDbSpline
70
4
71
3
72
8
73
4
74
0
42
0.000000001
43
0.0000000001
44
0.0000000001
40
0
40
0
40
0
40
0
40
1
40
1
40
1
40
1
41
1
41
1
41
1
41
1
10
235.41572450868298
20
-10.829692664748467
30
0
10
235.41572450868298
20
-9.9154073372385092
30
0
10
235.27369496808021
20
-8.526242886294531
30
0
10
234.98965330116985
20
-6.6621789952387811
30
0
0
SPLINE
5
186
100
AcDbEntity
8
0
100
AcDbSpline
70
4
71
3
72
8
73
4
74
0
42
0.000000001
43
0.0000000001
44
0.0000000001
40
0
40
0
40
0
40
0
40
0.2997291468515671
40
0.2997291468515671
40
0.2997291468515671
40
0.2997291468515671
41
1
41
1
41
1
41
1
10
234.98965330116985
20
-6.6621789952387811
30
0
10
234.92048136021106
20
-6.1965592591295877
30
0
10
234.84333433478662
20
-5.7680394668095927
30
0
10
234.75821222489651
20
-5.3766087941897043
30
0
0
SPLINE
5
187
100
AcDbEntity
8
0
100
AcDbSpline
70
4
71
3
72
8
73
4
74
0
42
0.000000001
43
0.0000000001
44
0.0000000001
40
0.43032233716800034
40
0.43032233716800034
40
0.43032233716800034
40
0.43032233716800034
40
1
40
1
40
1
40
1
41
1
41
1
41
1
41
1
10
234.75821222489657
20
-5.3766087941897043
30
0
10
234.88144767536772
20
-5.3920854314102513
30
0
10
235.00746833493133
20
-5.4160185304308861
30
0
10
235.13225461113225
20
-5.4453841407403019
30
0
0
SPLINE
5
188
100
AcDbEntity
8
0
100
AcDbSpline
70
4
71
3
72
8
73
4
74
0
42
0.000000001
43
0.0000000001
44
0.0000000001
40
0
40
0
40
0
40
0
40
0.60718553978837253
40
0.60718553978837253
40
0.60718553978837253
40
0.60718553978837253
41
1
41
1
41
1
41
1
10
235.13225461113225
20
-5.4453841407403019
30
0
10
235.36550444694726
20
-5.5004740418218123
30
0
10
235.5977655715393
20
-5.5755500340525224
30
0
10
235.80434189439865
20
-5.6531969913354763
30
0
0
SPLINE
5
189
100
AcDbEntity
8
0
100
AcDbSpline
70
4
71
3
72
8
73
4
74
0
42
0.000000001
43
0.0000000001
44
0.0000000001
40
0.42698375071728772
40
0.42698375071728772
40
0.42698375071728772
40
0.42698375071728772
40
1
40
1
40
1
40
1
41
1
41
1
41
1
41
1
10
235.80434189439859
20
-5.6531969913354994
30
0
10
235.97157151266305
20
-6.1206338810876959
30
0
10
236.25101167655859
20
-6.550163184463651
30
0
10
236.64265883657185
20
-6.9417887240162717
30
0
0
SPLINE
5
190
100
AcDbEntity
8
0
100
AcDbSpline
70
4
71
3
72
8
73
4
74
0
42
0.000000001
43
0.0000000001
44
0.0000000001
40
0
40
0
40
0
40
0
40
1
40
1
40
1
40
1
41
1
41
1
41
1
41
1
10
236.64265883657185
20
-6.9417887240162717
30
0
10
237.33502509297739
20
-7.6252722386696288
30
0
10
238.16053959942482
20
-7.9670234287395525
30
0
10
239.11921977020933
20
-7.9670234287395525
30
0
0
SPLINE
5
191
100
AcDbEntity
8
0
100
AcDbSpline
70
4
71
3
72
8
73
4
74
0
42
0.000000001
43
0.0000000001
44
0.0000000001
40
0
40
0
40
0
40
0
40
1
40
1
40
1
40
1
41
1
41
1
41
1
41
1
10
239.11921977020933
20
-7.9670234287395525
30
0
10
239.8026466884032
20
-7.9670234287395525
30
0
10
240.35749080428477
20
-7.8161300118710564
30
0
10
240.7835620117979
20
-7.5143228614563089
30
0
0
SPLINE
5
192
100
AcDbEntity
8
0
100
AcDbSpline
70
4
71
3
72
8
73
4
74
0
42
0.000000001
43
0.0000000001
44
0.0000000001
40
0
40
0
40
0
40
0
40
1
40
1
40
1
40
1
41
1
41
1
41
1
41
1
10
240.7835620117979
20
-7.5143228614563089
30
0
10
241.20963321931103
20
-7.2213984527937587
30
0
10
241.42704343914539
20
-6.8219566050507474
30
0
10
241.43598422854831
20
-6.3159770015495154
30
0
0
SPLINE
5
193
100
AcDbEntity
8
0
100
AcDbSpline
70
4
71
3
72
8
73
4
74
0
42
0.000000001
43
0.0000000001
44
0.0000000001
40
0
40
0
40
0
40
0
40
1
40
1
40
1
40
1
41
1
41
1
41
1
41
1
10
241.43598422854831
20
-6.3159770015495154
30
0
10
241.43598422854831
20
-5.6325515345468808
30
0
10
241.16074984144419
20
-5.0777074186653026
30
0
10
240.6104697221009
20
-4.6516347599609054
30
0
0
SPLINE
5
194
100
AcDbEntity
8
0
100
AcDbSpline
70
4
71
3
72
8
73
4
74
0
42
0.000000001
43
0.0000000001
44
0.0000000001
40
0
40
0
40
0
40
0
40
1
40
1
40
1
40
1
41
1
41
1
41
1
41
1
10
240.6104697221009
20
-4.6516347599609054
30
0
10
240.06894028610435
20
-4.2255635524477775
30
0
10
239.32331531015859
20
-3.9282638021118288
30
0
10
238.37357592877703
20
-3.7595483052794743
30
0
0
LINE
5
195
100
AcDbEntity
8
0
100
AcDbLine
10
238.37357592877703
20
-3.7595483052794743
30
0
11
238.18716895919493
21
-4.5451173208804407
31
0
0
SPLINE
5
196
100
AcDbEntity
8
0
100
AcDbSpline
70
4
71
3
72
8
73
4
74
0
42
0.000000001
43
0.0000000001
44
0.0000000001
40
0
40
0
40
0
40
0
40
1
40
1
40
1
40
1
41
1
41
1
41
1
41
1
10
238.18716895919493
20
-4.5451173208804407
30
0
10
238.73750567499772
20
-4.6605755493638323
30
0
10
239.14584912997941
20
-4.8823611108715648
30
0
10
239.41214417887184
20
-5.2108542175158856
30
0
0
SPLINE
5
197
100
AcDbEntity
8
0
100
AcDbSpline
70
4
71
3
72
8
73
4
74
0
42
0.000000001
43
0.0000000001
44
0.0000000001
40
0
40
0
40
0
40
0
40
1
40
1
40
1
40
1
41
1
41
1
41
1
41
1
10
239.41214417887184
20
-5.2108542175158856
30
0
10
239.68737856597591
20
-5.5393473241602065
30
0
10
239.8249007064999
20
-5.8543370960546142
30
0
10
239.8249007064999
20
-6.1562008429288184
30
0
0
SPLINE
5
198
100
AcDbEntity
8
0
100
AcDbSpline
70
4
71
3
72
8
73
4
74
0
42
0.000000001
43
0.0000000001
44
0.0000000001
40
0
40
0
40
0
40
0
40
1
40
1
40
1
40
1
41
1
41
1
41
1
41
1
10
239.8249007064999
20
-6.1562008429288184
30
0
10
239.8249007064999
20
-6.4668907350957667
30
0
10
239.74063728551616
20
-6.6754936751238407
30
0
10
239.57192033749254
20
-6.7820125653955721
30
0
0
SPLINE
5
199
100
AcDbEntity
8
0
100
AcDbSpline
70
4
71
3
72
8
73
4
74
0
42
0.000000001
43
0.0000000001
44
0.0000000001
40
0
40
0
40
0
40
0
40
1
40
1
40
1
40
1
41
1
41
1
41
1
41
1
10
239.57192033749254
20
-6.7820125653955721
30
0
10
239.41214417887184
20
-6.8974127462282393
30
0
10
239.23467799869269
20
-6.9551034039013278
30
0
10
239.03933169089896
20
-6.9551034039013278
30
0
0
SPLINE
5
200
100
AcDbEntity
8
0
100
AcDbSpline
70
4
71
3
72
8
73
4
74
0
42
0.000000001
43
0.0000000001
44
0.0000000001
40
0
40
0
40
0
40
0
40
1
40
1
40
1
40
1
41
1
41
1
41
1
41
1
10
239.03933169089896
20
-6.9551034039013278
30
0
10
238.62212290846028
20
-6.9551034039013278
30
0
10
238.25374235862023
20
-6.7198711041031389
30
0
10
237.93418859018757
20
-6.2494036021242261
30
0
0
SPLINE
5
201
100
AcDbEntity
8
0
100
AcDbSpline
70
4
71
3
72
8
73
4
74
0
42
0.000000001
43
0.0000000001
44
0.0000000001
40
0
40
0
40
0
40
0
40
1
40
1
40
1
40
1
41
1
41
1
41
1
41
1
10
237.93418859018757
20
-6.2494036021242261
30
0
10
237.62351756350711
20
-5.7877622454380546
30
0
10
237.46817334301926
20
-5.2331082356126002
30
0
10
237.46817334301926
20
-4.5850613605356161
30
0
0
SPLINE
5
202
100
AcDbEntity
8
0
100
AcDbSpline
70
4
71
3
72
8
73
4
74
0
42
0.000000001
43
0.0000000001
44
0.0000000001
40
0
40
0
40
0
40
0
40
1
40
1
40
1
40
1
41
1
41
1
41
1
41
1
10
237.46817334301926
20
-4.5850613605356161
30
0
10
237.46817334301926
20
-3.9459538236702896
30
0
10
237.61906675988774
20
-3.4666238966169294
30
0
10
237.9208739103025
20
-3.1470701281842661
30
0
0
SPLINE
5
203
100
AcDbEntity
8
0
100
AcDbSpline
70
4
71
3
72
8
73
4
74
0
42
0.000000001
43
0.0000000001
44
0.0000000001
40
0
40
0
40
0
40
0
40
1
40
1
40
1
40
1
41
1
41
1
41
1
41
1
10
237.9208739103025
20
-3.1470701281842661
30
0
10
238.23154493698297
20
-2.8364556979632605
30
0
10
238.61324016670807
20
-2.6810534298246935
30
0
10
239.06596105066907
20
-2.6810534298246935
30
0
0
SPLINE
5
204
100
AcDbEntity
8
0
100
AcDbSpline
70
4
71
3
72
8
73
4
74
0
42
0.000000001
43
0.0000000001
44
0.0000000001
40
0
40
0
40
0
40
0
40
1
40
1
40
1
40
1
41
1
41
1
41
1
41
1
10
239.06596105066907
20
-2.6810534298246935
30
0
10
239.73169794730453
20
-2.6810534298246935
30
0
10
240.37080548416984
20
-2.9117797807353485
30
0
10
240.98328221007378
20
-3.3734196862302523
30
0
0
SPLINE
5
205
100
AcDbEntity
8
0
100
AcDbSpline
70
4
71
3
72
8
73
4
74
0
42
0.000000001
43
0.0000000001
44
0.0000000001
40
0
40
0
40
0
40
0
40
0.90086659085325638
40
0.90086659085325638
40
0.90086659085325638
40
0.90086659085325638
41
1
41
1
41
1
41
1
10
240.98328221007378
20
-3.3734196862302523
30
0
10
241.53504333744559
20
-3.7892969614249972
30
0
10
241.99310311395848
20
-4.3203326444700583
30
0
10
242.35760158861871
20
-4.9666646624169566
30
0
0
LINE
5
206
100
AcDbEntity
8
0
100
AcDbLine
10
242.35760158861876
20
-4.9666646624169575
30
0
11
242.68509711258793
21
-7.8205619500039125
31
0
0
SPLINE
5
207
100
AcDbEntity
8
0
100
AcDbSpline
70
4
71
3
72
8
73
4
74
0
42
0.000000001
43
0.0000000001
44
0.0000000001
40
0
40
0
40
0
40
0
40
1
40
1
40
1
40
1
41
1
41
1
41
1
41
1
10
242.68509711258793
20
-7.8205619500039125
30
0
10
243.00465088102061
20
-7.9181966473321763
30
0
10
243.32876864599154
20
-7.9670234287395525
30
0
10
243.65707309777099
20
-7.9670234287395525
30
0
0
SPLINE
5
208
100
AcDbEntity
8
0
100
AcDbSpline
70
4
71
3
72
8
73
4
74
0
42
0.000000001
43
0.0000000001
44
0.0000000001
40
0
40
0
40
0
40
0
40
1
40
1
40
1
40
1
41
1
41
1
41
1
41
1
10
243.65707309777099
20
-7.9670234287395525
30
0
10
244.19860253376751
20
-7.9670234287395525
30
0
10
244.46927147314204
20
-7.7673032304636802
30
0
10
244.46927147314204
20
-7.3678613827206689
30
0
0
LINE
5
209
100
AcDbEntity
8
0
100
AcDbLine
10
244.46927147314204
20
-7.3678613827206689
30
0
11
244.46927147314204
21
-7.341230571759283
31
0
0
SPLINE
5
210
100
AcDbEntity
8
0
100
AcDbSpline
70
4
71
3
72
8
73
4
74
0
42
0.000000001
43
0.0000000001
44
0.0000000001
40
0
40
0
40
0
40
0
40
1
40
1
40
1
40
1
41
1
41
1
41
1
41
1
10
244.46927147314204
20
-7.341230571759283
30
0
10
244.82439539074778
20
-7.7584204887114794
30
0
10
245.27709450683975
20
-7.9670234287395525
30
0
10
245.82737462618309
20
-7.9670234287395525
30
0
0
SPLINE
5
211
100
AcDbEntity
8
0
100
AcDbSpline
70
4
71
3
72
8
73
4
74
0
42
0.000000001
43
0.0000000001
44
0.0000000001
40
0
40
0
40
0
40
0
40
1
40
1
40
1
40
1
41
1
41
1
41
1
41
1
10
245.82737462618309
20
-7.9670234287395525
30
0
10
246.22681792511736
20
-7.9670234287395525
30
0
10
246.53761955901194
20
-7.8738206695441448
30
0
10
246.75940512051969
20
-7.6874151511533313
30
0
0
SPLINE
5
212
100
AcDbEntity
8
0
100
AcDbSpline
70
4
71
3
72
8
73
4
74
0
42
0.000000001
43
0.0000000001
44
0.0000000001
40
0
40
0
40
0
40
0
40
1
40
1
40
1
40
1
41
1
41
1
41
1
41
1
10
246.75940512051969
20
-7.6874151511533313
30
0
10
246.98138223927481
20
-7.5098909233234501
30
0
10
247.09227356883741
20
-7.2702252342011349
30
0
10
247.09227356883741
20
-6.9684180837863874
30
0
0
SPLINE
5
213
100
AcDbEntity
8
0
100
AcDbSpline
70
4
71
3
72
8
73
4
74
0
42
0.000000001
43
0.0000000001
44
0.0000000001
40
0
40
0
40
0
40
0
40
1
40
1
40
1
40
1
41
1
41
1
41
1
41
1
10
247.09227356883741
20
-6.9684180837863874
30
0
10
247.09227356883741
20
-6.6666109333716399
30
0
10
246.97700834879268
20
-6.4180828191748773
30
0
10
246.7460918918259
20
-6.2227742423541095
30
0
0
SPLINE
5
214
100
AcDbEntity
8
0
100
AcDbSpline
70
4
71
3
72
8
73
4
74
0
42
0.000000001
43
0.0000000001
44
0.0000000001
40
0
40
0
40
0
40
0
40
1
40
1
40
1
40
1
41
1
41
1
41
1
41
1
10
246.7460918918259
20
-6.2227742423541095
30
0
10
246.52430633031815
20
-6.0363672727720274
30
0
10
246.23138337284689
20
-5.9431645135766198
30
0
10
245.86732011702952
20
-5.9431645135766198
30
0
0
LINE
5
215
100
AcDbEntity
8
0
100
AcDbLine
10
245.86732011702952
20
-5.9431645135766198
30
0
11
245.8140613974893
21
-5.9431645135766198
31
0
0
SPLINE
5
216
100
AcDbEntity
8
0
100
AcDbSpline
70
4
71
3
72
8
73
4
74
0
42
0.000000001
43
0.0000000001
44
0.0000000001
40
0
40
0
40
0
40
0
40
1
40
1
40
1
40
1
41
1
41
1
41
1
41
1
10
245.8140613974893
20
-5.9431645135766198
30
0
10
245.83194007391259
20
-6.0407426144454268
30
0
10
245.84069075725944
20
-6.1339453736408345
30
0
10
245.84069075725944
20
-6.2227742423541095
30
0
0
SPLINE
5
217
100
AcDbEntity
8
0
100
AcDbSpline
70
4
71
3
72
8
73
4
74
0
42
0.000000001
43
0.0000000001
44
0.0000000001
40
0
40
0
40
0
40
0
40
1
40
1
40
1
40
1
41
1
41
1
41
1
41
1
10
245.84069075725944
20
-6.2227742423541095
30
0
10
245.84069075725944
20
-6.6133522138314067
30
0
10
245.6588477842156
20
-6.8086419251656904
30
0
10
245.29478452839822
20
-6.8086419251656904
30
0
0
SPLINE
5
218
100
AcDbEntity
8
0
100
AcDbSpline
70
4
71
3
72
8
73
4
74
0
42
0.000000001
43
0.0000000001
44
0.0000000001
40
0
40
0
40
0
40
0
40
1
40
1
40
1
40
1
41
1
41
1
41
1
41
1
10
245.29478452839822
20
-6.8086419251656904
30
0
10
244.93985216803992
20
-6.8086419251656904
30
0
10
244.65567699153291
20
-6.5778589777955743
30
0
10
244.44264211337196
20
-6.1162568032736431
30
0
0
SPLINE
5
219
100
AcDbEntity
8
0
100
AcDbSpline
70
4
71
3
72
8
73
4
74
0
42
0.000000001
43
0.0000000001
44
0.0000000001
40
0
40
0
40
0
40
0
40
0.83083251524088819
40
0.83083251524088819
40
0.83083251524088819
40
0.83083251524088819
41
1
41
1
41
1
41
1
10
244.44264211337196
20
-6.1162568032736431
30
0
10
245.23912789121991
20
-5.4893390305343015
30
0
10
245.70474152971852
20
-4.7982162353927365
30
0
10
245.83948136432446
20
-4.0426703626720686
30
0
0
SPLINE
5
220
100
AcDbEntity
8
0
100
AcDbSpline
70
4
71
3
72
8
73
4
74
0
42
0.000000001
43
0.0000000001
44
0.0000000001
40
0.414197761622213
40
0.414197761622213
40
0.414197761622213
40
0.414197761622213
40
1
40
1
40
1
40
1
41
1
41
1
41
1
41
1
10
245.83948136432454
20
-4.0426703626720695
30
0
10
245.9193362221373
20
-4.0301841879194198
30
0
10
246.00299119817467
20
-4.0251737156613991
30
0
10
246.08834235193024
20
-4.0258419029806403
30
0
0
SPLINE
5
221
100
AcDbEntity
8
0
100
AcDbSpline
70
4
71
3
72
8
73
4
74
0
42
0.000000001
43
0.0000000001
44
0.0000000001
40
0
40
0
40
0
40
0
40
1
40
1
40
1
40
1
41
1
41
1
41
1
41
1
10
246.08834235193024
20
-4.0258419029806403
30
0
10
246.29320121848653
20
-4.0275543086770282
30
0
10
246.51612741633102
20
-4.0623625824343046
30
0
10
246.73505993580559
20
-4.1139103474694139
30
0
0
SPLINE
5
222
100
AcDbEntity
8
0
100
AcDbSpline
70
4
71
3
72
8
73
4
74
0
42
0.000000001
43
0.0000000001
44
0.0000000001
40
0
40
0
40
0
40
0
40
0.72211314001963844
40
0.72211314001963844
40
0.72211314001963844
40
0.72211314001963844
41
1
41
1
41
1
41
1
10
246.73505993580559
20
-4.1139103474694139
30
0
10
247.01251465662318
20
-4.1794276215915973
30
0
10
247.28848015268778
20
-4.2732129241033965
30
0
10
247.52156051389022
20
-4.3659722935358225
30
0
0
SPLINE
5
223
100
AcDbEntity
8
0
100
AcDbSpline
70
4
71
3
72
8
73
4
74
0
42
0.000000001
43
0.0000000001
44
0.0000000001
40
0.78288385254559978
40
0.78288385254559978
40
0.78288385254559978
40
0.78288385254559978
40
1
40
1
40
1
40
1
41
1
41
1
41
1
41
1
10
247.52156051389022
20
-4.3659722935360223
30
0
10
247.53665214524722
20
-4.4967951261304169
30
0
10
247.55383992885032
20
-4.6363999904578641
30
0
10
247.57312579553101
20
-4.7847830100027577
30
0
0
SPLINE
5
224
100
AcDbEntity
8
0
100
AcDbSpline
70
4
71
3
72
8
73
4
74
0
42
0.000000001
43
0.0000000001
44
0.0000000001
40
0
40
0
40
0
40
0
40
1
40
1
40
1
40
1
41
1
41
1
41
1
41
1
10
247.57312579553101
20
-4.7847830100027577
30
0
10
247.75953421630442
20
-6.1872055443723362
30
0
10
248.02582781400557
20
-8.4552375487363829
30
0
10
248.37201239339959
20
-11.588632320579318
30
0
0
SPLINE
5
225
100
AcDbEntity
8
0
100
AcDbSpline
70
4
71
3
72
8
73
4
74
0
42
0.000000001
43
0.0000000001
44
0.0000000001
40
0
40
0
40
0
40
0
40
1
40
1
40
1
40
1
41
1
41
1
41
1
41
1
10
248.37201239339959
20
-11.588632320579318
30
0
10
248.55841791179043
20
-11.659637658137465
30
0
10
248.80702148793313
20
-11.695151210851051
30
0
10
249.1176373693454
20
-11.695151210851051
30
0
0
SPLINE
5
226
100
AcDbEntity
8
0
100
AcDbSpline
70
4
71
3
72
8
73
4
74
0
42
0.000000001
43
0.0000000001
44
0.0000000001
40
0
40
0
40
0
40
0
40
1
40
1
40
1
40
1
41
1
41
1
41
1
41
1
10
249.1176373693454
20
-11.695151210851051
30
0
10
249.82769364730942
20
-11.695151210851051
30
0
10
250.18281466253256
20
-11.490997623251054
30
0
10
250.18281466253256
20
-11.082673033755839
30
0
0
LINE
5
227
100
AcDbEntity
8
0
100
AcDbLine
10
250.18281466253256
20
-11.082673033755839
30
0
11
249.7301155464406
21
-7.5409522212264246
31
0
0
SPLINE
5
228
100
AcDbEntity
8
0
100
AcDbSpline
70
4
71
3
72
8
73
4
74
0
42
0.000000001
43
0.0000000001
44
0.0000000001
40
0
40
0
40
0
40
0
40
1
40
1
40
1
40
1
41
1
41
1
41
1
41
1
10
249.7301155464406
20
-7.5409522212264246
30
0
10
250.14724596455082
20
-7.8338766298889713
30
0
10
250.67108537898886
20
-7.9803381086246112
30
0
10
251.30125357764254
20
-7.9803381086246112
30
0
0
SPLINE
5
229
100
AcDbEntity
8
0
100
AcDbSpline
70
4
71
3
72
8
73
4
74
0
42
0.000000001
43
0.0000000001
44
0.0000000001
40
0
40
0
40
0
40
0
40
1
40
1
40
1
40
1
41
1
41
1
41
1
41
1
10
251.30125357764254
20
-7.9803381086246112
30
0
10
251.94036111450785
20
-7.9803381086246112
30
0
10
252.49064123385119
20
-7.7184764490563058
30
0
10
252.95228259053738
20
-7.194769093023643
30
0
0
SPLINE
5
230
100
AcDbEntity
8
0
100
AcDbSpline
70
4
71
3
72
8
73
4
74
0
42
0.000000001
43
0.0000000001
44
0.0000000001
40
0
40
0
40
0
40
0
40
1
40
1
40
1
40
1
41
1
41
1
41
1
41
1
10
252.95228259053738
20
-7.194769093023643
30
0
10
253.413921044841
20
-6.6710617369909819
30
0
10
253.64464884694291
20
-6.0586227420600114
30
0
10
253.64464884694291
20
-5.3573156962515256
30
0
0
SPLINE
5
231
100
AcDbEntity
8
0
100
AcDbSpline
70
4
71
3
72
8
73
4
74
0
42
0.000000001
43
0.0000000001
44
0.0000000001
40
0
40
0
40
0
40
0
40
1
40
1
40
1
40
1
41
1
41
1
41
1
41
1
10
253.64464884694291
20
-5.3573156962515256
30
0
10
253.64464884694291
20
-5.2597375953827186
30
0
10
253.64027205407822
20
-5.1575954979756533
30
0
10
253.63133271586659
20
-5.0510766077039193
30
0
0
SPLINE
5
232
100
AcDbEntity
8
0
100
AcDbSpline
70
4
71
3
72
8
73
4
74
0
42
0.000000001
43
0.0000000001
44
0.0000000001
40
0
40
0
40
0
40
0
40
0.68420807083052382
40
0.68420807083052382
40
0.68420807083052382
40
0.68420807083052382
41
1
41
1
41
1
41
1
10
253.63133271586659
20
-5.0510766077039193
30
0
10
253.56456899171582
20
-4.2555089897723049
30
0
10
253.36058643809878
20
-3.5887007897529264
30
0
10
253.01950683909723
20
-3.0507128996866966
30
0
0
SPLINE
5
233
100
AcDbEntity
8
0
100
AcDbSpline
70
4
71
3
72
8
73
4
74
0
42
0.000000001
43
0.0000000001
44
0.0000000001
40
0.64978976721254744
40
0.64978976721254744
40
0.64978976721254744
40
0.64978976721254744
40
1
40
1
40
1
40
1
41
1
41
1
41
1
41
1
10
253.01950683909723
20
-3.0507128996866797
30
0
10
253.1893494669543
20
-2.9872246104257583
30
0
10
253.3743253319241
20
-2.9283303926266493
30
0
10
253.57103571867594
20
-2.8769715069780766
30
0
0
SPLINE
5
234
100
AcDbEntity
8
0
100
AcDbSpline
70
4
71
3
72
8
73
4
74
0
42
0.000000001
43
0.0000000001
44
0.0000000001
40
0
40
0
40
0
40
0
40
0.33927041595365792
40
0.33927041595365792
40
0.33927041595365792
40
0.33927041595365792
41
1
41
1
41
1
41
1
10
253.57103571867594
20
-2.8769715069780766
30
0
10
253.77857345513863
20
-2.8228281881978257
30
0
10
254.00003585688694
20
-2.7768515498052784
30
0
10
254.2316345656115
20
-2.742681188134009
30
0
0
SPLINE
5
235
100
AcDbEntity
8
0
100
AcDbSpline
70
4
71
3
72
8
73
4
74
0
42
0.000000001
43
0.0000000001
44
0.0000000001
40
0.66521404029757536
40
0.66521404029757536
40
0.66521404029757536
40
0.66521404029757536
40
1
40
1
40
1
40
1
41
1
41
1
41
1
41
1
10
254.2316345656115
20
-2.7426811881340147
30
0
10
254.19283406341421
20
-2.8931535960100376
30
0
10
254.17343392122274
20
-3.0545768913243054
30
0
10
254.17343392122274
20
-3.2269582074946124
30
0
0
SPLINE
5
236
100
AcDbEntity
8
0
100
AcDbSpline
70
4
71
3
72
8
73
4
74
0
42
0.000000001
43
0.0000000001
44
0.0000000001
40
0
40
0
40
0
40
0
40
1
40
1
40
1
40
1
41
1
41
1
41
1
41
1
10
254.17343392122274
20
-3.2269582074946124
30
0
10
254.17343392122274
20
-3.3511656681335378
30
0
10
254.19568648812822
20
-3.5687659940239946
30
0
10
254.24000586945678
20
-3.8793804242450003
30
0
0
SPLINE
5
237
100
AcDbEntity
8
0
100
AcDbSpline
70
4
71
3
72
8
73
4
74
0
42
0.000000001
43
0.0000000001
44
0.0000000001
40
0
40
0
40
0
40
0
40
1
40
1
40
1
40
1
41
1
41
1
41
1
41
1
10
254.24000586945678
20
-3.8793804242450003
30
0
10
254.44429296665345
20
-5.5304079859485489
30
0
10
254.59950367754459
20
-6.8441540266880079
30
0
10
254.7060211166251
20
-7.8205619500039125
30
0
0
SPLINE
5
238
100
AcDbEntity
8
0
100
AcDbSpline
70
4
71
3
72
8
73
4
74
0
42
0.000000001
43
0.0000000001
44
0.0000000001
40
0
40
0
40
0
40
0
40
1
40
1
40
1
40
1
41
1
41
1
41
1
41
1
10
254.7060211166251
20
-7.8205619500039125
30
0
10
254.98125695492041
20
-7.9181966473321763
30
0
10
255.2342373239278
20
-7.9670234287395525
30
0
10
255.46496222364721
20
-7.9670234287395525
30
0
0
SPLINE
5
239
100
AcDbEntity
8
0
100
AcDbSpline
70
4
71
3
72
8
73
4
74
0
42
0.000000001
43
0.0000000001
44
0.0000000001
40
0
40
0
40
0
40
0
40
1
40
1
40
1
40
1
41
1
41
1
41
1
41
1
10
255.46496222364721
20
-7.9670234287395525
30
0
10
255.69587868061399
20
-7.9670234287395525
30
0
10
255.86897097031098
20
-7.9581406869873517
30
0
10
255.98423619035572
20
-7.9403940689694359
30
0
0
SPLINE
5
240
100
AcDbEntity
8
0
100
AcDbSpline
70
4
71
3
72
8
73
4
74
0
42
0.000000001
43
0.0000000001
44
0.0000000001
40
0
40
0
40
0
40
0
40
1
40
1
40
1
40
1
41
1
41
1
41
1
41
1
10
255.98423619035572
20
-7.9403940689694359
30
0
10
256.09969587003042
20
-7.922647450951521
30
0
10
256.21058719959296
20
-7.85607405152623
30
0
10
256.31710463867341
20
-7.7406738706935645
30
0
0
SPLINE
5
241
100
AcDbEntity
8
0
100
AcDbSpline
70
4
71
3
72
8
73
4
74
0
42
0.000000001
43
0.0000000001
44
0.0000000001
40
0
40
0
40
0
40
0
40
1
40
1
40
1
40
1
41
1
41
1
41
1
41
1
10
256.31710463867341
20
-7.7406738706935645
30
0
10
256.42362498013648
20
-7.6252722386696288
30
0
10
256.4768836996767
20
-7.4610641419160739
30
0
10
256.4768836996767
20
-7.2480278125638753
30
0
0
LINE
5
242
100
AcDbEntity
8
0
100
AcDbLine
10
256.4768836996767
20
-7.2480278125638762
30
0
11
256.03749490989594
21
-3.8527510644748819
31
0
0
SPLINE
5
243
100
AcDbEntity
8
0
100
AcDbSpline
70
4
71
3
72
8
73
4
74
0
42
0.000000001
43
0.0000000001
44
0.0000000001
40
0
40
0
40
0
40
0
40
1
40
1
40
1
40
1
41
1
41
1
41
1
41
1
10
256.03749490989594
20
-3.8527510644748819
30
0
10
256.01980779072005
20
-3.7462336253944173
30
0
10
256.01086555012586
20
-3.6486555245256103
30
0
10
256.01086555012586
20
-3.559826655812337
30
0
0
SPLINE
5
244
100
AcDbEntity
8
0
100
AcDbSpline
70
4
71
3
72
8
73
4
74
0
42
0.000000001
43
0.0000000001
44
0.0000000001
40
0
40
0
40
0
40
0
40
1
40
1
40
1
40
1
41
1
41
1
41
1
41
1
10
256.01086555012586
20
-3.559826655812337
30
0
10
256.01086555012586
20
-3.0361773474303977
30
0
10
256.2505326904394
20
-2.7742576402113661
30
0
10
256.72986116630153
20
-2.7742576402113661
30
0
0
SPLINE
5
245
100
AcDbEntity
8
0
100
AcDbSpline
70
4
71
3
72
8
73
4
74
0
42
0.000000001
43
0.0000000001
44
0.0000000001
40
0
40
0
40
0
40
0
40
1
40
1
40
1
40
1
41
1
41
1
41
1
41
1
10
256.72986116630153
20
-2.7742576402113661
30
0
10
257.17381540381177
20
-2.7742576402113661
30
0
10
257.54206099286387
20
-2.9916678600456992
30
0
10
257.83498685271769
20
-3.426679856961754
30
0
0
SPLINE
5
246
100
AcDbEntity
8
0
100
AcDbSpline
70
4
71
3
72
8
73
4
74
0
42
0.000000001
43
0.0000000001
44
0.0000000001
40
0
40
0
40
0
40
0
40
1
40
1
40
1
40
1
41
1
41
1
41
1
41
1
10
257.83498685271769
20
-3.426679856961754
30
0
10
257.83498685271769
20
-3.5242579578305611
30
0
10
257.84392619092932
20
-3.6796587747778586
30
0
10
257.86161621248777
20
-3.8926951041300573
30
0
0
LINE
5
247
100
AcDbEntity
8
0
100
AcDbLine
10
257.86161621248783
20
-3.8926951041300573
30
0
11
258.30100209988598
21
-7.4344347821459582
31
0
0
SPLINE
5
248
100
AcDbEntity
8
0
100
AcDbSpline
70
4
71
3
72
8
73
4
74
0
42
0.000000001
43
0.0000000001
44
0.0000000001
40
0
40
0
40
0
40
0
40
1
40
1
40
1
40
1
41
1
41
1
41
1
41
1
10
258.30100209988598
20
-7.4344347821459582
30
0
10
258.36320015763789
20
-7.5853281990144561
30
0
10
258.49634695648842
20
-7.70961257279059
30
0
10
258.70044249643774
20
-7.8072472701188556
30
0
0
SPLINE
5
249
100
AcDbEntity
8
0
100
AcDbSpline
70
4
71
3
72
8
73
4
74
0
42
0.000000001
43
0.0000000001
44
0.0000000001
40
0
40
0
40
0
40
0
40
1
40
1
40
1
40
1
41
1
41
1
41
1
41
1
10
258.70044249643774
20
-7.8072472701188556
30
0
10
258.90472959363439
20
-7.9137647091993202
30
0
10
259.15770996264177
20
-7.9670234287395525
30
0
10
259.45938360345986
20
-7.9670234287395525
30
0
0
SPLINE
5
250
100
AcDbEntity
8
0
100
AcDbSpline
70
4
71
3
72
8
73
4
74
0
42
0.000000001
43
0.0000000001
44
0.0000000001
40
0
40
0
40
0
40
0
40
1
40
1
40
1
40
1
41
1
41
1
41
1
41
1
10
259.45938360345986
20
-7.9670234287395525
30
0
10
259.77018813973694
20
-7.9670234287395525
30
0
10
260.00091303945635
20
-7.922647450951521
30
0
10
260.15174985986539
20
-7.8338766298889713
30
0
0
SPLINE
5
251
100
AcDbEntity
8
0
100
AcDbSpline
70
4
71
3
72
8
73
4
74
0
42
0.000000001
43
0.0000000001
44
0.0000000001
40
0
40
0
40
0
40
0
40
1
40
1
40
1
40
1
41
1
41
1
41
1
41
1
10
260.15174985986539
20
-7.8338766298889713
30
0
10
259.78787816129545
20
-4.9578738485085116
30
0
10
259.60584653338674
20
-3.426679856961754
30
0
10
259.60584653338674
20
-3.2402728873796693
30
0
0
SPLINE
5
252
100
AcDbEntity
8
0
100
AcDbSpline
70
4
71
3
72
8
73
4
74
0
42
0.000000001
43
0.0000000001
44
0.0000000001
40
0
40
0
40
0
40
0
40
1
40
1
40
1
40
1
41
1
41
1
41
1
41
1
10
259.60584653338674
20
-3.2402728873796693
30
0
10
259.60584653338674
20
-2.8851504209652346
30
0
10
259.73461944175523
20
-2.7076827895948075
30
0
10
259.99197370124472
20
-2.7076827895948075
30
0
0
SPLINE
5
253
100
AcDbEntity
8
0
100
AcDbSpline
70
4
71
3
72
8
73
4
74
0
42
0.000000001
43
0.0000000001
44
0.0000000001
40
0
40
0
40
0
40
0
40
1
40
1
40
1
40
1
41
1
41
1
41
1
41
1
10
259.99197370124472
20
-2.7076827895948075
30
0
10
260.2228901582115
20
-2.7076827895948075
30
0
10
260.47130507948935
20
-2.8630850577333744
30
0
10
260.73759867719053
20
-3.1736994879543801
30
0
0
SPLINE
5
254
100
AcDbEntity
8
0
100
AcDbSpline
70
4
71
3
72
8
73
4
74
0
42
0.000000001
43
0.0000000001
44
0.0000000001
40
0
40
0
40
0
40
0
40
0.51229837053571492
40
0.51229837053571492
40
0.51229837053571492
40
0.51229837053571492
41
1
41
1
41
1
41
1
10
260.73759867719053
20
-3.1736994879543801
30
0
10
260.87860154866223
20
-3.3374063628209805
30
0
10
261.00442772765183
20
-3.5418985039781692
30
0
10
261.11510335974509
20
-3.7871501560726664
30
0
0
LINE
5
255
100
AcDbEntity
8
0
100
AcDbLine
10
261.11510335974504
20
-3.7871501560726664
30
0
11
261.58764847440813
21
-7.8338766298889713
31
0
0
SPLINE
5
256
100
AcDbEntity
8
0
100
AcDbSpline
70
4
71
3
72
8
73
4
74
0
42
0.000000001
43
0.0000000001
44
0.0000000001
40
0
40
0
40
0
40
0
40
1
40
1
40
1
40
1
41
1
41
1
41
1
41
1
10
261.58764847440813
20
-7.8338766298889713
30
0
10
261.96046241357232
20
-7.9315113272172351
30
0
10
262.24444603283189
20
-7.9803381086246112
30
0
10
262.4397937918169
20
-7.9803381086246112
30
0
0
SPLINE
5
257
100
AcDbEntity
8
0
100
AcDbSpline
70
4
71
3
72
8
73
4
74
0
42
0.000000001
43
0.0000000001
44
0.0000000001
40
0
40
0
40
0
40
0
40
1
40
1
40
1
40
1
41
1
41
1
41
1
41
1
10
262.4397937918169
20
-7.9803381086246112
30
0
10
263.0343903901063
20
-7.9803381086246112
30
0
10
263.34519492638344
20
-7.7628712923308214
30
0
10
263.37182428615353
20
-7.327915891874226
30
0
0
SPLINE
5
258
100
AcDbEntity
8
0
100
AcDbSpline
70
4
71
3
72
8
73
4
74
0
42
0.000000001
43
0.0000000001
44
0.0000000001
40
0
40
0
40
0
40
0
40
1
40
1
40
1
40
1
41
1
41
1
41
1
41
1
10
263.37182428615353
20
-7.327915891874226
30
0
10
263.8066447258222
20
-7.7539885505786232
30
0
10
264.32592159491327
20
-7.9670234287395525
30
0
10
264.92964908866168
20
-7.9670234287395525
30
0
0
SPLINE
5
259
100
AcDbEntity
8
0
100
AcDbSpline
70
4
71
3
72
8
73
4
74
0
42
0.000000001
43
0.0000000001
44
0.0000000001
40
0
40
0
40
0
40
0
40
1
40
1
40
1
40
1
41
1
41
1
41
1
41
1
10
264.92964908866168
20
-7.9670234287395525
30
0
10
265.5421272657569
20
-7.9670234287395525
30
0
10
266.02145864400148
20
-7.8161300118710564
30
0
10
266.36764032101303
20
-7.5143228614563089
30
0
0
SPLINE
5
260
100
AcDbEntity
8
0
100
AcDbSpline
70
4
71
3
72
8
73
4
74
0
42
0.000000001
43
0.0000000001
44
0.0000000001
40
0
40
0
40
0
40
0
40
1
40
1
40
1
40
1
41
1
41
1
41
1
41
1
10
266.36764032101303
20
-7.5143228614563089
30
0
10
266.71382490040708
20
-7.2125157110415579
30
0
10
266.88691428772154
20
-6.8308393468029482
30
0
10
266.88691428772154
20
-6.3692560377675029
30
0
0
SPLINE
5
261
100
AcDbEntity
8
0
100
AcDbSpline
70
4
71
3
72
8
73
4
74
0
42
0.000000001
43
0.0000000001
44
0.0000000001
40
0
40
0
40
0
40
0
40
1
40
1
40
1
40
1
41
1
41
1
41
1
41
1
10
266.88691428772154
20
-6.3692560377675029
30
0
10
266.88691428772154
20
-6.2450282604508249
30
0
10
266.86028492795145
20
-6.0097379130019117
30
0
10
266.80702620841123
20
-5.6635547847991301
30
0
0
SPLINE
5
262
100
AcDbEntity
8
0
100
AcDbSpline
70
4
71
3
72
8
73
4
74
0
42
0.000000001
43
0.0000000001
44
0.0000000001
40
0
40
0
40
0
40
0
40
1
40
1
40
1
40
1
41
1
41
1
41
1
41
1
10
266.80702620841123
20
-5.6635547847991301
30
0
10
266.60274201359709
20
-4.3143924211610551
30
0
10
266.50078711986362
20
-3.5288219543688193
30
0
10
266.50078711986362
20
-3.3068462868049631
30
0
0
SPLINE
5
263
100
AcDbEntity
8
0
100
AcDbSpline
70
4
71
3
72
8
73
4
74
0
42
0.000000001
43
0.0000000001
44
0.0000000001
40
0
40
0
40
0
40
0
40
1
40
1
40
1
40
1
41
1
41
1
41
1
41
1
10
266.50078711986362
20
-3.3068462868049631
30
0
10
266.50078711986362
20
-2.8984651008502915
30
0
10
266.63831071157887
20
-2.6943681097097505
30
0
10
266.91354364749168
20
-2.6943681097097505
30
0
0
SPLINE
5
264
100
AcDbEntity
8
0
100
AcDbSpline
70
4
71
3
72
8
73
4
74
0
42
0.000000001
43
0.0000000001
44
0.0000000001
40
0
40
0
40
0
40
0
40
0.63965732651438001
40
0.63965732651438001
40
0.63965732651438001
40
0.63965732651438001
41
1
41
1
41
1
41
1
10
266.91354364749168
20
-2.6943681097097505
30
0
10
267.29960168761954
20
-2.6943681097097505
30
0
10
267.62573273632319
20
-2.952208672201424
30
0
10
267.89198692856843
20
-3.467939172529932
30
0
0
SPLINE
5
265
100
AcDbEntity
8
0
100
AcDbSpline
70
4
71
3
72
8
73
4
74
0
42
0.000000001
43
0.0000000001
44
0.0000000001
40
0.6891369864054353
40
0.6891369864054353
40
0.6891369864054353
40
0.6891369864054353
40
1
40
1
40
1
40
1
41
1
41
1
41
1
41
1
10
267.89198692856752
20
-3.4679391725343125
30
0
10
267.8482397880544
20
-3.6796976553470957
30
0
10
267.82636617420337
20
-3.9056097119536237
30
0
10
267.82636617420337
20
-4.1456754731374312
30
0
0
SPLINE
5
266
100
AcDbEntity
8
0
100
AcDbSpline
70
4
71
3
72
8
73
4
74
0
42
0.000000001
43
0.0000000001
44
0.0000000001
40
0
40
0
40
0
40
0
40
1
40
1
40
1
40
1
41
1
41
1
41
1
41
1
10
267.82636617420337
20
-4.1456754731374312
30
0
10
267.82636617420337
20
-5.3084323183846926
30
0
10
268.16798240348533
20
-6.2360889222391673
30
0
10
268.8515979765441
20
-6.928474044131212
30
0
0
SPLINE
5
267
100
AcDbEntity
8
0
100
AcDbSpline
70
4
71
3
72
8
73
4
74
0
42
0.000000001
43
0.0000000001
44
0.0000000001
40
0
40
0
40
0
40
0
40
1
40
1
40
1
40
1
41
1
41
1
41
1
41
1
10
268.8515979765441
20
-6.928474044131212
30
0
10
269.53502779712051
20
-7.6208403005367735
30
0
10
270.40048344084062
20
-7.9670234287395525
30
0
10
271.44797651723439
20
-7.9670234287395525
30
0
0
SPLINE
5
268
100
AcDbEntity
8
0
100
AcDbSpline
70
4
71
3
72
8
73
4
74
0
42
0.000000001
43
0.0000000001
44
0.0000000001
40
0
40
0
40
0
40
0
40
1
40
1
40
1
40
1
41
1
41
1
41
1
41
1
10
271.44797651723439
20
-7.9670234287395525
30
0
10
271.93605277406073
20
-7.9670234287395525
30
0
10
272.38437799967062
20
-7.8871353494292045
30
0
10
272.79276063681652
20
-7.7273591908085049
30
0
0
SPLINE
5
269
100
AcDbEntity
8
0
100
AcDbSpline
70
4
71
3
72
8
73
4
74
0
42
0.000000001
43
0.0000000001
44
0.0000000001
40
0
40
0
40
0
40
0
40
1
40
1
40
1
40
1
41
1
41
1
41
1
41
1
10
272.79276063681652
20
-7.7273591908085049
30
0
10
273.06780782024703
20
-7.8960180911814053
30
0
10
273.35635688723619
20
-7.9803381086246112
30
0
10
273.65822208530165
20
-7.9803381086246112
30
0
0
SPLINE
5
270
100
AcDbEntity
8
0
100
AcDbSpline
70
4
71
3
72
8
73
4
74
0
42
0.000000001
43
0.0000000001
44
0.0000000001
40
0
40
0
40
0
40
0
40
1
40
1
40
1
40
1
41
1
41
1
41
1
41
1
10
273.65822208530165
20
-7.9803381086246112
30
0
10
273.95989572611973
20
-7.9803381086246112
30
0
10
274.19955706166826
20
-7.9403940689694359
30
0
10
274.37721770147732
20
-7.8605059896590879
30
0
0
LINE
5
271
100
AcDbEntity
8
0
100
AcDbLine
10
274.37721770147726
20
-7.8605059896590879
30
0
11
273.89788342085018
21
-4.1057314334822559
31
0
0
SPLINE
5
272
100
AcDbEntity
8
0
100
AcDbSpline
70
4
71
3
72
8
73
4
74
0
42
0.000000001
43
0.0000000001
44
0.0000000001
40
0
40
0
40
0
40
0
40
1
40
1
40
1
40
1
41
1
41
1
41
1
41
1
10
273.89788342085018
20
-4.1057314334822559
30
0
10
274.55468097927394
20
-4.6116907203057345
30
0
10
275.05170237907703
20
-5.0733320769919033
30
0
10
275.38913917750682
20
-5.4904639462933762
30
0
0
LINE
5
273
100
AcDbEntity
8
0
100
AcDbLine
10
275.38913917750682
20
-5.4904639462933771
30
0
11
275.77526634536474
21
-4.6782641197310237
31
0
0
SPLINE
5
274
100
AcDbEntity
8
0
100
AcDbSpline
70
4
71
3
72
8
73
4
74
0
42
0.000000001
43
0.0000000001
44
0.0000000001
40
0
40
0
40
0
40
0
40
1
40
1
40
1
40
1
41
1
41
1
41
1
41
1
10
275.77526634536474
20
-4.6782641197310237
30
0
10
275.26930560735002
20
-4.1456754731374312
30
0
10
274.59462937250294
20
-3.5775166773707934
30
0
10
273.7514233933058
20
-2.9739778384872384
30
0
0
LINE
5
275
100
AcDbEntity
8
0
100
AcDbLine
10
273.7514233933058
20
-2.9739778384872384
30
0
11
273.39192848760047
21
-0.19119668178867677
31
0
0
SPLINE
5
276
100
AcDbEntity
8
0
100
AcDbSpline
70
4
71
3
72
8
73
4
74
0
42
0.000000001
43
0.0000000001
44
0.0000000001
40
0
40
0
40
0
40
0
40
1
40
1
40
1
40
1
41
1
41
1
41
1
41
1
10
273.39192848760047
20
-0.19119668178867677
30
0
10
273.29415882948427
20
0.64325571167912265
30
0
10
273.01911164605377
20
1.2823632485444492
30
0
10
272.56640962757928
20
1.7261230264247729
30
0
0
SPLINE
5
277
100
AcDbEntity
8
0
100
AcDbSpline
70
4
71
3
72
8
73
4
74
0
42
0.000000001
43
0.0000000001
44
0.0000000001
40
0
40
0
40
0
40
0
40
1
40
1
40
1
40
1
41
1
41
1
41
1
41
1
10
272.56640962757928
20
1.7261230264247729
30
0
10
272.1224611948341
20
2.1788250448992841
30
0
10
271.54555461810321
20
2.4051760541365397
30
0
10
270.83549834013917
20
2.4051760541365397
30
0
0
SPLINE
5
278
100
AcDbEntity
8
0
100
AcDbSpline
70
4
71
3
72
8
73
4
74
0
42
0.000000001
43
0.0000000001
44
0.0000000001
40
0
40
0
40
0
40
0
40
1
40
1
40
1
40
1
41
1
41
1
41
1
41
1
10
270.83549834013917
20
2.4051760541365397
30
0
10
270.42711570299326
20
2.4051760541365397
30
0
10
270.02767240405893
20
2.2720292552859611
30
0
10
269.63716844333635
20
2.0057327552022608
30
0
0
SPLINE
5
279
100
AcDbEntity
8
0
100
AcDbSpline
70
4
71
3
72
8
73
4
74
0
42
0.000000001
43
0.0000000001
44
0.0000000001
40
0
40
0
40
0
40
0
40
1
40
1
40
1
40
1
41
1
41
1
41
1
41
1
10
269.63716844333635
20
2.0057327552022608
30
0
10
269.22878580619044
20
1.7217491359426385
30
0
10
269.02469026624112
20
1.2644845721211384
30
0
10
269.02469026624112
20
0.63431637346746506
30
0
0
SPLINE
5
280
100
AcDbEntity
8
0
100
AcDbSpline
70
4
71
3
72
8
73
4
74
0
42
0.000000001
43
0.0000000001
44
0.0000000001
40
0
40
0
40
0
40
0
40
1
40
1
40
1
40
1
41
1
41
1
41
1
41
1
10
269.02469026624112
20
0.63431637346746506
30
0
10
269.02469026624112
20
-0.13793796224844002
30
0
10
269.39293875767578
20
-0.84362034973032962
30
0
10
270.12981305027478
20
-1.4827278865956561
30
0
0
SPLINE
5
281
100
AcDbEntity
8
0
100
AcDbSpline
70
4
71
3
72
8
73
4
74
0
42
0.000000001
43
0.0000000001
44
0.0000000001
40
0
40
0
40
0
40
0
40
1
40
1
40
1
40
1
41
1
41
1
41
1
41
1
10
270.12981305027478
20
-1.4827278865956561
30
0
10
269.49945619675623
20
-1.5270472679242308
30
0
10
268.9581154156246
20
-1.7889669751432624
30
0
10
268.50541629953261
20
-2.2682969021966226
30
0
0
SPLINE
5
282
100
AcDbEntity
8
0
100
AcDbSpline
70
4
71
3
72
8
73
4
74
0
42
0.000000001
43
0.0000000001
44
0.0000000001
40
0
40
0
40
0
40
0
40
0.19229543211129912
40
0.19229543211129912
40
0.19229543211129912
40
0.19229543211129912
41
1
41
1
41
1
41
1
10
268.50541629953261
20
-2.2682969021966226
30
0
10
268.41836432738728
20
-2.3604701367006782
30
0
10
268.33968214988039
20
-2.4580591017373212
30
0
10
268.26936978764968
20
-2.5610638282631193
30
0
0
SPLINE
5
283
100
AcDbEntity
8
0
100
AcDbSpline
70
4
71
3
72
8
73
4
74
0
42
0.000000001
43
0.0000000001
44
0.0000000001
40
0.32165782321046282
40
0.32165782321046282
40
0.32165782321046282
40
0.32165782321046282
40
1
40
1
40
1
40
1
41
1
41
1
41
1
41
1
10
268.26936978764752
20
-2.5610638282597598
30
0
10
267.79915365826275
20
-1.8421926782689868
30
0
10
267.16970247716711
20
-1.4827278865956561
30
0
10
266.38095645208932
20
-1.4827278865956561
30
0
0
SPLINE
5
284
100
AcDbEntity
8
0
100
AcDbSpline
70
4
71
3
72
8
73
4
74
0
42
0.000000001
43
0.0000000001
44
0.0000000001
40
0
40
0
40
0
40
0
40
1
40
1
40
1
40
1
41
1
41
1
41
1
41
1
10
266.38095645208932
20
-1.4827278865956561
30
0
10
265.83048477549863
20
-1.4827278865956561
30
0
10
265.4222936956001
20
-1.65144483461928
30
0
10
265.15600009789893
20
-1.9886871734191347
30
0
0
SPLINE
5
285
100
AcDbEntity
8
0
100
AcDbSpline
70
4
71
3
72
8
73
4
74
0
42
0.000000001
43
0.0000000001
44
0.0000000001
40
0
40
0
40
0
40
0
40
1
40
1
40
1
40
1
41
1
41
1
41
1
41
1
10
265.15600009789893
20
-1.9886871734191347
30
0
10
264.88970359781524
20
-2.3259309634102543
30
0
10
264.75655679896465
20
-2.6810534298246935
30
0
10
264.75655679896465
20
-3.0538659177975891
30
0
0
LINE
5
286
100
AcDbEntity
8
0
100
AcDbLine
10
264.75655679896465
20
-3.0538659177975891
30
0
11
265.07611201858856
21
-6.0230525928869678
31
0
0
SPLINE
5
287
100
AcDbEntity
8
0
100
AcDbSpline
70
4
71
3
72
8
73
4
74
0
42
0.000000001
43
0.0000000001
44
0.0000000001
40
0
40
0
40
0
40
0
40
1
40
1
40
1
40
1
41
1
41
1
41
1
41
1
10
265.07611201858856
20
-6.0230525928869678
30
0
10
265.07611201858856
20
-6.262718282009283
30
0
10
265.01391105845414
20
-6.4624587969629088
30
0
10
264.88970359781524
20
-6.6222349555836075
30
0
0
SPLINE
5
288
100
AcDbEntity
8
0
100
AcDbSpline
70
4
71
3
72
8
73
4
74
0
42
0.000000001
43
0.0000000001
44
0.0000000001
40
0
40
0
40
0
40
0
40
1
40
1
40
1
40
1
41
1
41
1
41
1
41
1
10
264.88970359781524
20
-6.6222349555836075
30
0
10
264.76530748231147
20
-6.7820125653955721
30
0
10
264.55683514949749
20
-6.8619006447059228
30
0
10
264.26391219202623
20
-6.8619006447059228
30
0
0
SPLINE
5
289
100
AcDbEntity
8
0
100
AcDbSpline
70
4
71
3
72
8
73
4
74
0
42
0.000000001
43
0.0000000001
44
0.0000000001
40
0
40
0
40
0
40
0
40
1
40
1
40
1
40
1
41
1
41
1
41
1
41
1
10
264.26391219202623
20
-6.8619006447059228
30
0
10
263.97973701551916
20
-6.8619006447059228
30
0
10
263.73569598472352
20
-6.7331857839881977
30
0
10
263.53160044477426
20
-6.4757734768479676
30
0
0
SPLINE
5
290
100
AcDbEntity
8
0
100
AcDbSpline
70
4
71
3
72
8
73
4
74
0
42
0.000000001
43
0.0000000001
44
0.0000000001
40
0
40
0
40
0
40
0
40
1
40
1
40
1
40
1
41
1
41
1
41
1
41
1
10
263.53160044477426
20
-6.4757734768479676
30
0
10
263.33625558817175
20
-6.2271495840275097
30
0
10
263.21204812753285
20
-5.912159812133102
30
0
10
263.15878940799257
20
-5.5304079859485489
30
0
0
SPLINE
5
291
100
AcDbEntity
8
0
100
AcDbSpline
70
4
71
3
72
8
73
4
74
0
42
0.000000001
43
0.0000000001
44
0.0000000001
40
0
40
0
40
0
40
0
40
1
40
1
40
1
40
1
41
1
41
1
41
1
41
1
10
263.15878940799257
20
-5.5304079859485489
30
0
10
262.83923418836866
20
-3.0981852991261638
30
0
10
262.6705186915363
20
-1.775652295258201
30
0
10
262.65282866997785
20
-1.5626159659060024
30
0
0
LINE
5
292
100
AcDbEntity
8
0
100
AcDbLine
10
262.65282866997791
20
-1.5626159659060028
30
0
11
260.85533962953866
21
-1.5626159659060024
31
0
0
LINE
5
293
100
AcDbEntity
8
0
100
AcDbLine
10
260.85533962953866
20
-1.5626159659060024
30
0
11
260.90562669868996
21
-1.9932584753950264
31
0
0
SPLINE
5
294
100
AcDbEntity
8
0
100
AcDbSpline
70
4
71
3
72
8
73
4
74
0
42
0.000000001
43
0.0000000001
44
0.0000000001
40
0.033772990030856036
40
0.033772990030856036
40
0.033772990030856036
40
0.033772990030856036
40
1
40
1
40
1
40
1
41
1
41
1
41
1
41
1
10
260.90562669868996
20
-1.9932584753950273
30
0
10
260.47598473347858
20
-1.6617240401533446
30
0
10
260.03390495139695
20
-1.4960425664807131
30
0
10
259.57921717361666
20
-1.4960425664807131
30
0
0
SPLINE
5
295
100
AcDbEntity
8
0
100
AcDbSpline
70
4
71
3
72
8
73
4
74
0
42
0.000000001
43
0.0000000001
44
0.0000000001
40
0
40
0
40
0
40
0
40
1
40
1
40
1
40
1
41
1
41
1
41
1
41
1
10
259.57921717361666
20
-1.4960425664807131
30
0
10
258.80696283790076
20
-1.4960425664807131
30
0
10
258.28768596880968
20
-1.7933408656253924
30
0
10
258.0213923711085
20
-2.3881290211621442
30
0
0
SPLINE
5
296
100
AcDbEntity
8
0
100
AcDbSpline
70
4
71
3
72
8
73
4
74
0
42
0.000000001
43
0.0000000001
44
0.0000000001
40
0
40
0
40
0
40
0
40
1
40
1
40
1
40
1
41
1
41
1
41
1
41
1
10
258.0213923711085
20
-2.3881290211621442
30
0
10
257.55994257166969
20
-1.7933408656253924
30
0
10
256.94289894684499
20
-1.4960425664807131
30
0
10
256.17064461112909
20
-1.4960425664807131
30
0
0
SPLINE
5
297
100
AcDbEntity
8
0
100
AcDbSpline
70
4
71
3
72
8
73
4
74
0
42
0.000000001
43
0.0000000001
44
0.0000000001
40
0
40
0
40
0
40
0
40
1
40
1
40
1
40
1
41
1
41
1
41
1
41
1
10
256.17064461112909
20
-1.4960425664807131
30
0
10
255.53153707426375
20
-1.4960425664807131
30
0
10
255.03888956494279
20
-1.65581872510141
30
0
10
254.69270788793128
20
-1.9753724935340733
30
0
0
SPLINE
5
298
100
AcDbEntity
8
0
100
AcDbSpline
70
4
71
3
72
8
73
4
74
0
42
0.000000001
43
0.0000000001
44
0.0000000001
40
0
40
0
40
0
40
0
40
0.11278187271619958
40
0.11278187271619958
40
0.11278187271619958
40
0.11278187271619958
41
1
41
1
41
1
41
1
10
254.69270788793128
20
-1.9753724935340733
30
0
10
254.65366454276179
20
-2.0114123659714278
30
0
10
254.61682292530247
20
-2.0486934075366756
30
0
10
254.58218302722616
20
-2.0872158909478511
30
0
0
LWPOLYLINE
5
299
100
AcDbEntity
8
0
100
AcDbPolyline
90
4
70
1
43
0.0
10
213.85858369896096
20
6.0554283934203879
10
286.75949522293126
20
6.0554283934203879
10
286.75949522293126
20
-29.900910883220373
10
213.85858369896096
20
-29.900910883220373
0
LWPOLYLINE
5
300
100
AcDbEntity
8
0
100
AcDbPolyline
90
4
70
1
43
0.0
10
302.42218738649296
20
30.864278431756475
10
309.92218738649296
20
30.864278431756475
10
309.92218738649296
20
23.364278431756475
10
302.42218738649296
20
23.364278431756475
0
LWPOLYLINE
5
301
100
AcDbEntity
8
0
100
AcDbPolyline
90
4
70
1
43
0.0
10
212.85858369896093
20
-30.900910883220373
10
287.75949522293126
20
-30.900910883220373
10
287.75949522293126
20
7.0554283934203879
10
212.85858369896093
20
7.0554283934203879
0
ENDSEC
0
SECTION
2
OBJECTS
0
DICTIONARY
5
C
100
AcDbDictionary
3
ACAD_GROUP
350
D
3
ACAD_MLINESTYLE
350
17
0
DICTIONARY
5
D
100
AcDbDictionary
0
DICTIONARY
5
1A
330
C
100
AcDbDictionary
0
DICTIONARY
5
17
100
AcDbDictionary
0
ENDSEC
0
EOF
