                                                                        S      1
,,30HWalllight Mount Single Hole v2,30HWalllight Mount Single Hole v2,7HG      1
unknown,7Hunknown,32,38,7,99,15,,1.,2,2HMM,1,0.08,15H20220922.115317,   G      2
0.01,10000.,7Hunknown,7Hunknown,11,0,15H20190903.152106;                G      3
     186       1                                                00000000D      1
     186            -197       1       0                               0D      2
     514       2                                                00010000D      3
     514                       2       1                               0D      4
     510       4                                                00010000D      5
     510            -197       1       1                               0D      6
     510       5                                                00010000D      7
     510            -197       1       1                               0D      8
     510       6                                                00010000D      9
     510            -197       1       1                               0D     10
     510       7                                                00010000D     11
     510            -197       1       1                               0D     12
     510       8                                                00010000D     13
     510            -197       1       1                               0D     14
     510       9                                                00010000D     15
     510            -197       1       1                               0D     16
     510      10                                                00010000D     17
     510            -197       1       1                               0D     18
     510      11                                                00010000D     19
     510            -197       1       1                               0D     20
     510      12                                                00010000D     21
     510            -197       1       1                               0D     22
     510      13                                                00010000D     23
     510            -197       1       1                               0D     24
     510      14                                                00010000D     25
     510            -197       1       1                               0D     26
     510      15                                                00010000D     27
     510            -197       1       1                               0D     28
     510      16                                                00010000D     29
     510            -197       1       1                               0D     30
     510      17                                                00010000D     31
     510            -197       1       1                               0D     32
     510      18                                                00010000D     33
     510            -197       1       1                               0D     34
     510      19                                                00010000D     35
     510            -197       1       1                               0D     36
     508      20                                                00010000D     37
     508                       1       1                               0D     38
     508      21                                                00010000D     39
     508                       2       1                               0D     40
     508      23                                                00010000D     41
     508                       1       1                               0D     42
     508      24                                                00010000D     43
     508                       2       1                               0D     44
     508      26                                                00010000D     45
     508                       2       1                               0D     46
     508      28                                                00010000D     47
     508                       1       1                               0D     48
     508      29                                                00010000D     49
     508                       1       1                               0D     50
     508      30                                                00010000D     51
     508                       1       1                               0D     52
     508      31                                                00010000D     53
     508                       3       1                               0D     54
     508      34                                                00010000D     55
     508                       1       1                               0D     56
     508      35                                                00010000D     57
     508                       1       1                               0D     58
     508      36                                                00010000D     59
     508                       1       1                               0D     60
     508      37                                                00010000D     61
     508                       1       1                               0D     62
     508      38                                                00010000D     63
     508                       1       1                               0D     64
     508      39                                                00010000D     65
     508                       1       1                               0D     66
     508      40                                                00010000D     67
     508                       1       1                               0D     68
     508      41                                                00010000D     69
     508                       1       1                               0D     70
     508      42                                                00010000D     71
     508                       3       1                               0D     72
     126      45                                                00010000D     73
     126       0               3       0                               0D     74
     126      48                                                00010000D     75
     126       0               7       0                               0D     76
     126      55                                                00010000D     77
     126       0               3       0                               0D     78
     126      58                                                00010000D     79
     126       0               7       0                               0D     80
     126      65                                                00010000D     81
     126       0               3       0                               0D     82
     126      68                                                00010000D     83
     126       0               4       0                               0D     84
     126      72                                                00010000D     85
     126       0               3       0                               0D     86
     126      75                                                00010000D     87
     126       0               4       0                               0D     88
     126      79                                                00010000D     89
     126       0               3       0                               0D     90
     126      82                                                00010000D     91
     126       0               2       0                               0D     92
     126      84                                                00010000D     93
     126       0               3       0                               0D     94
     126      87                                                00010000D     95
     126       0               8       0                               0D     96
     126      95                                                00010000D     97
     126       0               2       0                               0D     98
     126      97                                                00010000D     99
     126       0              12       0                               0D    100
     126     109                                                00010000D    101
     126       0               5       0                               0D    102
     126     114                                                00010000D    103
     126       0               2       0                               0D    104
     126     116                                                00010000D    105
     126       0               2       0                               0D    106
     126     118                                                00010000D    107
     126       0               2       0                               0D    108
     126     120                                                00010000D    109
     126       0               2       0                               0D    110
     126     122                                                00010000D    111
     126       0               3       0                               0D    112
     126     125                                                00010000D    113
     126       0               4       0                               0D    114
     126     129                                                00010000D    115
     126       0               5       0                               0D    116
     126     134                                                00010000D    117
     126       0               2       0                               0D    118
     126     136                                                00010000D    119
     126       0               2       0                               0D    120
     126     138                                                00010000D    121
     126       0               2       0                               0D    122
     126     140                                                00010000D    123
     126       0               2       0                               0D    124
     126     142                                                00010000D    125
     126       0               2       0                               0D    126
     126     144                                                00010000D    127
     126       0               2       0                               0D    128
     126     146                                                00010000D    129
     126       0               2       0                               0D    130
     126     148                                                00010000D    131
     126       0               2       0                               0D    132
     126     150                                                00010000D    133
     126       0               2       0                               0D    134
     126     152                                                00010000D    135
     126       0               2       0                               0D    136
     126     154                                                00010000D    137
     126       0               2       0                               0D    138
     126     156                                                00010000D    139
     126       0               2       0                               0D    140
     126     158                                                00010000D    141
     126       0               2       0                               0D    142
     126     160                                                00010000D    143
     126       0               2       0                               0D    144
     126     162                                                00010000D    145
     126       0               2       0                               0D    146
     126     164                                                00010000D    147
     126       0               2       0                               0D    148
     126     166                                                00010000D    149
     126       0               2       0                               0D    150
     126     168                                                00010000D    151
     126       0               2       0                               0D    152
     126     170                                                00010000D    153
     126       0               2       0                               0D    154
     126     172                                                00010000D    155
     126       0               2       0                               0D    156
     126     174                                                00010000D    157
     126       0               2       0                               0D    158
     128     176                                                00010000D    159
     128       0    -197      11       0                               0D    160
     128     187                                                00010000D    161
     128       0    -197       6       0                               0D    162
     128     193                                                00010000D    163
     128       0    -197       4       0                               0D    164
     128     197                                                00010000D    165
     128       0    -197      12       0                               0D    166
     128     209                                                00010000D    167
     128       0    -197       3       0                               0D    168
     128     212                                                00010000D    169
     128       0    -197       4       0                               0D    170
     128     216                                                00010000D    171
     128       0    -197       8       0                               0D    172
     128     224                                                00010000D    173
     128       0    -197       4       0                               0D    174
     128     228                                                00010000D    175
     128       0    -197       3       0                               0D    176
     128     231                                                00010000D    177
     128       0    -197       3       0                               0D    178
     128     234                                                00010000D    179
     128       0    -197       3       0                               0D    180
     128     237                                                00010000D    181
     128       0    -197       3       0                               0D    182
     128     240                                                00010000D    183
     128       0    -197       3       0                               0D    184
     128     243                                                00010000D    185
     128       0    -197       3       0                               0D    186
     128     246                                                00010000D    187
     128       0    -197       3       0                               0D    188
     128     249                                                00010000D    189
     128       0    -197       3       0                               0D    190
     502     252                                                00010000D    191
     502                       8       1                               0D    192
     504     260                                                00010001D    193
     504                      12       1                               0D    194
     406     272                                                00000000D    195
     406                       1      15                               0D    196
     314     273                                                00000200D    197
     314                       2       0                               0D    198
186,3,1,0,0,1,195;                                                     1P      1
514,16,5,1,7,1,9,1,11,1,13,1,15,1,17,1,19,1,21,1,23,1,25,1,27,1,       3P      2
29,1,31,1,33,1,35,1;                                                   3P      3
510,159,1,1,37;                                                        5P      4
510,161,1,1,39;                                                        7P      5
510,163,1,1,41;                                                        9P      6
510,165,1,1,43;                                                       11P      7
510,167,2,1,45,47;                                                    13P      8
510,169,1,1,49;                                                       15P      9
510,171,1,1,51;                                                       17P     10
510,173,1,1,53;                                                       19P     11
510,175,1,1,55;                                                       21P     12
510,177,1,1,57;                                                       23P     13
510,179,1,1,59;                                                       25P     14
510,181,1,1,61;                                                       27P     15
510,183,1,1,63;                                                       29P     16
510,185,2,1,65,67;                                                    31P     17
510,187,1,1,69;                                                       33P     18
510,189,1,1,71;                                                       35P     19
508,4,0,193,1,0,0,0,193,2,0,0,0,193,3,0,0,0,193,4,0,0;                37P     20
508,6,0,193,4,1,0,0,193,5,1,0,0,193,6,1,0,0,193,7,0,0,0,193,8,1,      39P     21
0,0,193,9,1,0;                                                        39P     22
508,4,0,193,3,1,0,0,193,10,1,0,0,193,11,0,0,0,193,5,0,0;              41P     23
508,5,0,193,12,0,0,0,193,13,1,0,0,193,14,0,0,0,193,15,0,0,0,193,      43P     24
13,0,0;                                                               43P     25
508,6,0,193,16,0,0,0,193,17,0,0,0,193,18,1,0,0,193,19,0,0,0,193,      45P     26
10,0,0,0,193,2,1,0;                                                   45P     27
508,2,0,193,14,1,0,0,193,15,1,0;                                      47P     28
508,4,0,193,1,1,0,0,193,9,0,0,0,193,20,1,0,0,193,16,1,0;              49P     29
508,4,0,193,21,1,0,0,193,7,1,0,0,193,22,1,0,0,193,23,0,0;             51P     30
508,11,0,193,22,0,0,0,193,6,0,0,0,193,11,1,0,0,193,19,1,0,0,193,      53P     31
24,1,0,0,193,25,1,0,0,193,26,1,0,0,193,27,1,0,0,193,28,1,0,0,         53P     32
193,29,1,0,0,193,30,1,0;                                              53P     33
508,4,0,193,31,0,0,0,193,23,1,0,0,193,30,0,0,0,193,32,0,0;            55P     34
508,4,0,193,33,0,0,0,193,32,1,0,0,193,29,0,0,0,193,34,0,0;            57P     35
508,4,0,193,35,1,0,0,193,34,1,0,0,193,28,0,0,0,193,36,0,0;            59P     36
508,4,0,193,37,0,0,0,193,36,1,0,0,193,27,0,0,0,193,38,0,0;            61P     37
508,4,0,193,39,0,0,0,193,38,1,0,0,193,26,0,0,0,193,40,0,0;            63P     38
508,4,0,193,41,0,0,0,193,40,1,0,0,193,25,0,0,0,193,42,0,0;            65P     39
508,1,0,193,12,1,0;                                                   67P     40
508,4,0,193,43,0,0,0,193,42,1,0,0,193,24,0,0,0,193,18,0,0;            69P     41
508,11,0,193,21,0,0,0,193,31,1,0,0,193,33,1,0,0,193,35,0,0,0,         71P     42
193,37,1,0,0,193,39,1,0,0,193,41,1,0,0,193,43,1,0,0,193,17,1,0,       71P     43
0,193,20,0,0,0,193,8,0,0;                                             71P     44
126,1,1,0,0,1,0,5.55111512312578D-17,5.55111512312578D-17,0.18,       73P     45
0.18,1.,1.,11.2003289616073,7.9,2.,11.2003289616073,7.9,3.8,          73P     46
5.55111512312578D-17,0.18,0.,0.,0.;                                   73P     47
126,4,2,0,0,0,0,0.31782370392788,0.31782370392788,                    75P     48
0.31782370392788,1.5707963267949,1.5707963267949,                     75P     49
2.82376894966191,2.82376894966191,2.82376894966191,1.,                75P     50
0.810092587300982,1.,0.810092587300982,1.,18.7996710383927,7.9,       75P     51
2.,17.894987457823,10.65,2.,15.,10.65,2.,12.105012542177,10.65,       75P     52
2.,11.2003289616073,7.9,2.,0.31782370392788,2.82376894966191,0.,      75P     53
0.,0.;                                                                75P     54
126,1,1,0,0,1,0,-0.18,-0.18,-5.55111512312578D-17,                    77P     55
-5.55111512312578D-17,1.,1.,18.7996710383927,7.9,3.8,                 77P     56
18.7996710383927,7.9,2.,-0.18,-5.55111512312578D-17,0.,0.,0.;         77P     57
126,4,2,0,0,0,0,-1.25297262286702,-1.25297262286702,                  79P     58
-1.25297262286702,0.,0.,1.25297262286702,1.25297262286702,            79P     59
1.25297262286702,1.,0.81009258730098,1.,0.81009258730098,1.,          79P     60
11.2003289616073,7.9,3.8,12.105012542177,10.65,8.99444444444445,      79P     61
15.,10.65,8.99444444444445,17.894987457823,10.65,                     79P     62
8.99444444444445,18.7996710383927,7.9,3.8,-1.25297262286702,          79P     63
1.25297262286702,0.,0.,0.;                                            79P     64
126,1,1,0,0,1,0,1.87996710383927,1.87996710383927,3.,3.,1.,1.,        81P     65
18.7996710383927,7.9,3.8,30.,7.9,3.8,1.87996710383927,3.,0.,0.,       81P     66
0.;                                                                   81P     67
126,1,1,0,0,1,0,-0.327911310727006,-0.327911310727006,                83P     68
0.448150764792722,0.448150764792722,1.,1.,30.,7.9,3.8,30.,            83P     69
11.5310991541859,10.6587428467956,-0.327911310727006,                 83P     70
0.448150764792722,0.,0.,0.;                                           83P     71
126,1,1,0,0,1,0,0.,0.,8.57142857142857,8.57142857142857,1.,1.,        85P     72
0.,11.5310991541859,10.6587428467956,30.,11.5310991541859,            85P     73
10.6587428467956,0.,8.57142857142857,0.,0.,0.;                        85P     74
126,1,1,0,0,1,0,-0.448150764792722,-0.448150764792722,                87P     75
0.327911310727006,0.327911310727006,1.,1.,0.,11.5310991541859,        87P     76
10.6587428467956,0.,7.9,3.8,-0.448150764792722,                       87P     77
0.327911310727006,0.,0.,0.;                                           87P     78
126,1,1,0,0,1,0,0.,0.,1.12003289616073,1.12003289616073,1.,1.,        89P     79
0.,7.9,3.8,11.2003289616073,7.9,3.8,0.,1.12003289616073,0.,0.,        89P     80
0.;                                                                   89P     81
126,1,1,0,0,1,0,1.87996710383927,1.87996710383927,3.,3.,1.,1.,        91P     82
18.7996710383927,7.9,2.,30.,7.9,2.,1.87996710383927,3.,0.,0.,0.;      91P     83
126,1,1,0,0,1,0,1.11022302462516D-16,1.11022302462516D-16,0.18,       93P     84
0.18,1.,1.,30.,7.9,3.8,30.,7.9,2.,1.11022302462516D-16,0.18,0.,       93P     85
0.,0.;                                                                93P     86
126,8,2,0,1,0,0,-3.14159265358979,-3.14159265358979,                  95P     87
-3.14159265358979,-1.5707963267949,-1.5707963267949,0.,0.,            95P     88
1.5707963267949,1.5707963267949,3.14159265358979,                     95P     89
3.14159265358979,3.14159265358979,1.,0.707106781186548,1.,            95P     90
0.707106781186548,1.,0.707106781186548,1.,0.707106781186548,1.,       95P     91
12.95,6.65,0.,12.95,4.6,0.,15.,4.6,0.,17.05,4.6,0.,17.05,6.65,        95P     92
0.,17.05,8.7,0.,15.,8.7,0.,12.95,8.7,0.,12.95,6.65,0.,                95P     93
-3.14159265358979,3.14159265358979,0.,0.,0.;                          95P     94
126,1,1,0,0,1,0,0.,0.,0.975609756097561,0.975609756097561,1.,1.,      97P     95
12.95,6.65,0.,12.95,6.65,2.,0.,0.975609756097561,0.,0.,0.;            97P     96
126,8,2,0,0,0,0,-2.48583982783203,-2.48583982783203,                  99P     97
-2.48583982783203,-1.07898170747657,-1.07898170747657,                99P     98
0.327876412878882,0.327876412878882,1.73473453323434,                 99P     99
1.73473453323434,3.14159265358979,3.14159265358979,                   99P    100
3.14159265358979,1.,0.762628633720263,1.,0.762628633720262,1.,        99P    101
0.762628633720264,1.,0.762628633720267,1.,13.3751923190728,7.9,       99P    102
2.,14.4354013052784,9.27810856333993,2.,15.9680637319236,             99P    103
8.45702866909579,2.,17.5007261585689,7.63594877485164,2.,             99P    104
16.9407931041073,5.98983174337929,2.,16.3808600496457,                99P    105
4.34371471190695,2.,14.6654300248229,4.62748598726487,2.,12.95,       99P    106
4.91125726262279,2.,12.95,6.65,2.,-2.48583982783203,                  99P    107
3.14159265358979,0.,0.,0.;                                            99P    108
126,2,2,0,0,0,0,3.14159265358979,3.14159265358979,                   101P    109
3.14159265358979,3.79734547934756,3.79734547934756,                  101P    110
3.79734547934756,1.,0.946728343466966,1.,12.95,6.65,2.,12.95,        101P    111
7.3473154032794,2.,13.3751923190728,7.9,2.,3.14159265358979,         101P    112
3.79734547934756,0.,0.,0.;                                           101P    113
126,1,1,0,0,1,0,0.,0.,1.12003289616073,1.12003289616073,1.,1.,       103P    114
0.,7.9,2.,11.2003289616073,7.9,2.,0.,1.12003289616073,0.,0.,0.;      103P    115
126,1,1,0,0,1,0,0.,0.,0.79,0.79,1.,1.,0.,0.,2.,0.,7.9,2.,0.,         105P    116
0.79,0.,0.,0.;                                                       105P    117
126,1,1,0,0,1,0,0.,0.,3.,3.,1.,1.,0.,0.,2.,30.,0.,2.,0.,3.,0.,       107P    118
0.,0.;                                                               107P    119
126,1,1,0,0,1,0,-0.79,-0.79,0.,0.,1.,1.,30.,7.9,2.,30.,0.,2.,        109P    120
-0.79,0.,0.,0.,0.;                                                   109P    121
126,1,1,0,0,1,0,1.11022302462516D-16,1.11022302462516D-16,0.18,      111P    122
0.18,1.,1.,0.,7.9,3.8,0.,7.9,2.,1.11022302462516D-16,0.18,0.,0.,     111P    123
0.;                                                                  111P    124
126,2,2,0,0,0,0,0.,0.,0.,0.726522145287675,0.726522145287675,        113P    125
0.726522145287675,1.,0.934743057411491,1.,0.,13.4,12.3,0.,           113P    126
12.1536035939423,11.8345845663354,0.,11.5310991541859,               113P    127
10.6587428467956,0.,0.726522145287675,0.,0.,0.;                      113P    128
126,2,2,0,0,0,0,5.55666316189191,5.55666316189191,                   115P    129
5.55666316189191,6.28318530717959,6.28318530717959,                  115P    130
6.28318530717959,1.,0.934743057411483,1.,30.,11.5310991541859,       115P    131
10.6587428467956,30.,12.1536035939423,11.8345845663354,30.,13.4,     115P    132
12.3,5.55666316189191,6.28318530717959,0.,0.,0.;                     115P    133
126,1,1,0,0,1,0,0.,0.,3.,3.,1.,1.,0.,13.4,12.3,30.,13.4,12.3,0.,     117P    134
3.,0.,0.,0.;                                                         117P    135
126,1,1,0,0,1,0,-0.2,-0.2,0.,0.,1.,1.,30.,0.,2.,30.,0.,0.,-0.2,      119P    136
0.,0.,0.,0.;                                                         119P    137
126,1,1,0,0,1,0,-1.44,-1.44,0.,0.,1.,1.,30.,0.,0.,30.,14.4,0.,       121P    138
-1.44,0.,0.,0.,0.;                                                   121P    139
126,1,1,0,0,1,0,-0.2,-0.2,0.,0.,1.,1.,30.,14.4,0.,30.,14.4,2.,       123P    140
-0.2,0.,0.,0.,0.;                                                    123P    141
126,1,1,0,0,1,0,-1.44,-1.44,-1.09,-1.09,1.,1.,30.,14.4,2.,30.,       125P    142
10.9,2.,-1.44,-1.09,0.,0.,0.;                                        125P    143
126,1,1,0,0,1,0,0.,0.,0.18,0.18,1.,1.,30.,10.9,2.,30.,10.9,3.8,      127P    144
0.,0.18,0.,0.,0.;                                                    127P    145
126,1,1,0,0,1,0,-0.25,-0.25,0.,0.,1.,1.,30.,10.9,3.8,30.,13.4,       129P    146
3.8,-0.25,0.,0.,0.,0.;                                               129P    147
126,1,1,0,0,1,0,-0.85,-0.85,0.,0.,1.,1.,30.,13.4,3.8,30.,13.4,       131P    148
12.3,-0.85,0.,0.,0.,0.;                                              131P    149
126,1,1,0,0,1,0,0.,0.,0.85,0.85,1.,1.,0.,13.4,12.3,0.,13.4,3.8,      133P    150
0.,0.85,0.,0.,0.;                                                    133P    151
126,1,1,0,0,1,0,0.,0.,3.,3.,1.,1.,0.,13.4,3.8,30.,13.4,3.8,0.,       135P    152
3.,0.,0.,0.;                                                         135P    153
126,1,1,0,0,1,0,0.,0.,0.25,0.25,1.,1.,0.,13.4,3.8,0.,10.9,3.8,       137P    154
0.,0.25,0.,0.,0.;                                                    137P    155
126,1,1,0,0,1,0,0.,0.,3.,3.,1.,1.,0.,10.9,3.8,30.,10.9,3.8,0.,       139P    156
3.,0.,0.,0.;                                                         139P    157
126,1,1,0,0,1,0,0.,0.,0.18,0.18,1.,1.,0.,10.9,2.,0.,10.9,3.8,0.,     141P    158
0.18,0.,0.,0.;                                                       141P    159
126,1,1,0,0,1,0,0.,0.,3.,3.,1.,1.,0.,10.9,2.,30.,10.9,2.,0.,3.,      143P    160
0.,0.,0.;                                                            143P    161
126,1,1,0,0,1,0,1.09,1.09,1.44,1.44,1.,1.,0.,10.9,2.,0.,14.4,2.,     145P    162
1.09,1.44,0.,0.,0.;                                                  145P    163
126,1,1,0,0,1,0,0.,0.,3.,3.,1.,1.,0.,14.4,2.,30.,14.4,2.,0.,3.,      147P    164
0.,0.,0.;                                                            147P    165
126,1,1,0,0,1,0,0.,0.,0.2,0.2,1.,1.,0.,14.4,2.,0.,14.4,0.,0.,        149P    166
0.2,0.,0.,0.;                                                        149P    167
126,1,1,0,0,1,0,0.,0.,3.,3.,1.,1.,0.,14.4,0.,30.,14.4,0.,0.,3.,      151P    168
0.,0.,0.;                                                            151P    169
126,1,1,0,0,1,0,0.,0.,1.44,1.44,1.,1.,0.,14.4,0.,0.,0.,0.,0.,        153P    170
1.44,0.,0.,0.;                                                       153P    171
126,1,1,0,0,1,0,0.,0.,3.,3.,1.,1.,0.,0.,0.,30.,0.,0.,0.,3.,0.,       155P    172
0.,0.;                                                               155P    173
126,1,1,0,0,1,0,0.,0.,0.2,0.2,1.,1.,0.,0.,0.,0.,0.,2.,0.,0.2,0.,     157P    174
0.,0.;                                                               157P    175
128,1,4,1,2,0,0,0,0,0,0.,0.,1.80075148954546,1.80075148954546,       159P    176
0.31782370392788,0.31782370392788,0.31782370392788,                  159P    177
1.5707963267949,1.5707963267949,2.82376894966191,                    159P    178
2.82376894966191,2.82376894966191,1.,1.,0.810092587300982,           159P    179
0.810092587300982,1.,1.,0.810092587300982,0.810092587300982,1.,      159P    180
1.,18.7996710383927,7.9,2.,18.7996710383927,7.9,                     159P    181
9.20300595818184,17.894987457823,10.65,2.,17.894987457823,10.65,     159P    182
9.20300595818184,15.,10.65,2.,15.,10.65,9.20300595818184,            159P    183
12.105012542177,10.65,2.,12.105012542177,10.65,9.20300595818184,     159P    184
11.2003289616073,7.9,2.,11.2003289616073,7.9,9.20300595818184,       159P    185
0.,1.80075148954546,0.31782370392788,2.82376894966191;               159P    186
128,1,1,1,1,0,0,1,0,0,-0.296177473977944,-0.296177473977944,         161P    187
0.481884601541784,0.481884601541784,-0.001,-0.001,3.001,3.001,       161P    188
1.,1.,1.,1.,-0.01,11.5357780313901,10.667580725959,-0.01,            161P    189
7.89532112279581,3.79116212083653,30.01,11.5357780313901,            161P    190
10.667580725959,30.01,7.89532112279581,3.79116212083653,             161P    191
-0.296177473977944,0.481884601541784,-0.001,3.001;                   161P    192
128,1,1,1,1,0,0,1,0,0,0.849,0.849,1.031,1.031,1.87896710383927,      163P    193
1.87896710383927,3.001,3.001,1.,1.,1.,1.,18.7896710383927,7.9,       163P    194
3.81,18.7896710383927,7.9,1.99,30.01,7.9,3.81,30.01,7.9,1.99,        163P    195
0.849,1.031,1.87896710383927,3.001;                                  163P    196
128,1,8,1,2,0,1,0,0,1,0.,0.,0.975609756097561,0.975609756097561,     165P    197
-3.14159265358979,-3.14159265358979,-3.14159265358979,               165P    198
-1.5707963267949,-1.5707963267949,0.,0.,1.5707963267949,             165P    199
1.5707963267949,3.14159265358979,3.14159265358979,                   165P    200
3.14159265358979,1.,1.,0.707106781186548,0.707106781186548,1.,       165P    201
1.,0.707106781186548,0.707106781186548,1.,1.,0.707106781186548,      165P    202
0.707106781186548,1.,1.,0.707106781186548,0.707106781186548,1.,      165P    203
1.,12.95,6.65,0.,12.95,6.65,2.,12.95,4.6,0.,12.95,4.6,2.,15.,        165P    204
4.6,0.,15.,4.6,2.,17.05,4.6,0.,17.05,4.6,2.,17.05,6.65,0.,17.05,     165P    205
6.65,2.,17.05,8.7,0.,17.05,8.7,2.,15.,8.7,0.,15.,8.7,2.,12.95,       165P    206
8.7,0.,12.95,8.7,2.,12.95,6.65,0.,12.95,6.65,2.,0.,                  165P    207
0.975609756097561,-3.14159265358979,3.14159265358979;                165P    208
128,1,1,1,1,0,0,1,0,0,-0.276,-0.276,0.791,0.791,-0.001,-0.001,       167P    209
3.001,3.001,1.,1.,1.,1.,-0.01,10.66,2.,-0.01,-0.01,2.,30.01,         167P    210
10.66,2.,30.01,-0.0099999999999989,2.,-0.276,0.791,-0.001,3.001;     167P    211
128,1,1,1,1,0,0,1,0,0,0.849,0.849,1.031,1.031,-0.001,-0.001,         169P    212
1.12103289616073,1.12103289616073,1.,1.,1.,1.,-0.01,7.9,3.81,        169P    213
-0.01,7.9,1.99,11.2103289616073,7.9,3.81,11.2103289616073,7.9,       169P    214
1.99,0.849,1.031,-0.001,1.12103289616073;                            169P    215
128,1,2,1,2,0,0,0,0,0,-8.57142857142857,-8.57142857142857,0.,0.,     171P    216
3.96508223080413D-17,3.96508223080413D-17,3.96508223080413D-17,      171P    217
0.726522145287676,0.726522145287676,0.726522145287676,1.,1.,         171P    218
0.934743057411496,0.934743057411496,1.,1.,30.,13.4,12.3,0.,13.4,     171P    219
12.3,30.,12.1536035939423,11.8345845663354,0.,12.1536035939423,      171P    220
11.8345845663354,30.,11.5310991541859,10.6587428467956,0.,           171P    221
11.5310991541859,10.6587428467956,-8.57142857142857,0.,              171P    222
3.96508223080413D-17,0.726522145287676;                              171P    223
128,1,1,1,1,0,0,1,0,0,-0.616,-0.616,0.616,0.616,-0.721,-0.721,       173P    224
0.721,0.721,1.,1.,1.,1.,30.,-0.01,12.31,30.,-0.01,-0.01,30.,         173P    225
14.41,12.31,30.,14.41,-0.0099999999999989,-0.616,0.616,-0.721,       173P    226
0.721;                                                               173P    227
128,1,1,1,1,0,0,1,0,0,-0.001,-0.001,0.851,0.851,-0.001,-0.001,       175P    228
3.001,3.001,1.,1.,1.,1.,-0.01,13.4,3.79,-0.01,13.4,12.31,30.01,      175P    229
13.4,3.79,30.01,13.4,12.31,-0.001,0.851,-0.001,3.001;                175P    230
128,1,1,1,1,0,0,1,0,0,-0.001,-0.001,0.251,0.251,-0.001,-0.001,       177P    231
3.001,3.001,1.,1.,1.,1.,-0.01,10.89,3.8,-0.01,13.41,3.8,30.01,       177P    232
10.89,3.8,30.01,13.41,3.8,-0.001,0.251,-0.001,3.001;                 177P    233
128,1,1,1,1,0,0,1,0,0,-0.001,-0.001,0.181,0.181,-0.001,-0.001,       179P    234
3.001,3.001,1.,1.,1.,1.,-0.01,10.9,1.99,-0.01,10.9,3.81,30.01,       179P    235
10.9,1.99,30.01,10.9,3.81,-0.001,0.181,-0.001,3.001;                 179P    236
128,1,1,1,1,0,0,1,0,0,-0.001,-0.001,0.351,0.351,-0.001,-0.001,       181P    237
3.001,3.001,1.,1.,1.,1.,-0.01,14.41,2.,-0.01,10.89,2.,30.01,         181P    238
14.41,2.,30.01,10.89,2.,-0.001,0.351,-0.001,3.001;                   181P    239
128,1,1,1,1,0,0,1,0,0,-0.001,-0.001,0.201,0.201,-0.001,-0.001,       183P    240
3.001,3.001,1.,1.,1.,1.,-0.01,14.4,-0.01,-0.01,14.4,2.01,30.01,      183P    241
14.4,-0.01,30.01,14.4,2.01,-0.001,0.201,-0.001,3.001;                183P    242
128,1,1,1,1,0,0,1,0,0,-0.001,-0.001,1.441,1.441,-0.001,-0.001,       185P    243
3.001,3.001,1.,1.,1.,1.,-0.01,-0.01,0.,-0.01,14.41,0.,30.01,         185P    244
-0.01,0.,30.01,14.41,0.,-0.001,1.441,-0.001,3.001;                   185P    245
128,1,1,1,1,0,0,1,0,0,-0.001,-0.001,0.201,0.201,-0.001,-0.001,       187P    246
3.001,3.001,1.,1.,1.,1.,-0.01,0.,2.01,-0.01,0.,-0.01,30.01,0.,       187P    247
2.01,30.01,0.,-0.01,-0.001,0.201,-0.001,3.001;                       187P    248
128,1,1,1,1,0,0,1,0,0,-0.616,-0.616,0.616,0.616,-0.721,-0.721,       189P    249
0.721,0.721,1.,1.,1.,1.,0.,-0.01,-0.01,0.,-0.01,12.31,0.,14.41,      189P    250
-0.0099999999999989,0.,14.41,12.31,-0.616,0.616,-0.721,0.721;        189P    251
502,29,11.2003289616073,7.9,2.,11.2003289616073,7.9,3.8,             191P    252
18.7996710383927,7.9,2.,18.7996710383927,7.9,3.8,30.,7.9,3.8,        191P    253
30.,11.5310991541859,10.6587428467956,0.,11.5310991541859,           191P    254
10.6587428467956,0.,7.9,3.8,30.,7.9,2.,12.95,6.65,0.,12.95,6.65,     191P    255
2.,13.3751923190728,7.9,2.,0.,7.9,2.,0.,0.,2.,30.,0.,2.,0.,13.4,     191P    256
12.3,30.,13.4,12.3,30.,0.,0.,30.,14.4,0.,30.,14.4,2.,30.,10.9,       191P    257
2.,30.,10.9,3.8,30.,13.4,3.8,0.,13.4,3.8,0.,10.9,3.8,0.,10.9,2.,     191P    258
0.,14.4,2.,0.,14.4,0.,0.,0.,0.;                                      191P    259
504,43,73,191,1,191,2,75,191,3,191,1,77,191,4,191,3,79,191,2,        193P    260
191,4,81,191,4,191,5,83,191,5,191,6,85,191,7,191,6,87,191,7,191,     193P    261
8,89,191,8,191,2,91,191,3,191,9,93,191,5,191,9,95,191,10,191,10,     193P    262
97,191,10,191,11,99,191,12,191,11,101,191,11,191,12,103,191,13,      193P    263
191,1,105,191,14,191,13,107,191,14,191,15,109,191,9,191,15,111,      193P    264
191,8,191,13,113,191,16,191,7,115,191,6,191,17,117,191,16,191,       193P    265
17,119,191,15,191,18,121,191,18,191,19,123,191,19,191,20,125,        193P    266
191,20,191,21,127,191,21,191,22,129,191,22,191,23,131,191,23,        193P    267
191,17,133,191,16,191,24,135,191,24,191,23,137,191,24,191,25,        193P    268
139,191,25,191,22,141,191,26,191,25,143,191,26,191,21,145,191,       193P    269
26,191,27,147,191,27,191,20,149,191,27,191,28,151,191,28,191,19,     193P    270
153,191,28,191,29,155,191,29,191,18,157,191,29,191,14;               193P    271
406,1,5HBody1;                                                       195P    272
314,62.7450980392157,62.7450980392157,62.7450980392157,13HSteel      197P    273
- Satin;                                                             197P    274
S      1G      3D    198P    274                                        T      1
