                                                                        S      1
,,9HLED Mount,9HLED Mount,7Hunknown,7Hunknown,32,38,7,99,15,,1.,2,2HMM, G      1
1,0.08,15H20220922.115427,0.01,10000.,7Hunknown,7Hunknown,11,0,;        G      2
     186       1                                                00000000D      1
     186            -111       1       0                               0D      2
     514       2                                                00010000D      3
     514                       1       1                               0D      4
     510       3                                                00010000D      5
     510            -111       1       1                               0D      6
     510       4                                                00010000D      7
     510            -111       1       1                               0D      8
     510       5                                                00010000D      9
     510            -111       1       1                               0D     10
     510       6                                                00010000D     11
     510            -111       1       1                               0D     12
     510       7                                                00010000D     13
     510            -111       1       1                               0D     14
     510       8                                                00010000D     15
     510            -111       1       1                               0D     16
     510       9                                                00010000D     17
     510            -111       1       1                               0D     18
     510      10                                                00010000D     19
     510            -111       1       1                               0D     20
     510      11                                                00010000D     21
     510            -111       1       1                               0D     22
     510      12                                                00010000D     23
     510            -111       1       1                               0D     24
     508      13                                                00010000D     25
     508                       1       1                               0D     26
     508      14                                                00010000D     27
     508                       1       1                               0D     28
     508      15                                                00010000D     29
     508                       1       1                               0D     30
     508      16                                                00010000D     31
     508                       1       1                               0D     32
     508      17                                                00010000D     33
     508                       1       1                               0D     34
     508      18                                                00010000D     35
     508                       1       1                               0D     36
     508      19                                                00010000D     37
     508                       1       1                               0D     38
     508      20                                                00010000D     39
     508                       1       1                               0D     40
     508      21                                                00010000D     41
     508                       1       1                               0D     42
     508      22                                                00010000D     43
     508                       1       1                               0D     44
     508      23                                                00010000D     45
     508                       1       1                               0D     46
     508      24                                                00010000D     47
     508                       1       1                               0D     48
     508      25                                                00010000D     49
     508                       1       1                               0D     50
     508      26                                                00010000D     51
     508                       1       1                               0D     52
     508      27                                                00010000D     53
     508                       1       1                               0D     54
     126      28                                                00010000D     55
     126       0               9       0                               0D     56
     126      37                                                00010000D     57
     126       0               3       0                               0D     58
     126      40                                                00010000D     59
     126       0               9       0                               0D     60
     126      49                                                00010000D     61
     126       0               9       0                               0D     62
     126      58                                                00010000D     63
     126       0              10       0                               0D     64
     126      68                                                00010000D     65
     126       0               3       0                               0D     66
     126      71                                                00010000D     67
     126       0               9       0                               0D     68
     126      80                                                00010000D     69
     126       0              10       0                               0D     70
     126      90                                                00010000D     71
     126       0               3       0                               0D     72
     126      93                                                00010000D     73
     126       0               9       0                               0D     74
     126     102                                                00010000D     75
     126       0               9       0                               0D     76
     126     111                                                00010000D     77
     126       0               2       0                               0D     78
     126     113                                                00010000D     79
     126       0               9       0                               0D     80
     126     122                                                00010000D     81
     126       0               2       0                               0D     82
     126     124                                                00010000D     83
     126       0               9       0                               0D     84
     128     133                                                00010000D     85
     128       0    -111      13       0                               0D     86
     128     146                                                00010000D     87
     128       0    -111       3       0                               0D     88
     128     149                                                00010000D     89
     128       0    -111      13       0                               0D     90
     128     162                                                00010000D     91
     128       0    -111      13       0                               0D     92
     128     175                                                00010000D     93
     128       0    -111       3       0                               0D     94
     128     178                                                00010000D     95
     128       0    -111       3       0                               0D     96
     128     181                                                00010000D     97
     128       0    -111      12       0                               0D     98
     128     193                                                00010000D     99
     128       0    -111      12       0                               0D    100
     128     205                                                00010000D    101
     128       0    -111       3       0                               0D    102
     128     208                                                00010000D    103
     128       0    -111       3       0                               0D    104
     502     211                                                00010000D    105
     502                       6       1                               0D    106
     504     217                                                00010001D    107
     504                       4       1                               0D    108
     406     221                                                00000000D    109
     406                       1      15                               0D    110
     314     222                                                00000200D    111
     314                       2       0                               0D    112
186,3,1,0,0,1,109;                                                     1P      1
514,10,5,1,7,1,9,1,11,1,13,1,15,1,17,1,19,1,21,1,23,1;                 3P      2
510,85,1,1,25;                                                         5P      3
510,87,2,1,27,29;                                                      7P      4
510,89,1,1,31;                                                         9P      5
510,91,1,1,33;                                                        11P      6
510,93,2,1,35,37;                                                     13P      7
510,95,2,1,39,41;                                                     15P      8
510,97,1,1,43;                                                        17P      9
510,99,1,1,45;                                                        19P     10
510,101,2,1,47,49;                                                    21P     11
510,103,2,1,51,53;                                                    23P     12
508,4,0,107,1,0,0,0,107,2,1,0,0,107,3,0,0,0,107,2,0,0;                25P     13
508,1,0,107,4,1,0;                                                    27P     14
508,1,0,107,1,1,0;                                                    29P     15
508,4,0,107,5,0,0,0,107,6,1,0,0,107,7,0,0,0,107,6,0,0;                31P     16
508,4,0,107,8,0,0,0,107,9,1,0,0,107,10,0,0,0,107,9,0,0;               33P     17
508,1,0,107,8,1,0;                                                    35P     18
508,1,0,107,5,1,0;                                                    37P     19
508,1,0,107,3,1,0;                                                    39P     20
508,1,0,107,10,1,0;                                                   41P     21
508,4,0,107,11,0,0,0,107,12,1,0,0,107,13,1,0,0,107,12,0,0;            43P     22
508,4,0,107,4,0,0,0,107,14,1,0,0,107,15,1,0,0,107,14,0,0;             45P     23
508,1,0,107,7,1,0;                                                    47P     24
508,1,0,107,11,1,0;                                                   49P     25
508,1,0,107,15,0,0;                                                   51P     26
508,1,0,107,13,0,0;                                                   53P     27
126,8,2,0,1,0,0,-3.14159265358979,-3.14159265358979,                  55P     28
-3.14159265358979,-1.5707963267949,-1.5707963267949,0.,0.,            55P     29
1.5707963267949,1.5707963267949,3.14159265358979,                     55P     30
3.14159265358979,3.14159265358979,1.,0.707106781186548,1.,            55P     31
0.707106781186547,1.,0.707106781186547,1.,0.707106781186548,1.,       55P     32
-22.,4.,-2.69422295812418D-15,-22.,4.,-22.,1.34711147906209D-15,      55P     33
4.,-22.,22.,4.,-22.,22.,4.,0.,22.,4.,22.,1.34711147906209D-15,        55P     34
4.,22.,-22.,4.,22.,-22.,4.,2.69422295812418D-15,                      55P     35
-3.14159265358979,3.14159265358979,0.,0.,0.;                          55P     36
126,1,1,0,0,1,0,-0.181818181818182,-0.181818181818182,                57P     37
-0.0909090909090909,-0.0909090909090909,1.,1.,-22.,4.,0.,-22.,        57P     38
2.,0.,-0.181818181818182,-0.0909090909090909,0.,0.,0.;                57P     39
126,8,2,0,1,0,0,-3.14159265358979,-3.14159265358979,                  59P     40
-3.14159265358979,-1.5707963267949,-1.5707963267949,0.,0.,            59P     41
1.5707963267949,1.5707963267949,3.14159265358979,                     59P     42
3.14159265358979,3.14159265358979,1.,0.707106781186548,1.,            59P     43
0.707106781186547,1.,0.707106781186547,1.,0.707106781186548,1.,       59P     44
-22.,2.,2.69422295812418D-15,-22.,2.,22.,1.34711147906209D-15,        59P     45
2.,22.,22.,2.,22.,22.,2.,0.,22.,2.,-22.,1.34711147906209D-15,2.,      59P     46
-22.,-22.,2.,-22.,-22.,2.,-2.69422295812418D-15,                      59P     47
-3.14159265358979,3.14159265358979,0.,0.,0.;                          59P     48
126,8,2,0,1,0,0,-3.14159265358979,-3.14159265358979,                  61P     49
-3.14159265358979,-1.5707963267949,-1.5707963267949,0.,0.,            61P     50
1.5707963267949,1.5707963267949,3.14159265358979,                     61P     51
3.14159265358979,3.14159265358979,1.,0.707106781186548,1.,            61P     52
0.707106781186548,1.,0.707106781186548,1.,0.707106781186548,1.,       61P     53
-23.,4.,2.81668763803891D-15,-23.,4.,23.,1.40834381901946D-15,        61P     54
4.,23.,23.,4.,23.,23.,4.,0.,23.,4.,-23.,1.40834381901946D-15,4.,      61P     55
-23.,-23.,4.,-23.,-23.,4.,-2.81668763803891D-15,                      61P     56
-3.14159265358979,3.14159265358979,0.,0.,0.;                          61P     57
126,8,2,0,1,0,0,-3.14159265358979,-3.14159265358979,                  63P     58
-3.14159265358979,-1.5707963267949,-1.5707963267949,0.,0.,            63P     59
1.5707963267949,1.5707963267949,3.14159265358979,                     63P     60
3.14159265358979,3.14159265358979,1.,0.707106781186548,1.,            63P     61
0.707106781186547,1.,0.707106781186547,1.,0.707106781186548,1.,       63P     62
-18.,12.,-2.20436423846524D-15,-18.,12.,-18.,                         63P     63
1.10218211923262D-15,12.,-18.,18.,12.,-18.,18.,12.,0.,18.,12.,        63P     64
18.,1.10218211923262D-15,12.,18.,-18.,12.,18.,-18.,12.,               63P     65
2.20436423846524D-15,-3.14159265358979,3.14159265358979,0.,0.,        63P     66
0.;                                                                   63P     67
126,1,1,0,0,1,0,-0.666666666666667,-0.666666666666667,                65P     68
-0.111111111111111,-0.111111111111111,1.,1.,-18.,12.,0.,-18.,2.,      65P     69
0.,-0.666666666666667,-0.111111111111111,0.,0.,0.;                    65P     70
126,8,2,0,1,0,0,-3.14159265358979,-3.14159265358979,                  67P     71
-3.14159265358979,-1.5707963267949,-1.5707963267949,0.,0.,            67P     72
1.5707963267949,1.5707963267949,3.14159265358979,                     67P     73
3.14159265358979,3.14159265358979,1.,0.707106781186548,1.,            67P     74
0.707106781186547,1.,0.707106781186547,1.,0.707106781186548,1.,       67P     75
-18.,2.,2.20436423846524D-15,-18.,2.,18.,1.10218211923262D-15,        67P     76
2.,18.,18.,2.,18.,18.,2.,0.,18.,2.,-18.,1.10218211923262D-15,2.,      67P     77
-18.,-18.,2.,-18.,-18.,2.,-2.20436423846524D-15,                      67P     78
-3.14159265358979,3.14159265358979,0.,0.,0.;                          67P     79
126,8,2,0,1,0,0,-3.14159265358979,-3.14159265358979,                  69P     80
-3.14159265358979,-1.5707963267949,-1.5707963267949,0.,0.,            69P     81
1.5707963267949,1.5707963267949,3.14159265358979,                     69P     82
3.14159265358979,3.14159265358979,1.,0.707106781186548,1.,            69P     83
0.707106781186548,1.,0.707106781186548,1.,0.707106781186548,1.,       69P     84
-21.,12.,2.57175827820944D-15,-21.,12.,21.,1.28587913910472D-15,      69P     85
12.,21.,21.,12.,21.,21.,12.,0.,21.,12.,-21.,                          69P     86
1.28587913910472D-15,12.,-21.,-21.,12.,-21.,-21.,12.,                 69P     87
-2.57175827820944D-15,-3.14159265358979,3.14159265358979,0.,0.,       69P     88
0.;                                                                   69P     89
126,1,1,0,0,1,0,-0.571428571428572,-0.571428571428572,                71P     90
-0.0952380952380952,-0.0952380952380952,1.,1.,-21.,12.,0.,-21.,       71P     91
2.,0.,-0.571428571428572,-0.0952380952380952,0.,0.,0.;                71P     92
126,8,2,0,1,0,0,-3.14159265358979,-3.14159265358979,                  73P     93
-3.14159265358979,-1.5707963267949,-1.5707963267949,0.,0.,            73P     94
1.5707963267949,1.5707963267949,3.14159265358979,                     73P     95
3.14159265358979,3.14159265358979,1.,0.707106781186548,1.,            73P     96
0.707106781186548,1.,0.707106781186548,1.,0.707106781186548,1.,       73P     97
-21.,2.,-2.57175827820944D-15,-21.,2.,-21.,1.28587913910472D-15,      73P     98
2.,-21.,21.,2.,-21.,21.,2.,0.,21.,2.,21.,1.28587913910472D-15,        73P     99
2.,21.,-21.,2.,21.,-21.,2.,2.57175827820944D-15,                      73P    100
-3.14159265358979,3.14159265358979,0.,0.,0.;                          73P    101
126,8,2,0,1,0,0,-3.14159265358979,-3.14159265358979,                  75P    102
-3.14159265358979,-1.5707963267949,-1.5707963267949,0.,0.,            75P    103
1.5707963267949,1.5707963267949,3.14159265358979,                     75P    104
3.14159265358979,3.14159265358979,1.,0.707106781186548,1.,            75P    105
0.707106781186548,1.,0.707106781186548,1.,0.707106781186548,1.,       75P    106
-17.,2.,-2.0818995585505D-15,-17.,2.,-17.,1.04094977927525D-15,       75P    107
2.,-17.,17.,2.,-17.,17.,2.,0.,17.,2.,17.,1.04094977927525D-15,        75P    108
2.,17.,-17.,2.,17.,-17.,2.,2.0818995585505D-15,                       75P    109
-3.14159265358979,3.14159265358979,0.,0.,0.;                          75P    110
126,1,1,0,0,1,0,-0.117647058823529,-0.117647058823529,0.,0.,1.,       77P    111
1.,-17.,2.,0.,-17.,0.,0.,-0.117647058823529,0.,0.,0.,0.;              77P    112
126,8,2,0,1,0,0,-3.14159265358979,-3.14159265358979,                  79P    113
-3.14159265358979,-1.5707963267949,-1.5707963267949,0.,0.,            79P    114
1.5707963267949,1.5707963267949,3.14159265358979,                     79P    115
3.14159265358979,3.14159265358979,1.,0.707106781186548,1.,            79P    116
0.707106781186548,1.,0.707106781186548,1.,0.707106781186548,1.,       79P    117
-17.,0.,-2.0818995585505D-15,-17.,0.,-17.,1.04094977927525D-15,       79P    118
0.,-17.,17.,0.,-17.,17.,0.,0.,17.,0.,17.,1.04094977927525D-15,        79P    119
0.,17.,-17.,0.,17.,-17.,0.,2.0818995585505D-15,                       79P    120
-3.14159265358979,3.14159265358979,0.,0.,0.;                          79P    121
126,1,1,0,0,1,0,-0.173913043478261,-0.173913043478261,0.,0.,1.,       81P    122
1.,-23.,4.,0.,-23.,0.,0.,-0.173913043478261,0.,0.,0.,0.;              81P    123
126,8,2,0,1,0,0,-3.14159265358979,-3.14159265358979,                  83P    124
-3.14159265358979,-1.5707963267949,-1.5707963267949,0.,0.,            83P    125
1.5707963267949,1.5707963267949,3.14159265358979,                     83P    126
3.14159265358979,3.14159265358979,1.,0.707106781186548,1.,            83P    127
0.707106781186548,1.,0.707106781186548,1.,0.707106781186548,1.,       83P    128
-23.,0.,2.81668763803891D-15,-23.,0.,23.,1.40834381901946D-15,        83P    129
0.,23.,23.,0.,23.,23.,0.,0.,23.,0.,-23.,1.40834381901946D-15,0.,      83P    130
-23.,-23.,0.,-23.,-23.,0.,-2.81668763803891D-15,                      83P    131
-3.14159265358979,3.14159265358979,0.,0.,0.;                          83P    132
128,1,8,1,2,0,1,0,0,1,0.0909090909090909,0.0909090909090909,          85P    133
0.181818181818182,0.181818181818182,-3.14159265358979,                85P    134
-3.14159265358979,-3.14159265358979,-1.5707963267949,                 85P    135
-1.5707963267949,0.,0.,1.5707963267949,1.5707963267949,               85P    136
3.14159265358979,3.14159265358979,3.14159265358979,1.,1.,             85P    137
0.707106781186548,0.707106781186548,1.,1.,0.707106781186548,          85P    138
0.707106781186548,1.,1.,0.707106781186548,0.707106781186548,1.,       85P    139
1.,0.707106781186548,0.707106781186548,1.,1.,-22.,2.,0.,-22.,4.,      85P    140
0.,-22.,2.,22.,-22.,4.,22.,0.,2.,22.,0.,4.,22.,22.,2.,22.,22.,        85P    141
4.,22.,22.,2.,0.,22.,4.,0.,22.,2.,-22.,22.,4.,-22.,0.,2.,-22.,        85P    142
0.,4.,-22.,-22.,2.,-22.,-22.,4.,-22.,-22.,2.,0.,-22.,4.,0.,           85P    143
0.0909090909090909,0.181818181818182,-3.14159265358979,               85P    144
3.14159265358979;                                                     85P    145
128,1,1,1,1,0,0,1,0,0,-2.301,-2.301,2.301,2.301,-2.301,-2.301,        87P    146
2.301,2.301,1.,1.,1.,1.,-23.01,4.,23.01,23.01,4.,23.01,-23.01,        87P    147
4.,-23.01,23.01,4.,-23.01,-2.301,2.301,-2.301,2.301;                  87P    148
128,1,8,1,2,0,1,0,0,1,0.111111111111111,0.111111111111111,            89P    149
0.666666666666667,0.666666666666667,-3.14159265358979,                89P    150
-3.14159265358979,-3.14159265358979,-1.5707963267949,                 89P    151
-1.5707963267949,0.,0.,1.5707963267949,1.5707963267949,               89P    152
3.14159265358979,3.14159265358979,3.14159265358979,1.,1.,             89P    153
0.707106781186548,0.707106781186548,1.,1.,0.707106781186548,          89P    154
0.707106781186548,1.,1.,0.707106781186548,0.707106781186548,1.,       89P    155
1.,0.707106781186548,0.707106781186548,1.,1.,-18.,2.,0.,-18.,         89P    156
12.,0.,-18.,2.,18.,-18.,12.,18.,0.,2.,18.,0.,12.,18.,18.,2.,18.,      89P    157
18.,12.,18.,18.,2.,0.,18.,12.,0.,18.,2.,-18.,18.,12.,-18.,0.,2.,      89P    158
-18.,0.,12.,-18.,-18.,2.,-18.,-18.,12.,-18.,-18.,2.,0.,-18.,12.,      89P    159
0.,0.111111111111111,0.666666666666667,-3.14159265358979,             89P    160
3.14159265358979;                                                     89P    161
128,1,8,1,2,0,1,0,0,1,0.0952380952380952,0.0952380952380952,          91P    162
0.571428571428572,0.571428571428572,-3.14159265358979,                91P    163
-3.14159265358979,-3.14159265358979,-1.5707963267949,                 91P    164
-1.5707963267949,0.,0.,1.5707963267949,1.5707963267949,               91P    165
3.14159265358979,3.14159265358979,3.14159265358979,1.,1.,             91P    166
0.707106781186548,0.707106781186548,1.,1.,0.707106781186548,          91P    167
0.707106781186548,1.,1.,0.707106781186548,0.707106781186548,1.,       91P    168
1.,0.707106781186548,0.707106781186548,1.,1.,-21.,12.,0.,-21.,        91P    169
2.,0.,-21.,12.,21.,-21.,2.,21.,0.,12.,21.,0.,2.,21.,21.,12.,21.,      91P    170
21.,2.,21.,21.,12.,0.,21.,2.,0.,21.,12.,-21.,21.,2.,-21.,0.,12.,      91P    171
-21.,0.,2.,-21.,-21.,12.,-21.,-21.,2.,-21.,-21.,12.,0.,-21.,2.,       91P    172
0.,0.0952380952380952,0.571428571428572,-3.14159265358979,            91P    173
3.14159265358979;                                                     91P    174
128,1,1,1,1,0,0,1,0,0,-2.101,-2.101,2.101,2.101,-2.101,-2.101,        93P    175
2.101,2.101,1.,1.,1.,1.,-21.01,12.,21.01,21.01,12.,21.01,-21.01,      93P    176
12.,-21.01,21.01,12.,-21.01,-2.101,2.101,-2.101,2.101;                93P    177
128,1,1,1,1,0,0,1,0,0,-2.201,-2.201,2.201,2.201,-2.201,-2.201,        95P    178
2.201,2.201,1.,1.,1.,1.,-22.01,2.,22.01,22.01,2.,22.01,-22.01,        95P    179
2.,-22.01,22.01,2.,-22.01,-2.201,2.201,-2.201,2.201;                  95P    180
128,1,8,1,2,0,1,0,0,1,0.,0.,0.117647058823529,0.117647058823529,      97P    181
-3.14159265358979,-3.14159265358979,-3.14159265358979,                97P    182
-1.5707963267949,-1.5707963267949,0.,0.,1.5707963267949,              97P    183
1.5707963267949,3.14159265358979,3.14159265358979,                    97P    184
3.14159265358979,1.,1.,0.707106781186548,0.707106781186548,1.,        97P    185
1.,0.707106781186548,0.707106781186548,1.,1.,0.707106781186548,       97P    186
0.707106781186548,1.,1.,0.707106781186548,0.707106781186548,1.,       97P    187
1.,-17.,0.,0.,-17.,2.,0.,-17.,0.,17.,-17.,2.,17.,0.,0.,17.,0.,        97P    188
2.,17.,17.,0.,17.,17.,2.,17.,17.,0.,0.,17.,2.,0.,17.,0.,-17.,         97P    189
17.,2.,-17.,0.,0.,-17.,0.,2.,-17.,-17.,0.,-17.,-17.,2.,-17.,          97P    190
-17.,0.,0.,-17.,2.,0.,0.,0.117647058823529,-3.14159265358979,         97P    191
3.14159265358979;                                                     97P    192
128,1,8,1,2,0,1,0,0,1,0.,0.,0.173913043478261,0.173913043478261,      99P    193
-3.14159265358979,-3.14159265358979,-3.14159265358979,                99P    194
-1.5707963267949,-1.5707963267949,0.,0.,1.5707963267949,              99P    195
1.5707963267949,3.14159265358979,3.14159265358979,                    99P    196
3.14159265358979,1.,1.,0.707106781186548,0.707106781186548,1.,        99P    197
1.,0.707106781186548,0.707106781186548,1.,1.,0.707106781186548,       99P    198
0.707106781186548,1.,1.,0.707106781186548,0.707106781186548,1.,       99P    199
1.,-23.,4.,0.,-23.,0.,0.,-23.,4.,23.,-23.,0.,23.,0.,4.,23.,0.,        99P    200
0.,23.,23.,4.,23.,23.,0.,23.,23.,4.,0.,23.,0.,0.,23.,4.,-23.,         99P    201
23.,0.,-23.,0.,4.,-23.,0.,0.,-23.,-23.,4.,-23.,-23.,0.,-23.,          99P    202
-23.,4.,0.,-23.,0.,0.,0.,0.173913043478261,-3.14159265358979,         99P    203
3.14159265358979;                                                     99P    204
128,1,1,1,1,0,0,1,0,0,-1.801,-1.801,1.801,1.801,-1.801,-1.801,       101P    205
1.801,1.801,1.,1.,1.,1.,-18.01,2.,18.01,18.01,2.,18.01,-18.01,       101P    206
2.,-18.01,18.01,2.,-18.01,-1.801,1.801,-1.801,1.801;                 101P    207
128,1,1,1,1,0,0,1,0,0,-2.301,-2.301,2.301,2.301,-2.301,-2.301,       103P    208
2.301,2.301,1.,1.,1.,1.,23.01,0.,23.01,-23.01,0.,23.01,23.01,0.,     103P    209
-23.01,-23.01,0.,-23.01,-2.301,2.301,-2.301,2.301;                   103P    210
502,10,-22.,4.,2.69422295812418D-15,-22.,2.,                         105P    211
2.69422295812418D-15,-23.,4.,2.81668763803891D-15,-18.,12.,          105P    212
2.20436423846524D-15,-18.,2.,2.20436423846524D-15,-21.,12.,          105P    213
2.57175827820944D-15,-21.,2.,-2.57175827820944D-15,-17.,2.,          105P    214
2.0818995585505D-15,-17.,0.,2.0818995585505D-15,-23.,0.,             105P    215
2.81668763803891D-15;                                                105P    216
504,15,55,105,1,105,1,57,105,1,105,2,59,105,2,105,2,61,105,3,        107P    217
105,3,63,105,4,105,4,65,105,4,105,5,67,105,5,105,5,69,105,6,105,     107P    218
6,71,105,6,105,7,73,105,7,105,7,75,105,8,105,8,77,105,8,105,9,       107P    219
79,105,9,105,9,81,105,3,105,10,83,105,10,105,10;                     107P    220
406,1,5HBody1;                                                       109P    221
314,62.7450980392157,62.7450980392157,62.7450980392157,13HSteel      111P    222
- Satin;                                                             111P    223
S      1G      2D    112P    223                                        T      1
