                                                                        S      1
,,8HNode Box,8HNode Box,7Hunknown,7Hunknown,32,38,7,99,15,,1.,2,2HMM,1, G      1
0.08,15H20220922.115426,0.01,10000.,7Hunknown,7Hunknown,11,0,;          G      2
     186       1                                                00000000D      1
     186            -285       1       0                               0D      2
     514       2                                                00010000D      3
     514                       2       1                               0D      4
     510       4                                                00010000D      5
     510            -285       1       1                               0D      6
     510       5                                                00010000D      7
     510            -285       1       1                               0D      8
     510       6                                                00010000D      9
     510            -285       1       1                               0D     10
     510       7                                                00010000D     11
     510            -285       1       1                               0D     12
     510       8                                                00010000D     13
     510            -285       1       1                               0D     14
     510       9                                                00010000D     15
     510            -285       1       1                               0D     16
     510      10                                                00010000D     17
     510            -285       1       1                               0D     18
     510      11                                                00010000D     19
     510            -285       1       1                               0D     20
     510      12                                                00010000D     21
     510            -285       1       1                               0D     22
     510      13                                                00010000D     23
     510            -285       1       1                               0D     24
     510      14                                                00010000D     25
     510            -285       1       1                               0D     26
     510      15                                                00010000D     27
     510            -285       1       1                               0D     28
     510      16                                                00010000D     29
     510            -285       1       1                               0D     30
     510      17                                                00010000D     31
     510            -285       1       1                               0D     32
     510      18                                                00010000D     33
     510            -285       1       1                               0D     34
     510      19                                                00010000D     35
     510            -285       1       1                               0D     36
     510      20                                                00010000D     37
     510            -285       1       1                               0D     38
     510      21                                                00010000D     39
     510            -285       1       1                               0D     40
     510      22                                                00010000D     41
     510            -285       1       1                               0D     42
     510      23                                                00010000D     43
     510            -285       1       1                               0D     44
     510      24                                                00010000D     45
     510            -285       1       1                               0D     46
     510      25                                                00010000D     47
     510            -285       1       1                               0D     48
     510      26                                                00010000D     49
     510            -285       1       1                               0D     50
     508      27                                                00010000D     51
     508                       1       1                               0D     52
     508      28                                                00010000D     53
     508                       1       1                               0D     54
     508      29                                                00010000D     55
     508                       2       1                               0D     56
     508      31                                                00010000D     57
     508                       1       1                               0D     58
     508      32                                                00010000D     59
     508                       1       1                               0D     60
     508      33                                                00010000D     61
     508                       1       1                               0D     62
     508      34                                                00010000D     63
     508                       1       1                               0D     64
     508      35                                                00010000D     65
     508                       1       1                               0D     66
     508      36                                                00010000D     67
     508                       1       1                               0D     68
     508      37                                                00010000D     69
     508                       2       1                               0D     70
     508      39                                                00010000D     71
     508                       1       1                               0D     72
     508      40                                                00010000D     73
     508                       2       1                               0D     74
     508      42                                                00010000D     75
     508                       1       1                               0D     76
     508      43                                                00010000D     77
     508                       2       1                               0D     78
     508      45                                                00010000D     79
     508                       1       1                               0D     80
     508      46                                                00010000D     81
     508                       1       1                               0D     82
     508      47                                                00010000D     83
     508                       2       1                               0D     84
     508      49                                                00010000D     85
     508                       2       1                               0D     86
     508      51                                                00010000D     87
     508                       1       1                               0D     88
     508      52                                                00010000D     89
     508                       1       1                               0D     90
     508      53                                                00010000D     91
     508                       2       1                               0D     92
     508      55                                                00010000D     93
     508                       1       1                               0D     94
     508      56                                                00010000D     95
     508                       1       1                               0D     96
     508      57                                                00010000D     97
     508                       1       1                               0D     98
     508      58                                                00010000D     99
     508                       1       1                               0D    100
     508      59                                                00010000D    101
     508                       2       1                               0D    102
     126      61                                                00010000D    103
     126       0               5       0                               0D    104
     126      66                                                00010000D    105
     126       0               2       0                               0D    106
     126      68                                                00010000D    107
     126       0               5       0                               0D    108
     126      73                                                00010000D    109
     126       0               2       0                               0D    110
     126      75                                                00010000D    111
     126       0               2       0                               0D    112
     126      77                                                00010000D    113
     126       0               2       0                               0D    114
     126      79                                                00010000D    115
     126       0               2       0                               0D    116
     126      81                                                00010000D    117
     126       0               2       0                               0D    118
     126      83                                                00010000D    119
     126       0               5       0                               0D    120
     126      88                                                00010000D    121
     126       0               3       0                               0D    122
     126      91                                                00010000D    123
     126       0               5       0                               0D    124
     126      96                                                00010000D    125
     126       0               2       0                               0D    126
     126      98                                                00010000D    127
     126       0               5       0                               0D    128
     126     103                                                00010000D    129
     126       0               2       0                               0D    130
     126     105                                                00010000D    131
     126       0               3       0                               0D    132
     126     108                                                00010000D    133
     126       0               2       0                               0D    134
     126     110                                                00010000D    135
     126       0               2       0                               0D    136
     126     112                                                00010000D    137
     126       0               5       0                               0D    138
     126     117                                                00010000D    139
     126       0               2       0                               0D    140
     126     119                                                00010000D    141
     126       0               2       0                               0D    142
     126     121                                                00010000D    143
     126       0               3       0                               0D    144
     126     124                                                00010000D    145
     126       0               2       0                               0D    146
     126     126                                                00010000D    147
     126       0               5       0                               0D    148
     126     131                                                00010000D    149
     126       0               2       0                               0D    150
     126     133                                                00010000D    151
     126       0               5       0                               0D    152
     126     138                                                00010000D    153
     126       0               2       0                               0D    154
     126     140                                                00010000D    155
     126       0               4       0                               0D    156
     126     144                                                00010000D    157
     126       0               2       0                               0D    158
     126     146                                                00010000D    159
     126       0               2       0                               0D    160
     126     148                                                00010000D    161
     126       0               2       0                               0D    162
     126     150                                                00010000D    163
     126       0               2       0                               0D    164
     126     152                                                00010000D    165
     126       0               2       0                               0D    166
     126     154                                                00010000D    167
     126       0               3       0                               0D    168
     126     157                                                00010000D    169
     126       0               2       0                               0D    170
     126     159                                                00010000D    171
     126       0               4       0                               0D    172
     126     163                                                00010000D    173
     126       0               2       0                               0D    174
     126     165                                                00010000D    175
     126       0               4       0                               0D    176
     126     169                                                00010000D    177
     126       0               2       0                               0D    178
     126     171                                                00010000D    179
     126       0               2       0                               0D    180
     126     173                                                00010000D    181
     126       0               3       0                               0D    182
     126     176                                                00010000D    183
     126       0               4       0                               0D    184
     126     180                                                00010000D    185
     126       0               3       0                               0D    186
     126     183                                                00010000D    187
     126       0               2       0                               0D    188
     126     185                                                00010000D    189
     126       0               2       0                               0D    190
     126     187                                                00010000D    191
     126       0               2       0                               0D    192
     126     189                                                00010000D    193
     126       0               3       0                               0D    194
     126     192                                                00010000D    195
     126       0               2       0                               0D    196
     126     194                                                00010000D    197
     126       0               2       0                               0D    198
     126     196                                                00010000D    199
     126       0               2       0                               0D    200
     126     198                                                00010000D    201
     126       0               3       0                               0D    202
     126     201                                                00010000D    203
     126       0               2       0                               0D    204
     126     203                                                00010000D    205
     126       0               2       0                               0D    206
     126     205                                                00010000D    207
     126       0               2       0                               0D    208
     126     207                                                00010000D    209
     126       0               3       0                               0D    210
     126     210                                                00010000D    211
     126       0               2       0                               0D    212
     126     212                                                00010000D    213
     126       0               2       0                               0D    214
     126     214                                                00010000D    215
     126       0               2       0                               0D    216
     126     216                                                00010000D    217
     126       0               3       0                               0D    218
     126     219                                                00010000D    219
     126       0               2       0                               0D    220
     126     221                                                00010000D    221
     126       0               2       0                               0D    222
     126     223                                                00010000D    223
     126       0               2       0                               0D    224
     126     225                                                00010000D    225
     126       0               2       0                               0D    226
     126     227                                                00010000D    227
     126       0               3       0                               0D    228
     126     230                                                00010000D    229
     126       0               2       0                               0D    230
     128     232                                                00010000D    231
     128       0    -285       6       0                               0D    232
     128     238                                                00010000D    233
     128       0    -285       3       0                               0D    234
     128     241                                                00010000D    235
     128       0    -285       4       0                               0D    236
     128     245                                                00010000D    237
     128       0    -285       7       0                               0D    238
     128     252                                                00010000D    239
     128       0    -285       4       0                               0D    240
     128     256                                                00010000D    241
     128       0    -285       7       0                               0D    242
     128     263                                                00010000D    243
     128       0    -285       7       0                               0D    244
     128     270                                                00010000D    245
     128       0    -285       4       0                               0D    246
     128     274                                                00010000D    247
     128       0    -285       5       0                               0D    248
     128     279                                                00010000D    249
     128       0    -285       5       0                               0D    250
     128     284                                                00010000D    251
     128       0    -285       5       0                               0D    252
     128     289                                                00010000D    253
     128       0    -285       4       0                               0D    254
     128     293                                                00010000D    255
     128       0    -285       3       0                               0D    256
     128     296                                                00010000D    257
     128       0    -285       3       0                               0D    258
     128     299                                                00010000D    259
     128       0    -285       3       0                               0D    260
     128     302                                                00010000D    261
     128       0    -285       3       0                               0D    262
     128     305                                                00010000D    263
     128       0    -285       3       0                               0D    264
     128     308                                                00010000D    265
     128       0    -285       3       0                               0D    266
     128     311                                                00010000D    267
     128       0    -285       4       0                               0D    268
     128     315                                                00010000D    269
     128       0    -285       5       0                               0D    270
     128     320                                                00010000D    271
     128       0    -285       4       0                               0D    272
     128     324                                                00010000D    273
     128       0    -285       3       0                               0D    274
     128     327                                                00010000D    275
     128       0    -285       3       0                               0D    276
     502     330                                                00010000D    277
     502                      15       1                               0D    278
     504     345                                                00010001D    279
     504                      18       1                               0D    280
     406     363                                                00000000D    281
     406                       1      15                               0D    282
     406     364                                                00000000D    283
     406                       1      15                               0D    284
     314     365                                                00000200D    285
     314                       2       0                               0D    286
186,3,1,0,0,1,281;                                                     1P      1
514,23,5,1,7,1,9,1,11,1,13,1,15,1,17,1,19,1,21,1,23,1,25,1,27,1,       3P      2
29,1,31,1,33,1,35,1,37,1,39,1,41,1,43,1,45,1,47,1,49,1;                3P      3
510,231,1,1,51;                                                        5P      4
510,233,1,1,53;                                                        7P      5
510,235,2,1,55,57;                                                     9P      6
510,237,1,1,59;                                                       11P      7
510,239,1,1,61;                                                       13P      8
510,241,1,1,63;                                                       15P      9
510,243,1,1,65;                                                       17P     10
510,245,1,1,67;                                                       19P     11
510,247,1,1,69;                                                       21P     12
510,249,1,1,71;                                                       23P     13
510,251,1,1,73;                                                       25P     14
510,253,1,1,75;                                                       27P     15
510,255,1,1,77;                                                       29P     16
510,257,2,1,79,81;                                                    31P     17
510,259,1,1,83;                                                       33P     18
510,261,1,1,85;                                                       35P     19
510,263,1,1,87;                                                       37P     20
510,265,1,1,89;                                                       39P     21
510,267,2,1,91,93;                                                    41P     22
510,269,1,1,95;                                                       43P     23
510,271,1,1,97;                                                       45P     24
510,273,1,1,99;                                                       47P     25
510,275,1,1,101;                                                      49P     26
508,4,0,279,1,1,0,0,279,2,1,0,0,279,3,1,0,0,279,4,1,0;                51P     27
508,4,0,279,4,0,0,0,279,5,1,0,0,279,6,0,0,0,279,7,0,0;                53P     28
508,8,0,279,3,0,0,0,279,8,1,0,0,279,9,0,0,0,279,10,1,0,0,279,11,      55P     29
0,0,0,279,12,1,0,0,279,13,0,0,0,279,5,0,0;                            55P     30
508,4,0,279,14,1,0,0,279,15,1,0,0,279,16,0,0,0,279,17,1,0;            57P     31
508,4,0,279,18,1,0,0,279,19,1,0,0,279,9,1,0,0,279,20,1,0;             59P     32
508,4,0,279,19,0,0,0,279,21,0,0,0,279,22,0,0,0,279,10,0,0;            61P     33
508,4,0,279,23,1,0,0,279,24,1,0,0,279,11,1,0,0,279,22,1,0;            63P     34
508,4,0,279,25,1,0,0,279,6,1,0,0,279,13,1,0,0,279,26,1,0;             65P     35
508,4,0,279,27,0,0,0,279,28,0,0,0,279,29,0,0,0,279,30,0,0;            67P     36
508,5,0,279,31,0,0,0,279,32,1,0,0,279,33,0,0,0,279,30,1,0,0,279,      69P     37
34,0,0;                                                               69P     38
508,4,0,279,35,0,0,0,279,36,1,0,0,279,37,0,0,0,279,32,0,0;            71P     39
508,5,0,279,38,0,0,0,279,39,1,0,0,279,28,1,0,0,279,40,0,0,0,279,      73P     40
36,0,0;                                                               73P     41
508,4,0,279,41,0,0,0,279,34,1,0,0,279,29,1,0,0,279,39,0,0;            75P     42
508,8,0,279,40,1,0,0,279,42,0,0,0,279,43,1,0,0,279,44,0,0,0,279,      77P     43
45,0,0,0,279,46,0,0,0,279,33,1,0,0,279,37,1,0;                        77P     44
508,4,0,279,24,0,0,0,279,47,0,0,0,279,26,0,0,0,279,12,0,0;            79P     45
508,4,0,279,31,1,0,0,279,41,1,0,0,279,38,1,0,0,279,35,1,0;            81P     46
508,8,0,279,48,0,0,0,279,49,0,0,0,279,16,1,0,0,279,50,1,0,0,279,      83P     47
51,0,0,0,279,52,1,0,0,279,53,0,0,0,279,43,0,0;                        83P     48
508,8,0,279,54,0,0,0,279,45,1,0,0,279,55,0,0,0,279,56,0,0,0,279,      85P     49
57,0,0,0,279,58,0,0,0,279,14,0,0,0,279,59,1,0;                        85P     50
508,4,0,279,60,0,0,0,279,56,1,0,0,279,61,0,0,0,279,52,0,0;            87P     51
508,4,0,279,2,0,0,0,279,62,0,0,0,279,20,0,0,0,279,8,0,0;              89P     52
508,8,0,279,1,0,0,0,279,7,1,0,0,279,25,0,0,0,279,47,1,0,0,279,        91P     53
23,0,0,0,279,21,1,0,0,279,18,0,0,0,279,62,1,0;                        91P     54
508,4,0,279,53,1,0,0,279,61,1,0,0,279,55,1,0,0,279,44,1,0;            93P     55
508,4,0,279,15,0,0,0,279,58,1,0,0,279,63,0,0,0,279,50,0,0;            95P     56
508,4,0,279,63,1,0,0,279,57,1,0,0,279,60,1,0,0,279,51,1,0;            97P     57
508,4,0,279,17,0,0,0,279,49,1,0,0,279,64,0,0,0,279,59,0,0;            99P     58
508,6,0,279,54,1,0,0,279,64,1,0,0,279,48,1,0,0,279,42,1,0,0,279,     101P     59
27,1,0,0,279,46,1,0;                                                 101P     60
126,2,2,0,0,0,0,-0.785398163397449,-0.785398163397449,               103P     61
-0.785398163397449,0.785398163397448,0.785398163397448,              103P     62
0.785398163397448,1.,0.707106781186547,1.,-14.55,20.,-2.5,           103P     63
-14.55,20.,-6.5,-10.55,20.,-6.5,-0.785398163397449,                  103P     64
0.785398163397448,0.,0.,0.;                                          103P     65
126,1,1,0,0,1,0,-0.85,-0.85,0.,0.,1.,1.,-10.55,20.,-6.5,-10.55,      105P     66
11.5,-6.5,-0.85,0.,0.,0.,0.;                                         105P     67
126,2,2,0,0,0,0,-0.785398163397448,-0.785398163397448,               107P     68
-0.785398163397448,0.785398163397449,0.785398163397449,              107P     69
0.785398163397449,1.,0.707106781186547,1.,-10.55,11.5,-6.5,          107P     70
-14.55,11.5,-6.5,-14.55,11.5,-2.5,-0.785398163397448,                107P     71
0.785398163397449,0.,0.,0.;                                          107P     72
126,1,1,0,0,1,0,0.,0.,0.85,0.85,1.,1.,-14.55,11.5,-2.5,-14.55,       109P     73
20.,-2.5,0.,0.85,0.,0.,0.;                                           109P     74
126,1,1,0,0,1,0,0.4,0.4,3.48,3.48,1.,1.,-14.55,11.5,-2.5,-14.55,     111P     75
11.5,28.3,0.4,3.48,0.,0.,0.;                                         111P     76
126,1,1,0,0,1,0,-0.85,-0.85,0.,0.,1.,1.,-14.55,20.,28.3,-14.55,      113P     77
11.5,28.3,-0.85,0.,0.,0.,0.;                                         113P     78
126,1,1,0,0,1,0,0.4,0.4,3.48,3.48,1.,1.,-14.55,20.,-2.5,-14.55,      115P     79
20.,28.3,0.4,3.48,0.,0.,0.;                                          115P     80
126,1,1,0,0,1,0,0.2,0.2,2.38,2.38,1.,1.,-10.55,11.5,-6.5,11.25,      117P     81
11.5,-6.5,0.2,2.38,0.,0.,0.;                                         117P     82
126,2,2,0,0,0,0,-0.785398163397448,-0.785398163397448,               119P     83
-0.785398163397448,0.785398163397449,0.785398163397449,              119P     84
0.785398163397449,1.,0.707106781186548,1.,15.25,11.5,-2.5,15.25,     119P     85
11.5,-6.50000000000001,11.25,11.5,-6.5,-0.785398163397448,           119P     86
0.785398163397449,0.,0.,0.;                                          119P     87
126,1,1,0,0,1,0,-3.23,-3.23,-0.149999999999999,                      121P     88
-0.149999999999999,1.,1.,15.25,11.5,-2.5,15.25,11.5,28.3,-3.23,      121P     89
-0.149999999999999,0.,0.,0.;                                         121P     90
126,2,2,0,0,0,0,-0.785398163397449,-0.785398163397449,               123P     91
-0.785398163397449,0.785398163397448,0.785398163397448,              123P     92
0.785398163397448,1.,0.707106781186546,1.,11.75,11.5,31.8,15.25,     123P     93
11.5,31.8,15.25,11.5,28.3,-0.785398163397449,0.785398163397448,      123P     94
0.,0.,0.;                                                            123P     95
126,1,1,0,0,1,0,0.35,0.35,2.63,2.63,1.,1.,11.75,11.5,31.8,           125P     96
-11.05,11.5,31.8,0.35,2.63,0.,0.,0.;                                 125P     97
126,2,2,0,0,0,0,-0.785398163397448,-0.785398163397448,               127P     98
-0.785398163397448,0.78539816339745,0.78539816339745,                127P     99
0.78539816339745,1.,0.707106781186545,1.,-14.55,11.5,28.3,           127P    100
-14.55,11.5,31.8,-11.05,11.5,31.8,-0.785398163397448,                127P    101
0.78539816339745,0.,0.,0.;                                           127P    102
126,1,1,0,0,1,0,0.55,0.55,2.98,2.98,1.,1.,13.25,11.5,24.3,13.25,     129P    103
11.5,-4.44089209850063D-15,0.55,2.98,0.,0.,0.;                       129P    104
126,1,1,0,0,1,0,0.,0.,2.58,2.58,1.,1.,13.25,11.5,                    131P    105
-2.75545529808154D-15,-12.55,11.5,-2.75545529808154D-15,0.,2.58,     131P    106
0.,0.,0.;                                                            131P    107
126,1,1,0,0,1,0,0.55,0.55,2.98,2.98,1.,1.,-12.55,11.5,24.3,          133P    108
-12.55,11.5,-4.44089209850063D-15,0.55,2.98,0.,0.,0.;                133P    109
126,1,1,0,0,1,0,0.,0.,2.58,2.58,1.,1.,-12.55,11.5,24.3,13.25,        135P    110
11.5,24.3,0.,2.58,0.,0.,0.;                                          135P    111
126,2,2,0,0,0,0,-0.785398163397449,-0.785398163397449,               137P    112
-0.785398163397449,0.785398163397448,0.785398163397448,              137P    113
0.785398163397448,1.,0.707106781186548,1.,11.25,20.,-6.5,15.25,      137P    114
20.,-6.50000000000001,15.25,20.,-2.5,-0.785398163397449,             137P    115
0.785398163397448,0.,0.,0.;                                          137P    116
126,1,1,0,0,1,0,-0.85,-0.85,0.,0.,1.,1.,15.25,20.,-2.5,15.25,        139P    117
11.5,-2.5,-0.85,0.,0.,0.,0.;                                         139P    118
126,1,1,0,0,1,0,0.,0.,0.85,0.85,1.,1.,11.25,11.5,-6.5,11.25,20.,     141P    119
-6.5,0.,0.85,0.,0.,0.;                                               141P    120
126,1,1,0,0,1,0,0.149999999999999,0.149999999999999,3.23,3.23,       143P    121
1.,1.,15.25,20.,28.3,15.25,20.,-2.5,0.149999999999999,3.23,0.,       143P    122
0.,0.;                                                               143P    123
126,1,1,0,0,1,0,0.,0.,0.85,0.85,1.,1.,15.25,11.5,28.3,15.25,20.,     145P    124
28.3,0.,0.85,0.,0.,0.;                                               145P    125
126,2,2,0,0,0,0,-0.785398163397448,-0.785398163397448,               147P    126
-0.785398163397448,0.785398163397449,0.785398163397449,              147P    127
0.785398163397449,1.,0.707106781186546,1.,15.25,20.,28.3,15.25,      147P    128
20.,31.8,11.75,20.,31.8,-0.785398163397448,0.785398163397449,0.,     147P    129
0.,0.;                                                               147P    130
126,1,1,0,0,1,0,-0.85,-0.85,0.,0.,1.,1.,11.75,20.,31.8,11.75,        149P    131
11.5,31.8,-0.85,0.,0.,0.,0.;                                         149P    132
126,2,2,0,0,0,0,-0.78539816339745,-0.78539816339745,                 151P    133
-0.78539816339745,0.785398163397448,0.785398163397448,               151P    134
0.785398163397448,1.,0.707106781186545,1.,-11.05,20.,31.8,           151P    135
-14.55,20.,31.8,-14.55,20.,28.3,-0.78539816339745,                   151P    136
0.785398163397448,0.,0.,0.;                                          151P    137
126,1,1,0,0,1,0,0.,0.,0.85,0.85,1.,1.,-11.05,11.5,31.8,-11.05,       153P    138
20.,31.8,0.,0.85,0.,0.,0.;                                           153P    139
126,1,1,0,0,1,0,0.87601401698474,0.87601401698474,                   155P    140
2.07601401698474,2.07601401698474,1.,1.,-5.7898598301526,14.6,       155P    141
29.8,6.2101401698474,14.6,29.8,0.87601401698474,                     155P    142
2.07601401698474,0.,0.,0.;                                           155P    143
126,1,1,0,0,1,0,0.,0.,0.16,0.16,1.,1.,-5.7898598301526,13.,29.8,     157P    144
-5.7898598301526,14.6,29.8,0.,0.16,0.,0.,0.;                         157P    145
126,1,1,0,0,1,0,0.,0.,1.2,1.2,1.,1.,6.2101401698474,13.,29.8,        159P    146
-5.7898598301526,13.,29.8,0.,1.2,0.,0.,0.;                           159P    147
126,1,1,0,0,1,0,0.49,0.49,0.65,0.65,1.,1.,6.2101401698474,14.6,      161P    148
29.8,6.2101401698474,13.,29.8,0.49,0.65,0.,0.,0.;                    161P    149
126,1,1,0,0,1,0,-0.4,-0.4,0.25,0.25,1.,1.,6.2101401698474,19.5,      163P    150
31.8,6.2101401698474,13.,31.8,-0.4,0.25,0.,0.,0.;                    163P    151
126,1,1,0,0,1,0,0.,0.,0.2,0.2,1.,1.,6.2101401698474,19.5,31.8,       165P    152
6.2101401698474,19.5,29.8,0.,0.2,0.,0.,0.;                           165P    153
126,1,1,0,0,1,0,-0.0899999999999999,-0.0899999999999999,0.4,0.4,     167P    154
1.,1.,6.2101401698474,14.6,29.8,6.2101401698474,19.5,29.8,           167P    155
-0.0899999999999999,0.4,0.,0.,0.;                                    167P    156
126,1,1,0,0,1,0,0.,0.,0.2,0.2,1.,1.,6.2101401698474,13.,31.8,        169P    157
6.2101401698474,13.,29.8,0.,0.2,0.,0.,0.;                            169P    158
126,1,1,0,0,1,0,0.43800700849237,0.43800700849237,                   171P    159
1.63800700849237,1.63800700849237,1.,1.,-5.7898598301526,19.5,       171P    160
31.8,6.2101401698474,19.5,31.8,0.43800700849237,                     171P    161
1.63800700849237,0.,0.,0.;                                           171P    162
126,1,1,0,0,1,0,0.,0.,0.2,0.2,1.,1.,-5.7898598301526,19.5,31.8,      173P    163
-5.7898598301526,19.5,29.8,0.,0.2,0.,0.,0.;                          173P    164
126,1,1,0,0,1,0,-0.14800700849237,-0.14800700849237,                 175P    165
1.05199299150763,1.05199299150763,1.,1.,6.2101401698474,19.5,        175P    166
29.8,-5.7898598301526,19.5,29.8,-0.14800700849237,                   175P    167
1.05199299150763,0.,0.,0.;                                           175P    168
126,1,1,0,0,1,0,0.075,0.075,0.725,0.725,1.,1.,-5.7898598301526,      177P    169
13.,31.8,-5.7898598301526,19.5,31.8,0.075,0.725,0.,0.,0.;            177P    170
126,1,1,0,0,1,0,0.,0.,0.2,0.2,1.,1.,-5.7898598301526,13.,31.8,       179P    171
-5.7898598301526,13.,29.8,0.,0.2,0.,0.,0.;                           179P    172
126,1,1,0,0,1,0,-0.725,-0.725,-0.235,-0.235,1.,1.,                   181P    173
-5.7898598301526,19.5,29.8,-5.7898598301526,14.6,29.8,-0.725,        181P    174
-0.235,0.,0.,0.;                                                     181P    175
126,1,1,0,0,1,0,-1.03800700849237,-1.03800700849237,                 183P    176
0.16199299150763,0.16199299150763,1.,1.,6.2101401698474,13.,         183P    177
31.8,-5.7898598301526,13.,31.8,-1.03800700849237,                    183P    178
0.16199299150763,0.,0.,0.;                                           183P    179
126,1,1,0,0,1,0,0.2,0.2,0.87601401698474,0.87601401698474,1.,1.,     185P    180
-12.55,14.6,29.8,-5.7898598301526,14.6,29.8,0.2,                     185P    181
0.87601401698474,0.,0.,0.;                                           185P    182
126,1,1,0,0,1,0,0.31,0.31,0.85,0.85,1.,1.,-12.55,14.6,29.8,          187P    183
-12.55,20.,29.8,0.31,0.85,0.,0.,0.;                                  187P    184
126,1,1,0,0,1,0,-2.78,-2.78,-0.2,-0.2,1.,1.,13.25,20.,29.8,          189P    185
-12.55,20.,29.8,-2.78,-0.2,0.,0.,0.;                                 189P    186
126,1,1,0,0,1,0,0.31,0.31,0.85,0.85,1.,1.,13.25,14.6,29.8,13.25,     191P    187
20.,29.8,0.31,0.85,0.,0.,0.;                                         191P    188
126,1,1,0,0,1,0,2.07601401698474,2.07601401698474,2.78,2.78,1.,      193P    189
1.,6.2101401698474,14.6,29.8,13.25,14.6,29.8,2.07601401698474,       193P    190
2.78,0.,0.,0.;                                                       193P    191
126,1,1,0,0,1,0,-2.63,-2.63,-0.35,-0.35,1.,1.,-11.05,20.,31.8,       195P    192
11.75,20.,31.8,-2.63,-0.35,0.,0.,0.;                                 195P    193
126,1,1,0,0,1,0,-0.55,-0.55,0.,0.,1.,1.,-12.55,14.6,24.3,-12.55,     197P    194
14.6,29.8,-0.55,0.,0.,0.,0.;                                         197P    195
126,1,1,0,0,1,0,0.,0.,0.31,0.31,1.,1.,-12.55,11.5,24.3,-12.55,       199P    196
14.6,24.3,0.,0.31,0.,0.,0.;                                          199P    197
126,1,1,0,0,1,0,0.,0.,0.52,0.52,1.,1.,-12.55,11.5,                   201P    198
-3.53677304813011D-15,-12.55,16.7,-3.53677304813011D-15,0.,0.52,     201P    199
0.,0.,0.;                                                            201P    200
126,1,1,0,0,1,0,-3.43,-3.43,-2.98,-2.98,1.,1.,-12.55,16.7,-4.5,      203P    201
-12.55,16.7,-4.44089209850063D-15,-3.43,-2.98,0.,0.,0.;              203P    202
126,1,1,0,0,1,0,0.52,0.52,0.85,0.85,1.,1.,-12.55,16.7,-4.5,          205P    203
-12.55,20.,-4.5,0.52,0.85,0.,0.,0.;                                  205P    204
126,1,1,0,0,1,0,0.,0.,3.43,3.43,1.,1.,-12.55,20.,29.8,-12.55,        207P    205
20.,-4.5,0.,3.43,0.,0.,0.;                                           207P    206
126,1,1,0,0,1,0,8.88178419700125D-16,8.88178419700125D-16,0.55,      209P    207
0.55,1.,1.,13.25,14.6,29.8,13.25,14.6,24.3,8.88178419700125D-16,     209P    208
0.55,0.,0.,0.;                                                       209P    209
126,1,1,0,0,1,0,-3.43,-3.43,0.,0.,1.,1.,13.25,20.,-4.5,13.25,        211P    210
20.,29.8,-3.43,0.,0.,0.,0.;                                          211P    211
126,1,1,0,0,1,0,0.52,0.52,0.85,0.85,1.,1.,13.25,16.7,-4.5,13.25,     213P    212
20.,-4.5,0.52,0.85,0.,0.,0.;                                         213P    213
126,1,1,0,0,1,0,2.98,2.98,3.43,3.43,1.,1.,13.25,16.7,                215P    214
-4.44089209850063D-15,13.25,16.7,-4.5,2.98,3.43,0.,0.,0.;            215P    215
126,1,1,0,0,1,0,0.,0.,0.52,0.52,1.,1.,13.25,11.5,                    217P    216
-3.33066907387547D-15,13.25,16.7,-3.33066907387547D-15,0.,0.52,      217P    217
0.,0.,0.;                                                            217P    218
126,1,1,0,0,1,0,0.,0.,0.31,0.31,1.,1.,13.25,11.5,24.3,13.25,         219P    219
14.6,24.3,0.,0.31,0.,0.,0.;                                          219P    220
126,1,1,0,0,1,0,0.,0.,2.58,2.58,1.,1.,13.25,16.7,-4.5,-12.55,        221P    221
16.7,-4.5,0.,2.58,0.,0.,0.;                                          221P    222
126,1,1,0,0,1,0,-2.58,-2.58,0.,0.,1.,1.,-12.55,20.,-4.5,13.25,       223P    223
20.,-4.5,-2.58,0.,0.,0.,0.;                                          223P    224
126,1,1,0,0,1,0,-2.38,-2.38,-0.2,-0.2,1.,1.,11.25,20.,-6.5,          225P    225
-10.55,20.,-6.5,-2.38,-0.2,0.,0.,0.;                                 225P    226
126,1,1,0,0,1,0,-2.58,-2.58,0.,0.,1.,1.,-12.55,16.7,                 227P    227
-2.75545529808154D-15,13.25,16.7,-2.75545529808154D-15,-2.58,0.,     227P    228
0.,0.,0.;                                                            227P    229
126,1,1,0,0,1,0,-2.58,-2.58,0.,0.,1.,1.,13.25,14.6,24.3,-12.55,      229P    230
14.6,24.3,-2.58,0.,0.,0.,0.;                                         229P    231
128,1,2,1,2,0,0,0,0,0,0.,0.,2.125,2.125,-0.785398163397448,          231P    232
-0.785398163397448,-0.785398163397448,0.785398163397449,             231P    233
0.785398163397449,0.785398163397449,1.,1.,0.707106781186547,         231P    234
0.707106781186547,1.,1.,-10.55,20.,-6.5,-10.55,11.5,-6.5,-14.55,     231P    235
20.,-6.5,-14.55,11.5,-6.5,-14.55,20.,-2.5,-14.55,11.5,-2.5,0.,       231P    236
2.125,-0.785398163397448,0.785398163397449;                          231P    237
128,1,1,1,1,0,0,1,0,0,0.399,0.399,3.481,3.481,-0.001,-0.001,         233P    238
0.851,0.851,1.,1.,1.,1.,-14.55,11.49,-2.51,-14.55,11.49,28.31,       233P    239
-14.55,20.01,-2.51,-14.55,20.01,28.31,0.399,3.481,-0.001,0.851;      233P    240
128,1,1,1,1,0,0,1,0,0,-1.491,-1.491,1.491,1.491,-3.356,-3.356,       235P    241
0.476000000000001,0.476000000000001,1.,1.,1.,1.,-14.56,11.5,         235P    242
-6.51,15.26,11.5,-6.51,-14.56,11.5,31.81,15.26,11.5,31.81,           235P    243
-1.491,1.491,-3.356,0.476000000000001;                               235P    244
128,1,2,1,2,0,0,0,0,0,0.,0.,2.125,2.125,-0.785398163397448,          237P    245
-0.785398163397448,-0.785398163397448,0.785398163397449,             237P    246
0.785398163397449,0.785398163397449,1.,1.,0.707106781186547,         237P    247
0.707106781186547,1.,1.,15.25,20.,-2.50000000000001,15.25,11.5,      237P    248
-2.50000000000001,15.25,20.,-6.50000000000001,15.25,11.5,            237P    249
-6.50000000000001,11.25,20.,-6.5,11.25,11.5,-6.5,0.,2.125,           237P    250
-0.785398163397448,0.785398163397449;                                237P    251
128,1,1,1,1,0,0,1,0,0,0.148999999999999,0.148999999999999,3.231,     239P    252
3.231,-0.001,-0.001,0.851,0.851,1.,1.,1.,1.,15.25,11.49,28.31,       239P    253
15.25,11.49,-2.51,15.25,20.01,28.31,15.25,20.01,-2.51,               239P    254
0.148999999999999,3.231,-0.001,0.851;                                239P    255
128,1,2,1,2,0,0,0,0,0,0.,0.,2.42857142857143,2.42857142857143,       241P    256
-0.785398163397449,-0.785398163397449,-0.785398163397449,            241P    257
0.785398163397448,0.785398163397448,0.785398163397448,1.,1.,         241P    258
0.707106781186548,0.707106781186548,1.,1.,11.75,20.,31.8,11.75,      241P    259
11.5,31.8,15.25,20.,31.8,15.25,11.5,31.8,15.25,20.,28.3,15.25,       241P    260
11.5,28.3,0.,2.42857142857143,-0.785398163397449,                    241P    261
0.785398163397448;                                                   241P    262
128,1,2,1,2,0,0,0,0,0,0.,0.,2.42857142857143,2.42857142857143,       243P    263
-0.785398163397448,-0.785398163397448,-0.785398163397448,            243P    264
0.78539816339745,0.78539816339745,0.78539816339745,1.,1.,            243P    265
0.707106781186547,0.707106781186547,1.,1.,-14.55,20.,28.3,           243P    266
-14.55,11.5,28.3,-14.55,20.,31.8,-14.55,11.5,31.8,-11.05,20.,        243P    267
31.8,-11.05,11.5,31.8,0.,2.42857142857143,-0.785398163397448,        243P    268
0.78539816339745;                                                    243P    269
128,1,1,1,1,0,0,1,0,0,-0.601,-0.601,0.601,0.601,-0.326,-0.326,       245P    270
-0.164,-0.164,1.,1.,1.,1.,-5.7998598301526,12.99,29.8,               245P    271
6.2201401698474,12.99,29.8,-5.7998598301526,14.61,29.8,              245P    272
6.2201401698474,14.61,29.8,-0.601,0.601,-0.326,-0.164;               245P    273
128,1,1,1,1,0,0,1,0,0,-0.001,-0.001,0.651,0.651,-0.001,-0.001,       247P    274
0.201000000000001,0.201000000000001,1.,1.,1.,1.,6.2101401698474,     247P    275
12.99,31.81,6.2101401698474,19.51,31.81,6.2101401698474,12.99,       247P    276
29.79,6.2101401698474,19.51,29.79,-0.001,0.651,-0.001,               247P    277
0.201000000000001;                                                   247P    278
128,1,1,1,1,0,0,1,0,0,-0.001,-0.001,1.201,1.201,-0.001,-0.001,       249P    279
0.201000000000001,0.201000000000001,1.,1.,1.,1.,6.2201401698474,     249P    280
19.5,31.81,-5.7998598301526,19.5,31.81,6.2201401698474,19.5,         249P    281
29.79,-5.7998598301526,19.5,29.79,-0.001,1.201,-0.001,               249P    282
0.201000000000001;                                                   249P    283
128,1,1,1,1,0,0,1,0,0,-0.001,-0.001,0.651,0.651,-0.001,-0.001,       251P    284
0.201000000000001,0.201000000000001,1.,1.,1.,1.,                     251P    285
-5.7898598301526,19.51,31.81,-5.7898598301526,12.99,31.81,           251P    286
-5.7898598301526,19.51,29.79,-5.7898598301526,12.99,29.79,           251P    287
-0.001,0.651,-0.001,0.201000000000001;                               251P    288
128,1,1,1,1,0,0,1,0,0,-0.001,-0.001,1.201,1.201,-0.001,-0.001,       253P    289
0.201,0.201,1.,1.,1.,1.,-5.7998598301526,13.,31.81,                  253P    290
6.2201401698474,13.,31.81,-5.7998598301526,13.,29.79,                253P    291
6.2201401698474,13.,29.79,-0.001,1.201,-0.001,0.201;                 253P    292
128,1,1,1,1,0,0,1,0,0,0.199,0.199,2.781,2.781,0.309,0.309,0.851,     255P    293
0.851,1.,1.,1.,1.,13.26,14.59,29.8,-12.56,14.59,29.8,13.26,          255P    294
20.01,29.8,-12.56,20.01,29.8,0.199,2.781,0.309,0.851;                255P    295
128,1,1,1,1,0,0,1,0,0,0.349,0.349,2.631,2.631,-0.001,-0.001,         257P    296
0.851,0.851,1.,1.,1.,1.,-11.06,11.49,31.8,11.76,11.49,31.8,          257P    297
-11.06,20.01,31.8,11.76,20.01,31.8,0.349,2.631,-0.001,0.851;         257P    298
128,1,1,1,1,0,0,1,0,0,-0.001,-0.001,3.431,3.431,-0.001,-0.001,       259P    299
0.851,0.851,1.,1.,1.,1.,-12.55,11.49,29.81,-12.55,11.49,-4.51,       259P    300
-12.55,20.01,29.81,-12.55,20.01,-4.51,-0.001,3.431,-0.001,0.851;     259P    301
128,1,1,1,1,0,0,1,0,0,-0.001,-0.001,3.431,3.431,-0.001,-0.001,       261P    302
0.851,0.851,1.,1.,1.,1.,13.25,11.49,-4.51,13.25,11.49,29.81,         261P    303
13.25,20.01,-4.51,13.25,20.01,29.81,-0.001,3.431,-0.001,0.851;       261P    304
128,1,1,1,1,0,0,1,0,0,-0.001,-0.001,2.581,2.581,0.519,0.519,         263P    305
0.851,0.851,1.,1.,1.,1.,-12.56,16.69,-4.5,13.26,16.69,-4.5,          263P    306
-12.56,20.01,-4.5,13.26,20.01,-4.5,-0.001,2.581,0.519,0.851;         263P    307
128,1,1,1,1,0,0,1,0,0,0.399,0.399,2.581,2.581,-0.001,-0.001,         265P    308
0.851,0.851,1.,1.,1.,1.,11.26,11.49,-6.5,-10.56,11.49,-6.5,          265P    309
11.26,20.01,-6.5,-10.56,20.01,-6.5,0.399,2.581,-0.001,0.851;         265P    310
128,1,1,1,1,0,0,1,0,0,-0.101,-0.101,3.731,3.731,-1.491,-1.491,       267P    311
1.491,1.491,1.,1.,1.,1.,-14.56,20.,-6.51000000000001,-14.56,20.,     267P    312
31.81,15.26,20.,-6.51000000000001,15.26,20.,31.81,-0.101,3.731,      267P    313
-1.491,1.491;                                                        267P    314
128,1,1,1,1,0,0,1,0,0,-0.001,-0.001,2.581,2.581,-0.001,-0.001,       269P    315
0.521,0.521,1.,1.,1.,1.,-12.56,11.49,-2.75545529808154D-15,          269P    316
13.26,11.49,-2.75545529808154D-15,-12.56,16.71,                      269P    317
-2.75545529808154D-15,13.26,16.71,-2.75545529808154D-15,-0.001,      269P    318
2.581,-0.001,0.521;                                                  269P    319
128,1,1,1,1,0,0,1,0,0,-0.226,-0.226,0.226,0.226,-1.291,-1.291,       271P    320
1.291,1.291,1.,1.,1.,1.,-12.56,16.7,-4.51,-12.56,16.7,               271P    321
0.00999999999999723,13.26,16.7,-4.51,13.26,16.7,                     271P    322
0.00999999999999723,-0.226,0.226,-1.291,1.291;                       271P    323
128,1,1,1,1,0,0,1,0,0,-0.001,-0.001,2.581,2.581,-0.001,-0.001,       273P    324
0.311,0.311,1.,1.,1.,1.,13.26,11.49,24.3,-12.56,11.49,24.3,          273P    325
13.26,14.61,24.3,-12.56,14.61,24.3,-0.001,2.581,-0.001,0.311;        273P    326
128,1,1,1,1,0,0,1,0,0,-0.276,-0.276,0.276,0.276,-1.291,-1.291,       275P    327
1.291,1.291,1.,1.,1.,1.,-12.56,14.6,24.29,-12.56,14.6,29.81,         275P    328
13.26,14.6,24.29,13.26,14.6,29.81,-0.276,0.276,-1.291,1.291;         275P    329
502,42,-14.55,20.,-2.5,-10.55,20.,-6.5,-10.55,11.5,-6.5,-14.55,      277P    330
11.5,-2.5,-14.55,11.5,28.3,-14.55,20.,28.3,11.25,11.5,-6.5,          277P    331
15.25,11.5,-2.5,15.25,11.5,28.3,11.75,11.5,31.8,-11.05,11.5,         277P    332
31.8,13.25,11.5,24.3,13.25,11.5,-3.33066907387547D-15,-12.55,        277P    333
11.5,-3.53677304813011D-15,-12.55,11.5,24.3,11.25,20.,-6.5,          277P    334
15.25,20.,-2.5,15.25,20.,28.3,11.75,20.,31.8,-11.05,20.,31.8,        277P    335
-5.7898598301526,14.6,29.8,6.2101401698474,14.6,29.8,                277P    336
-5.7898598301526,13.,29.8,6.2101401698474,13.,29.8,                  277P    337
6.2101401698474,19.5,31.8,6.2101401698474,13.,31.8,                  277P    338
6.2101401698474,19.5,29.8,-5.7898598301526,19.5,31.8,                277P    339
-5.7898598301526,19.5,29.8,-5.7898598301526,13.,31.8,-12.55,         277P    340
14.6,29.8,-12.55,20.,29.8,13.25,20.,29.8,13.25,14.6,29.8,-12.55,     277P    341
14.6,24.3,-12.55,16.7,-3.53677304813011D-15,-12.55,16.7,-4.5,        277P    342
-12.55,20.,-4.5,13.25,14.6,24.3,13.25,20.,-4.5,13.25,16.7,-4.5,      277P    343
13.25,16.7,-3.33066907387547D-15;                                    277P    344
504,64,103,277,1,277,2,105,277,2,277,3,107,277,3,277,4,109,277,      279P    345
4,277,1,111,277,4,277,5,113,277,6,277,5,115,277,1,277,6,117,277,     279P    346
3,277,7,119,277,8,277,7,121,277,8,277,9,123,277,10,277,9,125,        279P    347
277,10,277,11,127,277,5,277,11,129,277,12,277,13,131,277,13,277,     279P    348
14,133,277,15,277,14,135,277,15,277,12,137,277,16,277,17,139,        279P    349
277,17,277,8,141,277,7,277,16,143,277,18,277,17,145,277,9,277,       279P    350
18,147,277,18,277,19,149,277,19,277,10,151,277,20,277,6,153,277,     279P    351
11,277,20,155,277,21,277,22,157,277,23,277,21,159,277,24,277,23,     279P    352
161,277,22,277,24,163,277,25,277,26,165,277,25,277,27,167,277,       279P    353
22,277,27,169,277,26,277,24,171,277,28,277,25,173,277,28,277,29,     279P    354
175,277,27,277,29,177,277,30,277,28,179,277,30,277,23,181,277,       279P    355
29,277,21,183,277,26,277,30,185,277,31,277,21,187,277,31,277,32,     279P    356
189,277,33,277,32,191,277,34,277,33,193,277,22,277,34,195,277,       279P    357
20,277,19,197,277,35,277,31,199,277,15,277,35,201,277,14,277,36,     279P    358
203,277,37,277,36,205,277,37,277,38,207,277,32,277,38,209,277,       279P    359
34,277,39,211,277,40,277,33,213,277,41,277,40,215,277,42,277,41,     279P    360
217,277,13,277,42,219,277,12,277,39,221,277,41,277,37,223,277,       279P    361
38,277,40,225,277,16,277,2,227,277,36,277,42,229,277,39,277,35;      279P    362
406,1,5HBody2;                                                       281P    363
406,1,5HBody3;                                                       283P    364
314,62.7450980392157,62.7450980392157,62.7450980392157,13HSteel      285P    365
- Satin;                                                             285P    366
S      1G      2D    286P    366                                        T      1
