                                                                        S      1
,,12HNode Box Lid,12HNode Box Lid,7Hunknown,7Hunknown,32,38,7,99,15,,1.,G      1
2,2HMM,1,0.08,15H20220922.115427,0.01,10000.,7Hunknown,7Hunknown,11,0,; G      2
     186       1                                                00000000D      1
     186            -259       1       0                               0D      2
     514       2                                                00010000D      3
     514                       2       1                               0D      4
     510       4                                                00010000D      5
     510            -259       1       1                               0D      6
     510       5                                                00010000D      7
     510            -259       1       1                               0D      8
     510       6                                                00010000D      9
     510            -259       1       1                               0D     10
     510       7                                                00010000D     11
     510            -259       1       1                               0D     12
     510       8                                                00010000D     13
     510            -259       1       1                               0D     14
     510       9                                                00010000D     15
     510            -259       1       1                               0D     16
     510      10                                                00010000D     17
     510            -259       1       1                               0D     18
     510      11                                                00010000D     19
     510            -259       1       1                               0D     20
     510      12                                                00010000D     21
     510            -259       1       1                               0D     22
     510      13                                                00010000D     23
     510            -259       1       1                               0D     24
     510      14                                                00010000D     25
     510            -259       1       1                               0D     26
     510      15                                                00010000D     27
     510            -259       1       1                               0D     28
     510      16                                                00010000D     29
     510            -259       1       1                               0D     30
     510      17                                                00010000D     31
     510            -259       1       1                               0D     32
     510      18                                                00010000D     33
     510            -259       1       1                               0D     34
     510      19                                                00010000D     35
     510            -259       1       1                               0D     36
     510      20                                                00010000D     37
     510            -259       1       1                               0D     38
     510      21                                                00010000D     39
     510            -259       1       1                               0D     40
     510      22                                                00010000D     41
     510            -259       1       1                               0D     42
     510      23                                                00010000D     43
     510            -259       1       1                               0D     44
     510      24                                                00010000D     45
     510            -259       1       1                               0D     46
     508      25                                                00010000D     47
     508                       1       1                               0D     48
     508      26                                                00010000D     49
     508                       1       1                               0D     50
     508      27                                                00010000D     51
     508                       1       1                               0D     52
     508      28                                                00010000D     53
     508                       5       1                               0D     54
     508      33                                                00010000D     55
     508                       2       1                               0D     56
     508      35                                                00010000D     57
     508                       2       1                               0D     58
     508      37                                                00010000D     59
     508                       1       1                               0D     60
     508      38                                                00010000D     61
     508                       1       1                               0D     62
     508      39                                                00010000D     63
     508                       1       1                               0D     64
     508      40                                                00010000D     65
     508                       1       1                               0D     66
     508      41                                                00010000D     67
     508                       1       1                               0D     68
     508      42                                                00010000D     69
     508                       1       1                               0D     70
     508      43                                                00010000D     71
     508                       1       1                               0D     72
     508      44                                                00010000D     73
     508                       1       1                               0D     74
     508      45                                                00010000D     75
     508                       1       1                               0D     76
     508      46                                                00010000D     77
     508                       1       1                               0D     78
     508      47                                                00010000D     79
     508                       1       1                               0D     80
     508      48                                                00010000D     81
     508                       1       1                               0D     82
     508      49                                                00010000D     83
     508                       1       1                               0D     84
     508      50                                                00010000D     85
     508                       1       1                               0D     86
     508      51                                                00010000D     87
     508                       2       1                               0D     88
     508      53                                                00010000D     89
     508                       2       1                               0D     90
     126      55                                                00010000D     91
     126       0               3       0                               0D     92
     126      58                                                00010000D     93
     126       0               2       0                               0D     94
     126      60                                                00010000D     95
     126       0               2       0                               0D     96
     126      62                                                00010000D     97
     126       0               2       0                               0D     98
     126      64                                                00010000D     99
     126       0               2       0                               0D    100
     126      66                                                00010000D    101
     126       0               3       0                               0D    102
     126      69                                                00010000D    103
     126       0               2       0                               0D    104
     126      71                                                00010000D    105
     126       0               2       0                               0D    106
     126      73                                                00010000D    107
     126       0               4       0                               0D    108
     126      77                                                00010000D    109
     126       0               4       0                               0D    110
     126      81                                                00010000D    111
     126       0               3       0                               0D    112
     126      84                                                00010000D    113
     126       0               5       0                               0D    114
     126      89                                                00010000D    115
     126       0               2       0                               0D    116
     126      91                                                00010000D    117
     126       0               5       0                               0D    118
     126      96                                                00010000D    119
     126       0               2       0                               0D    120
     126      98                                                00010000D    121
     126       0               5       0                               0D    122
     126     103                                                00010000D    123
     126       0               3       0                               0D    124
     126     106                                                00010000D    125
     126       0               5       0                               0D    126
     126     111                                                00010000D    127
     126       0               3       0                               0D    128
     126     114                                                00010000D    129
     126       0               3       0                               0D    130
     126     117                                                00010000D    131
     126       0               2       0                               0D    132
     126     119                                                00010000D    133
     126       0               3       0                               0D    134
     126     122                                                00010000D    135
     126       0               2       0                               0D    136
     126     124                                                00010000D    137
     126       0               2       0                               0D    138
     126     126                                                00010000D    139
     126       0               2       0                               0D    140
     126     128                                                00010000D    141
     126       0               3       0                               0D    142
     126     131                                                00010000D    143
     126       0               2       0                               0D    144
     126     133                                                00010000D    145
     126       0               3       0                               0D    146
     126     136                                                00010000D    147
     126       0               2       0                               0D    148
     126     138                                                00010000D    149
     126       0               2       0                               0D    150
     126     140                                                00010000D    151
     126       0               2       0                               0D    152
     126     142                                                00010000D    153
     126       0               2       0                               0D    154
     126     144                                                00010000D    155
     126       0               2       0                               0D    156
     126     146                                                00010000D    157
     126       0               2       0                               0D    158
     126     148                                                00010000D    159
     126       0               2       0                               0D    160
     126     150                                                00010000D    161
     126       0               2       0                               0D    162
     126     152                                                00010000D    163
     126       0               3       0                               0D    164
     126     155                                                00010000D    165
     126       0               3       0                               0D    166
     126     158                                                00010000D    167
     126       0               3       0                               0D    168
     126     161                                                00010000D    169
     126       0               3       0                               0D    170
     126     164                                                00010000D    171
     126       0               3       0                               0D    172
     126     167                                                00010000D    173
     126       0               3       0                               0D    174
     126     170                                                00010000D    175
     126       0               2       0                               0D    176
     126     172                                                00010000D    177
     126       0               2       0                               0D    178
     126     174                                                00010000D    179
     126       0               2       0                               0D    180
     126     176                                                00010000D    181
     126       0               2       0                               0D    182
     126     178                                                00010000D    183
     126       0               2       0                               0D    184
     126     180                                                00010000D    185
     126       0               2       0                               0D    186
     126     182                                                00010000D    187
     126       0               2       0                               0D    188
     126     184                                                00010000D    189
     126       0               2       0                               0D    190
     126     186                                                00010000D    191
     126       0               5       0                               0D    192
     126     191                                                00010000D    193
     126       0               5       0                               0D    194
     126     196                                                00010000D    195
     126       0               2       0                               0D    196
     126     198                                                00010000D    197
     126       0               3       0                               0D    198
     126     201                                                00010000D    199
     126       0               2       0                               0D    200
     126     203                                                00010000D    201
     126       0               5       0                               0D    202
     126     208                                                00010000D    203
     126       0               2       0                               0D    204
     126     210                                                00010000D    205
     126       0               2       0                               0D    206
     126     212                                                00010000D    207
     126       0               2       0                               0D    208
     126     214                                                00010000D    209
     126       0               5       0                               0D    210
     128     219                                                00010000D    211
     128       0    -259       4       0                               0D    212
     128     223                                                00010000D    213
     128       0    -259       5       0                               0D    214
     128     228                                                00010000D    215
     128       0    -259       4       0                               0D    216
     128     232                                                00010000D    217
     128       0    -259       4       0                               0D    218
     128     236                                                00010000D    219
     128       0    -259       3       0                               0D    220
     128     239                                                00010000D    221
     128       0    -259       3       0                               0D    222
     128     242                                                00010000D    223
     128       0    -259       4       0                               0D    224
     128     246                                                00010000D    225
     128       0    -259       4       0                               0D    226
     128     250                                                00010000D    227
     128       0    -259       5       0                               0D    228
     128     255                                                00010000D    229
     128       0    -259       4       0                               0D    230
     128     259                                                00010000D    231
     128       0    -259       4       0                               0D    232
     128     263                                                00010000D    233
     128       0    -259       3       0                               0D    234
     128     266                                                00010000D    235
     128       0    -259       4       0                               0D    236
     128     270                                                00010000D    237
     128       0    -259       3       0                               0D    238
     128     273                                                00010000D    239
     128       0    -259       6       0                               0D    240
     128     279                                                00010000D    241
     128       0    -259       6       0                               0D    242
     128     285                                                00010000D    243
     128       0    -259       3       0                               0D    244
     128     288                                                00010000D    245
     128       0    -259       6       0                               0D    246
     128     294                                                00010000D    247
     128       0    -259       3       0                               0D    248
     128     297                                                00010000D    249
     128       0    -259       6       0                               0D    250
     128     303                                                00010000D    251
     128       0    -259       5       0                               0D    252
     502     308                                                00010000D    253
     502                      15       1                               0D    254
     504     323                                                00010001D    255
     504                      17       1                               0D    256
     406     340                                                00000000D    257
     406                       1      15                               0D    258
     314     341                                                00000200D    259
     314                       2       0                               0D    260
186,3,1,0,0,1,257;                                                     1P      1
514,21,5,1,7,1,9,1,11,1,13,1,15,1,17,1,19,1,21,1,23,1,25,1,27,1,       3P      2
29,1,31,1,33,1,35,1,37,1,39,1,41,1,43,1,45,1;                          3P      3
510,211,1,1,47;                                                        5P      4
510,213,1,1,49;                                                        7P      5
510,215,1,1,51;                                                        9P      6
510,217,1,1,53;                                                       11P      7
510,219,1,1,55;                                                       13P      8
510,221,1,1,57;                                                       15P      9
510,223,1,1,59;                                                       17P     10
510,225,1,1,61;                                                       19P     11
510,227,1,1,63;                                                       21P     12
510,229,1,1,65;                                                       23P     13
510,231,1,1,67;                                                       25P     14
510,233,1,1,69;                                                       27P     15
510,235,1,1,71;                                                       29P     16
510,237,1,1,73;                                                       31P     17
510,239,1,1,75;                                                       33P     18
510,241,1,1,77;                                                       35P     19
510,243,1,1,79;                                                       37P     20
510,245,1,1,81;                                                       39P     21
510,247,1,1,83;                                                       41P     22
510,249,1,1,85;                                                       43P     23
510,251,2,1,87,89;                                                    45P     24
508,4,0,255,1,0,0,0,255,2,0,0,0,255,3,0,0,0,255,4,0,0;                47P     25
508,4,0,255,5,0,0,0,255,6,0,0,0,255,7,0,0,0,255,8,1,0;                49P     26
508,4,0,255,9,0,0,0,255,8,0,0,0,255,10,0,0,0,255,2,1,0;               51P     27
508,20,0,255,4,1,0,0,255,11,1,0,0,255,12,1,0,0,255,13,1,0,0,255,      53P     28
14,1,0,0,255,15,1,0,0,255,16,1,0,0,255,17,1,0,0,255,18,1,0,0,         53P     29
255,19,1,0,0,255,6,1,0,0,255,20,1,0,0,255,21,1,0,0,255,22,1,0,0,      53P     30
255,23,1,0,0,255,24,1,0,0,255,25,1,0,0,255,26,1,0,0,255,27,1,0,       53P     31
0,255,28,1,0;                                                         53P     32
508,8,0,255,3,1,0,0,255,10,1,0,0,255,7,1,0,0,255,19,0,0,0,255,        55P     33
29,0,0,0,255,30,0,0,0,255,31,1,0,0,255,11,0,0;                        55P     34
508,8,0,255,1,1,0,0,255,28,0,0,0,255,32,0,0,0,255,33,1,0,0,255,       57P     35
34,0,0,0,255,20,0,0,0,255,5,1,0,0,255,9,1,0;                          57P     36
508,4,0,255,35,0,0,0,255,36,0,0,0,255,23,0,0,0,255,37,0,0;            59P     37
508,4,0,255,38,0,0,0,255,37,1,0,0,255,22,0,0,0,255,39,0,0;            61P     38
508,4,0,255,40,1,0,0,255,41,0,0,0,255,26,0,0,0,255,42,0,0;            63P     39
508,4,0,255,43,1,0,0,255,42,1,0,0,255,25,0,0,0,255,44,0,0;            65P     40
508,4,0,255,32,1,0,0,255,27,0,0,0,255,41,1,0,0,255,45,0,0;            67P     41
508,4,0,255,36,1,0,0,255,46,0,0,0,255,44,1,0,0,255,24,0,0;            69P     42
508,4,0,255,34,1,0,0,255,47,0,0,0,255,39,1,0,0,255,21,0,0;            71P     43
508,4,0,255,48,0,0,0,255,49,1,0,0,255,13,0,0,0,255,50,0,0;            73P     44
508,4,0,255,51,1,0,0,255,50,1,0,0,255,12,0,0,0,255,31,0,0;            75P     45
508,4,0,255,52,1,0,0,255,29,1,0,0,255,18,0,0,0,255,53,0,0;            77P     46
508,4,0,255,54,0,0,0,255,53,1,0,0,255,17,0,0,0,255,55,0,0;            79P     47
508,4,0,255,56,1,0,0,255,55,1,0,0,255,16,0,0,0,255,57,0,0;            81P     48
508,4,0,255,58,0,0,0,255,57,1,0,0,255,15,0,0,0,255,59,0,0;            83P     49
508,4,0,255,60,1,0,0,255,59,1,0,0,255,14,0,0,0,255,49,0,0;            85P     50
508,8,0,255,60,0,0,0,255,48,1,0,0,255,51,0,0,0,255,30,1,0,0,255,      87P     51
52,0,0,0,255,54,1,0,0,255,56,0,0,0,255,58,1,0;                        87P     52
508,8,0,255,45,1,0,0,255,40,0,0,0,255,43,0,0,0,255,46,1,0,0,255,      89P     53
35,1,0,0,255,38,1,0,0,255,47,1,0,0,255,33,0,0;                        89P     54
126,1,1,0,0,1,0,-0.225,-0.225,-0.145,-0.145,1.,1.,                    91P     55
-5.7898598301526,19.5,24.3,-5.7898598301526,18.7,24.3,-0.225,         91P     56
-0.145,0.,0.,0.;                                                      91P     57
126,1,1,0,0,1,0,0.,0.,0.75,0.75,1.,1.,-5.7898598301526,19.5,          93P     58
31.8,-5.7898598301526,19.5,24.3,0.,0.75,0.,0.,0.;                     93P     59
126,1,1,0,0,1,0,0.145,0.145,0.225,0.225,1.,1.,-5.7898598301526,       95P     60
18.7,31.8,-5.7898598301526,19.5,31.8,0.145,0.225,0.,0.,0.;            95P     61
126,1,1,0,0,1,0,1.115,1.115,1.865,1.865,1.,1.,-5.7898598301526,       97P     62
18.7,24.3,-5.7898598301526,18.7,31.8,1.115,1.865,0.,0.,0.;            97P     63
126,1,1,0,0,1,0,-0.18,-0.18,-0.1,-0.1,1.,1.,6.2101401698474,          99P     64
18.7,24.3,6.2101401698474,19.5,24.3,-0.18,-0.1,0.,0.,0.;              99P     65
126,1,1,0,0,1,0,-1.865,-1.865,-1.115,-1.115,1.,1.,                   101P     66
6.2101401698474,18.7,31.8,6.2101401698474,18.7,24.3,-1.865,          101P     67
-1.115,0.,0.,0.;                                                     101P     68
126,1,1,0,0,1,0,0.1,0.1,0.18,0.18,1.,1.,6.2101401698474,19.5,        103P     69
31.8,6.2101401698474,18.7,31.8,0.1,0.18,0.,0.,0.;                    103P     70
126,1,1,0,0,1,0,0.,0.,0.75,0.75,1.,1.,6.2101401698474,19.5,31.8,     105P     71
6.2101401698474,19.5,24.3,0.,0.75,0.,0.,0.;                          105P     72
126,1,1,0,0,1,0,-1.53800700849237,-1.53800700849237,                 107P     73
-0.33800700849237,-0.33800700849237,1.,1.,6.2101401698474,19.5,      107P     74
24.3,-5.7898598301526,19.5,24.3,-1.53800700849237,                   107P     75
-0.33800700849237,0.,0.,0.;                                          107P     76
126,1,1,0,0,1,0,-0.87699299150763,-0.87699299150763,                 109P     77
0.32300700849237,0.32300700849237,1.,1.,-5.7898598301526,19.5,       109P     78
31.8,6.2101401698474,19.5,31.8,-0.87699299150763,                    109P     79
0.32300700849237,0.,0.,0.;                                           109P     80
126,1,1,0,0,1,0,2.10398598301526,2.10398598301526,2.63,2.63,1.,      111P     81
1.,-5.7898598301526,18.7,31.8,-11.05,18.7,31.8,2.10398598301526,     111P     82
2.63,0.,0.,0.;                                                       111P     83
126,2,2,0,0,0,0,-0.78539816339745,-0.78539816339745,                 113P     84
-0.78539816339745,0.785398163397448,0.785398163397448,               113P     85
0.785398163397448,1.,0.707106781186545,1.,-11.05,18.7,31.8,          113P     86
-14.55,18.7,31.8,-14.55,18.7,28.3,-0.78539816339745,                 113P     87
0.785398163397448,0.,0.,0.;                                          113P     88
126,1,1,0,0,1,0,-3.48,-3.48,-0.4,-0.4,1.,1.,-14.55,18.7,28.3,        115P     89
-14.55,18.7,-2.5,-3.48,-0.4,0.,0.,0.;                                115P     90
126,2,2,0,0,0,0,-0.785398163397449,-0.785398163397449,               117P     91
-0.785398163397449,0.785398163397448,0.785398163397448,              117P     92
0.785398163397448,1.,0.707106781186547,1.,-14.55,18.7,-2.5,          117P     93
-14.55,18.7,-6.5,-10.55,18.7,-6.5,-0.785398163397449,                117P     94
0.785398163397448,0.,0.,0.;                                          117P     95
126,1,1,0,0,1,0,0.2,0.2,2.38,2.38,1.,1.,-10.55,18.7,-6.5,11.25,      119P     96
18.7,-6.5,0.2,2.38,0.,0.,0.;                                         119P     97
126,2,2,0,0,0,0,-0.78539816339745,-0.78539816339745,                 121P     98
-0.78539816339745,0.785398163397448,0.785398163397448,               121P     99
0.785398163397448,1.,0.707106781186546,1.,11.25,18.7,                121P    100
-6.50000000000001,15.25,18.7,-6.50000000000001,15.25,18.7,-2.5,      121P    101
-0.78539816339745,0.785398163397448,0.,0.,0.;                        121P    102
126,1,1,0,0,1,0,-3.23,-3.23,-0.149999999999999,                      123P    103
-0.149999999999999,1.,1.,15.25,18.7,-2.5,15.25,18.7,28.3,-3.23,      123P    104
-0.149999999999999,0.,0.,0.;                                         123P    105
126,2,2,0,0,0,0,-0.785398163397448,-0.785398163397448,               125P    106
-0.785398163397448,0.785398163397449,0.785398163397449,              125P    107
0.785398163397449,1.,0.707106781186546,1.,15.25,18.7,28.3,15.25,     125P    108
18.7,31.8,11.75,18.7,31.8,-0.785398163397448,0.785398163397449,      125P    109
0.,0.,0.;                                                            125P    110
126,1,1,0,0,1,0,0.35,0.35,0.90398598301526,0.90398598301526,1.,      127P    111
1.,11.75,18.7,31.8,6.2101401698474,18.7,31.8,0.35,                   127P    112
0.90398598301526,0.,0.,0.;                                           127P    113
126,1,1,0,0,1,0,1.87601401698474,1.87601401698474,2.58,2.58,1.,      129P    114
1.,6.2101401698474,18.7,24.3,13.25,18.7,24.3,1.87601401698474,       129P    115
2.58,0.,0.,0.;                                                       129P    116
126,1,1,0,0,1,0,0.55,0.55,2.98,2.98,1.,1.,13.25,18.7,24.3,13.25,     131P    117
18.7,-4.44089209850063D-15,0.55,2.98,0.,0.,0.;                       131P    118
126,1,1,0,0,1,0,-0.45,-0.45,0.,0.,1.,1.,13.25,18.7,                  133P    119
-3.33066907387547D-15,8.75,18.7,-3.33066907387547D-15,-0.45,0.,      133P    120
0.,0.,0.;                                                            133P    121
126,1,1,0,0,1,0,-0.65,-0.65,-0.2,-0.2,1.,1.,8.75,18.7,               135P    122
-3.33066907387547D-15,8.75,18.7,-4.5,-0.65,-0.2,0.,0.,0.;            135P    123
126,1,1,0,0,1,0,0.45,0.45,2.13,2.13,1.,1.,8.75,18.7,-4.5,-8.05,      137P    124
18.7,-4.5,0.45,2.13,0.,0.,0.;                                        137P    125
126,1,1,0,0,1,0,0.2,0.2,0.65,0.65,1.,1.,-8.05,18.7,-4.5,-8.05,       139P    126
18.7,-3.33066907387547D-15,0.2,0.65,0.,0.,0.;                        139P    127
126,1,1,0,0,1,0,0.,0.,0.45,0.45,1.,1.,-8.05,18.7,                    141P    128
-3.50709891415077D-15,-12.55,18.7,-3.53677304813011D-15,0.,0.45,     141P    129
0.,0.,0.;                                                            141P    130
126,1,1,0,0,1,0,-2.98,-2.98,-0.55,-0.55,1.,1.,-12.55,18.7,           143P    131
-4.44089209850063D-15,-12.55,18.7,24.3,-2.98,-0.55,0.,0.,0.;         143P    132
126,1,1,0,0,1,0,0.,0.,0.67601401698474,0.67601401698474,1.,1.,       145P    133
-12.55,18.7,24.3,-5.7898598301526,18.7,24.3,0.,0.67601401698474,     145P    134
0.,0.,0.;                                                            145P    135
126,1,1,0,0,1,0,0.,0.,0.28,0.28,1.,1.,11.75,21.5,31.8,11.75,         147P    136
18.7,31.8,0.,0.28,0.,0.,0.;                                          147P    137
126,1,1,0,0,1,0,-2.63,-2.63,-0.35,-0.35,1.,1.,-11.05,21.5,31.8,      149P    138
11.75,21.5,31.8,-2.63,-0.35,0.,0.,0.;                                149P    139
126,1,1,0,0,1,0,0.,0.,0.28,0.28,1.,1.,-11.05,21.5,31.8,-11.05,       151P    140
18.7,31.8,0.,0.28,0.,0.,0.;                                          151P    141
126,1,1,0,0,1,0,0.,0.,0.28,0.28,1.,1.,-12.55,21.5,24.3,-12.55,       153P    142
18.7,24.3,0.,0.28,0.,0.,0.;                                          153P    143
126,1,1,0,0,1,0,0.,0.,2.58,2.58,1.,1.,-12.55,21.5,24.3,13.25,        155P    144
21.5,24.3,0.,2.58,0.,0.,0.;                                          155P    145
126,1,1,0,0,1,0,-0.28,-0.28,0.,0.,1.,1.,13.25,18.7,24.3,13.25,       157P    146
21.5,24.3,-0.28,0.,0.,0.,0.;                                         157P    147
126,1,1,0,0,1,0,0.2,0.2,0.65,0.65,1.,1.,8.75,21.5,-4.5,8.75,         159P    148
21.5,-3.33066907387547D-15,0.2,0.65,0.,0.,0.;                        159P    149
126,1,1,0,0,1,0,-0.28,-0.28,0.,0.,1.,1.,8.75,18.7,-4.5,8.75,         161P    150
21.5,-4.5,-0.28,0.,0.,0.,0.;                                         161P    151
126,1,1,0,0,1,0,0.,0.,0.28,0.28,1.,1.,8.75,21.5,                     163P    152
-3.33066907387547D-15,8.75,18.7,-3.33066907387547D-15,0.,0.28,       163P    153
0.,0.,0.;                                                            163P    154
126,1,1,0,0,1,0,0.,0.,0.45,0.45,1.,1.,8.75,21.5,                     165P    155
-3.33066907387547D-15,13.25,21.5,-3.33066907387547D-15,0.,0.45,      165P    156
0.,0.,0.;                                                            165P    157
126,1,1,0,0,1,0,0.,0.,0.28,0.28,1.,1.,13.25,21.5,                    167P    158
-4.44089209850063D-15,13.25,18.7,-4.44089209850063D-15,0.,0.28,      167P    159
0.,0.,0.;                                                            167P    160
126,1,1,0,0,1,0,0.,0.,0.45,0.45,1.,1.,-8.05,21.5,                    169P    161
-3.50709891415077D-15,-12.55,21.5,-3.53677304813011D-15,0.,0.45,     169P    162
0.,0.,0.;                                                            169P    163
126,1,1,0,0,1,0,-0.28,-0.28,0.,0.,1.,1.,-12.55,18.7,                 171P    164
-3.34550614086514D-15,-12.55,21.5,-3.34550614086514D-15,-0.28,       171P    165
0.,0.,0.,0.;                                                         171P    166
126,1,1,0,0,1,0,0.,0.,0.28,0.28,1.,1.,-8.05,21.5,                    173P    167
-3.50709891415077D-15,-8.05,18.7,-3.50709891415077D-15,0.,0.28,      173P    168
0.,0.,0.;                                                            173P    169
126,1,1,0,0,1,0,0.2,0.2,0.65,0.65,1.,1.,-8.05,21.5,-4.5,-8.05,       175P    170
21.5,-3.33066907387547D-15,0.2,0.65,0.,0.,0.;                        175P    171
126,1,1,0,0,1,0,0.,0.,0.28,0.28,1.,1.,-8.05,21.5,-4.5,-8.05,         177P    172
18.7,-4.5,0.,0.28,0.,0.,0.;                                          177P    173
126,1,1,0,0,1,0,0.55,0.55,2.98,2.98,1.,1.,-12.55,21.5,24.3,          179P    174
-12.55,21.5,-4.44089209850063D-15,0.55,2.98,0.,0.,0.;                179P    175
126,1,1,0,0,1,0,-2.13,-2.13,-0.45,-0.45,1.,1.,-8.05,21.5,-4.5,       181P    176
8.75,21.5,-4.5,-2.13,-0.45,0.,0.,0.;                                 181P    177
126,1,1,0,0,1,0,-2.98,-2.98,-0.55,-0.55,1.,1.,13.25,21.5,            183P    178
-4.44089209850063D-15,13.25,21.5,24.3,-2.98,-0.55,0.,0.,0.;          183P    179
126,1,1,0,0,1,0,0.4,0.4,3.48,3.48,1.,1.,-14.55,21.5,-2.5,-14.55,     185P    180
21.5,28.3,0.4,3.48,0.,0.,0.;                                         185P    181
126,1,1,0,0,1,0,0.,0.,0.28,0.28,1.,1.,-14.55,21.5,-2.5,-14.55,       187P    182
18.7,-2.5,0.,0.28,0.,0.,0.;                                          187P    183
126,1,1,0,0,1,0,0.,0.,0.28,0.28,1.,1.,-14.55,21.5,28.3,-14.55,       189P    184
18.7,28.3,0.,0.28,0.,0.,0.;                                          189P    185
126,2,2,0,0,0,0,-0.78539816339745,-0.78539816339745,                 191P    186
-0.78539816339745,0.785398163397448,0.785398163397448,               191P    187
0.785398163397448,1.,0.707106781186545,1.,-11.05,21.5,31.8,          191P    188
-14.55,21.5,31.8,-14.55,21.5,28.3,-0.78539816339745,                 191P    189
0.785398163397448,0.,0.,0.;                                          191P    190
126,2,2,0,0,0,0,-0.785398163397448,-0.785398163397448,               193P    191
-0.785398163397448,0.785398163397449,0.785398163397449,              193P    192
0.785398163397449,1.,0.707106781186546,1.,15.25,21.5,28.3,15.25,     193P    193
21.5,31.8,11.75,21.5,31.8,-0.785398163397448,0.785398163397449,      193P    194
0.,0.,0.;                                                            193P    195
126,1,1,0,0,1,0,0.,0.,0.28,0.28,1.,1.,15.25,21.5,28.3,15.25,         195P    196
18.7,28.3,0.,0.28,0.,0.,0.;                                          195P    197
126,1,1,0,0,1,0,0.149999999999999,0.149999999999999,3.23,3.23,       197P    198
1.,1.,15.25,21.5,28.3,15.25,21.5,-2.5,0.149999999999999,3.23,0.,     197P    199
0.,0.;                                                               197P    200
126,1,1,0,0,1,0,0.,0.,0.28,0.28,1.,1.,15.25,21.5,-2.5,15.25,         199P    201
18.7,-2.5,0.,0.28,0.,0.,0.;                                          199P    202
126,2,2,0,0,0,0,-0.78539816339745,-0.78539816339745,                 201P    203
-0.78539816339745,0.785398163397448,0.785398163397448,               201P    204
0.785398163397448,1.,0.707106781186546,1.,11.25,21.5,                201P    205
-6.50000000000001,15.25,21.5,-6.50000000000001,15.25,21.5,-2.5,      201P    206
-0.78539816339745,0.785398163397448,0.,0.,0.;                        201P    207
126,1,1,0,0,1,0,0.,0.,0.28,0.28,1.,1.,11.25,21.5,-6.5,11.25,         203P    208
18.7,-6.5,0.,0.28,0.,0.,0.;                                          203P    209
126,1,1,0,0,1,0,-2.38,-2.38,-0.2,-0.2,1.,1.,11.25,21.5,-6.5,         205P    210
-10.55,21.5,-6.5,-2.38,-0.2,0.,0.,0.;                                205P    211
126,1,1,0,0,1,0,0.,0.,0.28,0.28,1.,1.,-10.55,21.5,-6.5,-10.55,       207P    212
18.7,-6.5,0.,0.28,0.,0.,0.;                                          207P    213
126,2,2,0,0,0,0,-0.785398163397449,-0.785398163397449,               209P    214
-0.785398163397449,0.785398163397448,0.785398163397448,              209P    215
0.785398163397448,1.,0.707106781186547,1.,-14.55,21.5,-2.5,          209P    216
-14.55,21.5,-6.5,-10.55,21.5,-6.5,-0.785398163397449,                209P    217
0.785398163397448,0.,0.,0.;                                          209P    218
128,1,1,1,1,0,0,1,0,0,0.569,0.569,0.651,0.651,-0.001,-0.001,         211P    219
0.751,0.751,1.,1.,1.,1.,-5.7898598301526,19.51,31.81,                211P    220
-5.7898598301526,18.69,31.81,-5.7898598301526,19.51,24.29,           211P    221
-5.7898598301526,18.69,24.29,0.569,0.651,-0.001,0.751;               211P    222
128,1,1,1,1,0,0,1,0,0,-0.001,-0.001,0.0809999999999998,              213P    223
0.0809999999999998,-0.001,-0.001,0.751,0.751,1.,1.,1.,1.,            213P    224
6.2101401698474,18.69,31.81,6.2101401698474,19.51,31.81,             213P    225
6.2101401698474,18.69,24.29,6.2101401698474,19.51,24.29,-0.001,      213P    226
0.0809999999999998,-0.001,0.751;                                     213P    227
128,1,1,1,1,0,0,1,0,0,-0.001,-0.001,1.201,1.201,-0.001,-0.001,       215P    228
0.751,0.751,1.,1.,1.,1.,6.2201401698474,19.5,31.81,                  215P    229
-5.7998598301526,19.5,31.81,6.2201401698474,19.5,24.29,              215P    230
-5.7998598301526,19.5,24.29,-0.001,1.201,-0.001,0.751;               215P    231
128,1,1,1,1,0,0,1,0,0,-0.101000000000001,-0.101000000000001,         217P    232
3.731,3.731,-1.491,-1.491,1.491,1.491,1.,1.,1.,1.,-14.56,18.7,       217P    233
31.81,-14.56,18.7,-6.51000000000001,15.26,18.7,31.81,15.26,18.7,     217P    234
-6.51000000000001,-0.101000000000001,3.731,-1.491,1.491;             217P    235
128,1,1,1,1,0,0,1,0,0,-0.001,-0.001,2.281,2.281,-0.001,-0.001,       219P    236
0.281,0.281,1.,1.,1.,1.,11.76,21.51,31.8,-11.06,21.51,31.8,          219P    237
11.76,18.69,31.8,-11.06,18.69,31.8,-0.001,2.281,-0.001,0.281;        219P    238
128,1,1,1,1,0,0,1,0,0,-0.001,-0.001,2.581,2.581,-0.001,-0.001,       221P    239
0.281,0.281,1.,1.,1.,1.,-12.56,21.51,24.3,13.26,21.51,24.3,          221P    240
-12.56,18.69,24.3,13.26,18.69,24.3,-0.001,2.581,-0.001,0.281;        221P    241
128,1,1,1,1,0,0,1,0,0,-0.001,-0.001,0.451,0.451,-0.001,-0.001,       223P    242
0.281,0.281,1.,1.,1.,1.,8.75,21.51,0.00999999999999667,8.75,         223P    243
21.51,-4.51,8.75,18.69,0.00999999999999667,8.75,18.69,-4.51,         223P    244
-0.001,0.451,-0.001,0.281;                                           223P    245
128,1,1,1,1,0,0,1,0,0,-0.001,-0.001,0.451,0.451,-0.001,-0.001,       225P    246
0.281,0.281,1.,1.,1.,1.,13.26,21.51,-3.33066907387547D-15,8.74,      225P    247
21.51,-3.33066907387547D-15,13.26,18.69,-3.33066907387547D-15,       225P    248
8.74,18.69,-3.33066907387547D-15,-0.001,0.451,-0.001,0.281;          225P    249
128,1,1,1,1,0,0,1,0,0,-0.001,-0.001,0.451,0.451,-0.001,-0.001,       227P    250
0.281,0.281,1.,1.,1.,1.,-8.04,21.51,-3.50703297163082D-15,           227P    251
-12.56,21.51,-3.53683899065006D-15,-8.04,18.69,                      227P    252
-3.50703297163082D-15,-12.56,18.69,-3.53683899065006D-15,-0.001,     227P    253
0.451,-0.001,0.281;                                                  227P    254
128,1,1,1,1,0,0,1,0,0,-0.001,-0.001,0.451,0.451,-0.001,-0.001,       229P    255
0.281,0.281,1.,1.,1.,1.,-8.05,21.51,-4.51,-8.05,21.51,               229P    256
0.00999999999999668,-8.05,18.69,-4.51,-8.05,18.69,                   229P    257
0.00999999999999668,-0.001,0.451,-0.001,0.281;                       229P    258
128,1,1,1,1,0,0,1,0,0,0.449,0.449,2.881,2.881,-0.001,-0.001,         231P    259
0.281,0.281,1.,1.,1.,1.,-12.55,21.51,-0.0100000000000044,-12.55,     231P    260
21.51,24.31,-12.55,18.69,-0.0100000000000044,-12.55,18.69,24.31,     231P    261
0.449,2.881,-0.001,0.281;                                            231P    262
128,1,1,1,1,0,0,1,0,0,0.449,0.449,2.131,2.131,-0.001,-0.001,         233P    263
0.281,0.281,1.,1.,1.,1.,8.76,21.51,-4.5,-8.06,21.51,-4.5,8.76,       233P    264
18.69,-4.5,-8.06,18.69,-4.5,0.449,2.131,-0.001,0.281;                233P    265
128,1,1,1,1,0,0,1,0,0,0.549,0.549,2.981,2.981,-0.001,-0.001,         235P    266
0.281,0.281,1.,1.,1.,1.,13.25,21.51,24.31,13.25,21.51,               235P    267
-0.0100000000000033,13.25,18.69,24.31,13.25,18.69,                   235P    268
-0.0100000000000033,0.549,2.981,-0.001,0.281;                        235P    269
128,1,1,1,1,0,0,1,0,0,-0.001,-0.001,3.081,3.081,-0.001,-0.001,       237P    270
0.281,0.281,1.,1.,1.,1.,-14.55,21.51,28.31,-14.55,21.51,-2.51,       237P    271
-14.55,18.69,28.31,-14.55,18.69,-2.51,-0.001,3.081,-0.001,0.281;     237P    272
128,1,2,1,2,0,0,0,0,0,0.,0.,0.8,0.8,-0.78539816339745,               239P    273
-0.78539816339745,-0.78539816339745,0.785398163397448,               239P    274
0.785398163397448,0.785398163397448,1.,1.,0.707106781186547,         239P    275
0.707106781186547,1.,1.,-11.05,18.7,31.8,-11.05,21.5,31.8,           239P    276
-14.55,18.7,31.8,-14.55,21.5,31.8,-14.55,18.7,28.3,-14.55,21.5,      239P    277
28.3,0.,0.8,-0.78539816339745,0.785398163397448;                     239P    278
128,1,2,1,2,0,0,0,0,0,0.,0.,0.8,0.8,-0.785398163397448,              241P    279
-0.785398163397448,-0.785398163397448,0.785398163397449,             241P    280
0.785398163397449,0.785398163397449,1.,1.,0.707106781186548,         241P    281
0.707106781186548,1.,1.,15.25,18.7,28.3,15.25,21.5,28.3,15.25,       241P    282
18.7,31.8,15.25,21.5,31.8,11.75,18.7,31.8,11.75,21.5,31.8,0.,        241P    283
0.8,-0.785398163397448,0.785398163397449;                            241P    284
128,1,1,1,1,0,0,1,0,0,-0.001,-0.001,3.081,3.081,-0.001,-0.001,       243P    285
0.281,0.281,1.,1.,1.,1.,15.25,21.51,-2.51,15.25,21.51,28.31,         243P    286
15.25,18.69,-2.51,15.25,18.69,28.31,-0.001,3.081,-0.001,0.281;       243P    287
128,1,2,1,2,0,0,0,0,0,0.,0.,0.7,0.7,-0.78539816339745,               245P    288
-0.78539816339745,-0.78539816339745,0.785398163397448,               245P    289
0.785398163397448,0.785398163397448,1.,1.,0.707106781186547,         245P    290
0.707106781186547,1.,1.,11.25,18.7,-6.50000000000001,11.25,21.5,     245P    291
-6.50000000000001,15.25,18.7,-6.5,15.25,21.5,-6.5,15.25,18.7,        245P    292
-2.5,15.25,21.5,-2.5,0.,0.7,-0.78539816339745,0.785398163397448;     245P    293
128,1,1,1,1,0,0,1,0,0,-0.001,-0.001,2.181,2.181,-0.001,-0.001,       247P    294
0.281,0.281,1.,1.,1.,1.,-10.56,21.51,-6.5,11.26,21.51,-6.5,          247P    295
-10.56,18.69,-6.5,11.26,18.69,-6.5,-0.001,2.181,-0.001,0.281;        247P    296
128,1,2,1,2,0,0,0,0,0,0.,0.,0.7,0.7,-0.785398163397449,              249P    297
-0.785398163397449,-0.785398163397449,0.785398163397448,             249P    298
0.785398163397448,0.785398163397448,1.,1.,0.707106781186547,         249P    299
0.707106781186547,1.,1.,-14.55,18.7,-2.5,-14.55,21.5,-2.5,           249P    300
-14.55,18.7,-6.5,-14.55,21.5,-6.5,-10.55,18.7,-6.5,-10.55,21.5,      249P    301
-6.5,0.,0.7,-0.785398163397449,0.785398163397448;                    249P    302
128,1,1,1,1,0,0,1,0,0,-0.101000000000001,-0.101000000000001,         251P    303
3.731,3.731,-1.491,-1.491,1.491,1.491,1.,1.,1.,1.,-14.56,21.5,       251P    304
-6.51000000000001,-14.56,21.5,31.81,15.26,21.5,                      251P    305
-6.51000000000001,15.26,21.5,31.81,-0.101000000000001,3.731,         251P    306
-1.491,1.491;                                                        251P    307
502,40,-5.7898598301526,19.5,24.3,-5.7898598301526,18.7,24.3,        253P    308
-5.7898598301526,19.5,31.8,-5.7898598301526,18.7,31.8,               253P    309
6.2101401698474,18.7,24.3,6.2101401698474,19.5,24.3,                 253P    310
6.2101401698474,18.7,31.8,6.2101401698474,19.5,31.8,-11.05,18.7,     253P    311
31.8,-14.55,18.7,28.3,-14.55,18.7,-2.5,-10.55,18.7,-6.5,11.25,       253P    312
18.7,-6.5,15.25,18.7,-2.5,15.25,18.7,28.3,11.75,18.7,31.8,13.25,     253P    313
18.7,24.3,13.25,18.7,-3.33066907387547D-15,8.75,18.7,                253P    314
-3.33066907387547D-15,8.75,18.7,-4.5,-8.05,18.7,-4.5,-8.05,18.7,     253P    315
-3.33066907387547D-15,-12.55,18.7,-3.33066907387547D-15,-12.55,      253P    316
18.7,24.3,11.75,21.5,31.8,-11.05,21.5,31.8,-12.55,21.5,24.3,         253P    317
13.25,21.5,24.3,8.75,21.5,-4.5,8.75,21.5,-3.33066907387547D-15,      253P    318
13.25,21.5,-3.33066907387547D-15,-8.05,21.5,                         253P    319
-3.50709891415077D-15,-12.55,21.5,-3.53677304813011D-15,-8.05,       253P    320
21.5,-4.5,-14.55,21.5,-2.5,-14.55,21.5,28.3,15.25,21.5,28.3,         253P    321
15.25,21.5,-2.5,11.25,21.5,-6.5,-10.55,21.5,-6.5;                    253P    322
504,60,91,253,1,253,2,93,253,3,253,1,95,253,4,253,3,97,253,2,        255P    323
253,4,99,253,5,253,6,101,253,7,253,5,103,253,8,253,7,105,253,8,      255P    324
253,6,107,253,6,253,1,109,253,3,253,8,111,253,4,253,9,113,253,9,     255P    325
253,10,115,253,10,253,11,117,253,11,253,12,119,253,12,253,13,        255P    326
121,253,13,253,14,123,253,14,253,15,125,253,15,253,16,127,253,       255P    327
16,253,7,129,253,5,253,17,131,253,17,253,18,133,253,18,253,19,       255P    328
135,253,19,253,20,137,253,20,253,21,139,253,21,253,22,141,253,       255P    329
22,253,23,143,253,23,253,24,145,253,24,253,2,147,253,25,253,16,      255P    330
149,253,26,253,25,151,253,26,253,9,153,253,27,253,24,155,253,27,     255P    331
253,28,157,253,17,253,28,159,253,29,253,30,161,253,20,253,29,        255P    332
163,253,30,253,19,165,253,30,253,31,167,253,31,253,18,169,253,       255P    333
32,253,33,171,253,23,253,33,173,253,32,253,22,175,253,34,253,32,     255P    334
177,253,34,253,21,179,253,27,253,33,181,253,34,253,29,183,253,       255P    335
31,253,28,185,253,35,253,36,187,253,35,253,11,189,253,36,253,10,     255P    336
191,253,26,253,36,193,253,37,253,25,195,253,37,253,15,197,253,       255P    337
37,253,38,199,253,38,253,14,201,253,39,253,38,203,253,39,253,13,     255P    338
205,253,39,253,40,207,253,40,253,12,209,253,35,253,40;               255P    339
406,1,5HBody1;                                                       257P    340
314,62.7450980392157,62.7450980392157,62.7450980392157,13HSteel      259P    341
- Satin;                                                             259P    342
S      1G      2D    260P    342                                        T      1
