                                                                        S      1
,,15HPush Button Lid,15HPush Button Lid,7Hunknown,7Hunknown,32,38,7,99, G      1
15,,1.,2,2HMM,1,0.08,15H20220922.115424,0.01,10000.,7Hunknown,7Hunknown,G      2
11,0,;                                                                  G      3
     186       1                                                00000000D      1
     186            -271       1       0                               0D      2
     514       2                                                00010000D      3
     514                       2       1                               0D      4
     510       4                                                00010000D      5
     510            -271       1       1                               0D      6
     510       5                                                00010000D      7
     510            -271       1       1                               0D      8
     510       6                                                00010000D      9
     510            -271       1       1                               0D     10
     510       7                                                00010000D     11
     510            -271       1       1                               0D     12
     510       8                                                00010000D     13
     510            -271       1       1                               0D     14
     510       9                                                00010000D     15
     510            -271       1       1                               0D     16
     510      10                                                00010000D     17
     510            -271       1       1                               0D     18
     510      11                                                00010000D     19
     510            -271       1       1                               0D     20
     510      12                                                00010000D     21
     510            -271       1       1                               0D     22
     510      13                                                00010000D     23
     510            -271       1       1                               0D     24
     510      14                                                00010000D     25
     510            -271       1       1                               0D     26
     510      15                                                00010000D     27
     510            -271       1       1                               0D     28
     510      16                                                00010000D     29
     510            -271       1       1                               0D     30
     510      17                                                00010000D     31
     510            -271       1       1                               0D     32
     510      18                                                00010000D     33
     510            -271       1       1                               0D     34
     510      19                                                00010000D     35
     510            -271       1       1                               0D     36
     510      20                                                00010000D     37
     510            -271       1       1                               0D     38
     510      21                                                00010000D     39
     510            -271       1       1                               0D     40
     510      22                                                00010000D     41
     510            -271       1       1                               0D     42
     510      23                                                00010000D     43
     510            -271       1       1                               0D     44
     510      24                                                00010000D     45
     510            -271       1       1                               0D     46
     510      25                                                00010000D     47
     510            -271       1       1                               0D     48
     510      26                                                00010000D     49
     510            -271       1       1                               0D     50
     508      27                                                00010000D     51
     508                       1       1                               0D     52
     508      28                                                00010000D     53
     508                       1       1                               0D     54
     508      29                                                00010000D     55
     508                       1       1                               0D     56
     508      30                                                00010000D     57
     508                       1       1                               0D     58
     508      31                                                00010000D     59
     508                       1       1                               0D     60
     508      32                                                00010000D     61
     508                       1       1                               0D     62
     508      33                                                00010000D     63
     508                       1       1                               0D     64
     508      34                                                00010000D     65
     508                       1       1                               0D     66
     508      35                                                00010000D     67
     508                       1       1                               0D     68
     508      36                                                00010000D     69
     508                       1       1                               0D     70
     508      37                                                00010000D     71
     508                       1       1                               0D     72
     508      38                                                00010000D     73
     508                       2       1                               0D     74
     508      40                                                00010000D     75
     508                       1       1                               0D     76
     508      41                                                00010000D     77
     508                       2       1                               0D     78
     508      43                                                00010000D     79
     508                       1       1                               0D     80
     508      44                                                00010000D     81
     508                       1       1                               0D     82
     508      45                                                00010000D     83
     508                       1       1                               0D     84
     508      46                                                00010000D     85
     508                       1       1                               0D     86
     508      47                                                00010000D     87
     508                       1       1                               0D     88
     508      48                                                00010000D     89
     508                       1       1                               0D     90
     508      49                                                00010000D     91
     508                       2       1                               0D     92
     508      51                                                00010000D     93
     508                       1       1                               0D     94
     508      52                                                00010000D     95
     508                       1       1                               0D     96
     508      53                                                00010000D     97
     508                       1       1                               0D     98
     508      54                                                00010000D     99
     508                       1       1                               0D    100
     508      55                                                00010000D    101
     508                       1       1                               0D    102
     508      56                                                00010000D    103
     508                       1       1                               0D    104
     508      57                                                00010000D    105
     508                       1       1                               0D    106
     508      58                                                00010000D    107
     508                       1       1                               0D    108
     508      59                                                00010000D    109
     508                       1       1                               0D    110
     508      60                                                00010000D    111
     508                       1       1                               0D    112
     126      61                                                00010000D    113
     126       0              10       0                               0D    114
     126      71                                                00010000D    115
     126       0               2       0                               0D    116
     126      73                                                00010000D    117
     126       0               9       0                               0D    118
     126      82                                                00010000D    119
     126       0               2       0                               0D    120
     126      84                                                00010000D    121
     126       0               3       0                               0D    122
     126      87                                                00010000D    123
     126       0               2       0                               0D    124
     126      89                                                00010000D    125
     126       0               3       0                               0D    126
     126      92                                                00010000D    127
     126       0              10       0                               0D    128
     126     102                                                00010000D    129
     126       0               2       0                               0D    130
     126     104                                                00010000D    131
     126       0              10       0                               0D    132
     126     114                                                00010000D    133
     126       0              10       0                               0D    134
     126     124                                                00010000D    135
     126       0               2       0                               0D    136
     126     126                                                00010000D    137
     126       0              10       0                               0D    138
     126     136                                                00010000D    139
     126       0               2       0                               0D    140
     126     138                                                00010000D    141
     126       0               2       0                               0D    142
     126     140                                                00010000D    143
     126       0               2       0                               0D    144
     126     142                                                00010000D    145
     126       0               3       0                               0D    146
     126     145                                                00010000D    147
     126       0               2       0                               0D    148
     126     147                                                00010000D    149
     126       0               2       0                               0D    150
     126     149                                                00010000D    151
     126       0               2       0                               0D    152
     126     151                                                00010000D    153
     126       0               3       0                               0D    154
     126     154                                                00010000D    155
     126       0               2       0                               0D    156
     126     156                                                00010000D    157
     126       0               2       0                               0D    158
     126     158                                                00010000D    159
     126       0               3       0                               0D    160
     126     161                                                00010000D    161
     126       0               2       0                               0D    162
     126     163                                                00010000D    163
     126       0               2       0                               0D    164
     126     165                                                00010000D    165
     126       0               2       0                               0D    166
     126     167                                                00010000D    167
     126       0               2       0                               0D    168
     126     169                                                00010000D    169
     126       0               2       0                               0D    170
     126     171                                                00010000D    171
     126       0               2       0                               0D    172
     126     173                                                00010000D    173
     126       0               3       0                               0D    174
     126     176                                                00010000D    175
     126       0               2       0                               0D    176
     126     178                                                00010000D    177
     126       0               2       0                               0D    178
     126     180                                                00010000D    179
     126       0               2       0                               0D    180
     126     182                                                00010000D    181
     126       0               2       0                               0D    182
     126     184                                                00010000D    183
     126       0               2       0                               0D    184
     126     186                                                00010000D    185
     126       0               2       0                               0D    186
     126     188                                                00010000D    187
     126       0               2       0                               0D    188
     126     190                                                00010000D    189
     126       0               2       0                               0D    190
     126     192                                                00010000D    191
     126       0               2       0                               0D    192
     126     194                                                00010000D    193
     126       0               2       0                               0D    194
     126     196                                                00010000D    195
     126       0               2       0                               0D    196
     126     198                                                00010000D    197
     126       0               2       0                               0D    198
     126     200                                                00010000D    199
     126       0               2       0                               0D    200
     126     202                                                00010000D    201
     126       0               2       0                               0D    202
     126     204                                                00010000D    203
     126       0               5       0                               0D    204
     126     209                                                00010000D    205
     126       0               7       0                               0D    206
     126     216                                                00010000D    207
     126       0               3       0                               0D    208
     126     219                                                00010000D    209
     126       0               7       0                               0D    210
     126     226                                                00010000D    211
     126       0               5       0                               0D    212
     126     231                                                00010000D    213
     126       0               9       0                               0D    214
     126     240                                                00010000D    215
     126       0               2       0                               0D    216
     126     242                                                00010000D    217
     126       0               9       0                               0D    218
     128     251                                                00010000D    219
     128       0    -271      11       0                               0D    220
     128     262                                                00010000D    221
     128       0    -271       5       0                               0D    222
     128     267                                                00010000D    223
     128       0    -271      12       0                               0D    224
     128     279                                                00010000D    225
     128       0    -271      12       0                               0D    226
     128     291                                                00010000D    227
     128       0    -271       3       0                               0D    228
     128     294                                                00010000D    229
     128       0    -271       3       0                               0D    230
     128     297                                                00010000D    231
     128       0    -271       4       0                               0D    232
     128     301                                                00010000D    233
     128       0    -271       4       0                               0D    234
     128     305                                                00010000D    235
     128       0    -271       4       0                               0D    236
     128     309                                                00010000D    237
     128       0    -271       5       0                               0D    238
     128     314                                                00010000D    239
     128       0    -271       4       0                               0D    240
     128     318                                                00010000D    241
     128       0    -271       4       0                               0D    242
     128     322                                                00010000D    243
     128       0    -271       3       0                               0D    244
     128     325                                                00010000D    245
     128       0    -271       3       0                               0D    246
     128     328                                                00010000D    247
     128       0    -271       3       0                               0D    248
     128     331                                                00010000D    249
     128       0    -271       3       0                               0D    250
     128     334                                                00010000D    251
     128       0    -271       3       0                               0D    252
     128     337                                                00010000D    253
     128       0    -271      13       0                               0D    254
     128     350                                                00010000D    255
     128       0    -271       3       0                               0D    256
     128     353                                                00010000D    257
     128       0    -271      11       0                               0D    258
     128     364                                                00010000D    259
     128       0    -271       3       0                               0D    260
     128     367                                                00010000D    261
     128       0    -271       3       0                               0D    262
     128     370                                                00010000D    263
     128       0    -271       3       0                               0D    264
     502     373                                                00010000D    265
     502                      11       1                               0D    266
     504     384                                                00010001D    267
     504                      15       1                               0D    268
     406     399                                                00000000D    269
     406                       1      15                               0D    270
     314     400                                                00000200D    271
     314                       2       0                               0D    272
186,3,1,0,0,1,269;                                                     1P      1
514,23,5,1,7,1,9,1,11,1,13,1,15,1,17,1,19,1,21,1,23,1,25,1,27,1,       3P      2
29,1,31,1,33,1,35,1,37,1,39,1,41,1,43,1,45,1,47,1,49,1;                3P      3
510,219,1,1,51;                                                        5P      4
510,221,1,1,53;                                                        7P      5
510,223,1,1,55;                                                        9P      6
510,225,1,1,57;                                                       11P      7
510,227,2,1,59,61;                                                    13P      8
510,229,2,1,63,65;                                                    15P      9
510,231,1,1,67;                                                       17P     10
510,233,1,1,69;                                                       19P     11
510,235,1,1,71;                                                       21P     12
510,237,1,1,73;                                                       23P     13
510,239,1,1,75;                                                       25P     14
510,241,1,1,77;                                                       27P     15
510,243,1,1,79;                                                       29P     16
510,245,1,1,81;                                                       31P     17
510,247,1,1,83;                                                       33P     18
510,249,1,1,85;                                                       35P     19
510,251,2,1,87,89;                                                    37P     20
510,253,1,1,91;                                                       39P     21
510,255,1,1,93;                                                       41P     22
510,257,1,1,95;                                                       43P     23
510,259,2,1,97,99;                                                    45P     24
510,261,3,1,101,103,105;                                              47P     25
510,263,3,1,107,109,111;                                              49P     26
508,4,0,267,1,0,0,0,267,2,1,0,0,267,3,0,0,0,267,2,0,0;                51P     27
508,4,0,267,4,1,0,0,267,5,0,0,0,267,6,0,0,0,267,7,0,0;                53P     28
508,4,0,267,8,0,0,0,267,9,1,0,0,267,10,0,0,0,267,9,0,0;               55P     29
508,4,0,267,11,0,0,0,267,12,1,0,0,267,13,0,0,0,267,12,0,0;            57P     30
508,1,0,267,11,1,0;                                                   59P     31
508,1,0,267,8,1,0;                                                    61P     32
508,1,0,267,1,1,0;                                                    63P     33
508,1,0,267,13,1,0;                                                   65P     34
508,4,0,267,14,0,0,0,267,15,0,0,0,267,6,1,0,0,267,16,1,0;             67P     35
508,4,0,267,17,0,0,0,267,18,0,0,0,267,19,0,0,0,267,20,1,0;            69P     36
508,4,0,267,21,0,0,0,267,22,0,0,0,267,4,0,0,0,267,23,1,0;             71P     37
508,8,0,267,24,0,0,0,267,23,0,0,0,267,7,1,0,0,267,15,1,0,0,267,       73P     38
25,0,0,0,267,20,0,0,0,267,26,0,0,0,267,27,1,0;                        73P     39
508,4,0,267,28,0,0,0,267,27,0,0,0,267,29,0,0,0,267,30,1,0;            75P     40
508,8,0,267,31,0,0,0,267,30,0,0,0,267,32,0,0,0,267,18,1,0,0,267,      77P     41
33,0,0,0,267,16,0,0,0,267,5,1,0,0,267,22,1,0;                         77P     42
508,4,0,267,34,0,0,0,267,35,1,0,0,267,36,0,0,0,267,37,0,0;            79P     43
508,4,0,267,38,0,0,0,267,37,1,0,0,267,39,0,0,0,267,40,0,0;            81P     44
508,4,0,267,41,0,0,0,267,40,1,0,0,267,42,0,0,0,267,43,0,0;            83P     45
508,4,0,267,44,0,0,0,267,43,1,0,0,267,45,0,0,0,267,35,0,0;            85P     46
508,4,0,267,45,1,0,0,267,42,1,0,0,267,39,1,0,0,267,36,1,0;            87P     47
508,4,0,267,29,1,0,0,267,26,1,0,0,267,19,1,0,0,267,32,1,0;            89P     48
508,6,0,267,46,0,0,0,267,47,0,0,0,267,48,1,0,0,267,49,1,0,0,267,      91P     49
50,1,0,0,267,48,0,0;                                                  91P     50
508,2,0,267,50,0,0,0,267,49,0,0;                                      93P     51
508,4,0,267,51,0,0,0,267,52,1,0,0,267,53,0,0,0,267,52,0,0;            95P     52
508,1,0,267,51,1,0;                                                   97P     53
508,2,0,267,46,1,0,0,267,47,1,0;                                      99P     54
508,1,0,267,10,1,0;                                                  101P     55
508,4,0,267,34,1,0,0,267,38,1,0,0,267,41,1,0,0,267,44,1,0;           103P     56
508,1,0,267,53,1,0;                                                  105P     57
508,1,0,267,3,1,0;                                                   107P     58
508,4,0,267,33,1,0,0,267,17,1,0,0,267,25,1,0,0,267,14,1,0;           109P     59
508,4,0,267,28,1,0,0,267,31,1,0,0,267,21,1,0,0,267,24,1,0;           111P     60
126,8,2,0,1,0,0,-3.14159265358979,-3.14159265358979,                 113P     61
-3.14159265358979,-1.5707963267949,-1.5707963267949,0.,0.,           113P     62
1.5707963267949,1.5707963267949,3.14159265358979,                    113P     63
3.14159265358979,3.14159265358979,1.,0.707106781186548,1.,           113P     64
0.707106781186548,1.,0.707106781186548,1.,0.707106781186548,1.,      113P     65
24.,1.5,-2.93915231795365D-15,24.,1.5,-24.,                          113P     66
-1.46957615897682D-15,1.5,-24.,-24.,1.5,-24.,-24.,1.5,0.,-24.,       113P     67
1.5,24.,-1.46957615897682D-15,1.5,24.,24.,1.5,24.,24.,1.5,           113P     68
2.93915231795365D-15,-3.14159265358979,3.14159265358979,0.,0.,       113P     69
0.;                                                                  113P     70
126,1,1,0,0,1,0,-0.0625,-0.0625,0.,0.,1.,1.,24.,1.5,0.,24.,0.,       115P     71
0.,-0.0625,0.,0.,0.,0.;                                              115P     72
126,8,2,0,1,0,0,-3.14159265358979,-3.14159265358979,                 117P     73
-3.14159265358979,-1.5707963267949,-1.5707963267949,0.,0.,           117P     74
1.5707963267949,1.5707963267949,3.14159265358979,                    117P     75
3.14159265358979,3.14159265358979,1.,0.707106781186548,1.,           117P     76
0.707106781186548,1.,0.707106781186548,1.,0.707106781186548,1.,      117P     77
24.,0.,2.93915231795365D-15,24.,0.,24.,-1.46957615897682D-15,0.,     117P     78
24.,-24.,0.,24.,-24.,0.,0.,-24.,0.,-24.,-1.46957615897682D-15,       117P     79
0.,-24.,24.,0.,-24.,24.,0.,-2.93915231795365D-15,                    117P     80
-3.14159265358979,3.14159265358979,0.,0.,0.;                         117P     81
126,1,1,0,0,1,0,0.,0.,0.62,0.62,1.,1.,2.,1.5,13.1,                   119P     82
1.99999999999999,1.5,6.9,0.,0.62,0.,0.,0.;                           119P     83
126,1,1,0,0,1,0,0.11,0.11,0.509999999999999,0.509999999999999,       121P     84
1.,1.,-2.,1.5,6.9,1.99999999999999,1.5,6.9,0.11,                     121P     85
0.509999999999999,0.,0.,0.;                                          121P     86
126,1,1,0,0,1,0,0.,0.,0.62,0.62,1.,1.,-2.00000000000001,1.5,         123P     87
13.1,-2.,1.5,6.9,0.,0.62,0.,0.,0.;                                   123P     88
126,1,1,0,0,1,0,0.11,0.11,0.510000000000001,0.510000000000001,       125P     89
1.,1.,2.,1.5,13.1,-2.00000000000001,1.5,13.1,0.11,                   125P     90
0.510000000000001,0.,0.,0.;                                          125P     91
126,8,2,0,1,0,0,-3.14159265358979,-3.14159265358979,                 127P     92
-3.14159265358979,-1.5707963267949,-1.5707963267949,0.,0.,           127P     93
1.5707963267949,1.5707963267949,3.14159265358979,                    127P     94
3.14159265358979,3.14159265358979,1.,0.707106781186548,1.,           127P     95
0.707106781186548,1.,0.707106781186548,1.,0.707106781186548,1.,      127P     96
16.5,5.5,2.02066721859313D-15,16.5,5.5,16.5,                         127P     97
-1.01033360929657D-15,5.5,16.5,-16.5,5.5,16.5,-16.5,5.5,0.,          127P     98
-16.5,5.5,-16.5,-1.01033360929657D-15,5.5,-16.5,16.5,5.5,-16.5,      127P     99
16.5,5.5,-2.02066721859313D-15,-3.14159265358979,                    127P    100
3.14159265358979,0.,0.,0.;                                           127P    101
126,1,1,0,0,1,0,-0.242424242424242,-0.242424242424242,0.,0.,1.,      129P    102
1.,16.5,5.5,0.,16.5,1.5,0.,-0.242424242424242,0.,0.,0.,0.;           129P    103
126,8,2,0,1,0,0,-3.14159265358979,-3.14159265358979,                 131P    104
-3.14159265358979,-1.5707963267949,-1.5707963267949,0.,0.,           131P    105
1.5707963267949,1.5707963267949,3.14159265358979,                    131P    106
3.14159265358979,3.14159265358979,1.,0.707106781186548,1.,           131P    107
0.707106781186548,1.,0.707106781186548,1.,0.707106781186548,1.,      131P    108
16.5,1.5,-2.02066721859313D-15,16.5,1.5,-16.5,                       131P    109
-1.01033360929657D-15,1.5,-16.5,-16.5,1.5,-16.5,-16.5,1.5,0.,        131P    110
-16.5,1.5,16.5,-1.01033360929657D-15,1.5,16.5,16.5,1.5,16.5,         131P    111
16.5,1.5,2.02066721859313D-15,-3.14159265358979,                     131P    112
3.14159265358979,0.,0.,0.;                                           131P    113
126,8,2,0,1,0,0,-3.14159265358979,-3.14159265358979,                 133P    114
-3.14159265358979,-1.5707963267949,-1.5707963267949,0.,0.,           133P    115
1.5707963267949,1.5707963267949,3.14159265358979,                    133P    116
3.14159265358979,3.14159265358979,1.,0.707106781186547,1.,           133P    117
0.707106781186547,1.,0.707106781186547,1.,0.707106781186547,1.,      133P    118
19.5,5.5,-2.38806125833734D-15,19.5,5.5,-19.5,                       133P    119
-1.19403062916867D-15,5.5,-19.5,-19.5,5.5,-19.5,-19.5,5.5,0.,        133P    120
-19.5,5.5,19.5,-1.19403062916867D-15,5.5,19.5,19.5,5.5,19.5,         133P    121
19.5,5.5,2.38806125833734D-15,-3.14159265358979,                     133P    122
3.14159265358979,0.,0.,0.;                                           133P    123
126,1,1,0,0,1,0,-0.205128205128205,-0.205128205128205,0.,0.,1.,      135P    124
1.,19.5,5.5,0.,19.5,1.5,0.,-0.205128205128205,0.,0.,0.,0.;           135P    125
126,8,2,0,1,0,0,-3.14159265358979,-3.14159265358979,                 137P    126
-3.14159265358979,-1.5707963267949,-1.5707963267949,0.,0.,           137P    127
1.5707963267949,1.5707963267949,3.14159265358979,                    137P    128
3.14159265358979,3.14159265358979,1.,0.707106781186547,1.,           137P    129
0.707106781186547,1.,0.707106781186547,1.,0.707106781186547,1.,      137P    130
19.5,1.5,2.38806125833734D-15,19.5,1.5,19.5,                         137P    131
-1.19403062916867D-15,1.5,19.5,-19.5,1.5,19.5,-19.5,1.5,0.,          137P    132
-19.5,1.5,-19.5,-1.19403062916867D-15,1.5,-19.5,19.5,1.5,-19.5,      137P    133
19.5,1.5,-2.38806125833734D-15,-3.14159265358979,                    137P    134
3.14159265358979,0.,0.,0.;                                           137P    135
126,1,1,0,0,1,0,-0.965,-0.965,-0.345,-0.345,1.,1.,                   139P    136
-2.00000000000001,0.,13.1,-2.,0.,6.9,-0.965,-0.345,0.,0.,0.;         139P    137
126,1,1,0,0,1,0,0.,0.,0.15,0.15,1.,1.,-2.00000000000001,1.5,         141P    138
13.1,-2.00000000000001,0.,13.1,0.,0.15,0.,0.,0.;                     141P    139
126,1,1,0,0,1,0,0.,0.,0.15,0.15,1.,1.,-2.,1.5,6.9,-2.,0.,6.9,0.,     143P    140
0.15,0.,0.,0.;                                                       143P    141
126,1,1,0,0,1,0,0.0350000000000003,0.0350000000000003,0.655,         145P    142
0.655,1.,1.,-3.1,0.,6.9,-3.10000000000001,0.,13.1,                   145P    143
0.0350000000000003,0.655,0.,0.,0.;                                   145P    144
126,1,1,0,0,1,0,-0.2,-0.2,0.15,0.15,1.,1.,-3.1,3.5,6.9,-3.1,0.,      147P    145
6.9,-0.2,0.15,0.,0.,0.;                                              147P    146
126,1,1,0,0,1,0,-0.465,-0.465,0.155,0.155,1.,1.,-3.1,3.5,13.1,       149P    147
-3.1,3.5,6.9,-0.465,0.155,0.,0.,0.;                                  149P    148
126,1,1,0,0,1,0,-0.2,-0.2,0.15,0.15,1.,1.,-3.10000000000001,3.5,     151P    149
13.1,-3.10000000000001,0.,13.1,-0.2,0.15,0.,0.,0.;                   151P    150
126,1,1,0,0,1,0,0.0350000000000001,0.0350000000000001,0.655,         153P    151
0.655,1.,1.,1.99999999999999,0.,6.9,2.,0.,13.1,                      153P    152
0.0350000000000001,0.655,0.,0.,0.;                                   153P    153
126,1,1,0,0,1,0,0.,0.,0.15,0.15,1.,1.,1.99999999999999,1.5,6.9,      155P    154
1.99999999999999,0.,6.9,0.,0.15,0.,0.,0.;                            155P    155
126,1,1,0,0,1,0,0.,0.,0.15,0.15,1.,1.,2.,1.5,13.1,2.,0.,13.1,0.,     157P    156
0.15,0.,0.,0.;                                                       157P    157
126,1,1,0,0,1,0,0.0449999999999999,0.0449999999999999,0.155,         159P    158
0.155,1.,1.,2.,0.,13.1,3.1,0.,13.1,0.0449999999999999,0.155,0.,      159P    159
0.,0.;                                                               159P    160
126,1,1,0,0,1,0,-0.21,-0.21,-0.1,-0.1,1.,1.,-3.10000000000001,       161P    161
0.,13.1,-2.00000000000001,0.,13.1,-0.21,-0.1,0.,0.,0.;               161P    162
126,1,1,0,0,1,0,-0.465,-0.465,0.155,0.155,1.,1.,3.1,3.5,13.1,        163P    163
-3.1,3.5,13.1,-0.465,0.155,0.,0.,0.;                                 163P    164
126,1,1,0,0,1,0,-0.2,-0.2,0.15,0.15,1.,1.,3.1,3.5,13.1,3.1,0.,       165P    165
13.1,-0.2,0.15,0.,0.,0.;                                             165P    166
126,1,1,0,0,1,0,-0.965,-0.965,-0.345,-0.345,1.,1.,3.1,0.,13.1,       167P    167
3.1,0.,6.9,-0.965,-0.345,0.,0.,0.;                                   167P    168
126,1,1,0,0,1,0,-0.465,-0.465,0.155,0.155,1.,1.,3.1,3.5,6.9,3.1,     169P    169
3.5,13.1,-0.465,0.155,0.,0.,0.;                                      169P    170
126,1,1,0,0,1,0,-0.2,-0.2,0.15,0.15,1.,1.,3.1,3.5,6.9,3.1,0.,        171P    171
6.9,-0.2,0.15,0.,0.,0.;                                              171P    172
126,1,1,0,0,1,0,-0.210000000000001,-0.210000000000001,-0.1,-0.1,     173P    173
1.,1.,3.1,0.,6.9,1.99999999999999,0.,6.9,-0.210000000000001,         173P    174
-0.1,0.,0.,0.;                                                       173P    175
126,1,1,0,0,1,0,-0.465,-0.465,0.155,0.155,1.,1.,-3.1,3.5,6.9,        175P    176
3.1,3.5,6.9,-0.465,0.155,0.,0.,0.;                                   175P    177
126,1,1,0,0,1,0,0.045,0.045,0.155,0.155,1.,1.,-2.,0.,6.9,-3.1,       177P    178
0.,6.9,0.045,0.155,0.,0.,0.;                                         177P    179
126,1,1,0,0,1,0,-1.265,-1.265,-0.245,-0.245,1.,1.,-5.1,1.5,15.1,     179P    180
-5.1,1.5,4.9,-1.265,-0.245,0.,0.,0.;                                 179P    181
126,1,1,0,0,1,0,0.,0.,0.2,0.2,1.,1.,-5.1,1.5,15.1,-5.1,3.5,15.1,     181P    182
0.,0.2,0.,0.,0.;                                                     181P    183
126,1,1,0,0,1,0,-1.02,-1.02,0.,0.,1.,1.,-5.1,3.5,4.9,-5.1,3.5,       183P    184
15.1,-1.02,0.,0.,0.,0.;                                              183P    185
126,1,1,0,0,1,0,0.,0.,0.2,0.2,1.,1.,-5.1,1.5,4.9,-5.1,3.5,4.9,       185P    186
0.,0.2,0.,0.,0.;                                                     185P    187
126,1,1,0,0,1,0,-0.765,-0.765,0.255,0.255,1.,1.,-5.1,1.5,4.9,        187P    188
5.1,1.5,4.9,-0.765,0.255,0.,0.,0.;                                   187P    189
126,1,1,0,0,1,0,-1.02,-1.02,0.,0.,1.,1.,5.1,3.5,4.9,-5.1,3.5,        189P    190
4.9,-1.02,0.,0.,0.,0.;                                               189P    191
126,1,1,0,0,1,0,0.,0.,0.2,0.2,1.,1.,5.1,1.5,4.9,5.1,3.5,4.9,0.,      191P    192
0.2,0.,0.,0.;                                                        191P    193
126,1,1,0,0,1,0,-0.265,-0.265,0.755,0.755,1.,1.,5.1,1.5,4.9,5.1,     193P    194
1.5,15.1,-0.265,0.755,0.,0.,0.;                                      193P    195
126,1,1,0,0,1,0,-1.02,-1.02,0.,0.,1.,1.,5.1,3.5,15.1,5.1,3.5,        195P    196
4.9,-1.02,0.,0.,0.,0.;                                               195P    197
126,1,1,0,0,1,0,0.,0.,0.2,0.2,1.,1.,5.1,1.5,15.1,5.1,3.5,15.1,       197P    198
0.,0.2,0.,0.,0.;                                                     197P    199
126,1,1,0,0,1,0,-0.765,-0.765,0.255,0.255,1.,1.,5.1,1.5,15.1,        199P    200
-5.1,1.5,15.1,-0.765,0.255,0.,0.,0.;                                 199P    201
126,1,1,0,0,1,0,-1.02,-1.02,0.,0.,1.,1.,-5.1,3.5,15.1,5.1,3.5,       201P    202
15.1,-1.02,0.,0.,0.,0.;                                              201P    203
126,4,2,0,0,0,0,0.,0.,0.,1.5707963267949,1.5707963267949,            203P    204
3.14159265358979,3.14159265358979,3.14159265358979,1.,               203P    205
0.707106781186547,1.,0.707106781186547,1.,0.,3.5,2.2,-2.2,3.5,       203P    206
2.2,-2.2,3.5,1.34711147906209D-16,-2.2,3.5,-2.2,                     203P    207
-2.69422295812418D-16,3.5,-2.2,0.,3.14159265358979,0.,0.,0.;         203P    208
126,4,2,0,0,0,0,3.14159265358979,3.14159265358979,                   205P    209
3.14159265358979,4.71238898038469,4.71238898038469,                  205P    210
6.28318530717959,6.28318530717959,6.28318530717959,1.,               205P    211
0.707106781186548,1.,0.707106781186548,1.,-2.69422295812418D-16,     205P    212
3.5,-2.2,2.2,3.5,-2.2,2.2,3.5,-4.04133443718627D-16,2.2,3.5,2.2,     205P    213
5.38844591624835D-16,3.5,2.2,3.14159265358979,6.28318530717959,      205P    214
0.,0.,0.;                                                            205P    215
126,1,1,0,0,1,0,-0.454545454545455,-0.454545454545455,               207P    216
0.454545454545454,0.454545454545454,1.,1.,0.,3.5,-2.2,0.,1.5,        207P    217
-2.2,-0.454545454545455,0.454545454545454,0.,0.,0.;                  207P    218
126,4,2,0,0,0,0,3.14159265358979,3.14159265358979,                   209P    219
3.14159265358979,4.71238898038469,4.71238898038469,                  209P    220
6.28318530717959,6.28318530717959,6.28318530717959,1.,               209P    221
0.707106781186548,1.,0.707106781186548,1.,-2.69422295812418D-16,     209P    222
1.5,-2.2,2.2,1.5,-2.2,2.2,1.5,-4.04133443718627D-16,2.2,1.5,2.2,     209P    223
5.38844591624835D-16,1.5,2.2,3.14159265358979,6.28318530717959,      209P    224
0.,0.,0.;                                                            209P    225
126,4,2,0,0,0,0,0.,0.,0.,1.5707963267949,1.5707963267949,            211P    226
3.14159265358979,3.14159265358979,3.14159265358979,1.,               211P    227
0.707106781186547,1.,0.707106781186547,1.,0.,1.5,2.2,-2.2,1.5,       211P    228
2.2,-2.2,1.5,1.34711147906209D-16,-2.2,1.5,-2.2,                     211P    229
-2.69422295812418D-16,1.5,-2.2,0.,3.14159265358979,0.,0.,0.;         211P    230
126,8,2,0,1,0,0,-3.14159265358979,-3.14159265358979,                 213P    231
-3.14159265358979,-1.5707963267949,-1.5707963267949,0.,0.,           213P    232
1.5707963267949,1.5707963267949,3.14159265358979,                    213P    233
3.14159265358979,3.14159265358979,1.,0.707106781186548,1.,           213P    234
0.707106781186548,1.,0.707106781186548,1.,0.707106781186548,1.,      213P    235
4.,3.5,-4.89858719658941D-16,4.,3.5,-4.,-2.44929359829471D-16,       213P    236
3.5,-4.,-4.,3.5,-4.,-4.,3.5,0.,-4.,3.5,4.,-2.44929359829471D-16,     213P    237
3.5,4.,4.,3.5,4.,4.,3.5,4.89858719658941D-16,-3.14159265358979,      213P    238
3.14159265358979,0.,0.,0.;                                           213P    239
126,1,1,0,0,1,0,-0.5,-0.5,0.,0.,1.,1.,4.,3.5,0.,4.,1.5,0.,-0.5,      215P    240
0.,0.,0.,0.;                                                         215P    241
126,8,2,0,1,0,0,-3.14159265358979,-3.14159265358979,                 217P    242
-3.14159265358979,-1.5707963267949,-1.5707963267949,0.,0.,           217P    243
1.5707963267949,1.5707963267949,3.14159265358979,                    217P    244
3.14159265358979,3.14159265358979,1.,0.707106781186548,1.,           217P    245
0.707106781186548,1.,0.707106781186548,1.,0.707106781186548,1.,      217P    246
4.,1.5,4.89858719658941D-16,4.,1.5,4.,-2.44929359829471D-16,1.5,     217P    247
4.,-4.,1.5,4.,-4.,1.5,0.,-4.,1.5,-4.,-2.44929359829471D-16,1.5,      217P    248
-4.,4.,1.5,-4.,4.,1.5,-4.89858719658941D-16,-3.14159265358979,       217P    249
3.14159265358979,0.,0.,0.;                                           217P    250
128,1,8,1,2,0,1,0,0,1,0.,0.,0.0625,0.0625,-3.14159265358979,         219P    251
-3.14159265358979,-3.14159265358979,-1.5707963267949,                219P    252
-1.5707963267949,0.,0.,1.5707963267949,1.5707963267949,              219P    253
3.14159265358979,3.14159265358979,3.14159265358979,1.,1.,            219P    254
0.707106781186548,0.707106781186548,1.,1.,0.707106781186548,         219P    255
0.707106781186548,1.,1.,0.707106781186548,0.707106781186548,1.,      219P    256
1.,0.707106781186548,0.707106781186548,1.,1.,24.,1.5,0.,24.,0.,      219P    257
0.,24.,1.5,-24.,24.,0.,-24.,0.,1.5,-24.,0.,0.,-24.,-24.,1.5,         219P    258
-24.,-24.,0.,-24.,-24.,1.5,0.,-24.,0.,0.,-24.,1.5,24.,-24.,0.,       219P    259
24.,0.,1.5,24.,0.,0.,24.,24.,1.5,24.,24.,0.,24.,24.,1.5,0.,24.,      219P    260
0.,0.,0.,0.0625,-3.14159265358979,3.14159265358979;                  219P    261
128,1,1,1,1,0,0,1,0,0,-0.201,-0.201,0.201000000000001,               221P    262
0.201000000000001,-0.311,-0.311,0.311,0.311,1.,1.,1.,1.,2.01,        221P    263
1.5,6.89,-2.01000000000001,1.5,6.89,2.01,1.5,13.11,                  221P    264
-2.01000000000001,1.5,13.11,-0.201,0.201000000000001,-0.311,         221P    265
0.311;                                                               221P    266
128,1,8,1,2,0,1,0,0,1,0.,0.,0.242424242424242,0.242424242424242,     223P    267
-3.14159265358979,-3.14159265358979,-3.14159265358979,               223P    268
-1.5707963267949,-1.5707963267949,0.,0.,1.5707963267949,             223P    269
1.5707963267949,3.14159265358979,3.14159265358979,                   223P    270
3.14159265358979,1.,1.,0.707106781186548,0.707106781186548,1.,       223P    271
1.,0.707106781186548,0.707106781186548,1.,1.,0.707106781186548,      223P    272
0.707106781186548,1.,1.,0.707106781186548,0.707106781186548,1.,      223P    273
1.,16.5,1.5,0.,16.5,5.5,0.,16.5,1.5,-16.5,16.5,5.5,-16.5,0.,1.5,     223P    274
-16.5,0.,5.5,-16.5,-16.5,1.5,-16.5,-16.5,5.5,-16.5,-16.5,1.5,0.,     223P    275
-16.5,5.5,0.,-16.5,1.5,16.5,-16.5,5.5,16.5,0.,1.5,16.5,0.,5.5,       223P    276
16.5,16.5,1.5,16.5,16.5,5.5,16.5,16.5,1.5,0.,16.5,5.5,0.,0.,         223P    277
0.242424242424242,-3.14159265358979,3.14159265358979;                223P    278
128,1,8,1,2,0,1,0,0,1,0.,0.,0.205128205128205,0.205128205128205,     225P    279
-3.14159265358979,-3.14159265358979,-3.14159265358979,               225P    280
-1.5707963267949,-1.5707963267949,0.,0.,1.5707963267949,             225P    281
1.5707963267949,3.14159265358979,3.14159265358979,                   225P    282
3.14159265358979,1.,1.,0.707106781186548,0.707106781186548,1.,       225P    283
1.,0.707106781186548,0.707106781186548,1.,1.,0.707106781186548,      225P    284
0.707106781186548,1.,1.,0.707106781186548,0.707106781186548,1.,      225P    285
1.,19.5,5.5,0.,19.5,1.5,0.,19.5,5.5,-19.5,19.5,1.5,-19.5,0.,5.5,     225P    286
-19.5,0.,1.5,-19.5,-19.5,5.5,-19.5,-19.5,1.5,-19.5,-19.5,5.5,0.,     225P    287
-19.5,1.5,0.,-19.5,5.5,19.5,-19.5,1.5,19.5,0.,5.5,19.5,0.,1.5,       225P    288
19.5,19.5,5.5,19.5,19.5,1.5,19.5,19.5,5.5,0.,19.5,1.5,0.,0.,         225P    289
0.205128205128205,-3.14159265358979,3.14159265358979;                225P    290
128,1,1,1,1,0,0,1,0,0,-1.951,-1.951,1.951,1.951,-1.951,-1.951,       227P    291
1.951,1.951,1.,1.,1.,1.,19.51,5.5,-19.51,-19.51,5.5,-19.51,          227P    292
19.51,5.5,19.51,-19.51,5.5,19.51,-1.951,1.951,-1.951,1.951;          227P    293
128,1,1,1,1,0,0,1,0,0,-2.401,-2.401,2.401,2.401,-2.401,-2.401,       229P    294
2.401,2.401,1.,1.,1.,1.,-24.01,1.5,24.01,24.01,1.5,24.01,-24.01,     229P    295
1.5,-24.01,24.01,1.5,-24.01,-2.401,2.401,-2.401,2.401;               229P    296
128,1,1,1,1,0,0,1,0,0,-0.001,-0.001,0.621,0.621,-0.001,-0.001,       231P    297
0.151,0.151,1.,1.,1.,1.,-2.00000000000001,1.51,13.11,-2.,1.51,       231P    298
6.89,-2.00000000000001,-0.01,13.11,-2.,-0.01,6.89,-0.001,0.621,      231P    299
-0.001,0.151;                                                        231P    300
128,1,1,1,1,0,0,1,0,0,-0.001,-0.001,0.621,0.621,-0.201,-0.201,       233P    301
0.151,0.151,1.,1.,1.,1.,-3.1,3.51,6.89,-3.10000000000001,3.51,       233P    302
13.11,-3.1,-0.01,6.89,-3.10000000000001,-0.01,13.11,-0.001,          233P    303
0.621,-0.201,0.151;                                                  233P    304
128,1,1,1,1,0,0,1,0,0,-0.001,-0.001,0.621,0.621,-0.001,-0.001,       235P    305
0.151,0.151,1.,1.,1.,1.,1.99999999999999,1.51,6.89,2.,1.51,          235P    306
13.11,1.99999999999999,-0.01,6.89,2.,-0.01,13.11,-0.001,0.621,       235P    307
-0.001,0.151;                                                        235P    308
128,1,1,1,1,0,0,1,0,0,-0.00100000000000033,-0.00100000000000033,     237P    309
0.621,0.621,-0.201,-0.201,0.151,0.151,1.,1.,1.,1.,                   237P    310
-3.11000000000001,3.51,13.1,3.11,3.51,13.1,-3.11000000000001,        237P    311
-0.01,13.1,3.11,-0.01,13.1,-0.00100000000000033,0.621,-0.201,        237P    312
0.151;                                                               237P    313
128,1,1,1,1,0,0,1,0,0,-0.00100000000000044,-0.00100000000000044,     239P    314
0.621,0.621,-0.201,-0.201,0.151,0.151,1.,1.,1.,1.,3.1,3.51,          239P    315
13.11,3.1,3.51,6.89,3.1,-0.01,13.11,3.1,-0.01,6.89,                  239P    316
-0.00100000000000044,0.621,-0.201,0.151;                             239P    317
128,1,1,1,1,0,0,1,0,0,-0.511,-0.511,0.111000000000001,               241P    318
0.111000000000001,-0.201,-0.201,0.151,0.151,1.,1.,1.,1.,3.11,        241P    319
3.51,6.9,-3.11,3.51,6.89999999999999,3.11,-0.01,6.9,-3.11,-0.01,     241P    320
6.89999999999999,-0.511,0.111000000000001,-0.201,0.151;              241P    321
128,1,1,1,1,0,0,1,0,0,-0.001,-0.001,1.021,1.021,-0.001,-0.001,       243P    322
0.201,0.201,1.,1.,1.,1.,-5.1,1.49,4.89,-5.1,1.49,15.11,-5.1,         243P    323
3.51,4.89,-5.1,3.51,15.11,-0.001,1.021,-0.001,0.201;                 243P    324
128,1,1,1,1,0,0,1,0,0,-0.001,-0.001,1.021,1.021,-0.001,-0.001,       245P    325
0.201,0.201,1.,1.,1.,1.,5.11,1.49,4.9,-5.11,1.49,4.9,5.11,3.51,      245P    326
4.9,-5.11,3.51,4.9,-0.001,1.021,-0.001,0.201;                        245P    327
128,1,1,1,1,0,0,1,0,0,-0.001,-0.001,1.021,1.021,-0.001,-0.001,       247P    328
0.201,0.201,1.,1.,1.,1.,5.1,1.49,15.11,5.1,1.49,4.89,5.1,3.51,       247P    329
15.11,5.09999999999999,3.51,4.89,-0.001,1.021,-0.001,0.201;          247P    330
128,1,1,1,1,0,0,1,0,0,-0.001,-0.001,1.021,1.021,-0.001,-0.001,       249P    331
0.201,0.201,1.,1.,1.,1.,-5.11,1.49,15.1,5.11,1.49,15.1,-5.11,        249P    332
3.51,15.1,5.11,3.51,15.1,-0.001,1.021,-0.001,0.201;                  249P    333
128,1,1,1,1,0,0,1,0,0,-0.511,-0.511,0.511,0.511,-0.511,-0.511,       251P    334
0.511,0.511,1.,1.,1.,1.,-5.11,3.5,4.89,-5.11,3.5,15.11,5.11,3.5,     251P    335
4.89,5.11,3.5,15.11,-0.511,0.511,-0.511,0.511;                       251P    336
128,1,8,1,2,0,1,0,0,1,-0.454545454545455,-0.454545454545455,         253P    337
0.454545454545454,0.454545454545454,-3.14159265358979,               253P    338
-3.14159265358979,-3.14159265358979,-1.5707963267949,                253P    339
-1.5707963267949,0.,0.,1.5707963267949,1.5707963267949,              253P    340
3.14159265358979,3.14159265358979,3.14159265358979,1.,1.,            253P    341
0.707106781186548,0.707106781186548,1.,1.,0.707106781186548,         253P    342
0.707106781186548,1.,1.,0.707106781186548,0.707106781186548,1.,      253P    343
1.,0.707106781186548,0.707106781186548,1.,1.,0.,3.5,-2.2,0.,1.5,     253P    344
-2.2,2.2,3.5,-2.2,2.2,1.5,-2.2,2.2,3.5,0.,2.2,1.5,0.,2.2,3.5,        253P    345
2.2,2.2,1.5,2.2,0.,3.5,2.2,0.,1.5,2.2,-2.2,3.5,2.2,-2.2,1.5,2.2,     253P    346
-2.2,3.5,0.,-2.2,1.5,0.,-2.2,3.5,-2.2,-2.2,1.5,-2.2,0.,3.5,-2.2,     253P    347
0.,1.5,-2.2,-0.454545454545455,0.454545454545454,                    253P    348
-3.14159265358979,3.14159265358979;                                  253P    349
128,1,1,1,1,0,0,1,0,0,-0.221,-0.221,0.221,0.221,-0.221,-0.221,       255P    350
0.221,0.221,1.,1.,1.,1.,2.21,1.5,2.21,2.21,1.5,-2.21,-2.21,1.5,      255P    351
2.21,-2.21,1.5,-2.21,-0.221,0.221,-0.221,0.221;                      255P    352
128,1,8,1,2,0,1,0,0,1,0.,0.,0.5,0.5,-3.14159265358979,               257P    353
-3.14159265358979,-3.14159265358979,-1.5707963267949,                257P    354
-1.5707963267949,0.,0.,1.5707963267949,1.5707963267949,              257P    355
3.14159265358979,3.14159265358979,3.14159265358979,1.,1.,            257P    356
0.707106781186548,0.707106781186548,1.,1.,0.707106781186548,         257P    357
0.707106781186548,1.,1.,0.707106781186548,0.707106781186548,1.,      257P    358
1.,0.707106781186548,0.707106781186548,1.,1.,4.,3.5,0.,4.,1.5,       257P    359
0.,4.,3.5,-4.,4.,1.5,-4.,0.,3.5,-4.,0.,1.5,-4.,-4.,3.5,-4.,-4.,      257P    360
1.5,-4.,-4.,3.5,0.,-4.,1.5,0.,-4.,3.5,4.,-4.,1.5,4.,0.,3.5,4.,       257P    361
0.,1.5,4.,4.,3.5,4.,4.,1.5,4.,4.,3.5,0.,4.,1.5,0.,0.,0.5,            257P    362
-3.14159265358979,3.14159265358979;                                  257P    363
128,1,1,1,1,0,0,1,0,0,-0.401,-0.401,0.401,0.401,-0.401,-0.401,       259P    364
0.401,0.401,1.,1.,1.,1.,4.01,3.5,-4.01,-4.01,3.5,-4.01,4.01,3.5,     259P    365
4.01,-4.01,3.5,4.01,-0.401,0.401,-0.401,0.401;                       259P    366
128,1,1,1,1,0,0,1,0,0,-1.651,-1.651,1.651,1.651,-1.651,-1.651,       261P    367
1.651,1.651,1.,1.,1.,1.,-16.51,1.5,16.51,16.51,1.5,16.51,-16.51,     261P    368
1.5,-16.51,16.51,1.5,-16.51,-1.651,1.651,-1.651,1.651;               261P    369
128,1,1,1,1,0,0,1,0,0,-2.401,-2.401,2.401,2.401,-2.401,-2.401,       263P    370
2.401,2.401,1.,1.,1.,1.,24.01,0.,24.01,-24.01,0.,24.01,24.01,0.,     263P    371
-24.01,-24.01,0.,-24.01,-2.401,2.401,-2.401,2.401;                   263P    372
502,36,24.,1.5,2.93915231795365D-15,24.,0.,2.93915231795365D-15,     265P    373
2.,1.5,13.1,1.99999999999999,1.5,6.9,-2.,1.5,6.9,                    265P    374
-2.00000000000001,1.5,13.1,16.5,5.5,-2.02066721859313D-15,16.5,      265P    375
1.5,-2.02066721859313D-15,19.5,5.5,-2.38806125833734D-15,19.5,       265P    376
1.5,-2.38806125833734D-15,-2.00000000000001,0.,13.1,-2.,0.,6.9,      265P    377
-3.1,0.,6.9,-3.10000000000001,0.,13.1,-3.1,3.5,6.9,-3.1,3.5,         265P    378
13.1,1.99999999999999,0.,6.9,2.,0.,13.1,3.1,0.,13.1,3.1,3.5,         265P    379
13.1,3.1,0.,6.9,3.1,3.5,6.9,-5.1,1.5,15.1,-5.1,1.5,4.9,-5.1,3.5,     265P    380
15.1,-5.1,3.5,4.9,5.1,1.5,4.9,5.1,3.5,4.9,5.1,1.5,15.1,5.1,3.5,      265P    381
15.1,0.,3.5,2.2,0.,3.5,-2.2,0.,1.5,-2.2,0.,1.5,2.2,4.,3.5,           265P    382
-4.89858719658941D-16,4.,1.5,-4.89858719658941D-16;                  265P    383
504,53,113,265,1,265,1,115,265,1,265,2,117,265,2,265,2,119,265,      267P    384
3,265,4,121,265,5,265,4,123,265,6,265,5,125,265,3,265,6,127,265,     267P    385
7,265,7,129,265,7,265,8,131,265,8,265,8,133,265,9,265,9,135,265,     267P    386
9,265,10,137,265,10,265,10,139,265,11,265,12,141,265,6,265,11,       267P    387
143,265,5,265,12,145,265,13,265,14,147,265,15,265,13,149,265,16,     267P    388
265,15,151,265,16,265,14,153,265,17,265,18,155,265,4,265,17,157,     267P    389
265,3,265,18,159,265,18,265,19,161,265,14,265,11,163,265,20,265,     267P    390
16,165,265,20,265,19,167,265,19,265,21,169,265,22,265,20,171,        267P    391
265,22,265,21,173,265,21,265,17,175,265,15,265,22,177,265,12,        267P    392
265,13,179,265,23,265,24,181,265,23,265,25,183,265,26,265,25,        267P    393
185,265,24,265,26,187,265,24,265,27,189,265,28,265,26,191,265,       267P    394
27,265,28,193,265,27,265,29,195,265,30,265,28,197,265,29,265,30,     267P    395
199,265,29,265,23,201,265,25,265,30,203,265,31,265,32,205,265,       267P    396
32,265,31,207,265,32,265,33,209,265,33,265,34,211,265,34,265,33,     267P    397
213,265,35,265,35,215,265,35,265,36,217,265,36,265,36;               267P    398
406,1,10HSwitch Top;                                                 269P    399
314,62.7450980392157,62.7450980392157,62.7450980392157,13HSteel      271P    400
- Satin;                                                             271P    401
S      1G      3D    272P    401                                        T      1
