                                                                        S      1
,,11HPush Button,11HPush Button,7Hunknown,7Hunknown,32,38,7,99,15,,1.,2,G      1
2HMM,1,0.08,15H20220922.115425,0.01,10000.,7Hunknown,7Hunknown,11,0,;   G      2
     186       1                                                00000000D      1
     186             -75       1       0                               0D      2
     514       2                                                00010000D      3
     514                       1       1                               0D      4
     510       3                                                00010000D      5
     510             -75       1       1                               0D      6
     510       4                                                00010000D      7
     510             -75       1       1                               0D      8
     510       5                                                00010000D      9
     510             -75       1       1                               0D     10
     510       6                                                00010000D     11
     510             -75       1       1                               0D     12
     510       7                                                00010000D     13
     510             -75       1       1                               0D     14
     510       8                                                00010000D     15
     510             -75       1       1                               0D     16
     510       9                                                00010000D     17
     510             -75       1       1                               0D     18
     508      10                                                00010000D     19
     508                       1       1                               0D     20
     508      11                                                00010000D     21
     508                       1       1                               0D     22
     508      12                                                00010000D     23
     508                       1       1                               0D     24
     508      13                                                00010000D     25
     508                       1       1                               0D     26
     508      14                                                00010000D     27
     508                       1       1                               0D     28
     508      15                                                00010000D     29
     508                       1       1                               0D     30
     508      16                                                00010000D     31
     508                       1       1                               0D     32
     508      17                                                00010000D     33
     508                       1       1                               0D     34
     508      18                                                00010000D     35
     508                       1       1                               0D     36
     126      19                                                00010000D     37
     126       0              10       0                               0D     38
     126      29                                                00010000D     39
     126       0              10       0                               0D     40
     126      39                                                00010000D     41
     126       0               9       0                               0D     42
     126      48                                                00010000D     43
     126       0               2       0                               0D     44
     126      50                                                00010000D     45
     126       0              10       0                               0D     46
     126      60                                                00010000D     47
     126       0               2       0                               0D     48
     126      62                                                00010000D     49
     126       0              10       0                               0D     50
     126      72                                                00010000D     51
     126       0              10       0                               0D     52
     126      82                                                00010000D     53
     126       0               3       0                               0D     54
     128      85                                                00010000D     55
     128       0     -75       3       0                               0D     56
     128      88                                                00010000D     57
     128       0     -75      12       0                               0D     58
     128     100                                                00010000D     59
     128       0     -75       3       0                               0D     60
     128     103                                                00010000D     61
     128       0     -75      12       0                               0D     62
     128     115                                                00010000D     63
     128       0     -75      13       0                               0D     64
     128     128                                                00010000D     65
     128       0     -75       3       0                               0D     66
     128     131                                                00010000D     67
     128       0     -75       3       0                               0D     68
     502     134                                                00010000D     69
     502                       4       1                               0D     70
     504     138                                                00010001D     71
     504                       2       1                               0D     72
     406     140                                                00000000D     73
     406                       1      15                               0D     74
     314     141                                                00000200D     75
     314                       2       0                               0D     76
186,3,1,0,0,1,73;                                                      1P      1
514,7,5,1,7,1,9,1,11,1,13,1,15,1,17,1;                                 3P      2
510,55,2,1,19,21;                                                      5P      3
510,57,1,1,23;                                                         7P      4
510,59,1,1,25;                                                         9P      5
510,61,1,1,27;                                                        11P      6
510,63,1,1,29;                                                        13P      7
510,65,2,1,31,33;                                                     15P      8
510,67,1,1,35;                                                        17P      9
508,1,0,71,1,1,0;                                                     19P     10
508,1,0,71,2,0,0;                                                     21P     11
508,4,0,71,3,0,0,0,71,4,1,0,0,71,5,1,0,0,71,4,0,0;                    23P     12
508,1,0,71,5,0,0;                                                     25P     13
508,4,0,71,1,0,0,0,71,6,1,0,0,71,7,0,0,0,71,6,0,0;                    27P     14
508,4,0,71,8,0,0,0,71,9,1,0,0,71,2,1,0,0,71,9,0,0;                    29P     15
508,1,0,71,7,1,0;                                                     31P     16
508,1,0,71,3,1,0;                                                     33P     17
508,1,0,71,8,1,0;                                                     35P     18
126,8,2,0,1,0,0,-3.14159265358979,-3.14159265358979,                  37P     19
-3.14159265358979,-1.5707963267949,-1.5707963267949,0.,0.,            37P     20
1.5707963267949,1.5707963267949,3.14159265358979,                     37P     21
3.14159265358979,3.14159265358979,1.,0.707106781186547,1.,            37P     22
0.707106781186547,1.,0.707106781186547,1.,0.707106781186547,1.,       37P     23
-19.5,-2.4,-2.38806125833734D-15,-19.5,-2.4,-19.5,                    37P     24
1.19403062916867D-15,-2.4,-19.5,19.5,-2.4,-19.5,19.5,-2.4,0.,         37P     25
19.5,-2.4,19.5,1.19403062916867D-15,-2.4,19.5,-19.5,-2.4,19.5,        37P     26
-19.5,-2.4,2.38806125833734D-15,-3.14159265358979,                    37P     27
3.14159265358979,0.,0.,0.;                                            37P     28
126,8,2,0,1,0,0,-3.14159265358979,-3.14159265358979,                  39P     29
-3.14159265358979,-1.5707963267949,-1.5707963267949,0.,0.,            39P     30
1.5707963267949,1.5707963267949,3.14159265358979,                     39P     31
3.14159265358979,3.14159265358979,1.,0.707106781186548,1.,            39P     32
0.707106781186548,1.,0.707106781186548,1.,0.707106781186548,1.,       39P     33
-16.25,-2.4,-1.99005104861445D-15,-16.25,-2.4,-16.25,                 39P     34
9.95025524307224D-16,-2.4,-16.25,16.25,-2.4,-16.25,16.25,-2.4,        39P     35
0.,16.25,-2.4,16.25,9.95025524307224D-16,-2.4,16.25,-16.25,-2.4,      39P     36
16.25,-16.25,-2.4,1.99005104861445D-15,-3.14159265358979,             39P     37
3.14159265358979,0.,0.,0.;                                            39P     38
126,8,2,0,1,0,0,-3.14159265358979,-3.14159265358979,                  41P     39
-3.14159265358979,-1.5707963267949,-1.5707963267949,0.,0.,            41P     40
1.5707963267949,1.5707963267949,3.14159265358979,                     41P     41
3.14159265358979,3.14159265358979,1.,0.707106781186547,1.,            41P     42
0.707106781186547,1.,0.707106781186547,1.,0.707106781186547,1.,       41P     43
-2.2,0.,-2.69422295812418D-16,-2.2,0.,-2.2,1.34711147906209D-16,      41P     44
0.,-2.2,2.2,0.,-2.2,2.2,0.,0.,2.2,0.,2.2,1.34711147906209D-16,        41P     45
0.,2.2,-2.2,0.,2.2,-2.2,0.,2.69422295812418D-16,                      41P     46
-3.14159265358979,3.14159265358979,0.,0.,0.;                          41P     47
126,1,1,0,0,1,0,0.,0.,0.909090909090909,0.909090909090909,1.,1.,      43P     48
-2.2,0.,0.,-2.2,-2.,0.,0.,0.909090909090909,0.,0.,0.;                 43P     49
126,8,2,0,1,0,0,-3.14159265358979,-3.14159265358979,                  45P     50
-3.14159265358979,-1.5707963267949,-1.5707963267949,0.,0.,            45P     51
1.5707963267949,1.5707963267949,3.14159265358979,                     45P     52
3.14159265358979,3.14159265358979,1.,0.707106781186547,1.,            45P     53
0.707106781186547,1.,0.707106781186547,1.,0.707106781186547,1.,       45P     54
-2.2,-2.,-2.69422295812418D-16,-2.2,-2.,-2.2,                         45P     55
1.34711147906209D-16,-2.,-2.2,2.2,-2.,-2.2,2.2,-2.,0.,2.2,-2.,        45P     56
2.2,1.34711147906209D-16,-2.,2.2,-2.2,-2.,2.2,-2.2,-2.,               45P     57
2.69422295812418D-16,-3.14159265358979,3.14159265358979,0.,0.,        45P     58
0.;                                                                   45P     59
126,1,1,0,0,1,0,-0.123076923076923,-0.123076923076923,0.,0.,1.,       47P     60
1.,-19.5,-2.4,0.,-19.5,0.,0.,-0.123076923076923,0.,0.,0.,0.;          47P     61
126,8,2,0,1,0,0,-3.14159265358979,-3.14159265358979,                  49P     62
-3.14159265358979,-1.5707963267949,-1.5707963267949,0.,0.,            49P     63
1.5707963267949,1.5707963267949,3.14159265358979,                     49P     64
3.14159265358979,3.14159265358979,1.,0.707106781186547,1.,            49P     65
0.707106781186547,1.,0.707106781186547,1.,0.707106781186547,1.,       49P     66
-19.5,0.,2.38806125833734D-15,-19.5,0.,19.5,                          49P     67
1.19403062916867D-15,0.,19.5,19.5,0.,19.5,19.5,0.,0.,19.5,0.,         49P     68
-19.5,1.19403062916867D-15,0.,-19.5,-19.5,0.,-19.5,-19.5,0.,          49P     69
-2.38806125833734D-15,-3.14159265358979,3.14159265358979,0.,0.,       49P     70
0.;                                                                   49P     71
126,8,2,0,1,0,0,-3.14159265358979,-3.14159265358979,                  51P     72
-3.14159265358979,-1.5707963267949,-1.5707963267949,0.,0.,            51P     73
1.5707963267949,1.5707963267949,3.14159265358979,                     51P     74
3.14159265358979,3.14159265358979,1.,0.707106781186548,1.,            51P     75
0.707106781186548,1.,0.707106781186548,1.,0.707106781186548,1.,       51P     76
-16.25,-6.5,-1.99005104861445D-15,-16.25,-6.5,-16.25,                 51P     77
9.95025524307224D-16,-6.5,-16.25,16.25,-6.5,-16.25,16.25,-6.5,        51P     78
0.,16.25,-6.5,16.25,9.95025524307224D-16,-6.5,16.25,-16.25,-6.5,      51P     79
16.25,-16.25,-6.5,1.99005104861445D-15,-3.14159265358979,             51P     80
3.14159265358979,0.,0.,0.;                                            51P     81
126,1,1,0,0,1,0,-0.4,-0.4,-0.147692307692308,-0.147692307692308,      53P     82
1.,1.,-16.25,-6.5,0.,-16.25,-2.4,0.,-0.4,-0.147692307692308,0.,       53P     83
0.,0.;                                                                53P     84
128,1,1,1,1,0,0,1,0,0,-1.951,-1.951,1.951,1.951,-1.951,-1.951,        55P     85
1.951,1.951,1.,1.,1.,1.,19.51,-2.4,19.51,-19.51,-2.4,19.51,           55P     86
19.51,-2.4,-19.51,-19.51,-2.4,-19.51,-1.951,1.951,-1.951,1.951;       55P     87
128,1,8,1,2,0,1,0,0,1,0.,0.,0.909090909090909,0.909090909090909,      57P     88
-3.14159265358979,-3.14159265358979,-3.14159265358979,                57P     89
-1.5707963267949,-1.5707963267949,0.,0.,1.5707963267949,              57P     90
1.5707963267949,3.14159265358979,3.14159265358979,                    57P     91
3.14159265358979,1.,1.,0.707106781186548,0.707106781186548,1.,        57P     92
1.,0.707106781186548,0.707106781186548,1.,1.,0.707106781186548,       57P     93
0.707106781186548,1.,1.,0.707106781186548,0.707106781186548,1.,       57P     94
1.,-2.2,0.,0.,-2.2,-2.,0.,-2.2,0.,-2.2,-2.2,-2.,-2.2,0.,0.,-2.2,      57P     95
0.,-2.,-2.2,2.2,0.,-2.2,2.2,-2.,-2.2,2.2,0.,0.,2.2,-2.,0.,2.2,        57P     96
0.,2.2,2.2,-2.,2.2,0.,0.,2.2,0.,-2.,2.2,-2.2,0.,2.2,-2.2,-2.,         57P     97
2.2,-2.2,0.,0.,-2.2,-2.,0.,0.,0.909090909090909,                      57P     98
-3.14159265358979,3.14159265358979;                                   57P     99
128,1,1,1,1,0,0,1,0,0,-0.221,-0.221,0.221,0.221,-0.221,-0.221,        59P    100
0.221,0.221,1.,1.,1.,1.,-2.21,-2.,2.21,2.21,-2.,2.21,-2.21,-2.,       59P    101
-2.21,2.21,-2.,-2.21,-0.221,0.221,-0.221,0.221;                       59P    102
128,1,8,1,2,0,1,0,0,1,0.,0.,0.123076923076923,0.123076923076923,      61P    103
-3.14159265358979,-3.14159265358979,-3.14159265358979,                61P    104
-1.5707963267949,-1.5707963267949,0.,0.,1.5707963267949,              61P    105
1.5707963267949,3.14159265358979,3.14159265358979,                    61P    106
3.14159265358979,1.,1.,0.707106781186548,0.707106781186548,1.,        61P    107
1.,0.707106781186548,0.707106781186548,1.,1.,0.707106781186548,       61P    108
0.707106781186548,1.,1.,0.707106781186548,0.707106781186548,1.,       61P    109
1.,-19.5,-2.4,0.,-19.5,0.,0.,-19.5,-2.4,-19.5,-19.5,0.,-19.5,0.,      61P    110
-2.4,-19.5,0.,0.,-19.5,19.5,-2.4,-19.5,19.5,0.,-19.5,19.5,-2.4,       61P    111
0.,19.5,0.,0.,19.5,-2.4,19.5,19.5,0.,19.5,0.,-2.4,19.5,0.,0.,         61P    112
19.5,-19.5,-2.4,19.5,-19.5,0.,19.5,-19.5,-2.4,0.,-19.5,0.,0.,0.,      61P    113
0.123076923076923,-3.14159265358979,3.14159265358979;                 61P    114
128,1,8,1,2,0,1,0,0,1,0.147692307692308,0.147692307692308,0.4,        63P    115
0.4,-3.14159265358979,-3.14159265358979,-3.14159265358979,            63P    116
-1.5707963267949,-1.5707963267949,0.,0.,1.5707963267949,              63P    117
1.5707963267949,3.14159265358979,3.14159265358979,                    63P    118
3.14159265358979,1.,1.,0.707106781186548,0.707106781186548,1.,        63P    119
1.,0.707106781186548,0.707106781186548,1.,1.,0.707106781186548,       63P    120
0.707106781186548,1.,1.,0.707106781186548,0.707106781186548,1.,       63P    121
1.,-16.25,-6.5,0.,-16.25,-2.4,0.,-16.25,-6.5,-16.25,-16.25,-2.4,      63P    122
-16.25,0.,-6.5,-16.25,0.,-2.4,-16.25,16.25,-6.5,-16.25,16.25,         63P    123
-2.4,-16.25,16.25,-6.5,0.,16.25,-2.4,0.,16.25,-6.5,16.25,16.25,       63P    124
-2.4,16.25,0.,-6.5,16.25,0.,-2.4,16.25,-16.25,-6.5,16.25,-16.25,      63P    125
-2.4,16.25,-16.25,-6.5,0.,-16.25,-2.4,0.,0.147692307692308,0.4,       63P    126
-3.14159265358979,3.14159265358979;                                   63P    127
128,1,1,1,1,0,0,1,0,0,-1.951,-1.951,1.951,1.951,-1.951,-1.951,        65P    128
1.951,1.951,1.,1.,1.,1.,-19.51,0.,19.51,19.51,0.,19.51,-19.51,        65P    129
0.,-19.51,19.51,0.,-19.51,-1.951,1.951,-1.951,1.951;                  65P    130
128,1,1,1,1,0,0,1,0,0,-1.626,-1.626,1.626,1.626,-1.626,-1.626,        67P    131
1.626,1.626,1.,1.,1.,1.,16.26,-6.5,16.26,-16.26,-6.5,16.26,           67P    132
16.26,-6.5,-16.26,-16.26,-6.5,-16.26,-1.626,1.626,-1.626,1.626;       67P    133
502,6,-19.5,-2.4,2.38806125833734D-15,-16.25,-2.4,                    69P    134
1.99005104861445D-15,-2.2,0.,2.69422295812418D-16,-2.2,-2.,           69P    135
2.69422295812418D-16,-19.5,0.,2.38806125833734D-15,-16.25,-6.5,       69P    136
1.99005104861445D-15;                                                 69P    137
504,9,37,69,1,69,1,39,69,2,69,2,41,69,3,69,3,43,69,3,69,4,45,69,      71P    138
4,69,4,47,69,1,69,5,49,69,5,69,5,51,69,6,69,6,53,69,6,69,2;           71P    139
406,1,5HBody1;                                                        73P    140
314,62.7450980392157,62.7450980392157,62.7450980392157,13HSteel       75P    141
- Satin;                                                              75P    142
S      1G      2D     76P    142                                        T      1
