                                                                        S      1
,,21HPush Button Enclosure,21HPush Button Enclosure,7Hunknown,7Hunknown,G      1
32,38,7,99,15,,1.,2,2HMM,1,0.08,15H20220922.115424,0.01,10000.,7HunknownG      2
,7Hunknown,11,0,;                                                       G      3
     186       1                                                00000000D      1
     186            -115       1       0                               0D      2
     514       2                                                00010000D      3
     514                       1       1                               0D      4
     510       3                                                00010000D      5
     510            -115       1       1                               0D      6
     510       4                                                00010000D      7
     510            -115       1       1                               0D      8
     510       5                                                00010000D      9
     510            -115       1       1                               0D     10
     510       6                                                00010000D     11
     510            -115       1       1                               0D     12
     510       7                                                00010000D     13
     510            -115       1       1                               0D     14
     510       8                                                00010000D     15
     510            -115       1       1                               0D     16
     510       9                                                00010000D     17
     510            -115       1       1                               0D     18
     510      10                                                00010000D     19
     510            -115       1       1                               0D     20
     510      11                                                00010000D     21
     510            -115       1       1                               0D     22
     510      12                                                00010000D     23
     510            -115       1       1                               0D     24
     508      13                                                00010000D     25
     508                       1       1                               0D     26
     508      14                                                00010000D     27
     508                       1       1                               0D     28
     508      15                                                00010000D     29
     508                       1       1                               0D     30
     508      16                                                00010000D     31
     508                       1       1                               0D     32
     508      17                                                00010000D     33
     508                       1       1                               0D     34
     508      18                                                00010000D     35
     508                       1       1                               0D     36
     508      19                                                00010000D     37
     508                       1       1                               0D     38
     508      20                                                00010000D     39
     508                       2       1                               0D     40
     508      22                                                00010000D     41
     508                       1       1                               0D     42
     508      23                                                00010000D     43
     508                       1       1                               0D     44
     508      24                                                00010000D     45
     508                       1       1                               0D     46
     508      25                                                00010000D     47
     508                       1       1                               0D     48
     508      26                                                00010000D     49
     508                       2       1                               0D     50
     508      28                                                00010000D     51
     508                       1       1                               0D     52
     508      29                                                00010000D     53
     508                       1       1                               0D     54
     126      30                                                00010000D     55
     126       0              10       0                               0D     56
     126      40                                                00010000D     57
     126       0              10       0                               0D     58
     126      50                                                00010000D     59
     126       0              10       0                               0D     60
     126      60                                                00010000D     61
     126       0               2       0                               0D     62
     126      62                                                00010000D     63
     126       0              10       0                               0D     64
     126      72                                                00010000D     65
     126       0               7       0                               0D     66
     126      79                                                00010000D     67
     126       0               7       0                               0D     68
     126      86                                                00010000D     69
     126       0               7       0                               0D     70
     126      93                                                00010000D     71
     126       0               7       0                               0D     72
     126     100                                                00010000D     73
     126       0               2       0                               0D     74
     126     102                                                00010000D     75
     126       0              10       0                               0D     76
     126     112                                                00010000D     77
     126       0              10       0                               0D     78
     126     122                                                00010000D     79
     126       0              10       0                               0D     80
     126     132                                                00010000D     81
     126       0               3       0                               0D     82
     126     135                                                00010000D     83
     126       0              10       0                               0D     84
     126     145                                                00010000D     85
     126       0               3       0                               0D     86
     126     148                                                00010000D     87
     126       0               3       0                               0D     88
     128     151                                                00010000D     89
     128       0    -115       3       0                               0D     90
     128     154                                                00010000D     91
     128       0    -115      11       0                               0D     92
     128     165                                                00010000D     93
     128       0    -115       3       0                               0D     94
     128     168                                                00010000D     95
     128       0    -115       3       0                               0D     96
     128     171                                                00010000D     97
     128       0    -115      12       0                               0D     98
     128     183                                                00010000D     99
     128       0    -115       3       0                               0D    100
     128     186                                                00010000D    101
     128       0    -115      13       0                               0D    102
     128     199                                                00010000D    103
     128       0    -115      13       0                               0D    104
     128     212                                                00010000D    105
     128       0    -115      13       0                               0D    106
     128     225                                                00010000D    107
     128       0    -115       3       0                               0D    108
     502     228                                                00010000D    109
     502                       6       1                               0D    110
     504     234                                                00010001D    111
     504                       5       1                               0D    112
     406     239                                                00000000D    113
     406                       1      15                               0D    114
     314     240                                                00000200D    115
     314                       2       0                               0D    116
186,3,1,0,0,1,113;                                                     1P      1
514,10,5,1,7,1,9,1,11,1,13,1,15,1,17,1,19,1,21,1,23,1;                 3P      2
510,89,2,1,25,27;                                                      5P      3
510,91,1,1,29;                                                         7P      4
510,93,2,1,31,33;                                                      9P      5
510,95,2,1,35,37;                                                     11P      6
510,97,1,1,39;                                                        13P      7
510,99,2,1,41,43;                                                     15P      8
510,101,1,1,45;                                                       17P      9
510,103,1,1,47;                                                       19P     10
510,105,1,1,49;                                                       21P     11
510,107,2,1,51,53;                                                    23P     12
508,1,0,111,1,0,0;                                                    25P     13
508,1,0,111,2,1,0;                                                    27P     14
508,4,0,111,3,0,0,0,111,4,1,0,0,111,5,1,0,0,111,4,0,0;                29P     15
508,1,0,111,3,1,0;                                                    31P     16
508,2,0,111,6,0,0,0,111,7,0,0;                                        33P     17
508,1,0,111,5,0,0;                                                    35P     18
508,2,0,111,8,0,0,0,111,9,0,0;                                        37P     19
508,5,0,111,8,1,0,0,111,10,1,0,0,111,11,1,0,0,111,10,0,0,0,111,       39P     20
9,1,0;                                                                39P     21
508,1,0,111,12,0,0;                                                   41P     22
508,1,0,111,13,0,0;                                                   43P     23
508,4,0,111,2,0,0,0,111,14,1,0,0,111,15,0,0,0,111,14,0,0;             45P     24
508,4,0,111,13,1,0,0,111,16,1,0,0,111,1,1,0,0,111,16,0,0;             47P     25
508,5,0,111,12,1,0,0,111,17,1,0,0,111,7,1,0,0,111,6,1,0,0,111,        49P     26
17,0,0;                                                               49P     27
508,1,0,111,11,0,0;                                                   51P     28
508,1,0,111,15,1,0;                                                   53P     29
126,8,2,0,1,0,0,-3.14159265358979,-3.14159265358979,                  55P     30
-3.14159265358979,-1.5707963267949,-1.5707963267949,0.,0.,            55P     31
1.5707963267949,1.5707963267949,3.14159265358979,                     55P     32
3.14159265358979,3.14159265358979,1.,0.707106781186548,1.,            55P     33
0.707106781186548,1.,0.707106781186548,1.,0.707106781186548,1.,       55P     34
19.5,2.2,2.38806125833734D-15,19.5,2.2,19.5,                          55P     35
-1.19403062916867D-15,2.2,19.5,-19.5,2.2,19.5,-19.5,2.2,0.,           55P     36
-19.5,2.2,-19.5,-1.19403062916867D-15,2.2,-19.5,19.5,2.2,-19.5,       55P     37
19.5,2.2,-2.38806125833734D-15,-3.14159265358979,                     55P     38
3.14159265358979,0.,0.,0.;                                            55P     39
126,8,2,0,1,0,0,-3.14159265358979,-3.14159265358979,                  57P     40
-3.14159265358979,-1.5707963267949,-1.5707963267949,0.,0.,            57P     41
1.5707963267949,1.5707963267949,3.14159265358979,                     57P     42
3.14159265358979,3.14159265358979,1.,0.707106781186548,1.,            57P     43
0.707106781186548,1.,0.707106781186548,1.,0.707106781186548,1.,       57P     44
16.5,2.2,2.02066721859313D-15,16.5,2.2,16.5,                          57P     45
-1.01033360929657D-15,2.2,16.5,-16.5,2.2,16.5,-16.5,2.2,0.,           57P     46
-16.5,2.2,-16.5,-1.01033360929657D-15,2.2,-16.5,16.5,2.2,-16.5,       57P     47
16.5,2.2,-2.02066721859313D-15,-3.14159265358979,                     57P     48
3.14159265358979,0.,0.,0.;                                            57P     49
126,8,2,0,1,0,0,-3.14159265358979,-3.14159265358979,                  59P     50
-3.14159265358979,-1.5707963267949,-1.5707963267949,0.,0.,            59P     51
1.5707963267949,1.5707963267949,3.14159265358979,                     59P     52
3.14159265358979,3.14159265358979,1.,0.707106781186548,1.,            59P     53
0.707106781186548,1.,0.707106781186548,1.,0.707106781186548,1.,       59P     54
24.,6.5,-2.93915231795365D-15,24.,6.5,-24.,                           59P     55
-1.46957615897682D-15,6.5,-24.,-24.,6.5,-24.,-24.,6.5,0.,-24.,        59P     56
6.5,24.,-1.46957615897682D-15,6.5,24.,24.,6.5,24.,24.,6.5,            59P     57
2.93915231795365D-15,-3.14159265358979,3.14159265358979,0.,0.,        59P     58
0.;                                                                   59P     59
126,1,1,0,0,1,0,-0.0625,-0.0625,0.,0.,1.,1.,24.,6.5,0.,24.,5.,        61P     60
0.,-0.0625,0.,0.,0.,0.;                                               61P     61
126,8,2,0,1,0,0,-3.14159265358979,-3.14159265358979,                  63P     62
-3.14159265358979,-1.5707963267949,-1.5707963267949,0.,0.,            63P     63
1.5707963267949,1.5707963267949,3.14159265358979,                     63P     64
3.14159265358979,3.14159265358979,1.,0.707106781186548,1.,            63P     65
0.707106781186548,1.,0.707106781186548,1.,0.707106781186548,1.,       63P     66
24.,5.,-2.93915231795365D-15,24.,5.,-24.,-1.46957615897682D-15,       63P     67
5.,-24.,-24.,5.,-24.,-24.,5.,0.,-24.,5.,24.,                          63P     68
-1.46957615897682D-15,5.,24.,24.,5.,24.,24.,5.,                       63P     69
2.93915231795365D-15,-3.14159265358979,3.14159265358979,0.,0.,        63P     70
0.;                                                                   63P     71
126,4,2,0,0,0,0,1.22464679914735D-16,1.22464679914735D-16,            65P     72
1.22464679914735D-16,1.5707963267949,1.5707963267949,                 65P     73
3.14159265358979,3.14159265358979,3.14159265358979,1.,                65P     74
0.707106781186548,1.,0.707106781186548,1.,22.5,6.5,                   65P     75
-2.75545529808154D-15,22.5,6.5,-22.5,1.37772764904077D-15,6.5,        65P     76
-22.5,-22.5,6.5,-22.5,-22.5,6.5,-2.75545529808154D-15,                65P     77
1.22464679914735D-16,3.14159265358979,0.,0.,0.;                       65P     78
126,4,2,0,0,0,0,3.14159265358979,3.14159265358979,                    67P     79
3.14159265358979,4.71238898038469,4.71238898038469,                   67P     80
6.28318530717959,6.28318530717959,6.28318530717959,1.,                67P     81
0.707106781186548,1.,0.707106781186548,1.,-22.5,6.5,                  67P     82
-2.75545529808154D-15,-22.5,6.5,22.5,-4.13318294712232D-15,6.5,       67P     83
22.5,22.5,6.5,22.5,22.5,6.5,5.51091059616309D-15,                     67P     84
3.14159265358979,6.28318530717959,0.,0.,0.;                           67P     85
126,4,2,0,0,0,0,-1.22464679914735D-16,-1.22464679914735D-16,          69P     86
-1.22464679914735D-16,1.5707963267949,1.5707963267949,                69P     87
3.14159265358979,3.14159265358979,3.14159265358979,1.,                69P     88
0.707106781186548,1.,0.707106781186548,1.,22.5,5.,                    69P     89
-2.75545529808154D-15,22.5,5.,22.5,1.37772764904077D-15,5.,22.5,      69P     90
-22.5,5.,22.5,-22.5,5.,2.75545529808154D-15,                          69P     91
-1.22464679914735D-16,3.14159265358979,0.,0.,0.;                      69P     92
126,4,2,0,0,0,0,3.14159265358979,3.14159265358979,                    71P     93
3.14159265358979,4.71238898038469,4.71238898038469,                   71P     94
6.28318530717959,6.28318530717959,6.28318530717959,1.,                71P     95
0.707106781186548,1.,0.707106781186548,1.,-22.5,5.,                   71P     96
2.75545529808154D-15,-22.5,5.,-22.5,-4.13318294712232D-15,5.,         71P     97
-22.5,22.5,5.,-22.5,22.5,5.,-5.51091059616309D-15,                    71P     98
3.14159265358979,6.28318530717959,0.,0.,0.;                           71P     99
126,1,1,0,0,1,0,-0.222222222222222,-0.222222222222222,0.,0.,1.,       73P    100
1.,-22.5,5.,0.,-22.5,0.,0.,-0.222222222222222,0.,0.,0.,0.;            73P    101
126,8,2,0,1,0,0,-3.14159265358979,-3.14159265358979,                  75P    102
-3.14159265358979,-1.5707963267949,-1.5707963267949,0.,0.,            75P    103
1.5707963267949,1.5707963267949,3.14159265358979,                     75P    104
3.14159265358979,3.14159265358979,1.,0.707106781186548,1.,            75P    105
0.707106781186548,1.,0.707106781186548,1.,0.707106781186548,1.,       75P    106
-22.5,0.,2.75545529808154D-15,-22.5,0.,22.5,                          75P    107
1.37772764904077D-15,0.,22.5,22.5,0.,22.5,22.5,0.,0.,22.5,0.,         75P    108
-22.5,1.37772764904077D-15,0.,-22.5,-22.5,0.,-22.5,-22.5,0.,          75P    109
-2.75545529808154D-15,-3.14159265358979,3.14159265358979,0.,0.,       75P    110
0.;                                                                   75P    111
126,8,2,0,1,0,0,-3.14159265358979,-3.14159265358979,                  77P    112
-3.14159265358979,-1.5707963267949,-1.5707963267949,0.,0.,            77P    113
1.5707963267949,1.5707963267949,3.14159265358979,                     77P    114
3.14159265358979,3.14159265358979,1.,0.707106781186548,1.,            77P    115
0.707106781186548,1.,0.707106781186548,1.,0.707106781186548,1.,       77P    116
-22.5,10.,-2.75545529808154D-15,-22.5,10.,-22.5,                      77P    117
1.37772764904077D-15,10.,-22.5,22.5,10.,-22.5,22.5,10.,0.,22.5,       77P    118
10.,22.5,1.37772764904077D-15,10.,22.5,-22.5,10.,22.5,-22.5,10.,      77P    119
2.75545529808154D-15,-3.14159265358979,3.14159265358979,0.,0.,        77P    120
0.;                                                                   77P    121
126,8,2,0,1,0,0,-3.14159265358979,-3.14159265358979,                  79P    122
-3.14159265358979,-1.5707963267949,-1.5707963267949,0.,0.,            79P    123
1.5707963267949,1.5707963267949,3.14159265358979,                     79P    124
3.14159265358979,3.14159265358979,1.,0.707106781186548,1.,            79P    125
0.707106781186548,1.,0.707106781186548,1.,0.707106781186548,1.,       79P    126
19.5,10.,-2.38806125833734D-15,19.5,10.,-19.5,                        79P    127
-1.19403062916867D-15,10.,-19.5,-19.5,10.,-19.5,-19.5,10.,0.,         79P    128
-19.5,10.,19.5,-1.19403062916867D-15,10.,19.5,19.5,10.,19.5,          79P    129
19.5,10.,2.38806125833734D-15,-3.14159265358979,                      79P    130
3.14159265358979,0.,0.,0.;                                            79P    131
126,1,1,0,0,1,0,-0.0121212121212121,-0.0121212121212121,              81P    132
0.121212121212121,0.121212121212121,1.,1.,16.5,2.2,0.,16.5,0.,        81P    133
0.,-0.0121212121212121,0.121212121212121,0.,0.,0.;                    81P    134
126,8,2,0,1,0,0,-3.14159265358979,-3.14159265358979,                  83P    135
-3.14159265358979,-1.5707963267949,-1.5707963267949,0.,0.,            83P    136
1.5707963267949,1.5707963267949,3.14159265358979,                     83P    137
3.14159265358979,3.14159265358979,1.,0.707106781186548,1.,            83P    138
0.707106781186548,1.,0.707106781186548,1.,0.707106781186548,1.,       83P    139
16.5,0.,-2.02066721859313D-15,16.5,0.,-16.5,                          83P    140
-1.01033360929657D-15,0.,-16.5,-16.5,0.,-16.5,-16.5,0.,0.,-16.5,      83P    141
0.,16.5,-1.01033360929657D-15,0.,16.5,16.5,0.,16.5,16.5,0.,           83P    142
2.02066721859313D-15,-3.14159265358979,3.14159265358979,0.,0.,        83P    143
0.;                                                                   83P    144
126,1,1,0,0,1,0,0.102564102564103,0.102564102564103,                  85P    145
0.502564102564103,0.502564102564103,1.,1.,19.5,10.,0.,19.5,2.2,       85P    146
0.,0.102564102564103,0.502564102564103,0.,0.,0.;                      85P    147
126,1,1,0,0,1,0,-0.444444444444444,-0.444444444444444,                87P    148
-0.288888888888889,-0.288888888888889,1.,1.,-22.5,10.,0.,-22.5,       87P    149
6.5,0.,-0.444444444444444,-0.288888888888889,0.,0.,0.;                87P    150
128,1,1,1,1,0,0,1,0,0,-1.951,-1.951,1.951,1.951,-1.951,-1.951,        89P    151
1.951,1.951,1.,1.,1.,1.,19.51,2.2,-19.51,-19.51,2.2,-19.51,           89P    152
19.51,2.2,19.51,-19.51,2.2,19.51,-1.951,1.951,-1.951,1.951;           89P    153
128,1,8,1,2,0,1,0,0,1,0.,0.,0.0625,0.0625,-3.14159265358979,          91P    154
-3.14159265358979,-3.14159265358979,-1.5707963267949,                 91P    155
-1.5707963267949,0.,0.,1.5707963267949,1.5707963267949,               91P    156
3.14159265358979,3.14159265358979,3.14159265358979,1.,1.,             91P    157
0.707106781186548,0.707106781186548,1.,1.,0.707106781186548,          91P    158
0.707106781186548,1.,1.,0.707106781186548,0.707106781186548,1.,       91P    159
1.,0.707106781186548,0.707106781186548,1.,1.,24.,6.5,0.,24.,5.,       91P    160
0.,24.,6.5,-24.,24.,5.,-24.,0.,6.5,-24.,0.,5.,-24.,-24.,6.5,          91P    161
-24.,-24.,5.,-24.,-24.,6.5,0.,-24.,5.,0.,-24.,6.5,24.,-24.,5.,        91P    162
24.,0.,6.5,24.,0.,5.,24.,24.,6.5,24.,24.,5.,24.,24.,6.5,0.,24.,       91P    163
5.,0.,0.,0.0625,-3.14159265358979,3.14159265358979;                   91P    164
128,1,1,1,1,0,0,1,0,0,-2.401,-2.401,2.401,2.401,-2.401,-2.401,        93P    165
2.401,2.401,1.,1.,1.,1.,24.01,6.5,-24.01,-24.01,6.5,-24.01,           93P    166
24.01,6.5,24.01,-24.01,6.5,24.01,-2.401,2.401,-2.401,2.401;           93P    167
128,1,1,1,1,0,0,1,0,0,-2.401,-2.401,2.401,2.401,-2.401,-2.401,        95P    168
2.401,2.401,1.,1.,1.,1.,-24.01,5.,-24.01,24.01,5.,-24.01,-24.01,      95P    169
5.,24.01,24.01,5.,24.01,-2.401,2.401,-2.401,2.401;                    95P    170
128,1,8,1,2,0,1,0,0,1,0.,0.,0.222222222222222,0.222222222222222,      97P    171
-3.14159265358979,-3.14159265358979,-3.14159265358979,                97P    172
-1.5707963267949,-1.5707963267949,0.,0.,1.5707963267949,              97P    173
1.5707963267949,3.14159265358979,3.14159265358979,                    97P    174
3.14159265358979,1.,1.,0.707106781186548,0.707106781186548,1.,        97P    175
1.,0.707106781186548,0.707106781186548,1.,1.,0.707106781186548,       97P    176
0.707106781186548,1.,1.,0.707106781186548,0.707106781186548,1.,       97P    177
1.,-22.5,5.,0.,-22.5,0.,0.,-22.5,5.,22.5,-22.5,0.,22.5,0.,5.,         97P    178
22.5,0.,0.,22.5,22.5,5.,22.5,22.5,0.,22.5,22.5,5.,0.,22.5,0.,0.,      97P    179
22.5,5.,-22.5,22.5,0.,-22.5,0.,5.,-22.5,0.,0.,-22.5,-22.5,5.,         97P    180
-22.5,-22.5,0.,-22.5,-22.5,5.,0.,-22.5,0.,0.,0.,                      97P    181
0.222222222222222,-3.14159265358979,3.14159265358979;                 97P    182
128,1,1,1,1,0,0,1,0,0,-2.251,-2.251,2.251,2.251,-2.251,-2.251,        99P    183
2.251,2.251,1.,1.,1.,1.,-22.51,10.,22.51,22.51,10.,22.51,-22.51,      99P    184
10.,-22.51,22.51,10.,-22.51,-2.251,2.251,-2.251,2.251;                99P    185
128,1,8,1,2,0,1,0,0,1,-0.0121212121212121,-0.0121212121212121,       101P    186
0.121212121212121,0.121212121212121,-3.14159265358979,               101P    187
-3.14159265358979,-3.14159265358979,-1.5707963267949,                101P    188
-1.5707963267949,0.,0.,1.5707963267949,1.5707963267949,              101P    189
3.14159265358979,3.14159265358979,3.14159265358979,1.,1.,            101P    190
0.707106781186548,0.707106781186548,1.,1.,0.707106781186548,         101P    191
0.707106781186548,1.,1.,0.707106781186548,0.707106781186548,1.,      101P    192
1.,0.707106781186548,0.707106781186548,1.,1.,16.5,2.2,0.,16.5,       101P    193
0.,0.,16.5,2.2,16.5,16.5,0.,16.5,0.,2.2,16.5,0.,0.,16.5,-16.5,       101P    194
2.2,16.5,-16.5,0.,16.5,-16.5,2.2,0.,-16.5,0.,0.,-16.5,2.2,-16.5,     101P    195
-16.5,0.,-16.5,0.,2.2,-16.5,0.,0.,-16.5,16.5,2.2,-16.5,16.5,0.,      101P    196
-16.5,16.5,2.2,0.,16.5,0.,0.,-0.0121212121212121,                    101P    197
0.121212121212121,-3.14159265358979,3.14159265358979;                101P    198
128,1,8,1,2,0,1,0,0,1,0.102564102564103,0.102564102564103,           103P    199
0.502564102564103,0.502564102564103,-3.14159265358979,               103P    200
-3.14159265358979,-3.14159265358979,-1.5707963267949,                103P    201
-1.5707963267949,0.,0.,1.5707963267949,1.5707963267949,              103P    202
3.14159265358979,3.14159265358979,3.14159265358979,1.,1.,            103P    203
0.707106781186548,0.707106781186548,1.,1.,0.707106781186548,         103P    204
0.707106781186548,1.,1.,0.707106781186548,0.707106781186548,1.,      103P    205
1.,0.707106781186548,0.707106781186548,1.,1.,19.5,10.,0.,19.5,       103P    206
2.2,0.,19.5,10.,19.5,19.5,2.2,19.5,0.,10.,19.5,0.,2.2,19.5,          103P    207
-19.5,10.,19.5,-19.5,2.2,19.5,-19.5,10.,0.,-19.5,2.2,0.,-19.5,       103P    208
10.,-19.5,-19.5,2.2,-19.5,0.,10.,-19.5,0.,2.2,-19.5,19.5,10.,        103P    209
-19.5,19.5,2.2,-19.5,19.5,10.,0.,19.5,2.2,0.,0.102564102564103,      103P    210
0.502564102564103,-3.14159265358979,3.14159265358979;                103P    211
128,1,8,1,2,0,1,0,0,1,0.288888888888889,0.288888888888889,           105P    212
0.444444444444444,0.444444444444444,-3.14159265358979,               105P    213
-3.14159265358979,-3.14159265358979,-1.5707963267949,                105P    214
-1.5707963267949,0.,0.,1.5707963267949,1.5707963267949,              105P    215
3.14159265358979,3.14159265358979,3.14159265358979,1.,1.,            105P    216
0.707106781186548,0.707106781186548,1.,1.,0.707106781186548,         105P    217
0.707106781186548,1.,1.,0.707106781186548,0.707106781186548,1.,      105P    218
1.,0.707106781186548,0.707106781186548,1.,1.,-22.5,10.,0.,-22.5,     105P    219
6.5,0.,-22.5,10.,22.5,-22.5,6.5,22.5,0.,10.,22.5,0.,6.5,22.5,        105P    220
22.5,10.,22.5,22.5,6.5,22.5,22.5,10.,0.,22.5,6.5,0.,22.5,10.,        105P    221
-22.5,22.5,6.5,-22.5,0.,10.,-22.5,0.,6.5,-22.5,-22.5,10.,-22.5,      105P    222
-22.5,6.5,-22.5,-22.5,10.,0.,-22.5,6.5,0.,0.288888888888889,         105P    223
0.444444444444444,-3.14159265358979,3.14159265358979;                105P    224
128,1,1,1,1,0,0,1,0,0,-2.251,-2.251,2.251,2.251,-2.251,-2.251,       107P    225
2.251,2.251,1.,1.,1.,1.,22.51,0.,22.51,-22.51,0.,22.51,22.51,0.,     107P    226
-22.51,-22.51,0.,-22.51,-2.251,2.251,-2.251,2.251;                   107P    227
502,12,19.5,2.2,-2.38806125833734D-15,16.5,2.2,                      109P    228
-2.02066721859313D-15,24.,6.5,-2.93915231795365D-15,24.,5.,          109P    229
-2.93915231795365D-15,22.5,6.5,-2.75545529808154D-15,-22.5,6.5,      109P    230
0.,22.5,5.,-2.75545529808154D-15,-22.5,5.,0.,-22.5,0.,               109P    231
2.75545529808154D-15,-22.5,10.,2.75545529808154D-15,19.5,10.,        109P    232
-2.38806125833734D-15,16.5,0.,-2.02066721859313D-15;                 109P    233
504,17,55,109,1,109,1,57,109,2,109,2,59,109,3,109,3,61,109,3,        111P    234
109,4,63,109,4,109,4,65,109,5,109,6,67,109,6,109,5,69,109,7,109,     111P    235
8,71,109,8,109,7,73,109,8,109,9,75,109,9,109,9,77,109,10,109,10,     111P    236
79,109,11,109,11,81,109,2,109,12,83,109,12,109,12,85,109,11,109,     111P    237
1,87,109,10,109,6;                                                   111P    238
406,1,5HBody1;                                                       113P    239
314,62.7450980392157,62.7450980392157,62.7450980392157,13HSteel      115P    240
- Satin;                                                             115P    241
S      1G      3D    116P    241                                        T      1
