                                                                        S      1
,,6HSphere,6HSphere,7Hunknown,7Hunknown,32,38,7,99,15,,1.,2,2HMM,1,0.08,G      1
15H20220922.115425,0.01,10000.,7Hunknown,7Hunknown,11,0,;               G      2
     186       1                                                00000000D      1
     186             -43       1       0                               0D      2
     514       2                                                00010000D      3
     514                       1       1                               0D      4
     510       3                                                00010000D      5
     510             -43       1       1                               0D      6
     510       4                                                00010000D      7
     510             -43       1       1                               0D      8
     510       5                                                00010000D      9
     510             -43       1       1                               0D     10
     508       6                                                00010000D     11
     508                       1       1                               0D     12
     508       7                                                00010000D     13
     508                       1       1                               0D     14
     508       8                                                00010000D     15
     508                       1       1                               0D     16
     508       9                                                00010000D     17
     508                       1       1                               0D     18
     508      10                                                00010000D     19
     508                       1       1                               0D     20
     508      11                                                00010000D     21
     508                       1       1                               0D     22
     126      12                                                00010000D     23
     126       0              12       0                               0D     24
     126      24                                                00010000D     25
     126       0              12       0                               0D     26
     126      36                                                00010000D     27
     126       0               6       0                               0D     28
     126      42                                                00010000D     29
     126       0               6       0                               0D     30
     128      48                                                00010000D     31
     128       0     -43       7       0                               0D     32
     128      55                                                00010000D     33
     128       0     -43      30       0                               0D     34
     128      85                                                00010000D     35
     128       0     -43      32       0                               0D     36
     502     117                                                00010000D     37
     502                       4       1                               0D     38
     504     121                                                00010001D     39
     504                       1       1                               0D     40
     406     122                                                00000000D     41
     406                       1      15                               0D     42
     314     123                                                00000200D     43
     314                       2       0                               0D     44
     314     125                                                00000200D     45
     314                       2       0                               0D     46
186,3,1,0,0,1,41;                                                      1P      1
514,3,5,1,7,1,9,1;                                                     3P      2
510,31,2,1,11,13;                                                      5P      3
510,33,2,1,15,17;                                                      7P      4
510,35,2,1,19,21;                                                      9P      5
508,1,0,39,1,0,0;                                                     11P      6
508,1,0,39,2,0,0;                                                     13P      7
508,2,0,39,3,1,0,0,39,3,0,0;                                          15P      8
508,1,0,39,2,1,0;                                                     17P      9
508,2,0,39,4,1,0,0,39,4,0,0;                                          19P     10
508,1,0,39,1,1,0;                                                     21P     11
126,8,2,0,1,0,0,-3.14159265358979,-3.14159265358979,                  23P     12
-3.14159265358979,-1.5707963267949,-1.5707963267949,0.,0.,            23P     13
1.5707963267949,1.5707963267949,3.14159265358979,                     23P     14
3.14159265358979,3.14159265358979,1.,0.707106781186548,1.,            23P     15
0.707106781186547,1.,0.707106781186547,1.,0.707106781186548,1.,       23P     16
3.04415270988322D-15,6.6,24.8573932663906,24.8573932663906,6.6,       23P     17
24.8573932663906,24.8573932663906,6.6,-1.52207635494161D-15,          23P     18
24.8573932663906,6.6,-24.8573932663906,0.,6.6,-24.8573932663906,      23P     19
-24.8573932663906,6.6,-24.8573932663906,-24.8573932663906,6.6,        23P     20
-1.52207635494161D-15,-24.8573932663906,6.6,24.8573932663906,         23P     21
-3.04415270988322D-15,6.6,24.8573932663906,-3.14159265358979,         23P     22
3.14159265358979,0.,0.,0.;                                            23P     23
126,8,2,0,1,0,0,-3.14159265358979,-3.14159265358979,                  25P     24
-3.14159265358979,-1.5707963267949,-1.5707963267949,0.,0.,            25P     25
1.5707963267949,1.5707963267949,3.14159265358979,                     25P     26
3.14159265358979,3.14159265358979,1.,0.707106781186548,1.,            25P     27
0.707106781186547,1.,0.707106781186547,1.,0.707106781186548,1.,       25P     28
-2.75107029485341D-15,6.6,22.4641937313584,-22.4641937313584,         25P     29
6.6,22.4641937313584,-22.4641937313584,6.6,-1.3755351474267D-15,      25P     30
-22.4641937313584,6.6,-22.4641937313584,0.,6.6,                       25P     31
-22.4641937313584,22.4641937313584,6.6,-22.4641937313584,             25P     32
22.4641937313584,6.6,-1.3755351474267D-15,22.4641937313584,6.6,       25P     33
22.4641937313584,2.75107029485341D-15,6.6,22.4641937313584,           25P     34
-3.14159265358979,3.14159265358979,0.,0.,0.;                          25P     35
126,4,2,0,0,0,0,-1.5707963267949,-1.5707963267949,                    27P     36
-1.5707963267949,0.,0.,1.5707963267949,1.5707963267949,               27P     37
1.5707963267949,1.,0.707106781186548,1.,0.707106781186548,1.,         27P     38
-2.2655965784226D-15,36.,-37.,-37.,36.,-37.,-37.,36.,0.,-37.,         27P     39
36.,37.,-2.2655965784226D-15,36.,37.,-1.5707963267949,                27P     40
1.5707963267949,0.,0.,0.;                                             27P     41
126,4,2,0,0,0,0,-1.5707963267949,-1.5707963267949,                    29P     42
-1.5707963267949,0.,0.,1.5707963267949,1.5707963267949,               29P     43
1.5707963267949,1.,0.707106781186548,1.,0.707106781186548,1.,         29P     44
-2.35744508835865D-15,36.,38.5,-38.5,36.,38.5,-38.5,36.,0.,           29P     45
-38.5,36.,-38.5,-2.35744508835865D-15,36.,-38.5,                      29P     46
-1.5707963267949,1.5707963267949,0.,0.,0.;                            29P     47
128,1,1,1,1,0,0,1,0,0,-2.48673932663906,-2.48673932663906,            31P     48
2.48673932663906,2.48673932663906,-2.48673932663906,                  31P     49
-2.48673932663906,2.48673932663906,2.48673932663906,1.,1.,1.,1.,      31P     50
24.8673932663906,6.6,24.8673932663906,-24.8673932663906,6.6,          31P     51
24.8673932663906,24.8673932663906,6.6,-24.8673932663906,              31P     52
-24.8673932663906,6.6,-24.8673932663906,-2.48673932663906,            31P     53
2.48673932663906,-2.48673932663906,2.48673932663906;                  31P     54
128,4,8,2,2,0,1,0,0,1,-1.5707963267949,-1.5707963267949,              33P     55
-1.5707963267949,0.,0.,1.5707963267949,1.5707963267949,               33P     56
1.5707963267949,-3.14159265358979,-3.14159265358979,                  33P     57
-3.14159265358979,-1.5707963267949,-1.5707963267949,0.,0.,            33P     58
1.5707963267949,1.5707963267949,3.14159265358979,                     33P     59
3.14159265358979,3.14159265358979,1.,0.707106781186548,1.,            33P     60
0.707106781186548,1.,0.707106781186548,0.5,0.707106781186548,         33P     61
0.5,0.707106781186548,1.,0.707106781186548,1.,0.707106781186548,      33P     62
1.,0.707106781186548,0.5,0.707106781186548,0.5,                       33P     63
0.707106781186548,1.,0.707106781186548,1.,0.707106781186548,1.,       33P     64
0.707106781186548,0.5,0.707106781186548,0.5,0.707106781186548,        33P     65
1.,0.707106781186548,1.,0.707106781186548,1.,0.707106781186548,       33P     66
0.5,0.707106781186548,0.5,0.707106781186548,1.,                       33P     67
0.707106781186548,1.,0.707106781186548,1.,-2.2655965784226D-15,       33P     68
36.,-37.,-37.,36.,-37.,-37.,36.,0.,-37.,36.,37.,                      33P     69
-2.2655965784226D-15,36.,37.,-2.2655965784226D-15,36.,-37.,-37.,      33P     70
-0.999999999999988,-37.,-37.,-0.999999999999992,0.,-37.,              33P     71
-0.999999999999988,37.,-2.2655965784226D-15,36.,37.,0.,36.,-37.,      33P     72
0.,-0.999999999999996,-37.,0.,-1.,0.,0.,-0.999999999999996,37.,       33P     73
0.,36.,37.,2.2655965784226D-15,36.,-37.,37.,-0.999999999999988,       33P     74
-37.,37.,-0.999999999999992,0.,37.,-0.999999999999988,37.,            33P     75
2.2655965784226D-15,36.,37.,2.2655965784226D-15,36.,-37.,37.,         33P     76
36.,-37.,37.,36.,0.,37.,36.,37.,2.2655965784226D-15,36.,37.,          33P     77
2.2655965784226D-15,36.,-37.,37.,73.,-37.,37.,73.,0.,37.,73.,         33P     78
37.,2.2655965784226D-15,36.,37.,0.,36.,-37.,0.,73.,-37.,0.,73.,       33P     79
0.,0.,73.,37.,0.,36.,37.,-2.2655965784226D-15,36.,-37.,-37.,73.,      33P     80
-37.,-37.,73.,0.,-37.,73.,37.,-2.2655965784226D-15,36.,37.,           33P     81
-2.2655965784226D-15,36.,-37.,-37.,36.,-37.,-37.,36.,0.,-37.,         33P     82
36.,37.,-2.2655965784226D-15,36.,37.,-1.5707963267949,                33P     83
1.5707963267949,-3.14159265358979,3.14159265358979;                   33P     84
128,4,8,2,2,0,1,0,0,1,-1.5707963267949,-1.5707963267949,              35P     85
-1.5707963267949,0.,0.,1.5707963267949,1.5707963267949,               35P     86
1.5707963267949,-3.14159265358979,-3.14159265358979,                  35P     87
-3.14159265358979,-1.5707963267949,-1.5707963267949,0.,0.,            35P     88
1.5707963267949,1.5707963267949,3.14159265358979,                     35P     89
3.14159265358979,3.14159265358979,1.,0.707106781186548,1.,            35P     90
0.707106781186548,1.,0.707106781186548,0.5,0.707106781186548,         35P     91
0.5,0.707106781186548,1.,0.707106781186548,1.,0.707106781186548,      35P     92
1.,0.707106781186548,0.5,0.707106781186548,0.5,                       35P     93
0.707106781186548,1.,0.707106781186548,1.,0.707106781186548,1.,       35P     94
0.707106781186548,0.5,0.707106781186548,0.5,0.707106781186548,        35P     95
1.,0.707106781186548,1.,0.707106781186548,1.,0.707106781186548,       35P     96
0.5,0.707106781186548,0.5,0.707106781186548,1.,                       35P     97
0.707106781186548,1.,0.707106781186548,1.,-2.35744508835865D-15,      35P     98
36.,38.5,-38.5,36.,38.5,-38.5,36.,0.,-38.5,36.,-38.5,                 35P     99
-2.35744508835865D-15,36.,-38.5,-2.35744508835865D-15,36.,38.5,       35P    100
-38.5,-2.49999999999999,38.5,-38.5,-2.49999999999999,0.,-38.5,        35P    101
-2.49999999999999,-38.5,-2.35744508835865D-15,36.,-38.5,0.,36.,       35P    102
38.5,0.,-2.5,38.5,0.,-2.5,0.,0.,-2.5,-38.5,0.,36.,-38.5,              35P    103
2.35744508835865D-15,36.,38.5,38.5,-2.49999999999999,38.5,38.5,       35P    104
-2.49999999999999,0.,38.5,-2.49999999999999,-38.5,                    35P    105
2.35744508835865D-15,36.,-38.5,2.35744508835865D-15,36.,38.5,         35P    106
38.5,36.,38.5,38.5,36.,0.,38.5,36.,-38.5,2.35744508835865D-15,        35P    107
36.,-38.5,2.35744508835865D-15,36.,38.5,38.5,74.5,38.5,38.5,          35P    108
74.5,0.,38.5,74.5,-38.5,2.35744508835865D-15,36.,-38.5,0.,36.,        35P    109
38.5,0.,74.5,38.5,0.,74.5,0.,0.,74.5,-38.5,0.,36.,-38.5,              35P    110
-2.35744508835865D-15,36.,38.5,-38.5,74.5,38.5,-38.5,74.5,0.,         35P    111
-38.5,74.5,-38.5,-2.35744508835865D-15,36.,-38.5,                     35P    112
-2.35744508835865D-15,36.,38.5,-38.5,36.,38.5,-38.5,36.,0.,           35P    113
-38.5,36.,-38.5,-2.35744508835865D-15,36.,-38.5,                      35P    114
-1.5707963267949,1.5707963267949,-3.14159265358979,                   35P    115
3.14159265358979;                                                     35P    116
502,6,3.04415270988322D-15,6.6,24.8573932663906,                      37P    117
-2.75107029485341D-15,6.6,22.4641937313584,-2.2655965784226D-15,      37P    118
36.,-37.,-2.2655965784226D-15,36.,37.,-2.35744508835865D-15,36.,      37P    119
38.5,-2.35744508835865D-15,36.,-38.5;                                 37P    120
504,4,23,37,1,37,1,25,37,2,37,2,27,37,3,37,4,29,37,5,37,6;            39P    121
406,1,5HBody1;                                                        41P    122
314,96.4705882352941,96.4705882352941,95.2941176470588,13HGlass       43P    123
(Clear);                                                              43P    124
314,96.4705882352941,96.4705882352941,95.2941176470588,15HGlass       45P    125
- Frosted;                                                            45P    126
S      1G      2D     46P    126                                        T      1
