                                                                        S      1
,,18Hweihnachtshaken v2,18Hweihnachtshaken v2,7Hunknown,7Hunknown,32,38,G      1
7,99,15,,1.,2,2HMM,1,0.08,15H20220922.115321,0.01,10000.,7Hunknown,7HunkG      2
nown,11,0,15H20211209.190324;                                           G      3
     186       1                                                00000000D      1
     186            -191       1       0                               0D      2
     514       2                                                00010000D      3
     514                       2       1                               0D      4
     510       4                                                00010000D      5
     510            -191       1       1                               0D      6
     510       5                                                00010000D      7
     510            -191       1       1                               0D      8
     510       6                                                00010000D      9
     510            -191       1       1                               0D     10
     510       7                                                00010000D     11
     510            -191       1       1                               0D     12
     510       8                                                00010000D     13
     510            -191       1       1                               0D     14
     510       9                                                00010000D     15
     510            -191       1       1                               0D     16
     510      10                                                00010000D     17
     510            -191       1       1                               0D     18
     510      11                                                00010000D     19
     510            -191       1       1                               0D     20
     510      12                                                00010000D     21
     510            -191       1       1                               0D     22
     510      13                                                00010000D     23
     510            -191       1       1                               0D     24
     510      14                                                00010000D     25
     510            -191       1       1                               0D     26
     510      15                                                00010000D     27
     510            -191       1       1                               0D     28
     510      16                                                00010000D     29
     510            -191       1       1                               0D     30
     510      17                                                00010000D     31
     510            -191       1       1                               0D     32
     510      18                                                00010000D     33
     510            -191       1       1                               0D     34
     510      19                                                00010000D     35
     510            -191       1       1                               0D     36
     508      20                                                00010000D     37
     508                       1       1                               0D     38
     508      21                                                00010000D     39
     508                       1       1                               0D     40
     508      22                                                00010000D     41
     508                       1       1                               0D     42
     508      23                                                00010000D     43
     508                       1       1                               0D     44
     508      24                                                00010000D     45
     508                       1       1                               0D     46
     508      25                                                00010000D     47
     508                       1       1                               0D     48
     508      26                                                00010000D     49
     508                       1       1                               0D     50
     508      27                                                00010000D     51
     508                       1       1                               0D     52
     508      28                                                00010000D     53
     508                       1       1                               0D     54
     508      29                                                00010000D     55
     508                       1       1                               0D     56
     508      30                                                00010000D     57
     508                       1       1                               0D     58
     508      31                                                00010000D     59
     508                       1       1                               0D     60
     508      32                                                00010000D     61
     508                       1       1                               0D     62
     508      33                                                00010000D     63
     508                       1       1                               0D     64
     508      34                                                00010000D     65
     508                       3       1                               0D     66
     508      37                                                00010000D     67
     508                       3       1                               0D     68
     126      40                                                00010000D     69
     126       0               4       0                               0D     70
     126      44                                                00010000D     71
     126       0               2       0                               0D     72
     126      46                                                00010000D     73
     126       0               4       0                               0D     74
     126      50                                                00010000D     75
     126       0               2       0                               0D     76
     126      52                                                00010000D     77
     126       0               2       0                               0D     78
     126      54                                                00010000D     79
     126       0               2       0                               0D     80
     126      56                                                00010000D     81
     126       0               3       0                               0D     82
     126      59                                                00010000D     83
     126       0               4       0                               0D     84
     126      63                                                00010000D     85
     126       0               2       0                               0D     86
     126      65                                                00010000D     87
     126       0               4       0                               0D     88
     126      69                                                00010000D     89
     126       0               2       0                               0D     90
     126      71                                                00010000D     91
     126       0               2       0                               0D     92
     126      73                                                00010000D     93
     126       0               2       0                               0D     94
     126      75                                                00010000D     95
     126       0               2       0                               0D     96
     126      77                                                00010000D     97
     126       0               2       0                               0D     98
     126      79                                                00010000D     99
     126       0               2       0                               0D    100
     126      81                                                00010000D    101
     126       0               2       0                               0D    102
     126      83                                                00010000D    103
     126       0               2       0                               0D    104
     126      85                                                00010000D    105
     126       0               2       0                               0D    106
     126      87                                                00010000D    107
     126       0               2       0                               0D    108
     126      89                                                00010000D    109
     126       0               2       0                               0D    110
     126      91                                                00010000D    111
     126       0               2       0                               0D    112
     126      93                                                00010000D    113
     126       0               2       0                               0D    114
     126      95                                                00010000D    115
     126       0               2       0                               0D    116
     126      97                                                00010000D    117
     126       0               2       0                               0D    118
     126      99                                                00010000D    119
     126       0               2       0                               0D    120
     126     101                                                00010000D    121
     126       0               2       0                               0D    122
     126     103                                                00010000D    123
     126       0               2       0                               0D    124
     126     105                                                00010000D    125
     126       0               2       0                               0D    126
     126     107                                                00010000D    127
     126       0               2       0                               0D    128
     126     109                                                00010000D    129
     126       0               2       0                               0D    130
     126     111                                                00010000D    131
     126       0               2       0                               0D    132
     126     113                                                00010000D    133
     126       0               2       0                               0D    134
     126     115                                                00010000D    135
     126       0               2       0                               0D    136
     126     117                                                00010000D    137
     126       0               2       0                               0D    138
     126     119                                                00010000D    139
     126       0               2       0                               0D    140
     126     121                                                00010000D    141
     126       0               2       0                               0D    142
     126     123                                                00010000D    143
     126       0               2       0                               0D    144
     126     125                                                00010000D    145
     126       0               2       0                               0D    146
     126     127                                                00010000D    147
     126       0               2       0                               0D    148
     126     129                                                00010000D    149
     126       0               2       0                               0D    150
     126     131                                                00010000D    151
     126       0               3       0                               0D    152
     128     134                                                00010000D    153
     128       0    -191       6       0                               0D    154
     128     140                                                00010000D    155
     128       0    -191       4       0                               0D    156
     128     144                                                00010000D    157
     128       0    -191       6       0                               0D    158
     128     150                                                00010000D    159
     128       0    -191       3       0                               0D    160
     128     153                                                00010000D    161
     128       0    -191       3       0                               0D    162
     128     156                                                00010000D    163
     128       0    -191       3       0                               0D    164
     128     159                                                00010000D    165
     128       0    -191       3       0                               0D    166
     128     162                                                00010000D    167
     128       0    -191       3       0                               0D    168
     128     165                                                00010000D    169
     128       0    -191       3       0                               0D    170
     128     168                                                00010000D    171
     128       0    -191       5       0                               0D    172
     128     173                                                00010000D    173
     128       0    -191       4       0                               0D    174
     128     177                                                00010000D    175
     128       0    -191       3       0                               0D    176
     128     180                                                00010000D    177
     128       0    -191       3       0                               0D    178
     128     183                                                00010000D    179
     128       0    -191       4       0                               0D    180
     128     187                                                00010000D    181
     128       0    -191       4       0                               0D    182
     128     191                                                00010000D    183
     128       0    -191       4       0                               0D    184
     502     195                                                00010000D    185
     502                       6       1                               0D    186
     504     201                                                00010001D    187
     504                      12       1                               0D    188
     406     213                                                00000000D    189
     406                       1      15                               0D    190
     314     214                                                00000200D    191
     314                       2       0                               0D    192
186,3,1,0,0,1,189;                                                     1P      1
514,16,5,1,7,1,9,1,11,1,13,1,15,1,17,1,19,1,21,1,23,1,25,1,27,1,       3P      2
29,1,31,1,33,1,35,1;                                                   3P      3
510,153,1,1,37;                                                        5P      4
510,155,1,1,39;                                                        7P      5
510,157,1,1,41;                                                        9P      6
510,159,1,1,43;                                                       11P      7
510,161,1,1,45;                                                       13P      8
510,163,1,1,47;                                                       15P      9
510,165,1,1,49;                                                       17P     10
510,167,1,1,51;                                                       19P     11
510,169,1,1,53;                                                       21P     12
510,171,1,1,55;                                                       23P     13
510,173,1,1,57;                                                       25P     14
510,175,1,1,59;                                                       27P     15
510,177,1,1,61;                                                       29P     16
510,179,1,1,63;                                                       31P     17
510,181,1,1,65;                                                       33P     18
510,183,1,1,67;                                                       35P     19
508,4,0,187,1,1,0,0,187,2,1,0,0,187,3,1,0,0,187,4,1,0;                37P     20
508,4,0,187,2,0,0,0,187,5,0,0,0,187,6,0,0,0,187,7,0,0;                39P     21
508,4,0,187,8,1,0,0,187,9,1,0,0,187,10,1,0,0,187,6,1,0;               41P     22
508,4,0,187,9,0,0,0,187,11,1,0,0,187,12,1,0,0,187,13,0,0;             43P     23
508,4,0,187,4,0,0,0,187,14,0,0,0,187,15,0,0,0,187,16,0,0;             45P     24
508,4,0,187,17,0,0,0,187,15,1,0,0,187,18,0,0,0,187,19,0,0;            47P     25
508,4,0,187,20,0,0,0,187,19,1,0,0,187,21,0,0,0,187,22,0,0;            49P     26
508,4,0,187,23,0,0,0,187,22,1,0,0,187,24,0,0,0,187,25,0,0;            51P     27
508,4,0,187,26,1,0,0,187,25,1,0,0,187,27,0,0,0,187,28,0,0;            53P     28
508,4,0,187,29,1,0,0,187,28,1,0,0,187,30,0,0,0,187,31,0,0;            55P     29
508,4,0,187,32,0,0,0,187,31,1,0,0,187,33,0,0,0,187,34,0,0;            57P     30
508,4,0,187,35,0,0,0,187,34,1,0,0,187,36,0,0,0,187,37,0,0;            59P     31
508,4,0,187,38,0,0,0,187,37,1,0,0,187,39,0,0,0,187,40,0,0;            61P     32
508,4,0,187,41,1,0,0,187,40,1,0,0,187,42,0,0,0,187,12,0,0;            63P     33
508,14,0,187,13,1,0,0,187,42,1,0,0,187,39,1,0,0,187,36,1,0,0,         65P     34
187,33,1,0,0,187,30,1,0,0,187,27,1,0,0,187,24,1,0,0,187,21,1,0,       65P     35
0,187,18,1,0,0,187,14,1,0,0,187,3,0,0,0,187,7,1,0,0,187,10,0,0;       65P     36
508,14,0,187,8,0,0,0,187,5,1,0,0,187,1,0,0,0,187,16,1,0,0,187,        67P     37
17,1,0,0,187,20,1,0,0,187,23,1,0,0,187,26,0,0,0,187,29,0,0,0,         67P     38
187,32,1,0,0,187,35,1,0,0,187,38,1,0,0,187,41,0,0,0,187,11,0,0;       67P     39
126,2,2,0,0,0,0,-0.785398163397447,-0.785398163397447,                69P     40
-0.785398163397447,0.78539816339745,0.78539816339745,                 69P     41
0.78539816339745,1.,0.707106781186547,1.,32.,-19.,0.,32.,-23.,        69P     42
0.,28.,-23.,0.,-0.785398163397447,0.78539816339745,0.,0.,0.;          69P     43
126,1,1,0,0,1,0,0.,0.,1.,1.,1.,1.,28.,-23.,0.,28.,-23.,10.,0.,        71P     44
1.,0.,0.,0.;                                                          71P     45
126,2,2,0,0,0,0,-0.78539816339745,-0.78539816339745,                  73P     46
-0.78539816339745,0.785398163397447,0.785398163397447,                73P     47
0.785398163397447,1.,0.707106781186547,1.,28.,-23.,10.,32.,-23.,      73P     48
10.,32.,-19.,10.,-0.78539816339745,0.785398163397447,0.,0.,0.;        73P     49
126,1,1,0,0,1,0,-1.,-1.,0.,0.,1.,1.,32.,-19.,10.,32.,-19.,0.,         75P     50
-1.,0.,0.,0.,0.;                                                      75P     51
126,1,1,0,0,1,0,0.6,0.6,0.899999999999999,0.899999999999999,1.,       77P     52
1.,25.,-23.,0.,28.,-23.,0.,0.6,0.899999999999999,0.,0.,0.;            77P     53
126,1,1,0,0,1,0,-1.,-1.,0.,0.,1.,1.,25.,-23.,10.,25.,-23.,0.,         79P     54
-1.,0.,0.,0.,0.;                                                      79P     55
126,1,1,0,0,1,0,-0.899999999999999,-0.899999999999999,-0.6,-0.6,      81P     56
1.,1.,28.,-23.,10.,25.,-23.,10.,-0.899999999999999,-0.6,0.,0.,        81P     57
0.;                                                                   81P     58
126,2,2,0,0,0,0,-0.785398163397449,-0.785398163397449,                83P     59
-0.785398163397449,0.785398163397448,0.785398163397448,               83P     60
0.785398163397448,1.,0.707106781186547,1.,25.,-23.,0.,21.,-23.,       83P     61
0.,21.,-19.,0.,-0.785398163397449,0.785398163397448,0.,0.,0.;         83P     62
126,1,1,0,0,1,0,0.,0.,1.,1.,1.,1.,21.,-19.,0.,21.,-19.,10.,0.,        85P     63
1.,0.,0.,0.;                                                          85P     64
126,2,2,0,0,0,0,-0.785398163397448,-0.785398163397448,                87P     65
-0.785398163397448,0.785398163397449,0.785398163397449,               87P     66
0.785398163397449,1.,0.707106781186547,1.,21.,-19.,10.,21.,-23.,      87P     67
10.,25.,-23.,10.,-0.785398163397448,0.785398163397449,0.,0.,0.;       87P     68
126,1,1,0,0,1,0,0.4,0.4,2.5,2.5,1.,1.,21.,-19.,0.,21.,2.,0.,0.4,      89P     69
2.5,0.,0.,0.;                                                         89P     70
126,1,1,0,0,1,0,0.,0.,1.,1.,1.,1.,21.,2.,0.,21.,2.,10.,0.,1.,0.,      91P     71
0.,0.;                                                                91P     72
126,1,1,0,0,1,0,0.4,0.4,2.5,2.5,1.,1.,21.,-19.,10.,21.,2.,10.,        93P     73
0.4,2.5,0.,0.,0.;                                                     93P     74
126,1,1,0,0,1,0,-1.2,-1.2,-0.4,-0.4,1.,1.,32.,-11.,10.,32.,-19.,      95P     75
10.,-1.2,-0.4,0.,0.,0.;                                               95P     76
126,1,1,0,0,1,0,0.,0.,1.,1.,1.,1.,32.,-11.,0.,32.,-11.,10.,0.,        97P     77
1.,0.,0.,0.;                                                          97P     78
126,1,1,0,0,1,0,0.4,0.4,1.2,1.2,1.,1.,32.,-19.,0.,32.,-11.,0.,        99P     79
0.4,1.2,0.,0.,0.;                                                     99P     80
126,1,1,0,0,1,0,0.,0.,0.2,0.2,1.,1.,32.,-11.,0.,34.,-11.,0.,0.,      101P     81
0.2,0.,0.,0.;                                                        101P     82
126,1,1,0,0,1,0,-0.2,-0.2,0.,0.,1.,1.,34.,-11.,10.,32.,-11.,10.,     103P     83
-0.2,0.,0.,0.,0.;                                                    103P     84
126,1,1,0,0,1,0,0.,0.,1.,1.,1.,1.,34.,-11.,0.,34.,-11.,10.,0.,       105P     85
1.,0.,0.,0.;                                                         105P     86
126,1,1,0,0,1,0,-1.2,-1.2,0.2,0.2,1.,1.,34.,-11.,0.,34.,-25.,0.,     107P     87
-1.2,0.2,0.,0.,0.;                                                   107P     88
126,1,1,0,0,1,0,-0.2,-0.2,1.2,1.2,1.,1.,34.,-25.,10.,34.,-11.,       109P     89
10.,-0.2,1.2,0.,0.,0.;                                               109P     90
126,1,1,0,0,1,0,0.,0.,1.,1.,1.,1.,34.,-25.,0.,34.,-25.,10.,0.,       111P     91
1.,0.,0.,0.;                                                         111P     92
126,1,1,0,0,1,0,0.,0.,1.5,1.5,1.,1.,34.,-25.,0.,19.,-25.,0.,0.,      113P     93
1.5,0.,0.,0.;                                                        113P     94
126,1,1,0,0,1,0,-1.5,-1.5,0.,0.,1.,1.,19.,-25.,10.,34.,-25.,10.,     115P     95
-1.5,0.,0.,0.,0.;                                                    115P     96
126,1,1,0,0,1,0,0.,0.,1.,1.,1.,1.,19.,-25.,0.,19.,-25.,10.,0.,       117P     97
1.,0.,0.,0.;                                                         117P     98
126,1,1,0,0,1,0,0.2,0.2,2.7,2.7,1.,1.,19.,0.,0.,19.,-25.,0.,0.2,     119P     99
2.7,0.,0.,0.;                                                        119P    100
126,1,1,0,0,1,0,0.2,0.2,2.7,2.7,1.,1.,19.,0.,10.,19.,-25.,10.,       121P    101
0.2,2.7,0.,0.,0.;                                                    121P    102
126,1,1,0,0,1,0,0.,0.,1.,1.,1.,1.,19.,0.,0.,19.,0.,10.,0.,1.,0.,     123P    103
0.,0.;                                                               123P    104
126,1,1,0,0,1,0,0.2,0.2,1.9,1.9,1.,1.,2.,-5.86950078289443D-33,      125P    105
0.,19.,-5.57602574374971D-32,0.,0.2,1.9,0.,0.,0.;                    125P    106
126,1,1,0,0,1,0,0.2,0.2,1.9,1.9,1.,1.,2.,-5.86950078289443D-33,      127P    107
10.,19.,-5.57602574374971D-32,10.,0.2,1.9,0.,0.,0.;                  127P    108
126,1,1,0,0,1,0,0.,0.,1.,1.,1.,1.,2.,0.,0.,2.,0.,10.,0.,1.,0.,       129P    109
0.,0.;                                                               129P    110
126,1,1,0,0,1,0,0.2,0.2,2.,2.,1.,1.,2.,0.,0.,2.,-18.,0.,0.2,2.,      131P    111
0.,0.,0.;                                                            131P    112
126,1,1,0,0,1,0,-2.,-2.,-0.2,-0.2,1.,1.,2.,-18.,10.,2.,0.,10.,       133P    113
-2.,-0.2,0.,0.,0.;                                                   133P    114
126,1,1,0,0,1,0,0.,0.,1.,1.,1.,1.,2.,-18.,0.,2.,-18.,10.,0.,1.,      135P    115
0.,0.,0.;                                                            135P    116
126,1,1,0,0,1,0,0.,0.,0.2,0.2,1.,1.,2.,-18.,0.,0.,-18.,0.,0.,        137P    117
0.2,0.,0.,0.;                                                        137P    118
126,1,1,0,0,1,0,-0.2,-0.2,0.,0.,1.,1.,0.,-18.,10.,2.,-18.,10.,       139P    119
-0.2,0.,0.,0.,0.;                                                    139P    120
126,1,1,0,0,1,0,0.,0.,1.,1.,1.,1.,0.,-18.,0.,0.,-18.,10.,0.,1.,      141P    121
0.,0.,0.;                                                            141P    122
126,1,1,0,0,1,0,0.,0.,2.,2.,1.,1.,0.,-18.,0.,0.,2.,0.,0.,2.,0.,      143P    123
0.,0.;                                                               143P    124
126,1,1,0,0,1,0,-2.,-2.,0.,0.,1.,1.,0.,2.,10.,0.,-18.,10.,-2.,       145P    125
0.,0.,0.,0.;                                                         145P    126
126,1,1,0,0,1,0,0.,0.,1.,1.,1.,1.,0.,2.,0.,0.,2.,10.,0.,1.,0.,       147P    127
0.,0.;                                                               147P    128
126,1,1,0,0,1,0,2.69630192214213D-32,2.69630192214213D-32,2.1,       149P    129
2.1,1.,1.,21.,2.,0.,0.,2.,0.,2.69630192214213D-32,2.1,0.,0.,0.;      149P    130
126,1,1,0,0,1,0,2.69630192214213D-32,2.69630192214213D-32,2.1,       151P    131
2.1,1.,1.,21.,2.,10.,0.,2.,10.,2.69630192214213D-32,2.1,0.,0.,       151P    132
0.;                                                                  151P    133
128,1,2,1,2,0,0,0,0,0,0.,0.,2.5,2.5,-0.78539816339745,               153P    134
-0.78539816339745,-0.78539816339745,0.785398163397447,               153P    135
0.785398163397447,0.785398163397447,1.,1.,0.707106781186548,         153P    136
0.707106781186548,1.,1.,28.,-23.,0.,28.,-23.,10.,32.,-23.,0.,        153P    137
32.,-23.,10.,32.,-19.,0.,32.,-19.,10.,0.,2.5,-0.78539816339745,      153P    138
0.785398163397447;                                                   153P    139
128,1,1,1,1,0,0,1,0,0,0.399,0.399,0.700999999999999,                 155P    140
0.700999999999999,-0.001,-0.001,1.001,1.001,1.,1.,1.,1.,28.01,       155P    141
-23.,-0.01,24.99,-23.,-0.01,28.01,-23.,10.01,24.99,-23.,10.01,       155P    142
0.399,0.700999999999999,-0.001,1.001;                                155P    143
128,1,2,1,2,0,0,0,0,0,0.,0.,2.5,2.5,-0.785398163397448,              157P    144
-0.785398163397448,-0.785398163397448,0.785398163397449,             157P    145
0.785398163397449,0.785398163397449,1.,1.,0.707106781186548,         157P    146
0.707106781186548,1.,1.,21.,-19.,0.,21.,-19.,10.,21.,-23.,0.,        157P    147
21.,-23.,10.,25.,-23.,0.,25.,-23.,10.,0.,2.5,-0.785398163397448,     157P    148
0.785398163397449;                                                   157P    149
128,1,1,1,1,0,0,1,0,0,0.399,0.399,2.501,2.501,-0.001,-0.001,         159P    150
1.001,1.001,1.,1.,1.,1.,21.,-19.01,-0.01,21.,2.01,-0.01,21.,         159P    151
-19.01,10.01,21.,2.01,10.01,0.399,2.501,-0.001,1.001;                159P    152
128,1,1,1,1,0,0,1,0,0,-0.001,-0.001,0.801,0.801,-0.001,-0.001,       161P    153
1.001,1.001,1.,1.,1.,1.,32.,-10.99,-0.01,32.,-19.01,-0.01,32.,       161P    154
-10.99,10.01,32.,-19.01,10.01,-0.001,0.801,-0.001,1.001;             161P    155
128,1,1,1,1,0,0,1,0,0,-0.001,-0.001,0.201,0.201,-0.001,-0.001,       163P    156
1.001,1.001,1.,1.,1.,1.,34.01,-11.,-0.01,31.99,-11.,-0.01,34.01,     163P    157
-11.,10.01,31.99,-11.,10.01,-0.001,0.201,-0.001,1.001;               163P    158
128,1,1,1,1,0,0,1,0,0,-0.001,-0.001,1.401,1.401,-0.001,-0.001,       165P    159
1.001,1.001,1.,1.,1.,1.,34.,-25.01,-0.01,34.,-10.99,-0.01,34.,       165P    160
-25.01,10.01,34.,-10.99,10.01,-0.001,1.401,-0.001,1.001;             165P    161
128,1,1,1,1,0,0,1,0,0,-0.001,-0.001,1.501,1.501,-0.001,-0.001,       167P    162
1.001,1.001,1.,1.,1.,1.,18.99,-25.,-0.01,34.01,-25.,-0.01,18.99,     167P    163
-25.,10.01,34.01,-25.,10.01,-0.001,1.501,-0.001,1.001;               167P    164
128,1,1,1,1,0,0,1,0,0,-0.001,-0.001,2.501,2.501,-0.001,-0.001,       169P    165
1.001,1.001,1.,1.,1.,1.,19.,0.01,-0.01,19.,-25.01,-0.01,19.,         169P    166
0.01,10.01,19.,-25.01,10.01,-0.001,2.501,-0.001,1.001;               169P    167
128,1,1,1,1,0,0,1,0,0,-0.00100000000000006,-0.00100000000000006,     171P    168
1.701,1.701,-0.001,-0.001,1.001,1.001,1.,1.,1.,1.,1.99,              171P    169
-5.84015327897996D-33,-0.01,19.01,-5.57896049414116D-32,-0.01,       171P    170
1.99,-5.84015327897996D-33,10.01,19.01,-5.57896049414116D-32,        171P    171
10.01,-0.00100000000000006,1.701,-0.001,1.001;                       171P    172
128,1,1,1,1,0,0,1,0,0,-0.001,-0.001,1.801,1.801,-0.001,-0.001,       173P    173
1.001,1.001,1.,1.,1.,1.,2.,-18.01,-0.01,2.,0.0099999999999989,       173P    174
-0.01,2.,-18.01,10.01,2.,0.0099999999999989,10.01,-0.001,1.801,      173P    175
-0.001,1.001;                                                        173P    176
128,1,1,1,1,0,0,1,0,0,-0.001,-0.001,0.201,0.201,-0.001,-0.001,       175P    177
1.001,1.001,1.,1.,1.,1.,-0.01,-18.,-0.01,2.01,-18.,-0.01,-0.01,      175P    178
-18.,10.01,2.01,-18.,10.01,-0.001,0.201,-0.001,1.001;                175P    179
128,1,1,1,1,0,0,1,0,0,-0.001,-0.001,2.001,2.001,-0.001,-0.001,       177P    180
1.001,1.001,1.,1.,1.,1.,0.,2.01,-0.01,0.,-18.01,-0.01,0.,2.01,       177P    181
10.01,0.,-18.01,10.01,-0.001,2.001,-0.001,1.001;                     177P    182
128,1,1,1,1,0,0,1,0,0,-0.001,-0.001,2.101,2.101,-0.001,-0.001,       179P    183
1.001,1.001,1.,1.,1.,1.,21.01,2.,-0.01,-0.0099999999999989,2.,       179P    184
-0.01,21.01,2.,10.01,-0.0099999999999989,2.,10.01,-0.001,2.101,      179P    185
-0.001,1.001;                                                        179P    186
128,1,1,1,1,0,0,1,0,0,-1.701,-1.701,1.701,1.701,-1.351,-1.351,       181P    187
1.351,1.351,1.,1.,1.,1.,-0.0099999999999989,-25.01,10.,34.01,        181P    188
-25.01,10.,-0.0099999999999989,2.01,10.,34.01,2.01,10.,-1.701,       181P    189
1.701,-1.351,1.351;                                                  181P    190
128,1,1,1,1,0,0,1,0,0,-1.701,-1.701,1.701,1.701,-1.351,-1.351,       183P    191
1.351,1.351,1.,1.,1.,1.,34.01,-25.01,0.,-0.0099999999999989,         183P    192
-25.01,0.,34.01,2.01,0.,-0.0099999999999989,2.01,0.,-1.701,          183P    193
1.701,-1.351,1.351;                                                  183P    194
502,28,32.,-19.,0.,28.,-23.,0.,28.,-23.,10.,32.,-19.,10.,25.,        185P    195
-23.,0.,25.,-23.,10.,21.,-19.,0.,21.,-19.,10.,21.,2.,0.,21.,2.,      185P    196
10.,32.,-11.,10.,32.,-11.,0.,34.,-11.,0.,34.,-11.,10.,34.,-25.,      185P    197
0.,34.,-25.,10.,19.,-25.,0.,19.,-25.,10.,19.,0.,0.,19.,0.,10.,       185P    198
2.,0.,0.,2.,0.,10.,2.,-18.,0.,2.,-18.,10.,0.,-18.,0.,0.,-18.,        185P    199
10.,0.,2.,0.,0.,2.,10.;                                              185P    200
504,42,69,185,1,185,2,71,185,2,185,3,73,185,3,185,4,75,185,4,        187P    201
185,1,77,185,5,185,2,79,185,6,185,5,81,185,3,185,6,83,185,5,185,     187P    202
7,85,185,7,185,8,87,185,8,185,6,89,185,7,185,9,91,185,9,185,10,      187P    203
93,185,8,185,10,95,185,11,185,4,97,185,12,185,11,99,185,1,185,       187P    204
12,101,185,12,185,13,103,185,14,185,11,105,185,13,185,14,107,        187P    205
185,13,185,15,109,185,16,185,14,111,185,15,185,16,113,185,15,        187P    206
185,17,115,185,18,185,16,117,185,17,185,18,119,185,19,185,17,        187P    207
121,185,20,185,18,123,185,19,185,20,125,185,21,185,19,127,185,       187P    208
22,185,20,129,185,21,185,22,131,185,21,185,23,133,185,24,185,22,     187P    209
135,185,23,185,24,137,185,23,185,25,139,185,26,185,24,141,185,       187P    210
25,185,26,143,185,25,185,27,145,185,28,185,26,147,185,27,185,28,     187P    211
149,185,9,185,27,151,185,10,185,28;                                  187P    212
406,1,5HBody1;                                                       189P    213
314,62.7450980392157,62.7450980392157,62.7450980392157,13HSteel      191P    214
- Satin;                                                             191P    215
S      1G      3D    192P    215                                        T      1
