                                                                        S      1
,,30HAnschluss Abwasser Terrasse v2,30HAnschluss Abwasser Terrasse v2,7HG      1
unknown,7Hunknown,32,38,7,99,15,,1.,2,2HMM,1,0.08,15H20220922.114821,   G      2
0.01,10000.,7Hunknown,7Hunknown,11,0,15H20220725.203651;                G      3
     186       1                                                00000000D      1
     186            -115       1       0                               0D      2
     514       2                                                00010000D      3
     514                       1       1                               0D      4
     510       3                                                00010000D      5
     510            -115       1       1                               0D      6
     510       4                                                00010000D      7
     510            -115       1       1                               0D      8
     510       5                                                00010000D      9
     510            -115       1       1                               0D     10
     510       6                                                00010000D     11
     510            -115       1       1                               0D     12
     510       7                                                00010000D     13
     510            -115       1       1                               0D     14
     510       8                                                00010000D     15
     510            -115       1       1                               0D     16
     510       9                                                00010000D     17
     510            -115       1       1                               0D     18
     510      10                                                00010000D     19
     510            -115       1       1                               0D     20
     510      11                                                00010000D     21
     510            -115       1       1                               0D     22
     510      12                                                00010000D     23
     510            -115       1       1                               0D     24
     508      13                                                00010000D     25
     508                       1       1                               0D     26
     508      14                                                00010000D     27
     508                       1       1                               0D     28
     508      15                                                00010000D     29
     508                       1       1                               0D     30
     508      16                                                00010000D     31
     508                       1       1                               0D     32
     508      17                                                00010000D     33
     508                       2       1                               0D     34
     508      19                                                00010000D     35
     508                       2       1                               0D     36
     508      21                                                00010000D     37
     508                       1       1                               0D     38
     508      22                                                00010000D     39
     508                       1       1                               0D     40
     508      23                                                00010000D     41
     508                       1       1                               0D     42
     508      24                                                00010000D     43
     508                       1       1                               0D     44
     508      25                                                00010000D     45
     508                       1       1                               0D     46
     508      26                                                00010000D     47
     508                       1       1                               0D     48
     508      27                                                00010000D     49
     508                       1       1                               0D     50
     508      28                                                00010000D     51
     508                       1       1                               0D     52
     126      29                                                00010000D     53
     126       0              10       0                               0D     54
     126      39                                                00010000D     55
     126       0               3       0                               0D     56
     126      42                                                00010000D     57
     126       0               9       0                               0D     58
     126      51                                                00010000D     59
     126       0               5       0                               0D     60
     126      56                                                00010000D     61
     126       0               5       0                               0D     62
     126      61                                                00010000D     63
     126       0              10       0                               0D     64
     126      71                                                00010000D     65
     126       0               3       0                               0D     66
     126      74                                                00010000D     67
     126       0               5       0                               0D     68
     126      79                                                00010000D     69
     126       0               5       0                               0D     70
     126      84                                                00010000D     71
     126       0               5       0                               0D     72
     126      89                                                00010000D     73
     126       0               9       0                               0D     74
     126      98                                                00010000D     75
     126       0               3       0                               0D     76
     126     101                                                00010000D     77
     126       0               9       0                               0D     78
     126     110                                                00010000D     79
     126       0              10       0                               0D     80
     126     120                                                00010000D     81
     126       0               2       0                               0D     82
     126     122                                                00010000D     83
     126       0               9       0                               0D     84
     126     131                                                00010000D     85
     126       0               2       0                               0D     86
     126     133                                                00010000D     87
     126       0               9       0                               0D     88
     128     142                                                00010000D     89
     128       0    -115      17       0                               0D     90
     128     159                                                00010000D     91
     128       0    -115       3       0                               0D     92
     128     162                                                00010000D     93
     128       0    -115      13       0                               0D     94
     128     175                                                00010000D     95
     128       0    -115      19       0                               0D     96
     128     194                                                00010000D     97
     128       0    -115      13       0                               0D     98
     128     207                                                00010000D     99
     128       0    -115       3       0                               0D    100
     128     210                                                00010000D    101
     128       0    -115       3       0                               0D    102
     128     213                                                00010000D    103
     128       0    -115      12       0                               0D    104
     128     225                                                00010000D    105
     128       0    -115      12       0                               0D    106
     128     237                                                00010000D    107
     128       0    -115       3       0                               0D    108
     502     240                                                00010000D    109
     502                       5       1                               0D    110
     504     245                                                00010001D    111
     504                       5       1                               0D    112
     406     250                                                00000000D    113
     406                       1      15                               0D    114
     314     251                                                00000200D    115
     314                       2       0                               0D    116
186,3,1,0,0,1,113;                                                     1P      1
514,10,5,1,7,1,9,1,11,1,13,1,15,1,17,1,19,1,21,1,23,1;                 3P      2
510,89,1,1,25;                                                         5P      3
510,91,2,1,27,29;                                                      7P      4
510,93,1,1,31;                                                         9P      5
510,95,1,1,33;                                                        11P      6
510,97,1,1,35;                                                        13P      7
510,99,2,1,37,39;                                                     15P      8
510,101,2,1,41,43;                                                    17P      9
510,103,1,1,45;                                                       19P     10
510,105,1,1,47;                                                       21P     11
510,107,2,1,49,51;                                                    23P     12
508,4,0,111,1,1,0,0,111,2,1,0,0,111,3,1,0,0,111,2,0,0;                25P     13
508,1,0,111,3,0,0;                                                    27P     14
508,2,0,111,4,0,0,0,111,5,0,0;                                        29P     15
508,4,0,111,6,0,0,0,111,7,1,0,0,111,1,0,0,0,111,7,0,0;                31P     16
508,6,0,111,8,1,0,0,111,9,1,0,0,111,5,1,0,0,111,4,1,0,0,111,9,0,      33P     17
0,0,111,10,1,0;                                                       33P     18
508,5,0,111,11,0,0,0,111,12,1,0,0,111,10,0,0,0,111,8,0,0,0,111,       35P     19
12,0,0;                                                               35P     20
508,1,0,111,11,1,0;                                                   37P     21
508,1,0,111,13,1,0;                                                   39P     22
508,1,0,111,14,1,0;                                                   41P     23
508,1,0,111,6,1,0;                                                    43P     24
508,4,0,111,13,0,0,0,111,15,1,0,0,111,16,1,0,0,111,15,0,0;            45P     25
508,4,0,111,14,0,0,0,111,17,1,0,0,111,18,1,0,0,111,17,0,0;            47P     26
508,1,0,111,18,0,0;                                                   49P     27
508,1,0,111,16,0,0;                                                   51P     28
126,8,2,0,1,0,0,-3.14159265358979,-3.14159265358979,                  53P     29
-3.14159265358979,-1.5707963267949,-1.5707963267949,0.,0.,            53P     30
1.5707963267949,1.5707963267949,3.14159265358979,                     53P     31
3.14159265358979,3.14159265358979,1.,0.707106781186548,1.,            53P     32
0.707106781186548,1.,0.707106781186548,1.,0.707106781186548,1.,       53P     33
-70.,-8.57252759403147D-15,15.,-70.,-70.,15.,                         53P     34
4.28626379701574D-15,-70.,15.,70.,-70.,15.,70.,0.,15.,70.,70.,        53P     35
15.,4.28626379701574D-15,70.,15.,-70.,70.,15.,-70.,                   53P     36
8.57252759403147D-15,15.,-3.14159265358979,3.14159265358979,0.,       53P     37
0.,0.;                                                                53P     38
126,2,2,0,0,0,0,0.,0.,0.,1.5707963267949,1.5707963267949,             55P     39
1.5707963267949,1.,0.707106781186549,1.,-70.,0.,15.,-70.,0.,5.,       55P     40
-60.,0.,5.,0.,1.5707963267949,0.,0.,0.;                               55P     41
126,8,2,0,1,0,0,-3.14159265358979,-3.14159265358979,                  57P     42
-3.14159265358979,-1.5707963267949,-1.5707963267949,0.,0.,            57P     43
1.5707963267949,1.5707963267949,3.14159265358979,                     57P     44
3.14159265358979,3.14159265358979,1.,0.707106781186547,1.,            57P     45
0.707106781186547,1.,0.707106781186547,1.,0.707106781186547,1.,       57P     46
-60.,7.34788079488412D-15,5.,-60.,60.,5.,3.67394039744206D-15,        57P     47
60.,5.,60.,60.,5.,60.,0.,5.,60.,-60.,5.,3.67394039744206D-15,         57P     48
-60.,5.,-60.,-60.,5.,-60.,-7.34788079488412D-15,5.,                   57P     49
-3.14159265358979,3.14159265358979,0.,0.,0.;                          57P     50
126,4,2,0,0,0,0,-3.14159265358979,-3.14159265358979,                  59P     51
-3.14159265358979,-1.5707963267949,-1.5707963267949,0.,0.,0.,1.,      59P     52
0.707106781186548,1.,0.707106781186548,1.,-39.,18.,5.,-39.,-21.,      59P     53
5.,2.38806125833734D-15,-21.,5.,39.,-21.,5.,39.,18.,5.,               59P     54
-3.14159265358979,0.,0.,0.,0.;                                        59P     55
126,4,2,0,0,0,0,0.,0.,0.,1.5707963267949,1.5707963267949,             61P     56
3.14159265358979,3.14159265358979,3.14159265358979,1.,                61P     57
0.707106781186547,1.,0.707106781186548,1.,39.,18.,5.,39.,57.,5.,      61P     58
2.38806125833734D-15,57.,5.,-39.,57.,5.,-39.,18.,5.,0.,               61P     59
3.14159265358979,0.,0.,0.;                                            61P     60
126,8,2,0,1,0,0,-3.14159265358979,-3.14159265358979,                  63P     61
-3.14159265358979,-1.5707963267949,-1.5707963267949,0.,0.,            63P     62
1.5707963267949,1.5707963267949,3.14159265358979,                     63P     63
3.14159265358979,3.14159265358979,1.,0.707106781186548,1.,            63P     64
0.707106781186548,1.,0.707106781186548,1.,0.707106781186548,1.,       63P     65
-70.,8.57252759403147D-15,20.,-70.,70.,20.,4.28626379701574D-15,      63P     66
70.,20.,70.,70.,20.,70.,0.,20.,70.,-70.,20.,                          63P     67
4.28626379701574D-15,-70.,20.,-70.,-70.,20.,-70.,                     63P     68
-8.57252759403147D-15,20.,-3.14159265358979,3.14159265358979,0.,      63P     69
0.,0.;                                                                63P     70
126,1,1,0,0,1,0,-0.285714285714286,-0.285714285714286,                65P     71
-0.214285714285714,-0.214285714285714,1.,1.,-70.,0.,20.,-70.,0.,      65P     72
15.,-0.285714285714286,-0.214285714285714,0.,0.,0.;                   65P     73
126,4,2,0,0,0,0,-3.14159265358979,-3.14159265358979,                  67P     74
-3.14159265358979,-1.5707963267949,-1.5707963267949,0.,0.,0.,1.,      67P     75
0.707106781186548,1.,0.707106781186548,1.,-29.,18.,15.,-29.,47.,      67P     76
15.,1.77573785876366D-15,47.,15.,29.,47.,15.,29.,18.,15.,             67P     77
-3.14159265358979,0.,0.,0.,0.;                                        67P     78
126,2,2,0,0,0,0,-3.14159265358979,-3.14159265358979,                  69P     79
-3.14159265358979,-1.5707963267949,-1.5707963267949,                  69P     80
-1.5707963267949,1.,0.707106781186547,1.,29.,18.,15.,29.,18.,         69P     81
4.99999999999998,39.,18.,5.,-3.14159265358979,-1.5707963267949,       69P     82
0.,0.,0.;                                                             69P     83
126,4,2,0,0,0,0,0.,0.,0.,1.5707963267949,1.5707963267949,             71P     84
3.14159265358979,3.14159265358979,3.14159265358979,1.,                71P     85
0.707106781186548,1.,0.707106781186548,1.,29.,18.,15.,29.,-11.,       71P     86
15.,1.77573785876366D-15,-11.,15.,-29.,-11.,15.,-29.,18.,15.,0.,      71P     87
3.14159265358979,0.,0.,0.;                                            71P     88
126,8,2,0,1,0,0,-3.14159265358979,-3.14159265358979,                  73P     89
-3.14159265358979,-1.5707963267949,-1.5707963267949,0.,0.,            73P     90
1.5707963267949,1.5707963267949,3.14159265358979,                     73P     91
3.14159265358979,3.14159265358979,1.,0.707106781186548,1.,            73P     92
0.707106781186548,1.,0.707106781186548,1.,0.707106781186548,1.,       73P     93
-29.,18.,20.,-29.,-11.,20.,1.77573785876366D-15,-11.,20.,29.,         73P     94
-11.,20.,29.,18.,20.,29.,47.,20.,1.77573785876366D-15,47.,20.,        73P     95
-29.,47.,20.,-29.,18.,20.,-3.14159265358979,3.14159265358979,0.,      73P     96
0.,0.;                                                                73P     97
126,1,1,0,0,1,0,-0.689655172413793,-0.689655172413793,                75P     98
-0.517241379310345,-0.517241379310345,1.,1.,-29.,18.,20.,-29.,        75P     99
18.,15.,-0.689655172413793,-0.517241379310345,0.,0.,0.;               75P    100
126,8,2,0,1,0,0,-3.14159265358979,-3.14159265358979,                  77P    101
-3.14159265358979,-1.5707963267949,-1.5707963267949,0.,0.,            77P    102
1.5707963267949,1.5707963267949,3.14159265358979,                     77P    103
3.14159265358979,3.14159265358979,1.,0.707106781186547,1.,            77P    104
0.707106781186547,1.,0.707106781186547,1.,0.707106781186547,1.,       77P    105
-25.5,18.,20.,-25.5,43.5,20.,1.56142466891288D-15,43.5,20.,25.5,      77P    106
43.5,20.,25.5,18.,20.,25.5,-7.5,20.,1.56142466891288D-15,-7.5,        77P    107
20.,-25.5,-7.5,20.,-25.5,18.,20.,-3.14159265358979,                   77P    108
3.14159265358979,0.,0.,0.;                                            77P    109
126,8,2,0,1,0,0,-3.14159265358979,-3.14159265358979,                  79P    110
-3.14159265358979,-1.5707963267949,-1.5707963267949,0.,0.,            79P    111
1.5707963267949,1.5707963267949,3.14159265358979,                     79P    112
3.14159265358979,3.14159265358979,1.,0.707106781186548,1.,            79P    113
0.707106781186548,1.,0.707106781186548,1.,0.707106781186548,1.,       79P    114
-74.,-9.06238631369041D-15,20.,-74.,-74.,20.,                         79P    115
4.53119315684521D-15,-74.,20.,74.,-74.,20.,74.,0.,20.,74.,74.,        79P    116
20.,4.53119315684521D-15,74.,20.,-74.,74.,20.,-74.,                   79P    117
9.06238631369041D-15,20.,-3.14159265358979,3.14159265358979,0.,       79P    118
0.,0.;                                                                79P    119
126,1,1,0,0,1,0,-0.784313725490196,-0.784313725490196,0.,0.,1.,       81P    120
1.,-25.5,18.,20.,-25.5,18.,0.,-0.784313725490196,0.,0.,0.,0.;         81P    121
126,8,2,0,1,0,0,-3.14159265358979,-3.14159265358979,                  83P    122
-3.14159265358979,-1.5707963267949,-1.5707963267949,0.,0.,            83P    123
1.5707963267949,1.5707963267949,3.14159265358979,                     83P    124
3.14159265358979,3.14159265358979,1.,0.707106781186547,1.,            83P    125
0.707106781186547,1.,0.707106781186547,1.,0.707106781186547,1.,       83P    126
-25.5,18.,0.,-25.5,43.5,0.,1.56142466891288D-15,43.5,0.,25.5,         83P    127
43.5,0.,25.5,18.,0.,25.5,-7.5,0.,1.56142466891288D-15,-7.5,0.,        83P    128
-25.5,-7.5,0.,-25.5,18.,0.,-3.14159265358979,3.14159265358979,        83P    129
0.,0.,0.;                                                             83P    130
126,1,1,0,0,1,0,-0.27027027027027,-0.27027027027027,0.,0.,1.,1.,      85P    131
-74.,0.,20.,-74.,0.,0.,-0.27027027027027,0.,0.,0.,0.;                 85P    132
126,8,2,0,1,0,0,-3.14159265358979,-3.14159265358979,                  87P    133
-3.14159265358979,-1.5707963267949,-1.5707963267949,0.,0.,            87P    134
1.5707963267949,1.5707963267949,3.14159265358979,                     87P    135
3.14159265358979,3.14159265358979,1.,0.707106781186548,1.,            87P    136
0.707106781186548,1.,0.707106781186548,1.,0.707106781186548,1.,       87P    137
-74.,-9.06238631369041D-15,0.,-74.,-74.,0.,4.53119315684521D-15,      87P    138
-74.,0.,74.,-74.,0.,74.,0.,0.,74.,74.,0.,4.53119315684521D-15,        87P    139
74.,0.,-74.,74.,0.,-74.,9.06238631369041D-15,0.,                      87P    140
-3.14159265358979,3.14159265358979,0.,0.,0.;                          87P    141
128,2,8,2,2,0,1,0,0,1,-1.5707963267949,-1.5707963267949,              89P    142
-1.5707963267949,0.,0.,0.,-3.14159265358979,-3.14159265358979,        89P    143
-3.14159265358979,-1.5707963267949,-1.5707963267949,0.,0.,            89P    144
1.5707963267949,1.5707963267949,3.14159265358979,                     89P    145
3.14159265358979,3.14159265358979,1.,0.707106781186549,1.,            89P    146
0.707106781186548,0.500000000000001,0.707106781186548,1.,             89P    147
0.707106781186549,1.,0.707106781186548,0.500000000000001,             89P    148
0.707106781186548,1.,0.707106781186549,1.,0.707106781186548,          89P    149
0.500000000000001,0.707106781186548,1.,0.707106781186549,1.,          89P    150
0.707106781186548,0.500000000000001,0.707106781186548,1.,             89P    151
0.707106781186549,1.,-60.,0.,5.,-70.,0.,5.,-70.,0.,15.,-60.,          89P    152
-60.,5.,-70.,-70.,5.,-70.,-70.,15.,0.,-60.,5.,0.,-70.,5.,0.,          89P    153
-70.,15.,60.,-60.,5.,70.,-70.,5.,70.,-70.,15.,60.,0.,5.,70.,0.,       89P    154
5.,70.,0.,15.,60.,60.,5.,70.,70.,5.,70.,70.,15.,0.,60.,5.,0.,         89P    155
70.,5.,0.,70.,15.,-60.,60.,5.,-70.,70.,5.,-70.,70.,15.,-60.,0.,       89P    156
5.,-70.,0.,5.,-70.,0.,15.,-1.5707963267949,0.,-3.14159265358979,      89P    157
3.14159265358979;                                                     89P    158
128,1,1,1,1,0,0,1,0,0,-6.001,-6.001,6.001,6.001,-6.001,-6.001,        91P    159
6.001,6.001,1.,1.,1.,1.,-60.01,-60.01,5.,60.01,-60.01,5.,-60.01,      91P    160
60.01,5.,60.01,60.01,5.,-6.001,6.001,-6.001,6.001;                    91P    161
128,1,8,1,2,0,1,0,0,1,0.214285714285714,0.214285714285714,            93P    162
0.285714285714286,0.285714285714286,-3.14159265358979,                93P    163
-3.14159265358979,-3.14159265358979,-1.5707963267949,                 93P    164
-1.5707963267949,0.,0.,1.5707963267949,1.5707963267949,               93P    165
3.14159265358979,3.14159265358979,3.14159265358979,1.,1.,             93P    166
0.707106781186548,0.707106781186548,1.,1.,0.707106781186548,          93P    167
0.707106781186548,1.,1.,0.707106781186548,0.707106781186548,1.,       93P    168
1.,0.707106781186548,0.707106781186548,1.,1.,-70.,0.,15.,-70.,        93P    169
0.,20.,-70.,-70.,15.,-70.,-70.,20.,0.,-70.,15.,0.,-70.,20.,70.,       93P    170
-70.,15.,70.,-70.,20.,70.,0.,15.,70.,0.,20.,70.,70.,15.,70.,70.,      93P    171
20.,0.,70.,15.,0.,70.,20.,-70.,70.,15.,-70.,70.,20.,-70.,0.,15.,      93P    172
-70.,0.,20.,0.214285714285714,0.285714285714286,                      93P    173
-3.14159265358979,3.14159265358979;                                   93P    174
128,2,8,2,2,0,1,0,0,1,1.5707963267949,1.5707963267949,                95P    175
1.5707963267949,3.14159265358979,3.14159265358979,                    95P    176
3.14159265358979,-3.14159265358979,-3.14159265358979,                 95P    177
-3.14159265358979,-1.5707963267949,-1.5707963267949,0.,0.,            95P    178
1.5707963267949,1.5707963267949,3.14159265358979,                     95P    179
3.14159265358979,3.14159265358979,1.,0.707106781186547,1.,            95P    180
0.707106781186548,0.5,0.707106781186548,1.,0.707106781186547,1.,      95P    181
0.707106781186548,0.5,0.707106781186548,1.,0.707106781186547,1.,      95P    182
0.707106781186548,0.5,0.707106781186548,1.,0.707106781186547,1.,      95P    183
0.707106781186548,0.5,0.707106781186548,1.,0.707106781186547,1.,      95P    184
39.,18.,5.,29.,18.,4.99999999999998,29.,18.,15.,39.,-21.,5.,29.,      95P    185
-11.,4.99999999999998,29.,-11.,15.,0.,-21.,5.,0.,-11.,                95P    186
4.99999999999998,0.,-11.,15.,-39.,-21.,5.,-29.,-11.,                  95P    187
4.99999999999998,-29.,-11.,15.,-39.,18.,5.,-29.,18.,                  95P    188
4.99999999999998,-29.,18.,15.,-39.,57.,5.,-29.,47.,                   95P    189
4.99999999999998,-29.,47.,15.,0.,57.,5.,0.,47.,4.99999999999998,      95P    190
0.,47.,15.,39.,57.,5.,29.,47.,4.99999999999998,29.,47.,15.,39.,       95P    191
18.,5.,29.,18.,4.99999999999998,29.,18.,15.,1.5707963267949,          95P    192
3.14159265358979,-3.14159265358979,3.14159265358979;                  95P    193
128,1,8,1,2,0,1,0,0,1,0.517241379310345,0.517241379310345,            97P    194
0.689655172413793,0.689655172413793,-3.14159265358979,                97P    195
-3.14159265358979,-3.14159265358979,-1.5707963267949,                 97P    196
-1.5707963267949,0.,0.,1.5707963267949,1.5707963267949,               97P    197
3.14159265358979,3.14159265358979,3.14159265358979,1.,1.,             97P    198
0.707106781186548,0.707106781186548,1.,1.,0.707106781186548,          97P    199
0.707106781186548,1.,1.,0.707106781186548,0.707106781186548,1.,       97P    200
1.,0.707106781186548,0.707106781186548,1.,1.,-29.,18.,20.,-29.,       97P    201
18.,15.,-29.,-11.,20.,-29.,-11.,15.,0.,-11.,20.,0.,-11.,15.,29.,      97P    202
-11.,20.,29.,-11.,15.,29.,18.,20.,29.,18.,15.,29.,47.,20.,29.,        97P    203
47.,15.,0.,47.,20.,0.,47.,15.,-29.,47.,20.,-29.,47.,15.,-29.,         97P    204
18.,20.,-29.,18.,15.,0.517241379310345,0.689655172413793,             97P    205
-3.14159265358979,3.14159265358979;                                   97P    206
128,1,1,1,1,0,0,1,0,0,-2.901,-2.901,2.901,2.901,-2.901,-2.901,        99P    207
2.901,2.901,1.,1.,1.,1.,-29.01,-11.01,20.,29.01,-11.01,20.,           99P    208
-29.01,47.01,20.,29.01,47.01,20.,-2.901,2.901,-2.901,2.901;           99P    209
128,1,1,1,1,0,0,1,0,0,-7.401,-7.401,7.401,7.401,-7.401,-7.401,       101P    210
7.401,7.401,1.,1.,1.,1.,-74.01,-74.01,20.,74.01,-74.01,20.,          101P    211
-74.01,74.01,20.,74.01,74.01,20.,-7.401,7.401,-7.401,7.401;          101P    212
128,1,8,1,2,0,1,0,0,1,0.,0.,0.784313725490196,0.784313725490196,     103P    213
-3.14159265358979,-3.14159265358979,-3.14159265358979,               103P    214
-1.5707963267949,-1.5707963267949,0.,0.,1.5707963267949,             103P    215
1.5707963267949,3.14159265358979,3.14159265358979,                   103P    216
3.14159265358979,1.,1.,0.707106781186548,0.707106781186548,1.,       103P    217
1.,0.707106781186548,0.707106781186548,1.,1.,0.707106781186548,      103P    218
0.707106781186548,1.,1.,0.707106781186548,0.707106781186548,1.,      103P    219
1.,-25.5,18.,0.,-25.5,18.,20.,-25.5,-7.5,0.,-25.5,-7.5,20.,0.,       103P    220
-7.5,0.,0.,-7.5,20.,25.5,-7.5,0.,25.5,-7.5,20.,25.5,18.,0.,25.5,     103P    221
18.,20.,25.5,43.5,0.,25.5,43.5,20.,0.,43.5,0.,0.,43.5,20.,-25.5,     103P    222
43.5,0.,-25.5,43.5,20.,-25.5,18.,0.,-25.5,18.,20.,0.,                103P    223
0.784313725490196,-3.14159265358979,3.14159265358979;                103P    224
128,1,8,1,2,0,1,0,0,1,0.,0.,0.27027027027027,0.27027027027027,       105P    225
-3.14159265358979,-3.14159265358979,-3.14159265358979,               105P    226
-1.5707963267949,-1.5707963267949,0.,0.,1.5707963267949,             105P    227
1.5707963267949,3.14159265358979,3.14159265358979,                   105P    228
3.14159265358979,1.,1.,0.707106781186548,0.707106781186548,1.,       105P    229
1.,0.707106781186548,0.707106781186548,1.,1.,0.707106781186548,      105P    230
0.707106781186548,1.,1.,0.707106781186548,0.707106781186548,1.,      105P    231
1.,-74.,0.,20.,-74.,0.,0.,-74.,-74.,20.,-74.,-74.,0.,0.,-74.,        105P    232
20.,0.,-74.,0.,74.,-74.,20.,74.,-74.,0.,74.,0.,20.,74.,0.,0.,        105P    233
74.,74.,20.,74.,74.,0.,0.,74.,20.,0.,74.,0.,-74.,74.,20.,-74.,       105P    234
74.,0.,-74.,0.,20.,-74.,0.,0.,0.,0.27027027027027,                   105P    235
-3.14159265358979,3.14159265358979;                                  105P    236
128,1,1,1,1,0,0,1,0,0,-7.401,-7.401,7.401,7.401,-7.401,-7.401,       107P    237
7.401,7.401,1.,1.,1.,1.,74.01,-74.01,0.,-74.01,-74.01,0.,74.01,      107P    238
74.01,0.,-74.01,74.01,0.,-7.401,7.401,-7.401,7.401;                  107P    239
502,12,-70.,-8.57252759403147D-15,15.,-60.,7.34788079488412D-15,     109P    240
5.,-39.,18.,5.,39.,18.,5.,-70.,-8.57252759403147D-15,20.,-29.,       109P    241
18.,15.,29.,18.,15.,-29.,18.,20.,-25.5,18.,20.,-74.,                 109P    242
-9.06238631369041D-15,20.,-25.5,18.,0.,-74.,                         109P    243
-9.06238631369041D-15,0.;                                            109P    244
504,18,53,109,1,109,1,55,109,1,109,2,57,109,2,109,2,59,109,3,        111P    245
109,4,61,109,4,109,3,63,109,5,109,5,65,109,5,109,1,67,109,6,109,     111P    246
7,69,109,7,109,4,71,109,7,109,6,73,109,8,109,8,75,109,8,109,6,       111P    247
77,109,9,109,9,79,109,10,109,10,81,109,9,109,11,83,109,11,109,       111P    248
11,85,109,10,109,12,87,109,12,109,12;                                111P    249
406,1,5HBody1;                                                       113P    250
314,62.7450980392157,62.7450980392157,62.7450980392157,13HSteel      115P    251
- Satin;                                                             115P    252
S      1G      3D    116P    252                                        T      1
