0
SECTION
2
HEADER
9
$INSUNITS
70
4
9
$ACADVER
1
AC1014
9
$HANDSEED
5
FFFF
0
ENDSEC
0
SECTION
2
TABLES
0
TABLE
2
VPORT
5
8
100
AcDbSymbolTable
0
ENDTAB
0
TABLE
2
LTYPE
5
5
100
AcDbSymbolTable
0
LTYPE
5
14
100
AcDbSymbolTableRecord
100
AcDbLinetypeTableRecord
2
BYBLOCK
70
0
0
LTYPE
5
15
100
AcDbSymbolTableRecord
100
AcDbLinetypeTableRecord
2
BYLAYER
70
0
0
ENDTAB
0
TABLE
2
LAYER
5
2
100
AcDbSymbolTable
70
2
0
LAYER
5
50
100
AcDbSymbolTableRecord
100
AcDbLayerTableRecord
2
0
70
0
6
CONTINUOUS
0
ENDTAB
0
TABLE
2
STYLE
5
3
100
AcDbSymbolTable
70
1
0
STYLE
5
11
100
AcDbSymbolTableRecord
100
AcDbTextStyleTableRecord
2
STANDARD
70
0
0
ENDTAB
0
TABLE
2
VIEW
5
6
100
AcDbSymbolTable
70
0
0
ENDTAB
0
TABLE
2
UCS
5
7
100
AcDbSymbolTable
70
0
0
ENDTAB
0
TABLE
2
APPID
5
9
100
AcDbSymbolTable
70
2
0
APPID
5
12
100
AcDbSymbolTableRecord
100
AcDbRegAppTableRecord
2
ACAD
70
0
0
ENDTAB
0
TABLE
2
DIMSTYLE
5
A
100
AcDbSymbolTable
70
1
0
ENDTAB
0
TABLE
2
BLOCK_RECORD
5
1
100
AcDbSymbolTable
70
1
0
BLOCK_RECORD
5
1F
100
AcDbSymbolTableRecord
100
AcDbBlockTableRecord
2
*MODEL_SPACE
0
BLOCK_RECORD
5
1B
100
AcDbSymbolTableRecord
100
AcDbBlockTableRecord
2
*PAPER_SPACE
0
ENDTAB
0
ENDSEC
0
SECTION
2
BLOCKS
0
BLOCK
5
20
100
AcDbEntity
100
AcDbBlockBegin
2
*MODEL_SPACE
0
ENDBLK
5
21
100
AcDbEntity
100
AcDbBlockEnd
0
BLOCK
5
1C
100
AcDbEntity
100
AcDbBlockBegin
2
*PAPER_SPACE
0
ENDBLK
5
1D
100
AcDbEntity
100
AcDbBlockEnd
0
ENDSEC
0
SECTION
2
ENTITIES
0
LWPOLYLINE
5
100
100
AcDbEntity
8
0
100
AcDbPolyline
90
4
70
1
43
0.0
10
0
20
14.000000000000002
10
128
20
14.000000000000002
10
128
20
0
10
0
20
0
0
LWPOLYLINE
5
101
100
AcDbEntity
8
0
100
AcDbPolyline
90
4
70
1
43
0.0
10
5.0000000000000124
20
12.000000000000002
10
123
20
12.000000000000002
10
123
20
2
10
5
20
2
0
LWPOLYLINE
5
102
100
AcDbEntity
8
0
100
AcDbPolyline
90
4
70
1
43
0.0
10
42.25
20
2
10
85.750000000000014
20
2
10
85.750000000000014
20
12.000000000000007
10
42.250000000000014
20
12.000000000000002
0
LWPOLYLINE
5
103
100
AcDbEntity
8
0
100
AcDbPolyline
90
4
70
1
43
0.0
10
12.812499999999996
20
12.000000000000002
10
14.812499999999995
20
12.000000000000002
10
14.812499999999995
20
2
10
12.8125
20
2
0
LWPOLYLINE
5
104
100
AcDbEntity
8
0
100
AcDbPolyline
90
4
70
1
43
0.0
10
22.624999999999993
20
12.000000000000002
10
24.624999999999993
20
12.000000000000002
10
24.624999999999993
20
2
10
22.624999999999993
20
2
0
LWPOLYLINE
5
105
100
AcDbEntity
8
0
100
AcDbPolyline
90
4
70
1
43
0.0
10
32.437499999999993
20
12.000000000000002
10
34.4375
20
12.000000000000002
10
34.4375
20
2
10
32.437499999999993
20
2
0
LWPOLYLINE
5
106
100
AcDbEntity
8
0
100
AcDbPolyline
90
4
70
1
43
0.0
10
93.562500000000014
20
12.000000000000002
10
95.5625
20
12.000000000000002
10
95.5625
20
2
10
93.562500000000014
20
2
0
LWPOLYLINE
5
107
100
AcDbEntity
8
0
100
AcDbPolyline
90
4
70
1
43
0.0
10
103.375
20
12.000000000000002
10
105.375
20
12.000000000000002
10
105.375
20
2
10
103.375
20
2
0
LWPOLYLINE
5
108
100
AcDbEntity
8
0
100
AcDbPolyline
90
4
70
1
43
0.0
10
113.1875
20
12.000000000000002
10
115.18749999999999
20
12.000000000000002
10
115.18749999999999
20
2
10
113.1875
20
2
0
LWPOLYLINE
5
109
100
AcDbEntity
8
0
100
AcDbPolyline
90
4
70
1
43
0.0
10
37.780347870395076
20
12.134529567020628
10
89.692345665500056
20
12.134529567020621
10
89.692345665500056
20
-1.865470432979377
10
37.780347870395076
20
-1.8654704329793725
0
LINE
5
110
100
AcDbEntity
8
0
100
AcDbLine
10
46.862347705245504
20
11.848529534595704
30
0
11
44.482347352386007
21
11.848529534595704
31
0
0
LINE
5
111
100
AcDbEntity
8
0
100
AcDbLine
10
44.482347352386007
20
11.848529534595706
30
0
11
43.264347894073019
21
5.198529916065433
31
0
0
LINE
5
112
100
AcDbEntity
8
0
100
AcDbLine
10
43.264347894073019
20
5.1985299160654321
30
0
11
43.236347420096884
21
5.1985299160654321
31
0
0
LINE
5
113
100
AcDbEntity
8
0
100
AcDbLine
10
43.236347420096884
20
5.1985299160654321
30
0
11
42.032347602725515
21
11.848529534595706
31
0
0
LINE
5
114
100
AcDbEntity
8
0
100
AcDbLine
10
42.032347602725515
20
11.848529534595706
30
0
11
39.652347845912466
21
11.848529534595706
31
0
0
LINE
5
115
100
AcDbEntity
8
0
100
AcDbLine
10
39.652347845912466
20
11.848529534595706
30
0
11
37.790347870395074
21
1.9365298321420932
31
0
0
LINE
5
116
100
AcDbEntity
8
0
100
AcDbLine
10
37.790347870395074
20
1.9365298321420932
30
0
11
40.072347802997115
21
1.936529832142093
31
0
0
LINE
5
117
100
AcDbEntity
8
0
100
AcDbLine
10
40.072347802997122
20
1.9365298321420927
30
0
11
41.094347817779074
21
8.8385295441324487
31
0
0
LINE
5
118
100
AcDbEntity
8
0
100
AcDbLine
10
41.094347817779074
20
8.8385295441324487
30
0
11
41.150347871661673
21
8.8385295441324487
31
0
0
LINE
5
119
100
AcDbEntity
8
0
100
AcDbLine
10
41.150347871661673
20
8.8385295441324487
30
0
11
42.228347642303
21
1.9365298321420932
31
0
0
LINE
5
120
100
AcDbEntity
8
0
100
AcDbLine
10
42.228347642303
20
1.9365298321420927
30
0
11
44.398347718596945
21
1.9365298321420923
31
0
0
LINE
5
121
100
AcDbEntity
8
0
100
AcDbLine
10
44.398347718596938
20
1.9365298321420927
30
0
11
45.51834760415602
21
8.8385295441324487
31
0
0
LINE
5
122
100
AcDbEntity
8
0
100
AcDbLine
10
45.518347604156027
20
8.8385295441324487
30
0
11
45.560347421050558
21
8.8385295441324487
31
0
0
LINE
5
123
100
AcDbEntity
8
0
100
AcDbLine
10
45.560347421050558
20
8.8385295441324487
30
0
11
46.56834779489089
21
1.9365298321420932
31
0
0
LINE
5
124
100
AcDbEntity
8
0
100
AcDbLine
10
46.568347794890883
20
1.9365298321420921
30
0
11
48.738348467231276
21
1.9365298321420918
31
0
0
LINE
5
125
100
AcDbEntity
8
0
100
AcDbLine
10
48.738348467231276
20
1.9365298321420921
30
0
11
46.862347705245497
21
11.848529534595706
31
0
0
LINE
5
126
100
AcDbEntity
8
0
100
AcDbLine
10
49.732348902106772
20
11.848529534595704
30
0
11
49.732348902106772
21
1.936529832142091
31
0
0
LINE
5
127
100
AcDbEntity
8
0
100
AcDbLine
10
49.732348902106764
20
1.9365298321420914
30
0
11
51.986348612189772
21
1.9365298321420912
31
0
0
LINE
5
128
100
AcDbEntity
8
0
100
AcDbLine
10
51.986348612189772
20
1.9365298321420914
30
0
11
51.986348612189772
21
11.848529534595704
31
0
0
LINE
5
129
100
AcDbEntity
8
0
100
AcDbLine
10
51.986348612189779
20
11.848529534595704
30
0
11
49.732348902106772
21
11.848529534595704
31
0
0
LINE
5
130
100
AcDbEntity
8
0
100
AcDbLine
10
58.034347278953078
20
11.848529534595704
30
0
11
55.738347751975539
21
5.8145296147043464
31
0
0
LINE
5
131
100
AcDbEntity
8
0
100
AcDbLine
10
55.738347751975539
20
5.8145296147043464
30
0
11
55.696347935081008
21
5.8145296147043464
31
0
0
LINE
5
132
100
AcDbEntity
8
0
100
AcDbLine
10
55.696347935081008
20
5.8145296147043464
30
0
11
55.752347690940383
21
11.848529534595704
31
0
0
LINE
5
133
100
AcDbEntity
8
0
100
AcDbLine
10
55.75234769094039
20
11.848529534595704
30
0
11
53.750348074317465
21
11.848529534595704
31
0
0
LINE
5
134
100
AcDbEntity
8
0
100
AcDbLine
10
53.750348074317465
20
11.848529534595704
30
0
11
53.750348074317465
21
1.936529832142091
31
0
0
LINE
5
135
100
AcDbEntity
8
0
100
AcDbLine
10
53.750348074317458
20
1.936529832142091
30
0
11
56.214348060966017
21
1.9365298321420907
31
0
0
LINE
5
136
100
AcDbEntity
8
0
100
AcDbLine
10
56.214348060966017
20
1.936529832142091
30
0
11
58.496347648978713
21
8.0545293858225104
31
0
0
LINE
5
137
100
AcDbEntity
8
0
100
AcDbLine
10
58.496347648978713
20
8.0545293858225104
30
0
11
58.538347465873244
21
8.0545293858225104
31
0
0
LINE
5
138
100
AcDbEntity
8
0
100
AcDbLine
10
58.538347465873244
20
8.0545293858225104
30
0
11
58.496347648978713
21
1.936529832142091
31
0
0
LINE
5
139
100
AcDbEntity
8
0
100
AcDbLine
10
58.496347648978713
20
1.9365298321420905
30
0
11
60.428348762870314
21
1.9365298321420901
31
0
0
LINE
5
140
100
AcDbEntity
8
0
100
AcDbLine
10
60.428348762870314
20
1.9365298321420905
30
0
11
60.428348762870314
21
11.848529534595704
31
0
0
LINE
5
141
100
AcDbEntity
8
0
100
AcDbLine
10
60.428348762870314
20
11.848529534595704
30
0
11
58.034347278953078
21
11.848529534595704
31
0
0
SPLINE
5
142
100
AcDbEntity
8
0
100
AcDbSpline
70
0
71
3
72
9
73
5
74
0
42
0.000000001
43
0.0000000001
44
0.0000000001
40
0
40
0
40
0
40
0
40
0.037631195108550619
40
0.074366062560571322
40
0.074366062560571322
40
0.074366062560571322
40
0.074366062560571322
10
66.294349415183547
20
4.3165295889551389
30
0
10
66.207539200674134
20
4.2246814982352294
30
0
10
66.03598648159408
20
4.043173022598384
30
0
10
65.815342087644893
20
3.9262745210169783
30
0
10
65.706349594474318
20
3.8685297539407957
30
0
0
SPLINE
5
143
100
AcDbEntity
8
0
100
AcDbSpline
70
0
71
3
72
9
73
5
74
0
42
0.000000001
43
0.0000000001
44
0.0000000001
40
0
40
0
40
0
40
0
40
0.03654138162025615
40
0.072487434721327848
40
0.072487434721327848
40
0.072487434721327848
40
0.072487434721327848
10
65.706349594474318
20
3.8685297539407957
30
0
10
65.593687768319967
20
3.8195306709317522
30
0
10
65.370199591167349
20
3.7223307930526395
30
0
10
65.126965901591959
20
3.7077569603215532
30
0
10
65.006347877860549
20
3.7005298903162229
30
0
0
SPLINE
5
144
100
AcDbEntity
8
0
100
AcDbSpline
70
0
71
3
72
9
73
5
74
0
42
0.000000001
43
0.0000000001
44
0.0000000001
40
0
40
0
40
0
40
0
40
0.036537560943576262
40
0.07366077148005569
40
0.07366077148005569
40
0.07366077148005569
40
0.07366077148005569
10
65.006347877860549
20
3.7005298903162229
30
0
10
64.88286394895313
20
3.7107580589353359
30
0
10
64.633916804321444
20
3.7313783404170522
30
0
10
64.425423807979598
20
3.8691144470396086
30
0
10
64.320348484397414
20
3.9385300448114622
30
0
0
SPLINE
5
145
100
AcDbEntity
8
0
100
AcDbSpline
70
0
71
3
72
9
73
5
74
0
42
0.000000001
43
0.0000000001
44
0.0000000001
40
0
40
0
40
0
40
0
40
0.03845066811247215
40
0.085923136065475525
40
0.085923136065475525
40
0.085923136065475525
40
0.085923136065475525
10
64.320348484397414
20
3.9385300448114622
30
0
10
64.234842323642738
20
4.0386914830755751
30
0
10
64.043767425711948
20
4.2625155493650615
30
0
10
64.032546780163358
20
4.5588210443134782
30
0
10
64.026347381949904
20
4.722529607074951
30
0
0
SPLINE
5
146
100
AcDbEntity
8
0
100
AcDbSpline
70
0
71
3
72
9
73
5
74
0
42
0.000000001
43
0.0000000001
44
0.0000000001
40
0
40
0
40
0
40
0
40
0.042011716270284299
40
0.081074041094845492
40
0.081074041094845492
40
0.081074041094845492
40
0.081074041094845492
10
64.026347381949904
20
4.722529607074951
30
0
10
64.037207240554551
20
4.8666061941628787
30
0
10
64.058164552013409
20
5.1446446124751031
30
0
10
64.244547271051971
20
5.3510714097316026
30
0
10
64.334348423362258
20
5.4505300095255125
30
0
0
SPLINE
5
147
100
AcDbEntity
8
0
100
AcDbSpline
70
0
71
3
72
9
73
5
74
0
42
0.000000001
43
0.0000000001
44
0.0000000001
40
0
40
0
40
0
40
0
40
0.046507902582274864
40
0.10698505797494545
40
0.10698505797494545
40
0.10698505797494545
40
0.10698505797494545
10
64.334348423362258
20
5.4505300095255125
30
0
10
64.459709505352322
20
5.5420879400267467
30
0
10
64.748085499104803
20
5.7527044150529427
30
0
10
65.065128982282872
20
5.9174190661712034
30
0
10
65.244349224448683
20
6.0105299523050535
30
0
0
SPLINE
5
148
100
AcDbEntity
8
0
100
AcDbSpline
70
0
71
3
72
9
73
5
74
0
42
0.000000001
43
0.0000000001
44
0.0000000001
40
0
40
0
40
0
40
0
40
0.038994661995894631
40
0.080955319755745173
40
0.080955319755745173
40
0.080955319755745173
40
0.080955319755745173
10
65.244349224448683
20
6.0105299523050535
30
0
10
65.359583793746708
20
6.0708049176246357
30
0
10
65.598817856229928
20
6.1959394576092865
30
0
10
65.826392406924413
20
6.3412254965850012
30
0
10
65.944348556876662
20
6.4165299704248655
30
0
0
SPLINE
5
149
100
AcDbEntity
8
0
100
AcDbSpline
70
0
71
3
72
9
73
5
74
0
42
0.000000001
43
0.0000000001
44
0.0000000001
40
0
40
0
40
0
40
0
40
0.043984608959485832
40
0.0887967985254908
40
0.0887967985254908
40
0.0887967985254908
40
0.0887967985254908
10
65.944348556876662
20
6.4165299704248655
30
0
10
66.067901429158439
20
6.4963761880358737
30
0
10
66.317331849634769
20
6.6575709483384591
30
0
10
66.525362971092733
20
6.8695513129729786
30
0
10
66.630347950339797
20
6.9765293171579588
30
0
0
SPLINE
5
150
100
AcDbEntity
8
0
100
AcDbSpline
70
0
71
3
72
9
73
5
74
0
42
0.000000001
43
0.0000000001
44
0.0000000001
40
0
40
0
40
0
40
0
40
0.046480294557671553
40
0.095943052659108477
40
0.095943052659108477
40
0.095943052659108477
40
0.095943052659108477
10
66.630347950339797
20
6.9765293171579588
30
0
10
66.72929399767095
20
7.0966911018518219
30
0
10
66.933535083486859
20
7.344724995487999
30
0
10
67.066037473123259
20
7.6375602312914825
30
0
10
67.134348137259963
20
7.7885293533975828
30
0
0
SPLINE
5
151
100
AcDbEntity
8
0
100
AcDbSpline
70
0
71
3
72
9
73
5
74
0
42
0.000000001
43
0.0000000001
44
0.0000000001
40
0
40
0
40
0
40
0
40
0.053137859287366661
40
0.11321765677055939
40
0.11321765677055939
40
0.11321765677055939
40
0.11321765677055939
10
67.134348137259963
20
7.7885293533975828
30
0
10
67.195536860976304
20
7.9559872193894732
30
0
10
67.32590801278505
20
8.3127796730122263
30
0
10
67.337956164159621
20
8.6928448613752014
30
0
10
67.34434960591841
20
8.8945292999918202
30
0
0
SPLINE
5
152
100
AcDbEntity
8
0
100
AcDbSpline
70
0
71
3
72
9
73
5
74
0
42
0.000000001
43
0.0000000001
44
0.0000000001
40
0
40
0
40
0
40
0
40
0.075513307485619116
40
0.14431027525323945
40
0.14431027525323945
40
0.14431027525323945
40
0.14431027525323945
10
67.34434960591841
20
8.8945292999918202
30
0
10
67.335946483454279
20
9.1476670025455693
30
0
10
67.319887632952742
20
9.6314277163702258
30
0
10
67.165804363116663
20
10.089941866663663
30
0
10
67.092348320365431
20
10.308529095905516
30
0
0
SPLINE
5
153
100
AcDbEntity
8
0
100
AcDbSpline
70
0
71
3
72
9
73
5
74
0
42
0.000000001
43
0.0000000001
44
0.0000000001
40
0
40
0
40
0
40
0
40
0.062794575191260374
40
0.1226240243340172
40
0.1226240243340172
40
0.1226240243340172
40
0.1226240243340172
10
67.092348320365431
20
10.308529095905516
30
0
10
67.002591040947621
20
10.499301948877113
30
0
10
66.827314772544483
20
10.871839463364745
30
0
10
66.544390446050969
20
11.170708414031843
30
0
10
66.406348926902297
20
11.316529469745849
30
0
0
SPLINE
5
154
100
AcDbEntity
8
0
100
AcDbSpline
70
0
71
3
72
9
73
5
74
0
42
0.000000001
43
0.0000000001
44
0.0000000001
40
0
40
0
40
0
40
0
40
0.05698018571858391
40
0.11491550835381928
40
0.11491550835381928
40
0.11491550835381928
40
0.11491550835381928
10
66.406348926902297
20
11.316529469745849
30
0
10
66.259751671112753
20
11.439295251947467
30
0
10
65.964099806172655
20
11.686884691894694
30
0
10
65.606589389281439
20
11.831580205019609
30
0
10
65.426348430991652
20
11.904529290455077
30
0
0
SPLINE
5
155
100
AcDbEntity
8
0
100
AcDbSpline
70
0
71
3
72
9
73
5
74
0
42
0.000000001
43
0.0000000001
44
0.0000000001
40
0
40
0
40
0
40
0
40
0.059184165255312553
40
0.11856667495432807
40
0.11856667495432807
40
0.11856667495432807
40
0.11856667495432807
10
65.426348430991652
20
11.904529290455077
30
0
10
65.237764499160534
20
11.965779471074892
30
0
10
64.859964632412812
20
12.088485100614747
30
0
10
64.463108656871697
20
12.1058384017199
30
0
10
64.264348728538039
20
12.114529567020631
30
0
0
SPLINE
5
156
100
AcDbEntity
8
0
100
AcDbSpline
70
0
71
3
72
9
73
5
74
0
42
0.000000001
43
0.0000000001
44
0.0000000001
40
0
40
0
40
0
40
0
40
0.086160307914692813
40
0.16817777123218064
40
0.16817777123218064
40
0.16817777123218064
40
0.16817777123218064
10
64.264348728538039
20
12.114529567020631
30
0
10
63.975307650129842
20
12.101961477490335
30
0
10
63.411123450493903
20
12.077429609661536
30
0
10
62.883608744547999
20
11.876513324375768
30
0
10
62.626348717093947
20
11.778529839771485
30
0
0
SPLINE
5
157
100
AcDbEntity
8
0
100
AcDbSpline
70
0
71
3
72
9
73
5
74
0
42
0.000000001
43
0.0000000001
44
0.0000000001
40
0
40
0
40
0
40
0
40
0.075197012906936506
40
0.14188468755880296
40
0.14188468755880296
40
0.14188468755880296
40
0.14188468755880296
10
62.626348717093947
20
11.778529839771485
30
0
10
62.400487640852745
20
11.666877108731246
30
0
10
61.974324060740344
20
11.456206335434212
30
0
10
61.617881691019932
20
11.142143402513396
30
0
10
61.45034907567549
20
10.994529681461549
30
0
0
LINE
5
158
100
AcDbEntity
8
0
100
AcDbLine
10
61.45034907567549
20
10.994529681461549
30
0
11
62.59834883916426
21
9.3145298531229255
31
0
0
SPLINE
5
159
100
AcDbEntity
8
0
100
AcDbSpline
70
0
71
3
72
9
73
5
74
0
42
0.000000001
43
0.0000000001
44
0.0000000001
40
0
40
0
40
0
40
0
40
0.046128231124844966
40
0.092468611924561989
40
0.092468611924561989
40
0.092468611924561989
40
0.092468611924561989
10
62.59834883916426
20
9.3145298531229255
30
0
10
62.709924729922761
20
9.4213596625351705
30
0
10
62.933589663328945
20
9.6355106054096122
30
0
10
63.204554656143308
20
9.7854088031901316
30
0
10
63.340347988486769
20
9.8605298569376227
30
0
0
SPLINE
5
160
100
AcDbEntity
8
0
100
AcDbSpline
70
0
71
3
72
9
73
5
74
0
42
0.000000001
43
0.0000000001
44
0.0000000001
40
0
40
0
40
0
40
0
40
0.044828731541615478
40
0.088156743946718075
40
0.088156743946718075
40
0.088156743946718075
40
0.088156743946718075
10
63.340347988486769
20
9.8605298569376227
30
0
10
63.479657844354222
20
9.9176914591425991
30
0
10
63.753613918296672
20
10.030101080291267
30
0
10
64.049114125287929
20
10.047820241287811
30
0
10
64.19434903371382
20
10.056529002445435
30
0
0
SPLINE
5
161
100
AcDbEntity
8
0
100
AcDbSpline
70
0
71
3
72
9
73
5
74
0
42
0.000000001
43
0.0000000001
44
0.0000000001
40
0
40
0
40
0
40
0
40
0.038035907286630415
40
0.075026623272926751
40
0.075026623272926751
40
0.075026623272926751
40
0.075026623272926751
10
64.19434903371382
20
10.056529002445435
30
0
10
64.323762252817744
20
10.046076407691498
30
0
10
64.579032536317996
20
10.025458445750473
30
0
10
64.780846951649792
20
9.8681089144265339
30
0
10
64.880348427176955
20
9.7905301621134022
30
0
0
SPLINE
5
162
100
AcDbEntity
8
0
100
AcDbSpline
70
0
71
3
72
9
73
5
74
0
42
0.000000001
43
0.0000000001
44
0.0000000001
40
0
40
0
40
0
40
0
40
0.038150163965547955
40
0.081074708593427192
40
0.081074708593427192
40
0.081074708593427192
40
0.081074708593427192
10
64.880348427176955
20
9.7905301621134022
30
0
10
64.961939302884616
20
9.6889035291049517
30
0
10
65.135331912097342
20
9.4729319892727286
30
0
10
65.151689276730025
20
9.1954441718081767
30
0
10
65.160349590659621
20
9.0485298206979969
30
0
0
SPLINE
5
163
100
AcDbEntity
8
0
100
AcDbSpline
70
0
71
3
72
9
73
5
74
0
42
0.000000001
43
0.0000000001
44
0.0000000001
40
0
40
0
40
0
40
0
40
0.044549069931435051
40
0.086269606577156072
40
0.086269606577156072
40
0.086269606577156072
40
0.086269606577156072
10
65.160349590659621
20
9.0485298206979969
30
0
10
65.148278083665744
20
8.8956001238370099
30
0
10
65.124901520232257
20
8.5994506239155477
30
0
10
64.922318919895901
20
8.3831391981942112
30
0
10
64.82434867131758
20
8.2785296013529059
30
0
0
SPLINE
5
164
100
AcDbEntity
8
0
100
AcDbSpline
70
0
71
3
72
9
73
5
74
0
42
0.000000001
43
0.0000000001
44
0.0000000001
40
0
40
0
40
0
40
0
40
0.051104834385414251
40
0.11596728780419041
40
0.11596728780419041
40
0.11596728780419041
40
0.11596728780419041
10
64.82434867131758
20
8.2785296013529059
30
0
10
64.689159631315633
20
8.1743173453040683
30
0
10
64.382388138981938
20
7.937838490900635
30
0
10
64.037339614972126
20
7.7612813047581195
30
0
10
63.844348175406935
20
7.662529902713989
30
0
0
SPLINE
5
165
100
AcDbEntity
8
0
100
AcDbSpline
70
0
71
3
72
9
73
5
74
0
42
0.000000001
43
0.0000000001
44
0.0000000001
40
0
40
0
40
0
40
0
40
0.044616492750841744
40
0.088434909910884721
40
0.088434909910884721
40
0.088434909910884721
40
0.088434909910884721
10
63.844348175406935
20
7.662529902713989
30
0
10
63.711322168619695
20
7.5958106663395366
30
0
10
63.447649652007257
20
7.463565631055217
30
0
10
63.198031762166345
20
7.3064020462857462
30
0
10
63.074349148154738
20
7.2285294106180418
30
0
0
SPLINE
5
166
100
AcDbEntity
8
0
100
AcDbSpline
70
0
71
3
72
9
73
5
74
0
42
0.000000001
43
0.0000000001
44
0.0000000001
40
0
40
0
40
0
40
0
40
0.042363090839122985
40
0.085437169460522377
40
0.085437169460522377
40
0.085437169460522377
40
0.085437169460522377
10
63.074349148154738
20
7.2285294106180418
30
0
10
62.960217115867025
20
7.144653823254715
30
0
10
62.730037551763203
20
6.9754949486491018
30
0
10
62.540105713467355
20
6.7621099152795594
30
0
10
62.444349510550978
20
6.654529528873657
30
0
0
SPLINE
5
167
100
AcDbEntity
8
0
100
AcDbSpline
70
0
71
3
72
9
73
5
74
0
42
0.000000001
43
0.0000000001
44
0.0000000001
40
0
40
0
40
0
40
0
40
0.04349026943445071
40
0.089264025576303752
40
0.089264025576303752
40
0.089264025576303752
40
0.089264025576303752
10
62.444349510550978
20
6.654529528873657
30
0
10
62.359731015403867
20
6.5360422857235259
30
0
10
62.186051072435824
20
6.29284654468632
30
0
10
62.079161122476101
20
6.0136826148065561
30
0
10
62.024348957419875
20
5.8705299666101682
30
0
0
SPLINE
5
168
100
AcDbEntity
8
0
100
AcDbSpline
70
0
71
3
72
9
73
5
74
0
42
0.000000001
43
0.0000000001
44
0.0000000001
40
0
40
0
40
0
40
0
40
0.05034286212352073
40
0.10787182016365923
40
0.10787182016365923
40
0.10787182016365923
40
0.10787182016365923
10
62.024348957419875
20
5.8705299666101682
30
0
10
61.97948588138982
20
5.7081532506576735
30
0
10
61.883355835036312
20
5.3602216638715241
30
0
10
61.874873389217981
20
4.9991124488324123
30
0
10
61.870349628806594
20
4.8065298369104612
30
0
0
SPLINE
5
169
100
AcDbEntity
8
0
100
AcDbSpline
70
0
71
3
72
9
73
5
74
0
42
0.000000001
43
0.0000000001
44
0.0000000001
40
0
40
0
40
0
40
0
40
0.076937950394387944
40
0.14469159124611775
40
0.14469159124611775
40
0.14469159124611775
40
0.14469159124611775
10
61.870349628806594
20
4.8065298369104612
30
0
10
61.878332771700926
20
4.5482621350996979
30
0
10
61.893346086230409
20
4.0625569070435699
30
0
10
62.058849454380351
20
3.6062169248814389
30
0
10
62.136348469138625
20
3.3925300409967649
30
0
0
SPLINE
5
170
100
AcDbEntity
8
0
100
AcDbSpline
70
0
71
3
72
9
73
5
74
0
42
0.000000001
43
0.0000000001
44
0.0000000001
40
0
40
0
40
0
40
0
40
0.063210696391371571
40
0.12192820121008803
40
0.12192820121008803
40
0.12192820121008803
40
0.12192820121008803
10
62.136348469138625
20
3.3925300409967649
30
0
10
62.233247602312844
20
3.2037221393887649
30
0
10
62.420158009589457
20
2.8395273253531923
30
0
10
62.71051785940756
20
2.5513223093674178
30
0
10
62.850347740531447
20
2.4125301411325681
30
0
0
SPLINE
5
171
100
AcDbEntity
8
0
100
AcDbSpline
70
0
71
3
72
9
73
5
74
0
42
0.000000001
43
0.0000000001
44
0.0000000001
40
0
40
0
40
0
40
0
40
0.057288965016647347
40
0.11336768159606142
40
0.11336768159606142
40
0.11336768159606142
40
0.11336768159606142
10
62.850347740531447
20
2.4125301411325681
30
0
10
63.002215026159419
20
2.2950293672504452
30
0
10
63.302741350503524
20
2.0625100624089541
30
0
10
63.655735395210407
20
1.9220231698069146
30
0
10
63.830348236442092
20
1.8525296023065796
30
0
0
SPLINE
5
172
100
AcDbEntity
8
0
100
AcDbSpline
70
0
71
3
72
9
73
5
74
0
42
0.000000001
43
0.0000000001
44
0.0000000001
40
0
40
0
40
0
40
0
40
0.056280370498583233
40
0.11106962208998891
40
0.11106962208998891
40
0.11106962208998891
40
0.11106962208998891
10
63.830348236442092
20
1.8525296023065796
30
0
10
64.011093306395139
20
1.7994493697711516
30
0
10
64.367794700441877
20
1.6946952376300495
30
0
10
64.739158928067852
20
1.6785133259135159
30
0
10
64.922348244071486
20
1.6705309918100586
30
0
0
SPLINE
5
173
100
AcDbEntity
8
0
100
AcDbSpline
70
0
71
3
72
9
73
5
74
0
42
0.000000001
43
0.0000000001
44
0.0000000001
40
0
40
0
40
0
40
0
40
0.077286526213205767
40
0.14872869456688909
40
0.14872869456688909
40
0.14872869456688909
40
0.14872869456688909
10
64.922348244071486
20
1.6705309918100586
30
0
10
65.181429092686486
20
1.6797653027544319
30
0
10
65.67999926124979
20
1.6975356319343526
30
0
10
66.151744935955847
20
1.8589797709745737
30
0
10
66.378349048972609
20
1.9365298321420898
30
0
0
SPLINE
5
174
100
AcDbEntity
8
0
100
AcDbSpline
70
0
71
3
72
9
73
5
74
0
42
0.000000001
43
0.0000000001
44
0.0000000001
40
0
40
0
40
0
40
0
40
0.067014692843668608
40
0.13083095220339958
40
0.13083095220339958
40
0.13083095220339958
40
0.13083095220339958
10
66.378349048972609
20
1.9365298321420898
30
0
10
66.58239792329509
20
2.0313963266940158
30
0
10
66.980756960557514
20
2.2166015897156743
30
0
10
67.300423367651248
20
2.5176737328843024
30
0
10
67.45634911763716
20
2.6645296385462029
30
0
0
LINE
5
175
100
AcDbEntity
8
0
100
AcDbLine
10
67.45634911763716
20
2.6645296385462029
30
0
11
66.294349415183547
21
4.3165295889551389
31
0
0
LINE
5
176
100
AcDbEntity
8
0
100
AcDbLine
10
71.768347008109572
20
3.8405298760111073
30
0
11
71.768347008109572
21
11.848529534595702
31
0
0
LINE
5
177
100
AcDbEntity
8
0
100
AcDbLine
10
71.768347008109572
20
11.848529534595702
30
0
11
69.570347053885939
21
11.848529534595702
31
0
0
LINE
5
178
100
AcDbEntity
8
0
100
AcDbLine
10
69.570347053885939
20
11.848529534595702
30
0
11
69.570347053885939
21
3.8405298760111073
31
0
0
LINE
5
179
100
AcDbEntity
8
0
100
AcDbLine
10
69.570347053885939
20
3.8405298760111073
30
0
11
67.750347835898879
21
3.8405298760111073
31
0
0
LINE
5
180
100
AcDbEntity
8
0
100
AcDbLine
10
67.750347835898879
20
3.8405298760111082
30
0
11
67.750347835898879
21
1.9365298321420898
31
0
0
LINE
5
181
100
AcDbEntity
8
0
100
AcDbLine
10
67.750347835898879
20
1.9365298321420892
30
0
11
73.588346226096633
21
1.9365298321420885
31
0
0
LINE
5
182
100
AcDbEntity
8
0
100
AcDbLine
10
73.588346226096633
20
1.9365298321420887
30
0
11
73.588346226096633
21
3.8405298760111073
31
0
0
LINE
5
183
100
AcDbEntity
8
0
100
AcDbLine
10
73.588346226096633
20
3.8405298760111073
30
0
11
71.768347008109572
21
3.8405298760111073
31
0
0
SPLINE
5
184
100
AcDbEntity
8
0
100
AcDbSpline
70
0
71
3
72
9
73
5
74
0
42
0.000000001
43
0.0000000001
44
0.0000000001
40
0
40
0
40
0
40
0
40
0.11289600899521182
40
0.21771210909047736
40
0.21771210909047736
40
0.21771210909047736
40
0.21771210909047736
10
81.666346771598342
20
6.864529805439207
30
0
10
81.657003938580687
20
7.2418106481341162
30
0
10
81.638986934266242
20
7.9693705389892937
30
0
10
81.477901487552842
20
8.6789212829839801
30
0
10
81.40034793126631
20
9.0205299427683094
30
0
0
SPLINE
5
185
100
AcDbEntity
8
0
100
AcDbSpline
70
0
71
3
72
9
73
5
74
0
42
0.000000001
43
0.0000000001
44
0.0000000001
40
0
40
0
40
0
40
0
40
0.095210215031831094
40
0.18238216697486359
40
0.18238216697486359
40
0.18238216697486359
40
0.18238216697486359
10
81.40034793126631
20
9.0205299427683094
30
0
10
81.306242120117801
20
9.325311936185237
30
0
10
81.125975519979789
20
9.909144252872192
30
0
10
80.800101991465695
20
10.425656216685798
30
0
10
80.644346458793166
20
10.672529893177245
30
0
0
SPLINE
5
186
100
AcDbEntity
8
0
100
AcDbSpline
70
0
71
3
72
9
73
5
74
0
42
0.000000001
43
0.0000000001
44
0.0000000001
40
0
40
0
40
0
40
0
40
0.081792376039269019
40
0.16179147536896327
40
0.16179147536896327
40
0.16179147536896327
40
0.16179147536896327
10
80.644346458793166
20
10.672529893177245
30
0
10
80.473024776702729
20
10.887645953255698
30
0
10
80.134137596132305
20
11.313161709381207
30
0
10
79.669895290233768
20
11.596453910288187
30
0
10
79.440346939445021
20
11.736530022876952
30
0
0
SPLINE
5
187
100
AcDbEntity
8
0
100
AcDbSpline
70
0
71
3
72
9
73
5
74
0
42
0.000000001
43
0.0000000001
44
0.0000000001
40
0
40
0
40
0
40
0
40
0.079758682213198304
40
0.16394040950403255
40
0.16394040950403255
40
0.16394040950403255
40
0.16394040950403255
10
79.440346939445021
20
11.736530022876952
30
0
10
79.195660993971316
20
11.8467577099096
30
0
10
78.692719959995699
20
12.073325798165001
30
0
10
78.141430552805275
20
12.100550143507817
30
0
10
77.858349068046095
20
12.114529567020629
30
0
0
SPLINE
5
188
100
AcDbEntity
8
0
100
AcDbSpline
70
0
71
3
72
9
73
5
74
0
42
0.000000001
43
0.0000000001
44
0.0000000001
40
0
40
0
40
0
40
0
40
0.084529996489784667
40
0.16527096821466739
40
0.16527096821466739
40
0.16527096821466739
40
0.16527096821466739
10
77.858349068046095
20
12.114529567020629
30
0
10
77.57421250767382
20
12.100274917538737
30
0
10
77.018675699582417
20
12.072404577786426
30
0
10
76.510573284303916
20
11.846763851152591
30
0
10
76.262346489310744
20
11.736530022876952
30
0
0
SPLINE
5
189
100
AcDbEntity
8
0
100
AcDbSpline
70
0
71
3
72
9
73
5
74
0
42
0.000000001
43
0.0000000001
44
0.0000000001
40
0
40
0
40
0
40
0
40
0.079137920517972055
40
0.16069691394036639
40
0.16069691394036639
40
0.16069691394036639
40
0.16069691394036639
10
76.262346489310744
20
11.736530022876952
30
0
10
76.036573380575291
20
11.596019340603034
30
0
10
75.578120067839194
20
11.310699321207958
30
0
10
75.242622838170888
20
10.887378962286594
30
0
10
75.072346908927443
20
10.672529893177245
30
0
0
SPLINE
5
190
100
AcDbEntity
8
0
100
AcDbSpline
70
0
71
3
72
9
73
5
74
0
42
0.000000001
43
0.0000000001
44
0.0000000001
40
0
40
0
40
0
40
0
40
0.08717183324185282
40
0.18238204827368393
40
0.18238204827368393
40
0.18238204827368393
40
0.18238204827368393
10
75.072346908927443
20
10.672529893177245
30
0
10
74.91659233681149
20
10.425656124055571
30
0
10
74.59072058633808
20
9.9091435992755112
30
0
10
74.410453793587294
20
9.325311842338607
30
0
10
74.31634782064009
20
9.0205299427683094
30
0
0
SPLINE
5
191
100
AcDbEntity
8
0
100
AcDbSpline
70
0
71
3
72
9
73
5
74
0
42
0.000000001
43
0.0000000001
44
0.0000000001
40
0
40
0
40
0
40
0
40
0.10481614547433711
40
0.21771215446954895
40
0.21771215446954895
40
0.21771215446954895
40
0.21771215446954895
10
74.31634782064009
20
9.0205299427683094
30
0
10
74.238793277979639
20
8.6789213196455872
30
0
10
74.077705818646933
20
7.9693708110969474
30
0
10
74.059689217913203
20
7.2418106892680489
30
0
10
74.050346596122267
20
6.8645298054392079
30
0
0
SPLINE
5
192
100
AcDbEntity
8
0
100
AcDbSpline
70
0
71
3
72
9
73
5
74
0
42
0.000000001
43
0.0000000001
44
0.0000000001
40
0
40
0
40
0
40
0
40
0.11217704798474967
40
0.21473363929903458
40
0.21473363929903458
40
0.21473363929903458
40
0.21473363929903458
10
74.050346596122267
20
6.8645298054392079
30
0
10
74.058833500386626
20
6.4896778295502999
30
0
10
74.075079460427546
20
5.7721216946090248
30
0
10
74.22888871921856
20
5.0712603082942751
30
0
10
74.302347881675246
20
4.7365295460397938
30
0
0
SPLINE
5
193
100
AcDbEntity
8
0
100
AcDbSpline
70
0
71
3
72
9
73
5
74
0
42
0.000000001
43
0.0000000001
44
0.0000000001
40
0
40
0
40
0
40
0
40
0.09488091400210473
40
0.18114371962765494
40
0.18114371962765494
40
0.18114371962765494
40
0.18114371962765494
10
74.302347881675246
20
4.7365295460397938
30
0
10
74.396118056307273
20
4.4326988036664243
30
0
10
74.575141186529237
20
3.8526345052815758
30
0
10
74.902469372981813
20
3.3417966367950225
30
0
10
75.058346969962599
20
3.098529534595702
30
0
0
SPLINE
5
194
100
AcDbEntity
8
0
100
AcDbSpline
70
0
71
3
72
9
73
5
74
0
42
0.000000001
43
0.0000000001
44
0.0000000001
40
0
40
0
40
0
40
0
40
0.081298142538994381
40
0.15983684072507434
40
0.15983684072507434
40
0.15983684072507434
40
0.15983684072507434
10
75.058346969962599
20
3.098529534595702
30
0
10
75.22835194778132
20
2.8843719225840148
30
0
10
75.562591546786265
20
2.4633256962848589
30
0
10
76.022407657873217
20
2.1851946281878525
30
0
10
76.2483465503459
20
2.048529939907286
30
0
0
SPLINE
5
195
100
AcDbEntity
8
0
100
AcDbSpline
70
0
71
3
72
9
73
5
74
0
42
0.000000001
43
0.0000000001
44
0.0000000001
40
0
40
0
40
0
40
0
40
0.081068747474003305
40
0.16664224117084497
40
0.16664224117084497
40
0.16664224117084497
40
0.16664224117084497
10
76.2483465503459
20
2.048529939907286
30
0
10
76.4977655347938
20
1.9383027326865614
30
0
10
77.010462965727726
20
1.7117233242017438
30
0
10
77.570672424594633
20
1.6845070103884674
30
0
10
77.858349068046095
20
1.670530991810057
30
0
0
SPLINE
5
196
100
AcDbEntity
8
0
100
AcDbSpline
70
0
71
3
72
9
73
5
74
0
42
0.000000001
43
0.0000000001
44
0.0000000001
40
0
40
0
40
0
40
0
40
0.084182201114039151
40
0.16394041644305066
40
0.16394041644305066
40
0.16394041644305066
40
0.16394041644305066
10
77.858349068046095
20
1.670530991810057
30
0
10
78.14143223159212
20
1.6845100772494832
30
0
10
78.692721828509178
20
1.7117336121310194
30
0
10
79.195662576017128
20
1.9383025092587425
30
0
10
79.440346939445021
20
2.048529939907286
30
0
0
SPLINE
5
197
100
AcDbEntity
8
0
100
AcDbSpline
70
0
71
3
72
9
73
5
74
0
42
0.000000001
43
0.0000000001
44
0.0000000001
40
0
40
0
40
0
40
0
40
0.079406982178496691
40
0.16093875391329476
40
0.16093875391329476
40
0.16093875391329476
40
0.16093875391329476
10
79.440346939445021
20
2.048529939907286
30
0
10
79.670061477987076
20
2.1847548064217448
30
0
10
80.135637307397417
20
2.4608496744971968
30
0
10
80.473290788005386
20
2.884106900527236
30
0
10
80.644346458793166
20
3.0985295345957011
30
0
0
SPLINE
5
198
100
AcDbEntity
8
0
100
AcDbSpline
70
0
71
3
72
9
73
5
74
0
42
0.000000001
43
0.0000000001
44
0.0000000001
40
0
40
0
40
0
40
0
40
0.086262925577587676
40
0.18114383957969241
40
0.18114383957969241
40
0.18114383957969241
40
0.18114383957969241
10
80.644346458793166
20
3.0985295345957011
30
0
10
80.80022501558804
20
3.3417965434293171
30
0
10
81.127554979148883
20
3.8526338437890595
30
0
10
81.306577918633863
20
4.432698708320272
30
0
10
81.40034793126631
20
4.7365295460397929
30
0
0
SPLINE
5
199
100
AcDbEntity
8
0
100
AcDbSpline
70
0
71
3
72
9
73
5
74
0
42
0.000000001
43
0.0000000001
44
0.0000000001
40
0
40
0
40
0
40
0
40
0.10275527512650462
40
0.21495251016790307
40
0.21495251016790307
40
0.21495251016790307
40
0.21495251016790307
10
81.40034793126631
20
4.7365295460397929
30
0
10
81.477889956158748
20
5.0711158037886896
30
0
10
81.640099174844693
20
5.7710327266159354
30
0
10
81.657345059613661
20
6.4895108712464724
30
0
10
81.666346771598342
20
6.864529805439207
30
0
0
SPLINE
5
200
100
AcDbEntity
8
0
100
AcDbSpline
70
0
71
3
72
9
73
5
74
0
42
0.000000001
43
0.0000000001
44
0.0000000001
40
0
40
0
40
0
40
0
40
0.061998454898154594
40
0.11951995830139092
40
0.11951995830139092
40
0.11951995830139092
40
0.11951995830139092
10
79.370347244620802
20
6.864529805439207
30
0
10
79.366911449880945
20
6.657632205948552
30
0
10
79.360287961526012
20
6.2587772263461972
30
0
10
79.300919835823322
20
5.8643540906635696
30
0
10
79.272347671866896
20
5.6745296290094585
30
0
0
SPLINE
5
201
100
AcDbEntity
8
0
100
AcDbSpline
70
0
71
3
72
9
73
5
74
0
42
0.000000001
43
0.0000000001
44
0.0000000001
40
0
40
0
40
0
40
0
40
0.05356938144715765
40
0.10121312608634372
40
0.10121312608634372
40
0.10121312608634372
40
0.10121312608634372
10
79.272347671866896
20
5.6745296290094585
30
0
10
79.237718462388798
20
5.4987809451850831
30
0
10
79.172290592017859
20
5.1667242139911256
30
0
10
79.040422715134639
20
4.8551813062415725
30
0
10
78.978348953605177
20
4.7085296681101054
30
0
0
SPLINE
5
202
100
AcDbEntity
8
0
100
AcDbSpline
70
0
71
3
72
9
73
5
74
0
42
0.000000001
43
0.0000000001
44
0.0000000001
40
0
40
0
40
0
40
0
40
0.041545379349040366
40
0.078681935019319443
40
0.078681935019319443
40
0.078681935019319443
40
0.078681935019319443
10
78.978348953605177
20
4.7085296681101054
30
0
10
78.916497864199187
20
4.5831705438713612
30
0
10
78.799359364713339
20
4.3457554902124649
30
0
10
78.607092798721141
20
4.1642143897291648
30
0
10
78.516346199393752
20
4.0785300305063457
30
0
0
SPLINE
5
203
100
AcDbEntity
8
0
100
AcDbSpline
70
0
71
3
72
9
73
5
74
0
42
0.000000001
43
0.0000000001
44
0.0000000001
40
0
40
0
40
0
40
0
40
0.035296152666530661
40
0.071143241746337627
40
0.071143241746337627
40
0.071143241746337627
40
0.071143241746337627
10
78.516346199393752
20
4.0785300305063457
30
0
10
78.418449096926125
20
4.0091143508004485
30
0
10
78.221126819540231
20
3.8691994844703901
30
0
10
77.979897681584958
20
3.8501356226275298
30
0
10
77.858349068046095
20
3.8405298760111073
30
0
0
SPLINE
5
204
100
AcDbEntity
8
0
100
AcDbSpline
70
0
71
3
72
9
73
5
74
0
42
0.000000001
43
0.0000000001
44
0.0000000001
40
0
40
0
40
0
40
0
40
0.03619251444342976
40
0.072398596063137366
40
0.072398596063137366
40
0.072398596063137366
40
0.072398596063137366
10
77.858349068046095
20
3.8405298760111073
30
0
10
77.7358396286443
20
3.8504538313954892
30
0
10
77.490774825781955
20
3.8703054622719657
30
0
10
77.287835771462014
20
4.009113170444957
30
0
10
77.186347229362013
20
4.0785300305063465
30
0
0
SPLINE
5
205
100
AcDbEntity
8
0
100
AcDbSpline
70
0
71
3
72
9
73
5
74
0
42
0.000000001
43
0.0000000001
44
0.0000000001
40
0
40
0
40
0
40
0
40
0.037377891106096552
40
0.07945515343278256
40
0.07945515343278256
40
0.07945515343278256
40
0.07945515343278256
10
77.186347229362013
20
4.0785300305063465
30
0
10
77.094821293942204
20
4.1643853213951809
30
0
10
76.900262237059707
20
4.3468901419915422
30
0
10
76.776099884716132
20
4.5833219108784409
30
0
10
76.710346920371535
20
4.7085296681101063
30
0
0
SPLINE
5
206
100
AcDbEntity
8
0
100
AcDbSpline
70
0
71
3
72
9
73
5
74
0
42
0.000000001
43
0.0000000001
44
0.0000000001
40
0
40
0
40
0
40
0
40
0.047275880835807402
40
0.10076636988847062
40
0.10076636988847062
40
0.10076636988847062
40
0.10076636988847062
10
76.710346920371535
20
4.7085296681101063
30
0
10
76.652315286017568
20
4.8554130008108984
30
0
10
76.528623521228326
20
5.168488082051244
30
0
10
76.464426354402363
20
5.4990534134715121
30
0
10
76.43034814107466
20
5.6745296290094593
30
0
0
SPLINE
5
207
100
AcDbEntity
8
0
100
AcDbSpline
70
0
71
3
72
9
73
5
74
0
42
0.000000001
43
0.0000000001
44
0.0000000001
40
0
40
0
40
0
40
0
40
0.057396870853278013
40
0.11938242190050766
40
0.11938242190050766
40
0.11938242190050766
40
0.11938242190050766
10
76.43034814107466
20
5.6745296290094593
30
0
10
76.4058572210009
20
5.8644449527872933
30
0
10
76.3549174169748
20
6.2594586699387778
30
0
10
76.349275506746736
20
6.6577365819874874
30
0
10
76.346346123099806
20
6.8645298054392079
30
0
0
SPLINE
5
208
100
AcDbEntity
8
0
100
AcDbSpline
70
0
71
3
72
9
73
5
74
0
42
0.000000001
43
0.0000000001
44
0.0000000001
40
0
40
0
40
0
40
0
40
0.062335349733043985
40
0.12077592578517557
40
0.12077592578517557
40
0.12077592578517557
40
0.12077592578517557
10
76.346346123099806
20
6.8645298054392079
30
0
10
76.349371853897225
20
7.0724784289898501
30
0
10
76.355234264869466
20
7.4753828424990303
30
0
10
76.405854312939766
20
7.8751106286692192
30
0
10
76.43034814107466
20
8.0685293247873524
30
0
0
SPLINE
5
209
100
AcDbEntity
8
0
100
AcDbSpline
70
0
71
3
72
9
73
5
74
0
42
0.000000001
43
0.0000000001
44
0.0000000001
40
0
40
0
40
0
40
0
40
0.05349048905266323
40
0.10076642593027729
40
0.10076642593027729
40
0.10076642593027729
40
0.10076642593027729
10
76.43034814107466
20
8.0685293247873524
30
0
10
76.464426376615094
20
8.2440055324918085
30
0
10
76.528623620989521
20
8.574571033001039
30
0
10
76.652315293019555
20
8.8876463472736447
30
0
10
76.710346920371535
20
9.0345298817331532
30
0
0
SPLINE
5
210
100
AcDbEntity
8
0
100
AcDbSpline
70
0
71
3
72
9
73
5
74
0
42
0.000000001
43
0.0000000001
44
0.0000000001
40
0
40
0
40
0
40
0
40
0.042377510158756584
40
0.08051940301682603
40
0.08051940301682603
40
0.08051940301682603
40
0.08051940301682603
10
76.710346920371535
20
9.0345298817331532
30
0
10
76.776473968935932
20
9.1605038315213925
30
0
10
76.902118690716961
20
9.3998606789298655
30
0
10
77.094986230914515
20
9.5889555610396044
30
0
10
77.186347229362013
20
9.6785294583017567
30
0
0
SPLINE
5
211
100
AcDbEntity
8
0
100
AcDbSpline
70
0
71
3
72
9
73
5
74
0
42
0.000000001
43
0.0000000001
44
0.0000000001
40
0
40
0
40
0
40
0
40
0.036205874190400188
40
0.072398623808531376
40
0.072398623808531376
40
0.072398623808531376
40
0.072398623808531376
10
77.186347229362013
20
9.6785294583017567
30
0
10
77.287834964644745
20
9.7479463184072515
30
0
10
77.490773646066316
20
9.8867548751159831
30
0
10
77.735838736021634
20
9.9066058997815958
30
0
10
77.858349068046095
20
9.916529612796996
30
0
0
SPLINE
5
212
100
AcDbEntity
8
0
100
AcDbSpline
70
0
71
3
72
9
73
5
74
0
42
0.000000001
43
0.0000000001
44
0.0000000001
40
0
40
0
40
0
40
0
40
0.035847089079806958
40
0.071143241746337627
40
0.071143241746337627
40
0.071143241746337627
40
0.071143241746337627
10
77.858349068046095
20
9.916529612796996
30
0
10
77.979897681584958
20
9.9069238661805752
30
0
10
78.221126819540231
20
9.8878600043377141
30
0
10
78.418449096926139
20
9.7479451380076547
30
0
10
78.516346199393752
20
9.6785294583017567
30
0
0
SPLINE
5
213
100
AcDbEntity
8
0
100
AcDbSpline
70
0
71
3
72
9
73
5
74
0
42
0.000000001
43
0.0000000001
44
0.0000000001
40
0
40
0
40
0
40
0
40
0.037905421964528709
40
0.079754865301357419
40
0.079754865301357419
40
0.079754865301357419
40
0.079754865301357419
10
78.516346199393752
20
9.6785294583017567
30
0
10
78.606937410898155
20
9.5891326066485796
30
0
10
78.797545759165075
20
9.401037250036099
30
0
10
78.916126544501637
20
9.1606613446236711
30
0
10
78.978348953605177
20
9.0345298817331532
30
0
0
SPLINE
5
214
100
AcDbEntity
8
0
100
AcDbSpline
70
0
71
3
72
9
73
5
74
0
42
0.000000001
43
0.0000000001
44
0.0000000001
40
0
40
0
40
0
40
0
40
0.047643744639186074
40
0.10121318411164364
40
0.10121318411164364
40
0.10121318411164364
40
0.10121318411164364
10
78.978348953605177
20
9.0345298817331532
30
0
10
79.040422721579802
20
8.8878782449078475
30
0
10
79.172290687754526
20
8.5763351613260923
30
0
10
79.237718483976892
20
8.2442782130948444
30
0
10
79.272347671866896
20
8.0685293247873524
30
0
0
SPLINE
5
215
100
AcDbEntity
8
0
100
AcDbSpline
70
0
71
3
72
9
73
5
74
0
42
0.000000001
43
0.0000000001
44
0.0000000001
40
0
40
0
40
0
40
0
40
0.058563045516929216
40
0.12091116748107052
40
0.12091116748107052
40
0.12091116748107052
40
0.12091116748107052
10
79.272347671866896
20
8.0685293247873524
30
0
10
79.300923120394899
20
7.875199998310956
30
0
10
79.359920920326886
20
7.4760459863183106
30
0
10
79.366800020680998
20
7.0725786609374444
30
0
10
79.370347244620802
20
6.864529805439207
30
0
0
LINE
5
216
100
AcDbEntity
8
0
100
AcDbLine
10
87.308341247916701
20
11.8485295345957
30
0
11
85.012341720939162
21
5.8145296147043428
31
0
0
LINE
5
217
100
AcDbEntity
8
0
100
AcDbLine
10
85.012341720939162
20
5.8145296147043437
30
0
11
84.970341904044631
21
5.8145296147043437
31
0
0
LINE
5
218
100
AcDbEntity
8
0
100
AcDbLine
10
84.970341904044631
20
5.8145296147043437
30
0
11
85.026341659904006
21
11.848529534595702
31
0
0
LINE
5
219
100
AcDbEntity
8
0
100
AcDbLine
10
85.026341659904006
20
11.8485295345957
30
0
11
83.024345619559767
21
11.8485295345957
31
0
0
LINE
5
220
100
AcDbEntity
8
0
100
AcDbLine
10
83.024345619559767
20
11.8485295345957
30
0
11
83.024345619559767
21
1.9365298321420865
31
0
0
LINE
5
221
100
AcDbEntity
8
0
100
AcDbLine
10
83.024345619559767
20
1.9365298321420876
30
0
11
85.488344414115431
21
1.9365298321420874
31
0
0
LINE
5
222
100
AcDbEntity
8
0
100
AcDbLine
10
85.488344414115431
20
1.936529832142087
30
0
11
87.770344002128127
21
8.0545293858225069
31
0
0
LINE
5
223
100
AcDbEntity
8
0
100
AcDbLine
10
87.770344002128127
20
8.0545293858225069
30
0
11
87.812343819022658
21
8.0545293858225069
31
0
0
LINE
5
224
100
AcDbEntity
8
0
100
AcDbLine
10
87.812343819022658
20
8.0545293858225069
30
0
11
87.770344002128127
21
1.9365298321420865
31
0
0
LINE
5
225
100
AcDbEntity
8
0
100
AcDbLine
10
87.770344002128127
20
1.936529832142087
30
0
11
89.702345116019728
21
1.9365298321420867
31
0
0
LINE
5
226
100
AcDbEntity
8
0
100
AcDbLine
10
89.702345116019728
20
1.936529832142087
30
0
11
89.702345116019728
21
11.8485295345957
31
0
0
LINE
5
227
100
AcDbEntity
8
0
100
AcDbLine
10
89.702345116019728
20
11.8485295345957
30
0
11
87.308341247916701
21
11.8485295345957
31
0
0
ENDSEC
0
SECTION
2
OBJECTS
0
DICTIONARY
5
C
100
AcDbDictionary
3
ACAD_GROUP
350
D
3
ACAD_MLINESTYLE
350
17
0
DICTIONARY
5
D
100
AcDbDictionary
0
DICTIONARY
5
1A
330
C
100
AcDbDictionary
0
DICTIONARY
5
17
100
AcDbDictionary
0
ENDSEC
0
EOF
