                                                                        S      1
,,24HSceneCube Light Stand v1,24HSceneCube Light Stand v1,7Hunknown,7HunG      1
known,32,38,7,99,15,,1.,2,2HMM,1,0.08,15H20220922.115431,0.01,10000.,7HuG      2
nknown,7Hunknown,11,0,15H20190702.145601;                               G      3
     186       1                                                00000000D      1
     186            -211       1       0                               0D      2
     514       2                                                00010000D      3
     514                       2       1                               0D      4
     510       4                                                00010000D      5
     510            -211       1       1                               0D      6
     510       5                                                00010000D      7
     510            -211       1       1                               0D      8
     510       6                                                00010000D      9
     510            -211       1       1                               0D     10
     510       7                                                00010000D     11
     510            -211       1       1                               0D     12
     510       8                                                00010000D     13
     510            -211       1       1                               0D     14
     510       9                                                00010000D     15
     510            -211       1       1                               0D     16
     510      10                                                00010000D     17
     510            -211       1       1                               0D     18
     510      11                                                00010000D     19
     510            -211       1       1                               0D     20
     510      12                                                00010000D     21
     510            -211       1       1                               0D     22
     510      13                                                00010000D     23
     510            -211       1       1                               0D     24
     510      14                                                00010000D     25
     510            -211       1       1                               0D     26
     510      15                                                00010000D     27
     510            -211       1       1                               0D     28
     510      16                                                00010000D     29
     510            -211       1       1                               0D     30
     510      17                                                00010000D     31
     510            -211       1       1                               0D     32
     510      18                                                00010000D     33
     510            -211       1       1                               0D     34
     510      19                                                00010000D     35
     510            -211       1       1                               0D     36
     510      20                                                00010000D     37
     510            -211       1       1                               0D     38
     508      21                                                00010000D     39
     508                       2       1                               0D     40
     508      23                                                00010000D     41
     508                       1       1                               0D     42
     508      24                                                00010000D     43
     508                       1       1                               0D     44
     508      25                                                00010000D     45
     508                       1       1                               0D     46
     508      26                                                00010000D     47
     508                       2       1                               0D     48
     508      28                                                00010000D     49
     508                       1       1                               0D     50
     508      29                                                00010000D     51
     508                       1       1                               0D     52
     508      30                                                00010000D     53
     508                       2       1                               0D     54
     508      32                                                00010000D     55
     508                       3       1                               0D     56
     508      35                                                00010000D     57
     508                       1       1                               0D     58
     508      36                                                00010000D     59
     508                       1       1                               0D     60
     508      37                                                00010000D     61
     508                       1       1                               0D     62
     508      38                                                00010000D     63
     508                       1       1                               0D     64
     508      39                                                00010000D     65
     508                       1       1                               0D     66
     508      40                                                00010000D     67
     508                       2       1                               0D     68
     508      42                                                00010000D     69
     508                       1       1                               0D     70
     508      43                                                00010000D     71
     508                       1       1                               0D     72
     508      44                                                00010000D     73
     508                       1       1                               0D     74
     126      45                                                00010000D     75
     126       0               3       0                               0D     76
     126      48                                                00010000D     77
     126       0               2       0                               0D     78
     126      50                                                00010000D     79
     126       0               3       0                               0D     80
     126      53                                                00010000D     81
     126       0               2       0                               0D     82
     126      55                                                00010000D     83
     126       0               3       0                               0D     84
     126      58                                                00010000D     85
     126       0               2       0                               0D     86
     126      60                                                00010000D     87
     126       0               3       0                               0D     88
     126      63                                                00010000D     89
     126       0               2       0                               0D     90
     126      65                                                00010000D     91
     126       0               2       0                               0D     92
     126      67                                                00010000D     93
     126       0               3       0                               0D     94
     126      70                                                00010000D     95
     126       0               2       0                               0D     96
     126      72                                                00010000D     97
     126       0               2       0                               0D     98
     126      74                                                00010000D     99
     126       0               2       0                               0D    100
     126      76                                                00010000D    101
     126       0               3       0                               0D    102
     126      79                                                00010000D    103
     126       0               2       0                               0D    104
     126      81                                                00010000D    105
     126       0               3       0                               0D    106
     126      84                                                00010000D    107
     126       0               2       0                               0D    108
     126      86                                                00010000D    109
     126       0               2       0                               0D    110
     126      88                                                00010000D    111
     126       0               3       0                               0D    112
     126      91                                                00010000D    113
     126       0               3       0                               0D    114
     126      94                                                00010000D    115
     126       0               5       0                               0D    116
     126      99                                                00010000D    117
     126       0               3       0                               0D    118
     126     102                                                00010000D    119
     126       0               3       0                               0D    120
     126     105                                                00010000D    121
     126       0               2       0                               0D    122
     126     107                                                00010000D    123
     126       0               2       0                               0D    124
     126     109                                                00010000D    125
     126       0               3       0                               0D    126
     126     112                                                00010000D    127
     126       0               2       0                               0D    128
     126     114                                                00010000D    129
     126       0               3       0                               0D    130
     126     117                                                00010000D    131
     126       0               6       0                               0D    132
     126     123                                                00010000D    133
     126       0               8       0                               0D    134
     126     131                                                00010000D    135
     126       0               6       0                               0D    136
     126     137                                                00010000D    137
     126       0               3       0                               0D    138
     126     140                                                00010000D    139
     126       0               3       0                               0D    140
     126     143                                                00010000D    141
     126       0              13       0                               0D    142
     126     156                                                00010000D    143
     126       0               3       0                               0D    144
     126     159                                                00010000D    145
     126       0               2       0                               0D    146
     126     161                                                00010000D    147
     126       0               3       0                               0D    148
     126     164                                                00010000D    149
     126       0              13       0                               0D    150
     126     177                                                00010000D    151
     126       0               3       0                               0D    152
     126     180                                                00010000D    153
     126       0               6       0                               0D    154
     126     186                                                00010000D    155
     126       0               7       0                               0D    156
     126     193                                                00010000D    157
     126       0               6       0                               0D    158
     126     199                                                00010000D    159
     126       0               3       0                               0D    160
     126     202                                                00010000D    161
     126       0               3       0                               0D    162
     126     205                                                00010000D    163
     126       0               2       0                               0D    164
     126     207                                                00010000D    165
     126       0               2       0                               0D    166
     126     209                                                00010000D    167
     126       0               3       0                               0D    168
     126     212                                                00010000D    169
     126       0               3       0                               0D    170
     128     215                                                00010000D    171
     128       0    -211       5       0                               0D    172
     128     220                                                00010000D    173
     128       0    -211       5       0                               0D    174
     128     225                                                00010000D    175
     128       0    -211       4       0                               0D    176
     128     229                                                00010000D    177
     128       0    -211       6       0                               0D    178
     128     235                                                00010000D    179
     128       0    -211       4       0                               0D    180
     128     239                                                00010000D    181
     128       0    -211       6       0                               0D    182
     128     245                                                00010000D    183
     128       0    -211       4       0                               0D    184
     128     249                                                00010000D    185
     128       0    -211       5       0                               0D    186
     128     254                                                00010000D    187
     128       0    -211       7       0                               0D    188
     128     261                                                00010000D    189
     128       0    -211       7       0                               0D    190
     128     268                                                00010000D    191
     128       0    -211      11       0                               0D    192
     128     279                                                00010000D    193
     128       0    -211      11       0                               0D    194
     128     290                                                00010000D    195
     128       0    -211      11       0                               0D    196
     128     301                                                00010000D    197
     128       0    -211       5       0                               0D    198
     128     306                                                00010000D    199
     128       0    -211       5       0                               0D    200
     128     311                                                00010000D    201
     128       0    -211      21       0                               0D    202
     128     332                                                00010000D    203
     128       0    -211       6       0                               0D    204
     502     338                                                00010000D    205
     502                      16       1                               0D    206
     504     354                                                00010001D    207
     504                      14       1                               0D    208
     406     368                                                00000000D    209
     406                       1      15                               0D    210
     314     369                                                00000200D    211
     314                       2       0                               0D    212
186,3,1,0,0,1,209;                                                     1P      1
514,17,5,1,7,1,9,1,11,1,13,1,15,1,17,1,19,1,21,1,23,1,25,1,27,1,       3P      2
29,1,31,1,33,1,35,1,37,1;                                              3P      3
510,171,1,1,39;                                                        5P      4
510,173,1,1,41;                                                        7P      5
510,175,1,1,43;                                                        9P      6
510,177,1,1,45;                                                       11P      7
510,179,1,1,47;                                                       13P      8
510,181,1,1,49;                                                       15P      9
510,183,1,1,51;                                                       17P     10
510,185,1,1,53;                                                       19P     11
510,187,1,1,55;                                                       21P     12
510,189,2,1,57,59;                                                    23P     13
510,191,1,1,61;                                                       25P     14
510,193,1,1,63;                                                       27P     15
510,195,1,1,65;                                                       29P     16
510,197,1,1,67;                                                       31P     17
510,199,1,1,69;                                                       33P     18
510,201,1,1,71;                                                       35P     19
510,203,1,1,73;                                                       37P     20
508,8,0,207,1,0,0,0,207,2,1,0,0,207,3,1,0,0,207,4,1,0,0,207,5,1,      39P     21
0,0,207,6,1,0,0,207,7,1,0,0,207,8,1,0;                                39P     22
508,4,0,207,9,0,0,0,207,10,0,0,0,207,11,0,0,0,207,5,0,0;              41P     23
508,4,0,207,11,1,0,0,207,12,0,0,0,207,13,0,0,0,207,6,0,0;             43P     24
508,4,0,207,13,1,0,0,207,14,0,0,0,207,15,0,0,0,207,7,0,0;             45P     25
508,8,0,207,16,0,0,0,207,17,0,0,0,207,18,0,0,0,207,2,0,0,0,207,       47P     26
19,0,0,0,207,20,0,0,0,207,21,1,0,0,207,22,0,0;                        47P     27
508,4,0,207,18,1,0,0,207,23,0,0,0,207,24,0,0,0,207,3,0,0;             49P     28
508,4,0,207,24,1,0,0,207,25,0,0,0,207,9,1,0,0,207,4,0,0;              51P     29
508,8,0,207,26,0,0,0,207,27,1,0,0,207,14,1,0,0,207,12,1,0,0,207,      53P     30
10,1,0,0,207,25,1,0,0,207,23,1,0,0,207,17,1,0;                        53P     31
508,12,0,207,28,1,0,0,207,26,1,0,0,207,16,1,0,0,207,29,1,0,0,         55P     32
207,30,1,0,0,207,31,1,0,0,207,19,1,0,0,207,1,1,0,0,207,32,1,0,0,      55P     33
207,33,1,0,0,207,34,1,0,0,207,35,1,0;                                 55P     34
508,4,0,207,36,0,0,0,207,37,0,0,0,207,38,0,0,0,207,39,0,0;            57P     35
508,4,0,207,40,0,0,0,207,41,0,0,0,207,42,0,0,0,207,21,0,0;            59P     36
508,4,0,207,20,1,0,0,207,31,0,0,0,207,43,0,0,0,207,40,1,0;            61P     37
508,4,0,207,22,1,0,0,207,42,1,0,0,207,44,1,0,0,207,29,0,0;            63P     38
508,4,0,207,41,1,0,0,207,43,1,0,0,207,30,0,0,0,207,44,0,0;            65P     39
508,8,0,207,36,1,0,0,207,45,1,0,0,207,32,0,0,0,207,8,0,0,0,207,       67P     40
15,1,0,0,207,27,0,0,0,207,28,0,0,0,207,46,0,0;                        67P     41
508,4,0,207,37,1,0,0,207,46,1,0,0,207,35,0,0,0,207,47,0,0;            69P     42
508,4,0,207,38,1,0,0,207,47,1,0,0,207,34,0,0,0,207,48,0,0;            71P     43
508,4,0,207,39,1,0,0,207,48,1,0,0,207,33,0,0,0,207,45,0,0;            73P     44
126,1,1,0,0,1,0,0.0656011095701822,0.0656011095701822,                75P     45
0.315601109570182,0.315601109570182,1.,1.,-4.,3.5,-1.25,-4.,3.5,      75P     46
-3.75,0.0656011095701822,0.315601109570182,0.,0.,0.;                  75P     47
126,1,1,0,0,1,0,-0.65,-0.65,0.,0.,1.,1.,-4.,3.5,-1.25,-4.,10.,        77P     48
-1.25,-0.65,0.,0.,0.,0.;                                              77P     49
126,1,1,0,0,1,0,-0.394026347011725,-0.394026347011725,0.,0.,1.,       79P     50
1.,-4.,10.,-1.25,-4.,13.5,0.55988292824163,-0.394026347011725,        79P     51
0.,0.,0.,0.;                                                          79P     52
126,1,1,0,0,1,0,0.,0.,1.7,1.7,1.,1.,-4.,13.5,0.55988292824163,        81P     53
-4.,30.5,0.55988292824163,0.,1.7,0.,0.,0.;                            81P     54
126,1,1,0,0,1,0,0.,0.,0.111976585648326,0.111976585648326,1.,1.,      83P     55
-4.,30.5,0.55988292824163,-4.,30.5,-0.559882928241628,0.,             83P     56
0.111976585648326,0.,0.,0.;                                           83P     57
126,1,1,0,0,1,0,0.,0.,1.7,1.7,1.,1.,-4.,30.5,-0.559882928241628,      85P     58
-4.,13.5,-0.559882928241632,0.,1.7,0.,0.,0.;                          85P     59
126,1,1,0,0,1,0,-0.473569920196839,-0.473569920196839,0.,0.,1.,       87P     60
1.,-4.,13.5,-0.559882928241632,-4.,10.,-3.75,-0.473569920196839,      87P     61
0.,0.,0.,0.;                                                          87P     62
126,1,1,0,0,1,0,-1.,-1.,-0.35,-0.35,1.,1.,-4.,10.,-3.75,-4.,3.5,      89P     63
-3.75,-1.,-0.35,0.,0.,0.;                                             89P     64
126,1,1,0,0,1,0,-0.4,-0.4,0.4,0.4,1.,1.,4.,30.5,                      91P     65
0.55988292824163,-4.,30.5,0.55988292824163,-0.4,0.4,0.,0.,0.;         91P     66
126,1,1,0,0,1,0,-0.111976585648326,-0.111976585648326,0.,0.,1.,       93P     67
1.,4.,30.5,-0.559882928241628,4.,30.5,0.55988292824163,               93P     68
-0.111976585648326,0.,0.,0.,0.;                                       93P     69
126,1,1,0,0,1,0,-0.4,-0.4,0.4,0.4,1.,1.,-4.,30.5,                     95P     70
-0.559882928241628,4.,30.5,-0.559882928241628,-0.4,0.4,0.,0.,0.;      95P     71
126,1,1,0,0,1,0,-1.7,-1.7,0.,0.,1.,1.,4.,13.5,                        97P     72
-0.559882928241632,4.,30.5,-0.559882928241628,-1.7,0.,0.,0.,0.;       97P     73
126,1,1,0,0,1,0,-0.4,-0.4,0.4,0.4,1.,1.,-4.,13.5,                     99P     74
-0.559882928241632,4.,13.5,-0.559882928241632,-0.4,0.4,0.,0.,0.;      99P     75
126,1,1,0,0,1,0,0.,0.,0.473569920196839,0.473569920196839,1.,1.,     101P     76
4.,10.,-3.75,4.,13.5,-0.559882928241632,0.,0.473569920196839,0.,     101P     77
0.,0.;                                                               101P     78
126,1,1,0,0,1,0,-0.4,-0.4,0.4,0.4,1.,1.,-4.,10.,-3.75,4.,10.,        103P     79
-3.75,-0.4,0.4,0.,0.,0.;                                             103P     80
126,1,1,0,0,1,0,-0.4,-0.4,-0.234520774648031,-0.234520774648031,     105P     81
1.,1.,4.,3.5,-1.25,2.34520774648031,3.5,-1.25,-0.4,                  105P     82
-0.234520774648031,0.,0.,0.;                                         105P     83
126,1,1,0,0,1,0,0.,0.,0.65,0.65,1.,1.,4.,10.,-1.25,4.,3.5,-1.25,     107P     84
0.,0.65,0.,0.,0.;                                                    107P     85
126,1,1,0,0,1,0,-0.4,-0.4,0.4,0.4,1.,1.,-4.,10.,-1.25,4.,10.,        109P     86
-1.25,-0.4,0.4,0.,0.,0.;                                             109P     87
126,1,1,0,0,1,0,0.234520774648031,0.234520774648031,0.4,0.4,1.,      111P     88
1.,-2.34520774648031,3.5,-1.25,-4.,3.5,-1.25,0.234520774648031,      111P     89
0.4,0.,0.,0.;                                                        111P     90
126,1,1,0,0,1,0,-2.88889491658085D-34,-2.88889491658085D-34,         113P     91
0.35,0.35,1.,1.,-2.34520774648031,-2.88889491658085D-33,-1.25,       113P     92
-2.34520774648031,3.5,-1.25,-2.88889491658085D-34,0.35,0.,0.,0.;     113P     93
126,1,1,0,0,1,0,-0.234520774648031,-0.234520774648031,               115P     94
0.234520774648031,0.234520774648031,1.,1.,-2.34520774648031,         115P     95
-2.88889491658085D-33,-1.25,2.34520774648031,                        115P     96
-2.88889491658085D-33,-1.25,-0.234520774648031,                      115P     97
0.234520774648031,0.,0.,0.;                                          115P     98
126,1,1,0,0,1,0,-0.35,-0.35,0.,0.,1.,1.,2.34520774648031,3.5,        117P     99
-1.25,2.34520774648031,-2.88889491658085D-33,-1.25,-0.35,0.,0.,      117P    100
0.,0.;                                                               117P    101
126,1,1,0,0,1,0,0.,0.,0.394026347011725,0.394026347011725,1.,1.,     119P    102
4.,13.5,0.55988292824163,4.,10.,-1.25,0.,0.394026347011725,0.,       119P    103
0.,0.;                                                               119P    104
126,1,1,0,0,1,0,-0.4,-0.4,0.4,0.4,1.,1.,-4.,13.5,                    121P    105
0.55988292824163,4.,13.5,0.55988292824163,-0.4,0.4,0.,0.,0.;         121P    106
126,1,1,0,0,1,0,-1.7,-1.7,0.,0.,1.,1.,4.,30.5,0.55988292824163,      123P    107
4.,13.5,0.55988292824163,-1.7,0.,0.,0.,0.;                           123P    108
126,1,1,0,0,1,0,-0.315601109570182,-0.315601109570182,               125P    109
-0.0656011095701822,-0.0656011095701822,1.,1.,4.,3.5,-3.75,4.,       125P    110
3.5,-1.25,-0.315601109570182,-0.0656011095701822,0.,0.,0.;           125P    111
126,1,1,0,0,1,0,0.35,0.35,1.,1.,1.,1.,4.,3.5,-3.75,4.,10.,-3.75,     127P    112
0.35,1.,0.,0.,0.;                                                    127P    113
126,1,1,0,0,1,0,0.321377049002195,0.321377049002195,0.4,0.4,1.,      129P    114
1.,3.21377049002195,3.5,-3.75,4.,3.5,-3.75,0.321377049002195,        129P    115
0.4,0.,0.,0.;                                                        129P    116
126,2,2,0,0,0,0,-1.15068487406793,-1.15068487406793,                 131P    117
-1.15068487406793,-0.73949248888085,-0.73949248888085,               131P    118
-0.73949248888085,1.,0.978939445292212,1.,2.3452077464803,3.5,       131P    119
-1.25,3.44005777879722,3.5,-0.760923667071883,4.24816136529258,      131P    120
3.5,0.125000057741999,-1.15068487406793,-0.73949248888085,0.,0.,     131P    121
0.;                                                                  131P    122
126,4,2,0,0,0,0,0.0294160204001657,0.0294160204001657,               133P    123
0.0294160204001657,1.5707963267949,1.5707963267949,                  133P    124
3.11217663318963,3.11217663318963,3.11217663318963,1.,               133P    125
0.717430058713822,1.,0.717430058713821,1.,4.24816136529258,3.5,      133P    126
0.125000057741999,4.1267852718182,3.5,4.25,                          133P    127
-1.62714169704395D-15,3.5,4.25,-4.1267852718182,3.5,4.25,            133P    128
-4.24816136529258,3.5,0.125000057741997,0.0294160204001657,          133P    129
3.11217663318963,0.,0.,0.;                                           133P    130
126,2,2,0,0,0,0,-2.40210016470894,-2.40210016470894,                 135P    131
-2.40210016470894,-1.99090777952187,-1.99090777952187,               135P    132
-1.99090777952187,1.,0.978939445292204,1.,-4.24816136529258,3.5,     135P    133
0.125000057741997,-3.44005777879722,3.5,-0.760923667071883,          135P    134
-2.34520774648031,3.5,-1.25,-2.40210016470894,-1.99090777952187,     135P    135
0.,0.,0.;                                                            135P    136
126,1,1,0,0,1,0,-0.4,-0.4,-0.328622950997805,-0.328622950997805,     137P    137
1.,1.,-4.,3.5,-3.75,-3.28622950997805,3.5,-3.75,-0.4,                137P    138
-0.328622950997805,0.,0.,0.;                                         137P    139
126,1,1,0,0,1,0,0.,0.,0.214603219188544,0.214603219188544,1.,1.,     139P    140
-3.28622950997805,3.5,-3.75,-3.28622950997805,3.5,                   139P    141
-5.89603219188544,0.,0.214603219188544,0.,0.,0.;                     139P    142
126,8,2,0,0,0,0,2.07927484364923,2.07927484364923,                   141P    143
2.07927484364923,3.39889390093443,3.39889390093443,                  141P    144
4.71851295821962,4.71851295821962,6.03813201550482,                  141P    145
6.03813201550482,7.35775107279001,7.35775107279001,                  141P    146
7.35775107279001,1.,0.790108998365503,1.,0.790108998365504,1.,       141P    147
0.790108998365503,1.,0.790108998365504,1.,-3.28622950997805,3.5,     141P    148
-5.89603219188544,-7.86036985935183,3.5,-3.34657613233727,           141P    149
-6.52779172043287,3.5,1.71768310658518,-5.19521358151391,3.5,        141P    150
6.78194234550763,0.0413365920095574,3.5,6.74987342741781,            141P    151
5.27788676553303,3.5,6.71780450932799,6.54833968219533,3.5,          141P    152
1.63760416663673,7.81879259885763,3.5,-3.44259617605453,             141P    153
3.21377049002195,3.5,-5.93583854543434,2.07927484364923,             141P    154
7.35775107279001,0.,0.,0.;                                           141P    155
126,1,1,0,0,1,0,0.0814161454565656,0.0814161454565656,0.3,0.3,       143P    156
1.,1.,3.21377049002195,3.5,-5.93583854543434,3.21377049002195,       143P    157
3.5,-3.75,0.0814161454565656,0.3,0.,0.,0.;                           143P    158
126,1,1,0,0,1,0,0.,0.,0.65,0.65,1.,1.,3.21377049002195,0.,-3.75,     145P    159
-3.28622950997805,0.,-3.75,0.,0.65,0.,0.,0.;                         145P    160
126,1,1,0,0,1,0,0.0814161454565656,0.0814161454565656,0.3,0.3,       147P    161
1.,1.,3.21377049002195,0.,-5.93583854543434,3.21377049002195,0.,     147P    162
-3.75,0.0814161454565656,0.3,0.,0.,0.;                               147P    163
126,8,2,0,0,0,0,2.07927484364923,2.07927484364923,                   149P    164
2.07927484364923,3.39889390093443,3.39889390093443,                  149P    165
4.71851295821962,4.71851295821962,6.03813201550482,                  149P    166
6.03813201550482,7.35775107279001,7.35775107279001,                  149P    167
7.35775107279001,1.,0.790108998365503,1.,0.790108998365504,1.,       149P    168
0.790108998365503,1.,0.790108998365504,1.,-3.28622950997805,0.,      149P    169
-5.89603219188544,-7.86036985935183,0.,-3.34657613233727,            149P    170
-6.52779172043287,0.,1.71768310658518,-5.19521358151391,0.,          149P    171
6.78194234550763,0.0413365920095574,0.,6.74987342741781,             149P    172
5.27788676553303,0.,6.71780450932799,6.54833968219533,0.,            149P    173
1.63760416663673,7.81879259885763,0.,-3.44259617605453,              149P    174
3.21377049002195,0.,-5.93583854543434,2.07927484364923,              149P    175
7.35775107279001,0.,0.,0.;                                           149P    176
126,1,1,0,0,1,0,0.,0.,0.214603219188544,0.214603219188544,1.,1.,     151P    177
-3.28622950997805,0.,-3.75,-3.28622950997805,0.,                     151P    178
-5.89603219188544,0.,0.214603219188544,0.,0.,0.;                     151P    179
126,2,2,0,0,0,0,-2.40210016470894,-2.40210016470894,                 153P    180
-2.40210016470894,-1.99090777952187,-1.99090777952187,               153P    181
-1.99090777952187,1.,0.978939445292204,1.,-4.24816136529258,0.,      153P    182
0.125000057741997,-3.44005777879722,0.,-0.760923667071883,           153P    183
-2.34520774648031,0.,-1.25,-2.40210016470894,-1.99090777952187,      153P    184
0.,0.,0.;                                                            153P    185
126,4,2,0,0,0,0,0.0294160204001657,0.0294160204001657,               155P    186
0.0294160204001657,1.5707963267949,1.5707963267949,                  155P    187
3.11217663318963,3.11217663318963,3.11217663318963,1.,               155P    188
0.717430058713822,1.,0.717430058713821,1.,4.24816136529258,0.,       155P    189
0.125000057741999,4.1267852718182,0.,4.25,-1.62714169704395D-15,     155P    190
0.,4.25,-4.1267852718182,0.,4.25,-4.24816136529258,0.,               155P    191
0.125000057741997,0.0294160204001657,3.11217663318963,0.,0.,0.;      155P    192
126,2,2,0,0,0,0,-1.15068487406793,-1.15068487406793,                 157P    193
-1.15068487406793,-0.73949248888085,-0.73949248888085,               157P    194
-0.73949248888085,1.,0.978939445292212,1.,2.3452077464803,0.,        157P    195
-1.25,3.44005777879722,0.,-0.760923667071883,4.24816136529258,       157P    196
0.,0.125000057741999,-1.15068487406793,-0.73949248888085,0.,0.,      157P    197
0.;                                                                  157P    198
126,1,1,0,0,1,0,0.,0.,0.35,0.35,1.,1.,-4.24816136529258,0.,          159P    199
0.125000057741997,-4.24816136529258,3.5,0.125000057741997,0.,        159P    200
0.35,0.,0.,0.;                                                       159P    201
126,1,1,0,0,1,0,0.,0.,0.35,0.35,1.,1.,4.24816136529258,0.,           161P    202
0.125000057741999,4.24816136529258,3.5,0.125000057741999,0.,         161P    203
0.35,0.,0.,0.;                                                       161P    204
126,1,1,0,0,1,0,0.,0.,0.35,0.35,1.,1.,-3.28622950997805,0.,          163P    205
-3.75,-3.28622950997805,3.5,-3.75,0.,0.35,0.,0.,0.;                  163P    206
126,1,1,0,0,1,0,0.,0.,0.35,0.35,1.,1.,3.21377049002195,0.,-3.75,     165P    207
3.21377049002195,3.5,-3.75,0.,0.35,0.,0.,0.;                         165P    208
126,1,1,0,0,1,0,0.,0.,0.35,0.35,1.,1.,3.21377049002195,0.,           167P    209
-5.93583854543434,3.21377049002195,3.5,-5.93583854543434,0.,         167P    210
0.35,0.,0.,0.;                                                       167P    211
126,1,1,0,0,1,0,0.,0.,0.35,0.35,1.,1.,-3.28622950997805,0.,          169P    212
-5.89603219188544,-3.28622950997805,3.5,-5.89603219188544,0.,        169P    213
0.35,0.,0.,0.;                                                       169P    214
128,1,1,1,1,0,0,1,0,0,-0.216494146412081,-0.216494146412081,         171P    215
0.216494146412081,0.216494146412081,-1.176,-1.176,1.526,1.526,       171P    216
1.,1.,1.,1.,-4.,3.49,-3.76,-4.,3.49,0.56988292824163,-4.,30.51,      171P    217
-3.76,-4.,30.51,0.56988292824163,-0.216494146412081,                 171P    218
0.216494146412081,-1.176,1.526;                                      171P    219
128,1,1,1,1,0,0,1,0,0,-0.001,-0.001,0.112976585648326,               173P    220
0.112976585648326,-0.401,-0.401,0.401,0.401,1.,1.,1.,1.,-4.01,       173P    221
30.5,-0.569882928241628,-4.01,30.5,0.56988292824163,4.01,30.5,       173P    222
-0.569882928241628,4.01,30.5,0.56988292824163,-0.001,                173P    223
0.112976585648326,-0.401,0.401;                                      173P    224
128,1,1,1,1,0,0,1,0,0,-0.001,-0.001,1.701,1.701,-0.401,-0.401,       175P    225
0.401,0.401,1.,1.,1.,1.,-4.01,13.49,-0.559882928241632,-4.01,        175P    226
30.51,-0.559882928241628,4.01,13.49,-0.559882928241632,4.01,         175P    227
30.51,-0.559882928241628,-0.001,1.701,-0.401,0.401;                  175P    228
128,1,1,1,1,0,0,1,0,0,-0.001,-0.001,0.474569920196839,               177P    229
0.474569920196839,-0.401,-0.401,0.401,0.401,1.,1.,1.,1.,-4.01,       177P    230
9.99260932789282,-3.75673631693168,-4.01,13.5073906721072,           177P    231
-0.553146611309948,4.01,9.99260932789282,-3.75673631693168,4.01,     177P    232
13.5073906721072,-0.553146611309948,-0.001,0.474569920196839,        177P    233
-0.401,0.401;                                                        177P    234
128,1,1,1,1,0,0,1,0,0,-0.001,-0.001,1.001,1.001,-0.401,-0.401,       179P    235
0.401,0.401,1.,1.,1.,1.,-4.01,10.01,-1.25,-4.01,                     179P    236
-0.0099999999999989,-1.25,4.01,10.01,-1.25,4.01,                     179P    237
-0.0099999999999989,-1.25,-0.001,1.001,-0.401,0.401;                 179P    238
128,1,1,1,1,0,0,1,0,0,-0.001,-0.001,0.395026347011725,               181P    239
0.395026347011725,-0.401,-0.401,0.401,0.401,1.,1.,1.,1.,-4.01,       181P    240
13.5088826547426,0.564476232577667,-4.01,9.99111734525738,           181P    241
-1.25459330433604,4.01,13.5088826547426,0.564476232577667,4.01,      181P    242
9.99111734525738,-1.25459330433604,-0.001,0.395026347011725,         181P    243
-0.401,0.401;                                                        181P    244
128,1,1,1,1,0,0,1,0,0,-0.001,-0.001,1.701,1.701,-0.401,-0.401,       183P    245
0.401,0.401,1.,1.,1.,1.,-4.01,30.51,0.55988292824163,-4.01,          183P    246
13.49,0.55988292824163,4.01,30.51,0.55988292824163,4.01,13.49,       183P    247
0.55988292824163,-0.001,1.701,-0.401,0.401;                          183P    248
128,1,1,1,1,0,0,1,0,0,-0.216494146412081,-0.216494146412081,         185P    249
0.216494146412081,0.216494146412081,-1.176,-1.176,1.526,1.526,       185P    250
1.,1.,1.,1.,4.,3.49,0.56988292824163,4.,3.49,-3.76,4.,30.51,         185P    251
0.56988292824163,4.,30.51,-3.76,-0.216494146412081,                  185P    252
0.216494146412081,-1.176,1.526;                                      185P    253
128,1,1,1,1,0,0,1,0,0,-0.787036985935183,-0.787036985935183,         187P    254
0.782879259885763,0.782879259885763,-0.63848616182248,               187P    255
-0.63848616182248,0.635291927271717,0.635291927271717,1.,1.,1.,      187P    256
1.,-7.87036985935183,3.5,6.79194234550763,7.82879259885763,3.5,      187P    257
6.79194234550763,-7.87036985935183,3.5,-5.94583854543434,            187P    258
7.82879259885763,3.5,-5.94583854543434,-0.787036985935183,           187P    259
0.782879259885763,-0.63848616182248,0.635291927271717;               187P    260
128,1,1,1,1,0,0,1,0,0,-0.787036985935183,-0.787036985935183,         189P    261
0.782879259885763,0.782879259885763,-0.63848616182248,               189P    262
-0.63848616182248,0.635291927271717,0.635291927271717,1.,1.,1.,      189P    263
1.,7.82879259885763,0.,6.79194234550763,-7.87036985935183,0.,        189P    264
6.79194234550763,7.82879259885763,0.,-5.94583854543434,              189P    265
-7.87036985935183,0.,-5.94583854543434,-0.787036985935183,           189P    266
0.782879259885763,-0.63848616182248,0.635291927271717;               189P    267
128,1,2,1,2,0,0,0,0,0,-5.02416507231453D-34,                         191P    268
-5.02416507231453D-34,0.608695652173913,0.608695652173913,           191P    269
1.99090777952187,1.99090777952187,1.99090777952187,                  191P    270
2.40210016470894,2.40210016470894,2.40210016470894,1.,1.,            191P    271
0.978939445292214,0.978939445292214,1.,1.,-2.34520774648031,         191P    272
-2.88889491658085D-33,-1.25,-2.34520774648031,3.5,-1.25,             191P    273
-3.44005777879722,-2.88889491658085D-33,-0.760923667071882,          191P    274
-3.44005777879722,3.5,-0.760923667071882,-4.24816136529258,          191P    275
-2.88889491658085D-33,0.125000057741997,-4.24816136529258,3.5,       191P    276
0.125000057741997,-5.02416507231453D-34,0.608695652173913,           191P    277
1.99090777952187,2.40210016470894;                                   191P    278
128,1,2,1,2,0,0,0,0,0,-5.02416507231453D-34,                         193P    279
-5.02416507231453D-34,0.608695652173913,0.608695652173913,           193P    280
0.73949248888085,0.73949248888085,0.73949248888085,                  193P    281
1.15068487406793,1.15068487406793,1.15068487406793,1.,1.,            193P    282
0.978939445292213,0.978939445292213,1.,1.,4.24816136529258,          193P    283
-2.88889491658085D-33,0.125000057741999,4.24816136529258,3.5,        193P    284
0.125000057741999,3.44005777879722,-2.88889491658085D-33,            193P    285
-0.760923667071883,3.44005777879722,3.5,-0.760923667071883,          193P    286
2.3452077464803,-2.88889491658085D-33,-1.25,2.3452077464803,3.5,     193P    287
-1.25,-5.02416507231453D-34,0.608695652173913,0.73949248888085,      193P    288
1.15068487406793;                                                    193P    289
128,1,4,1,2,0,0,0,0,0,0.,0.,0.823529411764706,0.823529411764706,     195P    290
-3.11217663318963,-3.11217663318963,-3.11217663318963,               195P    291
-1.5707963267949,-1.5707963267949,-0.0294160204001657,               195P    292
-0.0294160204001657,-0.0294160204001657,1.,1.,0.717430058713822,     195P    293
0.717430058713822,1.,1.,0.717430058713822,0.717430058713822,1.,      195P    294
1.,-4.24816136529258,0.,0.125000057741997,-4.24816136529258,3.5,     195P    295
0.125000057741997,-4.1267852718182,0.,4.25,-4.1267852718182,3.5,     195P    296
4.25,0.,0.,4.25,0.,3.5,4.25,4.1267852718182,0.,4.25,                 195P    297
4.1267852718182,3.5,4.25,4.24816136529258,0.,0.125000057742,         195P    298
4.24816136529258,3.5,0.125000057742,0.,0.823529411764706,            195P    299
-3.11217663318963,-0.0294160204001657;                               195P    300
128,1,1,1,1,0,0,1,0,0,-0.0796229509978054,-0.0796229509978054,       197P    301
0.722377049002195,0.722377049002195,-0.001,-0.001,1.001,1.001,       197P    302
1.,1.,1.,1.,4.01,-0.01,-3.75,-4.01,-0.01,-3.75,4.01,10.01,-3.75,     197P    303
-4.01,10.01,-3.75,-0.0796229509978054,0.722377049002195,-0.001,      197P    304
1.001;                                                               197P    305
128,1,1,1,1,0,0,1,0,0,-0.001,-0.001,0.219583854543434,               199P    306
0.219583854543434,-0.001,-0.001,0.351,0.351,1.,1.,1.,1.,             199P    307
3.21377049002195,-0.01,-5.94583854543434,3.21377049002195,-0.01,     199P    308
-3.74,3.21377049002195,3.51,-5.94583854543434,3.21377049002195,      199P    309
3.51,-3.74,-0.001,0.219583854543434,-0.001,0.351;                    199P    310
128,1,8,1,2,0,0,0,0,0,0.,0.,0.518518518518518,0.518518518518518,     201P    311
2.07927484364923,2.07927484364923,2.07927484364923,                  201P    312
3.39889390093442,3.39889390093442,4.71851295821962,                  201P    313
4.71851295821962,6.03813201550482,6.03813201550482,                  201P    314
7.35775107279001,7.35775107279001,7.35775107279001,1.,1.,            201P    315
0.790108998365503,0.790108998365503,1.,1.,0.790108998365503,         201P    316
0.790108998365503,1.,1.,0.790108998365503,0.790108998365503,1.,      201P    317
1.,0.790108998365503,0.790108998365503,1.,1.,-3.28622950997805,      201P    318
3.5,-5.89603219188544,-3.28622950997805,0.,-5.89603219188544,        201P    319
-7.86036985935183,3.5,-3.34657613233727,-7.86036985935183,0.,        201P    320
-3.34657613233727,-6.52779172043287,3.5,1.71768310658518,            201P    321
-6.52779172043287,0.,1.71768310658518,-5.19521358151391,3.5,         201P    322
6.78194234550763,-5.19521358151391,0.,6.78194234550763,              201P    323
0.0413365920095634,3.5,6.74987342741781,0.0413365920095634,0.,       201P    324
6.74987342741781,5.27788676553303,3.5,6.71780450932799,              201P    325
5.27788676553303,0.,6.71780450932799,6.54833968219533,3.5,           201P    326
1.63760416663673,6.54833968219533,0.,1.63760416663673,               201P    327
7.81879259885763,3.5,-3.44259617605453,7.81879259885763,0.,          201P    328
-3.44259617605453,3.21377049002194,3.5,-5.93583854543435,            201P    329
3.21377049002194,0.,-5.93583854543435,0.,0.518518518518518,          201P    330
2.07927484364923,7.35775107279001;                                   201P    331
128,1,1,1,1,0,0,1,0,0,-0.001,-0.001,0.215603219188544,               203P    332
0.215603219188544,-0.001,-0.001,0.351,0.351,1.,1.,1.,1.,             203P    333
-3.28622950997805,-0.01,-3.74,-3.28622950997805,-0.01,               203P    334
-5.90603219188544,-3.28622950997805,3.51,-3.74,                      203P    335
-3.28622950997805,3.51,-5.90603219188544,-0.001,                     203P    336
0.215603219188544,-0.001,0.351;                                      203P    337
502,32,-4.,3.5,-1.25,-4.,3.5,-3.75,-4.,10.,-1.25,-4.,13.5,           205P    338
0.55988292824163,-4.,30.5,0.55988292824163,-4.,30.5,                 205P    339
-0.559882928241628,-4.,13.5,-0.559882928241632,-4.,10.,-3.75,4.,     205P    340
30.5,0.55988292824163,4.,30.5,-0.559882928241628,4.,13.5,            205P    341
-0.559882928241632,4.,10.,-3.75,4.,3.5,-1.25,2.34520774648031,       205P    342
3.5,-1.25,4.,10.,-1.25,-2.34520774648031,3.5,-1.25,                  205P    343
-2.34520774648031,-2.88889491658085D-33,-1.25,2.34520774648031,      205P    344
-2.88889491658085D-33,-1.25,4.,13.5,0.55988292824163,4.,3.5,         205P    345
-3.75,3.21377049002195,3.5,-3.75,4.24816136529258,3.5,               205P    346
0.125000057741999,-4.24816136529258,3.5,0.125000057741997,           205P    347
-3.28622950997805,3.5,-3.75,-3.28622950997805,3.5,                   205P    348
-5.89603219188544,3.21377049002195,3.5,-5.93583854543434,            205P    349
3.21377049002195,0.,-3.75,-3.28622950997805,0.,-3.75,                205P    350
3.21377049002195,0.,-5.93583854543434,-3.28622950997805,0.,          205P    351
-5.89603219188544,-4.24816136529258,0.,0.125000057741997,            205P    352
4.24816136529258,0.,0.125000057741999;                               205P    353
504,48,75,205,1,205,2,77,205,1,205,3,79,205,3,205,4,81,205,4,        207P    354
205,5,83,205,5,205,6,85,205,6,205,7,87,205,7,205,8,89,205,8,205,     207P    355
2,91,205,9,205,5,93,205,10,205,9,95,205,6,205,10,97,205,11,205,      207P    356
10,99,205,7,205,11,101,205,12,205,11,103,205,8,205,12,105,205,       207P    357
13,205,14,107,205,15,205,13,109,205,3,205,15,111,205,16,205,1,       207P    358
113,205,17,205,16,115,205,17,205,18,117,205,14,205,18,119,205,       207P    359
19,205,15,121,205,4,205,19,123,205,9,205,19,125,205,20,205,13,       207P    360
127,205,20,205,12,129,205,21,205,20,131,205,14,205,22,133,205,       207P    361
22,205,23,135,205,23,205,16,137,205,2,205,24,139,205,24,205,25,      207P    362
141,205,25,205,26,143,205,26,205,21,145,205,27,205,28,147,205,       207P    363
29,205,27,149,205,30,205,29,151,205,28,205,30,153,205,31,205,17,     207P    364
155,205,32,205,31,157,205,18,205,32,159,205,31,205,23,161,205,       207P    365
32,205,22,163,205,28,205,24,165,205,27,205,21,167,205,29,205,26,     207P    366
169,205,30,205,25;                                                   207P    367
406,1,5HBody1;                                                       209P    368
314,62.7450980392157,62.7450980392157,62.7450980392157,13HSteel      211P    369
- Satin;                                                             211P    370
S      1G      3D    212P    370                                        T      1
