0
SECTION
2
HEADER
9
$INSUNITS
70
4
9
$ACADVER
1
AC1014
9
$HANDSEED
5
FFFF
0
ENDSEC
0
SECTION
2
TABLES
0
TABLE
2
VPORT
5
8
100
AcDbSymbolTable
0
ENDTAB
0
TABLE
2
LTYPE
5
5
100
AcDbSymbolTable
0
LTYPE
5
14
100
AcDbSymbolTableRecord
100
AcDbLinetypeTableRecord
2
BYBLOCK
70
0
0
LTYPE
5
15
100
AcDbSymbolTableRecord
100
AcDbLinetypeTableRecord
2
BYLAYER
70
0
0
ENDTAB
0
TABLE
2
LAYER
5
2
100
AcDbSymbolTable
70
2
0
LAYER
5
50
100
AcDbSymbolTableRecord
100
AcDbLayerTableRecord
2
0
70
0
6
CONTINUOUS
0
ENDTAB
0
TABLE
2
STYLE
5
3
100
AcDbSymbolTable
70
1
0
STYLE
5
11
100
AcDbSymbolTableRecord
100
AcDbTextStyleTableRecord
2
STANDARD
70
0
0
ENDTAB
0
TABLE
2
VIEW
5
6
100
AcDbSymbolTable
70
0
0
ENDTAB
0
TABLE
2
UCS
5
7
100
AcDbSymbolTable
70
0
0
ENDTAB
0
TABLE
2
APPID
5
9
100
AcDbSymbolTable
70
2
0
APPID
5
12
100
AcDbSymbolTableRecord
100
AcDbRegAppTableRecord
2
ACAD
70
0
0
ENDTAB
0
TABLE
2
DIMSTYLE
5
A
100
AcDbSymbolTable
70
1
0
ENDTAB
0
TABLE
2
BLOCK_RECORD
5
1
100
AcDbSymbolTable
70
1
0
BLOCK_RECORD
5
1F
100
AcDbSymbolTableRecord
100
AcDbBlockTableRecord
2
*MODEL_SPACE
0
BLOCK_RECORD
5
1B
100
AcDbSymbolTableRecord
100
AcDbBlockTableRecord
2
*PAPER_SPACE
0
ENDTAB
0
ENDSEC
0
SECTION
2
BLOCKS
0
BLOCK
5
20
100
AcDbEntity
100
AcDbBlockBegin
2
*MODEL_SPACE
0
ENDBLK
5
21
100
AcDbEntity
100
AcDbBlockEnd
0
BLOCK
5
1C
100
AcDbEntity
100
AcDbBlockBegin
2
*PAPER_SPACE
0
ENDBLK
5
1D
100
AcDbEntity
100
AcDbBlockEnd
0
ENDSEC
0
SECTION
2
ENTITIES
0
SPLINE
5
100
100
AcDbEntity
8
0
100
AcDbSpline
70
0
71
3
72
18
73
14
74
0
42
0.000000001
43
0.0000000001
44
0.0000000001
40
0
40
0
40
0
40
0
40
0.31264662787919772
40
0.31264662787919772
40
0.61710153293955483
40
0.61710153293955483
40
0.91336116627214436
40
0.91336116627214436
40
1.2014219568841555
40
1.2014219568841555
40
1.3720942669247151
40
1.3720942669247151
40
1.5397364205404991
40
1.5397364205404991
40
1.5397364205404991
40
1.5397364205404991
10
-7.8486258844723347
20
2.1020845102161947
30
0
10
-7.5114782435933982
20
3.0881977900888735
30
0
10
-6.9873858773212048
20
3.9999162591088262
30
0
10
-5.6334993421781201
20
5.5469882861798521
30
0
10
-4.824763856234064
20
6.1742390598375705
30
0
10
-3.0347578443596621
20
7.0665049900036223
30
0
10
-2.0755614735113497
20
7.3322596706130927
30
0
10
-0.13642462110270856
20
7.4739694497075062
30
0
10
0.82391474036983681
20
7.3590279873541959
30
0
10
2.2736038335107374
20
6.8841923939687764
30
0
10
2.7903458501296359
20
6.6448094479332331
30
0
10
3.7474334181600955
20
6.053781181588783
30
0
10
4.1856536970895002
20
5.706239221528902
30
0
10
4.5779424402590578
20
5.3103737699125251
30
0
0
ARC
5
101
100
AcDbEntity
8
0
100
AcDbCircle
10
3.3306690738754696e-15
20
5.5511151231257827e-16
30
0
40
7.0112499999999986
210
0
220
0
230
1
100
AcDbArc
50
-49.236184243864898
51
49.236184243866241
0
SPLINE
5
102
100
AcDbEntity
8
0
100
AcDbSpline
70
0
71
3
72
18
73
14
74
0
42
0.000000001
43
0.0000000001
44
0.0000000001
40
0
40
0
40
0
40
0
40
0.27711281358817613
40
0.27711281358817613
40
0.56240586946707782
40
0.56240586946707782
40
0.85587536093109606
40
0.85587536093109606
40
1.1575175185065014
40
1.1575175185065014
40
1.3447242027920139
40
1.3447242027920139
40
1.5349604979420348
40
1.5349604979420348
40
1.5349604979420348
40
1.5349604979420348
10
4.5779424402591831
20
-5.3103737699124167
30
0
10
3.9277520688198262
20
-5.9664922783020966
30
0
10
3.1540670391623844
20
-6.487320781546579
30
0
10
1.426686023019033
20
-7.2188427274136266
30
0
10
0.48566077669246888
20
-7.4127610501310262
30
0
10
-1.4458714526037335
20
-7.4344595242949065
30
0
10
-2.4177467660783232
20
-7.2515218495847193
30
0
10
-4.264776140721577
20
-6.5178048013571068
30
0
10
-5.1181209757576962
20
-5.9643805453839684
30
0
10
-6.2936884283449448
20
-4.8301800012135345
30
0
10
-6.6903280020620244
20
-4.3435598737257184
30
0
10
-7.3671490785953564
20
-3.2791002257482877
30
0
10
-7.6429217126334601
20
-2.7037426296285232
30
0
10
-7.8486258844722858
20
-2.102084510216379
30
0
0
ARC
5
103
100
AcDbEntity
8
0
100
AcDbCircle
10
3.3306690738754696e-15
20
5.5511151231257827e-16
30
0
40
8.125250000000003
210
0
220
0
230
1
100
AcDbArc
50
165.00646022177025
51
194.99353977823111
0
CIRCLE
5
104
100
AcDbEntity
8
0
100
AcDbCircle
10
3.3306690738754696e-15
20
5.5511151231257827e-16
30
0
40
9.5
210
0
220
-0
230
1
0
CIRCLE
5
105
100
AcDbEntity
8
0
100
AcDbCircle
10
0
20
0
30
0
40
9.5
210
0
220
0
230
1
0
CIRCLE
5
106
100
AcDbEntity
8
0
100
AcDbCircle
10
0
20
0
30
0
40
7.9999999999999991
210
0
220
0
230
1
0
CIRCLE
5
107
100
AcDbEntity
8
0
100
AcDbCircle
10
0
20
0
30
0
40
2.5
210
0
220
0
230
1
0
ENDSEC
0
SECTION
2
OBJECTS
0
DICTIONARY
5
C
100
AcDbDictionary
3
ACAD_GROUP
350
D
3
ACAD_MLINESTYLE
350
17
0
DICTIONARY
5
D
100
AcDbDictionary
0
DICTIONARY
5
1A
330
C
100
AcDbDictionary
0
DICTIONARY
5
17
100
AcDbDictionary
0
ENDSEC
0
EOF
