                                                                        S      1
,,24HBathroom Cabinet Foot v3,24HBathroom Cabinet Foot v3,7Hunknown,7HunG      1
known,32,38,7,99,15,,1.,2,2HMM,1,0.08,15H20220922.114853,0.01,10000.,7HuG      2
nknown,7Hunknown,11,0,15H20190917.120438;                               G      3
     186       1                                                00000000D      1
     186            -169       1       0                               0D      2
     514       2                                                00010000D      3
     514                       2       1                               0D      4
     510       4                                                00010000D      5
     510            -169       1       1                               0D      6
     510       5                                                00010000D      7
     510            -169       1       1                               0D      8
     510       6                                                00010000D      9
     510            -169       1       1                               0D     10
     510       7                                                00010000D     11
     510            -169       1       1                               0D     12
     510       8                                                00010000D     13
     510            -169       1       1                               0D     14
     510       9                                                00010000D     15
     510            -169       1       1                               0D     16
     510      10                                                00010000D     17
     510            -169       1       1                               0D     18
     510      11                                                00010000D     19
     510            -169       1       1                               0D     20
     510      12                                                00010000D     21
     510            -169       1       1                               0D     22
     510      13                                                00010000D     23
     510            -169       1       1                               0D     24
     510      14                                                00010000D     25
     510            -169       1       1                               0D     26
     510      15                                                00010000D     27
     510            -169       1       1                               0D     28
     510      16                                                00010000D     29
     510            -169       1       1                               0D     30
     510      17                                                00010000D     31
     510            -169       1       1                               0D     32
     510      18                                                00010000D     33
     510            -169       1       1                               0D     34
     508      19                                                00010000D     35
     508                       1       1                               0D     36
     508      20                                                00010000D     37
     508                       1       1                               0D     38
     508      21                                                00010000D     39
     508                       1       1                               0D     40
     508      22                                                00010000D     41
     508                       1       1                               0D     42
     508      23                                                00010000D     43
     508                       1       1                               0D     44
     508      24                                                00010000D     45
     508                       2       1                               0D     46
     508      26                                                00010000D     47
     508                       1       1                               0D     48
     508      27                                                00010000D     49
     508                       1       1                               0D     50
     508      28                                                00010000D     51
     508                       1       1                               0D     52
     508      29                                                00010000D     53
     508                       1       1                               0D     54
     508      30                                                00010000D     55
     508                       1       1                               0D     56
     508      31                                                00010000D     57
     508                       1       1                               0D     58
     508      32                                                00010000D     59
     508                       1       1                               0D     60
     508      33                                                00010000D     61
     508                       1       1                               0D     62
     508      34                                                00010000D     63
     508                       1       1                               0D     64
     508      35                                                00010000D     65
     508                       2       1                               0D     66
     126      37                                                00010000D     67
     126       0               3       0                               0D     68
     126      40                                                00010000D     69
     126       0               3       0                               0D     70
     126      43                                                00010000D     71
     126       0               2       0                               0D     72
     126      45                                                00010000D     73
     126       0               6       0                               0D     74
     126      51                                                00010000D     75
     126       0               2       0                               0D     76
     126      53                                                00010000D     77
     126       0               3       0                               0D     78
     126      56                                                00010000D     79
     126       0               7       0                               0D     80
     126      63                                                00010000D     81
     126       0               6       0                               0D     82
     126      69                                                00010000D     83
     126       0               6       0                               0D     84
     126      75                                                00010000D     85
     126       0               2       0                               0D     86
     126      77                                                00010000D     87
     126       0               4       0                               0D     88
     126      81                                                00010000D     89
     126       0               2       0                               0D     90
     126      83                                                00010000D     91
     126       0               2       0                               0D     92
     126      85                                                00010000D     93
     126       0               3       0                               0D     94
     126      88                                                00010000D     95
     126       0               8       0                               0D     96
     126      96                                                00010000D     97
     126       0               3       0                               0D     98
     126      99                                                00010000D     99
     126       0               5       0                               0D    100
     126     104                                                00010000D    101
     126       0               2       0                               0D    102
     126     106                                                00010000D    103
     126       0               7       0                               0D    104
     126     113                                                00010000D    105
     126       0               5       0                               0D    106
     126     118                                                00010000D    107
     126       0               3       0                               0D    108
     126     121                                                00010000D    109
     126       0               7       0                               0D    110
     126     128                                                00010000D    111
     126       0               2       0                               0D    112
     126     130                                                00010000D    113
     126       0               3       0                               0D    114
     126     133                                                00010000D    115
     126       0               5       0                               0D    116
     126     138                                                00010000D    117
     126       0               2       0                               0D    118
     126     140                                                00010000D    119
     126       0               8       0                               0D    120
     126     148                                                00010000D    121
     126       0               2       0                               0D    122
     126     150                                                00010000D    123
     126       0               2       0                               0D    124
     126     152                                                00010000D    125
     126       0               2       0                               0D    126
     126     154                                                00010000D    127
     126       0               5       0                               0D    128
     126     159                                                00010000D    129
     126       0               2       0                               0D    130
     126     161                                                00010000D    131
     126       0               3       0                               0D    132
     128     164                                                00010000D    133
     128       0    -169       8       0                               0D    134
     128     172                                                00010000D    135
     128       0    -169       8       0                               0D    136
     128     180                                                00010000D    137
     128       0    -169      11       0                               0D    138
     128     191                                                00010000D    139
     128       0    -169       7       0                               0D    140
     128     198                                                00010000D    141
     128       0    -169       4       0                               0D    142
     128     202                                                00010000D    143
     128       0    -169       6       0                               0D    144
     128     208                                                00010000D    145
     128       0    -169      11       0                               0D    146
     128     219                                                00010000D    147
     128       0    -169       8       0                               0D    148
     128     227                                                00010000D    149
     128       0    -169      11       0                               0D    150
     128     238                                                00010000D    151
     128       0    -169       3       0                               0D    152
     128     241                                                00010000D    153
     128       0    -169       7       0                               0D    154
     128     248                                                00010000D    155
     128       0    -169       3       0                               0D    156
     128     251                                                00010000D    157
     128       0    -169       4       0                               0D    158
     128     255                                                00010000D    159
     128       0    -169       5       0                               0D    160
     128     260                                                00010000D    161
     128       0    -169       6       0                               0D    162
     502     266                                                00010000D    163
     502                       8       1                               0D    164
     504     274                                                00010001D    165
     504                       9       1                               0D    166
     406     283                                                00000000D    167
     406                       1      15                               0D    168
     314     284                                                00000200D    169
     314                       2       0                               0D    170
186,3,1,0,0,1,167;                                                     1P      1
514,15,5,1,7,1,9,1,11,1,13,1,15,1,17,1,19,1,21,1,23,1,25,1,27,1,       3P      2
29,1,31,1,33,1;                                                        3P      3
510,133,1,1,35;                                                        5P      4
510,135,1,1,37;                                                        7P      5
510,137,1,1,39;                                                        9P      6
510,139,1,1,41;                                                       11P      7
510,141,1,1,43;                                                       13P      8
510,143,2,1,45,47;                                                    15P      9
510,145,1,1,49;                                                       17P     10
510,147,1,1,51;                                                       19P     11
510,149,1,1,53;                                                       21P     12
510,151,1,1,55;                                                       23P     13
510,153,1,1,57;                                                       25P     14
510,155,1,1,59;                                                       27P     15
510,157,1,1,61;                                                       29P     16
510,159,1,1,63;                                                       31P     17
510,161,1,1,65;                                                       33P     18
508,4,0,165,1,1,0,0,165,2,1,0,0,165,3,1,0,0,165,4,1,0;                35P     19
508,4,0,165,5,1,0,0,165,2,0,0,0,165,6,1,0,0,165,7,0,0;                37P     20
508,4,0,165,8,1,0,0,165,4,0,0,0,165,9,1,0,0,165,7,1,0;                39P     21
508,4,0,165,9,0,0,0,165,10,0,0,0,165,11,0,0,0,165,12,1,0;             41P     22
508,4,0,165,3,0,0,0,165,13,0,0,0,165,14,0,0,0,165,10,1,0;             43P     23
508,6,0,165,15,0,0,0,165,16,1,0,0,165,17,0,0,0,165,18,1,0,0,165,      45P     24
19,0,0,0,165,20,1,0;                                                  45P     25
508,3,0,165,1,0,0,0,165,8,0,0,0,165,6,0,0;                            47P     26
508,4,0,165,15,1,0,0,165,21,1,0,0,165,22,1,0,0,165,23,1,0;            49P     27
508,4,0,165,21,0,0,0,165,20,0,0,0,165,24,0,0,0,165,25,1,0;            51P     28
508,4,0,165,19,1,0,0,165,26,1,0,0,165,27,1,0,0,165,24,1,0;            53P     29
508,4,0,165,26,0,0,0,165,18,0,0,0,165,28,0,0,0,165,29,1,0;            55P     30
508,4,0,165,17,1,0,0,165,30,1,0,0,165,31,1,0,0,165,28,1,0;            57P     31
508,4,0,165,5,0,0,0,165,12,0,0,0,165,32,0,0,0,165,13,1,0;             59P     32
508,3,0,165,32,1,0,0,165,11,1,0,0,165,14,1,0;                         61P     33
508,4,0,165,23,0,0,0,165,33,1,0,0,165,30,0,0,0,165,16,0,0;            63P     34
508,6,0,165,22,0,0,0,165,25,0,0,0,165,27,0,0,0,165,29,0,0,0,165,      65P     35
31,0,0,0,165,33,0,0;                                                  65P     36
126,1,1,0,0,1,0,-0.890138383215314,-0.890138383215314,2.52,2.52,      67P     37
1.,1.,-0.45,33.6513838321531,4.5,-0.45,-0.449999999999999,4.5,        67P     38
-0.890138383215314,2.52,0.,0.,0.;                                     67P     39
126,1,1,0,0,1,0,0.,0.,0.0779422863405995,0.0779422863405995,1.,       69P     40
1.,-0.45,-0.45,4.5,-6.93889390390723D-17,-6.93889390390723D-17,       69P     41
4.05,0.,0.0779422863405995,0.,0.,0.;                                  69P     42
126,1,1,0,0,1,0,-2.475,-2.475,0.825,0.825,1.,1.,0.,0.,4.05,0.,        71P     43
33.,4.05,-2.475,0.825,0.,0.,0.;                                       71P     44
126,3,3,0,0,1,0,-0.0910653838877013,-0.0910653838877013,              73P     45
-0.0910653838877013,-0.0910653838877013,0.,0.,0.,0.,1.,1.,1.,1.,      73P     46
4.37150315946155D-15,33.,4.05,-0.149533856844299,                     73P     47
33.2177673855398,4.1995338568443,-0.299539844965227,                  73P     48
33.4348962739513,4.34953984496523,-0.449999999999998,                 73P     49
33.6513838321531,4.5,-0.0910653838877013,0.,0.,0.,0.;                 73P     50
126,1,1,0,0,1,0,-2.475,-2.475,0.825,0.825,1.,1.,33.,0.,4.05,0.,       75P     51
0.,4.05,-2.475,0.825,0.,0.,0.;                                        75P     52
126,1,1,0,0,1,0,-0.87,-0.87,2.54013838321531,2.54013838321531,        77P     53
1.,1.,-0.45,-0.45,4.5,33.6513838321531,-0.45,4.5,-0.87,               77P     54
2.54013838321531,0.,0.,0.;                                            77P     55
126,3,3,0,0,1,0,-0.0910653838874581,-0.0910653838874581,              79P     56
-0.0910653838874581,-0.0910653838874581,0.,0.,0.,0.,1.,1.,1.,1.,      79P     57
33.,-4.44089209850063D-15,4.04999999999999,33.2177673855401,          79P     58
-0.149533856844503,4.19953385684449,33.4348962739518,                 79P     59
-0.299539844965634,4.34953984496562,33.6513838321531,                 79P     60
-0.450000000000004,4.49999999999999,-0.0910653838874581,0.,0.,        79P     61
0.,0.;                                                                79P     62
126,2,2,0,0,0,0,-0.0112887702254017,-0.0112887702254017,              81P     63
-0.0112887702254017,0.847380610587657,0.847380610587657,              81P     64
0.847380610587657,1.,0.909242896627656,1.,33.6513838321531,           81P     65
-0.450000000000008,4.5,24.4067718729454,24.4067718729454,4.5,         81P     66
-0.449999999999995,33.6513838321531,4.5,-0.0112887702254017,          81P     67
0.847380610587657,0.,0.,0.;                                           81P     68
126,2,2,0,0,0,0,-0.836091840362255,-0.836091840362255,                83P     69
-0.836091840362255,-5.37689830938162D-17,-5.37689830938162D-17,       83P     70
-5.37689830938162D-17,1.,0.913883992995876,1.,                        83P     71
1.33226762955019D-14,33.,4.05,23.8298083752493,23.8298083752493,      83P     72
4.05,33.,0.,4.05,-0.836091840362255,-5.37689830938162D-17,0.,0.,      83P     73
0.;                                                                   83P     74
126,1,1,0,0,1,0,0.,0.,0.255,0.255,1.,1.,8.88178419700125D-15,         85P     75
33.,1.5,8.88178419700125D-15,33.,4.05,0.,0.255,0.,0.,0.;              85P     76
126,2,2,0,0,0,0,0.,0.,0.,0.836091840362255,0.836091840362255,         87P     77
0.836091840362255,1.,0.913883992995877,1.,33.,0.,1.5,                 87P     78
23.8298083752493,23.8298083752493,1.5,1.33226762955019D-14,33.,       87P     79
1.5,0.,0.836091840362255,0.,0.,0.;                                    87P     80
126,1,1,0,0,1,0,0.,0.,0.255,0.255,1.,1.,33.,0.,1.5,33.,0.,4.05,       89P     81
0.,0.255,0.,0.,0.;                                                    89P     82
126,1,1,0,0,1,0,0.,0.,0.255,0.255,1.,1.,0.,0.,1.5,0.,0.,4.05,0.,      91P     83
0.255,0.,0.,0.;                                                       91P     84
126,1,1,0,0,1,0,4.44089209850063D-16,4.44089209850063D-16,3.3,        93P     85
3.3,1.,1.,0.,33.,1.5,0.,0.,1.5,4.44089209850063D-16,3.3,0.,0.,        93P     86
0.;                                                                   93P     87
126,4,2,0,0,0,0,-0.969074285005607,-0.969074285005607,                95P     88
-0.969074285005607,1.88737914186277D-15,1.88737914186277D-15,         95P     89
0.96907428500561,0.96907428500561,0.96907428500561,1.,                95P     90
0.88489064237017,1.,0.88489064237013,1.,-1.,33.,4.5,-1.,              95P     91
33.5263914079183,4.5,-0.566062897908584,33.8243620537187,4.5,         95P     92
-0.132125795817167,34.1223326995191,4.5,0.359145591222672,            95P     93
33.9332815461078,4.5,-0.969074285005607,0.96907428500561,0.,0.,       95P     94
0.;                                                                   95P     95
126,1,1,0,0,1,0,-0.825000000000001,-0.825000000000001,2.475,          97P     96
2.475,1.,1.,-1.,33.,4.5,-1.,0.,4.5,-0.825000000000001,2.475,0.,       97P     97
0.,0.;                                                                97P     98
126,2,2,0,0,0,0,-0.785398163397448,-0.785398163397448,                99P     99
-0.785398163397448,0.785398163397448,0.785398163397448,               99P    100
0.785398163397448,1.,0.707106781186547,1.,-6.93889390390723D-17,      99P    101
-1.,4.5,-1.,-1.,4.5,-1.,-6.93889390390723D-17,4.5,                    99P    102
-0.785398163397448,0.785398163397448,0.,0.,0.;                        99P    103
126,1,1,0,0,1,0,-0.825,-0.825,2.475,2.475,1.,1.,0.,-1.,4.5,33.,      101P    104
-1.,4.5,-0.825,2.475,0.,0.,0.;                                       101P    105
126,4,2,0,0,0,0,-0.96907428500561,-0.96907428500561,                 103P    106
-0.96907428500561,-1.88737914186277D-15,-1.88737914186277D-15,       103P    107
0.969074285005607,0.969074285005607,0.969074285005607,1.,            103P    108
0.88489064237013,1.,0.88489064237017,1.,33.9332815461078,            103P    109
0.359145591222672,4.5,34.1223326995191,-0.132125795817167,4.5,       103P    110
33.8243620537187,-0.566062897908584,4.5,33.5263914079183,-1.,        103P    111
4.5,33.,-1.,4.5,-0.96907428500561,0.969074285005607,0.,0.,0.;        103P    112
126,2,2,0,0,0,0,0.,0.,0.,0.836091840362256,0.836091840362256,        105P    113
0.836091840362256,1.,0.913883992995876,1.,33.9332815461078,          105P    114
0.359145591222672,4.5,24.6035463842372,24.6035463842372,4.5,         105P    115
0.359145591222676,33.9332815461078,4.5,0.,0.836091840362256,0.,      105P    116
0.,0.;                                                               105P    117
126,1,1,0,0,1,0,-0.45,-0.45,0.,0.,1.,1.,0.359145591222672,           107P    118
33.9332815461078,4.5,0.359145591222672,33.9332815461078,0.,          107P    119
-0.45,0.,0.,0.,0.;                                                   107P    120
126,4,2,0,0,0,0,-0.96907428500561,-0.96907428500561,                 109P    121
-0.96907428500561,-1.88737914186277D-15,-1.88737914186277D-15,       109P    122
0.969074285005607,0.969074285005607,0.969074285005607,1.,            109P    123
0.88489064237013,1.,0.88489064237017,1.,0.359145591222672,           109P    124
33.9332815461078,0.,-0.132125795817167,34.1223326995191,0.,          109P    125
-0.566062897908584,33.8243620537187,0.,-1.,33.5263914079183,0.,      109P    126
-1.,33.,0.,-0.96907428500561,0.969074285005607,0.,0.,0.;             109P    127
126,1,1,0,0,1,0,0.,0.,0.45,0.45,1.,1.,-1.,33.,0.,-1.,33.,4.5,0.,     111P    128
0.45,0.,0.,0.;                                                       111P    129
126,1,1,0,0,1,0,0.,0.,0.45,0.45,1.,1.,33.9332815461078,              113P    130
0.359145591222672,0.,33.9332815461078,0.359145591222672,4.5,0.,      113P    131
0.45,0.,0.,0.;                                                       113P    132
126,2,2,0,0,0,0,0.,0.,0.,0.836091840362256,0.836091840362256,        115P    133
0.836091840362256,1.,0.913883992995876,1.,33.9332815461078,          115P    134
0.359145591222672,0.,24.6035463842372,24.6035463842372,0.,           115P    135
0.359145591222676,33.9332815461078,0.,0.,0.836091840362256,0.,       115P    136
0.,0.;                                                               115P    137
126,1,1,0,0,1,0,-0.45,-0.45,0.,0.,1.,1.,33.,-1.,4.5,33.,-1.,0.,      117P    138
-0.45,0.,0.,0.,0.;                                                   117P    139
126,4,2,0,0,0,0,-0.969074285005607,-0.969074285005607,               119P    140
-0.969074285005607,1.88737914186277D-15,1.88737914186277D-15,        119P    141
0.96907428500561,0.96907428500561,0.96907428500561,1.,               119P    142
0.88489064237017,1.,0.88489064237013,1.,33.,-1.,0.,                  119P    143
33.5263914079183,-1.,0.,33.8243620537187,-0.566062897908584,0.,      119P    144
34.1223326995191,-0.132125795817167,0.,33.9332815461078,             119P    145
0.359145591222672,0.,-0.969074285005607,0.96907428500561,0.,0.,      119P    146
0.;                                                                  119P    147
126,1,1,0,0,1,0,0.,0.,0.45,0.45,1.,1.,0.,-1.,0.,0.,-1.,4.5,0.,       121P    148
0.45,0.,0.,0.;                                                       121P    149
126,1,1,0,0,1,0,-0.825,-0.825,2.475,2.475,1.,1.,0.,-1.,0.,33.,       123P    150
-1.,0.,-0.825,2.475,0.,0.,0.;                                        123P    151
126,1,1,0,0,1,0,-0.45,-0.45,0.,0.,1.,1.,-1.,0.,4.5,-1.,0.,0.,        125P    152
-0.45,0.,0.,0.,0.;                                                   125P    153
126,2,2,0,0,0,0,-0.785398163397448,-0.785398163397448,               127P    154
-0.785398163397448,0.785398163397448,0.785398163397448,              127P    155
0.785398163397448,1.,0.707106781186547,1.,-1.,                       127P    156
-6.93889390390723D-17,0.,-1.,-1.,0.,-6.93889390390723D-17,-1.,       127P    157
0.,-0.785398163397448,0.785398163397448,0.,0.,0.;                    127P    158
126,1,1,0,0,1,0,0.,0.,3.3,3.3,1.,1.,0.,0.,1.5,33.,0.,1.5,0.,3.3,     129P    159
0.,0.,0.;                                                            129P    160
126,1,1,0,0,1,0,-0.825000000000001,-0.825000000000001,2.475,         131P    161
2.475,1.,1.,-1.,33.,0.,-1.,0.,0.,-0.825000000000001,2.475,0.,0.,     131P    162
0.;                                                                  131P    163
128,1,1,1,1,0,0,1,0,0,-0.0328198051533947,-0.0328198051533947,       133P    164
0.0328198051533952,0.0328198051533952,-2.521,-2.521,                 133P    165
0.891138383215314,0.891138383215314,1.,1.,1.,1.,                     133P    166
-0.457071067811866,-0.459999999999998,4.50707106781187,              133P    167
0.00707106781186975,-0.459999999999998,4.04292893218813,             133P    168
-0.457071067811866,33.6613838321531,4.50707106781187,                133P    169
0.00707106781186975,33.6613838321531,4.04292893218813,               133P    170
-0.0328198051533947,0.0328198051533952,-2.521,0.891138383215314;     133P    171
128,1,1,1,1,0,0,1,0,0,-0.871,-0.871,2.54113838321531,                135P    172
2.54113838321531,-0.0328198051533947,-0.0328198051533947,            135P    173
0.0328198051533947,0.0328198051533947,1.,1.,1.,1.,-0.46,             135P    174
-0.457071067811866,4.50707106781187,33.6613838321531,                135P    175
-0.457071067811866,4.50707106781187,-0.46,0.00707106781186587,       135P    176
4.04292893218813,33.6613838321531,0.00707106781186587,               135P    177
4.04292893218813,-0.871,2.54113838321531,-0.0328198051533947,        135P    178
0.0328198051533947;                                                  135P    179
128,1,2,1,2,0,0,0,0,0,-0.00551444191819255,-0.00551444191819255,     137P    180
0.00551444191819229,0.00551444191819229,-0.0112887702254016,         137P    181
-0.0112887702254016,-0.0112887702254016,0.847380610587657,           137P    182
0.847380610587657,0.847380610587657,1.,1.,0.909242896627655,         137P    183
0.909242896627655,1.,1.,33.2296094945897,-0.606864298592611,         137P    184
4.04999999999999,33.6513838321531,-0.450000000000004,4.5,            137P    185
24.0568125246633,24.0568125246633,4.04999999999999,                  137P    186
24.4067718729454,24.4067718729454,4.5,-0.606864298592593,            137P    187
33.2296094945897,4.04999999999999,-0.449999999999986,                137P    188
33.6513838321531,4.5,-0.00551444191819255,0.00551444191819229,       137P    189
-0.0112887702254016,0.847380610587657;                               137P    190
128,1,2,1,2,0,0,0,0,0,0.,0.,0.0443650510593033,                      139P    191
0.0443650510593033,0.,0.,0.,0.836091840362255,0.836091840362255,     139P    192
0.836091840362255,1.,1.,0.913883992995876,0.913883992995876,1.,      139P    193
1.,33.,0.,1.5,33.,0.,4.05,23.8298083752493,23.8298083752493,1.5,     139P    194
23.8298083752493,23.8298083752493,4.05,1.33226762955019D-14,33.,     139P    195
1.5,1.33226762955019D-14,33.,4.05,0.,0.0443650510593033,0.,          139P    196
0.836091840362255;                                                   139P    197
128,1,1,1,1,0,0,1,0,0,-0.00100000000000044,-0.00100000000000044,     141P    198
3.301,3.301,-0.001,-0.001,0.256,0.256,1.,1.,1.,1.,0.,                141P    199
-0.0099999999999989,1.49,0.,33.01,1.49,0.,-0.0099999999999989,       141P    200
4.06,0.,33.01,4.06,-0.00100000000000044,3.301,-0.001,0.256;          141P    201
128,1,1,1,1,0,0,1,0,0,-1.751,-1.751,1.76323326995191,                143P    202
1.76323326995191,-1.751,-1.751,1.76323326995191,                     143P    203
1.76323326995191,1.,1.,1.,1.,-1.01,-1.01,4.5,34.1323326995191,       143P    204
-1.01,4.5,-1.01,34.1323326995191,4.5,34.1323326995191,               143P    205
34.1323326995191,4.5,-1.751,1.76323326995191,-1.751,                 143P    206
1.76323326995191;                                                    143P    207
128,1,4,1,2,0,0,0,0,0,0.,0.,4.5,4.5,-0.96907428500561,               145P    208
-0.96907428500561,-0.96907428500561,-2.22044604925031D-16,           145P    209
-2.22044604925031D-16,0.969074285005607,0.969074285005607,           145P    210
0.969074285005607,1.,1.,0.88489064237017,0.88489064237017,1.,1.,     145P    211
0.88489064237017,0.88489064237017,1.,1.,0.359145591222674,           145P    212
33.9332815461078,4.5,0.359145591222674,33.9332815461078,0.,          145P    213
-0.132125795817168,34.1223326995191,4.5,-0.132125795817168,          145P    214
34.1223326995191,0.,-0.566062897908586,33.8243620537187,4.5,         145P    215
-0.566062897908586,33.8243620537187,0.,-1.,33.5263914079183,4.5,     145P    216
-1.,33.5263914079183,0.,-1.,33.,4.5,-1.,33.,0.,0.,4.5,               145P    217
-0.96907428500561,0.969074285005607;                                 145P    218
128,1,2,1,2,0,0,0,0,0,0.,0.,0.0782912665752411,                      147P    219
0.0782912665752411,0.,0.,0.,0.836091840362256,0.836091840362256,     147P    220
0.836091840362256,1.,1.,0.913883992995876,0.913883992995876,1.,      147P    221
1.,33.9332815461078,0.359145591222672,4.5,33.9332815461078,          147P    222
0.359145591222672,0.,24.6035463842372,24.6035463842372,4.5,          147P    223
24.6035463842372,24.6035463842372,0.,0.359145591222672,              147P    224
33.9332815461078,4.5,0.359145591222672,33.9332815461078,0.,0.,       147P    225
0.0782912665752411,0.,0.836091840362256;                             147P    226
128,1,4,1,2,0,0,0,0,0,0.,0.,4.5,4.5,-0.969074285005607,              149P    227
-0.969074285005607,-0.969074285005607,1.11022302462516D-16,          149P    228
1.11022302462516D-16,0.96907428500561,0.96907428500561,              149P    229
0.96907428500561,1.,1.,0.88489064237017,0.88489064237017,1.,1.,      149P    230
0.88489064237017,0.88489064237017,1.,1.,33.,-1.,4.5,33.,-1.,0.,      149P    231
33.5263914079183,-1.,4.5,33.5263914079183,-1.,0.,                    149P    232
33.8243620537187,-0.566062897908586,4.5,33.8243620537187,            149P    233
-0.566062897908586,0.,34.1223326995191,-0.132125795817168,4.5,       149P    234
34.1223326995191,-0.132125795817168,0.,33.9332815461078,             149P    235
0.359145591222674,4.5,33.9332815461078,0.359145591222674,0.,0.,      149P    236
4.5,-0.969074285005607,0.96907428500561;                             149P    237
128,1,1,1,1,0,0,1,0,0,-0.001,-0.001,3.301,3.301,-0.001,-0.001,       151P    238
0.451,0.451,1.,1.,1.,1.,-0.01,-1.,-0.01,33.01,-1.,-0.01,-0.01,       151P    239
-1.,4.51,33.01,-1.,4.51,-0.001,3.301,-0.001,0.451;                   151P    240
128,1,2,1,2,0,0,0,0,0,0.,0.,4.5,4.5,-0.785398163397448,              153P    241
-0.785398163397448,-0.785398163397448,0.785398163397448,             153P    242
0.785398163397448,0.785398163397448,1.,1.,0.707106781186548,         153P    243
0.707106781186548,1.,1.,-1.,-6.93889390390723D-17,4.5,-1.,           153P    244
-6.93889390390723D-17,0.,-1.,-1.,4.5,-1.,-1.,0.,                     153P    245
-6.93889390390723D-17,-1.,4.5,-6.93889390390723D-17,-1.,0.,0.,       153P    246
4.5,-0.785398163397448,0.785398163397448;                            153P    247
128,1,1,1,1,0,0,1,0,0,-0.001,-0.001,3.301,3.301,-0.001,-0.001,       155P    248
0.256,0.256,1.,1.,1.,1.,33.01,0.,1.49,-0.01,0.,1.49,33.01,0.,        155P    249
4.06,-0.01,0.,4.06,-0.001,3.301,-0.001,0.256;                        155P    250
128,1,1,1,1,0,0,1,0,0,-1.651,-1.651,1.651,1.651,-1.651,-1.651,       157P    251
1.651,1.651,1.,1.,1.,1.,-0.0099999999999989,-0.0099999999999989,     157P    252
1.5,33.01,-0.0099999999999989,1.5,-0.0099999999999989,33.01,1.5,     157P    253
33.01,33.01,1.5,-1.651,1.651,-1.651,1.651;                           157P    254
128,1,1,1,1,0,0,1,0,0,-0.00100000000000089,-0.00100000000000089,     159P    255
3.301,3.301,-0.001,-0.001,0.451,0.451,1.,1.,1.,1.,-1.,33.01,         159P    256
-0.01,-1.,-0.0099999999999989,-0.01,-1.,33.01,4.51,-1.,              159P    257
-0.0099999999999989,4.51,-0.00100000000000089,3.301,-0.001,          159P    258
0.451;                                                               159P    259
128,1,1,1,1,0,0,1,0,0,-1.751,-1.751,1.76323326995191,                161P    260
1.76323326995191,-1.751,-1.751,1.76323326995191,                     161P    261
1.76323326995191,1.,1.,1.,1.,34.1323326995191,-1.01,0.,-1.01,        161P    262
-1.01,0.,34.1323326995191,34.1323326995191,0.,-1.01,                 161P    263
34.1323326995191,0.,-1.751,1.76323326995191,-1.751,                  161P    264
1.76323326995191;                                                    161P    265
502,21,-0.45,33.6513838321531,4.5,-0.45,-0.45,4.5,0.,0.,4.05,        163P    266
8.88178419700125D-15,33.,4.05,33.,0.,4.05,33.6513838321531,          163P    267
-0.450000000000004,4.5,8.88178419700125D-15,33.,1.5,33.,0.,1.5,      163P    268
0.,0.,1.5,-1.,33.,4.5,0.359145591222672,33.9332815461078,4.5,        163P    269
-1.,0.,4.5,0.,-1.,4.5,33.,-1.,4.5,33.9332815461078,                  163P    270
0.359145591222672,4.5,0.359145591222672,33.9332815461078,0.,-1.,     163P    271
33.,0.,33.9332815461078,0.359145591222672,0.,33.,-1.,0.,0.,-1.,      163P    272
0.,-1.,0.,0.;                                                        163P    273
504,33,67,163,1,163,2,69,163,2,163,3,71,163,3,163,4,73,163,4,        165P    274
163,1,75,163,5,163,3,77,163,2,163,6,79,163,5,163,6,81,163,6,163,     165P    275
1,83,163,4,163,5,85,163,7,163,4,87,163,8,163,7,89,163,8,163,5,       165P    276
91,163,9,163,3,93,163,7,163,9,95,163,10,163,11,97,163,10,163,12,     165P    277
99,163,13,163,12,101,163,13,163,14,103,163,15,163,14,105,163,15,     165P    278
163,11,107,163,11,163,16,109,163,16,163,17,111,163,17,163,10,        165P    279
113,163,18,163,15,115,163,18,163,16,117,163,14,163,19,119,163,       165P    280
19,163,18,121,163,20,163,13,123,163,20,163,19,125,163,12,163,21,     165P    281
127,163,21,163,20,129,163,9,163,8,131,163,17,163,21;                 165P    282
406,1,5HBody1;                                                       167P    283
314,62.7450980392157,62.7450980392157,62.7450980392157,13HSteel      169P    284
- Satin;                                                             169P    285
S      1G      3D    170P    285                                        T      1
