                                                                        S      1
,,15HCam Halter 3 v4,15HCam Halter 3 v4,7Hunknown,7Hunknown,32,38,7,99, G      1
15,,1.,2,2HMM,1,0.08,15H20220922.114700,0.01,10000.,7Hunknown,7Hunknown,G      2
11,0,15H20220519.082425;                                                G      3
     186       1                                                00000000D      1
     186            -185       1       0                               0D      2
     514       2                                                00010000D      3
     514                       2       1                               0D      4
     510       4                                                00010000D      5
     510            -185       1       1                               0D      6
     510       5                                                00010000D      7
     510            -185       1       1                               0D      8
     510       6                                                00010000D      9
     510            -185       1       1                               0D     10
     510       7                                                00010000D     11
     510            -185       1       1                               0D     12
     510       8                                                00010000D     13
     510            -185       1       1                               0D     14
     510       9                                                00010000D     15
     510            -185       1       1                               0D     16
     510      10                                                00010000D     17
     510            -185       1       1                               0D     18
     510      11                                                00010000D     19
     510            -185       1       1                               0D     20
     510      12                                                00010000D     21
     510            -185       1       1                               0D     22
     510      13                                                00010000D     23
     510            -185       1       1                               0D     24
     510      14                                                00010000D     25
     510            -185       1       1                               0D     26
     510      15                                                00010000D     27
     510            -185       1       1                               0D     28
     510      16                                                00010000D     29
     510            -185       1       1                               0D     30
     510      17                                                00010000D     31
     510            -185       1       1                               0D     32
     510      18                                                00010000D     33
     510            -185       1       1                               0D     34
     508      19                                                00010000D     35
     508                       2       1                               0D     36
     508      21                                                00010000D     37
     508                       2       1                               0D     38
     508      23                                                00010000D     39
     508                       1       1                               0D     40
     508      24                                                00010000D     41
     508                       1       1                               0D     42
     508      25                                                00010000D     43
     508                       1       1                               0D     44
     508      26                                                00010000D     45
     508                       1       1                               0D     46
     508      27                                                00010000D     47
     508                       1       1                               0D     48
     508      28                                                00010000D     49
     508                       2       1                               0D     50
     508      30                                                00010000D     51
     508                       1       1                               0D     52
     508      31                                                00010000D     53
     508                       1       1                               0D     54
     508      32                                                00010000D     55
     508                       1       1                               0D     56
     508      33                                                00010000D     57
     508                       1       1                               0D     58
     508      34                                                00010000D     59
     508                       1       1                               0D     60
     508      35                                                00010000D     61
     508                       1       1                               0D     62
     508      36                                                00010000D     63
     508                       1       1                               0D     64
     508      37                                                00010000D     65
     508                       1       1                               0D     66
     508      38                                                00010000D     67
     508                       1       1                               0D     68
     508      39                                                00010000D     69
     508                       2       1                               0D     70
     508      41                                                00010000D     71
     508                       1       1                               0D     72
     508      42                                                00010000D     73
     508                       2       1                               0D     74
     126      44                                                00010000D     75
     126       0               9       0                               0D     76
     126      53                                                00010000D     77
     126       0               2       0                               0D     78
     126      55                                                00010000D     79
     126       0               5       0                               0D     80
     126      60                                                00010000D     81
     126       0               7       0                               0D     82
     126      67                                                00010000D     83
     126       0               8       0                               0D     84
     126      75                                                00010000D     85
     126       0               2       0                               0D     86
     126      77                                                00010000D     87
     126       0               5       0                               0D     88
     126      82                                                00010000D     89
     126       0               7       0                               0D     90
     126      89                                                00010000D     91
     126       0               4       0                               0D     92
     126      93                                                00010000D     93
     126       0               2       0                               0D     94
     126      95                                                00010000D     95
     126       0               4       0                               0D     96
     126      99                                                00010000D     97
     126       0               2       0                               0D     98
     126     101                                                00010000D     99
     126       0               2       0                               0D    100
     126     103                                                00010000D    101
     126       0               2       0                               0D    102
     126     105                                                00010000D    103
     126       0               2       0                               0D    104
     126     107                                                00010000D    105
     126       0               2       0                               0D    106
     126     109                                                00010000D    107
     126       0               2       0                               0D    108
     126     111                                                00010000D    109
     126       0               2       0                               0D    110
     126     113                                                00010000D    111
     126       0               2       0                               0D    112
     126     115                                                00010000D    113
     126       0               2       0                               0D    114
     126     117                                                00010000D    115
     126       0               2       0                               0D    116
     126     119                                                00010000D    117
     126       0               2       0                               0D    118
     126     121                                                00010000D    119
     126       0               2       0                               0D    120
     126     123                                                00010000D    121
     126       0               2       0                               0D    122
     126     125                                                00010000D    123
     126       0               2       0                               0D    124
     126     127                                                00010000D    125
     126       0               2       0                               0D    126
     126     129                                                00010000D    127
     126       0               2       0                               0D    128
     126     131                                                00010000D    129
     126       0               2       0                               0D    130
     126     133                                                00010000D    131
     126       0               2       0                               0D    132
     126     135                                                00010000D    133
     126       0               2       0                               0D    134
     126     137                                                00010000D    135
     126       0               5       0                               0D    136
     126     142                                                00010000D    137
     126       0               9       0                               0D    138
     126     151                                                00010000D    139
     126       0               3       0                               0D    140
     126     154                                                00010000D    141
     126       0               9       0                               0D    142
     126     163                                                00010000D    143
     126       0               9       0                               0D    144
     126     172                                                00010000D    145
     126       0               2       0                               0D    146
     126     174                                                00010000D    147
     126       0               5       0                               0D    148
     128     179                                                00010000D    149
     128       0    -185      13       0                               0D    150
     128     192                                                00010000D    151
     128       0    -185      13       0                               0D    152
     128     205                                                00010000D    153
     128       0    -185       6       0                               0D    154
     128     211                                                00010000D    155
     128       0    -185       5       0                               0D    156
     128     216                                                00010000D    157
     128       0    -185       5       0                               0D    158
     128     221                                                00010000D    159
     128       0    -185       3       0                               0D    160
     128     224                                                00010000D    161
     128       0    -185       3       0                               0D    162
     128     227                                                00010000D    163
     128       0    -185       3       0                               0D    164
     128     230                                                00010000D    165
     128       0    -185       4       0                               0D    166
     128     234                                                00010000D    167
     128       0    -185       3       0                               0D    168
     128     237                                                00010000D    169
     128       0    -185      13       0                               0D    170
     128     250                                                00010000D    171
     128       0    -185       3       0                               0D    172
     128     253                                                00010000D    173
     128       0    -185      11       0                               0D    174
     128     264                                                00010000D    175
     128       0    -185       3       0                               0D    176
     128     267                                                00010000D    177
     128       0    -185       3       0                               0D    178
     502     270                                                00010000D    179
     502                       7       1                               0D    180
     504     277                                                00010001D    181
     504                      11       1                               0D    182
     406     288                                                00000000D    183
     406                       1      15                               0D    184
     314     289                                                00000200D    185
     314                       2       0                               0D    186
186,3,1,0,0,1,183;                                                     1P      1
514,15,5,1,7,1,9,1,11,1,13,1,15,1,17,1,19,1,21,1,23,1,25,1,27,1,       3P      2
29,1,31,1,33,1;                                                        3P      3
510,149,1,1,35;                                                        5P      4
510,151,1,1,37;                                                        7P      5
510,153,3,1,39,41,43;                                                  9P      6
510,155,1,1,45;                                                       11P      7
510,157,1,1,47;                                                       13P      8
510,159,3,1,49,51,53;                                                 15P      9
510,161,1,1,55;                                                       17P     10
510,163,1,1,57;                                                       19P     11
510,165,1,1,59;                                                       21P     12
510,167,1,1,61;                                                       23P     13
510,169,1,1,63;                                                       25P     14
510,171,2,1,65,67;                                                    27P     15
510,173,1,1,69;                                                       29P     16
510,175,1,1,71;                                                       31P     17
510,177,1,1,73;                                                       33P     18
508,5,0,181,1,0,0,0,181,2,1,0,0,181,3,0,0,0,181,4,0,0,0,181,2,0,      35P     19
0;                                                                    35P     20
508,5,0,181,5,0,0,0,181,6,1,0,0,181,7,0,0,0,181,8,0,0,0,181,6,0,      37P     21
0;                                                                    37P     22
508,4,0,181,9,1,0,0,181,10,1,0,0,181,11,1,0,0,181,12,0,0;             39P     23
508,2,0,181,3,1,0,0,181,4,1,0;                                        41P     24
508,2,0,181,7,1,0,0,181,8,1,0;                                        43P     25
508,4,0,181,11,0,0,0,181,13,0,0,0,181,14,1,0,0,181,15,0,0;            45P     26
508,4,0,181,9,0,0,0,181,16,0,0,0,181,17,0,0,0,181,18,0,0;             47P     27
508,8,0,181,19,0,0,0,181,20,0,0,0,181,17,1,0,0,181,21,0,0,0,181,      49P     28
14,0,0,0,181,22,0,0,0,181,23,1,0,0,181,24,0,0;                        49P     29
508,1,0,181,1,1,0;                                                    51P     30
508,1,0,181,5,1,0;                                                    53P     31
508,4,0,181,21,1,0,0,181,16,1,0,0,181,12,1,0,0,181,15,1,0;            55P     32
508,4,0,181,25,0,0,0,181,19,1,0,0,181,26,0,0,0,181,27,0,0;            57P     33
508,4,0,181,28,0,0,0,181,29,1,0,0,181,30,0,0,0,181,23,0,0;            59P     34
508,4,0,181,24,1,0,0,181,30,1,0,0,181,31,0,0,0,181,26,1,0;            61P     35
508,4,0,181,32,0,0,0,181,33,1,0,0,181,34,0,0,0,181,33,0,0;            63P     36
508,1,0,181,35,1,0;                                                   65P     37
508,1,0,181,32,1,0;                                                   67P     38
508,7,0,181,35,0,0,0,181,36,1,0,0,181,31,1,0,0,181,29,0,0,0,181,      69P     39
37,1,0,0,181,27,1,0,0,181,36,0,0;                                     69P     40
508,1,0,181,34,1,0;                                                   71P     41
508,8,0,181,10,0,0,0,181,18,1,0,0,181,20,1,0,0,181,25,1,0,0,181,      73P     42
37,0,0,0,181,28,1,0,0,181,22,1,0,0,181,13,1,0;                        73P     43
126,8,2,0,1,0,0,-3.14159265358979,-3.14159265358979,                  75P     44
-3.14159265358979,-1.5707963267949,-1.5707963267949,0.,0.,            75P     45
1.5707963267949,1.5707963267949,3.14159265358979,                     75P     46
3.14159265358979,3.14159265358979,1.,0.70710678118655,1.,             75P     47
0.707106781186546,1.,0.707106781186546,1.,0.70710678118655,1.,        75P     48
-17.5,-13.2,15.,-17.5,-13.2,16.5,-19.,-13.2,16.5,-20.5,-13.2,         75P     49
16.5,-20.5,-13.2,15.,-20.5,-13.2,13.5,-19.,-13.2,13.5,-17.5,          75P     50
-13.2,13.5,-17.5,-13.2,15.,-3.14159265358979,3.14159265358979,        75P     51
0.,0.,0.;                                                             75P     52
126,1,1,0,0,1,0,0.,0.,2.,2.,1.,1.,-17.5,-13.2,15.,-17.5,-16.2,        77P     53
15.,0.,2.,0.,0.,0.;                                                   77P     54
126,2,2,0,0,0,0,-3.14159265358979,-3.14159265358979,                  79P     55
-3.14159265358979,-1.5707963267949,-1.5707963267949,                  79P     56
-1.5707963267949,1.,0.70710678118655,1.,-19.,-16.3,16.5,-17.5,        79P     57
-16.3,16.5,-17.5,-16.2,15.,-3.14159265358979,-1.5707963267949,        79P     58
0.,0.,0.;                                                             79P     59
126,6,2,0,0,0,0,-1.5707963267949,-1.5707963267949,                    81P     60
-1.5707963267949,0.,0.,1.5707963267949,1.5707963267949,               81P     61
3.14159265358979,3.14159265358979,3.14159265358979,1.,                81P     62
0.70710678118655,1.,0.707106781186546,1.,0.707106781186546,1.,        81P     63
-17.5,-16.2,15.,-17.5,-16.1,13.5,-19.,-16.1,13.5,-20.5,-16.1,         81P     64
13.5,-20.5,-16.2,15.,-20.5,-16.3,16.5,-19.,-16.3,16.5,                81P     65
-1.5707963267949,3.14159265358979,0.,0.,0.;                           81P     66
126,8,2,0,1,0,0,-3.14159265358979,-3.14159265358979,                  83P     67
-3.14159265358979,-1.5707963267949,-1.5707963267949,0.,0.,            83P     68
1.5707963267949,1.5707963267949,3.14159265358979,                     83P     69
3.14159265358979,3.14159265358979,1.,0.707106781186545,1.,            83P     70
0.707106781186548,1.,0.707106781186548,1.,0.707106781186545,1.,       83P     71
20.5,-13.2,15.,20.5,-13.2,16.5,19.,-13.2,16.5,17.5,-13.2,16.5,        83P     72
17.5,-13.2,15.,17.5,-13.2,13.5,19.,-13.2,13.5,20.5,-13.2,13.5,        83P     73
20.5,-13.2,15.,-3.14159265358979,3.14159265358979,0.,0.,0.;           83P     74
126,1,1,0,0,1,0,0.,0.,2.,2.,1.,1.,20.5,-13.2,15.,20.5,-16.2,15.,      85P     75
0.,2.,0.,0.,0.;                                                       85P     76
126,2,2,0,0,0,0,-3.14159265358979,-3.14159265358979,                  87P     77
-3.14159265358979,-1.5707963267949,-1.5707963267949,                  87P     78
-1.5707963267949,1.,0.707106781186545,1.,19.,-16.3,16.5,20.5,         87P     79
-16.3,16.5,20.5,-16.2,15.,-3.14159265358979,-1.5707963267949,0.,      87P     80
0.,0.;                                                                87P     81
126,6,2,0,0,0,0,-1.5707963267949,-1.5707963267949,                    89P     82
-1.5707963267949,0.,0.,1.5707963267949,1.5707963267949,               89P     83
3.14159265358979,3.14159265358979,3.14159265358979,1.,                89P     84
0.707106781186545,1.,0.707106781186548,1.,0.707106781186548,1.,       89P     85
20.5,-16.2,15.,20.5,-16.1,13.5,19.,-16.1,13.5,17.5,-16.1,13.5,        89P     86
17.5,-16.2,15.,17.5,-16.3,16.5,19.,-16.3,16.5,-1.5707963267949,       89P     87
3.14159265358979,0.,0.,0.;                                            89P     88
126,1,1,0,0,1,0,-2.26164635780831,-2.26164635780831,                  91P     89
0.745012917866269,0.745012917866269,1.,1.,-25.,-17.2,30.,-25.,        91P     90
-15.2,-1.11022302462516D-15,-2.26164635780831,0.745012917866269,      91P     91
0.,0.,0.;                                                             91P     92
126,1,1,0,0,1,0,-1.25,-1.25,3.75,3.75,1.,1.,-25.,-15.2,0.,25.,        93P     93
-15.2,0.,-1.25,3.75,0.,0.,0.;                                         93P     94
126,1,1,0,0,1,0,-0.758316719971023,-0.758316719971023,                95P     95
2.24834255570356,2.24834255570356,1.,1.,25.,-15.2,                    95P     96
-2.22044604925031D-15,25.,-17.2,30.,-0.758316719971023,               95P     97
2.24834255570356,0.,0.,0.;                                            95P     98
126,1,1,0,0,1,0,-5.,-5.,0.,0.,1.,1.,-25.,-17.2,30.,25.,-17.2,         97P     99
30.,-5.,0.,0.,0.,0.;                                                  97P    100
126,1,1,0,0,1,0,0.,0.,0.2,0.2,1.,1.,25.,-13.2,0.,25.,-15.2,0.,        99P    101
0.,0.2,0.,0.,0.;                                                      99P    102
126,1,1,0,0,1,0,0.,0.,3.,3.,1.,1.,25.,-13.2,0.,25.,-13.2,30.,0.,     101P    103
3.,0.,0.,0.;                                                         101P    104
126,1,1,0,0,1,0,-0.4,-0.4,0.,0.,1.,1.,25.,-17.2,30.,25.,-13.2,       103P    105
30.,-0.4,0.,0.,0.,0.;                                                103P    106
126,1,1,0,0,1,0,-0.4,-0.4,0.,0.,1.,1.,-25.,-13.2,30.,-25.,-17.2,     105P    107
30.,-0.4,0.,0.,0.,0.;                                                105P    108
126,1,1,0,0,1,0,0.,0.,3.,3.,1.,1.,-25.,-13.2,0.,-25.,-13.2,30.,      107P    109
0.,3.,0.,0.,0.;                                                      107P    110
126,1,1,0,0,1,0,0.2,0.2,0.4,0.4,1.,1.,-25.,-15.2,0.,-25.,-13.2,      109P    111
0.,0.2,0.4,0.,0.,0.;                                                 109P    112
126,1,1,0,0,1,0,0.,0.,1.2,1.2,1.,1.,-6.,-13.2,0.,-6.,-13.2,12.,      111P    113
0.,1.2,0.,0.,0.;                                                     111P    114
126,1,1,0,0,1,0,0.,0.,1.9,1.9,1.,1.,-25.,-13.2,0.,-6.,-13.2,0.,      113P    115
0.,1.9,0.,0.,0.;                                                     113P    116
126,1,1,0,0,1,0,-5.,-5.,0.,0.,1.,1.,25.,-13.2,30.,-25.,-13.2,        115P    117
30.,-5.,0.,0.,0.,0.;                                                 115P    118
126,1,1,0,0,1,0,3.1,3.1,5.,5.,1.,1.,6.,-13.2,0.,25.,-13.2,0.,        117P    119
3.1,5.,0.,0.,0.;                                                     117P    120
126,1,1,0,0,1,0,0.,0.,1.2,1.2,1.,1.,6.,-13.2,0.,6.,-13.2,12.,0.,     119P    121
1.2,0.,0.,0.;                                                        119P    122
126,1,1,0,0,1,0,-1.2,-1.2,0.,0.,1.,1.,-6.,-13.2,12.,6.,-13.2,        121P    123
12.,-1.2,0.,0.,0.,0.;                                                121P    124
126,1,1,0,0,1,0,0.,0.,1.32,1.32,1.,1.,-6.,-13.2,0.,-6.,0.,0.,0.,     123P    125
1.32,0.,0.,0.;                                                       123P    126
126,1,1,0,0,1,0,-1.32,-1.32,0.,0.,1.,1.,-6.,0.,12.,-6.,-13.2,        125P    127
12.,-1.32,0.,0.,0.,0.;                                               125P    128
126,1,1,0,0,1,0,0.,0.,1.2,1.2,1.,1.,-6.,0.,0.,-6.,0.,12.,0.,1.2,     127P    129
0.,0.,0.;                                                            127P    130
126,1,1,0,0,1,0,0.,0.,1.32,1.32,1.,1.,6.,0.,0.,6.,-13.2,0.,0.,       129P    131
1.32,0.,0.,0.;                                                       129P    132
126,1,1,0,0,1,0,0.,0.,1.2,1.2,1.,1.,6.,0.,0.,6.,0.,12.,0.,1.2,       131P    133
0.,0.,0.;                                                            131P    134
126,1,1,0,0,1,0,-1.32,-1.32,0.,0.,1.,1.,6.,-13.2,12.,6.,0.,12.,      133P    135
-1.32,0.,0.,0.,0.;                                                   133P    136
126,4,2,0,0,0,0,-3.14159265358979,-3.14159265358979,                 135P    137
-3.14159265358979,-1.5707963267949,-1.5707963267949,0.,0.,0.,1.,     135P    138
0.707106781186548,1.,0.707106781186548,1.,-6.,                       135P    139
-7.34788079488412D-16,12.,-6.,-6.,12.,3.67394039744206D-16,-6.,      135P    140
12.,6.,-6.,12.,6.,0.,12.,-3.14159265358979,0.,0.,0.,0.;              135P    141
126,8,2,0,1,0,0,-3.14159265358979,-3.14159265358979,                 137P    142
-3.14159265358979,-1.5707963267949,-1.5707963267949,0.,0.,           137P    143
1.5707963267949,1.5707963267949,3.14159265358979,                    137P    144
3.14159265358979,3.14159265358979,1.,0.707106781186548,1.,           137P    145
0.707106781186548,1.,0.707106781186548,1.,0.707106781186548,1.,      137P    146
-3.7,4.53119315684521D-16,18.,-3.7,3.7,18.,2.2655965784226D-16,      137P    147
3.7,18.,3.7,3.7,18.,3.7,0.,18.,3.7,-3.7,18.,2.2655965784226D-16,     137P    148
-3.7,18.,-3.7,-3.7,18.,-3.7,-4.53119315684521D-16,18.,               137P    149
-3.14159265358979,3.14159265358979,0.,0.,0.;                         137P    150
126,1,1,0,0,1,0,-4.86486486486486,-4.86486486486486,                 139P    151
-0.54054054054054,-0.54054054054054,1.,1.,-3.7,0.,18.,-3.7,0.,       139P    152
2.,-4.86486486486486,-0.54054054054054,0.,0.,0.;                     139P    153
126,8,2,0,1,0,0,-3.14159265358979,-3.14159265358979,                 141P    154
-3.14159265358979,-1.5707963267949,-1.5707963267949,0.,0.,           141P    155
1.5707963267949,1.5707963267949,3.14159265358979,                    141P    156
3.14159265358979,3.14159265358979,1.,0.707106781186548,1.,           141P    157
0.707106781186548,1.,0.707106781186548,1.,0.707106781186548,1.,      141P    158
-3.7,-4.53119315684521D-16,2.,-3.7,-3.7,2.,2.2655965784226D-16,      141P    159
-3.7,2.,3.7,-3.7,2.,3.7,0.,2.,3.7,3.7,2.,2.2655965784226D-16,        141P    160
3.7,2.,-3.7,3.7,2.,-3.7,4.53119315684521D-16,2.,                     141P    161
-3.14159265358979,3.14159265358979,0.,0.,0.;                         141P    162
126,8,2,0,1,0,0,-3.14159265358979,-3.14159265358979,                 143P    163
-3.14159265358979,-1.5707963267949,-1.5707963267949,0.,0.,           143P    164
1.5707963267949,1.5707963267949,3.14159265358979,                    143P    165
3.14159265358979,3.14159265358979,1.,0.707106781186548,1.,           143P    166
0.707106781186548,1.,0.707106781186548,1.,0.707106781186548,1.,      143P    167
-6.,-7.34788079488412D-16,18.,-6.,-6.,18.,3.67394039744206D-16,      143P    168
-6.,18.,6.,-6.,18.,6.,0.,18.,6.,6.,18.,3.67394039744206D-16,6.,      143P    169
18.,-6.,6.,18.,-6.,7.34788079488412D-16,18.,-3.14159265358979,       143P    170
3.14159265358979,0.,0.,0.;                                           143P    171
126,1,1,0,0,1,0,-3.,-3.,-2.,-2.,1.,1.,-6.,0.,18.,-6.,0.,12.,-3.,     145P    172
-2.,0.,0.,0.;                                                        145P    173
126,4,2,0,0,0,0,0.,0.,0.,1.5707963267949,1.5707963267949,            147P    174
3.14159265358979,3.14159265358979,3.14159265358979,1.,               147P    175
0.707106781186548,1.,0.707106781186548,1.,6.,0.,0.,6.,6.,0.,         147P    176
3.67394039744206D-16,6.,0.,-6.,6.,0.,-6.,7.34788079488412D-16,       147P    177
0.,0.,3.14159265358979,0.,0.,0.;                                     147P    178
128,1,8,1,2,0,1,0,0,1,0.,0.,2.06666666666667,2.06666666666667,       149P    179
-3.14159265358979,-3.14159265358979,-3.14159265358979,               149P    180
-1.5707963267949,-1.5707963267949,0.,0.,1.5707963267949,             149P    181
1.5707963267949,3.14159265358979,3.14159265358979,                   149P    182
3.14159265358979,1.,1.,0.707106781186548,0.707106781186548,1.,       149P    183
1.,0.707106781186548,0.707106781186548,1.,1.,0.707106781186548,      149P    184
0.707106781186548,1.,1.,0.707106781186548,0.707106781186548,1.,      149P    185
1.,-17.5,-13.2,15.,-17.5,-16.3,15.,-17.5,-13.2,16.5,-17.5,-16.3,     149P    186
16.5,-19.,-13.2,16.5,-19.,-16.3,16.5,-20.5,-13.2,16.5,-20.5,         149P    187
-16.3,16.5,-20.5,-13.2,15.,-20.5,-16.3,15.,-20.5,-13.2,13.5,         149P    188
-20.5,-16.3,13.5,-19.,-13.2,13.5,-19.,-16.3,13.5,-17.5,-13.2,        149P    189
13.5,-17.5,-16.3,13.5,-17.5,-13.2,15.,-17.5,-16.3,15.,0.,            149P    190
2.06666666666667,-3.14159265358979,3.14159265358979;                 149P    191
128,1,8,1,2,0,1,0,0,1,0.,0.,2.06666666666667,2.06666666666667,       151P    192
-3.14159265358979,-3.14159265358979,-3.14159265358979,               151P    193
-1.5707963267949,-1.5707963267949,0.,0.,1.5707963267949,             151P    194
1.5707963267949,3.14159265358979,3.14159265358979,                   151P    195
3.14159265358979,1.,1.,0.707106781186548,0.707106781186548,1.,       151P    196
1.,0.707106781186548,0.707106781186548,1.,1.,0.707106781186548,      151P    197
0.707106781186548,1.,1.,0.707106781186548,0.707106781186548,1.,      151P    198
1.,20.5,-13.2,15.,20.5,-16.3,15.,20.5,-13.2,16.5,20.5,-16.3,         151P    199
16.5,19.,-13.2,16.5,19.,-16.3,16.5,17.5,-13.2,16.5,17.5,-16.3,       151P    200
16.5,17.5,-13.2,15.,17.5,-16.3,15.,17.5,-13.2,13.5,17.5,-16.3,       151P    201
13.5,19.,-13.2,13.5,19.,-16.3,13.5,20.5,-13.2,13.5,20.5,-16.3,       151P    202
13.5,20.5,-13.2,15.,20.5,-16.3,15.,0.,2.06666666666667,              151P    203
-3.14159265358979,3.14159265358979;                                  151P    204
128,1,1,1,1,0,0,1,0,0,-1.50432963783729,-1.50432963783729,           153P    205
1.50432963783729,1.50432963783729,-1.251,-1.251,3.751,3.751,1.,      153P    206
1.,1.,1.,-25.01,-17.2006651901052,30.0099778515786,-25.01,           153P    207
-15.1993348098948,-0.00997785157856867,25.01,-17.2006651901052,      153P    208
30.0099778515786,25.01,-15.1993348098948,-0.00997785157856867,       153P    209
-1.50432963783729,1.50432963783729,-1.251,3.751;                     153P    210
128,1,1,1,1,0,0,1,0,0,-0.001,-0.001,0.401,0.401,                     155P    211
-0.00100000000000033,-0.00100000000000033,3.001,3.001,1.,1.,1.,      155P    212
1.,25.,-17.21,-0.0100000000000033,25.,-13.19,                        155P    213
-0.0100000000000033,25.,-17.21,30.01,25.,-13.19,30.01,-0.001,        155P    214
0.401,-0.00100000000000033,3.001;                                    155P    215
128,1,1,1,1,0,0,1,0,0,-0.001,-0.001,0.401,0.401,                     157P    216
-0.00100000000000011,-0.00100000000000011,3.001,3.001,1.,1.,1.,      157P    217
1.,-25.,-13.19,-0.0100000000000011,-25.,-17.21,                      157P    218
-0.0100000000000011,-25.,-13.19,30.01,-25.,-17.21,30.01,-0.001,      157P    219
0.401,-0.00100000000000011,3.001;                                    157P    220
128,1,1,1,1,0,0,1,0,0,-0.001,-0.001,5.001,5.001,-0.001,-0.001,       159P    221
3.001,3.001,1.,1.,1.,1.,25.01,-13.2,-0.01,-25.01,-13.2,-0.01,        159P    222
25.01,-13.2,30.01,-25.01,-13.2,30.01,-0.001,5.001,-0.001,3.001;      159P    223
128,1,1,1,1,0,0,1,0,0,-2.501,-2.501,2.501,2.501,-0.201,-0.201,       161P    224
0.201,0.201,1.,1.,1.,1.,-25.01,-17.21,30.,25.01,-17.21,30.,          161P    225
-25.01,-13.19,30.,25.01,-13.19,30.,-2.501,2.501,-0.201,0.201;        161P    226
128,1,1,1,1,0,0,1,0,0,-0.001,-0.001,1.321,1.321,-0.001,-0.001,       163P    227
1.201,1.201,1.,1.,1.,1.,-6.,0.01,-0.01,-6.,-13.21,-0.01,-6.,         163P    228
0.01,12.01,-6.,-13.21,12.01,-0.001,1.321,-0.001,1.201;               163P    229
128,1,1,1,1,0,0,1,0,0,-0.001,-0.001,1.321,1.321,-0.001,-0.001,       165P    230
1.201,1.201,1.,1.,1.,1.,6.,-13.21,-0.01,6.,0.0099999999999989,       165P    231
-0.01,6.,-13.21,12.01,6.,0.0099999999999989,12.01,-0.001,1.321,      165P    232
-0.001,1.201;                                                        165P    233
128,1,1,1,1,0,0,1,0,0,-0.601,-0.601,0.601,0.601,-0.661,-0.661,       167P    234
0.661,0.661,1.,1.,1.,1.,-6.01,-13.21,12.,6.01,-13.21,12.,-6.01,      167P    235
0.01,12.,6.01,0.0099999999999989,12.,-0.601,0.601,-0.661,0.661;      167P    236
128,1,8,1,2,0,1,0,0,1,0.54054054054054,0.54054054054054,             169P    237
4.86486486486486,4.86486486486486,-3.14159265358979,                 169P    238
-3.14159265358979,-3.14159265358979,-1.5707963267949,                169P    239
-1.5707963267949,0.,0.,1.5707963267949,1.5707963267949,              169P    240
3.14159265358979,3.14159265358979,3.14159265358979,1.,1.,            169P    241
0.707106781186548,0.707106781186548,1.,1.,0.707106781186548,         169P    242
0.707106781186548,1.,1.,0.707106781186548,0.707106781186548,1.,      169P    243
1.,0.707106781186548,0.707106781186548,1.,1.,-3.7,0.,2.,-3.7,0.,     169P    244
18.,-3.7,-3.7,2.,-3.7,-3.7,18.,0.,-3.7,2.,0.,-3.7,18.,3.7,-3.7,      169P    245
2.,3.7,-3.7,18.,3.7,0.,2.,3.7,0.,18.,3.7,3.7,2.,3.7,3.7,18.,0.,      169P    246
3.7,2.,0.,3.7,18.,-3.7,3.7,2.,-3.7,3.7,18.,-3.7,0.,2.,-3.7,0.,       169P    247
18.,0.54054054054054,4.86486486486486,-3.14159265358979,             169P    248
3.14159265358979;                                                    169P    249
128,1,1,1,1,0,0,1,0,0,-0.601,-0.601,0.601,0.601,-0.601,-0.601,       171P    250
0.601,0.601,1.,1.,1.,1.,-6.01,-6.01,18.,6.01,-6.01,18.,-6.01,        171P    251
6.01,18.,6.01,6.01,18.,-0.601,0.601,-0.601,0.601;                    171P    252
128,1,8,1,2,0,1,0,0,1,0.,0.,3.,3.,-3.14159265358979,                 173P    253
-3.14159265358979,-3.14159265358979,-1.5707963267949,                173P    254
-1.5707963267949,0.,0.,1.5707963267949,1.5707963267949,              173P    255
3.14159265358979,3.14159265358979,3.14159265358979,1.,1.,            173P    256
0.707106781186548,0.707106781186548,1.,1.,0.707106781186548,         173P    257
0.707106781186548,1.,1.,0.707106781186548,0.707106781186548,1.,      173P    258
1.,0.707106781186548,0.707106781186548,1.,1.,-6.,0.,18.,-6.,0.,      173P    259
0.,-6.,-6.,18.,-6.,-6.,0.,0.,-6.,18.,0.,-6.,0.,6.,-6.,18.,6.,        173P    260
-6.,0.,6.,0.,18.,6.,0.,0.,6.,6.,18.,6.,6.,0.,0.,6.,18.,0.,6.,0.,     173P    261
-6.,6.,18.,-6.,6.,0.,-6.,0.,18.,-6.,0.,0.,0.,3.,                     173P    262
-3.14159265358979,3.14159265358979;                                  173P    263
128,1,1,1,1,0,0,1,0,0,-0.371,-0.371,0.371,0.371,-0.371,-0.371,       175P    264
0.371,0.371,1.,1.,1.,1.,-3.71,-3.71,2.,3.71,-3.71,2.,-3.71,3.71,     175P    265
2.,3.71,3.71,2.,-0.371,0.371,-0.371,0.371;                           175P    266
128,1,1,1,1,0,0,1,0,0,-2.501,-2.501,2.501,2.501,-1.521,-1.521,       177P    267
0.601,0.601,1.,1.,1.,1.,25.01,-15.21,0.,-25.01,-15.21,0.,25.01,      177P    268
6.01,0.,-25.01,6.01,0.,-2.501,2.501,-1.521,0.601;                    177P    269
502,25,-17.5,-13.2,15.,-17.5,-16.2,15.,-19.,-16.3,16.5,20.5,         179P    270
-13.2,15.,20.5,-16.2,15.,19.,-16.3,16.5,-25.,-17.2,30.,-25.,         179P    271
-15.2,0.,25.,-15.2,0.,25.,-17.2,30.,25.,-13.2,0.,25.,-13.2,30.,      179P    272
-25.,-13.2,30.,-25.,-13.2,0.,-6.,-13.2,0.,-6.,-13.2,12.,6.,          179P    273
-13.2,0.,6.,-13.2,12.,-6.,-7.34788079488412D-16,0.,-6.,0.,12.,       179P    274
6.,0.,0.,6.,0.,12.,-3.7,-4.53119315684521D-16,18.,-3.7,              179P    275
-4.53119315684521D-16,2.,-6.,-7.34788079488412D-16,18.;              179P    276
504,37,75,179,1,179,1,77,179,1,179,2,79,179,3,179,2,81,179,2,        181P    277
179,3,83,179,4,179,4,85,179,4,179,5,87,179,6,179,5,89,179,5,179,     181P    278
6,91,179,7,179,8,93,179,8,179,9,95,179,9,179,10,97,179,7,179,10,     181P    279
99,179,11,179,9,101,179,11,179,12,103,179,10,179,12,105,179,13,      181P    280
179,7,107,179,14,179,13,109,179,8,179,14,111,179,15,179,16,113,      181P    281
179,14,179,15,115,179,12,179,13,117,179,17,179,11,119,179,17,        181P    282
179,18,121,179,16,179,18,123,179,15,179,19,125,179,20,179,16,        181P    283
127,179,19,179,20,129,179,21,179,17,131,179,21,179,22,133,179,       181P    284
18,179,22,135,179,20,179,22,137,179,23,179,23,139,179,23,179,24,     181P    285
141,179,24,179,24,143,179,25,179,25,145,179,25,179,20,147,179,       181P    286
21,179,19;                                                           181P    287
406,1,5HBody1;                                                       183P    288
314,62.7450980392157,62.7450980392157,62.7450980392157,13HSteel      185P    289
- Satin;                                                             185P    290
S      1G      3D    186P    290                                        T      1
