0
SECTION
2
HEADER
9
$INSUNITS
70
4
9
$ACADVER
1
AC1014
9
$HANDSEED
5
FFFF
0
ENDSEC
0
SECTION
2
TABLES
0
TABLE
2
VPORT
5
8
100
AcDbSymbolTable
0
ENDTAB
0
TABLE
2
LTYPE
5
5
100
AcDbSymbolTable
0
LTYPE
5
14
100
AcDbSymbolTableRecord
100
AcDbLinetypeTableRecord
2
BYBLOCK
70
0
0
LTYPE
5
15
100
AcDbSymbolTableRecord
100
AcDbLinetypeTableRecord
2
BYLAYER
70
0
0
ENDTAB
0
TABLE
2
LAYER
5
2
100
AcDbSymbolTable
70
2
0
LAYER
5
50
100
AcDbSymbolTableRecord
100
AcDbLayerTableRecord
2
0
70
0
6
CONTINUOUS
0
ENDTAB
0
TABLE
2
STYLE
5
3
100
AcDbSymbolTable
70
1
0
STYLE
5
11
100
AcDbSymbolTableRecord
100
AcDbTextStyleTableRecord
2
STANDARD
70
0
0
ENDTAB
0
TABLE
2
VIEW
5
6
100
AcDbSymbolTable
70
0
0
ENDTAB
0
TABLE
2
UCS
5
7
100
AcDbSymbolTable
70
0
0
ENDTAB
0
TABLE
2
APPID
5
9
100
AcDbSymbolTable
70
2
0
APPID
5
12
100
AcDbSymbolTableRecord
100
AcDbRegAppTableRecord
2
ACAD
70
0
0
ENDTAB
0
TABLE
2
DIMSTYLE
5
A
100
AcDbSymbolTable
70
1
0
ENDTAB
0
TABLE
2
BLOCK_RECORD
5
1
100
AcDbSymbolTable
70
1
0
BLOCK_RECORD
5
1F
100
AcDbSymbolTableRecord
100
AcDbBlockTableRecord
2
*MODEL_SPACE
0
BLOCK_RECORD
5
1B
100
AcDbSymbolTableRecord
100
AcDbBlockTableRecord
2
*PAPER_SPACE
0
ENDTAB
0
ENDSEC
0
SECTION
2
BLOCKS
0
BLOCK
5
20
100
AcDbEntity
100
AcDbBlockBegin
2
*MODEL_SPACE
0
ENDBLK
5
21
100
AcDbEntity
100
AcDbBlockEnd
0
BLOCK
5
1C
100
AcDbEntity
100
AcDbBlockBegin
2
*PAPER_SPACE
0
ENDBLK
5
1D
100
AcDbEntity
100
AcDbBlockEnd
0
ENDSEC
0
SECTION
2
ENTITIES
0
LWPOLYLINE
5
100
100
AcDbEntity
8
0
100
AcDbPolyline
90
4
70
1
43
0.0
10
-28.86179661246473
20
-57.723593224929395
10
1022.0896617208687
20
-57.723593224929395
10
1022.0896617208687
20
-272.53880155826272
10
-28.86179661246473
20
-272.53880155826272
0
LWPOLYLINE
5
101
100
AcDbEntity
8
0
100
AcDbPolyline
90
4
70
1
43
0.0
10
199.34132838753527
20
-86.933593224929396
10
377.03549505420199
20
-86.933593224929396
10
377.03549505420193
20
-237.85192655826273
10
199.34132838753524
20
-237.85192655826273
0
SPLINE
5
102
100
AcDbEntity
8
0
100
AcDbSpline
70
4
71
3
72
8
73
4
74
0
42
0.000000001
43
0.0000000001
44
0.0000000001
40
0
40
0
40
0
40
0
40
1
40
1
40
1
40
1
41
1
41
1
41
1
41
1
10
267.54728306638862
20
-188.31419649069173
30
0
10
266.89979755588041
20
-187.78659747704526
30
0
10
266.07705546247627
20
-187.52309975251219
30
0
10
265.25672762739327
20
-187.36791865611735
30
0
0
SPLINE
5
103
100
AcDbEntity
8
0
100
AcDbSpline
70
4
71
3
72
8
73
4
74
0
42
0.000000001
43
0.0000000001
44
0.0000000001
40
0
40
0
40
0
40
0
40
1
40
1
40
1
40
1
41
1
41
1
41
1
41
1
10
265.25672762739327
20
-187.36791865611735
30
0
10
263.59480791278349
20
-187.05390721901918
30
0
10
262.79275415606958
20
-187.57360417946839
30
0
10
262.46656928566762
20
-188.52780263845784
30
0
0
SPLINE
5
104
100
AcDbEntity
8
0
100
AcDbSpline
70
4
71
3
72
8
73
4
74
0
42
0.000000001
43
0.0000000001
44
0.0000000001
40
0
40
0
40
0
40
0
40
1
40
1
40
1
40
1
41
1
41
1
41
1
41
1
10
262.46656928566762
20
-188.52780263845784
30
0
10
261.46977773852814
20
-191.43906389181478
30
0
10
265.17579425998196
20
-197.37112872704529
30
0
10
261.79534975874094
20
-199.31359454417887
30
0
0
SPLINE
5
105
100
AcDbEntity
8
0
100
AcDbSpline
70
4
71
3
72
8
73
4
74
0
42
0.000000001
43
0.0000000001
44
0.0000000001
40
0
40
0
40
0
40
0
40
1
40
1
40
1
40
1
41
1
41
1
41
1
41
1
10
261.79534975874094
20
-199.31359454417887
30
0
10
261.19837796079781
20
-199.65680922135377
30
0
10
260.50401869642405
20
-199.7943383751776
30
0
10
259.89608987994654
20
-200.11747756585146
30
0
0
SPLINE
5
106
100
AcDbEntity
8
0
100
AcDbSpline
70
4
71
3
72
8
73
4
74
0
42
0.000000001
43
0.0000000001
44
0.0000000001
40
0
40
0
40
0
40
0
40
1
40
1
40
1
40
1
41
1
41
1
41
1
41
1
10
259.89608987994654
20
-200.11747756585146
30
0
10
259.22366322385932
20
-200.47529850586912
30
0
10
258.66075103946196
20
-201.08201090757711
30
0
10
258.47028462914295
20
-201.8195668246812
30
0
0
SPLINE
5
107
100
AcDbEntity
8
0
100
AcDbSpline
70
4
71
3
72
8
73
4
74
0
42
0.000000001
43
0.0000000001
44
0.0000000001
40
0
40
0
40
0
40
0
40
1
40
1
40
1
40
1
41
1
41
1
41
1
41
1
10
258.47028462914295
20
-201.8195668246812
30
0
10
258.27859251844552
20
-202.55712274178529
30
0
10
258.51043560214509
20
-203.41637584949197
30
0
10
259.11715728946194
20
-203.87644062940939
30
0
0
SPLINE
5
108
100
AcDbEntity
8
0
100
AcDbSpline
70
4
71
3
72
8
73
4
74
0
42
0.000000001
43
0.0000000001
44
0.0000000001
40
0
40
0
40
0
40
0
40
1
40
1
40
1
40
1
41
1
41
1
41
1
41
1
10
259.11715728946194
20
-203.87644062940939
30
0
10
259.58634053734608
20
-204.2318287398881
30
0
10
260.20097356346912
20
-204.31884418114686
30
0
10
260.78760119306713
20
-204.36814147894245
30
0
0
SPLINE
5
109
100
AcDbEntity
8
0
100
AcDbSpline
70
4
71
3
72
8
73
4
74
0
42
0.000000001
43
0.0000000001
44
0.0000000001
40
0
40
0
40
0
40
0
40
1
40
1
40
1
40
1
41
1
41
1
41
1
41
1
10
260.78760119306713
20
-204.36814147894245
30
0
10
265.37235202975739
20
-204.75394924426737
30
0
10
268.52034059710968
20
-204.15576103155476
30
0
10
269.40212059207425
20
-199.04948396945659
30
0
0
SPLINE
5
110
100
AcDbEntity
8
0
100
AcDbSpline
70
4
71
3
72
8
73
4
74
0
42
0.000000001
43
0.0000000001
44
0.0000000001
40
0
40
0
40
0
40
0
40
1
40
1
40
1
40
1
41
1
41
1
41
1
41
1
10
269.40212059207425
20
-199.04948396945659
30
0
10
269.9376402301358
20
-195.95504550878866
30
0
10
270.16584335513579
20
-192.6086791923112
30
0
10
268.71021272845729
20
-189.82581933920247
30
0
0
SPLINE
5
111
100
AcDbEntity
8
0
100
AcDbSpline
70
4
71
3
72
8
73
4
74
0
42
0.000000001
43
0.0000000001
44
0.0000000001
40
0
40
0
40
0
40
0
40
1
40
1
40
1
40
1
41
1
41
1
41
1
41
1
10
268.71021272845729
20
-189.82581933920247
30
0
10
268.41324038374091
20
-189.25865434591634
30
0
10
268.04385886060862
20
-188.71826904877685
30
0
10
267.54728306638862
20
-188.31419649069173
30
0
0
SPLINE
5
112
100
AcDbEntity
8
0
100
AcDbSpline
70
4
71
3
72
8
73
4
74
0
42
0.000000001
43
0.0000000001
44
0.0000000001
40
0
40
0
40
0
40
0
40
1
40
1
40
1
40
1
41
1
41
1
41
1
41
1
10
312.60492039549024
20
-189.99377743348145
30
0
10
311.94527073728705
20
-189.48320822660787
30
0
10
311.1152115840481
20
-189.23979527418479
30
0
10
310.29124379026553
20
-189.10591536466939
30
0
0
SPLINE
5
113
100
AcDbEntity
8
0
100
AcDbSpline
70
4
71
3
72
8
73
4
74
0
42
0.000000001
43
0.0000000001
44
0.0000000001
40
0
40
0
40
0
40
0
40
1
40
1
40
1
40
1
41
1
41
1
41
1
41
1
10
310.29124379026553
20
-189.10591536466939
30
0
10
308.6232512874173
20
-188.83450630133015
30
0
10
307.83397452858753
20
-189.37306233351094
30
0
10
307.5308922531969
20
-190.33638854607605
30
0
0
SPLINE
5
114
100
AcDbEntity
8
0
100
AcDbSpline
70
4
71
3
72
8
73
4
74
0
42
0.000000001
43
0.0000000001
44
0.0000000001
40
0
40
0
40
0
40
0
40
1
40
1
40
1
40
1
41
1
41
1
41
1
41
1
10
307.5308922531969
20
-190.33638854607605
30
0
10
306.60957413541939
20
-193.27077096566225
30
0
10
310.46406754362249
20
-199.10729617063862
30
0
10
307.13354247597522
20
-201.1349574496812
30
0
0
SPLINE
5
115
100
AcDbEntity
8
0
100
AcDbSpline
70
4
71
3
72
8
73
4
74
0
42
0.000000001
43
0.0000000001
44
0.0000000001
40
0
40
0
40
0
40
0
40
1
40
1
40
1
40
1
41
1
41
1
41
1
41
1
10
307.13354247597522
20
-201.1349574496812
30
0
10
306.54505772459174
20
-201.49277838969891
30
0
10
305.85498841154242
20
-201.64856305067403
30
0
10
305.25495236265328
20
-201.98691206877095
30
0
0
SPLINE
5
116
100
AcDbEntity
8
0
100
AcDbSpline
70
4
71
3
72
8
73
4
74
0
42
0.000000001
43
0.0000000001
44
0.0000000001
40
0
40
0
40
0
40
0
40
1
40
1
40
1
40
1
41
1
41
1
41
1
41
1
10
305.25495236265328
20
-201.98691206877095
30
0
10
304.59166274575063
20
-202.36116853659016
30
0
10
304.04518608915475
20
-202.98248720114094
30
0
10
303.87358803617622
20
-203.72490877732301
30
0
0
SPLINE
5
117
100
AcDbEntity
8
0
100
AcDbSpline
70
4
71
3
72
8
73
4
74
0
42
0.000000001
43
0.0000000001
44
0.0000000001
40
0
40
0
40
0
40
0
40
1
40
1
40
1
40
1
41
1
41
1
41
1
41
1
10
303.87358803617622
20
-203.72490877732301
30
0
10
303.70076428281925
20
-204.46672678892475
30
0
10
303.95270142423777
20
-205.31989782278401
30
0
10
304.57216296700301
20
-205.7647434896694
30
0
0
SPLINE
5
118
100
AcDbEntity
8
0
100
AcDbSpline
70
4
71
3
72
8
73
4
74
0
42
0.000000001
43
0.0000000001
44
0.0000000001
40
0
40
0
40
0
40
0
40
1
40
1
40
1
40
1
41
1
41
1
41
1
41
1
10
304.57216296700301
20
-205.7647434896694
30
0
10
305.04988897510037
20
-206.10795816684427
30
0
10
305.66634198057324
20
-206.17916021609966
30
0
10
306.25419531054956
20
-206.21323840086322
30
0
0
SPLINE
5
119
100
AcDbEntity
8
0
100
AcDbSpline
70
4
71
3
72
8
73
4
74
0
42
0.000000001
43
0.0000000001
44
0.0000000001
40
0
40
0
40
0
40
0
40
1
40
1
40
1
40
1
41
1
41
1
41
1
41
1
10
306.25419531054956
20
-206.21323840086322
30
0
10
310.84745176501735
20
-206.48343104943297
30
0
10
313.97841052559676
20
-205.80551659846964
30
0
10
314.73117627012402
20
-200.67915476426148
30
0
0
SPLINE
5
120
100
AcDbEntity
8
0
100
AcDbSpline
70
4
71
3
72
8
73
4
74
0
42
0.000000001
43
0.0000000001
44
0.0000000001
40
0
40
0
40
0
40
0
40
1
40
1
40
1
40
1
41
1
41
1
41
1
41
1
10
314.73117627012402
20
-200.67915476426148
30
0
10
315.18817679909534
20
-197.57133574112913
30
0
10
315.3318065979845
20
-194.22131089473427
30
0
10
313.80558677223985
20
-191.47557490611734
30
0
0
SPLINE
5
121
100
AcDbEntity
8
0
100
AcDbSpline
70
4
71
3
72
8
73
4
74
0
42
0.000000001
43
0.0000000001
44
0.0000000001
40
0
40
0
40
0
40
0
40
1
40
1
40
1
40
1
41
1
41
1
41
1
41
1
10
313.80558677223985
20
-191.47557490611734
30
0
10
313.49463030047878
20
-190.91632125163738
30
0
10
313.1118403580553
20
-190.38506370807352
30
0
10
312.60492039549024
20
-189.99377743348145
30
0
0
LINE
5
122
100
AcDbEntity
8
0
100
AcDbLine
10
341.83501445320906
20
-190.38567655826273
30
0
11
341.22647278654244
21
-189.77713489159609
31
0
0
SPLINE
5
123
100
AcDbEntity
8
0
100
AcDbSpline
70
0
71
2
72
6
73
3
74
0
42
0.000000001
43
0.0000000001
44
0.0000000001
40
0
40
0
40
0
40
1
40
1
40
1
10
341.22647278654244
20
-189.77713489159606
30
0
10
340.04285478778348
20
-189.65238273565632
30
0
10
339.405119166649
20
-189.22518901134197
30
0
0
SPLINE
5
124
100
AcDbEntity
8
0
100
AcDbSpline
70
4
71
3
72
8
73
4
74
0
42
0.000000001
43
0.0000000001
44
0.0000000001
40
0
40
0
40
0
40
0
40
1
40
1
40
1
40
1
41
1
41
1
41
1
41
1
10
339.405119166649
20
-189.22518901134197
30
0
10
338.7661207027005
20
-188.79859885160786
30
0
10
338.13993637907174
20
-188.29533741896014
30
0
10
337.38412495481634
20
-188.16024109467531
30
0
0
SPLINE
5
125
100
AcDbEntity
8
0
100
AcDbSpline
70
4
71
3
72
8
73
4
74
0
42
0.000000001
43
0.0000000001
44
0.0000000001
40
0
40
0
40
0
40
0
40
1
40
1
40
1
40
1
41
1
41
1
41
1
41
1
10
337.38412495481634
20
-188.16024109467531
30
0
10
337.49001803902451
20
-189.31768296186789
30
0
10
337.71822116402456
20
-190.46417709613505
30
0
10
338.06450009214541
20
-191.57537663086913
30
0
0
SPLINE
5
126
100
AcDbEntity
8
0
100
AcDbSpline
70
4
71
3
72
8
73
4
74
0
42
0.000000001
43
0.0000000001
44
0.0000000001
40
0
40
0
40
0
40
0
40
1
40
1
40
1
40
1
41
1
41
1
41
1
41
1
10
338.06450009214541
20
-191.57537663086913
30
0
10
335.80802283791371
20
-191.39159585897787
30
0
10
334.01827743080923
20
-189.65481556519532
30
0
10
332.54134561725124
20
-187.93873289371194
30
0
0
SPLINE
5
127
100
AcDbEntity
8
0
100
AcDbSpline
70
4
71
3
72
8
73
4
74
0
42
0.000000001
43
0.0000000001
44
0.0000000001
40
0
40
0
40
0
40
0
40
1
40
1
40
1
40
1
41
1
41
1
41
1
41
1
10
332.54134561725124
20
-187.93873289371194
30
0
10
332.04783407397736
20
-187.36487297638917
30
0
10
331.4654778244859
20
-186.64131975754759
30
0
10
330.71817201800809
20
-186.63157915378275
30
0
0
SPLINE
5
128
100
AcDbEntity
8
0
100
AcDbSpline
70
4
71
3
72
8
73
4
74
0
42
0.000000001
43
0.0000000001
44
0.0000000001
40
0
40
0
40
0
40
0
40
1
40
1
40
1
40
1
41
1
41
1
41
1
41
1
10
330.71817201800809
20
-186.63157915378275
30
0
10
330.65670128690863
20
-187.13180419231119
30
0
10
333.48398349312612
20
-192.66953707322145
30
0
10
332.32409951078557
20
-192.41029215757709
30
0
0
SPLINE
5
129
100
AcDbEntity
8
0
100
AcDbSpline
70
0
71
2
72
6
73
3
74
0
42
0.000000001
43
0.0000000001
44
0.0000000001
40
0
40
0
40
0
40
1
40
1
40
1
10
332.32409951078557
20
-192.41029215757709
30
0
10
330.6554755865302
20
-192.03664853994709
30
0
10
318.8960318711168
20
-185.90011459613504
30
0
0
SPLINE
5
130
100
AcDbEntity
8
0
100
AcDbSpline
70
0
71
2
72
6
73
3
74
0
42
0.000000001
43
0.0000000001
44
0.0000000001
40
0
40
0
40
0
40
1
40
1
40
1
10
318.8960318711168
20
-185.90011459613504
30
0
10
321.62596375333931
20
-194.04179221734069
30
0
10
319.36580939797233
20
-193.18557550375323
30
0
0
SPLINE
5
131
100
AcDbEntity
8
0
100
AcDbSpline
70
0
71
2
72
6
73
3
74
0
42
0.000000001
43
0.0000000001
44
0.0000000001
40
0
40
0
40
0
40
1
40
1
40
1
10
319.36580939797233
20
-193.18557550375323
30
0
10
317.10569218504099
20
-192.32874593997661
30
0
10
308.13883964089223
20
-184.27835514013628
30
0
0
SPLINE
5
132
100
AcDbEntity
8
0
100
AcDbSpline
70
0
71
2
72
6
73
3
74
0
42
0.000000001
43
0.0000000001
44
0.0000000001
40
0
40
0
40
0
40
1
40
1
40
1
10
308.13883964089223
20
-184.27835514013628
30
0
10
307.82970314848092
20
-191.91432921354635
30
0
10
306.10692555296089
20
-191.00395882869424
30
0
0
SPLINE
5
133
100
AcDbEntity
8
0
100
AcDbSpline
70
0
71
2
72
6
73
3
74
0
42
0.000000001
43
0.0000000001
44
0.0000000001
40
0
40
0
40
0
40
1
40
1
40
1
10
306.10692555296089
20
-191.00395882869424
30
0
10
304.38474223641219
20
-190.09296630804403
30
0
10
295.81891657062039
20
-180.64353138232889
30
0
0
SPLINE
5
134
100
AcDbEntity
8
0
100
AcDbSpline
70
0
71
2
72
6
73
3
74
0
42
0.000000001
43
0.0000000001
44
0.0000000001
40
0
40
0
40
0
40
1
40
1
40
1
10
295.81891657062039
20
-180.64353138232889
30
0
10
295.10812177844514
20
-189.67794601703349
30
0
10
292.22913730171979
20
-188.07017997368834
30
0
0
SPLINE
5
135
100
AcDbEntity
8
0
100
AcDbSpline
70
0
71
2
72
6
73
3
74
0
42
0.000000001
43
0.0000000001
44
0.0000000001
40
0
40
0
40
0
40
1
40
1
40
1
10
292.22913730171979
20
-188.07017997368834
30
0
10
289.34952140358752
20
-186.461801080154
30
0
10
282.76933035083283
20
-175.18126264517173
30
0
0
SPLINE
5
136
100
AcDbEntity
8
0
100
AcDbSpline
70
0
71
2
72
6
73
3
74
0
42
0.000000001
43
0.0000000001
44
0.0000000001
40
0
40
0
40
0
40
1
40
1
40
1
10
282.76933035083283
20
-175.18126264517173
30
0
10
288.61012693591579
20
-163.17960382088685
30
0
10
279.73880473641225
20
-164.08207215254168
30
0
0
SPLINE
5
137
100
AcDbEntity
8
0
100
AcDbSpline
70
4
71
3
72
8
73
4
74
0
42
0.000000001
43
0.0000000001
44
0.0000000001
40
0
40
0
40
0
40
0
40
1
40
1
40
1
40
1
41
1
41
1
41
1
41
1
10
279.73880473641225
20
-164.08207215254168
30
0
10
275.62810280668407
20
-164.50075097346965
30
0
10
272.19655031390653
20
-166.04887555067404
30
0
10
270.28999194649521
20
-169.92407586678527
30
0
0
SPLINE
5
138
100
AcDbEntity
8
0
100
AcDbSpline
70
4
71
3
72
8
73
4
74
0
42
0.000000001
43
0.0000000001
44
0.0000000001
40
0
40
0
40
0
40
0
40
1
40
1
40
1
40
1
41
1
41
1
41
1
41
1
10
270.28999194649521
20
-169.92407586678527
30
0
10
268.80271596459215
20
-168.32969038590451
30
0
10
266.5115476754076
20
-167.6389989370571
30
0
10
264.33600378858711
20
-167.77714094107014
30
0
0
SPLINE
5
139
100
AcDbEntity
8
0
100
AcDbSpline
70
4
71
3
72
8
73
4
74
0
42
0.000000001
43
0.0000000001
44
0.0000000001
40
0
40
0
40
0
40
0
40
1
40
1
40
1
40
1
41
1
41
1
41
1
41
1
10
264.33600378858711
20
-167.77714094107014
30
0
10
262.28401421415475
20
-167.98647570872964
30
0
10
260.89715280719264
20
-168.53842158898377
30
0
10
259.03197111316189
20
-169.44636842990579
30
0
0
SPLINE
5
140
100
AcDbEntity
8
0
100
AcDbSpline
70
4
71
3
72
8
73
4
74
0
42
0.000000001
43
0.0000000001
44
0.0000000001
40
0
40
0
40
0
40
0
40
1
40
1
40
1
40
1
41
1
41
1
41
1
41
1
10
259.03197111316189
20
-169.44636842990579
30
0
10
258.59625319985219
20
-169.65813602710429
30
0
10
258.08933323728706
20
-169.87295858963989
30
0
10
257.64631683536038
20
-169.67760794902506
30
0
0
SPLINE
5
141
100
AcDbEntity
8
0
100
AcDbSpline
70
4
71
3
72
8
73
4
74
0
42
0.000000001
43
0.0000000001
44
0.0000000001
40
0
40
0
40
0
40
0
40
1
40
1
40
1
40
1
41
1
41
1
41
1
41
1
10
257.64631683536038
20
-169.67760794902506
30
0
10
257.35543585010038
20
-169.54981939896606
30
0
10
257.16495086856349
20
-169.27354467654885
30
0
10
256.96475314008859
20
-169.02768960897785
30
0
0
SPLINE
5
142
100
AcDbEntity
8
0
100
AcDbSpline
70
4
71
3
72
8
73
4
74
0
42
0.000000001
43
0.0000000001
44
0.0000000001
40
0
40
0
40
0
40
0
40
1
40
1
40
1
40
1
41
1
41
1
41
1
41
1
10
256.96475314008859
20
-169.02768960897785
30
0
10
256.2101488449938
20
-168.0984508667853
30
0
10
255.10321140475736
20
-167.44547756140096
30
0
10
253.91472774692045
20
-167.30734484299683
30
0
0
SPLINE
5
143
100
AcDbEntity
8
0
100
AcDbSpline
70
4
71
3
72
8
73
4
74
0
42
0.000000001
43
0.0000000001
44
0.0000000001
40
0
40
0
40
0
40
0
40
1
40
1
40
1
40
1
41
1
41
1
41
1
41
1
10
253.91472774692045
20
-167.30734484299683
30
0
10
252.71346709119942
20
-167.16798642421426
30
0
10
250.4527370280789
20
-167.76010184868835
30
0
10
250.07971554624703
20
-169.14757610583962
30
0
0
SPLINE
5
144
100
AcDbEntity
8
0
100
AcDbSpline
70
4
71
3
72
8
73
4
74
0
42
0.000000001
43
0.0000000001
44
0.0000000001
40
0
40
0
40
0
40
0
40
1
40
1
40
1
40
1
41
1
41
1
41
1
41
1
10
250.07971554624703
20
-169.14757610583962
30
0
10
250.52637190687324
20
-167.48564710562093
30
0
10
251.17142458784247
20
-165.11963680848143
30
0
10
250.46551402596299
20
-163.4303245475358
30
0
0
SPLINE
5
145
100
AcDbEntity
8
0
100
AcDbSpline
70
4
71
3
72
8
73
4
74
0
42
0.000000001
43
0.0000000001
44
0.0000000001
40
0
40
0
40
0
40
0
40
1
40
1
40
1
40
1
41
1
41
1
41
1
41
1
10
250.46551402596299
20
-163.4303245475358
30
0
10
250.33651834674345
20
-163.12118805512452
30
0
10
250.11865939008857
20
-162.84794972682658
30
0
10
249.84785389132963
20
-162.62644152586321
30
0
0
SPLINE
5
146
100
AcDbEntity
8
0
100
AcDbSpline
70
4
71
3
72
8
73
4
74
0
42
0.000000001
43
0.0000000001
44
0.0000000001
40
0
40
0
40
0
40
0
40
1
40
1
40
1
40
1
41
1
41
1
41
1
41
1
10
249.84785389132963
20
-162.62644152586321
30
0
10
248.99346644270088
20
-161.92539662306172
30
0
10
247.60963214424916
20
-161.73493021274271
30
0
10
246.81305689680244
20
-162.53820038422606
30
0
0
SPLINE
5
147
100
AcDbEntity
8
0
100
AcDbSpline
70
4
71
3
72
8
73
4
74
0
42
0.000000001
43
0.0000000001
44
0.0000000001
40
0
40
0
40
0
40
0
40
1
40
1
40
1
40
1
41
1
41
1
41
1
41
1
10
246.81305689680244
20
-162.53820038422606
30
0
10
246.18503402260609
20
-163.17169248208069
30
0
10
246.15643434710964
20
-164.20864428783122
30
0
10
246.45279384163683
20
-165.05026402418477
30
0
0
SPLINE
5
148
100
AcDbEntity
8
0
100
AcDbSpline
70
4
71
3
72
8
73
4
74
0
42
0.000000001
43
0.0000000001
44
0.0000000001
40
0
40
0
40
0
40
0
40
1
40
1
40
1
40
1
41
1
41
1
41
1
41
1
10
246.45279384163683
20
-165.05026402418477
30
0
10
246.749153336164
20
-165.8912616247402
30
0
10
247.31083982018299
20
-166.608129205154
30
0
10
247.7660389410224
20
-167.375501212524
30
0
0
SPLINE
5
149
100
AcDbEntity
8
0
100
AcDbSpline
70
4
71
3
72
8
73
4
74
0
42
0.000000001
43
0.0000000001
44
0.0000000001
40
0
40
0
40
0
40
0
40
1
40
1
40
1
40
1
41
1
41
1
41
1
41
1
10
247.7660389410224
20
-167.375501212524
30
0
10
248.74700781054958
20
-169.03255526805583
30
0
10
249.62694925494657
20
-171.61764093661964
30
0
10
249.04032162534858
20
-173.52846139852863
30
0
0
SPLINE
5
150
100
AcDbEntity
8
0
100
AcDbSpline
70
4
71
3
72
8
73
4
74
0
42
0.000000001
43
0.0000000001
44
0.0000000001
40
0
40
0
40
0
40
0
40
1
40
1
40
1
40
1
41
1
41
1
41
1
41
1
10
249.04032162534858
20
-173.52846139852863
30
0
10
248.49689064848093
20
-175.29688704753582
30
0
10
246.8830332456794
20
-176.84623732511858
30
0
10
245.26735586352811
20
-177.6385504780676
30
0
0
SPLINE
5
151
100
AcDbEntity
8
0
100
AcDbSpline
70
4
71
3
72
8
73
4
74
0
42
0.000000001
43
0.0000000001
44
0.0000000001
40
0
40
0
40
0
40
0
40
1
40
1
40
1
40
1
41
1
41
1
41
1
41
1
10
245.26735586352811
20
-177.6385504780676
30
0
10
238.28312939512398
20
-181.06525588298501
30
0
10
232.61517513461575
20
-184.08605017924967
30
0
10
235.5769501005378
20
-186.50074492399557
30
0
0
SPLINE
5
152
100
AcDbEntity
8
0
100
AcDbSpline
70
4
71
3
72
8
73
4
74
0
42
0.000000001
43
0.0000000001
44
0.0000000001
40
0
40
0
40
0
40
0
40
1
40
1
40
1
40
1
41
1
41
1
41
1
41
1
10
235.5769501005378
20
-186.50074492399557
30
0
10
238.53870649524197
20
-188.91543966874144
30
0
10
253.38286663877631
20
-190.66378054563864
30
0
10
259.2193918437527
20
-191.97214141472838
30
0
0
SPLINE
5
153
100
AcDbEntity
8
0
100
AcDbSpline
70
4
71
3
72
8
73
4
74
0
42
0.000000001
43
0.0000000001
44
0.0000000001
40
0
40
0
40
0
40
0
40
1
40
1
40
1
40
1
41
1
41
1
41
1
41
1
10
259.2193918437527
20
-191.97214141472838
30
0
10
265.05591704872916
20
-193.27929515465758
30
0
10
270.78716201968655
20
-196.22706742231711
30
0
10
282.1924526106086
20
-198.86874887729348
30
0
0
SPLINE
5
154
100
AcDbEntity
8
0
100
AcDbSpline
70
4
71
3
72
8
73
4
74
0
42
0.000000001
43
0.0000000001
44
0.0000000001
40
0
40
0
40
0
40
0
40
1
40
1
40
1
40
1
41
1
41
1
41
1
41
1
10
282.1924526106086
20
-198.86874887729348
30
0
10
293.5965360723701
20
-201.51043033226989
30
0
10
328.25054001676705
20
-200.42904688780172
30
0
10
337.19365854449734
20
-194.90166746084554
30
0
0
SPLINE
5
155
100
AcDbEntity
8
0
100
AcDbSpline
70
4
71
3
72
8
73
4
74
0
42
0.000000001
43
0.0000000001
44
0.0000000001
40
0
40
0
40
0
40
0
40
1
40
1
40
1
40
1
41
1
41
1
41
1
41
1
10
337.19365854449734
20
-194.90166746084554
30
0
10
339.23470967161325
20
-193.64198175375324
30
0
10
343.1957275854316
20
-194.13368260328633
30
0
10
342.13928528654242
20
-191.2984890582627
30
0
0
LINE
5
156
100
AcDbEntity
8
0
100
AcDbLine
10
342.13928528654253
20
-191.2984890582627
30
0
11
341.83501445320906
21
-190.38567655826273
31
0
0
SPLINE
5
157
100
AcDbEntity
8
0
100
AcDbSpline
70
4
71
3
72
8
73
4
74
0
42
0.000000001
43
0.0000000001
44
0.0000000001
40
0
40
0
40
0
40
0
40
1
40
1
40
1
40
1
41
1
41
1
41
1
41
1
10
278.79800541110501
20
-190.75749091093402
30
0
10
278.15051990059681
20
-190.23049546186786
30
0
10
277.32777780719266
20
-189.96699773733479
30
0
10
276.50744997210961
20
-189.81182592654886
30
0
0
SPLINE
5
158
100
AcDbEntity
8
0
100
AcDbSpline
70
4
71
3
72
8
73
4
74
0
42
0.000000001
43
0.0000000001
44
0.0000000001
40
0
40
0
40
0
40
0
40
1
40
1
40
1
40
1
41
1
41
1
41
1
41
1
10
276.50744997210961
20
-189.81182592654886
30
0
10
274.84673738666044
20
-189.49781448945066
30
0
10
274.04407077975736
20
-190.01629503513041
30
0
10
273.71729163038401
20
-190.97170062328044
30
0
0
SPLINE
5
159
100
AcDbEntity
8
0
100
AcDbSpline
70
4
71
3
72
8
73
4
74
0
42
0.000000001
43
0.0000000001
44
0.0000000001
40
0
40
0
40
0
40
0
40
1
40
1
40
1
40
1
41
1
41
1
41
1
41
1
10
273.71729163038401
20
-190.97170062328044
30
0
10
272.72111293343369
20
-193.88174546186787
30
0
10
276.42651660469835
20
-199.81381029709837
30
0
10
273.04607210345733
20
-201.75749252900147
30
0
0
SPLINE
5
160
100
AcDbEntity
8
0
100
AcDbSpline
70
4
71
3
72
8
73
4
74
0
42
0.000000001
43
0.0000000001
44
0.0000000001
40
0
40
0
40
0
40
0
40
1
40
1
40
1
40
1
41
1
41
1
41
1
41
1
10
273.04607210345733
20
-201.75749252900147
30
0
10
272.44908173429633
20
-202.09949079140685
30
0
10
271.75535389132966
20
-202.23824564560914
30
0
10
271.14681222466294
20
-202.56137555067403
30
0
0
SPLINE
5
161
100
AcDbEntity
8
0
100
AcDbSpline
70
4
71
3
72
8
73
4
74
0
42
0.000000001
43
0.0000000001
44
0.0000000001
40
0
40
0
40
0
40
0
40
1
40
1
40
1
40
1
41
1
41
1
41
1
41
1
10
271.14681222466294
20
-202.56137555067403
30
0
10
270.47436699735789
20
-202.91859292611144
30
0
10
269.9126805133389
20
-203.52591817800862
30
0
10
269.72100697385935
20
-204.26346480950377
30
0
0
SPLINE
5
162
100
AcDbEntity
8
0
100
AcDbSpline
70
4
71
3
72
8
73
4
74
0
42
0.000000001
43
0.0000000001
44
0.0000000001
40
0
40
0
40
0
40
0
40
1
40
1
40
1
40
1
41
1
41
1
41
1
41
1
10
269.72100697385935
20
-204.26346480950377
30
0
10
269.52990914213325
20
-205.00102072660786
30
0
10
269.76054509667227
20
-205.85967026973429
30
0
10
270.36787963417834
20
-206.31973504965171
30
0
0
SPLINE
5
163
100
AcDbEntity
8
0
100
AcDbSpline
70
4
71
3
72
8
73
4
74
0
42
0.000000001
43
0.0000000001
44
0.0000000001
40
0
40
0
40
0
40
0
40
1
40
1
40
1
40
1
41
1
41
1
41
1
41
1
10
270.36787963417834
20
-206.31973504965171
30
0
10
270.83645003187326
20
-206.6757267247107
30
0
10
271.45169590818551
20
-206.76275145157837
30
0
10
272.03832353778347
20
-206.81203946376507
30
0
0
SPLINE
5
164
100
AcDbEntity
8
0
100
AcDbSpline
70
4
71
3
72
8
73
4
74
0
42
0.000000001
43
0.0000000001
44
0.0000000001
40
0
40
0
40
0
40
0
40
1
40
1
40
1
40
1
41
1
41
1
41
1
41
1
10
272.03832353778347
20
-206.81203946376507
30
0
10
276.62307437447373
20
-207.19785651469888
30
0
10
279.77106294182602
20
-206.59905545179708
30
0
10
280.65345578697986
20
-201.4933912398881
30
0
0
SPLINE
5
165
100
AcDbEntity
8
0
100
AcDbSpline
70
4
71
3
72
8
73
4
74
0
42
0.000000001
43
0.0000000001
44
0.0000000001
40
0
40
0
40
0
40
0
40
1
40
1
40
1
40
1
41
1
41
1
41
1
41
1
10
280.65345578697986
20
-201.4933912398881
30
0
10
281.18836257485219
20
-198.39834921463989
30
0
10
281.41715997882352
20
-195.05258646274271
30
0
10
279.96093507317369
20
-192.26971732402507
30
0
0
SPLINE
5
166
100
AcDbEntity
8
0
100
AcDbSpline
70
4
71
3
72
8
73
4
74
0
42
0.000000001
43
0.0000000001
44
0.0000000001
40
0
40
0
40
0
40
0
40
1
40
1
40
1
40
1
41
1
41
1
41
1
41
1
10
279.96093507317369
20
-192.26971732402507
30
0
10
279.66396272845731
20
-191.70256161634785
30
0
10
279.29458120532496
20
-191.16156346901917
30
0
10
278.79800541110501
20
-190.75749091093402
30
0
0
SPLINE
5
167
100
AcDbEntity
8
0
100
AcDbSpline
70
4
71
3
72
8
73
4
74
0
42
0.000000001
43
0.0000000001
44
0.0000000001
40
0
40
0
40
0
40
0
40
1
40
1
40
1
40
1
41
1
41
1
41
1
41
1
10
327.06265063790147
20
-190.65039069756529
30
0
10
326.402406700727
20
-190.1398214906917
30
0
10
325.57294182645938
20
-189.89702138845786
30
0
10
324.74960545408396
20
-189.76252862875324
30
0
0
SPLINE
5
168
100
AcDbEntity
8
0
100
AcDbSpline
70
4
71
3
72
8
73
4
74
0
42
0.000000001
43
0.0000000001
44
0.0000000001
40
0
40
0
40
0
40
0
40
1
40
1
40
1
40
1
41
1
41
1
41
1
41
1
10
324.74960545408396
20
-189.76252862875324
30
0
10
323.08035010842156
20
-189.49051600083374
30
0
10
322.29107334959173
20
-190.0296755975948
30
0
10
321.98925391701528
20
-190.9923889599707
30
0
0
SPLINE
5
169
100
AcDbEntity
8
0
100
AcDbSpline
70
4
71
3
72
8
73
4
74
0
42
0.000000001
43
0.0000000001
44
0.0000000001
40
0
40
0
40
0
40
0
40
1
40
1
40
1
40
1
41
1
41
1
41
1
41
1
10
321.98925391701528
20
-190.9923889599707
30
0
10
321.06671009885935
20
-193.92739351535499
30
0
10
324.92120350706244
20
-199.76390943472251
30
0
10
321.59064129697947
20
-201.79157071376505
30
0
0
SPLINE
5
170
100
AcDbEntity
8
0
100
AcDbSpline
70
4
71
3
72
8
73
4
74
0
42
0.000000001
43
0.0000000001
44
0.0000000001
40
0
40
0
40
0
40
0
40
1
40
1
40
1
40
1
41
1
41
1
41
1
41
1
10
321.59064129697947
20
-201.79157071376505
30
0
10
321.00341938841012
20
-202.14939165378274
30
0
10
320.31212437498243
20
-202.3057891649471
30
0
10
319.71331402647166
20
-202.64353461846372
30
0
0
SPLINE
5
171
100
AcDbEntity
8
0
100
AcDbSpline
70
4
71
3
72
8
73
4
74
0
42
0.000000001
43
0.0000000001
44
0.0000000001
40
0
40
0
40
0
40
0
40
1
40
1
40
1
40
1
41
1
41
1
41
1
41
1
10
319.71331402647166
20
-202.64353461846372
30
0
10
319.04939298816191
20
-203.01839465086323
30
0
10
318.50232205259465
20
-203.63910975083374
30
0
10
318.33068685718047
20
-204.38152204140687
30
0
0
SPLINE
5
172
100
AcDbEntity
8
0
100
AcDbSpline
70
4
71
3
72
8
73
4
74
0
42
0.000000001
43
0.0000000001
44
0.0000000001
40
0
40
0
40
0
40
0
40
1
40
1
40
1
40
1
41
1
41
1
41
1
41
1
10
318.33068685718047
20
-204.38152204140687
30
0
10
318.1578631038235
20
-205.12394361758891
30
0
10
318.41043166664906
20
-205.97651108686787
30
0
10
319.02929893044302
20
-206.42135675375326
30
0
0
SPLINE
5
173
100
AcDbEntity
8
0
100
AcDbSpline
70
4
71
3
72
8
73
4
74
0
42
0.000000001
43
0.0000000001
44
0.0000000001
40
0
40
0
40
0
40
0
40
1
40
1
40
1
40
1
41
1
41
1
41
1
41
1
10
319.02929893044302
20
-206.42135675375326
30
0
10
319.50702493854033
20
-206.76457143092816
30
0
10
320.12347794401313
20
-206.83577348018349
30
0
10
320.71129413155381
20
-206.87046451513629
30
0
0
SPLINE
5
174
100
AcDbEntity
8
0
100
AcDbSpline
70
4
71
3
72
8
73
4
74
0
42
0.000000001
43
0.0000000001
44
0.0000000001
40
0
40
0
40
0
40
0
40
1
40
1
40
1
40
1
41
1
41
1
41
1
41
1
10
320.71129413155381
20
-206.87046451513629
30
0
10
325.30458772845736
20
-207.14004431351682
30
0
10
328.43673504697949
20
-206.46152629797319
30
0
10
329.18950079150659
20
-201.33516446376504
30
0
0
SPLINE
5
175
100
AcDbEntity
8
0
100
AcDbSpline
70
4
71
3
72
8
73
4
74
0
42
0.000000001
43
0.0000000001
44
0.0000000001
40
0
40
0
40
0
40
0
40
1
40
1
40
1
40
1
41
1
41
1
41
1
41
1
10
329.18950079150659
20
-201.33516446376504
30
0
10
329.64531276253524
20
-198.22794900521302
30
0
10
329.78894256142445
20
-194.87732059423789
30
0
10
328.26331701465114
20
-192.13280102039045
30
0
0
SPLINE
5
176
100
AcDbEntity
8
0
100
AcDbSpline
70
4
71
3
72
8
73
4
74
0
42
0.000000001
43
0.0000000001
44
0.0000000001
40
0
40
0
40
0
40
0
40
1
40
1
40
1
40
1
41
1
41
1
41
1
41
1
10
328.26331701465114
20
-192.13280102039045
30
0
10
327.95172912148303
20
-191.57294380133015
30
0
10
327.56897632149526
20
-191.0410734075771
30
0
10
327.06265063790147
20
-190.65039069756529
30
0
0
LWPOLYLINE
5
177
100
AcDbEntity
8
0
100
AcDbPolyline
90
4
70
1
43
0.0
10
614.36674505420206
20
-86.933593224929396
10
792.06091172086872
20
-86.933593224929396
10
792.0609117208686
20
-237.85192655826273
10
614.36674505420183
20
-237.85192655826273
0
SPLINE
5
178
100
AcDbEntity
8
0
100
AcDbSpline
70
4
71
3
72
8
73
4
74
0
42
0.000000001
43
0.0000000001
44
0.0000000001
40
0
40
0
40
0
40
0
40
1
40
1
40
1
40
1
41
1
41
1
41
1
41
1
10
661.93647388008901
20
-162.4475264130499
30
0
10
662.74580755420186
20
-161.75075289035502
30
0
10
664.05418699450956
20
-161.95277988378865
30
0
10
664.87570338753528
20
-162.62644152586321
30
0
0
SPLINE
5
179
100
AcDbEntity
8
0
100
AcDbSpline
70
4
71
3
72
8
73
4
74
0
42
0.000000001
43
0.0000000001
44
0.0000000001
40
0
40
0
40
0
40
0
40
1
40
1
40
1
40
1
41
1
41
1
41
1
41
1
10
664.87570338753528
20
-162.62644152586321
30
0
10
665.14342606413038
20
-162.84794972682658
30
0
10
665.36256643481715
20
-163.12118805512452
30
0
10
665.49033641365838
20
-163.4303245475358
30
0
0
SPLINE
5
180
100
AcDbEntity
8
0
100
AcDbSpline
70
4
71
3
72
8
73
4
74
0
42
0.000000001
43
0.0000000001
44
0.0000000001
40
0
40
0
40
0
40
0
40
1
40
1
40
1
40
1
41
1
41
1
41
1
41
1
10
665.49033641365838
20
-163.4303245475358
30
0
10
666.19017418729925
20
-165.10685981059734
30
0
10
665.56335844226351
20
-167.44913609131834
30
0
10
665.1130435517199
20
-169.10923582657836
30
0
0
LINE
5
181
100
AcDbEntity
8
0
100
AcDbLine
10
665.1130435517199
20
-169.10923582657836
30
0
11
665.10695219226352
21
-169.14696325565043
31
0
0
SPLINE
5
182
100
AcDbEntity
8
0
100
AcDbSpline
70
4
71
3
72
8
73
4
74
0
42
0.000000001
43
0.0000000001
44
0.0000000001
40
0
40
0
40
0
40
0
40
1
40
1
40
1
40
1
41
1
41
1
41
1
41
1
10
665.10695219226352
20
-169.14696325565043
30
0
10
665.47815369474563
20
-167.76010184868835
30
0
10
667.74191086637643
20
-167.16798642421426
30
0
10
668.94079440621204
20
-167.30734484299683
30
0
0
SPLINE
5
183
100
AcDbEntity
8
0
100
AcDbSpline
70
4
71
3
72
8
73
4
74
0
42
0.000000001
43
0.0000000001
44
0.0000000001
40
0
40
0
40
0
40
0
40
1
40
1
40
1
40
1
41
1
41
1
41
1
41
1
10
668.94079440621204
20
-167.30734484299683
30
0
10
670.1274209422636
20
-167.44547756140096
30
0
10
671.23493409025343
20
-168.0984508667853
30
0
10
671.98951981413029
20
-169.02768960897785
30
0
0
SPLINE
5
184
100
AcDbEntity
8
0
100
AcDbSpline
70
4
71
3
72
8
73
4
74
0
42
0.000000001
43
0.0000000001
44
0.0000000001
40
0
40
0
40
0
40
0
40
1
40
1
40
1
40
1
41
1
41
1
41
1
41
1
10
671.98951981413029
20
-169.02768960897785
30
0
10
672.01997661141218
20
-169.06055137897195
30
0
10
672.04434204923768
20
-169.09462956373557
30
0
10
672.0686332021919
20
-169.12870774849915
30
0
0
SPLINE
5
185
100
AcDbEntity
8
0
100
AcDbSpline
70
4
71
3
72
8
73
4
74
0
42
0.000000001
43
0.0000000001
44
0.0000000001
40
0
40
0
40
0
40
0
40
1
40
1
40
1
40
1
41
1
41
1
41
1
41
1
10
672.0686332021919
20
-169.12870774849915
30
0
10
672.24513405668404
20
-169.34535029038449
30
0
10
672.42163491117617
20
-169.56746205592816
30
0
10
672.67115779427354
20
-169.67760794902506
30
0
0
SPLINE
5
186
100
AcDbEntity
8
0
100
AcDbSpline
70
4
71
3
72
8
73
4
74
0
42
0.000000001
43
0.0000000001
44
0.0000000001
40
0
40
0
40
0
40
0
40
1
40
1
40
1
40
1
41
1
41
1
41
1
41
1
10
672.67115779427354
20
-169.67760794902506
30
0
10
673.11538132536089
20
-169.87295858963989
30
0
10
673.62044416614037
20
-169.65813602710429
30
0
10
674.05857633777134
20
-169.44636842990579
30
0
0
SPLINE
5
187
100
AcDbEntity
8
0
100
AcDbSpline
70
4
71
3
72
8
73
4
74
0
42
0.000000001
43
0.0000000001
44
0.0000000001
40
0
40
0
40
0
40
0
40
1
40
1
40
1
40
1
41
1
41
1
41
1
41
1
10
674.05857633777134
20
-169.44636842990579
30
0
10
675.92074949450966
20
-168.53842158898377
30
0
10
677.30824232287875
20
-167.98647570872964
30
0
10
679.35902476815045
20
-167.77714094107014
30
0
0
SPLINE
5
188
100
AcDbEntity
8
0
100
AcDbSpline
70
4
71
3
72
8
73
4
74
0
42
0.000000001
43
0.0000000001
44
0.0000000001
40
0
40
0
40
0
40
0
40
1
40
1
40
1
40
1
41
1
41
1
41
1
41
1
10
679.35902476815045
20
-167.77714094107014
30
0
10
681.53757719226348
20
-167.6389989370571
30
0
10
683.82569980171979
20
-168.32969038590451
30
0
10
685.3165971711046
20
-169.92407586678527
30
0
0
SPLINE
5
189
100
AcDbEntity
8
0
100
AcDbSpline
70
4
71
3
72
8
73
4
74
0
42
0.000000001
43
0.0000000001
44
0.0000000001
40
0
40
0
40
0
40
0
40
1
40
1
40
1
40
1
41
1
41
1
41
1
41
1
10
685.3165971711046
20
-169.92407586678527
30
0
10
687.22133555916616
20
-166.04887555067404
30
0
10
690.6535194733508
20
-164.50075097346965
30
0
10
694.76117572335068
20
-164.08207215254168
30
0
0
SPLINE
5
190
100
AcDbEntity
8
0
100
AcDbSpline
70
0
71
2
72
6
73
3
74
0
42
0.000000001
43
0.0000000001
44
0.0000000001
40
0
40
0
40
0
40
1
40
1
40
1
10
694.76117572335068
20
-164.08207215254168
30
0
10
703.633686480797
20
-163.17960382088685
30
0
10
697.79170133777131
20
-175.18126264517173
30
0
0
SPLINE
5
191
100
AcDbEntity
8
0
100
AcDbSpline
70
0
71
2
72
6
73
3
74
0
42
0.000000001
43
0.0000000001
44
0.0000000001
40
0
40
0
40
0
40
1
40
1
40
1
10
697.79170133777131
20
-175.18126264517173
30
0
10
704.37616377063262
20
-186.461801080154
30
0
10
707.25455396838652
20
-188.07017997368834
30
0
0
SPLINE
5
192
100
AcDbEntity
8
0
100
AcDbSpline
70
0
71
2
72
6
73
3
74
0
42
0.000000001
43
0.0000000001
44
0.0000000001
40
0
40
0
40
0
40
1
40
1
40
1
10
707.25455396838652
20
-188.07017997368834
30
0
10
710.13294416614042
20
-189.67794601703349
30
0
10
710.84496465869404
20
-180.64353138232889
30
0
0
SPLINE
5
193
100
AcDbEntity
8
0
100
AcDbSpline
70
0
71
2
72
6
73
3
74
0
42
0.000000001
43
0.0000000001
44
0.0000000001
40
0
40
0
40
0
40
1
40
1
40
1
10
710.84496465869404
20
-180.64353138232889
30
0
10
719.40711322335073
20
-190.09296630804403
30
0
10
721.13535075691993
20
-191.00395882869424
30
0
0
SPLINE
5
194
100
AcDbEntity
8
0
100
AcDbSpline
70
0
71
2
72
6
73
3
74
0
42
0.000000001
43
0.0000000001
44
0.0000000001
40
0
40
0
40
0
40
1
40
1
40
1
10
721.13535075691993
20
-191.00395882869424
30
0
10
722.85757121590439
20
-191.91432921354635
30
0
10
723.16184204923775
20
-184.27835514013628
30
0
0
SPLINE
5
195
100
AcDbEntity
8
0
100
AcDbSpline
70
0
71
2
72
6
73
3
74
0
42
0.000000001
43
0.0000000001
44
0.0000000001
40
0
40
0
40
0
40
1
40
1
40
1
10
723.16184204923775
20
-184.27835514013628
30
0
10
732.1317402731147
20
-192.32874593997661
30
0
10
734.38940608528924
20
-193.18557550375323
30
0
0
SPLINE
5
196
100
AcDbEntity
8
0
100
AcDbSpline
70
0
71
2
72
6
73
3
74
0
42
0.000000001
43
0.0000000001
44
0.0000000001
40
0
40
0
40
0
40
1
40
1
40
1
10
734.38940608528924
20
-193.18557550375323
30
0
10
736.65316325692004
20
-194.04179221734069
30
0
10
733.92081711637638
20
-185.90011459613504
30
0
0
SPLINE
5
197
100
AcDbEntity
8
0
100
AcDbSpline
70
0
71
2
72
6
73
3
74
0
42
0.000000001
43
0.0000000001
44
0.0000000001
40
0
40
0
40
0
40
1
40
1
40
1
10
733.92081711637638
20
-185.90011459613504
30
0
10
745.68397507536076
20
-192.03664853994709
30
0
10
747.35137329923771
20
-192.41029215757709
30
0
0
SPLINE
5
198
100
AcDbEntity
8
0
100
AcDbSpline
70
4
71
3
72
8
73
4
74
0
42
0.000000001
43
0.0000000001
44
0.0000000001
40
0
40
0
40
0
40
0
40
1
40
1
40
1
40
1
41
1
41
1
41
1
41
1
10
747.35137329923771
20
-192.41029215757709
30
0
10
748.11814174202755
20
-192.58251234635378
30
0
10
747.13230721342234
20
-190.198246542063
30
0
10
746.39592128304321
20
-188.43043374324503
30
0
0
LINE
5
199
100
AcDbEntity
8
0
100
AcDbLine
10
746.39592128304298
20
-188.43043374324503
30
0
11
746.39592128304321
21
-188.42982089305582
31
0
0
LINE
5
200
100
AcDbEntity
8
0
100
AcDbLine
10
746.39592128304321
20
-188.42982089305582
30
0
11
746.39592128304321
21
-188.42921732847554
31
0
0
SPLINE
5
201
100
AcDbEntity
8
0
100
AcDbSpline
70
4
71
3
72
8
73
4
74
0
42
0.000000001
43
0.0000000001
44
0.0000000001
40
0
40
0
40
0
40
0
40
1
40
1
40
1
40
1
41
1
41
1
41
1
41
1
10
746.39592128304321
20
-188.42921732847554
30
0
10
746.03081114001736
20
-187.5352639002071
30
0
10
745.72044894722762
20
-186.79953724806171
30
0
10
745.74481438505313
20
-186.63157915378275
30
0
0
SPLINE
5
202
100
AcDbEntity
8
0
100
AcDbSpline
70
4
71
3
72
8
73
4
74
0
42
0.000000001
43
0.0000000001
44
0.0000000001
40
0
40
0
40
0
40
0
40
1
40
1
40
1
40
1
41
1
41
1
41
1
41
1
10
745.74481438505313
20
-186.63157915378275
30
0
10
746.45683487760698
20
-186.64070690735841
30
0
10
747.01664566862246
20
-187.29671660686196
30
0
10
747.49741735644807
20
-187.85475384657246
30
0
0
LINE
5
203
100
AcDbEntity
8
0
100
AcDbLine
10
747.49741735644807
20
-187.85475384657249
30
0
11
747.56434802559681
21
-187.93873289371194
31
0
0
SPLINE
5
204
100
AcDbEntity
8
0
100
AcDbSpline
70
4
71
3
72
8
73
4
74
0
42
0.000000001
43
0.0000000001
44
0.0000000001
40
0
40
0
40
0
40
0
40
1
40
1
40
1
40
1
41
1
41
1
41
1
41
1
10
747.56434802559681
20
-187.93873289371194
30
0
10
749.04313696094027
20
-189.65481556519532
30
0
10
750.83221380420196
20
-191.39159585897787
30
0
10
753.08987961637638
20
-191.57537663086913
30
0
0
SPLINE
5
205
100
AcDbEntity
8
0
100
AcDbSpline
70
4
71
3
72
8
73
4
74
0
42
0.000000001
43
0.0000000001
44
0.0000000001
40
0
40
0
40
0
40
0
40
1
40
1
40
1
40
1
41
1
41
1
41
1
41
1
10
753.08987961637638
20
-191.57537663086913
30
0
10
752.74304355171989
20
-190.46417709613505
30
0
10
752.51788610644803
20
-189.31768296186789
30
0
10
752.40831592110464
20
-188.16024109467531
30
0
0
SPLINE
5
206
100
AcDbEntity
8
0
100
AcDbSpline
70
4
71
3
72
8
73
4
74
0
42
0.000000001
43
0.0000000001
44
0.0000000001
40
0
40
0
40
0
40
0
40
1
40
1
40
1
40
1
41
1
41
1
41
1
41
1
10
752.40831592110464
20
-188.16024109467531
30
0
10
753.04731438505314
20
-188.27464908226989
30
0
10
753.5950167420275
20
-188.65011267924967
30
0
10
754.1305363800891
20
-189.02132346734072
30
0
0
SPLINE
5
207
100
AcDbEntity
8
0
100
AcDbSpline
70
4
71
3
72
8
73
4
74
0
42
0.000000001
43
0.0000000001
44
0.0000000001
40
0
40
0
40
0
40
0
40
1
40
1
40
1
40
1
41
1
41
1
41
1
41
1
10
754.1305363800891
20
-189.02132346734072
30
0
10
754.22784956164821
20
-189.09009268705711
30
0
10
754.33132838753522
20
-189.15885262116456
30
0
10
754.42871585396585
20
-189.22518901134197
30
0
0
SPLINE
5
208
100
AcDbEntity
8
0
100
AcDbSpline
70
4
71
3
72
8
73
4
74
0
42
0.000000001
43
0.0000000001
44
0.0000000001
40
0
40
0
40
0
40
0
40
1
40
1
40
1
40
1
41
1
41
1
41
1
41
1
10
754.42871585396585
20
-189.22518901134197
30
0
10
754.73907804675559
20
-189.43209094946246
30
0
10
755.17721021838656
20
-189.56840368851684
30
0
10
755.54232036141229
20
-189.65359915042583
30
0
0
SPLINE
5
209
100
AcDbEntity
8
0
100
AcDbSpline
70
4
71
3
72
8
73
4
74
0
42
0.000000001
43
0.0000000001
44
0.0000000001
40
0
40
0
40
0
40
0
40
1
40
1
40
1
40
1
41
1
41
1
41
1
41
1
10
755.54232036141229
20
-189.65359915042583
30
0
10
755.22586680916618
20
-187.86570157949791
30
0
10
753.36376793729926
20
-186.34617667778991
30
0
10
751.95190967110466
20
-185.1923840549058
30
0
0
SPLINE
5
210
100
AcDbEntity
8
0
100
AcDbSpline
70
4
71
3
72
8
73
4
74
0
42
0.000000001
43
0.0000000001
44
0.0000000001
40
0
40
0
40
0
40
0
40
1
40
1
40
1
40
1
41
1
41
1
41
1
41
1
10
751.95190967110466
20
-185.1923840549058
30
0
10
749.91330994474549
20
-183.52437298083964
30
0
10
748.80579679675566
20
-182.62129179899557
30
0
10
754.63559922086858
20
-182.77890572492939
30
0
0
SPLINE
5
211
100
AcDbEntity
8
0
100
AcDbSpline
70
4
71
3
72
8
73
4
74
0
42
0.000000001
43
0.0000000001
44
0.0000000001
40
0
40
0
40
0
40
0
40
1
40
1
40
1
40
1
41
1
41
1
41
1
41
1
10
754.63559922086858
20
-182.77890572492939
30
0
10
754.4165331350531
20
-180.96180491392477
30
0
10
752.4204986400174
20
-180.03012405658427
30
0
10
750.40017299202748
20
-179.08505335117044
30
0
0
SPLINE
5
212
100
AcDbEntity
8
0
100
AcDbSpline
70
4
71
3
72
8
73
4
74
0
42
0.000000001
43
0.0000000001
44
0.0000000001
40
0
40
0
40
0
40
0
40
1
40
1
40
1
40
1
41
1
41
1
41
1
41
1
10
750.40017299202748
20
-179.08505335117044
30
0
10
748.55627391365829
20
-178.22275456373552
30
0
10
746.68800939746359
20
-177.34828234299684
30
0
10
746.11601588753524
20
-175.78067655826274
30
0
0
SPLINE
5
213
100
AcDbEntity
8
0
100
AcDbSpline
70
4
71
3
72
8
73
4
74
0
42
0.000000001
43
0.0000000001
44
0.0000000001
40
0
40
0
40
0
40
0
40
1
40
1
40
1
40
1
41
1
41
1
41
1
41
1
10
746.11601588753524
20
-175.78067655826274
30
0
10
747.32091650195582
20
-176.52248528425557
30
0
10
748.38586441862253
20
-176.02287309591634
30
0
10
749.462995054202
20
-175.51656598354043
30
0
0
SPLINE
5
214
100
AcDbEntity
8
0
100
AcDbSpline
70
4
71
3
72
8
73
4
74
0
42
0.000000001
43
0.0000000001
44
0.0000000001
40
0
40
0
40
0
40
0
40
1
40
1
40
1
40
1
41
1
41
1
41
1
41
1
10
749.462995054202
20
-175.51656598354043
30
0
10
750.52185161141222
20
-175.02182873988812
30
0
10
751.58679952807893
20
-174.52099085117044
30
0
10
752.80997422086853
20
-175.17213489159604
30
0
0
SPLINE
5
215
100
AcDbEntity
8
0
100
AcDbSpline
70
4
71
3
72
8
73
4
74
0
42
0.000000001
43
0.0000000001
44
0.0000000001
40
0
40
0
40
0
40
0
40
1
40
1
40
1
40
1
41
1
41
1
41
1
41
1
10
752.80997422086853
20
-175.17213489159604
30
0
10
752.67002152311477
20
-172.49820451681475
30
0
10
750.07762808032498
20
-170.40908179228168
30
0
10
747.6739182109402
20
-168.47087806964578
30
0
0
SPLINE
5
216
100
AcDbEntity
8
0
100
AcDbSpline
70
4
71
3
72
8
73
4
74
0
42
0.000000001
43
0.0000000001
44
0.0000000001
40
0
40
0
40
0
40
0
40
1
40
1
40
1
40
1
41
1
41
1
41
1
41
1
10
747.6739182109402
20
-168.47087806964578
30
0
10
746.77930550443784
20
-167.7497483947343
30
0
10
745.90913252063262
20
-167.0499291923112
30
0
10
745.20320338753527
20
-166.3482807249294
30
0
0
SPLINE
5
217
100
AcDbEntity
8
0
100
AcDbSpline
70
4
71
3
72
8
73
4
74
0
42
0.000000001
43
0.0000000001
44
0.0000000001
40
0
40
0
40
0
40
0
40
1
40
1
40
1
40
1
41
1
41
1
41
1
41
1
10
745.20320338753527
20
-166.3482807249294
30
0
10
744.60075308032503
20
-165.75129964137739
30
0
10
743.98612005420193
20
-165.32288950229349
30
0
10
743.42623497831494
20
-164.92916111255352
30
0
0
SPLINE
5
218
100
AcDbEntity
8
0
100
AcDbSpline
70
4
71
3
72
8
73
4
74
0
42
0.000000001
43
0.0000000001
44
0.0000000001
40
0
40
0
40
0
40
0
40
1
40
1
40
1
40
1
41
1
41
1
41
1
41
1
10
743.42623497831494
20
-164.92916111255352
30
0
10
742.22133436389424
20
-164.09181275630655
30
0
10
741.25377391365828
20
-163.4145018699235
30
0
10
741.12600393481716
20
-161.61565656607013
30
0
0
LINE
5
219
100
AcDbEntity
8
0
100
AcDbLine
10
741.12600393481716
20
-161.61565656607019
30
0
11
748.06331950691992
21
-162.29478743180297
31
0
0
SPLINE
5
220
100
AcDbEntity
8
0
100
AcDbSpline
70
4
71
3
72
8
73
4
74
0
42
0.000000001
43
0.0000000001
44
0.0000000001
40
0
40
0
40
0
40
0
40
1
40
1
40
1
40
1
41
1
41
1
41
1
41
1
10
748.06331950691992
20
-162.29478743180297
30
0
10
745.22756882536089
20
-158.66179293895425
30
0
10
741.04079918729917
20
-156.10591979607605
30
0
10
736.51321055916605
20
-155.23874606395427
30
0
0
SPLINE
5
221
100
AcDbEntity
8
0
100
AcDbSpline
70
4
71
3
72
8
73
4
74
0
42
0.000000001
43
0.0000000001
44
0.0000000001
40
0
40
0
40
0
40
0
40
1
40
1
40
1
40
1
41
1
41
1
41
1
41
1
10
736.51321055916605
20
-155.23874606395427
30
0
10
735.72824232287871
20
-155.08964704140683
30
0
10
734.69367691862249
20
-154.6441978099412
30
0
10
734.89454321094036
20
-153.87378940845196
30
0
0
SPLINE
5
222
100
AcDbEntity
8
0
100
AcDbSpline
70
4
71
3
72
8
73
4
74
0
42
0.000000001
43
0.0000000001
44
0.0000000001
40
0
40
0
40
0
40
0
40
1
40
1
40
1
40
1
41
1
41
1
41
1
41
1
10
734.89454321094036
20
-153.87378940845196
30
0
10
735.05269570219184
20
-153.30114590589864
30
0
10
735.79517299202746
20
-153.16787884657245
30
0
10
736.38544058032494
20
-153.15570541326863
30
0
0
SPLINE
5
223
100
AcDbEntity
8
0
100
AcDbSpline
70
4
71
3
72
8
73
4
74
0
42
0.000000001
43
0.0000000001
44
0.0000000001
40
0
40
0
40
0
40
0
40
1
40
1
40
1
40
1
41
1
41
1
41
1
41
1
10
736.38544058032494
20
-153.15570541326863
30
0
10
738.84397268481723
20
-153.10397528593401
30
0
10
741.30852186389438
20
-153.22386178279584
30
0
10
743.75487124947369
20
-153.51535561824502
30
0
0
SPLINE
5
224
100
AcDbEntity
8
0
100
AcDbSpline
70
4
71
3
72
8
73
4
74
0
42
0.000000001
43
0.0000000001
44
0.0000000001
40
0
40
0
40
0
40
0
40
1
40
1
40
1
40
1
41
1
41
1
41
1
41
1
10
743.75487124947369
20
-153.51535561824502
30
0
10
741.67972336637649
20
-150.90349025353453
30
0
10
738.25972217110461
20
-149.74726480111144
30
0
10
734.94929116117623
20
-149.32189105614685
30
0
0
SPLINE
5
225
100
AcDbEntity
8
0
100
AcDbSpline
70
4
71
3
72
8
73
4
74
0
42
0.000000001
43
0.0000000001
44
0.0000000001
40
0
40
0
40
0
40
0
40
1
40
1
40
1
40
1
41
1
41
1
41
1
41
1
10
734.94929116117623
20
-149.32189105614685
30
0
10
733.51314174202741
20
-149.13689386948607
30
0
10
732.05871824450946
20
-149.06448469107016
30
0
10
730.610386106448
20
-148.99206622704529
30
0
0
SPLINE
5
226
100
AcDbEntity
8
0
100
AcDbSpline
70
4
71
3
72
8
73
4
74
0
42
0.000000001
43
0.0000000001
44
0.0000000001
40
0
40
0
40
0
40
0
40
1
40
1
40
1
40
1
41
1
41
1
41
1
41
1
10
730.610386106448
20
-148.99206622704529
30
0
10
728.72392179675569
20
-148.89834657614097
30
0
10
726.84347456164824
20
-148.80463621084556
30
0
10
724.98746704923769
20
-148.46445792778991
30
0
0
SPLINE
5
227
100
AcDbEntity
8
0
100
AcDbSpline
70
4
71
3
72
8
73
4
74
0
42
0.000000001
43
0.0000000001
44
0.0000000001
40
0
40
0
40
0
40
0
40
1
40
1
40
1
40
1
41
1
41
1
41
1
41
1
10
724.98746704923769
20
-148.46445792778991
30
0
10
724.64664805916618
20
-147.5102687544094
30
0
10
725.95502749947377
20
-146.85121337517759
30
0
10
726.95304474699174
20
-146.70881856227581
30
0
0
SPLINE
5
228
100
AcDbEntity
8
0
100
AcDbSpline
70
4
71
3
72
8
73
4
74
0
42
0.000000001
43
0.0000000001
44
0.0000000001
40
0
40
0
40
0
40
0
40
1
40
1
40
1
40
1
41
1
41
1
41
1
41
1
10
726.95304474699174
20
-146.70881856227581
30
0
10
729.62455157784291
20
-146.32908358518938
30
0
10
732.33862364001743
20
-146.23232754016581
30
0
10
735.03449590869411
20
-146.42037040655478
30
0
0
SPLINE
5
229
100
AcDbEntity
8
0
100
AcDbSpline
70
4
71
3
72
8
73
4
74
0
42
0.000000001
43
0.0000000001
44
0.0000000001
40
0
40
0
40
0
40
0
40
1
40
1
40
1
40
1
41
1
41
1
41
1
41
1
10
735.03449590869411
20
-146.42037040655478
30
0
10
735.30221858528921
20
-145.27265985751811
30
0
10
734.53545014249949
20
-144.07991410518349
30
0
10
733.51923310148379
20
-143.48476228659018
30
0
0
SPLINE
5
230
100
AcDbEntity
8
0
100
AcDbSpline
70
4
71
3
72
8
73
4
74
0
42
0.000000001
43
0.0000000001
44
0.0000000001
40
0
40
0
40
0
40
0
40
1
40
1
40
1
40
1
41
1
41
1
41
1
41
1
10
733.51923310148379
20
-143.48476228659018
30
0
10
732.50294177559681
20
-142.89021403257709
30
0
10
731.28585844226347
20
-142.76120906774861
30
0
10
730.10524898079689
20
-142.66870583161378
30
0
0
SPLINE
5
231
100
AcDbEntity
8
0
100
AcDbSpline
70
4
71
3
72
8
73
4
74
0
42
0.000000001
43
0.0000000001
44
0.0000000001
40
0
40
0
40
0
40
0
40
1
40
1
40
1
40
1
41
1
41
1
41
1
41
1
10
730.10524898079689
20
-142.66870583161378
30
0
10
726.14972814746363
20
-142.35713650966349
30
0
10
722.16991616117627
20
-142.30418996755941
30
0
10
718.20221260893004
20
-142.51292117063861
30
0
0
SPLINE
5
232
100
AcDbEntity
8
0
100
AcDbSpline
70
4
71
3
72
8
73
4
74
0
42
0.000000001
43
0.0000000001
44
0.0000000001
40
0
40
0
40
0
40
0
40
1
40
1
40
1
40
1
41
1
41
1
41
1
41
1
10
718.20221260893004
20
-142.51292117063861
30
0
10
718.38480482287866
20
-141.00799324616452
30
0
10
720.21042982287872
20
-140.42988051995297
30
0
10
721.68914447335067
20
-140.08180018370015
30
0
0
SPLINE
5
233
100
AcDbEntity
8
0
100
AcDbSpline
70
4
71
3
72
8
73
4
74
0
42
0.000000001
43
0.0000000001
44
0.0000000001
40
0
40
0
40
0
40
0
40
1
40
1
40
1
40
1
41
1
41
1
41
1
41
1
10
721.68914447335067
20
-140.08180018370015
30
0
10
723.16793340869413
20
-139.73492697660788
30
0
10
724.95701025195581
20
-138.79168553615276
30
0
10
724.71967008777131
20
-137.29406538590453
30
0
0
SPLINE
5
234
100
AcDbEntity
8
0
100
AcDbSpline
70
4
71
3
72
8
73
4
74
0
42
0.000000001
43
0.0000000001
44
0.0000000001
40
0
40
0
40
0
40
0
40
1
40
1
40
1
40
1
41
1
41
1
41
1
41
1
10
724.71967008777131
20
-137.29406538590453
30
0
10
717.81273702807891
20
-137.33788417443299
30
0
10
710.91798668729916
20
-138.35475120807354
30
0
10
704.29705038257111
20
-140.30330838466347
30
0
0
SPLINE
5
235
100
AcDbEntity
8
0
100
AcDbSpline
70
4
71
3
72
8
73
4
74
0
42
0.000000001
43
0.0000000001
44
0.0000000001
40
0
40
0
40
0
40
0
40
1
40
1
40
1
40
1
41
1
41
1
41
1
41
1
10
704.29705038257111
20
-140.30330838466347
30
0
10
703.72498258777125
20
-139.2395768827663
30
0
10
704.71081711637635
20
-138.02188069924375
30
0
10
705.64799505420194
20
-137.25816722179118
30
0
0
SPLINE
5
236
100
AcDbEntity
8
0
100
AcDbSpline
70
4
71
3
72
8
73
4
74
0
42
0.000000001
43
0.0000000001
44
0.0000000001
40
0
40
0
40
0
40
0
40
1
40
1
40
1
40
1
41
1
41
1
41
1
41
1
10
705.64799505420194
20
-137.25816722179118
30
0
10
706.5912643514838
20
-136.49566087349913
30
0
10
707.6805034211045
20
-135.44714384182953
30
0
10
707.32148463753538
20
-134.2927383687562
30
0
0
SPLINE
5
237
100
AcDbEntity
8
0
100
AcDbSpline
70
4
71
3
72
8
73
4
74
0
42
0.000000001
43
0.0000000001
44
0.0000000001
40
0
40
0
40
0
40
0
40
1
40
1
40
1
40
1
41
1
41
1
41
1
41
1
10
707.32148463753538
20
-134.2927383687562
30
0
10
703.82846141365826
20
-133.77913276776337
30
0
10
700.29889003304311
20
-134.93049256110851
30
0
10
697.11622900195584
20
-136.4494092554317
30
0
0
SPLINE
5
238
100
AcDbEntity
8
0
100
AcDbSpline
70
4
71
3
72
8
73
4
74
0
42
0.000000001
43
0.0000000001
44
0.0000000001
40
0
40
0
40
0
40
0
40
1
40
1
40
1
40
1
41
1
41
1
41
1
41
1
10
697.11622900195584
20
-136.4494092554317
30
0
10
696.02691564746362
20
-136.96910621588094
30
0
10
694.95595065621205
20
-137.53382909401915
30
0
10
693.88491138008908
20
-138.09794840757712
30
0
0
SPLINE
5
239
100
AcDbEntity
8
0
100
AcDbSpline
70
4
71
3
72
8
73
4
74
0
42
0.000000001
43
0.0000000001
44
0.0000000001
40
0
40
0
40
0
40
0
40
1
40
1
40
1
40
1
41
1
41
1
41
1
41
1
10
693.88491138008908
20
-138.09794840757712
30
0
10
691.82803757536078
20
-139.18419751112324
30
0
10
689.77725513008909
20
-140.26983376448018
30
0
10
687.58042862760692
20
-141.03051084781353
30
0
0
SPLINE
5
240
100
AcDbEntity
8
0
100
AcDbSpline
70
4
71
3
72
8
73
4
74
0
42
0.000000001
43
0.0000000001
44
0.0000000001
40
0
40
0
40
0
40
0
40
1
40
1
40
1
40
1
41
1
41
1
41
1
41
1
10
687.58042862760692
20
-141.03051084781353
30
0
10
687.76294655668403
20
-139.35641769989988
30
0
10
688.26199232287877
20
-137.71760986591045
30
0
10
689.04086919970973
20
-136.22363895997069
30
0
0
SPLINE
5
241
100
AcDbEntity
8
0
100
AcDbSpline
70
4
71
3
72
8
73
4
74
0
42
0.000000001
43
0.0000000001
44
0.0000000001
40
0
40
0
40
0
40
0
40
1
40
1
40
1
40
1
41
1
41
1
41
1
41
1
10
689.04086919970973
20
-136.22363895997069
30
0
10
685.22530106413024
20
-137.27276419902506
30
0
10
681.80529986885858
20
-139.68867535854045
30
0
10
679.53545133777129
20
-142.93098714137733
30
0
0
SPLINE
5
242
100
AcDbEntity
8
0
100
AcDbSpline
70
4
71
3
72
8
73
4
74
0
42
0.000000001
43
0.0000000001
44
0.0000000001
40
0
40
0
40
0
40
0
40
1
40
1
40
1
40
1
41
1
41
1
41
1
41
1
10
679.53545133777129
20
-142.93098714137733
30
0
10
678.63482155668407
20
-144.21927252396608
30
0
10
677.18039805916624
20
-145.84469050988218
30
0
10
675.84163610644805
20
-145.01707347179118
30
0
0
LINE
5
243
100
AcDbEntity
8
0
100
AcDbLine
10
675.84163610644805
20
-145.01707347179118
30
0
11
677.08910195219187
21
-139.73249414706888
31
0
0
SPLINE
5
244
100
AcDbEntity
8
0
100
AcDbSpline
70
4
71
3
72
8
73
4
74
0
42
0.000000001
43
0.0000000001
44
0.0000000001
40
0
40
0
40
0
40
0
40
1
40
1
40
1
40
1
41
1
41
1
41
1
41
1
10
677.08910195219187
20
-139.73249414706888
30
0
10
676.04851947335078
20
-139.47751132592225
30
0
10
675.12352425443794
20
-140.40432652418477
30
0
10
674.47241735644809
20
-141.25384831373555
30
0
0
SPLINE
5
245
100
AcDbEntity
8
0
100
AcDbSpline
70
4
71
3
72
8
73
4
74
0
42
0.000000001
43
0.0000000001
44
0.0000000001
40
0
40
0
40
0
40
0
40
1
40
1
40
1
40
1
41
1
41
1
41
1
41
1
10
674.47241735644809
20
-141.25384831373555
30
0
10
671.81309324450945
20
-144.72557963634193
30
0
10
669.53106199450963
20
-148.48089345559143
30
0
10
667.66279747831493
20
-152.43518858854634
30
0
0
SPLINE
5
246
100
AcDbEntity
8
0
100
AcDbSpline
70
4
71
3
72
8
73
4
74
0
42
0.000000001
43
0.0000000001
44
0.0000000001
40
0
40
0
40
0
40
0
40
1
40
1
40
1
40
1
41
1
41
1
41
1
41
1
10
667.66279747831493
20
-152.43518858854634
30
0
10
666.7926244945096
20
-152.75406568472249
30
0
10
665.99539925443787
20
-151.75302132869427
30
0
10
665.78851588753525
20
-150.84689446712196
30
0
0
SPLINE
5
247
100
AcDbEntity
8
0
100
AcDbSpline
70
4
71
3
72
8
73
4
74
0
42
0.000000001
43
0.0000000001
44
0.0000000001
40
0
40
0
40
0
40
0
40
1
40
1
40
1
40
1
41
1
41
1
41
1
41
1
10
665.78851588753525
20
-150.84689446712196
30
0
10
665.74595065621213
20
-150.6497331327663
30
0
10
665.70940249947375
20
-150.44586758876505
30
0
10
665.67292862760701
20
-150.24139848018351
30
0
0
SPLINE
5
248
100
AcDbEntity
8
0
100
AcDbSpline
70
4
71
3
72
8
73
4
74
0
42
0.000000001
43
0.0000000001
44
0.0000000001
40
0
40
0
40
0
40
0
40
1
40
1
40
1
40
1
41
1
41
1
41
1
41
1
10
665.67292862760701
20
-150.24139848018351
30
0
10
665.54508436389426
20
-149.50323899849911
30
0
10
665.41122302559688
20
-148.75290608351094
30
0
10
664.85133794970977
20
-148.28250642085735
30
0
0
SPLINE
5
249
100
AcDbEntity
8
0
100
AcDbSpline
70
4
71
3
72
8
73
4
74
0
42
0.000000001
43
0.0000000001
44
0.0000000001
40
0
40
0
40
0
40
0
40
1
40
1
40
1
40
1
41
1
41
1
41
1
41
1
10
664.85133794970977
20
-148.28250642085735
30
0
10
663.26914447335071
20
-152.02321397726399
30
0
10
662.22856199450962
20
-155.99394463802042
30
0
10
661.77215574450952
20
-160.03161525353454
30
0
0
LINE
5
250
100
AcDbEntity
8
0
100
AcDbLine
10
661.77215574450952
20
-160.03161525353454
30
0
11
661.77215574450952
21
-161.17567655826275
31
0
0
SPLINE
5
251
100
AcDbEntity
8
0
100
AcDbSpline
70
0
71
2
72
6
73
3
74
0
42
0.000000001
43
0.0000000001
44
0.0000000001
40
0
40
0
40
0
40
1
40
1
40
1
10
661.77215574450952
20
-161.17567655826275
30
0
10
661.73560758777126
20
-161.49394080424966
30
0
10
661.93647388008901
20
-162.4475264130499
30
0
0
LWPOLYLINE
5
252
100
AcDbEntity
8
0
100
AcDbPolyline
90
4
70
1
43
0.0
10
-8.171379945798062
20
-88.150676558262717
10
169.52278672086862
20
-88.150676558262717
10
169.52278672086862
20
-239.06900989159607
10
-8.1713799457980585
20
-239.06900989159607
0
SPLINE
5
253
100
AcDbEntity
8
0
100
AcDbSpline
70
4
71
3
72
8
73
4
74
0
42
0.000000001
43
0.0000000001
44
0.0000000001
40
0
40
0
40
0
40
0
40
1
40
1
40
1
40
1
41
1
41
1
41
1
41
1
10
115.4575144532091
20
-199.9921125597225
30
0
10
115.49462903209195
20
-201.25240183139508
30
0
10
115.178797615644
20
-202.3386509349412
30
0
10
114.07795153486397
20
-203.00865404709839
30
0
0
SPLINE
5
254
100
AcDbEntity
8
0
100
AcDbSpline
70
4
71
3
72
8
73
4
74
0
42
0.000000001
43
0.0000000001
44
0.0000000001
40
0
40
0
40
0
40
0
40
1
40
1
40
1
40
1
41
1
41
1
41
1
41
1
10
114.07795153486397
20
-203.00865404709839
30
0
10
113.76820219226346
20
-203.1973004780676
30
0
10
113.42985317416654
20
-203.32996397281352
30
0
10
113.09150415606962
20
-203.4626274675594
30
0
0
SPLINE
5
255
100
AcDbEntity
8
0
100
AcDbSpline
70
4
71
3
72
8
73
4
74
0
42
0.000000001
43
0.0000000001
44
0.0000000001
40
0
40
0
40
0
40
0
40
1
40
1
40
1
40
1
41
1
41
1
41
1
41
1
10
113.09150415606962
20
-203.4626274675594
30
0
10
112.78783688731656
20
-203.58129754965171
30
0
10
112.48356605398322
20
-203.70057119632423
30
0
10
112.20059640752937
20
-203.86061795179705
30
0
0
SPLINE
5
256
100
AcDbEntity
8
0
100
AcDbSpline
70
4
71
3
72
8
73
4
74
0
42
0.000000001
43
0.0000000001
44
0.0000000001
40
0
40
0
40
0
40
0
40
1
40
1
40
1
40
1
41
1
41
1
41
1
41
1
10
112.20059640752937
20
-203.86061795179705
30
0
10
111.53667536921964
20
-204.23547798419659
30
0
10
110.98959514804349
20
-204.85619308416705
30
0
10
110.81798780945604
20
-205.5986053747402
30
0
0
SPLINE
5
257
100
AcDbEntity
8
0
100
AcDbSpline
70
4
71
3
72
8
73
4
74
0
42
0.000000001
43
0.0000000001
44
0.0000000001
40
0
40
0
40
0
40
0
40
1
40
1
40
1
40
1
41
1
41
1
41
1
41
1
10
110.81798780945604
20
-205.5986053747402
30
0
10
110.64516405609911
20
-206.34102695092224
30
0
10
110.89770476209786
20
-207.19359442020121
30
0
10
111.51659059710965
20
-207.63844008708659
30
0
0
SPLINE
5
258
100
AcDbEntity
8
0
100
AcDbSpline
70
4
71
3
72
8
73
4
74
0
42
0.000000001
43
0.0000000001
44
0.0000000001
40
0
40
0
40
0
40
0
40
1
40
1
40
1
40
1
41
1
41
1
41
1
41
1
10
111.51659059710965
20
-207.63844008708659
30
0
10
111.99429803398912
20
-207.98165476426146
30
0
10
112.61136388965116
20
-208.05285681351683
30
0
10
113.19860436943834
20
-208.08754784846965
30
0
0
SPLINE
5
259
100
AcDbEntity
8
0
100
AcDbSpline
70
4
71
3
72
8
73
4
74
0
42
0.000000001
43
0.0000000001
44
0.0000000001
40
0
40
0
40
0
40
0
40
1
40
1
40
1
40
1
41
1
41
1
41
1
41
1
10
113.19860436943834
20
-208.08754784846965
30
0
10
117.79187939512397
20
-208.35712764685016
30
0
10
120.92404528486396
20
-207.67860963130656
30
0
10
121.67681102939115
20
-202.55224779709837
30
0
0
SPLINE
5
260
100
AcDbEntity
8
0
100
AcDbSpline
70
4
71
3
72
8
73
4
74
0
42
0.000000001
43
0.0000000001
44
0.0000000001
40
0
40
0
40
0
40
0
40
1
40
1
40
1
40
1
41
1
41
1
41
1
41
1
10
121.67681102939115
20
-202.55224779709837
30
0
10
121.85571685659554
20
-201.33090236926736
30
0
10
121.98716393657193
20
-200.07183879797321
30
0
10
121.98716393657193
20
-198.82614650353452
30
0
0
SPLINE
5
261
100
AcDbEntity
8
0
100
AcDbSpline
70
4
71
3
72
8
73
4
74
0
42
0.000000001
43
0.0000000001
44
0.0000000001
40
0
40
0
40
0
40
0
40
1
40
1
40
1
40
1
41
1
41
1
41
1
41
1
10
121.98716393657193
20
-198.82614650353452
30
0
10
125.27450163709786
20
-198.08616704250042
30
0
10
127.95573978610503
20
-197.18491512561502
30
0
10
129.680950211164
20
-196.11875079417888
30
0
0
SPLINE
5
262
100
AcDbEntity
8
0
100
AcDbSpline
70
4
71
3
72
8
73
4
74
0
42
0.000000001
43
0.0000000001
44
0.0000000001
40
0
40
0
40
0
40
0
40
1
40
1
40
1
40
1
41
1
41
1
41
1
41
1
10
129.680950211164
20
-196.11875079417888
30
0
10
130.34852977939116
20
-195.70676689728759
30
0
10
131.22239843554956
20
-195.48160016640685
30
0
10
132.05791752683783
20
-195.26678688948016
30
0
0
SPLINE
5
263
100
AcDbEntity
8
0
100
AcDbSpline
70
4
71
3
72
8
73
4
74
0
42
0.000000001
43
0.0000000001
44
0.0000000001
40
0
40
0
40
0
40
0
40
1
40
1
40
1
40
1
41
1
41
1
41
1
41
1
10
132.05791752683783
20
-195.26678688948016
30
0
10
133.77705516365833
20
-194.82438333774272
30
0
10
135.33735317416654
20
-194.42274360919657
30
0
10
134.62657695320911
20
-192.51557239159607
30
0
0
LINE
5
264
100
AcDbEntity
8
0
100
AcDbLine
10
134.62657695320911
20
-192.51557239159609
30
0
11
134.50729402092762
21
-192.15835501615862
31
0
0
SPLINE
5
265
100
AcDbEntity
8
0
100
AcDbSpline
70
4
71
3
72
8
73
4
74
0
42
0.000000001
43
0.0000000001
44
0.0000000001
40
0
40
0
40
0
40
0
40
1
40
1
40
1
40
1
41
1
41
1
41
1
41
1
10
134.50729402092762
20
-192.15835501615862
30
0
10
135.83452324735788
20
-192.08107089305582
30
0
10
138.0021557953722
20
-191.90824713969889
30
0
10
138.91314831602241
20
-191.57111453637145
30
0
0
SPLINE
5
266
100
AcDbEntity
8
0
100
AcDbSpline
70
0
71
2
72
6
73
3
74
0
42
0.000000001
43
0.0000000001
44
0.0000000001
40
0
40
0
40
0
40
1
40
1
40
1
10
138.91314831602241
20
-191.57111453637145
30
0
10
140.278708536105
20
-191.06542027418476
30
0
10
138.21819477267726
20
-186.09363597179117
30
0
0
SPLINE
5
267
100
AcDbEntity
8
0
100
AcDbSpline
70
0
71
2
72
6
73
3
74
0
42
0.000000001
43
0.0000000001
44
0.0000000001
40
0
40
0
40
0
40
1
40
1
40
1
10
138.21819477267726
20
-186.09363597179117
30
0
10
142.51206462410752
20
-187.30097870135964
30
0
10
144.50564771838651
20
-184.93618481898966
30
0
0
SPLINE
5
268
100
AcDbEntity
8
0
100
AcDbSpline
70
0
71
2
72
6
73
3
74
0
42
0.000000001
43
0.0000000001
44
0.0000000001
40
0
40
0
40
0
40
1
40
1
40
1
10
144.50564771838651
20
-184.93618481898966
30
0
10
146.52112627851633
20
-182.54583694085144
30
0
10
135.78889376508857
20
-175.25550108854634
30
0
0
SPLINE
5
269
100
AcDbEntity
8
0
100
AcDbSpline
70
0
71
2
72
6
73
3
74
0
42
0.000000001
43
0.0000000001
44
0.0000000001
40
0
40
0
40
0
40
1
40
1
40
1
10
135.78889376508857
20
-175.25550108854634
30
0
10
141.77814866570301
20
-175.40581652586323
30
0
10
144.13260766533679
20
-172.91079197828634
30
0
0
SPLINE
5
270
100
AcDbEntity
8
0
100
AcDbSpline
70
0
71
2
72
6
73
3
74
0
42
0.000000001
43
0.0000000001
44
0.0000000001
40
0
40
0
40
0
40
1
40
1
40
1
10
144.13260766533679
20
-172.91079197828634
30
0
10
146.51626061943833
20
-170.38413136109372
30
0
10
132.06339603610502
20
-165.69836238488219
30
0
0
SPLINE
5
271
100
AcDbEntity
8
0
100
AcDbSpline
70
0
71
2
72
6
73
3
74
0
42
0.000000001
43
0.0000000001
44
0.0000000001
40
0
40
0
40
0
40
1
40
1
40
1
10
132.06339603610502
20
-165.69836238488219
30
0
10
139.64765855339832
20
-164.01087010328635
30
0
10
140.86108335681422
20
-160.56956772113506
30
0
0
SPLINE
5
272
100
AcDbEntity
8
0
100
AcDbSpline
70
0
71
2
72
6
73
3
74
0
42
0.000000001
43
0.0000000001
44
0.0000000001
40
0
40
0
40
0
40
1
40
1
40
1
10
140.86108335681422
20
-160.56956772113506
30
0
10
142.08485232857529
20
-157.09844924871786
30
0
10
126.9297357132799
20
-155.08478138232888
30
0
0
SPLINE
5
273
100
AcDbEntity
8
0
100
AcDbSpline
70
0
71
2
72
6
73
3
74
0
42
0.000000001
43
0.0000000001
44
0.0000000001
40
0
40
0
40
0
40
1
40
1
40
1
10
126.9297357132799
20
-155.08478138232888
30
0
10
136.72300745196804
20
-151.31425773565633
30
0
10
136.52156545189683
20
-148.11819757088685
30
0
0
SPLINE
5
274
100
AcDbEntity
8
0
100
AcDbSpline
70
0
71
2
72
6
73
3
74
0
42
0.000000001
43
0.0000000001
44
0.0000000001
40
0
40
0
40
0
40
1
40
1
40
1
10
136.52156545189683
20
-148.11819757088685
30
0
10
136.31952917285429
20
-144.91361321712196
30
0
10
119.06311639972196
20
-147.32100947325094
30
0
0
SPLINE
5
275
100
AcDbEntity
8
0
100
AcDbSpline
70
0
71
2
72
6
73
3
74
0
42
0.000000001
43
0.0000000001
44
0.0000000001
40
0
40
0
40
0
40
1
40
1
40
1
10
119.06311639972196
20
-147.32100947325094
30
0
10
128.45170273013576
20
-142.01878749156657
30
0
10
126.91634586520658
20
-139.52559220894838
30
0
0
SPLINE
5
276
100
AcDbEntity
8
0
100
AcDbSpline
70
0
71
2
72
6
73
3
74
0
42
0.000000001
43
0.0000000001
44
0.0000000001
40
0
40
0
40
0
40
1
40
1
40
1
10
126.91634586520658
20
-139.52559220894838
30
0
10
125.38708964534268
20
-137.04274109467531
30
0
10
106.73223631091581
20
-140.62643828972838
30
0
0
SPLINE
5
277
100
AcDbEntity
8
0
100
AcDbSpline
70
0
71
2
72
6
73
3
74
0
42
0.000000001
43
0.0000000001
44
0.0000000001
40
0
40
0
40
0
40
1
40
1
40
1
10
106.73223631091581
20
-140.62643828972838
30
0
10
119.15014112658965
20
-132.93386842990577
30
0
10
116.84863795466885
20
-129.64591787919068
30
0
0
SPLINE
5
278
100
AcDbEntity
8
0
100
AcDbSpline
70
0
71
2
72
6
73
3
74
0
42
0.000000001
43
0.0000000001
44
0.0000000001
40
0
40
0
40
0
40
1
40
1
40
1
10
116.84863795466885
20
-129.64591787919068
30
0
10
113.77306785134141
20
-125.25285451039338
30
0
10
95.078667108492709
20
-135.76358346566224
30
0
0
SPLINE
5
279
100
AcDbEntity
8
0
100
AcDbSpline
70
0
71
2
72
6
73
3
74
0
42
0.000000001
43
0.0000000001
44
0.0000000001
40
0
40
0
40
0
40
1
40
1
40
1
10
95.078667108492709
20
-135.76358346566224
30
0
10
105.70624152369962
20
-126.74865003848734
30
0
10
103.26233425326811
20
-123.30004452491465
30
0
0
SPLINE
5
280
100
AcDbEntity
8
0
100
AcDbSpline
70
0
71
2
72
6
73
3
74
0
42
0.000000001
43
0.0000000001
44
0.0000000001
40
0
40
0
40
0
40
1
40
1
40
1
10
103.26233425326811
20
-123.30004452491465
30
0
10
100.83607892540758
20
-119.87760585729939
30
0
10
83.804220032966796
20
-132.54561854943296
30
0
0
SPLINE
5
281
100
AcDbEntity
8
0
100
AcDbSpline
70
0
71
2
72
6
73
3
74
0
42
0.000000001
43
0.0000000001
44
0.0000000001
40
0
40
0
40
0
40
1
40
1
40
1
10
83.804220032966796
20
-132.54561854943296
30
0
10
88.998116100904014
20
-125.76281086707773
30
0
10
87.860146155632194
20
-122.4280051337149
30
0
0
SPLINE
5
282
100
AcDbEntity
8
0
100
AcDbSpline
70
0
71
2
72
6
73
3
74
0
42
0.000000001
43
0.0000000001
44
0.0000000001
40
0
40
0
40
0
40
1
40
1
40
1
10
87.860146155632194
20
-122.4280051337149
30
0
10
86.725212604479651
20
-119.0992814741995
30
0
10
68.975269716855536
20
-134.49416644041403
30
0
0
SPLINE
5
283
100
AcDbEntity
8
0
100
AcDbSpline
70
0
71
2
72
6
73
3
74
0
42
0.000000001
43
0.0000000001
44
0.0000000001
40
0
40
0
40
0
40
1
40
1
40
1
10
68.975269716855536
20
-134.49416644041403
30
0
10
73.90629019605781
20
-126.65432682300272
30
0
10
72.376411840395775
20
-124.54390291159015
30
0
0
SPLINE
5
284
100
AcDbEntity
8
0
100
AcDbSpline
70
4
71
3
72
8
73
4
74
0
42
0.000000001
43
0.0000000001
44
0.0000000001
40
0
40
0
40
0
40
0
40
1
40
1
40
1
40
1
41
1
41
1
41
1
41
1
10
72.376411840395775
20
-124.54390291159015
30
0
10
71.256084552086051
20
-122.9982065211203
30
0
10
62.684780377027053
20
-131.0327839289572
30
0
10
57.775673934893476
20
-135.63457850083375
30
0
0
SPLINE
5
285
100
AcDbEntity
8
0
100
AcDbSpline
70
4
71
3
72
8
73
4
74
0
42
0.000000001
43
0.0000000001
44
0.0000000001
40
0
40
0
40
0
40
0
40
1
40
1
40
1
40
1
41
1
41
1
41
1
41
1
10
57.775673934893476
20
-135.63457850083375
30
0
10
56.016376039461946
20
-137.28372121755942
30
0
10
54.727487092292968
20
-138.49228964750631
30
0
10
54.420783429420645
20
-138.66024774178527
30
0
0
SPLINE
5
286
100
AcDbEntity
8
0
100
AcDbSpline
70
4
71
3
72
8
73
4
74
0
42
0.000000001
43
0.0000000001
44
0.0000000001
40
0
40
0
40
0
40
0
40
1
40
1
40
1
40
1
41
1
41
1
41
1
41
1
10
54.420783429420645
20
-138.66024774178527
30
0
10
53.980803421613231
20
-138.90183142924968
30
0
10
54.209619396802452
20
-137.92877389852865
30
0
10
54.541273490862707
20
-136.51452923083963
30
0
0
SPLINE
5
287
100
AcDbEntity
8
0
100
AcDbSpline
70
4
71
3
72
8
73
4
74
0
42
0.000000001
43
0.0000000001
44
0.0000000001
40
0
40
0
40
0
40
0
40
1
40
1
40
1
40
1
41
1
41
1
41
1
41
1
10
54.541273490862707
20
-136.51452923083963
30
0
10
55.081045937812974
20
-134.21484603826863
30
0
10
55.89405671306119
20
-130.7498096396989
30
0
10
54.55283407397733
20
-129.44631442968711
30
0
0
SPLINE
5
288
100
AcDbEntity
8
0
100
AcDbSpline
70
4
71
3
72
8
73
4
74
0
42
0.000000001
43
0.0000000001
44
0.0000000001
40
0
40
0
40
0
40
0
40
1
40
1
40
1
40
1
41
1
41
1
41
1
41
1
10
54.55283407397733
20
-129.44631442968711
30
0
10
52.840400646802443
20
-127.7819525999294
30
0
10
47.511398968971427
20
-138.4916767973171
30
0
10
44.53137313870257
20
-144.48155383372963
30
0
0
SPLINE
5
289
100
AcDbEntity
8
0
100
AcDbSpline
70
4
71
3
72
8
73
4
74
0
42
0.000000001
43
0.0000000001
44
0.0000000001
40
0
40
0
40
0
40
0
40
1
40
1
40
1
40
1
41
1
41
1
41
1
41
1
10
44.53137313870257
20
-144.48155383372963
30
0
10
43.774345299677712
20
-146.0029080003963
30
0
10
43.168844669934771
20
-147.21937848354045
30
0
10
42.812848352071306
20
-147.85165416662556
30
0
0
SPLINE
5
290
100
AcDbEntity
8
0
100
AcDbSpline
70
4
71
3
72
8
73
4
74
0
42
0.000000001
43
0.0000000001
44
0.0000000001
40
0
40
0
40
0
40
0
40
1
40
1
40
1
40
1
41
1
41
1
41
1
41
1
10
42.812848352071306
20
-147.85165416662556
30
0
10
41.920728831566038
20
-149.43629904374146
30
0
10
41.405902172999241
20
-147.53277707044941
30
0
10
40.7675397732622
20
-145.17224528257711
30
0
0
SPLINE
5
291
100
AcDbEntity
8
0
100
AcDbSpline
70
4
71
3
72
8
73
4
74
0
42
0.000000001
43
0.0000000001
44
0.0000000001
40
0
40
0
40
0
40
0
40
1
40
1
40
1
40
1
41
1
41
1
41
1
41
1
10
40.7675397732622
20
-145.17224528257711
30
0
10
40.163260201093216
20
-142.93829491560325
30
0
10
39.448221885638091
20
-140.29478419566814
30
0
10
38.198276782310657
20
-139.80856185540222
30
0
0
SPLINE
5
292
100
AcDbEntity
8
0
100
AcDbSpline
70
4
71
3
72
8
73
4
74
0
42
0.000000001
43
0.0000000001
44
0.0000000001
40
0
40
0
40
0
40
0
40
1
40
1
40
1
40
1
41
1
41
1
41
1
41
1
10
38.198276782310657
20
-139.80856185540222
30
0
10
35.65822631704475
20
-138.82029449725809
30
0
10
36.223562045372184
20
-155.63307801827452
30
0
10
36.526003613746816
20
-158.686130519953
30
0
0
SPLINE
5
293
100
AcDbEntity
8
0
100
AcDbSpline
70
4
71
3
72
8
73
4
74
0
42
0.000000001
43
0.0000000001
44
0.0000000001
40
0
40
0
40
0
40
0
40
1
40
1
40
1
40
1
41
1
41
1
41
1
41
1
10
36.526003613746816
20
-158.686130519953
30
0
10
36.671448749181287
20
-160.15576384489401
30
0
10
34.921891457514619
20
-159.0780296447343
30
0
10
33.186935785886305
20
-158.00943248375916
30
0
0
SPLINE
5
294
100
AcDbEntity
8
0
100
AcDbSpline
70
4
71
3
72
8
73
4
74
0
42
0.000000001
43
0.0000000001
44
0.0000000001
40
0
40
0
40
0
40
0
40
1
40
1
40
1
40
1
41
1
41
1
41
1
41
1
10
33.186935785886305
20
-158.00943248375916
30
0
10
31.32376442618833
20
-156.8623347849117
30
0
10
29.4770239514874
20
-155.72496840422016
30
0
10
30.010226830121532
20
-157.76115387225809
30
0
0
SPLINE
5
295
100
AcDbEntity
8
0
100
AcDbSpline
70
0
71
2
72
6
73
3
74
0
42
0.000000001
43
0.0000000001
44
0.0000000001
40
0
40
0
40
0
40
1
40
1
40
1
10
30.010226830121532
20
-157.76115387225809
30
0
10
31.040669424013949
20
-161.69840991283121
30
0
10
34.423495683944878
20
-167.90066739663146
30
0
0
SPLINE
5
296
100
AcDbEntity
8
0
100
AcDbSpline
70
0
71
2
72
6
73
3
74
0
42
0.000000001
43
0.0000000001
44
0.0000000001
40
0
40
0
40
0
40
1
40
1
40
1
10
34.423495683944878
20
-167.90066739663146
30
0
10
27.888910899437125
20
-169.60215309088096
30
0
10
31.207657172160008
20
-171.63955497368835
30
0
0
SPLINE
5
297
100
AcDbEntity
8
0
100
AcDbSpline
70
4
71
3
72
8
73
4
74
0
42
0.000000001
43
0.0000000001
44
0.0000000001
40
0
40
0
40
0
40
0
40
1
40
1
40
1
40
1
41
1
41
1
41
1
41
1
10
31.207657172160008
20
-171.63955497368835
30
0
10
33.34942001370257
20
-172.95461076681477
30
0
10
35.828009033477962
20
-176.58212675039633
30
0
10
37.351796029683612
20
-179.05402084613507
30
0
0
SPLINE
5
298
100
AcDbEntity
8
0
100
AcDbSpline
70
4
71
3
72
8
73
4
74
0
42
0.000000001
43
0.0000000001
44
0.0000000001
40
0
40
0
40
0
40
0
40
1
40
1
40
1
40
1
41
1
41
1
41
1
41
1
10
37.351796029683612
20
-179.05402084613507
30
0
10
30.554567796664102
20
-182.39856718326274
30
0
10
25.159786865191318
20
-185.34999798083962
30
0
10
28.064172125137503
20
-187.71782825732888
30
0
0
SPLINE
5
299
100
AcDbEntity
8
0
100
AcDbSpline
70
4
71
3
72
8
73
4
74
0
42
0.000000001
43
0.0000000001
44
0.0000000001
40
0
40
0
40
0
40
0
40
1
40
1
40
1
40
1
41
1
41
1
41
1
41
1
10
28.064172125137503
20
-187.71782825732888
30
0
10
30.170273585594352
20
-189.43513662919065
30
0
10
38.285909716563083
20
-190.81530311211608
30
0
10
44.897713624911162
20
-191.9398924949235
30
0
0
SPLINE
5
300
100
AcDbEntity
8
0
100
AcDbSpline
70
4
71
3
72
8
73
4
74
0
42
0.000000001
43
0.0000000001
44
0.0000000001
40
0
40
0
40
0
40
0
40
1
40
1
40
1
40
1
41
1
41
1
41
1
41
1
10
44.897713624911162
20
-191.9398924949235
30
0
10
47.583209225611547
20
-192.39690230950376
30
0
10
50.020416929201936
20
-192.81131903593405
30
0
10
51.706683510419381
20
-193.18922474806172
30
0
0
SPLINE
5
301
100
AcDbEntity
8
0
100
AcDbSpline
70
4
71
3
72
8
73
4
74
0
42
0.000000001
43
0.0000000001
44
0.0000000001
40
0
40
0
40
0
40
0
40
1
40
1
40
1
40
1
41
1
41
1
41
1
41
1
10
51.706683510419381
20
-193.18922474806172
30
0
10
52.873865981376831
20
-193.45028964305584
30
0
10
54.037399208025789
20
-193.77769092822732
30
0
10
55.242921958244509
20
-194.1549837901658
30
0
0
LINE
5
302
100
AcDbEntity
8
0
100
AcDbLine
10
55.242921958244509
20
-194.1549837901658
30
0
11
55.245967637972697
21
-194.16837363823913
31
0
0
SPLINE
5
303
100
AcDbEntity
8
0
100
AcDbSpline
70
4
71
3
72
8
73
4
74
0
42
0.000000001
43
0.0000000001
44
0.0000000001
40
0
40
0
40
0
40
0
40
1
40
1
40
1
40
1
41
1
41
1
41
1
41
1
10
55.245967637972697
20
-194.16837363823913
30
0
10
55.777828746116818
20
-196.71390261277222
30
0
10
56.32977462637092
20
-199.35375480278992
30
0
10
54.282641425407583
20
-200.5306778775122
30
0
0
SPLINE
5
304
100
AcDbEntity
8
0
100
AcDbSpline
70
4
71
3
72
8
73
4
74
0
42
0.000000001
43
0.0000000001
44
0.0000000001
40
0
40
0
40
0
40
0
40
1
40
1
40
1
40
1
41
1
41
1
41
1
41
1
10
54.282641425407583
20
-200.5306778775122
30
0
10
53.968639273918328
20
-200.71141296967528
30
0
10
53.627244576093211
20
-200.83494871084554
30
0
10
53.285849878268095
20
-200.95847516640686
30
0
0
SPLINE
5
305
100
AcDbEntity
8
0
100
AcDbSpline
70
4
71
3
72
8
73
4
74
0
42
0.000000001
43
0.0000000001
44
0.0000000001
40
0
40
0
40
0
40
0
40
1
40
1
40
1
40
1
41
1
41
1
41
1
41
1
10
53.285849878268095
20
-200.95847516640686
30
0
10
52.978533365206587
20
-201.07045032446248
30
0
10
52.671226137753976
20
-201.18181263232887
30
0
10
52.383381546613222
20
-201.33456089918479
30
0
0
SPLINE
5
306
100
AcDbEntity
8
0
100
AcDbSpline
70
4
71
3
72
8
73
4
74
0
42
0.000000001
43
0.0000000001
44
0.0000000001
40
0
40
0
40
0
40
0
40
1
40
1
40
1
40
1
41
1
41
1
41
1
41
1
10
52.383381546613222
20
-201.33456089918479
30
0
10
51.710945604917065
20
-201.69238183920245
30
0
10
51.148042706128614
20
-202.29909424091045
30
0
10
50.957567010200677
20
-203.03665015801454
30
0
0
SPLINE
5
307
100
AcDbEntity
8
0
100
AcDbSpline
70
4
71
3
72
8
73
4
74
0
42
0.000000001
43
0.0000000001
44
0.0000000001
40
0
40
0
40
0
40
0
40
1
40
1
40
1
40
1
41
1
41
1
41
1
41
1
10
50.957567010200677
20
-203.03665015801454
30
0
10
50.765884185112178
20
-203.77420607511863
30
0
10
50.997736554420648
20
-204.63345918282531
30
0
10
51.604448956128621
20
-205.09352396274269
30
0
0
SPLINE
5
308
100
AcDbEntity
8
0
100
AcDbSpline
70
4
71
3
72
8
73
4
74
0
42
0.000000001
43
0.0000000001
44
0.0000000001
40
0
40
0
40
0
40
0
40
1
40
1
40
1
40
1
41
1
41
1
41
1
41
1
10
51.604448956128621
20
-205.09352396274269
30
0
10
52.073632204012732
20
-205.44891207322141
30
0
10
52.688265230135784
20
-205.53592751448019
30
0
10
53.274902145342686
20
-205.58522481227581
30
0
0
SPLINE
5
309
100
AcDbEntity
8
0
100
AcDbSpline
70
4
71
3
72
8
73
4
74
0
42
0.000000001
43
0.0000000001
44
0.0000000001
40
0
40
0
40
0
40
0
40
1
40
1
40
1
40
1
41
1
41
1
41
1
41
1
10
53.274902145342686
20
-205.58522481227581
30
0
10
57.859652982032955
20
-205.97103257760071
30
0
10
61.007632263776316
20
-205.37284436488812
30
0
10
61.889412258740926
20
-200.26656730278989
30
0
0
SPLINE
5
310
100
AcDbEntity
8
0
100
AcDbSpline
70
4
71
3
72
8
73
4
74
0
42
0.000000001
43
0.0000000001
44
0.0000000001
40
0
40
0
40
0
40
0
40
1
40
1
40
1
40
1
41
1
41
1
41
1
41
1
10
61.889412258740926
20
-200.26656730278989
30
0
10
62.100576291359118
20
-199.04765470449789
30
0
10
62.263668726560141
20
-197.78919469778401
30
0
10
62.295314081784738
20
-196.54229527418477
30
0
0
SPLINE
5
311
100
AcDbEntity
8
0
100
AcDbSpline
70
4
71
3
72
8
73
4
74
0
42
0.000000001
43
0.0000000001
44
0.0000000001
40
0
40
0
40
0
40
0
40
1
40
1
40
1
40
1
41
1
41
1
41
1
41
1
10
62.295314081784738
20
-196.54229527418477
30
0
10
63.670002055442993
20
-197.00600001280174
30
0
10
65.149366698539922
20
-197.48857310875917
30
0
10
66.769306175188888
20
-197.97845397894247
30
0
0
SPLINE
5
312
100
AcDbEntity
8
0
100
AcDbSpline
70
4
71
3
72
8
73
4
74
0
42
0.000000001
43
0.0000000001
44
0.0000000001
40
0
40
0
40
0
40
0
40
1
40
1
40
1
40
1
41
1
41
1
41
1
41
1
10
66.769306175188888
20
-197.97845397894247
30
0
10
67.142949792818882
20
-200.05540327017172
30
0
10
67.214151842074244
20
-202.00821325565042
30
0
10
65.533363770123984
20
-202.9745758623348
30
0
0
SPLINE
5
313
100
AcDbEntity
8
0
100
AcDbSpline
70
4
71
3
72
8
73
4
74
0
42
0.000000001
43
0.0000000001
44
0.0000000001
40
0
40
0
40
0
40
0
40
1
40
1
40
1
40
1
41
1
41
1
41
1
41
1
10
65.533363770123984
20
-202.9745758623348
30
0
10
65.219352333025796
20
-203.1547073899176
30
0
10
64.878570485389872
20
-203.27824313108783
30
0
10
64.537175787564763
20
-203.40238243683839
30
0
0
SPLINE
5
314
100
AcDbEntity
8
0
100
AcDbSpline
70
4
71
3
72
8
73
4
74
0
42
0.000000001
43
0.0000000001
44
0.0000000001
40
0
40
0
40
0
40
0
40
1
40
1
40
1
40
1
41
1
41
1
41
1
41
1
10
64.537175787564763
20
-203.40238243683839
30
0
10
64.22986856011218
20
-203.51374474470478
30
0
10
63.922552047050658
20
-203.6251070525712
30
0
10
63.634103891329623
20
-203.77845888400736
30
0
0
SPLINE
5
315
100
AcDbEntity
8
0
100
AcDbSpline
70
4
71
3
72
8
73
4
74
0
42
0.000000001
43
0.0000000001
44
0.0000000001
40
0
40
0
40
0
40
0
40
1
40
1
40
1
40
1
41
1
41
1
41
1
41
1
10
63.634103891329623
20
-203.77845888400736
30
0
10
62.961667949633465
20
-204.13567625944478
30
0
10
62.399981465614488
20
-204.74300151134196
30
0
10
62.208289354917063
20
-205.48054814283714
30
0
0
SPLINE
5
316
100
AcDbEntity
8
0
100
AcDbSpline
70
4
71
3
72
8
73
4
74
0
42
0.000000001
43
0.0000000001
44
0.0000000001
40
0
40
0
40
0
40
0
40
1
40
1
40
1
40
1
41
1
41
1
41
1
41
1
10
62.208289354917063
20
-205.48054814283714
30
0
10
62.017210094408846
20
-206.2181040599412
30
0
10
62.247846048947828
20
-207.07675360306763
30
0
10
62.855171300845001
20
-207.53681838298502
30
0
0
SPLINE
5
317
100
AcDbEntity
8
0
100
AcDbSpline
70
4
71
3
72
8
73
4
74
0
42
0.000000001
43
0.0000000001
44
0.0000000001
40
0
40
0
40
0
40
0
40
1
40
1
40
1
40
1
41
1
41
1
41
1
41
1
10
62.855171300845001
20
-207.53681838298502
30
0
10
63.323741698539905
20
-207.89281005804401
30
0
10
63.938978289243238
20
-207.9798347849117
30
0
10
64.525615204450148
20
-208.02912279709841
30
0
0
SPLINE
5
318
100
AcDbEntity
8
0
100
AcDbSpline
70
4
71
3
72
8
73
4
74
0
42
0.000000001
43
0.0000000001
44
0.0000000001
40
0
40
0
40
0
40
0
40
1
40
1
40
1
40
1
41
1
41
1
41
1
41
1
10
64.525615204450148
20
-208.02912279709841
30
0
10
69.110366041140423
20
-208.41493984803222
30
0
10
72.258354608492709
20
-207.81613878513042
30
0
10
73.140738168037586
20
-202.71047457322143
30
0
0
SPLINE
5
319
100
AcDbEntity
8
0
100
AcDbSpline
70
4
71
3
72
8
73
4
74
0
42
0.000000001
43
0.0000000001
44
0.0000000001
40
0
40
0
40
0
40
0
40
1
40
1
40
1
40
1
41
1
41
1
41
1
41
1
10
73.140738168037586
20
-202.71047457322143
30
0
10
73.305659868197296
20
-201.75932179396017
30
0
10
73.440746906873244
20
-200.78383143370016
30
0
10
73.507083297050656
20
-199.80833178783121
30
0
0
SPLINE
5
320
100
AcDbEntity
8
0
100
AcDbSpline
70
4
71
3
72
8
73
4
74
0
42
0.000000001
43
0.0000000001
44
0.0000000001
40
0
40
0
40
0
40
0
40
1
40
1
40
1
40
1
41
1
41
1
41
1
41
1
10
73.507083297050656
20
-199.80833178783121
30
0
10
73.891071083025793
20
-199.90143858854634
30
0
10
74.281753793037595
20
-199.9939418246812
30
0
10
74.679744277275262
20
-200.08583221062682
30
0
0
SPLINE
5
321
100
AcDbEntity
8
0
100
AcDbSpline
70
4
71
3
72
8
73
4
74
0
42
0.000000001
43
0.0000000001
44
0.0000000001
40
0
40
0
40
0
40
0
40
1
40
1
40
1
40
1
41
1
41
1
41
1
41
1
10
74.679744277275262
20
-200.08583221062682
30
0
10
79.963097901619136
20
-201.30961046799683
30
0
10
90.237717035886305
20
-201.73437136277221
30
0
10
100.63343908178474
20
-201.28830928111736
30
0
0
SPLINE
5
322
100
AcDbEntity
8
0
100
AcDbSpline
70
4
71
3
72
8
73
4
74
0
42
0.000000001
43
0.0000000001
44
0.0000000001
40
0
40
0
40
0
40
0
40
1
40
1
40
1
40
1
41
1
41
1
41
1
41
1
10
100.63343908178474
20
-201.28830928111736
30
0
10
100.41618368971015
20
-201.70577168727579
30
0
10
100.08939525472785
20
-202.06663830702169
30
0
10
99.620824857032943
20
-202.35204078301453
30
0
0
SPLINE
5
323
100
AcDbEntity
8
0
100
AcDbSpline
70
4
71
3
72
8
73
4
74
0
42
0.000000001
43
0.0000000001
44
0.0000000001
40
0
40
0
40
0
40
0
40
1
40
1
40
1
40
1
41
1
41
1
41
1
41
1
10
99.620824857032943
20
-202.35204078301453
30
0
10
99.31107551443246
20
-202.54008364940347
30
0
10
98.973330060915799
20
-202.67273785854044
30
0
10
98.635593893008092
20
-202.80479778870608
30
0
0
SPLINE
5
324
100
AcDbEntity
8
0
100
AcDbSpline
70
4
71
3
72
8
73
4
74
0
42
0.000000001
43
0.0000000001
44
0.0000000001
40
0
40
0
40
0
40
0
40
1
40
1
40
1
40
1
41
1
41
1
41
1
41
1
10
98.635593893008092
20
-202.80479778870608
30
0
10
98.331323059674759
20
-202.92407143537861
30
0
10
98.026439376152211
20
-203.04334508205119
30
0
10
97.74225331492886
20
-203.20399540210428
30
0
0
SPLINE
5
325
100
AcDbEntity
8
0
100
AcDbSpline
70
4
71
3
72
8
73
4
74
0
42
0.000000001
43
0.0000000001
44
0.0000000001
40
0
40
0
40
0
40
0
40
1
40
1
40
1
40
1
41
1
41
1
41
1
41
1
10
97.74225331492886
20
-203.20399540210428
30
0
10
97.07894512680835
20
-203.57825186992352
30
0
10
96.532477755821418
20
-204.1995705344743
30
0
10
96.360861131625043
20
-204.94199211065634
30
0
0
SPLINE
5
326
100
AcDbEntity
8
0
100
AcDbSpline
70
4
71
3
72
8
73
4
74
0
42
0.000000001
43
0.0000000001
44
0.0000000001
40
0
40
0
40
0
40
0
40
1
40
1
40
1
40
1
41
1
41
1
41
1
41
1
10
96.360861131625043
20
-204.94199211065634
30
0
10
96.188037378268106
20
-205.68381012225811
30
0
10
96.439974519686558
20
-206.53698115611735
30
0
10
97.059473204887581
20
-206.98182682300271
30
0
0
SPLINE
5
327
100
AcDbEntity
8
0
100
AcDbSpline
70
4
71
3
72
8
73
4
74
0
42
0.000000001
43
0.0000000001
44
0.0000000001
40
0
40
0
40
0
40
0
40
1
40
1
40
1
40
1
41
1
41
1
41
1
41
1
10
97.059473204887581
20
-206.98182682300271
30
0
10
97.537171356158126
20
-207.3250415001776
30
0
10
98.153624361630932
20
-207.396243549433
30
0
10
98.741477691607344
20
-207.43032173419658
30
0
0
SPLINE
5
328
100
AcDbEntity
8
0
100
AcDbSpline
70
4
71
3
72
8
73
4
74
0
42
0.000000001
43
0.0000000001
44
0.0000000001
40
0
40
0
40
0
40
0
40
1
40
1
40
1
40
1
41
1
41
1
41
1
41
1
10
98.741477691607344
20
-207.43032173419658
30
0
10
103.33475271729297
20
-207.7005143827663
30
0
10
106.46570219226346
20
-207.02259993180297
30
0
10
107.21846793679065
20
-201.89623809759482
30
0
0
SPLINE
5
329
100
AcDbEntity
8
0
100
AcDbSpline
70
4
71
3
72
8
73
4
74
0
42
0.000000001
43
0.0000000001
44
0.0000000001
40
0
40
0
40
0
40
0
40
1
40
1
40
1
40
1
41
1
41
1
41
1
41
1
10
107.21846793679065
20
-201.89623809759482
30
0
10
107.26836879916654
20
-201.55850192968711
30
0
10
107.31400756704475
20
-201.21772008205119
30
0
10
107.35478067584501
20
-200.87510896945659
30
0
0
SPLINE
5
330
100
AcDbEntity
8
0
100
AcDbSpline
70
4
71
3
72
8
73
4
74
0
42
0.000000001
43
0.0000000001
44
0.0000000001
40
0
40
0
40
0
40
0
40
1
40
1
40
1
40
1
41
1
41
1
41
1
41
1
10
107.35478067584501
20
-200.87510896945659
30
0
10
110.15954528041348
20
-200.64812225922608
30
0
10
112.89433353610502
20
-200.35419559423786
30
0
10
115.4575144532091
20
-199.9921125597225
30
0
0
LWPOLYLINE
5
331
100
AcDbEntity
8
0
100
AcDbPolyline
90
4
70
1
43
0.0
10
406.85403672086863
20
-88.150676558262717
10
584.5482033875353
20
-88.150676558262717
10
584.5482033875353
20
-239.06900989159607
10
406.85403672086863
20
-239.06900989159607
0
SPLINE
5
332
100
AcDbEntity
8
0
100
AcDbSpline
70
4
71
3
72
8
73
4
74
0
42
0.000000001
43
0.0000000001
44
0.0000000001
40
0
40
0
40
0
40
0
40
1
40
1
40
1
40
1
41
1
41
1
41
1
41
1
10
460.01076786863473
20
-168.62483346566222
30
0
10
460.52741914935575
20
-168.5116418928371
30
0
10
461.03433911192087
20
-168.47878940845195
30
0
10
461.42745465147163
20
-168.52442817633016
30
0
0
SPLINE
5
333
100
AcDbEntity
8
0
100
AcDbSpline
70
4
71
3
72
8
73
4
74
0
42
0.000000001
43
0.0000000001
44
0.0000000001
40
0
40
0
40
0
40
0
40
1
40
1
40
1
40
1
41
1
41
1
41
1
41
1
10
461.42745465147163
20
-168.52442817633016
30
0
10
462.61593830930855
20
-168.66256089473427
30
0
10
463.7228571783271
20
-169.31553420011858
30
0
10
464.47744290220407
20
-170.24477294231119
30
0
0
SPLINE
5
334
100
AcDbEntity
8
0
100
AcDbSpline
70
4
71
3
72
8
73
4
74
0
42
0.000000001
43
0.0000000001
44
0.0000000001
40
0
40
0
40
0
40
0
40
1
40
1
40
1
40
1
41
1
41
1
41
1
41
1
10
464.47744290220407
20
-170.24477294231119
30
0
10
464.50422259835074
20
-170.27763471230529
30
0
10
464.5310022944974
20
-170.3117128970689
30
0
10
464.55837626961534
20
-170.34579108183249
30
0
0
SPLINE
5
335
100
AcDbEntity
8
0
100
AcDbSpline
70
4
71
3
72
8
73
4
74
0
42
0.000000001
43
0.0000000001
44
0.0000000001
40
0
40
0
40
0
40
0
40
1
40
1
40
1
40
1
41
1
41
1
41
1
41
1
10
464.55837626961534
20
-170.34579108183249
30
0
10
464.7312000229723
20
-170.56243362371785
30
0
10
464.90770087746449
20
-170.78454538926144
30
0
10
465.15900659747587
20
-170.89469128235839
30
0
0
SPLINE
5
336
100
AcDbEntity
8
0
100
AcDbSpline
70
4
71
3
72
8
73
4
74
0
42
0.000000001
43
0.0000000001
44
0.0000000001
40
0
40
0
40
0
40
0
40
1
40
1
40
1
40
1
41
1
41
1
41
1
41
1
10
465.15900659747587
20
-170.89469128235839
30
0
10
465.60204157062037
20
-171.09004192297323
30
0
10
466.10896153318549
20
-170.8752193604376
30
0
10
466.54467944649525
20
-170.66345176323915
30
0
0
SPLINE
5
337
100
AcDbEntity
8
0
100
AcDbSpline
70
4
71
3
72
8
73
4
74
0
42
0.000000001
43
0.0000000001
44
0.0000000001
40
0
40
0
40
0
40
0
40
1
40
1
40
1
40
1
41
1
41
1
41
1
41
1
10
466.54467944649525
20
-170.66345176323915
30
0
10
468.409861140526
20
-169.75550492231707
30
0
10
469.79672254748806
20
-169.20355904206301
30
0
10
471.84873069313829
20
-168.99422427440351
30
0
0
SPLINE
5
338
100
AcDbEntity
8
0
100
AcDbSpline
70
4
71
3
72
8
73
4
74
0
42
0.000000001
43
0.0000000001
44
0.0000000001
40
0
40
0
40
0
40
0
40
1
40
1
40
1
40
1
41
1
41
1
41
1
41
1
10
471.84873069313829
20
-168.99422427440351
30
0
10
474.02427457995879
20
-168.85608227039043
30
0
10
476.31540572670764
20
-169.54677371923788
30
0
10
477.80270027982857
20
-171.14115920011864
30
0
0
SPLINE
5
339
100
AcDbEntity
8
0
100
AcDbSpline
70
4
71
3
72
8
73
4
74
0
42
0.000000001
43
0.0000000001
44
0.0000000001
40
0
40
0
40
0
40
0
40
1
40
1
40
1
40
1
41
1
41
1
41
1
41
1
10
477.80270027982857
20
-171.14115920011864
30
0
10
479.70925864723989
20
-167.26595888400738
30
0
10
483.14081114001738
20
-165.71783430680298
30
0
10
487.25151306974561
20
-165.29915548587502
30
0
0
SPLINE
5
340
100
AcDbEntity
8
0
100
AcDbSpline
70
4
71
3
72
8
73
4
74
0
42
0.000000001
43
0.0000000001
44
0.0000000001
40
0
40
0
40
0
40
0
40
1
40
1
40
1
40
1
41
1
41
1
41
1
41
1
10
487.25151306974561
20
-165.29915548587502
30
0
10
494.8400469671455
20
-164.52752138400737
30
0
10
491.66344015307891
20
-173.19620373988809
30
0
10
490.58630951749944
20
-175.72043152754168
30
0
0
SPLINE
5
341
100
AcDbEntity
8
0
100
AcDbSpline
70
4
71
3
72
8
73
4
74
0
42
0.000000001
43
0.0000000001
44
0.0000000001
40
0
40
0
40
0
40
0
40
1
40
1
40
1
40
1
41
1
41
1
41
1
41
1
10
490.58630951749944
20
-175.72043152754168
30
0
10
491.44983400531282
20
-176.00158119464578
30
0
10
492.27866745817329
20
-176.41538507088683
30
0
10
493.05761861987577
20
-176.88518116896017
30
0
0
SPLINE
5
342
100
AcDbEntity
8
0
100
AcDbSpline
70
4
71
3
72
8
73
4
74
0
42
0.000000001
43
0.0000000001
44
0.0000000001
40
0
40
0
40
0
40
0
40
1
40
1
40
1
40
1
41
1
41
1
41
1
41
1
10
493.05761861987577
20
-176.88518116896017
30
0
10
492.70101409462757
20
-175.91516003235839
30
0
10
492.53428170072704
20
-174.87577539706888
30
0
10
492.5707927150296
20
-173.84307640020711
30
0
0
SPLINE
5
343
100
AcDbEntity
8
0
100
AcDbSpline
70
4
71
3
72
8
73
4
74
0
42
0.000000001
43
0.0000000001
44
0.0000000001
40
0
40
0
40
0
40
0
40
1
40
1
40
1
40
1
41
1
41
1
41
1
41
1
10
492.5707927150296
20
-173.84307640020711
30
0
10
492.83182975319687
20
-173.95383514349322
30
0
10
493.09290393379996
20
-174.06458460117045
30
0
10
493.35397811440293
20
-174.17473049426735
30
0
0
SPLINE
5
344
100
AcDbEntity
8
0
100
AcDbSpline
70
4
71
3
72
8
73
4
74
0
42
0.000000001
43
0.0000000001
44
0.0000000001
40
0
40
0
40
0
40
0
40
1
40
1
40
1
40
1
41
1
41
1
41
1
41
1
10
493.35397811440293
20
-174.17473049426735
30
0
10
493.72640531726347
20
-174.33234442020122
30
0
10
494.09883252012401
20
-174.48995834613504
30
0
10
494.47125972298454
20
-174.64818512225807
30
0
0
SPLINE
5
345
100
AcDbEntity
8
0
100
AcDbSpline
70
4
71
3
72
8
73
4
74
0
42
0.000000001
43
0.0000000001
44
0.0000000001
40
0
40
0
40
0
40
0
40
1
40
1
40
1
40
1
41
1
41
1
41
1
41
1
10
494.47125972298454
20
-174.64818512225807
30
0
10
494.47185400195588
20
-172.97225342377686
30
0
10
494.47185400195588
20
-171.29754742567403
30
0
10
494.47185400195588
20
-169.62223786299091
30
0
0
SPLINE
5
346
100
AcDbEntity
8
0
100
AcDbSpline
70
4
71
3
72
8
73
4
74
0
42
0.000000001
43
0.0000000001
44
0.0000000001
40
0
40
0
40
0
40
0
40
1
40
1
40
1
40
1
41
1
41
1
41
1
41
1
10
494.47185400195588
20
-169.62223786299091
30
0
10
495.2386224447456
20
-170.20156700397195
30
0
10
496.16298624225124
20
-170.57094852710429
30
0
10
497.1184011160102
20
-170.67866159066224
30
0
0
SPLINE
5
347
100
AcDbEntity
8
0
100
AcDbSpline
70
4
71
3
72
8
73
4
74
0
42
0.000000001
43
0.0000000001
44
0.0000000001
40
0
40
0
40
0
40
0
40
1
40
1
40
1
40
1
41
1
41
1
41
1
41
1
10
497.1184011160102
20
-170.67866159066224
30
0
10
496.22081701465112
20
-168.99847708329222
30
0
10
495.67556605843373
20
-167.13025899514221
30
0
10
495.52889057981639
20
-165.23099911634785
30
0
0
SPLINE
5
348
100
AcDbEntity
8
0
100
AcDbSpline
70
4
71
3
72
8
73
4
74
0
42
0.000000001
43
0.0000000001
44
0.0000000001
40
0
40
0
40
0
40
0
40
1
40
1
40
1
40
1
41
1
41
1
41
1
41
1
10
495.52889057981639
20
-165.23099911634785
30
0
10
498.40364081887071
20
-166.63003395661377
30
0
10
501.40192679909535
20
-167.77409526134196
30
0
10
504.47750618803173
20
-168.64430538758299
30
0
0
SPLINE
5
349
100
AcDbEntity
8
0
100
AcDbSpline
70
4
71
3
72
8
73
4
74
0
42
0.000000001
43
0.0000000001
44
0.0000000001
40
0
40
0
40
0
40
0
40
1
40
1
40
1
40
1
41
1
41
1
41
1
41
1
10
504.47750618803173
20
-168.64430538758299
30
0
10
501.72202031004099
20
-164.59385777418476
30
0
10
498.52598800209825
20
-160.84280604943299
30
0
10
494.96599696663685
20
-157.47757137561504
30
0
0
SPLINE
5
350
100
AcDbEntity
8
0
100
AcDbSpline
70
4
71
3
72
8
73
4
74
0
42
0.000000001
43
0.0000000001
44
0.0000000001
40
0
40
0
40
0
40
0
40
1
40
1
40
1
40
1
41
1
41
1
41
1
41
1
10
494.96599696663685
20
-157.47757137561504
30
0
10
499.47163441526556
20
-157.50434178615276
30
0
10
503.97485760557322
20
-157.90415224974021
30
0
10
508.4147900854316
20
-158.67030784234066
30
0
0
SPLINE
5
351
100
AcDbEntity
8
0
100
AcDbSpline
70
4
71
3
72
8
73
4
74
0
42
0.000000001
43
0.0000000001
44
0.0000000001
40
0
40
0
40
0
40
0
40
1
40
1
40
1
40
1
41
1
41
1
41
1
41
1
10
508.4147900854316
20
-158.67030784234066
30
0
10
502.71090051837433
20
-154.15736261948609
30
0
10
495.22766542621122
20
-151.95687758708658
30
0
10
487.9878618576891
20
-152.66522097850503
30
0
0
SPLINE
5
352
100
AcDbEntity
8
0
100
AcDbSpline
70
4
71
3
72
8
73
4
74
0
42
0.000000001
43
0.0000000001
44
0.0000000001
40
0
40
0
40
0
40
0
40
1
40
1
40
1
40
1
41
1
41
1
41
1
41
1
10
487.9878618576891
20
-152.66522097850503
30
0
10
490.08670661476918
20
-151.81326635941528
30
0
10
492.16003451851668
20
-150.89557891472839
30
0
10
494.20167992460398
20
-149.91279006585145
30
0
0
SPLINE
5
353
100
AcDbEntity
8
0
100
AcDbSpline
70
4
71
3
72
8
73
4
74
0
42
0.000000001
43
0.0000000001
44
0.0000000001
40
0
40
0
40
0
40
0
40
1
40
1
40
1
40
1
41
1
41
1
41
1
41
1
10
494.20167992460398
20
-149.91279006585145
30
0
10
486.84807193306756
20
-147.89425654038453
30
0
10
478.48912963417831
20
-150.09230874324504
30
0
10
473.0798167247342
20
-155.46573277418477
30
0
0
SPLINE
5
354
100
AcDbEntity
8
0
100
AcDbSpline
70
4
71
3
72
8
73
4
74
0
42
0.000000001
43
0.0000000001
44
0.0000000001
40
0
40
0
40
0
40
0
40
1
40
1
40
1
40
1
41
1
41
1
41
1
41
1
10
473.0798167247342
20
-155.46573277418477
30
0
10
473.44310688841011
20
-152.97801600083375
30
0
10
474.3504223079251
20
-150.57183615947426
30
0
10
475.71845249998239
20
-148.46202509825093
30
0
0
SPLINE
5
355
100
AcDbEntity
8
0
100
AcDbSpline
70
4
71
3
72
8
73
4
74
0
42
0.000000001
43
0.0000000001
44
0.0000000001
40
0
40
0
40
0
40
0
40
1
40
1
40
1
40
1
41
1
41
1
41
1
41
1
10
475.71845249998239
20
-148.46202509825093
30
0
10
470.11618463702666
20
-150.74040710394246
30
0
10
465.48764286863474
20
-155.31420092209839
30
0
10
463.14232090818552
20
-160.88905766750042
30
0
0
LINE
5
356
100
AcDbEntity
8
0
100
AcDbLine
10
463.14232090818552
20
-160.88905766750042
30
0
11
463.42467770445012
21
-154.09894685372376
31
0
0
SPLINE
5
357
100
AcDbEntity
8
0
100
AcDbSpline
70
4
71
3
72
8
73
4
74
0
42
0.000000001
43
0.0000000001
44
0.0000000001
40
0
40
0
40
0
40
0
40
1
40
1
40
1
40
1
41
1
41
1
41
1
41
1
10
463.42467770445012
20
-154.09894685372376
30
0
10
460.24443093168401
20
-158.08246379797322
30
0
10
459.84704401202663
20
-163.42424247368837
30
0
10
460.01076786863473
20
-168.62483346566222
30
0
0
LWPOLYLINE
5
358
100
AcDbEntity
8
0
100
AcDbPolyline
90
4
70
1
43
0.0
10
821.87945338753525
20
-88.150676558262717
10
999.57362005420191
20
-88.150676558262717
10
999.57362005420191
20
-239.06900989159607
10
821.87945338753525
20
-239.06900989159607
0
SPLINE
5
359
100
AcDbEntity
8
0
100
AcDbSpline
70
4
71
3
72
8
73
4
74
0
42
0.000000001
43
0.0000000001
44
0.0000000001
40
0
40
0
40
0
40
0
40
1
40
1
40
1
40
1
41
1
41
1
41
1
41
1
10
860.45491855171986
20
-183.38806024178527
30
0
10
859.49946653552513
20
-183.17385052943888
30
0
10
858.50152357287868
20
-183.17080484971069
30
0
10
857.55825427559682
20
-183.44404317800863
30
0
0
SPLINE
5
360
100
AcDbEntity
8
0
100
AcDbSpline
70
4
71
3
72
8
73
4
74
0
42
0.000000001
43
0.0000000001
44
0.0000000001
40
0
40
0
40
0
40
0
40
1
40
1
40
1
40
1
41
1
41
1
41
1
41
1
10
857.55825427559682
20
-183.44404317800863
30
0
10
856.64544177559674
20
-183.70937016750042
30
0
10
855.72044655668401
20
-184.23514920179707
30
0
10
856.01253467110473
20
-185.26601893370014
30
0
0
SPLINE
5
361
100
AcDbEntity
8
0
100
AcDbSpline
70
4
71
3
72
8
73
4
74
0
42
0.000000001
43
0.0000000001
44
0.0000000001
40
0
40
0
40
0
40
0
40
1
40
1
40
1
40
1
41
1
41
1
41
1
41
1
10
856.01253467110473
20
-185.26601893370014
30
0
10
856.55414566862248
20
-187.16831520661376
30
0
10
857.95991257536093
20
-188.70853773062092
30
0
10
859.54819741117615
20
-189.07122432971659
30
0
0
SPLINE
5
362
100
AcDbEntity
8
0
100
AcDbSpline
70
4
71
3
72
8
73
4
74
0
42
0.000000001
43
0.0000000001
44
0.0000000001
40
0
40
0
40
0
40
0
40
1
40
1
40
1
40
1
41
1
41
1
41
1
41
1
10
859.54819741117615
20
-189.07122432971659
30
0
10
861.13039088753521
20
-189.43330736423195
30
0
10
863.12033402311476
20
-186.36991069420839
30
0
10
862.80997183032491
20
-184.90332304899556
30
0
0
SPLINE
5
363
100
AcDbEntity
8
0
100
AcDbSpline
70
4
71
3
72
8
73
4
74
0
42
0.000000001
43
0.0000000001
44
0.0000000001
40
0
40
0
40
0
40
0
40
1
40
1
40
1
40
1
41
1
41
1
41
1
41
1
10
862.80997183032491
20
-184.90332304899556
30
0
10
862.6273796163764
20
-184.04893560036683
30
0
10
861.44075308032495
20
-183.60835202797912
30
0
10
860.45491855171986
20
-183.38806024178527
30
0
0
SPLINE
5
364
100
AcDbEntity
8
0
100
AcDbSpline
70
4
71
3
72
8
73
4
74
0
42
0.000000001
43
0.0000000001
44
0.0000000001
40
0
40
0
40
0
40
0
40
1
40
1
40
1
40
1
41
1
41
1
41
1
41
1
10
903.61272029427357
20
-167.06392260496477
30
0
10
901.817477806684
20
-166.89536094610557
30
0
10
899.95537893481719
20
-167.1491180668738
30
0
10
898.36701981413034
20
-167.99195421799681
30
0
0
SPLINE
5
365
100
AcDbEntity
8
0
100
AcDbSpline
70
4
71
3
72
8
73
4
74
0
42
0.000000001
43
0.0000000001
44
0.0000000001
40
0
40
0
40
0
40
0
40
1
40
1
40
1
40
1
41
1
41
1
41
1
41
1
10
898.36701981413034
20
-167.99195421799681
30
0
10
896.77873497831479
20
-168.83539393370015
30
0
10
895.48253825691995
20
-170.30136872872376
30
0
10
895.04440608528921
20
-172.04727677608193
30
0
0
SPLINE
5
366
100
AcDbEntity
8
0
100
AcDbSpline
70
4
71
3
72
8
73
4
74
0
42
0.000000001
43
0.0000000001
44
0.0000000001
40
0
40
0
40
0
40
0
40
1
40
1
40
1
40
1
41
1
41
1
41
1
41
1
10
895.04440608528921
20
-172.04727677608193
30
0
10
894.91054474699172
20
-172.56696445092223
30
0
10
894.9166361064481
20
-173.23697684868836
30
0
10
895.38522507536084
20
-173.49742889349326
30
0
0
SPLINE
5
367
100
AcDbEntity
8
0
100
AcDbSpline
70
4
71
3
72
8
73
4
74
0
42
0.000000001
43
0.0000000001
44
0.0000000001
40
0
40
0
40
0
40
0
40
1
40
1
40
1
40
1
41
1
41
1
41
1
41
1
10
895.38522507536084
20
-173.49742889349326
30
0
10
895.65294775195582
20
-173.64408580089275
30
0
10
895.97549266365831
20
-173.6014927127427
30
0
10
896.27976349699168
20
-173.55341182971659
30
0
0
SPLINE
5
368
100
AcDbEntity
8
0
100
AcDbSpline
70
4
71
3
72
8
73
4
74
0
42
0.000000001
43
0.0000000001
44
0.0000000001
40
0
40
0
40
0
40
0
40
1
40
1
40
1
40
1
41
1
41
1
41
1
41
1
10
896.27976349699168
20
-173.55341182971659
30
0
10
898.72002152311461
20
-173.165774799433
30
0
10
899.61455994474568
20
-173.31912663086914
30
0
10
900.4056938253608
20
-175.75329329753578
30
0
0
SPLINE
5
369
100
AcDbEntity
8
0
100
AcDbSpline
70
4
71
3
72
8
73
4
74
0
42
0.000000001
43
0.0000000001
44
0.0000000001
40
0
40
0
40
0
40
0
40
1
40
1
40
1
40
1
41
1
41
1
41
1
41
1
10
900.4056938253608
20
-175.75329329753578
30
0
10
900.71605601815054
20
-176.70261681183837
30
0
10
903.79523822335068
20
-173.24670816684429
30
0
10
903.91699112760693
20
-172.94000450397195
30
0
0
SPLINE
5
370
100
AcDbEntity
8
0
100
AcDbSpline
70
4
71
3
72
8
73
4
74
0
42
0.000000001
43
0.0000000001
44
0.0000000001
40
0
40
0
40
0
40
0
40
1
40
1
40
1
40
1
41
1
41
1
41
1
41
1
10
903.91699112760693
20
-172.94000450397195
30
0
10
904.35512329923779
20
-171.82211004520121
30
0
10
904.36730601815054
20
-170.58312196040814
30
0
10
904.28210127063267
20
-169.38369056964578
30
0
0
SPLINE
5
371
100
AcDbEntity
8
0
100
AcDbSpline
70
4
71
3
72
8
73
4
74
0
42
0.000000001
43
0.0000000001
44
0.0000000001
40
0
40
0
40
0
40
0
40
1
40
1
40
1
40
1
41
1
41
1
41
1
41
1
10
904.28210127063267
20
-169.38369056964578
30
0
10
904.22727903552516
20
-168.56823767924968
30
0
10
904.11778313505329
20
-167.70715530658424
30
0
10
903.61272029427357
20
-167.06392260496477
30
0
0
SPLINE
5
372
100
AcDbEntity
8
0
100
AcDbSpline
70
4
71
3
72
8
73
4
74
0
42
0.000000001
43
0.0000000001
44
0.0000000001
40
0
40
0
40
0
40
0
40
1
40
1
40
1
40
1
41
1
41
1
41
1
41
1
10
882.97705157784299
20
-174.28365997259479
30
0
10
881.63212398079691
20
-174.02382077797913
30
0
10
880.28727066862245
20
-175.14718446040814
30
0
10
879.96472575692007
20
-176.79267793282531
30
0
0
SPLINE
5
373
100
AcDbEntity
8
0
100
AcDbSpline
70
4
71
3
72
8
73
4
74
0
42
0.000000001
43
0.0000000001
44
0.0000000001
40
0
40
0
40
0
40
0
40
1
40
1
40
1
40
1
41
1
41
1
41
1
41
1
10
879.96472575692007
20
-176.79267793282531
30
0
10
879.64834648954536
20
-178.43818069085145
30
0
10
880.48204560148395
20
-179.98265602374738
30
0
10
881.82080755420202
20
-180.24250450397199
30
0
0
SPLINE
5
374
100
AcDbEntity
8
0
100
AcDbSpline
70
4
71
3
72
8
73
4
74
0
42
0.000000001
43
0.0000000001
44
0.0000000001
40
0
40
0
40
0
40
0
40
1
40
1
40
1
40
1
41
1
41
1
41
1
41
1
10
881.82080755420202
20
-180.24250450397199
30
0
10
883.16566086637647
20
-180.50295654877687
30
0
10
884.51058846342232
20
-179.37898001615864
30
0
10
884.8330590902533
20
-177.73348654374146
30
0
0
SPLINE
5
375
100
AcDbEntity
8
0
100
AcDbSpline
70
4
71
3
72
8
73
4
74
0
42
0.000000001
43
0.0000000001
44
0.0000000001
40
0
40
0
40
0
40
0
40
1
40
1
40
1
40
1
41
1
41
1
41
1
41
1
10
884.8330590902533
20
-177.73348654374146
30
0
10
885.14951264249942
20
-176.08799307132426
30
0
10
884.32190489001744
20
-174.54412130300864
30
0
10
882.97705157784299
20
-174.28365997259479
30
0
0
SPLINE
5
376
100
AcDbEntity
8
0
100
AcDbSpline
70
4
71
3
72
8
73
4
74
0
42
0.000000001
43
0.0000000001
44
0.0000000001
40
0
40
0
40
0
40
0
40
1
40
1
40
1
40
1
41
1
41
1
41
1
41
1
10
874.32360690621204
20
-173.2765242571102
30
0
10
873.16127152311469
20
-173.05136681183839
30
0
10
871.99284478056097
20
-174.02564075732892
30
0
10
871.71293938505312
20
-175.45267170851093
30
0
0
SPLINE
5
377
100
AcDbEntity
8
0
100
AcDbSpline
70
4
71
3
72
8
73
4
74
0
42
0.000000001
43
0.0000000001
44
0.0000000001
40
0
40
0
40
0
40
0
40
1
40
1
40
1
40
1
41
1
41
1
41
1
41
1
10
871.71293938505312
20
-175.45267170851093
30
0
10
871.43905106413035
20
-176.8809190744625
30
0
10
872.15716291614046
20
-178.22032173419657
30
0
10
873.32558965869407
20
-178.44609202965759
30
0
0
SPLINE
5
378
100
AcDbEntity
8
0
100
AcDbSpline
70
4
71
3
72
8
73
4
74
0
42
0.000000001
43
0.0000000001
44
0.0000000001
40
0
40
0
40
0
40
0
40
1
40
1
40
1
40
1
41
1
41
1
41
1
41
1
10
873.32558965869407
20
-178.44609202965759
30
0
10
874.48785075692001
20
-178.67186232511864
30
0
10
875.65627749947384
20
-177.69697552943887
30
0
10
875.93618289498158
20
-176.26994457825685
30
0
0
SPLINE
5
379
100
AcDbEntity
8
0
100
AcDbSpline
70
4
71
3
72
8
73
4
74
0
42
0.000000001
43
0.0000000001
44
0.0000000001
40
0
40
0
40
0
40
0
40
1
40
1
40
1
40
1
41
1
41
1
41
1
41
1
10
875.93618289498158
20
-176.26994457825685
30
0
10
876.21007121590435
20
-174.84291362707478
30
0
10
875.49195936389435
20
-173.50229455257121
30
0
10
874.32360690621204
20
-173.2765242571102
30
0
0
ENDSEC
0
SECTION
2
OBJECTS
0
DICTIONARY
5
C
100
AcDbDictionary
3
ACAD_GROUP
350
D
3
ACAD_MLINESTYLE
350
17
0
DICTIONARY
5
D
100
AcDbDictionary
0
DICTIONARY
5
1A
330
C
100
AcDbDictionary
0
DICTIONARY
5
17
100
AcDbDictionary
0
ENDSEC
0
EOF
