0
SECTION
2
HEADER
9
$INSUNITS
70
4
9
$ACADVER
1
AC1014
9
$HANDSEED
5
FFFF
0
ENDSEC
0
SECTION
2
TABLES
0
TABLE
2
VPORT
5
8
100
AcDbSymbolTable
0
ENDTAB
0
TABLE
2
LTYPE
5
5
100
AcDbSymbolTable
0
LTYPE
5
14
100
AcDbSymbolTableRecord
100
AcDbLinetypeTableRecord
2
BYBLOCK
70
0
0
LTYPE
5
15
100
AcDbSymbolTableRecord
100
AcDbLinetypeTableRecord
2
BYLAYER
70
0
0
ENDTAB
0
TABLE
2
LAYER
5
2
100
AcDbSymbolTable
70
2
0
LAYER
5
50
100
AcDbSymbolTableRecord
100
AcDbLayerTableRecord
2
0
70
0
6
CONTINUOUS
0
ENDTAB
0
TABLE
2
STYLE
5
3
100
AcDbSymbolTable
70
1
0
STYLE
5
11
100
AcDbSymbolTableRecord
100
AcDbTextStyleTableRecord
2
STANDARD
70
0
0
ENDTAB
0
TABLE
2
VIEW
5
6
100
AcDbSymbolTable
70
0
0
ENDTAB
0
TABLE
2
UCS
5
7
100
AcDbSymbolTable
70
0
0
ENDTAB
0
TABLE
2
APPID
5
9
100
AcDbSymbolTable
70
2
0
APPID
5
12
100
AcDbSymbolTableRecord
100
AcDbRegAppTableRecord
2
ACAD
70
0
0
ENDTAB
0
TABLE
2
DIMSTYLE
5
A
100
AcDbSymbolTable
70
1
0
ENDTAB
0
TABLE
2
BLOCK_RECORD
5
1
100
AcDbSymbolTable
70
1
0
BLOCK_RECORD
5
1F
100
AcDbSymbolTableRecord
100
AcDbBlockTableRecord
2
*MODEL_SPACE
0
BLOCK_RECORD
5
1B
100
AcDbSymbolTableRecord
100
AcDbBlockTableRecord
2
*PAPER_SPACE
0
ENDTAB
0
ENDSEC
0
SECTION
2
BLOCKS
0
BLOCK
5
20
100
AcDbEntity
100
AcDbBlockBegin
2
*MODEL_SPACE
0
ENDBLK
5
21
100
AcDbEntity
100
AcDbBlockEnd
0
BLOCK
5
1C
100
AcDbEntity
100
AcDbBlockBegin
2
*PAPER_SPACE
0
ENDBLK
5
1D
100
AcDbEntity
100
AcDbBlockEnd
0
ENDSEC
0
SECTION
2
ENTITIES
0
LWPOLYLINE
5
100
100
AcDbEntity
8
0
100
AcDbPolyline
90
4
70
1
43
0.0
10
-34.730683690104485
20
191.57893261315647
10
1016.2207746432289
20
191.57893261315647
10
1016.2207746432289
20
-23.236275720176884
10
-34.730683690104485
20
-23.236275720176884
0
LWPOLYLINE
5
101
100
AcDbEntity
8
0
100
AcDbPolyline
90
4
70
1
43
0.0
10
-14.040267023437817
20
161.15184927982313
10
163.65389964322887
20
161.15184927982313
10
163.65389964322887
20
10.233515946489788
10
-14.040267023437814
20
10.233515946489788
0
SPLINE
5
102
100
AcDbEntity
8
0
100
AcDbSpline
70
4
71
3
72
8
73
4
74
0
42
0.000000001
43
0.0000000001
44
0.0000000001
40
0
40
0
40
0
40
0
40
1
40
1
40
1
40
1
41
1
41
1
41
1
41
1
10
109.58862737556935
20
49.310413278363363
30
0
10
109.6257419544522
20
48.050124006690794
30
0
10
109.30991053800425
20
46.963874903144657
30
0
10
108.20906445722422
20
46.293871790987481
30
0
0
SPLINE
5
103
100
AcDbEntity
8
0
100
AcDbSpline
70
4
71
3
72
8
73
4
74
0
42
0.000000001
43
0.0000000001
44
0.0000000001
40
0
40
0
40
0
40
0
40
1
40
1
40
1
40
1
41
1
41
1
41
1
41
1
10
108.20906445722422
20
46.293871790987481
30
0
10
107.8993151146237
20
46.105225360018238
30
0
10
107.56096609652678
20
45.97256186527234
30
0
10
107.22261707842986
20
45.839898370526448
30
0
0
SPLINE
5
104
100
AcDbEntity
8
0
100
AcDbSpline
70
4
71
3
72
8
73
4
74
0
42
0.000000001
43
0.0000000001
44
0.0000000001
40
0
40
0
40
0
40
0
40
1
40
1
40
1
40
1
41
1
41
1
41
1
41
1
10
107.22261707842986
20
45.839898370526448
30
0
10
106.9189498096768
20
45.721228288434176
30
0
10
106.61467897634347
20
45.601954641761608
30
0
10
106.33170932988962
20
45.441907886288782
30
0
0
SPLINE
5
105
100
AcDbEntity
8
0
100
AcDbSpline
70
4
71
3
72
8
73
4
74
0
42
0.000000001
43
0.0000000001
44
0.0000000001
40
0
40
0
40
0
40
0
40
1
40
1
40
1
40
1
41
1
41
1
41
1
41
1
10
106.33170932988962
20
45.441907886288782
30
0
10
105.66778829157988
20
45.067047853889278
30
0
10
105.12070807040374
20
44.446332753918796
30
0
10
104.94910073181629
20
43.703920463345668
30
0
0
SPLINE
5
106
100
AcDbEntity
8
0
100
AcDbSpline
70
4
71
3
72
8
73
4
74
0
42
0.000000001
43
0.0000000001
44
0.0000000001
40
0
40
0
40
0
40
0
40
1
40
1
40
1
40
1
41
1
41
1
41
1
41
1
10
104.94910073181629
20
43.703920463345668
30
0
10
104.77627697845935
20
42.961498887163629
30
0
10
105.0288176844581
20
42.108931417884641
30
0
10
105.6477035194699
20
41.664085750999277
30
0
0
SPLINE
5
107
100
AcDbEntity
8
0
100
AcDbSpline
70
4
71
3
72
8
73
4
74
0
42
0.000000001
43
0.0000000001
44
0.0000000001
40
0
40
0
40
0
40
0
40
1
40
1
40
1
40
1
41
1
41
1
41
1
41
1
10
105.6477035194699
20
41.664085750999277
30
0
10
106.12541095634937
20
41.320871073824392
30
0
10
106.7418639618222
20
41.249669024569009
30
0
10
107.32971729179859
20
41.214977989616216
30
0
0
SPLINE
5
108
100
AcDbEntity
8
0
100
AcDbSpline
70
4
71
3
72
8
73
4
74
0
42
0.000000001
43
0.0000000001
44
0.0000000001
40
0
40
0
40
0
40
0
40
1
40
1
40
1
40
1
41
1
41
1
41
1
41
1
10
107.32971729179859
20
41.214977989616216
30
0
10
111.92299231748422
20
40.945398191235682
30
0
10
115.05515820722421
20
41.623916206779299
30
0
10
115.80792395175139
20
46.750278040987467
30
0
0
SPLINE
5
109
100
AcDbEntity
8
0
100
AcDbSpline
70
4
71
3
72
8
73
4
74
0
42
0.000000001
43
0.0000000001
44
0.0000000001
40
0
40
0
40
0
40
0
40
1
40
1
40
1
40
1
41
1
41
1
41
1
41
1
10
115.80792395175139
20
46.750278040987467
30
0
10
115.98682977895578
20
47.971623468818478
30
0
10
116.11827685893218
20
49.230687040112642
30
0
10
116.11827685893218
20
50.476379334551318
30
0
0
SPLINE
5
110
100
AcDbEntity
8
0
100
AcDbSpline
70
4
71
3
72
8
73
4
74
0
42
0.000000001
43
0.0000000001
44
0.0000000001
40
0
40
0
40
0
40
0
40
1
40
1
40
1
40
1
41
1
41
1
41
1
41
1
10
116.11827685893218
20
50.476379334551318
30
0
10
119.4056145594581
20
51.21635879558545
30
0
10
122.08685270846527
20
52.117610712470835
30
0
10
123.81206313352425
20
53.183775043906977
30
0
0
SPLINE
5
111
100
AcDbEntity
8
0
100
AcDbSpline
70
4
71
3
72
8
73
4
74
0
42
0.000000001
43
0.0000000001
44
0.0000000001
40
0
40
0
40
0
40
0
40
1
40
1
40
1
40
1
41
1
41
1
41
1
41
1
10
123.81206313352425
20
53.183775043906977
30
0
10
124.4796427017514
20
53.595758940798262
30
0
10
125.35351135790982
20
53.820925671679007
30
0
10
126.18903044919807
20
54.035738948605676
30
0
0
SPLINE
5
112
100
AcDbEntity
8
0
100
AcDbSpline
70
4
71
3
72
8
73
4
74
0
42
0.000000001
43
0.0000000001
44
0.0000000001
40
0
40
0
40
0
40
0
40
1
40
1
40
1
40
1
41
1
41
1
41
1
41
1
10
126.18903044919807
20
54.035738948605676
30
0
10
127.90816808601858
20
54.478142500343139
30
0
10
129.46846609652678
20
54.879782228889283
30
0
10
128.75768987556935
20
56.78695344648979
30
0
0
LINE
5
113
100
AcDbEntity
8
0
100
AcDbLine
10
128.75768987556935
20
56.786953446489797
30
0
11
128.63840694328786
21
57.144170821927212
31
0
0
SPLINE
5
114
100
AcDbEntity
8
0
100
AcDbSpline
70
4
71
3
72
8
73
4
74
0
42
0.000000001
43
0.0000000001
44
0.0000000001
40
0
40
0
40
0
40
0
40
1
40
1
40
1
40
1
41
1
41
1
41
1
41
1
10
128.63840694328786
20
57.144170821927212
30
0
10
129.96563616971812
20
57.221454945030032
30
0
10
132.13326871773245
20
57.394278698386962
30
0
10
133.04426123838266
20
57.731411301714402
30
0
0
SPLINE
5
115
100
AcDbEntity
8
0
100
AcDbSpline
70
0
71
2
72
6
73
3
74
0
42
0.000000001
43
0.0000000001
44
0.0000000001
40
0
40
0
40
0
40
1
40
1
40
1
10
133.04426123838266
20
57.731411301714402
30
0
10
134.40982145846527
20
58.237105563901096
30
0
10
132.34930769503751
20
63.208889866294683
30
0
0
SPLINE
5
116
100
AcDbEntity
8
0
100
AcDbSpline
70
0
71
2
72
6
73
3
74
0
42
0.000000001
43
0.0000000001
44
0.0000000001
40
0
40
0
40
0
40
1
40
1
40
1
10
132.34930769503751
20
63.208889866294683
30
0
10
136.64317754646777
20
62.001547136726209
30
0
10
138.63676064074673
20
64.366341019096197
30
0
0
SPLINE
5
117
100
AcDbEntity
8
0
100
AcDbSpline
70
0
71
2
72
6
73
3
74
0
42
0.000000001
43
0.0000000001
44
0.0000000001
40
0
40
0
40
0
40
1
40
1
40
1
10
138.63676064074673
20
64.366341019096197
30
0
10
140.65223920087658
20
66.756688897234412
30
0
10
129.92000668744882
20
74.047024749539517
30
0
0
SPLINE
5
118
100
AcDbEntity
8
0
100
AcDbSpline
70
0
71
2
72
6
73
3
74
0
42
0.000000001
43
0.0000000001
44
0.0000000001
40
0
40
0
40
0
40
1
40
1
40
1
10
129.92000668744882
20
74.047024749539517
30
0
10
135.90926158806326
20
73.896709312222626
30
0
10
138.26372058769704
20
76.39173385979953
30
0
0
SPLINE
5
119
100
AcDbEntity
8
0
100
AcDbSpline
70
0
71
2
72
6
73
3
74
0
42
0.000000001
43
0.0000000001
44
0.0000000001
40
0
40
0
40
0
40
1
40
1
40
1
10
138.26372058769704
20
76.39173385979953
30
0
10
140.64737354179857
20
78.91839447699212
30
0
10
126.19450895846526
20
83.604163453203668
30
0
0
SPLINE
5
120
100
AcDbEntity
8
0
100
AcDbSpline
70
0
71
2
72
6
73
3
74
0
42
0.000000001
43
0.0000000001
44
0.0000000001
40
0
40
0
40
0
40
1
40
1
40
1
10
126.19450895846526
20
83.604163453203668
30
0
10
133.77877147575856
20
85.291655734799519
30
0
10
134.99219627917449
20
88.732958116950812
30
0
0
SPLINE
5
121
100
AcDbEntity
8
0
100
AcDbSpline
70
0
71
2
72
6
73
3
74
0
42
0.000000001
43
0.0000000001
44
0.0000000001
40
0
40
0
40
0
40
1
40
1
40
1
10
134.99219627917449
20
88.732958116950812
30
0
10
136.21596525093554
20
92.204076589368
30
0
10
121.06084863564014
20
94.217744455756957
30
0
0
SPLINE
5
122
100
AcDbEntity
8
0
100
AcDbSpline
70
0
71
2
72
6
73
3
74
0
42
0.000000001
43
0.0000000001
44
0.0000000001
40
0
40
0
40
0
40
1
40
1
40
1
10
121.06084863564014
20
94.217744455756957
30
0
10
130.85412037432829
20
97.988268102429544
30
0
10
130.65267837425708
20
101.18432826719902
30
0
0
SPLINE
5
123
100
AcDbEntity
8
0
100
AcDbSpline
70
0
71
2
72
6
73
3
74
0
42
0.000000001
43
0.0000000001
44
0.0000000001
40
0
40
0
40
0
40
1
40
1
40
1
10
130.65267837425708
20
101.18432826719902
30
0
10
130.45064209521453
20
104.38891262096388
30
0
10
113.19422932208221
20
101.98151636483493
30
0
0
SPLINE
5
124
100
AcDbEntity
8
0
100
AcDbSpline
70
0
71
2
72
6
73
3
74
0
42
0.000000001
43
0.0000000001
44
0.0000000001
40
0
40
0
40
0
40
1
40
1
40
1
10
113.19422932208221
20
101.98151636483493
30
0
10
122.58281565249602
20
107.2837383465193
30
0
10
121.04745878756682
20
109.77693362913749
30
0
0
SPLINE
5
125
100
AcDbEntity
8
0
100
AcDbSpline
70
0
71
2
72
6
73
3
74
0
42
0.000000001
43
0.0000000001
44
0.0000000001
40
0
40
0
40
0
40
1
40
1
40
1
10
121.04745878756682
20
109.77693362913749
30
0
10
119.51820256770293
20
112.25978474341056
30
0
10
100.86334923327605
20
108.67608754835746
30
0
0
SPLINE
5
126
100
AcDbEntity
8
0
100
AcDbSpline
70
0
71
2
72
6
73
3
74
0
42
0.000000001
43
0.0000000001
44
0.0000000001
40
0
40
0
40
0
40
1
40
1
40
1
10
100.86334923327605
20
108.67608754835746
30
0
10
113.28125404894989
20
116.36865740818007
30
0
10
110.97975087702909
20
119.65660795889519
30
0
0
SPLINE
5
127
100
AcDbEntity
8
0
100
AcDbSpline
70
0
71
2
72
6
73
3
74
0
42
0.000000001
43
0.0000000001
44
0.0000000001
40
0
40
0
40
0
40
1
40
1
40
1
10
110.97975087702909
20
119.65660795889519
30
0
10
107.90418077370165
20
124.04967132769249
30
0
10
89.209780030852954
20
113.53894237242363
30
0
0
SPLINE
5
128
100
AcDbEntity
8
0
100
AcDbSpline
70
0
71
2
72
6
73
3
74
0
42
0.000000001
43
0.0000000001
44
0.0000000001
40
0
40
0
40
0
40
1
40
1
40
1
10
89.209780030852954
20
113.53894237242363
30
0
10
99.837354446059862
20
122.55387579959852
30
0
10
97.393447175628353
20
126.00248131317122
30
0
0
SPLINE
5
129
100
AcDbEntity
8
0
100
AcDbSpline
70
0
71
2
72
6
73
3
74
0
42
0.000000001
43
0.0000000001
44
0.0000000001
40
0
40
0
40
0
40
1
40
1
40
1
10
97.393447175628353
20
126.00248131317122
30
0
10
94.967191847767822
20
129.42491998078648
30
0
10
77.935332955327041
20
116.75690728865288
30
0
0
SPLINE
5
130
100
AcDbEntity
8
0
100
AcDbSpline
70
0
71
2
72
6
73
3
74
0
42
0.000000001
43
0.0000000001
44
0.0000000001
40
0
40
0
40
0
40
1
40
1
40
1
10
77.935332955327041
20
116.75690728865288
30
0
10
83.129229023264259
20
123.53971497100812
30
0
10
81.991259077992439
20
126.87452070437097
30
0
0
SPLINE
5
131
100
AcDbEntity
8
0
100
AcDbSpline
70
0
71
2
72
6
73
3
74
0
42
0.000000001
43
0.0000000001
44
0.0000000001
40
0
40
0
40
0
40
1
40
1
40
1
10
81.991259077992439
20
126.87452070437097
30
0
10
80.856325526839896
20
130.20324436388634
30
0
10
63.106382639215788
20
114.80835939767184
30
0
0
SPLINE
5
132
100
AcDbEntity
8
0
100
AcDbSpline
70
0
71
2
72
6
73
3
74
0
42
0.000000001
43
0.0000000001
44
0.0000000001
40
0
40
0
40
0
40
1
40
1
40
1
10
63.106382639215788
20
114.80835939767184
30
0
10
68.037403118418055
20
122.64819901508315
30
0
10
66.50752476275602
20
124.75862292649569
30
0
0
SPLINE
5
133
100
AcDbEntity
8
0
100
AcDbSpline
70
4
71
3
72
8
73
4
74
0
42
0.000000001
43
0.0000000001
44
0.0000000001
40
0
40
0
40
0
40
0
40
1
40
1
40
1
40
1
41
1
41
1
41
1
41
1
10
66.50752476275602
20
124.75862292649569
30
0
10
65.387197474446296
20
126.30431931696556
30
0
10
56.815893299387298
20
118.26974190912864
30
0
10
51.906786857253721
20
113.66794733725212
30
0
0
SPLINE
5
134
100
AcDbEntity
8
0
100
AcDbSpline
70
4
71
3
72
8
73
4
74
0
42
0.000000001
43
0.0000000001
44
0.0000000001
40
0
40
0
40
0
40
0
40
1
40
1
40
1
40
1
41
1
41
1
41
1
41
1
10
51.906786857253721
20
113.66794733725212
30
0
10
50.147488961822191
20
112.01880462052645
30
0
10
48.858600014653213
20
110.81023619057956
30
0
10
48.55189635178089
20
110.64227809630057
30
0
0
SPLINE
5
135
100
AcDbEntity
8
0
100
AcDbSpline
70
4
71
3
72
8
73
4
74
0
42
0.000000001
43
0.0000000001
44
0.0000000001
40
0
40
0
40
0
40
0
40
1
40
1
40
1
40
1
41
1
41
1
41
1
41
1
10
48.55189635178089
20
110.64227809630057
30
0
10
48.111916343973476
20
110.40069440883619
30
0
10
48.340732319162697
20
111.37375193955721
30
0
10
48.672386413222952
20
112.78799660724623
30
0
0
SPLINE
5
136
100
AcDbEntity
8
0
100
AcDbSpline
70
4
71
3
72
8
73
4
74
0
42
0.000000001
43
0.0000000001
44
0.0000000001
40
0
40
0
40
0
40
0
40
1
40
1
40
1
40
1
41
1
41
1
41
1
41
1
10
48.672386413222952
20
112.78799660724623
30
0
10
49.212158860173218
20
115.08767979981724
30
0
10
50.025169635421435
20
118.55271619838696
30
0
10
48.683946996337575
20
119.85621140839876
30
0
0
SPLINE
5
137
100
AcDbEntity
8
0
100
AcDbSpline
70
4
71
3
72
8
73
4
74
0
42
0.000000001
43
0.0000000001
44
0.0000000001
40
0
40
0
40
0
40
0
40
1
40
1
40
1
40
1
41
1
41
1
41
1
41
1
10
48.683946996337575
20
119.85621140839876
30
0
10
46.971513569162688
20
121.52057323815647
30
0
10
41.642511891331672
20
110.81084904076876
30
0
10
38.662486061062815
20
104.82097200435621
30
0
0
SPLINE
5
138
100
AcDbEntity
8
0
100
AcDbSpline
70
4
71
3
72
8
73
4
74
0
42
0.000000001
43
0.0000000001
44
0.0000000001
40
0
40
0
40
0
40
0
40
1
40
1
40
1
40
1
41
1
41
1
41
1
41
1
10
38.662486061062815
20
104.82097200435621
30
0
10
37.905458222037957
20
103.29961783768954
30
0
10
37.299957592295016
20
102.08314735454542
30
0
10
36.943961274431551
20
101.45087167146029
30
0
0
SPLINE
5
139
100
AcDbEntity
8
0
100
AcDbSpline
70
4
71
3
72
8
73
4
74
0
42
0.000000001
43
0.0000000001
44
0.0000000001
40
0
40
0
40
0
40
0
40
1
40
1
40
1
40
1
41
1
41
1
41
1
41
1
10
36.943961274431551
20
101.45087167146029
30
0
10
36.051841753926283
20
99.866226794344399
30
0
10
35.537015095359486
20
101.76974876763644
30
0
10
34.898652695622445
20
104.13028055550875
30
0
0
SPLINE
5
140
100
AcDbEntity
8
0
100
AcDbSpline
70
4
71
3
72
8
73
4
74
0
42
0.000000001
43
0.0000000001
44
0.0000000001
40
0
40
0
40
0
40
0
40
1
40
1
40
1
40
1
41
1
41
1
41
1
41
1
10
34.898652695622445
20
104.13028055550875
30
0
10
34.294373123453461
20
106.36423092248263
30
0
10
33.579334807998336
20
109.00774164241773
30
0
10
32.329389704670902
20
109.49396398268364
30
0
0
SPLINE
5
141
100
AcDbEntity
8
0
100
AcDbSpline
70
4
71
3
72
8
73
4
74
0
42
0.000000001
43
0.0000000001
44
0.0000000001
40
0
40
0
40
0
40
0
40
1
40
1
40
1
40
1
41
1
41
1
41
1
41
1
10
32.329389704670902
20
109.49396398268364
30
0
10
29.789339239404995
20
110.48223134082777
30
0
10
30.354674967732429
20
93.669447819811325
30
0
10
30.657116536107061
20
90.616395318132859
30
0
0
SPLINE
5
142
100
AcDbEntity
8
0
100
AcDbSpline
70
4
71
3
72
8
73
4
74
0
42
0.000000001
43
0.0000000001
44
0.0000000001
40
0
40
0
40
0
40
0
40
1
40
1
40
1
40
1
41
1
41
1
41
1
41
1
10
30.657116536107061
20
90.616395318132859
30
0
10
30.802561671541532
20
89.146761993191859
30
0
10
29.053004379874867
20
90.22449619335157
30
0
10
27.318048708246554
20
91.293093354326714
30
0
0
SPLINE
5
143
100
AcDbEntity
8
0
100
AcDbSpline
70
4
71
3
72
8
73
4
74
0
42
0.000000001
43
0.0000000001
44
0.0000000001
40
0
40
0
40
0
40
0
40
1
40
1
40
1
40
1
41
1
41
1
41
1
41
1
10
27.318048708246554
20
91.293093354326714
30
0
10
25.454877348548575
20
92.440191053174175
30
0
10
23.608136873847645
20
93.577557433865692
30
0
10
24.141339752481777
20
91.541371965827778
30
0
0
SPLINE
5
144
100
AcDbEntity
8
0
100
AcDbSpline
70
0
71
2
72
6
73
3
74
0
42
0.000000001
43
0.0000000001
44
0.0000000001
40
0
40
0
40
0
40
1
40
1
40
1
10
24.141339752481777
20
91.541371965827778
30
0
10
25.171782346374194
20
87.604115925254646
30
0
10
28.554608606305123
20
81.40185844145438
30
0
0
SPLINE
5
145
100
AcDbEntity
8
0
100
AcDbSpline
70
0
71
2
72
6
73
3
74
0
42
0.000000001
43
0.0000000001
44
0.0000000001
40
0
40
0
40
0
40
1
40
1
40
1
10
28.554608606305123
20
81.40185844145438
30
0
10
22.02002382179737
20
79.700372747204909
30
0
10
25.338770094520253
20
77.662970864397508
30
0
0
SPLINE
5
146
100
AcDbEntity
8
0
100
AcDbSpline
70
4
71
3
72
8
73
4
74
0
42
0.000000001
43
0.0000000001
44
0.0000000001
40
0
40
0
40
0
40
0
40
1
40
1
40
1
40
1
41
1
41
1
41
1
41
1
10
25.338770094520253
20
77.662970864397508
30
0
10
27.480532936062811
20
76.347915071271075
30
0
10
29.959121955838206
20
72.720399087689543
30
0
10
31.482908952043857
20
70.24850499195081
30
0
0
SPLINE
5
147
100
AcDbEntity
8
0
100
AcDbSpline
70
4
71
3
72
8
73
4
74
0
42
0.000000001
43
0.0000000001
44
0.0000000001
40
0
40
0
40
0
40
0
40
1
40
1
40
1
40
1
41
1
41
1
41
1
41
1
10
31.482908952043857
20
70.24850499195081
30
0
10
24.685680719024347
20
66.903958654823128
30
0
10
19.290899787551563
20
63.952527857246224
30
0
10
22.195285047497748
20
61.584697580756966
30
0
0
SPLINE
5
148
100
AcDbEntity
8
0
100
AcDbSpline
70
4
71
3
72
8
73
4
74
0
42
0.000000001
43
0.0000000001
44
0.0000000001
40
0
40
0
40
0
40
0
40
1
40
1
40
1
40
1
41
1
41
1
41
1
41
1
10
22.195285047497748
20
61.584697580756966
30
0
10
24.301386507954597
20
59.867389208895183
30
0
10
32.417022638923328
20
58.487222725969765
30
0
10
39.028826547271407
20
57.362633343162358
30
0
0
SPLINE
5
149
100
AcDbEntity
8
0
100
AcDbSpline
70
4
71
3
72
8
73
4
74
0
42
0.000000001
43
0.0000000001
44
0.0000000001
40
0
40
0
40
0
40
0
40
1
40
1
40
1
40
1
41
1
41
1
41
1
41
1
10
39.028826547271407
20
57.362633343162358
30
0
10
41.714322147971792
20
56.905623528582083
30
0
10
44.151529851562181
20
56.491206802151822
30
0
10
45.837796432779626
20
56.11330109002413
30
0
0
SPLINE
5
150
100
AcDbEntity
8
0
100
AcDbSpline
70
4
71
3
72
8
73
4
74
0
42
0.000000001
43
0.0000000001
44
0.0000000001
40
0
40
0
40
0
40
0
40
1
40
1
40
1
40
1
41
1
41
1
41
1
41
1
10
45.837796432779626
20
56.11330109002413
30
0
10
47.004978903737076
20
55.852236195030031
30
0
10
48.168512130386034
20
55.524834909858534
30
0
10
49.374034880604754
20
55.147542047920055
30
0
0
LINE
5
151
100
AcDbEntity
8
0
100
AcDbLine
10
49.374034880604754
20
55.147542047920055
30
0
11
49.377080560332942
21
55.134152199846731
31
0
0
SPLINE
5
152
100
AcDbEntity
8
0
100
AcDbSpline
70
4
71
3
72
8
73
4
74
0
42
0.000000001
43
0.0000000001
44
0.0000000001
40
0
40
0
40
0
40
0
40
1
40
1
40
1
40
1
41
1
41
1
41
1
41
1
10
49.377080560332942
20
55.134152199846724
30
0
10
49.908941668477063
20
52.58862322531364
30
0
10
50.460887548731165
20
49.948771035295948
30
0
10
48.413754347767828
20
48.771847960573652
30
0
0
SPLINE
5
153
100
AcDbEntity
8
0
100
AcDbSpline
70
4
71
3
72
8
73
4
74
0
42
0.000000001
43
0.0000000001
44
0.0000000001
40
0
40
0
40
0
40
0
40
1
40
1
40
1
40
1
41
1
41
1
41
1
41
1
10
48.413754347767828
20
48.771847960573652
30
0
10
48.099752196278573
20
48.591112868410562
30
0
10
47.758357498453456
20
48.467577127240332
30
0
10
47.41696280062834
20
48.344050671679
30
0
0
SPLINE
5
154
100
AcDbEntity
8
0
100
AcDbSpline
70
4
71
3
72
8
73
4
74
0
42
0.000000001
43
0.0000000001
44
0.0000000001
40
0
40
0
40
0
40
0
40
1
40
1
40
1
40
1
41
1
41
1
41
1
41
1
10
47.41696280062834
20
48.344050671679
30
0
10
47.109646287566832
20
48.232075513623371
30
0
10
46.802339060114221
20
48.120713205756971
30
0
10
46.514494468973467
20
47.967964938901076
30
0
0
SPLINE
5
155
100
AcDbEntity
8
0
100
AcDbSpline
70
4
71
3
72
8
73
4
74
0
42
0.000000001
43
0.0000000001
44
0.0000000001
40
0
40
0
40
0
40
0
40
1
40
1
40
1
40
1
41
1
41
1
41
1
41
1
10
46.514494468973467
20
47.967964938901076
30
0
10
45.84205852727731
20
47.610143998883387
30
0
10
45.279155628488859
20
47.003431597175421
30
0
10
45.088679932560922
20
46.265875680071332
30
0
0
SPLINE
5
156
100
AcDbEntity
8
0
100
AcDbSpline
70
4
71
3
72
8
73
4
74
0
42
0.000000001
43
0.0000000001
44
0.0000000001
40
0
40
0
40
0
40
0
40
1
40
1
40
1
40
1
41
1
41
1
41
1
41
1
10
45.088679932560922
20
46.265875680071332
30
0
10
44.896997107472423
20
45.528319762967243
30
0
10
45.128849476780893
20
44.669066655260536
30
0
10
45.735561878488866
20
44.209001875343148
30
0
0
SPLINE
5
157
100
AcDbEntity
8
0
100
AcDbSpline
70
4
71
3
72
8
73
4
74
0
42
0.000000001
43
0.0000000001
44
0.0000000001
40
0
40
0
40
0
40
0
40
1
40
1
40
1
40
1
41
1
41
1
41
1
41
1
10
45.735561878488866
20
44.209001875343148
30
0
10
46.204745126372977
20
43.853613764864434
30
0
10
46.819378152496029
20
43.766598323605677
30
0
10
47.406015067702931
20
43.717301025810059
30
0
0
SPLINE
5
158
100
AcDbEntity
8
0
100
AcDbSpline
70
4
71
3
72
8
73
4
74
0
42
0.000000001
43
0.0000000001
44
0.0000000001
40
0
40
0
40
0
40
0
40
1
40
1
40
1
40
1
41
1
41
1
41
1
41
1
10
47.406015067702931
20
43.717301025810059
30
0
10
51.990153054203994
20
43.331493260485146
30
0
10
55.138745186136561
20
43.929681473197761
30
0
10
56.020525181101171
20
49.035958535295947
30
0
0
SPLINE
5
159
100
AcDbEntity
8
0
100
AcDbSpline
70
4
71
3
72
8
73
4
74
0
42
0.000000001
43
0.0000000001
44
0.0000000001
40
0
40
0
40
0
40
0
40
1
40
1
40
1
40
1
41
1
41
1
41
1
41
1
10
56.020525181101171
20
49.035958535295947
30
0
10
56.231689213719363
20
50.254871133587983
30
0
10
56.394781648920386
20
51.513331140301837
30
0
10
56.426427004144983
20
52.760230563901089
30
0
0
SPLINE
5
160
100
AcDbEntity
8
0
100
AcDbSpline
70
4
71
3
72
8
73
4
74
0
42
0.000000001
43
0.0000000001
44
0.0000000001
40
0
40
0
40
0
40
0
40
1
40
1
40
1
40
1
41
1
41
1
41
1
41
1
10
56.426427004144983
20
52.760230563901089
30
0
10
57.801114977803238
20
52.296525825284149
30
0
10
59.280479620900159
20
51.813952729326701
30
0
10
60.900419097549126
20
51.324071859143402
30
0
0
SPLINE
5
161
100
AcDbEntity
8
0
100
AcDbSpline
70
4
71
3
72
8
73
4
74
0
42
0.000000001
43
0.0000000001
44
0.0000000001
40
0
40
0
40
0
40
0
40
1
40
1
40
1
40
1
41
1
41
1
41
1
41
1
10
60.900419097549126
20
51.324071859143402
30
0
10
61.274062715179127
20
49.247122567914147
30
0
10
61.345264764434489
20
47.294312582435438
30
0
10
59.664476692484229
20
46.327949975751054
30
0
0
SPLINE
5
162
100
AcDbEntity
8
0
100
AcDbSpline
70
4
71
3
72
8
73
4
74
0
42
0.000000001
43
0.0000000001
44
0.0000000001
40
0
40
0
40
0
40
0
40
1
40
1
40
1
40
1
41
1
41
1
41
1
41
1
10
59.664476692484229
20
46.327949975751054
30
0
10
59.350465255386041
20
46.147818448168252
30
0
10
59.009683407750124
20
46.024282706998022
30
0
10
58.668288709925008
20
45.900143401247476
30
0
0
SPLINE
5
163
100
AcDbEntity
8
0
100
AcDbSpline
70
4
71
3
72
8
73
4
74
0
42
0.000000001
43
0.0000000001
44
0.0000000001
40
0
40
0
40
0
40
0
40
1
40
1
40
1
40
1
41
1
41
1
41
1
41
1
10
58.668288709925008
20
45.900143401247476
30
0
10
58.360981482472418
20
45.788781093381061
30
0
10
58.053664969410903
20
45.677418785514661
30
0
10
57.765216813689868
20
45.524066954078499
30
0
0
SPLINE
5
164
100
AcDbEntity
8
0
100
AcDbSpline
70
4
71
3
72
8
73
4
74
0
42
0.000000001
43
0.0000000001
44
0.0000000001
40
0
40
0
40
0
40
0
40
1
40
1
40
1
40
1
41
1
41
1
41
1
41
1
10
57.765216813689868
20
45.524066954078499
30
0
10
57.09278087199371
20
45.166849578641077
30
0
10
56.531094387974733
20
44.559524326743905
30
0
10
56.339402277277308
20
43.821977695248734
30
0
0
SPLINE
5
165
100
AcDbEntity
8
0
100
AcDbSpline
70
4
71
3
72
8
73
4
74
0
42
0.000000001
43
0.0000000001
44
0.0000000001
40
0
40
0
40
0
40
0
40
1
40
1
40
1
40
1
41
1
41
1
41
1
41
1
10
56.339402277277308
20
43.821977695248734
30
0
10
56.148323016769091
20
43.084421778144666
30
0
10
56.378958971308073
20
42.225772235018226
30
0
10
56.986284223205246
20
41.765707455100838
30
0
0
SPLINE
5
166
100
AcDbEntity
8
0
100
AcDbSpline
70
4
71
3
72
8
73
4
74
0
42
0.000000001
43
0.0000000001
44
0.0000000001
40
0
40
0
40
0
40
0
40
1
40
1
40
1
40
1
41
1
41
1
41
1
41
1
10
56.986284223205246
20
41.765707455100838
30
0
10
57.45485462090015
20
41.409715780041836
30
0
10
58.070091211603483
20
41.322691053174161
30
0
10
58.656728126810393
20
41.273403040987461
30
0
0
SPLINE
5
167
100
AcDbEntity
8
0
100
AcDbSpline
70
4
71
3
72
8
73
4
74
0
42
0.000000001
43
0.0000000001
44
0.0000000001
40
0
40
0
40
0
40
0
40
1
40
1
40
1
40
1
41
1
41
1
41
1
41
1
10
58.656728126810393
20
41.273403040987461
30
0
10
63.241478963500661
20
40.88758599005363
30
0
10
66.389467530852954
20
41.48638705295545
30
0
10
67.271851090397831
20
46.592051264864423
30
0
0
SPLINE
5
168
100
AcDbEntity
8
0
100
AcDbSpline
70
4
71
3
72
8
73
4
74
0
42
0.000000001
43
0.0000000001
44
0.0000000001
40
0
40
0
40
0
40
0
40
1
40
1
40
1
40
1
41
1
41
1
41
1
41
1
10
67.271851090397831
20
46.592051264864423
30
0
10
67.436772790557541
20
47.543204044125687
30
0
10
67.571859829233489
20
48.518694404385698
30
0
10
67.638196219410901
20
49.494194050254649
30
0
0
SPLINE
5
169
100
AcDbEntity
8
0
100
AcDbSpline
70
4
71
3
72
8
73
4
74
0
42
0.000000001
43
0.0000000001
44
0.0000000001
40
0
40
0
40
0
40
0
40
1
40
1
40
1
40
1
41
1
41
1
41
1
41
1
10
67.638196219410901
20
49.494194050254649
30
0
10
68.022184005386038
20
49.401087249539515
30
0
10
68.41286671539784
20
49.308584013404669
30
0
10
68.810857199635507
20
49.216693627459023
30
0
0
SPLINE
5
170
100
AcDbEntity
8
0
100
AcDbSpline
70
4
71
3
72
8
73
4
74
0
42
0.000000001
43
0.0000000001
44
0.0000000001
40
0
40
0
40
0
40
0
40
1
40
1
40
1
40
1
41
1
41
1
41
1
41
1
10
68.810857199635507
20
49.216693627459023
30
0
10
74.094210823979381
20
47.992915370089037
30
0
10
84.36882995824655
20
47.568154475313648
30
0
10
94.764552004144988
20
48.014216556968506
30
0
0
SPLINE
5
171
100
AcDbEntity
8
0
100
AcDbSpline
70
4
71
3
72
8
73
4
74
0
42
0.000000001
43
0.0000000001
44
0.0000000001
40
0
40
0
40
0
40
0
40
1
40
1
40
1
40
1
41
1
41
1
41
1
41
1
10
94.764552004144988
20
48.014216556968506
30
0
10
94.547296612070397
20
47.596754150810057
30
0
10
94.220508177088092
20
47.235887531064179
30
0
10
93.751937779393188
20
46.950485055071326
30
0
0
SPLINE
5
172
100
AcDbEntity
8
0
100
AcDbSpline
70
4
71
3
72
8
73
4
74
0
42
0.000000001
43
0.0000000001
44
0.0000000001
40
0
40
0
40
0
40
0
40
1
40
1
40
1
40
1
41
1
41
1
41
1
41
1
10
93.751937779393188
20
46.950485055071326
30
0
10
93.442188436792705
20
46.762442188682378
30
0
10
93.104442983276044
20
46.629787979545426
30
0
10
92.766706815368337
20
46.497728049379802
30
0
0
SPLINE
5
173
100
AcDbEntity
8
0
100
AcDbSpline
70
4
71
3
72
8
73
4
74
0
42
0.000000001
43
0.0000000001
44
0.0000000001
40
0
40
0
40
0
40
0
40
1
40
1
40
1
40
1
41
1
41
1
41
1
41
1
10
92.766706815368337
20
46.497728049379802
30
0
10
92.462435982035004
20
46.378454402707234
30
0
10
92.157552298512456
20
46.259180756034667
30
0
10
91.873366237289105
20
46.098530435981573
30
0
0
SPLINE
5
174
100
AcDbEntity
8
0
100
AcDbSpline
70
4
71
3
72
8
73
4
74
0
42
0.000000001
43
0.0000000001
44
0.0000000001
40
0
40
0
40
0
40
0
40
1
40
1
40
1
40
1
41
1
41
1
41
1
41
1
10
91.873366237289105
20
46.098530435981573
30
0
10
91.210058049168595
20
45.724273968162365
30
0
10
90.663590678181663
20
45.102955303611566
30
0
10
90.491974053985288
20
44.360533727429527
30
0
0
SPLINE
5
175
100
AcDbEntity
8
0
100
AcDbSpline
70
4
71
3
72
8
73
4
74
0
42
0.000000001
43
0.0000000001
44
0.0000000001
40
0
40
0
40
0
40
0
40
1
40
1
40
1
40
1
41
1
41
1
41
1
41
1
10
90.491974053985288
20
44.360533727429527
30
0
10
90.319150300628351
20
43.618715715827761
30
0
10
90.571087442046803
20
42.765544681968507
30
0
10
91.190586127247826
20
42.320699015083143
30
0
0
SPLINE
5
176
100
AcDbEntity
8
0
100
AcDbSpline
70
4
71
3
72
8
73
4
74
0
42
0.000000001
43
0.0000000001
44
0.0000000001
40
0
40
0
40
0
40
0
40
1
40
1
40
1
40
1
41
1
41
1
41
1
41
1
10
91.190586127247826
20
42.320699015083143
30
0
10
91.668284278518371
20
41.977484337908244
30
0
10
92.284737283991177
20
41.906282288652875
30
0
10
92.8719870493873
20
41.872204103889281
30
0
0
SPLINE
5
177
100
AcDbEntity
8
0
100
AcDbSpline
70
4
71
3
72
8
73
4
74
0
42
0.000000001
43
0.0000000001
44
0.0000000001
40
0
40
0
40
0
40
0
40
1
40
1
40
1
40
1
41
1
41
1
41
1
41
1
10
92.8719870493873
20
41.872204103889281
30
0
10
97.465865639653217
20
41.602011455319555
30
0
10
100.59681511462371
20
42.279925906282884
30
0
10
101.34958085915089
20
47.406287740491052
30
0
0
SPLINE
5
178
100
AcDbEntity
8
0
100
AcDbSpline
70
4
71
3
72
8
73
4
74
0
42
0.000000001
43
0.0000000001
44
0.0000000001
40
0
40
0
40
0
40
0
40
1
40
1
40
1
40
1
41
1
41
1
41
1
41
1
10
101.34958085915089
20
47.406287740491052
30
0
10
101.39948172152678
20
47.744023908398759
30
0
10
101.445120489405
20
48.084805756034669
30
0
10
101.48589359820525
20
48.42741686862928
30
0
0
SPLINE
5
179
100
AcDbEntity
8
0
100
AcDbSpline
70
4
71
3
72
8
73
4
74
0
42
0.000000001
43
0.0000000001
44
0.0000000001
40
0
40
0
40
0
40
0
40
1
40
1
40
1
40
1
41
1
41
1
41
1
41
1
10
101.48589359820525
20
48.42741686862928
30
0
10
104.29065820277373
20
48.654403578859785
30
0
10
107.02544645846527
20
48.948330243847984
30
0
10
109.58862737556935
20
49.310413278363363
30
0
0
LWPOLYLINE
5
180
100
AcDbEntity
8
0
100
AcDbPolyline
90
4
70
1
43
0.0
10
193.47244130989552
20
161.15184927982313
10
371.1666079765622
20
161.15184927982313
10
371.16660797656215
20
10.233515946489788
10
193.47244130989549
20
10.233515946489788
0
SPLINE
5
181
100
AcDbEntity
8
0
100
AcDbSpline
70
4
71
3
72
8
73
4
74
0
42
0.000000001
43
0.0000000001
44
0.0000000001
40
0
40
0
40
0
40
0
40
1
40
1
40
1
40
1
41
1
41
1
41
1
41
1
10
261.67839598874889
20
59.771246014060807
30
0
10
261.03091047824068
20
60.298845027707237
30
0
10
260.20816838483648
20
60.562342752240319
30
0
10
259.38784054975349
20
60.717523848635167
30
0
0
SPLINE
5
182
100
AcDbEntity
8
0
100
AcDbSpline
70
4
71
3
72
8
73
4
74
0
42
0.000000001
43
0.0000000001
44
0.0000000001
40
0
40
0
40
0
40
0
40
1
40
1
40
1
40
1
41
1
41
1
41
1
41
1
10
259.38784054975349
20
60.717523848635167
30
0
10
257.72592083514371
20
61.031535285733369
30
0
10
256.92386707842985
20
60.511838325284145
30
0
10
256.59768220802783
20
59.557639866294693
30
0
0
SPLINE
5
183
100
AcDbEntity
8
0
100
AcDbSpline
70
4
71
3
72
8
73
4
74
0
42
0.000000001
43
0.0000000001
44
0.0000000001
40
0
40
0
40
0
40
0
40
1
40
1
40
1
40
1
41
1
41
1
41
1
41
1
10
256.59768220802783
20
59.557639866294693
30
0
10
255.60089066088835
20
56.646378612937752
30
0
10
259.30690718234223
20
50.714313777707233
30
0
10
255.92646268110116
20
48.771847960573652
30
0
0
SPLINE
5
184
100
AcDbEntity
8
0
100
AcDbSpline
70
4
71
3
72
8
73
4
74
0
42
0.000000001
43
0.0000000001
44
0.0000000001
40
0
40
0
40
0
40
0
40
1
40
1
40
1
40
1
41
1
41
1
41
1
41
1
10
255.92646268110116
20
48.771847960573652
30
0
10
255.32949088315806
20
48.428633283398774
30
0
10
254.63513161878427
20
48.291104129574919
30
0
10
254.02720280230682
20
47.967964938901076
30
0
0
SPLINE
5
185
100
AcDbEntity
8
0
100
AcDbSpline
70
4
71
3
72
8
73
4
74
0
42
0.000000001
43
0.0000000001
44
0.0000000001
40
0
40
0
40
0
40
0
40
1
40
1
40
1
40
1
41
1
41
1
41
1
41
1
10
254.02720280230682
20
47.967964938901076
30
0
10
253.35477614621959
20
47.610143998883387
30
0
10
252.79186396182217
20
47.003431597175421
30
0
10
252.6013975515032
20
46.265875680071332
30
0
0
SPLINE
5
186
100
AcDbEntity
8
0
100
AcDbSpline
70
4
71
3
72
8
73
4
74
0
42
0.000000001
43
0.0000000001
44
0.0000000001
40
0
40
0
40
0
40
0
40
1
40
1
40
1
40
1
41
1
41
1
41
1
41
1
10
252.6013975515032
20
46.265875680071332
30
0
10
252.40970544080574
20
45.528319762967243
30
0
10
252.64154852450531
20
44.669066655260536
30
0
10
253.24827021182219
20
44.209001875343148
30
0
0
SPLINE
5
187
100
AcDbEntity
8
0
100
AcDbSpline
70
4
71
3
72
8
73
4
74
0
42
0.000000001
43
0.0000000001
44
0.0000000001
40
0
40
0
40
0
40
0
40
1
40
1
40
1
40
1
41
1
41
1
41
1
41
1
10
253.24827021182219
20
44.209001875343148
30
0
10
253.71745345970629
20
43.853613764864434
30
0
10
254.33208648582936
20
43.766598323605677
30
0
10
254.91871411542735
20
43.717301025810059
30
0
0
SPLINE
5
188
100
AcDbEntity
8
0
100
AcDbSpline
70
4
71
3
72
8
73
4
74
0
42
0.000000001
43
0.0000000001
44
0.0000000001
40
0
40
0
40
0
40
0
40
1
40
1
40
1
40
1
41
1
41
1
41
1
41
1
10
254.91871411542735
20
43.717301025810059
30
0
10
259.50346495211761
20
43.331493260485146
30
0
10
262.6514535194699
20
43.929681473197761
30
0
10
263.53323351443453
20
49.035958535295947
30
0
0
SPLINE
5
189
100
AcDbEntity
8
0
100
AcDbSpline
70
4
71
3
72
8
73
4
74
0
42
0.000000001
43
0.0000000001
44
0.0000000001
40
0
40
0
40
0
40
0
40
1
40
1
40
1
40
1
41
1
41
1
41
1
41
1
10
263.53323351443453
20
49.035958535295947
30
0
10
264.06875315249601
20
52.130396995963878
30
0
10
264.29695627749601
20
55.476763312441335
30
0
10
262.84132565081757
20
58.259623165550053
30
0
0
SPLINE
5
190
100
AcDbEntity
8
0
100
AcDbSpline
70
4
71
3
72
8
73
4
74
0
42
0.000000001
43
0.0000000001
44
0.0000000001
40
0
40
0
40
0
40
0
40
1
40
1
40
1
40
1
41
1
41
1
41
1
41
1
10
262.84132565081757
20
58.259623165550053
30
0
10
262.54435330610119
20
58.826788158836187
30
0
10
262.17497178296884
20
59.367173455975681
30
0
10
261.67839598874889
20
59.771246014060807
30
0
0
SPLINE
5
191
100
AcDbEntity
8
0
100
AcDbSpline
70
4
71
3
72
8
73
4
74
0
42
0.000000001
43
0.0000000001
44
0.0000000001
40
0
40
0
40
0
40
0
40
1
40
1
40
1
40
1
41
1
41
1
41
1
41
1
10
306.73603331785046
20
58.09166507127108
30
0
10
306.07638365964732
20
58.602234278144664
30
0
10
305.24632450640837
20
58.845647230567749
30
0
10
304.4223567126258
20
58.979527140083135
30
0
0
SPLINE
5
192
100
AcDbEntity
8
0
100
AcDbSpline
70
4
71
3
72
8
73
4
74
0
42
0.000000001
43
0.0000000001
44
0.0000000001
40
0
40
0
40
0
40
0
40
1
40
1
40
1
40
1
41
1
41
1
41
1
41
1
10
304.4223567126258
20
58.979527140083135
30
0
10
302.75436420977758
20
59.25093620342237
30
0
10
301.96508745094775
20
58.712380171241577
30
0
10
301.66200517555717
20
57.749053958676484
30
0
0
SPLINE
5
193
100
AcDbEntity
8
0
100
AcDbSpline
70
4
71
3
72
8
73
4
74
0
42
0.000000001
43
0.0000000001
44
0.0000000001
40
0
40
0
40
0
40
0
40
1
40
1
40
1
40
1
41
1
41
1
41
1
41
1
10
301.66200517555717
20
57.749053958676484
30
0
10
300.74068705777961
20
54.814671539090298
30
0
10
304.59518046598276
20
48.978146334113895
30
0
10
301.26465539833544
20
46.950485055071326
30
0
0
SPLINE
5
194
100
AcDbEntity
8
0
100
AcDbSpline
70
4
71
3
72
8
73
4
74
0
42
0.000000001
43
0.0000000001
44
0.0000000001
40
0
40
0
40
0
40
0
40
1
40
1
40
1
40
1
41
1
41
1
41
1
41
1
10
301.26465539833544
20
46.950485055071326
30
0
10
300.67617064695196
20
46.592664115053637
30
0
10
299.98610133390264
20
46.436879454078493
30
0
10
299.3860652850135
20
46.098530435981573
30
0
0
SPLINE
5
195
100
AcDbEntity
8
0
100
AcDbSpline
70
4
71
3
72
8
73
4
74
0
42
0.000000001
43
0.0000000001
44
0.0000000001
40
0
40
0
40
0
40
0
40
1
40
1
40
1
40
1
41
1
41
1
41
1
41
1
10
299.3860652850135
20
46.098530435981573
30
0
10
298.72277566811084
20
45.724273968162365
30
0
10
298.17629901151497
20
45.102955303611566
30
0
10
298.00470095853649
20
44.360533727429527
30
0
0
SPLINE
5
196
100
AcDbEntity
8
0
100
AcDbSpline
70
4
71
3
72
8
73
4
74
0
42
0.000000001
43
0.0000000001
44
0.0000000001
40
0
40
0
40
0
40
0
40
1
40
1
40
1
40
1
41
1
41
1
41
1
41
1
10
298.00470095853649
20
44.360533727429527
30
0
10
297.83187720517952
20
43.618715715827761
30
0
10
298.08381434659799
20
42.765544681968507
30
0
10
298.70327588936328
20
42.320699015083143
30
0
0
SPLINE
5
197
100
AcDbEntity
8
0
100
AcDbSpline
70
4
71
3
72
8
73
4
74
0
42
0.000000001
43
0.0000000001
44
0.0000000001
40
0
40
0
40
0
40
0
40
1
40
1
40
1
40
1
41
1
41
1
41
1
41
1
10
298.70327588936328
20
42.320699015083143
30
0
10
299.18100189746065
20
41.977484337908244
30
0
10
299.79745490293345
20
41.906282288652875
30
0
10
300.38530823290984
20
41.872204103889281
30
0
0
SPLINE
5
198
100
AcDbEntity
8
0
100
AcDbSpline
70
4
71
3
72
8
73
4
74
0
42
0.000000001
43
0.0000000001
44
0.0000000001
40
0
40
0
40
0
40
0
40
1
40
1
40
1
40
1
41
1
41
1
41
1
41
1
10
300.38530823290984
20
41.872204103889281
30
0
10
304.97856468737757
20
41.602011455319555
30
0
10
308.10952344795703
20
42.279925906282884
30
0
10
308.86228919248424
20
47.406287740491052
30
0
0
SPLINE
5
199
100
AcDbEntity
8
0
100
AcDbSpline
70
4
71
3
72
8
73
4
74
0
42
0.000000001
43
0.0000000001
44
0.0000000001
40
0
40
0
40
0
40
0
40
1
40
1
40
1
40
1
41
1
41
1
41
1
41
1
10
308.86228919248424
20
47.406287740491052
30
0
10
309.31928972145556
20
50.514106763623374
30
0
10
309.46291952034471
20
53.864131610018227
30
0
10
307.93669969460012
20
56.609867598635176
30
0
0
SPLINE
5
200
100
AcDbEntity
8
0
100
AcDbSpline
70
4
71
3
72
8
73
4
74
0
42
0.000000001
43
0.0000000001
44
0.0000000001
40
0
40
0
40
0
40
0
40
1
40
1
40
1
40
1
41
1
41
1
41
1
41
1
10
307.93669969460012
20
56.609867598635176
30
0
10
307.62574322283905
20
57.169121253115165
30
0
10
307.24295328041558
20
57.700378796678997
30
0
10
306.73603331785046
20
58.09166507127108
30
0
0
LINE
5
201
100
AcDbEntity
8
0
100
AcDbLine
10
335.96612737556933
20
57.699765946489791
30
0
11
335.35758570890266
21
58.308307613156458
31
0
0
SPLINE
5
202
100
AcDbEntity
8
0
100
AcDbSpline
70
0
71
2
72
6
73
3
74
0
42
0.000000001
43
0.0000000001
44
0.0000000001
40
0
40
0
40
0
40
1
40
1
40
1
10
335.35758570890266
20
58.308307613156458
30
0
10
334.17396771014376
20
58.433059769096189
30
0
10
333.53623208900927
20
58.860253493410575
30
0
0
SPLINE
5
203
100
AcDbEntity
8
0
100
AcDbSpline
70
4
71
3
72
8
73
4
74
0
42
0.000000001
43
0.0000000001
44
0.0000000001
40
0
40
0
40
0
40
0
40
1
40
1
40
1
40
1
41
1
41
1
41
1
41
1
10
333.53623208900927
20
58.860253493410575
30
0
10
332.89723362506072
20
59.286843653144658
30
0
10
332.27104930143196
20
59.790105085792362
30
0
10
331.51523787717656
20
59.925201410077236
30
0
0
SPLINE
5
204
100
AcDbEntity
8
0
100
AcDbSpline
70
4
71
3
72
8
73
4
74
0
42
0.000000001
43
0.0000000001
44
0.0000000001
40
0
40
0
40
0
40
0
40
1
40
1
40
1
40
1
41
1
41
1
41
1
41
1
10
331.51523787717656
20
59.925201410077236
30
0
10
331.62113096138478
20
58.767759542884654
30
0
10
331.84933408638477
20
57.621265408617489
30
0
10
332.19561301450568
20
56.510065873883391
30
0
0
SPLINE
5
205
100
AcDbEntity
8
0
100
AcDbSpline
70
4
71
3
72
8
73
4
74
0
42
0.000000001
43
0.0000000001
44
0.0000000001
40
0
40
0
40
0
40
0
40
1
40
1
40
1
40
1
41
1
41
1
41
1
41
1
10
332.19561301450568
20
56.510065873883391
30
0
10
329.93913576027398
20
56.693846645774656
30
0
10
328.14939035316945
20
58.430626939557214
30
0
10
326.67245853961151
20
60.146709611040578
30
0
0
SPLINE
5
206
100
AcDbEntity
8
0
100
AcDbSpline
70
4
71
3
72
8
73
4
74
0
42
0.000000001
43
0.0000000001
44
0.0000000001
40
0
40
0
40
0
40
0
40
1
40
1
40
1
40
1
41
1
41
1
41
1
41
1
10
326.67245853961151
20
60.146709611040578
30
0
10
326.17894699633757
20
60.720569528363356
30
0
10
325.59659074684618
20
61.444122747204929
30
0
10
324.84928494036836
20
61.453863350969783
30
0
0
SPLINE
5
207
100
AcDbEntity
8
0
100
AcDbSpline
70
4
71
3
72
8
73
4
74
0
42
0.000000001
43
0.0000000001
44
0.0000000001
40
0
40
0
40
0
40
0
40
1
40
1
40
1
40
1
41
1
41
1
41
1
41
1
10
324.84928494036836
20
61.453863350969783
30
0
10
324.78781420926884
20
60.953638312441342
30
0
10
327.61509641548633
20
55.415905431531094
30
0
10
326.45521243314585
20
55.675150347175432
30
0
0
SPLINE
5
208
100
AcDbEntity
8
0
100
AcDbSpline
70
0
71
2
72
6
73
3
74
0
42
0.000000001
43
0.0000000001
44
0.0000000001
40
0
40
0
40
0
40
1
40
1
40
1
10
326.45521243314585
20
55.675150347175432
30
0
10
324.78658850889047
20
56.048793964805427
30
0
10
313.02714479347708
20
62.185327908617474
30
0
0
SPLINE
5
209
100
AcDbEntity
8
0
100
AcDbSpline
70
0
71
2
72
6
73
3
74
0
42
0.000000001
43
0.0000000001
44
0.0000000001
40
0
40
0
40
0
40
1
40
1
40
1
10
313.02714479347708
20
62.185327908617474
30
0
10
315.75707667569958
20
54.043650287411822
30
0
10
313.49692232033254
20
54.899867000999265
30
0
0
SPLINE
5
210
100
AcDbEntity
8
0
100
AcDbSpline
70
0
71
2
72
6
73
3
74
0
42
0.000000001
43
0.0000000001
44
0.0000000001
40
0
40
0
40
0
40
1
40
1
40
1
10
313.49692232033254
20
54.899867000999265
30
0
10
311.23680510740121
20
55.756696564775922
30
0
10
302.26995256325245
20
63.807087364616208
30
0
0
SPLINE
5
211
100
AcDbEntity
8
0
100
AcDbSpline
70
0
71
2
72
6
73
3
74
0
42
0.000000001
43
0.0000000001
44
0.0000000001
40
0
40
0
40
0
40
1
40
1
40
1
10
302.26995256325245
20
63.807087364616208
30
0
10
301.96081607084119
20
56.171113291206183
30
0
10
300.23803847532116
20
57.081483676058284
30
0
0
SPLINE
5
212
100
AcDbEntity
8
0
100
AcDbSpline
70
0
71
2
72
6
73
3
74
0
42
0.000000001
43
0.0000000001
44
0.0000000001
40
0
40
0
40
0
40
1
40
1
40
1
10
300.23803847532116
20
57.081483676058284
30
0
10
298.51585515877247
20
57.992476196708509
30
0
10
289.9500294929806
20
67.441911122423633
30
0
0
SPLINE
5
213
100
AcDbEntity
8
0
100
AcDbSpline
70
0
71
2
72
6
73
3
74
0
42
0.000000001
43
0.0000000001
44
0.0000000001
40
0
40
0
40
0
40
1
40
1
40
1
10
289.9500294929806
20
67.441911122423633
30
0
10
289.23923470080535
20
58.407496487719044
30
0
10
286.36025022408006
20
60.015262531064181
30
0
0
SPLINE
5
214
100
AcDbEntity
8
0
100
AcDbSpline
70
0
71
2
72
6
73
3
74
0
42
0.000000001
43
0.0000000001
44
0.0000000001
40
0
40
0
40
0
40
1
40
1
40
1
10
286.36025022408006
20
60.015262531064181
30
0
10
283.48063432594779
20
61.623641424598517
30
0
10
276.90044327319305
20
72.904179859580807
30
0
0
SPLINE
5
215
100
AcDbEntity
8
0
100
AcDbSpline
70
0
71
2
72
6
73
3
74
0
42
0.000000001
43
0.0000000001
44
0.0000000001
40
0
40
0
40
0
40
1
40
1
40
1
10
276.90044327319305
20
72.904179859580807
30
0
10
282.74123985827606
20
84.905838683865682
30
0
10
273.86991765877247
20
84.003370352210823
30
0
0
SPLINE
5
216
100
AcDbEntity
8
0
100
AcDbSpline
70
4
71
3
72
8
73
4
74
0
42
0.000000001
43
0.0000000001
44
0.0000000001
40
0
40
0
40
0
40
0
40
1
40
1
40
1
40
1
41
1
41
1
41
1
41
1
10
273.86991765877247
20
84.003370352210823
30
0
10
269.75921572904429
20
83.584691531282886
30
0
10
266.32766323626674
20
82.036566954078495
30
0
10
264.42110486885548
20
78.161366637967248
30
0
0
SPLINE
5
217
100
AcDbEntity
8
0
100
AcDbSpline
70
4
71
3
72
8
73
4
74
0
42
0.000000001
43
0.0000000001
44
0.0000000001
40
0
40
0
40
0
40
0
40
1
40
1
40
1
40
1
41
1
41
1
41
1
41
1
10
264.42110486885548
20
78.161366637967248
30
0
10
262.93382888695243
20
79.755752118847994
30
0
10
260.64266059776787
20
80.446443567695439
30
0
10
258.46711671094732
20
80.308301563682377
30
0
0
SPLINE
5
218
100
AcDbEntity
8
0
100
AcDbSpline
70
4
71
3
72
8
73
4
74
0
42
0.000000001
43
0.0000000001
44
0.0000000001
40
0
40
0
40
0
40
0
40
1
40
1
40
1
40
1
41
1
41
1
41
1
41
1
10
258.46711671094732
20
80.308301563682377
30
0
10
256.41512713651497
20
80.098966796022864
30
0
10
255.02826572955288
20
79.547020915768769
30
0
10
253.16308403552213
20
78.639074074846732
30
0
0
SPLINE
5
219
100
AcDbEntity
8
0
100
AcDbSpline
70
4
71
3
72
8
73
4
74
0
42
0.000000001
43
0.0000000001
44
0.0000000001
40
0
40
0
40
0
40
0
40
1
40
1
40
1
40
1
41
1
41
1
41
1
41
1
10
253.16308403552213
20
78.639074074846732
30
0
10
252.7273661222124
20
78.427306477648244
30
0
10
252.22044615964731
20
78.212483915112628
30
0
10
251.77742975772063
20
78.407834555727462
30
0
0
SPLINE
5
220
100
AcDbEntity
8
0
100
AcDbSpline
70
4
71
3
72
8
73
4
74
0
42
0.000000001
43
0.0000000001
44
0.0000000001
40
0
40
0
40
0
40
0
40
1
40
1
40
1
40
1
41
1
41
1
41
1
41
1
10
251.77742975772063
20
78.407834555727462
30
0
10
251.48654877246062
20
78.535623105786456
30
0
10
251.29606379092377
20
78.811897828203655
30
0
10
251.09586606244881
20
79.057752895774655
30
0
0
SPLINE
5
221
100
AcDbEntity
8
0
100
AcDbSpline
70
4
71
3
72
8
73
4
74
0
42
0.000000001
43
0.0000000001
44
0.0000000001
40
0
40
0
40
0
40
0
40
1
40
1
40
1
40
1
41
1
41
1
41
1
41
1
10
251.09586606244881
20
79.057752895774655
30
0
10
250.34126176735401
20
79.986991637967265
30
0
10
249.2343243271176
20
80.639964943351572
30
0
10
248.04584066928069
20
80.778097661755695
30
0
0
SPLINE
5
222
100
AcDbEntity
8
0
100
AcDbSpline
70
4
71
3
72
8
73
4
74
0
42
0.000000001
43
0.0000000001
44
0.0000000001
40
0
40
0
40
0
40
0
40
1
40
1
40
1
40
1
41
1
41
1
41
1
41
1
10
248.04584066928069
20
80.778097661755695
30
0
10
246.84458001355966
20
80.917456080538258
30
0
10
244.58384995043915
20
80.325340656064185
30
0
10
244.21082846860727
20
78.937866398912888
30
0
0
SPLINE
5
223
100
AcDbEntity
8
0
100
AcDbSpline
70
4
71
3
72
8
73
4
74
0
42
0.000000001
43
0.0000000001
44
0.0000000001
40
0
40
0
40
0
40
0
40
1
40
1
40
1
40
1
41
1
41
1
41
1
41
1
10
244.21082846860727
20
78.937866398912888
30
0
10
244.65748482923348
20
80.599795399131594
30
0
10
245.30253751020271
20
82.96580569627109
30
0
10
244.59662694832326
20
84.655117957216731
30
0
0
SPLINE
5
224
100
AcDbEntity
8
0
100
AcDbSpline
70
4
71
3
72
8
73
4
74
0
42
0.000000001
43
0.0000000001
44
0.0000000001
40
0
40
0
40
0
40
0
40
1
40
1
40
1
40
1
41
1
41
1
41
1
41
1
10
244.59662694832326
20
84.655117957216731
30
0
10
244.46763126910369
20
84.964254449628015
30
0
10
244.24977231244881
20
85.237492777925951
30
0
10
243.97896681368988
20
85.459000978889293
30
0
0
SPLINE
5
225
100
AcDbEntity
8
0
100
AcDbSpline
70
4
71
3
72
8
73
4
74
0
42
0.000000001
43
0.0000000001
44
0.0000000001
40
0
40
0
40
0
40
0
40
1
40
1
40
1
40
1
41
1
41
1
41
1
41
1
10
243.97896681368988
20
85.459000978889293
30
0
10
243.12457936506115
20
86.160045881690792
30
0
10
241.74074506660941
20
86.35051229200981
30
0
10
240.94416981916268
20
85.547242120526462
30
0
0
SPLINE
5
226
100
AcDbEntity
8
0
100
AcDbSpline
70
4
71
3
72
8
73
4
74
0
42
0.000000001
43
0.0000000001
44
0.0000000001
40
0
40
0
40
0
40
0
40
1
40
1
40
1
40
1
41
1
41
1
41
1
41
1
10
240.94416981916268
20
85.547242120526462
30
0
10
240.31614694496631
20
84.913750022671834
30
0
10
240.28754726946988
20
83.876798216921316
30
0
10
240.58390676399708
20
83.035178480567765
30
0
0
SPLINE
5
227
100
AcDbEntity
8
0
100
AcDbSpline
70
4
71
3
72
8
73
4
74
0
42
0.000000001
43
0.0000000001
44
0.0000000001
40
0
40
0
40
0
40
0
40
1
40
1
40
1
40
1
41
1
41
1
41
1
41
1
10
240.58390676399708
20
83.035178480567765
30
0
10
240.88026625852424
20
82.19418088001234
30
0
10
241.44195274254321
20
81.477313299598521
30
0
10
241.89715186338265
20
80.709941292228521
30
0
0
SPLINE
5
228
100
AcDbEntity
8
0
100
AcDbSpline
70
4
71
3
72
8
73
4
74
0
42
0.000000001
43
0.0000000001
44
0.0000000001
40
0
40
0
40
0
40
0
40
1
40
1
40
1
40
1
41
1
41
1
41
1
41
1
10
241.89715186338265
20
80.709941292228521
30
0
10
242.87812073290982
20
79.052887236696705
30
0
10
243.75806217730681
20
76.467801568132856
30
0
10
243.17143454770883
20
74.556981106223873
30
0
0
SPLINE
5
229
100
AcDbEntity
8
0
100
AcDbSpline
70
4
71
3
72
8
73
4
74
0
42
0.000000001
43
0.0000000001
44
0.0000000001
40
0
40
0
40
0
40
0
40
1
40
1
40
1
40
1
41
1
41
1
41
1
41
1
10
243.17143454770883
20
74.556981106223873
30
0
10
242.62800357084117
20
72.788555457216717
30
0
10
241.01414616803964
20
71.239205179633913
30
0
10
239.39846878588835
20
70.446892026684907
30
0
0
SPLINE
5
230
100
AcDbEntity
8
0
100
AcDbSpline
70
4
71
3
72
8
73
4
74
0
42
0.000000001
43
0.0000000001
44
0.0000000001
40
0
40
0
40
0
40
0
40
1
40
1
40
1
40
1
41
1
41
1
41
1
41
1
10
239.39846878588835
20
70.446892026684907
30
0
10
232.41424231748422
20
67.020186621767493
30
0
10
226.74628805697603
20
63.999392325502846
30
0
10
229.70806302289805
20
61.584697580756966
30
0
0
SPLINE
5
231
100
AcDbEntity
8
0
100
AcDbSpline
70
4
71
3
72
8
73
4
74
0
42
0.000000001
43
0.0000000001
44
0.0000000001
40
0
40
0
40
0
40
0
40
1
40
1
40
1
40
1
41
1
41
1
41
1
41
1
10
229.70806302289805
20
61.584697580756966
30
0
10
232.66981941760221
20
59.170002836011065
30
0
10
247.51397956113658
20
57.421661959113891
30
0
10
253.35050476611298
20
56.11330109002413
30
0
0
SPLINE
5
232
100
AcDbEntity
8
0
100
AcDbSpline
70
4
71
3
72
8
73
4
74
0
42
0.000000001
43
0.0000000001
44
0.0000000001
40
0
40
0
40
0
40
0
40
1
40
1
40
1
40
1
41
1
41
1
41
1
41
1
10
253.35050476611298
20
56.11330109002413
30
0
10
259.18702997108937
20
54.806147350094946
30
0
10
264.91827494204682
20
51.85837508243543
30
0
10
276.32356553296881
20
49.216693627459023
30
0
0
SPLINE
5
233
100
AcDbEntity
8
0
100
AcDbSpline
70
4
71
3
72
8
73
4
74
0
42
0.000000001
43
0.0000000001
44
0.0000000001
40
0
40
0
40
0
40
0
40
1
40
1
40
1
40
1
41
1
41
1
41
1
41
1
10
276.32356553296881
20
49.216693627459023
30
0
10
287.72764899473032
20
46.575012172482637
30
0
10
322.38165293912732
20
47.656395616950817
30
0
10
331.32477146685756
20
53.183775043906977
30
0
0
SPLINE
5
234
100
AcDbEntity
8
0
100
AcDbSpline
70
4
71
3
72
8
73
4
74
0
42
0.000000001
43
0.0000000001
44
0.0000000001
40
0
40
0
40
0
40
0
40
1
40
1
40
1
40
1
41
1
41
1
41
1
41
1
10
331.32477146685756
20
53.183775043906977
30
0
10
333.36582259397346
20
54.443460750999279
30
0
10
337.32684050779187
20
53.95175990146619
30
0
10
336.27039820890269
20
56.78695344648979
30
0
0
LINE
5
235
100
AcDbEntity
8
0
100
AcDbLine
10
336.27039820890275
20
56.78695344648979
30
0
11
335.96612737556933
21
57.699765946489791
31
0
0
SPLINE
5
236
100
AcDbEntity
8
0
100
AcDbSpline
70
4
71
3
72
8
73
4
74
0
42
0.000000001
43
0.0000000001
44
0.0000000001
40
0
40
0
40
0
40
0
40
1
40
1
40
1
40
1
41
1
41
1
41
1
41
1
10
272.92911833346528
20
57.327951593818497
30
0
10
272.28163282295702
20
57.85494704288466
30
0
10
271.45889072955293
20
58.118444767417742
30
0
10
270.63856289446989
20
58.273616578203651
30
0
0
SPLINE
5
237
100
AcDbEntity
8
0
100
AcDbSpline
70
4
71
3
72
8
73
4
74
0
42
0.000000001
43
0.0000000001
44
0.0000000001
40
0
40
0
40
0
40
0
40
1
40
1
40
1
40
1
41
1
41
1
41
1
41
1
10
270.63856289446989
20
58.273616578203651
30
0
10
268.97785030902065
20
58.587628015301846
30
0
10
268.17518370211764
20
58.069147469622123
30
0
10
267.84840455274423
20
57.113741881472095
30
0
0
SPLINE
5
238
100
AcDbEntity
8
0
100
AcDbSpline
70
4
71
3
72
8
73
4
74
0
42
0.000000001
43
0.0000000001
44
0.0000000001
40
0
40
0
40
0
40
0
40
1
40
1
40
1
40
1
41
1
41
1
41
1
41
1
10
267.84840455274423
20
57.113741881472095
30
0
10
266.85222585579396
20
54.203697042884649
30
0
10
270.55762952705862
20
48.271632207654136
30
0
10
267.17718502581755
20
46.327949975751054
30
0
0
SPLINE
5
239
100
AcDbEntity
8
0
100
AcDbSpline
70
4
71
3
72
8
73
4
74
0
42
0.000000001
43
0.0000000001
44
0.0000000001
40
0
40
0
40
0
40
0
40
1
40
1
40
1
40
1
41
1
41
1
41
1
41
1
10
267.17718502581755
20
46.327949975751054
30
0
10
266.5801946566566
20
45.985951713345671
30
0
10
265.88646681368988
20
45.847196859143402
30
0
10
265.27792514702321
20
45.524066954078499
30
0
0
SPLINE
5
240
100
AcDbEntity
8
0
100
AcDbSpline
70
4
71
3
72
8
73
4
74
0
42
0.000000001
43
0.0000000001
44
0.0000000001
40
0
40
0
40
0
40
0
40
1
40
1
40
1
40
1
41
1
41
1
41
1
41
1
10
265.27792514702321
20
45.524066954078499
30
0
10
264.60547991971811
20
45.166849578641077
30
0
10
264.04379343569917
20
44.559524326743905
30
0
10
263.85211989621956
20
43.821977695248734
30
0
0
SPLINE
5
241
100
AcDbEntity
8
0
100
AcDbSpline
70
4
71
3
72
8
73
4
74
0
42
0.000000001
43
0.0000000001
44
0.0000000001
40
0
40
0
40
0
40
0
40
1
40
1
40
1
40
1
41
1
41
1
41
1
41
1
10
263.85211989621956
20
43.821977695248734
30
0
10
263.66102206449352
20
43.084421778144666
30
0
10
263.89165801903249
20
42.225772235018226
30
0
10
264.49899255653855
20
41.765707455100838
30
0
0
SPLINE
5
242
100
AcDbEntity
8
0
100
AcDbSpline
70
4
71
3
72
8
73
4
74
0
42
0.000000001
43
0.0000000001
44
0.0000000001
40
0
40
0
40
0
40
0
40
1
40
1
40
1
40
1
41
1
41
1
41
1
41
1
10
264.49899255653855
20
41.765707455100838
30
0
10
264.96756295423347
20
41.409715780041836
30
0
10
265.58280883054573
20
41.322691053174161
30
0
10
266.16943646014374
20
41.273403040987461
30
0
0
SPLINE
5
243
100
AcDbEntity
8
0
100
AcDbSpline
70
4
71
3
72
8
73
4
74
0
42
0.000000001
43
0.0000000001
44
0.0000000001
40
0
40
0
40
0
40
0
40
1
40
1
40
1
40
1
41
1
41
1
41
1
41
1
10
266.16943646014374
20
41.273403040987461
30
0
10
270.754187296834
20
40.88758599005363
30
0
10
273.90217586418629
20
41.48638705295545
30
0
10
274.78456870934008
20
46.592051264864423
30
0
0
SPLINE
5
244
100
AcDbEntity
8
0
100
AcDbSpline
70
4
71
3
72
8
73
4
74
0
42
0.000000001
43
0.0000000001
44
0.0000000001
40
0
40
0
40
0
40
0
40
1
40
1
40
1
40
1
41
1
41
1
41
1
41
1
10
274.78456870934008
20
46.592051264864423
30
0
10
275.31947549721241
20
49.687093290112628
30
0
10
275.54827290118379
20
53.032856042009811
30
0
10
274.0920479955339
20
55.815725180727469
30
0
0
SPLINE
5
245
100
AcDbEntity
8
0
100
AcDbSpline
70
4
71
3
72
8
73
4
74
0
42
0.000000001
43
0.0000000001
44
0.0000000001
40
0
40
0
40
0
40
0
40
1
40
1
40
1
40
1
41
1
41
1
41
1
41
1
10
274.0920479955339
20
55.815725180727469
30
0
10
273.79507565081758
20
56.382880888404671
30
0
10
273.42569412768523
20
56.923879035733371
30
0
10
272.92911833346528
20
57.327951593818497
30
0
0
SPLINE
5
246
100
AcDbEntity
8
0
100
AcDbSpline
70
4
71
3
72
8
73
4
74
0
42
0.000000001
43
0.0000000001
44
0.0000000001
40
0
40
0
40
0
40
0
40
1
40
1
40
1
40
1
41
1
41
1
41
1
41
1
10
321.19376356026174
20
57.435051807187222
30
0
10
320.53351962308727
20
57.945621014060791
30
0
10
319.70405474881966
20
58.188421116294684
30
0
10
318.88071837644418
20
58.322913875999269
30
0
0
SPLINE
5
247
100
AcDbEntity
8
0
100
AcDbSpline
70
4
71
3
72
8
73
4
74
0
42
0.000000001
43
0.0000000001
44
0.0000000001
40
0
40
0
40
0
40
0
40
1
40
1
40
1
40
1
41
1
41
1
41
1
41
1
10
318.88071837644418
20
58.322913875999269
30
0
10
317.21146303078177
20
58.594926503918785
30
0
10
316.422186271952
20
58.055766907157732
30
0
10
316.12036683937555
20
57.093053544781824
30
0
0
SPLINE
5
248
100
AcDbEntity
8
0
100
AcDbSpline
70
4
71
3
72
8
73
4
74
0
42
0.000000001
43
0.0000000001
44
0.0000000001
40
0
40
0
40
0
40
0
40
1
40
1
40
1
40
1
41
1
41
1
41
1
41
1
10
316.12036683937555
20
57.093053544781824
30
0
10
315.19782302121962
20
54.158048989397507
30
0
10
319.05231642942272
20
48.321533070030043
30
0
10
315.72175421933969
20
46.293871790987481
30
0
0
SPLINE
5
249
100
AcDbEntity
8
0
100
AcDbSpline
70
4
71
3
72
8
73
4
74
0
42
0.000000001
43
0.0000000001
44
0.0000000001
40
0
40
0
40
0
40
0
40
1
40
1
40
1
40
1
41
1
41
1
41
1
41
1
10
315.72175421933969
20
46.293871790987481
30
0
10
315.1345323107704
20
45.936050850969764
30
0
10
314.44323729734265
20
45.779653339805421
30
0
10
313.84442694883194
20
45.441907886288782
30
0
0
SPLINE
5
250
100
AcDbEntity
8
0
100
AcDbSpline
70
4
71
3
72
8
73
4
74
0
42
0.000000001
43
0.0000000001
44
0.0000000001
40
0
40
0
40
0
40
0
40
1
40
1
40
1
40
1
41
1
41
1
41
1
41
1
10
313.84442694883194
20
45.441907886288782
30
0
10
313.18050591052213
20
45.067047853889278
30
0
10
312.63343497495492
20
44.446332753918796
30
0
10
312.46179977954068
20
43.703920463345668
30
0
0
SPLINE
5
251
100
AcDbEntity
8
0
100
AcDbSpline
70
4
71
3
72
8
73
4
74
0
42
0.000000001
43
0.0000000001
44
0.0000000001
40
0
40
0
40
0
40
0
40
1
40
1
40
1
40
1
41
1
41
1
41
1
41
1
10
312.46179977954068
20
43.703920463345668
30
0
10
312.28897602618372
20
42.961498887163629
30
0
10
312.54154458900928
20
42.108931417884641
30
0
10
313.16041185280324
20
41.664085750999277
30
0
0
SPLINE
5
252
100
AcDbEntity
8
0
100
AcDbSpline
70
4
71
3
72
8
73
4
74
0
42
0.000000001
43
0.0000000001
44
0.0000000001
40
0
40
0
40
0
40
0
40
1
40
1
40
1
40
1
41
1
41
1
41
1
41
1
10
313.16041185280324
20
41.664085750999277
30
0
10
313.63813786090054
20
41.320871073824392
30
0
10
314.25459086637341
20
41.249669024569009
30
0
10
314.84240705391409
20
41.214977989616216
30
0
0
SPLINE
5
253
100
AcDbEntity
8
0
100
AcDbSpline
70
4
71
3
72
8
73
4
74
0
42
0.000000001
43
0.0000000001
44
0.0000000001
40
0
40
0
40
0
40
0
40
1
40
1
40
1
40
1
41
1
41
1
41
1
41
1
10
314.84240705391409
20
41.214977989616216
30
0
10
319.43570065081758
20
40.945398191235682
30
0
10
322.56784796933971
20
41.623916206779299
30
0
10
323.32061371386686
20
46.750278040987467
30
0
0
SPLINE
5
254
100
AcDbEntity
8
0
100
AcDbSpline
70
4
71
3
72
8
73
4
74
0
42
0.000000001
43
0.0000000001
44
0.0000000001
40
0
40
0
40
0
40
0
40
1
40
1
40
1
40
1
41
1
41
1
41
1
41
1
10
323.32061371386686
20
46.750278040987467
30
0
10
323.77642568489546
20
49.857493499539522
30
0
10
323.92005548378472
20
53.208121910514649
30
0
10
322.39442993701141
20
55.952641484362111
30
0
0
SPLINE
5
255
100
AcDbEntity
8
0
100
AcDbSpline
70
4
71
3
72
8
73
4
74
0
42
0.000000001
43
0.0000000001
44
0.0000000001
40
0
40
0
40
0
40
0
40
1
40
1
40
1
40
1
41
1
41
1
41
1
41
1
10
322.39442993701141
20
55.952641484362111
30
0
10
322.08284204384324
20
56.512498703422374
30
0
10
321.70008924385547
20
57.044369097175419
30
0
10
321.19376356026174
20
57.435051807187222
30
0
0
LWPOLYLINE
5
256
100
AcDbEntity
8
0
100
AcDbPolyline
90
4
70
1
43
0.0
10
400.98514964322885
20
161.15184927982313
10
578.67931630989563
20
161.15184927982313
10
578.67931630989551
20
10.233515946489788
10
400.98514964322885
20
10.233515946489788
0
SPLINE
5
257
100
AcDbEntity
8
0
100
AcDbSpline
70
4
71
3
72
8
73
4
74
0
42
0.000000001
43
0.0000000001
44
0.0000000001
40
0
40
0
40
0
40
0
40
1
40
1
40
1
40
1
41
1
41
1
41
1
41
1
10
454.14188079099495
20
80.677692372423621
30
0
10
454.65853207171597
20
80.790883945248737
30
0
10
455.16545203428109
20
80.823736429633911
30
0
10
455.55856757383191
20
80.778097661755695
30
0
0
SPLINE
5
258
100
AcDbEntity
8
0
100
AcDbSpline
70
4
71
3
72
8
73
4
74
0
42
0.000000001
43
0.0000000001
44
0.0000000001
40
0
40
0
40
0
40
0
40
1
40
1
40
1
40
1
41
1
41
1
41
1
41
1
10
455.55856757383191
20
80.778097661755695
30
0
10
456.74705123166882
20
80.639964943351572
30
0
10
457.85397010068732
20
79.986991637967265
30
0
10
458.60855582456429
20
79.057752895774655
30
0
0
SPLINE
5
259
100
AcDbEntity
8
0
100
AcDbSpline
70
4
71
3
72
8
73
4
74
0
42
0.000000001
43
0.0000000001
44
0.0000000001
40
0
40
0
40
0
40
0
40
1
40
1
40
1
40
1
41
1
41
1
41
1
41
1
10
458.60855582456429
20
79.057752895774655
30
0
10
458.63533552071095
20
79.024891125780556
30
0
10
458.66211521685761
20
78.990812941016969
30
0
10
458.68948919197555
20
78.956734756253383
30
0
0
SPLINE
5
260
100
AcDbEntity
8
0
100
AcDbSpline
70
4
71
3
72
8
73
4
74
0
42
0.000000001
43
0.0000000001
44
0.0000000001
40
0
40
0
40
0
40
0
40
1
40
1
40
1
40
1
41
1
41
1
41
1
41
1
10
458.68948919197555
20
78.956734756253383
30
0
10
458.86231294533252
20
78.740092214368005
30
0
10
459.03881379982471
20
78.517980448824403
30
0
10
459.29011951983614
20
78.407834555727462
30
0
0
SPLINE
5
261
100
AcDbEntity
8
0
100
AcDbSpline
70
4
71
3
72
8
73
4
74
0
42
0.000000001
43
0.0000000001
44
0.0000000001
40
0
40
0
40
0
40
0
40
1
40
1
40
1
40
1
41
1
41
1
41
1
41
1
10
459.29011951983614
20
78.407834555727462
30
0
10
459.73315449298065
20
78.212483915112628
30
0
10
460.24007445554571
20
78.427306477648244
30
0
10
460.67579236885547
20
78.639074074846732
30
0
0
SPLINE
5
262
100
AcDbEntity
8
0
100
AcDbSpline
70
4
71
3
72
8
73
4
74
0
42
0.000000001
43
0.0000000001
44
0.0000000001
40
0
40
0
40
0
40
0
40
1
40
1
40
1
40
1
41
1
41
1
41
1
41
1
10
460.67579236885547
20
78.639074074846732
30
0
10
462.54097406288622
20
79.547020915768769
30
0
10
463.92783546984833
20
80.098966796022864
30
0
10
465.97984361549857
20
80.308301563682377
30
0
0
SPLINE
5
263
100
AcDbEntity
8
0
100
AcDbSpline
70
4
71
3
72
8
73
4
74
0
42
0.000000001
43
0.0000000001
44
0.0000000001
40
0
40
0
40
0
40
0
40
1
40
1
40
1
40
1
41
1
41
1
41
1
41
1
10
465.97984361549857
20
80.308301563682377
30
0
10
468.155387502319
20
80.446443567695439
30
0
10
470.44651864906791
20
79.755752118847994
30
0
10
471.93381320218884
20
78.161366637967248
30
0
0
SPLINE
5
264
100
AcDbEntity
8
0
100
AcDbSpline
70
4
71
3
72
8
73
4
74
0
42
0.000000001
43
0.0000000001
44
0.0000000001
40
0
40
0
40
0
40
0
40
1
40
1
40
1
40
1
41
1
41
1
41
1
41
1
10
471.93381320218884
20
78.161366637967248
30
0
10
473.84037156960011
20
82.036566954078495
30
0
10
477.27192406237759
20
83.584691531282886
30
0
10
481.38262599210583
20
84.003370352210823
30
0
0
SPLINE
5
265
100
AcDbEntity
8
0
100
AcDbSpline
70
4
71
3
72
8
73
4
74
0
42
0.000000001
43
0.0000000001
44
0.0000000001
40
0
40
0
40
0
40
0
40
1
40
1
40
1
40
1
41
1
41
1
41
1
41
1
10
481.38262599210583
20
84.003370352210823
30
0
10
488.97115988950577
20
84.775004454078498
30
0
10
485.79455307543918
20
76.106322098197765
30
0
10
484.71742243985972
20
73.582094310544164
30
0
0
SPLINE
5
266
100
AcDbEntity
8
0
100
AcDbSpline
70
4
71
3
72
8
73
4
74
0
42
0.000000001
43
0.0000000001
44
0.0000000001
40
0
40
0
40
0
40
0
40
1
40
1
40
1
40
1
41
1
41
1
41
1
41
1
10
484.71742243985972
20
73.582094310544164
30
0
10
485.58094692767304
20
73.300944643440076
30
0
10
486.40978038053356
20
72.887140767199014
30
0
10
487.18873154223604
20
72.417344669125697
30
0
0
SPLINE
5
267
100
AcDbEntity
8
0
100
AcDbSpline
70
4
71
3
72
8
73
4
74
0
42
0.000000001
43
0.0000000001
44
0.0000000001
40
0
40
0
40
0
40
0
40
1
40
1
40
1
40
1
41
1
41
1
41
1
41
1
10
487.18873154223604
20
72.417344669125697
30
0
10
486.83212701698778
20
73.387365805727455
30
0
10
486.66539462308725
20
74.426750441016978
30
0
10
486.70190563738981
20
75.459449437878746
30
0
0
SPLINE
5
268
100
AcDbEntity
8
0
100
AcDbSpline
70
4
71
3
72
8
73
4
74
0
42
0.000000001
43
0.0000000001
44
0.0000000001
40
0
40
0
40
0
40
0
40
1
40
1
40
1
40
1
41
1
41
1
41
1
41
1
10
486.70190563738981
20
75.459449437878746
30
0
10
486.96294267555714
20
75.348690694592619
30
0
10
487.22401685616023
20
75.237941236915418
30
0
10
487.48509103676321
20
75.127795343818491
30
0
0
SPLINE
5
269
100
AcDbEntity
8
0
100
AcDbSpline
70
4
71
3
72
8
73
4
74
0
42
0.000000001
43
0.0000000001
44
0.0000000001
40
0
40
0
40
0
40
0
40
1
40
1
40
1
40
1
41
1
41
1
41
1
41
1
10
487.48509103676321
20
75.127795343818491
30
0
10
487.85751823962369
20
74.970181417884646
30
0
10
488.22994544248422
20
74.812567491950816
30
0
10
488.60237264534476
20
74.654340715827772
30
0
0
SPLINE
5
270
100
AcDbEntity
8
0
100
AcDbSpline
70
4
71
3
72
8
73
4
74
0
42
0.000000001
43
0.0000000001
44
0.0000000001
40
0
40
0
40
0
40
0
40
1
40
1
40
1
40
1
41
1
41
1
41
1
41
1
10
488.60237264534476
20
74.654340715827772
30
0
10
488.60296692431609
20
76.330272414309007
30
0
10
488.60296692431609
20
78.00497841241183
30
0
10
488.60296692431609
20
79.680287975094927
30
0
0
SPLINE
5
271
100
AcDbEntity
8
0
100
AcDbSpline
70
4
71
3
72
8
73
4
74
0
42
0.000000001
43
0.0000000001
44
0.0000000001
40
0
40
0
40
0
40
0
40
1
40
1
40
1
40
1
41
1
41
1
41
1
41
1
10
488.60296692431609
20
79.680287975094927
30
0
10
489.36973536710582
20
79.100958834113897
30
0
10
490.29409916461145
20
78.731577310981578
30
0
10
491.24951403837042
20
78.623864247423626
30
0
0
SPLINE
5
272
100
AcDbEntity
8
0
100
AcDbSpline
70
4
71
3
72
8
73
4
74
0
42
0.000000001
43
0.0000000001
44
0.0000000001
40
0
40
0
40
0
40
0
40
1
40
1
40
1
40
1
41
1
41
1
41
1
41
1
10
491.24951403837042
20
78.623864247423626
30
0
10
490.35192993701139
20
80.304048754793627
30
0
10
489.80667898079395
20
82.172266842943657
30
0
10
489.66000350217661
20
84.07152672173801
30
0
0
SPLINE
5
273
100
AcDbEntity
8
0
100
AcDbSpline
70
4
71
3
72
8
73
4
74
0
42
0.000000001
43
0.0000000001
44
0.0000000001
40
0
40
0
40
0
40
0
40
1
40
1
40
1
40
1
41
1
41
1
41
1
41
1
10
489.66000350217661
20
84.07152672173801
30
0
10
492.53475374123099
20
82.672491881472098
30
0
10
495.53303972145557
20
81.528430576743901
30
0
10
498.60861911039194
20
80.658220450502853
30
0
0
SPLINE
5
274
100
AcDbEntity
8
0
100
AcDbSpline
70
4
71
3
72
8
73
4
74
0
42
0.000000001
43
0.0000000001
44
0.0000000001
40
0
40
0
40
0
40
0
40
1
40
1
40
1
40
1
41
1
41
1
41
1
41
1
10
498.60861911039194
20
80.658220450502853
30
0
10
495.85313323240121
20
84.708668063901086
30
0
10
492.65710092445852
20
88.459719788652876
30
0
10
489.09710988899712
20
91.824954462470828
30
0
0
SPLINE
5
275
100
AcDbEntity
8
0
100
AcDbSpline
70
4
71
3
72
8
73
4
74
0
42
0.000000001
43
0.0000000001
44
0.0000000001
40
0
40
0
40
0
40
0
40
1
40
1
40
1
40
1
41
1
41
1
41
1
41
1
10
489.09710988899712
20
91.824954462470828
30
0
10
493.60274733762583
20
91.798184051933106
30
0
10
498.10597052793349
20
91.398373588345677
30
0
10
502.54590300779182
20
90.632217995745179
30
0
0
SPLINE
5
276
100
AcDbEntity
8
0
100
AcDbSpline
70
4
71
3
72
8
73
4
74
0
42
0.000000001
43
0.0000000001
44
0.0000000001
40
0
40
0
40
0
40
0
40
1
40
1
40
1
40
1
41
1
41
1
41
1
41
1
10
502.54590300779182
20
90.632217995745179
30
0
10
496.8420134407346
20
95.145163218599777
30
0
10
489.35877834857143
20
97.345648250999261
30
0
10
482.11897478004937
20
96.637304859580823
30
0
0
SPLINE
5
277
100
AcDbEntity
8
0
100
AcDbSpline
70
4
71
3
72
8
73
4
74
0
42
0.000000001
43
0.0000000001
44
0.0000000001
40
0
40
0
40
0
40
0
40
1
40
1
40
1
40
1
41
1
41
1
41
1
41
1
10
482.11897478004937
20
96.637304859580823
30
0
10
484.21781953712946
20
97.489259478670576
30
0
10
486.29114744087695
20
98.406946923357467
30
0
10
488.33279284696425
20
99.389735772234417
30
0
0
SPLINE
5
278
100
AcDbEntity
8
0
100
AcDbSpline
70
4
71
3
72
8
73
4
74
0
42
0.000000001
43
0.0000000001
44
0.0000000001
40
0
40
0
40
0
40
0
40
1
40
1
40
1
40
1
41
1
41
1
41
1
41
1
10
488.33279284696425
20
99.389735772234417
30
0
10
480.97918485542777
20
101.40826929770134
30
0
10
472.62024255653853
20
99.210217094840814
30
0
10
467.21092964709442
20
93.836793063901084
30
0
0
SPLINE
5
279
100
AcDbEntity
8
0
100
AcDbSpline
70
4
71
3
72
8
73
4
74
0
42
0.000000001
43
0.0000000001
44
0.0000000001
40
0
40
0
40
0
40
0
40
1
40
1
40
1
40
1
41
1
41
1
41
1
41
1
10
467.21092964709442
20
93.836793063901084
30
0
10
467.57421981077039
20
96.324509837252123
30
0
10
468.48153523028537
20
98.730689678611583
30
0
10
469.84956542234266
20
100.84050073983492
30
0
0
SPLINE
5
280
100
AcDbEntity
8
0
100
AcDbSpline
70
4
71
3
72
8
73
4
74
0
42
0.000000001
43
0.0000000001
44
0.0000000001
40
0
40
0
40
0
40
0
40
1
40
1
40
1
40
1
41
1
41
1
41
1
41
1
10
469.84956542234266
20
100.84050073983492
30
0
10
464.24729755938694
20
98.562118734143397
30
0
10
459.61875579099501
20
93.988324915987477
30
0
10
457.27343383054574
20
88.413468170585446
30
0
0
LINE
5
281
100
AcDbEntity
8
0
100
AcDbLine
10
457.27343383054574
20
88.413468170585446
30
0
11
457.55579062681034
21
95.203578984362096
31
0
0
SPLINE
5
282
100
AcDbEntity
8
0
100
AcDbSpline
70
4
71
3
72
8
73
4
74
0
42
0.000000001
43
0.0000000001
44
0.0000000001
40
0
40
0
40
0
40
0
40
1
40
1
40
1
40
1
41
1
41
1
41
1
41
1
10
457.55579062681034
20
95.20357898436211
30
0
10
454.37554385404428
20
91.220062040112637
30
0
10
453.9781569343869
20
85.878283364397504
30
0
10
454.14188079099495
20
80.677692372423621
30
0
0
LWPOLYLINE
5
283
100
AcDbEntity
8
0
100
AcDbPolyline
90
4
70
1
43
0.0
10
608.49785797656227
20
161.15184927982313
10
786.19202464322893
20
161.15184927982313
10
786.19202464322882
20
10.233515946489788
10
608.49785797656205
20
10.233515946489788
0
SPLINE
5
284
100
AcDbEntity
8
0
100
AcDbSpline
70
4
71
3
72
8
73
4
74
0
42
0.000000001
43
0.0000000001
44
0.0000000001
40
0
40
0
40
0
40
0
40
1
40
1
40
1
40
1
41
1
41
1
41
1
41
1
10
656.06758680244923
20
85.637916091702607
30
0
10
656.87692047656219
20
86.334689614397519
30
0
10
658.18529991686989
20
86.13266262096387
30
0
10
659.0068163098955
20
85.459000978889293
30
0
0
SPLINE
5
285
100
AcDbEntity
8
0
100
AcDbSpline
70
4
71
3
72
8
73
4
74
0
42
0.000000001
43
0.0000000001
44
0.0000000001
40
0
40
0
40
0
40
0
40
1
40
1
40
1
40
1
41
1
41
1
41
1
41
1
10
659.0068163098955
20
85.459000978889293
30
0
10
659.2745389864906
20
85.237492777925951
30
0
10
659.49367935717748
20
84.964254449628015
30
0
10
659.6214493360186
20
84.655117957216731
30
0
0
SPLINE
5
286
100
AcDbEntity
8
0
100
AcDbSpline
70
4
71
3
72
8
73
4
74
0
42
0.000000001
43
0.0000000001
44
0.0000000001
40
0
40
0
40
0
40
0
40
1
40
1
40
1
40
1
41
1
41
1
41
1
41
1
10
659.6214493360186
20
84.655117957216731
30
0
10
660.32128710965947
20
82.978582694155193
30
0
10
659.69447136462372
20
80.63630641343417
30
0
10
659.24415647408011
20
78.976206678174151
30
0
0
LINE
5
287
100
AcDbEntity
8
0
100
AcDbLine
10
659.24415647408011
20
78.976206678174151
30
0
11
659.23806511462374
21
78.937866398912874
31
0
0
SPLINE
5
288
100
AcDbEntity
8
0
100
AcDbSpline
70
4
71
3
72
8
73
4
74
0
42
0.000000001
43
0.0000000001
44
0.0000000001
40
0
40
0
40
0
40
0
40
1
40
1
40
1
40
1
41
1
41
1
41
1
41
1
10
659.23806511462374
20
78.937866398912888
30
0
10
659.60926661710585
20
80.325340656064185
30
0
10
661.87302378873665
20
80.917456080538258
30
0
10
663.07190732857225
20
80.778097661755695
30
0
0
SPLINE
5
289
100
AcDbEntity
8
0
100
AcDbSpline
70
4
71
3
72
8
73
4
74
0
42
0.000000001
43
0.0000000001
44
0.0000000001
40
0
40
0
40
0
40
0
40
1
40
1
40
1
40
1
41
1
41
1
41
1
41
1
10
663.07190732857225
20
80.778097661755695
30
0
10
664.25853386462381
20
80.639964943351572
30
0
10
665.36604701261365
20
79.986991637967265
30
0
10
666.12063273649051
20
79.057752895774655
30
0
0
SPLINE
5
290
100
AcDbEntity
8
0
100
AcDbSpline
70
4
71
3
72
8
73
4
74
0
42
0.000000001
43
0.0000000001
44
0.0000000001
40
0
40
0
40
0
40
0
40
1
40
1
40
1
40
1
41
1
41
1
41
1
41
1
10
666.12063273649051
20
79.057752895774655
30
0
10
666.15108953377239
20
79.024891125780556
30
0
10
666.1754549715979
20
78.990812941016969
30
0
10
666.19974612455212
20
78.956734756253383
30
0
0
SPLINE
5
291
100
AcDbEntity
8
0
100
AcDbSpline
70
4
71
3
72
8
73
4
74
0
42
0.000000001
43
0.0000000001
44
0.0000000001
40
0
40
0
40
0
40
0
40
1
40
1
40
1
40
1
41
1
41
1
41
1
41
1
10
666.19974612455212
20
78.956734756253383
30
0
10
666.37624697904425
20
78.740092214368005
30
0
10
666.5527478335365
20
78.517980448824403
30
0
10
666.80227071663376
20
78.407834555727462
30
0
0
SPLINE
5
292
100
AcDbEntity
8
0
100
AcDbSpline
70
4
71
3
72
8
73
4
74
0
42
0.000000001
43
0.0000000001
44
0.0000000001
40
0
40
0
40
0
40
0
40
1
40
1
40
1
40
1
41
1
41
1
41
1
41
1
10
666.80227071663376
20
78.407834555727462
30
0
10
667.2464942477211
20
78.212483915112628
30
0
10
667.7515570885007
20
78.427306477648244
30
0
10
668.18968926013156
20
78.639074074846732
30
0
0
SPLINE
5
293
100
AcDbEntity
8
0
100
AcDbSpline
70
4
71
3
72
8
73
4
74
0
42
0.000000001
43
0.0000000001
44
0.0000000001
40
0
40
0
40
0
40
0
40
1
40
1
40
1
40
1
41
1
41
1
41
1
41
1
10
668.18968926013156
20
78.639074074846732
30
0
10
670.05186241686988
20
79.547020915768769
30
0
10
671.43935524523897
20
80.098966796022864
30
0
10
673.49013769051066
20
80.308301563682377
30
0
0
SPLINE
5
294
100
AcDbEntity
8
0
100
AcDbSpline
70
4
71
3
72
8
73
4
74
0
42
0.000000001
43
0.0000000001
44
0.0000000001
40
0
40
0
40
0
40
0
40
1
40
1
40
1
40
1
41
1
41
1
41
1
41
1
10
673.49013769051066
20
80.308301563682377
30
0
10
675.6686901146237
20
80.446443567695439
30
0
10
677.95681272408001
20
79.755752118847994
30
0
10
679.44771009346482
20
78.161366637967248
30
0
0
SPLINE
5
295
100
AcDbEntity
8
0
100
AcDbSpline
70
4
71
3
72
8
73
4
74
0
42
0.000000001
43
0.0000000001
44
0.0000000001
40
0
40
0
40
0
40
0
40
1
40
1
40
1
40
1
41
1
41
1
41
1
41
1
10
679.44771009346482
20
78.161366637967248
30
0
10
681.35244848152638
20
82.036566954078495
30
0
10
684.78463239571101
20
83.584691531282886
30
0
10
688.89228864571101
20
84.003370352210823
30
0
0
SPLINE
5
296
100
AcDbEntity
8
0
100
AcDbSpline
70
4
71
3
72
8
73
4
74
0
42
0.000000001
43
0.0000000001
44
0.0000000001
40
0
40
0
40
0
40
0
40
1
40
1
40
1
40
1
41
1
41
1
41
1
41
1
10
688.89228864571101
20
84.003370352210823
30
0
10
697.26582792183399
20
84.854108556531088
30
0
10
692.54353864571101
20
74.225930576743906
30
0
10
691.97763649523893
20
73.016155017636436
30
0
0
SPLINE
5
297
100
AcDbEntity
8
0
100
AcDbSpline
70
4
71
3
72
8
73
4
74
0
42
0.000000001
43
0.0000000001
44
0.0000000001
40
0
40
0
40
0
40
0
40
1
40
1
40
1
40
1
41
1
41
1
41
1
41
1
10
691.97763649523893
20
73.016155017636436
30
0
10
692.47660797656226
20
72.818371547482627
30
0
10
692.95737966438764
20
72.577391424598517
30
0
10
693.41987727384412
20
72.288339704297201
30
0
0
SPLINE
5
298
100
AcDbEntity
8
0
100
AcDbSpline
70
4
71
3
72
8
73
4
74
0
42
0.000000001
43
0.0000000001
44
0.0000000001
40
0
40
0
40
0
40
0
40
1
40
1
40
1
40
1
41
1
41
1
41
1
41
1
10
693.41987727384412
20
72.288339704297201
30
0
10
693.64503471911587
20
72.145332041206188
30
0
10
693.87019216438773
20
71.98953809462212
30
0
10
694.10753232857235
20
71.831933454297214
30
0
0
SPLINE
5
299
100
AcDbEntity
8
0
100
AcDbSpline
70
4
71
3
72
8
73
4
74
0
42
0.000000001
43
0.0000000001
44
0.0000000001
40
0
40
0
40
0
40
0
40
1
40
1
40
1
40
1
41
1
41
1
41
1
41
1
10
694.10753232857235
20
71.831933454297214
30
0
10
695.22722819547494
20
71.068814255815965
30
0
10
696.40776337207001
20
70.264327669563116
30
0
10
697.6370294243161
20
70.68665573479953
30
0
0
SPLINE
5
300
100
AcDbEntity
8
0
100
AcDbSpline
70
4
71
3
72
8
73
4
74
0
42
0.000000001
43
0.0000000001
44
0.0000000001
40
0
40
0
40
0
40
0
40
1
40
1
40
1
40
1
41
1
41
1
41
1
41
1
10
697.6370294243161
20
70.68665573479953
30
0
10
697.96566569547497
20
71.661533244870327
30
0
10
698.29430196663384
20
72.636420040550064
30
0
10
698.61677259346493
20
73.611306836229772
30
0
0
SPLINE
5
301
100
AcDbEntity
8
0
100
AcDbSpline
70
4
71
3
72
8
73
4
74
0
42
0.000000001
43
0.0000000001
44
0.0000000001
40
0
40
0
40
0
40
0
40
1
40
1
40
1
40
1
41
1
41
1
41
1
41
1
10
698.61677259346493
20
73.611306836229772
30
0
10
698.70197734098281
20
73.857152618191861
30
0
10
698.78109072904419
20
74.103007685762861
30
0
10
698.86629547656207
20
74.34885346772495
30
0
0
SPLINE
5
302
100
AcDbEntity
8
0
100
AcDbSpline
70
4
71
3
72
8
73
4
74
0
42
0.000000001
43
0.0000000001
44
0.0000000001
40
0
40
0
40
0
40
0
40
1
40
1
40
1
40
1
41
1
41
1
41
1
41
1
10
698.86629547656207
20
74.34885346772495
30
0
10
702.0306824292802
20
71.925643819592608
30
0
10
705.20123502632612
20
69.50243417146028
30
0
10
708.36562197904425
20
67.078611673138766
30
0
0
SPLINE
5
303
100
AcDbEntity
8
0
100
AcDbSpline
70
4
71
3
72
8
73
4
74
0
42
0.000000001
43
0.0000000001
44
0.0000000001
40
0
40
0
40
0
40
0
40
1
40
1
40
1
40
1
41
1
41
1
41
1
41
1
10
708.36562197904425
20
67.078611673138766
30
0
10
708.26214315315724
20
68.2938657415134
30
0
10
708.16482997159801
20
69.509129095496945
30
0
10
708.06135114571089
20
70.723770313682365
30
0
0
SPLINE
5
304
100
AcDbEntity
8
0
100
AcDbSpline
70
4
71
3
72
8
73
4
74
0
42
0.000000001
43
0.0000000001
44
0.0000000001
40
0
40
0
40
0
40
0
40
1
40
1
40
1
40
1
41
1
41
1
41
1
41
1
10
708.06135114571089
20
70.723770313682365
30
0
10
707.95185524523902
20
72.041268221956727
30
0
10
707.8422850598954
20
73.358153280041847
30
0
10
707.73271487455202
20
74.675038338126967
30
0
0
SPLINE
5
305
100
AcDbEntity
8
0
100
AcDbSpline
70
4
71
3
72
8
73
4
74
0
42
0.000000001
43
0.0000000001
44
0.0000000001
40
0
40
0
40
0
40
0
40
1
40
1
40
1
40
1
41
1
41
1
41
1
41
1
10
707.73271487455202
20
74.675038338126967
30
0
10
711.59092252632615
20
71.29154815715772
30
0
10
715.68030469795701
20
68.166680756034665
30
0
10
719.95227908353638
20
65.330270796241592
30
0
0
SPLINE
5
306
100
AcDbEntity
8
0
100
AcDbSpline
70
4
71
3
72
8
73
4
74
0
42
0.000000001
43
0.0000000001
44
0.0000000001
40
0
40
0
40
0
40
0
40
1
40
1
40
1
40
1
41
1
41
1
41
1
41
1
10
719.95227908353638
20
65.330270796241592
30
0
10
719.99484431485962
20
66.29784981769545
30
0
10
720.03748383105426
20
67.265428839149294
30
0
10
720.07395770292123
20
68.233017146212077
30
0
0
SPLINE
5
307
100
AcDbEntity
8
0
100
AcDbSpline
70
4
71
3
72
8
73
4
74
0
42
0.000000001
43
0.0000000001
44
0.0000000001
40
0
40
0
40
0
40
0
40
1
40
1
40
1
40
1
41
1
41
1
41
1
41
1
10
720.07395770292123
20
68.233017146212077
30
0
10
720.11659721911587
20
69.206074676933099
30
0
10
720.15916245043911
20
70.179132207654135
30
0
10
720.19571060717738
20
71.152793302955445
30
0
0
SPLINE
5
308
100
AcDbEntity
8
0
100
AcDbSpline
70
4
71
3
72
8
73
4
74
0
42
0.000000001
43
0.0000000001
44
0.0000000001
40
0
40
0
40
0
40
0
40
1
40
1
40
1
40
1
41
1
41
1
41
1
41
1
10
720.19571060717738
20
71.152793302955445
30
0
10
723.82259516935187
20
68.441135499102103
30
0
10
727.44338837206999
20
65.730694110018234
30
0
10
731.07034721911589
20
63.02024343532544
30
0
0
LINE
5
309
100
AcDbEntity
8
0
100
AcDbLine
10
731.070347219116
20
63.020243435325433
30
0
11
731.10072973152637
21
62.997122269096195
31
0
0
SPLINE
5
310
100
AcDbEntity
8
0
100
AcDbSpline
70
4
71
3
72
8
73
4
74
0
42
0.000000001
43
0.0000000001
44
0.0000000001
40
0
40
0
40
0
40
0
40
1
40
1
40
1
40
1
41
1
41
1
41
1
41
1
10
731.10072973152637
20
62.997122269096195
30
0
10
730.72952822904426
20
65.100238406282898
30
0
10
730.59566689074677
20
67.246569767417725
30
0
10
730.70516279121875
20
69.379501994870324
30
0
0
SPLINE
5
311
100
AcDbEntity
8
0
100
AcDbSpline
70
4
71
3
72
8
73
4
74
0
42
0.000000001
43
0.0000000001
44
0.0000000001
40
0
40
0
40
0
40
0
40
1
40
1
40
1
40
1
41
1
41
1
41
1
41
1
10
730.70516279121875
20
69.379501994870324
30
0
10
733.27935644051081
20
67.20214741430901
30
0
10
736.2611511792802
20
65.508573058865679
30
0
10
739.44388649523898
20
64.413196201743901
30
0
0
SPLINE
5
312
100
AcDbEntity
8
0
100
AcDbSpline
70
4
71
3
72
8
73
4
74
0
42
0.000000001
43
0.0000000001
44
0.0000000001
40
0
40
0
40
0
40
0
40
1
40
1
40
1
40
1
41
1
41
1
41
1
41
1
10
739.44388649523898
20
64.413196201743901
30
0
10
739.02395411710586
20
67.887360353889292
30
0
10
738.19634636462365
20
71.31223649384799
30
0
10
736.99753710965956
20
74.599574194373901
30
0
0
SPLINE
5
313
100
AcDbEntity
8
0
100
AcDbSpline
70
4
71
3
72
8
73
4
74
0
42
0.000000001
43
0.0000000001
44
0.0000000001
40
0
40
0
40
0
40
0
40
1
40
1
40
1
40
1
41
1
41
1
41
1
41
1
10
736.99753710965956
20
74.599574194373901
30
0
10
739.3829729006751
20
73.131770134391601
30
0
10
741.81104820788551
20
71.738213803392881
30
0
10
744.28176303129032
20
70.421328745307733
30
0
0
SPLINE
5
314
100
AcDbEntity
8
0
100
AcDbSpline
70
4
71
3
72
8
73
4
74
0
42
0.000000001
43
0.0000000001
44
0.0000000001
40
0
40
0
40
0
40
0
40
1
40
1
40
1
40
1
41
1
41
1
41
1
41
1
10
744.28176303129032
20
70.421328745307733
30
0
10
744.09307945788544
20
74.089617837689531
30
0
10
742.49261190315724
20
77.66662939431491
30
0
10
739.88201866686973
20
80.254147892417734
30
0
0
SPLINE
5
315
100
AcDbEntity
8
0
100
AcDbSpline
70
4
71
3
72
8
73
4
74
0
42
0.000000001
43
0.0000000001
44
0.0000000001
40
0
40
0
40
0
40
0
40
1
40
1
40
1
40
1
41
1
41
1
41
1
41
1
10
739.88201866686973
20
80.254147892417734
30
0
10
739.50472580493124
20
80.629611489397504
30
0
10
739.09697614571098
20
80.998389447949549
30
0
10
738.68922648649061
20
81.369600236040583
30
0
0
SPLINE
5
316
100
AcDbEntity
8
0
100
AcDbSpline
70
4
71
3
72
8
73
4
74
0
42
0.000000001
43
0.0000000001
44
0.0000000001
40
0
40
0
40
0
40
0
40
1
40
1
40
1
40
1
41
1
41
1
41
1
41
1
10
738.68922648649061
20
81.369600236040583
30
0
10
737.07055913826468
20
82.844712070248733
30
0
10
735.40316091438763
20
84.357542047920049
30
0
10
735.25711685717738
20
86.469785938682378
30
0
0
LINE
5
317
100
AcDbEntity
8
0
100
AcDbLine
10
735.25711685717738
20
86.469785938682378
30
0
11
742.19443242928025
21
85.790655072949548
31
0
0
SPLINE
5
318
100
AcDbEntity
8
0
100
AcDbSpline
70
4
71
3
72
8
73
4
74
0
42
0.000000001
43
0.0000000001
44
0.0000000001
40
0
40
0
40
0
40
0
40
1
40
1
40
1
40
1
41
1
41
1
41
1
41
1
10
742.19443242928025
20
85.790655072949548
30
0
10
739.35868174772111
20
89.423649565798257
30
0
10
735.1719121096595
20
91.97952270867647
30
0
10
730.64432348152638
20
92.846696440798269
30
0
0
SPLINE
5
319
100
AcDbEntity
8
0
100
AcDbSpline
70
4
71
3
72
8
73
4
74
0
42
0.000000001
43
0.0000000001
44
0.0000000001
40
0
40
0
40
0
40
0
40
1
40
1
40
1
40
1
41
1
41
1
41
1
41
1
10
730.64432348152638
20
92.846696440798269
30
0
10
729.85935524523893
20
92.995795463345672
30
0
10
728.8247898409827
20
93.441244694811317
30
0
10
729.02565613330057
20
94.21165309630058
30
0
0
SPLINE
5
320
100
AcDbEntity
8
0
100
AcDbSpline
70
4
71
3
72
8
73
4
74
0
42
0.000000001
43
0.0000000001
44
0.0000000001
40
0
40
0
40
0
40
0
40
1
40
1
40
1
40
1
41
1
41
1
41
1
41
1
10
729.02565613330057
20
94.21165309630058
30
0
10
729.18380862455206
20
94.784296598853899
30
0
10
729.92628591438779
20
94.917563658180057
30
0
10
730.51655350268516
20
94.929737091483887
30
0
0
SPLINE
5
321
100
AcDbEntity
8
0
100
AcDbSpline
70
4
71
3
72
8
73
4
74
0
42
0.000000001
43
0.0000000001
44
0.0000000001
40
0
40
0
40
0
40
0
40
1
40
1
40
1
40
1
41
1
41
1
41
1
41
1
10
730.51655350268516
20
94.929737091483887
30
0
10
732.97508560717745
20
94.981467218818494
30
0
10
735.4396347862546
20
94.861580721956713
30
0
10
737.88598417183391
20
94.570086886507482
30
0
0
SPLINE
5
322
100
AcDbEntity
8
0
100
AcDbSpline
70
4
71
3
72
8
73
4
74
0
42
0.000000001
43
0.0000000001
44
0.0000000001
40
0
40
0
40
0
40
0
40
1
40
1
40
1
40
1
41
1
41
1
41
1
41
1
10
737.88598417183391
20
94.570086886507482
30
0
10
735.81083628873671
20
97.181952251217979
30
0
10
732.39083509346483
20
98.33817770364108
30
0
10
729.08040408353645
20
98.763551448605682
30
0
0
SPLINE
5
323
100
AcDbEntity
8
0
100
AcDbSpline
70
4
71
3
72
8
73
4
74
0
42
0.000000001
43
0.0000000001
44
0.0000000001
40
0
40
0
40
0
40
0
40
1
40
1
40
1
40
1
41
1
41
1
41
1
41
1
10
729.08040408353645
20
98.763551448605682
30
0
10
727.64425466438763
20
98.948548635266448
30
0
10
726.18983116686979
20
99.020957813682386
30
0
10
724.74149902880822
20
99.093376277707236
30
0
0
SPLINE
5
324
100
AcDbEntity
8
0
100
AcDbSpline
70
4
71
3
72
8
73
4
74
0
42
0.000000001
43
0.0000000001
44
0.0000000001
40
0
40
0
40
0
40
0
40
1
40
1
40
1
40
1
41
1
41
1
41
1
41
1
10
724.74149902880822
20
99.093376277707236
30
0
10
722.85503471911602
20
99.187095928611569
30
0
10
720.97458748400857
20
99.280806293906991
30
0
10
719.11857997159802
20
99.620984576962599
30
0
0
SPLINE
5
325
100
AcDbEntity
8
0
100
AcDbSpline
70
4
71
3
72
8
73
4
74
0
42
0.000000001
43
0.0000000001
44
0.0000000001
40
0
40
0
40
0
40
0
40
1
40
1
40
1
40
1
41
1
41
1
41
1
41
1
10
719.11857997159802
20
99.620984576962599
30
0
10
718.7777609815264
20
100.57517375034315
30
0
10
720.08614042183399
20
101.23422912957493
30
0
10
721.08415766935195
20
101.37662394247673
30
0
0
SPLINE
5
326
100
AcDbEntity
8
0
100
AcDbSpline
70
4
71
3
72
8
73
4
74
0
42
0.000000001
43
0.0000000001
44
0.0000000001
40
0
40
0
40
0
40
0
40
1
40
1
40
1
40
1
41
1
41
1
41
1
41
1
10
721.08415766935195
20
101.37662394247673
30
0
10
723.75566450020312
20
101.75635891956311
30
0
10
726.46973656237765
20
101.85311496458672
30
0
10
729.16560883105433
20
101.66507209819777
30
0
0
SPLINE
5
327
100
AcDbEntity
8
0
100
AcDbSpline
70
4
71
3
72
8
73
4
74
0
42
0.000000001
43
0.0000000001
44
0.0000000001
40
0
40
0
40
0
40
0
40
1
40
1
40
1
40
1
41
1
41
1
41
1
41
1
10
729.16560883105433
20
101.66507209819777
30
0
10
729.43333150764943
20
102.81278264723441
30
0
10
728.66656306485982
20
104.00552839956902
30
0
10
727.65034602384401
20
104.60068021816235
30
0
0
SPLINE
5
328
100
AcDbEntity
8
0
100
AcDbSpline
70
4
71
3
72
8
73
4
74
0
42
0.000000001
43
0.0000000001
44
0.0000000001
40
0
40
0
40
0
40
0
40
1
40
1
40
1
40
1
41
1
41
1
41
1
41
1
10
727.65034602384401
20
104.60068021816235
30
0
10
726.63405469795703
20
105.19522847217543
30
0
10
725.41697136462381
20
105.3242334370039
30
0
10
724.23636190315722
20
105.41673667313876
30
0
0
SPLINE
5
329
100
AcDbEntity
8
0
100
AcDbSpline
70
4
71
3
72
8
73
4
74
0
42
0.000000001
43
0.0000000001
44
0.0000000001
40
0
40
0
40
0
40
0
40
1
40
1
40
1
40
1
41
1
41
1
41
1
41
1
10
724.23636190315722
20
105.41673667313876
30
0
10
720.28084106982396
20
105.72830599508904
30
0
10
716.30102908353649
20
105.78125253719313
30
0
10
712.33332553129026
20
105.5725213341139
30
0
0
SPLINE
5
330
100
AcDbEntity
8
0
100
AcDbSpline
70
4
71
3
72
8
73
4
74
0
42
0.000000001
43
0.0000000001
44
0.0000000001
40
0
40
0
40
0
40
0
40
1
40
1
40
1
40
1
41
1
41
1
41
1
41
1
10
712.33332553129026
20
105.5725213341139
30
0
10
712.51591774523888
20
107.07744925858798
30
0
10
714.34154274523894
20
107.65556198479953
30
0
10
715.820257395711
20
108.00364232105238
30
0
0
SPLINE
5
331
100
AcDbEntity
8
0
100
AcDbSpline
70
4
71
3
72
8
73
4
74
0
42
0.000000001
43
0.0000000001
44
0.0000000001
40
0
40
0
40
0
40
0
40
1
40
1
40
1
40
1
41
1
41
1
41
1
41
1
10
715.820257395711
20
108.00364232105238
30
0
10
717.29904633105434
20
108.35051552814465
30
0
10
719.08812317431614
20
109.29375696859978
30
0
10
718.85078301013152
20
110.79137711884799
30
0
0
SPLINE
5
332
100
AcDbEntity
8
0
100
AcDbSpline
70
4
71
3
72
8
73
4
74
0
42
0.000000001
43
0.0000000001
44
0.0000000001
40
0
40
0
40
0
40
0
40
1
40
1
40
1
40
1
41
1
41
1
41
1
41
1
10
718.85078301013152
20
110.79137711884799
30
0
10
711.94384995043924
20
110.74755833031955
30
0
10
705.04909960965949
20
109.730691296679
30
0
10
698.42816330493133
20
107.78213412008904
30
0
0
SPLINE
5
333
100
AcDbEntity
8
0
100
AcDbSpline
70
4
71
3
72
8
73
4
74
0
42
0.000000001
43
0.0000000001
44
0.0000000001
40
0
40
0
40
0
40
0
40
1
40
1
40
1
40
1
41
1
41
1
41
1
41
1
10
698.42816330493133
20
107.78213412008904
30
0
10
697.85609551013158
20
108.84586562198621
30
0
10
698.84193003873656
20
110.06356180550875
30
0
10
699.77910797656227
20
110.82727528296134
30
0
0
SPLINE
5
334
100
AcDbEntity
8
0
100
AcDbSpline
70
4
71
3
72
8
73
4
74
0
42
0.000000001
43
0.0000000001
44
0.0000000001
40
0
40
0
40
0
40
0
40
1
40
1
40
1
40
1
41
1
41
1
41
1
41
1
10
699.77910797656227
20
110.82727528296134
30
0
10
700.72237727384402
20
111.58978163125339
30
0
10
701.81161634346483
20
112.63830330572746
30
0
10
701.45259755989559
20
113.79270413599633
30
0
0
SPLINE
5
335
100
AcDbEntity
8
0
100
AcDbSpline
70
4
71
3
72
8
73
4
74
0
42
0.000000001
43
0.0000000001
44
0.0000000001
40
0
40
0
40
0
40
0
40
1
40
1
40
1
40
1
41
1
41
1
41
1
41
1
10
701.45259755989559
20
113.79270413599633
30
0
10
697.95957433601859
20
114.30630973698916
30
0
10
694.43000295540332
20
113.1549545864485
30
0
10
691.24734192431606
20
111.6360332493208
30
0
0
SPLINE
5
336
100
AcDbEntity
8
0
100
AcDbSpline
70
4
71
3
72
8
73
4
74
0
42
0.000000001
43
0.0000000001
44
0.0000000001
40
0
40
0
40
0
40
0
40
1
40
1
40
1
40
1
41
1
41
1
41
1
41
1
10
691.24734192431606
20
111.6360332493208
30
0
10
690.15802856982395
20
111.11633628887159
30
0
10
689.08706357857227
20
110.55161341073337
30
0
10
688.0160243024493
20
109.98749409717541
30
0
0
SPLINE
5
337
100
AcDbEntity
8
0
100
AcDbSpline
70
4
71
3
72
8
73
4
74
0
42
0.000000001
43
0.0000000001
44
0.0000000001
40
0
40
0
40
0
40
0
40
1
40
1
40
1
40
1
41
1
41
1
41
1
41
1
10
688.0160243024493
20
109.98749409717541
30
0
10
685.959150497721
20
108.90124499362928
30
0
10
683.9083680524493
20
107.81560874027235
30
0
10
681.71154154996714
20
107.05493165693902
30
0
0
SPLINE
5
338
100
AcDbEntity
8
0
100
AcDbSpline
70
4
71
3
72
8
73
4
74
0
42
0.000000001
43
0.0000000001
44
0.0000000001
40
0
40
0
40
0
40
0
40
1
40
1
40
1
40
1
41
1
41
1
41
1
41
1
10
681.71154154996714
20
107.05493165693902
30
0
10
681.89405947904436
20
108.72902480485263
30
0
10
682.39310524523898
20
110.36783263884209
30
0
10
683.17198212207006
20
111.86180354478182
30
0
0
SPLINE
5
339
100
AcDbEntity
8
0
100
AcDbSpline
70
4
71
3
72
8
73
4
74
0
42
0.000000001
43
0.0000000001
44
0.0000000001
40
0
40
0
40
0
40
0
40
1
40
1
40
1
40
1
41
1
41
1
41
1
41
1
10
683.17198212207006
20
111.86180354478182
30
0
10
679.35641398649057
20
110.81267830572747
30
0
10
675.9364127912188
20
108.39676714621207
30
0
10
673.66656426013151
20
105.15445536337516
30
0
0
SPLINE
5
340
100
AcDbEntity
8
0
100
AcDbSpline
70
4
71
3
72
8
73
4
74
0
42
0.000000001
43
0.0000000001
44
0.0000000001
40
0
40
0
40
0
40
0
40
1
40
1
40
1
40
1
41
1
41
1
41
1
41
1
10
673.66656426013151
20
105.15445536337516
30
0
10
672.76593447904429
20
103.86616998078645
30
0
10
671.31151098152645
20
102.24075199487032
30
0
10
669.97274902880827
20
103.06836903296136
30
0
0
LINE
5
341
100
AcDbEntity
8
0
100
AcDbLine
10
669.97274902880827
20
103.06836903296136
30
0
11
671.22021487455208
21
108.35294835768364
31
0
0
SPLINE
5
342
100
AcDbEntity
8
0
100
AcDbSpline
70
4
71
3
72
8
73
4
74
0
42
0.000000001
43
0.0000000001
44
0.0000000001
40
0
40
0
40
0
40
0
40
1
40
1
40
1
40
1
41
1
41
1
41
1
41
1
10
671.22021487455208
20
108.35294835768364
30
0
10
670.179632395711
20
108.60793117883028
30
0
10
669.25463717679816
20
107.68111598056775
30
0
10
668.60353027880831
20
106.83159419101698
30
0
0
SPLINE
5
343
100
AcDbEntity
8
0
100
AcDbSpline
70
4
71
3
72
8
73
4
74
0
42
0.000000001
43
0.0000000001
44
0.0000000001
40
0
40
0
40
0
40
0
40
1
40
1
40
1
40
1
41
1
41
1
41
1
41
1
10
668.60353027880831
20
106.83159419101698
30
0
10
665.94420616686978
20
103.35986286841057
30
0
10
663.66217491686984
20
99.604549049161108
30
0
10
661.79391040067514
20
95.650253916206196
30
0
0
SPLINE
5
344
100
AcDbEntity
8
0
100
AcDbSpline
70
4
71
3
72
8
73
4
74
0
42
0.000000001
43
0.0000000001
44
0.0000000001
40
0
40
0
40
0
40
0
40
1
40
1
40
1
40
1
41
1
41
1
41
1
41
1
10
661.79391040067514
20
95.650253916206196
30
0
10
660.92373741686981
20
95.33137682003003
30
0
10
660.1265121767982
20
96.33242117605829
30
0
10
659.91962880989547
20
97.238548037630537
30
0
0
SPLINE
5
345
100
AcDbEntity
8
0
100
AcDbSpline
70
4
71
3
72
8
73
4
74
0
42
0.000000001
43
0.0000000001
44
0.0000000001
40
0
40
0
40
0
40
0
40
1
40
1
40
1
40
1
41
1
41
1
41
1
41
1
10
659.91962880989547
20
97.238548037630537
30
0
10
659.87706357857235
20
97.435709371986206
30
0
10
659.84051542183397
20
97.639574915987467
30
0
10
659.80404154996722
20
97.844044024569016
30
0
0
SPLINE
5
346
100
AcDbEntity
8
0
100
AcDbSpline
70
4
71
3
72
8
73
4
74
0
42
0.000000001
43
0.0000000001
44
0.0000000001
40
0
40
0
40
0
40
0
40
1
40
1
40
1
40
1
41
1
41
1
41
1
41
1
10
659.80404154996722
20
97.844044024569016
30
0
10
659.67619728625448
20
98.582203506253379
30
0
10
659.5423359479571
20
99.332536421241585
30
0
10
658.98245087206999
20
99.802936083895176
30
0
0
SPLINE
5
347
100
AcDbEntity
8
0
100
AcDbSpline
70
4
71
3
72
8
73
4
74
0
42
0.000000001
43
0.0000000001
44
0.0000000001
40
0
40
0
40
0
40
0
40
1
40
1
40
1
40
1
41
1
41
1
41
1
41
1
10
658.98245087206999
20
99.802936083895176
30
0
10
657.40025739571092
20
96.062228527488543
30
0
10
656.35967491686984
20
92.091497866732098
30
0
10
655.90326866686974
20
88.053827251217996
30
0
0
LINE
5
348
100
AcDbEntity
8
0
100
AcDbLine
10
655.90326866686974
20
88.053827251217996
30
0
11
655.90326866686974
21
86.909765946489799
31
0
0
SPLINE
5
349
100
AcDbEntity
8
0
100
AcDbSpline
70
0
71
2
72
6
73
3
74
0
42
0.000000001
43
0.0000000001
44
0.0000000001
40
0
40
0
40
0
40
1
40
1
40
1
10
655.90326866686974
20
86.909765946489799
30
0
10
655.86672051013147
20
86.591501700502846
30
0
10
656.06758680244923
20
85.637916091702607
30
0
0
LWPOLYLINE
5
350
100
AcDbEntity
8
0
100
AcDbPolyline
90
4
70
1
43
0.0
10
816.01056630989547
20
161.15184927982313
10
993.70473297656213
20
161.15184927982313
10
993.70473297656213
20
10.233515946489788
10
816.01056630989547
20
10.233515946489788
0
SPLINE
5
351
100
AcDbEntity
8
0
100
AcDbSpline
70
4
71
3
72
8
73
4
74
0
42
0.000000001
43
0.0000000001
44
0.0000000001
40
0
40
0
40
0
40
0
40
1
40
1
40
1
40
1
41
1
41
1
41
1
41
1
10
854.58603147408007
20
65.914465596300587
30
0
10
853.63057945788546
20
66.128675308646976
30
0
10
852.6326364952389
20
66.131720988375164
30
0
10
851.68936719795715
20
65.858482660077229
30
0
0
SPLINE
5
352
100
AcDbEntity
8
0
100
AcDbSpline
70
4
71
3
72
8
73
4
74
0
42
0.000000001
43
0.0000000001
44
0.0000000001
40
0
40
0
40
0
40
0
40
1
40
1
40
1
40
1
41
1
41
1
41
1
41
1
10
851.68936719795715
20
65.858482660077229
30
0
10
850.77655469795695
20
65.59315567058546
30
0
10
849.85155947904434
20
65.067376636288799
30
0
10
850.14364759346495
20
64.036506904385703
30
0
0
SPLINE
5
353
100
AcDbEntity
8
0
100
AcDbSpline
70
4
71
3
72
8
73
4
74
0
42
0.000000001
43
0.0000000001
44
0.0000000001
40
0
40
0
40
0
40
0
40
1
40
1
40
1
40
1
41
1
41
1
41
1
41
1
10
850.14364759346495
20
64.036506904385703
30
0
10
850.6852585909827
20
62.134210631472087
30
0
10
852.09102549772115
20
60.593988107464938
30
0
10
853.67931033353648
20
60.23130150836927
30
0
0
SPLINE
5
354
100
AcDbEntity
8
0
100
AcDbSpline
70
4
71
3
72
8
73
4
74
0
42
0.000000001
43
0.0000000001
44
0.0000000001
40
0
40
0
40
0
40
0
40
1
40
1
40
1
40
1
41
1
41
1
41
1
41
1
10
853.67931033353648
20
60.23130150836927
30
0
10
855.26150380989543
20
59.869218473853891
30
0
10
857.25144694547498
20
62.932615143877499
30
0
10
856.94108475268524
20
64.399202789090296
30
0
0
SPLINE
5
355
100
AcDbEntity
8
0
100
AcDbSpline
70
4
71
3
72
8
73
4
74
0
42
0.000000001
43
0.0000000001
44
0.0000000001
40
0
40
0
40
0
40
0
40
1
40
1
40
1
40
1
41
1
41
1
41
1
41
1
10
856.94108475268524
20
64.399202789090296
30
0
10
856.75849253873662
20
65.253590237719038
30
0
10
855.57186600268528
20
65.694173810106733
30
0
10
854.58603147408007
20
65.914465596300587
30
0
0
SPLINE
5
356
100
AcDbEntity
8
0
100
AcDbSpline
70
4
71
3
72
8
73
4
74
0
42
0.000000001
43
0.0000000001
44
0.0000000001
40
0
40
0
40
0
40
0
40
1
40
1
40
1
40
1
41
1
41
1
41
1
41
1
10
897.74383321663379
20
82.238603233121069
30
0
10
895.94859072904433
20
82.407164891980301
30
0
10
894.08649185717752
20
82.153407771212073
30
0
10
892.49813273649056
20
81.310571620089036
30
0
0
SPLINE
5
357
100
AcDbEntity
8
0
100
AcDbSpline
70
4
71
3
72
8
73
4
74
0
42
0.000000001
43
0.0000000001
44
0.0000000001
40
0
40
0
40
0
40
0
40
1
40
1
40
1
40
1
41
1
41
1
41
1
41
1
10
892.49813273649056
20
81.310571620089036
30
0
10
890.90984790067512
20
80.467131904385695
30
0
10
889.61365117928028
20
79.001157109362111
30
0
10
889.17551900764943
20
77.255249062003912
30
0
0
SPLINE
5
358
100
AcDbEntity
8
0
100
AcDbSpline
70
4
71
3
72
8
73
4
74
0
42
0.000000001
43
0.0000000001
44
0.0000000001
40
0
40
0
40
0
40
0
40
1
40
1
40
1
40
1
41
1
41
1
41
1
41
1
10
889.17551900764943
20
77.255249062003912
30
0
10
889.04165766935193
20
76.735561387163628
30
0
10
889.04774902880831
20
76.065548989397499
30
0
10
889.51633799772117
20
75.805096944592606
30
0
0
SPLINE
5
359
100
AcDbEntity
8
0
100
AcDbSpline
70
4
71
3
72
8
73
4
74
0
42
0.000000001
43
0.0000000001
44
0.0000000001
40
0
40
0
40
0
40
0
40
1
40
1
40
1
40
1
41
1
41
1
41
1
41
1
10
889.51633799772117
20
75.805096944592606
30
0
10
889.78406067431604
20
75.658440037193117
30
0
10
890.10660558601853
20
75.701033125343145
30
0
10
890.41087641935189
20
75.749114008369261
30
0
0
SPLINE
5
360
100
AcDbEntity
8
0
100
AcDbSpline
70
4
71
3
72
8
73
4
74
0
42
0.000000001
43
0.0000000001
44
0.0000000001
40
0
40
0
40
0
40
0
40
1
40
1
40
1
40
1
41
1
41
1
41
1
41
1
10
890.41087641935189
20
75.749114008369261
30
0
10
892.85113444547494
20
76.136751038652889
30
0
10
893.7456728671059
20
75.983399207216721
30
0
10
894.53680674772102
20
73.549232540550065
30
0
0
SPLINE
5
361
100
AcDbEntity
8
0
100
AcDbSpline
70
4
71
3
72
8
73
4
74
0
42
0.000000001
43
0.0000000001
44
0.0000000001
40
0
40
0
40
0
40
0
40
1
40
1
40
1
40
1
41
1
41
1
41
1
41
1
10
894.53680674772102
20
73.549232540550065
30
0
10
894.84716894051076
20
72.599909026247488
30
0
10
897.92635114571101
20
76.055817671241584
30
0
10
898.04810404996715
20
76.362521334113893
30
0
0
SPLINE
5
362
100
AcDbEntity
8
0
100
AcDbSpline
70
4
71
3
72
8
73
4
74
0
42
0.000000001
43
0.0000000001
44
0.0000000001
40
0
40
0
40
0
40
0
40
1
40
1
40
1
40
1
41
1
41
1
41
1
41
1
10
898.04810404996715
20
76.362521334113893
30
0
10
898.48623622159812
20
77.480415792884656
30
0
10
898.49841894051087
20
78.719403877677735
30
0
10
898.41321419299288
20
79.918835268440063
30
0
0
SPLINE
5
363
100
AcDbEntity
8
0
100
AcDbSpline
70
4
71
3
72
8
73
4
74
0
42
0.000000001
43
0.0000000001
44
0.0000000001
40
0
40
0
40
0
40
0
40
1
40
1
40
1
40
1
41
1
41
1
41
1
41
1
10
898.41321419299288
20
79.918835268440063
30
0
10
898.35839195788537
20
80.734288158836179
30
0
10
898.2488960574135
20
81.595370531501601
30
0
10
897.74383321663379
20
82.238603233121069
30
0
0
SPLINE
5
364
100
AcDbEntity
8
0
100
AcDbSpline
70
4
71
3
72
8
73
4
74
0
42
0.000000001
43
0.0000000001
44
0.0000000001
40
0
40
0
40
0
40
0
40
1
40
1
40
1
40
1
41
1
41
1
41
1
41
1
10
877.1081645002032
20
75.018865865491051
30
0
10
875.76323690315712
20
75.278705060106731
30
0
10
874.41838359098267
20
74.155341377677729
30
0
10
874.0958386792804
20
72.509847905260543
30
0
0
SPLINE
5
365
100
AcDbEntity
8
0
100
AcDbSpline
70
4
71
3
72
8
73
4
74
0
42
0.000000001
43
0.0000000001
44
0.0000000001
40
0
40
0
40
0
40
0
40
1
40
1
40
1
40
1
41
1
41
1
41
1
41
1
10
874.0958386792804
20
72.509847905260543
30
0
10
873.77945941190558
20
70.864345147234417
30
0
10
874.61315852384416
20
69.319869814338503
30
0
10
875.95192047656224
20
69.060021334113898
30
0
0
SPLINE
5
366
100
AcDbEntity
8
0
100
AcDbSpline
70
4
71
3
72
8
73
4
74
0
42
0.000000001
43
0.0000000001
44
0.0000000001
40
0
40
0
40
0
40
0
40
1
40
1
40
1
40
1
41
1
41
1
41
1
41
1
10
875.95192047656224
20
69.060021334113898
30
0
10
877.2967737887368
20
68.799569289309005
30
0
10
878.64170138578265
20
69.923545821927206
30
0
10
878.96417201261352
20
71.569039294344407
30
0
0
SPLINE
5
367
100
AcDbEntity
8
0
100
AcDbSpline
70
4
71
3
72
8
73
4
74
0
42
0.000000001
43
0.0000000001
44
0.0000000001
40
0
40
0
40
0
40
0
40
1
40
1
40
1
40
1
41
1
41
1
41
1
41
1
10
878.96417201261352
20
71.569039294344407
30
0
10
879.28062556485975
20
73.214532766761607
30
0
10
878.45301781237765
20
74.758404535077233
30
0
10
877.1081645002032
20
75.018865865491051
30
0
0
SPLINE
5
368
100
AcDbEntity
8
0
100
AcDbSpline
70
4
71
3
72
8
73
4
74
0
42
0.000000001
43
0.0000000001
44
0.0000000001
40
0
40
0
40
0
40
0
40
1
40
1
40
1
40
1
41
1
41
1
41
1
41
1
10
868.45471982857237
20
76.026001580975674
30
0
10
867.29238444547491
20
76.251159026247478
30
0
10
866.12395770292119
20
75.276885080756969
30
0
10
865.84405230741345
20
73.849854129574908
30
0
0
SPLINE
5
369
100
AcDbEntity
8
0
100
AcDbSpline
70
4
71
3
72
8
73
4
74
0
42
0.000000001
43
0.0000000001
44
0.0000000001
40
0
40
0
40
0
40
0
40
1
40
1
40
1
40
1
41
1
41
1
41
1
41
1
10
865.84405230741345
20
73.849854129574908
30
0
10
865.57016398649057
20
72.421606763623373
30
0
10
866.28827583850068
20
71.082204103889296
30
0
10
867.45670258105429
20
70.856433808428264
30
0
0
SPLINE
5
370
100
AcDbEntity
8
0
100
AcDbSpline
70
4
71
3
72
8
73
4
74
0
42
0.000000001
43
0.0000000001
44
0.0000000001
40
0
40
0
40
0
40
0
40
1
40
1
40
1
40
1
41
1
41
1
41
1
41
1
10
867.45670258105429
20
70.856433808428264
30
0
10
868.61896367928023
20
70.630663512967246
30
0
10
869.78739042183406
20
71.605550308646983
30
0
10
870.0672958173418
20
73.032581259829016
30
0
0
SPLINE
5
371
100
AcDbEntity
8
0
100
AcDbSpline
70
4
71
3
72
8
73
4
74
0
42
0.000000001
43
0.0000000001
44
0.0000000001
40
0
40
0
40
0
40
0
40
1
40
1
40
1
40
1
41
1
41
1
41
1
41
1
10
870.0672958173418
20
73.032581259829016
30
0
10
870.34118413826468
20
74.459612211011077
30
0
10
869.62307228625468
20
75.800231285514656
30
0
10
868.45471982857237
20
76.026001580975674
30
0
0
ENDSEC
0
SECTION
2
OBJECTS
0
DICTIONARY
5
C
100
AcDbDictionary
3
ACAD_GROUP
350
D
3
ACAD_MLINESTYLE
350
17
0
DICTIONARY
5
D
100
AcDbDictionary
0
DICTIONARY
5
1A
330
C
100
AcDbDictionary
0
DICTIONARY
5
17
100
AcDbDictionary
0
ENDSEC
0
EOF
