                                                                        S      1
,,14HHanger Test v1,14HHanger Test v1,7Hunknown,7Hunknown,32,38,7,99,15,G      1
,1.,2,2HMM,1,0.08,15H20220922.115545,0.01,10000.,7Hunknown,7Hunknown,11,G      2
0,15H20200813.144629;                                                   G      3
     186       1                                                00000000D      1
     186            -271       1       0                               0D      2
     514       2                                                00010000D      3
     514                       2       1                               0D      4
     510       4                                                00010000D      5
     510            -271       1       1                               0D      6
     510       5                                                00010000D      7
     510            -271       1       1                               0D      8
     510       6                                                00010000D      9
     510            -271       1       1                               0D     10
     510       7                                                00010000D     11
     510            -271       1       1                               0D     12
     510       8                                                00010000D     13
     510            -271       1       1                               0D     14
     510       9                                                00010000D     15
     510            -271       1       1                               0D     16
     510      10                                                00010000D     17
     510            -271       1       1                               0D     18
     510      11                                                00010000D     19
     510            -271       1       1                               0D     20
     510      12                                                00010000D     21
     510            -271       1       1                               0D     22
     510      13                                                00010000D     23
     510            -271       1       1                               0D     24
     510      14                                                00010000D     25
     510            -271       1       1                               0D     26
     510      15                                                00010000D     27
     510            -271       1       1                               0D     28
     510      16                                                00010000D     29
     510            -271       1       1                               0D     30
     510      17                                                00010000D     31
     510            -271       1       1                               0D     32
     510      18                                                00010000D     33
     510            -271       1       1                               0D     34
     510      19                                                00010000D     35
     510            -271       1       1                               0D     36
     510      20                                                00010000D     37
     510            -271       1       1                               0D     38
     510      21                                                00010000D     39
     510            -271       1       1                               0D     40
     510      22                                                00010000D     41
     510            -271       1       1                               0D     42
     510      23                                                00010000D     43
     510            -271       1       1                               0D     44
     510      24                                                00010000D     45
     510            -271       1       1                               0D     46
     510      25                                                00010000D     47
     510            -271       1       1                               0D     48
     508      26                                                00010000D     49
     508                       1       1                               0D     50
     508      27                                                00010000D     51
     508                       1       1                               0D     52
     508      28                                                00010000D     53
     508                       1       1                               0D     54
     508      29                                                00010000D     55
     508                       1       1                               0D     56
     508      30                                                00010000D     57
     508                       1       1                               0D     58
     508      31                                                00010000D     59
     508                       1       1                               0D     60
     508      32                                                00010000D     61
     508                       1       1                               0D     62
     508      33                                                00010000D     63
     508                       1       1                               0D     64
     508      34                                                00010000D     65
     508                       1       1                               0D     66
     508      35                                                00010000D     67
     508                       1       1                               0D     68
     508      36                                                00010000D     69
     508                       1       1                               0D     70
     508      37                                                00010000D     71
     508                       1       1                               0D     72
     508      38                                                00010000D     73
     508                       1       1                               0D     74
     508      39                                                00010000D     75
     508                       4       1                               0D     76
     508      43                                                00010000D     77
     508                       2       1                               0D     78
     508      45                                                00010000D     79
     508                       1       1                               0D     80
     508      46                                                00010000D     81
     508                       1       1                               0D     82
     508      47                                                00010000D     83
     508                       1       1                               0D     84
     508      48                                                00010000D     85
     508                       2       1                               0D     86
     508      50                                                00010000D     87
     508                       1       1                               0D     88
     508      51                                                00010000D     89
     508                       1       1                               0D     90
     508      52                                                00010000D     91
     508                       1       1                               0D     92
     508      53                                                00010000D     93
     508                       1       1                               0D     94
     508      54                                                00010000D     95
     508                       4       1                               0D     96
     508      58                                                00010000D     97
     508                       1       1                               0D     98
     508      59                                                00010000D     99
     508                       1       1                               0D    100
     126      60                                                00010000D    101
     126       0               3       0                               0D    102
     126      63                                                00010000D    103
     126       0               2       0                               0D    104
     126      65                                                00010000D    105
     126       0               2       0                               0D    106
     126      67                                                00010000D    107
     126       0               2       0                               0D    108
     126      69                                                00010000D    109
     126       0               5       0                               0D    110
     126      74                                                00010000D    111
     126       0               2       0                               0D    112
     126      76                                                00010000D    113
     126       0               5       0                               0D    114
     126      81                                                00010000D    115
     126       0               3       0                               0D    116
     126      84                                                00010000D    117
     126       0               2       0                               0D    118
     126      86                                                00010000D    119
     126       0               2       0                               0D    120
     126      88                                                00010000D    121
     126       0               5       0                               0D    122
     126      93                                                00010000D    123
     126       0               2       0                               0D    124
     126      95                                                00010000D    125
     126       0               5       0                               0D    126
     126     100                                                00010000D    127
     126       0               2       0                               0D    128
     126     102                                                00010000D    129
     126       0               2       0                               0D    130
     126     104                                                00010000D    131
     126       0               2       0                               0D    132
     126     106                                                00010000D    133
     126       0               5       0                               0D    134
     126     111                                                00010000D    135
     126       0               2       0                               0D    136
     126     113                                                00010000D    137
     126       0               5       0                               0D    138
     126     118                                                00010000D    139
     126       0               2       0                               0D    140
     126     120                                                00010000D    141
     126       0               2       0                               0D    142
     126     122                                                00010000D    143
     126       0               2       0                               0D    144
     126     124                                                00010000D    145
     126       0               5       0                               0D    146
     126     129                                                00010000D    147
     126       0               5       0                               0D    148
     126     134                                                00010000D    149
     126       0               2       0                               0D    150
     126     136                                                00010000D    151
     126       0               3       0                               0D    152
     126     139                                                00010000D    153
     126       0               2       0                               0D    154
     126     141                                                00010000D    155
     126       0               2       0                               0D    156
     126     143                                                00010000D    157
     126       0               5       0                               0D    158
     126     148                                                00010000D    159
     126       0               5       0                               0D    160
     126     153                                                00010000D    161
     126       0               2       0                               0D    162
     126     155                                                00010000D    163
     126       0               2       0                               0D    164
     126     157                                                00010000D    165
     126       0               2       0                               0D    166
     126     159                                                00010000D    167
     126       0               2       0                               0D    168
     126     161                                                00010000D    169
     126       0               5       0                               0D    170
     126     166                                                00010000D    171
     126       0               5       0                               0D    172
     126     171                                                00010000D    173
     126       0               2       0                               0D    174
     126     173                                                00010000D    175
     126       0               2       0                               0D    176
     126     175                                                00010000D    177
     126       0               2       0                               0D    178
     126     177                                                00010000D    179
     126       0               2       0                               0D    180
     126     179                                                00010000D    181
     126       0               2       0                               0D    182
     126     181                                                00010000D    183
     126       0               2       0                               0D    184
     126     183                                                00010000D    185
     126       0               2       0                               0D    186
     126     185                                                00010000D    187
     126       0               2       0                               0D    188
     126     187                                                00010000D    189
     126       0               2       0                               0D    190
     126     189                                                00010000D    191
     126       0               2       0                               0D    192
     126     191                                                00010000D    193
     126       0               2       0                               0D    194
     126     193                                                00010000D    195
     126       0               2       0                               0D    196
     126     195                                                00010000D    197
     126       0               2       0                               0D    198
     126     197                                                00010000D    199
     126       0               2       0                               0D    200
     126     199                                                00010000D    201
     126       0               8       0                               0D    202
     126     207                                                00010000D    203
     126       0               8       0                               0D    204
     126     215                                                00010000D    205
     126       0               2       0                               0D    206
     126     217                                                00010000D    207
     126       0               2       0                               0D    208
     126     219                                                00010000D    209
     126       0               2       0                               0D    210
     126     221                                                00010000D    211
     126       0               8       0                               0D    212
     126     229                                                00010000D    213
     126       0               2       0                               0D    214
     126     231                                                00010000D    215
     126       0               8       0                               0D    216
     126     239                                                00010000D    217
     126       0               2       0                               0D    218
     126     241                                                00010000D    219
     126       0               2       0                               0D    220
     128     243                                                00010000D    221
     128       0    -271       4       0                               0D    222
     128     247                                                00010000D    223
     128       0    -271       7       0                               0D    224
     128     254                                                00010000D    225
     128       0    -271       4       0                               0D    226
     128     258                                                00010000D    227
     128       0    -271       7       0                               0D    228
     128     265                                                00010000D    229
     128       0    -271       3       0                               0D    230
     128     268                                                00010000D    231
     128       0    -271       7       0                               0D    232
     128     275                                                00010000D    233
     128       0    -271       3       0                               0D    234
     128     278                                                00010000D    235
     128       0    -271       7       0                               0D    236
     128     285                                                00010000D    237
     128       0    -271       4       0                               0D    238
     128     289                                                00010000D    239
     128       0    -271       7       0                               0D    240
     128     296                                                00010000D    241
     128       0    -271       3       0                               0D    242
     128     299                                                00010000D    243
     128       0    -271       7       0                               0D    244
     128     306                                                00010000D    245
     128       0    -271       3       0                               0D    246
     128     309                                                00010000D    247
     128       0    -271       4       0                               0D    248
     128     313                                                00010000D    249
     128       0    -271       5       0                               0D    250
     128     318                                                00010000D    251
     128       0    -271       4       0                               0D    252
     128     322                                                00010000D    253
     128       0    -271       3       0                               0D    254
     128     325                                                00010000D    255
     128       0    -271      11       0                               0D    256
     128     336                                                00010000D    257
     128       0    -271      11       0                               0D    258
     128     347                                                00010000D    259
     128       0    -271       4       0                               0D    260
     128     351                                                00010000D    261
     128       0    -271       3       0                               0D    262
     128     354                                                00010000D    263
     128       0    -271       4       0                               0D    264
     502     358                                                00010000D    265
     502                       9       1                               0D    266
     504     367                                                00010001D    267
     504                      17       1                               0D    268
     406     384                                                00000000D    269
     406                       1      15                               0D    270
     314     385                                                00000200D    271
     314                       2       0                               0D    272
186,3,1,0,0,1,269;                                                     1P      1
514,22,5,1,7,1,9,1,11,1,13,1,15,1,17,1,19,1,21,1,23,1,25,1,27,1,       3P      2
29,1,31,1,33,1,35,1,37,1,39,1,41,1,43,1,45,1,47,1;                     3P      3
510,221,1,1,49;                                                        5P      4
510,223,1,1,51;                                                        7P      5
510,225,1,1,53;                                                        9P      6
510,227,1,1,55;                                                       11P      7
510,229,1,1,57;                                                       13P      8
510,231,1,1,59;                                                       15P      9
510,233,1,1,61;                                                       17P     10
510,235,1,1,63;                                                       19P     11
510,237,1,1,65;                                                       21P     12
510,239,1,1,67;                                                       23P     13
510,241,1,1,69;                                                       25P     14
510,243,1,1,71;                                                       27P     15
510,245,1,1,73;                                                       29P     16
510,247,1,1,75;                                                       31P     17
510,249,1,1,77;                                                       33P     18
510,251,3,1,79,81,83;                                                 35P     19
510,253,1,1,85;                                                       37P     20
510,255,1,1,87;                                                       39P     21
510,257,1,1,89;                                                       41P     22
510,259,1,1,91;                                                       43P     23
510,261,1,1,93;                                                       45P     24
510,263,3,1,95,97,99;                                                 47P     25
508,4,0,267,1,0,0,0,267,2,1,0,0,267,3,0,0,0,267,4,0,0;                49P     26
508,4,0,267,5,0,0,0,267,6,1,0,0,267,7,0,0,0,267,2,0,0;                51P     27
508,4,0,267,8,0,0,0,267,9,1,0,0,267,10,0,0,0,267,6,0,0;               53P     28
508,4,0,267,11,0,0,0,267,12,1,0,0,267,13,0,0,0,267,9,0,0;             55P     29
508,4,0,267,14,0,0,0,267,15,1,0,0,267,16,0,0,0,267,12,0,0;            57P     30
508,4,0,267,17,0,0,0,267,18,1,0,0,267,19,0,0,0,267,15,0,0;            59P     31
508,4,0,267,20,0,0,0,267,21,1,0,0,267,22,0,0,0,267,18,0,0;            61P     32
508,4,0,267,23,0,0,0,267,4,1,0,0,267,24,0,0,0,267,25,0,0;             63P     33
508,4,0,267,26,0,0,0,267,25,1,0,0,267,27,0,0,0,267,28,0,0;            65P     34
508,4,0,267,29,0,0,0,267,28,1,0,0,267,30,0,0,0,267,31,0,0;            67P     35
508,4,0,267,32,0,0,0,267,31,1,0,0,267,33,0,0,0,267,34,0,0;            69P     36
508,4,0,267,35,0,0,0,267,34,1,0,0,267,36,0,0,0,267,37,0,0;            71P     37
508,4,0,267,38,0,0,0,267,37,1,0,0,267,39,0,0,0,267,40,0,0;            73P     38
508,16,0,267,22,1,0,0,267,41,1,0,0,267,42,1,0,0,267,43,1,0,0,         75P     39
267,39,1,0,0,267,36,1,0,0,267,33,1,0,0,267,30,1,0,0,267,27,1,0,       75P     40
0,267,24,1,0,0,267,3,1,0,0,267,7,1,0,0,267,10,1,0,0,267,13,1,0,       75P     41
0,267,16,1,0,0,267,19,1,0;                                            75P     42
508,6,0,267,44,0,0,0,267,45,1,0,0,267,46,0,0,0,267,40,1,0,0,267,      77P     43
43,0,0,0,267,47,0,0;                                                  77P     44
508,4,0,267,44,1,0,0,267,48,1,0,0,267,49,0,0,0,267,50,0,0;            79P     45
508,1,0,267,51,0,0;                                                   81P     46
508,1,0,267,52,0,0;                                                   83P     47
508,6,0,267,53,0,0,0,267,54,0,0,0,267,49,1,0,0,267,55,1,0,0,267,      85P     48
41,0,0,0,267,21,0,0;                                                  85P     49
508,4,0,267,56,0,0,0,267,57,1,0,0,267,51,1,0,0,267,57,0,0;            87P     50
508,4,0,267,58,0,0,0,267,59,1,0,0,267,52,1,0,0,267,59,0,0;            89P     51
508,4,0,267,48,0,0,0,267,47,1,0,0,267,42,0,0,0,267,55,0,0;            91P     52
508,4,0,267,50,1,0,0,267,54,1,0,0,267,60,0,0,0,267,45,0,0;            93P     53
508,16,0,267,38,1,0,0,267,46,1,0,0,267,60,1,0,0,267,53,1,0,0,         95P     54
267,20,1,0,0,267,17,1,0,0,267,14,1,0,0,267,11,1,0,0,267,8,1,0,0,      95P     55
267,5,1,0,0,267,1,1,0,0,267,23,1,0,0,267,26,1,0,0,267,29,1,0,0,       95P     56
267,32,1,0,0,267,35,1,0;                                              95P     57
508,1,0,267,58,1,0;                                                   97P     58
508,1,0,267,56,1,0;                                                   99P     59
126,1,1,0,0,1,0,-0.112499999999999,-0.112499999999999,               101P     60
0.0375000000000001,0.0375000000000001,1.,1.,25.75,18.,2.,24.25,      101P     61
18.,2.,-0.112499999999999,0.0375000000000001,0.,0.,0.;               101P     62
126,1,1,0,0,1,0,0.2,0.2,1.2,1.2,1.,1.,25.75,18.,2.,25.75,18.,        103P     63
12.,0.2,1.2,0.,0.,0.;                                                103P     64
126,1,1,0,0,1,0,-2.575,-2.575,-2.425,-2.425,1.,1.,24.25,18.,12.,     105P     65
25.75,18.,12.,-2.575,-2.425,0.,0.,0.;                                105P     66
126,1,1,0,0,1,0,0.2,0.2,1.2,1.2,1.,1.,24.25,18.,2.,24.25,18.,        107P     67
12.,0.2,1.2,0.,0.,0.;                                                107P     68
126,4,2,0,0,0,0,0.,0.,0.,1.5707963267949,1.5707963267949,            109P     69
3.14159265358979,3.14159265358979,3.14159265358979,1.,               109P     70
0.707106781186544,1.,0.707106781186544,1.,31.75,18.,2.,31.75,        109P     71
21.,2.,28.75,21.,2.,25.75,21.,2.,25.75,18.,2.,0.,                    109P     72
3.14159265358979,0.,0.,0.;                                           109P     73
126,1,1,0,0,1,0,0.2,0.2,1.2,1.2,1.,1.,31.75,18.,2.,31.75,18.,        111P     74
12.,0.2,1.2,0.,0.,0.;                                                111P     75
126,4,2,0,0,0,0,-3.14159265358979,-3.14159265358979,                 113P     76
-3.14159265358979,-1.5707963267949,-1.5707963267949,0.,0.,0.,1.,     113P     77
0.707106781186544,1.,0.707106781186544,1.,25.75,18.,12.,25.75,       113P     78
21.,12.,28.75,21.,12.,31.75,21.,12.,31.75,18.,12.,                   113P     79
-3.14159265358979,0.,0.,0.,0.;                                       113P     80
126,1,1,0,0,1,0,-0.487499999999999,-0.487499999999999,-0.3375,       115P     81
-0.3375,1.,1.,33.25,18.,2.,31.75,18.,2.,-0.487499999999999,          115P     82
-0.3375,0.,0.,0.;                                                    115P     83
126,1,1,0,0,1,0,0.2,0.2,1.2,1.2,1.,1.,33.25,18.,2.,33.25,18.,        117P     84
12.,0.2,1.2,0.,0.,0.;                                                117P     85
126,1,1,0,0,1,0,-1.825,-1.825,-1.675,-1.675,1.,1.,31.75,18.,12.,     119P     86
33.25,18.,12.,-1.825,-1.675,0.,0.,0.;                                119P     87
126,4,2,0,0,0,0,0.,0.,0.,1.5707963267949,1.5707963267949,            121P     88
3.14159265358979,3.14159265358979,3.14159265358979,1.,               121P     89
0.707106781186544,1.,0.707106781186544,1.,39.25,18.,2.,39.25,        121P     90
21.,2.,36.25,21.,2.,33.25,21.,2.,33.25,18.,2.,0.,                    121P     91
3.14159265358979,0.,0.,0.;                                           121P     92
126,1,1,0,0,1,0,0.2,0.2,1.2,1.2,1.,1.,39.25,18.,2.,39.25,18.,        123P     93
12.,0.2,1.2,0.,0.,0.;                                                123P     94
126,4,2,0,0,0,0,-3.14159265358979,-3.14159265358979,                 125P     95
-3.14159265358979,-1.5707963267949,-1.5707963267949,0.,0.,0.,1.,     125P     96
0.707106781186544,1.,0.707106781186544,1.,33.25,18.,12.,33.25,       125P     97
21.,12.,36.25,21.,12.,39.25,21.,12.,39.25,18.,12.,                   125P     98
-3.14159265358979,0.,0.,0.,0.;                                       125P     99
126,1,1,0,0,1,0,-0.8625,-0.8625,-0.7125,-0.7125,1.,1.,40.75,18.,     127P    100
2.,39.25,18.,2.,-0.8625,-0.7125,0.,0.,0.;                            127P    101
126,1,1,0,0,1,0,0.2,0.2,1.2,1.2,1.,1.,40.75,18.,2.,40.75,18.,        129P    102
12.,0.2,1.2,0.,0.,0.;                                                129P    103
126,1,1,0,0,1,0,-1.075,-1.075,-0.925,-0.925,1.,1.,39.25,18.,12.,     131P    104
40.75,18.,12.,-1.075,-0.925,0.,0.,0.;                                131P    105
126,4,2,0,0,0,0,0.,0.,0.,1.5707963267949,1.5707963267949,            133P    106
3.14159265358979,3.14159265358979,3.14159265358979,1.,               133P    107
0.707106781186546,1.,0.707106781186546,1.,46.75,18.,2.,46.75,        133P    108
21.,2.,43.75,21.,2.,40.75,21.,2.,40.75,18.,2.,0.,                    133P    109
3.14159265358979,0.,0.,0.;                                           133P    110
126,1,1,0,0,1,0,0.2,0.2,1.2,1.2,1.,1.,46.75,18.,2.,46.75,18.,        135P    111
12.,0.2,1.2,0.,0.,0.;                                                135P    112
126,4,2,0,0,0,0,-3.14159265358979,-3.14159265358979,                 137P    113
-3.14159265358979,-1.5707963267949,-1.5707963267949,0.,0.,0.,1.,     137P    114
0.707106781186546,1.,0.707106781186546,1.,40.75,18.,12.,40.75,       137P    115
21.,12.,43.75,21.,12.,46.75,21.,12.,46.75,18.,12.,                   137P    116
-3.14159265358979,0.,0.,0.,0.;                                       137P    117
126,1,1,0,0,1,0,-1.4125,-1.4125,-1.0875,-1.0875,1.,1.,50.,18.,       139P    118
2.,46.75,18.,2.,-1.4125,-1.0875,0.,0.,0.;                            139P    119
126,1,1,0,0,1,0,0.2,0.2,1.2,1.2,1.,1.,50.,18.,2.,50.,18.,12.,        141P    120
0.2,1.2,0.,0.,0.;                                                    141P    121
126,1,1,0,0,1,0,-0.325,-0.325,0.,0.,1.,1.,46.75,18.,12.,50.,18.,     143P    122
12.,-0.325,0.,0.,0.,0.;                                              143P    123
126,4,2,0,0,0,0,0.,0.,0.,1.5707963267949,1.5707963267949,            145P    124
3.14159265358979,3.14159265358979,3.14159265358979,1.,               145P    125
0.707106781186544,1.,0.707106781186547,1.,24.25,18.,2.,24.25,        145P    126
21.,2.,21.25,21.,2.,18.25,21.,2.,18.25,18.,2.,0.,                    145P    127
3.14159265358979,0.,0.,0.;                                           145P    128
126,4,2,0,0,0,0,-3.14159265358979,-3.14159265358979,                 147P    129
-3.14159265358979,-1.5707963267949,-1.5707963267949,0.,0.,0.,1.,     147P    130
0.707106781186547,1.,0.707106781186544,1.,18.25,18.,12.,18.25,       147P    131
21.,12.,21.25,21.,12.,24.25,21.,12.,24.25,18.,12.,                   147P    132
-3.14159265358979,0.,0.,0.,0.;                                       147P    133
126,1,1,0,0,1,0,0.2,0.2,1.2,1.2,1.,1.,18.25,18.,2.,18.25,18.,        149P    134
12.,0.2,1.2,0.,0.,0.;                                                149P    135
126,1,1,0,0,1,0,0.262500000000001,0.262500000000001,0.4125,          151P    136
0.4125,1.,1.,18.25,18.,2.,16.75,18.,2.,0.262500000000001,0.4125,     151P    137
0.,0.,0.;                                                            151P    138
126,1,1,0,0,1,0,-3.325,-3.325,-3.175,-3.175,1.,1.,16.75,18.,12.,     153P    139
18.25,18.,12.,-3.325,-3.175,0.,0.,0.;                                153P    140
126,1,1,0,0,1,0,0.2,0.2,1.2,1.2,1.,1.,16.75,18.,2.,16.75,18.,        155P    141
12.,0.2,1.2,0.,0.,0.;                                                155P    142
126,4,2,0,0,0,0,0.,0.,0.,1.5707963267949,1.5707963267949,            157P    143
3.14159265358979,3.14159265358979,3.14159265358979,1.,               157P    144
0.707106781186547,1.,0.707106781186547,1.,16.75,18.,2.,16.75,        157P    145
21.,2.,13.75,21.,2.,10.75,21.,2.,10.75,18.,2.,0.,                    157P    146
3.14159265358979,0.,0.,0.;                                           157P    147
126,4,2,0,0,0,0,-3.14159265358979,-3.14159265358979,                 159P    148
-3.14159265358979,-1.5707963267949,-1.5707963267949,0.,0.,0.,1.,     159P    149
0.707106781186547,1.,0.707106781186547,1.,10.75,18.,12.,10.75,       159P    150
21.,12.,13.75,21.,12.,16.75,21.,12.,16.75,18.,12.,                   159P    151
-3.14159265358979,0.,0.,0.,0.;                                       159P    152
126,1,1,0,0,1,0,0.2,0.2,1.2,1.2,1.,1.,10.75,18.,2.,10.75,18.,        161P    153
12.,0.2,1.2,0.,0.,0.;                                                161P    154
126,1,1,0,0,1,0,0.6375,0.6375,0.7875,0.7875,1.,1.,10.75,18.,2.,      163P    155
9.25,18.,2.,0.6375,0.7875,0.,0.,0.;                                  163P    156
126,1,1,0,0,1,0,-4.075,-4.075,-3.925,-3.925,1.,1.,9.25,18.,12.,      165P    157
10.75,18.,12.,-4.075,-3.925,0.,0.,0.;                                165P    158
126,1,1,0,0,1,0,0.2,0.2,1.2,1.2,1.,1.,9.25,18.,2.,9.25,18.,12.,      167P    159
0.2,1.2,0.,0.,0.;                                                    167P    160
126,4,2,0,0,0,0,0.,0.,0.,1.5707963267949,1.5707963267949,            169P    161
3.14159265358979,3.14159265358979,3.14159265358979,1.,               169P    162
0.707106781186549,1.,0.707106781186549,1.,9.25,18.,2.,9.25,21.,      169P    163
2.,6.25,21.,2.,3.25,21.,2.,3.25,18.,2.,0.,3.14159265358979,0.,       169P    164
0.,0.;                                                               169P    165
126,4,2,0,0,0,0,-3.14159265358979,-3.14159265358979,                 171P    166
-3.14159265358979,-1.5707963267949,-1.5707963267949,0.,0.,0.,1.,     171P    167
0.707106781186549,1.,0.707106781186549,1.,3.25,18.,12.,3.25,21.,     171P    168
12.,6.25,21.,12.,9.25,21.,12.,9.25,18.,12.,-3.14159265358979,0.,     171P    169
0.,0.,0.;                                                            171P    170
126,1,1,0,0,1,0,0.2,0.2,1.2,1.2,1.,1.,3.25,18.,2.,3.25,18.,12.,      173P    171
0.2,1.2,0.,0.,0.;                                                    173P    172
126,1,1,0,0,1,0,0.925,0.925,1.25,1.25,1.,1.,3.25,18.,2.,0.,18.,      175P    173
2.,0.925,1.25,0.,0.,0.;                                              175P    174
126,1,1,0,0,1,0,-5.,-5.,-4.675,-4.675,1.,1.,0.,18.,12.,3.25,18.,     177P    175
12.,-5.,-4.675,0.,0.,0.;                                             177P    176
126,1,1,0,0,1,0,0.2,0.2,1.2,1.2,1.,1.,-1.54074395550979D-32,18.,     179P    177
2.,-1.54074395550979D-32,18.,12.,0.2,1.2,0.,0.,0.;                   179P    178
126,1,1,0,0,1,0,-0.7,-0.7,0.,0.,1.,1.,50.,18.,12.,50.,25.,12.,       181P    179
-0.7,0.,0.,0.,0.;                                                    181P    180
126,1,1,0,0,1,0,-5.,-5.,0.,0.,1.,1.,50.,25.,12.,0.,25.,12.,-5.,      183P    181
0.,0.,0.,0.;                                                         183P    182
126,1,1,0,0,1,0,-0.7,-0.7,0.,0.,1.,1.,0.,25.,12.,                    185P    183
-1.54074395550979D-32,18.,12.,-0.7,0.,0.,0.,0.;                      185P    184
126,1,1,0,0,1,0,-1.8,-1.8,0.7,0.7,1.,1.,-5.50265698396353D-32,       187P    185
0.,0.,0.,25.,0.,-1.8,0.7,0.,0.,0.;                                   187P    186
126,1,1,0,0,1,0,0.,0.,0.2,0.2,1.,1.,0.,0.,0.,0.,0.,2.,0.,0.2,0.,     189P    187
0.,0.;                                                               189P    188
126,1,1,0,0,1,0,0.,0.,1.8,1.8,1.,1.,-1.54074395550979D-32,18.,       191P    189
2.,-5.50265698396353D-32,0.,2.,0.,1.8,0.,0.,0.;                      191P    190
126,1,1,0,0,1,0,0.,0.,1.2,1.2,1.,1.,0.,25.,0.,0.,25.,12.,0.,1.2,     193P    191
0.,0.,0.;                                                            193P    192
126,1,1,0,0,1,0,0.,0.,5.,5.,1.,1.,0.,25.,0.,50.,25.,0.,0.,5.,0.,     195P    193
0.,0.;                                                               195P    194
126,1,1,0,0,1,0,0.,0.,2.5,2.5,1.,1.,50.,0.,0.,50.,25.,0.,0.,2.5,     197P    195
0.,0.,0.;                                                            197P    196
126,1,1,0,0,1,0,0.,0.,5.,5.,1.,1.,0.,0.,0.,50.,0.,0.,0.,5.,0.,       199P    197
0.,0.;                                                               199P    198
126,8,2,0,1,0,0,-3.14159265358979,-3.14159265358979,                 201P    199
-3.14159265358979,-1.5707963267949,-1.5707963267949,0.,0.,           201P    200
1.5707963267949,1.5707963267949,3.14159265358979,                    201P    201
3.14159265358979,3.14159265358979,1.,0.70710678118655,1.,            201P    202
0.70710678118655,1.,0.707106781186548,1.,0.707106781186548,1.,       201P    203
9.5,10.,0.,9.5,12.5,0.,12.,12.5,0.,14.5,12.5,0.,14.5,10.,0.,         201P    204
14.5,7.5,0.,12.,7.5,0.,9.5,7.5,0.,9.5,10.,0.,-3.14159265358979,      201P    205
3.14159265358979,0.,0.,0.;                                           201P    206
126,8,2,0,1,0,0,-3.14159265358979,-3.14159265358979,                 203P    207
-3.14159265358979,-1.5707963267949,-1.5707963267949,0.,0.,           203P    208
1.5707963267949,1.5707963267949,3.14159265358979,                    203P    209
3.14159265358979,3.14159265358979,1.,0.70710678118655,1.,            203P    210
0.70710678118655,1.,0.707106781186548,1.,0.707106781186548,1.,       203P    211
35.5,10.,0.,35.5,12.5,0.,38.,12.5,0.,40.5,12.5,0.,40.5,10.,0.,       203P    212
40.5,7.5,0.,38.,7.5,0.,35.5,7.5,0.,35.5,10.,0.,                      203P    213
-3.14159265358979,3.14159265358979,0.,0.,0.;                         203P    214
126,1,1,0,0,1,0,0.,0.,1.8,1.8,1.,1.,50.,0.,2.,50.,18.,2.,0.,1.8,     205P    215
0.,0.,0.;                                                            205P    216
126,1,1,0,0,1,0,0.,0.,0.2,0.2,1.,1.,50.,0.,0.,50.,0.,2.,0.,0.2,      207P    217
0.,0.,0.;                                                            207P    218
126,1,1,0,0,1,0,0.,0.,1.2,1.2,1.,1.,50.,25.,0.,50.,25.,12.,0.,       209P    219
1.2,0.,0.,0.;                                                        209P    220
126,8,2,0,1,0,0,-3.14159265358979,-3.14159265358979,                 211P    221
-3.14159265358979,-1.5707963267949,-1.5707963267949,0.,0.,           211P    222
1.5707963267949,1.5707963267949,3.14159265358979,                    211P    223
3.14159265358979,3.14159265358979,1.,0.70710678118655,1.,            211P    224
0.70710678118655,1.,0.707106781186548,1.,0.707106781186548,1.,       211P    225
9.5,10.,2.,9.5,12.5,2.,12.,12.5,2.,14.5,12.5,2.,14.5,10.,2.,         211P    226
14.5,7.5,2.,12.,7.5,2.,9.5,7.5,2.,9.5,10.,2.,-3.14159265358979,      211P    227
3.14159265358979,0.,0.,0.;                                           211P    228
126,1,1,0,0,1,0,-0.8,-0.8,0.,0.,1.,1.,9.5,10.,2.,9.5,10.,0.,         213P    229
-0.8,0.,0.,0.,0.;                                                    213P    230
126,8,2,0,1,0,0,-3.14159265358979,-3.14159265358979,                 215P    231
-3.14159265358979,-1.5707963267949,-1.5707963267949,0.,0.,           215P    232
1.5707963267949,1.5707963267949,3.14159265358979,                    215P    233
3.14159265358979,3.14159265358979,1.,0.70710678118655,1.,            215P    234
0.70710678118655,1.,0.707106781186548,1.,0.707106781186548,1.,       215P    235
35.5,10.,2.,35.5,12.5,2.,38.,12.5,2.,40.5,12.5,2.,40.5,10.,2.,       215P    236
40.5,7.5,2.,38.,7.5,2.,35.5,7.5,2.,35.5,10.,2.,                      215P    237
-3.14159265358979,3.14159265358979,0.,0.,0.;                         215P    238
126,1,1,0,0,1,0,-0.8,-0.8,0.,0.,1.,1.,35.5,10.,2.,35.5,10.,0.,       217P    239
-0.8,0.,0.,0.,0.;                                                    217P    240
126,1,1,0,0,1,0,0.,0.,5.,5.,1.,1.,0.,0.,2.,50.,0.,2.,0.,5.,0.,       219P    241
0.,0.;                                                               219P    242
128,1,1,1,1,0,0,1,0,0,-0.001,-0.001,0.150999999999999,               221P    243
0.150999999999999,0.199,0.199,1.201,1.201,1.,1.,1.,1.,24.24,18.,     221P    244
1.99,25.76,18.,1.99,24.24,18.,12.01,25.76,18.,12.01,-0.001,          221P    245
0.150999999999999,0.199,1.201;                                       221P    246
128,1,4,1,2,0,0,0,0,0,0.666666666666666,0.666666666666666,4.,4.,     223P    247
0.,0.,0.,1.5707963267949,1.5707963267949,3.14159265358979,           223P    248
3.14159265358979,3.14159265358979,1.,1.,0.707106781186548,           223P    249
0.707106781186548,1.,1.,0.707106781186548,0.707106781186548,1.,      223P    250
1.,31.75,18.,2.,31.75,18.,12.,31.75,21.,2.,31.75,21.,12.,28.75,      223P    251
21.,2.,28.75,21.,12.,25.75,21.,2.,25.75,21.,12.,25.75,18.,2.,        223P    252
25.75,18.,12.,0.666666666666666,4.,0.,3.14159265358979;              223P    253
128,1,1,1,1,0,0,1,0,0,-0.001,-0.001,0.150999999999999,               225P    254
0.150999999999999,0.199,0.199,1.201,1.201,1.,1.,1.,1.,31.74,18.,     225P    255
1.99,33.26,18.,1.99,31.74,18.,12.01,33.26,18.,12.01,-0.001,          225P    256
0.150999999999999,0.199,1.201;                                       225P    257
128,1,4,1,2,0,0,0,0,0,0.666666666666666,0.666666666666666,4.,4.,     227P    258
0.,0.,0.,1.5707963267949,1.5707963267949,3.14159265358979,           227P    259
3.14159265358979,3.14159265358979,1.,1.,0.707106781186548,           227P    260
0.707106781186548,1.,1.,0.707106781186548,0.707106781186548,1.,      227P    261
1.,39.25,18.,2.,39.25,18.,12.,39.25,21.,2.,39.25,21.,12.,36.25,      227P    262
21.,2.,36.25,21.,12.,33.25,21.,2.,33.25,21.,12.,33.25,18.,2.,        227P    263
33.25,18.,12.,0.666666666666666,4.,0.,3.14159265358979;              227P    264
128,1,1,1,1,0,0,1,0,0,-0.001,-0.001,0.151,0.151,0.199,0.199,         229P    265
1.201,1.201,1.,1.,1.,1.,39.24,18.,1.99,40.76,18.,1.99,39.24,18.,     229P    266
12.01,40.76,18.,12.01,-0.001,0.151,0.199,1.201;                      229P    267
128,1,4,1,2,0,0,0,0,0,0.666666666666667,0.666666666666667,4.,4.,     231P    268
0.,0.,0.,1.5707963267949,1.5707963267949,3.14159265358979,           231P    269
3.14159265358979,3.14159265358979,1.,1.,0.707106781186548,           231P    270
0.707106781186548,1.,1.,0.707106781186548,0.707106781186548,1.,      231P    271
1.,46.75,18.,2.,46.75,18.,12.,46.75,21.,2.,46.75,21.,12.,43.75,      231P    272
21.,2.,43.75,21.,12.,40.75,21.,2.,40.75,21.,12.,40.75,18.,2.,        231P    273
40.75,18.,12.,0.666666666666667,4.,0.,3.14159265358979;              231P    274
128,1,1,1,1,0,0,1,0,0,-0.001,-0.001,0.326,0.326,0.199,0.199,         233P    275
1.201,1.201,1.,1.,1.,1.,46.74,18.,1.99,50.01,18.,1.99,46.74,18.,     233P    276
12.01,50.01,18.,12.01,-0.001,0.326,0.199,1.201;                      233P    277
128,1,4,1,2,0,0,0,0,0,0.666666666666666,0.666666666666666,4.,4.,     235P    278
0.,0.,0.,1.5707963267949,1.5707963267949,3.14159265358979,           235P    279
3.14159265358979,3.14159265358979,1.,1.,0.707106781186548,           235P    280
0.707106781186548,1.,1.,0.707106781186548,0.707106781186548,1.,      235P    281
1.,24.25,18.,2.,24.25,18.,12.,24.25,21.,2.,24.25,21.,12.,21.25,      235P    282
21.,2.,21.25,21.,12.,18.25,21.,2.,18.25,21.,12.,18.25,18.,2.,        235P    283
18.25,18.,12.,0.666666666666666,4.,0.,3.14159265358979;              235P    284
128,1,1,1,1,0,0,1,0,0,-0.001,-0.001,0.150999999999999,               237P    285
0.150999999999999,0.199,0.199,1.201,1.201,1.,1.,1.,1.,16.74,18.,     237P    286
1.99,18.26,18.,1.99,16.74,18.,12.01,18.26,18.,12.01,-0.001,          237P    287
0.150999999999999,0.199,1.201;                                       237P    288
128,1,4,1,2,0,0,0,0,0,0.666666666666666,0.666666666666666,4.,4.,     239P    289
0.,0.,0.,1.5707963267949,1.5707963267949,3.14159265358979,           239P    290
3.14159265358979,3.14159265358979,1.,1.,0.707106781186548,           239P    291
0.707106781186548,1.,1.,0.707106781186548,0.707106781186548,1.,      239P    292
1.,16.75,18.,2.,16.75,18.,12.,16.75,21.,2.,16.75,21.,12.,13.75,      239P    293
21.,2.,13.75,21.,12.,10.75,21.,2.,10.75,21.,12.,10.75,18.,2.,        239P    294
10.75,18.,12.,0.666666666666666,4.,0.,3.14159265358979;              239P    295
128,1,1,1,1,0,0,1,0,0,-0.001,-0.001,0.151,0.151,0.199,0.199,         241P    296
1.201,1.201,1.,1.,1.,1.,9.24,18.,1.99,10.76,18.,1.99,9.24,18.,       241P    297
12.01,10.76,18.,12.01,-0.001,0.151,0.199,1.201;                      241P    298
128,1,4,1,2,0,0,0,0,0,0.666666666666667,0.666666666666667,4.,4.,     243P    299
0.,0.,0.,1.5707963267949,1.5707963267949,3.14159265358979,           243P    300
3.14159265358979,3.14159265358979,1.,1.,0.707106781186548,           243P    301
0.707106781186548,1.,1.,0.707106781186548,0.707106781186548,1.,      243P    302
1.,9.25,18.,2.,9.25,18.,12.,9.25,21.,2.,9.25,21.,12.,6.25,21.,       243P    303
2.,6.25,21.,12.,3.25,21.,2.,3.25,21.,12.,3.25,18.,2.,3.25,18.,       243P    304
12.,0.666666666666667,4.,0.,3.14159265358979;                        243P    305
128,1,1,1,1,0,0,1,0,0,-0.001,-0.001,0.326,0.326,0.199,0.199,         245P    306
1.201,1.201,1.,1.,1.,1.,-0.01,18.,1.99,3.26,18.,1.99,-0.01,18.,      245P    307
12.01,3.26,18.,12.01,-0.001,0.326,0.199,1.201;                       245P    308
128,1,1,1,1,0,0,1,0,0,-2.501,-2.501,2.501,2.501,-0.351,-0.351,       247P    309
0.351,0.351,1.,1.,1.,1.,-0.0099999999999989,17.99,12.,50.01,         247P    310
17.99,12.,-0.0099999999999989,25.01,12.,50.01,25.01,12.,-2.501,      247P    311
2.501,-0.351,0.351;                                                  247P    312
128,1,1,1,1,0,0,1,0,0,-0.001,-0.001,2.501,2.501,-0.001,-0.001,       249P    313
1.201,1.201,1.,1.,1.,1.,2.20106279358541D-35,25.01,-0.01,            249P    314
-5.50485804675711D-32,-0.0099999999999989,-0.01,                     249P    315
2.20106279358541D-35,25.01,12.01,-5.50485804675711D-32,              249P    316
-0.0099999999999989,12.01,-0.001,2.501,-0.001,1.201;                 249P    317
128,1,1,1,1,0,0,1,0,0,-2.501,-2.501,2.501,2.501,-1.251,-1.251,       251P    318
1.251,1.251,1.,1.,1.,1.,50.01,-0.0099999999999989,0.,                251P    319
-0.0099999999999989,-0.0099999999999989,0.,50.01,25.01,0.,           251P    320
-0.0099999999999989,25.01,0.,-2.501,2.501,-1.251,1.251;              251P    321
128,1,1,1,1,0,0,1,0,0,-0.001,-0.001,2.501,2.501,-0.001,-0.001,       253P    322
1.201,1.201,1.,1.,1.,1.,50.,-0.01,-0.01,50.,25.01,-0.01,50.,         253P    323
-0.01,12.01,50.,25.01,12.01,-0.001,2.501,-0.001,1.201;               253P    324
128,1,8,1,2,0,1,0,0,1,0.,0.,0.8,0.8,-3.14159265358979,               255P    325
-3.14159265358979,-3.14159265358979,-1.5707963267949,                255P    326
-1.5707963267949,0.,0.,1.5707963267949,1.5707963267949,              255P    327
3.14159265358979,3.14159265358979,3.14159265358979,1.,1.,            255P    328
0.707106781186548,0.707106781186548,1.,1.,0.707106781186548,         255P    329
0.707106781186548,1.,1.,0.707106781186548,0.707106781186548,1.,      255P    330
1.,0.707106781186548,0.707106781186548,1.,1.,9.5,10.,0.,9.5,10.,     255P    331
2.,9.5,7.5,0.,9.5,7.5,2.,12.,7.5,0.,12.,7.5,2.,14.5,7.5,0.,14.5,     255P    332
7.5,2.,14.5,10.,0.,14.5,10.,2.,14.5,12.5,0.,14.5,12.5,2.,12.,        255P    333
12.5,0.,12.,12.5,2.,9.5,12.5,0.,9.5,12.5,2.,9.5,10.,0.,9.5,10.,      255P    334
2.,0.,0.8,-3.14159265358979,3.14159265358979;                        255P    335
128,1,8,1,2,0,1,0,0,1,0.,0.,0.8,0.8,-3.14159265358979,               257P    336
-3.14159265358979,-3.14159265358979,-1.5707963267949,                257P    337
-1.5707963267949,0.,0.,1.5707963267949,1.5707963267949,              257P    338
3.14159265358979,3.14159265358979,3.14159265358979,1.,1.,            257P    339
0.707106781186548,0.707106781186548,1.,1.,0.707106781186548,         257P    340
0.707106781186548,1.,1.,0.707106781186548,0.707106781186548,1.,      257P    341
1.,0.707106781186548,0.707106781186548,1.,1.,35.5,10.,0.,35.5,       257P    342
10.,2.,35.5,7.5,0.,35.5,7.5,2.,38.,7.5,0.,38.,7.5,2.,40.5,7.5,       257P    343
0.,40.5,7.5,2.,40.5,10.,0.,40.5,10.,2.,40.5,12.5,0.,40.5,12.5,       257P    344
2.,38.,12.5,0.,38.,12.5,2.,35.5,12.5,0.,35.5,12.5,2.,35.5,10.,       257P    345
0.,35.5,10.,2.,0.,0.8,-3.14159265358979,3.14159265358979;            257P    346
128,1,1,1,1,0,0,1,0,0,-0.001,-0.001,5.001,5.001,-0.001,-0.001,       259P    347
1.201,1.201,1.,1.,1.,1.,50.01,25.,-0.01,-0.0100000000000033,25.,     259P    348
-0.01,50.01,25.,12.01,-0.0100000000000033,25.,12.01,-0.001,          259P    349
5.001,-0.001,1.201;                                                  259P    350
128,1,1,1,1,0,0,1,0,0,-0.001,-0.001,5.001,5.001,-0.001,-0.001,       261P    351
0.201,0.201,1.,1.,1.,1.,-0.01,0.,-0.01,50.01,0.,-0.01,-0.01,0.,      261P    352
2.01,50.01,0.,2.01,-0.001,5.001,-0.001,0.201;                        261P    353
128,1,1,1,1,0,0,1,0,0,-2.501,-2.501,2.501,2.501,-1.251,-1.251,       263P    354
0.851,0.851,1.,1.,1.,1.,-0.0099999999999989,-0.0099999999999989,     263P    355
2.,50.01,-0.0099999999999989,2.,-0.0099999999999989,21.01,2.,        263P    356
50.01,21.01,2.,-2.501,2.501,-1.251,0.851;                            263P    357
502,40,25.75,18.,2.,24.25,18.,2.,25.75,18.,12.,24.25,18.,12.,        265P    358
31.75,18.,2.,31.75,18.,12.,33.25,18.,2.,33.25,18.,12.,39.25,18.,     265P    359
2.,39.25,18.,12.,40.75,18.,2.,40.75,18.,12.,46.75,18.,2.,46.75,      265P    360
18.,12.,50.,18.,2.,50.,18.,12.,18.25,18.,2.,18.25,18.,12.,16.75,     265P    361
18.,2.,16.75,18.,12.,10.75,18.,2.,10.75,18.,12.,9.25,18.,2.,         265P    362
9.25,18.,12.,3.25,18.,2.,3.25,18.,12.,-1.54074395550979D-32,18.,     265P    363
2.,0.,18.,12.,50.,25.,12.,0.,25.,12.,0.,0.,0.,0.,25.,0.,0.,0.,       265P    364
2.,50.,25.,0.,50.,0.,0.,9.5,10.,0.,35.5,10.,0.,50.,0.,2.,9.5,        265P    365
10.,2.,35.5,10.,2.;                                                  265P    366
504,60,101,265,1,265,2,103,265,1,265,3,105,265,4,265,3,107,265,      267P    367
2,265,4,109,265,5,265,1,111,265,5,265,6,113,265,3,265,6,115,265,     267P    368
7,265,5,117,265,7,265,8,119,265,6,265,8,121,265,9,265,7,123,265,     267P    369
9,265,10,125,265,8,265,10,127,265,11,265,9,129,265,11,265,12,        267P    370
131,265,10,265,12,133,265,13,265,11,135,265,13,265,14,137,265,       267P    371
12,265,14,139,265,15,265,13,141,265,15,265,16,143,265,14,265,16,     267P    372
145,265,2,265,17,147,265,18,265,4,149,265,17,265,18,151,265,17,      267P    373
265,19,153,265,20,265,18,155,265,19,265,20,157,265,19,265,21,        267P    374
159,265,22,265,20,161,265,21,265,22,163,265,21,265,23,165,265,       267P    375
24,265,22,167,265,23,265,24,169,265,23,265,25,171,265,26,265,24,     267P    376
173,265,25,265,26,175,265,25,265,27,177,265,28,265,26,179,265,       267P    377
27,265,28,181,265,16,265,29,183,265,29,265,30,185,265,30,265,28,     267P    378
187,265,31,265,32,189,265,31,265,33,191,265,27,265,33,193,265,       267P    379
32,265,30,195,265,32,265,34,197,265,35,265,34,199,265,31,265,35,     267P    380
201,265,36,265,36,203,265,37,265,37,205,265,38,265,15,207,265,       267P    381
35,265,38,209,265,34,265,29,211,265,39,265,39,213,265,39,265,36,     267P    382
215,265,40,265,40,217,265,40,265,37,219,265,33,265,38;               267P    383
406,1,5HBody1;                                                       269P    384
314,62.7450980392157,62.7450980392157,62.7450980392157,13HSteel      271P    385
- Satin;                                                             271P    386
S      1G      3D    272P    386                                        T      1
