                                                                        S      1
,,17HPicture Spacer v2,17HPicture Spacer v2,7Hunknown,7Hunknown,32,38,7,G      1
99,15,,1.,2,2HMM,1,0.08,15H20220922.115152,0.01,10000.,7Hunknown,7HunknoG      2
wn,11,0,15H20200813.145707;                                             G      3
     186       1                                                00000000D      1
     186             -71       1       0                               0D      2
     514       2                                                00010000D      3
     514                       1       1                               0D      4
     510       3                                                00010000D      5
     510             -71       1       1                               0D      6
     510       4                                                00010000D      7
     510             -71       1       1                               0D      8
     510       5                                                00010000D      9
     510             -71       1       1                               0D     10
     510       6                                                00010000D     11
     510             -71       1       1                               0D     12
     510       7                                                00010000D     13
     510             -71       1       1                               0D     14
     510       8                                                00010000D     15
     510             -71       1       1                               0D     16
     508       9                                                00010000D     17
     508                       1       1                               0D     18
     508      10                                                00010000D     19
     508                       1       1                               0D     20
     508      11                                                00010000D     21
     508                       1       1                               0D     22
     508      12                                                00010000D     23
     508                       1       1                               0D     24
     508      13                                                00010000D     25
     508                       1       1                               0D     26
     508      14                                                00010000D     27
     508                       1       1                               0D     28
     508      15                                                00010000D     29
     508                       1       1                               0D     30
     508      16                                                00010000D     31
     508                       1       1                               0D     32
     508      17                                                00010000D     33
     508                       1       1                               0D     34
     126      18                                                00010000D     35
     126       0               9       0                               0D     36
     126      27                                                00010000D     37
     126       0               2       0                               0D     38
     126      29                                                00010000D     39
     126       0               9       0                               0D     40
     126      38                                                00010000D     41
     126       0              10       0                               0D     42
     126      48                                                00010000D     43
     126       0               2       0                               0D     44
     126      50                                                00010000D     45
     126       0               9       0                               0D     46
     126      59                                                00010000D     47
     126       0               9       0                               0D     48
     126      68                                                00010000D     49
     126       0               2       0                               0D     50
     126      70                                                00010000D     51
     126       0               9       0                               0D     52
     128      79                                                00010000D     53
     128       0     -71      11       0                               0D     54
     128      90                                                00010000D     55
     128       0     -71      11       0                               0D     56
     128     101                                                00010000D     57
     128       0     -71       3       0                               0D     58
     128     104                                                00010000D     59
     128       0     -71      11       0                               0D     60
     128     115                                                00010000D     61
     128       0     -71       3       0                               0D     62
     128     118                                                00010000D     63
     128       0     -71       3       0                               0D     64
     502     121                                                00010000D     65
     502                       3       1                               0D     66
     504     124                                                00010001D     67
     504                       2       1                               0D     68
     406     126                                                00000000D     69
     406                       1      15                               0D     70
     314     127                                                00000200D     71
     314                       2       0                               0D     72
186,3,1,0,0,1,69;                                                      1P      1
514,6,5,1,7,1,9,1,11,1,13,1,15,1;                                      3P      2
510,53,1,1,17;                                                         5P      3
510,55,1,1,19;                                                         7P      4
510,57,2,1,21,23;                                                      9P      5
510,59,1,1,25;                                                        11P      6
510,61,2,1,27,29;                                                     13P      7
510,63,2,1,31,33;                                                     15P      8
508,4,0,67,1,0,0,0,67,2,1,0,0,67,3,0,0,0,67,2,0,0;                    17P      9
508,4,0,67,4,0,0,0,67,5,1,0,0,67,6,1,0,0,67,5,0,0;                    19P     10
508,1,0,67,4,1,0;                                                     21P     11
508,1,0,67,1,1,0;                                                     23P     12
508,4,0,67,7,0,0,0,67,8,1,0,0,67,9,1,0,0,67,8,0,0;                    25P     13
508,1,0,67,3,1,0;                                                     27P     14
508,1,0,67,7,1,0;                                                     29P     15
508,1,0,67,6,0,0;                                                     31P     16
508,1,0,67,9,0,0;                                                     33P     17
126,8,2,0,1,0,0,-3.14159265358979,-3.14159265358979,                  35P     18
-3.14159265358979,-1.5707963267949,-1.5707963267949,0.,0.,            35P     19
1.5707963267949,1.5707963267949,3.14159265358979,                     35P     20
3.14159265358979,3.14159265358979,1.,0.707106781186547,1.,            35P     21
0.707106781186547,1.,0.707106781186547,1.,0.707106781186547,1.,       35P     22
-6.,7.34788079488412D-16,12.,-6.,6.,12.,3.67394039744206D-16,6.,      35P     23
12.,6.,6.,12.,6.,0.,12.,6.,-6.,12.,3.67394039744206D-16,-6.,12.,      35P     24
-6.,-6.,12.,-6.,-7.34788079488412D-16,12.,-3.14159265358979,          35P     25
3.14159265358979,0.,0.,0.;                                            35P     26
126,1,1,0,0,1,0,-2.,-2.,-0.333333333333333,-0.333333333333333,        37P     27
1.,1.,-6.,0.,12.,-6.,0.,2.,-2.,-0.333333333333333,0.,0.,0.;           37P     28
126,8,2,0,1,0,0,-3.14159265358979,-3.14159265358979,                  39P     29
-3.14159265358979,-1.5707963267949,-1.5707963267949,0.,0.,            39P     30
1.5707963267949,1.5707963267949,3.14159265358979,                     39P     31
3.14159265358979,3.14159265358979,1.,0.707106781186547,1.,            39P     32
0.707106781186547,1.,0.707106781186547,1.,0.707106781186547,1.,       39P     33
-6.,-7.34788079488412D-16,2.,-6.,-6.,2.,3.67394039744206D-16,         39P     34
-6.,2.,6.,-6.,2.,6.,0.,2.,6.,6.,2.,3.67394039744206D-16,6.,2.,        39P     35
-6.,6.,2.,-6.,7.34788079488412D-16,2.,-3.14159265358979,              39P     36
3.14159265358979,0.,0.,0.;                                            39P     37
126,8,2,0,1,0,0,-3.14159265358979,-3.14159265358979,                  41P     38
-3.14159265358979,-1.5707963267949,-1.5707963267949,0.,0.,            41P     39
1.5707963267949,1.5707963267949,3.14159265358979,                     41P     40
3.14159265358979,3.14159265358979,1.,0.707106781186548,1.,            41P     41
0.707106781186548,1.,0.707106781186548,1.,0.707106781186548,1.,       41P     42
-7.5,-9.18485099360515D-16,12.,-7.5,-7.5,12.,                         41P     43
4.59242549680257D-16,-7.5,12.,7.5,-7.5,12.,7.5,0.,12.,7.5,7.5,        41P     44
12.,4.59242549680257D-16,7.5,12.,-7.5,7.5,12.,-7.5,                   41P     45
9.18485099360515D-16,12.,-3.14159265358979,3.14159265358979,0.,       41P     46
0.,0.;                                                                41P     47
126,1,1,0,0,1,0,-1.6,-1.6,0.,0.,1.,1.,-7.5,0.,12.,-7.5,0.,0.,         43P     48
-1.6,0.,0.,0.,0.;                                                     43P     49
126,8,2,0,1,0,0,-3.14159265358979,-3.14159265358979,                  45P     50
-3.14159265358979,-1.5707963267949,-1.5707963267949,0.,0.,            45P     51
1.5707963267949,1.5707963267949,3.14159265358979,                     45P     52
3.14159265358979,3.14159265358979,1.,0.707106781186548,1.,            45P     53
0.707106781186548,1.,0.707106781186548,1.,0.707106781186548,1.,       45P     54
-7.5,-9.18485099360515D-16,0.,-7.5,-7.5,0.,4.59242549680257D-16,      45P     55
-7.5,0.,7.5,-7.5,0.,7.5,0.,0.,7.5,7.5,0.,4.59242549680257D-16,        45P     56
7.5,0.,-7.5,7.5,0.,-7.5,9.18485099360515D-16,0.,                      45P     57
-3.14159265358979,3.14159265358979,0.,0.,0.;                          45P     58
126,8,2,0,1,0,0,-3.14159265358979,-3.14159265358979,                  47P     59
-3.14159265358979,-1.5707963267949,-1.5707963267949,0.,0.,            47P     60
1.5707963267949,1.5707963267949,3.14159265358979,                     47P     61
3.14159265358979,3.14159265358979,1.,0.707106781186548,1.,            47P     62
0.707106781186548,1.,0.707106781186548,1.,0.707106781186548,1.,       47P     63
-2.,2.44929359829471D-16,2.,-2.,2.,2.,1.22464679914735D-16,2.,        47P     64
2.,2.,2.,2.,2.,0.,2.,2.,-2.,2.,1.22464679914735D-16,-2.,2.,-2.,       47P     65
-2.,2.,-2.,-2.44929359829471D-16,2.,-3.14159265358979,                47P     66
3.14159265358979,0.,0.,0.;                                            47P     67
126,1,1,0,0,1,0,-1.,-1.,0.,0.,1.,1.,-2.,0.,2.,-2.,0.,0.,-1.,0.,       49P     68
0.,0.,0.;                                                             49P     69
126,8,2,0,1,0,0,-3.14159265358979,-3.14159265358979,                  51P     70
-3.14159265358979,-1.5707963267949,-1.5707963267949,0.,0.,            51P     71
1.5707963267949,1.5707963267949,3.14159265358979,                     51P     72
3.14159265358979,3.14159265358979,1.,0.707106781186548,1.,            51P     73
0.707106781186548,1.,0.707106781186548,1.,0.707106781186548,1.,       51P     74
-2.,2.44929359829471D-16,0.,-2.,2.,0.,1.22464679914735D-16,2.,        51P     75
0.,2.,2.,0.,2.,0.,0.,2.,-2.,0.,1.22464679914735D-16,-2.,0.,-2.,       51P     76
-2.,0.,-2.,-2.44929359829471D-16,0.,-3.14159265358979,                51P     77
3.14159265358979,0.,0.,0.;                                            51P     78
128,1,8,1,2,0,1,0,0,1,0.333333333333333,0.333333333333333,2.,2.,      53P     79
-3.14159265358979,-3.14159265358979,-3.14159265358979,                53P     80
-1.5707963267949,-1.5707963267949,0.,0.,1.5707963267949,              53P     81
1.5707963267949,3.14159265358979,3.14159265358979,                    53P     82
3.14159265358979,1.,1.,0.707106781186548,0.707106781186548,1.,        53P     83
1.,0.707106781186548,0.707106781186548,1.,1.,0.707106781186548,       53P     84
0.707106781186548,1.,1.,0.707106781186548,0.707106781186548,1.,       53P     85
1.,-6.,0.,2.,-6.,0.,12.,-6.,-6.,2.,-6.,-6.,12.,0.,-6.,2.,0.,-6.,      53P     86
12.,6.,-6.,2.,6.,-6.,12.,6.,0.,2.,6.,0.,12.,6.,6.,2.,6.,6.,12.,       53P     87
0.,6.,2.,0.,6.,12.,-6.,6.,2.,-6.,6.,12.,-6.,0.,2.,-6.,0.,12.,         53P     88
0.333333333333333,2.,-3.14159265358979,3.14159265358979;              53P     89
128,1,8,1,2,0,1,0,0,1,0.,0.,1.6,1.6,-3.14159265358979,                55P     90
-3.14159265358979,-3.14159265358979,-1.5707963267949,                 55P     91
-1.5707963267949,0.,0.,1.5707963267949,1.5707963267949,               55P     92
3.14159265358979,3.14159265358979,3.14159265358979,1.,1.,             55P     93
0.707106781186548,0.707106781186548,1.,1.,0.707106781186548,          55P     94
0.707106781186548,1.,1.,0.707106781186548,0.707106781186548,1.,       55P     95
1.,0.707106781186548,0.707106781186548,1.,1.,-7.5,0.,12.,-7.5,        55P     96
0.,0.,-7.5,-7.5,12.,-7.5,-7.5,0.,0.,-7.5,12.,0.,-7.5,0.,7.5,          55P     97
-7.5,12.,7.5,-7.5,0.,7.5,0.,12.,7.5,0.,0.,7.5,7.5,12.,7.5,7.5,        55P     98
0.,0.,7.5,12.,0.,7.5,0.,-7.5,7.5,12.,-7.5,7.5,0.,-7.5,0.,12.,         55P     99
-7.5,0.,0.,0.,1.6,-3.14159265358979,3.14159265358979;                 55P    100
128,1,1,1,1,0,0,1,0,0,-0.751,-0.751,0.751,0.751,-0.751,-0.751,        57P    101
0.751,0.751,1.,1.,1.,1.,-7.51,-7.51,12.,7.51,-7.51,12.,-7.51,         57P    102
7.51,12.,7.51,7.51,12.,-0.751,0.751,-0.751,0.751;                     57P    103
128,1,8,1,2,0,1,0,0,1,0.,0.,1.,1.,-3.14159265358979,                  59P    104
-3.14159265358979,-3.14159265358979,-1.5707963267949,                 59P    105
-1.5707963267949,0.,0.,1.5707963267949,1.5707963267949,               59P    106
3.14159265358979,3.14159265358979,3.14159265358979,1.,1.,             59P    107
0.707106781186548,0.707106781186548,1.,1.,0.707106781186548,          59P    108
0.707106781186548,1.,1.,0.707106781186548,0.707106781186548,1.,       59P    109
1.,0.707106781186548,0.707106781186548,1.,1.,-2.,0.,0.,-2.,0.,        59P    110
2.,-2.,-2.,0.,-2.,-2.,2.,0.,-2.,0.,0.,-2.,2.,2.,-2.,0.,2.,-2.,        59P    111
2.,2.,0.,0.,2.,0.,2.,2.,2.,0.,2.,2.,2.,0.,2.,0.,0.,2.,2.,-2.,2.,      59P    112
0.,-2.,2.,2.,-2.,0.,0.,-2.,0.,2.,0.,1.,-3.14159265358979,             59P    113
3.14159265358979;                                                     59P    114
128,1,1,1,1,0,0,1,0,0,-0.601,-0.601,0.601,0.601,-0.601,-0.601,        61P    115
0.601,0.601,1.,1.,1.,1.,-6.01,-6.01,2.,6.01,-6.01,2.,-6.01,6.01,      61P    116
2.,6.01,6.01,2.,-0.601,0.601,-0.601,0.601;                            61P    117
128,1,1,1,1,0,0,1,0,0,-0.751,-0.751,0.751,0.751,-0.751,-0.751,        63P    118
0.751,0.751,1.,1.,1.,1.,7.51,-7.51,0.,-7.51,-7.51,0.,7.51,7.51,       63P    119
0.,-7.51,7.51,0.,-0.751,0.751,-0.751,0.751;                           63P    120
502,6,-6.,-7.34788079488412D-16,12.,-6.,-7.34788079488412D-16,        65P    121
2.,-7.5,-9.18485099360515D-16,12.,-7.5,-9.18485099360515D-16,0.,      65P    122
-2.,-2.44929359829471D-16,2.,-2.,-2.44929359829471D-16,0.;            65P    123
504,9,35,65,1,65,1,37,65,1,65,2,39,65,2,65,2,41,65,3,65,3,43,65,      67P    124
3,65,4,45,65,4,65,4,47,65,5,65,5,49,65,5,65,6,51,65,6,65,6;           67P    125
406,1,5HBody1;                                                        69P    126
314,62.7450980392157,62.7450980392157,62.7450980392157,13HSteel       71P    127
- Satin;                                                              71P    128
S      1G      3D     72P    128                                        T      1
