0
SECTION
2
HEADER
9
$INSUNITS
70
4
9
$ACADVER
1
AC1014
9
$HANDSEED
5
FFFF
0
ENDSEC
0
SECTION
2
TABLES
0
TABLE
2
VPORT
5
8
100
AcDbSymbolTable
0
ENDTAB
0
TABLE
2
LTYPE
5
5
100
AcDbSymbolTable
0
LTYPE
5
14
100
AcDbSymbolTableRecord
100
AcDbLinetypeTableRecord
2
BYBLOCK
70
0
0
LTYPE
5
15
100
AcDbSymbolTableRecord
100
AcDbLinetypeTableRecord
2
BYLAYER
70
0
0
ENDTAB
0
TABLE
2
LAYER
5
2
100
AcDbSymbolTable
70
2
0
LAYER
5
50
100
AcDbSymbolTableRecord
100
AcDbLayerTableRecord
2
0
70
0
6
CONTINUOUS
0
ENDTAB
0
TABLE
2
STYLE
5
3
100
AcDbSymbolTable
70
1
0
STYLE
5
11
100
AcDbSymbolTableRecord
100
AcDbTextStyleTableRecord
2
STANDARD
70
0
0
ENDTAB
0
TABLE
2
VIEW
5
6
100
AcDbSymbolTable
70
0
0
ENDTAB
0
TABLE
2
UCS
5
7
100
AcDbSymbolTable
70
0
0
ENDTAB
0
TABLE
2
APPID
5
9
100
AcDbSymbolTable
70
2
0
APPID
5
12
100
AcDbSymbolTableRecord
100
AcDbRegAppTableRecord
2
ACAD
70
0
0
ENDTAB
0
TABLE
2
DIMSTYLE
5
A
100
AcDbSymbolTable
70
1
0
ENDTAB
0
TABLE
2
BLOCK_RECORD
5
1
100
AcDbSymbolTable
70
1
0
BLOCK_RECORD
5
1F
100
AcDbSymbolTableRecord
100
AcDbBlockTableRecord
2
*MODEL_SPACE
0
BLOCK_RECORD
5
1B
100
AcDbSymbolTableRecord
100
AcDbBlockTableRecord
2
*PAPER_SPACE
0
ENDTAB
0
ENDSEC
0
SECTION
2
BLOCKS
0
BLOCK
5
20
100
AcDbEntity
100
AcDbBlockBegin
2
*MODEL_SPACE
0
ENDBLK
5
21
100
AcDbEntity
100
AcDbBlockEnd
0
BLOCK
5
1C
100
AcDbEntity
100
AcDbBlockBegin
2
*PAPER_SPACE
0
ENDBLK
5
1D
100
AcDbEntity
100
AcDbBlockEnd
0
ENDSEC
0
SECTION
2
ENTITIES
0
CIRCLE
5
100
100
AcDbEntity
8
0
100
AcDbCircle
10
-50
20
9.4999999999999964
30
0
40
1.5000000000000036
210
0
220
0
230
1
0
CIRCLE
5
101
100
AcDbEntity
8
0
100
AcDbCircle
10
-50.000000000000028
20
-109.50000000000004
30
0
40
1.5000000000000036
210
0
220
0
230
1
0
LWPOLYLINE
5
102
100
AcDbEntity
8
0
100
AcDbPolyline
90
28
70
1
43
0.0
10
-51.000000000000007
20
0
10
-51.000000000000007
20
-3.0000000000000004
10
-49
20
-3.0000000000000004
10
-49
20
0
10
0
20
0
10
0
20
-25
10
-2.9999999999999982
20
-25
10
-2.9999999999999982
20
-27
10
0
20
-27
10
0
20
-73
10
-2.9999999999999982
20
-73
10
-2.9999999999999982
20
-75
10
0
20
-75
10
0
20
-100
10
-49
20
-100
10
-49
20
-97
10
-51.000000000000007
20
-97
10
-51.000000000000007
20
-100
10
-100
20
-100
10
-100
20
-75
10
-97
20
-75
10
-97
20
-73
10
-100
20
-73
10
-100
20
-27
10
-97
20
-27
10
-97
20
-25
10
-100
20
-25
10
-100
20
0
0
LWPOLYLINE
5
103
100
AcDbEntity
8
0
100
AcDbPolyline
90
16
70
1
43
0.0
10
-37.500000000000007
20
7.9999999999999982
42
0.41421356237309453
10
-46.5
20
17
10
-53.5
20
16.999999999999996
42
0.41421356237309431
10
-62.5
20
7.9999999999999964
10
-62.5
20
1.9999999999999973
10
-102
20
1.9999999999999996
10
-102
20
-102
10
-62.5
20
-102
10
-62.5
20
-108
42
0.4142135623730962
10
-53.5
20
-117.00000000000001
10
-46.5
20
-117
42
0.41421356237309476
10
-37.499999999999993
20
-108
10
-37.5
20
-102
10
2.0000000000000018
20
-102
10
2.0000000000000018
20
1.9999999999999929
10
-37.5
20
1.9999999999999973
0
CIRCLE
5
104
100
AcDbEntity
8
0
100
AcDbCircle
10
-50.000000000000028
20
-109.50000000000004
30
0
40
1.5000000000000047
210
0
220
0
230
1
0
CIRCLE
5
105
100
AcDbEntity
8
0
100
AcDbCircle
10
-50
20
9.4999999999999964
30
0
40
1.5000000000000036
210
0
220
0
230
1
0
LWPOLYLINE
5
106
100
AcDbEntity
8
0
100
AcDbPolyline
90
15
70
1
43
0.0
10
-60.000000000000028
20
-114.50000000000004
10
-40.000000000000028
20
-114.50000000000004
10
-40.000000000000028
20
-104.50000000000004
10
-60
20
-104.50000000000004
10
-60
20
4.4999999999999973
10
-60
20
14.499999999999996
10
-40
20
4.4999999999999973
10
-60
20
4.4999999999999973
10
-40.000000000000028
20
4.4999999999999929
10
-40.000000000000028
20
-104.50000000000004
10
-60.000000000000028
20
-104.50000000000004
10
-60.000000000000028
20
-97.000000000000043
10
-40.000000000000028
20
-97.000000000000043
10
-40.000000000000028
20
-104.50000000000004
10
-60.000000000000028
20
-104.50000000000004
0
LINE
5
107
100
AcDbEntity
8
0
100
AcDbLine
10
-60.000000000000028
20
-114.50000000000004
30
0
11
-40.000000000000028
21
-104.50000000000004
31
0
0
LINE
5
108
100
AcDbEntity
8
0
100
AcDbLine
10
-40.000000000000028
20
-114.50000000000004
30
0
11
-60.000000000000028
21
-104.50000000000004
31
0
0
LINE
5
109
100
AcDbEntity
8
0
100
AcDbLine
10
-60
20
14.499999999999996
30
0
11
-40
21
14.499999999999996
31
0
0
LINE
5
110
100
AcDbEntity
8
0
100
AcDbLine
10
-40
20
14.499999999999996
30
0
11
-40
21
4.4999999999999973
31
0
0
LINE
5
111
100
AcDbEntity
8
0
100
AcDbLine
10
-40
20
14.499999999999996
30
0
11
-60
21
4.4999999999999973
31
0
0
LWPOLYLINE
5
112
100
AcDbEntity
8
0
100
AcDbPolyline
90
4
70
1
43
0.0
10
-40
20
4.4999999999999973
10
-60
20
4.4999999999999973
10
-60
20
-3.0000000000000027
10
-40
20
-3.0000000000000027
0
ENDSEC
0
SECTION
2
OBJECTS
0
DICTIONARY
5
C
100
AcDbDictionary
3
ACAD_GROUP
350
D
3
ACAD_MLINESTYLE
350
17
0
DICTIONARY
5
D
100
AcDbDictionary
0
DICTIONARY
5
1A
330
C
100
AcDbDictionary
0
DICTIONARY
5
17
100
AcDbDictionary
0
ENDSEC
0
EOF
