                                                                        S      1
,,15HVacuum Mount v1,15HVacuum Mount v1,7Hunknown,7Hunknown,32,38,7,99, G      1
15,,1.,2,2HMM,1,0.08,15H20220922.115306,0.01,10000.,7Hunknown,7Hunknown,G      2
11,0,15H20191002.215315;                                                G      3
     186       1                                                00000000D      1
     186            -111       1       0                               0D      2
     514       2                                                00010000D      3
     514                       1       1                               0D      4
     510       3                                                00010000D      5
     510            -111       1       1                               0D      6
     510       4                                                00010000D      7
     510            -111       1       1                               0D      8
     510       5                                                00010000D      9
     510            -111       1       1                               0D     10
     510       6                                                00010000D     11
     510            -111       1       1                               0D     12
     510       7                                                00010000D     13
     510            -111       1       1                               0D     14
     510       8                                                00010000D     15
     510            -111       1       1                               0D     16
     510       9                                                00010000D     17
     510            -111       1       1                               0D     18
     510      10                                                00010000D     19
     510            -111       1       1                               0D     20
     508      11                                                00010000D     21
     508                       2       1                               0D     22
     508      13                                                00010000D     23
     508                       1       1                               0D     24
     508      14                                                00010000D     25
     508                       1       1                               0D     26
     508      15                                                00010000D     27
     508                       1       1                               0D     28
     508      16                                                00010000D     29
     508                       1       1                               0D     30
     508      17                                                00010000D     31
     508                       2       1                               0D     32
     508      19                                                00010000D     33
     508                       1       1                               0D     34
     508      20                                                00010000D     35
     508                       2       1                               0D     36
     508      22                                                00010000D     37
     508                       1       1                               0D     38
     508      23                                                00010000D     39
     508                       1       1                               0D     40
     508      24                                                00010000D     41
     508                       1       1                               0D     42
     508      25                                                00010000D     43
     508                       1       1                               0D     44
     508      26                                                00010000D     45
     508                       1       1                               0D     46
     126      27                                                00010000D     47
     126       0              16       0                               0D     48
     126      43                                                00010000D     49
     126       0               4       0                               0D     50
     126      47                                                00010000D     51
     126       0              18       0                               0D     52
     126      65                                                00010000D     53
     126       0              31       0                               0D     54
     126      96                                                00010000D     55
     126       0              16       0                               0D     56
     126     112                                                00010000D     57
     126       0              17       0                               0D     58
     126     129                                                00010000D     59
     126       0              30       0                               0D     60
     126     159                                                00010000D     61
     126       0              54       0                               0D     62
     126     213                                                00010000D     63
     126       0               4       0                               0D     64
     126     217                                                00010000D     65
     126       0              54       0                               0D     66
     126     271                                                00010000D     67
     126       0              10       0                               0D     68
     126     281                                                00010000D     69
     126       0               2       0                               0D     70
     126     283                                                00010000D     71
     126       0              10       0                               0D     72
     126     293                                                00010000D     73
     126       0              10       0                               0D     74
     126     303                                                00010000D     75
     126       0               4       0                               0D     76
     126     307                                                00010000D     77
     126       0               2       0                               0D     78
     126     309                                                00010000D     79
     126       0              10       0                               0D     80
     126     319                                                00010000D     81
     126       0              10       0                               0D     82
     126     329                                                00010000D     83
     126       0               4       0                               0D     84
     126     333                                                00010000D     85
     126       0               3       0                               0D     86
     126     336                                                00010000D     87
     126       0               9       0                               0D     88
     128     345                                                00010000D     89
     128       0    -111      15       0                               0D     90
     128     360                                                00010000D     91
     128       0    -111      14       0                               0D     92
     128     374                                                00010000D     93
     128       0    -111      12       0                               0D     94
     128     386                                                00010000D     95
     128       0    -111       3       0                               0D     96
     128     389                                                00010000D     97
     128       0    -111      13       0                               0D     98
     128     402                                                00010000D     99
     128       0    -111      12       0                               0D    100
     128     414                                                00010000D    101
     128       0    -111       3       0                               0D    102
     128     417                                                00010000D    103
     128       0    -111       3       0                               0D    104
     502     420                                                00010000D    105
     502                       8       1                               0D    106
     504     428                                                00010001D    107
     504                       6       1                               0D    108
     406     434                                                00000000D    109
     406                       1      15                               0D    110
     314     435                                                00000200D    111
     314                       2       0                               0D    112
186,3,1,0,0,1,109;                                                     1P      1
514,8,5,1,7,1,9,1,11,1,13,1,15,1,17,1,19,1;                            3P      2
510,89,1,1,21;                                                         5P      3
510,91,1,1,23;                                                         7P      4
510,93,1,1,25;                                                         9P      5
510,95,2,1,27,29;                                                     11P      6
510,97,2,1,31,33;                                                     13P      7
510,99,2,1,35,37;                                                     15P      8
510,101,2,1,39,41;                                                    17P      9
510,103,2,1,43,45;                                                    19P     10
508,8,0,107,1,0,0,0,107,2,1,0,0,107,3,0,0,0,107,4,0,0,0,107,5,0,      21P     11
0,0,107,2,0,0,0,107,6,0,0,0,107,7,0,0;                                21P     12
508,4,0,107,8,0,0,0,107,9,1,0,0,107,10,0,0,0,107,9,0,0;               23P     13
508,4,0,107,11,0,0,0,107,12,1,0,0,107,13,1,0,0,107,12,0,0;            25P     14
508,1,0,107,14,0,0;                                                   27P     15
508,1,0,107,13,0,0;                                                   29P     16
508,9,0,107,14,1,0,0,107,15,1,0,0,107,3,1,0,0,107,5,1,0,0,107,        31P     17
16,1,0,0,107,17,1,0,0,107,16,0,0,0,107,4,1,0,0,107,15,0,0;            31P     18
508,1,0,107,8,1,0;                                                    33P     19
508,9,0,107,18,0,0,0,107,19,1,0,0,107,7,1,0,0,107,20,1,0,0,107,       35P     20
21,1,0,0,107,20,0,0,0,107,6,1,0,0,107,1,1,0,0,107,19,0,0;             35P     21
508,1,0,107,10,1,0;                                                   37P     22
508,1,0,107,18,1,0;                                                   39P     23
508,1,0,107,11,1,0;                                                   41P     24
508,1,0,107,21,0,0;                                                   43P     25
508,1,0,107,17,0,0;                                                   45P     26
126,11,3,0,0,1,0,0.,0.,0.,0.,0.0844740436031713,                      47P     27
0.0844740436031713,0.168948087206343,0.168948087206343,               47P     28
0.337896174412685,0.337896174412685,0.600050879070105,                47P     29
0.600050879070105,0.862205583727524,0.862205583727524,                47P     30
0.862205583727524,0.862205583727524,1.,1.,1.,1.,1.,1.,1.,1.,1.,       47P     31
1.,1.,1.,-26.1426375869001,14.5,-6.75,-26.1426375869001,              47P     32
14.7815801453439,-6.75,-26.1531282296666,15.0656003144543,            47P     33
-6.70973200721861,-26.1930912921355,15.617874692746,                  47P     34
-6.55199117550908,-26.2224897805301,15.8861588336824,                 47P     35
-6.43460442375918,-26.3286667161823,16.6425056169962,                 47P     36
-5.99113717761836,-26.423070221866,17.0817843671305,                  47P     37
-5.5696775409688,-26.6398886699817,17.9553477565425,                  47P     38
-4.44946661825065,-26.7729895720692,18.3586882945438,                 47P     39
-3.60748678085178,-26.9535626995227,18.8819270814012,                 47P     40
-1.81999707521916,-27.,19.,-0.873849015524733,-27.,19.,               47P     41
-1.94289029309402D-15,0.,0.862205583727524,0.,0.,0.;                  47P     42
126,1,1,0,0,1,0,-3.87298334620742,-3.87298334620742,                  49P     43
-3.6046000179545,-3.6046000179545,1.,1.,-26.1426375869001,14.5,       49P     44
-6.75,-24.3310501211929,14.5,-6.75,-3.87298334620742,                 49P     45
-3.6046000179545,0.,0.,0.;                                            49P     46
126,11,3,0,0,1,0,2.59043073195042,2.59043073195042,                   51P     47
2.59043073195042,2.59043073195042,2.83047303011067,                   51P     48
2.83047303011067,3.07051532827092,3.07051532827092,                   51P     49
3.26264061856865,3.26264061856865,3.35870326371751,                   51P     50
3.35870326371751,3.45476590886638,3.45476590886638,                   51P     51
3.45476590886638,3.45476590886638,1.,1.,1.,1.,1.,1.,1.,1.,1.,1.,      51P     52
1.,1.,-25.25,19.,1.38777878078145D-16,-25.25,19.,                     51P     53
-0.800140993867496,-25.2085735105657,18.9007239640899,                51P     54
-1.66854480184625,-25.0438172729234,18.4606363573597,                 51P     55
-3.32617446388807,-24.9213274627681,18.1202330022678,                 51P     56
-4.11559204261672,-24.693498709737,17.331211559534,                   51P     57
-5.29912420671733,-24.5752913634578,16.8674215401493,                 51P     58
-5.81014280761753,-24.4379742780975,16.0464631302551,                 51P     59
-6.35475924077694,-24.3991121208437,15.7520922080318,                 51P     60
-6.50048539518284,-24.3455937336297,15.1389802494946,                 51P     61
-6.69813768303506,-24.3310501211929,14.8202088171629,-6.75,           51P     62
-24.3310501211929,14.5,-6.75,2.59043073195042,3.45476590886638,       51P     63
0.,0.,0.;                                                             51P     64
126,21,3,0,0,1,0,0.863047777517236,0.863047777517236,                 53P     65
0.863047777517236,0.863047777517236,1.12540179875176,                 53P     66
1.12540179875176,1.38775581998628,1.38775581998628,                   53P     67
1.55692568751038,1.55692568751038,1.64151062127243,                   53P     68
1.64151062127243,1.72609555503447,1.72609555503447,                   53P     69
1.82215820018334,1.82215820018334,1.9182208453322,                    53P     70
1.9182208453322,2.11034613562993,2.11034613562993,                    53P     71
2.35038843379018,2.35038843379018,2.59043073195042,                   53P     72
2.59043073195042,2.59043073195042,2.59043073195042,1.,1.,1.,1.,       53P     73
1.,1.,1.,1.,1.,1.,1.,1.,1.,1.,1.,1.,1.,1.,1.,1.,1.,1.,-25.25,         53P     74
10.,8.32667268468867D-16,-25.25,10.,0.874513404115077,                53P     75
-25.2002825837397,10.1182702851768,1.82104479519922,                  53P     76
-25.0070053759736,10.641671347458,3.60834151730713,                   53P     77
-24.8645382550193,11.0449591420275,4.44976401494447,                  53P     78
-24.6322375838863,11.9178142005643,5.5692247314275,                   53P     79
-24.5309725816698,12.3568261840624,5.99058681104086,                  53P     80
-24.4169359601063,13.1130324820833,6.43420938114124,                  53P     81
-24.3853339524289,13.381319706437,6.55169337410245,                   53P     82
-24.3423506794993,13.9338130599341,6.70963198995331,                  53P     83
-24.3310501211929,14.2180502207932,6.75,-24.3310501211929,            53P     84
14.8202088171629,6.75,-24.3455937336297,15.1389802494946,             53P     85
6.69813768303506,-24.3991121208437,15.7520922080318,                  53P     86
6.50048539518284,-24.4379742780975,16.0464631302551,                  53P     87
6.35475924077694,-24.5752913634578,16.8674215401493,                  53P     88
5.81014280761753,-24.693498709737,17.331211559534,                    53P     89
5.29912420671733,-24.9213274627681,18.1202330022678,                  53P     90
4.11559204261672,-25.0438172729234,18.4606363573597,                  53P     91
3.32617446388807,-25.2085735105657,18.9007239640899,                  53P     92
1.66854480184625,-25.25,19.,0.800140993867496,-25.25,19.,             53P     93
2.77555756156289D-16,0.863047777517236,2.59043073195042,0.,0.,        53P     94
0.;                                                                   53P     95
126,11,3,0,0,1,0,0.,0.,0.,0.,0.0845849337620476,                      55P     96
0.0845849337620476,0.169169867524095,0.169169867524095,               55P     97
0.33833973504819,0.33833973504819,0.600693756282713,                  55P     98
0.600693756282713,0.863047777517236,0.863047777517236,                55P     99
0.863047777517236,0.863047777517236,1.,1.,1.,1.,1.,1.,1.,1.,1.,       55P    100
1.,1.,1.,-24.3310501211929,14.5,-6.75,-24.3310501211929,              55P    101
14.2180502207932,-6.75,-24.3423506794993,13.9338130599341,            55P    102
-6.70963198995331,-24.3853339524289,13.381319706437,                  55P    103
-6.55169337410245,-24.4169359601063,13.1130324820833,                 55P    104
-6.43420938114124,-24.5309725816698,12.3568261840624,                 55P    105
-5.99058681104086,-24.6322375838863,11.9178142005643,                 55P    106
-5.56922473142751,-24.8645382550193,11.0449591420275,                 55P    107
-4.44976401494448,-25.0070053759736,10.641671347458,                  55P    108
-3.60834151730713,-25.2002825837397,10.1182702851768,                 55P    109
-1.82104479519922,-25.25,10.,-0.874513404115076,-25.25,10.,           55P    110
2.77555756156289D-16,0.,0.863047777517236,0.,0.,0.;                   55P    111
126,11,3,0,0,1,0,2.58661675118257,2.58661675118257,                   57P    112
2.58661675118257,2.58661675118257,2.84877145583999,                   57P    113
2.84877145583999,3.11092616049741,3.11092616049741,                   57P    114
3.27987424770375,3.27987424770375,3.36434829130693,                   57P    115
3.36434829130693,3.4488223349101,3.4488223349101,                     57P    116
3.4488223349101,3.4488223349101,1.,1.,1.,1.,1.,1.,1.,1.,1.,1.,        57P    117
1.,1.,-27.,10.,1.94289029309402D-15,-27.,10.,-0.87384901552473,       57P    118
-26.9535626995227,10.1180729185988,-1.81999707521915,                 57P    119
-26.7729895720692,10.6413117054562,-3.60748678085178,                 57P    120
-26.6398886699817,11.0446522434575,-4.44946661825065,                 57P    121
-26.423070221866,11.9182156328695,-5.56967754096881,                  57P    122
-26.3286667161823,12.3574943830038,-5.99113717761836,                 57P    123
-26.2224897805301,13.1138411663176,-6.43460442375918,                 57P    124
-26.1930912921355,13.382125307254,-6.55199117550909,                  57P    125
-26.1531282296666,13.9343996855457,-6.70973200721861,                 57P    126
-26.1426375869001,14.2184198546561,-6.75,-26.1426375869001,14.5,      57P    127
-6.75,2.58661675118257,3.4488223349101,0.,0.,0.;                      57P    128
126,21,3,0,0,1,0,0.862205583727524,0.862205583727524,                 59P    129
0.862205583727524,0.862205583727524,1.12436028838494,                 59P    130
1.12436028838494,1.38651499304236,1.38651499304236,                   59P    131
1.55546308024871,1.55546308024871,1.63993712385188,                   59P    132
1.63993712385188,1.72441116745505,1.72441116745505,                   59P    133
1.80888521105822,1.80888521105822,1.89335925466139,                   59P    134
1.89335925466139,2.06230734186773,2.06230734186773,                   59P    135
2.32446204652515,2.32446204652515,2.58661675118257,                   59P    136
2.58661675118257,2.58661675118257,2.58661675118257,1.,1.,1.,1.,       59P    137
1.,1.,1.,1.,1.,1.,1.,1.,1.,1.,1.,1.,1.,1.,1.,1.,1.,1.,-27.,19.,       59P    138
-1.11022302462516D-15,-27.,19.,0.87384901552473,                      59P    139
-26.9535626995227,18.8819270814012,1.81999707521915,                  59P    140
-26.7729895720692,18.3586882945438,3.60748678085178,                  59P    141
-26.6398886699817,17.9553477565425,4.44946661825064,                  59P    142
-26.423070221866,17.0817843671305,5.5696775409688,                    59P    143
-26.3286667161823,16.6425056169962,5.99113717761836,                  59P    144
-26.2224897805301,15.8861588336824,6.43460442375918,                  59P    145
-26.1930912921355,15.617874692746,6.55199117550908,                   59P    146
-26.1531282296666,15.0656003144543,6.70973200721861,                  59P    147
-26.1426375869001,14.7815801453439,6.75,-26.1426375869001,            59P    148
14.2184198546561,6.75,-26.1531282296666,13.9343996855457,             59P    149
6.70973200721861,-26.1930912921355,13.382125307254,                   59P    150
6.55199117550908,-26.2224897805301,13.1138411663176,                  59P    151
6.43460442375918,-26.3286667161823,12.3574943830038,                  59P    152
5.99113717761836,-26.423070221866,11.9182156328695,                   59P    153
5.5696775409688,-26.6398886699817,11.0446522434575,                   59P    154
4.44946661825064,-26.7729895720692,10.6413117054562,                  59P    155
3.60748678085178,-26.9535626995227,10.1180729185988,                  59P    156
1.81999707521915,-27.,10.,0.873849015524733,-27.,10.,                 59P    157
2.4980018054066D-15,0.862205583727524,2.58661675118257,0.,0.,0.;      59P    158
126,41,3,0,1,1,1,0.,0.,0.,0.,0.0960626451488635,                      61P    159
0.0960626451488635,0.192125290297727,0.192125290297727,               61P    160
0.384250580595454,0.384250580595454,0.624292878755703,                61P    161
0.624292878755703,0.864335176915952,0.864335176915952,                61P    162
1.1043774750762,1.1043774750762,1.34441977323645,                     61P    163
1.34441977323645,1.53654506353418,1.53654506353418,                   61P    164
1.63260770868304,1.63260770868304,1.7286703538319,                    61P    165
1.7286703538319,1.81325528759395,1.81325528759395,                    61P    166
1.897840221356,1.897840221356,2.06701008888009,2.06701008888009,      61P    167
2.32936411011462,2.32936411011462,2.59171813134914,                   61P    168
2.59171813134914,2.85407215258366,2.85407215258366,                   61P    169
3.11642617381819,3.11642617381819,3.28559604134228,                   61P    170
3.28559604134228,3.37018097510433,3.37018097510433,                   61P    171
3.45476590886638,3.45476590886638,3.45476590886638,                   61P    172
3.45476590886638,1.,1.,1.,1.,1.,1.,1.,1.,1.,1.,1.,1.,1.,1.,1.,        61P    173
1.,1.,1.,1.,1.,1.,1.,1.,1.,1.,1.,1.,1.,1.,1.,1.,1.,1.,1.,1.,1.,       61P    174
1.,1.,1.,1.,1.,1.,24.3310501211929,14.5,-6.75,24.3310501211929,       61P    175
14.8202088171629,-6.75,24.3455937336297,15.1389802494946,             61P    176
-6.69813768303506,24.3991121208437,15.7520922080318,                  61P    177
-6.50048539518284,24.4379742780975,16.0464631302551,                  61P    178
-6.35475924077694,24.5752913634578,16.8674215401493,                  61P    179
-5.81014280761753,24.693498709737,17.331211559534,                    61P    180
-5.29912420671733,24.9213274627681,18.1202330022678,                  61P    181
-4.11559204261672,25.0438172729234,18.4606363573597,                  61P    182
-3.32617446388807,25.2085735105657,18.9007239640899,                  61P    183
-1.66854480184625,25.25,19.,-0.800140993867496,25.25,19.,             61P    184
0.800140993867496,25.2085735105657,18.9007239640899,                  61P    185
1.66854480184625,25.0438172729234,18.4606363573597,                   61P    186
3.32617446388807,24.9213274627681,18.1202330022678,                   61P    187
4.11559204261672,24.693498709737,17.331211559534,                     61P    188
5.29912420671733,24.5752913634578,16.8674215401493,                   61P    189
5.81014280761753,24.4379742780975,16.0464631302551,                   61P    190
6.35475924077694,24.3991121208437,15.7520922080318,                   61P    191
6.50048539518284,24.3455937336297,15.1389802494946,                   61P    192
6.69813768303506,24.3310501211929,14.8202088171629,6.75,              61P    193
24.3310501211929,14.2180502207932,6.75,24.3423506794993,              61P    194
13.9338130599341,6.70963198995331,24.3853339524289,                   61P    195
13.381319706437,6.55169337410245,24.4169359601063,                    61P    196
13.1130324820833,6.43420938114124,24.5309725816698,                   61P    197
12.3568261840624,5.99058681104086,24.6322375838863,                   61P    198
11.9178142005643,5.5692247314275,24.8645382550193,                    61P    199
11.0449591420275,4.44976401494447,25.0070053759736,                   61P    200
10.641671347458,3.60834151730713,25.2002825837397,                    61P    201
10.1182702851768,1.82104479519922,25.25,10.,0.874513404115076,        61P    202
25.25,10.,-0.874513404115075,25.2002825837397,10.1182702851768,       61P    203
-1.82104479519922,25.0070053759736,10.641671347458,                   61P    204
-3.60834151730713,24.8645382550193,11.0449591420275,                  61P    205
-4.44976401494447,24.6322375838863,11.9178142005643,                  61P    206
-5.56922473142751,24.5309725816698,12.3568261840624,                  61P    207
-5.99058681104086,24.4169359601063,13.1130324820833,                  61P    208
-6.43420938114124,24.3853339524289,13.381319706437,                   61P    209
-6.55169337410245,24.3423506794993,13.9338130599341,                  61P    210
-6.70963198995331,24.3310501211929,14.2180502207932,-6.75,            61P    211
24.3310501211929,14.5,-6.75,0.,3.45476590886638,0.,0.,0.;             61P    212
126,1,1,0,0,1,0,3.6046000179545,3.6046000179545,                      63P    213
3.87298334620742,3.87298334620742,1.,1.,24.3310501211929,14.5,        63P    214
-6.75,26.1426375869001,14.5,-6.75,3.6046000179545,                    63P    215
3.87298334620742,0.,0.,0.;                                            63P    216
126,41,3,0,1,1,1,0.,0.,0.,0.,0.0844740436031712,                      65P    217
0.0844740436031712,0.168948087206342,0.168948087206342,               65P    218
0.337896174412685,0.337896174412685,0.600050879070105,                65P    219
0.600050879070105,0.862205583727524,0.862205583727524,                65P    220
1.12436028838494,1.12436028838494,1.38651499304236,                   65P    221
1.38651499304236,1.55546308024871,1.55546308024871,                   65P    222
1.63993712385188,1.63993712385188,1.72441116745505,                   65P    223
1.72441116745505,1.80888521105822,1.80888521105822,                   65P    224
1.89335925466139,1.89335925466139,2.06230734186773,                   65P    225
2.06230734186773,2.32446204652515,2.32446204652515,                   65P    226
2.58661675118257,2.58661675118257,2.84877145583999,                   65P    227
2.84877145583999,3.11092616049741,3.11092616049741,                   65P    228
3.27987424770375,3.27987424770375,3.36434829130693,                   65P    229
3.36434829130693,3.4488223349101,3.4488223349101,                     65P    230
3.4488223349101,3.4488223349101,1.,1.,1.,1.,1.,1.,1.,1.,1.,1.,        65P    231
1.,1.,1.,1.,1.,1.,1.,1.,1.,1.,1.,1.,1.,1.,1.,1.,1.,1.,1.,1.,1.,       65P    232
1.,1.,1.,1.,1.,1.,1.,1.,1.,1.,1.,26.1426375869001,14.5,-6.75,         65P    233
26.1426375869001,14.2184198546561,-6.75,26.1531282296666,             65P    234
13.9343996855457,-6.70973200721861,26.1930912921355,                  65P    235
13.382125307254,-6.55199117550908,26.2224897805301,                   65P    236
13.1138411663176,-6.43460442375918,26.3286667161823,                  65P    237
12.3574943830038,-5.99113717761836,26.423070221866,                   65P    238
11.9182156328695,-5.56967754096881,26.6398886699817,                  65P    239
11.0446522434575,-4.44946661825065,26.7729895720692,                  65P    240
10.6413117054562,-3.60748678085178,26.9535626995227,                  65P    241
10.1180729185988,-1.81999707521915,27.,10.,-0.87384901552473,         65P    242
27.,10.,0.873849015524731,26.9535626995227,10.1180729185988,          65P    243
1.81999707521915,26.7729895720692,10.6413117054562,                   65P    244
3.60748678085178,26.6398886699817,11.0446522434575,                   65P    245
4.44946661825064,26.423070221866,11.9182156328695,                    65P    246
5.5696775409688,26.3286667161823,12.3574943830038,                    65P    247
5.99113717761836,26.2224897805301,13.1138411663176,                   65P    248
6.43460442375918,26.1930912921355,13.382125307254,                    65P    249
6.55199117550908,26.1531282296666,13.9343996855457,                   65P    250
6.70973200721861,26.1426375869001,14.2184198546561,6.75,              65P    251
26.1426375869001,14.7815801453439,6.75,26.1531282296666,              65P    252
15.0656003144543,6.70973200721861,26.1930912921355,                   65P    253
15.617874692746,6.55199117550909,26.2224897805301,                    65P    254
15.8861588336824,6.43460442375918,26.3286667161823,                   65P    255
16.6425056169962,5.99113717761836,26.423070221866,                    65P    256
17.0817843671305,5.5696775409688,26.6398886699817,                    65P    257
17.9553477565425,4.44946661825065,26.7729895720692,                   65P    258
18.3586882945438,3.60748678085178,26.9535626995227,                   65P    259
18.8819270814012,1.81999707521915,27.,19.,0.873849015524731,27.,      65P    260
19.,-0.873849015524733,26.9535626995227,18.8819270814012,             65P    261
-1.81999707521916,26.7729895720692,18.3586882945438,                  65P    262
-3.60748678085178,26.6398886699817,17.9553477565425,                  65P    263
-4.44946661825065,26.423070221866,17.0817843671305,                   65P    264
-5.5696775409688,26.3286667161823,16.6425056169962,                   65P    265
-5.99113717761836,26.2224897805301,15.8861588336824,                  65P    266
-6.43460442375918,26.1930912921355,15.617874692746,                   65P    267
-6.55199117550909,26.1531282296666,15.0656003144543,                  65P    268
-6.70973200721861,26.1426375869001,14.7815801453439,-6.75,            65P    269
26.1426375869001,14.5,-6.75,0.,3.4488223349101,0.,0.,0.;              65P    270
126,8,2,0,1,0,0,-3.14159265358979,-3.14159265358979,                  67P    271
-3.14159265358979,-1.5707963267949,-1.5707963267949,0.,0.,            67P    272
1.5707963267949,1.5707963267949,3.14159265358979,                     67P    273
3.14159265358979,3.14159265358979,1.,0.707106781186548,1.,            67P    274
0.707106781186548,1.,0.707106781186548,1.,0.707106781186548,1.,       67P    275
-16.5,31.,-2.02066721859313D-15,-16.5,31.,-16.5,                      67P    276
1.01033360929657D-15,31.,-16.5,16.5,31.,-16.5,16.5,31.,0.,16.5,       67P    277
31.,16.5,1.01033360929657D-15,31.,16.5,-16.5,31.,16.5,-16.5,31.,      67P    278
2.02066721859313D-15,-3.14159265358979,3.14159265358979,0.,0.,        67P    279
0.;                                                                   67P    280
126,1,1,0,0,1,0,-0.212121212121212,-0.212121212121212,0.,0.,1.,       69P    281
1.,-16.5,31.,0.,-16.5,27.5,0.,-0.212121212121212,0.,0.,0.,0.;         69P    282
126,8,2,0,1,0,0,-3.14159265358979,-3.14159265358979,                  71P    283
-3.14159265358979,-1.5707963267949,-1.5707963267949,0.,0.,            71P    284
1.5707963267949,1.5707963267949,3.14159265358979,                     71P    285
3.14159265358979,3.14159265358979,1.,0.707106781186548,1.,            71P    286
0.707106781186548,1.,0.707106781186548,1.,0.707106781186548,1.,       71P    287
-16.5,27.5,-2.02066721859313D-15,-16.5,27.5,-16.5,                    71P    288
1.01033360929657D-15,27.5,-16.5,16.5,27.5,-16.5,16.5,27.5,0.,         71P    289
16.5,27.5,16.5,1.01033360929657D-15,27.5,16.5,-16.5,27.5,16.5,        71P    290
-16.5,27.5,2.02066721859313D-15,-3.14159265358979,                    71P    291
3.14159265358979,0.,0.,0.;                                            71P    292
126,8,2,0,1,0,0,-3.14159265358979,-3.14159265358979,                  73P    293
-3.14159265358979,-1.5707963267949,-1.5707963267949,0.,0.,            73P    294
1.5707963267949,1.5707963267949,3.14159265358979,                     73P    295
3.14159265358979,3.14159265358979,1.,0.707106781186548,1.,            73P    296
0.707106781186548,1.,0.707106781186548,1.,0.707106781186548,1.,       73P    297
-25.25,27.5,3.09223316784707D-15,-25.25,27.5,25.25,                   73P    298
1.54611658392353D-15,27.5,25.25,25.25,27.5,25.25,25.25,27.5,0.,       73P    299
25.25,27.5,-25.25,1.54611658392353D-15,27.5,-25.25,-25.25,27.5,       73P    300
-25.25,-25.25,27.5,-3.09223316784707D-15,-3.14159265358979,           73P    301
3.14159265358979,0.,0.,0.;                                            73P    302
126,1,1,0,0,1,0,-1.08910891089109,-1.08910891089109,                  75P    303
-0.752475247524752,-0.752475247524752,1.,1.,-25.25,27.5,0.,           75P    304
-25.25,19.,2.08166817117217D-16,-1.08910891089109,                    75P    305
-0.752475247524752,0.,0.,0.;                                          75P    306
126,1,1,0,0,1,0,-0.396039603960396,-0.396039603960396,0.,0.,1.,       77P    307
1.,-25.25,10.,0.,-25.25,0.,0.,-0.396039603960396,0.,0.,0.,0.;         77P    308
126,8,2,0,1,0,0,-3.14159265358979,-3.14159265358979,                  79P    309
-3.14159265358979,-1.5707963267949,-1.5707963267949,0.,0.,            79P    310
1.5707963267949,1.5707963267949,3.14159265358979,                     79P    311
3.14159265358979,3.14159265358979,1.,0.707106781186548,1.,            79P    312
0.707106781186548,1.,0.707106781186548,1.,0.707106781186548,1.,       79P    313
-25.25,0.,-3.09223316784707D-15,-25.25,0.,-25.25,                     79P    314
1.54611658392353D-15,0.,-25.25,25.25,0.,-25.25,25.25,0.,0.,           79P    315
25.25,0.,25.25,1.54611658392353D-15,0.,25.25,-25.25,0.,25.25,         79P    316
-25.25,0.,3.09223316784707D-15,-3.14159265358979,                     79P    317
3.14159265358979,0.,0.,0.;                                            79P    318
126,8,2,0,1,0,0,-3.14159265358979,-3.14159265358979,                  81P    319
-3.14159265358979,-1.5707963267949,-1.5707963267949,0.,0.,            81P    320
1.5707963267949,1.5707963267949,3.14159265358979,                     81P    321
3.14159265358979,3.14159265358979,1.,0.707106781186548,1.,            81P    322
0.707106781186547,1.,0.707106781186547,1.,0.707106781186548,1.,       81P    323
-27.,31.,3.30654635769785D-15,-27.,31.,27.,1.65327317884893D-15,      81P    324
31.,27.,27.,31.,27.,27.,31.,0.,27.,31.,-27.,                          81P    325
1.65327317884893D-15,31.,-27.,-27.,31.,-27.,-27.,31.,                 81P    326
-3.30654635769785D-15,-3.14159265358979,3.14159265358979,0.,0.,       81P    327
0.;                                                                   81P    328
126,1,1,0,0,1,0,-1.14814814814815,-1.14814814814815,                  83P    329
-0.703703703703703,-0.703703703703703,1.,1.,-27.,31.,0.,-27.,         83P    330
19.,-5.55111512312578D-16,-1.14814814814815,-0.703703703703703,       83P    331
0.,0.,0.;                                                             83P    332
126,1,1,0,0,1,0,-0.37037037037037,-0.37037037037037,0.,0.,1.,1.,      85P    333
-27.,10.,9.71445146547012D-16,-27.,0.,0.,-0.37037037037037,0.,        85P    334
0.,0.,0.;                                                             85P    335
126,8,2,0,1,0,0,-3.14159265358979,-3.14159265358979,                  87P    336
-3.14159265358979,-1.5707963267949,-1.5707963267949,0.,0.,            87P    337
1.5707963267949,1.5707963267949,3.14159265358979,                     87P    338
3.14159265358979,3.14159265358979,1.,0.707106781186548,1.,            87P    339
0.707106781186547,1.,0.707106781186547,1.,0.707106781186548,1.,       87P    340
-27.,0.,3.30654635769785D-15,-27.,0.,27.,1.65327317884893D-15,        87P    341
0.,27.,27.,0.,27.,27.,0.,0.,27.,0.,-27.,1.65327317884893D-15,0.,      87P    342
-27.,-27.,0.,-27.,-27.,0.,-3.30654635769785D-15,                      87P    343
-3.14159265358979,3.14159265358979,0.,0.,0.;                          87P    344
128,1,8,1,2,0,1,0,0,1,-4.,-4.,-3.6046000179545,-3.6046000179545,      89P    345
-3.14159265358979,-3.14159265358979,-3.14159265358979,                89P    346
-1.5707963267949,-1.5707963267949,0.,0.,1.5707963267949,              89P    347
1.5707963267949,3.14159265358979,3.14159265358979,                    89P    348
3.14159265358979,1.,1.,0.707106781186548,0.707106781186548,1.,        89P    349
1.,0.707106781186548,0.707106781186548,1.,1.,0.707106781186548,       89P    350
0.707106781186548,1.,1.,0.707106781186548,0.707106781186548,1.,       89P    351
1.,-27.,14.5,-6.75,-24.3310501211929,14.5,-6.75,-27.,19.,-6.75,       89P    352
-24.3310501211929,19.,-6.75,-27.,19.,0.,-24.3310501211929,19.,        89P    353
0.,-27.,19.,6.75,-24.3310501211929,19.,6.75,-27.,14.5,6.75,           89P    354
-24.3310501211929,14.5,6.75,-27.,10.,6.75,-24.3310501211929,10.,      89P    355
6.75,-27.,10.,0.,-24.3310501211929,10.,0.,-27.,10.,-6.75,             89P    356
-24.3310501211929,10.,-6.75,-27.,14.5,-6.75,-24.3310501211929,        89P    357
14.5,-6.75,-4.,-3.6046000179545,-3.14159265358979,                    89P    358
3.14159265358979;                                                     89P    359
128,1,8,1,2,0,1,0,0,1,3.6046000179545,3.6046000179545,4.,4.,          91P    360
-3.14159265358979,-3.14159265358979,-3.14159265358979,                91P    361
-1.5707963267949,-1.5707963267949,0.,0.,1.5707963267949,              91P    362
1.5707963267949,3.14159265358979,3.14159265358979,                    91P    363
3.14159265358979,1.,1.,0.707106781186548,0.707106781186548,1.,        91P    364
1.,0.707106781186548,0.707106781186548,1.,1.,0.707106781186548,       91P    365
0.707106781186548,1.,1.,0.707106781186548,0.707106781186548,1.,       91P    366
1.,24.3310501211929,14.5,-6.75,27.,14.5,-6.75,24.3310501211929,       91P    367
19.,-6.75,27.,19.,-6.75,24.3310501211929,19.,0.,27.,19.,0.,           91P    368
24.3310501211929,19.,6.75,27.,19.,6.75,24.3310501211929,14.5,         91P    369
6.75,27.,14.5,6.75,24.3310501211929,10.,6.75,27.,10.,6.75,            91P    370
24.3310501211929,10.,0.,27.,10.,0.,24.3310501211929,10.,-6.75,        91P    371
27.,10.,-6.75,24.3310501211929,14.5,-6.75,27.,14.5,-6.75,             91P    372
3.6046000179545,4.,-3.14159265358979,3.14159265358979;                91P    373
128,1,8,1,2,0,1,0,0,1,0.,0.,0.212121212121212,0.212121212121212,      93P    374
-3.14159265358979,-3.14159265358979,-3.14159265358979,                93P    375
-1.5707963267949,-1.5707963267949,0.,0.,1.5707963267949,              93P    376
1.5707963267949,3.14159265358979,3.14159265358979,                    93P    377
3.14159265358979,1.,1.,0.707106781186548,0.707106781186548,1.,        93P    378
1.,0.707106781186548,0.707106781186548,1.,1.,0.707106781186548,       93P    379
0.707106781186548,1.,1.,0.707106781186548,0.707106781186548,1.,       93P    380
1.,-16.5,27.5,0.,-16.5,31.,0.,-16.5,27.5,16.5,-16.5,31.,16.5,0.,      93P    381
27.5,16.5,0.,31.,16.5,16.5,27.5,16.5,16.5,31.,16.5,16.5,27.5,0.,      93P    382
16.5,31.,0.,16.5,27.5,-16.5,16.5,31.,-16.5,0.,27.5,-16.5,0.,31.,      93P    383
-16.5,-16.5,27.5,-16.5,-16.5,31.,-16.5,-16.5,27.5,0.,-16.5,31.,       93P    384
0.,0.,0.212121212121212,-3.14159265358979,3.14159265358979;           93P    385
128,1,1,1,1,0,0,1,0,0,-2.526,-2.526,2.526,2.526,-2.526,-2.526,        95P    386
2.526,2.526,1.,1.,1.,1.,25.26,27.5,25.26,-25.26,27.5,25.26,           95P    387
25.26,27.5,-25.26,-25.26,27.5,-25.26,-2.526,2.526,-2.526,2.526;       95P    388
128,1,8,1,2,0,1,0,0,1,0.,0.,1.08910891089109,1.08910891089109,        97P    389
-3.14159265358979,-3.14159265358979,-3.14159265358979,                97P    390
-1.5707963267949,-1.5707963267949,0.,0.,1.5707963267949,              97P    391
1.5707963267949,3.14159265358979,3.14159265358979,                    97P    392
3.14159265358979,1.,1.,0.707106781186548,0.707106781186548,1.,        97P    393
1.,0.707106781186548,0.707106781186548,1.,1.,0.707106781186548,       97P    394
0.707106781186548,1.,1.,0.707106781186548,0.707106781186548,1.,       97P    395
1.,-25.25,0.,0.,-25.25,27.5,0.,-25.25,0.,25.25,-25.25,27.5,           97P    396
25.25,0.,0.,25.25,0.,27.5,25.25,25.25,0.,25.25,25.25,27.5,25.25,      97P    397
25.25,0.,0.,25.25,27.5,0.,25.25,0.,-25.25,25.25,27.5,-25.25,0.,       97P    398
0.,-25.25,0.,27.5,-25.25,-25.25,0.,-25.25,-25.25,27.5,-25.25,         97P    399
-25.25,0.,0.,-25.25,27.5,0.,0.,1.08910891089109,                      97P    400
-3.14159265358979,3.14159265358979;                                   97P    401
128,1,8,1,2,0,1,0,0,1,0.,0.,1.14814814814815,1.14814814814815,        99P    402
-3.14159265358979,-3.14159265358979,-3.14159265358979,                99P    403
-1.5707963267949,-1.5707963267949,0.,0.,1.5707963267949,              99P    404
1.5707963267949,3.14159265358979,3.14159265358979,                    99P    405
3.14159265358979,1.,1.,0.707106781186548,0.707106781186548,1.,        99P    406
1.,0.707106781186548,0.707106781186548,1.,1.,0.707106781186548,       99P    407
0.707106781186548,1.,1.,0.707106781186548,0.707106781186548,1.,       99P    408
1.,-27.,31.,0.,-27.,0.,0.,-27.,31.,27.,-27.,0.,27.,0.,31.,27.,        99P    409
0.,0.,27.,27.,31.,27.,27.,0.,27.,27.,31.,0.,27.,0.,0.,27.,31.,        99P    410
-27.,27.,0.,-27.,0.,31.,-27.,0.,0.,-27.,-27.,31.,-27.,-27.,0.,        99P    411
-27.,-27.,31.,0.,-27.,0.,0.,0.,1.14814814814815,                      99P    412
-3.14159265358979,3.14159265358979;                                   99P    413
128,1,1,1,1,0,0,1,0,0,-2.701,-2.701,2.701,2.701,-2.701,-2.701,       101P    414
2.701,2.701,1.,1.,1.,1.,-27.01,31.,27.01,27.01,31.,27.01,-27.01,     101P    415
31.,-27.01,27.01,31.,-27.01,-2.701,2.701,-2.701,2.701;               101P    416
128,1,1,1,1,0,0,1,0,0,-2.701,-2.701,2.701,2.701,-2.701,-2.701,       103P    417
2.701,2.701,1.,1.,1.,1.,27.01,0.,27.01,-27.01,0.,27.01,27.01,0.,     103P    418
-27.01,-27.01,0.,-27.01,-2.701,2.701,-2.701,2.701;                   103P    419
502,14,-26.1426375869001,14.5,-6.75,-27.,19.,                        105P    420
-5.55111512312578D-16,-24.3310501211929,14.5,-6.75,-25.25,19.,       105P    421
2.08166817117217D-16,-25.25,10.,0.,-27.,10.,                         105P    422
9.71445146547012D-16,24.3310501211929,14.5,-6.75,                    105P    423
26.1426375869001,14.5,-6.75,-16.5,31.,2.02066721859313D-15,          105P    424
-16.5,27.5,2.02066721859313D-15,-25.25,27.5,                         105P    425
3.09223316784707D-15,-25.25,0.,3.09223316784707D-15,-27.,31.,        105P    426
3.30654635769785D-15,-27.,0.,3.30654635769785D-15;                   105P    427
504,21,47,105,1,105,2,49,105,1,105,3,51,105,4,105,3,53,105,5,        107P    428
105,4,55,105,3,105,5,57,105,6,105,1,59,105,2,105,6,61,105,7,105,     107P    429
7,63,105,7,105,8,65,105,8,105,8,67,105,9,105,9,69,105,9,105,10,      107P    430
71,105,10,105,10,73,105,11,105,11,75,105,11,105,4,77,105,5,105,      107P    431
12,79,105,12,105,12,81,105,13,105,13,83,105,13,105,2,85,105,6,       107P    432
105,14,87,105,14,105,14;                                             107P    433
406,1,5HBody1;                                                       109P    434
314,62.7450980392157,62.7450980392157,62.7450980392157,13HSteel      111P    435
- Satin;                                                             111P    436
S      1G      3D    112P    436                                        T      1
