0
SECTION
2
HEADER
9
$INSUNITS
70
4
9
$ACADVER
1
AC1014
9
$HANDSEED
5
FFFF
0
ENDSEC
0
SECTION
2
TABLES
0
TABLE
2
VPORT
5
8
100
AcDbSymbolTable
0
ENDTAB
0
TABLE
2
LTYPE
5
5
100
AcDbSymbolTable
0
LTYPE
5
14
100
AcDbSymbolTableRecord
100
AcDbLinetypeTableRecord
2
BYBLOCK
70
0
0
LTYPE
5
15
100
AcDbSymbolTableRecord
100
AcDbLinetypeTableRecord
2
BYLAYER
70
0
0
ENDTAB
0
TABLE
2
LAYER
5
2
100
AcDbSymbolTable
70
2
0
LAYER
5
50
100
AcDbSymbolTableRecord
100
AcDbLayerTableRecord
2
0
70
0
6
CONTINUOUS
0
ENDTAB
0
TABLE
2
STYLE
5
3
100
AcDbSymbolTable
70
1
0
STYLE
5
11
100
AcDbSymbolTableRecord
100
AcDbTextStyleTableRecord
2
STANDARD
70
0
0
ENDTAB
0
TABLE
2
VIEW
5
6
100
AcDbSymbolTable
70
0
0
ENDTAB
0
TABLE
2
UCS
5
7
100
AcDbSymbolTable
70
0
0
ENDTAB
0
TABLE
2
APPID
5
9
100
AcDbSymbolTable
70
2
0
APPID
5
12
100
AcDbSymbolTableRecord
100
AcDbRegAppTableRecord
2
ACAD
70
0
0
ENDTAB
0
TABLE
2
DIMSTYLE
5
A
100
AcDbSymbolTable
70
1
0
ENDTAB
0
TABLE
2
BLOCK_RECORD
5
1
100
AcDbSymbolTable
70
1
0
BLOCK_RECORD
5
1F
100
AcDbSymbolTableRecord
100
AcDbBlockTableRecord
2
*MODEL_SPACE
0
BLOCK_RECORD
5
1B
100
AcDbSymbolTableRecord
100
AcDbBlockTableRecord
2
*PAPER_SPACE
0
ENDTAB
0
ENDSEC
0
SECTION
2
BLOCKS
0
BLOCK
5
20
100
AcDbEntity
100
AcDbBlockBegin
2
*MODEL_SPACE
0
ENDBLK
5
21
100
AcDbEntity
100
AcDbBlockEnd
0
BLOCK
5
1C
100
AcDbEntity
100
AcDbBlockBegin
2
*PAPER_SPACE
0
ENDBLK
5
1D
100
AcDbEntity
100
AcDbBlockEnd
0
ENDSEC
0
SECTION
2
ENTITIES
0
SPLINE
5
100
100
AcDbEntity
8
0
100
AcDbSpline
70
4
71
5
72
81
73
75
74
0
42
0.000000001
43
0.0000000001
44
0.0000000001
40
0
40
0
40
0
40
0
40
0
40
0
40
0.014285714285714285
40
0.028571428571428571
40
0.042857142857142858
40
0.057142857142857141
40
0.071428571428571425
40
0.085714285714285715
40
0.10000000000000001
40
0.1142857142857143
40
0.12857142857142859
40
0.14285714285714288
40
0.15714285714285717
40
0.17142857142857146
40
0.18571428571428575
40
0.20000000000000004
40
0.21428571428571433
40
0.22857142857142862
40
0.24285714285714291
40
0.25714285714285717
40
0.27142857142857146
40
0.28571428571428575
40
0.30000000000000004
40
0.31428571428571433
40
0.32857142857142863
40
0.34285714285714292
40
0.35714285714285721
40
0.3714285714285715
40
0.38571428571428579
40
0.40000000000000008
40
0.41428571428571437
40
0.42857142857142866
40
0.44285714285714295
40
0.45714285714285724
40
0.47142857142857153
40
0.48571428571428582
40
0.50000000000000011
40
0.51428571428571435
40
0.52857142857142858
40
0.54285714285714282
40
0.55714285714285705
40
0.57142857142857129
40
0.58571428571428552
40
0.59999999999999976
40
0.61428571428571399
40
0.62857142857142823
40
0.64285714285714246
40
0.6571428571428567
40
0.67142857142857093
40
0.68571428571428517
40
0.6999999999999994
40
0.71428571428571364
40
0.72857142857142787
40
0.74285714285714211
40
0.75714285714285634
40
0.77142857142857058
40
0.78571428571428481
40
0.79999999999999905
40
0.81428571428571328
40
0.82857142857142752
40
0.84285714285714175
40
0.85714285714285599
40
0.87142857142857022
40
0.88571428571428445
40
0.89999999999999869
40
0.91428571428571292
40
0.92857142857142716
40
0.94285714285714139
40
0.95714285714285563
40
0.97142857142856986
40
0.9857142857142841
40
1
40
1
40
1
40
1
40
1
40
1
41
1
41
1
41
1
41
1
41
1
41
1
41
1
41
1
41
1
41
1
41
1
41
1
41
1
41
1
41
1
41
1
41
1
41
1
41
1
41
1
41
1
41
1
41
1
41
1
41
1
41
1
41
1
41
1
41
1
41
1
41
1
41
1
41
1
41
1
41
1
41
1
41
1
41
1
41
1
41
1
41
1
41
1
41
1
41
1
41
1
41
1
41
1
41
1
41
1
41
1
41
1
41
1
41
1
41
1
41
1
41
1
41
1
41
1
41
1
41
1
41
1
41
1
41
1
41
1
41
1
41
1
41
1
41
1
41
1
41
1
41
1
41
1
41
1
41
1
41
1
10
11.208215267983004
20
-1.2373804633656864
30
0
10
11.214713956662335
20
-1.2380916054050277
30
0
10
11.227720927322348
20
-1.2393295941070301
30
0
10
11.247260163023281
20
-1.2406336968299956
30
0
10
11.273367946345495
20
-1.2413204458746543
30
0
10
11.306082725118848
20
-1.2407371645020493
30
0
10
11.338861298714562
20
-1.2391090313451532
30
0
10
11.371686783379559
20
-1.2368284740859721
30
0
10
11.404545085581361
20
-1.2341880367028208
30
0
10
11.437427787497128
20
-1.2313010728224054
30
0
10
11.470330453891044
20
-1.2281606136624965
30
0
10
11.503251321877464
20
-1.2246868878107318
30
0
10
11.536189897213946
20
-1.2207771622702905
30
0
10
11.569145478018402
20
-1.2163589997263367
30
0
10
11.602116058166271
20
-1.2114285341897877
30
0
10
11.635098914258366
20
-1.206023551139991
30
0
10
11.668090952621634
20
-1.2002057512249538
30
0
10
11.701089127051898
20
-1.194040531487254
30
0
10
11.734090879246876
20
-1.1875753199440324
30
0
10
11.767094400571899
20
-1.1808265732038652
30
0
10
11.800098364069502
20
-1.1737919130326844
30
0
10
11.83310175178031
20
-1.1664577541191123
30
0
10
11.866103656588322
20
-1.1588081592385036
30
0
10
11.899103066807541
20
-1.1508344686219321
30
0
10
11.932098753008011
20
-1.1425402491983783
30
0
10
11.965089376083544
20
-1.1339360886772958
30
0
10
11.998073550006861
20
-1.1250364725166866
30
0
10
12.031049917327859
20
-1.1158560883355224
30
0
10
12.064017232154855
20
-1.106405770698442
30
0
10
12.096974395461938
20
-1.0966907081556774
30
0
10
12.12992040465763
20
-1.0867127060866075
30
0
10
12.162854322169226
20
-1.0764715550426671
30
0
10
12.195775239032931
20
-1.0659666438637536
30
0
10
12.228682234752331
20
-1.055198745051555
30
0
10
12.261574360195374
20
-1.0441707485828446
30
0
10
12.294450657244031
20
-1.0328867101945474
30
0
10
12.327310170141015
20
-1.0213512890588485
30
0
10
12.36015195917793
20
-1.0095690795333414
30
0
10
12.392975116252634
20
-0.99754387267015354
30
0
10
12.425778770023829
20
-0.9852783698124139
30
0
10
12.458562075009702
20
-0.97277459647763509
30
0
10
12.491324204505487
20
-0.96003415478536991
30
0
10
12.524064342731617
20
-0.94705852117025746
30
0
10
12.556781676035492
20
-0.93384937728895612
30
0
10
12.589475389797254
20
-0.92040874725151878
30
0
10
12.622144674175313
20
-0.90673882247013571
30
0
10
12.654788728151003
20
-0.89284185998219512
30
0
10
12.687406763853378
20
-0.8787200611852255
30
0
10
12.719998012398042
20
-0.86437544058715132
30
0
10
12.752561724360627
20
-0.84980976963258548
30
0
10
12.785097161142648
20
-0.8350246561332042
30
0
10
12.817603588228403
20
-0.82002159529439733
30
0
10
12.850080268742278
20
-0.80480202953705604
30
0
10
12.882526455062276
20
-0.78936741586432846
30
0
10
12.914941388204577
20
-0.77371925895679194
30
0
10
12.947324312611887
20
-0.75785906841860995
30
0
10
12.9796744886249
20
-0.74178833266978284
30
0
10
13.011991204524765
20
-0.72550848974933124
30
0
10
13.044273792847154
20
-0.70902089608014318
30
0
10
13.076521633054963
20
-0.69232681305440535
30
0
10
13.108734117078546
20
-0.67542744321107906
30
0
10
13.140910620804785
20
-0.65832395938406907
30
0
10
13.17305047588507
20
-0.64101753588873644
30
0
10
13.205152935892615
20
-0.62350938551751034
30
0
10
13.237217162473602
20
-0.60580077987191783
30
0
10
13.26924229668662
20
-0.58789299323640687
30
0
10
13.301227518932011
20
-0.56978725854728429
30
0
10
13.33317211203841
20
-0.55148472056239695
30
0
10
13.36507552718153
20
-0.53298639037445661
30
0
10
13.396937438195405
20
-0.51429310416679674
30
0
10
13.428757681819985
20
-0.49540552004088578
30
0
10
13.454180503065514
20
-0.48014039387895824
30
0
10
13.473228851280082
20
-0.46860445780991278
30
0
10
13.48591941166282
20
-0.4608751393081526
30
0
10
13.492262607246793
20
-0.45700080644342062
30
0
0
SPLINE
5
101
100
AcDbEntity
8
0
100
AcDbSpline
70
4
71
5
72
81
73
75
74
0
42
0.000000001
43
0.0000000001
44
0.0000000001
40
0
40
0
40
0
40
0
40
0
40
0
40
0.014285714285714285
40
0.028571428571428571
40
0.042857142857142858
40
0.057142857142857141
40
0.071428571428571425
40
0.085714285714285715
40
0.10000000000000001
40
0.1142857142857143
40
0.12857142857142859
40
0.14285714285714288
40
0.15714285714285717
40
0.17142857142857146
40
0.18571428571428575
40
0.20000000000000004
40
0.21428571428571433
40
0.22857142857142862
40
0.24285714285714291
40
0.25714285714285717
40
0.27142857142857146
40
0.28571428571428575
40
0.30000000000000004
40
0.31428571428571433
40
0.32857142857142863
40
0.34285714285714292
40
0.35714285714285721
40
0.3714285714285715
40
0.38571428571428579
40
0.40000000000000008
40
0.41428571428571437
40
0.42857142857142866
40
0.44285714285714295
40
0.45714285714285724
40
0.47142857142857153
40
0.48571428571428582
40
0.50000000000000011
40
0.51428571428571435
40
0.52857142857142858
40
0.54285714285714282
40
0.55714285714285705
40
0.57142857142857129
40
0.58571428571428552
40
0.59999999999999976
40
0.61428571428571399
40
0.62857142857142823
40
0.64285714285714246
40
0.6571428571428567
40
0.67142857142857093
40
0.68571428571428517
40
0.6999999999999994
40
0.71428571428571364
40
0.72857142857142787
40
0.74285714285714211
40
0.75714285714285634
40
0.77142857142857058
40
0.78571428571428481
40
0.79999999999999905
40
0.81428571428571328
40
0.82857142857142752
40
0.84285714285714175
40
0.85714285714285599
40
0.87142857142857022
40
0.88571428571428445
40
0.89999999999999869
40
0.91428571428571292
40
0.92857142857142716
40
0.94285714285714139
40
0.95714285714285563
40
0.97142857142856986
40
0.9857142857142841
40
1
40
1
40
1
40
1
40
1
40
1
41
1
41
1
41
1
41
1
41
1
41
1
41
1
41
1
41
1
41
1
41
1
41
1
41
1
41
1
41
1
41
1
41
1
41
1
41
1
41
1
41
1
41
1
41
1
41
1
41
1
41
1
41
1
41
1
41
1
41
1
41
1
41
1
41
1
41
1
41
1
41
1
41
1
41
1
41
1
41
1
41
1
41
1
41
1
41
1
41
1
41
1
41
1
41
1
41
1
41
1
41
1
41
1
41
1
41
1
41
1
41
1
41
1
41
1
41
1
41
1
41
1
41
1
41
1
41
1
41
1
41
1
41
1
41
1
41
1
41
1
41
1
41
1
41
1
41
1
41
1
10
11.208215267983004
20
1.2373804633656864
30
0
10
11.214713956662335
20
1.2380916054050277
30
0
10
11.227720927322348
20
1.2393295941070301
30
0
10
11.247260163023281
20
1.2406336968299956
30
0
10
11.273367946345495
20
1.2413204458746543
30
0
10
11.306082725118848
20
1.2407371645020493
30
0
10
11.338861298714562
20
1.2391090313451532
30
0
10
11.371686783379559
20
1.2368284740859721
30
0
10
11.404545085581361
20
1.2341880367028208
30
0
10
11.437427787497128
20
1.2313010728224054
30
0
10
11.470330453891044
20
1.2281606136624965
30
0
10
11.503251321877464
20
1.2246868878107318
30
0
10
11.536189897213946
20
1.2207771622702905
30
0
10
11.569145478018402
20
1.2163589997263367
30
0
10
11.602116058166271
20
1.2114285341897877
30
0
10
11.635098914258366
20
1.206023551139991
30
0
10
11.668090952621634
20
1.2002057512249538
30
0
10
11.701089127051898
20
1.194040531487254
30
0
10
11.734090879246876
20
1.1875753199440324
30
0
10
11.767094400571899
20
1.1808265732038652
30
0
10
11.800098364069502
20
1.1737919130326844
30
0
10
11.83310175178031
20
1.1664577541191123
30
0
10
11.866103656588322
20
1.1588081592385036
30
0
10
11.899103066807541
20
1.1508344686219321
30
0
10
11.932098753008011
20
1.1425402491983783
30
0
10
11.965089376083544
20
1.1339360886772958
30
0
10
11.998073550006861
20
1.1250364725166866
30
0
10
12.031049917327859
20
1.1158560883355224
30
0
10
12.064017232154855
20
1.106405770698442
30
0
10
12.096974395461938
20
1.0966907081556774
30
0
10
12.12992040465763
20
1.0867127060866075
30
0
10
12.162854322169226
20
1.0764715550426671
30
0
10
12.195775239032931
20
1.0659666438637536
30
0
10
12.228682234752331
20
1.055198745051555
30
0
10
12.261574360195374
20
1.0441707485828446
30
0
10
12.294450657244031
20
1.0328867101945474
30
0
10
12.327310170141015
20
1.0213512890588485
30
0
10
12.36015195917793
20
1.0095690795333414
30
0
10
12.392975116252634
20
0.99754387267015354
30
0
10
12.425778770023829
20
0.9852783698124139
30
0
10
12.458562075009702
20
0.97277459647763509
30
0
10
12.491324204505487
20
0.96003415478536991
30
0
10
12.524064342731617
20
0.94705852117025746
30
0
10
12.556781676035492
20
0.93384937728895612
30
0
10
12.589475389797254
20
0.92040874725151878
30
0
10
12.622144674175313
20
0.90673882247013571
30
0
10
12.654788728151003
20
0.89284185998219512
30
0
10
12.687406763853378
20
0.8787200611852255
30
0
10
12.719998012398042
20
0.86437544058715132
30
0
10
12.752561724360627
20
0.84980976963258548
30
0
10
12.785097161142648
20
0.8350246561332042
30
0
10
12.817603588228403
20
0.82002159529439733
30
0
10
12.850080268742278
20
0.80480202953705604
30
0
10
12.882526455062276
20
0.78936741586432846
30
0
10
12.914941388204577
20
0.77371925895679194
30
0
10
12.947324312611887
20
0.75785906841860995
30
0
10
12.9796744886249
20
0.74178833266978284
30
0
10
13.011991204524765
20
0.72550848974933124
30
0
10
13.044273792847154
20
0.70902089608014318
30
0
10
13.076521633054963
20
0.69232681305440535
30
0
10
13.108734117078546
20
0.67542744321107906
30
0
10
13.140910620804785
20
0.65832395938406907
30
0
10
13.17305047588507
20
0.64101753588873644
30
0
10
13.205152935892615
20
0.62350938551751034
30
0
10
13.237217162473602
20
0.60580077987191783
30
0
10
13.26924229668662
20
0.58789299323640687
30
0
10
13.301227518932011
20
0.56978725854728429
30
0
10
13.33317211203841
20
0.55148472056239695
30
0
10
13.36507552718153
20
0.53298639037445661
30
0
10
13.396937438195405
20
0.51429310416679674
30
0
10
13.428757681819985
20
0.49540552004088578
30
0
10
13.454180503065514
20
0.48014039387895824
30
0
10
13.473228851280082
20
0.46860445780991278
30
0
10
13.48591941166282
20
0.4608751393081526
30
0
10
13.492262607246793
20
0.45700080644342062
30
0
0
ARC
5
102
100
AcDbEntity
8
0
100
AcDbCircle
10
-2.26929586233382e-12
20
0
30
0
40
13.499999999998609
210
0
220
0
230
1
100
AcDbArc
50
-1.9399422962692345
51
1.939942296269217
0
LINE
5
103
100
AcDbEntity
8
0
100
AcDbLine
10
10.077970687025381
20
-1.1136994446375308
30
0
11
11.208215267983004
21
-1.2373804633656864
31
0
0
LINE
5
104
100
AcDbEntity
8
0
100
AcDbLine
10
10.077970687025381
20
1.1136994446375308
30
0
11
11.208215267983004
21
1.2373804633656864
31
0
0
LINE
5
105
100
AcDbEntity
8
0
100
AcDbLine
10
10.077970687025381
20
-1.1136994446375308
30
0
11
10.077970687025381
21
1.1136994446375308
31
0
0
ENDSEC
0
SECTION
2
OBJECTS
0
DICTIONARY
5
C
100
AcDbDictionary
3
ACAD_GROUP
350
D
3
ACAD_MLINESTYLE
350
17
0
DICTIONARY
5
D
100
AcDbDictionary
0
DICTIONARY
5
1A
330
C
100
AcDbDictionary
0
DICTIONARY
5
17
100
AcDbDictionary
0
ENDSEC
0
EOF
