                                                                        S      1
,,5HMotor,5HMotor,7Hunknown,7Hunknown,32,38,7,99,15,,1.,2,2HMM,1,0.08,  G      1
15H20220922.115515,0.01,10000.,7Hunknown,7Hunknown,11,0,;               G      2
     186       1                                                00000000D      1
     186             -95       1       0                               0D      2
     514       2                                                00010000D      3
     514                       1       1                               0D      4
     510       3                                                00010000D      5
     510             -95       1       1                               0D      6
     510       4                                                00010000D      7
     510             -95       1       1                               0D      8
     510       5                                                00010000D      9
     510             -95       1       1                               0D     10
     510       6                                                00010000D     11
     510             -95       1       1                               0D     12
     510       7                                                00010000D     13
     510             -95       1       1                               0D     14
     510       8                                                00010000D     15
     510             -95       1       1                               0D     16
     510       9                                                00010000D     17
     510             -95       1       1                               0D     18
     510      10                                                00010000D     19
     510             -95       1       1                               0D     20
     510      11                                                00010000D     21
     510             -95       1       1                               0D     22
     508      12                                                00010000D     23
     508                       1       1                               0D     24
     508      13                                                00010000D     25
     508                       1       1                               0D     26
     508      14                                                00010000D     27
     508                       1       1                               0D     28
     508      15                                                00010000D     29
     508                       1       1                               0D     30
     508      16                                                00010000D     31
     508                       1       1                               0D     32
     508      17                                                00010000D     33
     508                       1       1                               0D     34
     508      18                                                00010000D     35
     508                       1       1                               0D     36
     508      19                                                00010000D     37
     508                       1       1                               0D     38
     508      20                                                00010000D     39
     508                       1       1                               0D     40
     508      21                                                00010000D     41
     508                       1       1                               0D     42
     508      22                                                00010000D     43
     508                       1       1                               0D     44
     508      23                                                00010000D     45
     508                       1       1                               0D     46
     126      24                                                00010000D     47
     126       0              10       0                               0D     48
     126      34                                                00010000D     49
     126       0               2       0                               0D     50
     126      36                                                00010000D     51
     126       0              10       0                               0D     52
     126      46                                                00010000D     53
     126       0               9       0                               0D     54
     126      55                                                00010000D     55
     126       0               2       0                               0D     56
     126      57                                                00010000D     57
     126       0               9       0                               0D     58
     126      66                                                00010000D     59
     126       0               9       0                               0D     60
     126      75                                                00010000D     61
     126       0               2       0                               0D     62
     126      77                                                00010000D     63
     126       0               9       0                               0D     64
     126      86                                                00010000D     65
     126       0              10       0                               0D     66
     126      96                                                00010000D     67
     126       0               2       0                               0D     68
     126      98                                                00010000D     69
     126       0              10       0                               0D     70
     128     108                                                00010000D     71
     128       0     -95      12       0                               0D     72
     128     120                                                00010000D     73
     128       0     -95       3       0                               0D     74
     128     123                                                00010000D     75
     128       0     -95      11       0                               0D     76
     128     134                                                00010000D     77
     128       0     -95       3       0                               0D     78
     128     137                                                00010000D     79
     128       0     -95      11       0                               0D     80
     128     148                                                00010000D     81
     128       0     -95       3       0                               0D     82
     128     151                                                00010000D     83
     128       0     -95      12       0                               0D     84
     128     163                                                00010000D     85
     128       0     -95       3       0                               0D     86
     128     166                                                00010000D     87
     128       0     -95       3       0                               0D     88
     502     169                                                00010000D     89
     502                       5       1                               0D     90
     504     174                                                00010001D     91
     504                       3       1                               0D     92
     406     177                                                00000000D     93
     406                       1      15                               0D     94
     314     178                                                00000200D     95
     314                       2       0                               0D     96
186,3,1,0,0,1,93;                                                      1P      1
514,9,5,1,7,1,9,1,11,1,13,1,15,1,17,1,19,1,21,1;                       3P      2
510,71,1,1,23;                                                         5P      3
510,73,1,1,25;                                                         7P      4
510,75,1,1,27;                                                         9P      5
510,77,1,1,29;                                                        11P      6
510,79,1,1,31;                                                        13P      7
510,81,1,1,33;                                                        15P      8
510,83,1,1,35;                                                        17P      9
510,85,1,1,37;                                                        19P     10
510,87,4,1,39,41,43,45;                                               21P     11
508,4,0,91,1,0,0,0,91,2,1,0,0,91,3,0,0,0,91,2,0,0;                    23P     12
508,1,0,91,1,1,0;                                                     25P     13
508,4,0,91,4,0,0,0,91,5,1,0,0,91,6,1,0,0,91,5,0,0;                    27P     14
508,1,0,91,6,0,0;                                                     29P     15
508,4,0,91,7,0,0,0,91,8,1,0,0,91,9,1,0,0,91,8,0,0;                    31P     16
508,1,0,91,9,0,0;                                                     33P     17
508,4,0,91,10,0,0,0,91,11,1,0,0,91,12,1,0,0,91,11,0,0;                35P     18
508,1,0,91,10,1,0;                                                    37P     19
508,1,0,91,12,0,0;                                                    39P     20
508,1,0,91,3,1,0;                                                     41P     21
508,1,0,91,4,1,0;                                                     43P     22
508,1,0,91,7,1,0;                                                     45P     23
126,8,2,0,1,0,0,-3.14159265358979,-3.14159265358979,                  47P     24
-3.14159265358979,-1.5707963267949,-1.5707963267949,0.,0.,            47P     25
1.5707963267949,1.5707963267949,3.14159265358979,                     47P     26
3.14159265358979,3.14159265358979,1.,0.707106781186548,1.,            47P     27
0.707106781186547,1.,0.707106781186547,1.,0.707106781186548,1.,       47P     28
-4.,-6.6,8.08266887437253D-16,-4.,-6.6,6.6,-4.,                       47P     29
4.04133443718627D-16,6.6,-4.,6.6,6.6,-4.,6.6,0.,-4.,6.6,-6.6,         47P     30
-4.,4.04133443718627D-16,-6.6,-4.,-6.6,-6.6,-4.,-6.6,                 47P     31
-8.08266887437253D-16,-3.14159265358979,3.14159265358979,0.,0.,       47P     32
0.;                                                                   47P     33
126,1,1,0,0,1,0,-0.606060606060606,-0.606060606060606,0.,0.,1.,       49P     34
1.,-4.,-6.6,0.,0.,-6.6,0.,-0.606060606060606,0.,0.,0.,0.;             49P     35
126,8,2,0,1,0,0,-3.14159265358979,-3.14159265358979,                  51P     36
-3.14159265358979,-1.5707963267949,-1.5707963267949,0.,0.,            51P     37
1.5707963267949,1.5707963267949,3.14159265358979,                     51P     38
3.14159265358979,3.14159265358979,1.,0.707106781186548,1.,            51P     39
0.707106781186547,1.,0.707106781186547,1.,0.707106781186548,1.,       51P     40
0.,-6.6,-8.08266887437253D-16,0.,-6.6,-6.6,0.,                        51P     41
4.04133443718627D-16,-6.6,0.,6.6,-6.6,0.,6.6,0.,0.,6.6,6.6,0.,        51P     42
4.04133443718627D-16,6.6,0.,-6.6,6.6,0.,-6.6,                         51P     43
8.08266887437253D-16,-3.14159265358979,3.14159265358979,0.,0.,        51P     44
0.;                                                                   51P     45
126,8,2,0,1,0,0,-3.14159265358979,-3.14159265358979,                  53P     46
-3.14159265358979,-1.5707963267949,-1.5707963267949,0.,0.,            53P     47
1.5707963267949,1.5707963267949,3.14159265358979,                     53P     48
3.14159265358979,3.14159265358979,1.,0.707106781186549,1.,            53P     49
0.707106781186549,1.,0.707106781186549,1.,0.707106781186549,1.,       53P     50
0.,-14.,-1.83697019872103D-16,0.,-14.,-1.5,0.,-12.5,-1.5,0.,          53P     51
-11.,-1.5,0.,-11.,0.,0.,-11.,1.5,0.,-12.5,1.5,0.,-14.,1.5,0.,         53P     52
-14.,1.83697019872103D-16,-3.14159265358979,3.14159265358979,0.,      53P     53
0.,0.;                                                                53P     54
126,1,1,0,0,1,0,0.,0.,2.,2.,1.,1.,0.,-14.,0.,3.,-14.,0.,0.,2.,        55P     55
0.,0.,0.;                                                             55P     56
126,8,2,0,1,0,0,-3.14159265358979,-3.14159265358979,                  57P     57
-3.14159265358979,-1.5707963267949,-1.5707963267949,0.,0.,            57P     58
1.5707963267949,1.5707963267949,3.14159265358979,                     57P     59
3.14159265358979,3.14159265358979,1.,0.707106781186549,1.,            57P     60
0.707106781186549,1.,0.707106781186549,1.,0.707106781186549,1.,       57P     61
3.,-14.,-1.83697019872103D-16,3.,-14.,-1.5,3.,-12.5,-1.5,3.,          57P     62
-11.,-1.5,3.,-11.,0.,3.,-11.,1.5,3.,-12.5,1.5,3.,-14.,1.5,3.,         57P     63
-14.,1.83697019872103D-16,-3.14159265358979,3.14159265358979,0.,      57P     64
0.,0.;                                                                57P     65
126,8,2,0,1,0,0,-3.14159265358979,-3.14159265358979,                  59P     66
-3.14159265358979,-1.5707963267949,-1.5707963267949,0.,0.,            59P     67
1.5707963267949,1.5707963267949,3.14159265358979,                     59P     68
3.14159265358979,3.14159265358979,1.,0.707106781186549,1.,            59P     69
0.707106781186549,1.,0.707106781186549,1.,0.707106781186549,1.,       59P     70
0.,11.,-1.83697019872103D-16,0.,11.,-1.5,0.,12.5,-1.5,0.,14.,         59P     71
-1.5,0.,14.,0.,0.,14.,1.5,0.,12.5,1.5,0.,11.,1.5,0.,11.,              59P     72
1.83697019872103D-16,-3.14159265358979,3.14159265358979,0.,0.,        59P     73
0.;                                                                   59P     74
126,1,1,0,0,1,0,0.,0.,2.,2.,1.,1.,0.,11.,0.,3.,11.,0.,0.,2.,0.,       61P     75
0.,0.;                                                                61P     76
126,8,2,0,1,0,0,-3.14159265358979,-3.14159265358979,                  63P     77
-3.14159265358979,-1.5707963267949,-1.5707963267949,0.,0.,            63P     78
1.5707963267949,1.5707963267949,3.14159265358979,                     63P     79
3.14159265358979,3.14159265358979,1.,0.707106781186549,1.,            63P     80
0.707106781186549,1.,0.707106781186549,1.,0.707106781186549,1.,       63P     81
3.,11.,-1.83697019872103D-16,3.,11.,-1.5,3.,12.5,-1.5,3.,14.,         63P     82
-1.5,3.,14.,0.,3.,14.,1.5,3.,12.5,1.5,3.,11.,1.5,3.,11.,              63P     83
1.83697019872103D-16,-3.14159265358979,3.14159265358979,0.,0.,        63P     84
0.;                                                                   63P     85
126,8,2,0,1,0,0,-3.14159265358979,-3.14159265358979,                  65P     86
-3.14159265358979,-1.5707963267949,-1.5707963267949,0.,0.,            65P     87
1.5707963267949,1.5707963267949,3.14159265358979,                     65P     88
3.14159265358979,3.14159265358979,1.,0.707106781186547,1.,            65P     89
0.707106781186548,1.,0.707106781186548,1.,0.707106781186547,1.,       65P     90
58.,-17.9,-2.19211777047376D-15,58.,-17.9,-17.9,58.,                  65P     91
1.09605888523688D-15,-17.9,58.,17.9,-17.9,58.,17.9,0.,58.,17.9,       65P     92
17.9,58.,1.09605888523688D-15,17.9,58.,-17.9,17.9,58.,-17.9,          65P     93
2.19211777047376D-15,-3.14159265358979,3.14159265358979,0.,0.,        65P     94
0.;                                                                   65P     95
126,1,1,0,0,1,0,-3.24022346368715,-3.24022346368715,0.,0.,1.,1.,      67P     96
58.,-17.9,0.,0.,-17.9,0.,-3.24022346368715,0.,0.,0.,0.;               67P     97
126,8,2,0,1,0,0,-3.14159265358979,-3.14159265358979,                  69P     98
-3.14159265358979,-1.5707963267949,-1.5707963267949,0.,0.,            69P     99
1.5707963267949,1.5707963267949,3.14159265358979,                     69P    100
3.14159265358979,3.14159265358979,1.,0.707106781186547,1.,            69P    101
0.707106781186548,1.,0.707106781186548,1.,0.707106781186547,1.,       69P    102
0.,-17.9,-2.19211777047376D-15,0.,-17.9,-17.9,0.,                     69P    103
1.09605888523688D-15,-17.9,0.,17.9,-17.9,0.,17.9,0.,0.,17.9,          69P    104
17.9,0.,1.09605888523688D-15,17.9,0.,-17.9,17.9,0.,-17.9,             69P    105
2.19211777047376D-15,-3.14159265358979,3.14159265358979,0.,0.,        69P    106
0.;                                                                   69P    107
128,1,8,1,2,0,1,0,0,1,0.,0.,0.606060606060606,0.606060606060606,      71P    108
-3.14159265358979,-3.14159265358979,-3.14159265358979,                71P    109
-1.5707963267949,-1.5707963267949,0.,0.,1.5707963267949,              71P    110
1.5707963267949,3.14159265358979,3.14159265358979,                    71P    111
3.14159265358979,1.,1.,0.707106781186548,0.707106781186548,1.,        71P    112
1.,0.707106781186548,0.707106781186548,1.,1.,0.707106781186548,       71P    113
0.707106781186548,1.,1.,0.707106781186548,0.707106781186548,1.,       71P    114
1.,-4.,-6.6,0.,0.,-6.6,0.,-4.,-6.6,6.6,0.,-6.6,6.6,-4.,0.,6.6,        71P    115
0.,0.,6.6,-4.,6.6,6.6,0.,6.6,6.6,-4.,6.6,0.,0.,6.6,0.,-4.,6.6,        71P    116
-6.6,0.,6.6,-6.6,-4.,0.,-6.6,0.,0.,-6.6,-4.,-6.6,-6.6,0.,-6.6,        71P    117
-6.6,-4.,-6.6,0.,0.,-6.6,0.,0.,0.606060606060606,                     71P    118
-3.14159265358979,3.14159265358979;                                   71P    119
128,1,1,1,1,0,0,1,0,0,-0.661,-0.661,0.661,0.661,-0.661,-0.661,        73P    120
0.661,0.661,1.,1.,1.,1.,-4.,6.61,-6.61,-4.,-6.61,-6.61,-4.,6.61,      73P    121
6.61,-4.,-6.61,6.61,-0.661,0.661,-0.661,0.661;                        73P    122
128,1,8,1,2,0,1,0,0,1,0.,0.,2.,2.,-3.14159265358979,                  75P    123
-3.14159265358979,-3.14159265358979,-1.5707963267949,                 75P    124
-1.5707963267949,0.,0.,1.5707963267949,1.5707963267949,               75P    125
3.14159265358979,3.14159265358979,3.14159265358979,1.,1.,             75P    126
0.707106781186548,0.707106781186548,1.,1.,0.707106781186548,          75P    127
0.707106781186548,1.,1.,0.707106781186548,0.707106781186548,1.,       75P    128
1.,0.707106781186548,0.707106781186548,1.,1.,0.,-14.,0.,3.,-14.,      75P    129
0.,0.,-14.,-1.5,3.,-14.,-1.5,0.,-12.5,-1.5,3.,-12.5,-1.5,0.,          75P    130
-11.,-1.5,3.,-11.,-1.5,0.,-11.,0.,3.,-11.,0.,0.,-11.,1.5,3.,          75P    131
-11.,1.5,0.,-12.5,1.5,3.,-12.5,1.5,0.,-14.,1.5,3.,-14.,1.5,0.,        75P    132
-14.,0.,3.,-14.,0.,0.,2.,-3.14159265358979,3.14159265358979;          75P    133
128,1,1,1,1,0,0,1,0,0,-0.151,-0.151,0.151,0.151,-0.151,-0.151,        77P    134
0.151,0.151,1.,1.,1.,1.,3.,-10.99,-1.51,3.,-14.01,-1.51,3.,           77P    135
-10.99,1.51,3.,-14.01,1.51,-0.151,0.151,-0.151,0.151;                 77P    136
128,1,8,1,2,0,1,0,0,1,0.,0.,2.,2.,-3.14159265358979,                  79P    137
-3.14159265358979,-3.14159265358979,-1.5707963267949,                 79P    138
-1.5707963267949,0.,0.,1.5707963267949,1.5707963267949,               79P    139
3.14159265358979,3.14159265358979,3.14159265358979,1.,1.,             79P    140
0.707106781186548,0.707106781186548,1.,1.,0.707106781186548,          79P    141
0.707106781186548,1.,1.,0.707106781186548,0.707106781186548,1.,       79P    142
1.,0.707106781186548,0.707106781186548,1.,1.,0.,11.,0.,3.,11.,        79P    143
0.,0.,11.,-1.5,3.,11.,-1.5,0.,12.5,-1.5,3.,12.5,-1.5,0.,14.,          79P    144
-1.5,3.,14.,-1.5,0.,14.,0.,3.,14.,0.,0.,14.,1.5,3.,14.,1.5,0.,        79P    145
12.5,1.5,3.,12.5,1.5,0.,11.,1.5,3.,11.,1.5,0.,11.,0.,3.,11.,0.,       79P    146
0.,2.,-3.14159265358979,3.14159265358979;                             79P    147
128,1,1,1,1,0,0,1,0,0,-0.151,-0.151,0.151,0.151,-0.151,-0.151,        81P    148
0.151,0.151,1.,1.,1.,1.,3.,14.01,-1.51,3.,10.99,-1.51,3.,14.01,       81P    149
1.51,3.,10.99,1.51,-0.151,0.151,-0.151,0.151;                         81P    150
128,1,8,1,2,0,1,0,0,1,0.,0.,3.24022346368715,3.24022346368715,        83P    151
-3.14159265358979,-3.14159265358979,-3.14159265358979,                83P    152
-1.5707963267949,-1.5707963267949,0.,0.,1.5707963267949,              83P    153
1.5707963267949,3.14159265358979,3.14159265358979,                    83P    154
3.14159265358979,1.,1.,0.707106781186548,0.707106781186548,1.,        83P    155
1.,0.707106781186548,0.707106781186548,1.,1.,0.707106781186548,       83P    156
0.707106781186548,1.,1.,0.707106781186548,0.707106781186548,1.,       83P    157
1.,58.,-17.9,0.,0.,-17.9,0.,58.,-17.9,-17.9,0.,-17.9,-17.9,58.,       83P    158
0.,-17.9,0.,0.,-17.9,58.,17.9,-17.9,0.,17.9,-17.9,58.,17.9,0.,        83P    159
0.,17.9,0.,58.,17.9,17.9,0.,17.9,17.9,58.,0.,17.9,0.,0.,17.9,         83P    160
58.,-17.9,17.9,0.,-17.9,17.9,58.,-17.9,0.,0.,-17.9,0.,0.,             83P    161
3.24022346368715,-3.14159265358979,3.14159265358979;                  83P    162
128,1,1,1,1,0,0,1,0,0,-1.791,-1.791,1.791,1.791,-1.791,-1.791,        85P    163
1.791,1.791,1.,1.,1.,1.,58.,-17.91,-17.91,58.,17.91,-17.91,58.,       85P    164
-17.91,17.91,58.,17.91,17.91,-1.791,1.791,-1.791,1.791;               85P    165
128,1,1,1,1,0,0,1,0,0,-1.791,-1.791,1.791,1.791,-1.791,-1.791,        87P    166
1.791,1.791,1.,1.,1.,1.,0.,17.91,-17.91,0.,-17.91,-17.91,0.,          87P    167
17.91,17.91,0.,-17.91,17.91,-1.791,1.791,-1.791,1.791;                87P    168
502,8,-4.,-6.6,-8.08266887437253D-16,0.,-6.6,                         89P    169
-8.08266887437253D-16,0.,-14.,-1.83697019872103D-16,3.,-14.,          89P    170
-1.83697019872103D-16,0.,11.,-1.83697019872103D-16,3.,11.,            89P    171
-1.83697019872103D-16,58.,-17.9,-2.19211777047376D-15,0.,-17.9,       89P    172
-2.19211777047376D-15;                                                89P    173
504,12,47,89,1,89,1,49,89,1,89,2,51,89,2,89,2,53,89,3,89,3,55,        91P    174
89,3,89,4,57,89,4,89,4,59,89,5,89,5,61,89,5,89,6,63,89,6,89,6,        91P    175
65,89,7,89,7,67,89,7,89,8,69,89,8,89,8;                               91P    176
406,1,5HBody1;                                                        93P    177
314,62.7450980392157,62.7450980392157,62.7450980392157,13HSteel       95P    178
- Satin;                                                              95P    179
S      1G      2D     96P    179                                        T      1
