                                                                        S      1
,,11HMotor Stand,11HMotor Stand,7Hunknown,7Hunknown,32,38,7,99,15,,1.,2,G      1
2HMM,1,0.08,15H20220922.115516,0.01,10000.,7Hunknown,7Hunknown,11,0,;   G      2
     186       1                                                00000000D      1
     186            -135       1       0                               0D      2
     514       2                                                00010000D      3
     514                       1       1                               0D      4
     510       3                                                00010000D      5
     510            -135       1       1                               0D      6
     510       4                                                00010000D      7
     510            -135       1       1                               0D      8
     510       5                                                00010000D      9
     510            -135       1       1                               0D     10
     510       6                                                00010000D     11
     510            -135       1       1                               0D     12
     510       7                                                00010000D     13
     510            -135       1       1                               0D     14
     510       8                                                00010000D     15
     510            -135       1       1                               0D     16
     510       9                                                00010000D     17
     510            -135       1       1                               0D     18
     510      10                                                00010000D     19
     510            -135       1       1                               0D     20
     510      11                                                00010000D     21
     510            -135       1       1                               0D     22
     510      12                                                00010000D     23
     510            -135       1       1                               0D     24
     508      13                                                00010000D     25
     508                       1       1                               0D     26
     508      14                                                00010000D     27
     508                       1       1                               0D     28
     508      15                                                00010000D     29
     508                       1       1                               0D     30
     508      16                                                00010000D     31
     508                       1       1                               0D     32
     508      17                                                00010000D     33
     508                       1       1                               0D     34
     508      18                                                00010000D     35
     508                       1       1                               0D     36
     508      19                                                00010000D     37
     508                       1       1                               0D     38
     508      20                                                00010000D     39
     508                       1       1                               0D     40
     508      21                                                00010000D     41
     508                       1       1                               0D     42
     508      22                                                00010000D     43
     508                       1       1                               0D     44
     508      23                                                00010000D     45
     508                       1       1                               0D     46
     508      24                                                00010000D     47
     508                       1       1                               0D     48
     508      25                                                00010000D     49
     508                       1       1                               0D     50
     508      26                                                00010000D     51
     508                       1       1                               0D     52
     508      27                                                00010000D     53
     508                       1       1                               0D     54
     508      28                                                00010000D     55
     508                       1       1                               0D     56
     508      29                                                00010000D     57
     508                       1       1                               0D     58
     508      30                                                00010000D     59
     508                       1       1                               0D     60
     126      31                                                00010000D     61
     126       0              11       0                               0D     62
     126      42                                                00010000D     63
     126       0               3       0                               0D     64
     126      45                                                00010000D     65
     126       0              11       0                               0D     66
     126      56                                                00010000D     67
     126       0               9       0                               0D     68
     126      65                                                00010000D     69
     126       0               2       0                               0D     70
     126      67                                                00010000D     71
     126       0               9       0                               0D     72
     126      76                                                00010000D     73
     126       0              10       0                               0D     74
     126      86                                                00010000D     75
     126       0               2       0                               0D     76
     126      88                                                00010000D     77
     126       0              10       0                               0D     78
     126      98                                                00010000D     79
     126       0               9       0                               0D     80
     126     107                                                00010000D     81
     126       0               2       0                               0D     82
     126     109                                                00010000D     83
     126       0               9       0                               0D     84
     126     118                                                00010000D     85
     126       0               2       0                               0D     86
     126     120                                                00010000D     87
     126       0               2       0                               0D     88
     126     122                                                00010000D     89
     126       0               2       0                               0D     90
     126     124                                                00010000D     91
     126       0               2       0                               0D     92
     126     126                                                00010000D     93
     126       0               2       0                               0D     94
     126     128                                                00010000D     95
     126       0               2       0                               0D     96
     126     130                                                00010000D     97
     126       0               2       0                               0D     98
     126     132                                                00010000D     99
     126       0               2       0                               0D    100
     126     134                                                00010000D    101
     126       0               2       0                               0D    102
     126     136                                                00010000D    103
     126       0               2       0                               0D    104
     126     138                                                00010000D    105
     126       0               2       0                               0D    106
     126     140                                                00010000D    107
     126       0               2       0                               0D    108
     128     142                                                00010000D    109
     128       0    -135      17       0                               0D    110
     128     159                                                00010000D    111
     128       0    -135      12       0                               0D    112
     128     171                                                00010000D    113
     128       0    -135      12       0                               0D    114
     128     183                                                00010000D    115
     128       0    -135      12       0                               0D    116
     128     195                                                00010000D    117
     128       0    -135       3       0                               0D    118
     128     198                                                00010000D    119
     128       0    -135       3       0                               0D    120
     128     201                                                00010000D    121
     128       0    -135       3       0                               0D    122
     128     204                                                00010000D    123
     128       0    -135       3       0                               0D    124
     128     207                                                00010000D    125
     128       0    -135       3       0                               0D    126
     128     210                                                00010000D    127
     128       0    -135       3       0                               0D    128
     502     213                                                00010000D    129
     502                       6       1                               0D    130
     504     219                                                00010001D    131
     504                       7       1                               0D    132
     406     226                                                00000000D    133
     406                       1      15                               0D    134
     314     227                                                00000200D    135
     314                       2       0                               0D    136
186,3,1,0,0,1,133;                                                     1P      1
514,10,5,1,7,1,9,1,11,1,13,1,15,1,17,1,19,1,21,1,23,1;                 3P      2
510,109,1,1,25;                                                        5P      3
510,111,1,1,27;                                                        7P      4
510,113,1,1,29;                                                        9P      5
510,115,1,1,31;                                                       11P      6
510,117,1,1,33;                                                       13P      7
510,119,1,1,35;                                                       15P      8
510,121,1,1,37;                                                       17P      9
510,123,1,1,39;                                                       19P     10
510,125,5,1,41,43,45,47,49;                                           21P     11
510,127,5,1,51,53,55,57,59;                                           23P     12
508,4,0,131,1,0,0,0,131,2,1,0,0,131,3,0,0,0,131,2,0,0;                25P     13
508,4,0,131,4,0,0,0,131,5,1,0,0,131,6,0,0,0,131,5,0,0;                27P     14
508,4,0,131,7,0,0,0,131,8,1,0,0,131,9,0,0,0,131,8,0,0;                29P     15
508,4,0,131,10,0,0,0,131,11,1,0,0,131,12,0,0,0,131,11,0,0;            31P     16
508,4,0,131,13,0,0,0,131,14,1,0,0,131,15,0,0,0,131,16,0,0;            33P     17
508,4,0,131,17,0,0,0,131,16,1,0,0,131,18,0,0,0,131,19,0,0;            35P     18
508,4,0,131,20,0,0,0,131,19,1,0,0,131,21,0,0,0,131,22,0,0;            37P     19
508,4,0,131,23,0,0,0,131,22,1,0,0,131,24,0,0,0,131,14,0,0;            39P     20
508,4,0,131,23,1,0,0,131,13,1,0,0,131,17,1,0,0,131,20,1,0;            41P     21
508,1,0,131,3,1,0;                                                    43P     22
508,1,0,131,12,1,0;                                                   45P     23
508,1,0,131,9,1,0;                                                    47P     24
508,1,0,131,6,1,0;                                                    49P     25
508,4,0,131,24,1,0,0,131,21,1,0,0,131,18,1,0,0,131,15,1,0;            51P     26
508,1,0,131,1,1,0;                                                    53P     27
508,1,0,131,10,1,0;                                                   55P     28
508,1,0,131,7,1,0;                                                    57P     29
508,1,0,131,4,1,0;                                                    59P     30
126,8,2,0,1,0,0,-3.14159265358979,-3.14159265358979,                  61P     31
-3.14159265358979,-1.5707963267949,-1.5707963267949,0.,0.,            61P     32
1.5707963267949,1.5707963267949,3.14159265358979,                     61P     33
3.14159265358979,3.14159265358979,1.,0.707106781186548,1.,            61P     34
0.707106781186548,1.,0.707106781186548,1.,0.707106781186549,1.,       61P     35
-4.,-44.,-5.64090712923803D-14,-4.,-44.,3.99999999999995,-4.,         61P     36
-48.,3.99999999999995,-4.,-52.,3.99999999999995,-4.,-52.,             61P     37
-5.68989300120393D-14,-4.,-52.,-4.00000000000006,-4.,-48.,            61P     38
-4.00000000000006,-4.,-44.,-4.00000000000006,-4.,-44.,                61P     39
-5.73887887316982D-14,-3.14159265358979,3.14159265358979,0.,0.,       61P     40
0.;                                                                   61P     41
126,1,1,0,0,1,0,0.,0.,0.999999999999999,0.999999999999999,1.,1.,      63P     42
-4.,-44.,-5.68989300120393D-14,0.,-44.,-5.68989300120393D-14,0.,      63P     43
0.999999999999999,0.,0.,0.;                                           63P     44
126,8,2,0,1,0,0,-3.14159265358979,-3.14159265358979,                  65P     45
-3.14159265358979,-1.5707963267949,-1.5707963267949,0.,0.,            65P     46
1.5707963267949,1.5707963267949,3.14159265358979,                     65P     47
3.14159265358979,3.14159265358979,1.,0.707106781186549,1.,            65P     48
0.707106781186548,1.,0.707106781186548,1.,0.707106781186548,1.,       65P     49
0.,-44.,-5.73887887316982D-14,0.,-44.,-4.00000000000006,0.,-48.,      65P     50
-4.00000000000006,0.,-52.,-4.00000000000006,0.,-52.,                  65P     51
-5.68989300120393D-14,0.,-52.,3.99999999999995,0.,-48.,               65P     52
3.99999999999995,0.,-44.,3.99999999999995,0.,-44.,                    65P     53
-5.64090712923803D-14,-3.14159265358979,3.14159265358979,0.,0.,       65P     54
0.;                                                                   65P     55
126,8,2,0,1,0,0,-3.14159265358979,-3.14159265358979,                  67P     56
-3.14159265358979,-1.5707963267949,-1.5707963267949,0.,0.,            67P     57
1.5707963267949,1.5707963267949,3.14159265358979,                     67P     58
3.14159265358979,3.14159265358979,1.,0.707106781186549,1.,            67P     59
0.707106781186549,1.,0.707106781186549,1.,0.707106781186549,1.,       67P     60
-4.,11.,-1.83697019872103D-16,-4.,11.,-1.5,-4.,12.5,-1.5,-4.,         67P     61
14.,-1.5,-4.,14.,0.,-4.,14.,1.5,-4.,12.5,1.5,-4.,11.,1.5,-4.,         67P     62
11.,1.83697019872103D-16,-3.14159265358979,3.14159265358979,0.,       67P     63
0.,0.;                                                                67P     64
126,1,1,0,0,1,0,-2.66666666666667,-2.66666666666667,0.,0.,1.,1.,      69P     65
-4.,11.,0.,0.,11.,0.,-2.66666666666667,0.,0.,0.,0.;                   69P     66
126,8,2,0,1,0,0,-3.14159265358979,-3.14159265358979,                  71P     67
-3.14159265358979,-1.5707963267949,-1.5707963267949,0.,0.,            71P     68
1.5707963267949,1.5707963267949,3.14159265358979,                     71P     69
3.14159265358979,3.14159265358979,1.,0.707106781186549,1.,            71P     70
0.707106781186549,1.,0.707106781186549,1.,0.707106781186549,1.,       71P     71
0.,11.,1.83697019872103D-16,0.,11.,1.5,0.,12.5,1.5,0.,14.,1.5,        71P     72
0.,14.,0.,0.,14.,-1.5,0.,12.5,-1.5,0.,11.,-1.5,0.,11.,                71P     73
-1.83697019872103D-16,-3.14159265358979,3.14159265358979,0.,0.,       71P     74
0.;                                                                   71P     75
126,8,2,0,1,0,0,-3.14159265358979,-3.14159265358979,                  73P     76
-3.14159265358979,-1.5707963267949,-1.5707963267949,0.,0.,            73P     77
1.5707963267949,1.5707963267949,3.14159265358979,                     73P     78
3.14159265358979,3.14159265358979,1.,0.707106781186548,1.,            73P     79
0.707106781186547,1.,0.707106781186547,1.,0.707106781186548,1.,       73P     80
-4.,-6.6,-8.08266887437253D-16,-4.,-6.6,-6.6,-4.,                     73P     81
4.04133443718627D-16,-6.6,-4.,6.6,-6.6,-4.,6.6,0.,-4.,6.6,6.6,        73P     82
-4.,4.04133443718627D-16,6.6,-4.,-6.6,6.6,-4.,-6.6,                   73P     83
8.08266887437253D-16,-3.14159265358979,3.14159265358979,0.,0.,        73P     84
0.;                                                                   73P     85
126,1,1,0,0,1,0,-0.606060606060606,-0.606060606060606,0.,0.,1.,       75P     86
1.,-4.,-6.6,0.,0.,-6.6,0.,-0.606060606060606,0.,0.,0.,0.;             75P     87
126,8,2,0,1,0,0,-3.14159265358979,-3.14159265358979,                  77P     88
-3.14159265358979,-1.5707963267949,-1.5707963267949,0.,0.,            77P     89
1.5707963267949,1.5707963267949,3.14159265358979,                     77P     90
3.14159265358979,3.14159265358979,1.,0.707106781186548,1.,            77P     91
0.707106781186547,1.,0.707106781186547,1.,0.707106781186548,1.,       77P     92
0.,-6.6,8.08266887437253D-16,0.,-6.6,6.6,0.,                          77P     93
4.04133443718627D-16,6.6,0.,6.6,6.6,0.,6.6,0.,0.,6.6,-6.6,0.,         77P     94
4.04133443718627D-16,-6.6,0.,-6.6,-6.6,0.,-6.6,                       77P     95
-8.08266887437253D-16,-3.14159265358979,3.14159265358979,0.,0.,       77P     96
0.;                                                                   77P     97
126,8,2,0,1,0,0,-3.14159265358979,-3.14159265358979,                  79P     98
-3.14159265358979,-1.5707963267949,-1.5707963267949,0.,0.,            79P     99
1.5707963267949,1.5707963267949,3.14159265358979,                     79P    100
3.14159265358979,3.14159265358979,1.,0.707106781186549,1.,            79P    101
0.707106781186549,1.,0.707106781186549,1.,0.707106781186549,1.,       79P    102
-4.,-14.,-1.83697019872103D-16,-4.,-14.,-1.5,-4.,-12.5,-1.5,-4.,      79P    103
-11.,-1.5,-4.,-11.,0.,-4.,-11.,1.5,-4.,-12.5,1.5,-4.,-14.,1.5,        79P    104
-4.,-14.,1.83697019872103D-16,-3.14159265358979,                      79P    105
3.14159265358979,0.,0.,0.;                                            79P    106
126,1,1,0,0,1,0,-2.66666666666667,-2.66666666666667,0.,0.,1.,1.,      81P    107
-4.,-14.,0.,0.,-14.,0.,-2.66666666666667,0.,0.,0.,0.;                 81P    108
126,8,2,0,1,0,0,-3.14159265358979,-3.14159265358979,                  83P    109
-3.14159265358979,-1.5707963267949,-1.5707963267949,0.,0.,            83P    110
1.5707963267949,1.5707963267949,3.14159265358979,                     83P    111
3.14159265358979,3.14159265358979,1.,0.707106781186549,1.,            83P    112
0.707106781186549,1.,0.707106781186549,1.,0.707106781186549,1.,       83P    113
0.,-14.,1.83697019872103D-16,0.,-14.,1.5,0.,-12.5,1.5,0.,-11.,        83P    114
1.5,0.,-11.,0.,0.,-11.,-1.5,0.,-12.5,-1.5,0.,-14.,-1.5,0.,-14.,       83P    115
-1.83697019872103D-16,-3.14159265358979,3.14159265358979,0.,0.,       83P    116
0.;                                                                   83P    117
126,1,1,0,0,1,0,0.,0.,13.,13.,1.,1.,0.,30.,30.,0.,-100.,30.,0.,       85P    118
13.,0.,0.,0.;                                                         85P    119
126,1,1,0,0,1,0,0.,0.,0.4,0.4,1.,1.,0.,30.,30.,-4.,30.,30.,0.,        87P    120
0.4,0.,0.,0.;                                                         87P    121
126,1,1,0,0,1,0,-13.,-13.,0.,0.,1.,1.,-4.,-100.,30.,-4.,30.,30.,      89P    122
-13.,0.,0.,0.,0.;                                                     89P    123
126,1,1,0,0,1,0,0.,0.,0.4,0.4,1.,1.,0.,-100.,30.,-4.,-100.,30.,       91P    124
0.,0.4,0.,0.,0.;                                                      91P    125
126,1,1,0,0,1,0,0.,0.,6.,6.,1.,1.,0.,-100.,30.,0.,-100.,-30.,0.,      93P    126
6.,0.,0.,0.;                                                          93P    127
126,1,1,0,0,1,0,-6.,-6.,0.,0.,1.,1.,-4.,-100.,-30.,-4.,-100.,         95P    128
30.,-6.,0.,0.,0.,0.;                                                  95P    129
126,1,1,0,0,1,0,0.,0.,0.4,0.4,1.,1.,0.,-100.,-30.,-4.,-100.,          97P    130
-30.,0.,0.4,0.,0.,0.;                                                 97P    131
126,1,1,0,0,1,0,0.,0.,13.,13.,1.,1.,0.,-100.,-30.,0.,30.,-30.,        99P    132
0.,13.,0.,0.,0.;                                                      99P    133
126,1,1,0,0,1,0,-13.,-13.,0.,0.,1.,1.,-4.,30.,-30.,-4.,-100.,        101P    134
-30.,-13.,0.,0.,0.,0.;                                               101P    135
126,1,1,0,0,1,0,0.,0.,0.4,0.4,1.,1.,0.,30.,-30.,-4.,30.,-30.,0.,     103P    136
0.4,0.,0.,0.;                                                        103P    137
126,1,1,0,0,1,0,0.,0.,6.,6.,1.,1.,0.,30.,-30.,0.,30.,30.,0.,6.,      105P    138
0.,0.,0.;                                                            105P    139
126,1,1,0,0,1,0,-6.,-6.,0.,0.,1.,1.,-4.,30.,30.,-4.,30.,-30.,        107P    140
-6.,0.,0.,0.,0.;                                                     107P    141
128,1,8,1,2,0,1,0,0,1,0.,0.,0.999999999999999,0.999999999999999,     109P    142
-3.14159265358979,-3.14159265358979,-3.14159265358979,               109P    143
-1.5707963267949,-1.5707963267949,0.,0.,1.5707963267949,             109P    144
1.5707963267949,3.14159265358979,3.14159265358979,                   109P    145
3.14159265358979,1.,1.,0.707106781186548,0.707106781186548,1.,       109P    146
1.,0.707106781186548,0.707106781186548,1.,1.,0.707106781186548,      109P    147
0.707106781186548,1.,1.,0.707106781186548,0.707106781186548,1.,      109P    148
1.,-4.,-44.,-5.68989300120393D-14,0.,-44.,-5.68989300120393D-14,     109P    149
-4.,-44.,3.99999999999995,0.,-44.,3.99999999999995,-4.,-48.,         109P    150
3.99999999999995,0.,-48.,3.99999999999995,-4.,-52.,                  109P    151
3.99999999999995,0.,-52.,3.99999999999995,-4.,-52.,                  109P    152
-5.68989300120393D-14,0.,-52.,-5.68989300120393D-14,-4.,-52.,        109P    153
-4.00000000000006,0.,-52.,-4.00000000000006,-4.,-48.,                109P    154
-4.00000000000006,0.,-48.,-4.00000000000006,-4.,-44.,                109P    155
-4.00000000000006,0.,-44.,-4.00000000000006,-4.,-44.,                109P    156
-5.68989300120393D-14,0.,-44.,-5.68989300120393D-14,0.,              109P    157
0.999999999999999,-3.14159265358979,3.14159265358979;                109P    158
128,1,8,1,2,0,1,0,0,1,0.,0.,2.66666666666667,2.66666666666667,       111P    159
-3.14159265358979,-3.14159265358979,-3.14159265358979,               111P    160
-1.5707963267949,-1.5707963267949,0.,0.,1.5707963267949,             111P    161
1.5707963267949,3.14159265358979,3.14159265358979,                   111P    162
3.14159265358979,1.,1.,0.707106781186548,0.707106781186548,1.,       111P    163
1.,0.707106781186548,0.707106781186548,1.,1.,0.707106781186548,      111P    164
0.707106781186548,1.,1.,0.707106781186548,0.707106781186548,1.,      111P    165
1.,0.,11.,0.,-4.,11.,0.,0.,11.,1.5,-4.,11.,1.5,0.,12.5,1.5,-4.,      111P    166
12.5,1.5,0.,14.,1.5,-4.,14.,1.5,0.,14.,0.,-4.,14.,0.,0.,14.,         111P    167
-1.5,-4.,14.,-1.5,0.,12.5,-1.5,-4.,12.5,-1.5,0.,11.,-1.5,-4.,        111P    168
11.,-1.5,0.,11.,0.,-4.,11.,0.,0.,2.66666666666667,                   111P    169
-3.14159265358979,3.14159265358979;                                  111P    170
128,1,8,1,2,0,1,0,0,1,0.,0.,0.606060606060606,0.606060606060606,     113P    171
-3.14159265358979,-3.14159265358979,-3.14159265358979,               113P    172
-1.5707963267949,-1.5707963267949,0.,0.,1.5707963267949,             113P    173
1.5707963267949,3.14159265358979,3.14159265358979,                   113P    174
3.14159265358979,1.,1.,0.707106781186548,0.707106781186548,1.,       113P    175
1.,0.707106781186548,0.707106781186548,1.,1.,0.707106781186548,      113P    176
0.707106781186548,1.,1.,0.707106781186548,0.707106781186548,1.,      113P    177
1.,0.,-6.6,0.,-4.,-6.6,0.,0.,-6.6,6.6,-4.,-6.6,6.6,0.,0.,6.6,        113P    178
-4.,0.,6.6,0.,6.6,6.6,-4.,6.6,6.6,0.,6.6,0.,-4.,6.6,0.,0.,6.6,       113P    179
-6.6,-4.,6.6,-6.6,0.,0.,-6.6,-4.,0.,-6.6,0.,-6.6,-6.6,-4.,-6.6,      113P    180
-6.6,0.,-6.6,0.,-4.,-6.6,0.,0.,0.606060606060606,                    113P    181
-3.14159265358979,3.14159265358979;                                  113P    182
128,1,8,1,2,0,1,0,0,1,0.,0.,2.66666666666667,2.66666666666667,       115P    183
-3.14159265358979,-3.14159265358979,-3.14159265358979,               115P    184
-1.5707963267949,-1.5707963267949,0.,0.,1.5707963267949,             115P    185
1.5707963267949,3.14159265358979,3.14159265358979,                   115P    186
3.14159265358979,1.,1.,0.707106781186548,0.707106781186548,1.,       115P    187
1.,0.707106781186548,0.707106781186548,1.,1.,0.707106781186548,      115P    188
0.707106781186548,1.,1.,0.707106781186548,0.707106781186548,1.,      115P    189
1.,0.,-14.,0.,-4.,-14.,0.,0.,-14.,1.5,-4.,-14.,1.5,0.,-12.5,1.5,     115P    190
-4.,-12.5,1.5,0.,-11.,1.5,-4.,-11.,1.5,0.,-11.,0.,-4.,-11.,0.,       115P    191
0.,-11.,-1.5,-4.,-11.,-1.5,0.,-12.5,-1.5,-4.,-12.5,-1.5,0.,-14.,     115P    192
-1.5,-4.,-14.,-1.5,0.,-14.,0.,-4.,-14.,0.,0.,2.66666666666667,       115P    193
-3.14159265358979,3.14159265358979;                                  115P    194
128,1,1,1,1,0,0,1,0,0,-0.001,-0.001,13.001,13.001,-0.001,-0.001,     117P    195
0.401,0.401,1.,1.,1.,1.,0.01,-100.01,30.,0.01,30.01,30.,-4.01,       117P    196
-100.01,30.,-4.01,30.01,30.,-0.001,13.001,-0.001,0.401;              117P    197
128,1,1,1,1,0,0,1,0,0,-0.001,-0.001,6.001,6.001,-0.001,-0.001,       119P    198
0.401,0.401,1.,1.,1.,1.,0.01,-100.,-30.01,0.01,-100.,30.01,          119P    199
-4.01,-100.,-30.01,-4.01,-100.,30.01,-0.001,6.001,-0.001,0.401;      119P    200
128,1,1,1,1,0,0,1,0,0,-0.001,-0.001,13.001,13.001,-0.001,-0.001,     121P    201
0.401,0.401,1.,1.,1.,1.,0.01,30.01,-30.,0.01,-100.01,-30.,-4.01,     121P    202
30.01,-30.,-4.01,-100.01,-30.,-0.001,13.001,-0.001,0.401;            121P    203
128,1,1,1,1,0,0,1,0,0,-0.001,-0.001,6.001,6.001,-0.001,-0.001,       123P    204
0.401,0.401,1.,1.,1.,1.,0.01,30.,30.01,0.01,30.,-30.01,-4.01,        123P    205
30.,30.01,-4.01,30.,-30.01,-0.001,6.001,-0.001,0.401;                123P    206
128,1,1,1,1,0,0,1,0,0,-6.501,-6.501,6.501,6.501,-3.001,-3.001,       125P    207
3.001,3.001,1.,1.,1.,1.,0.,-100.01,-30.01,0.,30.01,-30.01,0.,        125P    208
-100.01,30.01,0.,30.01,30.01,-6.501,6.501,-3.001,3.001;              125P    209
128,1,1,1,1,0,0,1,0,0,-6.501,-6.501,6.501,6.501,-3.001,-3.001,       127P    210
3.001,3.001,1.,1.,1.,1.,-4.,30.01,-30.01,-4.,-100.01,-30.01,-4.,     127P    211
30.01,30.01,-4.,-100.01,30.01,-6.501,6.501,-3.001,3.001;             127P    212
502,16,-4.,-44.,-5.73887887316982D-14,0.,-44.,                       129P    213
-5.73887887316982D-14,-4.,11.,-1.83697019872103D-16,0.,11.,          129P    214
-1.83697019872103D-16,-4.,-6.6,-8.08266887437253D-16,0.,-6.6,        129P    215
-8.08266887437253D-16,-4.,-14.,-1.83697019872103D-16,0.,-14.,        129P    216
-1.83697019872103D-16,0.,30.,30.,0.,-100.,30.,-4.,30.,30.,-4.,       129P    217
-100.,30.,0.,-100.,-30.,-4.,-100.,-30.,0.,30.,-30.,-4.,30.,-30.;     129P    218
504,24,61,129,1,129,1,63,129,1,129,2,65,129,2,129,2,67,129,3,        131P    219
129,3,69,129,3,129,4,71,129,4,129,4,73,129,5,129,5,75,129,5,129,     131P    220
6,77,129,6,129,6,79,129,7,129,7,81,129,7,129,8,83,129,8,129,8,       131P    221
85,129,9,129,10,87,129,9,129,11,89,129,12,129,11,91,129,10,129,      131P    222
12,93,129,10,129,13,95,129,14,129,12,97,129,13,129,14,99,129,13,     131P    223
129,15,101,129,16,129,14,103,129,15,129,16,105,129,15,129,9,107,     131P    224
129,11,129,16;                                                       131P    225
406,1,5HBody1;                                                       133P    226
314,62.7450980392157,62.7450980392157,62.7450980392157,13HSteel      135P    227
- Satin;                                                             135P    228
S      1G      2D    136P    228                                        T      1
