                                                                        S      1
,,4HPipe,4HPipe,7Hunknown,7Hunknown,32,38,7,99,15,,1.,2,2HMM,1,0.08,15H2G      1
0220922.115511,0.01,10000.,7Hunknown,7Hunknown,11,0,;                   G      2
     186       1                                                00000000D      1
     186             -51       1       0                               0D      2
     514       2                                                00010000D      3
     514                       1       1                               0D      4
     510       3                                                00010000D      5
     510             -51       1       1                               0D      6
     510       4                                                00010000D      7
     510             -51       1       1                               0D      8
     510       5                                                00010000D      9
     510             -51       1       1                               0D     10
     510       6                                                00010000D     11
     510             -51       1       1                               0D     12
     508       7                                                00010000D     13
     508                       1       1                               0D     14
     508       8                                                00010000D     15
     508                       1       1                               0D     16
     508       9                                                00010000D     17
     508                       1       1                               0D     18
     508      10                                                00010000D     19
     508                       1       1                               0D     20
     508      11                                                00010000D     21
     508                       1       1                               0D     22
     508      12                                                00010000D     23
     508                       1       1                               0D     24
     126      13                                                00010000D     25
     126       0              13       0                               0D     26
     126      26                                                00010000D     27
     126       0               8       0                               0D     28
     126      34                                                00010000D     29
     126       0               9       0                               0D     30
     126      43                                                00010000D     31
     126       0              13       0                               0D     32
     126      56                                                00010000D     33
     126       0               8       0                               0D     34
     126      64                                                00010000D     35
     126       0               9       0                               0D     36
     128      73                                                00010000D     37
     128       0     -51      44       0                               0D     38
     128     117                                                00010000D     39
     128       0     -51      44       0                               0D     40
     128     161                                                00010000D     41
     128       0     -51       5       0                               0D     42
     128     166                                                00010000D     43
     128       0     -51       3       0                               0D     44
     502     169                                                00010000D     45
     502                       4       1                               0D     46
     504     173                                                00010001D     47
     504                       2       1                               0D     48
     406     175                                                00000000D     49
     406                       1      15                               0D     50
     314     176                                                00000200D     51
     314                       2       0                               0D     52
186,3,1,0,0,1,49;                                                      1P      1
514,4,5,1,7,1,9,1,11,1;                                                3P      2
510,37,1,1,13;                                                         5P      3
510,39,1,1,15;                                                         7P      4
510,41,2,1,17,19;                                                      9P      5
510,43,2,1,21,23;                                                     11P      6
508,4,0,47,1,0,0,0,47,2,1,0,0,47,3,0,0,0,47,2,0,0;                    13P      7
508,4,0,47,4,0,0,0,47,5,1,0,0,47,6,0,0,0,47,5,0,0;                    15P      8
508,1,0,47,4,1,0;                                                     17P      9
508,1,0,47,1,1,0;                                                     19P     10
508,1,0,47,6,1,0;                                                     21P     11
508,1,0,47,3,1,0;                                                     23P     12
126,8,2,0,1,0,0,-3.14159265358979,-3.14159265358979,                  25P     13
-3.14159265358979,-1.5707963267949,-1.5707963267949,0.,0.,            25P     14
1.5707963267949,1.5707963267949,3.14159265358979,                     25P     15
3.14159265358979,3.14159265358979,1.,0.707106781186547,1.,            25P     16
0.707106781186547,1.,0.707106781186547,1.,0.707106781186547,1.,       25P     17
-28.1767592888553,72.1964004364338,-5.20474889637625D-15,             25P     18
-28.1767592888553,72.1964004364338,-42.5,-43.6285305117759,           25P     19
111.787974869317,-42.5,-59.0803017346966,151.3795493022,-42.5,        25P     20
-59.0803017346966,151.3795493022,0.,-59.0803017346966,                25P     21
151.3795493022,42.5,-43.6285305117759,111.787974869317,42.5,          25P     22
-28.1767592888553,72.1964004364338,42.5,-28.1767592888553,            25P     23
72.1964004364338,5.20474889637625D-15,-3.14159265358979,              25P     24
3.14159265358979,0.,0.,0.;                                            25P     25
126,4,2,0,0,0,0,-1.942894788534,-1.942894788534,-1.942894788534,      27P     26
-0.971447394267002,-0.971447394267002,0.,0.,0.,1.,                    27P     27
0.884337323815901,1.,0.884337323815901,1.,-28.1767592888553,          27P     28
72.1964004364338,-5.20474889637625D-15,9.93627571109961,              27P     29
87.0711283518093,-5.20474889637625D-15,43.7181378555498,              27P     30
63.9919871737325,-5.20474889637625D-15,77.5,40.9128459956557,         27P     31
-5.20474889637625D-15,77.5,0.,-5.20474889637625D-15,                  27P     32
-1.942894788534,0.,0.,0.,0.;                                          27P     33
126,8,2,0,1,0,0,-3.14159265358979,-3.14159265358979,                  29P     34
-3.14159265358979,-1.5707963267949,-1.5707963267949,0.,0.,            29P     35
1.5707963267949,1.5707963267949,3.14159265358979,                     29P     36
3.14159265358979,3.14159265358979,1.,0.707106781186547,1.,            29P     37
0.707106781186547,1.,0.707106781186547,1.,0.707106781186547,1.,       29P     38
77.5,0.,5.20474889637625D-15,77.5,0.,42.5,120.,0.,42.5,162.5,0.,      29P     39
42.5,162.5,0.,0.,162.5,0.,-42.5,120.,0.,-42.5,77.5,0.,-42.5,          29P     40
77.5,0.,-5.20474889637625D-15,-3.14159265358979,                      29P     41
3.14159265358979,0.,0.,0.;                                            29P     42
126,8,2,0,1,0,0,-3.14159265358979,-3.14159265358979,                  31P     43
-3.14159265358979,-1.5707963267949,-1.5707963267949,0.,0.,            31P     44
1.5707963267949,1.5707963267949,3.14159265358979,                     31P     45
3.14159265358979,3.14159265358979,1.,0.707106781186548,1.,            31P     46
0.707106781186548,1.,0.707106781186548,1.,0.707106781186548,1.,       31P     47
-27.0860460260609,69.4017010647009,5.57214293612046D-15,              31P     48
-27.0860460260609,69.4017010647009,45.5,-43.6285305117759,            31P     49
111.787974869317,45.5,-60.171014997491,154.174248673933,45.5,         31P     50
-60.171014997491,154.174248673933,0.,-60.171014997491,                31P     51
154.174248673933,-45.5,-43.6285305117759,111.787974869317,-45.5,      31P     52
-27.0860460260609,69.4017010647009,-45.5,-27.0860460260609,           31P     53
69.4017010647009,-5.57214293612046D-15,-3.14159265358979,             31P     54
3.14159265358979,0.,0.,0.;                                            31P     55
126,4,2,0,0,0,0,-1.942894788534,-1.942894788534,-1.942894788534,      33P     56
-0.971447394267002,-0.971447394267002,0.,0.,0.,1.,                    33P     57
0.884337323815901,1.,0.884337323815901,1.,-27.0860460260609,          33P     58
69.4017010647009,-5.57214293612046D-15,9.55164568357317,              33P     59
83.7006330607715,-5.57214293612046D-15,42.0258228417866,              33P     60
61.5148779928138,-5.57214293612046D-15,74.5,39.3291229248561,         33P     61
-5.57214293612046D-15,74.5,0.,-5.57214293612046D-15,                  33P     62
-1.942894788534,0.,0.,0.,0.;                                          33P     63
126,8,2,0,1,0,0,-3.14159265358979,-3.14159265358979,                  35P     64
-3.14159265358979,-1.5707963267949,-1.5707963267949,0.,0.,            35P     65
1.5707963267949,1.5707963267949,3.14159265358979,                     35P     66
3.14159265358979,3.14159265358979,1.,0.707106781186548,1.,            35P     67
0.707106781186548,1.,0.707106781186548,1.,0.707106781186548,1.,       35P     68
74.5,0.,-5.57214293612046D-15,74.5,0.,-45.5,120.,0.,-45.5,165.5,      35P     69
0.,-45.5,165.5,0.,0.,165.5,0.,45.5,120.,0.,45.5,74.5,0.,45.5,         35P     70
74.5,0.,5.57214293612046D-15,-3.14159265358979,3.14159265358979,      35P     71
0.,0.,0.;                                                             35P     72
128,8,4,2,2,1,0,0,1,0,-3.14159265358979,-3.14159265358979,            37P     73
-3.14159265358979,-1.5707963267949,-1.5707963267949,0.,0.,            37P     74
1.5707963267949,1.5707963267949,3.14159265358979,                     37P     75
3.14159265358979,3.14159265358979,0.,0.,0.,0.971447394267002,         37P     76
0.971447394267002,1.942894788534,1.942894788534,1.942894788534,       37P     77
1.,0.707106781186547,1.,0.707106781186547,1.,0.707106781186547,       37P     78
1.,0.707106781186547,1.,0.884337323815901,0.625320918526587,          37P     79
0.884337323815901,0.625320918526587,0.884337323815901,                37P     80
0.625320918526587,0.884337323815901,0.625320918526587,                37P     81
0.884337323815901,1.,0.707106781186547,1.,0.707106781186547,1.,       37P     82
0.707106781186547,1.,0.707106781186547,1.,0.884337323815901,          37P     83
0.625320918526587,0.884337323815901,0.625320918526587,                37P     84
0.884337323815901,0.625320918526587,0.884337323815901,                37P     85
0.625320918526587,0.884337323815901,1.,0.707106781186547,1.,          37P     86
0.707106781186547,1.,0.707106781186547,1.,0.707106781186547,1.,       37P     87
77.5,0.,-5.20474889637625D-15,77.5,0.,-42.5,120.,0.,-42.5,162.5,      37P     88
0.,-42.5,162.5,0.,0.,162.5,0.,42.5,120.,0.,42.5,77.5,0.,42.5,         37P     89
77.5,0.,5.20474889637625D-15,77.5,40.9128459956557,                   37P     90
-5.20474889637625D-15,77.5,40.9128459956557,-42.5,120.,               37P     91
63.3489228319829,-42.5,162.5,85.7849996683102,-42.5,162.5,            37P     92
85.7849996683102,0.,162.5,85.7849996683102,42.5,120.,                 37P     93
63.3489228319829,42.5,77.5,40.9128459956557,42.5,77.5,                37P     94
40.9128459956557,5.20474889637625D-15,43.7181378555498,               37P     95
63.9919871737325,-5.20474889637625D-15,43.7181378555498,              37P     96
63.9919871737325,-42.5,67.6926005505287,99.0843672367471,-42.5,       37P     97
91.6670632455077,134.176747299762,-42.5,91.6670632455077,             37P     98
134.176747299762,0.,91.6670632455077,134.176747299762,42.5,           37P     99
67.6926005505287,99.0843672367471,42.5,43.7181378555498,              37P    100
63.9919871737325,42.5,43.7181378555498,63.9919871737325,              37P    101
5.20474889637625D-15,9.93627571109961,87.0711283518093,               37P    102
-5.20474889637625D-15,9.93627571109961,87.0711283518093,-42.5,        37P    103
15.3852011010575,134.819811641511,-42.5,20.8341264910153,             37P    104
182.568494931213,-42.5,20.8341264910153,182.568494931213,0.,          37P    105
20.8341264910153,182.568494931213,42.5,15.3852011010575,              37P    106
134.819811641511,42.5,9.93627571109961,87.0711283518093,42.5,         37P    107
9.93627571109961,87.0711283518093,5.20474889637625D-15,               37P    108
-28.1767592888553,72.1964004364338,-5.20474889637625D-15,             37P    109
-28.1767592888553,72.1964004364339,-42.5,-43.6285305117759,           37P    110
111.787974869317,-42.5,-59.0803017346966,151.3795493022,-42.5,        37P    111
-59.0803017346966,151.3795493022,0.,-59.0803017346966,                37P    112
151.3795493022,42.5,-43.6285305117759,111.787974869317,42.5,          37P    113
-28.1767592888553,72.1964004364339,42.5,-28.1767592888553,            37P    114
72.1964004364338,5.20474889637625D-15,-3.14159265358979,              37P    115
3.14159265358979,0.,1.942894788534;                                   37P    116
128,8,4,2,2,1,0,0,1,0,-3.14159265358979,-3.14159265358979,            39P    117
-3.14159265358979,-1.5707963267949,-1.5707963267949,0.,0.,            39P    118
1.5707963267949,1.5707963267949,3.14159265358979,                     39P    119
3.14159265358979,3.14159265358979,0.,0.,0.,0.971447394267002,         39P    120
0.971447394267002,1.942894788534,1.942894788534,1.942894788534,       39P    121
1.,0.707106781186548,1.,0.707106781186548,1.,0.707106781186548,       39P    122
1.,0.707106781186548,1.,0.884337323815901,0.625320918526588,          39P    123
0.884337323815901,0.625320918526587,0.884337323815901,                39P    124
0.625320918526587,0.884337323815901,0.625320918526588,                39P    125
0.884337323815901,1.,0.707106781186548,1.,0.707106781186548,1.,       39P    126
0.707106781186548,1.,0.707106781186548,1.,0.884337323815901,          39P    127
0.625320918526588,0.884337323815901,0.625320918526587,                39P    128
0.884337323815901,0.625320918526587,0.884337323815901,                39P    129
0.625320918526588,0.884337323815901,1.,0.707106781186548,1.,          39P    130
0.707106781186548,1.,0.707106781186548,1.,0.707106781186548,1.,       39P    131
74.5,0.,5.57214293612046D-15,74.5,0.,45.5,120.,0.,45.5,165.5,0.,      39P    132
45.5,165.5,0.,0.,165.5,0.,-45.5,120.,0.,-45.5,74.5,0.,-45.5,          39P    133
74.5,0.,-5.57214293612046D-15,74.5,39.3291229248561,                  39P    134
5.57214293612046D-15,74.5,39.3291229248561,45.5,120.,                 39P    135
63.3489228319829,45.5,165.5,87.3687227391098,45.5,165.5,              39P    136
87.3687227391098,0.,165.5,87.3687227391098,-45.5,120.,                39P    137
63.3489228319829,-45.5,74.5,39.3291229248561,-45.5,74.5,              39P    138
39.3291229248561,-5.57214293612046D-15,42.0258228417866,              39P    139
61.5148779928138,5.57214293612046D-15,42.0258228417866,               39P    140
61.5148779928138,45.5,67.6926005505287,99.0843672367471,45.5,         39P    141
93.3593782592709,136.65385648068,45.5,93.3593782592709,               39P    142
136.65385648068,0.,93.3593782592709,136.65385648068,-45.5,            39P    143
67.6926005505287,99.0843672367471,-45.5,42.0258228417866,             39P    144
61.5148779928138,-45.5,42.0258228417866,61.5148779928138,             39P    145
-5.57214293612046D-15,9.55164568357317,83.7006330607715,              39P    146
5.57214293612046D-15,9.55164568357318,83.7006330607715,45.5,          39P    147
15.3852011010575,134.819811641511,45.5,21.2187565185418,              39P    148
185.938990222251,45.5,21.2187565185418,185.938990222251,0.,           39P    149
21.2187565185418,185.938990222251,-45.5,15.3852011010575,             39P    150
134.819811641511,-45.5,9.55164568357318,83.7006330607715,-45.5,       39P    151
9.55164568357317,83.7006330607715,-5.57214293612046D-15,              39P    152
-27.0860460260609,69.4017010647009,5.57214293612046D-15,              39P    153
-27.0860460260609,69.4017010647009,45.5,-43.6285305117759,            39P    154
111.787974869317,45.5,-60.171014997491,154.174248673933,45.5,         39P    155
-60.171014997491,154.174248673933,0.,-60.171014997491,                39P    156
154.174248673933,-45.5,-43.6285305117759,111.787974869317,-45.5,      39P    157
-27.0860460260609,69.4017010647009,-45.5,-27.0860460260609,           39P    158
69.4017010647009,-5.57214293612046D-15,-3.14159265358979,             39P    159
3.14159265358979,0.,1.942894788534;                                   39P    160
128,1,1,1,1,0,0,1,0,0,-4.551,-4.551,4.551,4.551,-4.551,-4.551,        41P    161
4.551,4.551,1.,1.,1.,1.,-27.0824103151849,69.3923854001285,           41P    162
-45.51,-27.0824103151849,69.3923854001285,45.51,                      41P    163
-60.174650708367,154.183564338505,-45.51,-60.174650708367,            41P    164
154.183564338505,45.51,-4.551,4.551,-4.551,4.551;                     41P    165
128,1,1,1,1,0,0,1,0,0,-4.551,-4.551,4.551,4.551,-4.551,-4.551,        43P    166
4.551,4.551,1.,1.,1.,1.,74.49,0.,45.51,74.49,0.,-45.51,165.51,        43P    167
0.,45.51,165.51,0.,-45.51,-4.551,4.551,-4.551,4.551;                  43P    168
502,4,-28.1767592888553,72.1964004364338,-5.20474889637625D-15,       45P    169
77.5,0.,-5.20474889637625D-15,-27.0860460260609,                      45P    170
69.4017010647009,-5.57214293612046D-15,74.5,0.,                       45P    171
-5.57214293612046D-15;                                                45P    172
504,6,25,45,1,45,1,27,45,1,45,2,29,45,2,45,2,31,45,3,45,3,33,45,      47P    173
3,45,4,35,45,4,45,4;                                                  47P    174
406,1,5HBody1;                                                        49P    175
314,62.7450980392157,62.7450980392157,62.7450980392157,13HSteel       51P    176
- Satin;                                                              51P    177
S      1G      2D     52P    177                                        T      1
