                                                                        S      1
,,8Hlamp2 v3,8Hlamp2 v3,7Hunknown,7Hunknown,32,38,7,99,15,,1.,2,2HMM,1, G      1
0.08,15H20220922.115120,0.01,10000.,7Hunknown,7Hunknown,11,0,15H20220206G      2
.222152;                                                                G      3
     186       1                                                00000000D      1
     186            -185       1       0                               0D      2
     186       2                                                00000000D      3
     186            -185       1       0                               0D      4
     514       3                                                00010000D      5
     514                       1       1                               0D      6
     514       4                                                00010000D      7
     514                       1       1                               0D      8
     510       5                                                00010000D      9
     510            -185       1       1                               0D     10
     510       6                                                00010000D     11
     510            -185       1       1                               0D     12
     510       7                                                00010000D     13
     510            -185       1       1                               0D     14
     510       8                                                00010000D     15
     510            -185       1       1                               0D     16
     510       9                                                00010000D     17
     510            -185       1       1                               0D     18
     510      10                                                00010000D     19
     510            -185       1       1                               0D     20
     510      11                                                00010000D     21
     510            -185       1       1                               0D     22
     510      12                                                00010000D     23
     510            -185       1       1                               0D     24
     510      13                                                00010000D     25
     510            -185       1       1                               0D     26
     510      14                                                00010000D     27
     510            -185       1       1                               0D     28
     510      15                                                00010000D     29
     510            -185       1       1                               0D     30
     510      16                                                00010000D     31
     510            -185       1       1                               0D     32
     510      17                                                00010000D     33
     510            -185       1       1                               0D     34
     510      18                                                00010000D     35
     510            -185       1       1                               0D     36
     510      19                                                00010000D     37
     510            -185       1       1                               0D     38
     508      20                                                00010000D     39
     508                       1       1                               0D     40
     508      21                                                00010000D     41
     508                       1       1                               0D     42
     508      22                                                00010000D     43
     508                       1       1                               0D     44
     508      23                                                00010000D     45
     508                       2       1                               0D     46
     508      25                                                00010000D     47
     508                       2       1                               0D     48
     508      27                                                00010000D     49
     508                       1       1                               0D     50
     508      28                                                00010000D     51
     508                       1       1                               0D     52
     508      29                                                00010000D     53
     508                       1       1                               0D     54
     508      30                                                00010000D     55
     508                       1       1                               0D     56
     508      31                                                00010000D     57
     508                       2       1                               0D     58
     508      33                                                00010000D     59
     508                       1       1                               0D     60
     508      34                                                00010000D     61
     508                       1       1                               0D     62
     508      35                                                00010000D     63
     508                       1       1                               0D     64
     508      36                                                00010000D     65
     508                       1       1                               0D     66
     508      37                                                00010000D     67
     508                       2       1                               0D     68
     508      39                                                00010000D     69
     508                       1       1                               0D     70
     508      40                                                00010000D     71
     508                       1       1                               0D     72
     508      41                                                00010000D     73
     508                       1       1                               0D     74
     508      42                                                00010000D     75
     508                       1       1                               0D     76
     508      43                                                00010000D     77
     508                       1       1                               0D     78
     126      44                                                00010000D     79
     126       0               3       0                               0D     80
     126      47                                                00010000D     81
     126       0               4       0                               0D     82
     126      51                                                00010000D     83
     126       0               3       0                               0D     84
     126      54                                                00010000D     85
     126       0               4       0                               0D     86
     126      58                                                00010000D     87
     126       0               3       0                               0D     88
     126      61                                                00010000D     89
     126       0               4       0                               0D     90
     126      65                                                00010000D     91
     126       0               3       0                               0D     92
     126      68                                                00010000D     93
     126       0               4       0                               0D     94
     126      72                                                00010000D     95
     126       0              24       0                               0D     96
     126      96                                                00010000D     97
     126       0              24       0                               0D     98
     126     120                                                00010000D     99
     126       0              11       0                               0D    100
     126     131                                                00010000D    101
     126       0               2       0                               0D    102
     126     133                                                00010000D    103
     126       0              10       0                               0D    104
     126     143                                                00010000D    105
     126       0               5       0                               0D    106
     126     148                                                00010000D    107
     126       0              10       0                               0D    108
     126     158                                                00010000D    109
     126       0               6       0                               0D    110
     126     164                                                00010000D    111
     126       0              10       0                               0D    112
     126     174                                                00010000D    113
     126       0               2       0                               0D    114
     126     176                                                00010000D    115
     126       0              10       0                               0D    116
     126     186                                                00010000D    117
     126       0              10       0                               0D    118
     126     196                                                00010000D    119
     126       0               2       0                               0D    120
     126     198                                                00010000D    121
     126       0              10       0                               0D    122
     126     208                                                00010000D    123
     126       0              10       0                               0D    124
     126     218                                                00010000D    125
     126       0               3       0                               0D    126
     126     221                                                00010000D    127
     126       0              10       0                               0D    128
     126     231                                                00010000D    129
     126       0               8       0                               0D    130
     126     239                                                00010000D    131
     126       0               2       0                               0D    132
     126     241                                                00010000D    133
     126       0               8       0                               0D    134
     126     249                                                00010000D    135
     126       0              10       0                               0D    136
     126     259                                                00010000D    137
     126       0              10       0                               0D    138
     126     269                                                00010000D    139
     126       0               3       0                               0D    140
     126     272                                                00010000D    141
     126       0              10       0                               0D    142
     128     282                                                00010000D    143
     128       0    -185       7       0                               0D    144
     128     289                                                00010000D    145
     128       0    -185       7       0                               0D    146
     128     296                                                00010000D    147
     128       0    -185      13       0                               0D    148
     128     309                                                00010000D    149
     128       0    -185      12       0                               0D    150
     128     321                                                00010000D    151
     128       0    -185       6       0                               0D    152
     128     327                                                00010000D    153
     128       0    -185      12       0                               0D    154
     128     339                                                00010000D    155
     128       0    -185       3       0                               0D    156
     128     342                                                00010000D    157
     128       0    -185      12       0                               0D    158
     128     354                                                00010000D    159
     128       0    -185      13       0                               0D    160
     128     367                                                00010000D    161
     128       0    -185       3       0                               0D    162
     128     370                                                00010000D    163
     128       0    -185       3       0                               0D    164
     128     373                                                00010000D    165
     128       0    -185      12       0                               0D    166
     128     385                                                00010000D    167
     128       0    -185      13       0                               0D    168
     128     398                                                00010000D    169
     128       0    -185       3       0                               0D    170
     128     401                                                00010000D    171
     128       0    -185       3       0                               0D    172
     502     404                                                00010000D    173
     502                       9       1                               0D    174
     502     413                                                00010000D    175
     502                       3       1                               0D    176
     504     416                                                00010001D    177
     504                       7       1                               0D    178
     504     423                                                00010001D    179
     504                       3       1                               0D    180
     406     426                                                00000000D    181
     406                       1      15                               0D    182
     406     427                                                00000000D    183
     406                       1      15                               0D    184
     314     428                                                00000200D    185
     314                       2       0                               0D    186
186,5,1,0,0,1,181;                                                     1P      1
186,7,1,0,0,1,183;                                                     3P      2
514,11,9,1,11,1,13,1,15,1,17,1,19,1,21,1,23,1,25,1,27,1,29,1;          5P      3
514,4,31,1,33,1,35,1,37,1;                                             7P      4
510,143,1,1,39;                                                        9P      5
510,145,1,1,41;                                                       11P      6
510,147,1,1,43;                                                       13P      7
510,149,1,1,45;                                                       15P      8
510,151,1,1,47;                                                       17P      9
510,153,1,1,49;                                                       19P     10
510,155,2,1,51,53;                                                    21P     11
510,157,1,1,55;                                                       23P     12
510,159,1,1,57;                                                       25P     13
510,161,2,1,59,61;                                                    27P     14
510,163,2,1,63,65;                                                    29P     15
510,165,1,1,67;                                                       31P     16
510,167,1,1,69;                                                       33P     17
510,169,2,1,71,73;                                                    35P     18
510,171,2,1,75,77;                                                    37P     19
508,4,0,177,1,0,0,0,177,2,0,0,0,177,3,0,0,0,177,4,0,0;                39P     20
508,4,0,177,5,0,0,0,177,6,0,0,0,177,7,0,0,0,177,8,1,0;                41P     21
508,4,0,177,9,0,0,0,177,8,0,0,0,177,10,0,0,0,177,2,1,0;               43P     22
508,8,0,177,3,1,0,0,177,10,1,0,0,177,7,1,0,0,177,11,0,0,0,177,        45P     23
12,1,0,0,177,13,0,0,0,177,12,0,0,0,177,14,0,0;                        45P     24
508,6,0,177,4,1,0,0,177,14,1,0,0,177,11,1,0,0,177,6,1,0,0,177,        47P     25
15,1,0,0,177,16,1,0;                                                  47P     26
508,4,0,177,17,0,0,0,177,18,1,0,0,177,19,0,0,0,177,18,0,0;            49P     27
508,1,0,177,13,1,0;                                                   51P     28
508,1,0,177,17,1,0;                                                   53P     29
508,4,0,177,20,0,0,0,177,21,1,0,0,177,22,1,0,0,177,21,0,0;            55P     30
508,8,0,177,23,0,0,0,177,24,1,0,0,177,15,0,0,0,177,5,1,0,0,177,       57P     31
9,1,0,0,177,1,1,0,0,177,16,0,0,0,177,24,0,0;                          57P     32
508,1,0,177,23,1,0;                                                   59P     33
508,1,0,177,20,1,0;                                                   61P     34
508,1,0,177,19,1,0;                                                   63P     35
508,1,0,177,22,0,0;                                                   65P     36
508,6,0,179,1,0,0,0,179,2,0,0,0,179,3,1,0,0,179,4,0,0,0,179,5,0,      67P     37
0,0,179,3,0,0;                                                        67P     38
508,4,0,179,6,0,0,0,179,7,1,0,0,179,8,0,0,0,179,7,0,0;                69P     39
508,1,0,179,8,1,0;                                                    71P     40
508,2,0,179,4,1,0,0,179,5,1,0;                                        73P     41
508,1,0,179,6,1,0;                                                    75P     42
508,2,0,179,1,1,0,0,179,2,1,0;                                        77P     43
126,1,1,0,0,1,0,7.60000011920929,7.60000011920929,8.,8.,1.,1.,        79P     44
-4.,25.6904651573303,-76.0000011920929,-4.,25.6904651573303,          79P     45
-80.,7.60000011920929,8.,0.,0.,0.;                                    79P     46
126,1,1,0,0,1,0,2.16333076527839,2.16333076527839,                    81P     47
2.56904651573303,2.56904651573303,1.,1.,-4.,21.6333076527839,         81P     48
-76.0000011920929,-4.,25.6904651573303,-76.0000011920929,             81P     49
2.16333076527839,2.56904651573303,0.,0.,0.;                           81P     50
126,1,1,0,0,1,0,-6.,-6.,-5.60000011920929,-5.60000011920929,1.,       83P     51
1.,-4.,21.6333076527839,-80.,-4.,21.6333076527839,                    83P     52
-76.0000011920929,-6.,-5.60000011920929,0.,0.,0.;                     83P     53
126,1,1,0,0,1,0,-2.56904651573303,-2.56904651573303,                  85P     54
-2.16333076527839,-2.16333076527839,1.,1.,-4.,25.6904651573303,       85P     55
-80.,-4.,21.6333076527839,-80.,-2.56904651573303,                     85P     56
-2.16333076527839,0.,0.,0.;                                           85P     57
126,1,1,0,0,1,0,-8.,-8.,-7.60000011920929,-7.60000011920929,1.,       87P     58
1.,4.,25.6904651573303,-80.,4.,25.6904651573303,                      87P     59
-76.0000011920929,-8.,-7.60000011920929,0.,0.,0.;                     87P     60
126,1,1,0,0,1,0,2.16333076527839,2.16333076527839,                    89P     61
2.56904651573303,2.56904651573303,1.,1.,4.,21.6333076527839,          89P     62
-80.,4.,25.6904651573303,-80.,2.16333076527839,2.56904651573303,      89P     63
0.,0.,0.;                                                             89P     64
126,1,1,0,0,1,0,5.60000011920929,5.60000011920929,6.,6.,1.,1.,        91P     65
4.,21.6333076527839,-76.0000011920929,4.,21.6333076527839,-80.,       91P     66
5.60000011920929,6.,0.,0.,0.;                                         91P     67
126,1,1,0,0,1,0,2.16333076527839,2.16333076527839,                    93P     68
2.56904651573303,2.56904651573303,1.,1.,4.,21.6333076527839,          93P     69
-76.0000011920929,4.,25.6904651573303,-76.0000011920929,              93P     70
2.16333076527839,2.56904651573303,0.,0.,0.;                           93P     71
126,17,3,0,0,1,0,-1.20745974544677,-1.20745974544677,                 95P     72
-1.20745974544677,-1.20745974544677,-1.05652581956626,                95P     73
-1.05652581956626,-0.905591893685742,-0.905591893685742,              95P     74
-0.754660883204564,-0.754660883204564,-0.603729872723385,             95P     75
-0.603729872723385,-0.452798862242206,-0.452798862242206,             95P     76
-0.301867851761027,-0.301867851761027,-0.150933925880513,             95P     77
-0.150933925880513,0.,0.,0.,0.,1.,1.,1.,1.,1.,1.,1.,1.,1.,1.,1.,      95P     78
1.,1.,1.,1.,1.,1.,1.,4.,25.6904651573303,-76.0000011920929,4.,        95P     79
25.6904651573303,-75.4968881058245,3.89928886192166,                  95P     80
25.7067718011561,-74.9607957819546,3.49082811601848,                  95P     81
25.7654165246997,-73.9755207416441,3.18312142578206,                  95P     82
25.8068799493297,-73.5262683683826,2.47373967489056,                  95P     83
25.8845112341909,-72.8168866174911,2.02448434882356,                  95P     84
25.9257594915662,-72.5091745529192,1.03919920843905,                  95P     85
25.9839105426476,-72.1007098984486,0.503103368270597,26.,             95P     86
-72.0000011920929,-0.503103368270596,26.,-72.0000011920929,           95P     87
-1.03919920843904,25.9839105426476,-72.1007098984486,                 95P     88
-2.02448434882356,25.9257594915662,-72.5091745529192,                 95P     89
-2.47373967489056,25.8845112341909,-72.8168866174911,                 95P     90
-3.18312142578206,25.8068799493297,-73.5262683683826,                 95P     91
-3.49082811601848,25.7654165246997,-73.9755207416441,                 95P     92
-3.89928886192166,25.7067718011561,-74.9607957819546,-4.,             95P     93
25.6904651573303,-75.4968881058245,-4.,25.6904651573303,              95P     94
-76.0000011920929,-1.20745974544677,0.,0.,0.,0.;                      95P     95
126,17,3,0,0,1,0,-1.20829119081564,-1.20829119081564,                 97P     96
-1.20829119081564,-1.20829119081564,-1.05725192080517,                97P     97
-1.05725192080517,-0.906212650794701,-0.906212650794701,              97P     98
-0.755179123101261,-0.755179123101261,-0.604145595407821,             97P     99
-0.604145595407821,-0.45311206771438,-0.45311206771438,               97P    100
-0.30207854002094,-0.30207854002094,-0.15103927001047,                97P    101
-0.15103927001047,0.,0.,0.,0.,1.,1.,1.,1.,1.,1.,1.,1.,1.,1.,1.,       97P    102
1.,1.,1.,1.,1.,1.,1.,-4.,21.6333076527839,-76.0000011920929,-4.,      97P    103
21.6333076527839,-75.4965369587247,-3.89915276892922,                 97P    104
21.6527030440414,-74.9602997726701,-3.490594876481,                   97P    105
21.7223085379416,-73.9751260115341,-3.18294364927553,                 97P    106
21.7714644430193,-73.5260905918761,-2.47392407847503,                 97P    107
21.8633822681921,-72.8170710210755,-2.02488289993507,                 97P    108
21.9121811723043,-72.5094092268474,-1.03968925279597,                 97P    109
21.9809663284242,-72.100843667626,-0.503445092311469,22.,             97P    110
-72.0000011920929,0.503445092311467,22.,-72.0000011920929,            97P    111
1.03968925279597,21.9809663284242,-72.100843667626,                   97P    112
2.02488289993506,21.9121811723043,-72.5094092268474,                  97P    113
2.47392407847503,21.8633822681921,-72.8170710210755,                  97P    114
3.18294364927553,21.7714644430193,-73.526090591876,                   97P    115
3.49059487648099,21.7223085379416,-73.9751260115341,                  97P    116
3.89915276892922,21.6527030440414,-74.9602997726701,4.,               97P    117
21.6333076527839,-75.4965369587247,4.,21.6333076527839,               97P    118
-76.0000011920929,-1.20829119081564,0.,0.,0.,0.;                      97P    119
126,6,2,0,0,0,0,-3.14159265358979,-3.14159265358979,                  99P    120
-3.14159265358979,-1.6317413724592,-1.6317413724592,                  99P    121
-0.121890091328606,-0.121890091328606,1.38796118980199,               99P    122
1.38796118980199,1.38796118980199,1.,0.728322498847225,1.,            99P    123
0.728322498847225,1.,0.728322498847225,1.,-22.,                       99P    124
-2.69422295812418D-15,-80.,-22.,-20.6984671045025,-80.,               99P    125
-1.33996114239091,-21.9591553602793,-80.,19.3200777152182,            99P    126
-23.2198436160561,-80.,21.836773103353,-2.67494680931812,-80.,        99P    127
24.3534684914877,17.8699499974199,-80.,3.99999999999999,              99P    128
21.6333076527839,-80.,-3.14159265358979,1.38796118980199,0.,0.,       99P    129
0.;                                                                   99P    130
126,1,1,0,0,1,0,-2.72727272727273,-2.72727272727273,0.,0.,1.,1.,     101P    131
-22.,0.,-80.,-22.,0.,-20.,-2.72727272727273,0.,0.,0.,0.;             101P    132
126,8,2,0,1,0,0,-3.14159265358979,-3.14159265358979,                 103P    133
-3.14159265358979,-1.5707963267949,-1.5707963267949,0.,0.,           103P    134
1.5707963267949,1.5707963267949,3.14159265358979,                    103P    135
3.14159265358979,3.14159265358979,1.,0.707106781186548,1.,           103P    136
0.707106781186547,1.,0.707106781186547,1.,0.707106781186548,1.,      103P    137
-22.,2.69422295812418D-15,-20.,-22.,22.,-20.,                        103P    138
1.34711147906209D-15,22.,-20.,22.,22.,-20.,22.,0.,-20.,22.,-22.,     103P    139
-20.,1.34711147906209D-15,-22.,-20.,-22.,-22.,-20.,-22.,             103P    140
-2.69422295812418D-15,-20.,-3.14159265358979,3.14159265358979,       103P    141
0.,0.,0.;                                                            103P    142
126,2,2,0,0,0,0,-4.52955384339178,-4.52955384339178,                 105P    143
-4.52955384339178,-3.14159265358979,-3.14159265358979,               105P    144
-3.14159265358979,1.,0.768706114785808,1.,-4.,21.6333076527839,      105P    145
-80.,-22.,18.3051064754326,-80.,-22.,-2.69422295812418D-15,-80.,     105P    146
-4.52955384339178,-3.14159265358979,0.,0.,0.;                        105P    147
126,6,2,0,0,0,0,-7.6995220354903,-7.6995220354903,                   107P    148
-7.6995220354903,-6.18021224152346,-6.18021224152346,                107P    149
-4.66090244755663,-4.66090244755663,-3.14159265358979,               107P    150
-3.14159265358979,-3.14159265358979,1.,0.725073716442514,1.,         107P    151
0.725073716442515,1.,0.725073716442514,1.,4.00000000000001,          107P    152
25.6904651573303,-80.,28.4006707653432,21.8912858717997,-80.,        107P    153
25.8622768803321,-2.67257077830336,-80.,23.323882995321,             107P    154
-27.2364274284065,-80.,-1.3380585023395,-25.9655463921774,-80.,      107P    155
-26.,-24.6946653559483,-80.,-26.,3.18408167778312D-15,-80.,          107P    156
-7.6995220354903,-3.14159265358979,0.,0.,0.;                         107P    157
126,2,2,0,0,0,0,-3.14159265358979,-3.14159265358979,                 109P    158
-3.14159265358979,-1.72525592527908,-1.72525592527908,               109P    159
-1.72525592527908,1.,0.75955452531275,1.,-26.,                       109P    160
3.18408167778312D-15,-80.,-26.,22.2650698030196,-80.,-4.,            109P    161
25.6904651573303,-80.,-3.14159265358979,-1.72525592527908,0.,0.,     109P    162
0.;                                                                  109P    163
126,8,2,0,1,0,0,-3.14159265358979,-3.14159265358979,                 111P    164
-3.14159265358979,-1.5707963267949,-1.5707963267949,0.,0.,           111P    165
1.5707963267949,1.5707963267949,3.14159265358979,                    111P    166
3.14159265358979,3.14159265358979,1.,0.707106781186548,1.,           111P    167
0.707106781186547,1.,0.707106781186547,1.,0.707106781186548,1.,      111P    168
-20.5,-2.51052593825207D-15,-20.,-20.5,-20.5,-20.,                   111P    169
1.25526296912604D-15,-20.5,-20.,20.5,-20.5,-20.,20.5,0.,-20.,        111P    170
20.5,20.5,-20.,1.25526296912604D-15,20.5,-20.,-20.5,20.5,-20.,       111P    171
-20.5,2.51052593825207D-15,-20.,-3.14159265358979,                   111P    172
3.14159265358979,0.,0.,0.;                                           111P    173
126,1,1,0,0,1,0,-0.975609756097561,-0.975609756097561,0.,0.,1.,      113P    174
1.,-20.5,0.,-20.,-20.5,0.,0.,-0.975609756097561,0.,0.,0.,0.;         113P    175
126,8,2,0,1,0,0,-3.14159265358979,-3.14159265358979,                 115P    176
-3.14159265358979,-1.5707963267949,-1.5707963267949,0.,0.,           115P    177
1.5707963267949,1.5707963267949,3.14159265358979,                    115P    178
3.14159265358979,3.14159265358979,1.,0.707106781186548,1.,           115P    179
0.707106781186547,1.,0.707106781186547,1.,0.707106781186548,1.,      115P    180
-20.5,2.51052593825207D-15,0.,-20.5,20.5,0.,                         115P    181
1.25526296912604D-15,20.5,0.,20.5,20.5,0.,20.5,0.,0.,20.5,-20.5,     115P    182
0.,1.25526296912604D-15,-20.5,0.,-20.5,-20.5,0.,-20.5,               115P    183
-2.51052593825207D-15,0.,-3.14159265358979,3.14159265358979,0.,      115P    184
0.,0.;                                                               115P    185
126,8,2,0,1,0,0,-3.14159265358979,-3.14159265358979,                 117P    186
-3.14159265358979,-1.5707963267949,-1.5707963267949,0.,0.,           117P    187
1.5707963267949,1.5707963267949,3.14159265358979,                    117P    188
3.14159265358979,3.14159265358979,1.,0.707106781186547,1.,           117P    189
0.707106781186548,1.,0.707106781186548,1.,0.707106781186547,1.,      117P    190
-16.5,2.02066721859313D-15,10.,-16.5,16.5,10.,                       117P    191
1.01033360929657D-15,16.5,10.,16.5,16.5,10.,16.5,0.,10.,16.5,        117P    192
-16.5,10.,1.01033360929657D-15,-16.5,10.,-16.5,-16.5,10.,-16.5,      117P    193
-2.02066721859313D-15,10.,-3.14159265358979,3.14159265358979,0.,     117P    194
0.,0.;                                                               117P    195
126,1,1,0,0,1,0,-0.606060606060606,-0.606060606060606,0.,0.,1.,      119P    196
1.,-16.5,0.,10.,-16.5,0.,0.,-0.606060606060606,0.,0.,0.,0.;          119P    197
126,8,2,0,1,0,0,-3.14159265358979,-3.14159265358979,                 121P    198
-3.14159265358979,-1.5707963267949,-1.5707963267949,0.,0.,           121P    199
1.5707963267949,1.5707963267949,3.14159265358979,                    121P    200
3.14159265358979,3.14159265358979,1.,0.707106781186547,1.,           121P    201
0.707106781186548,1.,0.707106781186548,1.,0.707106781186547,1.,      121P    202
-16.5,2.02066721859313D-15,0.,-16.5,16.5,0.,                         121P    203
1.01033360929657D-15,16.5,0.,16.5,16.5,0.,16.5,0.,0.,16.5,-16.5,     121P    204
0.,1.01033360929657D-15,-16.5,0.,-16.5,-16.5,0.,-16.5,               121P    205
-2.02066721859313D-15,0.,-3.14159265358979,3.14159265358979,0.,      121P    206
0.,0.;                                                               121P    207
126,8,2,0,1,0,0,-3.14159265358979,-3.14159265358979,                 123P    208
-3.14159265358979,-1.5707963267949,-1.5707963267949,0.,0.,           123P    209
1.5707963267949,1.5707963267949,3.14159265358979,                    123P    210
3.14159265358979,3.14159265358979,1.,0.707106781186548,1.,           123P    211
0.707106781186547,1.,0.707106781186547,1.,0.707106781186548,1.,      123P    212
-26.,-3.18408167778312D-15,10.,-26.,-26.,10.,                        123P    213
1.59204083889156D-15,-26.,10.,26.,-26.,10.,26.,0.,10.,26.,26.,       123P    214
10.,1.59204083889156D-15,26.,10.,-26.,26.,10.,-26.,                  123P    215
3.18408167778312D-15,10.,-3.14159265358979,3.14159265358979,0.,      123P    216
0.,0.;                                                               123P    217
126,1,1,0,0,1,0,-0.384615384615385,-0.384615384615385,               125P    218
3.07692307692308,3.07692307692308,1.,1.,-26.,0.,10.,-26.,0.,         125P    219
-80.,-0.384615384615385,3.07692307692308,0.,0.,0.;                   125P    220
126,6,2,0,0,0,0,-1.41633672831071,-1.41633672831071,                 127P    221
-1.41633672831071,0.102973065656123,0.102973065656123,               127P    222
1.62228285962296,1.62228285962296,3.14159265358979,                  127P    223
3.14159265358979,3.14159265358979,1.,0.725073716442513,1.,           127P    224
0.725073716442514,1.,0.725073716442515,1.,4.,25.6904651573303,       127P    225
-77.,28.4006707653432,21.8912858717998,-77.,25.8622768803321,        127P    226
-2.67257077830335,-77.,23.323882995321,-27.2364274284065,-77.,       127P    227
-1.3380585023395,-25.9655463921774,-77.,-26.,-24.6946653559484,      127P    228
-77.,-26.,-3.18408167778312D-15,-77.,-1.41633672831071,              127P    229
3.14159265358979,0.,0.,0.;                                           127P    230
126,4,2,0,0,0,0,3.14159265358979,3.14159265358979,                   129P    231
3.14159265358979,4.00422061622933,4.00422061622933,                  129P    232
4.86684857886887,4.86684857886887,4.86684857886887,1.,               129P    233
0.908417204699468,1.,0.908417204699466,1.,-26.,                      129P    234
-3.18408167778312D-15,-77.,-26.,11.9655208044084,-77.,               129P    235
-16.9115345252878,19.7484176581315,-77.,-7.82306905057553,           129P    236
27.5313145118546,-77.,4.,25.6904651573303,-77.,3.14159265358979,     129P    237
4.86684857886887,0.,0.,0.;                                           129P    238
126,1,1,0,0,1,0,-0.115384615384615,-0.115384615384615,0.,0.,1.,      131P    239
1.,-26.,0.,-77.,-26.,0.,-80.,-0.115384615384615,0.,0.,0.,0.;         131P    240
126,4,2,0,0,0,0,-4.86684857886887,-4.86684857886887,                 133P    241
-4.86684857886887,-4.00422061622933,-4.00422061622933,               133P    242
-3.14159265358979,-3.14159265358979,-3.14159265358979,1.,            133P    243
0.908417204699466,1.,0.908417204699468,1.,4.,25.6904651573303,       133P    244
-80.,-7.82306905057553,27.5313145118546,-80.,-16.9115345252878,      133P    245
19.7484176581315,-80.,-26.,11.9655208044084,-80.,-26.,               133P    246
-3.18408167778312D-15,-80.,-4.86684857886887,-3.14159265358979,      133P    247
0.,0.,0.;                                                            133P    248
126,6,2,0,0,0,0,-3.14159265358979,-3.14159265358979,                 135P    249
-3.14159265358979,-1.62228285962296,-1.62228285962296,               135P    250
-0.102973065656123,-0.102973065656123,1.41633672831071,              135P    251
1.41633672831071,1.41633672831071,1.,0.725073716442515,1.,           135P    252
0.725073716442514,1.,0.725073716442513,1.,-26.,                      135P    253
-3.18408167778312D-15,-80.,-26.,-24.6946653559484,-80.,              135P    254
-1.3380585023395,-25.9655463921774,-80.,23.323882995321,             135P    255
-27.2364274284065,-80.,25.8622768803321,-2.67257077830335,-80.,      135P    256
28.4006707653432,21.8912858717998,-80.,4.,25.6904651573303,-80.,     135P    257
-3.14159265358979,1.41633672831071,0.,0.,0.;                         135P    258
126,8,2,0,1,0,0,-3.14159265358979,-3.14159265358979,                 137P    259
-3.14159265358979,-1.5707963267949,-1.5707963267949,0.,0.,           137P    260
1.5707963267949,1.5707963267949,3.14159265358979,                    137P    261
3.14159265358979,3.14159265358979,1.,0.707106781186547,1.,           137P    262
0.707106781186547,1.,0.707106781186547,1.,0.707106781186547,1.,      137P    263
-37.5,-4.59242549680258D-15,-77.,-37.5,-37.5,-77.,                   137P    264
2.29621274840129D-15,-37.5,-77.,37.5,-37.5,-77.,37.5,0.,-77.,        137P    265
37.5,37.5,-77.,2.29621274840129D-15,37.5,-77.,-37.5,37.5,-77.,       137P    266
-37.5,4.59242549680258D-15,-77.,-3.14159265358979,                   137P    267
3.14159265358979,0.,0.,0.;                                           137P    268
126,1,1,0,0,1,0,-0.0799999999999999,-0.0799999999999999,0.,0.,       139P    269
1.,1.,-37.5,0.,-77.,-37.5,0.,-80.,-0.0799999999999999,0.,0.,0.,      139P    270
0.;                                                                  139P    271
126,8,2,0,1,0,0,-3.14159265358979,-3.14159265358979,                 141P    272
-3.14159265358979,-1.5707963267949,-1.5707963267949,0.,0.,           141P    273
1.5707963267949,1.5707963267949,3.14159265358979,                    141P    274
3.14159265358979,3.14159265358979,1.,0.707106781186547,1.,           141P    275
0.707106781186547,1.,0.707106781186547,1.,0.707106781186547,1.,      141P    276
-37.5,4.59242549680258D-15,-80.,-37.5,37.5,-80.,                     141P    277
2.29621274840129D-15,37.5,-80.,37.5,37.5,-80.,37.5,0.,-80.,37.5,     141P    278
-37.5,-80.,2.29621274840129D-15,-37.5,-80.,-37.5,-37.5,-80.,         141P    279
-37.5,-4.59242549680258D-15,-80.,-3.14159265358979,                  141P    280
3.14159265358979,0.,0.,0.;                                           141P    281
128,1,1,1,1,0,0,1,0,0,0.341512087124948,0.341512087124948,           143P    282
0.743511967915659,0.743511967915659,2.16233076527839,                143P    283
2.16233076527839,2.57004651573303,2.57004651573303,1.,1.,1.,1.,      143P    284
-4.,21.6233076527839,-75.9900011920929,-4.,21.6233076527839,         143P    285
-80.01,-4.,25.7004651573303,-75.9900011920929,-4.,                   143P    286
25.7004651573303,-80.01,0.341512087124948,0.743511967915659,         143P    287
2.16233076527839,2.57004651573303;                                   143P    288
128,1,1,1,1,0,0,1,0,0,-0.001,-0.001,0.400999880790711,               145P    289
0.400999880790711,2.16233076527839,2.16233076527839,                 145P    290
2.57004651573303,2.57004651573303,1.,1.,1.,1.,4.,                    145P    291
21.6233076527839,-80.01,4.,21.6233076527839,-75.9900011920929,       145P    292
4.,25.7004651573303,-80.01,4.,25.7004651573303,                      145P    293
-75.9900011920929,-0.001,0.400999880790711,2.16233076527839,         145P    294
2.57004651573303;                                                    145P    295
128,1,4,1,2,0,0,0,0,0,5.40832691319598,5.40832691319598,             147P    296
6.49999999999999,6.49999999999999,-3.14159265358979,                 147P    297
-3.14159265358979,-3.14159265358979,-1.5707963267949,                147P    298
-1.5707963267949,2.22044604925031D-15,2.22044604925031D-15,          147P    299
2.22044604925031D-15,1.,1.,0.707106781186547,0.707106781186547,      147P    300
1.,1.,0.707106781186547,0.707106781186547,1.,1.,-4.,                 147P    301
21.6333076527839,-76.0000011920929,-4.,26.,-76.0000011920929,        147P    302
-4.,21.6333076527839,-72.0000011920929,-4.,26.,                      147P    303
-72.0000011920929,0.,21.6333076527839,-72.0000011920929,0.,26.,      147P    304
-72.0000011920929,4.,21.6333076527839,-72.0000011920929,4.,26.,      147P    305
-72.0000011920929,4.,21.6333076527839,-76.0000011920929,4.,26.,      147P    306
-76.0000011920929,5.40832691319598,6.49999999999999,                 147P    307
-3.14159265358979,2.22044604925031D-15;                              147P    308
128,1,8,1,2,0,1,0,0,1,0.,0.,2.72727272727273,2.72727272727273,       149P    309
-3.14159265358979,-3.14159265358979,-3.14159265358979,               149P    310
-1.5707963267949,-1.5707963267949,0.,0.,1.5707963267949,             149P    311
1.5707963267949,3.14159265358979,3.14159265358979,                   149P    312
3.14159265358979,1.,1.,0.707106781186548,0.707106781186548,1.,       149P    313
1.,0.707106781186548,0.707106781186548,1.,1.,0.707106781186548,      149P    314
0.707106781186548,1.,1.,0.707106781186548,0.707106781186548,1.,      149P    315
1.,-22.,0.,-20.,-22.,0.,-80.,-22.,22.,-20.,-22.,22.,-80.,0.,22.,     149P    316
-20.,0.,22.,-80.,22.,22.,-20.,22.,22.,-80.,22.,0.,-20.,22.,0.,       149P    317
-80.,22.,-22.,-20.,22.,-22.,-80.,0.,-22.,-20.,0.,-22.,-80.,-22.,     149P    318
-22.,-20.,-22.,-22.,-80.,-22.,0.,-20.,-22.,0.,-80.,0.,               149P    319
2.72727272727273,-3.14159265358979,3.14159265358979;                 149P    320
128,1,1,1,1,0,0,1,0,0,-2.77892471424159,-2.77892471424159,           151P    321
2.77892471424159,2.77892471424159,-2.57004651573303,                 151P    322
-2.57004651573303,2.601,2.601,1.,1.,1.,1.,-27.7892471424159,         151P    323
25.7004651573303,-80.,27.7892471424159,25.7004651573303,-80.,        151P    324
-27.7892471424159,-26.01,-80.,27.7892471424159,-26.01,-80.,          151P    325
-2.77892471424159,2.77892471424159,-2.57004651573303,2.601;          151P    326
128,1,8,1,2,0,1,0,0,1,0.,0.,0.975609756097561,0.975609756097561,     153P    327
-3.14159265358979,-3.14159265358979,-3.14159265358979,               153P    328
-1.5707963267949,-1.5707963267949,0.,0.,1.5707963267949,             153P    329
1.5707963267949,3.14159265358979,3.14159265358979,                   153P    330
3.14159265358979,1.,1.,0.707106781186548,0.707106781186548,1.,       153P    331
1.,0.707106781186548,0.707106781186548,1.,1.,0.707106781186548,      153P    332
0.707106781186548,1.,1.,0.707106781186548,0.707106781186548,1.,      153P    333
1.,-20.5,0.,0.,-20.5,0.,-20.,-20.5,20.5,0.,-20.5,20.5,-20.,0.,       153P    334
20.5,0.,0.,20.5,-20.,20.5,20.5,0.,20.5,20.5,-20.,20.5,0.,0.,         153P    335
20.5,0.,-20.,20.5,-20.5,0.,20.5,-20.5,-20.,0.,-20.5,0.,0.,-20.5,     153P    336
-20.,-20.5,-20.5,0.,-20.5,-20.5,-20.,-20.5,0.,0.,-20.5,0.,-20.,      153P    337
0.,0.975609756097561,-3.14159265358979,3.14159265358979;             153P    338
128,1,1,1,1,0,0,1,0,0,-2.201,-2.201,2.201,2.201,-2.201,-2.201,       155P    339
2.201,2.201,1.,1.,1.,1.,-22.01,22.01,-20.,22.01,22.01,-20.,          155P    340
-22.01,-22.01,-20.,22.01,-22.01,-20.,-2.201,2.201,-2.201,2.201;      155P    341
128,1,8,1,2,0,1,0,0,1,0.,0.,0.606060606060606,0.606060606060606,     157P    342
-3.14159265358979,-3.14159265358979,-3.14159265358979,               157P    343
-1.5707963267949,-1.5707963267949,0.,0.,1.5707963267949,             157P    344
1.5707963267949,3.14159265358979,3.14159265358979,                   157P    345
3.14159265358979,1.,1.,0.707106781186548,0.707106781186548,1.,       157P    346
1.,0.707106781186548,0.707106781186548,1.,1.,0.707106781186548,      157P    347
0.707106781186548,1.,1.,0.707106781186548,0.707106781186548,1.,      157P    348
1.,-16.5,0.,0.,-16.5,0.,10.,-16.5,-16.5,0.,-16.5,-16.5,10.,0.,       157P    349
-16.5,0.,0.,-16.5,10.,16.5,-16.5,0.,16.5,-16.5,10.,16.5,0.,0.,       157P    350
16.5,0.,10.,16.5,16.5,0.,16.5,16.5,10.,0.,16.5,0.,0.,16.5,10.,       157P    351
-16.5,16.5,0.,-16.5,16.5,10.,-16.5,0.,0.,-16.5,0.,10.,0.,            157P    352
0.606060606060606,-3.14159265358979,3.14159265358979;                157P    353
128,1,8,1,2,0,1,0,0,1,-3.07692307692308,-3.07692307692308,           159P    354
0.384615384615385,0.384615384615385,-3.14159265358979,               159P    355
-3.14159265358979,-3.14159265358979,-1.5707963267949,                159P    356
-1.5707963267949,0.,0.,1.5707963267949,1.5707963267949,              159P    357
3.14159265358979,3.14159265358979,3.14159265358979,1.,1.,            159P    358
0.707106781186548,0.707106781186548,1.,1.,0.707106781186548,         159P    359
0.707106781186548,1.,1.,0.707106781186548,0.707106781186548,1.,      159P    360
1.,0.707106781186548,0.707106781186548,1.,1.,-26.,0.,10.,-26.,       159P    361
0.,-80.,-26.,-26.,10.,-26.,-26.,-80.,0.,-26.,10.,0.,-26.,-80.,       159P    362
26.,-26.,10.,26.,-26.,-80.,26.,0.,10.,26.,0.,-80.,26.,26.,10.,       159P    363
26.,26.,-80.,0.,26.,10.,0.,26.,-80.,-26.,26.,10.,-26.,26.,-80.,      159P    364
-26.,0.,10.,-26.,0.,-80.,-3.07692307692308,0.384615384615385,        159P    365
-3.14159265358979,3.14159265358979;                                  159P    366
128,1,1,1,1,0,0,1,0,0,-2.601,-2.601,2.601,2.601,-2.601,-2.601,       161P    367
2.601,2.601,1.,1.,1.,1.,-26.01,-26.01,10.,26.01,-26.01,10.,          161P    368
-26.01,26.01,10.,26.01,26.01,10.,-2.601,2.601,-2.601,2.601;          161P    369
128,1,1,1,1,0,0,1,0,0,-2.051,-2.051,2.051,2.051,-2.051,-2.051,       163P    370
2.051,2.051,1.,1.,1.,1.,20.51,-20.51,0.,-20.51,-20.51,0.,20.51,      163P    371
20.51,0.,-20.51,20.51,0.,-2.051,2.051,-2.051,2.051;                  163P    372
128,1,8,1,2,0,1,0,0,1,0.,0.,0.115384615384615,0.115384615384615,     165P    373
-3.14159265358979,-3.14159265358979,-3.14159265358979,               165P    374
-1.5707963267949,-1.5707963267949,0.,0.,1.5707963267949,             165P    375
1.5707963267949,3.14159265358979,3.14159265358979,                   165P    376
3.14159265358979,1.,1.,0.707106781186548,0.707106781186548,1.,       165P    377
1.,0.707106781186548,0.707106781186548,1.,1.,0.707106781186548,      165P    378
0.707106781186548,1.,1.,0.707106781186548,0.707106781186548,1.,      165P    379
1.,-26.,0.,-80.,-26.,0.,-77.,-26.,-26.,-80.,-26.,-26.,-77.,0.,       165P    380
-26.,-80.,0.,-26.,-77.,26.,-26.,-80.,26.,-26.,-77.,26.,0.,-80.,      165P    381
26.,0.,-77.,26.,26.,-80.,26.,26.,-77.,0.,26.,-80.,0.,26.,-77.,       165P    382
-26.,26.,-80.,-26.,26.,-77.,-26.,0.,-80.,-26.,0.,-77.,0.,            165P    383
0.115384615384615,-3.14159265358979,3.14159265358979;                165P    384
128,1,8,1,2,0,1,0,0,1,0.,0.,0.0799999999999999,                      167P    385
0.0799999999999999,-3.14159265358979,-3.14159265358979,              167P    386
-3.14159265358979,-1.5707963267949,-1.5707963267949,0.,0.,           167P    387
1.5707963267949,1.5707963267949,3.14159265358979,                    167P    388
3.14159265358979,3.14159265358979,1.,1.,0.707106781186548,           167P    389
0.707106781186548,1.,1.,0.707106781186548,0.707106781186548,1.,      167P    390
1.,0.707106781186548,0.707106781186548,1.,1.,0.707106781186548,      167P    391
0.707106781186548,1.,1.,-37.5,0.,-77.,-37.5,0.,-80.,-37.5,-37.5,     167P    392
-77.,-37.5,-37.5,-80.,0.,-37.5,-77.,0.,-37.5,-80.,37.5,-37.5,        167P    393
-77.,37.5,-37.5,-80.,37.5,0.,-77.,37.5,0.,-80.,37.5,37.5,-77.,       167P    394
37.5,37.5,-80.,0.,37.5,-77.,0.,37.5,-80.,-37.5,37.5,-77.,-37.5,      167P    395
37.5,-80.,-37.5,0.,-77.,-37.5,0.,-80.,0.,0.0799999999999999,         167P    396
-3.14159265358979,3.14159265358979;                                  167P    397
128,1,1,1,1,0,0,1,0,0,-3.751,-3.751,3.751,3.751,-3.751,-3.751,       169P    398
3.751,3.751,1.,1.,1.,1.,-37.51,37.51,-80.,37.51,37.51,-80.,          169P    399
-37.51,-37.51,-80.,37.51,-37.51,-80.,-3.751,3.751,-3.751,3.751;      169P    400
128,1,1,1,1,0,0,1,0,0,-3.751,-3.751,3.751,3.751,-3.751,-3.751,       171P    401
3.751,3.751,1.,1.,1.,1.,37.51,37.51,-77.,-37.51,37.51,-77.,          171P    402
37.51,-37.51,-77.,-37.51,-37.51,-77.,-3.751,3.751,-3.751,3.751;      171P    403
502,16,-4.,25.6904651573303,-76.0000011920929,-4.,                   173P    404
25.6904651573303,-80.,-4.,21.6333076527839,-76.0000011920929,        173P    405
-4.,21.6333076527839,-80.,4.,25.6904651573303,-80.,4.,               173P    406
25.6904651573303,-76.0000011920929,4.,21.6333076527839,-80.,4.,      173P    407
21.6333076527839,-76.0000011920929,-22.,0.,-80.,-22.,                173P    408
2.69422295812418D-15,-20.,-26.,0.,-80.,-20.5,                        173P    409
2.51052593825207D-15,-20.,-20.5,2.51052593825207D-15,0.,-16.5,       173P    410
-2.02066721859313D-15,10.,-16.5,-2.02066721859313D-15,0.,-26.,       173P    411
-3.18408167778312D-15,10.;                                           173P    412
502,6,4.,25.6904651573303,-77.,-26.,0.,-77.,-26.,0.,-80.,4.,         175P    413
25.6904651573303,-80.,-37.5,4.44089209850063D-15,-77.,-37.5,         175P    414
4.59242549680258D-15,-80.;                                           175P    415
504,24,79,173,1,173,2,81,173,3,173,1,83,173,4,173,3,85,173,2,        177P    416
173,4,87,173,5,173,6,89,173,7,173,5,91,173,8,173,7,93,173,8,173,     177P    417
6,95,173,6,173,1,97,173,3,173,8,99,173,9,173,7,101,173,9,173,10,     177P    418
103,173,10,173,10,105,173,4,173,9,107,173,5,173,11,109,173,11,       177P    419
173,2,111,173,12,173,12,113,173,12,173,13,115,173,13,173,13,117,     177P    420
173,14,173,14,119,173,14,173,15,121,173,15,173,15,123,173,16,        177P    421
173,16,125,173,16,173,11;                                            177P    422
504,8,127,175,1,175,2,129,175,2,175,1,131,175,2,175,3,133,175,4,     179P    423
175,3,135,175,3,175,4,137,175,5,175,5,139,175,5,175,6,141,175,6,     179P    424
175,6;                                                               179P    425
406,1,5HBody1;                                                       181P    426
406,1,5HBody2;                                                       183P    427
314,62.7450980392157,62.7450980392157,62.7450980392157,13HSteel      185P    428
- Satin;                                                             185P    429
S      1G      3D    186P    429                                        T      1
