                                                                        S      1
,,9HServo Arm,9HServo Arm,7Hunknown,7Hunknown,32,38,7,99,15,,1.,2,2HMM, G      1
1,0.08,15H20220922.115610,0.01,10000.,7Hunknown,7Hunknown,11,0,;        G      2
     186       1                                                00000000D      1
     186            -123       1       0                               0D      2
     514       2                                                00010000D      3
     514                       1       1                               0D      4
     510       3                                                00010000D      5
     510            -123       1       1                               0D      6
     510       4                                                00010000D      7
     510            -123       1       1                               0D      8
     510       5                                                00010000D      9
     510            -123       1       1                               0D     10
     510       6                                                00010000D     11
     510            -123       1       1                               0D     12
     510       7                                                00010000D     13
     510            -123       1       1                               0D     14
     510       8                                                00010000D     15
     510            -123       1       1                               0D     16
     510       9                                                00010000D     17
     510            -123       1       1                               0D     18
     510      10                                                00010000D     19
     510            -123       1       1                               0D     20
     510      11                                                00010000D     21
     510            -123       1       1                               0D     22
     510      12                                                00010000D     23
     510            -123       1       1                               0D     24
     508      13                                                00010000D     25
     508                       1       1                               0D     26
     508      14                                                00010000D     27
     508                       1       1                               0D     28
     508      15                                                00010000D     29
     508                       2       1                               0D     30
     508      17                                                00010000D     31
     508                       1       1                               0D     32
     508      18                                                00010000D     33
     508                       1       1                               0D     34
     508      19                                                00010000D     35
     508                       1       1                               0D     36
     508      20                                                00010000D     37
     508                       1       1                               0D     38
     508      21                                                00010000D     39
     508                       1       1                               0D     40
     508      22                                                00010000D     41
     508                       2       1                               0D     42
     508      24                                                00010000D     43
     508                       1       1                               0D     44
     508      25                                                00010000D     45
     508                       2       1                               0D     46
     508      27                                                00010000D     47
     508                       1       1                               0D     48
     126      28                                                00010000D     49
     126       0               5       0                               0D     50
     126      33                                                00010000D     51
     126       0               2       0                               0D     52
     126      35                                                00010000D     53
     126       0               4       0                               0D     54
     126      39                                                00010000D     55
     126       0               2       0                               0D     56
     126      41                                                00010000D     57
     126       0               2       0                               0D     58
     126      43                                                00010000D     59
     126       0               2       0                               0D     60
     126      45                                                00010000D     61
     126       0               2       0                               0D     62
     126      47                                                00010000D     63
     126       0               3       0                               0D     64
     126      50                                                00010000D     65
     126       0              10       0                               0D     66
     126      60                                                00010000D     67
     126       0               5       0                               0D     68
     126      65                                                00010000D     69
     126       0               3       0                               0D     70
     126      68                                                00010000D     71
     126       0               5       0                               0D     72
     126      73                                                00010000D     73
     126       0               8       0                               0D     74
     126      81                                                00010000D     75
     126       0               2       0                               0D     76
     126      83                                                00010000D     77
     126       0               4       0                               0D     78
     126      87                                                00010000D     79
     126       0               2       0                               0D     80
     126      89                                                00010000D     81
     126       0               8       0                               0D     82
     126      97                                                00010000D     83
     126       0               2       0                               0D     84
     126      99                                                00010000D     85
     126       0               3       0                               0D     86
     126     102                                                00010000D     87
     126       0               3       0                               0D     88
     126     105                                                00010000D     89
     126       0               2       0                               0D     90
     126     107                                                00010000D     91
     126       0               7       0                               0D     92
     126     114                                                00010000D     93
     126       0               2       0                               0D     94
     126     116                                                00010000D     95
     126       0               8       0                               0D     96
     128     124                                                00010000D     97
     128       0    -123       6       0                               0D     98
     128     130                                                00010000D     99
     128       0    -123       3       0                               0D    100
     128     133                                                00010000D    101
     128       0    -123       7       0                               0D    102
     128     140                                                00010000D    103
     128       0    -123       6       0                               0D    104
     128     146                                                00010000D    105
     128       0    -123      12       0                               0D    106
     128     158                                                00010000D    107
     128       0    -123       5       0                               0D    108
     128     163                                                00010000D    109
     128       0    -123       4       0                               0D    110
     128     167                                                00010000D    111
     128       0    -123       5       0                               0D    112
     128     172                                                00010000D    113
     128       0    -123      13       0                               0D    114
     128     185                                                00010000D    115
     128       0    -123       3       0                               0D    116
     502     188                                                00010000D    117
     502                       5       1                               0D    118
     504     193                                                00010001D    119
     504                       7       1                               0D    120
     406     200                                                00000000D    121
     406                       1      15                               0D    122
     314     201                                                00000200D    123
     314                       2       0                               0D    124
     314     203                                                00000200D    125
     314                       2       0                               0D    126
186,3,1,0,0,1,121;                                                     1P      1
514,10,5,1,7,1,9,1,11,1,13,1,15,1,17,1,19,1,21,1,23,1;                 3P      2
510,97,1,1,25;                                                         5P      3
510,99,1,1,27;                                                         7P      4
510,101,2,1,29,31;                                                     9P      5
510,103,1,1,33;                                                       11P      6
510,105,1,1,35;                                                       13P      7
510,107,1,1,37;                                                       15P      8
510,109,1,1,39;                                                       17P      9
510,111,2,1,41,43;                                                    19P     10
510,113,1,1,45;                                                       21P     11
510,115,1,1,47;                                                       23P     12
508,4,0,119,1,1,0,0,119,2,1,0,0,119,3,1,0,0,119,4,1,0;                25P     13
508,4,0,119,2,0,0,0,119,5,0,0,0,119,6,0,0,0,119,7,0,0;                27P     14
508,7,0,119,1,0,0,0,119,8,1,0,0,119,9,1,0,0,119,10,1,0,0,119,11,      29P     15
1,0,0,119,12,0,0,0,119,5,1,0;                                         29P     16
508,1,0,119,13,1,0;                                                   31P     17
508,4,0,119,12,1,0,0,119,14,1,0,0,119,15,1,0,0,119,6,1,0;             33P     18
508,4,0,119,13,0,0,0,119,16,1,0,0,119,17,1,0,0,119,16,0,0;            35P     19
508,4,0,119,14,0,0,0,119,11,0,0,0,119,18,0,0,0,119,19,0,0;            37P     20
508,4,0,119,4,0,0,0,119,20,0,0,0,119,21,0,0,0,119,8,0,0;              39P     21
508,6,0,119,3,0,0,0,119,7,1,0,0,119,15,0,0,0,119,19,1,0,0,119,        41P     22
22,0,0,0,119,20,1,0;                                                  41P     23
508,1,0,119,17,0,0;                                                   43P     24
508,8,0,119,21,1,0,0,119,22,1,0,0,119,18,1,0,0,119,10,0,0,0,119,      45P     25
23,1,0,0,119,24,1,0,0,119,23,0,0,0,119,9,0,0;                         45P     26
508,1,0,119,24,0,0;                                                   47P     27
126,2,2,0,0,0,0,-0.785398163397448,-0.785398163397448,                49P     28
-0.785398163397448,0.785398163397448,0.785398163397448,               49P     29
0.785398163397448,1.,0.707106781186547,1.,33.5,8.5,3.75,33.5,         49P     30
8.5,1.75,33.5,6.5,1.75,-0.785398163397448,0.785398163397448,0.,       49P     31
0.,0.;                                                                49P     32
126,1,1,0,0,1,0,-0.15,-0.15,0.,0.,1.,1.,33.5,6.5,1.75,32.,6.5,        51P     33
1.75,-0.15,0.,0.,0.,0.;                                               51P     34
126,2,2,0,0,0,0,-0.785398163397448,-0.785398163397448,                53P     35
-0.785398163397448,0.785398163397448,0.785398163397448,               53P     36
0.785398163397448,1.,0.707106781186547,1.,32.,6.5,1.75,32.,8.5,       53P     37
1.75,32.,8.5,3.75,-0.785398163397448,0.785398163397448,0.,0.,0.;      53P     38
126,1,1,0,0,1,0,0.,0.,0.15,0.15,1.,1.,32.,8.5,3.75,33.5,8.5,          55P     39
3.75,0.,0.15,0.,0.,0.;                                                55P     40
126,1,1,0,0,1,0,-0.3,-0.3,-0.2,-0.2,1.,1.,33.5,5.5,1.75,33.5,         57P     41
6.5,1.75,-0.3,-0.2,0.,0.,0.;                                          57P     42
126,1,1,0,0,1,0,0.,0.,0.15,0.15,1.,1.,32.,5.5,1.75,33.5,5.5,          59P     43
1.75,0.,0.15,0.,0.,0.;                                                59P     44
126,1,1,0,0,1,0,0.2,0.2,0.3,0.3,1.,1.,32.,6.5,1.75,32.,5.5,1.75,      61P     45
0.2,0.3,0.,0.,0.;                                                     61P     46
126,1,1,0,0,1,0,-1.3,-1.3,-0.244948974278318,-0.244948974278318,      63P     47
1.,1.,33.5,8.5,3.75,33.5,8.5,14.3005102572168,-1.3,                   63P     48
-0.244948974278318,0.,0.,0.;                                          63P     49
126,6,2,0,0,0,0,-7.05837868048995,-7.05837868048995,                  65P     50
-7.05837868048995,-5.7527833381899,-5.7527833381899,                  65P     51
-4.44718799588984,-4.44718799588984,-3.14159265358979,                65P     52
-3.14159265358979,-3.14159265358979,1.,0.794387572752466,1.,          65P     53
0.794387572752463,1.,0.794387572752466,1.,33.5,8.5,                   65P     54
14.3005102572168,33.5,10.372949165026,16.2120809940858,33.5,          65P     55
9.01911327230812,18.5205804271405,33.5,7.66527737959027,              65P     56
20.8290798601952,33.5,5.08263868979513,20.1276394459059,33.5,         65P     57
2.5,19.4261990316165,33.5,2.5,16.75,-7.05837868048995,                65P     58
-3.14159265358979,0.,0.,0.;                                           65P     59
126,2,2,0,0,0,0,-3.14159265358979,-3.14159265358979,                  67P     60
-3.14159265358979,-2.36639928027943,-2.36639928027943,                67P     61
-2.36639928027943,1.,0.925820099772557,1.,33.5,2.5,16.75,33.5,        67P     62
2.5,15.3211309833765,33.5,3.5,14.3005102572168,                       67P     63
-3.14159265358979,-2.36639928027943,0.,0.,0.;                         67P     64
126,1,1,0,0,1,0,-1.25505102572168,-1.25505102572168,-0.2,-0.2,        69P     65
1.,1.,33.5,3.5,14.3005102572168,33.5,3.5,3.75,-1.25505102572168,      69P     66
-0.2,0.,0.,0.;                                                        69P     67
126,2,2,0,0,0,0,-0.785398163397448,-0.785398163397448,                71P     68
-0.785398163397448,0.785398163397449,0.785398163397449,               71P     69
0.785398163397449,1.,0.707106781186548,1.,33.5,5.5,1.75,33.5,         71P     70
3.5,1.75,33.5,3.5,3.75,-0.785398163397448,0.785398163397449,0.,       71P     71
0.,0.;                                                                71P     72
126,8,2,0,1,0,0,-3.14159265358979,-3.14159265358979,                  73P     73
-3.14159265358979,-1.5707963267949,-1.5707963267949,0.,0.,            73P     74
1.5707963267949,1.5707963267949,3.14159265358979,                     73P     75
3.14159265358979,3.14159265358979,1.,0.707106781186547,1.,            73P     76
0.707106781186547,1.,0.707106781186547,1.,0.707106781186547,1.,       73P     77
33.5,5.1,3.75,33.5,5.1,4.65,33.5,6.,4.65,33.5,6.9,4.65,33.5,6.9,      73P     78
3.75,33.5,6.9,2.85,33.5,6.,2.85,33.5,5.1,2.85,33.5,5.1,3.75,          73P     79
-3.14159265358979,3.14159265358979,0.,0.,0.;                          73P     80
126,1,1,0,0,1,0,-0.15,-0.15,0.,0.,1.,1.,33.5,3.5,3.75,32.,3.5,        75P     81
3.75,-0.15,0.,0.,0.,0.;                                               75P     82
126,2,2,0,0,0,0,-0.785398163397449,-0.785398163397449,                77P     83
-0.785398163397449,0.785398163397448,0.785398163397448,               77P     84
0.785398163397448,1.,0.707106781186548,1.,32.,3.5,3.75,32.,3.5,       77P     85
1.75,32.,5.5,1.75,-0.785398163397449,0.785398163397448,0.,0.,0.;      77P     86
126,1,1,0,0,1,0,-1.66666666666666,-1.66666666666666,0.,0.,1.,1.,      79P     87
33.5,5.1,3.75,32.,5.1,3.75,-1.66666666666666,0.,0.,0.,0.;             79P     88
126,8,2,0,1,0,0,-3.14159265358979,-3.14159265358979,                  81P     89
-3.14159265358979,-1.5707963267949,-1.5707963267949,0.,0.,            81P     90
1.5707963267949,1.5707963267949,3.14159265358979,                     81P     91
3.14159265358979,3.14159265358979,1.,0.707106781186547,1.,            81P     92
0.707106781186547,1.,0.707106781186547,1.,0.707106781186547,1.,       81P     93
32.,5.1,3.75,32.,5.1,4.65,32.,6.,4.65,32.,6.9,4.65,32.,6.9,3.75,      81P     94
32.,6.9,2.85,32.,6.,2.85,32.,5.1,2.85,32.,5.1,3.75,                   81P     95
-3.14159265358979,3.14159265358979,0.,0.,0.;                          81P     96
126,1,1,0,0,1,0,0.35,0.35,0.5,0.5,1.,1.,32.,3.5,                      83P     97
14.3005102572168,33.5,3.5,14.3005102572168,0.35,0.5,0.,0.,0.;         83P     98
126,1,1,0,0,1,0,0.2,0.2,1.25505102572168,1.25505102572168,1.,1.,      85P     99
32.,3.5,3.75,32.,3.5,14.3005102572168,0.2,1.25505102572168,0.,        85P    100
0.,0.;                                                                85P    101
126,1,1,0,0,1,0,0.244948974278318,0.244948974278318,1.3,1.3,1.,       87P    102
1.,32.,8.5,14.3005102572168,32.,8.5,3.75,0.244948974278318,1.3,       87P    103
0.,0.,0.;                                                             87P    104
126,1,1,0,0,1,0,-0.5,-0.5,-0.35,-0.35,1.,1.,33.5,8.5,                 89P    105
14.3005102572168,32.,8.5,14.3005102572168,-0.5,-0.35,0.,0.,0.;        89P    106
126,4,2,0,0,0,0,0.775193373310362,0.775193373310362,                  91P    107
0.775193373310362,1.5707963267949,1.5707963267949,                    91P    108
2.36639928027943,2.36639928027943,2.36639928027943,1.,                91P    109
0.921914912620399,1.,0.921914912620413,1.,32.,8.5,                    91P    110
14.3005102572168,32.,7.47071436010355,13.25,32.,6.,13.25,32.,         91P    111
4.52928563989645,13.25,32.,3.5,14.3005102572168,                      91P    112
0.775193373310362,2.36639928027943,0.,0.,0.;                          91P    113
126,1,1,0,0,1,0,-1.42857142857143,-1.42857142857143,0.,0.,1.,1.,      93P    114
33.5,2.5,16.75,28.5,2.5,16.75,-1.42857142857143,0.,0.,0.,0.;          93P    115
126,8,2,0,1,0,0,-3.14159265358979,-3.14159265358979,                  95P    116
-3.14159265358979,-1.5707963267949,-1.5707963267949,0.,0.,            95P    117
1.5707963267949,1.5707963267949,3.14159265358979,                     95P    118
3.14159265358979,3.14159265358979,1.,0.707106781186548,1.,            95P    119
0.707106781186549,1.,0.707106781186549,1.,0.707106781186548,1.,       95P    120
28.5,2.5,16.75,28.5,2.5,13.25,28.5,6.,13.25,28.5,9.5,13.25,28.5,      95P    121
9.5,16.75,28.5,9.5,20.25,28.5,6.,20.25,28.5,2.5,20.25,28.5,2.5,       95P    122
16.75,-3.14159265358979,3.14159265358979,0.,0.,0.;                    95P    123
128,1,2,1,2,0,0,0,0,0,0.,0.,0.75,0.75,-0.785398163397448,             97P    124
-0.785398163397448,-0.785398163397448,0.785398163397448,              97P    125
0.785398163397448,0.785398163397448,1.,1.,0.707106781186548,          97P    126
0.707106781186548,1.,1.,33.5,6.5,1.75,32.,6.5,1.75,33.5,8.5,          97P    127
1.75,32.,8.5,1.75,33.5,8.5,3.75,32.,8.5,3.75,0.,0.75,                 97P    128
-0.785398163397448,0.785398163397448;                                 97P    129
128,1,1,1,1,0,0,1,0,0,0.199,0.199,0.301,0.301,-0.001,-0.001,          99P    130
0.151,0.151,1.,1.,1.,1.,31.99,5.49,1.75,31.99,6.51,1.75,33.51,        99P    131
5.49,1.75,33.51,6.51,1.75,0.199,0.301,-0.001,0.151;                   99P    132
128,1,1,1,1,0,0,1,0,0,-0.494288181975287,-0.494288181975287,         101P    133
0.494288181975287,0.494288181975287,-1.501,-1.501,                   101P    134
0.494299597732503,0.494299597732503,1.,1.,1.,1.,33.5,                101P    135
1.05711818024713,1.74,33.5,10.9428818197529,1.74,33.5,               101P    136
1.05711818024713,21.692995977325,33.5,10.9428818197529,              101P    137
21.692995977325,-0.494288181975287,0.494288181975287,-1.501,         101P    138
0.494299597732503;                                                   101P    139
128,1,2,1,2,0,0,0,0,0,0.,0.,0.75,0.75,-0.785398163397449,            103P    140
-0.785398163397449,-0.785398163397449,0.785398163397448,             103P    141
0.785398163397448,0.785398163397448,1.,1.,0.707106781186548,         103P    142
0.707106781186548,1.,1.,33.5,3.5,3.75,32.,3.5,3.75,33.5,3.5,         103P    143
1.75,32.,3.5,1.75,33.5,5.5,1.75,32.,5.5,1.75,0.,0.75,                103P    144
-0.785398163397449,0.785398163397448;                                103P    145
128,1,8,1,2,0,1,0,0,1,0.,0.,1.66666666666666,1.66666666666666,       105P    146
-3.14159265358979,-3.14159265358979,-3.14159265358979,               105P    147
-1.5707963267949,-1.5707963267949,0.,0.,1.5707963267949,             105P    148
1.5707963267949,3.14159265358979,3.14159265358979,                   105P    149
3.14159265358979,1.,1.,0.707106781186548,0.707106781186548,1.,       105P    150
1.,0.707106781186548,0.707106781186548,1.,1.,0.707106781186548,      105P    151
0.707106781186548,1.,1.,0.707106781186548,0.707106781186548,1.,      105P    152
1.,32.,5.1,3.75,33.5,5.1,3.75,32.,5.1,2.85,33.5,5.1,2.85,32.,6.,     105P    153
2.85,33.5,6.,2.85,32.,6.9,2.85,33.5,6.9,2.85,32.,6.9,3.75,33.5,      105P    154
6.9,3.75,32.,6.9,4.65,33.5,6.9,4.65,32.,6.,4.65,33.5,6.,4.65,        105P    155
32.,5.1,4.65,33.5,5.1,4.65,32.,5.1,3.75,33.5,5.1,3.75,0.,            105P    156
1.66666666666666,-3.14159265358979,3.14159265358979;                 105P    157
128,1,1,1,1,0,0,1,0,0,-0.00100000000000022,-0.00100000000000022,     107P    158
1.05605102572168,1.05605102572168,-0.001,-0.001,0.151,0.151,1.,      107P    159
1.,1.,1.,31.99,3.5,14.3105102572168,31.99,3.5,3.74,33.51,3.5,        107P    160
14.3105102572168,33.51,3.5,3.74,-0.00100000000000022,                107P    161
1.05605102572168,-0.001,0.151;                                       107P    162
128,1,1,1,1,0,0,1,0,0,0.199,0.199,1.25605102572168,                  109P    163
1.25605102572168,-0.001,-0.001,0.151,0.151,1.,1.,1.,1.,31.99,        109P    164
8.5,3.74,31.99,8.5,14.3105102572168,33.51,8.5,3.74,33.51,8.5,        109P    165
14.3105102572168,0.199,1.25605102572168,-0.001,0.151;                109P    166
128,1,1,1,1,0,0,1,0,0,-0.251,-0.251,0.251,0.251,                     111P    167
-0.628525512860841,-0.628525512860841,0.628525512860841,             111P    168
0.628525512860841,1.,1.,1.,1.,32.,8.51,1.74,32.,3.49,1.74,32.,       111P    169
8.51,14.3105102572168,32.,3.49,14.3105102572168,-0.251,0.251,        111P    170
-0.628525512860841,0.628525512860841;                                111P    171
128,1,8,1,2,0,1,0,0,1,0.,0.,1.42857142857143,1.42857142857143,       113P    172
-3.14159265358979,-3.14159265358979,-3.14159265358979,               113P    173
-1.5707963267949,-1.5707963267949,0.,0.,1.5707963267949,             113P    174
1.5707963267949,3.14159265358979,3.14159265358979,                   113P    175
3.14159265358979,1.,1.,0.707106781186548,0.707106781186548,1.,       113P    176
1.,0.707106781186548,0.707106781186548,1.,1.,0.707106781186548,      113P    177
0.707106781186548,1.,1.,0.707106781186548,0.707106781186548,1.,      113P    178
1.,33.5,2.5,16.75,28.5,2.5,16.75,33.5,2.5,13.25,28.5,2.5,13.25,      113P    179
33.5,6.,13.25,28.5,6.,13.25,33.5,9.5,13.25,28.5,9.5,13.25,33.5,      113P    180
9.5,16.75,28.5,9.5,16.75,33.5,9.5,20.25,28.5,9.5,20.25,33.5,6.,      113P    181
20.25,28.5,6.,20.25,33.5,2.5,20.25,28.5,2.5,20.25,33.5,2.5,          113P    182
16.75,28.5,2.5,16.75,0.,1.42857142857143,-3.14159265358979,          113P    183
3.14159265358979;                                                    113P    184
128,1,1,1,1,0,0,1,0,0,-0.351,-0.351,0.351,0.351,-0.351,-0.351,       115P    185
0.351,0.351,1.,1.,1.,1.,28.5,9.51,13.24,28.5,2.49,13.24,28.5,        115P    186
9.51,20.26,28.5,2.49,20.26,-0.351,0.351,-0.351,0.351;                115P    187
502,16,33.5,8.5,3.75,33.5,6.5,1.75,32.,6.5,1.75,32.,8.5,3.75,        117P    188
33.5,5.5,1.75,32.,5.5,1.75,33.5,8.5,14.3005102572168,33.5,2.5,       117P    189
16.75,33.5,3.5,14.3005102572168,33.5,3.5,3.75,33.5,5.1,3.75,32.,     117P    190
3.5,3.75,32.,5.1,3.75,32.,3.5,14.3005102572168,32.,8.5,              117P    191
14.3005102572168,28.5,2.5,16.75;                                     117P    192
504,24,49,117,1,117,2,51,117,2,117,3,53,117,3,117,4,55,117,4,        119P    193
117,1,57,117,5,117,2,59,117,6,117,5,61,117,3,117,6,63,117,1,117,     119P    194
7,65,117,7,117,8,67,117,8,117,9,69,117,9,117,10,71,117,5,117,10,     119P    195
73,117,11,117,11,75,117,10,117,12,77,117,12,117,6,79,117,11,117,     119P    196
13,81,117,13,117,13,83,117,14,117,9,85,117,12,117,14,87,117,15,      119P    197
117,4,89,117,7,117,15,91,117,15,117,14,93,117,8,117,16,95,117,       119P    198
16,117,16;                                                           119P    199
406,1,5HBody1;                                                       121P    200
314,96.4705882352941,96.4705882352941,95.2941176470588,23HPlasti     123P    201
c - Matte (White);                                                   123P    202
314,18.8235294117647,23.1372549019608,58.8235294117647,22HPlasti     125P    203
c - Matte (Blue);                                                    125P    204
S      1G      2D    126P    204                                        T      1
