                                                                        S      1
,,18HWood Protectors v3,18HWood Protectors v3,7Hunknown,7Hunknown,32,38,G      1
7,99,15,,1.,2,2HMM,1,0.08,15H20220922.115330,0.01,10000.,7Hunknown,7HunkG      2
nown,11,0,15H20220306.160921;                                           G      3
     186       1                                                00000000D      1
     186             -55       1       0                               0D      2
     514       2                                                00010000D      3
     514                       1       1                               0D      4
     510       3                                                00010000D      5
     510             -55       1       1                               0D      6
     510       4                                                00010000D      7
     510             -55       1       1                               0D      8
     510       5                                                00010000D      9
     510             -55       1       1                               0D     10
     510       6                                                00010000D     11
     510             -55       1       1                               0D     12
     510       7                                                00010000D     13
     510             -55       1       1                               0D     14
     508       8                                                00010000D     15
     508                       1       1                               0D     16
     508       9                                                00010000D     17
     508                       1       1                               0D     18
     508      10                                                00010000D     19
     508                       1       1                               0D     20
     508      11                                                00010000D     21
     508                       1       1                               0D     22
     508      12                                                00010000D     23
     508                       1       1                               0D     24
     508      13                                                00010000D     25
     508                       1       1                               0D     26
     126      14                                                00010000D     27
     126       0               9       0                               0D     28
     126      23                                                00010000D     29
     126       0               2       0                               0D     30
     126      25                                                00010000D     31
     126       0               9       0                               0D     32
     126      34                                                00010000D     33
     126       0               9       0                               0D     34
     126      43                                                00010000D     35
     126       0               2       0                               0D     36
     126      45                                                00010000D     37
     126       0               9       0                               0D     38
     128      54                                                00010000D     39
     128       0     -55      11       0                               0D     40
     128      65                                                00010000D     41
     128       0     -55       3       0                               0D     42
     128      68                                                00010000D     43
     128       0     -55      12       0                               0D     44
     128      80                                                00010000D     45
     128       0     -55       3       0                               0D     46
     128      83                                                00010000D     47
     128       0     -55       3       0                               0D     48
     502      86                                                00010000D     49
     502                       2       1                               0D     50
     504      88                                                00010001D     51
     504                       2       1                               0D     52
     406      90                                                00000000D     53
     406                       1      15                               0D     54
     314      91                                                00000200D     55
     314                       2       0                               0D     56
186,3,1,0,0,1,53;                                                      1P      1
514,5,5,1,7,1,9,1,11,1,13,1;                                           3P      2
510,39,1,1,15;                                                         5P      3
510,41,1,1,17;                                                         7P      4
510,43,1,1,19;                                                         9P      5
510,45,1,1,21;                                                        11P      6
510,47,2,1,23,25;                                                     13P      7
508,4,0,51,1,0,0,0,51,2,1,0,0,51,3,0,0,0,51,2,0,0;                    15P      8
508,1,0,51,1,1,0;                                                     17P      9
508,4,0,51,4,0,0,0,51,5,1,0,0,51,6,1,0,0,51,5,0,0;                    19P     10
508,1,0,51,4,1,0;                                                     21P     11
508,1,0,51,6,0,0;                                                     23P     12
508,1,0,51,3,1,0;                                                     25P     13
126,8,2,0,1,0,0,-3.14159265358979,-3.14159265358979,                  27P     14
-3.14159265358979,-1.5707963267949,-1.5707963267949,0.,0.,            27P     15
1.5707963267949,1.5707963267949,3.14159265358979,                     27P     16
3.14159265358979,3.14159265358979,1.,0.707106781186545,1.,            27P     17
0.707106781186544,1.,0.707106781186544,1.,0.707106781186545,1.,       27P     18
-63.,3.67394039744206D-16,-3.,-63.,3.,-3.,-60.,3.,-3.,-57.,3.,        27P     19
-3.,-57.,0.,-3.,-57.,-3.,-3.,-60.,-3.,-3.,-63.,-3.,-3.,-63.,          27P     20
-3.67394039744206D-16,-3.,-3.14159265358979,3.14159265358979,0.,      27P     21
0.,0.;                                                                27P     22
126,1,1,0,0,1,0,-1.,-1.,0.,0.,1.,1.,-63.,0.,-3.,-63.,0.,0.,-1.,       29P     23
0.,0.,0.,0.;                                                          29P     24
126,8,2,0,1,0,0,-3.14159265358979,-3.14159265358979,                  31P     25
-3.14159265358979,-1.5707963267949,-1.5707963267949,0.,0.,            31P     26
1.5707963267949,1.5707963267949,3.14159265358979,                     31P     27
3.14159265358979,3.14159265358979,1.,0.707106781186545,1.,            31P     28
0.707106781186544,1.,0.707106781186544,1.,0.707106781186545,1.,       31P     29
-63.,-3.67394039744206D-16,0.,-63.,-3.,0.,-60.,-3.,0.,-57.,-3.,       31P     30
0.,-57.,0.,0.,-57.,3.,0.,-60.,3.,0.,-63.,3.,0.,-63.,                  31P     31
3.67394039744206D-16,0.,-3.14159265358979,3.14159265358979,0.,        31P     32
0.,0.;                                                                31P     33
126,8,2,0,1,0,0,-3.14159265358979,-3.14159265358979,                  33P     34
-3.14159265358979,-1.5707963267949,-1.5707963267949,0.,0.,            33P     35
1.5707963267949,1.5707963267949,3.14159265358979,                     33P     36
3.14159265358979,3.14159265358979,1.,0.707106781186546,1.,            33P     37
0.707106781186546,1.,0.707106781186546,1.,0.707106781186546,1.,       33P     38
-66.5,-7.9602041944578D-16,1.5,-66.5,-6.5,1.5,-60.,-6.5,1.5,          33P     39
-53.5,-6.5,1.5,-53.5,0.,1.5,-53.5,6.5,1.5,-60.,6.5,1.5,-66.5,         33P     40
6.5,1.5,-66.5,7.9602041944578D-16,1.5,-3.14159265358979,              33P     41
3.14159265358979,0.,0.,0.;                                            33P     42
126,1,1,0,0,1,0,-0.230769230769231,-0.230769230769231,0.,0.,1.,       35P     43
1.,-66.5,0.,1.5,-66.5,0.,0.,-0.230769230769231,0.,0.,0.,0.;           35P     44
126,8,2,0,1,0,0,-3.14159265358979,-3.14159265358979,                  37P     45
-3.14159265358979,-1.5707963267949,-1.5707963267949,0.,0.,            37P     46
1.5707963267949,1.5707963267949,3.14159265358979,                     37P     47
3.14159265358979,3.14159265358979,1.,0.707106781186546,1.,            37P     48
0.707106781186546,1.,0.707106781186546,1.,0.707106781186546,1.,       37P     49
-66.5,-7.9602041944578D-16,0.,-66.5,-6.5,0.,-60.,-6.5,0.,-53.5,       37P     50
-6.5,0.,-53.5,0.,0.,-53.5,6.5,0.,-60.,6.5,0.,-66.5,6.5,0.,-66.5,      37P     51
7.9602041944578D-16,0.,-3.14159265358979,3.14159265358979,0.,0.,      37P     52
0.;                                                                   37P     53
128,1,8,1,2,0,1,0,0,1,0.,0.,1.,1.,-3.14159265358979,                  39P     54
-3.14159265358979,-3.14159265358979,-1.5707963267949,                 39P     55
-1.5707963267949,0.,0.,1.5707963267949,1.5707963267949,               39P     56
3.14159265358979,3.14159265358979,3.14159265358979,1.,1.,             39P     57
0.707106781186548,0.707106781186548,1.,1.,0.707106781186548,          39P     58
0.707106781186548,1.,1.,0.707106781186548,0.707106781186548,1.,       39P     59
1.,0.707106781186548,0.707106781186548,1.,1.,-63.,0.,-3.,-63.,        39P     60
0.,0.,-63.,3.,-3.,-63.,3.,0.,-60.,3.,-3.,-60.,3.,0.,-57.,3.,-3.,      39P     61
-57.,3.,0.,-57.,0.,-3.,-57.,0.,0.,-57.,-3.,-3.,-57.,-3.,0.,-60.,      39P     62
-3.,-3.,-60.,-3.,0.,-63.,-3.,-3.,-63.,-3.,0.,-63.,0.,-3.,-63.,        39P     63
0.,0.,0.,1.,-3.14159265358979,3.14159265358979;                       39P     64
128,1,1,1,1,0,0,1,0,0,-0.301,-0.301,0.301,0.301,-0.301,-0.301,        41P     65
0.301,0.301,1.,1.,1.,1.,-56.99,-3.01,-3.,-63.01,-3.01,-3.,            41P     66
-56.99,3.01,-3.,-63.01,3.01,-3.,-0.301,0.301,-0.301,0.301;            41P     67
128,1,8,1,2,0,1,0,0,1,0.,0.,0.230769230769231,0.230769230769231,      43P     68
-3.14159265358979,-3.14159265358979,-3.14159265358979,                43P     69
-1.5707963267949,-1.5707963267949,0.,0.,1.5707963267949,              43P     70
1.5707963267949,3.14159265358979,3.14159265358979,                    43P     71
3.14159265358979,1.,1.,0.707106781186548,0.707106781186548,1.,        43P     72
1.,0.707106781186548,0.707106781186548,1.,1.,0.707106781186548,       43P     73
0.707106781186548,1.,1.,0.707106781186548,0.707106781186548,1.,       43P     74
1.,-66.5,0.,1.5,-66.5,0.,0.,-66.5,-6.5,1.5,-66.5,-6.5,0.,-60.,        43P     75
-6.5,1.5,-60.,-6.5,0.,-53.5,-6.5,1.5,-53.5,-6.5,0.,-53.5,0.,1.5,      43P     76
-53.5,0.,0.,-53.5,6.5,1.5,-53.5,6.5,0.,-60.,6.5,1.5,-60.,6.5,0.,      43P     77
-66.5,6.5,1.5,-66.5,6.5,0.,-66.5,0.,1.5,-66.5,0.,0.,0.,               43P     78
0.230769230769231,-3.14159265358979,3.14159265358979;                 43P     79
128,1,1,1,1,0,0,1,0,0,-0.651,-0.651,0.651,0.651,-0.651,-0.651,        45P     80
0.651,0.651,1.,1.,1.,1.,-66.51,-6.51,1.5,-53.49,-6.51,1.5,            45P     81
-66.51,6.51,1.5,-53.49,6.51,1.5,-0.651,0.651,-0.651,0.651;            45P     82
128,1,1,1,1,0,0,1,0,0,-0.651,-0.651,0.651,0.651,-0.651,-0.651,        47P     83
0.651,0.651,1.,1.,1.,1.,-53.49,-6.51,0.,-66.51,-6.51,0.,-53.49,       47P     84
6.51,0.,-66.51,6.51,0.,-0.651,0.651,-0.651,0.651;                     47P     85
502,4,-63.,-3.67394039744206D-16,-3.,-63.,-3.67394039744206D-16,      49P     86
0.,-66.5,-7.9602041944578D-16,1.5,-66.5,-7.9602041944578D-16,0.;      49P     87
504,6,27,49,1,49,1,29,49,1,49,2,31,49,2,49,2,33,49,3,49,3,35,49,      51P     88
3,49,4,37,49,4,49,4;                                                  51P     89
406,1,5HBody1;                                                        53P     90
314,62.7450980392157,62.7450980392157,62.7450980392157,13HSteel       55P     91
- Satin;                                                              55P     92
S      1G      3D     56P     92                                        T      1
