                                                                        S      1
,,3HLid,3HLid,7Hunknown,7Hunknown,32,38,7,99,15,,1.,2,2HMM,1,0.08,15H202G      1
20922.115402,0.01,10000.,7Hunknown,7Hunknown,11,0,;                     G      2
     186       1                                                00000000D      1
     186            -183       1       0                               0D      2
     514       2                                                00010000D      3
     514                       2       1                               0D      4
     510       4                                                00010000D      5
     510            -183       1       1                               0D      6
     510       5                                                00010000D      7
     510            -183       1       1                               0D      8
     510       6                                                00010000D      9
     510            -183       1       1                               0D     10
     510       7                                                00010000D     11
     510            -183       1       1                               0D     12
     510       8                                                00010000D     13
     510            -183       1       1                               0D     14
     510       9                                                00010000D     15
     510            -183       1       1                               0D     16
     510      10                                                00010000D     17
     510            -183       1       1                               0D     18
     510      11                                                00010000D     19
     510            -183       1       1                               0D     20
     510      12                                                00010000D     21
     510            -183       1       1                               0D     22
     510      13                                                00010000D     23
     510            -183       1       1                               0D     24
     510      14                                                00010000D     25
     510            -183       1       1                               0D     26
     510      15                                                00010000D     27
     510            -183       1       1                               0D     28
     510      16                                                00010000D     29
     510            -183       1       1                               0D     30
     510      17                                                00010000D     31
     510            -183       1       1                               0D     32
     510      18                                                00010000D     33
     510            -183       1       1                               0D     34
     510      19                                                00010000D     35
     510            -183       1       1                               0D     36
     508      20                                                00010000D     37
     508                       1       1                               0D     38
     508      21                                                00010000D     39
     508                       1       1                               0D     40
     508      22                                                00010000D     41
     508                       1       1                               0D     42
     508      23                                                00010000D     43
     508                       1       1                               0D     44
     508      24                                                00010000D     45
     508                       1       1                               0D     46
     508      25                                                00010000D     47
     508                       1       1                               0D     48
     508      26                                                00010000D     49
     508                       1       1                               0D     50
     508      27                                                00010000D     51
     508                       1       1                               0D     52
     508      28                                                00010000D     53
     508                       1       1                               0D     54
     508      29                                                00010000D     55
     508                       1       1                               0D     56
     508      30                                                00010000D     57
     508                       1       1                               0D     58
     508      31                                                00010000D     59
     508                       1       1                               0D     60
     508      32                                                00010000D     61
     508                       1       1                               0D     62
     508      33                                                00010000D     63
     508                       1       1                               0D     64
     508      34                                                00010000D     65
     508                       1       1                               0D     66
     508      35                                                00010000D     67
     508                       1       1                               0D     68
     508      36                                                00010000D     69
     508                       1       1                               0D     70
     508      37                                                00010000D     71
     508                       1       1                               0D     72
     126      38                                                00010000D     73
     126       0               2       0                               0D     74
     126      40                                                00010000D     75
     126       0               2       0                               0D     76
     126      42                                                00010000D     77
     126       0               2       0                               0D     78
     126      44                                                00010000D     79
     126       0               2       0                               0D     80
     126      46                                                00010000D     81
     126       0               2       0                               0D     82
     126      48                                                00010000D     83
     126       0               2       0                               0D     84
     126      50                                                00010000D     85
     126       0               2       0                               0D     86
     126      52                                                00010000D     87
     126       0               2       0                               0D     88
     126      54                                                00010000D     89
     126       0               2       0                               0D     90
     126      56                                                00010000D     91
     126       0               2       0                               0D     92
     126      58                                                00010000D     93
     126       0               2       0                               0D     94
     126      60                                                00010000D     95
     126       0               2       0                               0D     96
     126      62                                                00010000D     97
     126       0               2       0                               0D     98
     126      64                                                00010000D     99
     126       0               2       0                               0D    100
     126      66                                                00010000D    101
     126       0               2       0                               0D    102
     126      68                                                00010000D    103
     126       0               2       0                               0D    104
     126      70                                                00010000D    105
     126       0               2       0                               0D    106
     126      72                                                00010000D    107
     126       0               2       0                               0D    108
     126      74                                                00010000D    109
     126       0               2       0                               0D    110
     126      76                                                00010000D    111
     126       0               2       0                               0D    112
     126      78                                                00010000D    113
     126       0               2       0                               0D    114
     126      80                                                00010000D    115
     126       0               2       0                               0D    116
     126      82                                                00010000D    117
     126       0               2       0                               0D    118
     126      84                                                00010000D    119
     126       0               2       0                               0D    120
     126      86                                                00010000D    121
     126       0               2       0                               0D    122
     126      88                                                00010000D    123
     126       0               2       0                               0D    124
     126      90                                                00010000D    125
     126       0               2       0                               0D    126
     126      92                                                00010000D    127
     126       0               2       0                               0D    128
     126      94                                                00010000D    129
     126       0               2       0                               0D    130
     126      96                                                00010000D    131
     126       0               2       0                               0D    132
     126      98                                                00010000D    133
     126       0               2       0                               0D    134
     126     100                                                00010000D    135
     126       0               2       0                               0D    136
     126     102                                                00010000D    137
     126       0               2       0                               0D    138
     126     104                                                00010000D    139
     126       0               2       0                               0D    140
     126     106                                                00010000D    141
     126       0               2       0                               0D    142
     126     108                                                00010000D    143
     126       0               2       0                               0D    144
     128     110                                                00010000D    145
     128       0    -183       3       0                               0D    146
     128     113                                                00010000D    147
     128       0    -183       3       0                               0D    148
     128     116                                                00010000D    149
     128       0    -183       5       0                               0D    150
     128     121                                                00010000D    151
     128       0    -183       4       0                               0D    152
     128     125                                                00010000D    153
     128       0    -183       3       0                               0D    154
     128     128                                                00010000D    155
     128       0    -183       3       0                               0D    156
     128     131                                                00010000D    157
     128       0    -183       3       0                               0D    158
     128     134                                                00010000D    159
     128       0    -183       3       0                               0D    160
     128     137                                                00010000D    161
     128       0    -183       3       0                               0D    162
     128     140                                                00010000D    163
     128       0    -183       4       0                               0D    164
     128     144                                                00010000D    165
     128       0    -183       4       0                               0D    166
     128     148                                                00010000D    167
     128       0    -183       3       0                               0D    168
     128     151                                                00010000D    169
     128       0    -183       3       0                               0D    170
     128     154                                                00010000D    171
     128       0    -183       4       0                               0D    172
     128     158                                                00010000D    173
     128       0    -183       4       0                               0D    174
     128     162                                                00010000D    175
     128       0    -183       3       0                               0D    176
     502     165                                                00010000D    177
     502                       5       1                               0D    178
     504     170                                                00010001D    179
     504                      10       1                               0D    180
     406     180                                                00000000D    181
     406                       1      15                               0D    182
     314     181                                                00000200D    183
     314                       2       0                               0D    184
186,3,1,0,0,1,181;                                                     1P      1
514,16,5,1,7,1,9,1,11,1,13,1,15,1,17,1,19,1,21,1,23,1,25,1,27,1,       3P      2
29,1,31,1,33,1,35,1;                                                   3P      3
510,145,2,1,37,39;                                                     5P      4
510,147,1,1,41;                                                        7P      5
510,149,1,1,43;                                                        9P      6
510,151,1,1,45;                                                       11P      7
510,153,1,1,47;                                                       13P      8
510,155,1,1,49;                                                       15P      9
510,157,1,1,51;                                                       17P     10
510,159,1,1,53;                                                       19P     11
510,161,1,1,55;                                                       21P     12
510,163,2,1,57,59;                                                    23P     13
510,165,1,1,61;                                                       25P     14
510,167,1,1,63;                                                       27P     15
510,169,1,1,65;                                                       29P     16
510,171,1,1,67;                                                       31P     17
510,173,1,1,69;                                                       33P     18
510,175,1,1,71;                                                       35P     19
508,4,0,179,1,1,0,0,179,2,1,0,0,179,3,1,0,0,179,4,1,0;                37P     20
508,4,0,179,5,1,0,0,179,6,1,0,0,179,7,1,0,0,179,8,1,0;                39P     21
508,4,0,179,9,0,0,0,179,10,1,0,0,179,8,0,0,0,179,11,0,0;              41P     22
508,4,0,179,12,0,0,0,179,11,1,0,0,179,7,0,0,0,179,13,0,0;             43P     23
508,4,0,179,14,0,0,0,179,13,1,0,0,179,6,0,0,0,179,15,0,0;             45P     24
508,4,0,179,16,0,0,0,179,15,1,0,0,179,5,0,0,0,179,10,0,0;             47P     25
508,4,0,179,17,0,0,0,179,18,1,0,0,179,4,0,0,0,179,19,0,0;             49P     26
508,4,0,179,20,0,0,0,179,19,1,0,0,179,3,0,0,0,179,21,0,0;             51P     27
508,4,0,179,22,0,0,0,179,21,1,0,0,179,2,0,0,0,179,23,0,0;             53P     28
508,4,0,179,24,0,0,0,179,23,1,0,0,179,1,0,0,0,179,18,0,0;             55P     29
508,4,0,179,25,0,0,0,179,26,0,0,0,179,27,0,0,0,179,28,0,0;            57P     30
508,4,0,179,17,1,0,0,179,20,1,0,0,179,22,1,0,0,179,24,1,0;            59P     31
508,4,0,179,26,1,0,0,179,29,1,0,0,179,30,0,0,0,179,31,0,0;            61P     32
508,4,0,179,27,1,0,0,179,31,1,0,0,179,32,0,0,0,179,33,0,0;            63P     33
508,4,0,179,28,1,0,0,179,33,1,0,0,179,34,0,0,0,179,35,0,0;            65P     34
508,4,0,179,25,1,0,0,179,35,1,0,0,179,36,0,0,0,179,29,0,0;            67P     35
508,4,0,179,36,1,0,0,179,34,1,0,0,179,32,1,0,0,179,30,1,0;            69P     36
508,4,0,179,9,1,0,0,179,12,1,0,0,179,14,1,0,0,179,16,1,0;             71P     37
126,1,1,0,0,1,0,0.,0.,5.54,5.54,1.,1.,57.4,-3.,-2.,2.,-3.,-2.,        73P     38
0.,5.54,0.,0.,0.;                                                     73P     39
126,1,1,0,0,1,0,0.,0.,3.72,3.72,1.,1.,2.,-3.,-2.,2.,-3.,-39.2,        75P     40
0.,3.72,0.,0.,0.;                                                     75P     41
126,1,1,0,0,1,0,0.,0.,5.54,5.54,1.,1.,2.,-3.,-39.2,57.4,-3.,          77P     42
-39.2,0.,5.54,0.,0.,0.;                                               77P     43
126,1,1,0,0,1,0,0.,0.,3.72,3.72,1.,1.,57.4,-3.,-39.2,57.4,-3.,        79P     44
-2.,0.,3.72,0.,0.,0.;                                                 79P     45
126,1,1,0,0,1,0,-5.24,-5.24,0.,0.,1.,1.,3.5,-3.,-3.5,55.9,-3.,        81P     46
-3.5,-5.24,0.,0.,0.,0.;                                               81P     47
126,1,1,0,0,1,0,-3.42,-3.42,0.,0.,1.,1.,55.9,-3.,-3.5,55.9,-3.,       83P     48
-37.7,-3.42,0.,0.,0.,0.;                                              83P     49
126,1,1,0,0,1,0,-5.24,-5.24,0.,0.,1.,1.,55.9,-3.,-37.7,3.5,-3.,       85P     50
-37.7,-5.24,0.,0.,0.,0.;                                              85P     51
126,1,1,0,0,1,0,-3.42,-3.42,0.,0.,1.,1.,3.5,-3.,-37.7,3.5,-3.,        87P     52
-3.5,-3.42,0.,0.,0.,0.;                                               87P     53
126,1,1,0,0,1,0,-2.565,-2.565,0.855,0.855,1.,1.,3.5,0.,-3.5,3.5,      89P     54
0.,-37.7,-2.565,0.855,0.,0.,0.;                                       89P     55
126,1,1,0,0,1,0,0.,0.,0.3,0.3,1.,1.,3.5,0.,-3.5,3.5,-3.,-3.5,0.,      91P     56
0.3,0.,0.,0.;                                                         91P     57
126,1,1,0,0,1,0,0.,0.,0.3,0.3,1.,1.,3.5,0.,-37.7,3.5,-3.,-37.7,       93P     58
0.,0.3,0.,0.,0.;                                                      93P     59
126,1,1,0,0,1,0,-3.93,-3.93,1.31,1.31,1.,1.,3.5,0.,-37.7,55.9,        95P     60
0.,-37.7,-3.93,1.31,0.,0.,0.;                                         95P     61
126,1,1,0,0,1,0,0.,0.,0.3,0.3,1.,1.,55.9,0.,-37.7,55.9,-3.,           97P     62
-37.7,0.,0.3,0.,0.,0.;                                                97P     63
126,1,1,0,0,1,0,-2.565,-2.565,0.855,0.855,1.,1.,55.9,0.,-37.7,        99P     64
55.9,0.,-3.5,-2.565,0.855,0.,0.,0.;                                   99P     65
126,1,1,0,0,1,0,0.,0.,0.3,0.3,1.,1.,55.9,0.,-3.5,55.9,-3.,-3.5,      101P     66
0.,0.3,0.,0.,0.;                                                     101P     67
126,1,1,0,0,1,0,-3.93,-3.93,1.31,1.31,1.,1.,55.9,0.,-3.5,3.5,0.,     103P     68
-3.5,-3.93,1.31,0.,0.,0.;                                            103P     69
126,1,1,0,0,1,0,-2.79,-2.79,0.93,0.93,1.,1.,57.4,0.,-2.,57.4,0.,     105P     70
-39.2,-2.79,0.93,0.,0.,0.;                                           105P     71
126,1,1,0,0,1,0,0.,0.,0.3,0.3,1.,1.,57.4,0.,-2.,57.4,-3.,-2.,0.,     107P     72
0.3,0.,0.,0.;                                                        107P     73
126,1,1,0,0,1,0,0.,0.,0.3,0.3,1.,1.,57.4,0.,-39.2,57.4,-3.,          109P     74
-39.2,0.,0.3,0.,0.,0.;                                               109P     75
126,1,1,0,0,1,0,-4.155,-4.155,1.385,1.385,1.,1.,57.4,0.,-39.2,       111P     76
2.,0.,-39.2,-4.155,1.385,0.,0.,0.;                                   111P     77
126,1,1,0,0,1,0,0.,0.,0.3,0.3,1.,1.,2.,0.,-39.2,2.,-3.,-39.2,0.,     113P     78
0.3,0.,0.,0.;                                                        113P     79
126,1,1,0,0,1,0,-2.79,-2.79,0.93,0.93,1.,1.,2.,0.,-39.2,2.,0.,       115P     80
-2.,-2.79,0.93,0.,0.,0.;                                             115P     81
126,1,1,0,0,1,0,0.,0.,0.3,0.3,1.,1.,2.,0.,-2.,2.,-3.,-2.,0.,0.3,     117P     82
0.,0.,0.;                                                            117P     83
126,1,1,0,0,1,0,-4.155,-4.155,1.385,1.385,1.,1.,2.,0.,-2.,57.4,      119P     84
0.,-2.,-4.155,1.385,0.,0.,0.;                                        119P     85
126,1,1,0,0,1,0,0.,0.,4.12,4.12,1.,1.,0.,0.,-41.2,0.,0.,0.,0.,       121P     86
4.12,0.,0.,0.;                                                       121P     87
126,1,1,0,0,1,0,0.,0.,5.94,5.94,1.,1.,59.4,0.,-41.2,0.,0.,-41.2,     123P     88
0.,5.94,0.,0.,0.;                                                    123P     89
126,1,1,0,0,1,0,0.,0.,4.12,4.12,1.,1.,59.4,0.,0.,59.4,0.,-41.2,      125P     90
0.,4.12,0.,0.,0.;                                                    125P     91
126,1,1,0,0,1,0,0.,0.,5.94,5.94,1.,1.,0.,0.,0.,59.4,0.,0.,0.,        127P     92
5.94,0.,0.,0.;                                                       127P     93
126,1,1,0,0,1,0,0.,0.,0.2,0.2,1.,1.,0.,0.,-41.2,0.,2.,-41.2,0.,      129P     94
0.2,0.,0.,0.;                                                        129P     95
126,1,1,0,0,1,0,0.,0.,5.94,5.94,1.,1.,59.4,2.,-41.2,0.,2.,-41.2,     131P     96
0.,5.94,0.,0.,0.;                                                    131P     97
126,1,1,0,0,1,0,0.,0.,0.2,0.2,1.,1.,59.4,0.,-41.2,59.4,2.,-41.2,     133P     98
0.,0.2,0.,0.,0.;                                                     133P     99
126,1,1,0,0,1,0,0.,0.,4.12,4.12,1.,1.,59.4,2.,0.,59.4,2.,-41.2,      135P    100
0.,4.12,0.,0.,0.;                                                    135P    101
126,1,1,0,0,1,0,0.,0.,0.2,0.2,1.,1.,59.4,0.,0.,59.4,2.,0.,0.,        137P    102
0.2,0.,0.,0.;                                                        137P    103
126,1,1,0,0,1,0,0.,0.,5.94,5.94,1.,1.,0.,2.,0.,59.4,2.,0.,0.,        139P    104
5.94,0.,0.,0.;                                                       139P    105
126,1,1,0,0,1,0,0.,0.,0.2,0.2,1.,1.,0.,0.,0.,0.,2.,0.,0.,0.2,0.,     141P    106
0.,0.;                                                               141P    107
126,1,1,0,0,1,0,0.,0.,4.12,4.12,1.,1.,0.,2.,-41.2,0.,2.,0.,0.,       143P    108
4.12,0.,0.,0.;                                                       143P    109
128,1,1,1,1,0,0,1,0,0,-1.861,-1.861,1.861,1.861,-2.771,-2.771,       145P    110
2.771,2.771,1.,1.,1.,1.,1.99,-3.,-1.99,1.99,-3.,-39.21,57.41,        145P    111
-3.,-1.99,57.41,-3.,-39.21,-1.861,1.861,-2.771,2.771;                145P    112
128,1,1,1,1,0,0,1,0,0,-0.001,-0.001,3.421,3.421,-0.001,-0.001,       147P    113
0.301,0.301,1.,1.,1.,1.,3.5,0.01,-37.71,3.5,0.01,-3.49,3.5,          147P    114
-3.01,-37.71,3.5,-3.01,-3.49,-0.001,3.421,-0.001,0.301;              147P    115
128,1,1,1,1,0,0,1,0,0,-0.00100000000000089,-0.00100000000000089,     149P    116
5.241,5.241,-0.001,-0.001,0.301,0.301,1.,1.,1.,1.,55.91,0.01,        149P    117
-37.7,3.48999999999999,0.01,-37.7,55.91,-3.01,-37.7,                 149P    118
3.48999999999999,-3.01,-37.7,-0.00100000000000089,5.241,-0.001,      149P    119
0.301;                                                               149P    120
128,1,1,1,1,0,0,1,0,0,-0.00100000000000011,-0.00100000000000011,     151P    121
3.421,3.421,-0.001,-0.001,0.301,0.301,1.,1.,1.,1.,55.9,0.01,         151P    122
-3.49,55.9,0.01,-37.71,55.9,-3.01,-3.49,55.9,-3.01,-37.71,           151P    123
-0.00100000000000011,3.421,-0.001,0.301;                             151P    124
128,1,1,1,1,0,0,1,0,0,-0.001,-0.001,5.241,5.241,-0.001,-0.001,       153P    125
0.301,0.301,1.,1.,1.,1.,3.49,0.01,-3.5,55.91,0.01,-3.5,3.49,         153P    126
-3.01,-3.5,55.91,-3.01,-3.5,-0.001,5.241,-0.001,0.301;               153P    127
128,1,1,1,1,0,0,1,0,0,-0.001,-0.001,3.721,3.721,-0.001,-0.001,       155P    128
0.301,0.301,1.,1.,1.,1.,57.4,0.01,-39.21,57.4,0.01,-1.99,57.4,       155P    129
-3.01,-39.21,57.4,-3.01,-1.99,-0.001,3.721,-0.001,0.301;             155P    130
128,1,1,1,1,0,0,1,0,0,-0.001,-0.001,5.541,5.541,-0.001,-0.001,       157P    131
0.301,0.301,1.,1.,1.,1.,1.99,0.01,-39.2,57.41,0.01,-39.2,1.99,       157P    132
-3.01,-39.2,57.41,-3.01,-39.2,-0.001,5.541,-0.001,0.301;             157P    133
128,1,1,1,1,0,0,1,0,0,-0.001,-0.001,3.721,3.721,-0.001,-0.001,       159P    134
0.301,0.301,1.,1.,1.,1.,2.,0.01,-1.99,2.,0.01,-39.21,2.,-3.01,       159P    135
-1.99,2.,-3.01,-39.21,-0.001,3.721,-0.001,0.301;                     159P    136
128,1,1,1,1,0,0,1,0,0,-0.001,-0.001,5.541,5.541,-0.001,-0.001,       161P    137
0.301,0.301,1.,1.,1.,1.,57.41,0.01,-2.,1.99,0.01,-2.,57.41,          161P    138
-3.01,-2.,1.99,-3.01,-2.,-0.001,5.541,-0.001,0.301;                  161P    139
128,1,1,1,1,0,0,1,0,0,-2.971,-2.971,2.971,2.971,-2.061,-2.061,       163P    140
2.061,2.061,1.,1.,1.,1.,59.41,0.,0.0099999999999989,                 163P    141
-0.0099999999999989,0.,0.0099999999999989,59.41,0.,-41.21,           163P    142
-0.0099999999999989,0.,-41.21,-2.971,2.971,-2.061,2.061;             163P    143
128,1,1,1,1,0,0,1,0,0,-0.001,-0.001,5.941,5.941,-0.001,-0.001,       165P    144
0.201,0.201,1.,1.,1.,1.,59.41,-0.01,-41.2,-0.0100000000000033,       165P    145
-0.01,-41.2,59.41,2.01,-41.2,-0.0100000000000033,2.01,-41.2,         165P    146
-0.001,5.941,-0.001,0.201;                                           165P    147
128,1,1,1,1,0,0,1,0,0,-0.001,-0.001,4.121,4.121,-0.001,-0.001,       167P    148
0.201,0.201,1.,1.,1.,1.,59.4,-0.01,0.01,59.4,-0.01,-41.21,59.4,      167P    149
2.01,0.01,59.4,2.01,-41.21,-0.001,4.121,-0.001,0.201;                167P    150
128,1,1,1,1,0,0,1,0,0,-0.001,-0.001,5.941,5.941,-0.001,-0.001,       169P    151
0.201,0.201,1.,1.,1.,1.,-0.01,-0.01,0.,59.41,-0.01,0.,-0.01,         169P    152
2.01,0.,59.41,2.01,0.,-0.001,5.941,-0.001,0.201;                     169P    153
128,1,1,1,1,0,0,1,0,0,-0.001,-0.001,4.121,4.121,-0.001,-0.001,       171P    154
0.201,0.201,1.,1.,1.,1.,0.,-0.01,-41.21,0.,-0.01,                    171P    155
0.0100000000000033,0.,2.01,-41.21,0.,2.01,0.0100000000000033,        171P    156
-0.001,4.121,-0.001,0.201;                                           171P    157
128,1,1,1,1,0,0,1,0,0,-2.061,-2.061,2.061,2.061,-2.971,-2.971,       173P    158
2.971,2.971,1.,1.,1.,1.,-0.0099999999999989,2.,-41.21,               173P    159
-0.0099999999999989,2.,0.0099999999999989,59.41,2.,-41.21,59.41,     173P    160
2.,0.00999999999999446,-2.061,2.061,-2.971,2.971;                    173P    161
128,1,1,1,1,0,0,1,0,0,-2.621,-2.621,2.621,2.621,-1.711,-1.711,       175P    162
1.711,1.711,1.,1.,1.,1.,55.91,0.,-3.49,3.49,0.,-3.49,55.91,0.,       175P    163
-37.71,3.49,0.,-37.71,-2.621,2.621,-1.711,1.711;                     175P    164
502,24,57.4,-3.,-2.,2.,-3.,-2.,2.,-3.,-39.2,57.4,-3.,-39.2,3.5,      177P    165
-3.,-3.5,55.9,-3.,-3.5,55.9,-3.,-37.7,3.5,-3.,-37.7,3.5,0.,-3.5,     177P    166
3.5,0.,-37.7,55.9,0.,-37.7,55.9,0.,-3.5,57.4,0.,-2.,57.4,0.,         177P    167
-39.2,2.,0.,-39.2,2.,0.,-2.,0.,0.,-41.2,0.,0.,0.,59.4,0.,-41.2,      177P    168
59.4,0.,0.,0.,2.,-41.2,59.4,2.,-41.2,59.4,2.,0.,0.,2.,0.;            177P    169
504,36,73,177,1,177,2,75,177,2,177,3,77,177,3,177,4,79,177,4,        179P    170
177,1,81,177,5,177,6,83,177,6,177,7,85,177,7,177,8,87,177,8,177,     179P    171
5,89,177,9,177,10,91,177,9,177,5,93,177,10,177,8,95,177,10,177,      179P    172
11,97,177,11,177,7,99,177,11,177,12,101,177,12,177,6,103,177,12,     179P    173
177,9,105,177,13,177,14,107,177,13,177,1,109,177,14,177,4,111,       179P    174
177,14,177,15,113,177,15,177,3,115,177,15,177,16,117,177,16,177,     179P    175
2,119,177,16,177,13,121,177,17,177,18,123,177,19,177,17,125,177,     179P    176
20,177,19,127,177,18,177,20,129,177,17,177,21,131,177,22,177,21,     179P    177
133,177,19,177,22,135,177,23,177,22,137,177,20,177,23,139,177,       179P    178
24,177,23,141,177,18,177,24,143,177,21,177,24;                       179P    179
406,1,3HLid;                                                         181P    180
314,62.7450980392157,62.7450980392157,62.7450980392157,13HSteel      183P    181
- Satin;                                                             183P    182
S      1G      2D    184P    182                                        T      1
