0
SECTION
2
HEADER
9
$INSUNITS
70
4
9
$ACADVER
1
AC1014
9
$HANDSEED
5
FFFF
0
ENDSEC
0
SECTION
2
TABLES
0
TABLE
2
VPORT
5
8
100
AcDbSymbolTable
0
ENDTAB
0
TABLE
2
LTYPE
5
5
100
AcDbSymbolTable
0
LTYPE
5
14
100
AcDbSymbolTableRecord
100
AcDbLinetypeTableRecord
2
BYBLOCK
70
0
0
LTYPE
5
15
100
AcDbSymbolTableRecord
100
AcDbLinetypeTableRecord
2
BYLAYER
70
0
0
ENDTAB
0
TABLE
2
LAYER
5
2
100
AcDbSymbolTable
70
2
0
LAYER
5
50
100
AcDbSymbolTableRecord
100
AcDbLayerTableRecord
2
0
70
0
6
CONTINUOUS
0
ENDTAB
0
TABLE
2
STYLE
5
3
100
AcDbSymbolTable
70
1
0
STYLE
5
11
100
AcDbSymbolTableRecord
100
AcDbTextStyleTableRecord
2
STANDARD
70
0
0
ENDTAB
0
TABLE
2
VIEW
5
6
100
AcDbSymbolTable
70
0
0
ENDTAB
0
TABLE
2
UCS
5
7
100
AcDbSymbolTable
70
0
0
ENDTAB
0
TABLE
2
APPID
5
9
100
AcDbSymbolTable
70
2
0
APPID
5
12
100
AcDbSymbolTableRecord
100
AcDbRegAppTableRecord
2
ACAD
70
0
0
ENDTAB
0
TABLE
2
DIMSTYLE
5
A
100
AcDbSymbolTable
70
1
0
ENDTAB
0
TABLE
2
BLOCK_RECORD
5
1
100
AcDbSymbolTable
70
1
0
BLOCK_RECORD
5
1F
100
AcDbSymbolTableRecord
100
AcDbBlockTableRecord
2
*MODEL_SPACE
0
BLOCK_RECORD
5
1B
100
AcDbSymbolTableRecord
100
AcDbBlockTableRecord
2
*PAPER_SPACE
0
ENDTAB
0
ENDSEC
0
SECTION
2
BLOCKS
0
BLOCK
5
20
100
AcDbEntity
100
AcDbBlockBegin
2
*MODEL_SPACE
0
ENDBLK
5
21
100
AcDbEntity
100
AcDbBlockEnd
0
BLOCK
5
1C
100
AcDbEntity
100
AcDbBlockBegin
2
*PAPER_SPACE
0
ENDBLK
5
1D
100
AcDbEntity
100
AcDbBlockEnd
0
ENDSEC
0
SECTION
2
ENTITIES
0
LWPOLYLINE
5
100
100
AcDbEntity
8
0
100
AcDbPolyline
90
3
70
1
43
0.0
10
-102.85125000000001
20
50
10
-56.451200666427617
20
-30.367187500000004
10
-149.25126714304091
20
-30.367187500000004
0
SPLINE
5
101
100
AcDbEntity
8
0
100
AcDbSpline
70
4
71
3
72
8
73
4
74
0
42
0.000000001
43
0.0000000001
44
0.0000000001
40
0
40
0
40
0
40
0
40
1
40
1
40
1
40
1
41
1
41
1
41
1
41
1
10
-260.79777688980096
20
3.4173945856094257
30
0
10
-243.88585132598874
20
0.36308610439299116
30
0
10
-229.74210708618159
20
-4.5388675928115951
30
0
10
-219.4988660430908
20
-12.043467659950267
30
0
0
LINE
5
102
100
AcDbEntity
8
0
100
AcDbLine
10
-219.4988660430908
20
-12.043467659950265
30
0
11
-224.21570749282833
21
-12.043467659950267
31
0
0
SPLINE
5
103
100
AcDbEntity
8
0
100
AcDbSpline
70
4
71
3
72
8
73
4
74
0
42
0.000000001
43
0.0000000001
44
0.0000000001
40
0
40
0
40
0
40
0
40
1
40
1
40
1
40
1
41
1
41
1
41
1
41
1
10
-224.21570749282833
20
-12.043467659950267
30
0
10
-234.8465048217773
20
-6.8356732559204225
30
0
10
-247.74364637374873
20
-3.4645363664627205
30
0
10
-262.34368543624873
20
-1.4751846837997551
30
0
0
SPLINE
5
104
100
AcDbEntity
8
0
100
AcDbSpline
70
4
71
3
72
8
73
4
74
0
42
0.000000001
43
0.0000000001
44
0.0000000001
40
0
40
0
40
0
40
0
40
1
40
1
40
1
40
1
41
1
41
1
41
1
41
1
10
-262.34368543624873
20
-1.4751846837997551
30
0
10
-262.92812650680537
20
-1.3955292987823587
30
0
10
-263.52043773651121
20
-1.5157236337661839
30
0
10
-264.03801515579221
20
-1.7987059974670494
30
0
0
SPLINE
5
105
100
AcDbEntity
8
0
100
AcDbSpline
70
4
71
3
72
8
73
4
74
0
42
0.000000001
43
0.0000000001
44
0.0000000001
40
0
40
0
40
0
40
0
40
1
40
1
40
1
40
1
41
1
41
1
41
1
41
1
10
-264.03801515579221
20
-1.7987059974670494
30
0
10
-267.93939039230344
20
-3.9316499328613386
30
0
10
-272.06723436355588
20
-4.6022703361511308
30
0
10
-276.51993495941161
20
-4.8113146257400619
30
0
0
SPLINE
5
106
100
AcDbEntity
8
0
100
AcDbSpline
70
4
71
3
72
8
73
4
74
0
42
0.000000001
43
0.0000000001
44
0.0000000001
40
0
40
0
40
0
40
0
40
1
40
1
40
1
40
1
41
1
41
1
41
1
41
1
10
-276.51993495941161
20
-4.8113146257400619
30
0
10
-279.93758972167961
20
-4.9717808485031245
30
0
10
-283.90969828605648
20
-8.2703204250335816
30
0
10
-284.01452836990353
20
-9.2137421274185272
30
0
0
SPLINE
5
107
100
AcDbEntity
8
0
100
AcDbSpline
70
4
71
3
72
8
73
4
74
0
42
0.000000001
43
0.0000000001
44
0.0000000001
40
0
40
0
40
0
40
0
40
1
40
1
40
1
40
1
41
1
41
1
41
1
41
1
10
-284.01452836990353
20
-9.2137421274185272
30
0
10
-286.32481249809263
20
-30.008304972648645
30
0
10
-292.11500412940978
20
-40.201539983749406
30
0
10
-306.23605353355407
20
-45.323607425689723
30
0
0
SPLINE
5
108
100
AcDbEntity
8
0
100
AcDbSpline
70
4
71
3
72
8
73
4
74
0
42
0.000000001
43
0.0000000001
44
0.0000000001
40
0
40
0
40
0
40
0
40
1
40
1
40
1
40
1
41
1
41
1
41
1
41
1
10
-306.23605353355407
20
-45.323607425689723
30
0
10
-317.13295380592342
20
-48.256920385360743
30
0
10
-327.32083122253414
20
-52.639345474243186
30
0
10
-337.0006146526336
20
-58.059127302169827
30
0
0
SPLINE
5
109
100
AcDbEntity
8
0
100
AcDbSpline
70
4
71
3
72
8
73
4
74
0
42
0.000000001
43
0.0000000001
44
0.0000000001
40
0
40
0
40
0
40
0
40
1
40
1
40
1
40
1
41
1
41
1
41
1
41
1
10
-337.0006146526336
20
-58.059127302169827
30
0
10
-336.85309822082513
20
-67.200447959899918
30
0
10
-337.34968128204343
20
-73.181550903320343
30
0
10
-338.22665900230402
20
-77.297251720428491
30
0
0
SPLINE
5
110
100
AcDbEntity
8
0
100
AcDbSpline
70
4
71
3
72
8
73
4
74
0
42
0.000000001
43
0.0000000001
44
0.0000000001
40
0
40
0
40
0
40
0
40
1
40
1
40
1
40
1
41
1
41
1
41
1
41
1
10
-338.22665900230402
20
-77.297251720428491
30
0
10
-338.28112878799436
20
-77.552726678848302
30
0
10
-338.6376949596405
20
-77.574342365264926
30
0
10
-338.72279514312743
20
-77.327347993850722
30
0
0
SPLINE
5
111
100
AcDbEntity
8
0
100
AcDbSpline
70
4
71
3
72
8
73
4
74
0
42
0.000000001
43
0.0000000001
44
0.0000000001
40
0
40
0
40
0
40
0
40
1
40
1
40
1
40
1
41
1
41
1
41
1
41
1
10
-338.72279514312743
20
-77.327347993850722
30
0
10
-340.04626813888547
20
-73.488476209640524
30
0
10
-340.05903262138361
20
-67.997612237930326
30
0
10
-339.41145586967468
20
-61.675389127731336
30
0
0
SPLINE
5
112
100
AcDbEntity
8
0
100
AcDbSpline
70
4
71
3
72
8
73
4
74
0
42
0.000000001
43
0.0000000001
44
0.0000000001
40
0
40
0
40
0
40
0
40
1
40
1
40
1
40
1
41
1
41
1
41
1
41
1
10
-339.41145586967468
20
-61.675389127731336
30
0
10
-340.1960191726684
20
-70.390500335693389
30
0
10
-341.27820965766898
20
-77.697932205200217
30
0
10
-342.71812176704401
20
-83.313803081512475
30
0
0
SPLINE
5
113
100
AcDbEntity
8
0
100
AcDbSpline
70
4
71
3
72
8
73
4
74
0
42
0.000000001
43
0.0000000001
44
0.0000000001
40
0
40
0
40
0
40
0
40
1
40
1
40
1
40
1
41
1
41
1
41
1
41
1
10
-342.71812176704401
20
-83.313803081512475
30
0
10
-342.7817915725708
20
-83.561963806152377
30
0
10
-343.11245816230775
20
-83.614907522201563
30
0
10
-343.24711200714103
20
-83.396941175460853
30
0
0
SPLINE
5
114
100
AcDbEntity
8
0
100
AcDbSpline
70
4
71
3
72
8
73
4
74
0
42
0.000000001
43
0.0000000001
44
0.0000000001
40
0
40
0
40
0
40
0
40
1
40
1
40
1
40
1
41
1
41
1
41
1
41
1
10
-343.24711200714103
20
-83.396941175460853
30
0
10
-344.93535924911498
20
-80.664012060165433
30
0
10
-344.38019691467281
20
-73.709124078750648
30
0
10
-341.82238429069514
20
-62.985465412139909
30
0
0
SPLINE
5
115
100
AcDbEntity
8
0
100
AcDbSpline
70
4
71
3
72
8
73
4
74
0
42
0.000000001
43
0.0000000001
44
0.0000000001
40
0
40
0
40
0
40
0
40
1
40
1
40
1
40
1
41
1
41
1
41
1
41
1
10
-341.82238429069514
20
-62.985465412139909
30
0
10
-343.66538589477534
20
-68.044222764968907
30
0
10
-345.27299125671385
20
-72.819730691909811
30
0
10
-345.96272023200987
20
-77.136338577270536
30
0
0
SPLINE
5
116
100
AcDbEntity
8
0
100
AcDbSpline
70
4
71
3
72
8
73
4
74
0
42
0.000000001
43
0.0000000001
44
0.0000000001
40
0
40
0
40
0
40
0
40
1
40
1
40
1
40
1
41
1
41
1
41
1
41
1
10
-345.96272023200987
20
-77.136338577270536
30
0
10
-346.68682937622066
20
-81.668067779541047
30
0
10
-347.34744312286375
20
-85.388712768554726
30
0
10
-348.54009924888607
20
-86.662533998489408
30
0
0
SPLINE
5
117
100
AcDbEntity
8
0
100
AcDbSpline
70
4
71
3
72
8
73
4
74
0
42
0.000000001
43
0.0000000001
44
0.0000000001
40
0
40
0
40
0
40
0
40
1
40
1
40
1
40
1
41
1
41
1
41
1
41
1
10
-348.54009924888607
20
-86.662533998489408
30
0
10
-348.79852824211122
20
-86.938643598556538
30
0
10
-349.24527422904964
20
-86.930064907074012
30
0
10
-349.49254111289974
20
-86.643959550857574
30
0
0
SPLINE
5
118
100
AcDbEntity
8
0
100
AcDbSpline
70
4
71
3
72
8
73
4
74
0
42
0.000000001
43
0.0000000001
44
0.0000000001
40
0
40
0
40
0
40
0
40
1
40
1
40
1
40
1
41
1
41
1
41
1
41
1
10
-349.49254111289974
20
-86.643959550857574
30
0
10
-350.65849102020258
20
-85.294859485626247
30
0
10
-350.88324837684632
20
-82.27341600418093
30
0
10
-349.78865312576289
20
-78.026898317337071
30
0
0
SPLINE
5
119
100
AcDbEntity
8
0
100
AcDbSpline
70
4
71
3
72
8
73
4
74
0
42
0.000000001
43
0.0000000001
44
0.0000000001
40
0
40
0
40
0
40
0
40
1
40
1
40
1
40
1
41
1
41
1
41
1
41
1
10
-349.78865312576289
20
-78.026898317337071
30
0
10
-348.52608120918268
20
-73.128694391250647
30
0
10
-346.42662360191343
20
-68.139057092666647
30
0
10
-344.39047608375546
20
-62.880362815856955
30
0
0
SPLINE
5
120
100
AcDbEntity
8
0
100
AcDbSpline
70
4
71
3
72
8
73
4
74
0
42
0.000000001
43
0.0000000001
44
0.0000000001
40
0
40
0
40
0
40
0
40
1
40
1
40
1
40
1
41
1
41
1
41
1
41
1
10
-344.39047608375546
20
-62.880362815856955
30
0
10
-346.9247218322754
20
-68.264696226120023
30
0
10
-349.29788002967831
20
-72.999479894638085
30
0
10
-351.40198124885558
20
-76.649936580657979
30
0
0
SPLINE
5
121
100
AcDbEntity
8
0
100
AcDbSpline
70
4
71
3
72
8
73
4
74
0
42
0.000000001
43
0.0000000001
44
0.0000000001
40
0
40
0
40
0
40
0
40
1
40
1
40
1
40
1
41
1
41
1
41
1
41
1
10
-351.40198124885558
20
-76.649936580657979
30
0
10
-351.49770941734312
20
-76.816027460098297
30
0
10
-351.7419350624084
20
-76.80272885322573
30
0
10
-351.81989542007443
20
-76.627525157928488
30
0
0
SPLINE
5
122
100
AcDbEntity
8
0
100
AcDbSpline
70
4
71
3
72
8
73
4
74
0
42
0.000000001
43
0.0000000001
44
0.0000000001
40
0
40
0
40
0
40
0
40
1
40
1
40
1
40
1
41
1
41
1
41
1
41
1
10
-351.81989542007443
20
-76.627525157928488
30
0
10
-352.27102340698241
20
-75.613473682403594
30
0
10
-352.51034382820131
20
-74.340720701217691
30
0
10
-351.98992137908931
20
-72.943222427368184
30
0
0
SPLINE
5
123
100
AcDbEntity
8
0
100
AcDbSpline
70
4
71
3
72
8
73
4
74
0
42
0.000000001
43
0.0000000001
44
0.0000000001
40
0
40
0
40
0
40
0
40
1
40
1
40
1
40
1
41
1
41
1
41
1
41
1
10
-351.98992137908931
20
-72.943222427368184
30
0
10
-350.82379706382756
20
-69.811760225296041
30
0
10
-348.35286140441895
20
-65.563640165328991
30
0
10
-346.69658532142637
20
-62.880362815856955
30
0
0
SPLINE
5
124
100
AcDbEntity
8
0
100
AcDbSpline
70
4
71
3
72
8
73
4
74
0
42
0.000000001
43
0.0000000001
44
0.0000000001
40
0
40
0
40
0
40
0
40
1
40
1
40
1
40
1
41
1
41
1
41
1
41
1
10
-346.69658532142637
20
-62.880362815856955
30
0
10
-348.40036577224731
20
-64.816498270034813
30
0
10
-350.01797779083245
20
-66.736915206909202
30
0
10
-351.53612277030948
20
-68.63920461654665
30
0
0
SPLINE
5
125
100
AcDbEntity
8
0
100
AcDbSpline
70
4
71
3
72
8
73
4
74
0
42
0.000000001
43
0.0000000001
44
0.0000000001
40
0
40
0
40
0
40
0
40
1
40
1
40
1
40
1
41
1
41
1
41
1
41
1
10
-351.53612277030948
20
-68.63920461654665
30
0
10
-351.64310025215144
20
-68.773237133026143
30
0
10
-351.86027086257934
20
-68.696977252960224
30
0
10
-351.85812346458431
20
-68.525436124801672
30
0
0
SPLINE
5
126
100
AcDbEntity
8
0
100
AcDbSpline
70
4
71
3
72
8
73
4
74
0
42
0.000000001
43
0.0000000001
44
0.0000000001
40
0
40
0
40
0
40
0
40
1
40
1
40
1
40
1
41
1
41
1
41
1
41
1
10
-351.85812346458431
20
-68.525436124801672
30
0
10
-351.82383049964903
20
-65.710622472763092
30
0
10
-348.26963610649108
20
-62.158837089538594
30
0
10
-345.75316906929015
20
-57.901789522171043
30
0
0
SPLINE
5
127
100
AcDbEntity
8
0
100
AcDbSpline
70
4
71
3
72
8
73
4
74
0
42
0.000000001
43
0.0000000001
44
0.0000000001
40
0
40
0
40
0
40
0
40
1
40
1
40
1
40
1
41
1
41
1
41
1
41
1
10
-345.75316906929015
20
-57.901789522171043
30
0
10
-343.35304304122923
20
-53.841190719604519
30
0
10
-343.0694447994232
20
-48.758681182861352
30
0
10
-343.02782670021054
20
-43.593752985000634
30
0
0
SPLINE
5
128
100
AcDbEntity
8
0
100
AcDbSpline
70
4
71
3
72
8
73
4
74
0
42
0.000000001
43
0.0000000001
44
0.0000000001
40
0
40
0
40
0
40
0
40
1
40
1
40
1
40
1
41
1
41
1
41
1
41
1
10
-343.02782670021054
20
-43.593752985000634
30
0
10
-342.83459358215333
20
-36.71253601551058
30
0
10
-341.03347168922426
20
-30.703751258850112
30
0
10
-337.62964965820311
20
-25.564711742401141
30
0
0
SPLINE
5
129
100
AcDbEntity
8
0
100
AcDbSpline
70
4
71
3
72
8
73
4
74
0
42
0.000000001
43
0.0000000001
44
0.0000000001
40
0
40
0
40
0
40
0
40
1
40
1
40
1
40
1
41
1
41
1
41
1
41
1
10
-337.62964965820311
20
-25.564711742401141
30
0
10
-339.02250432014461
20
-27.157143611907976
30
0
10
-340.42893010139466
20
-28.194146084785476
30
0
10
-341.85231705665586
20
-28.541779298782366
30
0
0
SPLINE
5
130
100
AcDbEntity
8
0
100
AcDbSpline
70
4
71
3
72
8
73
4
74
0
42
0.000000001
43
0.0000000001
44
0.0000000001
40
0
40
0
40
0
40
0
40
1
40
1
40
1
40
1
41
1
41
1
41
1
41
1
10
-341.85231705665586
20
-28.541779298782366
30
0
10
-342.21120503425595
20
-28.629468350410477
30
0
10
-342.55418918609621
20
-28.329432158470169
30
0
10
-342.49909807205199
20
-27.964118337631241
30
0
0
SPLINE
5
131
100
AcDbEntity
8
0
100
AcDbSpline
70
4
71
3
72
8
73
4
74
0
42
0.000000001
43
0.0000000001
44
0.0000000001
40
0
40
0
40
0
40
0
40
1
40
1
40
1
40
1
41
1
41
1
41
1
41
1
10
-342.49909807205199
20
-27.964118337631241
30
0
10
-341.95607889175415
20
-24.364741382598893
30
0
10
-337.63670228004457
20
-20.067863397598281
30
0
10
-333.28008956909173
20
-15.76437971115114
30
0
0
SPLINE
5
132
100
AcDbEntity
8
0
100
AcDbSpline
70
4
71
3
72
8
73
4
74
0
42
0.000000001
43
0.0000000001
44
0.0000000001
40
0
40
0
40
0
40
0
40
1
40
1
40
1
40
1
41
1
41
1
41
1
41
1
10
-333.28008956909173
20
-15.76437971115114
30
0
10
-338.73738000869753
20
-21.225152859687817
30
0
10
-344.21448755264282
20
-25.688835706710833
30
0
10
-349.71785439491271
20
-28.885662741661086
30
0
0
SPLINE
5
133
100
AcDbEntity
8
0
100
AcDbSpline
70
4
71
3
72
8
73
4
74
0
42
0.000000001
43
0.0000000001
44
0.0000000001
40
0
40
0
40
0
40
0
40
1
40
1
40
1
40
1
41
1
41
1
41
1
41
1
10
-349.71785439491271
20
-28.885662741661086
30
0
10
-349.94609991073605
20
-29.018267292976397
30
0
10
-350.20818057060239
20
-28.777971277236958
30
0
10
-350.09647227287292
20
-28.538923368453997
30
0
0
SPLINE
5
134
100
AcDbEntity
8
0
100
AcDbSpline
70
4
71
3
72
8
73
4
74
0
42
0.000000001
43
0.0000000001
44
0.0000000001
40
0
40
0
40
0
40
0
40
1
40
1
40
1
40
1
41
1
41
1
41
1
41
1
10
-350.09647227287292
20
-28.538923368453997
30
0
10
-347.75671319961543
20
-23.532226791381852
30
0
10
-342.05707200050358
20
-19.13774575233461
30
0
10
-336.21527741432192
20
-14.768450312614458
30
0
0
SPLINE
5
135
100
AcDbEntity
8
0
100
AcDbSpline
70
4
71
3
72
8
73
4
74
0
42
0.000000001
43
0.0000000001
44
0.0000000001
40
0
40
0
40
0
40
0
40
1
40
1
40
1
40
1
41
1
41
1
41
1
41
1
10
-336.21527741432192
20
-14.768450312614458
30
0
10
-339.04268114089967
20
-17.342880744934099
30
0
10
-342.31077017784116
20
-19.242047162055982
30
0
10
-345.56377292633056
20
-21.430981502532973
30
0
0
SPLINE
5
136
100
AcDbEntity
8
0
100
AcDbSpline
70
4
71
3
72
8
73
4
74
0
42
0.000000001
43
0.0000000001
44
0.0000000001
40
0
40
0
40
0
40
0
40
1
40
1
40
1
40
1
41
1
41
1
41
1
41
1
10
-345.56377292633056
20
-21.430981502532973
30
0
10
-349.1875342941284
20
-23.869324674606336
30
0
10
-351.6974828338623
20
-26.964264760017407
30
0
10
-356.29458231925969
20
-27.671314625740067
30
0
0
SPLINE
5
137
100
AcDbEntity
8
0
100
AcDbSpline
70
4
71
3
72
8
73
4
74
0
42
0.000000001
43
0.0000000001
44
0.0000000001
40
0
40
0
40
0
40
0
40
1
40
1
40
1
40
1
41
1
41
1
41
1
41
1
10
-356.29458231925969
20
-27.671314625740067
30
0
10
-356.6004284763336
20
-27.718372073173541
30
0
10
-356.81572420120233
20
-27.374047160148642
30
0
10
-356.63792618751523
20
-27.120801353454603
30
0
0
SPLINE
5
138
100
AcDbEntity
8
0
100
AcDbSpline
70
4
71
3
72
8
73
4
74
0
42
0.000000001
43
0.0000000001
44
0.0000000001
40
0
40
0
40
0
40
0
40
1
40
1
40
1
40
1
41
1
41
1
41
1
41
1
10
-356.63792618751523
20
-27.120801353454603
30
0
10
-353.93616159439085
20
-22.217152628898631
30
0
10
-346.5089768600464
20
-17.532996320724507
30
0
10
-339.41255681991578
20
-13.562855296134959
30
0
0
SPLINE
5
139
100
AcDbEntity
8
0
100
AcDbSpline
70
4
71
3
72
8
73
4
74
0
42
0.000000001
43
0.0000000001
44
0.0000000001
40
0
40
0
40
0
40
0
40
1
40
1
40
1
40
1
41
1
41
1
41
1
41
1
10
-339.41255681991578
20
-13.562855296134959
30
0
10
-348.59405671119691
20
-18.548388557434095
30
0
10
-357.99880969047541
20
-24.041841397285477
30
0
10
-362.7797624158859
20
-25.3473667240143
30
0
0
SPLINE
5
140
100
AcDbEntity
8
0
100
AcDbSpline
70
4
71
3
72
8
73
4
74
0
42
0.000000001
43
0.0000000001
44
0.0000000001
40
0
40
0
40
0
40
0
40
1
40
1
40
1
40
1
41
1
41
1
41
1
41
1
10
-362.7797624158859
20
-25.3473667240143
30
0
10
-363.16766751766204
20
-25.453270506858843
30
0
10
-363.53798466682434
20
-25.108318815231343
30
0
10
-363.43877378940584
20
-24.71862603187563
30
0
0
SPLINE
5
141
100
AcDbEntity
8
0
100
AcDbSpline
70
4
71
3
72
8
73
4
74
0
42
0.000000001
43
0.0000000001
44
0.0000000001
40
0
40
0
40
0
40
0
40
1
40
1
40
1
40
1
41
1
41
1
41
1
41
1
10
-363.43877378940584
20
-24.71862603187563
30
0
10
-362.64590430736541
20
-21.604217658042923
30
0
10
-354.27245284080504
20
-17.335648264884966
30
0
10
-344.33817549705503
20
-12.829638786315929
30
0
0
SPLINE
5
142
100
AcDbEntity
8
0
100
AcDbSpline
70
4
71
3
72
8
73
4
74
0
42
0.000000001
43
0.0000000001
44
0.0000000001
40
0
40
0
40
0
40
0
40
1
40
1
40
1
40
1
41
1
41
1
41
1
41
1
10
-344.33817549705503
20
-12.829638786315929
30
0
10
-353.20517423629758
20
-16.524209785461437
30
0
10
-363.22892831325532
20
-20.821349382400527
30
0
10
-366.6641819286346
20
-21.686816177368176
30
0
0
SPLINE
5
143
100
AcDbEntity
8
0
100
AcDbSpline
70
4
71
3
72
8
73
4
74
0
42
0.000000001
43
0.0000000001
44
0.0000000001
40
0
40
0
40
0
40
0
40
1
40
1
40
1
40
1
41
1
41
1
41
1
41
1
10
-366.6641819286346
20
-21.686816177368176
30
0
10
-368.07908829689029
20
-22.11481875896455
30
0
10
-369.23254078388209
20
-22.165179057121289
30
0
10
-370.26793543338778
20
-22.044984722137464
30
0
0
SPLINE
5
144
100
AcDbEntity
8
0
100
AcDbSpline
70
4
71
3
72
8
73
4
74
0
42
0.000000001
43
0.0000000001
44
0.0000000001
40
0
40
0
40
0
40
0
40
1
40
1
40
1
40
1
41
1
41
1
41
1
41
1
10
-370.26793543338778
20
-22.044984722137464
30
0
10
-370.7273695993423
20
-21.991675839424147
30
0
10
-370.94418049335479
20
-21.437140283584604
30
0
10
-370.63530399799345
20
-21.092809920310991
30
0
0
SPLINE
5
145
100
AcDbEntity
8
0
100
AcDbSpline
70
4
71
3
72
8
73
4
74
0
42
0.000000001
43
0.0000000001
44
0.0000000001
40
0
40
0
40
0
40
0
40
1
40
1
40
1
40
1
41
1
41
1
41
1
41
1
10
-370.63530399799345
20
-21.092809920310991
30
0
10
-367.62635793685911
20
-17.738552451133742
30
0
10
-355.22266010284426
20
-14.237579736709609
30
0
10
-345.96257852554317
20
-10.786166133880624
30
0
0
SPLINE
5
146
100
AcDbEntity
8
0
100
AcDbSpline
70
4
71
3
72
8
73
4
74
0
42
0.000000001
43
0.0000000001
44
0.0000000001
40
0
40
0
40
0
40
0
40
1
40
1
40
1
40
1
41
1
41
1
41
1
41
1
10
-345.96257852554317
20
-10.786166133880624
30
0
10
-355.49591377258298
20
-13.524545497894298
30
0
10
-364.61222868919373
20
-16.375527000427262
30
0
10
-370.46385552406309
20
-17.894195203781145
30
0
0
SPLINE
5
147
100
AcDbEntity
8
0
100
AcDbSpline
70
4
71
3
72
8
73
4
74
0
42
0.000000001
43
0.0000000001
44
0.0000000001
40
0
40
0
40
0
40
0
40
1
40
1
40
1
40
1
41
1
41
1
41
1
41
1
10
-370.46385552406309
20
-17.894195203781145
30
0
10
-371.84063740253453
20
-18.130207324028031
30
0
10
-373.67434633255004
20
-18.206647062301649
30
0
10
-375.38875476837154
20
-17.919914927482623
30
0
0
SPLINE
5
148
100
AcDbEntity
8
0
100
AcDbSpline
70
4
71
3
72
8
73
4
74
0
42
0.000000001
43
0.0000000001
44
0.0000000001
40
0
40
0
40
0
40
0
40
1
40
1
40
1
40
1
41
1
41
1
41
1
41
1
10
-375.38875476837154
20
-17.919914927482623
30
0
10
-375.81202108383184
20
-17.849099845886247
30
0
10
-375.951591053009
20
-17.315820260047925
30
0
10
-375.62672897815702
20
-17.035426764488236
30
0
0
SPLINE
5
149
100
AcDbEntity
8
0
100
AcDbSpline
70
4
71
3
72
8
73
4
74
0
42
0.000000001
43
0.0000000001
44
0.0000000001
40
0
40
0
40
0
40
0
40
1
40
1
40
1
40
1
41
1
41
1
41
1
41
1
10
-375.62672897815702
20
-17.035426764488236
30
0
10
-372.12378872394561
20
-14.01147616863252
30
0
10
-360.93114160537715
20
-11.379006037712109
30
0
10
-348.79302349090574
20
-8.7946670532226712
30
0
0
SPLINE
5
150
100
AcDbEntity
8
0
100
AcDbSpline
70
4
71
3
72
8
73
4
74
0
42
0.000000001
43
0.0000000001
44
0.0000000001
40
0
40
0
40
0
40
0
40
1
40
1
40
1
40
1
41
1
41
1
41
1
41
1
10
-348.79302349090574
20
-8.7946670532226712
30
0
10
-363.38324120521543
20
-11.63850327968599
30
0
10
-377.38856002807614
20
-14.434568076133738
30
0
10
-386.01107151031493
20
-16.790399932861348
30
0
0
SPLINE
5
151
100
AcDbEntity
8
0
100
AcDbSpline
70
4
71
3
72
8
73
4
74
0
42
0.000000001
43
0.0000000001
44
0.0000000001
40
0
40
0
40
0
40
0
40
1
40
1
40
1
40
1
41
1
41
1
41
1
41
1
10
-386.01107151031493
20
-16.790399932861348
30
0
10
-386.32012786388395
20
-16.874873337745679
30
0
10
-386.63400768756867
20
-16.94157893180849
30
0
10
-386.95199154853816
20
-16.980155792236342
30
0
0
SPLINE
5
152
100
AcDbEntity
8
0
100
AcDbSpline
70
4
71
3
72
8
73
4
74
0
42
0.000000001
43
0.0000000001
44
0.0000000001
40
0
40
0
40
0
40
0
40
1
40
1
40
1
40
1
41
1
41
1
41
1
41
1
10
-386.95199154853816
20
-16.980155792236342
30
0
10
-389.29263901233668
20
-17.264119200706496
30
0
10
-391.95333053112029
20
-17.301622362136861
30
0
10
-394.76019772052769
20
-17.226436181068436
30
0
0
SPLINE
5
153
100
AcDbEntity
8
0
100
AcDbSpline
70
4
71
3
72
8
73
4
74
0
42
0.000000001
43
0.0000000001
44
0.0000000001
40
0
40
0
40
0
40
0
40
1
40
1
40
1
40
1
41
1
41
1
41
1
41
1
10
-394.76019772052769
20
-17.226436181068436
30
0
10
-395.20900390148165
20
-17.214380230903643
30
0
10
-395.36652153968811
20
-16.623502416610734
30
0
10
-394.98075838565825
20
-16.393834385871902
30
0
0
SPLINE
5
154
100
AcDbEntity
8
0
100
AcDbSpline
70
4
71
3
72
8
73
4
74
0
42
0.000000001
43
0.0000000001
44
0.0000000001
40
0
40
0
40
0
40
0
40
1
40
1
40
1
40
1
41
1
41
1
41
1
41
1
10
-394.98075838565825
20
-16.393834385871902
30
0
10
-393.65987970829008
20
-15.607216339111343
30
0
10
-391.29324545860288
20
-14.423498620986948
30
0
10
-388.15213631629945
20
-13.773687267303476
30
0
0
SPLINE
5
155
100
AcDbEntity
8
0
100
AcDbSpline
70
4
71
3
72
8
73
4
74
0
42
0.000000001
43
0.0000000001
44
0.0000000001
40
0
40
0
40
0
40
0
40
1
40
1
40
1
40
1
41
1
41
1
41
1
41
1
10
-388.15213631629945
20
-13.773687267303476
30
0
10
-374.47364165782926
20
-10.943602018356335
30
0
10
-354.69437839508055
20
-6.3006114387512291
30
0
10
-354.5577624607086
20
-6.0695099925994977
30
0
0
SPLINE
5
156
100
AcDbEntity
8
0
100
AcDbSpline
70
4
71
3
72
8
73
4
74
0
42
0.000000001
43
0.0000000001
44
0.0000000001
40
0
40
0
40
0
40
0
40
1
40
1
40
1
40
1
41
1
41
1
41
1
41
1
10
-354.5577624607086
20
-6.0695099925994977
30
0
10
-354.37416538238523
20
-5.7601865768432692
30
0
10
-393.73051493167878
20
-13.034486384391801
30
0
10
-402.80932668685915
20
-15.09474580287935
30
0
0
SPLINE
5
157
100
AcDbEntity
8
0
100
AcDbSpline
70
4
71
3
72
8
73
4
74
0
42
0.000000001
43
0.0000000001
44
0.0000000001
40
0
40
0
40
0
40
0
40
1
40
1
40
1
40
1
41
1
41
1
41
1
41
1
10
-402.80932668685915
20
-15.09474580287935
30
0
10
-404.46158593654627
20
-15.469701113700882
30
0
10
-406.14760130167008
20
-15.675355348587052
30
0
10
-407.84165305852889
20
-15.70151654243471
30
0
0
SPLINE
5
158
100
AcDbEntity
8
0
100
AcDbSpline
70
4
71
3
72
8
73
4
74
0
42
0.000000001
43
0.0000000001
44
0.0000000001
40
0
40
0
40
0
40
0
40
1
40
1
40
1
40
1
41
1
41
1
41
1
41
1
10
-407.84165305852889
20
-15.70151654243471
30
0
10
-409.71840532779697
20
-15.730446462631242
30
0
10
-411.42129738807677
20
-15.687318644523636
30
0
10
-412.68270567655566
20
-15.461040668487565
30
0
0
SPLINE
5
159
100
AcDbEntity
8
0
100
AcDbSpline
70
4
71
3
72
8
73
4
74
0
42
0.000000001
43
0.0000000001
44
0.0000000001
40
0
40
0
40
0
40
0
40
1
40
1
40
1
40
1
41
1
41
1
41
1
41
1
10
-412.68270567655566
20
-15.461040668487565
30
0
10
-413.15910374164582
20
-15.375586218833934
30
0
10
-413.23036301851278
20
-14.720858740806593
30
0
10
-412.78352165222168
20
-14.535032510757464
30
0
0
SPLINE
5
160
100
AcDbEntity
8
0
100
AcDbSpline
70
4
71
3
72
8
73
4
74
0
42
0.000000001
43
0.0000000001
44
0.0000000001
40
0
40
0
40
0
40
0
40
1
40
1
40
1
40
1
41
1
41
1
41
1
41
1
10
-412.78352165222168
20
-14.535032510757464
30
0
10
-403.85026423931123
20
-10.820459098815931
30
0
10
-379.28915986061094
20
-6.9048805141449066
30
0
10
-357.85968664169309
20
-3.0300261878967394
30
0
0
SPLINE
5
161
100
AcDbEntity
8
0
100
AcDbSpline
70
4
71
3
72
8
73
4
74
0
42
0.000000001
43
0.0000000001
44
0.0000000001
40
0
40
0
40
0
40
0
40
1
40
1
40
1
40
1
41
1
41
1
41
1
41
1
10
-357.85968664169309
20
-3.0300261878967394
30
0
10
-379.61776625633235
20
-5.5238201904296957
30
0
10
-400.1390754318237
20
-8.7620800161361778
30
0
10
-418.23508933067325
20
-13.459006257057204
30
0
0
SPLINE
5
162
100
AcDbEntity
8
0
100
AcDbSpline
70
4
71
3
72
8
73
4
74
0
42
0.000000001
43
0.0000000001
44
0.0000000001
40
0
40
0
40
0
40
0
40
1
40
1
40
1
40
1
41
1
41
1
41
1
41
1
10
-418.23508933067325
20
-13.459006257057204
30
0
10
-421.55345146179201
20
-14.011754131317149
30
0
10
-424.5181060767174
20
-13.960854258537303
30
0
10
-427.03699302434921
20
-13.149590187072766
30
0
0
SPLINE
5
163
100
AcDbEntity
8
0
100
AcDbSpline
70
4
71
3
72
8
73
4
74
0
42
0.000000001
43
0.0000000001
44
0.0000000001
40
0
40
0
40
0
40
0
40
1
40
1
40
1
40
1
41
1
41
1
41
1
41
1
10
-427.03699302434921
20
-13.149590187072766
30
0
10
-427.46794010281565
20
-13.010821404457102
30
0
10
-427.51660673618318
20
-12.419322261810315
30
0
10
-427.11843064069745
20
-12.203846678733843
30
0
0
SPLINE
5
164
100
AcDbEntity
8
0
100
AcDbSpline
70
4
71
3
72
8
73
4
74
0
42
0.000000001
43
0.0000000001
44
0.0000000001
40
0
40
0
40
0
40
0
40
1
40
1
40
1
40
1
41
1
41
1
41
1
41
1
10
-427.11843064069745
20
-12.203846678733843
30
0
10
-419.0775151991844
20
-7.8516050672531268
30
0
10
-387.58045427799226
20
-4.0579158449173125
30
0
10
-363.20508347511293
20
-0.094298768043525882
30
0
0
SPLINE
5
165
100
AcDbEntity
8
0
100
AcDbSpline
70
4
71
3
72
8
73
4
74
0
42
0.000000001
43
0.0000000001
44
0.0000000001
40
0
40
0
40
0
40
0
40
1
40
1
40
1
40
1
41
1
41
1
41
1
41
1
10
-363.20508347511293
20
-0.094298768043525882
30
0
10
-386.70891045570374
20
-2.1135668659210349
30
0
10
-374.43416550636294
20
1.1504126834869322
30
0
10
-429.24101637840272
20
-10.261639647483838
30
0
0
SPLINE
5
166
100
AcDbEntity
8
0
100
AcDbSpline
70
4
71
3
72
8
73
4
74
0
42
0.000000001
43
0.0000000001
44
0.0000000001
40
0
40
0
40
0
40
0
40
1
40
1
40
1
40
1
41
1
41
1
41
1
41
1
10
-429.24101637840272
20
-10.261639647483838
30
0
10
-431.87670351862903
20
-10.839747529029857
30
0
10
-434.94467577338219
20
-10.817957434654248
30
0
10
-438.19392193794249
20
-10.544354948997512
30
0
0
SPLINE
5
167
100
AcDbEntity
8
0
100
AcDbSpline
70
4
71
3
72
8
73
4
74
0
42
0.000000001
43
0.0000000001
44
0.0000000001
40
0
40
0
40
0
40
0
40
1
40
1
40
1
40
1
41
1
41
1
41
1
41
1
10
-438.19392193794249
20
-10.544354948997512
30
0
10
-438.87222106039525
20
-10.487296295166031
30
0
10
-439.06429872572426
20
-9.5882559680938861
30
0
10
-438.46833106040953
20
-9.2592844057083212
30
0
0
SPLINE
5
168
100
AcDbEntity
8
0
100
AcDbSpline
70
4
71
3
72
8
73
4
74
0
42
0.000000001
43
0.0000000001
44
0.0000000001
40
0
40
0
40
0
40
0
40
1
40
1
40
1
40
1
41
1
41
1
41
1
41
1
10
-438.46833106040953
20
-9.2592844057083212
30
0
10
-429.05554713964466
20
-4.0638130140304707
30
0
10
-393.55021525382995
20
-0.72089751243592737
30
0
10
-367.03083106040947
20
3.2601385593414189
30
0
0
SPLINE
5
169
100
AcDbEntity
8
0
100
AcDbSpline
70
4
71
3
72
8
73
4
74
0
42
0.000000001
43
0.0000000001
44
0.0000000001
40
0
40
0
40
0
40
0
40
1
40
1
40
1
40
1
41
1
41
1
41
1
41
1
10
-367.03083106040947
20
3.2601385593414189
30
0
10
-374.83046399116517
20
5.3234310412406849
30
0
10
-410.46125787734985
20
-2.0433785629272538
30
0
10
-440.45608036994935
20
-7.4313745403289921
30
0
0
SPLINE
5
170
100
AcDbEntity
8
0
100
AcDbSpline
70
4
71
3
72
8
73
4
74
0
42
0.000000001
43
0.0000000001
44
0.0000000001
40
0
40
0
40
0
40
0
40
1
40
1
40
1
40
1
41
1
41
1
41
1
41
1
10
-440.45608036994935
20
-7.4313745403289921
30
0
10
-443.11123375475404
20
-7.9083094549179211
30
0
10
-445.55555687159301
20
-7.5839815044403203
30
0
10
-447.68278724312779
20
-6.9506898546219009
30
0
0
SPLINE
5
171
100
AcDbEntity
8
0
100
AcDbSpline
70
4
71
3
72
8
73
4
74
0
42
0.000000001
43
0.0000000001
44
0.0000000001
40
0
40
0
40
0
40
0
40
1
40
1
40
1
40
1
41
1
41
1
41
1
41
1
10
-447.68278724312779
20
-6.9506898546219009
30
0
10
-448.20695980399847
20
-6.7946873855590972
30
0
10
-448.24383959323171
20
-6.0616507339477632
30
0
10
-447.73886570379142
20
-5.8517126035690392
30
0
0
SPLINE
5
172
100
AcDbEntity
8
0
100
AcDbSpline
70
4
71
3
72
8
73
4
74
0
42
0.000000001
43
0.0000000001
44
0.0000000001
40
0
40
0
40
0
40
0
40
1
40
1
40
1
40
1
41
1
41
1
41
1
41
1
10
-447.73886570379142
20
-5.8517126035690392
30
0
10
-430.38401801347732
20
1.3652614879608027
30
0
10
-404.06197915077206
20
4.6451339626312205
30
0
10
-376.04508461952207
20
6.6141316914558335
30
0
0
SPLINE
5
173
100
AcDbEntity
8
0
100
AcDbSpline
70
4
71
3
72
8
73
4
74
0
42
0.000000001
43
0.0000000001
44
0.0000000001
40
0
40
0
40
0
40
0
40
1
40
1
40
1
40
1
41
1
41
1
41
1
41
1
10
-376.04508461952207
20
6.6141316914558335
30
0
10
-376.94135622024532
20
7.424055001735681
30
0
10
-377.42043308258053
20
8.2625512409210078
30
0
10
-375.94024908542627
20
9.2346385264396602
30
0
0
SPLINE
5
174
100
AcDbEntity
8
0
100
AcDbSpline
70
4
71
3
72
8
73
4
74
0
42
0.000000001
43
0.0000000001
44
0.0000000001
40
0
40
0
40
0
40
0
40
1
40
1
40
1
40
1
41
1
41
1
41
1
41
1
10
-375.94024908542627
20
9.2346385264396602
30
0
10
-371.41521823883056
20
10.047954616546622
30
0
10
-364.19235242843627
20
10.317810056209558
30
0
10
-356.49674294471737
20
10.49247417688369
30
0
0
SPLINE
5
175
100
AcDbEntity
8
0
100
AcDbSpline
70
4
71
3
72
8
73
4
74
0
42
0.000000001
43
0.0000000001
44
0.0000000001
40
0
40
0
40
0
40
0
40
1
40
1
40
1
40
1
41
1
41
1
41
1
41
1
10
-356.49674294471737
20
10.49247417688369
30
0
10
-367.16236191272736
20
10.60722098827361
30
0
10
-376.88321841716765
20
11.248194763660422
30
0
10
-384.36629545211787
20
13.13441138982772
30
0
0
SPLINE
5
176
100
AcDbEntity
8
0
100
AcDbSpline
70
4
71
3
72
8
73
4
74
0
42
0.000000001
43
0.0000000001
44
0.0000000001
40
0
40
0
40
0
40
0
40
1
40
1
40
1
40
1
41
1
41
1
41
1
41
1
10
-384.36629545211787
20
13.13441138982772
30
0
10
-384.87877143859862
20
13.263623161315913
30
0
10
-384.90421864986416
20
13.978267948627465
30
0
10
-384.4046052503586
20
14.150520334243769
30
0
0
SPLINE
5
177
100
AcDbEntity
8
0
100
AcDbSpline
70
4
71
3
72
8
73
4
74
0
42
0.000000001
43
0.0000000001
44
0.0000000001
40
0
40
0
40
0
40
0
40
1
40
1
40
1
40
1
41
1
41
1
41
1
41
1
10
-384.4046052503586
20
14.150520334243769
30
0
10
-379.91949202537535
20
15.696606013774863
30
0
10
-370.88059244155886
20
16.151396567821497
30
0
10
-358.85498381137847
20
15.890648493766779
30
0
0
SPLINE
5
178
100
AcDbEntity
8
0
100
AcDbSpline
70
4
71
3
72
8
73
4
74
0
42
0.000000001
43
0.0000000001
44
0.0000000001
40
0
40
0
40
0
40
0
40
1
40
1
40
1
40
1
41
1
41
1
41
1
41
1
10
-358.85498381137847
20
15.890648493766779
30
0
10
-373.53181687831875
20
16.463488709926601
30
0
10
-385.92175828456874
20
17.610774240493768
30
0
10
-392.23504843711851
20
20.283875975608822
30
0
0
SPLINE
5
179
100
AcDbEntity
8
0
100
AcDbSpline
70
4
71
3
72
8
73
4
74
0
42
0.000000001
43
0.0000000001
44
0.0000000001
40
0
40
0
40
0
40
0
40
1
40
1
40
1
40
1
41
1
41
1
41
1
41
1
10
-392.23504843711851
20
20.283875975608822
30
0
10
-392.76565195083617
20
20.508546128273004
30
0
10
-392.69385582447052
20
21.282928366661068
30
0
10
-392.12976598262787
20
21.400176842212669
30
0
0
SPLINE
5
180
100
AcDbEntity
8
0
100
AcDbSpline
70
4
71
3
72
8
73
4
74
0
42
0.000000001
43
0.0000000001
44
0.0000000001
40
0
40
0
40
0
40
0
40
1
40
1
40
1
40
1
41
1
41
1
41
1
41
1
10
-392.12976598262787
20
21.400176842212669
30
0
10
-384.1009064912796
20
23.069045724868769
30
0
10
-374.30253654956812
20
22.702571001052849
30
0
10
-363.72978981971744
20
21.446076111793513
30
0
0
SPLINE
5
181
100
AcDbEntity
8
0
100
AcDbSpline
70
4
71
3
72
8
73
4
74
0
42
0.000000001
43
0.0000000001
44
0.0000000001
40
0
40
0
40
0
40
0
40
1
40
1
40
1
40
1
41
1
41
1
41
1
41
1
10
-363.72978981971744
20
21.446076111793513
30
0
10
-377.46721801757815
20
22.982250514030447
30
0
10
-389.46158037185671
20
25.052418484687799
30
0
10
-397.81173202514651
20
28.239871091842645
30
0
0
SPLINE
5
182
100
AcDbEntity
8
0
100
AcDbSpline
70
4
71
3
72
8
73
4
74
0
42
0.000000001
43
0.0000000001
44
0.0000000001
40
0
40
0
40
0
40
0
40
1
40
1
40
1
40
1
41
1
41
1
41
1
41
1
10
-397.81173202514651
20
28.239871091842645
30
0
10
-398.39144773006439
20
28.461148464679713
30
0
10
-398.29286363124845
20
29.310898104906077
30
0
10
-397.67823363304137
20
29.395908359289166
30
0
0
SPLINE
5
183
100
AcDbEntity
8
0
100
AcDbSpline
70
4
71
3
72
8
73
4
74
0
42
0.000000001
43
0.0000000001
44
0.0000000001
40
0
40
0
40
0
40
0
40
1
40
1
40
1
40
1
41
1
41
1
41
1
41
1
10
-397.67823363304137
20
29.395908359289166
30
0
10
-390.01486782073977
20
30.456844236850735
30
0
10
-380.53323363304139
20
29.58941535234451
30
0
10
-370.07120870590205
20
27.682748030424111
30
0
0
SPLINE
5
184
100
AcDbEntity
8
0
100
AcDbSpline
70
4
71
3
72
8
73
4
74
0
42
0.000000001
43
0.0000000001
44
0.0000000001
40
0
40
0
40
0
40
0
40
1
40
1
40
1
40
1
41
1
41
1
41
1
41
1
10
-370.07120870590205
20
27.682748030424111
30
0
10
-383.44877333164214
20
29.632366037368772
30
0
10
-394.79572789192196
20
32.958854489326477
30
0
10
-403.12801908016206
20
38.329614055156704
30
0
0
SPLINE
5
185
100
AcDbEntity
8
0
100
AcDbSpline
70
4
71
3
72
8
73
4
74
0
42
0.000000001
43
0.0000000001
44
0.0000000001
40
0
40
0
40
0
40
0
40
1
40
1
40
1
40
1
41
1
41
1
41
1
41
1
10
-403.12801908016206
20
38.329614055156704
30
0
10
-403.48172387123105
20
38.557588421106331
30
0
10
-403.31625432014459
20
39.107835993766784
30
0
10
-402.89557687282559
20
39.097656291723254
30
0
0
SPLINE
5
186
100
AcDbEntity
8
0
100
AcDbSpline
70
4
71
3
72
8
73
4
74
0
42
0.000000001
43
0.0000000001
44
0.0000000001
40
0
40
0
40
0
40
0
40
1
40
1
40
1
40
1
41
1
41
1
41
1
41
1
10
-402.89557687282559
20
39.097656291723254
30
0
10
-395.04727322101593
20
38.908168175816527
30
0
10
-384.35040252685548
20
36.579306193590156
30
0
10
-371.74793412208555
20
32.819193228483201
30
0
0
SPLINE
5
187
100
AcDbEntity
8
0
100
AcDbSpline
70
4
71
3
72
8
73
4
74
0
42
0.000000001
43
0.0000000001
44
0.0000000001
40
0
40
0
40
0
40
0
40
1
40
1
40
1
40
1
41
1
41
1
41
1
41
1
10
-371.74793412208555
20
32.819193228483201
30
0
10
-387.9508531808853
20
38.314612245559687
30
0
10
-399.27994727611542
20
43.225851122736927
30
0
10
-404.92618693828581
20
47.455844336748129
30
0
0
SPLINE
5
188
100
AcDbEntity
8
0
100
AcDbSpline
70
4
71
3
72
8
73
4
74
0
42
0.000000001
43
0.0000000001
44
0.0000000001
40
0
40
0
40
0
40
0
40
1
40
1
40
1
40
1
41
1
41
1
41
1
41
1
10
-404.92618693828581
20
47.455844336748129
30
0
10
-405.51724188566203
20
47.898667507171631
30
0
10
-405.21738282680508
20
48.845660910829906
30
0
10
-404.47907850980755
20
48.863877430409197
30
0
0
SPLINE
5
189
100
AcDbEntity
8
0
100
AcDbSpline
70
4
71
3
72
8
73
4
74
0
42
0.000000001
43
0.0000000001
44
0.0000000001
40
0
40
0
40
0
40
0
40
1
40
1
40
1
40
1
41
1
41
1
41
1
41
1
10
-404.47907850980755
20
48.863877430409197
30
0
10
-392.14360961437222
20
49.168558341339228
30
0
10
-369.06393733978268
20
37.079369238615037
30
0
10
-347.06297284126276
20
27.682659463882441
30
0
0
SPLINE
5
190
100
AcDbEntity
8
0
100
AcDbSpline
70
4
71
3
72
8
73
4
74
0
42
0.000000001
43
0.0000000001
44
0.0000000001
40
0
40
0
40
0
40
0
40
1
40
1
40
1
40
1
41
1
41
1
41
1
41
1
10
-347.06297284126276
20
27.682659463882441
30
0
10
-336.46610876083372
20
23.156647572517389
30
0
10
-327.41676650047293
20
18.024309136867519
30
0
10
-320.33374317169194
20
11.593149180412286
30
0
0
SPLINE
5
191
100
AcDbEntity
8
0
100
AcDbSpline
70
4
71
3
72
8
73
4
74
0
42
0.000000001
43
0.0000000001
44
0.0000000001
40
0
40
0
40
0
40
0
40
1
40
1
40
1
40
1
41
1
41
1
41
1
41
1
10
-320.33374317169194
20
11.593149180412286
30
0
10
-317.21657152175902
20
8.7627069401740965
30
0
10
-316.65390964508055
20
3.5021405029296737
30
0
10
-313.99223708152766
20
1.582971673011766
30
0
0
SPLINE
5
192
100
AcDbEntity
8
0
100
AcDbSpline
70
4
71
3
72
8
73
4
74
0
42
0.000000001
43
0.0000000001
44
0.0000000001
40
0
40
0
40
0
40
0
40
1
40
1
40
1
40
1
41
1
41
1
41
1
41
1
10
-313.99223708152766
20
1.582971673011766
30
0
10
-312.47312195777891
20
0.48765698909758903
30
0
10
-309.30155682563782
20
0.56096828460692194
30
0
10
-308.69890102386472
20
1.4257210969924827
30
0
0
SPLINE
5
193
100
AcDbEntity
8
0
100
AcDbSpline
70
4
71
3
72
8
73
4
74
0
42
0.000000001
43
0.0000000001
44
0.0000000001
40
0
40
0
40
0
40
0
40
1
40
1
40
1
40
1
41
1
41
1
41
1
41
1
10
-308.69890102386472
20
1.4257210969924827
30
0
10
-300.66575763702389
20
12.951269407272331
30
0
10
-294.66947030067439
20
20.662052383422846
30
0
10
-284.74769582748411
20
20.764745969772331
30
0
0
SPLINE
5
194
100
AcDbEntity
8
0
100
AcDbSpline
70
4
71
3
72
8
73
4
74
0
42
0.000000001
43
0.0000000001
44
0.0000000001
40
0
40
0
40
0
40
0
40
1
40
1
40
1
40
1
41
1
41
1
41
1
41
1
10
-284.74769582748411
20
20.764745969772331
30
0
10
-276.24975522994993
20
20.852524950504296
30
0
10
-268.28134989738464
20
15.707863502502434
30
0
10
-260.7964906311035
20
3.417040319442739
30
0
0
LINE
5
195
100
AcDbEntity
8
0
100
AcDbLine
10
-260.7964906311035
20
3.4170403194427368
30
0
11
-260.79777688980096
21
3.4173945856094257
31
0
0
ENDSEC
0
SECTION
2
OBJECTS
0
DICTIONARY
5
C
100
AcDbDictionary
3
ACAD_GROUP
350
D
3
ACAD_MLINESTYLE
350
17
0
DICTIONARY
5
D
100
AcDbDictionary
0
DICTIONARY
5
1A
330
C
100
AcDbDictionary
0
DICTIONARY
5
17
100
AcDbDictionary
0
ENDSEC
0
EOF
