                                                                        S      1
,,25HDryer Vibration Sensor v7,25HDryer Vibration Sensor v7,7Hunknown,7HG      1
unknown,32,38,7,99,15,,1.,2,2HMM,1,0.08,15H20220922.114949,0.01,10000., G      2
7Hunknown,7Hunknown,11,0,15H20200602.152135;                            G      3
     186       1                                                00000000D      1
     186            -183       1       0                               0D      2
     514       2                                                00010000D      3
     514                       2       1                               0D      4
     510       4                                                00010000D      5
     510            -183       1       1                               0D      6
     510       5                                                00010000D      7
     510            -183       1       1                               0D      8
     510       6                                                00010000D      9
     510            -183       1       1                               0D     10
     510       7                                                00010000D     11
     510            -183       1       1                               0D     12
     510       8                                                00010000D     13
     510            -183       1       1                               0D     14
     510       9                                                00010000D     15
     510            -183       1       1                               0D     16
     510      10                                                00010000D     17
     510            -183       1       1                               0D     18
     510      11                                                00010000D     19
     510            -183       1       1                               0D     20
     510      12                                                00010000D     21
     510            -183       1       1                               0D     22
     510      13                                                00010000D     23
     510            -183       1       1                               0D     24
     510      14                                                00010000D     25
     510            -183       1       1                               0D     26
     510      15                                                00010000D     27
     510            -183       1       1                               0D     28
     510      16                                                00010000D     29
     510            -183       1       1                               0D     30
     510      17                                                00010000D     31
     510            -183       1       1                               0D     32
     510      18                                                00010000D     33
     510            -183       1       1                               0D     34
     510      19                                                00010000D     35
     510            -183       1       1                               0D     36
     508      20                                                00010000D     37
     508                       1       1                               0D     38
     508      21                                                00010000D     39
     508                       1       1                               0D     40
     508      22                                                00010000D     41
     508                       1       1                               0D     42
     508      23                                                00010000D     43
     508                       1       1                               0D     44
     508      24                                                00010000D     45
     508                       1       1                               0D     46
     508      25                                                00010000D     47
     508                       1       1                               0D     48
     508      26                                                00010000D     49
     508                       1       1                               0D     50
     508      27                                                00010000D     51
     508                       1       1                               0D     52
     508      28                                                00010000D     53
     508                       1       1                               0D     54
     508      29                                                00010000D     55
     508                       1       1                               0D     56
     508      30                                                00010000D     57
     508                       1       1                               0D     58
     508      31                                                00010000D     59
     508                       1       1                               0D     60
     508      32                                                00010000D     61
     508                       1       1                               0D     62
     508      33                                                00010000D     63
     508                       1       1                               0D     64
     508      34                                                00010000D     65
     508                       1       1                               0D     66
     508      35                                                00010000D     67
     508                       1       1                               0D     68
     508      36                                                00010000D     69
     508                       1       1                               0D     70
     508      37                                                00010000D     71
     508                       1       1                               0D     72
     126      38                                                00010000D     73
     126       0               2       0                               0D     74
     126      40                                                00010000D     75
     126       0               2       0                               0D     76
     126      42                                                00010000D     77
     126       0               2       0                               0D     78
     126      44                                                00010000D     79
     126       0               2       0                               0D     80
     126      46                                                00010000D     81
     126       0               2       0                               0D     82
     126      48                                                00010000D     83
     126       0               2       0                               0D     84
     126      50                                                00010000D     85
     126       0               2       0                               0D     86
     126      52                                                00010000D     87
     126       0               2       0                               0D     88
     126      54                                                00010000D     89
     126       0               2       0                               0D     90
     126      56                                                00010000D     91
     126       0               2       0                               0D     92
     126      58                                                00010000D     93
     126       0               2       0                               0D     94
     126      60                                                00010000D     95
     126       0               2       0                               0D     96
     126      62                                                00010000D     97
     126       0               2       0                               0D     98
     126      64                                                00010000D     99
     126       0               2       0                               0D    100
     126      66                                                00010000D    101
     126       0               2       0                               0D    102
     126      68                                                00010000D    103
     126       0               2       0                               0D    104
     126      70                                                00010000D    105
     126       0               2       0                               0D    106
     126      72                                                00010000D    107
     126       0               2       0                               0D    108
     126      74                                                00010000D    109
     126       0               2       0                               0D    110
     126      76                                                00010000D    111
     126       0               3       0                               0D    112
     126      79                                                00010000D    113
     126       0               2       0                               0D    114
     126      81                                                00010000D    115
     126       0               2       0                               0D    116
     126      83                                                00010000D    117
     126       0               2       0                               0D    118
     126      85                                                00010000D    119
     126       0               2       0                               0D    120
     126      87                                                00010000D    121
     126       0               2       0                               0D    122
     126      89                                                00010000D    123
     126       0               2       0                               0D    124
     126      91                                                00010000D    125
     126       0               2       0                               0D    126
     126      93                                                00010000D    127
     126       0               2       0                               0D    128
     126      95                                                00010000D    129
     126       0               2       0                               0D    130
     126      97                                                00010000D    131
     126       0               2       0                               0D    132
     126      99                                                00010000D    133
     126       0               2       0                               0D    134
     126     101                                                00010000D    135
     126       0               2       0                               0D    136
     126     103                                                00010000D    137
     126       0               2       0                               0D    138
     126     105                                                00010000D    139
     126       0               2       0                               0D    140
     126     107                                                00010000D    141
     126       0               2       0                               0D    142
     126     109                                                00010000D    143
     126       0               2       0                               0D    144
     128     111                                                00010000D    145
     128       0    -183       3       0                               0D    146
     128     114                                                00010000D    147
     128       0    -183       3       0                               0D    148
     128     117                                                00010000D    149
     128       0    -183       3       0                               0D    150
     128     120                                                00010000D    151
     128       0    -183       4       0                               0D    152
     128     124                                                00010000D    153
     128       0    -183       4       0                               0D    154
     128     128                                                00010000D    155
     128       0    -183       3       0                               0D    156
     128     131                                                00010000D    157
     128       0    -183       5       0                               0D    158
     128     136                                                00010000D    159
     128       0    -183       4       0                               0D    160
     128     140                                                00010000D    161
     128       0    -183       4       0                               0D    162
     128     144                                                00010000D    163
     128       0    -183       3       0                               0D    164
     128     147                                                00010000D    165
     128       0    -183       4       0                               0D    166
     128     151                                                00010000D    167
     128       0    -183       3       0                               0D    168
     128     154                                                00010000D    169
     128       0    -183       3       0                               0D    170
     128     157                                                00010000D    171
     128       0    -183       3       0                               0D    172
     128     160                                                00010000D    173
     128       0    -183       3       0                               0D    174
     128     163                                                00010000D    175
     128       0    -183       3       0                               0D    176
     502     166                                                00010000D    177
     502                       5       1                               0D    178
     504     171                                                00010001D    179
     504                      10       1                               0D    180
     406     181                                                00000000D    181
     406                       1      15                               0D    182
     314     182                                                00000200D    183
     314                       2       0                               0D    184
186,3,1,0,0,1,181;                                                     1P      1
514,16,5,1,7,1,9,1,11,1,13,1,15,1,17,1,19,1,21,1,23,1,25,1,27,1,       3P      2
29,1,31,1,33,1,35,1;                                                   3P      3
510,145,1,1,37;                                                        5P      4
510,147,1,1,39;                                                        7P      5
510,149,1,1,41;                                                        9P      6
510,151,1,1,43;                                                       11P      7
510,153,1,1,45;                                                       13P      8
510,155,1,1,47;                                                       15P      9
510,157,1,1,49;                                                       17P     10
510,159,1,1,51;                                                       19P     11
510,161,2,1,53,55;                                                    21P     12
510,163,2,1,57,59;                                                    23P     13
510,165,1,1,61;                                                       25P     14
510,167,1,1,63;                                                       27P     15
510,169,1,1,65;                                                       29P     16
510,171,1,1,67;                                                       31P     17
510,173,1,1,69;                                                       33P     18
510,175,1,1,71;                                                       35P     19
508,4,0,179,1,0,0,0,179,2,1,0,0,179,3,0,0,0,179,4,0,0;                37P     20
508,4,0,179,5,0,0,0,179,4,1,0,0,179,6,0,0,0,179,7,0,0;                39P     21
508,4,0,179,8,0,0,0,179,7,1,0,0,179,9,0,0,0,179,10,0,0;               41P     22
508,4,0,179,11,0,0,0,179,10,1,0,0,179,12,0,0,0,179,2,0,0;             43P     23
508,4,0,179,13,0,0,0,179,14,1,0,0,179,15,0,0,0,179,16,0,0;            45P     24
508,4,0,179,17,0,0,0,179,16,1,0,0,179,18,0,0,0,179,19,0,0;            47P     25
508,4,0,179,20,0,0,0,179,19,1,0,0,179,21,0,0,0,179,22,0,0;            49P     26
508,4,0,179,23,0,0,0,179,22,1,0,0,179,24,0,0,0,179,14,0,0;            51P     27
508,4,0,179,24,1,0,0,179,21,1,0,0,179,18,1,0,0,179,15,1,0;            53P     28
508,4,0,179,12,1,0,0,179,9,1,0,0,179,6,1,0,0,179,3,1,0;               55P     29
508,4,0,179,25,1,0,0,179,26,1,0,0,179,27,1,0,0,179,28,1,0;            57P     30
508,4,0,179,13,1,0,0,179,17,1,0,0,179,20,1,0,0,179,23,1,0;            59P     31
508,4,0,179,26,0,0,0,179,29,1,0,0,179,30,0,0,0,179,31,0,0;            61P     32
508,4,0,179,27,0,0,0,179,31,1,0,0,179,32,0,0,0,179,33,0,0;            63P     33
508,4,0,179,28,0,0,0,179,33,1,0,0,179,34,0,0,0,179,35,0,0;            65P     34
508,4,0,179,25,0,0,0,179,35,1,0,0,179,36,0,0,0,179,29,0,0;            67P     35
508,4,0,179,36,1,0,0,179,34,1,0,0,179,32,1,0,0,179,30,1,0;            69P     36
508,4,0,179,1,1,0,0,179,5,1,0,0,179,8,1,0,0,179,11,1,0;               71P     37
126,1,1,0,0,1,0,-2.775,-2.775,0.925,0.925,1.,1.,2.,2.,20.,2.,         73P     38
39.,20.,-2.775,0.925,0.,0.,0.;                                        73P     39
126,1,1,0,0,1,0,0.,0.,0.2,0.2,1.,1.,2.,2.,20.,2.,2.,18.,0.,0.2,       75P     40
0.,0.,0.;                                                             75P     41
126,1,1,0,0,1,0,-3.7,-3.7,0.,0.,1.,1.,2.,39.,18.,2.,2.,18.,-3.7,      77P     42
0.,0.,0.,0.;                                                          77P     43
126,1,1,0,0,1,0,0.,0.,0.2,0.2,1.,1.,2.,39.,20.,2.,39.,18.,0.,         79P     44
0.2,0.,0.,0.;                                                         79P     45
126,1,1,0,0,1,0,-1.875,-1.875,0.625,0.625,1.,1.,2.,39.,20.,27.,       81P     46
39.,20.,-1.875,0.625,0.,0.,0.;                                        81P     47
126,1,1,0,0,1,0,-2.5,-2.5,0.,0.,1.,1.,27.,39.,18.,2.,39.,18.,         83P     48
-2.5,0.,0.,0.,0.;                                                     83P     49
126,1,1,0,0,1,0,0.,0.,0.2,0.2,1.,1.,27.,39.,20.,27.,39.,18.,0.,       85P     50
0.2,0.,0.,0.;                                                         85P     51
126,1,1,0,0,1,0,-2.775,-2.775,0.925,0.925,1.,1.,27.,39.,20.,27.,      87P     52
2.,20.,-2.775,0.925,0.,0.,0.;                                         87P     53
126,1,1,0,0,1,0,-3.7,-3.7,0.,0.,1.,1.,27.,2.,18.,27.,39.,18.,         89P     54
-3.7,0.,0.,0.,0.;                                                     89P     55
126,1,1,0,0,1,0,0.,0.,0.2,0.2,1.,1.,27.,2.,20.,27.,2.,18.,0.,         91P     56
0.2,0.,0.,0.;                                                         91P     57
126,1,1,0,0,1,0,-1.875,-1.875,0.625,0.625,1.,1.,27.,2.,20.,2.,        93P     58
2.,20.,-1.875,0.625,0.,0.,0.;                                         93P     59
126,1,1,0,0,1,0,-2.5,-2.5,0.,0.,1.,1.,2.,2.,18.,27.,2.,18.,-2.5,      95P     60
0.,0.,0.,0.;                                                          95P     61
126,1,1,0,0,1,0,-3.075,-3.075,1.025,1.025,1.,1.,29.,0.,20.,29.,       97P     62
41.,20.,-3.075,1.025,0.,0.,0.;                                        97P     63
126,1,1,0,0,1,0,0.,0.,0.2,0.2,1.,1.,29.,0.,20.,29.,0.,18.,0.,         99P     64
0.2,0.,0.,0.;                                                         99P     65
126,1,1,0,0,1,0,0.,0.,4.1,4.1,1.,1.,29.,41.,18.,29.,0.,18.,0.,       101P     66
4.1,0.,0.,0.;                                                        101P     67
126,1,1,0,0,1,0,0.,0.,0.2,0.2,1.,1.,29.,41.,20.,29.,41.,18.,0.,      103P     68
0.2,0.,0.,0.;                                                        103P     69
126,1,1,0,0,1,0,-2.175,-2.175,0.725,0.725,1.,1.,29.,41.,20.,0.,      105P     70
41.,20.,-2.175,0.725,0.,0.,0.;                                       105P     71
126,1,1,0,0,1,0,0.,0.,2.9,2.9,1.,1.,-2.1570415377137D-31,41.,        107P     72
18.,29.,41.,18.,0.,2.9,0.,0.,0.;                                     107P     73
126,1,1,0,0,1,0,0.,0.,0.2,0.2,1.,1.,-2.1570415377137D-31,41.,        109P     74
20.,-2.1570415377137D-31,41.,18.,0.,0.2,0.,0.,0.;                    109P     75
126,1,1,0,0,1,0,-3.075,-3.075,1.025,1.025,1.,1.,                     111P     76
-1.61778115328528D-31,41.,20.,5.39260384428426D-32,0.,20.,           111P     77
-3.075,1.025,0.,0.,0.;                                               111P     78
126,1,1,0,0,1,0,0.,0.,4.1,4.1,1.,1.,0.,0.,18.,                       113P     79
-2.1570415377137D-31,41.,18.,0.,4.1,0.,0.,0.;                        113P     80
126,1,1,0,0,1,0,0.,0.,0.2,0.2,1.,1.,0.,0.,20.,0.,0.,18.,0.,0.2,      115P     81
0.,0.,0.;                                                            115P     82
126,1,1,0,0,1,0,-2.175,-2.175,0.725,0.725,1.,1.,0.,0.,20.,29.,       117P     83
0.,20.,-2.175,0.725,0.,0.,0.;                                        117P     84
126,1,1,0,0,1,0,0.,0.,2.9,2.9,1.,1.,29.,0.,18.,0.,0.,18.,0.,2.9,     119P     85
0.,0.,0.;                                                            119P     86
126,1,1,0,0,1,0,0.,0.,3.3,3.3,1.,1.,31.,-2.,20.,-2.,-2.,20.,0.,      121P     87
3.3,0.,0.,0.;                                                        121P     88
126,1,1,0,0,1,0,0.,0.,4.5,4.5,1.,1.,-2.,-2.,20.,-2.,43.,20.,0.,      123P     89
4.5,0.,0.,0.;                                                        123P     90
126,1,1,0,0,1,0,0.,0.,3.3,3.3,1.,1.,-2.,43.,20.,31.,43.,20.,0.,      125P     91
3.3,0.,0.,0.;                                                        125P     92
126,1,1,0,0,1,0,0.,0.,4.5,4.5,1.,1.,31.,43.,20.,31.,-2.,20.,0.,      127P     93
4.5,0.,0.,0.;                                                        127P     94
126,1,1,0,0,1,0,0.,0.,0.2,0.2,1.,1.,-2.,-2.,20.,-2.,-2.,22.,0.,      129P     95
0.2,0.,0.,0.;                                                        129P     96
126,1,1,0,0,1,0,-4.5,-4.5,0.,0.,1.,1.,-2.,43.,22.,-2.,-2.,22.,       131P     97
-4.5,0.,0.,0.,0.;                                                    131P     98
126,1,1,0,0,1,0,0.,0.,0.2,0.2,1.,1.,-2.,43.,20.,-2.,43.,22.,0.,      133P     99
0.2,0.,0.,0.;                                                        133P    100
126,1,1,0,0,1,0,-3.3,-3.3,0.,0.,1.,1.,31.,43.,22.,-2.,43.,22.,       135P    101
-3.3,0.,0.,0.,0.;                                                    135P    102
126,1,1,0,0,1,0,0.,0.,0.2,0.2,1.,1.,31.,43.,20.,31.,43.,22.,0.,      137P    103
0.2,0.,0.,0.;                                                        137P    104
126,1,1,0,0,1,0,-4.5,-4.5,0.,0.,1.,1.,31.,-2.,22.,31.,43.,22.,       139P    105
-4.5,0.,0.,0.,0.;                                                    139P    106
126,1,1,0,0,1,0,0.,0.,0.2,0.2,1.,1.,31.,-2.,20.,31.,-2.,22.,0.,      141P    107
0.2,0.,0.,0.;                                                        141P    108
126,1,1,0,0,1,0,-3.3,-3.3,0.,0.,1.,1.,-2.,-2.,22.,31.,-2.,22.,       143P    109
-3.3,0.,0.,0.,0.;                                                    143P    110
128,1,1,1,1,0,0,1,0,0,-0.001,-0.001,3.701,3.701,-0.001,-0.001,       145P    111
0.201,0.201,1.,1.,1.,1.,2.,39.01,20.01,2.,1.99,20.01,2.,39.01,       145P    112
17.99,2.,1.99,17.99,-0.001,3.701,-0.001,0.201;                       145P    113
128,1,1,1,1,0,0,1,0,0,-0.001,-0.001,2.501,2.501,-0.001,-0.001,       147P    114
0.201,0.201,1.,1.,1.,1.,27.01,39.,20.01,1.99,39.,20.01,27.01,        147P    115
39.,17.99,1.99,39.,17.99,-0.001,2.501,-0.001,0.201;                  147P    116
128,1,1,1,1,0,0,1,0,0,-0.001,-0.001,3.701,3.701,-0.001,-0.001,       149P    117
0.201,0.201,1.,1.,1.,1.,27.,1.99,20.01,27.,39.01,20.01,27.,1.99,     149P    118
17.99,27.,39.01,17.99,-0.001,3.701,-0.001,0.201;                     149P    119
128,1,1,1,1,0,0,1,0,0,-0.00100000000000022,-0.00100000000000022,     151P    120
2.501,2.501,-0.001,-0.001,0.201,0.201,1.,1.,1.,1.,1.99,2.,20.01,     151P    121
27.01,2.,20.01,1.99,2.,17.99,27.01,2.,17.99,                         151P    122
-0.00100000000000022,2.501,-0.001,0.201;                             151P    123
128,1,1,1,1,0,0,1,0,0,-0.001,-0.001,4.101,4.101,-0.001,-0.001,       153P    124
0.201,0.201,1.,1.,1.,1.,29.,41.01,20.01,29.,-0.0100000000000033,     153P    125
20.01,29.,41.01,17.99,29.,-0.0100000000000033,17.99,-0.001,          153P    126
4.101,-0.001,0.201;                                                  153P    127
128,1,1,1,1,0,0,1,0,0,-0.001,-0.001,2.901,2.901,-0.001,-0.001,       155P    128
0.201,0.201,1.,1.,1.,1.,-0.01,41.,20.01,29.01,41.,20.01,-0.01,       155P    129
41.,17.99,29.01,41.,17.99,-0.001,2.901,-0.001,0.201;                 155P    130
128,1,1,1,1,0,0,1,0,0,-0.001,-0.001,4.101,4.101,-0.001,-0.001,       157P    131
0.201,0.201,1.,1.,1.,1.,5.26107692125294D-35,-0.01,20.01,            157P    132
-2.15756764540583D-31,41.01,20.01,5.26107692125294D-35,-0.01,        157P    133
17.99,-2.15756764540583D-31,41.01,17.99,-0.001,4.101,-0.001,         157P    134
0.201;                                                               157P    135
128,1,1,1,1,0,0,1,0,0,-0.001,-0.001,2.901,2.901,-0.001,-0.001,       159P    136
0.201,0.201,1.,1.,1.,1.,29.01,0.,20.01,-0.0099999999999989,0.,       159P    137
20.01,29.01,0.,17.99,-0.0099999999999989,0.,17.99,-0.001,2.901,      159P    138
-0.001,0.201;                                                        159P    139
128,1,1,1,1,0,0,1,0,0,-1.451,-1.451,1.451,1.451,-2.051,-2.051,       161P    140
2.051,2.051,1.,1.,1.,1.,29.01,-0.0099999999999989,18.,               161P    141
-0.0099999999999989,-0.0099999999999989,18.,29.01,41.01,18.,         161P    142
-0.0099999999999989,41.01,18.,-1.451,1.451,-2.051,2.051;             161P    143
128,1,1,1,1,0,0,1,0,0,-1.651,-1.651,1.651,1.651,-2.251,-2.251,       163P    144
2.251,2.251,1.,1.,1.,1.,-2.01,43.01,20.,31.01,43.01,20.,-2.01,       163P    145
-2.01000000000001,20.,31.01,-2.01,20.,-1.651,1.651,-2.251,2.251;     163P    146
128,1,1,1,1,0,0,1,0,0,-0.001,-0.001,4.501,4.501,-0.001,-0.001,       165P    147
0.201,0.201,1.,1.,1.,1.,-2.,43.01,19.99,-2.,-2.01000000000001,       165P    148
19.99,-2.,43.01,22.01,-2.,-2.01000000000001,22.01,-0.001,4.501,      165P    149
-0.001,0.201;                                                        165P    150
128,1,1,1,1,0,0,1,0,0,-0.001,-0.001,3.301,3.301,-0.001,-0.001,       167P    151
0.201,0.201,1.,1.,1.,1.,31.01,43.,19.99,-2.01,43.,19.99,31.01,       167P    152
43.,22.01,-2.01,43.,22.01,-0.001,3.301,-0.001,0.201;                 167P    153
128,1,1,1,1,0,0,1,0,0,-0.001,-0.001,4.501,4.501,-0.001,-0.001,       169P    154
0.201,0.201,1.,1.,1.,1.,31.,-2.01,19.99,31.,43.01,19.99,31.,         169P    155
-2.01,22.01,31.,43.01,22.01,-0.001,4.501,-0.001,0.201;               169P    156
128,1,1,1,1,0,0,1,0,0,-0.001,-0.001,3.301,3.301,-0.001,-0.001,       171P    157
0.201,0.201,1.,1.,1.,1.,-2.01,-2.,19.99,31.01,-2.,19.99,-2.01,       171P    158
-2.,22.01,31.01,-2.,22.01,-0.001,3.301,-0.001,0.201;                 171P    159
128,1,1,1,1,0,0,1,0,0,-1.651,-1.651,1.651,1.651,-2.251,-2.251,       173P    160
2.251,2.251,1.,1.,1.,1.,-2.01,-2.01,22.,31.01,-2.01,22.,-2.01,       173P    161
43.01,22.,31.01,43.01,22.,-1.651,1.651,-2.251,2.251;                 173P    162
128,1,1,1,1,0,0,1,0,0,-1.251,-1.251,1.251,1.251,-1.851,-1.851,       175P    163
1.851,1.851,1.,1.,1.,1.,1.99,39.01,20.,27.01,39.01,20.,1.99,         175P    164
1.99,20.,27.01,1.99,20.,-1.251,1.251,-1.851,1.851;                   175P    165
502,24,2.,2.,20.,2.,39.,20.,2.,2.,18.,2.,39.,18.,27.,39.,20.,        177P    166
27.,39.,18.,27.,2.,20.,27.,2.,18.,29.,0.,20.,29.,41.,20.,29.,0.,     177P    167
18.,29.,41.,18.,-2.1570415377137D-31,41.,20.,0.,41.,18.,0.,0.,       177P    168
20.,0.,0.,18.,31.,-2.,20.,-2.,-2.,20.,-2.,43.,20.,31.,43.,20.,       177P    169
-2.,-2.,22.,-2.,43.,22.,31.,43.,22.,31.,-2.,22.;                     177P    170
504,36,73,177,1,177,2,75,177,1,177,3,77,177,4,177,3,79,177,2,        179P    171
177,4,81,177,2,177,5,83,177,6,177,4,85,177,5,177,6,87,177,5,177,     179P    172
7,89,177,8,177,6,91,177,7,177,8,93,177,7,177,1,95,177,3,177,8,       179P    173
97,177,9,177,10,99,177,9,177,11,101,177,12,177,11,103,177,10,        179P    174
177,12,105,177,10,177,13,107,177,14,177,12,109,177,13,177,14,        179P    175
111,177,13,177,15,113,177,16,177,14,115,177,15,177,16,117,177,       179P    176
15,177,9,119,177,11,177,16,121,177,17,177,18,123,177,18,177,19,      179P    177
125,177,19,177,20,127,177,20,177,17,129,177,18,177,21,131,177,       179P    178
22,177,21,133,177,19,177,22,135,177,23,177,22,137,177,20,177,23,     179P    179
139,177,24,177,23,141,177,17,177,24,143,177,21,177,24;               179P    180
406,1,5HBody2;                                                       181P    181
314,62.7450980392157,62.7450980392157,62.7450980392157,13HSteel      183P    182
- Satin;                                                             183P    183
S      1G      3D    184P    183                                        T      1
