                                                                        S      1
,,27HGarage Door - Reed Mount v2,26HGarage Door  Reed Mount v2,7HunknownG      1
,7Hunknown,32,38,7,99,15,,1.,2,2HMM,1,0.08,15H20220922.115008,0.01,     G      2
10000.,7Hunknown,7Hunknown,11,0,15H20191004.100614;                     G      3
     186       1                                                00000000D      1
     186             -71       1       0                               0D      2
     514       2                                                00010000D      3
     514                       1       1                               0D      4
     510       3                                                00010000D      5
     510             -71       1       1                               0D      6
     510       4                                                00010000D      7
     510             -71       1       1                               0D      8
     510       5                                                00010000D      9
     510             -71       1       1                               0D     10
     510       6                                                00010000D     11
     510             -71       1       1                               0D     12
     510       7                                                00010000D     13
     510             -71       1       1                               0D     14
     510       8                                                00010000D     15
     510             -71       1       1                               0D     16
     508       9                                                00010000D     17
     508                       1       1                               0D     18
     508      10                                                00010000D     19
     508                       1       1                               0D     20
     508      11                                                00010000D     21
     508                       1       1                               0D     22
     508      12                                                00010000D     23
     508                       1       1                               0D     24
     508      13                                                00010000D     25
     508                       1       1                               0D     26
     508      14                                                00010000D     27
     508                       1       1                               0D     28
     126      15                                                00010000D     29
     126       0               2       0                               0D     30
     126      17                                                00010000D     31
     126       0               2       0                               0D     32
     126      19                                                00010000D     33
     126       0               2       0                               0D     34
     126      21                                                00010000D     35
     126       0               2       0                               0D     36
     126      23                                                00010000D     37
     126       0               2       0                               0D     38
     126      25                                                00010000D     39
     126       0               2       0                               0D     40
     126      27                                                00010000D     41
     126       0               2       0                               0D     42
     126      29                                                00010000D     43
     126       0               4       0                               0D     44
     126      33                                                00010000D     45
     126       0               4       0                               0D     46
     126      37                                                00010000D     47
     126       0               2       0                               0D     48
     126      39                                                00010000D     49
     126       0               3       0                               0D     50
     126      42                                                00010000D     51
     126       0               3       0                               0D     52
     128      45                                                00010000D     53
     128       0     -71       4       0                               0D     54
     128      49                                                00010000D     55
     128       0     -71       4       0                               0D     56
     128      53                                                00010000D     57
     128       0     -71       8       0                               0D     58
     128      61                                                00010000D     59
     128       0     -71       3       0                               0D     60
     128      64                                                00010000D     61
     128       0     -71       5       0                               0D     62
     128      69                                                00010000D     63
     128       0     -71       6       0                               0D     64
     502      75                                                00010000D     65
     502                       2       1                               0D     66
     504      77                                                00010001D     67
     504                       3       1                               0D     68
     406      80                                                00000000D     69
     406                       1      15                               0D     70
     314      81                                                00000200D     71
     314                       2       0                               0D     72
186,3,1,0,0,1,69;                                                      1P      1
514,6,5,1,7,1,9,1,11,1,13,1,15,1;                                      3P      2
510,53,1,1,17;                                                         5P      3
510,55,1,1,19;                                                         7P      4
510,57,1,1,21;                                                         9P      5
510,59,1,1,23;                                                        11P      6
510,61,1,1,25;                                                        13P      7
510,63,1,1,27;                                                        15P      8
508,4,0,67,1,0,0,0,67,2,1,0,0,67,3,0,0,0,67,4,0,0;                    17P      9
508,4,0,67,5,0,0,0,67,4,1,0,0,67,6,0,0,0,67,7,0,0;                    19P     10
508,4,0,67,8,1,0,0,67,7,1,0,0,67,9,0,0,0,67,10,0,0;                   21P     11
508,4,0,67,11,0,0,0,67,10,1,0,0,67,12,0,0,0,67,2,0,0;                 23P     12
508,4,0,67,12,1,0,0,67,9,1,0,0,67,6,1,0,0,67,3,1,0;                   25P     13
508,4,0,67,11,1,0,0,67,1,1,0,0,67,5,1,0,0,67,8,0,0;                   27P     14
126,1,1,0,0,1,0,0.,0.,5.4,5.4,1.,1.,0.,0.,0.,54.,0.,0.,0.,5.4,        29P     15
0.,0.,0.;                                                             29P     16
126,1,1,0,0,1,0,0.,0.,1.5,1.5,1.,1.,0.,0.,0.,0.,15.,0.,0.,1.5,        31P     17
0.,0.,0.;                                                             31P     18
126,1,1,0,0,1,0,-5.4,-5.4,0.,0.,1.,1.,54.,15.,0.,0.,15.,0.,-5.4,      33P     19
0.,0.,0.,0.;                                                          33P     20
126,1,1,0,0,1,0,0.,0.,1.5,1.5,1.,1.,54.,0.,0.,54.,15.,0.,0.,1.5,      35P     21
0.,0.,0.;                                                             35P     22
126,1,1,0,0,1,0,0.,0.,0.1,0.1,1.,1.,54.,0.,0.,54.,0.,1.,0.,0.1,       37P     23
0.,0.,0.;                                                             37P     24
126,1,1,0,0,1,0,-0.1,-0.1,0.,0.,1.,1.,54.,15.,1.,54.,15.,0.,          39P     25
-0.1,0.,0.,0.,0.;                                                     39P     26
126,1,1,0,0,1,0,0.,0.,1.5,1.5,1.,1.,54.,0.,1.,54.,15.,1.,0.,1.5,      41P     27
0.,0.,0.;                                                             41P     28
126,2,2,0,0,0,0,0.,0.,0.,0.732443269049937,0.732443269049937,         43P     29
0.732443269049937,1.,0.933687002652519,1.,0.,0.,                      43P     30
0.999999999999996,27.,0.,11.3551136363636,54.,0.,                     43P     31
1.00000000000001,0.,0.732443269049937,0.,0.,0.;                       43P     32
126,2,2,0,0,0,0,0.,0.,0.,0.732443269049937,0.732443269049937,         45P     33
0.732443269049937,1.,0.933687002652519,1.,0.,15.,                     45P     34
0.999999999999996,27.,15.,11.3551136363636,54.,15.,                   45P     35
1.00000000000001,0.,0.732443269049937,0.,0.,0.;                       45P     36
126,1,1,0,0,1,0,0.,0.,1.5,1.5,1.,1.,0.,0.,0.999999999999996,0.,       47P     37
15.,0.999999999999996,0.,1.5,0.,0.,0.;                                47P     38
126,1,1,0,0,1,0,3.60822483003176D-16,3.60822483003176D-16,0.1,        49P     39
0.1,1.,1.,0.,0.,0.999999999999996,0.,0.,0.,3.60822483003176D-16,      49P     40
0.1,0.,0.,0.;                                                         49P     41
126,1,1,0,0,1,0,-0.1,-0.1,-3.60822483003176D-16,                      51P     42
-3.60822483003176D-16,1.,1.,0.,15.,0.,0.,15.,0.999999999999996,       51P     43
-0.1,-3.60822483003176D-16,0.,0.,0.;                                  51P     44
128,1,1,1,1,0,0,1,0,0,-0.001,-0.001,5.401,5.401,-0.001,-0.001,        53P     45
1.501,1.501,1.,1.,1.,1.,54.01,-0.01,0.,-0.0100000000000033,           53P     46
-0.01,0.,54.01,15.01,0.,-0.0100000000000033,15.01,0.,-0.001,          53P     47
5.401,-0.001,1.501;                                                   53P     48
128,1,1,1,1,0,0,1,0,0,-0.00100000000000031,-0.00100000000000031,      55P     49
0.101,0.101,-0.001,-0.001,1.501,1.501,1.,1.,1.,1.,54.,-0.01,          55P     50
1.01,54.,-0.01,-0.01,54.,15.01,1.01,54.,15.01,-0.01,                  55P     51
-0.00100000000000031,0.101,-0.001,1.501;                              55P     52
128,1,2,1,2,0,0,0,0,0,0.,0.,0.19893899204244,0.19893899204244,        57P     53
-5.88977731896635D-17,-5.88977731896635D-17,                          57P     54
-5.88977731896635D-17,0.732443269049936,0.732443269049936,            57P     55
0.732443269049936,1.,1.,0.93368700265252,0.93368700265252,1.,1.,      57P     56
0.,15.,0.999999999999996,0.,0.,0.999999999999996,27.,15.,             57P     57
11.3551136363636,27.,0.,11.3551136363636,54.,15.,                     57P     58
0.999999999999996,54.,0.,0.999999999999996,0.,0.19893899204244,       57P     59
-5.88977731896635D-17,0.732443269049936;                              57P     60
128,1,1,1,1,0,0,1,0,0,-0.001,-0.001,0.101,0.101,-0.001,-0.001,        59P     61
1.501,1.501,1.,1.,1.,1.,0.,-0.01,-0.01,0.,-0.01,1.01,0.,15.01,        59P     62
-0.01,0.,15.01,1.01,-0.001,0.101,-0.001,1.501;                        59P     63
128,1,1,1,1,0,0,1,0,0,-2.701,-2.701,2.701,2.701,                      61P     64
-0.836511363636363,-0.836511363636363,0.301,0.301,1.,1.,1.,1.,        61P     65
-0.0099999999999989,15.,11.3651136363636,54.01,15.,                   61P     66
11.3651136363636,-0.0099999999999989,15.,-0.01,54.01,15.,             61P     67
-0.0100000000000011,-2.701,2.701,-0.836511363636363,0.301;            61P     68
128,1,1,1,1,0,0,1,0,0,-2.701,-2.701,2.701,2.701,                      63P     69
-0.836511363636363,-0.836511363636363,0.301,0.301,1.,1.,1.,1.,        63P     70
54.01,0.,11.3651136363636,-0.0099999999999989,0.,                     63P     71
11.3651136363636,54.01,0.,-0.0100000000000011,                        63P     72
-0.0099999999999989,0.,-0.01,-2.701,2.701,-0.836511363636363,         63P     73
0.301;                                                                63P     74
502,8,0.,0.,0.,54.,0.,0.,0.,15.,0.,54.,15.,0.,54.,0.,1.,54.,15.,      65P     75
1.,0.,0.,0.999999999999996,0.,15.,0.999999999999996;                  65P     76
504,12,29,65,1,65,2,31,65,1,65,3,33,65,4,65,3,35,65,2,65,4,37,        67P     77
65,2,65,5,39,65,6,65,4,41,65,5,65,6,43,65,7,65,5,45,65,8,65,6,        67P     78
47,65,7,65,8,49,65,7,65,1,51,65,3,65,8;                               67P     79
406,1,5HBody1;                                                        69P     80
314,62.7450980392157,62.7450980392157,62.7450980392157,13HSteel       71P     81
- Satin;                                                              71P     82
S      1G      3D     72P     82                                        T      1
