0
SECTION
2
HEADER
9
$INSUNITS
70
4
9
$ACADVER
1
AC1014
9
$HANDSEED
5
FFFF
0
ENDSEC
0
SECTION
2
TABLES
0
TABLE
2
VPORT
5
8
100
AcDbSymbolTable
0
ENDTAB
0
TABLE
2
LTYPE
5
5
100
AcDbSymbolTable
0
LTYPE
5
14
100
AcDbSymbolTableRecord
100
AcDbLinetypeTableRecord
2
BYBLOCK
70
0
0
LTYPE
5
15
100
AcDbSymbolTableRecord
100
AcDbLinetypeTableRecord
2
BYLAYER
70
0
0
ENDTAB
0
TABLE
2
LAYER
5
2
100
AcDbSymbolTable
70
2
0
LAYER
5
50
100
AcDbSymbolTableRecord
100
AcDbLayerTableRecord
2
0
70
0
6
CONTINUOUS
0
ENDTAB
0
TABLE
2
STYLE
5
3
100
AcDbSymbolTable
70
1
0
STYLE
5
11
100
AcDbSymbolTableRecord
100
AcDbTextStyleTableRecord
2
STANDARD
70
0
0
ENDTAB
0
TABLE
2
VIEW
5
6
100
AcDbSymbolTable
70
0
0
ENDTAB
0
TABLE
2
UCS
5
7
100
AcDbSymbolTable
70
0
0
ENDTAB
0
TABLE
2
APPID
5
9
100
AcDbSymbolTable
70
2
0
APPID
5
12
100
AcDbSymbolTableRecord
100
AcDbRegAppTableRecord
2
ACAD
70
0
0
ENDTAB
0
TABLE
2
DIMSTYLE
5
A
100
AcDbSymbolTable
70
1
0
ENDTAB
0
TABLE
2
BLOCK_RECORD
5
1
100
AcDbSymbolTable
70
1
0
BLOCK_RECORD
5
1F
100
AcDbSymbolTableRecord
100
AcDbBlockTableRecord
2
*MODEL_SPACE
0
BLOCK_RECORD
5
1B
100
AcDbSymbolTableRecord
100
AcDbBlockTableRecord
2
*PAPER_SPACE
0
ENDTAB
0
ENDSEC
0
SECTION
2
BLOCKS
0
BLOCK
5
20
100
AcDbEntity
100
AcDbBlockBegin
2
*MODEL_SPACE
0
ENDBLK
5
21
100
AcDbEntity
100
AcDbBlockEnd
0
BLOCK
5
1C
100
AcDbEntity
100
AcDbBlockBegin
2
*PAPER_SPACE
0
ENDBLK
5
1D
100
AcDbEntity
100
AcDbBlockEnd
0
ENDSEC
0
SECTION
2
ENTITIES
0
CIRCLE
5
100
100
AcDbEntity
8
0
100
AcDbCircle
10
-14.000000000000002
20
-43
30
0
40
3.5000000000000031
210
0
220
-0
230
1
0
CIRCLE
5
101
100
AcDbEntity
8
0
100
AcDbCircle
10
-31
20
-44
30
0
40
3.0000000000000027
210
0
220
-0
230
1
0
LWPOLYLINE
5
102
100
AcDbEntity
8
0
100
AcDbPolyline
90
4
70
1
43
0.0
10
0
20
-56.750000000000007
10
0
20
0
10
-71
20
0
10
-71.000001057982445
20
-56.750000000000007
0
LINE
5
103
100
AcDbEntity
8
0
100
AcDbLine
10
-71
20
0
30
0
11
-71
21
-52
31
0
0
LINE
5
104
100
AcDbEntity
8
0
100
AcDbLine
10
0
20
0
30
0
11
-71
21
0
31
0
0
LWPOLYLINE
5
105
100
AcDbEntity
8
0
100
AcDbPolyline
90
6
70
1
43
0.0
10
-63.299999999999997
20
-8.3279056191361338
10
-61.000000000000007
20
-9.6558112382722729
10
-58.70000000000001
20
-8.3279056191361374
10
-58.70000000000001
20
-5.6720943808638662
10
-61.000000000000007
20
-4.3441887617277288
10
-63.299999999999997
20
-5.6720943808638609
0
LWPOLYLINE
5
106
100
AcDbEntity
8
0
100
AcDbPolyline
90
6
70
1
43
0.0
10
-16.800000000000004
20
-33.827905619136139
10
-14.500000000000004
20
-35.155811238272278
10
-12.199999999999999
20
-33.827905619136139
10
-12.199999999999999
20
-31.172094380863861
10
-14.5
20
-29.844188761727718
10
-16.800000000000001
20
-31.172094380863857
0
LINE
5
107
100
AcDbEntity
8
0
100
AcDbLine
10
-1.6177811532852781e-31
20
-52
30
0
11
0
21
0
31
0
0
LINE
5
108
100
AcDbEntity
8
0
100
AcDbLine
10
-71
20
-52
30
0
11
0
21
-52
31
0
0
LWPOLYLINE
5
109
100
AcDbEntity
8
0
100
AcDbPolyline
90
6
70
1
43
0.0
10
-9.5000000000000018
20
-29.613248654051869
10
-14.500000000000002
20
-26.726497308103742
10
-19.5
20
-29.613248654051869
10
-19.5
20
-35.386751345948127
10
-14.500000000000004
20
-38.273502691896255
10
-9.5000000000000018
20
-35.386751345948134
0
LWPOLYLINE
5
110
100
AcDbEntity
8
0
100
AcDbPolyline
90
6
70
1
43
0.0
10
-56.000000000000007
20
-4.1132486540518709
10
-61.000000000000007
20
-1.2264973081037471
10
-66
20
-4.1132486540518718
10
-66
20
-9.8867513459481309
10
-61.000000000000007
20
-12.773502691896262
10
-56.000000000000007
20
-9.8867513459481344
0
LWPOLYLINE
5
111
100
AcDbEntity
8
0
100
AcDbPolyline
90
4
70
1
43
0.0
10
0
20
-52
10
-3.5000000000000004
20
-52
10
-3.5000000000000004
20
0
10
0
20
0
0
LWPOLYLINE
5
112
100
AcDbEntity
8
0
100
AcDbPolyline
90
4
70
1
43
0.0
10
-71
20
-52
10
-67.500000000000014
20
-52
10
-67.5
20
-1.3877787807814457e-14
10
-71
20
0
0
LWPOLYLINE
5
113
100
AcDbEntity
8
0
100
AcDbPolyline
90
4
70
1
43
0.0
10
0
20
0
10
-71
20
0
10
-71
20
-2.7999999999999998
10
-9.6296497219361793e-33
20
-2.7999999999999998
0
ENDSEC
0
SECTION
2
OBJECTS
0
DICTIONARY
5
C
100
AcDbDictionary
3
ACAD_GROUP
350
D
3
ACAD_MLINESTYLE
350
17
0
DICTIONARY
5
D
100
AcDbDictionary
0
DICTIONARY
5
1A
330
C
100
AcDbDictionary
0
DICTIONARY
5
17
100
AcDbDictionary
0
ENDSEC
0
EOF
