                                                                        S      1
,,19HMetal Shelf Foot v2,19HMetal Shelf Foot v2,7Hunknown,7Hunknown,32, G      1
38,7,99,15,,1.,2,2HMM,1,0.08,15H20220922.115133,0.01,10000.,7Hunknown,7HG      2
unknown,11,0,15H20190929.170227;                                        G      3
     186       1                                                00000000D      1
     186            -127       1       0                               0D      2
     514       2                                                00010000D      3
     514                       1       1                               0D      4
     510       3                                                00010000D      5
     510            -127       1       1                               0D      6
     510       4                                                00010000D      7
     510            -127       1       1                               0D      8
     510       5                                                00010000D      9
     510            -127       1       1                               0D     10
     510       6                                                00010000D     11
     510            -127       1       1                               0D     12
     510       7                                                00010000D     13
     510            -127       1       1                               0D     14
     510       8                                                00010000D     15
     510            -127       1       1                               0D     16
     510       9                                                00010000D     17
     510            -127       1       1                               0D     18
     510      10                                                00010000D     19
     510            -127       1       1                               0D     20
     510      11                                                00010000D     21
     510            -127       1       1                               0D     22
     510      12                                                00010000D     23
     510            -127       1       1                               0D     24
     510      13                                                00010000D     25
     510            -127       1       1                               0D     26
     508      14                                                00010000D     27
     508                       1       1                               0D     28
     508      15                                                00010000D     29
     508                       1       1                               0D     30
     508      16                                                00010000D     31
     508                       1       1                               0D     32
     508      17                                                00010000D     33
     508                       1       1                               0D     34
     508      18                                                00010000D     35
     508                       1       1                               0D     36
     508      19                                                00010000D     37
     508                       1       1                               0D     38
     508      20                                                00010000D     39
     508                       1       1                               0D     40
     508      21                                                00010000D     41
     508                       1       1                               0D     42
     508      22                                                00010000D     43
     508                       1       1                               0D     44
     508      23                                                00010000D     45
     508                       1       1                               0D     46
     508      24                                                00010000D     47
     508                       1       1                               0D     48
     508      25                                                00010000D     49
     508                       1       1                               0D     50
     126      26                                                00010000D     51
     126       0               2       0                               0D     52
     126      28                                                00010000D     53
     126       0               2       0                               0D     54
     126      30                                                00010000D     55
     126       0               2       0                               0D     56
     126      32                                                00010000D     57
     126       0               2       0                               0D     58
     126      34                                                00010000D     59
     126       0               2       0                               0D     60
     126      36                                                00010000D     61
     126       0               2       0                               0D     62
     126      38                                                00010000D     63
     126       0               2       0                               0D     64
     126      40                                                00010000D     65
     126       0               2       0                               0D     66
     126      42                                                00010000D     67
     126       0               2       0                               0D     68
     126      44                                                00010000D     69
     126       0               2       0                               0D     70
     126      46                                                00010000D     71
     126       0               2       0                               0D     72
     126      48                                                00010000D     73
     126       0               2       0                               0D     74
     126      50                                                00010000D     75
     126       0               2       0                               0D     76
     126      52                                                00010000D     77
     126       0               2       0                               0D     78
     126      54                                                00010000D     79
     126       0               2       0                               0D     80
     126      56                                                00010000D     81
     126       0               2       0                               0D     82
     126      58                                                00010000D     83
     126       0               2       0                               0D     84
     126      60                                                00010000D     85
     126       0               2       0                               0D     86
     126      62                                                00010000D     87
     126       0               2       0                               0D     88
     126      64                                                00010000D     89
     126       0               2       0                               0D     90
     126      66                                                00010000D     91
     126       0               2       0                               0D     92
     126      68                                                00010000D     93
     126       0               2       0                               0D     94
     126      70                                                00010000D     95
     126       0               2       0                               0D     96
     126      72                                                00010000D     97
     126       0               2       0                               0D     98
     128      74                                                00010000D     99
     128       0    -127       4       0                               0D    100
     128      78                                                00010000D    101
     128       0    -127       3       0                               0D    102
     128      81                                                00010000D    103
     128       0    -127       4       0                               0D    104
     128      85                                                00010000D    105
     128       0    -127       3       0                               0D    106
     128      88                                                00010000D    107
     128       0    -127       3       0                               0D    108
     128      91                                                00010000D    109
     128       0    -127       4       0                               0D    110
     128      95                                                00010000D    111
     128       0    -127       3       0                               0D    112
     128      98                                                00010000D    113
     128       0    -127       3       0                               0D    114
     128     101                                                00010000D    115
     128       0    -127       3       0                               0D    116
     128     104                                                00010000D    117
     128       0    -127       4       0                               0D    118
     128     108                                                00010000D    119
     128       0    -127       3       0                               0D    120
     502     111                                                00010000D    121
     502                       3       1                               0D    122
     504     114                                                00010001D    123
     504                       7       1                               0D    124
     406     121                                                00000000D    125
     406                       1      15                               0D    126
     314     122                                                00000200D    127
     314                       2       0                               0D    128
186,3,1,0,0,1,125;                                                     1P      1
514,11,5,1,7,1,9,1,11,1,13,1,15,1,17,1,19,1,21,1,23,1,25,1;            3P      2
510,99,1,1,27;                                                         5P      3
510,101,1,1,29;                                                        7P      4
510,103,1,1,31;                                                        9P      5
510,105,1,1,33;                                                       11P      6
510,107,1,1,35;                                                       13P      7
510,109,1,1,37;                                                       15P      8
510,111,1,1,39;                                                       17P      9
510,113,1,1,41;                                                       19P     10
510,115,2,1,43,45;                                                    21P     11
510,117,1,1,47;                                                       23P     12
510,119,1,1,49;                                                       25P     13
508,4,0,123,1,0,0,0,123,2,1,0,0,123,3,0,0,0,123,4,0,0;                27P     14
508,4,0,123,5,0,0,0,123,6,1,0,0,123,7,0,0,0,123,2,0,0;                29P     15
508,4,0,123,8,0,0,0,123,4,1,0,0,123,9,0,0,0,123,10,0,0;               31P     16
508,4,0,123,11,0,0,0,123,10,1,0,0,123,12,0,0,0,123,6,0,0;             33P     17
508,4,0,123,13,0,0,0,123,14,1,0,0,123,15,0,0,0,123,16,0,0;            35P     18
508,4,0,123,17,0,0,0,123,16,1,0,0,123,18,0,0,0,123,19,0,0;            37P     19
508,4,0,123,20,0,0,0,123,19,1,0,0,123,21,0,0,0,123,22,0,0;            39P     20
508,4,0,123,23,0,0,0,123,22,1,0,0,123,24,0,0,0,123,14,0,0;            41P     21
508,4,0,123,24,1,0,0,123,21,1,0,0,123,18,1,0,0,123,15,1,0;            43P     22
508,4,0,123,7,1,0,0,123,12,1,0,0,123,9,1,0,0,123,3,1,0;               45P     23
508,4,0,123,5,1,0,0,123,1,1,0,0,123,8,1,0,0,123,11,1,0;               47P     24
508,4,0,123,23,1,0,0,123,13,1,0,0,123,17,1,0,0,123,20,1,0;            49P     25
126,1,1,0,0,1,0,0.,0.,4.6,4.6,1.,1.,0.,0.,2.,46.,0.,2.,0.,4.6,        51P     26
0.,0.,0.;                                                             51P     27
126,1,1,0,0,1,0,0.2,0.2,1.,1.,1.,1.,0.,0.,2.,0.,0.,10.,0.2,1.,        53P     28
0.,0.,0.;                                                             53P     29
126,1,1,0,0,1,0,-4.6,-4.6,0.,0.,1.,1.,46.,0.,10.,0.,0.,10.,-4.6,      55P     30
0.,0.,0.,0.;                                                          55P     31
126,1,1,0,0,1,0,0.2,0.2,1.,1.,1.,1.,46.,0.,2.,46.,0.,10.,0.2,1.,      57P     32
0.,0.,0.;                                                             57P     33
126,1,1,0,0,1,0,0.,0.,3.2,3.2,1.,1.,0.,32.,2.,0.,0.,2.,0.,3.2,        59P     34
0.,0.,0.;                                                             59P     35
126,1,1,0,0,1,0,0.2,0.2,1.,1.,1.,1.,0.,32.,2.,0.,32.,10.,0.2,1.,      61P     36
0.,0.,0.;                                                             61P     37
126,1,1,0,0,1,0,-3.2,-3.2,0.,0.,1.,1.,0.,0.,10.,0.,32.,10.,-3.2,      63P     38
0.,0.,0.,0.;                                                          63P     39
126,1,1,0,0,1,0,0.,0.,3.2,3.2,1.,1.,46.,0.,2.,46.,32.,2.,0.,3.2,      65P     40
0.,0.,0.;                                                             65P     41
126,1,1,0,0,1,0,-3.2,-3.2,0.,0.,1.,1.,46.,32.,10.,46.,0.,10.,         67P     42
-3.2,0.,0.,0.,0.;                                                     67P     43
126,1,1,0,0,1,0,0.2,0.2,1.,1.,1.,1.,46.,32.,2.,46.,32.,10.,0.2,       69P     44
1.,0.,0.,0.;                                                          69P     45
126,1,1,0,0,1,0,0.,0.,4.6,4.6,1.,1.,46.,32.,2.,0.,32.,2.,0.,4.6,      71P     46
0.,0.,0.;                                                             71P     47
126,1,1,0,0,1,0,-4.6,-4.6,0.,0.,1.,1.,0.,32.,10.,46.,32.,10.,         73P     48
-4.6,0.,0.,0.,0.;                                                     73P     49
126,1,1,0,0,1,0,0.,0.,3.6,3.6,1.,1.,-2.,-2.,0.,-2.,34.,0.,0.,         75P     50
3.6,0.,0.,0.;                                                         75P     51
126,1,1,0,0,1,0,0.,0.,1.,1.,1.,1.,-2.,-2.,0.,-2.,-2.,10.,0.,1.,       77P     52
0.,0.,0.;                                                             77P     53
126,1,1,0,0,1,0,-3.6,-3.6,0.,0.,1.,1.,-2.,34.,10.,-2.,-2.,10.,        79P     54
-3.6,0.,0.,0.,0.;                                                     79P     55
126,1,1,0,0,1,0,0.,0.,1.,1.,1.,1.,-2.,34.,0.,-2.,34.,10.,0.,1.,       81P     56
0.,0.,0.;                                                             81P     57
126,1,1,0,0,1,0,0.,0.,5.,5.,1.,1.,-2.,34.,0.,48.,34.,0.,0.,5.,        83P     58
0.,0.,0.;                                                             83P     59
126,1,1,0,0,1,0,-5.,-5.,0.,0.,1.,1.,48.,34.,10.,-2.,34.,10.,-5.,      85P     60
0.,0.,0.,0.;                                                          85P     61
126,1,1,0,0,1,0,0.,0.,1.,1.,1.,1.,48.,34.,0.,48.,34.,10.,0.,1.,       87P     62
0.,0.,0.;                                                             87P     63
126,1,1,0,0,1,0,0.,0.,3.6,3.6,1.,1.,48.,34.,0.,48.,-2.,0.,0.,         89P     64
3.6,0.,0.,0.;                                                         89P     65
126,1,1,0,0,1,0,-3.6,-3.6,0.,0.,1.,1.,48.,-2.,10.,48.,34.,10.,        91P     66
-3.6,0.,0.,0.,0.;                                                     91P     67
126,1,1,0,0,1,0,0.,0.,1.,1.,1.,1.,48.,-2.,0.,48.,-2.,10.,0.,1.,       93P     68
0.,0.,0.;                                                             93P     69
126,1,1,0,0,1,0,0.,0.,5.,5.,1.,1.,48.,-2.,0.,-2.,-2.,0.,0.,5.,        95P     70
0.,0.,0.;                                                             95P     71
126,1,1,0,0,1,0,-5.,-5.,0.,0.,1.,1.,-2.,-2.,10.,48.,-2.,10.,-5.,      97P     72
0.,0.,0.,0.;                                                          97P     73
128,1,1,1,1,0,0,1,0,0,-0.001,-0.001,4.601,4.601,0.199,0.199,          99P     74
1.001,1.001,1.,1.,1.,1.,46.01,0.,1.99,-0.0100000000000033,0.,         99P     75
1.99,46.01,0.,10.01,-0.0100000000000033,0.,10.01,-0.001,4.601,        99P     76
0.199,1.001;                                                          99P     77
128,1,1,1,1,0,0,1,0,0,-0.001,-0.001,3.201,3.201,0.199,0.199,         101P     78
1.001,1.001,1.,1.,1.,1.,0.,-0.01,1.99,0.,32.01,1.99,0.,-0.01,        101P     79
10.01,0.,32.01,10.01,-0.001,3.201,0.199,1.001;                       101P     80
128,1,1,1,1,0,0,1,0,0,-0.001,-0.001,3.201,3.201,0.199,0.199,         103P     81
1.001,1.001,1.,1.,1.,1.,46.,32.01,1.99,46.,-0.0099999999999989,      103P     82
1.99,46.,32.01,10.01,46.,-0.0099999999999989,10.01,-0.001,3.201,     103P     83
0.199,1.001;                                                         103P     84
128,1,1,1,1,0,0,1,0,0,-0.001,-0.001,4.601,4.601,0.199,0.199,         105P     85
1.001,1.001,1.,1.,1.,1.,-0.01,32.,1.99,46.01,32.,1.99,-0.01,32.,     105P     86
10.01,46.01,32.,10.01,-0.001,4.601,0.199,1.001;                      105P     87
128,1,1,1,1,0,0,1,0,0,-0.001,-0.001,3.601,3.601,-0.001,-0.001,       107P     88
1.001,1.001,1.,1.,1.,1.,-2.,34.01,-0.01,-2.,-2.01,-0.01,-2.,         107P     89
34.01,10.01,-2.,-2.01,10.01,-0.001,3.601,-0.001,1.001;               107P     90
128,1,1,1,1,0,0,1,0,0,-0.001,-0.001,5.001,5.001,-0.001,-0.001,       109P     91
1.001,1.001,1.,1.,1.,1.,48.01,34.,-0.01,-2.01000000000001,34.,       109P     92
-0.01,48.01,34.,10.01,-2.01000000000001,34.,10.01,-0.001,5.001,      109P     93
-0.001,1.001;                                                        109P     94
128,1,1,1,1,0,0,1,0,0,-0.001,-0.001,3.601,3.601,-0.001,-0.001,       111P     95
1.001,1.001,1.,1.,1.,1.,48.,-2.01,-0.01,48.,34.01,-0.01,48.,         111P     96
-2.01,10.01,48.,34.01,10.01,-0.001,3.601,-0.001,1.001;               111P     97
128,1,1,1,1,0,0,1,0,0,-0.001,-0.001,5.001,5.001,-0.001,-0.001,       113P     98
1.001,1.001,1.,1.,1.,1.,-2.01,-2.,-0.01,48.01,-2.,-0.01,-2.01,       113P     99
-2.,10.01,48.01,-2.,10.01,-0.001,5.001,-0.001,1.001;                 113P    100
128,1,1,1,1,0,0,1,0,0,-2.501,-2.501,2.501,2.501,-1.801,-1.801,       115P    101
1.801,1.801,1.,1.,1.,1.,-2.01,-2.01,10.,48.01,-2.01,10.,-2.01,       115P    102
34.01,10.,48.01,34.01,10.,-2.501,2.501,-1.801,1.801;                 115P    103
128,1,1,1,1,0,0,1,0,0,-2.301,-2.301,2.301,2.301,-1.601,-1.601,       117P    104
1.601,1.601,1.,1.,1.,1.,-0.0099999999999989,-0.0099999999999989,     117P    105
2.,46.01,-0.0099999999999989,2.,-0.0099999999999989,32.01,2.,        117P    106
46.01,32.01,2.,-2.301,2.301,-1.601,1.601;                            117P    107
128,1,1,1,1,0,0,1,0,0,-2.501,-2.501,2.501,2.501,-1.801,-1.801,       119P    108
1.801,1.801,1.,1.,1.,1.,48.01,-2.01,0.,-2.01,-2.01,0.,48.01,         119P    109
34.01,0.,-2.01,34.01,0.,-2.501,2.501,-1.801,1.801;                   119P    110
502,16,0.,0.,2.,46.,0.,2.,0.,0.,10.,46.,0.,10.,0.,32.,2.,0.,32.,     121P    111
10.,46.,32.,2.,46.,32.,10.,-2.,-2.,0.,-2.,34.,0.,-2.,-2.,10.,        121P    112
-2.,34.,10.,48.,34.,0.,48.,34.,10.,48.,-2.,0.,48.,-2.,10.;           121P    113
504,24,51,121,1,121,2,53,121,1,121,3,55,121,4,121,3,57,121,2,        123P    114
121,4,59,121,5,121,1,61,121,5,121,6,63,121,3,121,6,65,121,2,121,     123P    115
7,67,121,8,121,4,69,121,7,121,8,71,121,7,121,5,73,121,6,121,8,       123P    116
75,121,9,121,10,77,121,9,121,11,79,121,12,121,11,81,121,10,121,      123P    117
12,83,121,10,121,13,85,121,14,121,12,87,121,13,121,14,89,121,13,     123P    118
121,15,91,121,16,121,14,93,121,15,121,16,95,121,15,121,9,97,121,     123P    119
11,121,16;                                                           123P    120
406,1,5HBody1;                                                       125P    121
314,62.7450980392157,62.7450980392157,62.7450980392157,13HSteel      127P    122
- Satin;                                                             127P    123
S      1G      3D    128P    123                                        T      1
